<svg enable-background="new 0 0 438.118 246.795" height="246.795" viewBox="0 0 438.118 246.795" width="438.118" xmlns="http://www.w3.org/2000/svg"><path d="m.076.075h437.964v246.645h-437.964z" fill="none" stroke="#a6a8ab" stroke-miterlimit="10" stroke-width=".15"/><path d="m50.076 64.074h337.966v132.645h-337.966z" fill="#e6e6e6"/><path d="m55.022 54.997c.411.131.747.38 1.008.749s.392.777.392 1.225c0 .794-.259 1.402-.777 1.827s-1.23.638-2.135.638h-3.29v-8.597h3.01c.915 0 1.629.201 2.142.603.513.4.77.979.77 1.736 0 .447-.105.835-.315 1.161-.21.327-.478.546-.805.658zm-3.388-.546h1.582c1.017 0 1.526-.396 1.526-1.189 0-.775-.509-1.162-1.526-1.162h-1.582zm0 1.204v2.521h1.848c.485 0 .859-.113 1.12-.337s.392-.532.392-.924-.131-.7-.392-.924-.635-.336-1.12-.336z" fill="#585a5e"/><path d="m64.29 51.952c.747.835 1.12 1.897 1.12 3.185 0 1.289-.374 2.35-1.12 3.186-.747.835-1.699 1.253-2.856 1.253-1.158 0-2.107-.418-2.849-1.253-.742-.836-1.113-1.896-1.113-3.186 0-1.287.371-2.35 1.113-3.185s1.691-1.253 2.849-1.253c1.157 0 2.109.418 2.856 1.253zm-1.043 5.439c.462-.588.693-1.339.693-2.254 0-.914-.231-1.666-.693-2.254s-1.066-.882-1.813-.882-1.349.292-1.806.875c-.458.583-.686 1.337-.686 2.261s.229 1.678.686 2.262c.457.583 1.059.875 1.806.875.747-.001 1.351-.295 1.813-.883z" fill="#585a5e"/><path d="m73.208 51.952c.747.835 1.12 1.897 1.12 3.185 0 1.289-.374 2.35-1.12 3.186-.747.835-1.699 1.253-2.856 1.253-1.158 0-2.107-.418-2.849-1.253-.742-.836-1.113-1.896-1.113-3.186 0-1.287.371-2.35 1.113-3.185s1.691-1.253 2.849-1.253c1.157 0 2.109.418 2.856 1.253zm-1.043 5.439c.462-.588.693-1.339.693-2.254 0-.914-.231-1.666-.693-2.254s-1.066-.882-1.813-.882-1.349.292-1.806.875c-.458.583-.686 1.337-.686 2.261s.229 1.678.686 2.262c.457.583 1.059.875 1.806.875.747-.001 1.351-.295 1.813-.883z" fill="#585a5e"/><path d="m75.77 59.436v-8.597h1.456v7.294h4.13v1.303z" fill="#585a5e"/><path d="m82.84 50.839h5.614v1.288h-4.186v2.268h3.794v1.274h-3.794v2.464h4.186v1.303h-5.614z" fill="#585a5e"/><path d="m92.667 50.839h1.4l3.304 8.597h-1.484l-.882-2.381h-3.29l-.882 2.381h-1.47zm.687 1.778-1.176 3.178h2.352z" fill="#585a5e"/><path d="m105.52 50.839v8.597h-1.12l-4.396-6.258v6.258h-1.4v-8.597h1.372l4.144 5.964v-5.964z" fill="#585a5e"/><path d="m216.06 103.867h123.604v58.166h-123.604z" fill="none" stroke="#20b5ae" stroke-dasharray="2" stroke-miterlimit="10" stroke-width="2"/><path d="m103.683 114.877h99.074v33.527h-99.074z" fill="#fff"/><path d="m143.959 134.357v-3.873h-.975v-.56h.975v-1.481h.637v1.481h1.495v.56h-1.495v3.809c0 .624.277.936.832.936.277 0 .542-.073.793-.221v.611c-.243.129-.528.195-.858.195-.434 0-.776-.124-1.027-.371s-.377-.609-.377-1.086z" fill="#222429"/><path d="m150.603 129.886v.638c-.165-.07-.343-.104-.533-.104-.347 0-.654.112-.923.338s-.473.528-.611.91v4.03h-.65v-5.772h.65v.923c.138-.303.346-.553.624-.748.277-.194.589-.292.936-.292.164-.001.333.025.507.077z" fill="#222429"/><path d="m156.53 129.925v5.772h-.637v-.924c-.19.295-.446.542-.767.741-.32.199-.676.3-1.066.3-.641 0-1.135-.189-1.482-.566s-.52-.877-.52-1.502v-3.821h.637v3.731c0 .467.124.845.371 1.131.247.285.617.429 1.111.429.381 0 .726-.117 1.034-.351.307-.234.535-.533.682-.897v-4.043z" fill="#222429"/><path d="m162.458 134.02h.624c-.113.547-.366.982-.761 1.307s-.886.488-1.476.488c-.763 0-1.38-.277-1.853-.832-.472-.555-.708-1.279-.708-2.172 0-.875.232-1.594.696-2.158.463-.562 1.081-.845 1.853-.845.745 0 1.321.259 1.729.773.407.517.611 1.198.611 2.048v.234h-4.251c.008.728.19 1.307.546 1.734.355.43.814.645 1.378.645.407 0 .756-.109 1.046-.325.291-.217.48-.516.566-.897zm-1.625-3.64c-.52 0-.947.178-1.281.532-.333.355-.535.837-.604 1.443h3.575c-.018-.555-.169-1.022-.455-1.404-.286-.381-.697-.571-1.235-.571z" fill="#222429"/><path d="m228.162 114.877h99.079v33.527h-99.079z" fill="#fff"/><path d="m269.26 127.246v.599c-.174-.095-.369-.144-.586-.144-.312 0-.564.111-.76.332s-.293.526-.293.916v.976h1.352v.56h-1.352v5.213h-.637v-5.213h-.936v-.56h.936v-1.04c0-.52.151-.942.455-1.268.303-.324.693-.487 1.17-.487.235 0 .451.039.651.116z" fill="#222429"/><path d="m274.239 135.697h-.624v-.547c-.139.165-.355.312-.649.442-.295.13-.611.194-.949.194-.607 0-1.114-.162-1.521-.486-.407-.326-.611-.756-.611-1.294 0-.521.209-.944.625-1.274.416-.329.927-.494 1.533-.494.312 0 .615.063.91.189.295.125.516.266.663.422v-1.027c0-.433-.128-.781-.384-1.046s-.609-.396-1.059-.396c-.721 0-1.188.329-1.404.987h-.637c.111-.484.353-.865.721-1.144.368-.277.809-.416 1.32-.416.641 0 1.146.181 1.514.54s.553.843.553 1.449v3.901zm-.624-1.313v-.741c-.096-.251-.288-.457-.579-.617-.29-.16-.608-.24-.955-.24-.441 0-.816.105-1.125.318-.307.213-.461.514-.461.903s.154.693.461.91c.309.216.684.325 1.125.325.347 0 .665-.08.955-.24.291-.161.483-.367.579-.618z" fill="#222429"/><path d="m276.995 127.246v8.451h-.65v-8.451z" fill="#222429"/><path d="m278.632 134.201h.649c.234.703.771 1.054 1.612 1.054.416 0 .754-.091 1.015-.272.26-.183.39-.447.39-.793 0-.486-.355-.828-1.065-1.027l-1.08-.299c-.91-.243-1.365-.729-1.365-1.457 0-.484.188-.873.56-1.163s.837-.436 1.392-.436c.589 0 1.067.139 1.436.416.369.278.605.663.709 1.157h-.637c-.227-.676-.729-1.014-1.508-1.014-.382 0-.698.088-.949.266-.252.178-.377.428-.377.748 0 .26.08.455.24.585s.427.247.799.351l1.027.286c.963.251 1.443.776 1.443 1.573 0 .512-.191.912-.572 1.203-.381.29-.871.436-1.469.436-.59 0-1.09-.144-1.502-.43s-.661-.68-.748-1.184z" fill="#222429"/><path d="m288.434 134.02h.625c-.113.547-.367.982-.762 1.307s-.886.488-1.475.488c-.764 0-1.381-.277-1.854-.832-.472-.555-.708-1.279-.708-2.172 0-.875.231-1.594.696-2.158.463-.562 1.08-.845 1.852-.845.746 0 1.322.259 1.729.773.407.517.61 1.198.61 2.048v.234h-4.25c.008.728.189 1.307.545 1.734.355.43.814.645 1.379.645.406 0 .756-.109 1.046-.325.292-.217.481-.516.567-.897zm-1.625-3.64c-.52 0-.947.178-1.28.532-.333.355-.535.837-.604 1.443h3.575c-.018-.555-.169-1.022-.455-1.404-.287-.381-.699-.571-1.236-.571z" fill="#222429"/><g fill="#20b5ae"><path d="m300.58 53.203v.727h-.539v-7.15h.539v2.992c.146-.228.357-.422.632-.584.275-.16.57-.241.887-.241.688 0 1.217.243 1.584.731.366.488.549 1.091.549 1.81s-.183 1.321-.549 1.81c-.367.488-.896.731-1.584.731-.316 0-.611-.081-.887-.242-.275-.162-.486-.356-.632-.584zm0-2.783v2.135c.161.308.372.546.632.715.261.168.541.252.842.252.499 0 .895-.188 1.188-.566.293-.377.44-.867.44-1.468 0-.602-.147-1.091-.44-1.469-.294-.378-.689-.566-1.188-.566-.301 0-.581.085-.842.253-.26.168-.471.406-.632.714z"/><path d="m308.813 49.65c.4.469.6 1.082.6 1.837s-.199 1.368-.6 1.837c-.399.469-.922.704-1.567.704s-1.166-.235-1.562-.704-.594-1.082-.594-1.837.197-1.368.594-1.837c.396-.469.916-.704 1.562-.704s1.168.236 1.567.704zm-.391 3.328c.293-.378.44-.874.44-1.49s-.147-1.112-.44-1.491c-.293-.377-.686-.566-1.177-.566-.483 0-.872.189-1.166.566-.294.379-.44.875-.44 1.491s.146 1.112.44 1.49.683.567 1.166.567c.492 0 .884-.19 1.177-.567z"/><path d="m313.994 49.65c.399.469.6 1.082.6 1.837s-.2 1.368-.6 1.837-.923.704-1.567.704c-.646 0-1.166-.235-1.562-.704s-.594-1.082-.594-1.837.198-1.368.594-1.837.917-.704 1.562-.704c.644 0 1.167.236 1.567.704zm-.39 3.328c.293-.378.439-.874.439-1.49s-.146-1.112-.439-1.491c-.294-.377-.687-.566-1.178-.566-.484 0-.873.189-1.166.566-.293.379-.439.875-.439 1.491s.146 1.112.439 1.49.682.567 1.166.567c.491 0 .884-.19 1.178-.567z"/><path d="m316.354 46.779v7.15h-.551v-7.15z"/><path d="m321.094 52.51h.527c-.095.463-.309.831-.643 1.105-.334.275-.75.413-1.248.413-.646 0-1.168-.235-1.568-.704-.399-.469-.6-1.082-.6-1.837 0-.741.196-1.349.589-1.826.392-.477.915-.715 1.567-.715.631 0 1.118.218 1.463.654s.518 1.015.518 1.732v.198h-3.598c.008.615.162 1.105.463 1.469.3.363.688.545 1.166.545.344 0 .639-.092.885-.275s.406-.436.479-.759zm-1.375-3.08c-.439 0-.801.15-1.084.451-.281.301-.452.708-.511 1.221h3.024c-.015-.469-.143-.865-.385-1.188s-.589-.484-1.044-.484z"/><path d="m326.22 53.93h-.528v-.463c-.117.14-.301.264-.55.375-.249.109-.517.164-.803.164-.514 0-.942-.137-1.287-.412s-.517-.64-.517-1.095c0-.44.176-.799.527-1.077.352-.279.785-.418 1.299-.418.264 0 .52.053.77.158.249.107.436.227.561.357v-.868c0-.366-.107-.662-.324-.886s-.516-.336-.896-.336c-.609 0-1.005.279-1.188.836h-.539c.095-.41.299-.732.609-.967.312-.235.685-.353 1.117-.353.543 0 .97.152 1.281.456.312.305.468.714.468 1.227zm-.528-1.112v-.627c-.08-.213-.244-.387-.489-.523-.245-.135-.515-.203-.809-.203-.374 0-.69.09-.951.27s-.391.436-.391.765c0 .33.13.587.391.771s.577.275.951.275c.294 0 .563-.068.809-.204s.409-.311.489-.524z"/><path d="m327.727 53.93v-4.885h.55v.781c.161-.249.38-.458.654-.627.275-.168.577-.253.907-.253.543 0 .961.159 1.254.479.294.319.44.742.44 1.271v3.234h-.539v-3.158c0-.396-.104-.715-.313-.956-.209-.242-.522-.363-.94-.363-.323 0-.616.099-.88.297s-.459.451-.583.759v3.422h-.55z"/><path d="m332.479 54.896v-.506h3.432v.506z"/><path d="m339.09 46.779v.506c-.147-.08-.312-.121-.496-.121-.264 0-.479.094-.643.281-.166.187-.248.445-.248.775v.824h1.145v.473h-1.145v4.412h-.539v-4.412h-.791v-.473h.791v-.88c0-.44.129-.798.385-1.072.258-.274.587-.413.99-.413.199.001.381.034.551.1z"/><path d="m343.028 53.93h-.528v-.463c-.118.14-.301.264-.551.375-.25.109-.518.164-.803.164-.514 0-.942-.137-1.287-.412s-.518-.64-.518-1.095c0-.44.177-.799.528-1.077.353-.279.784-.418 1.298-.418.264 0 .521.053.771.158.249.107.437.227.562.357v-.868c0-.366-.109-.662-.325-.886s-.515-.336-.896-.336c-.608 0-1.005.279-1.188.836h-.539c.096-.41.299-.732.611-.967s.684-.353 1.116-.353c.542 0 .97.152 1.282.456.311.305.467.714.467 1.227zm-.528-1.112v-.627c-.082-.213-.244-.387-.49-.523-.246-.135-.516-.203-.809-.203-.374 0-.691.09-.951.27-.261.18-.391.436-.391.765 0 .33.13.587.391.771.26.184.577.275.951.275.293 0 .562-.068.809-.204s.408-.311.49-.524z"/><path d="m345.084 46.779v7.15h-.551v-7.15z"/><path d="m346.196 52.664h.549c.199.594.653.891 1.365.891.352 0 .637-.076.857-.23s.33-.377.33-.671c0-.411-.301-.7-.902-.869l-.912-.253c-.771-.205-1.156-.616-1.156-1.232 0-.41.158-.738.474-.984s.708-.368 1.177-.368c.499 0 .904.117 1.216.353.312.234.511.561.599.979h-.538c-.19-.572-.616-.857-1.276-.857-.322 0-.59.074-.803.225s-.318.361-.318.633c0 .22.066.385.203.494.135.111.361.209.676.298l.869.241c.814.213 1.221.657 1.221 1.332 0 .433-.16.771-.483 1.018-.323.245-.737.368-1.243.368-.498 0-.922-.121-1.271-.363-.351-.245-.562-.579-.634-1.005z"/><path d="m354.214 52.51h.528c-.096.463-.311.831-.644 1.105-.334.275-.75.413-1.249.413-.645 0-1.168-.235-1.567-.704s-.599-1.082-.599-1.837c0-.741.195-1.349.588-1.826s.914-.715 1.567-.715c.631 0 1.118.218 1.463.654s.517 1.015.517 1.732v.198h-3.597c.007.615.161 1.105.462 1.469s.689.545 1.166.545c.345 0 .641-.092.886-.275s.406-.436.479-.759zm-1.375-3.08c-.44 0-.802.15-1.083.451-.283.301-.453.708-.512 1.221h3.025c-.016-.469-.144-.865-.386-1.188-.24-.322-.59-.484-1.044-.484z"/></g><path d="m327.243 59.436v40.808" fill="none" stroke="#20b5ae" stroke-miterlimit="10" stroke-width=".5"/></svg>