<?xml version="1.0" encoding="utf-8"?>
<!-- Generator: Adobe Illustrator 16.0.0, SVG Export Plug-In . SVG Version: 6.00 Build 0)  -->
<!DOCTYPE svg PUBLIC "-//W3C//DTD SVG 1.1//EN" "http://www.w3.org/Graphics/SVG/1.1/DTD/svg11.dtd">
<svg version="1.1" id="_x32__1_" xmlns="http://www.w3.org/2000/svg" xmlns:xlink="http://www.w3.org/1999/xlink" x="0px" y="0px"
	 width="599.968px" height="317.84px" viewBox="0 0 599.968 317.84" enable-background="new 0 0 599.968 317.84"
	 xml:space="preserve">
<g>
	
		<rect x="0.075" y="0.076" fill="none" stroke="#A6A8AB" stroke-width="0.15" stroke-miterlimit="10" width="599.818" height="317.688"/>
	<rect x="52.073" y="64.076" fill="#E6E6E6" width="495.822" height="198"/>
	
		<rect x="298.984" y="102.105" fill="none" stroke="#20B5AE" stroke-width="2" stroke-linecap="round" stroke-miterlimit="10" stroke-dasharray="2" width="212.744" height="119.549"/>
	<g>
		<g>
			<path fill="#585A5E" d="M51.211,59.436V50.84h2.898c1.269,0,2.281,0.39,3.037,1.169s1.135,1.822,1.135,3.129
				s-0.379,2.35-1.135,3.129s-1.769,1.169-3.037,1.169H51.211z M52.667,58.134h1.386c0.887,0,1.57-0.267,2.051-0.798
				c0.48-0.532,0.721-1.266,0.721-2.198s-0.24-1.669-0.721-2.205s-1.164-0.806-2.051-0.806h-1.386V58.134z"/>
			<path fill="#585A5E" d="M66.078,51.953c0.747,0.835,1.121,1.896,1.121,3.185s-0.374,2.35-1.121,3.185
				c-0.746,0.836-1.698,1.254-2.855,1.254c-1.158,0-2.107-0.418-2.85-1.254c-0.742-0.835-1.112-1.896-1.112-3.185
				s0.37-2.35,1.112-3.185c0.742-0.836,1.691-1.254,2.85-1.254C64.38,50.699,65.332,51.117,66.078,51.953z M65.035,57.392
				c0.463-0.588,0.693-1.339,0.693-2.254s-0.23-1.666-0.693-2.254c-0.461-0.589-1.066-0.882-1.812-0.882
				c-0.747,0-1.35,0.291-1.807,0.875c-0.457,0.583-0.686,1.336-0.686,2.261c0,0.924,0.229,1.678,0.686,2.261
				c0.457,0.584,1.06,0.875,1.807,0.875C63.969,58.273,64.574,57.979,65.035,57.392z"/>
			<path fill="#585A5E" d="M74.996,51.953c0.747,0.835,1.121,1.896,1.121,3.185s-0.374,2.35-1.121,3.185
				c-0.746,0.836-1.698,1.254-2.855,1.254c-1.158,0-2.107-0.418-2.85-1.254c-0.742-0.835-1.112-1.896-1.112-3.185
				s0.37-2.35,1.112-3.185c0.742-0.836,1.691-1.254,2.85-1.254C73.298,50.699,74.25,51.117,74.996,51.953z M73.953,57.392
				c0.463-0.588,0.693-1.339,0.693-2.254s-0.23-1.666-0.693-2.254c-0.461-0.589-1.066-0.882-1.812-0.882
				c-0.747,0-1.35,0.291-1.807,0.875c-0.457,0.583-0.686,1.336-0.686,2.261c0,0.924,0.229,1.678,0.686,2.261
				c0.457,0.584,1.06,0.875,1.807,0.875C72.887,58.273,73.492,57.979,73.953,57.392z"/>
			<path fill="#585A5E" d="M80.051,55.949h-1.036v3.486h-1.456V50.84h3.318c0.904,0,1.619,0.222,2.142,0.664
				c0.522,0.443,0.784,1.081,0.784,1.912c0,0.709-0.194,1.271-0.581,1.687c-0.388,0.415-0.927,0.679-1.617,0.791l2.492,3.542h-1.652
				L80.051,55.949z M79.015,52.1v2.632h1.834c0.476,0,0.847-0.119,1.112-0.356c0.267-0.238,0.399-0.559,0.399-0.959
				c0-0.402-0.133-0.722-0.399-0.959c-0.266-0.238-0.637-0.357-1.112-0.357H79.015z"/>
			<path fill="#585A5E" d="M87.75,57.056h1.484c0.271,0.858,0.919,1.288,1.945,1.288c0.504,0,0.908-0.114,1.211-0.344
				c0.304-0.229,0.455-0.539,0.455-0.931c0-0.308-0.096-0.553-0.287-0.735c-0.191-0.182-0.51-0.324-0.959-0.426l-1.455-0.351
				c-1.428-0.336-2.143-1.106-2.143-2.31c0-0.738,0.273-1.347,0.819-1.828c0.546-0.48,1.248-0.721,2.106-0.721
				c0.906,0,1.637,0.213,2.191,0.637c0.555,0.426,0.912,1.006,1.071,1.744h-1.456c-0.271-0.766-0.868-1.148-1.792-1.148
				c-0.467,0-0.843,0.109-1.127,0.329c-0.285,0.22-0.427,0.507-0.427,0.86c0,0.57,0.377,0.943,1.133,1.121l1.498,0.35
				c0.701,0.158,1.246,0.438,1.639,0.84s0.588,0.914,0.588,1.54c0,0.794-0.285,1.426-0.854,1.897
				c-0.57,0.471-1.307,0.707-2.213,0.707c-0.914,0-1.678-0.223-2.289-0.666S87.899,57.85,87.75,57.056z"/>
			<path fill="#585A5E" d="M95.016,52.127V50.84h7.168v1.287h-2.855v7.309h-1.456v-7.309H95.016z"/>
			<path fill="#585A5E" d="M105.348,50.84h1.4l3.305,8.596h-1.484l-0.883-2.38h-3.289l-0.883,2.38h-1.47L105.348,50.84z
				 M106.034,52.617l-1.176,3.178h2.352L106.034,52.617z"/>
			<path fill="#585A5E" d="M109.912,52.127V50.84h7.168v1.287h-2.855v7.309h-1.457v-7.309H109.912z"/>
			<path fill="#585A5E" d="M118.452,50.84h5.614v1.287h-4.187v2.269h3.794v1.274h-3.794v2.464h4.187v1.302h-5.614V50.84z"/>
		</g>
	</g>
	<g>
		<g>
			<g>
				<rect x="109.337" y="124.656" fill="#FFFFFF" width="160.867" height="33.527"/>
				<g>
					<path fill="#696B6E" d="M124.439,142.707v2.69c0,0.39,0.182,0.585,0.546,0.585h1.47v0.585h-1.457
						c-0.346,0-0.631-0.112-0.852-0.338s-0.331-0.516-0.331-0.871v-2.678c0-0.39-0.183-0.585-0.546-0.585h-0.547v-0.598h0.547
						c0.363,0,0.546-0.195,0.546-0.586v-2.678c0-0.355,0.11-0.646,0.331-0.871c0.221-0.225,0.506-0.338,0.852-0.338h1.457v0.585
						h-1.47c-0.364,0-0.546,0.195-0.546,0.585v2.691c0,0.398-0.174,0.701-0.52,0.91
						C124.266,142.021,124.439,142.325,124.439,142.707z"/>
					<path fill="#696B6E" d="M135.236,140.418c0.472,0.555,0.708,1.279,0.708,2.172s-0.236,1.616-0.708,2.171
						c-0.473,0.555-1.091,0.832-1.854,0.832c-0.762,0-1.378-0.277-1.846-0.832s-0.702-1.278-0.702-2.171s0.234-1.617,0.702-2.172
						c0.468-0.554,1.084-0.832,1.846-0.832C134.146,139.586,134.764,139.864,135.236,140.418z M134.773,144.352
						c0.348-0.447,0.521-1.034,0.521-1.762c0-0.729-0.173-1.315-0.521-1.762c-0.346-0.446-0.81-0.67-1.391-0.67
						c-0.572,0-1.031,0.224-1.378,0.67s-0.52,1.033-0.52,1.762c0,0.728,0.173,1.314,0.52,1.762c0.347,0.445,0.806,0.669,1.378,0.669
						C133.964,145.021,134.428,144.797,134.773,144.352z"/>
					<path fill="#696B6E" d="M138.35,144.617v3.068h-0.65v-7.982h0.65v0.858c0.173-0.269,0.422-0.498,0.747-0.688
						c0.325-0.191,0.674-0.287,1.047-0.287c0.806,0,1.428,0.289,1.865,0.865s0.657,1.289,0.657,2.139s-0.22,1.562-0.657,2.139
						s-1.06,0.864-1.865,0.864c-0.373,0-0.722-0.096-1.047-0.286S138.522,144.887,138.35,144.617z M138.35,141.328v2.522
						c0.398,0.763,0.975,1.144,1.729,1.144c0.598,0,1.07-0.223,1.418-0.669c0.346-0.446,0.52-1.024,0.52-1.735
						s-0.174-1.289-0.52-1.736c-0.348-0.445-0.82-0.669-1.418-0.669C139.324,140.185,138.748,140.566,138.35,141.328z"/>
					<path fill="#696B6E" d="M148.178,143.799h0.623c-0.112,0.546-0.365,0.981-0.76,1.307c-0.395,0.324-0.887,0.487-1.477,0.487
						c-0.762,0-1.379-0.277-1.852-0.832s-0.709-1.278-0.709-2.171c0-0.875,0.232-1.595,0.695-2.158
						c0.464-0.563,1.082-0.846,1.854-0.846c0.744,0,1.32,0.259,1.729,0.773c0.407,0.517,0.611,1.199,0.611,2.049v0.233h-4.252
						c0.009,0.728,0.191,1.307,0.547,1.735c0.355,0.43,0.814,0.644,1.377,0.644c0.408,0,0.757-0.108,1.047-0.325
						C147.902,144.479,148.09,144.18,148.178,143.799z M146.553,140.158c-0.521,0-0.947,0.178-1.281,0.533s-0.535,0.836-0.604,1.443
						h3.575c-0.018-0.555-0.169-1.023-0.455-1.404S147.09,140.158,146.553,140.158z"/>
					<path fill="#696B6E" d="M150.634,145.476v-5.772h0.65v0.924c0.19-0.295,0.448-0.542,0.773-0.741s0.683-0.3,1.072-0.3
						c0.642,0,1.136,0.189,1.481,0.566c0.348,0.377,0.521,0.877,0.521,1.502v3.821h-0.637v-3.731c0-0.468-0.124-0.845-0.37-1.131
						c-0.248-0.285-0.618-0.429-1.112-0.429c-0.382,0-0.728,0.117-1.04,0.351c-0.312,0.234-0.541,0.533-0.688,0.897v4.043H150.634z"
						/>
					<path fill="#696B6E" d="M156.887,141.095c-0.096-0.095-0.143-0.212-0.143-0.351s0.047-0.258,0.143-0.357s0.208-0.15,0.338-0.15
						c0.139,0,0.256,0.051,0.352,0.15s0.143,0.219,0.143,0.357s-0.047,0.256-0.143,0.351s-0.213,0.144-0.352,0.144
						C157.095,141.238,156.982,141.189,156.887,141.095z M156.887,145.371c-0.096-0.095-0.143-0.212-0.143-0.351
						s0.047-0.258,0.143-0.357s0.208-0.149,0.338-0.149c0.139,0,0.256,0.05,0.352,0.149s0.143,0.219,0.143,0.357
						s-0.047,0.256-0.143,0.351c-0.096,0.096-0.213,0.144-0.352,0.144C157.095,145.515,156.982,145.467,156.887,145.371z"/>
					<path fill="#222429" d="M162.854,144.137v-3.874h-0.975v-0.56h0.975v-1.481h0.637v1.481h1.495v0.56h-1.495v3.81
						c0,0.623,0.277,0.936,0.832,0.936c0.277,0,0.541-0.074,0.793-0.221v0.61c-0.242,0.13-0.528,0.195-0.857,0.195
						c-0.434,0-0.776-0.124-1.027-0.37C162.979,144.975,162.854,144.613,162.854,144.137z"/>
					<path fill="#222429" d="M169.496,139.664v0.638c-0.164-0.069-0.342-0.104-0.533-0.104c-0.346,0-0.654,0.113-0.922,0.338
						c-0.27,0.227-0.473,0.529-0.611,0.91v4.03h-0.65v-5.772h0.65v0.924c0.139-0.304,0.346-0.553,0.623-0.748
						s0.59-0.293,0.937-0.293C169.154,139.586,169.322,139.613,169.496,139.664z"/>
					<path fill="#222429" d="M175.424,139.703v5.772h-0.637v-0.923c-0.19,0.295-0.446,0.541-0.768,0.74
						c-0.32,0.199-0.676,0.3-1.065,0.3c-0.642,0-1.136-0.188-1.481-0.565c-0.348-0.377-0.521-0.878-0.521-1.502v-3.822h0.638v3.731
						c0,0.468,0.123,0.845,0.37,1.131s0.617,0.429,1.111,0.429c0.382,0,0.726-0.117,1.034-0.351
						c0.307-0.233,0.534-0.533,0.682-0.897v-4.043H175.424z"/>
					<path fill="#222429" d="M181.353,143.799h0.624c-0.113,0.546-0.366,0.981-0.761,1.307c-0.395,0.324-0.886,0.487-1.476,0.487
						c-0.763,0-1.38-0.277-1.853-0.832c-0.472-0.555-0.708-1.278-0.708-2.171c0-0.875,0.231-1.595,0.695-2.158
						c0.463-0.563,1.081-0.846,1.853-0.846c0.745,0,1.321,0.259,1.729,0.773c0.406,0.517,0.61,1.199,0.61,2.049v0.233h-4.251
						c0.008,0.728,0.19,1.307,0.546,1.735c0.355,0.43,0.814,0.644,1.378,0.644c0.407,0,0.756-0.108,1.047-0.325
						C181.077,144.479,181.266,144.18,181.353,143.799z M179.728,140.158c-0.521,0-0.947,0.178-1.28,0.533
						c-0.334,0.355-0.535,0.836-0.605,1.443h3.576c-0.018-0.555-0.17-1.023-0.455-1.404
						C180.676,140.35,180.265,140.158,179.728,140.158z"/>
					<path fill="#585A5E" d="M183.004,146.789l0.701-1.301c-0.26-0.052-0.39-0.207-0.39-0.468c0-0.139,0.046-0.255,0.136-0.351
						c0.092-0.096,0.207-0.144,0.346-0.144c0.146,0,0.266,0.048,0.357,0.144c0.09,0.096,0.136,0.221,0.136,0.377
						s-0.065,0.347-0.194,0.572l-0.625,1.17H183.004z"/>
					<path fill="#585A5E" d="M189.814,137.025v8.45h-0.65v-8.45H189.814z"/>
					<path fill="#585A5E" d="M195.971,140.418c0.472,0.555,0.708,1.279,0.708,2.172s-0.236,1.616-0.708,2.171
						c-0.473,0.555-1.091,0.832-1.854,0.832c-0.762,0-1.378-0.277-1.846-0.832s-0.702-1.278-0.702-2.171s0.234-1.617,0.702-2.172
						c0.468-0.554,1.084-0.832,1.846-0.832C194.88,139.586,195.498,139.864,195.971,140.418z M195.508,144.352
						c0.348-0.447,0.521-1.034,0.521-1.762c0-0.729-0.173-1.315-0.521-1.762c-0.346-0.446-0.81-0.67-1.391-0.67
						c-0.572,0-1.031,0.224-1.378,0.67s-0.52,1.033-0.52,1.762c0,0.728,0.173,1.314,0.52,1.762c0.347,0.445,0.806,0.669,1.378,0.669
						C194.698,145.021,195.162,144.797,195.508,144.352z"/>
					<path fill="#585A5E" d="M198.72,144.761c-0.468-0.555-0.702-1.278-0.702-2.171s0.234-1.617,0.702-2.172
						c0.468-0.554,1.083-0.832,1.847-0.832c0.598,0,1.089,0.163,1.475,0.488c0.386,0.324,0.631,0.76,0.734,1.307h-0.662
						c-0.088-0.381-0.266-0.678-0.533-0.891c-0.27-0.213-0.607-0.318-1.014-0.318c-0.564,0-1.021,0.221-1.372,0.662
						c-0.351,0.442-0.526,1.027-0.526,1.756c0,0.728,0.176,1.312,0.526,1.755s0.808,0.663,1.372,0.663
						c0.406,0,0.744-0.106,1.014-0.318c0.268-0.213,0.445-0.51,0.533-0.891h0.662c-0.104,0.546-0.349,0.981-0.734,1.307
						c-0.386,0.324-0.877,0.487-1.475,0.487C199.803,145.593,199.188,145.315,198.72,144.761z"/>
					<path fill="#585A5E" d="M208.365,145.476l-2.509-2.886l-0.702,0.65v2.235h-0.65v-8.45h0.65v5.46l3.055-2.782h0.858
						l-2.743,2.483l2.834,3.289H208.365z"/>
					<path fill="#585A5E" d="M214.385,143.799h0.624c-0.112,0.546-0.366,0.981-0.761,1.307c-0.395,0.324-0.887,0.487-1.476,0.487
						c-0.763,0-1.38-0.277-1.853-0.832s-0.709-1.278-0.709-2.171c0-0.875,0.232-1.595,0.696-2.158s1.081-0.846,1.853-0.846
						c0.745,0,1.321,0.259,1.729,0.773c0.408,0.517,0.611,1.199,0.611,2.049v0.233h-4.251c0.009,0.728,0.19,1.307,0.546,1.735
						c0.355,0.43,0.814,0.644,1.378,0.644c0.407,0,0.757-0.108,1.046-0.325C214.109,144.479,214.298,144.18,214.385,143.799z
						 M212.76,140.158c-0.52,0-0.947,0.178-1.281,0.533c-0.333,0.355-0.535,0.836-0.604,1.443h3.574
						c-0.018-0.555-0.168-1.023-0.455-1.404C213.709,140.35,213.297,140.158,212.76,140.158z"/>
					<path fill="#585A5E" d="M220.742,145.476v-0.858c-0.174,0.27-0.424,0.499-0.748,0.689c-0.325,0.19-0.674,0.286-1.047,0.286
						c-0.814,0-1.438-0.288-1.871-0.864c-0.434-0.576-0.65-1.289-0.65-2.139s0.217-1.562,0.65-2.139
						c0.433-0.576,1.057-0.865,1.871-0.865c0.373,0,0.722,0.096,1.047,0.287c0.324,0.19,0.574,0.42,0.748,0.688v-3.536h0.637v8.45
						H220.742z M220.742,143.851v-2.522c-0.191-0.363-0.441-0.645-0.748-0.845c-0.309-0.199-0.64-0.299-0.994-0.299
						c-0.59,0-1.059,0.224-1.404,0.669c-0.348,0.447-0.52,1.025-0.52,1.736s0.172,1.289,0.52,1.735
						c0.346,0.446,0.814,0.669,1.404,0.669c0.354,0,0.686-0.1,0.994-0.299C220.301,144.496,220.551,144.215,220.742,143.851z"/>
					<path fill="#585A5E" d="M223.211,141.095c-0.096-0.095-0.143-0.212-0.143-0.351s0.047-0.258,0.143-0.357s0.208-0.15,0.338-0.15
						c0.139,0,0.256,0.051,0.352,0.15s0.143,0.219,0.143,0.357s-0.047,0.256-0.143,0.351s-0.213,0.144-0.352,0.144
						C223.419,141.238,223.307,141.189,223.211,141.095z M223.211,145.371c-0.096-0.095-0.143-0.212-0.143-0.351
						s0.047-0.258,0.143-0.357s0.208-0.149,0.338-0.149c0.139,0,0.256,0.05,0.352,0.149s0.143,0.219,0.143,0.357
						s-0.047,0.256-0.143,0.351c-0.096,0.096-0.213,0.144-0.352,0.144C223.419,145.515,223.307,145.467,223.211,145.371z"/>
					<path fill="#222429" d="M229.178,144.137v-3.874h-0.975v-0.56h0.975v-1.481h0.637v1.481h1.496v0.56h-1.496v3.81
						c0,0.623,0.277,0.936,0.832,0.936c0.277,0,0.542-0.074,0.793-0.221v0.61c-0.242,0.13-0.527,0.195-0.857,0.195
						c-0.434,0-0.775-0.124-1.027-0.37C229.304,144.975,229.178,144.613,229.178,144.137z"/>
					<path fill="#222429" d="M235.82,139.664v0.638c-0.164-0.069-0.342-0.104-0.533-0.104c-0.346,0-0.654,0.113-0.922,0.338
						c-0.27,0.227-0.473,0.529-0.611,0.91v4.03h-0.65v-5.772h0.65v0.924c0.139-0.304,0.346-0.553,0.623-0.748
						s0.59-0.293,0.937-0.293C235.479,139.586,235.646,139.613,235.82,139.664z"/>
					<path fill="#222429" d="M241.749,139.703v5.772h-0.638v-0.923c-0.189,0.295-0.445,0.541-0.767,0.74
						c-0.32,0.199-0.676,0.3-1.065,0.3c-0.642,0-1.136-0.188-1.482-0.565s-0.52-0.878-0.52-1.502v-3.822h0.637v3.731
						c0,0.468,0.123,0.845,0.371,1.131c0.246,0.286,0.617,0.429,1.111,0.429c0.381,0,0.725-0.117,1.033-0.351
						c0.307-0.233,0.535-0.533,0.682-0.897v-4.043H241.749z"/>
					<path fill="#222429" d="M247.676,143.799h0.625c-0.113,0.546-0.367,0.981-0.76,1.307c-0.395,0.324-0.887,0.487-1.477,0.487
						c-0.763,0-1.38-0.277-1.853-0.832c-0.472-0.555-0.708-1.278-0.708-2.171c0-0.875,0.231-1.595,0.695-2.158
						c0.463-0.563,1.081-0.846,1.853-0.846c0.745,0,1.321,0.259,1.729,0.773c0.406,0.517,0.609,1.199,0.609,2.049v0.233h-4.25
						c0.008,0.728,0.19,1.307,0.546,1.735c0.355,0.43,0.814,0.644,1.378,0.644c0.407,0,0.756-0.108,1.047-0.325
						C247.4,144.479,247.59,144.18,247.676,143.799z M246.052,140.158c-0.521,0-0.947,0.178-1.28,0.533
						c-0.334,0.355-0.535,0.836-0.605,1.443h3.576c-0.018-0.555-0.17-1.023-0.455-1.404C247,140.35,246.59,140.158,246.052,140.158z
						"/>
					<path fill="#696B6E" d="M254.775,145.397v-2.69c0-0.382,0.172-0.686,0.52-0.91c-0.348-0.209-0.52-0.512-0.52-0.91v-2.691
						c0-0.39-0.184-0.585-0.547-0.585h-1.469v-0.585h1.455c0.348,0,0.631,0.113,0.852,0.338c0.223,0.226,0.332,0.516,0.332,0.871
						v2.678c0,0.391,0.182,0.586,0.547,0.586h0.545v0.598h-0.545c-0.365,0-0.547,0.195-0.547,0.585v2.678
						c0,0.355-0.109,0.646-0.332,0.871c-0.221,0.226-0.504,0.338-0.852,0.338h-1.455v-0.585h1.469
						C254.592,145.982,254.775,145.787,254.775,145.397z"/>
				</g>
			</g>
			<g>
				<rect x="324.243" y="124.656" fill="#FFFFFF" width="160.869" height="33.527"/>
				<g>
					<path fill="#696B6E" d="M337.852,142.707v2.69c0,0.39,0.183,0.585,0.547,0.585h1.469v0.585h-1.456
						c-0.347,0-0.631-0.112-0.852-0.338c-0.222-0.226-0.331-0.516-0.331-0.871v-2.678c0-0.39-0.183-0.585-0.547-0.585h-0.546v-0.598
						h0.546c0.364,0,0.547-0.195,0.547-0.586v-2.678c0-0.355,0.109-0.646,0.331-0.871c0.221-0.225,0.505-0.338,0.852-0.338h1.456
						v0.585h-1.469c-0.364,0-0.547,0.195-0.547,0.585v2.691c0,0.398-0.173,0.701-0.52,0.91
						C337.679,142.021,337.852,142.325,337.852,142.707z"/>
					<path fill="#696B6E" d="M348.648,140.418c0.473,0.555,0.709,1.279,0.709,2.172s-0.236,1.616-0.709,2.171
						s-1.09,0.832-1.853,0.832s-1.378-0.277-1.847-0.832c-0.467-0.555-0.701-1.278-0.701-2.171s0.234-1.617,0.701-2.172
						c0.469-0.554,1.084-0.832,1.847-0.832S348.176,139.864,348.648,140.418z M348.187,144.352c0.347-0.447,0.521-1.034,0.521-1.762
						c0-0.729-0.174-1.315-0.521-1.762s-0.81-0.67-1.391-0.67c-0.572,0-1.032,0.224-1.378,0.67c-0.348,0.446-0.52,1.033-0.52,1.762
						c0,0.728,0.172,1.314,0.52,1.762c0.346,0.445,0.806,0.669,1.378,0.669C347.377,145.021,347.84,144.797,348.187,144.352z"/>
					<path fill="#696B6E" d="M351.762,144.617v3.068h-0.65v-7.982h0.65v0.858c0.174-0.269,0.423-0.498,0.748-0.688
						c0.324-0.191,0.674-0.287,1.047-0.287c0.805,0,1.428,0.289,1.865,0.865s0.656,1.289,0.656,2.139s-0.219,1.562-0.656,2.139
						s-1.061,0.864-1.865,0.864c-0.373,0-0.723-0.096-1.047-0.286C352.185,145.116,351.936,144.887,351.762,144.617z
						 M351.762,141.328v2.522c0.398,0.763,0.975,1.144,1.729,1.144c0.599,0,1.07-0.223,1.418-0.669
						c0.346-0.446,0.52-1.024,0.52-1.735s-0.174-1.289-0.52-1.736c-0.348-0.445-0.819-0.669-1.418-0.669
						C352.736,140.185,352.16,140.566,351.762,141.328z"/>
					<path fill="#696B6E" d="M361.59,143.799h0.624c-0.112,0.546-0.366,0.981-0.761,1.307c-0.395,0.324-0.887,0.487-1.476,0.487
						c-0.763,0-1.38-0.277-1.853-0.832s-0.709-1.278-0.709-2.171c0-0.875,0.232-1.595,0.696-2.158s1.081-0.846,1.853-0.846
						c0.745,0,1.321,0.259,1.729,0.773c0.408,0.517,0.611,1.199,0.611,2.049v0.233h-4.251c0.009,0.728,0.19,1.307,0.546,1.735
						c0.355,0.43,0.814,0.644,1.378,0.644c0.407,0,0.757-0.108,1.046-0.325C361.314,144.479,361.503,144.18,361.59,143.799z
						 M359.965,140.158c-0.52,0-0.947,0.178-1.281,0.533c-0.333,0.355-0.535,0.836-0.604,1.443h3.574
						c-0.018-0.555-0.168-1.023-0.455-1.404C360.914,140.35,360.502,140.158,359.965,140.158z"/>
					<path fill="#696B6E" d="M364.047,145.476v-5.772h0.65v0.924c0.189-0.295,0.447-0.542,0.773-0.741
						c0.324-0.199,0.682-0.3,1.072-0.3c0.641,0,1.135,0.189,1.481,0.566s0.521,0.877,0.521,1.502v3.821h-0.637v-3.731
						c0-0.468-0.124-0.845-0.371-1.131c-0.247-0.285-0.617-0.429-1.111-0.429c-0.382,0-0.729,0.117-1.04,0.351
						c-0.312,0.234-0.542,0.533-0.688,0.897v4.043H364.047z"/>
					<path fill="#696B6E" d="M370.299,141.095c-0.095-0.095-0.143-0.212-0.143-0.351s0.048-0.258,0.143-0.357
						c0.096-0.1,0.209-0.15,0.339-0.15c0.138,0,0.255,0.051,0.351,0.15s0.143,0.219,0.143,0.357s-0.047,0.256-0.143,0.351
						s-0.213,0.144-0.351,0.144C370.508,141.238,370.395,141.189,370.299,141.095z M370.299,145.371
						c-0.095-0.095-0.143-0.212-0.143-0.351s0.048-0.258,0.143-0.357c0.096-0.1,0.209-0.149,0.339-0.149
						c0.138,0,0.255,0.05,0.351,0.149s0.143,0.219,0.143,0.357s-0.047,0.256-0.143,0.351c-0.096,0.096-0.213,0.144-0.351,0.144
						C370.508,145.515,370.395,145.467,370.299,145.371z"/>
					<path fill="#222429" d="M376.266,144.137v-3.874h-0.975v-0.56h0.975v-1.481h0.637v1.481h1.496v0.56h-1.496v3.81
						c0,0.623,0.277,0.936,0.832,0.936c0.277,0,0.542-0.074,0.793-0.221v0.61c-0.242,0.13-0.527,0.195-0.857,0.195
						c-0.434,0-0.775-0.124-1.027-0.37C376.392,144.975,376.266,144.613,376.266,144.137z"/>
					<path fill="#222429" d="M382.909,139.664v0.638c-0.165-0.069-0.343-0.104-0.533-0.104c-0.347,0-0.654,0.113-0.923,0.338
						c-0.27,0.227-0.473,0.529-0.611,0.91v4.03h-0.65v-5.772h0.65v0.924c0.139-0.304,0.347-0.553,0.624-0.748
						s0.589-0.293,0.937-0.293C382.566,139.586,382.735,139.613,382.909,139.664z"/>
					<path fill="#222429" d="M388.837,139.703v5.772h-0.638v-0.923c-0.189,0.295-0.445,0.541-0.767,0.74
						c-0.32,0.199-0.676,0.3-1.065,0.3c-0.642,0-1.136-0.188-1.482-0.565s-0.52-0.878-0.52-1.502v-3.822h0.637v3.731
						c0,0.468,0.123,0.845,0.371,1.131c0.246,0.286,0.617,0.429,1.111,0.429c0.381,0,0.725-0.117,1.033-0.351
						c0.307-0.233,0.535-0.533,0.682-0.897v-4.043H388.837z"/>
					<path fill="#222429" d="M394.766,143.799h0.623c-0.112,0.546-0.365,0.981-0.76,1.307c-0.395,0.324-0.887,0.487-1.477,0.487
						c-0.762,0-1.379-0.277-1.852-0.832s-0.709-1.278-0.709-2.171c0-0.875,0.232-1.595,0.695-2.158
						c0.464-0.563,1.082-0.846,1.854-0.846c0.744,0,1.32,0.259,1.729,0.773c0.407,0.517,0.611,1.199,0.611,2.049v0.233h-4.252
						c0.009,0.728,0.191,1.307,0.547,1.735c0.355,0.43,0.814,0.644,1.377,0.644c0.408,0,0.757-0.108,1.047-0.325
						C394.49,144.479,394.678,144.18,394.766,143.799z M393.141,140.158c-0.521,0-0.947,0.178-1.281,0.533s-0.535,0.836-0.604,1.443
						h3.575c-0.018-0.555-0.169-1.023-0.455-1.404S393.678,140.158,393.141,140.158z"/>
					<path fill="#585A5E" d="M396.416,146.789l0.701-1.301c-0.26-0.052-0.389-0.207-0.389-0.468c0-0.139,0.045-0.255,0.136-0.351
						s0.206-0.144,0.345-0.144c0.146,0,0.266,0.048,0.357,0.144c0.091,0.096,0.137,0.221,0.137,0.377s-0.065,0.347-0.195,0.572
						l-0.624,1.17H396.416z"/>
					<path fill="#585A5E" d="M403.228,137.025v8.45h-0.65v-8.45H403.228z"/>
					<path fill="#585A5E" d="M409.383,140.418c0.473,0.555,0.709,1.279,0.709,2.172s-0.236,1.616-0.709,2.171
						s-1.09,0.832-1.853,0.832s-1.378-0.277-1.847-0.832c-0.467-0.555-0.701-1.278-0.701-2.171s0.234-1.617,0.701-2.172
						c0.469-0.554,1.084-0.832,1.847-0.832S408.91,139.864,409.383,140.418z M408.921,144.352c0.347-0.447,0.521-1.034,0.521-1.762
						c0-0.729-0.174-1.315-0.521-1.762s-0.81-0.67-1.391-0.67c-0.572,0-1.032,0.224-1.378,0.67c-0.348,0.446-0.52,1.033-0.52,1.762
						c0,0.728,0.172,1.314,0.52,1.762c0.346,0.445,0.806,0.669,1.378,0.669C408.111,145.021,408.574,144.797,408.921,144.352z"/>
					<path fill="#585A5E" d="M412.133,144.761c-0.469-0.555-0.703-1.278-0.703-2.171s0.234-1.617,0.703-2.172
						c0.467-0.554,1.083-0.832,1.846-0.832c0.598,0,1.09,0.163,1.475,0.488c0.387,0.324,0.631,0.76,0.735,1.307h-0.663
						c-0.087-0.381-0.265-0.678-0.533-0.891s-0.606-0.318-1.014-0.318c-0.563,0-1.021,0.221-1.371,0.662
						c-0.352,0.442-0.527,1.027-0.527,1.756c0,0.728,0.176,1.312,0.527,1.755c0.351,0.442,0.808,0.663,1.371,0.663
						c0.407,0,0.745-0.106,1.014-0.318c0.269-0.213,0.446-0.51,0.533-0.891h0.663c-0.104,0.546-0.349,0.981-0.735,1.307
						c-0.385,0.324-0.877,0.487-1.475,0.487C413.216,145.593,412.6,145.315,412.133,144.761z"/>
					<path fill="#585A5E" d="M421.778,145.476l-2.509-2.886l-0.702,0.65v2.235h-0.65v-8.45h0.65v5.46l3.055-2.782h0.858
						l-2.743,2.483l2.834,3.289H421.778z"/>
					<path fill="#585A5E" d="M427.797,143.799h0.625c-0.113,0.546-0.367,0.981-0.762,1.307c-0.395,0.324-0.886,0.487-1.475,0.487
						c-0.764,0-1.381-0.277-1.854-0.832c-0.472-0.555-0.708-1.278-0.708-2.171c0-0.875,0.231-1.595,0.696-2.158
						c0.463-0.563,1.08-0.846,1.852-0.846c0.746,0,1.322,0.259,1.729,0.773c0.407,0.517,0.61,1.199,0.61,2.049v0.233h-4.25
						c0.008,0.728,0.189,1.307,0.545,1.735c0.355,0.43,0.814,0.644,1.379,0.644c0.406,0,0.756-0.108,1.046-0.325
						S427.711,144.18,427.797,143.799z M426.172,140.158c-0.52,0-0.947,0.178-1.28,0.533s-0.535,0.836-0.604,1.443h3.575
						c-0.018-0.555-0.169-1.023-0.455-1.404S426.709,140.158,426.172,140.158z"/>
					<path fill="#585A5E" d="M434.154,145.476v-0.858c-0.174,0.27-0.423,0.499-0.748,0.689c-0.324,0.19-0.674,0.286-1.047,0.286
						c-0.814,0-1.438-0.288-1.871-0.864s-0.65-1.289-0.65-2.139s0.217-1.562,0.65-2.139s1.057-0.865,1.871-0.865
						c0.373,0,0.723,0.096,1.047,0.287c0.325,0.19,0.574,0.42,0.748,0.688v-3.536h0.637v8.45H434.154z M434.154,143.851v-2.522
						c-0.191-0.363-0.44-0.645-0.748-0.845c-0.308-0.199-0.639-0.299-0.994-0.299c-0.59,0-1.058,0.224-1.404,0.669
						c-0.347,0.447-0.52,1.025-0.52,1.736s0.173,1.289,0.52,1.735s0.814,0.669,1.404,0.669c0.355,0,0.687-0.1,0.994-0.299
						S433.963,144.215,434.154,143.851z"/>
					<path fill="#585A5E" d="M436.623,141.095c-0.095-0.095-0.143-0.212-0.143-0.351s0.048-0.258,0.143-0.357
						c0.096-0.1,0.209-0.15,0.339-0.15c0.138,0,0.255,0.051,0.351,0.15s0.143,0.219,0.143,0.357s-0.047,0.256-0.143,0.351
						s-0.213,0.144-0.351,0.144C436.832,141.238,436.719,141.189,436.623,141.095z M436.623,145.371
						c-0.095-0.095-0.143-0.212-0.143-0.351s0.048-0.258,0.143-0.357c0.096-0.1,0.209-0.149,0.339-0.149
						c0.138,0,0.255,0.05,0.351,0.149s0.143,0.219,0.143,0.357s-0.047,0.256-0.143,0.351c-0.096,0.096-0.213,0.144-0.351,0.144
						C436.832,145.515,436.719,145.467,436.623,145.371z"/>
					<path fill="#222429" d="M444.904,137.025v0.598c-0.173-0.095-0.368-0.143-0.584-0.143c-0.312,0-0.566,0.111-0.762,0.332
						c-0.194,0.221-0.292,0.525-0.292,0.916v0.975h1.353v0.56h-1.353v5.213h-0.637v-5.213h-0.937v-0.56h0.937v-1.039
						c0-0.521,0.151-0.943,0.454-1.268c0.305-0.325,0.693-0.488,1.171-0.488C444.488,136.908,444.705,136.947,444.904,137.025z"/>
					<path fill="#222429" d="M449.884,145.476h-0.624v-0.546c-0.139,0.164-0.355,0.312-0.65,0.441
						c-0.295,0.131-0.611,0.195-0.949,0.195c-0.606,0-1.113-0.162-1.521-0.487s-0.61-0.756-0.61-1.294
						c0-0.52,0.207-0.944,0.623-1.273c0.416-0.33,0.928-0.494,1.534-0.494c0.312,0,0.615,0.062,0.91,0.188
						c0.294,0.126,0.516,0.267,0.663,0.423v-1.027c0-0.434-0.128-0.782-0.384-1.047c-0.255-0.264-0.608-0.396-1.06-0.396
						c-0.719,0-1.188,0.33-1.404,0.988h-0.637c0.113-0.485,0.354-0.866,0.722-1.145c0.368-0.277,0.808-0.416,1.319-0.416
						c0.642,0,1.146,0.181,1.515,0.54c0.368,0.36,0.553,0.843,0.553,1.45V145.476z M449.26,144.162v-0.74
						c-0.096-0.252-0.289-0.457-0.578-0.617c-0.291-0.16-0.609-0.241-0.956-0.241c-0.442,0-0.817,0.106-1.124,0.319
						c-0.309,0.212-0.462,0.513-0.462,0.902c0,0.391,0.153,0.693,0.462,0.91c0.307,0.217,0.682,0.325,1.124,0.325
						c0.347,0,0.665-0.08,0.956-0.24C448.971,144.619,449.164,144.414,449.26,144.162z"/>
					<path fill="#222429" d="M452.64,137.025v8.45h-0.65v-8.45H452.64z"/>
					<path fill="#222429" d="M454.277,143.98h0.65c0.233,0.702,0.771,1.053,1.611,1.053c0.416,0,0.754-0.091,1.014-0.272
						c0.26-0.183,0.391-0.446,0.391-0.793c0-0.485-0.355-0.827-1.066-1.027l-1.078-0.299c-0.91-0.243-1.365-0.728-1.365-1.456
						c0-0.485,0.186-0.873,0.559-1.164c0.373-0.289,0.836-0.436,1.391-0.436c0.59,0,1.068,0.139,1.438,0.416
						c0.367,0.278,0.604,0.664,0.708,1.158h-0.638c-0.225-0.677-0.728-1.015-1.508-1.015c-0.381,0-0.697,0.089-0.949,0.267
						c-0.251,0.178-0.377,0.427-0.377,0.748c0,0.26,0.08,0.455,0.241,0.584c0.16,0.131,0.427,0.248,0.8,0.352l1.026,0.285
						c0.962,0.252,1.443,0.776,1.443,1.574c0,0.511-0.19,0.912-0.572,1.202s-0.871,0.436-1.469,0.436
						c-0.59,0-1.091-0.144-1.501-0.429C454.613,144.877,454.363,144.483,454.277,143.98z"/>
					<path fill="#222429" d="M464.078,143.799h0.625c-0.113,0.546-0.367,0.981-0.76,1.307c-0.395,0.324-0.887,0.487-1.477,0.487
						c-0.764,0-1.38-0.277-1.853-0.832c-0.472-0.555-0.708-1.278-0.708-2.171c0-0.875,0.231-1.595,0.695-2.158
						c0.463-0.563,1.08-0.846,1.852-0.846c0.746,0,1.322,0.259,1.73,0.773c0.406,0.517,0.609,1.199,0.609,2.049v0.233h-4.25
						c0.008,0.728,0.19,1.307,0.546,1.735c0.355,0.43,0.813,0.644,1.378,0.644c0.408,0,0.756-0.108,1.047-0.325
						C463.803,144.479,463.992,144.18,464.078,143.799z M462.453,140.158c-0.52,0-0.947,0.178-1.279,0.533
						c-0.334,0.355-0.535,0.836-0.605,1.443h3.576c-0.018-0.555-0.17-1.023-0.455-1.404
						C463.402,140.35,462.99,140.158,462.453,140.158z"/>
					<path fill="#696B6E" d="M471.178,145.397v-2.69c0-0.382,0.172-0.686,0.52-0.91c-0.348-0.209-0.52-0.512-0.52-0.91v-2.691
						c0-0.39-0.184-0.585-0.547-0.585h-1.469v-0.585h1.455c0.348,0,0.631,0.113,0.852,0.338c0.223,0.226,0.332,0.516,0.332,0.871
						v2.678c0,0.391,0.182,0.586,0.547,0.586h0.545v0.598h-0.545c-0.365,0-0.547,0.195-0.547,0.585v2.678
						c0,0.355-0.109,0.646-0.332,0.871c-0.221,0.226-0.504,0.338-0.852,0.338h-1.455v-0.585h1.469
						C470.994,145.982,471.178,145.787,471.178,145.397z"/>
				</g>
			</g>
			<g>
				<rect x="109.337" y="165.92" fill="#FFFFFF" width="160.867" height="33.527"/>
				<g>
					<path fill="#696B6E" d="M122.945,183.971v2.69c0,0.39,0.182,0.585,0.545,0.585h1.47v0.585h-1.456
						c-0.347,0-0.631-0.112-0.852-0.338s-0.332-0.516-0.332-0.871v-2.678c0-0.39-0.182-0.585-0.545-0.585h-0.547v-0.598h0.547
						c0.363,0,0.545-0.195,0.545-0.586v-2.678c0-0.355,0.111-0.646,0.332-0.871c0.221-0.225,0.505-0.338,0.852-0.338h1.456v0.585
						h-1.47c-0.363,0-0.545,0.195-0.545,0.585v2.691c0,0.398-0.174,0.701-0.521,0.91
						C122.771,183.285,122.945,183.589,122.945,183.971z"/>
					<path fill="#696B6E" d="M133.741,181.682c0.472,0.555,0.708,1.279,0.708,2.172s-0.236,1.616-0.708,2.171
						c-0.473,0.555-1.091,0.832-1.853,0.832c-0.763,0-1.379-0.277-1.846-0.832c-0.469-0.555-0.703-1.278-0.703-2.171
						s0.234-1.617,0.703-2.172c0.467-0.554,1.083-0.832,1.846-0.832C132.65,180.85,133.269,181.128,133.741,181.682z
						 M133.279,185.615c0.347-0.447,0.52-1.034,0.52-1.762c0-0.729-0.173-1.315-0.52-1.762s-0.811-0.67-1.391-0.67
						c-0.572,0-1.031,0.224-1.379,0.67c-0.346,0.446-0.52,1.033-0.52,1.762c0,0.728,0.174,1.314,0.52,1.762
						c0.348,0.445,0.807,0.669,1.379,0.669C132.469,186.284,132.933,186.061,133.279,185.615z"/>
					<path fill="#696B6E" d="M136.855,185.881v3.068h-0.65v-7.982h0.65v0.858c0.172-0.269,0.422-0.498,0.746-0.688
						c0.326-0.191,0.674-0.287,1.047-0.287c0.807,0,1.428,0.289,1.865,0.865s0.657,1.289,0.657,2.139s-0.22,1.562-0.657,2.139
						s-1.059,0.864-1.865,0.864c-0.373,0-0.721-0.096-1.047-0.286C137.277,186.38,137.027,186.15,136.855,185.881z M136.855,182.592
						v2.522c0.398,0.763,0.975,1.144,1.729,1.144c0.598,0,1.07-0.223,1.417-0.669s0.52-1.024,0.52-1.735s-0.173-1.289-0.52-1.736
						c-0.347-0.445-0.819-0.669-1.417-0.669C137.83,181.448,137.254,181.83,136.855,182.592z"/>
					<path fill="#696B6E" d="M146.683,185.062h0.624c-0.113,0.546-0.366,0.981-0.761,1.307c-0.395,0.324-0.886,0.487-1.476,0.487
						c-0.763,0-1.38-0.277-1.853-0.832c-0.472-0.555-0.708-1.278-0.708-2.171c0-0.875,0.231-1.595,0.695-2.158
						c0.463-0.563,1.081-0.846,1.853-0.846c0.745,0,1.321,0.259,1.729,0.773c0.406,0.517,0.61,1.199,0.61,2.049v0.233h-4.251
						c0.008,0.728,0.19,1.307,0.546,1.735c0.355,0.43,0.814,0.644,1.378,0.644c0.407,0,0.756-0.108,1.047-0.325
						C146.407,185.742,146.596,185.443,146.683,185.062z M145.058,181.422c-0.521,0-0.947,0.178-1.28,0.533
						c-0.334,0.355-0.535,0.836-0.605,1.443h3.576c-0.018-0.555-0.17-1.023-0.455-1.404
						C146.006,181.613,145.595,181.422,145.058,181.422z"/>
					<path fill="#696B6E" d="M149.139,186.739v-5.772h0.65v0.924c0.191-0.295,0.449-0.542,0.773-0.741
						c0.325-0.199,0.683-0.3,1.072-0.3c0.642,0,1.136,0.189,1.482,0.566s0.52,0.877,0.52,1.502v3.821H153v-3.731
						c0-0.468-0.123-0.845-0.37-1.131c-0.247-0.285-0.618-0.429-1.112-0.429c-0.381,0-0.727,0.117-1.039,0.351
						c-0.312,0.234-0.542,0.533-0.689,0.897v4.043H149.139z"/>
					<path fill="#696B6E" d="M155.393,182.358c-0.096-0.095-0.143-0.212-0.143-0.351s0.047-0.258,0.143-0.357s0.207-0.15,0.338-0.15
						c0.139,0,0.256,0.051,0.352,0.15c0.095,0.1,0.143,0.219,0.143,0.357s-0.048,0.256-0.143,0.351
						c-0.096,0.095-0.213,0.144-0.352,0.144C155.6,182.502,155.488,182.453,155.393,182.358z M155.393,186.635
						c-0.096-0.095-0.143-0.212-0.143-0.351s0.047-0.258,0.143-0.357s0.207-0.149,0.338-0.149c0.139,0,0.256,0.05,0.352,0.149
						c0.095,0.1,0.143,0.219,0.143,0.357s-0.048,0.256-0.143,0.351c-0.096,0.096-0.213,0.144-0.352,0.144
						C155.6,186.778,155.488,186.73,155.393,186.635z"/>
					<path fill="#222429" d="M163.673,178.289v0.598c-0.173-0.095-0.368-0.143-0.585-0.143c-0.312,0-0.565,0.111-0.761,0.332
						c-0.194,0.221-0.292,0.525-0.292,0.916v0.975h1.352v0.56h-1.352v5.213h-0.637v-5.213h-0.937v-0.56h0.937v-1.039
						c0-0.521,0.15-0.943,0.454-1.268c0.304-0.325,0.693-0.488,1.171-0.488C163.257,178.172,163.473,178.211,163.673,178.289z"/>
					<path fill="#222429" d="M168.652,186.739h-0.625v-0.546c-0.139,0.164-0.355,0.312-0.649,0.441
						c-0.295,0.131-0.611,0.195-0.949,0.195c-0.606,0-1.114-0.162-1.521-0.487c-0.408-0.325-0.611-0.756-0.611-1.294
						c0-0.52,0.208-0.944,0.624-1.273c0.416-0.33,0.927-0.494,1.534-0.494c0.312,0,0.615,0.062,0.91,0.188
						c0.294,0.126,0.516,0.267,0.662,0.423v-1.027c0-0.434-0.127-0.782-0.383-1.047c-0.256-0.264-0.609-0.396-1.06-0.396
						c-0.72,0-1.188,0.33-1.404,0.988h-0.637c0.112-0.485,0.353-0.866,0.722-1.145c0.367-0.277,0.808-0.416,1.319-0.416
						c0.642,0,1.146,0.181,1.515,0.54c0.367,0.36,0.553,0.843,0.553,1.45V186.739z M168.027,185.426v-0.74
						c-0.096-0.252-0.288-0.457-0.578-0.617c-0.291-0.16-0.609-0.241-0.955-0.241c-0.442,0-0.817,0.106-1.125,0.319
						c-0.308,0.212-0.461,0.513-0.461,0.902c0,0.391,0.153,0.693,0.461,0.91s0.683,0.325,1.125,0.325c0.346,0,0.664-0.08,0.955-0.24
						C167.739,185.883,167.932,185.678,168.027,185.426z"/>
					<path fill="#222429" d="M171.408,178.289v8.45h-0.65v-8.45H171.408z"/>
					<path fill="#222429" d="M173.046,185.244h0.649c0.234,0.702,0.771,1.053,1.612,1.053c0.416,0,0.754-0.091,1.015-0.272
						c0.26-0.183,0.39-0.446,0.39-0.793c0-0.485-0.355-0.827-1.065-1.027l-1.08-0.299c-0.91-0.243-1.365-0.728-1.365-1.456
						c0-0.485,0.188-0.873,0.56-1.164c0.372-0.289,0.837-0.436,1.392-0.436c0.589,0,1.067,0.139,1.436,0.416
						c0.369,0.278,0.605,0.664,0.709,1.158h-0.637c-0.227-0.677-0.729-1.015-1.508-1.015c-0.382,0-0.698,0.089-0.949,0.267
						c-0.252,0.178-0.377,0.427-0.377,0.748c0,0.26,0.08,0.455,0.24,0.584c0.16,0.131,0.427,0.248,0.799,0.352l1.027,0.285
						c0.963,0.252,1.443,0.776,1.443,1.574c0,0.511-0.191,0.912-0.572,1.202s-0.871,0.436-1.469,0.436
						c-0.59,0-1.09-0.144-1.502-0.429C173.381,186.141,173.133,185.747,173.046,185.244z"/>
					<path fill="#222429" d="M182.848,185.062h0.624c-0.112,0.546-0.366,0.981-0.761,1.307c-0.395,0.324-0.887,0.487-1.476,0.487
						c-0.763,0-1.38-0.277-1.853-0.832s-0.709-1.278-0.709-2.171c0-0.875,0.232-1.595,0.696-2.158s1.081-0.846,1.853-0.846
						c0.745,0,1.321,0.259,1.729,0.773c0.408,0.517,0.611,1.199,0.611,2.049v0.233h-4.251c0.009,0.728,0.19,1.307,0.546,1.735
						c0.355,0.43,0.814,0.644,1.378,0.644c0.407,0,0.757-0.108,1.046-0.325C182.572,185.742,182.761,185.443,182.848,185.062z
						 M181.223,181.422c-0.52,0-0.947,0.178-1.281,0.533c-0.333,0.355-0.535,0.836-0.604,1.443h3.574
						c-0.018-0.555-0.168-1.023-0.455-1.404C182.172,181.613,181.76,181.422,181.223,181.422z"/>
					<path fill="#585A5E" d="M184.498,188.053l0.702-1.301c-0.26-0.052-0.39-0.207-0.39-0.468c0-0.139,0.045-0.255,0.137-0.351
						c0.091-0.096,0.205-0.144,0.344-0.144c0.147,0,0.267,0.048,0.357,0.144c0.092,0.096,0.137,0.221,0.137,0.377
						s-0.064,0.347-0.195,0.572l-0.623,1.17H184.498z"/>
					<path fill="#585A5E" d="M191.311,178.289v8.45h-0.65v-8.45H191.311z"/>
					<path fill="#585A5E" d="M197.466,181.682c0.472,0.555,0.708,1.279,0.708,2.172s-0.236,1.616-0.708,2.171
						c-0.473,0.555-1.091,0.832-1.853,0.832c-0.763,0-1.379-0.277-1.846-0.832c-0.469-0.555-0.703-1.278-0.703-2.171
						s0.234-1.617,0.703-2.172c0.467-0.554,1.083-0.832,1.846-0.832C196.375,180.85,196.993,181.128,197.466,181.682z
						 M197.004,185.615c0.347-0.447,0.52-1.034,0.52-1.762c0-0.729-0.173-1.315-0.52-1.762s-0.811-0.67-1.391-0.67
						c-0.572,0-1.031,0.224-1.379,0.67c-0.346,0.446-0.52,1.033-0.52,1.762c0,0.728,0.174,1.314,0.52,1.762
						c0.348,0.445,0.807,0.669,1.379,0.669C196.193,186.284,196.657,186.061,197.004,185.615z"/>
					<path fill="#585A5E" d="M200.215,186.024c-0.468-0.555-0.702-1.278-0.702-2.171s0.234-1.617,0.702-2.172
						c0.468-0.554,1.084-0.832,1.846-0.832c0.598,0,1.09,0.163,1.476,0.488c0.386,0.324,0.631,0.76,0.735,1.307h-0.664
						c-0.086-0.381-0.264-0.678-0.533-0.891c-0.268-0.213-0.605-0.318-1.014-0.318c-0.562,0-1.02,0.221-1.371,0.662
						c-0.352,0.442-0.526,1.027-0.526,1.756c0,0.728,0.175,1.312,0.526,1.755s0.809,0.663,1.371,0.663
						c0.408,0,0.746-0.106,1.014-0.318c0.27-0.213,0.447-0.51,0.533-0.891h0.664c-0.104,0.546-0.35,0.981-0.735,1.307
						c-0.386,0.324-0.878,0.487-1.476,0.487C201.299,186.856,200.683,186.579,200.215,186.024z"/>
					<path fill="#585A5E" d="M209.861,186.739l-2.51-2.886l-0.701,0.65v2.235H206v-8.45h0.65v5.46l3.055-2.782h0.857l-2.742,2.483
						l2.834,3.289H209.861z"/>
					<path fill="#585A5E" d="M215.88,185.062h0.624c-0.113,0.546-0.366,0.981-0.761,1.307c-0.395,0.324-0.886,0.487-1.476,0.487
						c-0.763,0-1.38-0.277-1.853-0.832c-0.472-0.555-0.708-1.278-0.708-2.171c0-0.875,0.231-1.595,0.695-2.158
						c0.463-0.563,1.081-0.846,1.853-0.846c0.745,0,1.321,0.259,1.729,0.773c0.406,0.517,0.61,1.199,0.61,2.049v0.233h-4.251
						c0.008,0.728,0.19,1.307,0.546,1.735c0.355,0.43,0.814,0.644,1.378,0.644c0.407,0,0.756-0.108,1.047-0.325
						C215.604,185.742,215.793,185.443,215.88,185.062z M214.255,181.422c-0.521,0-0.947,0.178-1.28,0.533
						c-0.334,0.355-0.535,0.836-0.605,1.443h3.576c-0.018-0.555-0.17-1.023-0.455-1.404
						C215.203,181.613,214.792,181.422,214.255,181.422z"/>
					<path fill="#585A5E" d="M222.236,186.739v-0.858c-0.174,0.27-0.422,0.499-0.747,0.689s-0.675,0.286-1.047,0.286
						c-0.814,0-1.438-0.288-1.872-0.864s-0.65-1.289-0.65-2.139s0.217-1.562,0.65-2.139s1.058-0.865,1.872-0.865
						c0.372,0,0.722,0.096,1.047,0.287c0.325,0.19,0.573,0.42,0.747,0.688v-3.536h0.637v8.45H222.236z M222.236,185.114v-2.522
						c-0.19-0.363-0.439-0.645-0.747-0.845c-0.308-0.199-0.64-0.299-0.995-0.299c-0.589,0-1.057,0.224-1.404,0.669
						c-0.346,0.447-0.52,1.025-0.52,1.736s0.174,1.289,0.52,1.735c0.348,0.446,0.815,0.669,1.404,0.669
						c0.355,0,0.688-0.1,0.995-0.299S222.046,185.479,222.236,185.114z"/>
					<path fill="#585A5E" d="M224.706,182.358c-0.095-0.095-0.143-0.212-0.143-0.351s0.048-0.258,0.143-0.357
						c0.096-0.1,0.208-0.15,0.339-0.15c0.138,0,0.255,0.051,0.351,0.15c0.095,0.1,0.143,0.219,0.143,0.357s-0.048,0.256-0.143,0.351
						c-0.096,0.095-0.213,0.144-0.351,0.144C224.914,182.502,224.802,182.453,224.706,182.358z M224.706,186.635
						c-0.095-0.095-0.143-0.212-0.143-0.351s0.048-0.258,0.143-0.357c0.096-0.1,0.208-0.149,0.339-0.149
						c0.138,0,0.255,0.05,0.351,0.149c0.095,0.1,0.143,0.219,0.143,0.357s-0.048,0.256-0.143,0.351
						c-0.096,0.096-0.213,0.144-0.351,0.144C224.914,186.778,224.802,186.73,224.706,186.635z"/>
					<path fill="#222429" d="M230.674,185.4v-3.874h-0.976v-0.56h0.976v-1.481h0.637v1.481h1.494v0.56h-1.494v3.81
						c0,0.623,0.277,0.936,0.832,0.936c0.277,0,0.541-0.074,0.793-0.221v0.61c-0.243,0.13-0.529,0.195-0.858,0.195
						c-0.434,0-0.776-0.124-1.026-0.37C230.799,186.238,230.674,185.877,230.674,185.4z"/>
					<path fill="#222429" d="M237.316,180.928v0.638c-0.165-0.069-0.343-0.104-0.533-0.104c-0.347,0-0.654,0.113-0.923,0.338
						c-0.269,0.227-0.473,0.529-0.61,0.91v4.03h-0.65v-5.772h0.65v0.924c0.138-0.304,0.346-0.553,0.623-0.748
						s0.59-0.293,0.936-0.293C236.974,180.85,237.143,180.877,237.316,180.928z"/>
					<path fill="#222429" d="M243.244,180.967v5.772h-0.637v-0.923c-0.191,0.295-0.447,0.541-0.768,0.74s-0.676,0.3-1.066,0.3
						c-0.641,0-1.135-0.188-1.481-0.565s-0.521-0.878-0.521-1.502v-3.822h0.638v3.731c0,0.468,0.124,0.845,0.37,1.131
						c0.247,0.286,0.617,0.429,1.111,0.429c0.382,0,0.727-0.117,1.034-0.351s0.534-0.533,0.683-0.897v-4.043H243.244z"/>
					<path fill="#222429" d="M249.172,185.062h0.623c-0.111,0.546-0.365,0.981-0.76,1.307c-0.395,0.324-0.887,0.487-1.475,0.487
						c-0.764,0-1.381-0.277-1.854-0.832s-0.709-1.278-0.709-2.171c0-0.875,0.232-1.595,0.696-2.158s1.081-0.846,1.853-0.846
						c0.744,0,1.322,0.259,1.729,0.773c0.408,0.517,0.611,1.199,0.611,2.049v0.233h-4.251c0.009,0.728,0.19,1.307,0.546,1.735
						c0.355,0.43,0.814,0.644,1.379,0.644c0.406,0,0.756-0.108,1.045-0.325C248.896,185.742,249.086,185.443,249.172,185.062z
						 M247.547,181.422c-0.52,0-0.947,0.178-1.281,0.533c-0.333,0.355-0.535,0.836-0.604,1.443h3.574
						c-0.018-0.555-0.168-1.023-0.455-1.404C248.496,181.613,248.084,181.422,247.547,181.422z"/>
					<path fill="#696B6E" d="M256.27,186.661v-2.69c0-0.382,0.174-0.686,0.52-0.91c-0.346-0.209-0.52-0.512-0.52-0.91v-2.691
						c0-0.39-0.182-0.585-0.545-0.585h-1.471v-0.585h1.457c0.346,0,0.631,0.113,0.852,0.338c0.221,0.226,0.332,0.516,0.332,0.871
						v2.678c0,0.391,0.182,0.586,0.545,0.586h0.547v0.598h-0.547c-0.363,0-0.545,0.195-0.545,0.585v2.678
						c0,0.355-0.111,0.646-0.332,0.871s-0.506,0.338-0.852,0.338h-1.457v-0.585h1.471
						C256.088,187.246,256.27,187.051,256.27,186.661z"/>
				</g>
			</g>
			<g>
				<rect x="324.243" y="165.92" fill="#FFFFFF" width="160.869" height="33.527"/>
				<g>
					<path fill="#696B6E" d="M336.357,183.971v2.69c0,0.39,0.182,0.585,0.545,0.585h1.47v0.585h-1.456
						c-0.347,0-0.631-0.112-0.852-0.338s-0.332-0.516-0.332-0.871v-2.678c0-0.39-0.182-0.585-0.545-0.585h-0.547v-0.598h0.547
						c0.363,0,0.545-0.195,0.545-0.586v-2.678c0-0.355,0.111-0.646,0.332-0.871c0.221-0.225,0.505-0.338,0.852-0.338h1.456v0.585
						h-1.47c-0.363,0-0.545,0.195-0.545,0.585v2.691c0,0.398-0.174,0.701-0.521,0.91
						C336.184,183.285,336.357,183.589,336.357,183.971z"/>
					<path fill="#696B6E" d="M347.153,181.682c0.472,0.555,0.708,1.279,0.708,2.172s-0.236,1.616-0.708,2.171
						c-0.473,0.555-1.091,0.832-1.853,0.832c-0.763,0-1.379-0.277-1.846-0.832c-0.469-0.555-0.703-1.278-0.703-2.171
						s0.234-1.617,0.703-2.172c0.467-0.554,1.083-0.832,1.846-0.832C346.062,180.85,346.681,181.128,347.153,181.682z
						 M346.691,185.615c0.347-0.447,0.52-1.034,0.52-1.762c0-0.729-0.173-1.315-0.52-1.762s-0.811-0.67-1.391-0.67
						c-0.572,0-1.031,0.224-1.379,0.67c-0.346,0.446-0.52,1.033-0.52,1.762c0,0.728,0.174,1.314,0.52,1.762
						c0.348,0.445,0.807,0.669,1.379,0.669C345.881,186.284,346.345,186.061,346.691,185.615z"/>
					<path fill="#696B6E" d="M350.268,185.881v3.068h-0.65v-7.982h0.65v0.858c0.172-0.269,0.422-0.498,0.746-0.688
						c0.326-0.191,0.674-0.287,1.047-0.287c0.807,0,1.428,0.289,1.865,0.865s0.657,1.289,0.657,2.139s-0.22,1.562-0.657,2.139
						s-1.059,0.864-1.865,0.864c-0.373,0-0.721-0.096-1.047-0.286C350.689,186.38,350.439,186.15,350.268,185.881z M350.268,182.592
						v2.522c0.398,0.763,0.975,1.144,1.729,1.144c0.598,0,1.07-0.223,1.417-0.669s0.52-1.024,0.52-1.735s-0.173-1.289-0.52-1.736
						c-0.347-0.445-0.819-0.669-1.417-0.669C351.242,181.448,350.666,181.83,350.268,182.592z"/>
					<path fill="#696B6E" d="M360.095,185.062h0.624c-0.113,0.546-0.366,0.981-0.761,1.307c-0.395,0.324-0.886,0.487-1.476,0.487
						c-0.763,0-1.38-0.277-1.853-0.832c-0.472-0.555-0.708-1.278-0.708-2.171c0-0.875,0.231-1.595,0.695-2.158
						c0.463-0.563,1.081-0.846,1.853-0.846c0.745,0,1.321,0.259,1.729,0.773c0.406,0.517,0.61,1.199,0.61,2.049v0.233h-4.251
						c0.008,0.728,0.19,1.307,0.546,1.735c0.355,0.43,0.814,0.644,1.378,0.644c0.407,0,0.756-0.108,1.047-0.325
						C359.819,185.742,360.008,185.443,360.095,185.062z M358.47,181.422c-0.521,0-0.947,0.178-1.28,0.533
						c-0.334,0.355-0.535,0.836-0.605,1.443h3.576c-0.018-0.555-0.17-1.023-0.455-1.404
						C359.418,181.613,359.007,181.422,358.47,181.422z"/>
					<path fill="#696B6E" d="M362.551,186.739v-5.772h0.65v0.924c0.191-0.295,0.449-0.542,0.773-0.741
						c0.325-0.199,0.683-0.3,1.072-0.3c0.642,0,1.136,0.189,1.482,0.566s0.52,0.877,0.52,1.502v3.821h-0.637v-3.731
						c0-0.468-0.123-0.845-0.37-1.131c-0.247-0.285-0.618-0.429-1.112-0.429c-0.381,0-0.727,0.117-1.039,0.351
						c-0.312,0.234-0.542,0.533-0.689,0.897v4.043H362.551z"/>
					<path fill="#696B6E" d="M368.805,182.358c-0.096-0.095-0.143-0.212-0.143-0.351s0.047-0.258,0.143-0.357s0.207-0.15,0.338-0.15
						c0.139,0,0.256,0.051,0.352,0.15c0.095,0.1,0.143,0.219,0.143,0.357s-0.048,0.256-0.143,0.351
						c-0.096,0.095-0.213,0.144-0.352,0.144C369.012,182.502,368.9,182.453,368.805,182.358z M368.805,186.635
						c-0.096-0.095-0.143-0.212-0.143-0.351s0.047-0.258,0.143-0.357s0.207-0.149,0.338-0.149c0.139,0,0.256,0.05,0.352,0.149
						c0.095,0.1,0.143,0.219,0.143,0.357s-0.048,0.256-0.143,0.351c-0.096,0.096-0.213,0.144-0.352,0.144
						C369.012,186.778,368.9,186.73,368.805,186.635z"/>
					<path fill="#222429" d="M377.085,178.289v0.598c-0.173-0.095-0.368-0.143-0.585-0.143c-0.312,0-0.565,0.111-0.761,0.332
						c-0.194,0.221-0.292,0.525-0.292,0.916v0.975h1.352v0.56h-1.352v5.213h-0.637v-5.213h-0.937v-0.56h0.937v-1.039
						c0-0.521,0.15-0.943,0.454-1.268c0.304-0.325,0.693-0.488,1.171-0.488C376.669,178.172,376.885,178.211,377.085,178.289z"/>
					<path fill="#222429" d="M382.064,186.739h-0.625v-0.546c-0.139,0.164-0.355,0.312-0.649,0.441
						c-0.295,0.131-0.611,0.195-0.949,0.195c-0.606,0-1.114-0.162-1.521-0.487c-0.408-0.325-0.611-0.756-0.611-1.294
						c0-0.52,0.208-0.944,0.624-1.273c0.416-0.33,0.927-0.494,1.534-0.494c0.312,0,0.615,0.062,0.91,0.188
						c0.294,0.126,0.516,0.267,0.662,0.423v-1.027c0-0.434-0.127-0.782-0.383-1.047c-0.256-0.264-0.609-0.396-1.06-0.396
						c-0.72,0-1.188,0.33-1.404,0.988h-0.637c0.112-0.485,0.353-0.866,0.722-1.145c0.367-0.277,0.808-0.416,1.319-0.416
						c0.642,0,1.146,0.181,1.515,0.54c0.367,0.36,0.553,0.843,0.553,1.45V186.739z M381.439,185.426v-0.74
						c-0.096-0.252-0.288-0.457-0.578-0.617c-0.291-0.16-0.609-0.241-0.955-0.241c-0.442,0-0.817,0.106-1.125,0.319
						c-0.308,0.212-0.461,0.513-0.461,0.902c0,0.391,0.153,0.693,0.461,0.91s0.683,0.325,1.125,0.325c0.346,0,0.664-0.08,0.955-0.24
						C381.151,185.883,381.344,185.678,381.439,185.426z"/>
					<path fill="#222429" d="M384.82,178.289v8.45h-0.65v-8.45H384.82z"/>
					<path fill="#222429" d="M386.458,185.244h0.649c0.234,0.702,0.771,1.053,1.612,1.053c0.416,0,0.754-0.091,1.015-0.272
						c0.26-0.183,0.39-0.446,0.39-0.793c0-0.485-0.355-0.827-1.065-1.027l-1.08-0.299c-0.91-0.243-1.365-0.728-1.365-1.456
						c0-0.485,0.188-0.873,0.56-1.164c0.372-0.289,0.837-0.436,1.392-0.436c0.589,0,1.067,0.139,1.436,0.416
						c0.369,0.278,0.605,0.664,0.709,1.158h-0.637c-0.227-0.677-0.729-1.015-1.508-1.015c-0.382,0-0.698,0.089-0.949,0.267
						c-0.252,0.178-0.377,0.427-0.377,0.748c0,0.26,0.08,0.455,0.24,0.584c0.16,0.131,0.427,0.248,0.799,0.352l1.027,0.285
						c0.963,0.252,1.443,0.776,1.443,1.574c0,0.511-0.191,0.912-0.572,1.202s-0.871,0.436-1.469,0.436
						c-0.59,0-1.09-0.144-1.502-0.429C386.793,186.141,386.545,185.747,386.458,185.244z"/>
					<path fill="#222429" d="M396.26,185.062h0.624c-0.112,0.546-0.366,0.981-0.761,1.307c-0.395,0.324-0.887,0.487-1.476,0.487
						c-0.763,0-1.38-0.277-1.853-0.832s-0.709-1.278-0.709-2.171c0-0.875,0.232-1.595,0.696-2.158s1.081-0.846,1.853-0.846
						c0.745,0,1.321,0.259,1.729,0.773c0.408,0.517,0.611,1.199,0.611,2.049v0.233h-4.251c0.009,0.728,0.19,1.307,0.546,1.735
						c0.355,0.43,0.814,0.644,1.378,0.644c0.407,0,0.757-0.108,1.046-0.325C395.984,185.742,396.173,185.443,396.26,185.062z
						 M394.635,181.422c-0.52,0-0.947,0.178-1.281,0.533c-0.333,0.355-0.535,0.836-0.604,1.443h3.574
						c-0.018-0.555-0.168-1.023-0.455-1.404C395.584,181.613,395.172,181.422,394.635,181.422z"/>
					<path fill="#585A5E" d="M397.91,188.053l0.702-1.301c-0.26-0.052-0.39-0.207-0.39-0.468c0-0.139,0.045-0.255,0.137-0.351
						c0.091-0.096,0.205-0.144,0.344-0.144c0.147,0,0.267,0.048,0.357,0.144c0.092,0.096,0.137,0.221,0.137,0.377
						s-0.064,0.347-0.195,0.572l-0.623,1.17H397.91z"/>
					<path fill="#585A5E" d="M404.723,178.289v8.45h-0.65v-8.45H404.723z"/>
					<path fill="#585A5E" d="M410.878,181.682c0.472,0.555,0.708,1.279,0.708,2.172s-0.236,1.616-0.708,2.171
						c-0.473,0.555-1.091,0.832-1.853,0.832c-0.763,0-1.379-0.277-1.846-0.832c-0.469-0.555-0.703-1.278-0.703-2.171
						s0.234-1.617,0.703-2.172c0.467-0.554,1.083-0.832,1.846-0.832C409.787,180.85,410.405,181.128,410.878,181.682z
						 M410.416,185.615c0.347-0.447,0.52-1.034,0.52-1.762c0-0.729-0.173-1.315-0.52-1.762s-0.811-0.67-1.391-0.67
						c-0.572,0-1.031,0.224-1.379,0.67c-0.346,0.446-0.52,1.033-0.52,1.762c0,0.728,0.174,1.314,0.52,1.762
						c0.348,0.445,0.807,0.669,1.379,0.669C409.605,186.284,410.069,186.061,410.416,185.615z"/>
					<path fill="#585A5E" d="M413.627,186.024c-0.468-0.555-0.702-1.278-0.702-2.171s0.234-1.617,0.702-2.172
						c0.468-0.554,1.084-0.832,1.846-0.832c0.598,0,1.09,0.163,1.476,0.488c0.386,0.324,0.631,0.76,0.735,1.307h-0.664
						c-0.086-0.381-0.264-0.678-0.533-0.891c-0.268-0.213-0.605-0.318-1.014-0.318c-0.562,0-1.02,0.221-1.371,0.662
						c-0.352,0.442-0.526,1.027-0.526,1.756c0,0.728,0.175,1.312,0.526,1.755s0.809,0.663,1.371,0.663
						c0.408,0,0.746-0.106,1.014-0.318c0.27-0.213,0.447-0.51,0.533-0.891h0.664c-0.104,0.546-0.35,0.981-0.735,1.307
						c-0.386,0.324-0.878,0.487-1.476,0.487C414.711,186.856,414.095,186.579,413.627,186.024z"/>
					<path fill="#585A5E" d="M423.273,186.739l-2.51-2.886l-0.701,0.65v2.235h-0.65v-8.45h0.65v5.46l3.055-2.782h0.857l-2.742,2.483
						l2.834,3.289H423.273z"/>
					<path fill="#585A5E" d="M429.292,185.062h0.624c-0.113,0.546-0.366,0.981-0.761,1.307c-0.395,0.324-0.886,0.487-1.476,0.487
						c-0.763,0-1.38-0.277-1.853-0.832c-0.472-0.555-0.708-1.278-0.708-2.171c0-0.875,0.231-1.595,0.695-2.158
						c0.463-0.563,1.081-0.846,1.853-0.846c0.745,0,1.321,0.259,1.729,0.773c0.406,0.517,0.61,1.199,0.61,2.049v0.233h-4.251
						c0.008,0.728,0.19,1.307,0.546,1.735c0.355,0.43,0.814,0.644,1.378,0.644c0.407,0,0.756-0.108,1.047-0.325
						C429.017,185.742,429.205,185.443,429.292,185.062z M427.667,181.422c-0.521,0-0.947,0.178-1.28,0.533
						c-0.334,0.355-0.535,0.836-0.605,1.443h3.576c-0.018-0.555-0.17-1.023-0.455-1.404
						C428.615,181.613,428.204,181.422,427.667,181.422z"/>
					<path fill="#585A5E" d="M435.648,186.739v-0.858c-0.174,0.27-0.422,0.499-0.747,0.689s-0.675,0.286-1.047,0.286
						c-0.814,0-1.438-0.288-1.872-0.864s-0.65-1.289-0.65-2.139s0.217-1.562,0.65-2.139s1.058-0.865,1.872-0.865
						c0.372,0,0.722,0.096,1.047,0.287c0.325,0.19,0.573,0.42,0.747,0.688v-3.536h0.637v8.45H435.648z M435.648,185.114v-2.522
						c-0.19-0.363-0.439-0.645-0.747-0.845c-0.308-0.199-0.64-0.299-0.995-0.299c-0.589,0-1.057,0.224-1.404,0.669
						c-0.346,0.447-0.52,1.025-0.52,1.736s0.174,1.289,0.52,1.735c0.348,0.446,0.815,0.669,1.404,0.669
						c0.355,0,0.688-0.1,0.995-0.299S435.458,185.479,435.648,185.114z"/>
					<path fill="#585A5E" d="M438.118,182.358c-0.095-0.095-0.143-0.212-0.143-0.351s0.048-0.258,0.143-0.357
						c0.096-0.1,0.208-0.15,0.339-0.15c0.138,0,0.255,0.051,0.351,0.15c0.095,0.1,0.143,0.219,0.143,0.357s-0.048,0.256-0.143,0.351
						c-0.096,0.095-0.213,0.144-0.351,0.144C438.326,182.502,438.214,182.453,438.118,182.358z M438.118,186.635
						c-0.095-0.095-0.143-0.212-0.143-0.351s0.048-0.258,0.143-0.357c0.096-0.1,0.208-0.149,0.339-0.149
						c0.138,0,0.255,0.05,0.351,0.149c0.095,0.1,0.143,0.219,0.143,0.357s-0.048,0.256-0.143,0.351
						c-0.096,0.096-0.213,0.144-0.351,0.144C438.326,186.778,438.214,186.73,438.118,186.635z"/>
					<path fill="#222429" d="M446.399,178.289v0.598c-0.173-0.095-0.368-0.143-0.585-0.143c-0.312,0-0.565,0.111-0.761,0.332
						c-0.194,0.221-0.292,0.525-0.292,0.916v0.975h1.352v0.56h-1.352v5.213h-0.637v-5.213h-0.937v-0.56h0.937v-1.039
						c0-0.521,0.15-0.943,0.454-1.268c0.304-0.325,0.693-0.488,1.171-0.488C445.983,178.172,446.199,178.211,446.399,178.289z"/>
					<path fill="#222429" d="M451.379,186.739h-0.625v-0.546c-0.139,0.164-0.355,0.312-0.649,0.441
						c-0.295,0.131-0.611,0.195-0.949,0.195c-0.606,0-1.114-0.162-1.521-0.487c-0.408-0.325-0.611-0.756-0.611-1.294
						c0-0.52,0.208-0.944,0.624-1.273c0.416-0.33,0.927-0.494,1.534-0.494c0.312,0,0.615,0.062,0.91,0.188
						c0.294,0.126,0.516,0.267,0.662,0.423v-1.027c0-0.434-0.127-0.782-0.383-1.047c-0.256-0.264-0.609-0.396-1.06-0.396
						c-0.72,0-1.188,0.33-1.404,0.988h-0.637c0.112-0.485,0.353-0.866,0.722-1.145c0.367-0.277,0.808-0.416,1.319-0.416
						c0.642,0,1.146,0.181,1.515,0.54c0.367,0.36,0.553,0.843,0.553,1.45V186.739z M450.754,185.426v-0.74
						c-0.096-0.252-0.288-0.457-0.578-0.617c-0.291-0.16-0.609-0.241-0.955-0.241c-0.442,0-0.817,0.106-1.125,0.319
						c-0.308,0.212-0.461,0.513-0.461,0.902c0,0.391,0.153,0.693,0.461,0.91s0.683,0.325,1.125,0.325c0.346,0,0.664-0.08,0.955-0.24
						C450.466,185.883,450.658,185.678,450.754,185.426z"/>
					<path fill="#222429" d="M454.135,178.289v8.45h-0.65v-8.45H454.135z"/>
					<path fill="#222429" d="M455.771,185.244h0.65c0.234,0.702,0.771,1.053,1.611,1.053c0.416,0,0.754-0.091,1.015-0.272
						c0.26-0.183,0.39-0.446,0.39-0.793c0-0.485-0.355-0.827-1.065-1.027l-1.079-0.299c-0.91-0.243-1.365-0.728-1.365-1.456
						c0-0.485,0.187-0.873,0.559-1.164c0.373-0.289,0.837-0.436,1.392-0.436c0.589,0,1.067,0.139,1.437,0.416
						c0.368,0.278,0.604,0.664,0.709,1.158h-0.638c-0.226-0.677-0.728-1.015-1.508-1.015c-0.382,0-0.698,0.089-0.949,0.267
						s-0.377,0.427-0.377,0.748c0,0.26,0.08,0.455,0.241,0.584c0.16,0.131,0.426,0.248,0.799,0.352l1.027,0.285
						c0.962,0.252,1.443,0.776,1.443,1.574c0,0.511-0.191,0.912-0.572,1.202c-0.382,0.29-0.871,0.436-1.469,0.436
						c-0.59,0-1.091-0.144-1.502-0.429C456.107,186.141,455.858,185.747,455.771,185.244z"/>
					<path fill="#222429" d="M465.572,185.062h0.625c-0.113,0.546-0.367,0.981-0.76,1.307c-0.395,0.324-0.887,0.487-1.477,0.487
						c-0.762,0-1.381-0.277-1.852-0.832c-0.473-0.555-0.709-1.278-0.709-2.171c0-0.875,0.232-1.595,0.695-2.158
						s1.08-0.846,1.852-0.846c0.746,0,1.322,0.259,1.73,0.773c0.406,0.517,0.609,1.199,0.609,2.049v0.233h-4.25
						c0.008,0.728,0.191,1.307,0.547,1.735c0.354,0.43,0.814,0.644,1.377,0.644c0.408,0,0.756-0.108,1.047-0.325
						C465.297,185.742,465.486,185.443,465.572,185.062z M463.947,181.422c-0.52,0-0.945,0.178-1.279,0.533
						s-0.535,0.836-0.605,1.443h3.576c-0.018-0.555-0.17-1.023-0.455-1.404C464.896,181.613,464.484,181.422,463.947,181.422z"/>
					<path fill="#696B6E" d="M472.672,186.661v-2.69c0-0.382,0.172-0.686,0.52-0.91c-0.348-0.209-0.52-0.512-0.52-0.91v-2.691
						c0-0.39-0.184-0.585-0.547-0.585h-1.469v-0.585h1.455c0.348,0,0.631,0.113,0.852,0.338c0.223,0.226,0.332,0.516,0.332,0.871
						v2.678c0,0.391,0.182,0.586,0.547,0.586h0.545v0.598h-0.545c-0.365,0-0.547,0.195-0.547,0.585v2.678
						c0,0.355-0.109,0.646-0.332,0.871c-0.221,0.226-0.504,0.338-0.852,0.338h-1.455v-0.585h1.469
						C472.488,187.246,472.672,187.051,472.672,186.661z"/>
				</g>
			</g>
		</g>
	</g>
	<g>
		<path fill="#20B5AE" d="M409.356,45.775h5.214v1.195h-3.888v2.106h3.522v1.183h-3.522v2.289h3.888v1.209h-5.214V45.775z"/>
		<path fill="#20B5AE" d="M420.484,53.758h-0.961l-2.197-5.551v5.551h-1.287v-7.982h1.547l2.431,6.136l2.405-6.136h1.508v7.982h-1.3
			v-5.551L420.484,53.758z"/>
		<path fill="#20B5AE" d="M425.697,45.775h5.213v1.195h-3.887v2.106h3.523v1.183h-3.523v2.289h3.887v1.209h-5.213V45.775z"/>
		<path fill="#20B5AE" d="M434.693,50.521h-0.962v3.237h-1.353v-7.982h3.082c0.84,0,1.504,0.206,1.988,0.617
			c0.486,0.412,0.729,1.004,0.729,1.775c0,0.658-0.18,1.18-0.539,1.566c-0.36,0.385-0.861,0.63-1.502,0.734l2.314,3.289h-1.535
			L434.693,50.521z M433.731,46.945v2.443h1.703c0.442,0,0.786-0.109,1.034-0.331c0.246-0.221,0.369-0.518,0.369-0.89
			c0-0.373-0.123-0.67-0.369-0.891c-0.248-0.222-0.592-0.332-1.034-0.332H433.731z"/>
		<path fill="#20B5AE" d="M445.028,50.793h-1.741v-1.156h3.028v0.623c0,1.093-0.318,1.971-0.956,2.633
			c-0.637,0.663-1.449,0.994-2.438,0.994c-1.083,0-1.98-0.383-2.69-1.15c-0.711-0.767-1.065-1.756-1.065-2.971
			c0-1.213,0.353-2.203,1.059-2.97c0.707-0.767,1.588-1.15,2.646-1.15c0.893,0,1.622,0.233,2.189,0.702
			c0.568,0.468,0.93,1.109,1.086,1.924h-1.352c-0.174-0.459-0.41-0.809-0.709-1.047s-0.704-0.357-1.215-0.357
			c-0.703,0-1.268,0.271-1.697,0.812c-0.429,0.542-0.644,1.237-0.644,2.086c0,0.859,0.217,1.561,0.65,2.107
			c0.433,0.545,1.014,0.818,1.741,0.818c0.59,0,1.066-0.171,1.431-0.514C444.717,51.836,444.941,51.374,445.028,50.793z"/>
		<path fill="#20B5AE" d="M447.654,45.775h5.213v1.195h-3.887v2.106h3.522v1.183h-3.522v2.289h3.887v1.209h-5.213V45.775z"/>
		<path fill="#20B5AE" d="M460.758,45.775v7.982h-1.039l-4.082-5.812v5.812h-1.301v-7.982h1.274l3.848,5.538v-5.538H460.758z"/>
		<path fill="#20B5AE" d="M463.131,52.736c-0.689-0.767-1.033-1.756-1.033-2.971c0-1.213,0.344-2.203,1.033-2.97
			s1.553-1.15,2.594-1.15c0.883,0,1.607,0.235,2.17,0.708c0.564,0.473,0.924,1.116,1.08,1.931h-1.326
			c-0.348-0.944-0.988-1.417-1.924-1.417c-0.693,0-1.244,0.271-1.651,0.812c-0.407,0.542-0.611,1.237-0.611,2.086
			c0,0.85,0.204,1.546,0.611,2.088c0.407,0.541,0.958,0.812,1.651,0.812c0.936,0,1.576-0.477,1.924-1.431h1.326
			c-0.156,0.823-0.516,1.472-1.08,1.943c-0.562,0.473-1.287,0.708-2.17,0.708C464.684,53.887,463.82,53.504,463.131,52.736z"/>
		<path fill="#20B5AE" d="M472.861,49.35l2.105-3.574h1.43l-2.898,4.797v3.186h-1.339v-3.186l-2.886-4.797h1.469L472.861,49.35z"/>
		<path fill="#20B5AE" d="M480.349,53.758v-7.982h2.691c1.179,0,2.118,0.361,2.821,1.086c0.701,0.723,1.053,1.691,1.053,2.904
			c0,1.215-0.352,2.183-1.053,2.906c-0.703,0.724-1.643,1.086-2.821,1.086H480.349z M481.701,52.549h1.287
			c0.822,0,1.457-0.248,1.904-0.742c0.445-0.493,0.67-1.174,0.67-2.041c0-0.865-0.225-1.549-0.67-2.047
			c-0.447-0.498-1.082-0.748-1.904-0.748h-1.287V52.549z"/>
		<path fill="#20B5AE" d="M494.154,46.809c0.693,0.775,1.041,1.762,1.041,2.957c0,1.197-0.348,2.183-1.041,2.958
			c-0.693,0.776-1.577,1.163-2.652,1.163c-1.074,0-1.955-0.387-2.645-1.163c-0.689-0.775-1.033-1.761-1.033-2.958
			c0-1.195,0.344-2.182,1.033-2.957s1.57-1.163,2.645-1.163C492.577,45.646,493.461,46.033,494.154,46.809z M493.186,51.859
			c0.43-0.546,0.645-1.244,0.645-2.094c0-0.849-0.215-1.547-0.645-2.092c-0.428-0.547-0.99-0.819-1.684-0.819
			s-1.252,0.271-1.676,0.812c-0.426,0.542-0.638,1.241-0.638,2.099c0,0.859,0.212,1.559,0.638,2.1
			c0.424,0.543,0.982,0.812,1.676,0.812S492.758,52.405,493.186,51.859z"/>
		<path fill="#20B5AE" d="M502.436,46.809c0.693,0.775,1.04,1.762,1.04,2.957c0,1.197-0.347,2.183-1.04,2.958
			c-0.693,0.776-1.578,1.163-2.652,1.163s-1.956-0.387-2.646-1.163c-0.688-0.775-1.033-1.761-1.033-2.958
			c0-1.195,0.345-2.182,1.033-2.957c0.689-0.775,1.571-1.163,2.646-1.163S501.742,46.033,502.436,46.809z M501.467,51.859
			c0.43-0.546,0.644-1.244,0.644-2.094c0-0.849-0.214-1.547-0.644-2.092c-0.429-0.547-0.99-0.819-1.684-0.819
			s-1.252,0.271-1.677,0.812s-0.638,1.241-0.638,2.099c0,0.859,0.213,1.559,0.638,2.1c0.425,0.543,0.983,0.812,1.677,0.812
			S501.038,52.405,501.467,51.859z"/>
		<path fill="#20B5AE" d="M507.129,50.521h-0.963v3.237h-1.352v-7.982h3.08c0.842,0,1.504,0.206,1.99,0.617
			c0.484,0.412,0.728,1.004,0.728,1.775c0,0.658-0.181,1.18-0.54,1.566c-0.359,0.385-0.859,0.63-1.501,0.734l2.313,3.289h-1.533
			L507.129,50.521z M506.166,46.945v2.443h1.703c0.441,0,0.787-0.109,1.033-0.331c0.248-0.221,0.371-0.518,0.371-0.89
			c0-0.373-0.123-0.67-0.371-0.891c-0.246-0.222-0.592-0.332-1.033-0.332H506.166z"/>
		<path fill="#20B5AE" d="M514.277,51.547h1.379c0.251,0.798,0.854,1.196,1.807,1.196c0.469,0,0.843-0.106,1.125-0.318
			c0.281-0.212,0.422-0.501,0.422-0.864c0-0.286-0.089-0.514-0.266-0.683c-0.178-0.169-0.475-0.302-0.891-0.396l-1.353-0.325
			c-1.325-0.312-1.989-1.027-1.989-2.145c0-0.686,0.254-1.25,0.761-1.697c0.507-0.445,1.159-0.669,1.956-0.669
			c0.842,0,1.52,0.197,2.035,0.591c0.516,0.395,0.848,0.935,0.994,1.619h-1.352c-0.252-0.711-0.807-1.066-1.664-1.066
			c-0.434,0-0.782,0.102-1.047,0.306c-0.264,0.204-0.396,0.47-0.396,0.8c0,0.528,0.352,0.875,1.053,1.039l1.392,0.326
			c0.649,0.146,1.157,0.407,1.521,0.779c0.364,0.373,0.547,0.85,0.547,1.43c0,0.737-0.266,1.324-0.793,1.762
			c-0.529,0.438-1.214,0.656-2.055,0.656c-0.85,0-1.558-0.205-2.125-0.617C514.77,52.858,514.416,52.284,514.277,51.547z"/>
		<path fill="#20B5AE" d="M521.025,46.971v-1.195h6.656v1.195h-2.652v6.787h-1.352v-6.787H521.025z"/>
		<path fill="#20B5AE" d="M530.619,45.775h1.3l3.067,7.982h-1.377l-0.819-2.211h-3.056l-0.818,2.211h-1.365L530.619,45.775z
			 M531.256,47.426l-1.092,2.951h2.184L531.256,47.426z"/>
		<path fill="#20B5AE" d="M534.857,46.971v-1.195h6.656v1.195h-2.652v6.787h-1.352v-6.787H534.857z"/>
		<path fill="#20B5AE" d="M542.787,45.775H548v1.195h-3.887v2.106h3.522v1.183h-3.522v2.289H548v1.209h-5.213V45.775z"/>
	</g>
	<line fill="none" stroke="#20B5AE" stroke-miterlimit="10" x1="478.528" y1="59.264" x2="478.528" y2="100.072"/>
</g>
</svg>
