<?xml version="1.0" encoding="utf-8"?>
<!-- Generator: Adobe Illustrator 16.0.0, SVG Export Plug-In . SVG Version: 6.00 Build 0)  -->
<!DOCTYPE svg PUBLIC "-//W3C//DTD SVG 1.1//EN" "http://www.w3.org/Graphics/SVG/1.1/DTD/svg11.dtd">
<svg version="1.1" id="_x32__1_" xmlns="http://www.w3.org/2000/svg" xmlns:xlink="http://www.w3.org/1999/xlink" x="0px" y="0px"
	 width="438.118px" height="246.795px" viewBox="0 0 438.118 246.795" enable-background="new 0 0 438.118 246.795"
	 xml:space="preserve">
<g>
	
		<rect x="0.076" y="0.076" fill="none" stroke="#A6A8AB" stroke-width="0.15" stroke-miterlimit="10" width="437.965" height="246.645"/>
	<rect x="47.075" y="64.075" fill="#E6E6E6" width="337.968" height="132.645"/>
	<g>
		<g>
			<path fill="#585A5E" d="M52.021,54.997c0.411,0.131,0.747,0.38,1.009,0.749c0.261,0.369,0.392,0.777,0.392,1.225
				c0,0.793-0.259,1.402-0.777,1.827c-0.518,0.425-1.229,0.637-2.135,0.637h-3.289v-8.596h3.01c0.914,0,1.629,0.201,2.142,0.602
				c0.513,0.401,0.771,0.98,0.771,1.736c0,0.448-0.105,0.835-0.315,1.162C52.617,54.666,52.349,54.885,52.021,54.997z
				 M48.635,54.451h1.582c1.017,0,1.525-0.396,1.525-1.19c0-0.775-0.509-1.162-1.525-1.162h-1.582V54.451z M48.635,55.655v2.52
				h1.848c0.484,0,0.858-0.112,1.119-0.336c0.262-0.224,0.393-0.532,0.393-0.924s-0.131-0.7-0.393-0.924
				c-0.261-0.224-0.635-0.336-1.119-0.336H48.635z"/>
			<path fill="#585A5E" d="M61.29,51.952c0.747,0.835,1.12,1.897,1.12,3.185s-0.373,2.35-1.12,3.185
				c-0.747,0.835-1.698,1.253-2.856,1.253c-1.157,0-2.106-0.418-2.849-1.253c-0.742-0.835-1.112-1.897-1.112-3.185
				s0.37-2.35,1.112-3.185s1.691-1.253,2.849-1.253C59.592,50.699,60.543,51.117,61.29,51.952z M60.247,57.391
				c0.462-0.588,0.692-1.339,0.692-2.254s-0.23-1.666-0.692-2.254c-0.462-0.588-1.066-0.882-1.813-0.882
				c-0.746,0-1.349,0.292-1.806,0.875c-0.458,0.583-0.687,1.337-0.687,2.261c0,0.924,0.229,1.678,0.687,2.261
				c0.457,0.583,1.06,0.875,1.806,0.875C59.181,58.273,59.785,57.979,60.247,57.391z"/>
			<path fill="#585A5E" d="M70.208,51.952c0.747,0.835,1.12,1.897,1.12,3.185s-0.373,2.35-1.12,3.185
				c-0.747,0.835-1.698,1.253-2.856,1.253c-1.157,0-2.106-0.418-2.849-1.253c-0.742-0.835-1.112-1.897-1.112-3.185
				s0.37-2.35,1.112-3.185s1.691-1.253,2.849-1.253C68.51,50.699,69.461,51.117,70.208,51.952z M69.165,57.391
				c0.462-0.588,0.692-1.339,0.692-2.254s-0.23-1.666-0.692-2.254c-0.462-0.588-1.066-0.882-1.813-0.882
				c-0.746,0-1.349,0.292-1.806,0.875c-0.458,0.583-0.687,1.337-0.687,2.261c0,0.924,0.229,1.678,0.687,2.261
				c0.457,0.583,1.06,0.875,1.806,0.875C68.099,58.273,68.703,57.979,69.165,57.391z"/>
			<path fill="#585A5E" d="M72.77,59.435v-8.596h1.457v7.294h4.129v1.302H72.77z"/>
			<path fill="#585A5E" d="M79.84,50.839h5.613v1.288h-4.186v2.268h3.794v1.274h-3.794v2.464h4.186v1.302H79.84V50.839z"/>
			<path fill="#585A5E" d="M89.668,50.839h1.399l3.304,8.596h-1.483l-0.882-2.38h-3.291l-0.881,2.38h-1.471L89.668,50.839z
				 M90.354,52.617l-1.176,3.178h2.352L90.354,52.617z"/>
			<path fill="#585A5E" d="M102.52,50.839v8.596h-1.12l-4.396-6.258v6.258h-1.4v-8.596h1.372l4.144,5.964v-5.964H102.52z"/>
		</g>
	</g>
	<g>
		<g>
			<g>
				<rect x="107.683" y="114.877" fill="#FFFFFF" width="99.075" height="33.527"/>
				<g>
					<path fill="#222429" d="M147.959,134.358v-3.874h-0.975v-0.559h0.975v-1.482h0.637v1.482h1.496v0.559h-1.496v3.809
						c0,0.624,0.277,0.936,0.832,0.936c0.277,0,0.542-0.074,0.793-0.221v0.611c-0.242,0.13-0.527,0.195-0.857,0.195
						c-0.434,0-0.775-0.124-1.027-0.371C148.085,135.196,147.959,134.834,147.959,134.358z"/>
					<path fill="#222429" d="M154.603,129.886v0.637c-0.165-0.069-0.343-0.104-0.533-0.104c-0.347,0-0.654,0.113-0.923,0.338
						c-0.27,0.226-0.473,0.529-0.611,0.91v4.03h-0.65v-5.772h0.65v0.923c0.139-0.303,0.347-0.552,0.624-0.748
						c0.277-0.195,0.589-0.292,0.937-0.292C154.26,129.808,154.429,129.834,154.603,129.886z"/>
					<path fill="#222429" d="M160.53,129.925v5.772h-0.638v-0.923c-0.189,0.294-0.445,0.542-0.767,0.741
						c-0.32,0.199-0.676,0.299-1.065,0.299c-0.642,0-1.136-0.188-1.482-0.566c-0.347-0.377-0.52-0.877-0.52-1.501v-3.822h0.637
						v3.731c0,0.468,0.123,0.845,0.371,1.131c0.246,0.286,0.617,0.429,1.111,0.429c0.381,0,0.725-0.117,1.033-0.351
						c0.307-0.234,0.535-0.533,0.682-0.897v-4.043H160.53z"/>
					<path fill="#222429" d="M166.459,134.02h0.623c-0.112,0.546-0.365,0.981-0.76,1.306c-0.395,0.325-0.887,0.488-1.477,0.488
						c-0.762,0-1.379-0.277-1.852-0.832s-0.709-1.278-0.709-2.171c0-0.875,0.232-1.594,0.695-2.158
						c0.464-0.563,1.082-0.845,1.854-0.845c0.744,0,1.32,0.258,1.729,0.773c0.407,0.516,0.611,1.198,0.611,2.048v0.234h-4.252
						c0.009,0.728,0.191,1.307,0.547,1.735c0.355,0.429,0.814,0.644,1.377,0.644c0.408,0,0.757-0.108,1.047-0.325
						C166.184,134.7,166.371,134.401,166.459,134.02z M164.834,130.38c-0.521,0-0.947,0.178-1.281,0.533
						c-0.334,0.355-0.535,0.836-0.604,1.443h3.575c-0.018-0.555-0.169-1.023-0.455-1.404S165.371,130.38,164.834,130.38z"/>
				</g>
			</g>
			<g>
				<rect x="225.162" y="114.877" fill="#FFFFFF" width="99.08" height="33.527"/>
				<g>
					<path fill="#222429" d="M266.26,127.247v0.598c-0.174-0.095-0.369-0.143-0.585-0.143c-0.312,0-0.565,0.111-0.761,0.332
						c-0.195,0.221-0.293,0.526-0.293,0.917v0.975h1.353v0.559h-1.353v5.213h-0.637v-5.213h-0.936v-0.559h0.936v-1.04
						c0-0.52,0.152-0.942,0.455-1.268c0.304-0.325,0.693-0.487,1.17-0.487C265.844,127.13,266.061,127.169,266.26,127.247z"/>
					<path fill="#222429" d="M271.238,135.697h-0.623v-0.546c-0.139,0.165-0.355,0.312-0.65,0.442s-0.611,0.195-0.949,0.195
						c-0.607,0-1.113-0.162-1.521-0.487c-0.406-0.325-0.61-0.756-0.61-1.293c0-0.52,0.208-0.945,0.624-1.274
						c0.416-0.33,0.928-0.494,1.533-0.494c0.312,0,0.615,0.063,0.91,0.188c0.295,0.126,0.516,0.267,0.664,0.422v-1.027
						c0-0.433-0.129-0.782-0.385-1.046c-0.255-0.264-0.608-0.396-1.059-0.396c-0.72,0-1.188,0.33-1.404,0.988h-0.637
						c0.112-0.485,0.354-0.866,0.721-1.144c0.369-0.277,0.809-0.416,1.32-0.416c0.641,0,1.146,0.18,1.514,0.54
						c0.369,0.36,0.553,0.843,0.553,1.45V135.697z M270.615,134.384v-0.741c-0.096-0.251-0.289-0.457-0.579-0.617
						s-0.608-0.241-0.956-0.241c-0.441,0-0.816,0.106-1.124,0.319s-0.462,0.513-0.462,0.903s0.154,0.693,0.462,0.91
						c0.308,0.216,0.683,0.325,1.124,0.325c0.348,0,0.666-0.08,0.956-0.24C270.326,134.841,270.52,134.635,270.615,134.384z"/>
					<path fill="#222429" d="M273.994,127.247v8.45h-0.65v-8.45H273.994z"/>
					<path fill="#222429" d="M275.633,134.202h0.649c0.233,0.702,0.771,1.053,1.612,1.053c0.416,0,0.754-0.091,1.014-0.273
						c0.26-0.182,0.391-0.446,0.391-0.793c0-0.485-0.355-0.828-1.066-1.027l-1.079-0.299c-0.91-0.243-1.365-0.728-1.365-1.456
						c0-0.485,0.187-0.873,0.56-1.164c0.372-0.29,0.836-0.436,1.391-0.436c0.59,0,1.068,0.139,1.437,0.416
						c0.368,0.278,0.604,0.663,0.708,1.157h-0.637c-0.226-0.676-0.729-1.014-1.508-1.014c-0.381,0-0.697,0.089-0.949,0.267
						s-0.377,0.427-0.377,0.748c0,0.26,0.08,0.455,0.24,0.585s0.428,0.247,0.8,0.351l1.026,0.286
						c0.963,0.251,1.443,0.776,1.443,1.573c0,0.511-0.19,0.912-0.572,1.203c-0.381,0.291-0.871,0.436-1.469,0.436
						c-0.59,0-1.09-0.143-1.501-0.429C275.968,135.099,275.719,134.705,275.633,134.202z"/>
					<path fill="#222429" d="M285.435,134.02h0.624c-0.113,0.546-0.366,0.981-0.761,1.306c-0.395,0.325-0.886,0.488-1.476,0.488
						c-0.763,0-1.38-0.277-1.853-0.832c-0.472-0.555-0.708-1.278-0.708-2.171c0-0.875,0.231-1.594,0.695-2.158
						c0.463-0.563,1.081-0.845,1.853-0.845c0.745,0,1.321,0.258,1.729,0.773c0.406,0.516,0.61,1.198,0.61,2.048v0.234h-4.251
						c0.008,0.728,0.19,1.307,0.546,1.735c0.355,0.429,0.814,0.644,1.378,0.644c0.407,0,0.756-0.108,1.047-0.325
						C285.159,134.7,285.348,134.401,285.435,134.02z M283.81,130.38c-0.521,0-0.947,0.178-1.28,0.533
						c-0.334,0.355-0.535,0.836-0.605,1.443h3.576c-0.018-0.555-0.17-1.023-0.455-1.404
						C284.758,130.57,284.347,130.38,283.81,130.38z"/>
				</g>
			</g>
		</g>
	</g>
</g>
</svg>
