<?xml version="1.0" encoding="utf-8"?>
<!-- Generator: Adobe Illustrator 16.0.0, SVG Export Plug-In . SVG Version: 6.00 Build 0)  -->
<!DOCTYPE svg PUBLIC "-//W3C//DTD SVG 1.1//EN" "http://www.w3.org/Graphics/SVG/1.1/DTD/svg11.dtd">
<svg version="1.1" xmlns="http://www.w3.org/2000/svg" xmlns:xlink="http://www.w3.org/1999/xlink" x="0px" y="0px"
	 width="798.382px" height="409.963px" viewBox="0 0 798.382 409.963" enable-background="new 0 0 798.382 409.963"
	 xml:space="preserve">
<g id="_x32__1_" display="none">
	<g display="inline">
		
			<rect x="150.683" y="6.118" fill="none" stroke="#A6A8AB" stroke-width="0.15" stroke-miterlimit="10" width="437.964" height="246.645"/>
		<rect x="200.683" y="70.117" fill="#E6E6E6" width="337.966" height="132.645"/>
		<g>
			<text transform="matrix(1 0 0 1 199.8755 65.4785)" fill="#585A5E" font-family="'Calibre-Medium'" font-size="14">BOOLEAN</text>
		</g>
		
			<rect x="366.667" y="109.91" fill="none" stroke="#20B5AE" stroke-width="2" stroke-miterlimit="10" stroke-dasharray="2" width="123.604" height="58.166"/>
		<g>
			<g>
				<g>
					<rect x="254.291" y="120.92" fill="#FFFFFF" width="99.074" height="33.527"/>
					<text transform="matrix(1 0 0 1 293.3838 141.7402)" fill="#222429" font-family="'Calibre-Light'" font-size="13">true</text>
				</g>
				<g>
					<rect x="378.769" y="120.92" fill="#FFFFFF" width="99.079" height="33.527"/>
					<text transform="matrix(1 0 0 1 416.3442 141.7402)" fill="#222429" font-family="'Calibre-Light'" font-size="13">false</text>
				</g>
			</g>
		</g>
		<text transform="matrix(1 0 0 1 449.8345 59.9727)" fill="#20B5AE" font-family="'Calibre-Light'" font-size="11">boolean_false</text>
		
			<line fill="none" stroke="#20B5AE" stroke-width="0.5" stroke-miterlimit="10" x1="477.85" y1="65.479" x2="477.85" y2="106.287"/>
	</g>
</g>
<g id="_x32__copy">
	<rect fill="none" stroke="#989A9E" stroke-width="0.25" stroke-miterlimit="10" width="798.382" height="409.963"/>
	<g>
		<path fill="#E6E6E6" d="M652.779,204.979c0,85.594-107.348,154.982-239.768,154.982c-132.421,0-239.769-69.389-239.769-154.982
			c0-85.591,107.348-154.979,239.769-154.979C545.431,49.999,652.779,119.388,652.779,204.979z"/>
		<g>
			<rect x="214.809" y="145.364" fill="#FFFFFF" width="160.868" height="33.524"/>
			<g>
				<path fill="#696B6E" d="M229.912,163.414v2.691c0,0.391,0.182,0.585,0.546,0.585h1.469v0.585h-1.456
					c-0.347,0-0.631-0.112-0.852-0.338c-0.221-0.226-0.332-0.516-0.332-0.871v-2.678c0-0.391-0.182-0.585-0.546-0.585h-0.546v-0.599
					h0.546c0.364,0,0.546-0.194,0.546-0.584v-2.679c0-0.354,0.11-0.646,0.332-0.87c0.221-0.227,0.505-0.339,0.852-0.339h1.456v0.585
					h-1.469c-0.364,0-0.546,0.195-0.546,0.586v2.69c0,0.398-0.173,0.702-0.52,0.909C229.738,162.73,229.912,163.033,229.912,163.414
					z"/>
				<path fill="#696B6E" d="M240.708,161.127c0.472,0.555,0.708,1.278,0.708,2.17c0,0.894-0.236,1.617-0.708,2.172
					c-0.473,0.555-1.09,0.832-1.853,0.832c-0.763,0-1.378-0.277-1.846-0.832s-0.702-1.278-0.702-2.172
					c0-0.892,0.234-1.615,0.702-2.17s1.083-0.832,1.846-0.832C239.618,160.295,240.235,160.572,240.708,161.127z M240.246,165.059
					c0.347-0.445,0.52-1.033,0.52-1.762c0-0.727-0.173-1.314-0.52-1.761s-0.81-0.669-1.391-0.669c-0.572,0-1.032,0.223-1.378,0.669
					s-0.52,1.034-0.52,1.761c0,0.729,0.173,1.316,0.52,1.762c0.347,0.447,0.806,0.67,1.378,0.67
					C239.436,165.729,239.899,165.506,240.246,165.059z"/>
				<path fill="#696B6E" d="M243.822,165.326v3.067h-0.65v-7.981h0.65v0.857c0.173-0.269,0.422-0.498,0.747-0.689
					c0.325-0.189,0.674-0.285,1.047-0.285c0.806,0,1.428,0.288,1.865,0.864s0.657,1.289,0.657,2.138c0,0.85-0.219,1.562-0.657,2.139
					c-0.438,0.577-1.06,0.865-1.865,0.865c-0.373,0-0.722-0.096-1.047-0.286C244.244,165.824,243.995,165.594,243.822,165.326z
					 M243.822,162.037v2.521c0.398,0.763,0.975,1.145,1.729,1.145c0.598,0,1.07-0.224,1.417-0.67c0.346-0.446,0.52-1.025,0.52-1.736
					c0-0.71-0.173-1.288-0.52-1.734c-0.347-0.447-0.819-0.67-1.417-0.67C244.796,160.893,244.22,161.273,243.822,162.037z"/>
				<path fill="#696B6E" d="M253.649,164.507h0.624c-0.113,0.546-0.366,0.981-0.761,1.306c-0.395,0.326-0.886,0.488-1.476,0.488
					c-0.763,0-1.38-0.277-1.853-0.832c-0.472-0.555-0.708-1.278-0.708-2.172c0-0.875,0.232-1.594,0.696-2.157
					c0.463-0.563,1.081-0.845,1.853-0.845c0.745,0,1.321,0.258,1.729,0.773c0.407,0.516,0.611,1.197,0.611,2.047v0.234h-4.251
					c0.008,0.729,0.19,1.307,0.546,1.735s0.814,0.644,1.378,0.644c0.407,0,0.756-0.108,1.046-0.324
					C253.374,165.188,253.562,164.889,253.649,164.507z M252.024,160.867c-0.52,0-0.947,0.178-1.281,0.532
					c-0.333,0.355-0.535,0.837-0.604,1.443h3.575c-0.018-0.555-0.169-1.022-0.455-1.404S252.562,160.867,252.024,160.867z"/>
				<path fill="#696B6E" d="M256.106,166.184v-5.771h0.65v0.922c0.19-0.294,0.448-0.541,0.773-0.74
					c0.325-0.199,0.682-0.299,1.072-0.299c0.641,0,1.135,0.188,1.482,0.564c0.347,0.378,0.52,0.879,0.52,1.502v3.822h-0.637v-3.73
					c0-0.469-0.124-0.846-0.371-1.131c-0.247-0.287-0.618-0.43-1.112-0.43c-0.381,0-0.728,0.117-1.04,0.352
					c-0.312,0.233-0.542,0.532-0.689,0.896v4.043H256.106z"/>
				<path fill="#696B6E" d="M262.359,161.803c-0.095-0.096-0.143-0.213-0.143-0.352s0.047-0.258,0.143-0.357
					c0.096-0.1,0.208-0.148,0.338-0.148c0.138,0,0.255,0.049,0.351,0.148c0.095,0.1,0.143,0.219,0.143,0.357
					s-0.047,0.256-0.143,0.352c-0.096,0.096-0.213,0.143-0.351,0.143C262.567,161.945,262.455,161.898,262.359,161.803z
					 M262.359,166.08c-0.095-0.096-0.143-0.213-0.143-0.352s0.047-0.258,0.143-0.357c0.096-0.1,0.208-0.149,0.338-0.149
					c0.138,0,0.255,0.05,0.351,0.149c0.095,0.1,0.143,0.219,0.143,0.357s-0.047,0.256-0.143,0.352
					c-0.096,0.096-0.213,0.143-0.351,0.143C262.567,166.223,262.455,166.176,262.359,166.08z"/>
				<path fill="#222429" d="M268.326,164.845v-3.874h-0.975v-0.559h0.975v-1.482h0.637v1.482h1.495v0.559h-1.495v3.809
					c0,0.625,0.277,0.937,0.832,0.937c0.277,0,0.542-0.073,0.793-0.222v0.611c-0.243,0.13-0.528,0.195-0.858,0.195
					c-0.434,0-0.776-0.123-1.027-0.371C268.452,165.684,268.326,165.321,268.326,164.845z"/>
				<path fill="#222429" d="M274.969,160.373v0.637c-0.165-0.069-0.343-0.104-0.533-0.104c-0.347,0-0.654,0.112-0.923,0.338
					c-0.269,0.225-0.473,0.528-0.611,0.91v4.029h-0.65v-5.771h0.65v0.922c0.138-0.303,0.346-0.552,0.624-0.747
					c0.277-0.194,0.589-0.292,0.936-0.292C274.626,160.295,274.795,160.32,274.969,160.373z"/>
				<path fill="#222429" d="M280.897,160.412v5.771h-0.637v-0.923c-0.19,0.294-0.446,0.542-0.767,0.741
					c-0.32,0.199-0.676,0.299-1.066,0.299c-0.641,0-1.135-0.188-1.482-0.566c-0.347-0.377-0.52-0.877-0.52-1.501v-3.821h0.637v3.73
					c0,0.468,0.124,0.846,0.371,1.131c0.247,0.286,0.617,0.43,1.111,0.43c0.381,0,0.726-0.117,1.034-0.352
					c0.307-0.234,0.535-0.533,0.682-0.896v-4.043H280.897z"/>
				<path fill="#222429" d="M286.825,164.507h0.624c-0.113,0.546-0.366,0.981-0.761,1.306c-0.395,0.326-0.886,0.488-1.476,0.488
					c-0.763,0-1.38-0.277-1.853-0.832c-0.472-0.555-0.708-1.278-0.708-2.172c0-0.875,0.232-1.594,0.696-2.157
					c0.463-0.563,1.081-0.845,1.853-0.845c0.745,0,1.321,0.258,1.729,0.773c0.407,0.516,0.611,1.197,0.611,2.047v0.234h-4.251
					c0.008,0.729,0.19,1.307,0.546,1.735s0.814,0.644,1.378,0.644c0.407,0,0.756-0.108,1.046-0.324
					C286.55,165.188,286.738,164.889,286.825,164.507z M285.2,160.867c-0.52,0-0.947,0.178-1.281,0.532
					c-0.333,0.355-0.535,0.837-0.604,1.443h3.575c-0.018-0.555-0.169-1.022-0.455-1.404S285.737,160.867,285.2,160.867z"/>
				<path fill="#585A5E" d="M288.476,167.496l0.702-1.299c-0.26-0.053-0.39-0.209-0.39-0.469c0-0.139,0.045-0.256,0.136-0.352
					c0.091-0.095,0.206-0.143,0.345-0.143c0.147,0,0.266,0.048,0.357,0.143c0.091,0.096,0.136,0.222,0.136,0.377
					c0,0.156-0.065,0.348-0.195,0.572l-0.624,1.17H288.476z"/>
				<path fill="#585A5E" d="M295.288,157.733v8.45h-0.65v-8.45H295.288z"/>
				<path fill="#585A5E" d="M301.443,161.127c0.472,0.555,0.708,1.278,0.708,2.17c0,0.894-0.236,1.617-0.708,2.172
					c-0.473,0.555-1.09,0.832-1.853,0.832c-0.763,0-1.378-0.277-1.846-0.832s-0.702-1.278-0.702-2.172
					c0-0.892,0.234-1.615,0.702-2.17s1.083-0.832,1.846-0.832C300.353,160.295,300.97,160.572,301.443,161.127z M300.981,165.059
					c0.347-0.445,0.52-1.033,0.52-1.762c0-0.727-0.173-1.314-0.52-1.761s-0.81-0.669-1.391-0.669c-0.572,0-1.032,0.223-1.378,0.669
					s-0.52,1.034-0.52,1.761c0,0.729,0.173,1.316,0.52,1.762c0.347,0.447,0.806,0.67,1.378,0.67
					C300.171,165.729,300.634,165.506,300.981,165.059z"/>
				<path fill="#585A5E" d="M304.192,165.469c-0.468-0.555-0.702-1.278-0.702-2.172c0-0.892,0.234-1.615,0.702-2.17
					s1.083-0.832,1.846-0.832c0.598,0,1.089,0.162,1.475,0.487s0.631,0.761,0.735,1.306h-0.663c-0.087-0.381-0.265-0.678-0.533-0.89
					s-0.606-0.319-1.014-0.319c-0.563,0-1.021,0.222-1.372,0.664c-0.351,0.441-0.526,1.027-0.526,1.754
					c0,0.729,0.175,1.313,0.526,1.756c0.351,0.441,0.808,0.663,1.372,0.663c0.407,0,0.745-0.106,1.014-0.319
					c0.269-0.211,0.446-0.508,0.533-0.89h0.663c-0.104,0.546-0.349,0.981-0.735,1.306c-0.386,0.326-0.877,0.488-1.475,0.488
					C305.276,166.301,304.66,166.023,304.192,165.469z"/>
				<path fill="#585A5E" d="M313.838,166.184l-2.509-2.887l-0.702,0.65v2.236h-0.65v-8.45h0.65v5.46l3.055-2.781h0.858l-2.743,2.482
					l2.834,3.289H313.838z"/>
				<path fill="#585A5E" d="M319.857,164.507h0.624c-0.113,0.546-0.366,0.981-0.761,1.306c-0.395,0.326-0.886,0.488-1.476,0.488
					c-0.763,0-1.38-0.277-1.853-0.832c-0.472-0.555-0.708-1.278-0.708-2.172c0-0.875,0.232-1.594,0.696-2.157
					c0.463-0.563,1.081-0.845,1.853-0.845c0.745,0,1.321,0.258,1.729,0.773c0.407,0.516,0.611,1.197,0.611,2.047v0.234h-4.251
					c0.008,0.729,0.19,1.307,0.546,1.735s0.814,0.644,1.378,0.644c0.407,0,0.756-0.108,1.046-0.324
					C319.582,165.188,319.77,164.889,319.857,164.507z M318.232,160.867c-0.52,0-0.947,0.178-1.281,0.532
					c-0.333,0.355-0.535,0.837-0.604,1.443h3.575c-0.018-0.555-0.169-1.022-0.455-1.404S318.769,160.867,318.232,160.867z"/>
				<path fill="#585A5E" d="M326.213,166.184v-0.857c-0.174,0.268-0.423,0.498-0.748,0.688c-0.325,0.19-0.674,0.286-1.047,0.286
					c-0.814,0-1.438-0.288-1.872-0.865c-0.434-0.576-0.65-1.289-0.65-2.139c0-0.849,0.217-1.562,0.65-2.138
					c0.433-0.576,1.057-0.864,1.872-0.864c0.373,0,0.722,0.096,1.047,0.285c0.325,0.191,0.574,0.421,0.748,0.689v-3.536h0.637v8.45
					H326.213z M326.213,164.559v-2.521c-0.191-0.365-0.44-0.646-0.748-0.846c-0.308-0.199-0.64-0.299-0.995-0.299
					c-0.589,0-1.058,0.223-1.404,0.67c-0.347,0.446-0.52,1.024-0.52,1.734c0,0.711,0.173,1.29,0.52,1.736s0.815,0.67,1.404,0.67
					c0.355,0,0.687-0.1,0.995-0.299C325.773,165.204,326.022,164.922,326.213,164.559z"/>
				<path fill="#585A5E" d="M328.683,161.803c-0.095-0.096-0.143-0.213-0.143-0.352s0.047-0.258,0.143-0.357
					c0.096-0.1,0.208-0.148,0.338-0.148c0.138,0,0.255,0.049,0.351,0.148c0.095,0.1,0.143,0.219,0.143,0.357
					s-0.047,0.256-0.143,0.352c-0.096,0.096-0.213,0.143-0.351,0.143C328.891,161.945,328.779,161.898,328.683,161.803z
					 M328.683,166.08c-0.095-0.096-0.143-0.213-0.143-0.352s0.047-0.258,0.143-0.357c0.096-0.1,0.208-0.149,0.338-0.149
					c0.138,0,0.255,0.05,0.351,0.149c0.095,0.1,0.143,0.219,0.143,0.357s-0.047,0.256-0.143,0.352
					c-0.096,0.096-0.213,0.143-0.351,0.143C328.891,166.223,328.779,166.176,328.683,166.08z"/>
				<path fill="#222429" d="M334.65,164.845v-3.874h-0.975v-0.559h0.975v-1.482h0.637v1.482h1.495v0.559h-1.495v3.809
					c0,0.625,0.277,0.937,0.832,0.937c0.277,0,0.542-0.073,0.793-0.222v0.611c-0.243,0.13-0.528,0.195-0.858,0.195
					c-0.434,0-0.776-0.123-1.027-0.371C334.776,165.684,334.65,165.321,334.65,164.845z"/>
				<path fill="#222429" d="M341.293,160.373v0.637c-0.165-0.069-0.343-0.104-0.533-0.104c-0.347,0-0.654,0.112-0.923,0.338
					c-0.269,0.225-0.473,0.528-0.611,0.91v4.029h-0.65v-5.771h0.65v0.922c0.138-0.303,0.346-0.552,0.624-0.747
					c0.277-0.194,0.589-0.292,0.936-0.292C340.951,160.295,341.12,160.32,341.293,160.373z"/>
				<path fill="#222429" d="M347.221,160.412v5.771h-0.637v-0.923c-0.19,0.294-0.446,0.542-0.767,0.741
					c-0.32,0.199-0.676,0.299-1.066,0.299c-0.641,0-1.135-0.188-1.482-0.566c-0.347-0.377-0.52-0.877-0.52-1.501v-3.821h0.637v3.73
					c0,0.468,0.124,0.846,0.371,1.131c0.247,0.286,0.617,0.43,1.111,0.43c0.381,0,0.726-0.117,1.034-0.352
					c0.307-0.234,0.535-0.533,0.682-0.896v-4.043H347.221z"/>
				<path fill="#222429" d="M353.149,164.507h0.623c-0.111,0.546-0.365,0.981-0.76,1.306c-0.395,0.326-0.887,0.488-1.475,0.488
					c-0.764,0-1.381-0.277-1.854-0.832c-0.472-0.555-0.708-1.278-0.708-2.172c0-0.875,0.231-1.594,0.696-2.157
					c0.463-0.563,1.08-0.845,1.852-0.845c0.746,0,1.322,0.258,1.729,0.773c0.408,0.516,0.611,1.197,0.611,2.047v0.234h-4.25
					c0.008,0.729,0.189,1.307,0.545,1.735s0.814,0.644,1.379,0.644c0.406,0,0.756-0.108,1.045-0.324
					C352.874,165.188,353.063,164.889,353.149,164.507z M351.524,160.867c-0.52,0-0.947,0.178-1.28,0.532
					c-0.333,0.355-0.535,0.837-0.604,1.443h3.574c-0.018-0.555-0.168-1.022-0.455-1.404
					C352.473,161.057,352.061,160.867,351.524,160.867z"/>
				<path fill="#696B6E" d="M360.247,166.105v-2.691c0-0.381,0.174-0.684,0.52-0.91c-0.346-0.207-0.52-0.511-0.52-0.909v-2.69
					c0-0.391-0.182-0.586-0.545-0.586h-1.471v-0.585h1.457c0.346,0,0.631,0.112,0.852,0.339c0.221,0.225,0.332,0.516,0.332,0.87
					v2.679c0,0.39,0.182,0.584,0.545,0.584h0.547v0.599h-0.547c-0.363,0-0.545,0.194-0.545,0.585v2.678
					c0,0.355-0.111,0.646-0.332,0.871s-0.506,0.338-0.852,0.338h-1.457v-0.585h1.471
					C360.065,166.69,360.247,166.496,360.247,166.105z"/>
			</g>
		</g>
		<g>
			<rect x="434.242" y="184.16" fill="#FFFFFF" width="160.869" height="33.527"/>
			<g>
				<path fill="#696B6E" d="M447.849,202.213v2.69c0,0.39,0.183,0.585,0.546,0.585h1.469v0.585h-1.455
					c-0.348,0-0.631-0.112-0.852-0.338c-0.222-0.226-0.332-0.516-0.332-0.871v-2.678c0-0.39-0.182-0.585-0.546-0.585h-0.546v-0.598
					h0.546c0.364,0,0.546-0.195,0.546-0.586v-2.678c0-0.355,0.11-0.646,0.332-0.871c0.221-0.225,0.504-0.338,0.852-0.338h1.455
					v0.585h-1.469c-0.363,0-0.546,0.195-0.546,0.585v2.691c0,0.398-0.173,0.701-0.521,0.91
					C447.676,201.527,447.849,201.831,447.849,202.213z"/>
				<path fill="#696B6E" d="M458.645,199.924c0.473,0.555,0.709,1.279,0.709,2.172s-0.236,1.616-0.709,2.171
					s-1.09,0.832-1.852,0.832c-0.764,0-1.379-0.277-1.847-0.832s-0.702-1.278-0.702-2.171s0.234-1.617,0.702-2.172
					c0.468-0.554,1.083-0.832,1.847-0.832C457.555,199.092,458.172,199.37,458.645,199.924z M458.184,203.857
					c0.346-0.447,0.52-1.034,0.52-1.762c0-0.729-0.174-1.315-0.52-1.762c-0.348-0.446-0.811-0.67-1.391-0.67
					c-0.572,0-1.032,0.224-1.379,0.67s-0.52,1.033-0.52,1.762c0,0.728,0.173,1.314,0.52,1.762c0.347,0.445,0.807,0.669,1.379,0.669
					C457.374,204.526,457.836,204.303,458.184,203.857z"/>
				<path fill="#696B6E" d="M461.759,204.123v3.068h-0.65v-7.982h0.65v0.858c0.173-0.269,0.423-0.498,0.747-0.688
					c0.325-0.191,0.674-0.287,1.047-0.287c0.806,0,1.428,0.289,1.865,0.865s0.656,1.289,0.656,2.139s-0.219,1.562-0.656,2.139
					s-1.06,0.864-1.865,0.864c-0.373,0-0.722-0.096-1.047-0.286C462.182,204.622,461.932,204.393,461.759,204.123z M461.759,200.834
					v2.522c0.398,0.763,0.975,1.144,1.729,1.144c0.599,0,1.07-0.223,1.417-0.669s0.52-1.024,0.52-1.735s-0.173-1.289-0.52-1.736
					c-0.347-0.445-0.818-0.669-1.417-0.669C462.734,199.69,462.158,200.072,461.759,200.834z"/>
				<path fill="#696B6E" d="M471.586,203.305h0.625c-0.113,0.546-0.367,0.981-0.762,1.307c-0.395,0.324-0.886,0.487-1.475,0.487
					c-0.764,0-1.381-0.277-1.854-0.832c-0.472-0.555-0.708-1.278-0.708-2.171c0-0.875,0.231-1.595,0.696-2.158
					c0.463-0.563,1.08-0.846,1.852-0.846c0.746,0,1.322,0.259,1.729,0.773c0.407,0.517,0.61,1.199,0.61,2.049v0.233h-4.25
					c0.008,0.728,0.189,1.307,0.545,1.735c0.355,0.43,0.814,0.644,1.379,0.644c0.406,0,0.756-0.108,1.046-0.325
					S471.5,203.686,471.586,203.305z M469.961,199.664c-0.52,0-0.947,0.178-1.28,0.533s-0.535,0.836-0.604,1.443h3.575
					c-0.018-0.555-0.169-1.023-0.455-1.404S470.499,199.664,469.961,199.664z"/>
				<path fill="#696B6E" d="M474.043,204.981v-5.772h0.65v0.924c0.19-0.295,0.448-0.542,0.773-0.741
					c0.324-0.199,0.682-0.3,1.072-0.3c0.641,0,1.135,0.189,1.482,0.566c0.346,0.377,0.52,0.877,0.52,1.502v3.821h-0.637v-3.731
					c0-0.468-0.123-0.845-0.371-1.131c-0.246-0.285-0.617-0.429-1.111-0.429c-0.381,0-0.728,0.117-1.039,0.351
					c-0.312,0.234-0.543,0.533-0.689,0.897v4.043H474.043z"/>
				<path fill="#696B6E" d="M480.296,200.601c-0.095-0.095-0.143-0.212-0.143-0.351s0.048-0.258,0.143-0.357
					c0.096-0.1,0.208-0.15,0.339-0.15c0.138,0,0.255,0.051,0.351,0.15c0.095,0.1,0.143,0.219,0.143,0.357s-0.048,0.256-0.143,0.351
					c-0.096,0.095-0.213,0.144-0.351,0.144C480.504,200.744,480.392,200.695,480.296,200.601z M480.296,204.877
					c-0.095-0.095-0.143-0.212-0.143-0.351s0.048-0.258,0.143-0.357c0.096-0.1,0.208-0.149,0.339-0.149
					c0.138,0,0.255,0.05,0.351,0.149c0.095,0.1,0.143,0.219,0.143,0.357s-0.048,0.256-0.143,0.351
					c-0.096,0.096-0.213,0.144-0.351,0.144C480.504,205.021,480.392,204.973,480.296,204.877z"/>
				<path fill="#222429" d="M486.264,203.643v-3.874h-0.976v-0.56h0.976v-1.481h0.637v1.481h1.494v0.56h-1.494v3.81
					c0,0.623,0.277,0.936,0.832,0.936c0.277,0,0.541-0.074,0.793-0.221v0.61c-0.243,0.13-0.529,0.195-0.858,0.195
					c-0.434,0-0.776-0.124-1.026-0.37C486.389,204.48,486.264,204.119,486.264,203.643z"/>
				<path fill="#222429" d="M492.907,199.17v0.638c-0.166-0.069-0.344-0.104-0.533-0.104c-0.348,0-0.654,0.113-0.924,0.338
					c-0.269,0.227-0.473,0.529-0.61,0.91v4.03h-0.65v-5.772h0.65v0.924c0.138-0.304,0.347-0.553,0.624-0.748
					s0.589-0.293,0.936-0.293C492.563,199.092,492.733,199.119,492.907,199.17z"/>
				<path fill="#222429" d="M498.834,199.209v5.772h-0.637v-0.923c-0.191,0.295-0.447,0.541-0.768,0.74s-0.676,0.3-1.066,0.3
					c-0.641,0-1.135-0.188-1.481-0.565s-0.521-0.878-0.521-1.502v-3.822H495v3.731c0,0.468,0.124,0.845,0.37,1.131
					c0.247,0.286,0.617,0.429,1.111,0.429c0.382,0,0.727-0.117,1.034-0.351s0.534-0.533,0.683-0.897v-4.043H498.834z"/>
				<path fill="#222429" d="M504.762,203.305h0.625c-0.113,0.546-0.367,0.981-0.762,1.307c-0.395,0.324-0.886,0.487-1.475,0.487
					c-0.764,0-1.381-0.277-1.854-0.832c-0.472-0.555-0.708-1.278-0.708-2.171c0-0.875,0.231-1.595,0.696-2.158
					c0.463-0.563,1.08-0.846,1.852-0.846c0.746,0,1.322,0.259,1.729,0.773c0.407,0.517,0.61,1.199,0.61,2.049v0.233h-4.25
					c0.008,0.728,0.189,1.307,0.545,1.735c0.355,0.43,0.814,0.644,1.379,0.644c0.406,0,0.756-0.108,1.046-0.325
					S504.676,203.686,504.762,203.305z M503.137,199.664c-0.52,0-0.947,0.178-1.28,0.533s-0.535,0.836-0.604,1.443h3.575
					c-0.018-0.555-0.169-1.023-0.455-1.404S503.674,199.664,503.137,199.664z"/>
				<path fill="#585A5E" d="M506.413,206.295l0.702-1.301c-0.26-0.052-0.39-0.207-0.39-0.468c0-0.139,0.045-0.255,0.137-0.351
					c0.091-0.096,0.205-0.144,0.344-0.144c0.147,0,0.267,0.048,0.357,0.144c0.092,0.096,0.137,0.221,0.137,0.377
					s-0.064,0.347-0.195,0.572l-0.623,1.17H506.413z"/>
				<path fill="#585A5E" d="M513.225,196.531v8.45h-0.65v-8.45H513.225z"/>
				<path fill="#585A5E" d="M519.38,199.924c0.472,0.555,0.708,1.279,0.708,2.172s-0.236,1.616-0.708,2.171
					c-0.473,0.555-1.091,0.832-1.853,0.832c-0.763,0-1.379-0.277-1.846-0.832c-0.469-0.555-0.703-1.278-0.703-2.171
					s0.234-1.617,0.703-2.172c0.467-0.554,1.083-0.832,1.846-0.832C518.29,199.092,518.908,199.37,519.38,199.924z M518.918,203.857
					c0.347-0.447,0.52-1.034,0.52-1.762c0-0.729-0.173-1.315-0.52-1.762s-0.811-0.67-1.391-0.67c-0.572,0-1.031,0.224-1.379,0.67
					c-0.346,0.446-0.52,1.033-0.52,1.762c0,0.728,0.174,1.314,0.52,1.762c0.348,0.445,0.807,0.669,1.379,0.669
					C518.108,204.526,518.572,204.303,518.918,203.857z"/>
				<path fill="#585A5E" d="M522.129,204.267c-0.467-0.555-0.701-1.278-0.701-2.171s0.234-1.617,0.701-2.172
					c0.469-0.554,1.084-0.832,1.847-0.832c0.598,0,1.089,0.163,1.476,0.488c0.385,0.324,0.631,0.76,0.734,1.307h-0.663
					c-0.087-0.381-0.265-0.678-0.533-0.891s-0.606-0.318-1.014-0.318c-0.563,0-1.021,0.221-1.372,0.662
					c-0.351,0.442-0.525,1.027-0.525,1.756c0,0.728,0.175,1.312,0.525,1.755c0.352,0.442,0.809,0.663,1.372,0.663
					c0.407,0,0.745-0.106,1.014-0.318c0.269-0.213,0.446-0.51,0.533-0.891h0.663c-0.104,0.546-0.35,0.981-0.734,1.307
					c-0.387,0.324-0.878,0.487-1.476,0.487C523.213,205.099,522.598,204.821,522.129,204.267z"/>
				<path fill="#585A5E" d="M531.776,204.981l-2.51-2.886l-0.701,0.65v2.235h-0.65v-8.45h0.65v5.46l3.055-2.782h0.857l-2.742,2.483
					l2.834,3.289H531.776z"/>
				<path fill="#585A5E" d="M537.794,203.305h0.624c-0.113,0.546-0.366,0.981-0.761,1.307c-0.395,0.324-0.886,0.487-1.476,0.487
					c-0.763,0-1.38-0.277-1.853-0.832c-0.472-0.555-0.708-1.278-0.708-2.171c0-0.875,0.231-1.595,0.695-2.158
					c0.463-0.563,1.081-0.846,1.853-0.846c0.745,0,1.321,0.259,1.729,0.773c0.406,0.517,0.61,1.199,0.61,2.049v0.233h-4.251
					c0.008,0.728,0.19,1.307,0.546,1.735c0.355,0.43,0.814,0.644,1.378,0.644c0.407,0,0.756-0.108,1.047-0.325
					C537.519,203.984,537.708,203.686,537.794,203.305z M536.169,199.664c-0.521,0-0.947,0.178-1.28,0.533
					c-0.334,0.355-0.535,0.836-0.605,1.443h3.576c-0.018-0.555-0.17-1.023-0.455-1.404
					C537.118,199.855,536.707,199.664,536.169,199.664z"/>
				<path fill="#585A5E" d="M544.151,204.981v-0.858c-0.174,0.27-0.423,0.499-0.748,0.689c-0.324,0.19-0.674,0.286-1.047,0.286
					c-0.814,0-1.438-0.288-1.871-0.864s-0.65-1.289-0.65-2.139s0.217-1.562,0.65-2.139s1.057-0.865,1.871-0.865
					c0.373,0,0.723,0.096,1.047,0.287c0.325,0.19,0.574,0.42,0.748,0.688v-3.536h0.637v8.45H544.151z M544.151,203.356v-2.522
					c-0.191-0.363-0.44-0.645-0.748-0.845c-0.308-0.199-0.639-0.299-0.994-0.299c-0.59,0-1.058,0.224-1.404,0.669
					c-0.347,0.447-0.52,1.025-0.52,1.736s0.173,1.289,0.52,1.735s0.814,0.669,1.404,0.669c0.355,0,0.687-0.1,0.994-0.299
					S543.959,203.721,544.151,203.356z"/>
				<path fill="#585A5E" d="M546.621,200.601c-0.095-0.095-0.143-0.212-0.143-0.351s0.048-0.258,0.143-0.357
					c0.096-0.1,0.208-0.15,0.339-0.15c0.138,0,0.255,0.051,0.351,0.15c0.095,0.1,0.143,0.219,0.143,0.357s-0.048,0.256-0.143,0.351
					c-0.096,0.095-0.213,0.144-0.351,0.144C546.829,200.744,546.716,200.695,546.621,200.601z M546.621,204.877
					c-0.095-0.095-0.143-0.212-0.143-0.351s0.048-0.258,0.143-0.357c0.096-0.1,0.208-0.149,0.339-0.149
					c0.138,0,0.255,0.05,0.351,0.149c0.095,0.1,0.143,0.219,0.143,0.357s-0.048,0.256-0.143,0.351
					c-0.096,0.096-0.213,0.144-0.351,0.144C546.829,205.021,546.716,204.973,546.621,204.877z"/>
				<path fill="#222429" d="M554.902,196.531v0.598c-0.173-0.095-0.368-0.143-0.585-0.143c-0.312,0-0.565,0.111-0.761,0.332
					c-0.194,0.221-0.292,0.525-0.292,0.916v0.975h1.352v0.56h-1.352v5.213h-0.637v-5.213h-0.937v-0.56h0.937v-1.039
					c0-0.521,0.15-0.943,0.454-1.268c0.304-0.325,0.693-0.488,1.171-0.488C554.486,196.414,554.702,196.453,554.902,196.531z"/>
				<path fill="#222429" d="M559.881,204.981h-0.624v-0.546c-0.139,0.164-0.355,0.312-0.649,0.441
					c-0.295,0.131-0.611,0.195-0.949,0.195c-0.607,0-1.114-0.162-1.521-0.487s-0.611-0.756-0.611-1.294
					c0-0.52,0.209-0.944,0.625-1.273c0.416-0.33,0.927-0.494,1.533-0.494c0.312,0,0.615,0.062,0.91,0.188s0.516,0.267,0.663,0.423
					v-1.027c0-0.434-0.128-0.782-0.384-1.047c-0.256-0.264-0.609-0.396-1.059-0.396c-0.721,0-1.188,0.33-1.404,0.988h-0.637
					c0.111-0.485,0.353-0.866,0.721-1.145c0.368-0.277,0.809-0.416,1.32-0.416c0.641,0,1.146,0.181,1.514,0.54
					c0.368,0.36,0.553,0.843,0.553,1.45V204.981z M559.257,203.668v-0.74c-0.096-0.252-0.288-0.457-0.579-0.617
					c-0.29-0.16-0.608-0.241-0.955-0.241c-0.441,0-0.816,0.106-1.125,0.319c-0.307,0.212-0.461,0.513-0.461,0.902
					c0,0.391,0.154,0.693,0.461,0.91c0.309,0.217,0.684,0.325,1.125,0.325c0.347,0,0.665-0.08,0.955-0.24
					C558.969,204.125,559.162,203.92,559.257,203.668z"/>
				<path fill="#222429" d="M562.637,196.531v8.45h-0.65v-8.45H562.637z"/>
				<path fill="#222429" d="M564.275,203.486h0.649c0.234,0.702,0.771,1.053,1.612,1.053c0.416,0,0.754-0.091,1.015-0.272
					c0.26-0.183,0.39-0.446,0.39-0.793c0-0.485-0.355-0.827-1.065-1.027l-1.08-0.299c-0.91-0.243-1.365-0.728-1.365-1.456
					c0-0.485,0.188-0.873,0.56-1.164c0.372-0.289,0.837-0.436,1.392-0.436c0.589,0,1.067,0.139,1.436,0.416
					c0.369,0.278,0.605,0.664,0.709,1.158h-0.637c-0.227-0.677-0.729-1.015-1.508-1.015c-0.382,0-0.698,0.089-0.949,0.267
					c-0.252,0.178-0.377,0.427-0.377,0.748c0,0.26,0.08,0.455,0.24,0.584c0.16,0.131,0.427,0.248,0.799,0.352l1.027,0.285
					c0.963,0.252,1.443,0.776,1.443,1.574c0,0.511-0.191,0.912-0.572,1.202s-0.871,0.436-1.469,0.436
					c-0.59,0-1.09-0.144-1.502-0.429C564.61,204.383,564.362,203.989,564.275,203.486z"/>
				<path fill="#222429" d="M574.077,203.305h0.624c-0.112,0.546-0.366,0.981-0.76,1.307c-0.395,0.324-0.887,0.487-1.476,0.487
					c-0.763,0-1.381-0.277-1.854-0.832c-0.472-0.555-0.708-1.278-0.708-2.171c0-0.875,0.231-1.595,0.696-2.158
					c0.463-0.563,1.081-0.846,1.852-0.846c0.745,0,1.322,0.259,1.729,0.773c0.407,0.517,0.61,1.199,0.61,2.049v0.233h-4.25
					c0.008,0.728,0.189,1.307,0.545,1.735c0.355,0.43,0.815,0.644,1.379,0.644c0.407,0,0.756-0.108,1.046-0.325
					S573.991,203.686,574.077,203.305z M572.452,199.664c-0.52,0-0.946,0.178-1.28,0.533c-0.333,0.355-0.535,0.836-0.604,1.443
					h3.575c-0.018-0.555-0.169-1.023-0.455-1.404S572.989,199.664,572.452,199.664z"/>
				<path fill="#696B6E" d="M581.174,204.903v-2.69c0-0.382,0.173-0.686,0.52-0.91c-0.347-0.209-0.52-0.512-0.52-0.91v-2.691
					c0-0.39-0.183-0.585-0.546-0.585h-1.47v-0.585h1.456c0.347,0,0.631,0.113,0.852,0.338c0.222,0.226,0.332,0.516,0.332,0.871
					v2.678c0,0.391,0.182,0.586,0.546,0.586h0.546v0.598h-0.546c-0.364,0-0.546,0.195-0.546,0.585v2.678
					c0,0.355-0.11,0.646-0.332,0.871c-0.221,0.226-0.505,0.338-0.852,0.338h-1.456v-0.585h1.47
					C580.992,205.488,581.174,205.293,581.174,204.903z"/>
			</g>
		</g>
		<g>
			<rect x="214.809" y="204.959" fill="#FFFFFF" width="160.868" height="33.527"/>
			<g>
				<path fill="#696B6E" d="M228.417,223.012v2.691c0,0.391,0.182,0.585,0.546,0.585h1.469v0.585h-1.456
					c-0.347,0-0.631-0.112-0.852-0.338c-0.221-0.226-0.332-0.516-0.332-0.871v-2.678c0-0.391-0.182-0.585-0.546-0.585h-0.546v-0.599
					h0.546c0.364,0,0.546-0.194,0.546-0.584v-2.679c0-0.354,0.11-0.646,0.332-0.87c0.221-0.227,0.505-0.339,0.852-0.339h1.456v0.585
					h-1.469c-0.364,0-0.546,0.195-0.546,0.586v2.69c0,0.398-0.173,0.702-0.52,0.909
					C228.244,222.328,228.417,222.631,228.417,223.012z"/>
				<path fill="#696B6E" d="M239.213,220.725c0.472,0.555,0.708,1.278,0.708,2.17c0,0.894-0.236,1.617-0.708,2.172
					c-0.473,0.555-1.09,0.832-1.853,0.832c-0.763,0-1.378-0.277-1.846-0.832s-0.702-1.278-0.702-2.172
					c0-0.892,0.234-1.615,0.702-2.17s1.083-0.832,1.846-0.832C238.123,219.893,238.741,220.17,239.213,220.725z M238.751,224.656
					c0.347-0.445,0.52-1.033,0.52-1.762c0-0.727-0.173-1.314-0.52-1.761s-0.81-0.669-1.391-0.669c-0.572,0-1.032,0.223-1.378,0.669
					s-0.52,1.034-0.52,1.761c0,0.729,0.173,1.316,0.52,1.762c0.347,0.447,0.806,0.67,1.378,0.67
					C237.941,225.326,238.405,225.104,238.751,224.656z"/>
				<path fill="#696B6E" d="M242.327,224.924v3.067h-0.65v-7.981h0.65v0.857c0.173-0.269,0.422-0.498,0.747-0.689
					c0.325-0.189,0.674-0.285,1.047-0.285c0.806,0,1.428,0.288,1.865,0.864s0.657,1.289,0.657,2.138c0,0.85-0.219,1.562-0.657,2.139
					c-0.438,0.577-1.06,0.865-1.865,0.865c-0.373,0-0.722-0.096-1.047-0.286C242.75,225.422,242.5,225.191,242.327,224.924z
					 M242.327,221.635v2.521c0.398,0.763,0.975,1.145,1.729,1.145c0.598,0,1.07-0.224,1.417-0.67c0.346-0.446,0.52-1.025,0.52-1.736
					c0-0.71-0.173-1.288-0.52-1.734c-0.347-0.447-0.819-0.67-1.417-0.67C243.302,220.49,242.726,220.871,242.327,221.635z"/>
				<path fill="#696B6E" d="M252.155,224.104h0.624c-0.113,0.546-0.366,0.981-0.761,1.306c-0.395,0.326-0.886,0.488-1.476,0.488
					c-0.763,0-1.38-0.277-1.853-0.832c-0.472-0.555-0.708-1.278-0.708-2.172c0-0.875,0.232-1.594,0.696-2.157
					c0.463-0.563,1.081-0.845,1.853-0.845c0.745,0,1.321,0.258,1.729,0.773c0.407,0.516,0.611,1.197,0.611,2.047v0.234h-4.251
					c0.008,0.729,0.19,1.307,0.546,1.735s0.814,0.644,1.378,0.644c0.407,0,0.756-0.108,1.046-0.324
					C251.879,224.785,252.068,224.486,252.155,224.104z M250.53,220.465c-0.52,0-0.947,0.178-1.281,0.532
					c-0.333,0.355-0.535,0.837-0.604,1.443h3.575c-0.018-0.555-0.169-1.022-0.455-1.404S251.067,220.465,250.53,220.465z"/>
				<path fill="#696B6E" d="M254.611,225.781v-5.771h0.65v0.922c0.19-0.294,0.448-0.541,0.773-0.74
					c0.325-0.199,0.682-0.299,1.072-0.299c0.641,0,1.135,0.188,1.482,0.564c0.347,0.378,0.52,0.879,0.52,1.502v3.822h-0.637v-3.73
					c0-0.469-0.124-0.846-0.371-1.131c-0.247-0.287-0.618-0.43-1.112-0.43c-0.381,0-0.728,0.117-1.04,0.352
					c-0.312,0.233-0.542,0.532-0.689,0.896v4.043H254.611z"/>
				<path fill="#696B6E" d="M260.864,221.4c-0.095-0.096-0.143-0.213-0.143-0.352s0.047-0.258,0.143-0.357
					c0.096-0.1,0.208-0.148,0.338-0.148c0.138,0,0.255,0.049,0.351,0.148c0.095,0.1,0.143,0.219,0.143,0.357
					s-0.047,0.256-0.143,0.352c-0.096,0.096-0.213,0.143-0.351,0.143C261.072,221.543,260.96,221.496,260.864,221.4z
					 M260.864,225.678c-0.095-0.096-0.143-0.213-0.143-0.352s0.047-0.258,0.143-0.357c0.096-0.1,0.208-0.149,0.338-0.149
					c0.138,0,0.255,0.05,0.351,0.149c0.095,0.1,0.143,0.219,0.143,0.357s-0.047,0.256-0.143,0.352
					c-0.096,0.096-0.213,0.143-0.351,0.143C261.072,225.82,260.96,225.773,260.864,225.678z"/>
				<path fill="#222429" d="M269.146,217.331v0.599c-0.173-0.096-0.369-0.144-0.585-0.144c-0.312,0-0.565,0.11-0.761,0.331
					c-0.195,0.222-0.292,0.527-0.292,0.917v0.976h1.352v0.559h-1.352v5.213h-0.637v-5.213h-0.936v-0.559h0.936v-1.041
					c0-0.52,0.151-0.941,0.455-1.268c0.304-0.324,0.693-0.486,1.17-0.486C268.729,217.215,268.946,217.254,269.146,217.331z"/>
				<path fill="#222429" d="M274.125,225.781H273.5v-0.546c-0.139,0.165-0.355,0.312-0.65,0.442
					c-0.295,0.129-0.611,0.194-0.949,0.194c-0.607,0-1.114-0.162-1.521-0.487s-0.611-0.756-0.611-1.293
					c0-0.521,0.208-0.945,0.624-1.274s0.927-0.494,1.534-0.494c0.312,0,0.615,0.063,0.91,0.188c0.294,0.126,0.516,0.267,0.663,0.422
					v-1.026c0-0.433-0.128-0.782-0.384-1.046c-0.255-0.265-0.609-0.396-1.059-0.396c-0.72,0-1.188,0.329-1.404,0.987h-0.637
					c0.112-0.485,0.353-0.866,0.721-1.144s0.808-0.416,1.32-0.416c0.641,0,1.146,0.18,1.514,0.539s0.553,0.844,0.553,1.449V225.781z
					 M273.5,224.469v-0.742c-0.096-0.25-0.289-0.457-0.579-0.617c-0.291-0.16-0.609-0.24-0.956-0.24
					c-0.442,0-0.817,0.106-1.125,0.318c-0.308,0.213-0.461,0.514-0.461,0.904c0,0.39,0.154,0.693,0.461,0.91
					c0.308,0.216,0.683,0.324,1.125,0.324c0.347,0,0.665-0.08,0.956-0.24C273.212,224.926,273.405,224.72,273.5,224.469z"/>
				<path fill="#222429" d="M276.881,217.331v8.45h-0.65v-8.45H276.881z"/>
				<path fill="#222429" d="M278.519,224.286h0.65c0.234,0.702,0.771,1.054,1.612,1.054c0.416,0,0.754-0.092,1.014-0.273
					c0.26-0.182,0.39-0.446,0.39-0.793c0-0.485-0.355-0.828-1.066-1.027l-1.079-0.299c-0.91-0.242-1.365-0.729-1.365-1.456
					c0-0.485,0.187-0.873,0.559-1.163c0.373-0.291,0.836-0.436,1.391-0.436c0.589,0,1.068,0.139,1.437,0.416
					c0.368,0.277,0.604,0.662,0.708,1.156h-0.637c-0.226-0.676-0.728-1.014-1.508-1.014c-0.381,0-0.698,0.089-0.949,0.267
					s-0.377,0.427-0.377,0.747c0,0.26,0.08,0.455,0.241,0.586c0.16,0.129,0.427,0.246,0.799,0.351l1.027,0.286
					c0.962,0.251,1.443,0.775,1.443,1.572c0,0.512-0.191,0.912-0.572,1.203s-0.871,0.436-1.469,0.436c-0.59,0-1.09-0.143-1.501-0.43
					C278.854,225.184,278.605,224.789,278.519,224.286z"/>
				<path fill="#222429" d="M288.32,224.104h0.624c-0.113,0.546-0.366,0.981-0.761,1.306c-0.395,0.326-0.886,0.488-1.476,0.488
					c-0.763,0-1.38-0.277-1.853-0.832c-0.472-0.555-0.708-1.278-0.708-2.172c0-0.875,0.232-1.594,0.696-2.157
					c0.463-0.563,1.081-0.845,1.853-0.845c0.745,0,1.321,0.258,1.729,0.773c0.407,0.516,0.611,1.197,0.611,2.047v0.234h-4.251
					c0.008,0.729,0.19,1.307,0.546,1.735s0.814,0.644,1.378,0.644c0.407,0,0.756-0.108,1.046-0.324
					C288.045,224.785,288.233,224.486,288.32,224.104z M286.695,220.465c-0.52,0-0.947,0.178-1.281,0.532
					c-0.333,0.355-0.535,0.837-0.604,1.443h3.575c-0.018-0.555-0.169-1.022-0.455-1.404S287.232,220.465,286.695,220.465z"/>
				<path fill="#585A5E" d="M289.971,227.094l0.702-1.299c-0.26-0.053-0.39-0.209-0.39-0.469c0-0.139,0.045-0.256,0.136-0.352
					c0.091-0.095,0.206-0.143,0.345-0.143c0.147,0,0.266,0.048,0.357,0.143c0.091,0.096,0.136,0.222,0.136,0.377
					c0,0.156-0.065,0.348-0.195,0.572l-0.624,1.17H289.971z"/>
				<path fill="#585A5E" d="M296.783,217.331v8.45h-0.65v-8.45H296.783z"/>
				<path fill="#585A5E" d="M302.938,220.725c0.472,0.555,0.708,1.278,0.708,2.17c0,0.894-0.236,1.617-0.708,2.172
					c-0.473,0.555-1.09,0.832-1.853,0.832c-0.763,0-1.378-0.277-1.846-0.832s-0.702-1.278-0.702-2.172
					c0-0.892,0.234-1.615,0.702-2.17s1.083-0.832,1.846-0.832C301.848,219.893,302.466,220.17,302.938,220.725z M302.477,224.656
					c0.347-0.445,0.52-1.033,0.52-1.762c0-0.727-0.173-1.314-0.52-1.761s-0.81-0.669-1.391-0.669c-0.572,0-1.032,0.223-1.378,0.669
					s-0.52,1.034-0.52,1.761c0,0.729,0.173,1.316,0.52,1.762c0.347,0.447,0.806,0.67,1.378,0.67
					C301.667,225.326,302.13,225.104,302.477,224.656z"/>
				<path fill="#585A5E" d="M305.688,225.066c-0.468-0.555-0.702-1.278-0.702-2.172c0-0.892,0.234-1.615,0.702-2.17
					s1.083-0.832,1.846-0.832c0.598,0,1.089,0.162,1.475,0.487s0.631,0.761,0.735,1.306h-0.663c-0.087-0.381-0.265-0.678-0.533-0.89
					s-0.606-0.319-1.014-0.319c-0.563,0-1.021,0.222-1.372,0.664c-0.351,0.441-0.526,1.027-0.526,1.754
					c0,0.729,0.175,1.313,0.526,1.756c0.351,0.441,0.808,0.663,1.372,0.663c0.407,0,0.745-0.106,1.014-0.319
					c0.269-0.211,0.446-0.508,0.533-0.89h0.663c-0.104,0.546-0.349,0.981-0.735,1.306c-0.386,0.326-0.877,0.488-1.475,0.488
					C306.771,225.898,306.155,225.621,305.688,225.066z"/>
				<path fill="#585A5E" d="M315.333,225.781l-2.509-2.887l-0.702,0.65v2.236h-0.65v-8.45h0.65v5.46l3.055-2.781h0.858l-2.743,2.482
					l2.834,3.289H315.333z"/>
				<path fill="#585A5E" d="M321.352,224.104h0.624c-0.113,0.546-0.366,0.981-0.761,1.306c-0.395,0.326-0.886,0.488-1.476,0.488
					c-0.763,0-1.38-0.277-1.853-0.832c-0.472-0.555-0.708-1.278-0.708-2.172c0-0.875,0.232-1.594,0.696-2.157
					c0.463-0.563,1.081-0.845,1.853-0.845c0.745,0,1.321,0.258,1.729,0.773c0.407,0.516,0.611,1.197,0.611,2.047v0.234h-4.251
					c0.008,0.729,0.19,1.307,0.546,1.735s0.814,0.644,1.378,0.644c0.407,0,0.756-0.108,1.046-0.324
					C321.077,224.785,321.265,224.486,321.352,224.104z M319.727,220.465c-0.52,0-0.947,0.178-1.281,0.532
					c-0.333,0.355-0.535,0.837-0.604,1.443h3.575c-0.018-0.555-0.169-1.022-0.455-1.404S320.264,220.465,319.727,220.465z"/>
				<path fill="#585A5E" d="M327.709,225.781v-0.857c-0.174,0.268-0.423,0.498-0.748,0.688c-0.325,0.19-0.674,0.286-1.047,0.286
					c-0.814,0-1.438-0.288-1.872-0.865c-0.434-0.576-0.65-1.289-0.65-2.139c0-0.849,0.217-1.562,0.65-2.138
					c0.433-0.576,1.057-0.864,1.872-0.864c0.373,0,0.722,0.096,1.047,0.285c0.325,0.191,0.574,0.421,0.748,0.689v-3.536h0.637v8.45
					H327.709z M327.709,224.156v-2.521c-0.191-0.365-0.44-0.646-0.748-0.846c-0.308-0.199-0.64-0.299-0.995-0.299
					c-0.589,0-1.058,0.223-1.404,0.67c-0.347,0.446-0.52,1.024-0.52,1.734c0,0.711,0.173,1.29,0.52,1.736s0.815,0.67,1.404,0.67
					c0.355,0,0.687-0.1,0.995-0.299C327.269,224.802,327.518,224.52,327.709,224.156z"/>
				<path fill="#585A5E" d="M330.179,221.4c-0.095-0.096-0.143-0.213-0.143-0.352s0.047-0.258,0.143-0.357
					c0.096-0.1,0.208-0.148,0.338-0.148c0.138,0,0.255,0.049,0.351,0.148c0.095,0.1,0.143,0.219,0.143,0.357
					s-0.047,0.256-0.143,0.352c-0.096,0.096-0.213,0.143-0.351,0.143C330.387,221.543,330.274,221.496,330.179,221.4z
					 M330.179,225.678c-0.095-0.096-0.143-0.213-0.143-0.352s0.047-0.258,0.143-0.357c0.096-0.1,0.208-0.149,0.338-0.149
					c0.138,0,0.255,0.05,0.351,0.149c0.095,0.1,0.143,0.219,0.143,0.357s-0.047,0.256-0.143,0.352
					c-0.096,0.096-0.213,0.143-0.351,0.143C330.387,225.82,330.274,225.773,330.179,225.678z"/>
				<path fill="#222429" d="M336.146,224.442v-3.874h-0.975v-0.559h0.975v-1.482h0.637v1.482h1.495v0.559h-1.495v3.809
					c0,0.625,0.277,0.937,0.832,0.937c0.277,0,0.542-0.073,0.793-0.222v0.611c-0.243,0.13-0.528,0.195-0.858,0.195
					c-0.434,0-0.776-0.123-1.027-0.371C336.271,225.281,336.146,224.919,336.146,224.442z"/>
				<path fill="#222429" d="M342.789,219.971v0.637c-0.165-0.069-0.343-0.104-0.533-0.104c-0.347,0-0.654,0.112-0.923,0.338
					c-0.269,0.225-0.473,0.528-0.611,0.91v4.029h-0.65v-5.771h0.65v0.922c0.138-0.303,0.346-0.552,0.624-0.747
					c0.277-0.194,0.589-0.292,0.936-0.292C342.446,219.893,342.615,219.918,342.789,219.971z"/>
				<path fill="#222429" d="M348.717,220.01v5.771h-0.638v-0.923c-0.19,0.294-0.446,0.542-0.767,0.741
					c-0.32,0.199-0.676,0.299-1.066,0.299c-0.641,0-1.135-0.188-1.482-0.566c-0.347-0.377-0.52-0.877-0.52-1.501v-3.821h0.637v3.73
					c0,0.468,0.124,0.846,0.371,1.131c0.247,0.286,0.617,0.43,1.111,0.43c0.381,0,0.726-0.117,1.034-0.352
					c0.307-0.234,0.535-0.533,0.682-0.896v-4.043H348.717z"/>
				<path fill="#222429" d="M354.645,224.104h0.623c-0.111,0.546-0.365,0.981-0.76,1.306c-0.395,0.326-0.887,0.488-1.475,0.488
					c-0.764,0-1.381-0.277-1.854-0.832s-0.709-1.278-0.709-2.172c0-0.875,0.232-1.594,0.696-2.157s1.081-0.845,1.853-0.845
					c0.744,0,1.322,0.258,1.729,0.773c0.408,0.516,0.611,1.197,0.611,2.047v0.234h-4.251c0.009,0.729,0.19,1.307,0.546,1.735
					s0.814,0.644,1.379,0.644c0.406,0,0.756-0.108,1.045-0.324C354.37,224.785,354.559,224.486,354.645,224.104z M353.02,220.465
					c-0.52,0-0.947,0.178-1.281,0.532c-0.333,0.355-0.535,0.837-0.604,1.443h3.574c-0.018-0.555-0.168-1.022-0.455-1.404
					C353.969,220.654,353.557,220.465,353.02,220.465z"/>
				<path fill="#696B6E" d="M361.743,225.703v-2.691c0-0.381,0.172-0.684,0.52-0.91c-0.348-0.207-0.52-0.511-0.52-0.909v-2.69
					c0-0.391-0.184-0.586-0.547-0.586h-1.469v-0.585h1.455c0.348,0,0.631,0.112,0.852,0.339c0.223,0.225,0.332,0.516,0.332,0.87
					v2.679c0,0.39,0.182,0.584,0.547,0.584h0.545v0.599h-0.545c-0.365,0-0.547,0.194-0.547,0.585v2.678
					c0,0.355-0.109,0.646-0.332,0.871c-0.221,0.226-0.504,0.338-0.852,0.338h-1.455v-0.585h1.469
					C361.559,226.288,361.743,226.094,361.743,225.703z"/>
			</g>
		</g>
		<g>
			<rect x="434.242" y="243.758" fill="#FFFFFF" width="160.869" height="33.527"/>
			<g>
				<path fill="#696B6E" d="M446.354,261.811v2.69c0,0.39,0.182,0.585,0.546,0.585h1.47v0.585h-1.457
					c-0.346,0-0.631-0.112-0.852-0.338s-0.331-0.516-0.331-0.871v-2.678c0-0.39-0.183-0.585-0.546-0.585h-0.547v-0.598h0.547
					c0.363,0,0.546-0.195,0.546-0.586v-2.678c0-0.355,0.11-0.646,0.331-0.871c0.221-0.225,0.506-0.338,0.852-0.338h1.457v0.585
					h-1.47c-0.364,0-0.546,0.195-0.546,0.585v2.691c0,0.398-0.174,0.701-0.52,0.91C446.18,261.125,446.354,261.429,446.354,261.811z
					"/>
				<path fill="#696B6E" d="M457.151,259.521c0.472,0.555,0.708,1.279,0.708,2.172s-0.236,1.616-0.708,2.171
					c-0.473,0.555-1.091,0.832-1.854,0.832c-0.762,0-1.378-0.277-1.846-0.832s-0.702-1.278-0.702-2.171s0.234-1.617,0.702-2.172
					c0.468-0.554,1.084-0.832,1.846-0.832C456.06,258.689,456.678,258.968,457.151,259.521z M456.688,263.455
					c0.348-0.447,0.521-1.034,0.521-1.762c0-0.729-0.173-1.315-0.521-1.762c-0.346-0.446-0.81-0.67-1.391-0.67
					c-0.572,0-1.031,0.224-1.378,0.67s-0.52,1.033-0.52,1.762c0,0.728,0.173,1.314,0.52,1.762c0.347,0.445,0.806,0.669,1.378,0.669
					C455.878,264.124,456.342,263.9,456.688,263.455z"/>
				<path fill="#696B6E" d="M460.264,263.721v3.068h-0.65v-7.982h0.65v0.858c0.173-0.269,0.422-0.498,0.747-0.688
					c0.325-0.191,0.674-0.287,1.047-0.287c0.806,0,1.428,0.289,1.865,0.865s0.657,1.289,0.657,2.139s-0.22,1.562-0.657,2.139
					s-1.06,0.864-1.865,0.864c-0.373,0-0.722-0.096-1.047-0.286S460.437,263.99,460.264,263.721z M460.264,260.432v2.522
					c0.398,0.763,0.975,1.144,1.729,1.144c0.598,0,1.07-0.223,1.418-0.669c0.346-0.446,0.52-1.024,0.52-1.735
					s-0.174-1.289-0.52-1.736c-0.348-0.445-0.82-0.669-1.418-0.669C461.239,259.288,460.663,259.67,460.264,260.432z"/>
				<path fill="#696B6E" d="M470.092,262.902h0.623c-0.112,0.546-0.365,0.981-0.76,1.307c-0.395,0.324-0.887,0.487-1.477,0.487
					c-0.762,0-1.379-0.277-1.852-0.832s-0.709-1.278-0.709-2.171c0-0.875,0.232-1.595,0.695-2.158
					c0.464-0.563,1.082-0.846,1.854-0.846c0.744,0,1.32,0.259,1.729,0.773c0.407,0.517,0.611,1.199,0.611,2.049v0.233h-4.252
					c0.009,0.728,0.191,1.307,0.547,1.735c0.355,0.43,0.814,0.644,1.377,0.644c0.408,0,0.757-0.108,1.047-0.325
					C469.817,263.582,470.004,263.283,470.092,262.902z M468.467,259.262c-0.521,0-0.947,0.178-1.281,0.533
					s-0.535,0.836-0.604,1.443h3.575c-0.018-0.555-0.169-1.023-0.455-1.404S469.004,259.262,468.467,259.262z"/>
				<path fill="#696B6E" d="M472.548,264.579v-5.772h0.65v0.924c0.19-0.295,0.448-0.542,0.773-0.741s0.683-0.3,1.072-0.3
					c0.642,0,1.136,0.189,1.481,0.566c0.348,0.377,0.521,0.877,0.521,1.502v3.821h-0.637v-3.731c0-0.468-0.124-0.845-0.37-1.131
					c-0.248-0.285-0.618-0.429-1.112-0.429c-0.382,0-0.728,0.117-1.04,0.351c-0.312,0.234-0.541,0.533-0.688,0.897v4.043H472.548z"
					/>
				<path fill="#696B6E" d="M478.801,260.198c-0.096-0.095-0.143-0.212-0.143-0.351s0.047-0.258,0.143-0.357s0.208-0.15,0.338-0.15
					c0.139,0,0.256,0.051,0.352,0.15s0.143,0.219,0.143,0.357s-0.047,0.256-0.143,0.351s-0.213,0.144-0.352,0.144
					C479.009,260.342,478.897,260.293,478.801,260.198z M478.801,264.475c-0.096-0.095-0.143-0.212-0.143-0.351
					s0.047-0.258,0.143-0.357s0.208-0.149,0.338-0.149c0.139,0,0.256,0.05,0.352,0.149s0.143,0.219,0.143,0.357
					s-0.047,0.256-0.143,0.351c-0.096,0.096-0.213,0.144-0.352,0.144C479.009,264.618,478.897,264.57,478.801,264.475z"/>
				<path fill="#222429" d="M487.083,256.129v0.598c-0.174-0.095-0.369-0.143-0.585-0.143c-0.312,0-0.565,0.111-0.761,0.332
					s-0.293,0.525-0.293,0.916v0.975h1.353v0.56h-1.353v5.213h-0.637v-5.213h-0.936v-0.56h0.936v-1.039
					c0-0.521,0.152-0.943,0.455-1.268c0.304-0.325,0.693-0.488,1.17-0.488C486.667,256.012,486.883,256.051,487.083,256.129z"/>
				<path fill="#222429" d="M492.061,264.579h-0.623v-0.546c-0.139,0.164-0.355,0.312-0.65,0.441
					c-0.295,0.131-0.611,0.195-0.949,0.195c-0.607,0-1.113-0.162-1.521-0.487c-0.406-0.325-0.61-0.756-0.61-1.294
					c0-0.52,0.208-0.944,0.624-1.273c0.416-0.33,0.928-0.494,1.533-0.494c0.312,0,0.615,0.062,0.91,0.188s0.516,0.267,0.664,0.423
					v-1.027c0-0.434-0.129-0.782-0.385-1.047c-0.255-0.264-0.608-0.396-1.059-0.396c-0.72,0-1.188,0.33-1.404,0.988h-0.637
					c0.112-0.485,0.354-0.866,0.721-1.145c0.369-0.277,0.809-0.416,1.32-0.416c0.641,0,1.146,0.181,1.514,0.54
					c0.369,0.36,0.553,0.843,0.553,1.45V264.579z M491.438,263.266v-0.74c-0.096-0.252-0.289-0.457-0.579-0.617
					s-0.608-0.241-0.956-0.241c-0.441,0-0.816,0.106-1.124,0.319c-0.308,0.212-0.462,0.513-0.462,0.902
					c0,0.391,0.154,0.693,0.462,0.91s0.683,0.325,1.124,0.325c0.348,0,0.666-0.08,0.956-0.24
					C491.149,263.723,491.342,263.518,491.438,263.266z"/>
				<path fill="#222429" d="M494.818,256.129v8.45h-0.65v-8.45H494.818z"/>
				<path fill="#222429" d="M496.456,263.084h0.65c0.233,0.702,0.771,1.053,1.611,1.053c0.416,0,0.754-0.091,1.014-0.272
					c0.26-0.183,0.391-0.446,0.391-0.793c0-0.485-0.355-0.827-1.066-1.027l-1.078-0.299c-0.91-0.243-1.365-0.728-1.365-1.456
					c0-0.485,0.186-0.873,0.559-1.164c0.373-0.289,0.836-0.436,1.391-0.436c0.59,0,1.068,0.139,1.438,0.416
					c0.367,0.278,0.604,0.664,0.708,1.158h-0.638c-0.225-0.677-0.728-1.015-1.508-1.015c-0.381,0-0.697,0.089-0.949,0.267
					c-0.251,0.178-0.377,0.427-0.377,0.748c0,0.26,0.08,0.455,0.241,0.584c0.16,0.131,0.427,0.248,0.8,0.352l1.026,0.285
					c0.962,0.252,1.443,0.776,1.443,1.574c0,0.511-0.19,0.912-0.572,1.202s-0.871,0.436-1.469,0.436
					c-0.59,0-1.091-0.144-1.501-0.429C496.792,263.98,496.542,263.587,496.456,263.084z"/>
				<path fill="#222429" d="M506.257,262.902h0.624c-0.113,0.546-0.366,0.981-0.761,1.307c-0.395,0.324-0.886,0.487-1.476,0.487
					c-0.763,0-1.38-0.277-1.853-0.832c-0.472-0.555-0.708-1.278-0.708-2.171c0-0.875,0.231-1.595,0.695-2.158
					c0.463-0.563,1.081-0.846,1.853-0.846c0.745,0,1.321,0.259,1.729,0.773c0.406,0.517,0.61,1.199,0.61,2.049v0.233h-4.251
					c0.008,0.728,0.19,1.307,0.546,1.735c0.355,0.43,0.814,0.644,1.378,0.644c0.407,0,0.756-0.108,1.047-0.325
					C505.982,263.582,506.17,263.283,506.257,262.902z M504.632,259.262c-0.521,0-0.947,0.178-1.28,0.533
					c-0.334,0.355-0.535,0.836-0.605,1.443h3.576c-0.018-0.555-0.17-1.023-0.455-1.404
					C505.581,259.453,505.169,259.262,504.632,259.262z"/>
				<path fill="#585A5E" d="M507.909,265.893l0.701-1.301c-0.26-0.052-0.39-0.207-0.39-0.468c0-0.139,0.046-0.255,0.136-0.351
					c0.092-0.096,0.207-0.144,0.346-0.144c0.146,0,0.266,0.048,0.357,0.144c0.09,0.096,0.136,0.221,0.136,0.377
					s-0.065,0.347-0.194,0.572l-0.625,1.17H507.909z"/>
				<path fill="#585A5E" d="M514.72,256.129v8.45h-0.65v-8.45H514.72z"/>
				<path fill="#585A5E" d="M520.875,259.521c0.473,0.555,0.709,1.279,0.709,2.172s-0.236,1.616-0.709,2.171
					s-1.09,0.832-1.853,0.832s-1.378-0.277-1.847-0.832c-0.467-0.555-0.701-1.278-0.701-2.171s0.234-1.617,0.701-2.172
					c0.469-0.554,1.084-0.832,1.847-0.832S520.403,258.968,520.875,259.521z M520.414,263.455c0.347-0.447,0.521-1.034,0.521-1.762
					c0-0.729-0.174-1.315-0.521-1.762s-0.81-0.67-1.391-0.67c-0.572,0-1.032,0.224-1.378,0.67c-0.348,0.446-0.52,1.033-0.52,1.762
					c0,0.728,0.172,1.314,0.52,1.762c0.346,0.445,0.806,0.669,1.378,0.669C519.604,264.124,520.067,263.9,520.414,263.455z"/>
				<path fill="#585A5E" d="M523.625,263.864c-0.468-0.555-0.702-1.278-0.702-2.171s0.234-1.617,0.702-2.172
					c0.468-0.554,1.083-0.832,1.847-0.832c0.598,0,1.089,0.163,1.475,0.488c0.386,0.324,0.631,0.76,0.734,1.307h-0.662
					c-0.088-0.381-0.266-0.678-0.533-0.891c-0.27-0.213-0.607-0.318-1.014-0.318c-0.564,0-1.021,0.221-1.372,0.662
					c-0.351,0.442-0.526,1.027-0.526,1.756c0,0.728,0.176,1.312,0.526,1.755s0.808,0.663,1.372,0.663
					c0.406,0,0.744-0.106,1.014-0.318c0.268-0.213,0.445-0.51,0.533-0.891h0.662c-0.104,0.546-0.349,0.981-0.734,1.307
					c-0.386,0.324-0.877,0.487-1.475,0.487C524.708,264.696,524.092,264.419,523.625,263.864z"/>
				<path fill="#585A5E" d="M533.27,264.579l-2.509-2.886l-0.702,0.65v2.235h-0.65v-8.45h0.65v5.46l3.055-2.782h0.858l-2.743,2.483
					l2.834,3.289H533.27z"/>
				<path fill="#585A5E" d="M539.29,262.902h0.623c-0.112,0.546-0.365,0.981-0.76,1.307c-0.395,0.324-0.887,0.487-1.477,0.487
					c-0.762,0-1.379-0.277-1.852-0.832s-0.709-1.278-0.709-2.171c0-0.875,0.232-1.595,0.695-2.158
					c0.464-0.563,1.082-0.846,1.854-0.846c0.744,0,1.32,0.259,1.729,0.773c0.407,0.517,0.611,1.199,0.611,2.049v0.233h-4.252
					c0.009,0.728,0.191,1.307,0.547,1.735c0.355,0.43,0.814,0.644,1.377,0.644c0.408,0,0.757-0.108,1.047-0.325
					C539.014,263.582,539.202,263.283,539.29,262.902z M537.665,259.262c-0.521,0-0.947,0.178-1.281,0.533s-0.535,0.836-0.604,1.443
					h3.575c-0.018-0.555-0.169-1.023-0.455-1.404S538.202,259.262,537.665,259.262z"/>
				<path fill="#585A5E" d="M545.646,264.579v-0.858c-0.174,0.27-0.423,0.499-0.747,0.689c-0.326,0.19-0.675,0.286-1.047,0.286
					c-0.814,0-1.439-0.288-1.872-0.864c-0.434-0.576-0.65-1.289-0.65-2.139s0.217-1.562,0.65-2.139
					c0.433-0.576,1.058-0.865,1.872-0.865c0.372,0,0.721,0.096,1.047,0.287c0.324,0.19,0.573,0.42,0.747,0.688v-3.536h0.637v8.45
					H545.646z M545.646,262.954v-2.522c-0.19-0.363-0.44-0.645-0.747-0.845c-0.309-0.199-0.641-0.299-0.995-0.299
					c-0.589,0-1.058,0.224-1.404,0.669c-0.347,0.447-0.52,1.025-0.52,1.736s0.173,1.289,0.52,1.735s0.815,0.669,1.404,0.669
					c0.354,0,0.687-0.1,0.995-0.299C545.206,263.6,545.456,263.318,545.646,262.954z"/>
				<path fill="#585A5E" d="M548.116,260.198c-0.096-0.095-0.143-0.212-0.143-0.351s0.047-0.258,0.143-0.357s0.208-0.15,0.338-0.15
					c0.139,0,0.256,0.051,0.352,0.15s0.143,0.219,0.143,0.357s-0.047,0.256-0.143,0.351s-0.213,0.144-0.352,0.144
					C548.324,260.342,548.211,260.293,548.116,260.198z M548.116,264.475c-0.096-0.095-0.143-0.212-0.143-0.351
					s0.047-0.258,0.143-0.357s0.208-0.149,0.338-0.149c0.139,0,0.256,0.05,0.352,0.149s0.143,0.219,0.143,0.357
					s-0.047,0.256-0.143,0.351c-0.096,0.096-0.213,0.144-0.352,0.144C548.324,264.618,548.211,264.57,548.116,264.475z"/>
				<path fill="#222429" d="M556.397,256.129v0.598c-0.174-0.095-0.369-0.143-0.585-0.143c-0.312,0-0.565,0.111-0.761,0.332
					s-0.293,0.525-0.293,0.916v0.975h1.353v0.56h-1.353v5.213h-0.637v-5.213h-0.936v-0.56h0.936v-1.039
					c0-0.521,0.152-0.943,0.455-1.268c0.304-0.325,0.693-0.488,1.17-0.488C555.981,256.012,556.198,256.051,556.397,256.129z"/>
				<path fill="#222429" d="M561.375,264.579h-0.624v-0.546c-0.139,0.164-0.355,0.312-0.649,0.441
					c-0.295,0.131-0.611,0.195-0.949,0.195c-0.607,0-1.114-0.162-1.521-0.487s-0.611-0.756-0.611-1.294
					c0-0.52,0.209-0.944,0.625-1.273c0.416-0.33,0.927-0.494,1.533-0.494c0.312,0,0.615,0.062,0.91,0.188s0.516,0.267,0.663,0.423
					v-1.027c0-0.434-0.128-0.782-0.384-1.047c-0.256-0.264-0.609-0.396-1.059-0.396c-0.721,0-1.188,0.33-1.404,0.988h-0.637
					c0.111-0.485,0.353-0.866,0.721-1.145c0.368-0.277,0.809-0.416,1.32-0.416c0.641,0,1.146,0.181,1.514,0.54
					c0.368,0.36,0.553,0.843,0.553,1.45V264.579z M560.751,263.266v-0.74c-0.096-0.252-0.288-0.457-0.579-0.617
					c-0.29-0.16-0.608-0.241-0.955-0.241c-0.441,0-0.816,0.106-1.125,0.319c-0.307,0.212-0.461,0.513-0.461,0.902
					c0,0.391,0.154,0.693,0.461,0.91c0.309,0.217,0.684,0.325,1.125,0.325c0.347,0,0.665-0.08,0.955-0.24
					C560.463,263.723,560.656,263.518,560.751,263.266z"/>
				<path fill="#222429" d="M564.131,256.129v8.45h-0.65v-8.45H564.131z"/>
				<path fill="#222429" d="M565.77,263.084h0.649c0.233,0.702,0.771,1.053,1.612,1.053c0.416,0,0.754-0.091,1.014-0.272
					c0.26-0.183,0.391-0.446,0.391-0.793c0-0.485-0.355-0.827-1.066-1.027l-1.079-0.299c-0.91-0.243-1.365-0.728-1.365-1.456
					c0-0.485,0.187-0.873,0.56-1.164c0.372-0.289,0.836-0.436,1.391-0.436c0.59,0,1.068,0.139,1.437,0.416
					c0.368,0.278,0.604,0.664,0.708,1.158h-0.637c-0.226-0.677-0.729-1.015-1.508-1.015c-0.381,0-0.697,0.089-0.949,0.267
					s-0.377,0.427-0.377,0.748c0,0.26,0.08,0.455,0.24,0.584c0.16,0.131,0.428,0.248,0.8,0.352l1.026,0.285
					c0.963,0.252,1.443,0.776,1.443,1.574c0,0.511-0.19,0.912-0.572,1.202c-0.381,0.29-0.871,0.436-1.469,0.436
					c-0.59,0-1.09-0.144-1.501-0.429C566.105,263.98,565.856,263.587,565.77,263.084z"/>
				<path fill="#222429" d="M575.571,262.902h0.624c-0.112,0.546-0.366,0.981-0.76,1.307c-0.395,0.324-0.887,0.487-1.476,0.487
					c-0.763,0-1.381-0.277-1.853-0.832c-0.473-0.555-0.709-1.278-0.709-2.171c0-0.875,0.232-1.595,0.695-2.158
					c0.464-0.563,1.081-0.846,1.853-0.846c0.745,0,1.322,0.259,1.729,0.773c0.407,0.517,0.61,1.199,0.61,2.049v0.233h-4.251
					c0.009,0.728,0.191,1.307,0.547,1.735c0.354,0.43,0.814,0.644,1.378,0.644c0.407,0,0.756-0.108,1.046-0.325
					S575.485,263.283,575.571,262.902z M573.946,259.262c-0.52,0-0.946,0.178-1.28,0.533s-0.535,0.836-0.604,1.443h3.575
					c-0.018-0.555-0.169-1.023-0.455-1.404S574.483,259.262,573.946,259.262z"/>
				<path fill="#696B6E" d="M582.669,264.501v-2.69c0-0.382,0.173-0.686,0.52-0.91c-0.347-0.209-0.52-0.512-0.52-0.91v-2.691
					c0-0.39-0.183-0.585-0.546-0.585h-1.47v-0.585h1.456c0.347,0,0.631,0.113,0.852,0.338c0.222,0.226,0.332,0.516,0.332,0.871
					v2.678c0,0.391,0.182,0.586,0.546,0.586h0.546v0.598h-0.546c-0.364,0-0.546,0.195-0.546,0.585v2.678
					c0,0.355-0.11,0.646-0.332,0.871c-0.221,0.226-0.505,0.338-0.852,0.338h-1.456v-0.585h1.47
					C582.487,265.086,582.669,264.891,582.669,264.501z"/>
			</g>
		</g>
		<g>
			<g>
				<path fill="#585A5E" d="M52.874,204.72v-8.597h2.898c1.269,0,2.282,0.391,3.038,1.17c0.756,0.779,1.134,1.822,1.134,3.129
					s-0.378,2.35-1.134,3.129c-0.756,0.779-1.769,1.169-3.038,1.169H52.874z M54.33,203.418h1.386c0.887,0,1.57-0.266,2.051-0.799
					c0.48-0.531,0.721-1.264,0.721-2.197s-0.24-1.668-0.721-2.205c-0.481-0.537-1.165-0.805-2.051-0.805H54.33V203.418z"/>
				<path fill="#585A5E" d="M67.742,197.236c0.747,0.836,1.12,1.897,1.12,3.186s-0.374,2.35-1.12,3.186
					c-0.747,0.834-1.699,1.252-2.856,1.252c-1.158,0-2.107-0.418-2.849-1.252c-0.742-0.836-1.113-1.897-1.113-3.186
					s0.371-2.35,1.113-3.186c0.742-0.835,1.691-1.252,2.849-1.252C66.043,195.984,66.995,196.401,67.742,197.236z M66.699,202.676
					c0.462-0.588,0.693-1.34,0.693-2.254s-0.231-1.666-0.693-2.254s-1.066-0.883-1.813-0.883c-0.747,0-1.349,0.293-1.806,0.875
					c-0.458,0.584-0.686,1.338-0.686,2.262s0.229,1.678,0.686,2.261c0.457,0.583,1.059,0.875,1.806,0.875
					C65.632,203.558,66.237,203.264,66.699,202.676z"/>
				<path fill="#585A5E" d="M76.66,197.236c0.747,0.836,1.12,1.897,1.12,3.186s-0.374,2.35-1.12,3.186
					c-0.747,0.834-1.699,1.252-2.856,1.252c-1.158,0-2.107-0.418-2.849-1.252c-0.742-0.836-1.113-1.897-1.113-3.186
					s0.371-2.35,1.113-3.186c0.742-0.835,1.691-1.252,2.849-1.252C74.961,195.984,75.913,196.401,76.66,197.236z M75.617,202.676
					c0.462-0.588,0.693-1.34,0.693-2.254s-0.231-1.666-0.693-2.254s-1.066-0.883-1.813-0.883c-0.747,0-1.349,0.293-1.806,0.875
					c-0.458,0.584-0.686,1.338-0.686,2.262s0.229,1.678,0.686,2.261c0.457,0.583,1.059,0.875,1.806,0.875
					C74.55,203.558,75.155,203.264,75.617,202.676z"/>
				<path fill="#585A5E" d="M81.713,201.234h-1.036v3.485h-1.456v-8.597h3.318c0.905,0,1.619,0.223,2.142,0.666
					c0.522,0.443,0.784,1.08,0.784,1.91c0,0.71-0.194,1.272-0.581,1.688c-0.388,0.416-0.927,0.68-1.617,0.791l2.492,3.542h-1.652
					L81.713,201.234z M80.678,197.384v2.632h1.834c0.476,0,0.847-0.119,1.113-0.357c0.266-0.237,0.399-0.557,0.399-0.959
					c0-0.4-0.133-0.721-0.399-0.959c-0.266-0.237-0.637-0.356-1.113-0.356H80.678z"/>
				<path fill="#585A5E" d="M89.413,202.34h1.484c0.271,0.859,0.919,1.288,1.946,1.288c0.504,0,0.908-0.114,1.211-0.343
					s0.455-0.539,0.455-0.932c0-0.308-0.096-0.553-0.287-0.734c-0.191-0.183-0.511-0.324-0.959-0.428l-1.456-0.35
					c-1.428-0.336-2.142-1.105-2.142-2.311c0-0.736,0.273-1.346,0.819-1.826s1.248-0.721,2.107-0.721
					c0.905,0,1.636,0.212,2.191,0.637c0.555,0.424,0.912,1.006,1.071,1.742h-1.456c-0.271-0.765-0.868-1.147-1.792-1.147
					c-0.467,0-0.843,0.11-1.127,0.329c-0.285,0.219-0.427,0.506-0.427,0.861c0,0.568,0.378,0.942,1.134,1.119l1.498,0.35
					c0.7,0.16,1.246,0.439,1.638,0.841s0.588,0.915,0.588,1.54c0,0.793-0.285,1.426-0.854,1.896
					c-0.569,0.472-1.307,0.707-2.212,0.707c-0.915,0-1.678-0.221-2.289-0.664S89.562,203.133,89.413,202.34z"/>
				<path fill="#585A5E" d="M96.679,197.412v-1.289h7.168v1.289h-2.856v7.308h-1.456v-7.308H96.679z"/>
				<path fill="#585A5E" d="M107.011,196.123h1.4l3.304,8.597h-1.484l-0.882-2.38h-3.29l-0.882,2.38h-1.47L107.011,196.123z
					 M107.697,197.902l-1.176,3.178h2.352L107.697,197.902z"/>
				<path fill="#585A5E" d="M111.575,197.412v-1.289h7.168v1.289h-2.856v7.308h-1.456v-7.308H111.575z"/>
				<path fill="#585A5E" d="M120.115,196.123h5.614v1.289h-4.186v2.268h3.794v1.273h-3.794v2.465h4.186v1.302h-5.614V196.123z"/>
			</g>
		</g>
		<g>
			<g>
				
					<line fill="none" stroke="#585A5E" stroke-width="1.5" stroke-miterlimit="10" x1="130.08" y1="201.352" x2="169.265" y2="201.352"/>
				<g>
					<polygon fill="#585A5E" points="168.148,205.166 174.754,201.352 168.148,197.537 					"/>
				</g>
			</g>
		</g>
		<ellipse fill="none" stroke="#20B5AE" stroke-miterlimit="10" cx="517.828" cy="228.747" rx="113.245" ry="84.488"/>
		<g>
			<path fill="#20B5AE" d="M530.338,58.492h5.613v1.288h-4.186v2.269h3.794v1.273h-3.794v2.465h4.186v1.301h-5.613V58.492z"/>
			<path fill="#20B5AE" d="M542.323,67.088h-1.037l-2.365-5.978v5.978h-1.387v-8.596h1.666l2.618,6.608l2.591-6.608h1.623v8.596
				h-1.4V61.11L542.323,67.088z"/>
			<path fill="#20B5AE" d="M547.936,58.492h5.613v1.288h-4.186v2.269h3.794v1.273h-3.794v2.465h4.186v1.301h-5.613V58.492z"/>
			<path fill="#20B5AE" d="M557.624,63.603h-1.035v3.485h-1.457v-8.596h3.318c0.905,0,1.619,0.223,2.143,0.665
				c0.521,0.443,0.783,1.081,0.783,1.911c0,0.709-0.193,1.271-0.58,1.688c-0.389,0.415-0.928,0.679-1.617,0.791l2.492,3.541h-1.652
				L557.624,63.603z M556.588,59.752v2.633h1.834c0.475,0,0.846-0.119,1.112-0.357s0.399-0.558,0.399-0.959
				s-0.133-0.721-0.399-0.959s-0.638-0.357-1.112-0.357H556.588z"/>
			<path fill="#20B5AE" d="M568.754,63.896h-1.877V62.65h3.262v0.672c0,1.176-0.342,2.121-1.028,2.835s-1.562,1.071-2.625,1.071
				c-1.167,0-2.133-0.413-2.897-1.239c-0.766-0.825-1.148-1.892-1.148-3.198s0.38-2.373,1.141-3.199s1.711-1.239,2.85-1.239
				c0.961,0,1.747,0.252,2.358,0.756s1.001,1.194,1.169,2.071h-1.456c-0.187-0.494-0.44-0.869-0.763-1.127
				c-0.322-0.256-0.758-0.385-1.309-0.385c-0.756,0-1.365,0.292-1.828,0.875c-0.461,0.584-0.692,1.333-0.692,2.248
				c0,0.924,0.233,1.68,0.7,2.268s1.092,0.882,1.876,0.882c0.634,0,1.147-0.185,1.54-0.554
				C568.417,65.019,568.661,64.521,568.754,63.896z"/>
			<path fill="#20B5AE" d="M571.583,58.492h5.613v1.288h-4.186v2.269h3.793v1.273h-3.793v2.465h4.186v1.301h-5.613V58.492z"/>
			<path fill="#20B5AE" d="M585.694,58.492v8.596h-1.12l-4.396-6.258v6.258h-1.4v-8.596h1.372l4.144,5.965v-5.965H585.694z"/>
			<path fill="#20B5AE" d="M588.249,65.989c-0.742-0.825-1.113-1.892-1.113-3.198s0.371-2.373,1.113-3.199s1.673-1.239,2.793-1.239
				c0.952,0,1.73,0.255,2.338,0.763c0.607,0.509,0.994,1.202,1.162,2.079h-1.428c-0.373-1.017-1.064-1.526-2.072-1.526
				c-0.746,0-1.34,0.292-1.777,0.875c-0.439,0.584-0.658,1.333-0.658,2.248c0,0.914,0.219,1.663,0.658,2.246
				c0.438,0.584,1.031,0.875,1.777,0.875c1.008,0,1.699-0.513,2.072-1.539h1.428c-0.168,0.887-0.555,1.584-1.162,2.092
				c-0.607,0.51-1.386,0.764-2.338,0.764C589.921,67.229,588.991,66.815,588.249,65.989z"/>
			<path fill="#20B5AE" d="M598.727,62.342l2.268-3.85h1.541l-3.123,5.166v3.43h-1.441v-3.43l-3.107-5.166h1.582L598.727,62.342z"/>
			<path fill="#20B5AE" d="M606.792,67.088v-8.596h2.897c1.269,0,2.282,0.391,3.038,1.17s1.134,1.822,1.134,3.129
				s-0.378,2.35-1.134,3.129s-1.77,1.168-3.038,1.168H606.792z M608.247,65.787h1.387c0.887,0,1.57-0.267,2.051-0.799
				c0.48-0.531,0.721-1.265,0.721-2.197c0-0.934-0.24-1.669-0.721-2.205c-0.48-0.537-1.164-0.806-2.051-0.806h-1.387V65.787z"/>
			<path fill="#20B5AE" d="M621.659,59.605c0.746,0.836,1.12,1.896,1.12,3.186c0,1.287-0.374,2.35-1.12,3.185
				c-0.747,0.835-1.699,1.253-2.855,1.253c-1.158,0-2.107-0.418-2.85-1.253s-1.113-1.897-1.113-3.185
				c0-1.289,0.371-2.35,1.113-3.186s1.691-1.253,2.85-1.253C619.959,58.353,620.912,58.77,621.659,59.605z M620.616,65.045
				c0.462-0.588,0.693-1.34,0.693-2.254c0-0.915-0.231-1.666-0.693-2.254c-0.462-0.589-1.066-0.883-1.812-0.883
				c-0.748,0-1.35,0.292-1.807,0.875c-0.457,0.584-0.686,1.337-0.686,2.262c0,0.924,0.229,1.678,0.686,2.26
				c0.457,0.584,1.059,0.875,1.807,0.875C619.549,65.926,620.154,65.633,620.616,65.045z"/>
			<path fill="#20B5AE" d="M630.577,59.605c0.746,0.836,1.12,1.896,1.12,3.186c0,1.287-0.374,2.35-1.12,3.185
				c-0.747,0.835-1.699,1.253-2.855,1.253c-1.158,0-2.107-0.418-2.85-1.253s-1.113-1.897-1.113-3.185
				c0-1.289,0.371-2.35,1.113-3.186s1.691-1.253,2.85-1.253C628.877,58.353,629.83,58.77,630.577,59.605z M629.534,65.045
				c0.462-0.588,0.693-1.34,0.693-2.254c0-0.915-0.231-1.666-0.693-2.254c-0.462-0.589-1.066-0.883-1.812-0.883
				c-0.748,0-1.35,0.292-1.807,0.875c-0.457,0.584-0.686,1.337-0.686,2.262c0,0.924,0.229,1.678,0.686,2.26
				c0.457,0.584,1.059,0.875,1.807,0.875C628.467,65.926,629.072,65.633,629.534,65.045z"/>
			<path fill="#20B5AE" d="M635.63,63.603h-1.036v3.485h-1.455v-8.596h3.317c0.905,0,1.619,0.223,2.142,0.665
				c0.523,0.443,0.784,1.081,0.784,1.911c0,0.709-0.194,1.271-0.581,1.688c-0.387,0.415-0.926,0.679-1.617,0.791l2.492,3.541h-1.652
				L635.63,63.603z M634.594,59.752v2.633h1.834c0.477,0,0.848-0.119,1.113-0.357s0.398-0.558,0.398-0.959s-0.133-0.721-0.398-0.959
				s-0.637-0.357-1.113-0.357H634.594z"/>
			<path fill="#20B5AE" d="M643.331,64.709h1.484c0.27,0.858,0.918,1.287,1.945,1.287c0.504,0,0.908-0.113,1.211-0.343
				c0.303-0.229,0.455-0.539,0.455-0.931c0-0.309-0.096-0.553-0.287-0.735s-0.511-0.324-0.959-0.427l-1.456-0.35
				c-1.428-0.336-2.142-1.106-2.142-2.311c0-0.737,0.273-1.346,0.818-1.827c0.547-0.48,1.248-0.721,2.107-0.721
				c0.905,0,1.636,0.212,2.191,0.637c0.555,0.425,0.912,1.006,1.07,1.743h-1.455c-0.271-0.766-0.869-1.148-1.793-1.148
				c-0.467,0-0.842,0.11-1.127,0.33c-0.285,0.219-0.427,0.506-0.427,0.86c0,0.569,0.378,0.942,1.134,1.12l1.498,0.35
				c0.7,0.159,1.246,0.439,1.639,0.84c0.392,0.402,0.588,0.915,0.588,1.541c0,0.793-0.285,1.426-0.854,1.896
				s-1.307,0.707-2.212,0.707c-0.914,0-1.678-0.222-2.289-0.665S643.479,65.502,643.331,64.709z"/>
			<path fill="#20B5AE" d="M650.596,59.78v-1.288h7.168v1.288h-2.855v7.308h-1.456V59.78H650.596z"/>
			<path fill="#20B5AE" d="M660.928,58.492h1.4l3.305,8.596h-1.484l-0.883-2.379h-3.289l-0.883,2.379h-1.47L660.928,58.492z
				 M661.615,60.271l-1.176,3.178h2.352L661.615,60.271z"/>
			<path fill="#20B5AE" d="M665.493,59.78v-1.288h7.168v1.288h-2.856v7.308h-1.456V59.78H665.493z"/>
			<path fill="#20B5AE" d="M674.032,58.492h5.614v1.288h-4.187v2.269h3.795v1.273h-3.795v2.465h4.187v1.301h-5.614V58.492z"/>
		</g>
		<line fill="none" stroke="#20B5AE" stroke-miterlimit="10" x1="604.831" y1="72.595" x2="604.831" y2="172.743"/>
	</g>
</g>
</svg>
