<svg enable-background="new 0 0 599.968 317.839" height="317.839" viewBox="0 0 599.968 317.839" width="599.968" xmlns="http://www.w3.org/2000/svg"><path d="m.075.076h599.818v317.687h-599.818z" fill="none" stroke="#a6a8ab" stroke-miterlimit="10" stroke-width=".15"/><path d="m52.073 64.076h495.822v198h-495.822z" fill="#e6e6e6"/><g fill="#585a5e"><path d="m51.211 59.435v-8.596h2.898c1.269 0 2.282.39 3.038 1.169s1.134 1.822 1.134 3.129-.378 2.35-1.134 3.129-1.769 1.169-3.038 1.169zm1.456-1.302h1.386c.887 0 1.57-.266 2.051-.798.48-.532.721-1.265.721-2.198s-.24-1.668-.721-2.205-1.165-.805-2.051-.805h-1.386z"/><path d="m66.079 51.952c.747.835 1.12 1.897 1.12 3.185s-.374 2.35-1.12 3.185c-.747.835-1.699 1.253-2.856 1.253-1.158 0-2.107-.418-2.849-1.253s-1.113-1.897-1.113-3.185.371-2.35 1.113-3.185 1.691-1.253 2.849-1.253c1.157 0 2.109.418 2.856 1.253zm-1.043 5.439c.462-.588.693-1.339.693-2.254s-.231-1.666-.693-2.254-1.066-.882-1.813-.882-1.349.292-1.806.875c-.458.583-.686 1.337-.686 2.261s.229 1.678.686 2.261 1.059.875 1.806.875c.746 0 1.351-.294 1.813-.882z"/><path d="m74.997 51.952c.747.835 1.12 1.897 1.12 3.185s-.374 2.35-1.12 3.185c-.747.835-1.699 1.253-2.856 1.253-1.158 0-2.107-.418-2.849-1.253s-1.113-1.897-1.113-3.185.371-2.35 1.113-3.185 1.691-1.253 2.849-1.253c1.157 0 2.109.418 2.856 1.253zm-1.043 5.439c.462-.588.693-1.339.693-2.254s-.231-1.666-.693-2.254-1.066-.882-1.813-.882-1.349.292-1.806.875c-.458.583-.686 1.337-.686 2.261s.229 1.678.686 2.261 1.059.875 1.806.875c.746 0 1.351-.294 1.813-.882z"/><path d="m80.05 55.949h-1.036v3.486h-1.456v-8.596h3.318c.905 0 1.619.222 2.142.665.522.443.784 1.081.784 1.911 0 .709-.194 1.272-.581 1.687-.388.416-.927.679-1.617.791l2.492 3.542h-1.652zm-1.035-3.85v2.632h1.834c.476 0 .847-.119 1.113-.357s.399-.558.399-.959-.133-.721-.399-.959-.637-.357-1.113-.357z"/><path d="m87.75 57.055h1.484c.271.859.919 1.288 1.946 1.288.504 0 .908-.114 1.211-.343s.455-.539.455-.931c0-.308-.096-.553-.287-.735s-.511-.324-.959-.427l-1.456-.35c-1.428-.336-2.142-1.106-2.142-2.31 0-.737.273-1.346.819-1.827.546-.48 1.248-.721 2.107-.721.905 0 1.636.212 2.191.637s.912 1.006 1.071 1.743h-1.456c-.271-.765-.868-1.148-1.792-1.148-.467 0-.843.11-1.127.329-.285.219-.427.506-.427.861 0 .569.378.943 1.134 1.12l1.498.35c.7.159 1.246.439 1.638.84s.588.915.588 1.54c0 .793-.285 1.426-.854 1.897s-1.307.707-2.212.707c-.915 0-1.678-.222-2.289-.665s-.992-1.061-1.141-1.855z"/><path d="m95.016 52.127v-1.288h7.168v1.288h-2.856v7.308h-1.456v-7.308z"/><path d="m105.348 50.839h1.4l3.304 8.596h-1.484l-.882-2.38h-3.29l-.882 2.38h-1.47zm.686 1.778-1.176 3.178h2.352z"/><path d="m109.912 52.127v-1.288h7.168v1.288h-2.856v7.308h-1.456v-7.308z"/><path d="m118.452 50.839h5.614v1.288h-4.186v2.268h3.794v1.274h-3.794v2.464h4.186v1.302h-5.614z"/><path d="m452.258 107.675h.742c.168.514.467.905.896 1.176.43.271.943.406 1.541.406.635 0 1.15-.154 1.547-.462s.595-.728.595-1.26c0-.784-.495-1.316-1.483-1.596l-1.639-.462c-.653-.177-1.146-.427-1.477-.749-.332-.322-.498-.772-.498-1.351 0-.709.262-1.274.785-1.694.521-.42 1.166-.63 1.932-.63.812 0 1.475.194 1.988.581.513.388.857.913 1.035 1.575h-.714c-.354-1.008-1.124-1.512-2.31-1.512-.579 0-1.062.147-1.449.441s-.581.693-.581 1.197c0 .429.128.751.386.966.256.215.674.401 1.252.56l1.442.42c.7.196 1.214.474 1.54.833s.49.824.49 1.393c0 .737-.266 1.321-.799 1.75-.531.43-1.213.644-2.043.644-.803 0-1.492-.196-2.065-.588-.574-.392-.944-.938-1.113-1.638z"/><path d="m459.847 109.775v-9.1h.699v3.878c.205-.317.482-.583.833-.798.351-.214.735-.322 1.155-.322.69 0 1.223.203 1.596.609s.561.945.561 1.617v4.116h-.687v-4.018c0-.504-.133-.91-.399-1.218s-.664-.462-1.196-.462c-.411 0-.784.126-1.12.378s-.584.574-.742.966v4.354z"/><path d="m470.836 109.775h-.673v-.588c-.148.177-.383.336-.699.476-.317.14-.658.21-1.021.21-.654 0-1.2-.175-1.639-.525s-.658-.814-.658-1.393c0-.56.225-1.018.672-1.372.448-.354.999-.532 1.652-.532.336 0 .662.068.98.203.316.135.555.287.713.455v-1.106c0-.467-.137-.842-.412-1.127s-.656-.427-1.141-.427c-.775 0-1.279.355-1.513 1.064h-.687c.121-.522.381-.933.777-1.232.396-.298.871-.448 1.422-.448.689 0 1.233.194 1.631.581.396.388.595.908.595 1.561v4.2zm-.673-1.414v-.798c-.102-.271-.31-.492-.623-.665-.312-.173-.655-.259-1.028-.259-.476 0-.88.115-1.211.343-.331.229-.497.553-.497.973s.166.747.497.98.735.35 1.211.35c.373 0 .716-.086 1.028-.259.314-.172.522-.394.623-.665z"/><path d="m473.454 108.852v3.304h-.7v-8.596h.7v.924c.186-.289.455-.537.805-.742s.726-.308 1.127-.308c.868 0 1.537.31 2.009.931s.707 1.389.707 2.303-.235 1.682-.707 2.303-1.141.931-2.009.931c-.401 0-.777-.103-1.127-.308s-.619-.453-.805-.742zm0-3.542v2.716c.429.821 1.05 1.232 1.861 1.232.645 0 1.152-.24 1.526-.721.373-.481.56-1.104.56-1.869s-.187-1.388-.56-1.869c-.374-.48-.882-.721-1.526-.721-.811-.001-1.432.41-1.861 1.232z"/><path d="m483.688 107.969h.672c-.121.588-.395 1.057-.819 1.407s-.954.525-1.588.525c-.822 0-1.487-.298-1.996-.896-.508-.597-.763-1.376-.763-2.338 0-.943.249-1.717.749-2.324.499-.606 1.164-.91 1.995-.91.803 0 1.423.278 1.862.833.438.555.658 1.29.658 2.205v.252h-4.578c.009.784.205 1.407.588 1.869s.877.693 1.484.693c.438 0 .813-.116 1.127-.35.313-.233.516-.555.609-.966zm-1.75-3.92c-.56 0-1.021.191-1.379.574-.359.383-.577.901-.651 1.554h3.85c-.018-.597-.182-1.101-.489-1.512s-.752-.616-1.331-.616z"/><path d="m485.466 108.166h.699c.252.756.831 1.134 1.736 1.134.448 0 .812-.098 1.092-.294s.42-.48.42-.854c0-.522-.383-.891-1.147-1.106l-1.162-.322c-.979-.261-1.47-.784-1.47-1.568 0-.522.2-.94.602-1.253.401-.312.9-.469 1.498-.469.635 0 1.15.149 1.547.448.396.299.651.714.764 1.246h-.687c-.243-.728-.784-1.092-1.624-1.092-.41 0-.752.096-1.021.287-.271.191-.406.46-.406.805 0 .28.086.49.259.63s.46.266.86.378l1.106.308c1.036.271 1.554.835 1.554 1.694 0 .551-.205.982-.615 1.295-.411.312-.938.469-1.582.469-.635 0-1.174-.154-1.617-.462s-.713-.733-.806-1.274z"/></g><path d="m441.53 111.076h-81.486v7.74" fill="none" stroke="#585a5e" stroke-dasharray="2 2" stroke-miterlimit="10"/><path d="m357.501 118.072 2.543 4.404 2.543-4.404z" fill="#585a5e"/><path d="m441.53 103.076h-251.363v15.74" fill="none" stroke="#585a5e" stroke-dasharray="2 2" stroke-miterlimit="10"/><path d="m187.624 118.072 2.543 4.404 2.543-4.404z" fill="#585a5e"/><path d="m477.53 120.656v105.361h-287.363v-15.174" fill="none" stroke="#585a5e" stroke-dasharray="2 2" stroke-miterlimit="10"/><path d="m192.71 211.587-2.543-4.404-2.543 4.404z" fill="#585a5e"/><path d="m469.53 121.656v97.361h-109.486v-8.36" fill="none" stroke="#585a5e" stroke-dasharray="2 2" stroke-miterlimit="10"/><path d="m362.587 211.401-2.543-4.404-2.543 4.404z" fill="#585a5e"/><path d="m109.337 124.656h160.867v33.527h-160.867z" fill="#fff"/><path d="m124.439 142.706v2.691c0 .39.182.585.546.585h1.469v.585h-1.456c-.347 0-.631-.112-.852-.338s-.332-.516-.332-.871v-2.678c0-.39-.182-.585-.546-.585h-.546v-.598h.546c.364 0 .546-.195.546-.585v-2.678c0-.355.11-.646.332-.871.221-.226.505-.338.852-.338h1.456v.585h-1.469c-.364 0-.546.195-.546.585v2.691c0 .398-.173.702-.52.91.347.225.52.529.52.91z" fill="#696b6e"/><path d="m135.236 140.418c.472.555.708 1.279.708 2.171 0 .893-.236 1.617-.708 2.171-.473.555-1.09.832-1.853.832s-1.378-.277-1.846-.832-.702-1.278-.702-2.171c0-.892.234-1.616.702-2.171.468-.554 1.083-.832 1.846-.832s1.38.278 1.853.832zm-.462 3.933c.347-.446.52-1.034.52-1.762s-.173-1.315-.52-1.761-.81-.669-1.391-.669c-.572 0-1.032.223-1.378.669s-.52 1.034-.52 1.761c0 .728.173 1.315.52 1.762s.806.669 1.378.669c.581 0 1.044-.223 1.391-.669z" fill="#696b6e"/><path d="m138.35 144.617v3.068h-.65v-7.982h.65v.858c.173-.269.422-.498.747-.689.325-.19.674-.286 1.047-.286.806 0 1.428.289 1.865.865s.657 1.289.657 2.138c0 .85-.219 1.562-.657 2.139s-1.06.865-1.865.865c-.373 0-.722-.096-1.047-.286-.325-.191-.575-.421-.747-.69zm0-3.289v2.522c.398.763.975 1.144 1.729 1.144.598 0 1.07-.223 1.417-.669.346-.446.52-1.025.52-1.736 0-.71-.173-1.289-.52-1.735s-.819-.669-1.417-.669c-.755-.001-1.331.38-1.729 1.143z" fill="#696b6e"/><path d="m148.177 143.798h.624c-.113.546-.366.981-.761 1.306s-.886.488-1.476.488c-.763 0-1.38-.277-1.853-.832-.472-.555-.708-1.278-.708-2.171 0-.875.232-1.594.696-2.158.463-.563 1.081-.845 1.853-.845.745 0 1.321.258 1.729.773.407.516.611 1.198.611 2.048v.234h-4.251c.008.728.19 1.307.546 1.735.355.429.814.644 1.378.644.407 0 .756-.108 1.046-.325.291-.216.479-.515.566-.897zm-1.625-3.64c-.52 0-.947.178-1.281.533-.333.355-.535.836-.604 1.443h3.575c-.018-.555-.169-1.023-.455-1.404s-.698-.572-1.235-.572z" fill="#696b6e"/><path d="m150.634 145.475v-5.772h.65v.923c.19-.294.448-.542.773-.741s.682-.299 1.072-.299c.641 0 1.135.188 1.482.565s.52.878.52 1.502v3.822h-.637v-3.731c0-.468-.124-.845-.371-1.131s-.618-.429-1.112-.429c-.381 0-.728.117-1.04.351s-.542.533-.689.897v4.043z" fill="#696b6e"/><path d="m156.887 141.094c-.095-.095-.143-.212-.143-.351s.047-.258.143-.357c.096-.1.208-.149.338-.149.138 0 .255.05.351.149.095.1.143.219.143.357s-.047.256-.143.351-.213.143-.351.143c-.13 0-.243-.048-.338-.143zm0 4.277c-.095-.095-.143-.212-.143-.351s.047-.258.143-.357c.096-.1.208-.149.338-.149.138 0 .255.05.351.149.095.1.143.219.143.357s-.047.256-.143.351c-.096.096-.213.143-.351.143-.13 0-.243-.047-.338-.143z" fill="#696b6e"/><path d="m162.854 144.136v-3.874h-.975v-.559h.975v-1.482h.637v1.482h1.495v.559h-1.495v3.809c0 .624.277.936.832.936.277 0 .542-.074.793-.221v.611c-.243.13-.528.195-.858.195-.434 0-.776-.124-1.027-.371-.252-.246-.377-.608-.377-1.085z" fill="#222429"/><path d="m169.497 139.664v.637c-.165-.069-.343-.104-.533-.104-.347 0-.654.113-.923.338-.269.226-.473.529-.611.91v4.03h-.65v-5.772h.65v.923c.138-.303.346-.552.624-.748.277-.195.589-.292.936-.292.164 0 .333.026.507.078z" fill="#222429"/><path d="m175.424 139.703v5.772h-.637v-.923c-.19.294-.446.542-.767.741-.32.199-.676.299-1.066.299-.641 0-1.135-.188-1.482-.566-.347-.377-.52-.877-.52-1.501v-3.822h.637v3.731c0 .468.124.845.371 1.131s.617.429 1.111.429c.381 0 .726-.117 1.034-.351.307-.234.535-.533.682-.897v-4.043z" fill="#222429"/><path d="m181.353 143.798h.624c-.113.546-.366.981-.761 1.306s-.886.488-1.476.488c-.763 0-1.38-.277-1.853-.832-.472-.555-.708-1.278-.708-2.171 0-.875.232-1.594.696-2.158.463-.563 1.081-.845 1.853-.845.745 0 1.321.258 1.729.773.407.516.611 1.198.611 2.048v.234h-4.251c.008.728.19 1.307.546 1.735.355.429.814.644 1.378.644.407 0 .756-.108 1.046-.325.29-.216.479-.515.566-.897zm-1.625-3.64c-.52 0-.947.178-1.281.533-.333.355-.535.836-.604 1.443h3.575c-.018-.555-.169-1.023-.455-1.404s-.698-.572-1.235-.572z" fill="#222429"/><path d="m183.003 146.788.702-1.3c-.26-.052-.39-.208-.39-.468 0-.139.045-.255.136-.351.091-.095.206-.143.345-.143.147 0 .266.048.357.143.091.096.136.221.136.377s-.065.347-.195.572l-.624 1.17z" fill="#585a5e"/><path d="m189.815 137.025v8.45h-.65v-8.45z" fill="#585a5e"/><path d="m195.97 140.418c.472.555.708 1.279.708 2.171 0 .893-.236 1.617-.708 2.171-.473.555-1.09.832-1.853.832s-1.378-.277-1.846-.832-.702-1.278-.702-2.171c0-.892.234-1.616.702-2.171.468-.554 1.083-.832 1.846-.832s1.381.278 1.853.832zm-.462 3.933c.347-.446.52-1.034.52-1.762s-.173-1.315-.52-1.761-.81-.669-1.391-.669c-.572 0-1.032.223-1.378.669s-.52 1.034-.52 1.761c0 .728.173 1.315.52 1.762s.806.669 1.378.669c.581 0 1.045-.223 1.391-.669z" fill="#585a5e"/><path d="m198.72 144.76c-.468-.555-.702-1.278-.702-2.171 0-.892.234-1.616.702-2.171.468-.554 1.083-.832 1.846-.832.598 0 1.089.163 1.475.488s.631.76.735 1.306h-.663c-.087-.381-.265-.678-.533-.89s-.606-.319-1.014-.319c-.563 0-1.021.221-1.372.663s-.526 1.027-.526 1.755.175 1.313.526 1.755.808.663 1.372.663c.407 0 .745-.106 1.014-.319.269-.212.446-.509.533-.89h.663c-.104.546-.349.981-.735 1.306s-.877.488-1.475.488c-.763 0-1.378-.277-1.846-.832z" fill="#585a5e"/><path d="m208.366 145.475-2.509-2.886-.702.65v2.236h-.65v-8.45h.65v5.46l3.055-2.782h.858l-2.743 2.483 2.834 3.289z" fill="#585a5e"/><path d="m214.385 143.798h.624c-.113.546-.366.981-.761 1.306s-.886.488-1.476.488c-.763 0-1.38-.277-1.853-.832-.472-.555-.708-1.278-.708-2.171 0-.875.232-1.594.696-2.158.463-.563 1.081-.845 1.853-.845.745 0 1.321.258 1.729.773.407.516.611 1.198.611 2.048v.234h-4.251c.008.728.19 1.307.546 1.735.355.429.814.644 1.378.644.407 0 .756-.108 1.046-.325.29-.216.479-.515.566-.897zm-1.625-3.64c-.52 0-.947.178-1.281.533-.333.355-.535.836-.604 1.443h3.575c-.018-.555-.169-1.023-.455-1.404s-.698-.572-1.235-.572z" fill="#585a5e"/><path d="m220.742 145.475v-.858c-.174.269-.423.499-.748.689s-.674.286-1.047.286c-.814 0-1.438-.288-1.872-.865-.434-.576-.65-1.289-.65-2.139 0-.849.217-1.562.65-2.138s1.057-.865 1.872-.865c.373 0 .722.096 1.047.286.325.191.574.42.748.689v-3.536h.637v8.45h-.637zm0-1.625v-2.522c-.191-.364-.44-.646-.748-.845s-.64-.299-.995-.299c-.589 0-1.058.223-1.404.669-.347.447-.52 1.025-.52 1.735 0 .711.173 1.29.52 1.736s.815.669 1.404.669c.355 0 .687-.1.995-.299.307-.198.557-.48.748-.844z" fill="#585a5e"/><path d="m223.211 141.094c-.095-.095-.143-.212-.143-.351s.047-.258.143-.357c.096-.1.208-.149.338-.149.138 0 .255.05.351.149.095.1.143.219.143.357s-.047.256-.143.351-.213.143-.351.143c-.13 0-.242-.048-.338-.143zm0 4.277c-.095-.095-.143-.212-.143-.351s.047-.258.143-.357c.096-.1.208-.149.338-.149.138 0 .255.05.351.149.095.1.143.219.143.357s-.047.256-.143.351c-.096.096-.213.143-.351.143-.13 0-.242-.047-.338-.143z" fill="#585a5e"/><path d="m229.178 144.136v-3.874h-.975v-.559h.975v-1.482h.637v1.482h1.495v.559h-1.495v3.809c0 .624.277.936.832.936.277 0 .542-.074.793-.221v.611c-.243.13-.528.195-.858.195-.434 0-.776-.124-1.027-.371-.251-.246-.377-.608-.377-1.085z" fill="#222429"/><path d="m235.821 139.664v.637c-.165-.069-.343-.104-.533-.104-.347 0-.654.113-.923.338-.269.226-.473.529-.611.91v4.03h-.65v-5.772h.65v.923c.138-.303.346-.552.624-.748.277-.195.589-.292.936-.292.164 0 .333.026.507.078z" fill="#222429"/><path d="m241.749 139.703v5.772h-.637v-.923c-.19.294-.446.542-.767.741-.32.199-.676.299-1.066.299-.641 0-1.135-.188-1.482-.566-.347-.377-.52-.877-.52-1.501v-3.822h.637v3.731c0 .468.124.845.371 1.131s.617.429 1.111.429c.381 0 .726-.117 1.034-.351.307-.234.535-.533.682-.897v-4.043z" fill="#222429"/><path d="m247.676 143.798h.624c-.112.546-.366.981-.76 1.306-.395.325-.887.488-1.476.488-.763 0-1.38-.277-1.853-.832-.472-.555-.708-1.278-.708-2.171 0-.875.232-1.594.696-2.158.463-.563 1.081-.845 1.853-.845.745 0 1.322.258 1.729.773.407.516.61 1.198.61 2.048v.234h-4.25c.008.728.19 1.307.546 1.735.355.429.814.644 1.378.644.407 0 .756-.108 1.046-.325.29-.216.479-.515.565-.897zm-1.624-3.64c-.52 0-.947.178-1.281.533-.333.355-.535.836-.604 1.443h3.575c-.018-.555-.169-1.023-.455-1.404s-.698-.572-1.235-.572z" fill="#222429"/><path d="m254.775 145.397v-2.691c0-.381.173-.685.52-.91-.347-.208-.52-.511-.52-.91v-2.691c0-.39-.183-.585-.546-.585h-1.47v-.585h1.456c.347 0 .631.113.852.338.222.225.332.516.332.871v2.678c0 .39.182.585.546.585h.546v.598h-.546c-.364 0-.546.195-.546.585v2.678c0 .355-.11.646-.332.871-.221.226-.505.338-.852.338h-1.456v-.585h1.47c.363 0 .546-.195.546-.585z" fill="#696b6e"/><path d="m279.771 124.656h160.869v33.527h-160.869z" fill="#fff"/><path d="m293.379 142.706v2.691c0 .39.182.585.546.585h1.469v.585h-1.456c-.347 0-.631-.112-.852-.338s-.332-.516-.332-.871v-2.678c0-.39-.182-.585-.546-.585h-.546v-.598h.546c.364 0 .546-.195.546-.585v-2.678c0-.355.11-.646.332-.871.221-.226.505-.338.852-.338h1.456v.585h-1.469c-.364 0-.546.195-.546.585v2.691c0 .398-.173.702-.52.91.347.225.52.529.52.91z" fill="#696b6e"/><path d="m304.176 140.418c.472.555.708 1.279.708 2.171 0 .893-.236 1.617-.708 2.171-.473.555-1.091.832-1.853.832-.763 0-1.379-.277-1.846-.832-.469-.555-.703-1.278-.703-2.171 0-.892.234-1.616.703-2.171.467-.554 1.083-.832 1.846-.832.762 0 1.38.278 1.853.832zm-.462 3.933c.347-.446.52-1.034.52-1.762s-.173-1.315-.52-1.761-.811-.669-1.391-.669c-.572 0-1.031.223-1.379.669-.346.446-.52 1.034-.52 1.761 0 .728.174 1.315.52 1.762.348.446.807.669 1.379.669.58 0 1.044-.223 1.391-.669z" fill="#696b6e"/><path d="m307.29 144.617v3.068h-.65v-7.982h.65v.858c.172-.269.422-.498.746-.689.326-.19.674-.286 1.047-.286.807 0 1.428.289 1.865.865s.657 1.289.657 2.138c0 .85-.22 1.562-.657 2.139-.438.577-1.059.865-1.865.865-.373 0-.721-.096-1.047-.286-.324-.191-.574-.421-.746-.69zm0-3.289v2.522c.398.763.975 1.144 1.729 1.144.598 0 1.07-.223 1.417-.669s.52-1.025.52-1.736c0-.71-.173-1.289-.52-1.735s-.819-.669-1.417-.669c-.754-.001-1.331.38-1.729 1.143z" fill="#696b6e"/><path d="m317.117 143.798h.624c-.113.546-.366.981-.761 1.306s-.886.488-1.476.488c-.763 0-1.38-.277-1.853-.832-.472-.555-.708-1.278-.708-2.171 0-.875.231-1.594.695-2.158.463-.563 1.081-.845 1.853-.845.745 0 1.321.258 1.729.773.406.516.61 1.198.61 2.048v.234h-4.251c.008.728.19 1.307.546 1.735.355.429.814.644 1.378.644.407 0 .756-.108 1.047-.325.292-.216.48-.515.567-.897zm-1.625-3.64c-.521 0-.947.178-1.28.533-.334.355-.535.836-.605 1.443h3.576c-.018-.555-.17-1.023-.455-1.404-.288-.381-.699-.572-1.236-.572z" fill="#696b6e"/><path d="m319.573 145.475v-5.772h.65v.923c.191-.294.449-.542.773-.741.325-.199.683-.299 1.072-.299.642 0 1.136.188 1.482.565.347.377.52.878.52 1.502v3.822h-.637v-3.731c0-.468-.123-.845-.37-1.131s-.618-.429-1.112-.429c-.381 0-.727.117-1.039.351s-.542.533-.689.897v4.043z" fill="#696b6e"/><path d="m325.827 141.094c-.096-.095-.143-.212-.143-.351s.047-.258.143-.357.207-.149.338-.149c.139 0 .256.05.352.149.095.1.143.219.143.357s-.048.256-.143.351c-.096.095-.213.143-.352.143-.131 0-.242-.048-.338-.143zm0 4.277c-.096-.095-.143-.212-.143-.351s.047-.258.143-.357.207-.149.338-.149c.139 0 .256.05.352.149.095.1.143.219.143.357s-.048.256-.143.351c-.096.096-.213.143-.352.143-.131 0-.242-.047-.338-.143z" fill="#696b6e"/><path d="m331.794 144.136v-3.874h-.976v-.559h.976v-1.482h.637v1.482h1.494v.559h-1.494v3.809c0 .624.277.936.832.936.277 0 .541-.074.793-.221v.611c-.243.13-.529.195-.858.195-.434 0-.776-.124-1.026-.371-.253-.246-.378-.608-.378-1.085z" fill="#222429"/><path d="m338.437 139.664v.637c-.165-.069-.343-.104-.533-.104-.347 0-.654.113-.923.338-.269.226-.473.529-.61.91v4.03h-.65v-5.772h.65v.923c.138-.303.346-.552.623-.748.277-.195.59-.292.936-.292.164 0 .333.026.507.078z" fill="#222429"/><path d="m344.364 139.703v5.772h-.637v-.923c-.191.294-.447.542-.768.741s-.676.299-1.066.299c-.641 0-1.135-.188-1.481-.566-.347-.377-.521-.877-.521-1.501v-3.822h.638v3.731c0 .468.124.845.37 1.131.247.286.617.429 1.111.429.382 0 .727-.117 1.034-.351s.534-.533.683-.897v-4.043z" fill="#222429"/><path d="m350.292 143.798h.625c-.113.546-.367.981-.762 1.306s-.886.488-1.475.488c-.764 0-1.381-.277-1.854-.832-.472-.555-.708-1.278-.708-2.171 0-.875.231-1.594.696-2.158.463-.563 1.08-.845 1.852-.845.746 0 1.322.258 1.729.773.407.516.61 1.198.61 2.048v.234h-4.25c.008.728.189 1.307.545 1.735.355.429.814.644 1.379.644.406 0 .756-.108 1.046-.325.292-.216.481-.515.567-.897zm-1.625-3.64c-.52 0-.947.178-1.28.533s-.535.836-.604 1.443h3.575c-.018-.555-.169-1.023-.455-1.404s-.699-.572-1.236-.572z" fill="#222429"/><path d="m351.943 146.788.702-1.3c-.26-.052-.391-.208-.391-.468 0-.139.046-.255.137-.351.092-.095.206-.143.345-.143.147 0 .267.048.357.143.091.096.136.221.136.377s-.064.347-.194.572l-.624 1.17z" fill="#585a5e"/><path d="m358.755 137.025v8.45h-.65v-8.45z" fill="#585a5e"/><path d="m364.91 140.418c.472.555.708 1.279.708 2.171 0 .893-.236 1.617-.708 2.171-.473.555-1.091.832-1.853.832-.763 0-1.379-.277-1.846-.832-.469-.555-.703-1.278-.703-2.171 0-.892.234-1.616.703-2.171.467-.554 1.083-.832 1.846-.832.762 0 1.381.278 1.853.832zm-.462 3.933c.347-.446.52-1.034.52-1.762s-.173-1.315-.52-1.761-.811-.669-1.391-.669c-.572 0-1.031.223-1.379.669-.346.446-.52 1.034-.52 1.761 0 .728.174 1.315.52 1.762.348.446.807.669 1.379.669.581 0 1.045-.223 1.391-.669z" fill="#585a5e"/><path d="m367.659 144.76c-.467-.555-.701-1.278-.701-2.171 0-.892.234-1.616.701-2.171.469-.554 1.084-.832 1.847-.832.598 0 1.089.163 1.476.488.385.325.631.76.734 1.306h-.663c-.087-.381-.265-.678-.533-.89s-.606-.319-1.014-.319c-.563 0-1.021.221-1.372.663s-.525 1.027-.525 1.755.175 1.313.525 1.755c.352.442.809.663 1.372.663.407 0 .745-.106 1.014-.319.269-.212.446-.509.533-.89h.663c-.104.546-.35.981-.734 1.306-.387.325-.878.488-1.476.488-.763 0-1.378-.277-1.847-.832z" fill="#585a5e"/><path d="m377.306 145.475-2.51-2.886-.701.65v2.236h-.65v-8.45h.65v5.46l3.055-2.782h.857l-2.742 2.483 2.834 3.289z" fill="#585a5e"/><path d="m383.325 143.798h.623c-.112.546-.365.981-.76 1.306s-.887.488-1.477.488c-.762 0-1.379-.277-1.852-.832s-.709-1.278-.709-2.171c0-.875.232-1.594.695-2.158.464-.563 1.082-.845 1.854-.845.744 0 1.32.258 1.729.773.407.516.611 1.198.611 2.048v.234h-4.252c.009.728.191 1.307.547 1.735.355.429.814.644 1.377.644.408 0 .757-.108 1.047-.325.292-.216.479-.515.567-.897zm-1.625-3.64c-.521 0-.947.178-1.281.533s-.535.836-.604 1.443h3.575c-.018-.555-.169-1.023-.455-1.404s-.698-.572-1.235-.572z" fill="#585a5e"/><path d="m389.682 145.475v-.858c-.174.269-.423.499-.747.689-.326.19-.675.286-1.047.286-.814 0-1.439-.288-1.872-.865-.434-.576-.65-1.289-.65-2.139 0-.849.217-1.562.65-2.138s1.058-.865 1.872-.865c.372 0 .721.096 1.047.286.324.191.573.42.747.689v-3.536h.637v8.45h-.637zm0-1.625v-2.522c-.19-.364-.44-.646-.747-.845-.309-.199-.641-.299-.995-.299-.589 0-1.058.223-1.404.669-.347.447-.52 1.025-.52 1.735 0 .711.173 1.29.52 1.736s.815.669 1.404.669c.354 0 .687-.1.995-.299.306-.198.556-.48.747-.844z" fill="#585a5e"/><path d="m392.151 141.094c-.096-.095-.143-.212-.143-.351s.047-.258.143-.357.207-.149.338-.149c.139 0 .256.05.352.149.095.1.143.219.143.357s-.048.256-.143.351c-.096.095-.213.143-.352.143-.131 0-.242-.048-.338-.143zm0 4.277c-.096-.095-.143-.212-.143-.351s.047-.258.143-.357.207-.149.338-.149c.139 0 .256.05.352.149.095.1.143.219.143.357s-.048.256-.143.351c-.096.096-.213.143-.352.143-.131 0-.242-.047-.338-.143z" fill="#585a5e"/><path d="m400.433 137.025v.598c-.174-.095-.369-.143-.586-.143-.312 0-.564.111-.76.332-.195.221-.293.526-.293.917v.975h1.352v.559h-1.352v5.213h-.637v-5.213h-.936v-.559h.936v-1.04c0-.52.151-.942.455-1.268.303-.325.693-.487 1.17-.487.235-.001.45.038.651.116z" fill="#222429"/><path d="m405.411 145.475h-.624v-.546c-.139.165-.355.312-.649.442-.295.13-.611.195-.949.195-.607 0-1.114-.162-1.521-.487s-.611-.756-.611-1.293c0-.52.209-.945.625-1.274.416-.33.927-.494 1.533-.494.312 0 .615.063.91.188.295.126.516.267.663.422v-1.027c0-.433-.128-.782-.384-1.046s-.609-.396-1.059-.396c-.721 0-1.188.33-1.404.988h-.637c.111-.485.353-.866.721-1.144.368-.277.809-.416 1.32-.416.641 0 1.146.18 1.514.54s.553.843.553 1.45v3.898zm-.624-1.313v-.741c-.096-.251-.288-.457-.579-.617-.29-.16-.608-.241-.955-.241-.441 0-.816.106-1.125.319-.307.212-.461.513-.461.903s.154.693.461.91c.309.216.684.325 1.125.325.347 0 .665-.08.955-.24.291-.161.483-.366.579-.618z" fill="#222429"/><path d="m408.167 137.025v8.45h-.65v-8.45z" fill="#222429"/><path d="m409.805 143.98h.649c.234.702.771 1.053 1.612 1.053.416 0 .754-.091 1.015-.273.26-.182.39-.446.39-.793 0-.485-.355-.828-1.065-1.027l-1.08-.299c-.91-.243-1.365-.728-1.365-1.456 0-.485.188-.873.56-1.164.372-.29.837-.436 1.392-.436.589 0 1.067.139 1.436.416.369.278.605.663.709 1.157h-.637c-.227-.676-.729-1.014-1.508-1.014-.382 0-.698.089-.949.267-.252.178-.377.427-.377.748 0 .26.08.455.24.585s.427.247.799.351l1.027.286c.963.251 1.443.776 1.443 1.573 0 .511-.191.912-.572 1.203s-.871.436-1.469.436c-.59 0-1.09-.143-1.502-.429s-.661-.681-.748-1.184z" fill="#222429"/><path d="m419.606 143.798h.623c-.111.546-.365.981-.76 1.306s-.887.488-1.475.488c-.764 0-1.381-.277-1.854-.832s-.709-1.278-.709-2.171c0-.875.232-1.594.696-2.158s1.081-.845 1.853-.845c.744 0 1.322.258 1.729.773.408.516.611 1.198.611 2.048v.234h-4.251c.009.728.19 1.307.546 1.735.355.429.814.644 1.379.644.406 0 .756-.108 1.045-.325.292-.216.482-.515.567-.897zm-1.625-3.64c-.52 0-.947.178-1.281.533-.333.355-.535.836-.604 1.443h3.574c-.018-.555-.168-1.023-.455-1.404-.284-.381-.696-.572-1.234-.572z" fill="#222429"/><path d="m426.704 145.397v-2.691c0-.381.174-.685.52-.91-.346-.208-.52-.511-.52-.91v-2.691c0-.39-.182-.585-.545-.585h-1.471v-.585h1.457c.346 0 .631.113.852.338s.332.516.332.871v2.678c0 .39.182.585.545.585h.547v.598h-.547c-.363 0-.545.195-.545.585v2.678c0 .355-.111.646-.332.871s-.506.338-.852.338h-1.457v-.585h1.471c.363 0 .545-.195.545-.585z" fill="#696b6e"/><path d="m109.337 165.919h160.867v33.527h-160.867z" fill="#fff"/><path d="m122.945 183.97v2.691c0 .39.182.584.546.584h1.469v.586h-1.456c-.347 0-.631-.113-.852-.338-.221-.227-.332-.516-.332-.871v-2.678c0-.391-.182-.586-.546-.586h-.546v-.598h.546c.364 0 .546-.195.546-.585v-2.679c0-.354.11-.645.332-.87.221-.226.505-.339.852-.339h1.456v.586h-1.469c-.364 0-.546.195-.546.585v2.69c0 .398-.173.702-.52.91.346.227.52.531.52.912z" fill="#696b6e"/><path d="m133.741 181.682c.472.555.708 1.278.708 2.171s-.236 1.617-.708 2.172c-.473.555-1.09.832-1.853.832s-1.378-.277-1.846-.832-.702-1.279-.702-2.172.234-1.616.702-2.171c.468-.554 1.083-.832 1.846-.832s1.381.278 1.853.832zm-.462 3.932c.347-.446.52-1.033.52-1.762 0-.728-.173-1.314-.52-1.762-.347-.445-.81-.669-1.391-.669-.572 0-1.032.224-1.378.669-.347.447-.52 1.034-.52 1.762 0 .729.173 1.315.52 1.762s.806.67 1.378.67c.581 0 1.045-.223 1.391-.67z" fill="#696b6e"/><path d="m136.855 185.881v3.067h-.65v-7.981h.65v.858c.173-.27.422-.498.747-.689.325-.19.674-.286 1.047-.286.806 0 1.428.288 1.865.864s.657 1.289.657 2.139-.219 1.562-.657 2.139-1.06.865-1.865.865c-.373 0-.722-.096-1.047-.287-.325-.19-.574-.421-.747-.689zm0-3.289v2.522c.398.762.975 1.144 1.729 1.144.598 0 1.07-.224 1.417-.669.346-.447.52-1.025.52-1.736s-.173-1.289-.52-1.735-.819-.669-1.417-.669c-.754-.001-1.331.38-1.729 1.143z" fill="#696b6e"/><path d="m146.683 185.062h.624c-.113.547-.366.982-.761 1.307s-.886.488-1.476.488c-.763 0-1.38-.277-1.853-.832-.472-.555-.708-1.279-.708-2.172 0-.875.232-1.594.696-2.158.463-.562 1.081-.845 1.853-.845.745 0 1.321.259 1.729.773.407.517.611 1.198.611 2.048v.234h-4.251c.008.728.19 1.307.546 1.734.355.43.814.645 1.378.645.407 0 .756-.109 1.046-.325.29-.217.479-.516.566-.897zm-1.625-3.64c-.52 0-.947.178-1.281.532-.333.355-.535.837-.604 1.443h3.575c-.018-.555-.169-1.022-.455-1.404-.287-.381-.698-.571-1.235-.571z" fill="#696b6e"/><path d="m149.139 186.739v-5.772h.65v.923c.19-.295.448-.541.773-.74s.682-.3 1.072-.3c.641 0 1.135.188 1.482.565s.52.878.52 1.502v3.822h-.636v-3.731c0-.468-.124-.845-.371-1.131s-.618-.429-1.112-.429c-.381 0-.728.117-1.04.351s-.542.532-.689.897v4.043z" fill="#696b6e"/><path d="m155.392 182.358c-.095-.096-.143-.213-.143-.352s.047-.258.143-.357c.096-.1.208-.149.338-.149.138 0 .255.05.351.149.095.1.143.219.143.357s-.047.256-.143.352c-.096.095-.213.143-.351.143-.13 0-.242-.048-.338-.143zm0 4.277c-.095-.095-.143-.212-.143-.351s.047-.258.143-.357c.096-.1.208-.15.338-.15.138 0 .255.051.351.15.095.1.143.219.143.357s-.047.256-.143.351c-.096.096-.213.144-.351.144-.13-.001-.242-.049-.338-.144z" fill="#696b6e"/><path d="m163.673 178.288v.599c-.173-.095-.369-.144-.585-.144-.312 0-.565.111-.761.332-.195.221-.292.526-.292.916v.976h1.352v.56h-1.352v5.213h-.637v-5.213h-.936v-.56h.936v-1.04c0-.52.151-.942.455-1.268.304-.324.693-.487 1.17-.487.234 0 .45.039.65.116z" fill="#222429"/><path d="m168.652 186.739h-.624v-.547c-.139.165-.355.312-.65.442s-.611.194-.949.194c-.607 0-1.114-.162-1.521-.486-.407-.326-.611-.756-.611-1.294 0-.521.208-.944.624-1.274.416-.329.927-.494 1.534-.494.312 0 .615.063.91.189.294.125.516.266.663.422v-1.027c0-.433-.128-.781-.384-1.046-.255-.265-.609-.396-1.059-.396-.72 0-1.188.329-1.404.987h-.637c.112-.484.353-.865.721-1.144.368-.277.808-.416 1.32-.416.641 0 1.146.181 1.514.54s.553.843.553 1.449zm-.624-1.313v-.741c-.096-.251-.289-.457-.579-.617-.291-.16-.609-.24-.956-.24-.442 0-.817.105-1.125.318s-.461.514-.461.903.154.693.461.91c.308.216.683.325 1.125.325.347 0 .665-.08.956-.24.29-.161.483-.367.579-.618z" fill="#222429"/><path d="m171.408 178.288v8.451h-.65v-8.451z" fill="#222429"/><path d="m173.046 185.243h.65c.234.703.771 1.054 1.612 1.054.416 0 .754-.091 1.014-.272.26-.183.39-.447.39-.793 0-.486-.355-.828-1.066-1.027l-1.079-.299c-.91-.243-1.365-.729-1.365-1.457 0-.484.187-.873.559-1.163s.836-.436 1.391-.436c.589 0 1.068.139 1.437.416.368.278.604.663.708 1.157h-.637c-.226-.676-.728-1.014-1.508-1.014-.381 0-.698.088-.949.266s-.377.428-.377.748c0 .26.08.455.241.585.16.13.427.247.799.351l1.027.286c.962.251 1.443.776 1.443 1.573 0 .512-.191.912-.572 1.203-.381.29-.871.436-1.469.436-.59 0-1.09-.144-1.501-.43-.413-.286-.662-.68-.748-1.184z" fill="#222429"/><path d="m182.848 185.062h.624c-.113.547-.366.982-.761 1.307s-.886.488-1.476.488c-.763 0-1.38-.277-1.853-.832-.472-.555-.708-1.279-.708-2.172 0-.875.232-1.594.696-2.158.463-.562 1.081-.845 1.853-.845.745 0 1.321.259 1.729.773.407.517.611 1.198.611 2.048v.234h-4.251c.008.728.19 1.307.546 1.734.355.43.814.645 1.378.645.407 0 .756-.109 1.046-.325.29-.217.479-.516.566-.897zm-1.625-3.64c-.52 0-.947.178-1.281.532-.333.355-.535.837-.604 1.443h3.575c-.018-.555-.169-1.022-.455-1.404-.287-.381-.698-.571-1.235-.571z" fill="#222429"/><path d="m184.499 188.052.702-1.3c-.26-.052-.39-.208-.39-.468 0-.139.045-.256.136-.352s.206-.143.345-.143c.147 0 .266.047.357.143s.136.221.136.377-.065.348-.195.572l-.624 1.17h-.467z" fill="#585a5e"/><path d="m191.311 178.288v8.451h-.65v-8.451z" fill="#585a5e"/><path d="m197.466 181.682c.472.555.708 1.278.708 2.171s-.236 1.617-.708 2.172c-.473.555-1.09.832-1.853.832s-1.378-.277-1.846-.832-.702-1.279-.702-2.172.234-1.616.702-2.171c.468-.554 1.083-.832 1.846-.832.762 0 1.38.278 1.853.832zm-.462 3.932c.347-.446.52-1.033.52-1.762 0-.728-.173-1.314-.52-1.762-.347-.445-.81-.669-1.391-.669-.572 0-1.032.224-1.378.669-.347.447-.52 1.034-.52 1.762 0 .729.173 1.315.52 1.762s.806.67 1.378.67c.581 0 1.044-.223 1.391-.67z" fill="#585a5e"/><path d="m200.215 186.024c-.468-.555-.702-1.279-.702-2.172s.234-1.616.702-2.171c.468-.554 1.083-.832 1.846-.832.598 0 1.089.163 1.475.487.386.325.631.761.735 1.307h-.663c-.087-.381-.265-.678-.533-.891-.269-.212-.606-.318-1.014-.318-.563 0-1.021.221-1.372.663s-.526 1.027-.526 1.755c0 .729.175 1.312.526 1.756.351.441.808.662 1.372.662.407 0 .745-.105 1.014-.318.269-.212.446-.509.533-.891h.663c-.104.547-.349.982-.735 1.307s-.877.488-1.475.488c-.763 0-1.378-.277-1.846-.832z" fill="#585a5e"/><path d="m209.861 186.739-2.509-2.887-.702.65v2.236h-.65v-8.451h.65v5.461l3.055-2.782h.858l-2.743 2.483 2.834 3.289h-.793z" fill="#585a5e"/><path d="m215.88 185.062h.624c-.113.547-.366.982-.761 1.307s-.886.488-1.476.488c-.763 0-1.38-.277-1.853-.832-.472-.555-.708-1.279-.708-2.172 0-.875.232-1.594.696-2.158.463-.562 1.081-.845 1.853-.845.745 0 1.321.259 1.729.773.407.517.611 1.198.611 2.048v.234h-4.251c.008.728.19 1.307.546 1.734.355.43.814.645 1.378.645.407 0 .756-.109 1.046-.325.29-.217.479-.516.566-.897zm-1.625-3.64c-.52 0-.947.178-1.281.532-.333.355-.535.837-.604 1.443h3.575c-.018-.555-.169-1.022-.455-1.404-.286-.381-.698-.571-1.235-.571z" fill="#585a5e"/><path d="m222.237 186.739v-.858c-.174.269-.423.499-.748.688-.325.191-.674.287-1.047.287-.814 0-1.438-.289-1.872-.865s-.65-1.289-.65-2.139.217-1.562.65-2.139c.433-.576 1.057-.864 1.872-.864.373 0 .722.096 1.047.286.325.191.574.42.748.689v-3.537h.637v8.451h-.637zm0-1.625v-2.522c-.191-.364-.44-.646-.748-.845s-.64-.299-.995-.299c-.589 0-1.058.223-1.404.669s-.52 1.024-.52 1.735.173 1.289.52 1.736c.347.445.815.669 1.404.669.355 0 .687-.1.995-.299.307-.199.557-.48.748-.844z" fill="#585a5e"/><path d="m224.706 182.358c-.095-.096-.143-.213-.143-.352s.047-.258.143-.357c.096-.1.208-.149.338-.149.138 0 .255.05.351.149.095.1.143.219.143.357s-.047.256-.143.352c-.096.095-.213.143-.351.143-.13 0-.242-.048-.338-.143zm0 4.277c-.095-.095-.143-.212-.143-.351s.047-.258.143-.357c.096-.1.208-.15.338-.15.138 0 .255.051.351.15.095.1.143.219.143.357s-.047.256-.143.351c-.096.096-.213.144-.351.144-.13-.001-.242-.049-.338-.144z" fill="#585a5e"/><path d="m230.673 185.399v-3.873h-.975v-.56h.975v-1.481h.637v1.481h1.495v.56h-1.495v3.809c0 .624.277.936.832.936.277 0 .542-.073.793-.221v.611c-.243.129-.528.195-.858.195-.434 0-.776-.124-1.027-.371s-.377-.609-.377-1.086z" fill="#222429"/><path d="m237.316 180.928v.638c-.165-.07-.343-.104-.533-.104-.347 0-.654.112-.923.338s-.473.528-.611.91v4.03h-.65v-5.772h.65v.923c.138-.303.346-.553.624-.748.277-.194.589-.292.936-.292.165-.001.334.025.507.077z" fill="#222429"/><path d="m243.244 180.967v5.772h-.637v-.924c-.19.295-.446.542-.767.741-.32.199-.676.3-1.066.3-.641 0-1.135-.189-1.482-.566s-.52-.877-.52-1.502v-3.821h.637v3.731c0 .467.124.845.371 1.131.247.285.617.429 1.111.429.381 0 .726-.117 1.034-.351.307-.234.535-.533.682-.897v-4.043z" fill="#222429"/><path d="m249.171 185.062h.624c-.112.547-.366.982-.76 1.307-.395.325-.887.488-1.476.488-.764 0-1.38-.277-1.853-.832-.472-.555-.708-1.279-.708-2.172 0-.875.232-1.594.696-2.158.463-.562 1.081-.845 1.852-.845.745 0 1.322.259 1.729.773.407.517.61 1.198.61 2.048v.234h-4.25c.008.728.19 1.307.546 1.734.355.43.814.645 1.378.645.407 0 .756-.109 1.046-.325.291-.217.48-.516.566-.897zm-1.625-3.64c-.52 0-.947.178-1.28.532-.333.355-.535.837-.604 1.443h3.575c-.018-.555-.169-1.022-.455-1.404-.286-.381-.699-.571-1.236-.571z" fill="#222429"/><path d="m256.27 186.661v-2.691c0-.381.173-.685.52-.91-.347-.208-.52-.512-.52-.91v-2.69c0-.39-.183-.585-.546-.585h-1.47v-.586h1.456c.347 0 .631.113.852.339.222.226.332.516.332.87v2.679c0 .39.182.585.546.585h.546v.598h-.546c-.364 0-.546.195-.546.586v2.678c0 .355-.11.645-.332.871-.221.225-.505.338-.852.338h-1.456v-.586h1.47c.363-.002.546-.196.546-.586z" fill="#696b6e"/><path d="m279.771 165.919h160.869v33.527h-160.869z" fill="#fff"/><path d="m291.884 183.97v2.691c0 .39.182.584.546.584h1.469v.586h-1.456c-.347 0-.631-.113-.852-.338-.221-.227-.332-.516-.332-.871v-2.678c0-.391-.182-.586-.546-.586h-.546v-.598h.546c.364 0 .546-.195.546-.585v-2.679c0-.354.11-.645.332-.87.221-.226.505-.339.852-.339h1.456v.586h-1.469c-.364 0-.546.195-.546.585v2.69c0 .398-.173.702-.52.91.347.227.52.531.52.912z" fill="#696b6e"/><path d="m302.681 181.682c.473.555.709 1.278.709 2.171s-.236 1.617-.709 2.172-1.09.832-1.853.832-1.378-.277-1.847-.832c-.467-.555-.702-1.279-.702-2.172s.235-1.616.702-2.171c.469-.554 1.084-.832 1.847-.832s1.38.278 1.853.832zm-.462 3.932c.347-.446.521-1.033.521-1.762 0-.728-.174-1.314-.521-1.762-.347-.445-.81-.669-1.391-.669-.572 0-1.032.224-1.378.669-.348.447-.52 1.034-.52 1.762 0 .729.172 1.315.52 1.762.346.446.806.67 1.378.67.581 0 1.044-.223 1.391-.67z" fill="#696b6e"/><path d="m305.794 185.881v3.067h-.65v-7.981h.65v.858c.174-.27.423-.498.748-.689.324-.19.674-.286 1.047-.286.805 0 1.428.288 1.865.864s.656 1.289.656 2.139-.219 1.562-.656 2.139-1.061.865-1.865.865c-.373 0-.723-.096-1.047-.287-.325-.19-.574-.421-.748-.689zm0-3.289v2.522c.398.762.975 1.144 1.729 1.144.599 0 1.07-.224 1.418-.669.346-.447.52-1.025.52-1.736s-.174-1.289-.52-1.735c-.348-.446-.819-.669-1.418-.669-.754-.001-1.331.38-1.729 1.143z" fill="#696b6e"/><path d="m315.622 185.062h.624c-.112.547-.366.982-.761 1.307s-.887.488-1.476.488c-.763 0-1.38-.277-1.853-.832s-.709-1.279-.709-2.172c0-.875.232-1.594.696-2.158.464-.562 1.081-.845 1.853-.845.745 0 1.321.259 1.729.773.408.517.611 1.198.611 2.048v.234h-4.251c.009.728.19 1.307.546 1.734.355.43.814.645 1.378.645.407 0 .757-.109 1.046-.325.292-.217.48-.516.567-.897zm-1.625-3.64c-.52 0-.947.178-1.281.532-.333.355-.535.837-.604 1.443h3.574c-.018-.555-.168-1.022-.455-1.404-.285-.381-.697-.571-1.234-.571z" fill="#696b6e"/><path d="m318.079 186.739v-5.772h.65v.923c.189-.295.447-.541.773-.74.324-.199.682-.3 1.072-.3.641 0 1.135.188 1.481.565s.521.878.521 1.502v3.822h-.637v-3.731c0-.468-.124-.845-.371-1.131s-.617-.429-1.111-.429c-.382 0-.729.117-1.04.351s-.542.532-.688.897v4.043z" fill="#696b6e"/><path d="m324.331 182.358c-.095-.096-.143-.213-.143-.352s.048-.258.143-.357c.096-.1.209-.149.339-.149.138 0 .255.05.351.149s.143.219.143.357-.047.256-.143.352c-.096.095-.213.143-.351.143-.13 0-.243-.048-.339-.143zm0 4.277c-.095-.095-.143-.212-.143-.351s.048-.258.143-.357c.096-.1.209-.15.339-.15.138 0 .255.051.351.15s.143.219.143.357-.047.256-.143.351c-.096.096-.213.144-.351.144-.13-.001-.243-.049-.339-.144z" fill="#696b6e"/><path d="m332.612 178.288v.599c-.174-.095-.369-.144-.585-.144-.312 0-.565.111-.761.332s-.293.526-.293.916v.976h1.353v.56h-1.353v5.213h-.637v-5.213h-.936v-.56h.936v-1.04c0-.52.152-.942.455-1.268.304-.324.693-.487 1.17-.487.235 0 .452.039.651.116z" fill="#222429"/><path d="m337.591 186.739h-.623v-.547c-.139.165-.355.312-.65.442s-.611.194-.949.194c-.607 0-1.113-.162-1.521-.486-.406-.326-.61-.756-.61-1.294 0-.521.208-.944.624-1.274.416-.329.928-.494 1.533-.494.312 0 .615.063.91.189.295.125.516.266.664.422v-1.027c0-.433-.129-.781-.385-1.046-.255-.265-.608-.396-1.059-.396-.72 0-1.188.329-1.404.987h-.637c.112-.484.354-.865.721-1.144.369-.277.809-.416 1.32-.416.641 0 1.146.181 1.514.54.369.359.553.843.553 1.449v3.901zm-.623-1.313v-.741c-.096-.251-.289-.457-.579-.617s-.608-.24-.956-.24c-.441 0-.816.105-1.124.318s-.462.514-.462.903.154.693.462.91c.308.216.683.325 1.124.325.348 0 .666-.08.956-.24.29-.161.483-.367.579-.618z" fill="#222429"/><path d="m340.348 178.288v8.451h-.65v-8.451z" fill="#222429"/><path d="m341.985 185.243h.65c.233.703.771 1.054 1.611 1.054.416 0 .754-.091 1.014-.272.26-.183.391-.447.391-.793 0-.486-.355-.828-1.066-1.027l-1.078-.299c-.91-.243-1.365-.729-1.365-1.457 0-.484.186-.873.559-1.163s.836-.436 1.391-.436c.59 0 1.068.139 1.438.416.367.278.604.663.708 1.157h-.638c-.225-.676-.728-1.014-1.508-1.014-.381 0-.697.088-.949.266-.251.178-.377.428-.377.748 0 .26.08.455.241.585.16.13.427.247.8.351l1.026.286c.962.251 1.443.776 1.443 1.573 0 .512-.19.912-.572 1.203-.382.29-.871.436-1.469.436-.59 0-1.091-.144-1.501-.43-.413-.286-.663-.68-.749-1.184z" fill="#222429"/><path d="m351.787 185.062h.624c-.113.547-.366.982-.761 1.307s-.886.488-1.476.488c-.763 0-1.38-.277-1.853-.832-.472-.555-.708-1.279-.708-2.172 0-.875.231-1.594.695-2.158.463-.562 1.081-.845 1.853-.845.745 0 1.321.259 1.729.773.406.517.61 1.198.61 2.048v.234h-4.251c.008.728.19 1.307.546 1.734.355.43.814.645 1.378.645.407 0 .756-.109 1.047-.325.292-.217.48-.516.567-.897zm-1.625-3.64c-.521 0-.947.178-1.28.532-.334.355-.535.837-.605 1.443h3.576c-.018-.555-.17-1.022-.455-1.404-.288-.381-.699-.571-1.236-.571z" fill="#222429"/><path d="m353.438 188.052.701-1.3c-.26-.052-.39-.208-.39-.468 0-.139.046-.256.136-.352.092-.096.207-.143.346-.143.146 0 .266.047.357.143.09.096.136.221.136.377s-.065.348-.194.572l-.625 1.17h-.467z" fill="#585a5e"/><path d="m360.25 178.288v8.451h-.65v-8.451z" fill="#585a5e"/><path d="m366.405 181.682c.473.555.709 1.278.709 2.171s-.236 1.617-.709 2.172-1.09.832-1.853.832-1.378-.277-1.847-.832c-.467-.555-.701-1.279-.701-2.172s.234-1.616.701-2.171c.469-.554 1.084-.832 1.847-.832s1.381.278 1.853.832zm-.462 3.932c.347-.446.521-1.033.521-1.762 0-.728-.174-1.314-.521-1.762-.347-.445-.81-.669-1.391-.669-.572 0-1.032.224-1.378.669-.348.447-.52 1.034-.52 1.762 0 .729.172 1.315.52 1.762.346.446.806.67 1.378.67.582 0 1.045-.223 1.391-.67z" fill="#585a5e"/><path d="m369.154 186.024c-.468-.555-.702-1.279-.702-2.172s.234-1.616.702-2.171c.468-.554 1.083-.832 1.847-.832.598 0 1.089.163 1.475.487.386.325.631.761.734 1.307h-.662c-.088-.381-.266-.678-.533-.891-.27-.212-.607-.318-1.014-.318-.564 0-1.021.221-1.372.663s-.526 1.027-.526 1.755c0 .729.176 1.312.526 1.756.351.441.808.662 1.372.662.406 0 .744-.105 1.014-.318.268-.212.445-.509.533-.891h.662c-.104.547-.349.982-.734 1.307-.386.325-.877.488-1.475.488-.764 0-1.379-.277-1.847-.832z" fill="#585a5e"/><path d="m378.8 186.739-2.509-2.887-.702.65v2.236h-.65v-8.451h.65v5.461l3.055-2.782h.858l-2.743 2.483 2.834 3.289h-.793z" fill="#585a5e"/><path d="m384.819 185.062h.624c-.112.547-.366.982-.761 1.307s-.887.488-1.476.488c-.763 0-1.38-.277-1.853-.832s-.709-1.279-.709-2.172c0-.875.232-1.594.696-2.158.464-.562 1.081-.845 1.853-.845.745 0 1.321.259 1.729.773.408.517.611 1.198.611 2.048v.234h-4.251c.009.728.19 1.307.546 1.734.355.43.814.645 1.378.645.407 0 .757-.109 1.046-.325.292-.217.48-.516.567-.897zm-1.625-3.64c-.52 0-.947.178-1.281.532-.333.355-.535.837-.604 1.443h3.574c-.018-.555-.168-1.022-.455-1.404-.284-.381-.697-.571-1.234-.571z" fill="#585a5e"/><path d="m391.177 186.739v-.858c-.174.269-.424.499-.748.688-.325.191-.674.287-1.047.287-.814 0-1.438-.289-1.871-.865-.434-.576-.65-1.289-.65-2.139s.217-1.562.65-2.139c.433-.576 1.057-.864 1.871-.864.373 0 .722.096 1.047.286.324.191.574.42.748.689v-3.537h.637v8.451h-.637zm0-1.625v-2.522c-.191-.364-.441-.646-.748-.845-.309-.199-.64-.299-.994-.299-.59 0-1.059.223-1.404.669-.348.446-.52 1.024-.52 1.735s.172 1.289.52 1.736c.346.445.814.669 1.404.669.354 0 .686-.1.994-.299.306-.199.556-.48.748-.844z" fill="#585a5e"/><path d="m393.646 182.358c-.096-.096-.143-.213-.143-.352s.047-.258.143-.357.208-.149.338-.149c.139 0 .256.05.352.149s.143.219.143.357-.047.256-.143.352c-.096.095-.213.143-.352.143-.13 0-.243-.048-.338-.143zm0 4.277c-.096-.095-.143-.212-.143-.351s.047-.258.143-.357.208-.15.338-.15c.139 0 .256.051.352.15s.143.219.143.357-.047.256-.143.351c-.096.096-.213.144-.352.144-.13-.001-.243-.049-.338-.144z" fill="#585a5e"/><path d="m401.927 178.288v.599c-.174-.095-.369-.144-.585-.144-.312 0-.565.111-.761.332s-.293.526-.293.916v.976h1.353v.56h-1.353v5.213h-.637v-5.213h-.936v-.56h.936v-1.04c0-.52.152-.942.455-1.268.304-.324.693-.487 1.17-.487.235 0 .452.039.651.116z" fill="#222429"/><path d="m406.905 186.739h-.623v-.547c-.139.165-.355.312-.65.442s-.611.194-.949.194c-.607 0-1.113-.162-1.521-.486-.406-.326-.61-.756-.61-1.294 0-.521.208-.944.624-1.274.416-.329.928-.494 1.533-.494.312 0 .615.063.91.189.295.125.516.266.664.422v-1.027c0-.433-.129-.781-.385-1.046-.255-.265-.608-.396-1.059-.396-.72 0-1.188.329-1.404.987h-.637c.112-.484.354-.865.721-1.144.369-.277.809-.416 1.32-.416.641 0 1.146.181 1.514.54.369.359.553.843.553 1.449v3.901zm-.623-1.313v-.741c-.096-.251-.289-.457-.579-.617s-.608-.24-.956-.24c-.441 0-.816.105-1.124.318s-.462.514-.462.903.154.693.462.91c.308.216.683.325 1.124.325.348 0 .666-.08.956-.24.29-.161.484-.367.579-.618z" fill="#222429"/><path d="m409.661 178.288v8.451h-.65v-8.451z" fill="#222429"/><path d="m411.3 185.243h.649c.233.703.771 1.054 1.612 1.054.416 0 .754-.091 1.014-.272.26-.183.391-.447.391-.793 0-.486-.355-.828-1.066-1.027l-1.079-.299c-.91-.243-1.365-.729-1.365-1.457 0-.484.187-.873.56-1.163.372-.29.836-.436 1.391-.436.59 0 1.068.139 1.437.416.368.278.604.663.708 1.157h-.637c-.226-.676-.729-1.014-1.508-1.014-.381 0-.697.088-.949.266s-.377.428-.377.748c0 .26.08.455.24.585s.428.247.8.351l1.026.286c.963.251 1.443.776 1.443 1.573 0 .512-.19.912-.572 1.203-.381.29-.871.436-1.469.436-.59 0-1.09-.144-1.501-.43-.413-.286-.662-.68-.748-1.184z" fill="#222429"/><path d="m421.101 185.062h.625c-.113.547-.367.982-.76 1.307-.395.325-.887.488-1.477.488-.762 0-1.381-.277-1.852-.832-.473-.555-.71-1.279-.71-2.172 0-.875.231-1.594.696-2.158.463-.562 1.08-.845 1.852-.845.746 0 1.322.259 1.73.773.406.517.609 1.198.609 2.048v.234h-4.25c.008.728.191 1.307.547 1.734.354.43.814.645 1.377.645.408 0 .756-.109 1.047-.325.29-.217.48-.516.566-.897zm-1.625-3.64c-.52 0-.945.178-1.279.532-.334.355-.535.837-.605 1.443h3.576c-.018-.555-.17-1.022-.455-1.404-.288-.381-.7-.571-1.237-.571z" fill="#222429"/><path d="m428.198 186.661v-2.691c0-.381.174-.685.52-.91-.346-.208-.52-.512-.52-.91v-2.69c0-.39-.182-.585-.545-.585h-1.471v-.586h1.457c.346 0 .631.113.852.339s.332.516.332.87v2.679c0 .39.182.585.545.585h.547v.598h-.547c-.363 0-.545.195-.545.586v2.678c0 .355-.111.645-.332.871-.221.225-.506.338-.852.338h-1.457v-.586h1.471c.364-.002.545-.196.545-.586z" fill="#696b6e"/></svg>