<?xml version="1.0" encoding="utf-8"?>
<!-- Generator: Adobe Illustrator 16.0.0, SVG Export Plug-In . SVG Version: 6.00 Build 0)  -->
<!DOCTYPE svg PUBLIC "-//W3C//DTD SVG 1.1//EN" "http://www.w3.org/Graphics/SVG/1.1/DTD/svg11.dtd">
<svg version="1.1" xmlns="http://www.w3.org/2000/svg" xmlns:xlink="http://www.w3.org/1999/xlink" x="0px" y="0px"
	 width="580.471px" height="302.206px" viewBox="0 0 580.471 302.206" enable-background="new 0 0 580.471 302.206"
	 xml:space="preserve">
<g id="_x32__1_" display="none">
	<g display="inline">
		
			<rect x="-100.797" y="-62.24" fill="none" stroke="#A6A8AB" stroke-width="0.15" stroke-miterlimit="10" width="599.818" height="317.688"/>
		<rect x="-48.799" y="1.76" fill="#E6E6E6" width="495.822" height="198"/>
		
			<rect x="198.112" y="39.789" fill="none" stroke="#20B5AE" stroke-width="2" stroke-linecap="round" stroke-miterlimit="10" stroke-dasharray="2" width="212.744" height="119.549"/>
		<g>
			<text transform="matrix(1 0 0 1 -51.5225 -2.8809)" fill="#585A5E" font-family="'Calibre-Medium'" font-size="14">DOOR STATE</text>
		</g>
		<g>
			<g>
				<g>
					<rect x="8.465" y="62.34" fill="#FFFFFF" width="160.867" height="33.527"/>
					<text transform="matrix(1 0 0 1 21.5908 83.1592)"><tspan x="0" y="0" fill="#696B6E" font-family="'Calibre-Light'" font-size="13">{ open:</tspan><tspan x="36.01" y="0" fill="#585A5E" font-family="'Calibre-Light'" font-size="13"> </tspan><tspan x="39.207" y="0" fill="#222429" font-family="'Calibre-Light'" font-size="13">true</tspan><tspan x="60.424" y="0" fill="#585A5E" font-family="'Calibre-Light'" font-size="13">, locked: </tspan><tspan x="105.532" y="0" fill="#222429" font-family="'Calibre-Light'" font-size="13">true</tspan><tspan x="126.748" y="0" fill="#2F3136" font-family="'Calibre-Light'" font-size="13"> </tspan><tspan x="129.945" y="0" fill="#696B6E" font-family="'Calibre-Light'" font-size="13">}</tspan></text>
				</g>
				<g>
					<rect x="223.371" y="62.34" fill="#FFFFFF" width="160.869" height="33.527"/>
					<text transform="matrix(1 0 0 1 234.9775 83.1592)"><tspan x="0" y="0" fill="#696B6E" font-family="'Calibre-Light'" font-size="13">{ open:</tspan><tspan x="36.01" y="0" fill="#585A5E" font-family="'Calibre-Light'" font-size="13"> </tspan><tspan x="39.207" y="0" fill="#222429" font-family="'Calibre-Light'" font-size="13">true</tspan><tspan x="60.423" y="0" fill="#585A5E" font-family="'Calibre-Light'" font-size="13">, locked: </tspan><tspan x="105.531" y="0" fill="#222429" font-family="'Calibre-Light'" font-size="13">false</tspan><tspan x="129.789" y="0" fill="#2F3136" font-family="'Calibre-Light'" font-size="13"> </tspan><tspan x="132.986" y="0" fill="#696B6E" font-family="'Calibre-Light'" font-size="13">}</tspan></text>
				</g>
				<g>
					<rect x="8.465" y="103.604" fill="#FFFFFF" width="160.867" height="33.527"/>
					<text transform="matrix(1 0 0 1 20.0703 124.4229)"><tspan x="0" y="0" fill="#696B6E" font-family="'Calibre-Light'" font-size="13">{ open:</tspan><tspan x="36.009" y="0" fill="#585A5E" font-family="'Calibre-Light'" font-size="13"> </tspan><tspan x="39.207" y="0" fill="#222429" font-family="'Calibre-Light'" font-size="13">false</tspan><tspan x="63.464" y="0" fill="#585A5E" font-family="'Calibre-Light'" font-size="13">, locked: </tspan><tspan x="108.573" y="0" fill="#222429" font-family="'Calibre-Light'" font-size="13">true</tspan><tspan x="129.788" y="0" fill="#2F3136" font-family="'Calibre-Light'" font-size="13"> </tspan><tspan x="132.987" y="0" fill="#696B6E" font-family="'Calibre-Light'" font-size="13">}</tspan></text>
				</g>
				<g>
					<rect x="223.371" y="103.604" fill="#FFFFFF" width="160.869" height="33.527"/>
					<text transform="matrix(1 0 0 1 233.4561 124.4229)"><tspan x="0" y="0" fill="#696B6E" font-family="'Calibre-Light'" font-size="13">{ open:</tspan><tspan x="36.01" y="0" fill="#585A5E" font-family="'Calibre-Light'" font-size="13"> </tspan><tspan x="39.207" y="0" fill="#222429" font-family="'Calibre-Light'" font-size="13">false</tspan><tspan x="63.465" y="0" fill="#585A5E" font-family="'Calibre-Light'" font-size="13">, locked: </tspan><tspan x="108.574" y="0" fill="#222429" font-family="'Calibre-Light'" font-size="13">false</tspan><tspan x="132.832" y="0" fill="#2F3136" font-family="'Calibre-Light'" font-size="13"> </tspan><tspan x="136.029" y="0" fill="#696B6E" font-family="'Calibre-Light'" font-size="13">}</tspan></text>
				</g>
			</g>
		</g>
		<line fill="none" stroke="#20B5AE" stroke-miterlimit="10" x1="377.656" y1="-3.053" x2="377.656" y2="37.756"/>
	</g>
</g>
<g id="_x32__copy">
	<ellipse fill="#E6E6E6" cx="299.804" cy="154.141" rx="138.174" ry="101.143"/>
	<g>
		<g>
			
				<line fill="none" stroke="#585A5E" stroke-width="2" stroke-miterlimit="10" x1="114.608" y1="152.445" x2="154.31" y2="152.445"/>
			<g>
				<polygon fill="#585A5E" points="152.822,157.531 161.63,152.445 152.822,147.359 				"/>
			</g>
		</g>
	</g>
	<rect fill="none" stroke="#989A9E" stroke-width="0.25" stroke-miterlimit="10" width="580.471" height="302.206"/>
	<g>
		<g>
			<path fill="#585A5E" d="M68.871,155.304v0.532h-1.399v-9.1h1.399v3.416c0.149-0.188,0.368-0.346,0.657-0.477
				c0.29-0.131,0.598-0.195,0.925-0.195c0.887,0,1.589,0.311,2.106,0.931c0.519,0.62,0.777,1.393,0.777,2.317
				c0,0.924-0.259,1.695-0.777,2.316c-0.518,0.621-1.22,0.932-2.106,0.932c-0.327,0-0.635-0.066-0.925-0.197
				C69.239,155.649,69.021,155.49,68.871,155.304z M68.871,151.552v2.353c0.121,0.242,0.304,0.44,0.546,0.595
				c0.242,0.153,0.509,0.231,0.798,0.231c0.532,0,0.952-0.188,1.261-0.561c0.308-0.373,0.461-0.854,0.461-1.441
				s-0.153-1.069-0.461-1.442c-0.309-0.374-0.729-0.56-1.261-0.56c-0.289,0-0.556,0.076-0.798,0.23S68.992,151.31,68.871,151.552z"
				/>
			<path fill="#585A5E" d="M79.294,150.391c0.546,0.605,0.818,1.385,0.818,2.338c0,0.951-0.272,1.73-0.818,2.338
				c-0.546,0.606-1.258,0.91-2.135,0.91s-1.59-0.304-2.135-0.91c-0.547-0.607-0.819-1.387-0.819-2.338
				c0-0.953,0.272-1.732,0.819-2.338c0.545-0.607,1.258-0.91,2.135-0.91S78.748,149.783,79.294,150.391z M78.308,154.205
				c0.27-0.378,0.405-0.87,0.405-1.477c0-0.607-0.136-1.1-0.405-1.478c-0.271-0.378-0.654-0.567-1.148-0.567
				c-0.495,0-0.877,0.189-1.148,0.567c-0.271,0.378-0.406,0.87-0.406,1.478c0,0.606,0.136,1.099,0.406,1.477
				c0.271,0.378,0.653,0.566,1.148,0.566C77.653,154.771,78.036,154.583,78.308,154.205z"/>
			<path fill="#585A5E" d="M86.069,150.391c0.547,0.605,0.819,1.385,0.819,2.338c0,0.951-0.272,1.73-0.819,2.338
				c-0.545,0.606-1.258,0.91-2.135,0.91s-1.589-0.304-2.135-0.91c-0.546-0.607-0.818-1.387-0.818-2.338
				c0-0.953,0.272-1.732,0.818-2.338c0.546-0.607,1.258-0.91,2.135-0.91S85.524,149.783,86.069,150.391z M85.083,154.205
				c0.271-0.378,0.406-0.87,0.406-1.477c0-0.607-0.136-1.1-0.406-1.478c-0.271-0.378-0.653-0.567-1.148-0.567
				c-0.494,0-0.877,0.189-1.147,0.567s-0.406,0.87-0.406,1.478c0,0.606,0.136,1.099,0.406,1.477s0.653,0.566,1.147,0.566
				C84.43,154.771,84.812,154.583,85.083,154.205z"/>
			<path fill="#585A5E" d="M89.591,146.736v9.1h-1.4v-9.1H89.591z"/>
			<path fill="#585A5E" d="M95.163,153.904h1.287c-0.111,0.635-0.395,1.139-0.847,1.512s-1.043,0.561-1.771,0.561
				c-0.869,0-1.576-0.299-2.121-0.896c-0.547-0.598-0.819-1.377-0.819-2.338c0-0.934,0.274-1.711,0.825-2.331
				s1.246-0.931,2.087-0.931c0.858,0,1.523,0.277,1.995,0.832c0.471,0.556,0.707,1.301,0.707,2.233v0.504h-4.242
				c0.019,0.542,0.17,0.969,0.455,1.281c0.284,0.312,0.655,0.469,1.113,0.469C94.569,154.8,95.013,154.502,95.163,153.904z
				 M93.818,150.656c-0.392,0-0.721,0.119-0.987,0.356c-0.266,0.238-0.44,0.577-0.524,1.015h2.813
				c-0.009-0.4-0.125-0.729-0.35-0.986S94.229,150.656,93.818,150.656z"/>
			<path fill="#585A5E" d="M102.582,155.836h-1.329v-0.35c-0.113,0.111-0.315,0.217-0.609,0.314
				c-0.295,0.098-0.604,0.146-0.932,0.146c-0.662,0-1.215-0.184-1.658-0.553c-0.443-0.368-0.666-0.86-0.666-1.477
				c0-0.578,0.231-1.057,0.693-1.436c0.463-0.377,1.039-0.566,1.729-0.566c0.271,0,0.547,0.039,0.826,0.119
				c0.281,0.079,0.486,0.166,0.617,0.259v-0.504c0-0.327-0.104-0.595-0.309-0.806c-0.205-0.209-0.5-0.314-0.882-0.314
				c-0.552,0-0.905,0.225-1.064,0.672h-1.344c0.093-0.541,0.366-0.986,0.819-1.337c0.452-0.351,0.991-0.524,1.617-0.524
				c0.783,0,1.395,0.203,1.834,0.608c0.438,0.406,0.657,0.964,0.657,1.673V155.836z M101.253,154.184v-0.518
				c-0.076-0.187-0.234-0.338-0.477-0.455s-0.509-0.175-0.799-0.175c-0.345,0-0.646,0.075-0.902,0.224
				c-0.257,0.149-0.385,0.369-0.385,0.658s0.126,0.511,0.378,0.665c0.252,0.153,0.556,0.231,0.909,0.231
				c0.29,0,0.557-0.059,0.799-0.176C101.019,154.522,101.177,154.371,101.253,154.184z"/>
			<path fill="#585A5E" d="M104.234,155.836v-6.216h1.399v0.588c0.42-0.485,0.98-0.728,1.681-0.728c0.69,0,1.229,0.209,1.616,0.629
				c0.388,0.42,0.582,0.98,0.582,1.681v4.046h-1.4v-3.809c0-0.4-0.098-0.713-0.294-0.938s-0.49-0.336-0.882-0.336
				c-0.309,0-0.584,0.091-0.826,0.273c-0.243,0.182-0.401,0.422-0.477,0.721v4.088H104.234z"/>
		</g>
	</g>
	<g>
		<g>
			<rect x="195.338" y="115.783" fill="#FFFFFF" width="99.075" height="33.527"/>
			<g>
				<path fill="#222429" d="M235.614,135.263v-3.874h-0.975v-0.559h0.975v-1.482h0.637v1.482h1.496v0.559h-1.496v3.809
					c0,0.625,0.277,0.937,0.832,0.937c0.277,0,0.542-0.073,0.793-0.222v0.611c-0.242,0.13-0.527,0.195-0.857,0.195
					c-0.434,0-0.775-0.123-1.027-0.371C235.74,136.102,235.614,135.739,235.614,135.263z"/>
				<path fill="#222429" d="M242.258,130.791v0.637c-0.165-0.069-0.343-0.104-0.533-0.104c-0.347,0-0.654,0.112-0.923,0.338
					c-0.27,0.225-0.473,0.528-0.611,0.91v4.029h-0.65v-5.771h0.65v0.922c0.139-0.303,0.347-0.552,0.624-0.747
					c0.277-0.194,0.589-0.292,0.937-0.292C241.915,130.713,242.084,130.738,242.258,130.791z"/>
				<path fill="#222429" d="M248.186,130.83v5.771h-0.638v-0.923c-0.189,0.294-0.445,0.542-0.767,0.741
					c-0.32,0.199-0.676,0.299-1.065,0.299c-0.642,0-1.136-0.188-1.482-0.566c-0.347-0.377-0.52-0.877-0.52-1.501v-3.821h0.637v3.73
					c0,0.468,0.123,0.846,0.371,1.131c0.246,0.286,0.617,0.43,1.111,0.43c0.381,0,0.725-0.117,1.033-0.352
					c0.307-0.234,0.535-0.533,0.682-0.896v-4.043H248.186z"/>
				<path fill="#222429" d="M254.114,134.925h0.623c-0.112,0.546-0.365,0.981-0.76,1.306c-0.395,0.326-0.887,0.488-1.477,0.488
					c-0.762,0-1.379-0.277-1.852-0.832s-0.709-1.278-0.709-2.172c0-0.875,0.232-1.594,0.695-2.157
					c0.464-0.563,1.082-0.845,1.854-0.845c0.744,0,1.32,0.258,1.729,0.773c0.407,0.516,0.611,1.197,0.611,2.047v0.234h-4.252
					c0.009,0.729,0.191,1.307,0.547,1.735s0.814,0.644,1.377,0.644c0.408,0,0.757-0.108,1.047-0.324
					C253.839,135.605,254.026,135.307,254.114,134.925z M252.489,131.285c-0.521,0-0.947,0.178-1.281,0.532
					c-0.334,0.355-0.535,0.837-0.604,1.443h3.575c-0.018-0.555-0.169-1.022-0.455-1.404S253.026,131.285,252.489,131.285z"/>
			</g>
		</g>
		<g>
			<rect x="305.188" y="161.359" fill="#FFFFFF" width="99.08" height="33.527"/>
			<g>
				<path fill="#222429" d="M346.286,173.728v0.599c-0.174-0.096-0.369-0.144-0.585-0.144c-0.312,0-0.565,0.11-0.761,0.331
					c-0.195,0.222-0.293,0.527-0.293,0.917v0.976H346v0.559h-1.353v5.213h-0.637v-5.213h-0.936v-0.559h0.936v-1.041
					c0-0.52,0.152-0.941,0.455-1.268c0.304-0.324,0.693-0.486,1.17-0.486C345.87,173.611,346.087,173.65,346.286,173.728z"/>
				<path fill="#222429" d="M351.266,182.178h-0.624v-0.546c-0.139,0.165-0.355,0.312-0.65,0.442
					c-0.295,0.129-0.611,0.194-0.949,0.194c-0.606,0-1.113-0.162-1.521-0.487s-0.61-0.756-0.61-1.293
					c0-0.521,0.207-0.945,0.623-1.274s0.928-0.494,1.534-0.494c0.312,0,0.615,0.063,0.91,0.188c0.294,0.126,0.516,0.267,0.663,0.422
					v-1.026c0-0.433-0.128-0.782-0.384-1.046c-0.255-0.265-0.608-0.396-1.06-0.396c-0.719,0-1.188,0.329-1.404,0.987h-0.637
					c0.113-0.485,0.354-0.866,0.722-1.144s0.808-0.416,1.319-0.416c0.642,0,1.146,0.18,1.515,0.539s0.553,0.844,0.553,1.449V182.178
					z M350.642,180.865v-0.742c-0.096-0.25-0.289-0.457-0.578-0.617c-0.291-0.16-0.609-0.24-0.956-0.24
					c-0.442,0-0.817,0.106-1.124,0.318c-0.309,0.213-0.462,0.514-0.462,0.904c0,0.39,0.153,0.693,0.462,0.91
					c0.307,0.216,0.682,0.324,1.124,0.324c0.347,0,0.665-0.08,0.956-0.24C350.353,181.322,350.546,181.116,350.642,180.865z"/>
				<path fill="#222429" d="M354.021,173.728v8.45h-0.65v-8.45H354.021z"/>
				<path fill="#222429" d="M355.659,180.683h0.65c0.233,0.702,0.771,1.054,1.611,1.054c0.416,0,0.754-0.092,1.014-0.273
					s0.391-0.446,0.391-0.793c0-0.485-0.355-0.828-1.066-1.027l-1.078-0.299c-0.91-0.242-1.365-0.729-1.365-1.456
					c0-0.485,0.186-0.873,0.559-1.163c0.373-0.291,0.836-0.436,1.391-0.436c0.59,0,1.068,0.139,1.438,0.416
					c0.367,0.277,0.604,0.662,0.708,1.156h-0.638c-0.225-0.676-0.728-1.014-1.508-1.014c-0.381,0-0.697,0.089-0.949,0.267
					c-0.251,0.178-0.377,0.427-0.377,0.747c0,0.26,0.08,0.455,0.241,0.586c0.16,0.129,0.427,0.246,0.8,0.351l1.026,0.286
					c0.962,0.251,1.443,0.775,1.443,1.572c0,0.512-0.19,0.912-0.572,1.203s-0.871,0.436-1.469,0.436c-0.59,0-1.091-0.143-1.501-0.43
					C355.995,181.58,355.745,181.186,355.659,180.683z"/>
				<path fill="#222429" d="M365.461,180.501h0.624c-0.113,0.546-0.366,0.981-0.761,1.306c-0.395,0.326-0.886,0.488-1.476,0.488
					c-0.763,0-1.38-0.277-1.853-0.832c-0.472-0.555-0.708-1.278-0.708-2.172c0-0.875,0.231-1.594,0.695-2.157
					c0.463-0.563,1.081-0.845,1.853-0.845c0.745,0,1.321,0.258,1.729,0.773c0.406,0.516,0.61,1.197,0.61,2.047v0.234h-4.251
					c0.008,0.729,0.19,1.307,0.546,1.735s0.814,0.644,1.378,0.644c0.407,0,0.756-0.108,1.047-0.324
					C365.186,181.182,365.374,180.883,365.461,180.501z M363.836,176.861c-0.521,0-0.947,0.178-1.28,0.532
					c-0.334,0.355-0.535,0.837-0.605,1.443h3.576c-0.018-0.555-0.17-1.022-0.455-1.404
					C364.784,177.051,364.373,176.861,363.836,176.861z"/>
			</g>
		</g>
	</g>
	<g>
		<g>
			<path fill="#20B5AE" d="M376.985,62.166v0.533h-1.4v-9.101h1.4v3.416c0.148-0.187,0.368-0.345,0.657-0.476
				c0.29-0.131,0.597-0.196,0.925-0.196c0.887,0,1.588,0.311,2.106,0.931c0.519,0.621,0.776,1.393,0.776,2.317
				c0,0.924-0.258,1.696-0.776,2.317c-0.519,0.62-1.22,0.931-2.106,0.931c-0.328,0-0.635-0.065-0.925-0.196
				C377.354,62.512,377.134,62.354,376.985,62.166z M376.985,58.414v2.353c0.121,0.243,0.303,0.44,0.545,0.595
				c0.243,0.154,0.51,0.231,0.799,0.231c0.531,0,0.951-0.187,1.26-0.56s0.462-0.854,0.462-1.442s-0.153-1.069-0.462-1.442
				s-0.729-0.56-1.26-0.56c-0.289,0-0.556,0.077-0.799,0.231C377.288,57.974,377.106,58.172,376.985,58.414z"/>
			<path fill="#20B5AE" d="M387.407,57.253c0.547,0.606,0.819,1.386,0.819,2.338s-0.272,1.731-0.819,2.338
				c-0.545,0.606-1.258,0.91-2.135,0.91s-1.589-0.304-2.135-0.91s-0.818-1.386-0.818-2.338s0.272-1.731,0.818-2.338
				s1.258-0.91,2.135-0.91S386.862,56.646,387.407,57.253z M386.421,61.068c0.271-0.379,0.406-0.871,0.406-1.478
				s-0.136-1.099-0.406-1.478c-0.271-0.377-0.653-0.566-1.148-0.566c-0.494,0-0.877,0.189-1.147,0.566
				c-0.271,0.379-0.406,0.871-0.406,1.478s0.136,1.099,0.406,1.478c0.271,0.377,0.653,0.566,1.147,0.566
				C385.768,61.635,386.149,61.445,386.421,61.068z"/>
			<path fill="#20B5AE" d="M394.184,57.253c0.546,0.606,0.819,1.386,0.819,2.338s-0.273,1.731-0.819,2.338s-1.258,0.91-2.135,0.91
				c-0.878,0-1.589-0.304-2.136-0.91c-0.545-0.606-0.818-1.386-0.818-2.338s0.273-1.731,0.818-2.338
				c0.547-0.606,1.258-0.91,2.136-0.91C392.926,56.343,393.638,56.646,394.184,57.253z M393.196,61.068
				c0.271-0.379,0.406-0.871,0.406-1.478s-0.135-1.099-0.406-1.478c-0.271-0.377-0.652-0.566-1.147-0.566s-0.878,0.189-1.147,0.566
				c-0.271,0.379-0.406,0.871-0.406,1.478s0.135,1.099,0.406,1.478c0.27,0.377,0.652,0.566,1.147,0.566
				S392.926,61.445,393.196,61.068z"/>
			<path fill="#20B5AE" d="M397.704,53.599v9.101h-1.399v-9.101H397.704z"/>
			<path fill="#20B5AE" d="M403.276,60.767h1.288c-0.112,0.635-0.395,1.14-0.847,1.513c-0.453,0.373-1.043,0.56-1.771,0.56
				c-0.868,0-1.575-0.299-2.121-0.896c-0.546-0.598-0.818-1.377-0.818-2.339c0-0.933,0.274-1.71,0.825-2.331
				c0.551-0.62,1.246-0.931,2.087-0.931c0.857,0,1.523,0.278,1.994,0.833s0.707,1.3,0.707,2.232v0.504h-4.242
				c0.02,0.542,0.17,0.969,0.455,1.281s0.656,0.469,1.113,0.469C402.684,61.662,403.127,61.364,403.276,60.767z M401.933,57.519
				c-0.393,0-0.721,0.119-0.987,0.356c-0.267,0.238-0.44,0.577-0.524,1.016h2.813c-0.009-0.4-0.126-0.73-0.351-0.986
				C402.66,57.646,402.343,57.519,401.933,57.519z"/>
			<path fill="#20B5AE" d="M410.696,62.699h-1.33v-0.351c-0.112,0.112-0.314,0.218-0.609,0.315
				c-0.294,0.098-0.604,0.146-0.931,0.146c-0.663,0-1.216-0.184-1.659-0.553s-0.665-0.861-0.665-1.477
				c0-0.579,0.231-1.058,0.692-1.436c0.463-0.378,1.039-0.566,1.729-0.566c0.271,0,0.546,0.039,0.826,0.119
				c0.28,0.078,0.485,0.165,0.616,0.258v-0.504c0-0.326-0.104-0.595-0.309-0.805s-0.499-0.314-0.881-0.314
				c-0.552,0-0.906,0.224-1.064,0.672h-1.344c0.093-0.541,0.365-0.987,0.818-1.338c0.453-0.35,0.992-0.524,1.617-0.524
				c0.784,0,1.395,0.203,1.834,0.608c0.438,0.406,0.658,0.965,0.658,1.674V62.699z M409.366,61.047v-0.518
				c-0.075-0.188-0.233-0.339-0.477-0.455c-0.242-0.117-0.508-0.176-0.798-0.176c-0.345,0-0.646,0.075-0.903,0.225
				c-0.256,0.148-0.385,0.369-0.385,0.658s0.127,0.51,0.379,0.664s0.555,0.231,0.909,0.231c0.29,0,0.556-0.058,0.798-0.175
				C409.133,61.385,409.291,61.233,409.366,61.047z"/>
			<path fill="#20B5AE" d="M412.349,62.699v-6.217h1.399v0.588c0.42-0.484,0.979-0.728,1.681-0.728c0.689,0,1.229,0.21,1.616,0.63
				s0.581,0.98,0.581,1.68v4.047h-1.4v-3.809c0-0.4-0.098-0.714-0.293-0.938c-0.197-0.225-0.49-0.336-0.883-0.336
				c-0.308,0-0.583,0.09-0.826,0.272c-0.242,0.183-0.4,0.423-0.476,0.722v4.088H412.349z"/>
			<path fill="#20B5AE" d="M418.69,64.505v-1.218h4.773v1.218H418.69z"/>
			<path fill="#20B5AE" d="M428.042,53.627v1.232c-0.195-0.131-0.425-0.197-0.686-0.197c-0.28,0-0.502,0.082-0.666,0.246
				c-0.162,0.163-0.244,0.398-0.244,0.707v0.867h1.357v1.162h-1.357v5.055h-1.372v-5.055h-1.078v-1.162h1.078v-0.966
				c0-0.644,0.19-1.147,0.573-1.512s0.873-0.546,1.471-0.546C427.481,53.459,427.79,53.515,428.042,53.627z"/>
			<path fill="#20B5AE" d="M433.628,62.699h-1.33v-0.351c-0.111,0.112-0.314,0.218-0.609,0.315c-0.293,0.098-0.604,0.146-0.93,0.146
				c-0.664,0-1.217-0.184-1.66-0.553s-0.664-0.861-0.664-1.477c0-0.579,0.23-1.058,0.692-1.436s1.038-0.566,1.729-0.566
				c0.271,0,0.546,0.039,0.826,0.119c0.279,0.078,0.484,0.165,0.615,0.258v-0.504c0-0.326-0.103-0.595-0.308-0.805
				c-0.206-0.21-0.499-0.314-0.882-0.314c-0.551,0-0.906,0.224-1.064,0.672H428.7c0.094-0.541,0.366-0.987,0.818-1.338
				c0.453-0.35,0.992-0.524,1.617-0.524c0.785,0,1.396,0.203,1.834,0.608c0.439,0.406,0.658,0.965,0.658,1.674V62.699z
				 M432.298,61.047v-0.518c-0.074-0.188-0.232-0.339-0.476-0.455c-0.243-0.117-0.509-0.176-0.798-0.176
				c-0.346,0-0.646,0.075-0.903,0.225c-0.257,0.148-0.385,0.369-0.385,0.658s0.126,0.51,0.378,0.664s0.555,0.231,0.91,0.231
				c0.289,0,0.555-0.058,0.798-0.175S432.224,61.233,432.298,61.047z"/>
			<path fill="#20B5AE" d="M436.681,53.599v9.101h-1.4v-9.101H436.681z"/>
			<path fill="#20B5AE" d="M437.981,60.906h1.428c0.159,0.523,0.57,0.785,1.232,0.785c0.326,0,0.586-0.063,0.777-0.189
				c0.191-0.127,0.287-0.311,0.287-0.553c0-0.168-0.057-0.301-0.168-0.399c-0.112-0.099-0.299-0.18-0.561-0.245l-1.287-0.309
				c-1.027-0.242-1.541-0.812-1.541-1.707c0-0.561,0.223-1.024,0.666-1.394c0.442-0.368,1.005-0.553,1.687-0.553
				c0.709,0,1.274,0.161,1.694,0.483s0.686,0.771,0.797,1.351h-1.371c-0.141-0.457-0.518-0.687-1.135-0.687
				c-0.271,0-0.504,0.062-0.699,0.183c-0.196,0.121-0.295,0.299-0.295,0.532c0,0.271,0.215,0.461,0.645,0.574l1.316,0.308
				c1.064,0.252,1.596,0.84,1.596,1.764c0,0.606-0.227,1.09-0.679,1.449c-0.453,0.359-1.034,0.539-1.743,0.539
				c-0.729,0-1.328-0.173-1.799-0.519C438.357,61.976,438.075,61.504,437.981,60.906z"/>
			<path fill="#20B5AE" d="M448.258,60.767h1.288c-0.112,0.635-0.395,1.14-0.848,1.513c-0.452,0.373-1.043,0.56-1.771,0.56
				c-0.868,0-1.575-0.299-2.121-0.896c-0.546-0.598-0.819-1.377-0.819-2.339c0-0.933,0.275-1.71,0.826-2.331
				c0.551-0.62,1.246-0.931,2.086-0.931c0.859,0,1.523,0.278,1.995,0.833s0.707,1.3,0.707,2.232v0.504h-4.241
				c0.018,0.542,0.17,0.969,0.455,1.281c0.283,0.312,0.654,0.469,1.112,0.469C447.665,61.662,448.108,61.364,448.258,60.767z
				 M446.913,57.519c-0.392,0-0.721,0.119-0.986,0.356c-0.266,0.238-0.441,0.577-0.525,1.016h2.814c-0.01-0.4-0.126-0.73-0.35-0.986
				C447.642,57.646,447.324,57.519,446.913,57.519z"/>
		</g>
		<line fill="none" stroke="#20B5AE" stroke-miterlimit="10" x1="412.369" y1="70.204" x2="412.369" y2="161.577"/>
	</g>
	<ellipse fill="none" stroke="#20B5AE" stroke-miterlimit="10" cx="354.729" cy="180.558" rx="67.411" ry="38.629"/>
</g>
</svg>
