<?xml version="1.0" encoding="utf-8"?>
<!-- Generator: Adobe Illustrator 26.0.1, SVG Export Plug-In . SVG Version: 6.00 Build 0)  -->
<svg version="1.1" id="Layer_1" xmlns="http://www.w3.org/2000/svg" xmlns:xlink="http://www.w3.org/1999/xlink" x="0px" y="0px"
	 viewBox="0 0 12.7 15.1" style="enable-background:new 0 0 12.7 15.1;" xml:space="preserve">
<style type="text/css">
	.st0{fill:#ffffff;}
</style>
<g>
	<polygon class="st0" points="10.6,13.8 10.6,9.8 12,9.8 12,15.1 0.1,15.1 0.1,9.8 1.4,9.8 1.4,13.8 	"/>
	<path class="st0" d="M2.9,9.4l6.4,1.4l0.3-1.3L3.2,8.2L2.9,9.4z M3.7,6.4l6,2.8L10.3,8l-6-2.8L3.7,6.4z M5.4,3.4l5.1,4.2l0.8-1
		L6.2,2.4L5.4,3.4z M8.7,0.3l-1,0.8l3.9,5.3l1.1-0.8L8.7,0.3z M2.8,12.4h6.6v-1.3H2.8V12.4z"/>
</g>
</svg>
