<?xml version="1.0" encoding="utf-8"?>
<!-- Generator: Adobe Illustrator 16.0.0, SVG Export Plug-In . SVG Version: 6.00 Build 0)  -->
<!DOCTYPE svg PUBLIC "-//W3C//DTD SVG 1.1//EN" "http://www.w3.org/Graphics/SVG/1.1/DTD/svg11.dtd">
<svg version="1.1" id="Layer_1" xmlns="http://www.w3.org/2000/svg" xmlns:xlink="http://www.w3.org/1999/xlink" x="0px" y="0px"
	 width="18.089px" height="15.309px" viewBox="0 0 18.089 15.309" enable-background="new 0 0 18.089 15.309" xml:space="preserve">
<g id="XMLID_2_">
	<path id="XMLID_6_" fill="#20B6B0" d="M13.892,7.098c0.38,0,0.695,0.124,0.949,0.371c0.252,0.247,0.379,0.556,0.379,0.929
		c0,0.591-0.283,0.987-0.853,1.189l-1.571,0.539l0.512,1.526c0.044,0.128,0.063,0.271,0.063,0.432c0,0.357-0.128,0.671-0.385,0.933
		c-0.256,0.262-0.563,0.395-0.923,0.395c-0.287,0-0.549-0.083-0.783-0.247c-0.232-0.165-0.396-0.386-0.488-0.658l-0.502-1.51
		l-2.837,0.97l0.505,1.499c0.049,0.146,0.071,0.291,0.071,0.43c0,0.361-0.128,0.672-0.384,0.935
		c-0.257,0.263-0.567,0.394-0.934,0.394c-0.287,0-0.545-0.082-0.777-0.248c-0.231-0.164-0.394-0.383-0.484-0.658l-0.503-1.49
		l-1.399,0.484c-0.178,0.056-0.33,0.084-0.458,0.084c-0.372,0-0.681-0.123-0.929-0.367c-0.247-0.243-0.37-0.552-0.37-0.924
		c0-0.286,0.083-0.547,0.251-0.777s0.385-0.395,0.654-0.483l1.427-0.485l-0.96-2.866L1.737,7.986
		C1.579,8.034,1.434,8.058,1.299,8.058c-0.366,0-0.674-0.123-0.924-0.371C0.125,7.44,0,7.134,0,6.768
		c0-0.287,0.084-0.546,0.252-0.776C0.42,5.76,0.637,5.598,0.905,5.507l1.436-0.485L1.857,3.568c-0.048-0.146-0.073-0.29-0.073-0.43
		c0-0.366,0.128-0.679,0.384-0.938c0.256-0.261,0.567-0.39,0.933-0.39c0.287,0,0.546,0.082,0.777,0.248
		C4.11,2.222,4.272,2.442,4.363,2.717L4.857,4.18l2.836-0.96L7.198,1.757C7.15,1.61,7.126,1.467,7.126,1.327
		c0-0.36,0.129-0.672,0.388-0.934C7.773,0.131,8.083,0,8.442,0C8.73,0,8.99,0.084,9.224,0.251s0.397,0.386,0.488,0.653l0.485,1.474
		l1.481-0.503c0.127-0.037,0.259-0.056,0.394-0.056c0.366,0,0.681,0.12,0.938,0.361c0.26,0.241,0.389,0.541,0.389,0.901
		c0,0.273-0.092,0.522-0.273,0.746c-0.185,0.222-0.408,0.38-0.678,0.471l-1.436,0.495l0.959,2.89l1.5-0.511
		C13.62,7.123,13.759,7.098,13.892,7.098z M6.631,9.494l2.837-0.96L8.505,5.652l-2.833,0.98L6.631,9.494z"/>
</g>
</svg>
