<?xml version="1.0" encoding="UTF-8" standalone="no"?>
<svg
   xmlns:dc="http://purl.org/dc/elements/1.1/"
   xmlns:cc="http://creativecommons.org/ns#"
   xmlns:rdf="http://www.w3.org/1999/02/22-rdf-syntax-ns#"
   xmlns:svg="http://www.w3.org/2000/svg"
   xmlns="http://www.w3.org/2000/svg"
   viewBox="0 0 800.12 157.16"
   height="157.16"
   width="800.12"
   xml:space="preserve"
   id="svg2"
   version="1.1"><metadata
     id="metadata8"><rdf:RDF><cc:Work
         rdf:about=""><dc:format>image/svg+xml</dc:format><dc:type
           rdf:resource="http://purl.org/dc/dcmitype/StillImage" /></cc:Work></rdf:RDF></metadata><defs
     id="defs6"><clipPath
       id="clipPath20"
       clipPathUnits="userSpaceOnUse"><path
         id="path18"
         d="M 0,1178.69 V 0 h 6000.85 v 1178.69 z" /></clipPath></defs><g
     transform="matrix(1.3333333,0,0,-1.3333333,0,157.16)"
     id="g10"><g
       transform="scale(0.1)"
       id="g12"><g
         id="g14"><g
           clip-path="url(#clipPath20)"
           id="g16"><path
             id="path22"
             style="fill:#212325;fill-opacity:1;fill-rule:nonzero;stroke:none"
             d="m 1656.86,568.617 57.57,57.578 h -117.91 v 139.981 h -62.27 V 324.172 c 0,-63.141 36.33,-114.18 108.99,-114.18 h 44.11 v 53.629 h -32.87 c -39.79,0 -57.96,23.359 -57.96,62.281 V 568.617 Z M 4881.37,343.512 V 826.246 H 4770.75 V 336.699 c 0,-62.972 38.29,-126.793 129.34,-126.793 h 62.96 v 93.61 h -42.54 c -28.08,0 -39.14,13.609 -39.14,39.996 z M 5884.28,653.25 5812.79,379.242 5721.74,653.25 h -80.83 L 5550.7,379.242 5479.23,653.25 h -117.44 l 136.15,-443.344 h 91.05 l 92.75,278.258 92.76,-278.258 h 91.05 l 135.3,443.344 z M 5225.5,323.938 c -12.76,-12.766 -29.79,-19.575 -51.91,-19.575 -22.13,0 -38.3,6.809 -51.06,19.575 C 5099.55,346.902 5097,386.055 5097,432 c 0,45.961 2.55,84.254 25.53,107.219 12.76,12.765 28.93,19.574 51.06,19.574 22.12,0 39.15,-6.809 51.91,-19.574 22.97,-22.965 25.53,-61.258 25.53,-107.219 0,-45.945 -2.56,-85.098 -25.53,-108.062 z m -51.91,334.417 c -65.53,0 -109.77,-25.523 -137,-54.457 -40,-41.699 -50.21,-91.91 -50.21,-171.898 0,-80.832 10.21,-131.043 50.21,-172.742 27.23,-28.93 71.47,-54.457 137,-54.457 65.52,0 110.62,25.527 137.85,54.457 40,41.699 50.21,91.91 50.21,172.742 0,79.988 -10.21,130.199 -50.21,171.898 -27.23,28.934 -72.33,54.457 -137.85,54.457 z m -647.76,41.11 V 210.359 h 110.63 V 559.91 h 81.69 v 84.238 h -81.69 v 48.508 c 0,25.528 12.76,39.992 39.13,39.992 h 42.56 v 93.598 h -62.98 c -90.2,0 -129.34,-63.816 -129.34,-126.781 z M 4275.38,610.707 V 653.25 H 4167.31 V 209.906 h 110.62 v 267.196 c 0,56.164 37.45,81.691 71.49,81.691 27.23,0 41.34,-9.051 58.37,-26.066 l 83.73,83.933 c -30.63,30.637 -61.27,41.695 -104.67,41.695 -47.65,0 -90.2,-22.121 -111.47,-47.648 z M 3834.8,472.852 c 0.84,19.578 3.4,31.48 10.21,47.652 11.91,26.383 36.59,45.945 74.03,45.945 37.44,0 62.12,-19.562 74.03,-45.945 6.81,-16.172 9.36,-28.074 10.22,-47.652 z m 84.24,185.503 c -114.88,0 -193.16,-81.687 -193.16,-226.355 0,-179.551 100.4,-227.199 205.07,-227.199 79.99,0 123.39,24.679 168.49,69.785 l -67.22,65.519 c -28.09,-28.085 -51.91,-41.695 -100.42,-41.695 -62.12,0 -97,41.695 -97,98.703 h 277.41 v 49.352 c 0,121.687 -69.79,211.89 -193.17,211.89 z m -304.77,-5.105 -89.35,-274.008 -90.2,274.008 h -116.58 l 163.38,-443.344 h 86.8 L 3730.85,653.25 Z M 3183.55,323.938 c -12.76,-12.766 -29.79,-19.575 -51.91,-19.575 -22.12,0 -38.29,6.809 -51.06,19.575 -22.98,22.964 -25.53,62.117 -25.53,108.062 0,45.961 2.55,84.254 25.53,107.219 12.77,12.765 28.94,19.574 51.06,19.574 22.12,0 39.15,-6.809 51.91,-19.574 22.97,-22.965 25.53,-61.258 25.53,-107.219 0,-45.945 -2.56,-85.098 -25.53,-108.062 z m -51.91,334.417 c -65.52,0 -109.77,-25.523 -137,-54.457 -39.99,-41.699 -50.21,-91.91 -50.21,-171.898 0,-80.832 10.22,-131.043 50.21,-172.742 27.23,-28.93 71.48,-54.457 137,-54.457 65.52,0 110.62,25.527 137.85,54.457 40,41.699 50.21,91.91 50.21,172.742 0,79.988 -10.21,130.199 -50.21,171.898 -27.23,28.934 -72.33,54.457 -137.85,54.457 z m -292.6,-22.16 h -77.64 l -192.97,-187.859 0.3,377.531 h -62.28 V 209.992 h 62.28 l -0.3,155.324 75.55,75.817 142.74,-231.141 h 76.97 l -176.57,274.281 z m -533.4,-50.804 c 40.65,0 65.74,-12.102 97.74,-47.563 0,0 41.7,40.524 41.35,40.891 -43.66,46.711 -80.73,62.035 -139.09,62.035 -107.26,0 -188.57,-72.656 -188.57,-217.981 0,-145.304 81.31,-217.972 188.57,-217.972 58.82,0 96.01,15.578 140.12,63.14 l -42.38,40.653 c -32,-35.461 -57.09,-48.434 -97.74,-48.434 -41.52,0 -76.12,16.434 -98.61,48.434 -19.9,27.679 -27.68,60.554 -27.68,114.179 0,53.629 7.78,86.504 27.68,114.184 22.49,32.012 57.09,48.434 98.61,48.434 z m -306.2,-224.883 c 0,-35.477 -6.93,-59.696 -21.63,-73.528 -26.82,-25.949 -58.82,-28.55 -95.15,-28.55 -67.47,0 -97.74,23.355 -97.74,72.668 0,49.293 31.14,75.242 95.15,75.242 h 119.37 z m -108.12,280.246 c -68.28,0 -111.29,-13.469 -148.98,-61.184 -0.52,-0.648 40.85,-40.882 40.85,-40.882 25.09,35.46 52.77,48.437 107.26,48.437 77.85,0 108.99,-31.145 108.99,-93.414 v -40.652 h -128.02 c -95.15,0 -147.05,-48.45 -147.05,-122.836 0,-33.731 11.25,-65.731 32,-86.5 26.82,-27.68 61.42,-38.922 120.24,-38.922 57.09,0 88.22,11.242 122.83,45.844 v -40.653 h 62.27 v 288.91 c 0,92.555 -56.22,141.852 -170.39,141.852 z m -532.58,-191.156 -68.34,6.05 c -53.62,4.321 -74.38,25.95 -74.38,62.282 0,43.246 32.86,70.062 95.15,70.062 44.11,0 83.04,-10.383 113.3,-33.726 l 40.67,40.652 c -38.07,31.129 -92.56,45.836 -153.11,45.836 -90.83,0 -156.56,-46.707 -156.56,-124.555 0,-70.066 44.11,-107.258 127.15,-114.179 l 70.07,-6.051 c 49.3,-4.336 70.93,-25.09 70.93,-62.285 0,-50.164 -43.25,-75.254 -113.32,-75.254 -52.76,0 -98.61,13.843 -132.35,49.304 l -41.51,-41.523 c 46.71,-44.977 102.93,-61.41 174.73,-61.41 102.93,0 172.99,47.578 172.99,129.742 0,79.594 -51.03,108.129 -125.42,115.055" /><path
             id="path24"
             style="fill:#BCBBBC;fill-opacity:1;fill-rule:nonzero;stroke:none"
             d="M 840.719,105.18 V 420.691 H 945.883 V 0 H 0 V 420.691 H 105.164 V 105.18 h 735.555" /><path
             id="path26"
             style="fill:#F48023;fill-opacity:1;fill-rule:nonzero;stroke:none"
             d="M 210.445,210.359 H 736.266 V 315.523 H 210.445 Z m 471.266,968.331 -84.383,-62.76 313.817,-421.914 84.382,62.761 z M 420.879,929.949 824.926,593.445 892.227,674.258 488.18,1010.76 Z M 288.973,696.102 765.637,474.109 810.035,569.441 333.371,791.434 Z M 220.887,449.711 735.469,341.562 757.098,444.48 242.516,552.629 220.887,449.711" /></g></g></g></g></svg>