<?xml version="1.0" encoding="utf-8"?>
<!-- Generator: Adobe Illustrator 26.0.1, SVG Export Plug-In . SVG Version: 6.00 Build 0)  -->
<svg version="1.1" id="Layer_1" xmlns="http://www.w3.org/2000/svg" xmlns:xlink="http://www.w3.org/1999/xlink" x="0px" y="0px"
	 viewBox="0 0 15.4 15.4" style="enable-background:new 0 0 15.4 15.4;" xml:space="preserve">
<style type="text/css">
	.st0{fill:#ffffff;}
</style>
<path class="st0" d="M15.2,3c-0.6,0.3-1.2,0.4-1.8,0.5c0.6-0.4,1.1-1,1.4-1.7c-0.6,0.4-1.3,0.6-2,0.8c-1.2-1.2-3.1-1.2-4.4-0.1
	C7.9,3.1,7.5,3.9,7.5,4.7c0,0.2,0,0.5,0.1,0.7C5.1,5.3,2.8,4.1,1.2,2.2C1,2.6,0.8,3.2,0.8,3.7c0,1,0.5,2,1.4,2.6
	c-0.5,0-1-0.2-1.4-0.4l0,0c0,1.5,1,2.8,2.5,3.1C3,9.1,2.7,9.1,2.5,9.1C2.3,9.1,2.1,9.1,1.9,9c0.4,1.3,1.6,2.1,2.9,2.1
	c-1.1,0.9-2.4,1.3-3.8,1.3c-0.2,0-0.5,0-0.7,0c1.4,0.9,3.1,1.4,4.7,1.3c4.8,0,8.7-3.8,8.8-8.6c0-0.1,0-0.1,0-0.2V4.6
	C14.3,4.2,14.8,3.6,15.2,3"/>
</svg>
