<svg id="Layer_1" data-name="Layer 1" xmlns="http://www.w3.org/2000/svg" viewBox="0 0 302 79"><defs><style>.cls-1{fill:#585a5e;}.cls-2{fill:#fff;}</style></defs><rect class="cls-1" width="302" height="79"/><path class="cls-2" d="M36.69,63.8H14.07V15.66h21.4c12.15,0,17.35,5.2,17.35,13.07,0,5.42-3.67,9.25-8.87,10.09,5.81,1.07,10.32,4.89,10.32,11.76,0,8.33-6.34,13.22-17.58,13.22M23.4,35.68H34.86c5.73,0,8.18-2.52,8.18-6.11s-2.45-6.19-8.18-6.19H23.4Zm0,7.26V56.09H35.62c6,0,8.87-2.52,8.87-6.5s-2.91-6.65-8.87-6.65Z"/><path class="cls-2" d="M88.52,55.63c0,1.76.92,2.6,2.37,2.6a6.63,6.63,0,0,0,2.82-.69v4.89a9.51,9.51,0,0,1-6.34,2.14c-3.82,0-6.72-2.45-7.41-6.5-1.91,4-6.19,6.57-11.77,6.57-6.42,0-10.7-3.43-10.7-9.24,0-6.42,5-9.1,12.84-10.55l9.25-1.75v-1c0-3.74-2-6-5.88-6s-5.89,2.29-6.65,5.57l-8.33-.76C59.86,34,65.14,29.19,74.08,29.19c8.71,0,14.44,4.12,14.44,13Zm-8.94-7.57-6.34,1.3c-4.21.84-6.8,1.91-6.8,5,0,2.37,1.68,4.12,4.66,4.12,4.81,0,8.48-3.59,8.48-9.32Z"/><path class="cls-2" d="M163.64,52.57C162,60.21,156,64.72,147.36,64.72c-10.39,0-17.88-6.65-17.88-17.27S137,29.19,147.13,29.19c11,0,16.66,7.64,16.66,16.81v2.9H138.5c.3,5.5,4.2,8.87,9.17,8.87,4.51,0,7.26-2,8.55-6Zm-8.79-8.48c-.15-4.36-2.67-8.18-7.8-8.18s-7.86,3.67-8.4,8.18Z"/><path class="cls-2" d="M192.39,39.12a10.26,10.26,0,0,0-5.5-1.45c-4.74,0-7.95,3.36-7.95,9.47V63.8h-9.17V30.1h9.17v6.43c1.22-3.83,4.74-7.34,9.4-7.34a7.42,7.42,0,0,1,4.73,1.37Z"/><path class="cls-2" d="M196.94,15.66h9.4V24.6h-9.4Zm9.32,48.14h-9.17V30.1h9.17Z"/><path class="cls-2" d="M223,63.8h-9.17V30.1H223v5.51c1.68-3.82,6-6.42,11-6.42,9,0,12.31,6.11,12.31,13.6v21h-9.17V44.62c0-5.19-2.07-8.17-6.58-8.17S223,40.12,223,45.77Z"/><path class="cls-2" d="M282.73,55.63c0,1.76.92,2.6,2.37,2.6a6.67,6.67,0,0,0,2.83-.69v4.89a9.56,9.56,0,0,1-6.35,2.14c-3.82,0-6.72-2.45-7.41-6.5-1.91,4-6.19,6.57-11.77,6.57-6.42,0-10.69-3.43-10.69-9.24,0-6.42,5-9.1,12.83-10.55l9.25-1.75v-1c0-3.74-2-6-5.89-6s-5.88,2.29-6.64,5.57l-8.33-.76c1.14-6.88,6.42-11.69,15.36-11.69,8.71,0,14.44,4.12,14.44,13Zm-8.94-7.57-6.34,1.3c-4.21.84-6.8,1.91-6.8,5,0,2.37,1.68,4.12,4.66,4.12,4.81,0,8.48-3.59,8.48-9.32Z"/><polygon class="cls-2" points="97.71 28.18 97.71 14.28 109.35 14.28 109.35 32.63 97.71 28.18"/><polygon class="cls-2" points="97.71 32.53 105.67 35.58 97.71 38.62 97.71 32.53"/><polygon class="cls-2" points="109.35 38.52 109.35 45.26 103.69 63.8 97.71 63.8 97.71 42.98 109.35 38.52"/><polygon class="cls-2" points="125.02 28.18 125.02 14.28 113.38 14.28 113.38 32.63 125.02 28.18"/><polygon class="cls-2" points="125.02 32.53 117.05 35.58 125.02 38.62 125.02 32.53"/><polygon class="cls-2" points="113.38 38.52 113.38 45.26 119.04 63.8 125.02 63.8 125.02 42.98 113.38 38.52"/></svg>