<svg id="Layer_1" data-name="Layer 1" xmlns="http://www.w3.org/2000/svg" viewBox="0 0 1033.85 610.46"><defs><style>.cls-1,.cls-3{fill:#464646;}.cls-2{fill:none;stroke:#20b6af;stroke-miterlimit:10;stroke-width:2px;}.cls-3{font-size:72px;font-family:Roboto-Regular, Roboto;}.cls-4{letter-spacing:-0.01em;}</style></defs><path class="cls-1" d="M111.59,254.16H32.44V85.68h74.88c42.52,0,60.7,18.19,60.7,45.74,0,19-12.84,32.35-31,35.29,20.32,3.75,36.1,17.11,36.1,41.18,0,29.15-22.19,46.27-61.51,46.27M65.07,155.75h40.11c20,0,28.61-8.83,28.61-21.39s-8.56-21.66-28.61-21.66H65.07Zm0,25.41v46h42.78c20.86,0,31-8.82,31-22.73,0-14.18-10.16-23.26-31-23.26Z"/><path class="cls-1" d="M293,225.54c0,6.16,3.21,9.09,8.29,9.09a23.23,23.23,0,0,0,9.89-2.4v17.12c-5.08,4-11.5,7.48-22.2,7.48-13.36,0-23.53-8.55-25.93-22.73-6.69,13.9-21.66,23-41.19,23-22.46,0-37.43-12-37.43-32.35,0-22.46,17.65-31.82,44.92-36.9l32.36-6.15v-3.48c0-13.1-7-21.12-20.59-21.12-13.38,0-20.59,8-23.27,19.51l-29.15-2.67c4-24.06,22.47-40.91,53.75-40.91C272.9,133,293,147.45,293,178.48Zm-31.29-26.47-22.2,4.55c-14.7,2.93-23.79,6.68-23.79,17.65,0,8.29,5.88,14.44,16.31,14.44,16.84,0,29.68-12.57,29.68-32.63Z"/><path class="cls-1" d="M555.83,214.85c-5.88,26.74-26.74,42.51-57,42.51-36.37,0-62.58-23.26-62.58-60.43S462.77,133,498.06,133c38.51,0,58.31,26.74,58.31,58.83V202H467.85c1.07,19.25,14.71,31,32.09,31,15.78,0,25.4-6.95,29.95-20.86Zm-30.75-29.69c-.54-15.24-9.36-28.61-27.28-28.61-17.65,0-27.54,12.84-29.41,28.61Z"/><path class="cls-1" d="M656.44,167.78a35.7,35.7,0,0,0-19.25-5.08c-16.59,0-27.81,11.77-27.81,33.16v58.3H577.29V136.22h32.09v22.47C613.65,145.32,626,133,642.26,133c7.22,0,13.11,1.87,16.58,4.81Z"/><path class="cls-1" d="M672.35,85.68h32.9V117h-32.9ZM705,254.16H672.88V136.22H705Z"/><path class="cls-1" d="M763.49,254.16H731.4V136.22h32.09v19.26C769.37,142.11,784.35,133,802,133c31.56,0,43.06,21.39,43.06,47.6v73.54H813V187c0-18.18-7.22-28.61-23-28.61-16.31,0-26.47,12.84-26.47,32.63Z"/><path class="cls-1" d="M972.59,225.54c0,6.16,3.2,9.09,8.29,9.09a23.23,23.23,0,0,0,9.89-2.4v17.12c-5.08,4-11.5,7.48-22.2,7.48-13.37,0-23.54-8.55-25.93-22.73-6.69,13.9-21.67,23-41.18,23-22.47,0-37.45-12-37.45-32.35,0-22.46,17.65-31.82,44.93-36.9l32.36-6.15v-3.48c0-13.1-7-21.12-20.59-21.12-13.38,0-20.6,8-23.27,19.51l-29.15-2.67C872.3,149.87,890.76,133,922,133c30.48,0,50.55,14.43,50.55,45.46ZM941.3,199.07l-22.2,4.55c-14.71,2.93-23.8,6.68-23.8,17.65,0,8.29,5.89,14.44,16.31,14.44,16.85,0,29.69-12.57,29.69-32.63Z"/><polygon class="cls-1" points="325.12 129.49 325.12 80.84 365.84 80.84 365.84 145.07 325.12 129.49"/><polygon class="cls-1" points="325.12 144.72 352.99 155.38 325.12 166.04 325.12 144.72"/><polygon class="cls-1" points="365.84 165.69 365.84 189.25 346.04 254.16 325.12 254.16 325.12 181.27 365.84 165.69"/><polygon class="cls-1" points="420.69 129.49 420.69 80.84 379.96 80.84 379.96 145.07 420.69 129.49"/><polygon class="cls-1" points="420.69 144.72 392.81 155.38 420.69 166.04 420.69 144.72"/><polygon class="cls-1" points="379.96 165.69 379.96 189.25 399.75 254.16 420.69 254.16 420.69 181.27 379.96 165.69"/><polyline class="cls-2" points="32.44 289.86 32.44 329.55 990.77 329.55 990.77 289.86"/><line class="cls-2" x1="511.6" y1="329.39" x2="511.6" y2="402.48"/><text class="cls-3" transform="translate(201.67 510.11)">Measu<tspan class="cls-4" x="216.98" y="0">r</tspan><tspan x="240.68" y="0">ement A</tspan><tspan class="cls-4" x="508.11" y="0">r</tspan><tspan x="531.81" y="0">ea</tspan></text></svg>