<svg id="Layer_1" data-name="Layer 1" xmlns="http://www.w3.org/2000/svg" viewBox="0 0 1200 800"><defs><style>.cls-1{fill:#464646;}.cls-2{fill:#41c4be;}</style></defs><path class="cls-1" d="M104.37,454.61H53.53V346.4h48.1c27.3,0,39,11.68,39,29.38,0,12.19-8.25,20.78-19.93,22.67,13.06,2.4,23.19,11,23.19,26.45,0,18.72-14.26,29.71-39.51,29.71M74.49,391.4h25.76c12.88,0,18.38-5.66,18.38-13.74s-5.5-13.91-18.38-13.91H74.49Zm0,16.32v29.54H102c13.4,0,19.92-5.66,19.92-14.59,0-9.11-6.52-14.95-19.92-14.95Z"/><path class="cls-1" d="M220.86,436.23c0,3.95,2.07,5.84,5.33,5.84a15,15,0,0,0,6.35-1.54v11a21.3,21.3,0,0,1-14.25,4.81c-8.59,0-15.12-5.5-16.66-14.6-4.3,8.93-13.92,14.77-26.46,14.77-14.42,0-24-7.73-24-20.78,0-14.43,11.33-20.44,28.85-23.71l20.78-3.94v-2.24c0-8.42-4.46-13.56-13.22-13.56-8.59,0-13.23,5.14-14.94,12.53l-18.72-1.72c2.57-15.45,14.43-26.27,34.52-26.27,19.58,0,32.46,9.27,32.46,29.19Zm-20.1-17-14.25,2.92c-9.45,1.89-15.29,4.29-15.29,11.33,0,5.33,3.78,9.28,10.48,9.28,10.82,0,19.06-8.07,19.06-21Z"/><path class="cls-1" d="M389.7,429.36c-3.77,17.18-17.17,27.31-36.58,27.31-23.36,0-40.19-14.94-40.19-38.81s17-41.05,39.67-41.05c24.74,0,37.45,17.17,37.45,37.78v6.53H333.2c.68,12.36,9.44,19.92,20.61,19.92,10.13,0,16.32-4.46,19.23-13.4ZM370,410.3c-.34-9.79-6-18.38-17.52-18.38-11.33,0-17.69,8.25-18.89,18.38Z"/><path class="cls-1" d="M454.33,399.13A23,23,0,0,0,442,395.87c-10.65,0-17.86,7.56-17.86,21.3v37.44H403.49V378.86H424.1V393.3c2.75-8.59,10.65-16.49,21.13-16.49,4.63,0,8.41,1.2,10.64,3.09Z"/><path class="cls-1" d="M464.55,346.4h21.12v20.1H464.55ZM485.5,454.61H464.89V378.86H485.5Z"/><path class="cls-1" d="M523.09,454.61H502.48V378.87h20.61v12.36c3.77-8.59,13.39-14.42,24.73-14.42,20.27,0,27.65,13.73,27.65,30.57v47.23H554.86V411.5c0-11.68-4.64-18.38-14.77-18.38-10.48,0-17,8.25-17,21Z"/><path class="cls-1" d="M657.39,436.23c0,3.95,2.06,5.84,5.32,5.84a15,15,0,0,0,6.36-1.54v11a21.35,21.35,0,0,1-14.26,4.81c-8.58,0-15.11-5.5-16.66-14.6-4.29,8.93-13.91,14.77-26.45,14.77-14.43,0-24-7.73-24-20.78,0-14.43,11.33-20.44,28.85-23.71l20.78-3.94v-2.24c0-8.42-4.47-13.56-13.22-13.56-8.59,0-13.23,5.14-15,12.53l-18.72-1.72c2.58-15.45,14.43-26.27,34.53-26.27,19.58,0,32.46,9.27,32.46,29.19Zm-20.1-17L623,422.15c-9.45,1.89-15.29,4.29-15.29,11.33,0,5.33,3.78,9.28,10.48,9.28,10.82,0,19.06-8.07,19.06-21Z"/><polygon class="cls-1" points="241.52 374.54 241.52 343.29 267.68 343.29 267.68 384.54 241.52 374.54"/><polygon class="cls-1" points="241.52 384.32 259.42 391.17 241.52 398.01 241.52 384.32"/><polygon class="cls-1" points="267.68 397.79 267.68 412.92 254.96 454.61 241.52 454.61 241.52 407.8 267.68 397.79"/><polygon class="cls-1" points="302.9 374.54 302.9 343.29 276.74 343.29 276.74 384.54 302.9 374.54"/><polygon class="cls-1" points="302.9 384.32 285 391.17 302.9 398.01 302.9 384.32"/><polygon class="cls-1" points="276.74 397.79 276.74 412.92 289.46 454.61 302.9 454.61 302.9 407.8 276.74 397.79"/><path class="cls-2" d="M839.07,428.77c-3.67,17.29-16.24,27.94-34.74,27.94-22,0-38.41-15.54-38.41-38.94,0-23.91,16.24-41,37.71-41,23.74,0,35.61,17.11,35.61,37.71v4.89H776.92c.7,16.75,12.39,28.63,27.41,28.63,14,0,22.52-7,25.66-20.42ZM827.9,411.84c-.36-14-8.21-26.71-24.27-26.71-15,0-24.79,12.57-26.54,26.71Z"/><path class="cls-2" d="M867.52,454.61H856.87V378.85h10.65v14c3.66-9.26,14.14-16.06,25.48-16.06,19.55,0,27.76,12.73,27.76,30.89v47H910.11V407.3c0-13.44-7-22.17-19.9-22.17-12.05,0-22.69,9.43-22.69,24.09Z"/><path class="cls-2" d="M945.2,386.7H933.5v-5.24l4.54-.87c7-1.4,8.38-4.71,10-12l2.27-10.83h5.41v21.13h22v7.85h-22V438c0,6.8,2.79,10.12,9.78,10.12,5.23,0,10.47-2.62,14.84-5.23v7.5a28,28,0,0,1-18.51,6.29c-10.12,0-16.58-5.07-16.58-18.86Z"/><path class="cls-2" d="M1037.19,389.49c-4.36-2.26-7-3-11.52-3-11,0-19.9,11.34-19.9,26.53v41.55H995.12V378.85h10.65v15.88c3-8.72,10.65-18,21.82-18,4.71,0,8,1.05,10.83,3.5Z"/><path class="cls-2" d="M1108.94,441.87c0,4,2.44,5.94,6.28,5.94a15.55,15.55,0,0,0,6.81-1.92v5.75c-2.27,2.62-4.71,4.54-10,4.54-7.51,0-12.92-6.45-13.27-16.06-4,8.91-15.19,16.59-28.1,16.59-14.14,0-23.57-7.86-23.57-20.95,0-14.32,12.57-20.08,31.42-23.92l20.25-4.19v-3.84c0-11.52-6.8-18.68-18.68-18.68-12.22,0-19,7.16-21.64,16.94l-9.08-1.75c3-13.62,14.14-23.57,30.55-23.57,18.85,0,29,9.95,29,28.63Zm-10.13-26.36-18.5,4c-13.79,3-22.35,5.77-22.35,15.89,0,7.16,4.72,13.09,14.67,13.09,14.84,0,26.18-11.34,26.18-28.28Z"/><rect class="cls-2" x="1135.82" y="344.63" width="10.65" height="109.98"/><path class="cls-2" d="M743,423.21c-1.29,14.12-10.14,24.6-25.76,24.6-15.89,0-26.71-12.4-26.71-31.08s10.82-31.08,26.71-31.08c15.49,0,24.32,10,25.72,23.91l9.77-.71c-1.77-17.83-13.58-32.1-35.14-32.1-22.52,0-38.23,15.89-38.23,40s15.71,40,38.23,40c21.7,0,33.52-14.45,35.18-32.43Z"/></svg>