<svg id="Layer_1" data-name="Layer 1" xmlns="http://www.w3.org/2000/svg" viewBox="0 0 1200 800"><defs><style>.cls-1{fill:#585a5e;}.cls-2{opacity:0.51;font-size:110.51px;fill:#f1f2f2;font-family:Roboto-Bold, Roboto;font-weight:700;}.cls-3{letter-spacing:-0.01em;}.cls-4{letter-spacing:0em;}.cls-5{fill:#fff;}.cls-6{fill:#be1e2d;stroke:#be1e2d;stroke-miterlimit:10;stroke-width:8px;}</style></defs><rect class="cls-1" y="147.08" width="1200" height="505.85"/><text class="cls-2" transform="translate(-0.09 235.03)">Lo<tspan class="cls-3" x="122.32" y="0">r</tspan><tspan class="cls-4" x="161.61" y="0">em ipsum dolor </tspan><tspan x="0" y="132.61">sit amet, consectetur </tspan><tspan x="0" y="265.22">adipiscing elit, sed </tspan><tspan x="0" y="397.83">do eiusmod tempor incididunt </tspan></text><path class="cls-5" d="M195.5,485.05H116.34V316.58h74.88c42.52,0,60.7,18.19,60.7,45.73,0,19-12.83,32.36-31,35.3,20.33,3.74,36.11,17.11,36.11,41.18,0,29.15-22.2,46.26-61.51,46.26M149,386.64h40.11c20.06,0,28.61-8.82,28.61-21.38s-8.55-21.67-28.61-21.67H149Zm0,25.41v46h42.79c20.85,0,31-8.82,31-22.73,0-14.17-10.17-23.26-31-23.26Z"/><path class="cls-5" d="M376.86,456.44c0,6.16,3.21,9.09,8.29,9.09a23.22,23.22,0,0,0,9.89-2.41v17.12c-5.07,4-11.49,7.49-22.19,7.49-13.37,0-23.53-8.56-25.94-22.73-6.68,13.9-21.66,23-41.18,23-22.47,0-37.44-12-37.44-32.35,0-22.47,17.65-31.83,44.92-36.91l32.36-6.15v-3.47C345.57,396,338.62,388,325,388c-13.37,0-20.59,8-23.26,19.51l-29.15-2.67c4-24.07,22.46-40.91,53.75-40.91,30.48,0,50.54,14.43,50.54,45.45ZM345.57,430l-22.19,4.55c-14.71,2.93-23.8,6.68-23.8,17.64,0,8.3,5.88,14.44,16.31,14.44,16.85,0,29.68-12.56,29.68-32.62Z"/><path class="cls-5" d="M639.73,445.75c-5.88,26.73-26.74,42.51-57,42.51-36.37,0-62.57-23.26-62.57-60.43s26.47-63.91,61.77-63.91c38.51,0,58.3,26.74,58.3,58.82V432.9H551.75c1.07,19.26,14.71,31,32.09,31,15.78,0,25.41-6.94,29.95-20.85ZM609,416.06c-.53-15.24-9.36-28.61-27.28-28.61-17.64,0-27.54,12.83-29.41,28.61Z"/><path class="cls-5" d="M740.34,398.68a35.7,35.7,0,0,0-19.25-5.08c-16.58,0-27.81,11.76-27.81,33.15v58.3H661.19V367.12h32.09v22.47c4.27-13.38,16.57-25.67,32.89-25.67,7.22,0,13.1,1.87,16.58,4.81Z"/><path class="cls-5" d="M756.26,316.58h32.89v31.29H756.26Zm32.62,168.47H756.79V367.12h32.09Z"/><path class="cls-5" d="M847.4,485.05H815.31V367.12H847.4v19.26c5.88-13.37,20.85-22.46,38.5-22.46,31.55,0,43.05,21.39,43.05,47.59v73.54H896.86V417.93c0-18.18-7.22-28.61-23-28.61-16.32,0-26.47,12.83-26.47,32.62Z"/><path class="cls-5" d="M1056.49,456.44c0,6.16,3.21,9.09,8.29,9.09a23.22,23.22,0,0,0,9.89-2.41v17.12c-5.08,4-11.5,7.49-22.19,7.49-13.37,0-23.54-8.56-25.94-22.73-6.69,13.9-21.67,23-41.18,23-22.47,0-37.44-12-37.44-32.35,0-22.47,17.65-31.83,44.92-36.91l32.36-6.15v-3.47c0-13.11-7-21.12-20.59-21.12-13.38,0-20.59,8-23.26,19.51l-29.15-2.67c4-24.07,22.46-40.91,53.75-40.91,30.48,0,50.54,14.43,50.54,45.45ZM1025.2,430,1003,434.52c-14.71,2.93-23.8,6.68-23.8,17.64,0,8.3,5.88,14.44,16.31,14.44,16.84,0,29.68-12.56,29.68-32.62Z"/><polygon class="cls-5" points="409.02 360.38 409.02 311.74 449.75 311.74 449.75 375.96 409.02 360.38"/><polygon class="cls-5" points="409.02 375.61 436.89 386.27 409.02 396.93 409.02 375.61"/><polygon class="cls-5" points="449.75 396.59 449.75 420.15 429.94 485.05 409.02 485.05 409.02 412.17 449.75 396.59"/><polygon class="cls-5" points="504.59 360.38 504.59 311.74 463.86 311.74 463.86 375.96 504.59 360.38"/><polygon class="cls-5" points="504.59 375.61 476.71 386.27 504.59 396.93 504.59 375.61"/><polygon class="cls-5" points="463.86 396.59 463.86 420.15 483.66 485.05 504.59 485.05 504.59 412.17 463.86 396.59"/><line class="cls-6" x1="1083.66" y1="86.15" x2="125.33" y2="713.85"/><line class="cls-6" x1="125.33" y1="86.15" x2="1083.66" y2="713.85"/></svg>