<svg id="Layer_1" data-name="Layer 1" xmlns="http://www.w3.org/2000/svg" viewBox="0 0 1200 800"><defs><style>.cls-1{fill:#52c3c2;}.cls-2{fill:#fff;}</style></defs><rect class="cls-1" width="1200" height="800"/><path class="cls-2" d="M200,485.05H120.84V316.58h74.87c42.52,0,60.7,18.19,60.7,45.73,0,19-12.83,32.36-31,35.3,20.33,3.74,36.11,17.11,36.11,41.18,0,29.15-22.2,46.26-61.51,46.26m-46.53-98.41h40.11c20.06,0,28.61-8.82,28.61-21.38s-8.55-21.67-28.61-21.67H153.46Zm0,25.41v46h42.79c20.85,0,31-8.82,31-22.73,0-14.17-10.17-23.26-31-23.26Z"/><path class="cls-2" d="M381.35,456.44c0,6.16,3.21,9.09,8.29,9.09a23.22,23.22,0,0,0,9.89-2.41v17.12c-5.07,4-11.49,7.49-22.19,7.49-13.37,0-23.53-8.56-25.94-22.73-6.68,13.9-21.66,23-41.18,23-22.46,0-37.44-12-37.44-32.35,0-22.47,17.65-31.83,44.93-36.91l32.35-6.15v-3.47c0-13.11-6.95-21.12-20.58-21.12-13.38,0-20.6,8-23.27,19.51l-29.15-2.67c4-24.07,22.47-40.91,53.75-40.91,30.49,0,50.54,14.43,50.54,45.45ZM350.06,430l-22.19,4.55c-14.71,2.93-23.8,6.68-23.8,17.64,0,8.3,5.88,14.44,16.31,14.44,16.85,0,29.68-12.56,29.68-32.62Z"/><path class="cls-2" d="M644.22,445.75c-5.88,26.73-26.73,42.51-57,42.51-36.37,0-62.57-23.26-62.57-60.43s26.47-63.91,61.77-63.91c38.51,0,58.3,26.74,58.3,58.82V432.9H556.25c1.06,19.26,14.7,31,32.08,31,15.78,0,25.41-6.94,29.95-20.85Zm-30.75-29.69c-.53-15.24-9.36-28.61-27.27-28.61-17.65,0-27.55,12.83-29.42,28.61Z"/><path class="cls-2" d="M744.83,398.68a35.7,35.7,0,0,0-19.25-5.08c-16.58,0-27.81,11.76-27.81,33.15v58.3H665.68V367.12h32.09v22.47c4.28-13.38,16.58-25.67,32.89-25.67,7.22,0,13.1,1.87,16.58,4.81Z"/><path class="cls-2" d="M760.75,316.58h32.89v31.29H760.75Zm32.62,168.47H761.28V367.12h32.09Z"/><path class="cls-2" d="M851.89,485.05H819.8V367.12h32.09v19.26c5.88-13.37,20.85-22.46,38.5-22.46,31.55,0,43.05,21.39,43.05,47.59v73.54H901.35V417.93c0-18.18-7.21-28.61-23-28.61-16.31,0-26.47,12.83-26.47,32.62Z"/><path class="cls-2" d="M1061,456.44c0,6.16,3.21,9.09,8.29,9.09a23.22,23.22,0,0,0,9.89-2.41v17.12c-5.08,4-11.5,7.49-22.19,7.49-13.37,0-23.54-8.56-25.94-22.73-6.68,13.9-21.67,23-41.18,23-22.47,0-37.44-12-37.44-32.35,0-22.47,17.65-31.83,44.92-36.91l32.36-6.15v-3.47c0-13.11-7-21.12-20.59-21.12-13.38,0-20.59,8-23.26,19.51l-29.15-2.67c4-24.07,22.46-40.91,53.75-40.91,30.48,0,50.54,14.43,50.54,45.45ZM1029.69,430l-22.19,4.55c-14.71,2.93-23.8,6.68-23.8,17.64,0,8.3,5.88,14.44,16.31,14.44,16.84,0,29.68-12.56,29.68-32.62Z"/><polygon class="cls-2" points="413.51 360.38 413.51 311.74 454.24 311.74 454.24 375.96 413.51 360.38"/><polygon class="cls-2" points="413.51 375.61 441.39 386.27 413.51 396.93 413.51 375.61"/><polygon class="cls-2" points="454.24 396.59 454.24 420.15 434.44 485.05 413.51 485.05 413.51 412.17 454.24 396.59"/><polygon class="cls-2" points="509.08 360.38 509.08 311.74 468.35 311.74 468.35 375.96 509.08 360.38"/><polygon class="cls-2" points="509.08 375.61 481.2 386.27 509.08 396.93 509.08 375.61"/><polygon class="cls-2" points="468.35 396.59 468.35 420.15 488.15 485.05 509.08 485.05 509.08 412.17 468.35 396.59"/></svg>