<svg xmlns="http://www.w3.org/2000/svg" xmlns:xlink="http://www.w3.org/1999/xlink" viewBox="0 0 1200 800"><defs><style>.cls-1{fill:none;}.cls-2{isolation:isolate;}.cls-3{mix-blend-mode:multiply;}.cls-4{clip-path:url(#clip-path);}.cls-5{fill:#606060;}.cls-6{fill:#464646;}</style><clipPath id="clip-path"><rect class="cls-1" x="363.55" y="492.5" width="472.9" height="49.64"/></clipPath></defs><g class="cls-2"><g id="Layer_1" data-name="Layer 1"><g class="cls-3"><g class="cls-4"><path class="cls-5" d="M388.7,493.84c6.38,0,11.67.4,15.76,4.23,3.62,3.35,4.36,7.58,4.36,11.19S408.15,517,405,520.4c-4.3,4.62-10.32,4.9-17.1,4.9h-12v15.49H363.55V493.84Zm-12.81,22.33H387c2.34,0,5.63-.33,7.3-1.94a6.64,6.64,0,0,0,1.75-4.83,5.54,5.54,0,0,0-2.28-4.83c-.47-.34-2.15-1.34-6-1.34H375.89Z"/><polygon class="cls-5" points="461.37 540.8 423.33 540.8 423.33 493.84 435.67 493.84 435.67 531.27 461.37 531.27 461.37 540.8"/><path class="cls-5" d="M485.16,540.79H472.29l21-46.95h12.15l21.06,46.95H513.66l-4.09-9.52H489.25Zm21.46-17.57-7.24-17.57-7.11,17.57Z"/><polygon class="cls-5" points="529.03 503.23 529.03 493.84 574.11 493.84 574.11 503.23 557.74 503.23 557.74 540.8 545.4 540.8 545.4 503.23 529.03 503.23"/><polygon class="cls-5" points="623.57 513.43 623.57 522.28 600.09 522.28 600.09 540.79 587.75 540.79 587.75 493.84 628.67 493.84 628.67 503.23 600.09 503.23 600.09 513.43 623.57 513.43"/><path class="cls-5" d="M688,535.3c-3.56,3.15-9.8,6.83-20.53,6.83s-17-3.68-20.52-6.83c-6.31-5.64-7.38-12.48-7.38-18s1.07-12.34,7.38-18c3.55-3.15,9.79-6.84,20.52-6.84s17,3.69,20.53,6.84c6.3,5.63,7.37,12.48,7.37,18s-1.07,12.35-7.37,18m-30.73-29.79c-3.89,3.82-4.28,9.12-4.28,11.8s.39,8,4.28,11.81c3.23,3.16,7,3.62,10.2,3.62s7-.46,10.2-3.62c3.88-3.82,4.29-9.12,4.29-11.81s-.41-8-4.29-11.8c-3.22-3.16-7-3.62-10.2-3.62s-7,.46-10.2,3.62"/><path class="cls-5" d="M711.41,493.84h27.77c4.62,0,11.33.33,15.22,4.23,2.75,2.74,3.22,6.36,3.22,8.92,0,3.15-.74,6-3.08,8.31a13.39,13.39,0,0,1-6,3.29v.27a10,10,0,0,1,5.5,2.81c2.21,2.29,2.21,4.7,2.35,7.11l.33,5.3a13.41,13.41,0,0,0,2,6.71H745.55a9.86,9.86,0,0,1-1.81-6l-.2-3.89c-.14-2.89-1.08-4.76-2.22-5.7-1.34-1.14-3.89-1.68-6-1.68H723.75v17.24H711.41Zm12.34,20.86h13.08c2.08,0,4.76-.14,6.5-1.88a5.6,5.6,0,0,0,1.54-4,5.18,5.18,0,0,0-2.27-4.55c-1.48-.94-4.56-1-5.91-1H723.75Z"/><polygon class="cls-5" points="787.01 505.85 786.55 505.85 787.01 509.8 787.01 540.79 774.68 540.79 774.68 493.84 792.11 493.84 805.39 527.91 805.73 527.91 819.01 493.84 836.45 493.84 836.45 540.79 824.11 540.79 824.11 509.8 824.58 505.85 824.11 505.85 810.02 540.79 801.1 540.79 787.01 505.85"/></g></g><path class="cls-6" d="M178.1,440.66H94.61V263h79c44.84,0,64,19.18,64,48.23,0,20-13.54,34.13-32.72,37.23,21.44,3.95,38.08,18.05,38.08,43.43,0,30.75-23.41,48.8-64.87,48.8M129,336.86h42.3c21.15,0,30.18-9.3,30.18-22.55s-9-22.85-30.18-22.85H129Zm0,26.8v48.51h45.12c22,0,32.72-9.3,32.72-24,0-14.95-10.72-24.54-32.72-24.54Z"/><path class="cls-6" d="M369.39,410.48c0,6.49,3.38,9.59,8.74,9.59a24.47,24.47,0,0,0,10.43-2.54v18.06c-5.35,4.22-12.12,7.89-23.4,7.89-14.11,0-24.83-9-27.36-24-7.05,14.66-22.85,24.25-43.44,24.25-23.69,0-39.49-12.69-39.49-34.12,0-23.7,18.62-33.57,47.39-38.93l34.12-6.49v-3.66c0-13.82-7.33-22.28-21.71-22.28-14.11,0-21.72,8.46-24.54,20.58L259.39,356c4.23-25.38,23.69-43.14,56.69-43.14,32.15,0,53.31,15.22,53.31,47.94Zm-33-27.92-23.4,4.8c-15.52,3.09-25.1,7-25.1,18.61,0,8.75,6.2,15.23,17.2,15.23,17.77,0,31.3-13.25,31.3-34.41Z"/><path class="cls-6" d="M646.64,399.2c-6.2,28.2-28.2,44.84-60.07,44.84-38.36,0-66-24.53-66-63.74s27.92-67.4,65.15-67.4c40.62,0,61.49,28.2,61.49,62v10.72H553.85c1.13,20.31,15.51,32.72,33.84,32.72,16.65,0,26.8-7.33,31.6-22Zm-32.43-31.31c-.57-16.07-9.87-30.18-28.77-30.18-18.61,0-29.05,13.54-31,30.18Z"/><path class="cls-6" d="M752.76,349.56a37.68,37.68,0,0,0-20.31-5.36c-17.49,0-29.33,12.41-29.33,35v61.49H669.28V316.27h33.84V340c4.51-14.11,17.48-27.07,34.69-27.07,7.61,0,13.82,2,17.49,5.07Z"/><path class="cls-6" d="M769.54,263h34.7v33h-34.7ZM804,440.66H770.11V316.27H804Z"/><path class="cls-6" d="M865.67,440.66H831.83V316.27h33.84v20.31c6.2-14.1,22-23.68,40.61-23.68,33.28,0,45.41,22.56,45.41,50.19v77.57H917.84v-70.8c0-19.18-7.61-30.17-24.25-30.17-17.2,0-27.92,13.54-27.92,34.4Z"/><path class="cls-6" d="M1086.21,410.48c0,6.49,3.38,9.59,8.74,9.59a24.51,24.51,0,0,0,10.44-2.54v18.06c-5.36,4.22-12.13,7.89-23.41,7.89-14.11,0-24.83-9-27.36-24-7,14.66-22.85,24.25-43.44,24.25-23.69,0-39.49-12.69-39.49-34.12,0-23.7,18.62-33.57,47.39-38.93l34.12-6.49v-3.66c0-13.82-7.33-22.28-21.71-22.28-14.11,0-21.72,8.46-24.54,20.58L976.21,356c4.22-25.38,23.69-43.14,56.69-43.14,32.15,0,53.31,15.22,53.31,47.94Zm-33-27.92-23.4,4.8c-15.52,3.09-25.1,7-25.1,18.61,0,8.75,6.2,15.23,17.2,15.23,17.77,0,31.3-13.25,31.3-34.41Z"/><polygon class="cls-6" points="403.3 309.17 403.3 257.86 446.26 257.86 446.26 325.6 403.3 309.17"/><polygon class="cls-6" points="403.3 325.23 432.71 336.48 403.3 347.72 403.3 325.23"/><polygon class="cls-6" points="446.26 347.36 446.26 372.2 425.37 440.66 403.3 440.66 403.3 363.79 446.26 347.36"/><polygon class="cls-6" points="504.11 309.17 504.11 257.86 461.15 257.86 461.15 325.6 504.11 309.17"/><polygon class="cls-6" points="504.11 325.23 474.7 336.48 504.11 347.72 504.11 325.23"/><polygon class="cls-6" points="461.15 347.36 461.15 372.2 482.03 440.66 504.11 440.66 504.11 363.79 461.15 347.36"/></g></g></svg>