<svg id="Layer_1" data-name="Layer 1" xmlns="http://www.w3.org/2000/svg" viewBox="0 0 1200 800"><defs><style>.cls-1{fill:#464646;}.cls-2{fill:#be1e2d;stroke:#be1e2d;stroke-miterlimit:10;stroke-width:8px;}</style></defs><path class="cls-1" d="M407.25,453.38H349.37V330.18h54.75c31.1,0,44.39,13.3,44.39,33.45,0,13.88-9.38,23.66-22.68,25.81,14.86,2.74,26.4,12.51,26.4,30.11,0,21.32-16.23,33.83-45,33.83m-34-72h29.33c14.67,0,20.92-6.45,20.92-15.64s-6.25-15.84-20.92-15.84H373.23Zm0,18.58v33.63h31.29c15.25,0,22.68-6.45,22.68-16.62,0-10.37-7.43-17-22.68-17Z"/><path class="cls-1" d="M539.88,432.46c0,4.5,2.34,6.65,6.06,6.65a17.11,17.11,0,0,0,7.23-1.76v12.52a24.33,24.33,0,0,1-16.23,5.47c-9.77,0-17.21-6.26-19-16.62-4.88,10.16-15.83,16.81-30.11,16.81-16.43,0-27.38-8.79-27.38-23.65,0-16.44,12.91-23.28,32.85-27l23.66-4.5v-2.54c0-9.59-5.08-15.45-15.05-15.45-9.78,0-15.06,5.86-17,14.27l-21.32-1.95c2.93-17.6,16.43-29.92,39.31-29.92,22.29,0,37,10.55,37,33.24ZM517,413.1l-16.22,3.33c-10.76,2.14-17.41,4.88-17.41,12.9,0,6.07,4.3,10.56,11.93,10.56,12.32,0,21.7-9.19,21.7-23.86Z"/><path class="cls-1" d="M732.1,424.64c-4.3,19.55-19.55,31.09-41.65,31.09-26.59,0-45.76-17-45.76-44.19s19.36-46.74,45.17-46.74c28.16,0,42.64,19.55,42.64,43v7.43H667.77c.78,14.08,10.75,22.68,23.46,22.68,11.54,0,18.58-5.08,21.91-15.25Zm-22.48-21.71c-.39-11.14-6.85-20.92-20-20.92-12.9,0-20.14,9.38-21.51,20.92Z"/><path class="cls-1" d="M805.68,390.22a26.16,26.16,0,0,0-14.08-3.71c-12.13,0-20.34,8.6-20.34,24.24v42.63H747.8V367.14h23.46v16.43c3.13-9.78,12.12-18.77,24-18.77,5.28,0,9.58,1.37,12.13,3.52Z"/><path class="cls-1" d="M817.31,330.18h24.06v22.89H817.31Zm23.86,123.2H817.7V367.14h23.47Z"/><path class="cls-1" d="M884,453.38H860.5V367.14H884v14.08c4.3-9.77,15.25-16.42,28.16-16.42,23.07,0,31.48,15.64,31.48,34.81v53.77H920.13V404.3c0-13.3-5.27-20.92-16.81-20.92-11.93,0-19.36,9.38-19.36,23.85Z"/><path class="cls-1" d="M1036.86,432.46c0,4.5,2.35,6.65,6.07,6.65a17.07,17.07,0,0,0,7.23-1.76v12.52a24.35,24.35,0,0,1-16.23,5.47c-9.78,0-17.21-6.26-19-16.62-4.89,10.16-15.84,16.81-30.11,16.81-16.43,0-27.38-8.79-27.38-23.65,0-16.44,12.9-23.28,32.85-27l23.66-4.5v-2.54c0-9.59-5.08-15.45-15.05-15.45-9.78,0-15.06,5.86-17,14.27l-21.32-1.95c2.93-17.6,16.42-29.92,39.3-29.92,22.29,0,37,10.55,37,33.24ZM1014,413.1l-16.23,3.33c-10.75,2.14-17.4,4.88-17.4,12.9,0,6.07,4.3,10.56,11.93,10.56,12.32,0,21.7-9.19,21.7-23.86Z"/><polygon class="cls-1" points="563.39 362.22 563.39 326.65 593.17 326.65 593.17 373.61 563.39 362.22"/><polygon class="cls-1" points="563.39 373.35 583.78 381.15 563.39 388.94 563.39 373.35"/><polygon class="cls-1" points="593.17 388.69 593.17 405.92 578.69 453.38 563.39 453.38 563.39 400.08 593.17 388.69"/><polygon class="cls-1" points="633.28 362.22 633.28 326.65 603.5 326.65 603.5 373.61 633.28 362.22"/><polygon class="cls-1" points="633.28 373.35 612.89 381.15 633.28 388.94 633.28 373.35"/><polygon class="cls-1" points="603.5 388.69 603.5 405.92 617.97 453.38 633.28 453.38 633.28 400.08 603.5 388.69"/><polygon class="cls-1" points="149.84 353.09 149.84 293.07 200.1 293.07 200.1 372.32 149.84 353.09"/><polygon class="cls-1" points="149.84 371.88 184.24 385.04 149.84 398.19 149.84 371.88"/><polygon class="cls-1" points="200.1 397.77 200.1 426.84 175.66 506.93 149.84 506.93 149.84 416.99 200.1 397.77"/><polygon class="cls-1" points="267.77 353.09 267.77 293.07 217.51 293.07 217.51 372.32 267.77 353.09"/><polygon class="cls-1" points="267.77 371.88 233.37 385.04 267.77 398.19 267.77 371.88"/><polygon class="cls-1" points="217.51 397.77 217.51 426.84 241.94 506.93 267.77 506.93 267.77 416.99 217.51 397.77"/><line class="cls-2" x1="1079.16" y1="86.15" x2="120.84" y2="713.85"/><line class="cls-2" x1="120.84" y1="86.15" x2="1079.16" y2="713.85"/></svg>