<svg id="Layer_1" data-name="Layer 1" xmlns="http://www.w3.org/2000/svg" viewBox="0 0 1200 800"><defs><style>.cls-1{fill:#585a5e;}.cls-2{fill:#464646;}</style></defs><path class="cls-1" d="M128.2,516.43c-.66,5.05-3.59,12.78-15,12.78-10.5,0-16.81-6.82-16.81-18.13,0-18.79,13.68-19.35,16.67-19.35,11.26,0,14.09,6.57,14.64,12H123c-.26-2.58-1.82-8-9.9-8-8.84,0-11.62,7.48-11.62,15.16,0,8.23,4.5,14.34,12,14.34,5.66,0,9.74-3.74,10-8.79Z"/><path class="cls-1" d="M138.19,492.79v35.36h-4.44V492.79Z"/><path class="cls-1" d="M156.63,501.48c9.34,0,12.63,7,12.63,13.84s-3.29,13.84-12.63,13.84-12.64-7-12.64-13.84S147.28,501.48,156.63,501.48Zm0,24.55c2,0,7.93-.46,7.93-10.76s-6-10.76-7.93-10.76-7.93.46-7.93,10.76S154.66,526,156.63,526Z"/><path class="cls-1" d="M192.28,528.15v-3.64h-.1c-2.57,4.45-7.78,4.65-8.69,4.65-7.58,0-8.43-5.81-8.43-9.65v-17h4.44v15.7c0,6.46,2.23,7.83,5.41,7.83,7.48,0,7.37-7.73,7.37-9.55v-14h4.45v25.65Z"/><path class="cls-1" d="M227,492.79v35.36h-4.14v-3.54h-.15c-.86,1.67-3.09,4.55-8.49,4.55-7.48,0-11.67-5.65-11.67-13.89,0-5.4,1.67-13.79,11.57-13.79,3.43,0,6.36.86,8.43,4.34v-13ZM215.16,526c3.89,0,7.68-2.93,7.68-10.86,0-7.42-3.69-10.55-7.93-10.55s-7.68,3.13-7.68,10.65C207.23,525,212.58,526,215.16,526Z"/><path class="cls-1" d="M251.42,528.15h-4.75V492.79h5.25l18.79,28v-28h4.75v35.36h-5.2l-18.84-28Z"/><path class="cls-1" d="M282.53,510.07c0-3.44,1.82-8.59,10.91-8.59,4.14,0,10.36,1.16,10.2,8.64L303.39,522c0,2-.05,3.18,2.68,3v3.13a7,7,0,0,1-2,.2c-2.53,0-4-.4-4.6-3.74-1.77,3.24-5.31,4.55-8.79,4.55-5.41,0-9-2.32-9-7.73,0-4.44,2.28-7.17,12.58-8.13,3.79-.25,5-.2,5-3.54,0-1.21-.1-5.14-5.76-5.14-1.62,0-6.82.09-6.67,5.45ZM299.2,515c-1.31,1.06-2.83.86-5.66,1.26-3.94.66-7.33.86-7.33,5,0,3,2.08,4.75,5,4.75,3.48,0,7.52-1.72,7.93-8.84Z"/><path class="cls-1" d="M312.93,502.5v-7.69h4.45v7.69h5.45v3.13h-5.45v16.3c0,1.88-.16,3.55,2.67,3.55a9.75,9.75,0,0,0,2.78-.46v3.13a12.1,12.1,0,0,1-4.65,1c-5.3,0-5.25-3.63-5.25-6.31V505.63h-4.59V502.5Z"/><path class="cls-1" d="M327.38,492.79h4.44v4.65h-4.44Zm4.44,9.71v25.65h-4.44V502.5Z"/><path class="cls-1" d="M354.5,502.5h4.8l-9.5,25.65h-5.15l-9.5-25.65H340l7.27,21.21Z"/><path class="cls-1" d="M385.45,520.73c-.65,3.63-3.33,8.43-11.21,8.43-12.72,0-13-11.41-13-13.73,0-3.55.65-13.95,12.53-13.95,10.25,0,11.62,8,11.87,13.59,0,.4,0,.86,0,1.26H366c0,4.4,2.27,9.7,8.13,9.7,4.29,0,6.57-2.47,7.12-5.3ZM381,513.2c-.15-3.44-1.31-8.58-7.12-8.58-6.57,0-7.93,5.35-7.93,8.58Z"/><path class="cls-1" d="M418.33,492.79c7.22,0,12,2.83,12,10.16,0,6.62-3.28,11.11-12.43,11.11h-9.19v14.09h-4.75V492.79Zm-9.65,17.28h8.69c5.66,0,8.08-2.37,8.08-7,0-4.4-2.62-6.27-8.08-6.27h-8.69Z"/><path class="cls-1" d="M448.23,504.62c-6,.25-9.45,2.52-9.85,9a12.27,12.27,0,0,0-.05,1.36v13.18h-4.44V502.5h4.44v4.94h.1c1.21-3.79,4.9-5.76,8.49-5.91l1.31,0Z"/><path class="cls-1" d="M462.42,501.48c9.35,0,12.63,7,12.63,13.84s-3.28,13.84-12.63,13.84-12.63-7-12.63-13.84S453.07,501.48,462.42,501.48Zm0,24.55c2,0,7.93-.46,7.93-10.76s-6-10.76-7.93-10.76-7.93.46-7.93,10.76S460.45,526,462.42,526Z"/><path class="cls-1" d="M485.6,531c.81,3,4,3.69,6.77,3.69,7,0,7.07-6.62,7.07-8V524c-2.37,3.84-4.5,5.2-8.29,5.2-6.06,0-11.56-4.14-11.56-14,0-2.37,0-13.64,11.12-13.64,4.23,0,7.27,1.57,8.88,4.54h.15V502.5h4.15v25c0,9.86-9.05,10.41-11.52,10.41s-9.4.1-11-6.87Zm14.14-16c0-6.47-2.72-10.4-8-10.4-7.47,0-7.47,8.28-7.47,10.35,0,10.35,5.8,11.06,7.88,11.06C493.78,526,499.74,524.92,499.74,515Z"/><path class="cls-1" d="M525.5,504.62c-6,.25-9.45,2.52-9.85,9a12.27,12.27,0,0,0,0,1.36v13.18h-4.45V502.5h4.45v4.94h.1c1.21-3.79,4.9-5.76,8.48-5.91l1.32,0Z"/><path class="cls-1" d="M527.16,510.07c0-3.44,1.82-8.59,10.91-8.59,4.14,0,10.36,1.16,10.21,8.64L548,522c0,2,0,3.18,2.68,3v3.13a7,7,0,0,1-2,.2c-2.53,0-4-.4-4.6-3.74-1.76,3.24-5.3,4.55-8.79,4.55-5.4,0-9-2.32-9-7.73,0-4.44,2.26-7.17,12.57-8.13,3.79-.25,5-.2,5-3.54,0-1.21-.11-5.14-5.77-5.14-1.61,0-6.82.09-6.66,5.45ZM543.84,515c-1.32,1.06-2.84.86-5.67,1.26-3.93.66-7.32.86-7.32,5,0,3,2.07,4.75,4.95,4.75,3.49,0,7.52-1.72,7.93-8.84Z"/><path class="cls-1" d="M560.39,502.5V506l0,.3a8.84,8.84,0,0,1,7.92-4.8,7.11,7.11,0,0,1,7.33,5.5,9.59,9.59,0,0,1,8.88-5.5c7.88,0,8.24,7.27,8.24,10.11v16.56h-4.44V511.88c0-2.67-.36-7.26-5-7.26-3,0-6.76,1.61-6.76,8.23v15.3h-4.45V511.94c0-3.74-.91-7.32-5-7.32-3.68,0-6.77,3.18-6.77,8.23v15.3H556V502.5Z"/><path class="cls-1" d="M604.43,502.5V506l0,.3a8.86,8.86,0,0,1,7.93-4.8,7.12,7.12,0,0,1,7.33,5.5,9.6,9.6,0,0,1,8.88-5.5c7.88,0,8.24,7.27,8.24,10.11v16.56h-4.44V511.88c0-2.67-.36-7.26-5-7.26-3,0-6.78,1.61-6.78,8.23v15.3h-4.44V511.94c0-3.74-.91-7.32-4.95-7.32-3.69,0-6.77,3.18-6.77,8.23v15.3H600V502.5Z"/><path class="cls-1" d="M643.92,492.79h4.45v4.65h-4.45Zm4.45,9.71v25.65h-4.45V502.5Z"/><path class="cls-1" d="M660,502.5v3.58a10.39,10.39,0,0,1,8.78-4.6c6.72,0,8.44,4.5,8.44,9.6v17.07h-4.45V512.44c0-2.73.1-7.82-5.4-7.82-2.42,0-7.37,1.05-7.37,9.54v14h-4.45V502.5Z"/><path class="cls-1" d="M689.23,531c.8,3,4,3.69,6.77,3.69,7,0,7.07-6.62,7.07-8V524c-2.37,3.84-4.5,5.2-8.29,5.2-6.06,0-11.56-4.14-11.56-14,0-2.37,0-13.64,11.11-13.64,4.24,0,7.28,1.57,8.89,4.54h.15V502.5h4.14v25c0,9.86-9,10.41-11.51,10.41s-9.4.1-11-6.87Zm14.14-16c0-6.47-2.73-10.4-8-10.4-7.48,0-7.48,8.28-7.48,10.35,0,10.35,5.81,11.06,7.88,11.06C697.41,526,703.37,524.92,703.37,515Z"/><path class="cls-1" d="M749.93,528.15H727.21V492.79H732v31.37h18Z"/><path class="cls-1" d="M752.41,510.07c0-3.44,1.81-8.59,10.9-8.59,4.15,0,10.36,1.16,10.21,8.64L773.26,522c0,2,0,3.18,2.68,3v3.13a7,7,0,0,1-2,.2c-2.52,0-4-.4-4.6-3.74-1.76,3.24-5.3,4.55-8.79,4.55-5.4,0-9-2.32-9-7.73,0-4.44,2.28-7.17,12.58-8.13,3.79-.25,5-.2,5-3.54,0-1.21-.1-5.14-5.76-5.14-1.61,0-6.82.09-6.67,5.45ZM769.07,515c-1.31,1.06-2.82.86-5.66,1.26-3.93.66-7.32.86-7.32,5,0,3,2.07,4.75,4.95,4.75,3.48,0,7.53-1.72,7.93-8.84Z"/><path class="cls-1" d="M785.63,502.5v3.58a10.43,10.43,0,0,1,8.79-4.6c6.72,0,8.44,4.5,8.44,9.6v17.07h-4.45V512.44c0-2.73.1-7.82-5.4-7.82-2.43,0-7.38,1.05-7.38,9.54v14h-4.44V502.5Z"/><path class="cls-1" d="M814.88,531c.8,3,4,3.69,6.76,3.69,7,0,7.08-6.62,7.08-8V524c-2.38,3.84-4.5,5.2-8.29,5.2-6.06,0-11.57-4.14-11.57-14,0-2.37,0-13.64,11.12-13.64,4.24,0,7.27,1.57,8.89,4.54H829V502.5h4.14v25c0,9.86-9,10.41-11.52,10.41s-9.39.1-11-6.87ZM829,515c0-6.47-2.73-10.4-8-10.4-7.48,0-7.48,8.28-7.48,10.35,0,10.35,5.81,11.06,7.88,11.06C823.06,526,829,524.92,829,515Z"/><path class="cls-1" d="M857.66,528.15v-3.64h-.11c-2.57,4.45-7.78,4.65-8.68,4.65-7.58,0-8.44-5.81-8.44-9.65v-17h4.45v15.7c0,6.46,2.22,7.83,5.4,7.83,7.47,0,7.38-7.73,7.38-9.55v-14h4.44v25.65Z"/><path class="cls-1" d="M868.51,510.07c0-3.44,1.81-8.59,10.91-8.59,4.14,0,10.35,1.16,10.2,8.64L889.37,522c0,2,0,3.18,2.68,3v3.13a7,7,0,0,1-2,.2c-2.53,0-4-.4-4.6-3.74-1.77,3.24-5.31,4.55-8.79,4.55-5.4,0-9-2.32-9-7.73,0-4.44,2.27-7.17,12.58-8.13,3.79-.25,5-.2,5-3.54,0-1.21-.1-5.14-5.76-5.14-1.62,0-6.82.09-6.67,5.45ZM885.18,515c-1.31,1.06-2.83.86-5.67,1.26-3.93.66-7.32.86-7.32,5,0,3,2.08,4.75,4.95,4.75,3.49,0,7.53-1.72,7.94-8.84Z"/><path class="cls-1" d="M902,531c.81,3,4,3.69,6.77,3.69,7,0,7.07-6.62,7.07-8V524c-2.36,3.84-4.49,5.2-8.28,5.2-6.06,0-11.57-4.14-11.57-14,0-2.37,0-13.64,11.11-13.64,4.25,0,7.27,1.57,8.9,4.54h.15V502.5h4.14v25c0,9.86-9.05,10.41-11.52,10.41s-9.39.1-11-6.87Zm14.15-16c0-6.47-2.73-10.4-8-10.4-7.48,0-7.48,8.28-7.48,10.35,0,10.35,5.8,11.06,7.88,11.06C910.23,526,916.19,524.92,916.19,515Z"/><path class="cls-1" d="M950.33,520.73c-.66,3.63-3.33,8.43-11.22,8.43-12.72,0-13-11.41-13-13.73,0-3.55.65-13.95,12.52-13.95,10.25,0,11.62,8,11.87,13.59,0,.4.05.86.05,1.26H930.83c0,4.4,2.27,9.7,8.13,9.7,4.3,0,6.57-2.47,7.13-5.3Zm-4.45-7.53c-.15-3.44-1.31-8.58-7.11-8.58-6.57,0-7.94,5.35-7.94,8.58Z"/><path class="cls-2" d="M181.44,443.87h-83V267.17H177c44.59,0,63.67,19.07,63.67,48,0,19.92-13.47,33.94-32.54,37,21.32,3.93,37.87,18,37.87,43.2C246,425.92,222.68,443.87,181.44,443.87ZM132.65,340.66h42.06c21,0,30-9.26,30-22.44s-9-22.72-30-22.72H132.65Zm0,26.64v48.24h44.87c21.87,0,32.53-9.25,32.53-23.84,0-14.86-10.66-24.4-32.53-24.4Z"/><path class="cls-2" d="M371.67,413.86c0,6.45,3.36,9.53,8.7,9.53a24.33,24.33,0,0,0,10.37-2.52v17.95c-5.33,4.22-12.06,7.86-23.28,7.86-14,0-24.68-9-27.21-23.85-7,14.59-22.71,24.13-43.19,24.13-23.56,0-39.27-12.62-39.27-33.94,0-23.57,18.51-33.38,47.12-38.7l33.94-6.46v-3.64c0-13.75-7.29-22.16-21.6-22.16-14,0-21.6,8.41-24.39,20.47l-30.58-2.8c4.21-25.24,23.56-42.92,56.38-42.92,32,0,53,15.15,53,47.68Zm-32.82-27.77-23.28,4.77c-15.42,3.09-25,7-25,18.52,0,8.68,6.17,15.14,17.11,15.14,17.67,0,31.13-13.18,31.13-34.22Z"/><path class="cls-2" d="M647.39,402.64c-6.17,28.05-28,44.6-59.75,44.6-38.14,0-65.63-24.41-65.63-63.39s27.77-67,64.79-67c40.39,0,61.15,28.06,61.15,61.71v10.66H555.1c1.12,20.2,15.43,32.53,33.66,32.53,16.55,0,26.65-7.29,31.41-21.87Zm-32.26-31.13c-.56-16-9.82-30-28.61-30-18.51,0-28.89,13.46-30.85,30Z"/><path class="cls-2" d="M752.91,353.28A37.44,37.44,0,0,0,732.72,348c-17.39,0-29.18,12.34-29.18,34.77v61.15H669.89V320.18h33.65v23.56c4.49-14,17.39-26.93,34.51-26.93,7.56,0,13.74,2,17.38,5.06Z"/><path class="cls-2" d="M769.6,267.17h34.5V300H769.6Zm34.22,53V443.87H770.17V320.18Z"/><path class="cls-2" d="M865.19,443.87H831.53V320.18h33.66v20.2c6.17-14,21.88-23.57,40.39-23.57,33.09,0,45.15,22.44,45.15,49.93v77.13H917.08v-70.4c0-19.07-7.58-30-24.12-30-17.12,0-27.77,13.46-27.77,34.21Z"/><path class="cls-2" d="M1084.5,413.86c0,6.45,3.36,9.53,8.69,9.53a24.34,24.34,0,0,0,10.38-2.52v17.95c-5.33,4.22-12.06,7.86-23.28,7.86-14,0-24.68-9-27.2-23.85-7,14.59-22.72,24.13-43.2,24.13-23.55,0-39.26-12.62-39.26-33.94,0-23.57,18.51-33.38,47.11-38.7l33.94-6.46v-3.64c0-13.75-7.29-22.16-21.59-22.16-14,0-21.6,8.41-24.41,20.47l-30.56-2.8c4.2-25.24,23.56-42.92,56.37-42.92,32,0,53,15.15,53,47.68Zm-32.82-27.77-23.27,4.77c-15.43,3.09-25,7-25,18.52,0,8.68,6.18,15.14,17.11,15.14,17.67,0,31.13-13.18,31.13-34.22Z"/><polygon class="cls-2" points="405.4 313.11 405.4 262.1 448.12 262.1 448.12 329.45 405.4 313.11"/><polygon class="cls-2" points="405.4 329.09 434.63 340.27 405.4 351.45 405.4 329.09"/><polygon class="cls-2" points="448.12 351.08 448.12 375.8 427.35 443.87 405.4 443.87 405.4 367.42 448.12 351.08"/><polygon class="cls-2" points="505.64 313.11 505.64 262.1 462.92 262.1 462.92 329.45 505.64 313.11"/><polygon class="cls-2" points="505.64 329.09 476.4 340.27 505.64 351.45 505.64 329.09"/><polygon class="cls-2" points="462.92 351.08 462.92 375.8 483.69 443.87 505.64 443.87 505.64 367.42 462.92 351.08"/></svg>