<svg id="Layer_1" data-name="Layer 1" xmlns="http://www.w3.org/2000/svg" viewBox="0 0 277 53.33"><defs><style>.cls-1{fill:#464646;}</style></defs><path class="cls-1" d="M24,51.17H1.4V3H22.8C35,3,40.15,8.22,40.15,16.09c0,5.43-3.67,9.25-8.87,10.09C37.09,27.25,41.6,31.07,41.6,38c0,8.33-6.34,13.22-17.58,13.22M10.73,23.05H22.19c5.73,0,8.18-2.52,8.18-6.11s-2.45-6.19-8.18-6.19H10.73Zm0,7.26V43.45H23c6,0,8.87-2.52,8.87-6.49s-3-6.65-8.87-6.65Z"/><path class="cls-1" d="M75.85,43c0,1.76.92,2.6,2.37,2.6A6.68,6.68,0,0,0,81,44.9v4.89a9.49,9.49,0,0,1-6.34,2.14c-3.82,0-6.72-2.44-7.41-6.49C65.38,49.41,61.1,52,55.52,52c-6.42,0-10.7-3.44-10.7-9.25,0-6.42,5-9.09,12.84-10.54l9.25-1.76v-1c0-3.75-2-6-5.88-6S55.14,25.72,54.38,29l-8.33-.77c1.14-6.87,6.42-11.69,15.36-11.69,8.71,0,14.44,4.13,14.44,13Zm-8.94-7.56-6.34,1.3c-4.21.84-6.8,1.91-6.8,5,0,2.37,1.68,4.13,4.66,4.13,4.81,0,8.48-3.59,8.48-9.33Z"/><path class="cls-1" d="M151,39.94c-1.68,7.64-7.64,12.15-16.28,12.15-10.39,0-17.88-6.65-17.88-17.27s7.57-18.27,17.65-18.27c11,0,16.66,7.64,16.66,16.81v2.91H125.83c.3,5.5,4.2,8.86,9.17,8.86,4.51,0,7.26-2,8.56-6Zm-8.79-8.49c-.15-4.35-2.67-8.17-7.79-8.17S126.52,27,126,31.45Z"/><path class="cls-1" d="M179.72,26.49a10.15,10.15,0,0,0-5.5-1.45c-4.74,0-7.95,3.36-7.95,9.47V51.17H157.1V17.47h9.17v6.42c1.22-3.82,4.74-7.34,9.4-7.34a7.5,7.5,0,0,1,4.74,1.38Z"/><path class="cls-1" d="M184.27,3h9.4v9h-9.4Zm9.32,48.14h-9.17V17.47h9.17Z"/><path class="cls-1" d="M210.31,51.17h-9.17V17.47h9.17V23c1.68-3.82,6-6.42,11-6.42,9,0,12.31,6.12,12.31,13.6v21h-9.17V32c0-5.2-2.07-8.18-6.58-8.18-4.66,0-7.56,3.67-7.56,9.32Z"/><path class="cls-1" d="M270.06,43c0,1.76.92,2.6,2.37,2.6a6.63,6.63,0,0,0,2.83-.69V49.8a9.51,9.51,0,0,1-6.35,2.14c-3.82,0-6.72-2.44-7.41-6.49-1.91,4-6.19,6.57-11.77,6.57C243.31,52,239,48.57,239,42.76c0-6.42,5-9.09,12.83-10.54l9.25-1.76v-1c0-3.75-2-6-5.88-6s-5.89,2.29-6.65,5.58l-8.33-.77c1.14-6.87,6.42-11.69,15.36-11.69,8.71,0,14.44,4.13,14.44,13Zm-8.94-7.56-6.34,1.3c-4.21.84-6.8,1.91-6.8,5,0,2.37,1.68,4.13,4.66,4.13,4.81,0,8.48-3.59,8.48-9.33Z"/><polygon class="cls-1" points="85.04 15.54 85.04 1.64 96.68 1.64 96.68 20 85.04 15.54"/><polygon class="cls-1" points="85.04 19.89 93 22.94 85.04 25.99 85.04 19.89"/><polygon class="cls-1" points="96.68 25.89 96.68 32.62 91.02 51.17 85.04 51.17 85.04 30.34 96.68 25.89"/><polygon class="cls-1" points="112.35 15.54 112.35 1.64 100.71 1.64 100.71 20 112.35 15.54"/><polygon class="cls-1" points="112.35 19.89 104.38 22.94 112.35 25.99 112.35 19.89"/><polygon class="cls-1" points="100.71 25.89 100.71 32.62 106.37 51.17 112.35 51.17 112.35 30.34 100.71 25.89"/></svg>