<svg id="Layer_1" data-name="Layer 1" xmlns="http://www.w3.org/2000/svg" viewBox="0 0 1200 630"><defs><style>.cls-1{fill:#464646;}</style></defs><path class="cls-1" d="M146.44,400.44H54.31V204.33h87.15c49.49,0,70.66,21.17,70.66,53.23,0,22.1-14.94,37.67-36.11,41.09,23.66,4.36,42,19.92,42,47.93,0,33.94-25.83,53.86-71.59,53.86M92.28,285.89H139c23.34,0,33.3-10.27,33.3-24.9s-10-25.21-33.3-25.21H92.28Zm0,29.57V369h49.8c24.28,0,36.11-10.27,36.11-26.46,0-16.5-11.83-27.08-36.11-27.08Z"/><path class="cls-1" d="M357.54,367.13c0,7.16,3.74,10.58,9.65,10.58a27.09,27.09,0,0,0,11.51-2.8v19.93c-5.9,4.66-13.37,8.71-25.83,8.71-15.56,0-27.39-10-30.19-26.46-7.78,16.18-25.21,26.76-47.94,26.76-26.14,0-43.57-14-43.57-37.65,0-26.16,20.54-37.05,52.29-43l37.66-7.16V312c0-15.25-8.09-24.58-24-24.58-15.57,0-24,9.33-27.08,22.71l-33.93-3.11c4.67-28,26.15-47.62,62.56-47.62,35.49,0,58.83,16.8,58.83,52.91Zm-36.42-30.82-25.83,5.3c-17.12,3.41-27.7,7.77-27.7,20.54,0,9.65,6.84,16.81,19,16.81,19.61,0,34.55-14.63,34.55-38Z"/><path class="cls-1" d="M663.52,354.68c-6.85,31.12-31.12,49.49-66.3,49.49-42.33,0-72.84-27.08-72.84-70.35s30.82-74.39,71.9-74.39c44.83,0,67.87,31.13,67.87,68.48v11.82h-103c1.24,22.42,17.12,36.11,37.34,36.11,18.37,0,29.58-8.09,34.87-24.28Zm-35.79-34.56c-.63-17.73-10.9-33.3-31.75-33.3-20.54,0-32.06,14.94-34.24,33.3Z"/><path class="cls-1" d="M780.63,299.89A41.67,41.67,0,0,0,758.22,294c-19.3,0-32.37,13.7-32.37,38.59v67.87H688.5V263.16h37.35v26.16c5-15.57,19.29-29.89,38.28-29.89,8.4,0,15.25,2.18,19.3,5.6Z"/><path class="cls-1" d="M799.15,204.33h38.29v36.42H799.15Zm38,196.11H799.77V263.16h37.35Z"/><path class="cls-1" d="M905.24,400.44H867.89V263.16h37.35v22.42c6.84-15.56,24.27-26.15,44.81-26.15,36.73,0,50.12,24.9,50.12,55.4v85.61H962.82V322.3c0-21.16-8.41-33.3-26.77-33.3-19,0-30.81,14.94-30.81,38Z"/><path class="cls-1" d="M1148.62,367.13c0,7.16,3.73,10.58,9.65,10.58a27.13,27.13,0,0,0,11.52-2.8v19.93c-5.92,4.66-13.39,8.71-25.84,8.71-15.56,0-27.4-10-30.19-26.46-7.78,16.18-25.22,26.76-47.93,26.76-26.15,0-43.59-14-43.59-37.65,0-26.16,20.55-37.05,52.3-43l37.66-7.16V312c0-15.25-8.09-24.58-24-24.58-15.57,0-24,9.33-27.07,22.71l-33.94-3.11c4.67-28,26.15-47.62,62.57-47.62,35.48,0,58.83,16.8,58.83,52.91Zm-36.42-30.82-25.83,5.3c-17.12,3.41-27.7,7.77-27.7,20.54,0,9.65,6.84,16.81,19,16.81,19.61,0,34.55-14.63,34.55-38Z"/><polygon class="cls-1" points="394.97 255.32 394.97 198.7 442.38 198.7 442.38 273.46 394.97 255.32"/><polygon class="cls-1" points="394.97 273.05 427.42 285.46 394.97 297.86 394.97 273.05"/><polygon class="cls-1" points="442.38 297.47 442.38 324.88 419.33 400.44 394.97 400.44 394.97 315.6 442.38 297.47"/><polygon class="cls-1" points="506.22 255.32 506.22 198.7 458.81 198.7 458.81 273.46 506.22 255.32"/><polygon class="cls-1" points="506.22 273.05 473.77 285.46 506.22 297.86 506.22 273.05"/><polygon class="cls-1" points="458.81 297.47 458.81 324.88 481.85 400.44 506.22 400.44 506.22 315.6 458.81 297.47"/></svg>