<svg id="Layer_1" data-name="Layer 1" xmlns="http://www.w3.org/2000/svg" viewBox="0 0 1200 630"><defs><style>.cls-1{fill:#20b6af;}.cls-2{fill:#fff;}</style></defs><rect class="cls-1" x="42.26" y="169.1" width="1115.48" height="291.8"/><path class="cls-2" d="M177.79,404.77H94.24V227h79c44.88,0,64.06,19.2,64.06,48.27,0,20-13.54,34.15-32.73,37.26,21.44,3.95,38.1,18.06,38.1,43.46,0,30.77-23.43,48.83-64.92,48.83M128.68,300.9H171c21.16,0,30.2-9.31,30.2-22.57s-9-22.87-30.2-22.87H128.68Zm0,26.82v48.54h45.16c22,0,32.74-9.3,32.74-24,0-15-10.72-24.56-32.74-24.56Z"/><path class="cls-2" d="M369.22,374.57c0,6.5,3.38,9.6,8.75,9.6a24.42,24.42,0,0,0,10.44-2.55v18.07c-5.36,4.23-12.14,7.9-23.43,7.9-14.11,0-24.83-9-27.37-24-7.06,14.67-22.86,24.26-43.48,24.26-23.7,0-39.51-12.69-39.51-34.14,0-23.72,18.63-33.6,47.42-39l34.15-6.49v-3.67c0-13.83-7.33-22.29-21.73-22.29-14.11,0-21.73,8.46-24.55,20.59l-30.77-2.82c4.23-25.4,23.71-43.17,56.73-43.17,32.18,0,53.35,15.23,53.35,48Zm-33-27.94-23.42,4.8c-15.53,3.1-25.12,7.05-25.12,18.63,0,8.75,6.2,15.24,17.21,15.24,17.79,0,31.33-13.26,31.33-34.44Z"/><path class="cls-2" d="M646.68,363.28c-6.21,28.23-28.23,44.88-60.12,44.88-38.39,0-66-24.55-66-63.79s27.94-67.45,65.2-67.45c40.64,0,61.54,28.22,61.54,62.09v10.72H553.82c1.13,20.32,15.52,32.74,33.87,32.74,16.65,0,26.81-7.33,31.61-22ZM614.22,332c-.56-16.08-9.88-30.2-28.79-30.2-18.63,0-29.07,13.55-31,30.2Z"/><path class="cls-2" d="M752.87,313.6a37.8,37.8,0,0,0-20.32-5.36c-17.51,0-29.35,12.42-29.35,35v61.53H669.33V280.29H703.2V304c4.51-14.12,17.49-27.09,34.71-27.09,7.62,0,13.83,2,17.5,5.08Z"/><path class="cls-2" d="M769.67,227h34.72v33H769.67ZM804.1,404.77H770.23V280.29H804.1Z"/><path class="cls-2" d="M865.87,404.77H832V280.29h33.87v20.33c6.2-14.11,22-23.7,40.64-23.7,33.3,0,45.44,22.57,45.44,50.23v77.62H918.08V333.92c0-19.19-7.62-30.2-24.28-30.2-17.21,0-27.93,13.55-27.93,34.44Z"/><path class="cls-2" d="M1086.57,374.57c0,6.5,3.38,9.6,8.75,9.6a24.39,24.39,0,0,0,10.44-2.55v18.07c-5.37,4.23-12.14,7.9-23.43,7.9-14.11,0-24.84-9-27.38-24-7,14.67-22.87,24.26-43.46,24.26-23.71,0-39.52-12.69-39.52-34.14,0-23.72,18.63-33.6,47.42-39l34.15-6.49v-3.67c0-13.83-7.34-22.29-21.74-22.29-14.12,0-21.73,8.46-24.55,20.59l-30.77-2.82c4.23-25.4,23.71-43.17,56.74-43.17,32.17,0,53.35,15.23,53.35,48Zm-33-27.94-23.43,4.8c-15.52,3.1-25.11,7.05-25.11,18.63,0,8.75,6.21,15.24,17.21,15.24,17.78,0,31.33-13.26,31.33-34.44Z"/><polygon class="cls-2" points="403.16 273.19 403.16 221.84 446.15 221.84 446.15 289.63 403.16 273.19"/><polygon class="cls-2" points="403.16 289.26 432.58 300.51 403.16 311.76 403.16 289.26"/><polygon class="cls-2" points="446.15 311.4 446.15 336.27 425.24 404.77 403.16 404.77 403.16 327.84 446.15 311.4"/><polygon class="cls-2" points="504.04 273.19 504.04 221.84 461.05 221.84 461.05 289.63 504.04 273.19"/><polygon class="cls-2" points="504.04 289.26 474.61 300.51 504.04 311.76 504.04 289.26"/><polygon class="cls-2" points="461.05 311.4 461.05 336.27 481.94 404.77 504.04 404.77 504.04 327.84 461.05 311.4"/></svg>