<svg xmlns="http://www.w3.org/2000/svg" xmlns:xlink="http://www.w3.org/1999/xlink" width="864" height="426" viewBox="0 0 864 426">
  <defs>
    <clipPath id="clip-Artboard_1">
      <rect width="864" height="426"/>
    </clipPath>
  </defs>
  <g id="Artboard_1" data-name="Artboard – 1" clip-path="url(#clip-Artboard_1)">
    <g id="Group_38" data-name="Group 38" transform="translate(-945 -2096)">
      <g id="Group_34" data-name="Group 34" transform="translate(1222.759 2243.199)">
        <path id="Path_16" data-name="Path 16" d="M38.852,82.733H1.4V3.026H36.829c20.116,0,28.718,8.606,28.718,21.637,0,8.98-6.073,15.308-14.675,16.7,9.616,1.771,17.081,8.1,17.081,19.483,0,13.791-10.5,21.889-29.1,21.889M16.841,36.174H35.816c9.49,0,13.536-4.175,13.536-10.119S45.306,15.807,35.816,15.807H16.841Zm0,12.021V69.954H37.082c9.867,0,14.675-4.172,14.675-10.753,0-6.707-4.808-11-14.675-11Z" transform="translate(-1.404 -0.737)" fill="#464646"/>
        <path id="Path_17" data-name="Path 17" d="M96.191,60.326c0,2.912,1.518,4.3,3.922,4.3a11,11,0,0,0,4.679-1.141v8.1a15.723,15.723,0,0,1-10.5,3.541c-6.324,0-11.134-4.048-12.271-10.755-3.162,6.578-10.246,10.879-19.485,10.879-10.627,0-17.712-5.69-17.712-15.3,0-10.631,8.351-15.058,21.255-17.462l15.308-2.911V37.933c0-6.2-3.288-9.992-9.74-9.992-6.328,0-9.742,3.793-11.006,9.232L46.849,35.908c1.9-11.386,10.629-19.354,25.428-19.354,14.424,0,23.913,6.828,23.913,21.5ZM81.386,47.8l-10.5,2.152c-6.958,1.387-11.258,3.161-11.258,8.348,0,3.925,2.781,6.833,7.717,6.833,7.968,0,14.041-5.944,14.041-15.435Z" transform="translate(27.062 8.132)" fill="#464646"/>
        <path id="Path_18" data-name="Path 18" d="M173.362,55.269c-2.783,12.647-12.65,20.112-26.948,20.112-17.207,0-29.6-11.006-29.6-28.592s12.525-30.235,29.223-30.235c18.22,0,27.584,12.649,27.584,27.831v4.808H131.739c.507,9.107,6.958,14.675,15.18,14.675,7.467,0,12.021-3.288,14.172-9.867ZM158.814,41.221c-.255-7.208-4.429-13.536-12.905-13.536-8.349,0-13.03,6.073-13.917,13.536Z" transform="translate(74.256 8.132)" fill="#464646"/>
        <path id="Path_19" data-name="Path 19" d="M194.546,33a16.91,16.91,0,0,0-9.107-2.4c-7.846,0-13.157,5.566-13.157,15.687V73.864H157.1v-55.8h15.18V28.7c2.021-6.329,7.841-12.145,15.559-12.145,3.414,0,6.2.884,7.843,2.276Z" transform="translate(100.671 8.132)" fill="#464646"/>
        <path id="Path_20" data-name="Path 20" d="M184.266,3.026h15.563v14.8H184.266ZM199.7,82.733H184.518v-55.8H199.7Z" transform="translate(118.48 -0.737)" fill="#464646"/>
        <path id="Path_21" data-name="Path 21" d="M216.323,73.864H201.141v-55.8h15.182V27.18c2.78-6.326,9.866-10.626,18.215-10.626,14.927,0,20.367,10.119,20.367,22.516V73.864H239.723V42.107c0-8.6-3.414-13.535-10.879-13.535-7.717,0-12.521,6.071-12.521,15.434Z" transform="translate(129.544 8.132)" fill="#464646"/>
        <path id="Path_22" data-name="Path 22" d="M290.4,60.326c0,2.912,1.518,4.3,3.922,4.3A11,11,0,0,0,299,63.487v8.1a15.738,15.738,0,0,1-10.5,3.541c-6.324,0-11.136-4.048-12.271-10.755-3.162,6.578-10.25,10.879-19.483,10.879-10.629,0-17.713-5.69-17.713-15.3,0-10.631,8.349-15.058,21.255-17.462L275.6,39.577V37.933c0-6.2-3.288-9.992-9.741-9.992-6.328,0-9.742,3.793-11,9.232L241.06,35.908c1.9-11.386,10.627-19.354,25.428-19.354,14.422,0,23.914,6.828,23.914,21.5ZM275.6,47.8l-10.5,2.152c-6.958,1.387-11.258,3.161-11.258,8.348,0,3.925,2.783,6.833,7.715,6.833,7.97,0,14.043-5.944,14.043-15.435Z" transform="translate(154.387 8.132)" fill="#464646"/>
        <path id="Path_23" data-name="Path 23" d="M85.039,24.657V1.644h19.269V32.028Z" transform="translate(53.427 -1.644)" fill="#464646"/>
        <path id="Path_24" data-name="Path 24" d="M85.039,19.9,98.227,24.94,85.039,29.983Z" transform="translate(53.427 10.323)" fill="#464646"/>
        <path id="Path_25" data-name="Path 25" d="M104.308,25.891V37.035L94.939,67.743h-9.9V33.26Z" transform="translate(53.427 14.253)" fill="#464646"/>
        <path id="Path_26" data-name="Path 26" d="M119.98,24.657V1.644H100.711V32.028Z" transform="translate(63.702 -1.644)" fill="#464646"/>
        <path id="Path_27" data-name="Path 27" d="M117.573,19.9l-13.19,5.044,13.19,5.043Z" transform="translate(66.109 10.323)" fill="#464646"/>
        <path id="Path_28" data-name="Path 28" d="M100.711,25.891V37.035l9.366,30.708h9.9V33.26Z" transform="translate(63.702 14.253)" fill="#464646"/>
      </g>
      <line id="Line_4" data-name="Line 4" x2="611.401" transform="translate(1144.658 2243.679)" fill="none" stroke="#00c8c3" stroke-width="1" stroke-dasharray="3"/>
      <line id="Line_5" data-name="Line 5" x2="611.401" transform="translate(1144.658 2325.725)" fill="none" stroke="#00c8c3" stroke-width="1" stroke-dasharray="3"/>
      <line id="Line_6" data-name="Line 6" y2="241.02" transform="translate(1676.15 2164.789)" fill="none" stroke="#00c8c3" stroke-width="1" stroke-dasharray="3"/>
      <line id="Line_7" data-name="Line 7" y2="245.754" transform="translate(1222.759 2164.789)" fill="none" stroke="#00c8c3" stroke-width="1" stroke-dasharray="3"/>
      <g id="Rectangle_15" data-name="Rectangle 15" transform="translate(1144 2164)" fill="none" stroke="#707070" stroke-width="1">
        <rect width="612" height="243" stroke="none"/>
        <rect x="0.5" y="0.5" width="611" height="242" fill="none"/>
      </g>
      <text id="x" transform="translate(1177 2209)" fill="#494949" font-size="25" font-family="Roboto-Light, Roboto" font-weight="300" letter-spacing="0.009em"><tspan x="0" y="0">x</tspan></text>
      <text id="x-2" data-name="x" transform="translate(1709 2209)" fill="#494949" font-size="25" font-family="Roboto-Light, Roboto" font-weight="300" letter-spacing="0.009em"><tspan x="0" y="0">x</tspan></text>
      <text id="x-3" data-name="x" transform="translate(1177 2373)" fill="#494949" font-size="25" font-family="Roboto-Light, Roboto" font-weight="300" letter-spacing="0.009em"><tspan x="0" y="0">x</tspan></text>
      <text id="x-4" data-name="x" transform="translate(1709 2373)" fill="#494949" font-size="25" font-family="Roboto-Light, Roboto" font-weight="300" letter-spacing="0.009em"><tspan x="0" y="0">x</tspan></text>
      <g id="Group_36" data-name="Group 36" transform="translate(1035 2243.679)">
        <g id="Group_35" data-name="Group 35" transform="translate(22.144)">
          <path id="Path_140" data-name="Path 140" d="M1295.006,2210.5H1268.63v82.046h26.376" transform="translate(-1245.602 -2210.5)" fill="none" stroke="#00c8c3" stroke-width="1"/>
          <path id="Path_141" data-name="Path 141" d="M1252.035,2233.268H1274.4" transform="translate(-1252.035 -2192.426)" fill="none" stroke="#00c8c3" stroke-width="1"/>
        </g>
        <text id="x-5" data-name="x" transform="translate(0 46.321)" fill="#494949" font-size="25" font-family="Roboto-Light, Roboto" font-weight="300" letter-spacing="0.009em"><tspan x="0" y="0">x</tspan></text>
      </g>
      <g id="Group_37" data-name="Group 37" transform="translate(1144.658 2470.095) rotate(-90)">
        <path id="Path_140-2" data-name="Path 140" d="M26.376,0H0V78.1H26.376" transform="translate(23.027 0)" fill="none" stroke="#00c8c3" stroke-width="1"/>
        <path id="Path_141-2" data-name="Path 141" d="M0,0H22.369" transform="translate(0 38.879)" fill="none" stroke="#00c8c3" stroke-width="1"/>
      </g>
      <text id="x-6" data-name="x" transform="translate(1177 2494)" fill="#494949" font-size="25" font-family="Roboto-Light, Roboto" font-weight="300" letter-spacing="0.009em"><tspan x="0" y="0">x</tspan></text>
    </g>
  </g>
</svg>
