<svg id="Layer_1" data-name="Layer 1" xmlns="http://www.w3.org/2000/svg" xmlns:xlink="http://www.w3.org/1999/xlink" viewBox="0 0 864 362"><defs><style>.cls-1,.cls-4,.cls-5,.cls-8{fill:none;}.cls-2{clip-path:url(#clip-path);}.cls-3{fill:#464646;}.cls-4,.cls-8{stroke:#00c8c3;}.cls-4{stroke-dasharray:3;}.cls-5{stroke:#707070;}.cls-6,.cls-7{isolation:isolate;}.cls-7{font-size:25px;fill:#494949;font-family:Roboto-Light, Roboto;font-weight:300;letter-spacing:0.01em;}</style><clipPath id="clip-path"><rect class="cls-1" y="-64" width="864" height="426"/></clipPath></defs><g class="cls-2"><g id="Artboard_1" data-name="Artboard 1"><g id="Group_38" data-name="Group 38"><g id="Group_34" data-name="Group 34"><path id="Path_16" data-name="Path 16" class="cls-3" d="M315.21,165.19H277.76V85.49h35.42c20.12,0,28.72,8.6,28.72,21.63,0,9-6.07,15.31-14.67,16.7,9.61,1.78,17.08,8.1,17.08,19.49,0,13.79-10.5,21.89-29.1,21.89m-22-46.56h19c9.49,0,13.54-4.18,13.54-10.12s-4-10.25-13.54-10.25h-19Zm0,12v21.76h20.24c9.86,0,14.67-4.18,14.67-10.76s-4.81-11-14.67-11Z"/><path id="Path_17" data-name="Path 17" class="cls-3" d="M401,151.66c0,2.91,1.52,4.3,3.92,4.3a11,11,0,0,0,4.68-1.14v8.1a15.75,15.75,0,0,1-10.5,3.54c-6.32,0-11.13-4.05-12.27-10.76-3.16,6.58-10.24,10.88-19.48,10.88-10.63,0-17.71-5.69-17.71-15.3,0-10.63,8.35-15.06,21.25-17.46l15.31-2.91v-1.65c0-6.2-3.29-10-9.74-10s-9.74,3.79-11,9.23l-13.79-1.26c1.9-11.39,10.63-19.36,25.43-19.36,14.42,0,23.91,6.83,23.91,21.5Zm-14.8-12.53-10.5,2.15c-7,1.39-11.26,3.16-11.26,8.35,0,3.93,2.78,6.83,7.72,6.83,8,0,14-5.94,14-15.43Z"/><path id="Path_18" data-name="Path 18" class="cls-3" d="M525.38,146.6c-2.79,12.65-12.65,20.11-26.95,20.11-17.21,0-29.6-11-29.6-28.59s12.52-30.24,29.22-30.24c18.22,0,27.59,12.65,27.59,27.84v4.8H483.75c.51,9.11,7,14.68,15.18,14.68,7.47,0,12-3.29,14.18-9.87Zm-14.55-14c-.26-7.21-4.43-13.53-12.91-13.53s-13,6.07-13.91,13.53Z"/><path id="Path_19" data-name="Path 19" class="cls-3" d="M573,124.33a16.89,16.89,0,0,0-9.11-2.4c-7.85,0-13.16,5.57-13.16,15.69v27.57H535.53v-55.8h15.18V120c2-6.33,7.84-12.14,15.56-12.14,3.41,0,6.2.88,7.84,2.27Z"/><path id="Path_20" data-name="Path 20" class="cls-3" d="M580.51,85.49h15.56v14.8H580.51Zm15.43,79.7H580.76v-55.8h15.18Z"/><path id="Path_21" data-name="Path 21" class="cls-3" d="M623.63,165.19H608.44v-55.8h15.19v9.12c2.78-6.33,9.86-10.63,18.21-10.63,14.93,0,20.37,10.12,20.37,22.52v34.79H647V133.44c0-8.6-3.42-13.54-10.88-13.54-7.72,0-12.52,6.07-12.52,15.44Z"/><path id="Path_22" data-name="Path 22" class="cls-3" d="M722.55,151.66c0,2.91,1.51,4.3,3.92,4.3a11.05,11.05,0,0,0,4.68-1.14v8.1a15.78,15.78,0,0,1-10.5,3.54c-6.33,0-11.14-4.05-12.27-10.76-3.17,6.58-10.25,10.88-19.49,10.88-10.63,0-17.71-5.69-17.71-15.3,0-10.63,8.35-15.06,21.25-17.46l15.32-2.91v-1.65c0-6.2-3.29-10-9.74-10s-9.75,3.79-11,9.23l-13.8-1.26c1.9-11.39,10.62-19.36,25.42-19.36,14.43,0,23.92,6.83,23.92,21.5Zm-14.8-12.53-10.5,2.15c-7,1.39-11.26,3.16-11.26,8.35,0,3.93,2.78,6.83,7.71,6.83,8,0,14-5.94,14-15.43Z"/><path id="Path_23" data-name="Path 23" class="cls-3" d="M416.23,106.21v-23h19.26v30.38Z"/><path id="Path_24" data-name="Path 24" class="cls-3" d="M416.23,113.42l13.18,5-13.18,5Z"/><path id="Path_25" data-name="Path 25" class="cls-3" d="M435.49,123.34v11.15l-9.36,30.7h-9.9V130.71Z"/><path id="Path_26" data-name="Path 26" class="cls-3" d="M461.44,106.21v-23H442.17v30.38Z"/><path id="Path_27" data-name="Path 27" class="cls-3" d="M461.44,113.42l-13.19,5,13.19,5Z"/><path id="Path_28" data-name="Path 28" class="cls-3" d="M442.17,123.34v11.15l9.37,30.7h9.9V130.71Z"/></g><line id="Line_4" data-name="Line 4" class="cls-4" x1="199.66" y1="83.68" x2="811.06" y2="83.68"/><line id="Line_5" data-name="Line 5" class="cls-4" x1="199.66" y1="165.73" x2="811.06" y2="165.73"/><line id="Line_6" data-name="Line 6" class="cls-4" x1="731.15" y1="4.79" x2="731.15" y2="245.81"/><line id="Line_7" data-name="Line 7" class="cls-4" x1="277.76" y1="4.79" x2="277.76" y2="250.54"/><g id="Rectangle_15" data-name="Rectangle 15"><rect class="cls-1" x="199" y="4" width="612" height="243"/><rect class="cls-5" x="199.5" y="4.5" width="611" height="242"/></g><g id="x" class="cls-6"><text class="cls-7" transform="translate(232 49)">x</text></g><g id="x-2" class="cls-6"><text class="cls-7" transform="translate(764 49)">x</text></g><g id="x-3" class="cls-6"><text class="cls-7" transform="translate(232 213)">x</text></g><g id="x-4" class="cls-6"><text class="cls-7" transform="translate(764 213)">x</text></g><g id="Group_36" data-name="Group 36"><g id="Group_35" data-name="Group 35"><path id="Path_140" data-name="Path 140" class="cls-8" d="M161.55,83.68H135.17v82h26.38"/><path id="Path_141" data-name="Path 141" class="cls-8" d="M112.14,124.52h22.37"/></g><g id="x-5" class="cls-6"><text class="cls-7" transform="translate(90 130)">x</text></g></g><g id="Group_37" data-name="Group 37"><path id="Path_140-2" data-name="Path 140-2" class="cls-8" d="M199.66,260.69v26.38h78.1V260.69"/><path id="Path_141-2" data-name="Path 141-2" class="cls-8" d="M238.54,310.09V287.73"/></g><g id="x-6" class="cls-6"><text class="cls-7" transform="translate(232 334)">x</text></g></g></g></g></svg>