<?xml version="1.0" encoding="utf-8"?>
<!-- Generator: Adobe Illustrator 24.3.0, SVG Export Plug-In . SVG Version: 6.00 Build 0)  -->
<svg version="1.1" id="Layer_1" xmlns="http://www.w3.org/2000/svg" xmlns:xlink="http://www.w3.org/1999/xlink" x="0px" y="0px"
	 viewBox="0 0 70 56" style="enable-background:new 0 0 70 56;" xml:space="preserve">
<style type="text/css">
	.st0{fill:none;stroke:#41C4BF;stroke-width:2;stroke-miterlimit:10;}
	.st1{fill:#41C4BF;stroke:#41C4BF;stroke-width:1.25;stroke-miterlimit:10;}
</style>
<g>
	<path class="st0" d="M24.3,42.3H12.4c-5.7,0-10.3-4.6-10.3-10.3c0-5.3,3.9-9.6,9-10.3C11.9,14.4,18,8.8,25.4,8.8
		c1.3,0,2.6,0.2,3.9,0.5c3.4-4.6,8.8-7.4,14.6-7.4C53.9,1.9,62,10.1,62,20c0,0.8-0.1,1.6-0.2,2.5c3.6,1.7,6.1,5.3,6.1,9.4
		c0,5.7-4.6,10.3-10.3,10.3h-8.8"/>
	<path class="st1" d="M49.3,39.1l3-1c0-1.2-0.2-2.4-0.5-3.5l-3.2-0.2l-1.3-2.8l1.9-2.6c-0.7-1-1.6-1.9-2.5-2.7L44,27.9l-2.8-1.5
		l0-3.2c-1.2-0.4-2.4-0.6-3.6-0.7l-1.2,2.9l-3.1,0.4l-1.9-2.6c-0.6,0.2-1.2,0.4-1.8,0.7c-0.5,0.3-1,0.5-1.5,0.8l0.8,3.1l-2.3,2.2
		l-3-1c-0.7,1-1.3,2.1-1.8,3.2l2.4,2l-0.6,3.1l-3,1c0,1.2,0.2,2.4,0.5,3.6l3.2,0.2l1.3,2.8l-1.8,2.6c0.7,1,1.6,1.9,2.5,2.7l2.7-1.7
		l2.8,1.5l0,3.2c1.2,0.4,2.4,0.6,3.6,0.7l1.2-2.9l3.1-0.4l1.9,2.6c0.6-0.2,1.2-0.4,1.7-0.7c0.5-0.3,1.1-0.6,1.6-0.9l-0.8-3.1
		l2.3-2.2l3,0.9c0.7-1,1.3-2.1,1.7-3.2l-2.4-2L49.3,39.1z M39.8,45.8c-4.1,1.8-9-0.1-10.8-4.2c-1.8-4.1,0.1-9,4.2-10.8
		c4.1-1.8,9,0.1,10.8,4.2C45.8,39.2,43.9,44,39.8,45.8z"/>
</g>
</svg>
