<?xml version="1.0" encoding="utf-8"?>
<!-- Generator: Adobe Illustrator 24.3.0, SVG Export Plug-In . SVG Version: 6.00 Build 0)  -->
<svg version="1.1" id="Layer_1" xmlns="http://www.w3.org/2000/svg" xmlns:xlink="http://www.w3.org/1999/xlink" x="0px" y="0px"
	 viewBox="0 0 67.8 53.7" style="enable-background:new 0 0 67.8 53.7;" xml:space="preserve">
<style type="text/css">
	.st0{fill:#41C4BF;}
</style>
<g>
	<g>
		<path class="st0" d="M23.2,42.4H11.3C5.1,42.4,0,37.3,0,31.1C0,25.6,3.8,21,9.1,19.9c1.2-7.5,7.6-13,15.2-13
			c1.1,0,2.2,0.1,3.5,0.4C31.4,2.7,37,0,42.8,0c10.5,0,19.1,8.6,19.1,19.1c0,0.6-0.1,1.3-0.1,1.9c3.7,2,6,5.9,6,10
			c0,6.2-5.1,11.3-11.3,11.3h-8.8v-2h8.8c5.1,0,9.3-4.2,9.3-9.3c0-3.6-2.2-6.9-5.5-8.5l-0.6-0.3l0.1-1c0.1-0.8,0.2-1.4,0.2-2.1
			C59.9,9.7,52.2,2,42.8,2C37.4,2,32.2,4.6,29,9l-0.4,0.5L28,9.4c-1.4-0.3-2.6-0.5-3.7-0.5c-6.8,0-12.6,5.2-13.3,12l-0.1,0.8
			l-0.8,0.1C5.4,22.4,2,26.4,2,31.1c0,5.1,4.2,9.3,9.3,9.3h11.9V42.4z"/>
	</g>
	<g>
		<path class="st0" d="M48.2,38.2l3-1c0-1.2-0.2-2.4-0.5-3.5l-3.2-0.2l-1.3-2.8l1.9-2.6c-0.7-1-1.6-1.9-2.5-2.7L42.9,27l-2.8-1.5
			v-3.2c-1.2-0.4-2.4-0.6-3.6-0.7l-1.2,2.9l-3.1,0.4l-1.9-2.6c-0.6,0.2-1.2,0.4-1.8,0.7c-0.5,0.3-1,0.5-1.5,0.8l0.8,3.1l-2.3,2.2
			l-3-1c-0.7,1-1.3,2.1-1.8,3.2l2.4,2l-0.6,3.1l-3,1c0,1.2,0.2,2.4,0.5,3.6l3.2,0.2l1.3,2.8l-1.8,2.6c0.7,1,1.6,1.9,2.5,2.7l2.7-1.7
			l2.8,1.5v3.2c1.2,0.4,2.4,0.6,3.6,0.7l1.2-2.9l3.1-0.4l1.9,2.6c0.6-0.2,1.2-0.4,1.7-0.7s1.1-0.6,1.6-0.9L43,47.6l2.3-2.2l3,0.9
			c0.7-1,1.3-2.1,1.7-3.2l-2.4-2L48.2,38.2z M38.7,44.9c-4.1,1.8-9-0.1-10.8-4.2s0.1-9,4.2-10.8s9,0.1,10.8,4.2
			C44.7,38.3,42.8,43.1,38.7,44.9z"/>
		<path class="st0" d="M34.7,53.7l-0.5,0c-1.4-0.1-2.6-0.4-3.7-0.7l-0.4-0.1v-3.3l-2.1-1.2l-2.8,1.8l-0.4-0.3c-1.1-1-2-1.9-2.6-2.8
			l-0.2-0.4l1.8-2.7l-1-2.1l-3.3-0.2l-0.1-0.4c-0.3-1.4-0.5-2.6-0.5-3.8v-0.5l3.1-1l0.5-2.4l-2.5-2.1l0.2-0.4
			c0.6-1.2,1.2-2.3,1.9-3.3l0.3-0.4l3.1,1l1.8-1.7l-0.8-3.2l0.4-0.2c0.3-0.2,0.5-0.3,0.8-0.4c0.2-0.1,0.5-0.2,0.7-0.4
			c0.7-0.3,1.3-0.6,1.9-0.8l0.4-0.1l2,2.7l2.4-0.3l1.2-3l0.5,0c1.4,0.1,2.6,0.4,3.7,0.7l0.4,0.1v3.3l2.2,1.2l2.8-1.7l0.3,0.3
			c1.1,1,2,1.9,2.6,2.8l0.3,0.4l-1.9,2.7l1,2.1l3.3,0.2l0.1,0.4c0.3,1.3,0.5,2.5,0.5,3.7v0.5l-3.1,1l-0.5,2.2l2.4,2l-0.2,0.4
			c-0.4,1.1-1,2.3-1.8,3.3L48.6,47l-3.1-0.9l-1.8,1.7l0.8,3.2l-0.4,0.2c-0.3,0.2-0.5,0.3-0.8,0.5c-0.3,0.1-0.5,0.3-0.8,0.4
			c-0.6,0.3-1.2,0.5-1.8,0.8L40.3,53l-2-2.7l-2.4,0.3L34.7,53.7z M31.3,51.8c0.8,0.2,1.6,0.4,2.6,0.5l1.2-2.8l3.8-0.5l1.8,2.5
			c0.4-0.1,0.8-0.3,1.1-0.5c0.3-0.2,0.5-0.3,0.8-0.5c0.1-0.1,0.3-0.1,0.4-0.2l-0.8-3l2.8-2.7l2.9,0.9c0.5-0.8,0.9-1.5,1.2-2.3
			l-2.3-2l0.8-3.6l2.9-1c0-0.8-0.2-1.6-0.4-2.5l-3.1-0.2l-1.6-3.5l1.8-2.5c-0.5-0.6-1.1-1.2-1.8-1.9l-2.6,1.5l-3.4-1.8v-3.1
			c-0.8-0.2-1.6-0.4-2.6-0.5l-1.2,2.8l-3.8,0.5L30.1,23c-0.4,0.1-0.9,0.3-1.3,0.5c-0.2,0.1-0.5,0.3-0.8,0.4
			c-0.1,0.1-0.2,0.1-0.3,0.2l0.8,3l-2.8,2.7l-2.9-1c-0.5,0.7-0.9,1.5-1.3,2.3l2.3,1.9L23,36.9l-2.9,1c0,0.8,0.2,1.6,0.4,2.6l3.1,0.2
			l1.6,3.5l-1.8,2.5c0.5,0.6,1.1,1.2,1.8,1.9l2.6-1.6l3.5,1.8V51.8z M35.4,46.2c-3.4,0-6.6-2-8.1-5.3c-0.9-2.1-1-4.5-0.1-6.7
			c0.9-2.2,2.5-3.9,4.6-4.9c4.5-2,9.7,0.1,11.6,4.5c1.9,4.5-0.1,9.7-4.5,11.6l0,0C37.8,46,36.6,46.2,35.4,46.2z M35.3,29.9
			c-1,0-2,0.2-3,0.6c-1.8,0.8-3.2,2.3-4,4.2c-0.7,1.9-0.7,4,0.1,5.8c1.6,3.8,6.2,5.5,10,3.9c3.8-1.7,5.5-6.1,3.9-10
			C41.1,31.6,38.2,29.9,35.3,29.9z"/>
	</g>
</g>
</svg>
