<?xml version="1.0" encoding="utf-8"?>
<!-- Generator: Adobe Illustrator 24.3.0, SVG Export Plug-In . SVG Version: 6.00 Build 0)  -->
<svg version="1.1" id="Layer_1" xmlns="http://www.w3.org/2000/svg" xmlns:xlink="http://www.w3.org/1999/xlink" x="0px" y="0px"
	 viewBox="0 0 70 49.2" style="enable-background:new 0 0 70 49.2;" xml:space="preserve">
<style type="text/css">
	.st0{fill:#41C4BF;}
	.st1{fill:#FFFFFF;}
</style>
<g>
	<g>
		<polygon class="st0" points="20.3,14.5 59.3,14.5 59.3,9.6 70,18.7 59.3,27.6 59.3,22.7 20.3,22.7 		"/>
	</g>
	<g>
		<polygon class="st0" points="47.6,28 10.7,28 10.7,23.1 0,32.2 10.7,41.1 10.7,36.2 47.6,36.2 		"/>
	</g>
	<g>
		<g>
			<rect x="16.2" y="0.6" class="st1" width="37.1" height="48"/>
			<path class="st0" d="M53.9,49.2H15.6V0h38.3V49.2z M16.8,48h35.8V1.2H16.8V48z"/>
		</g>
		<g>
			<g>
				<rect x="22.3" y="6.3" class="st0" width="24.9" height="1.2"/>
			</g>
			<g>
				<rect x="22.3" y="12.1" class="st0" width="24.9" height="1.2"/>
			</g>
			<g>
				<rect x="22.3" y="18" class="st0" width="24.9" height="1.2"/>
			</g>
			<g>
				<rect x="22.3" y="23.9" class="st0" width="24.9" height="1.2"/>
			</g>
			<g>
				<rect x="22.3" y="29.7" class="st0" width="24.9" height="1.2"/>
			</g>
			<g>
				<rect x="22.3" y="35.6" class="st0" width="24.9" height="1.2"/>
			</g>
			<g>
				<rect x="22.3" y="41.5" class="st0" width="24.9" height="1.2"/>
			</g>
			<g>
				<rect x="21.7" y="6.9" class="st0" width="1.2" height="35.2"/>
			</g>
			<g>
				<rect x="46.6" y="6.3" class="st0" width="1.2" height="35.2"/>
			</g>
			<g>
				<rect x="30.2" y="6.8" class="st0" width="1.2" height="35.1"/>
			</g>
			<g>
				<rect x="38.7" y="6.3" class="st0" width="1.2" height="35.2"/>
			</g>
		</g>
		<g>
			<polygon class="st1" points="43.8,0.6 52.4,11.6 43.8,11.6 			"/>
			<path class="st0" d="M52.4,12.2h-8.6c-0.3,0-0.6-0.3-0.6-0.6v-11c0-0.3,0.2-0.5,0.4-0.6c0.3-0.1,0.5,0,0.7,0.2l8.6,11
				c0.1,0.2,0.2,0.4,0.1,0.7C52.9,12.1,52.6,12.2,52.4,12.2z M44.4,11h6.7l-6.7-8.6V11z"/>
		</g>
	</g>
</g>
</svg>
