<?xml version="1.0" encoding="utf-8"?>
<!-- Generator: Adobe Illustrator 24.3.0, SVG Export Plug-In . SVG Version: 6.00 Build 0)  -->
<svg version="1.1" id="Layer_1" xmlns="http://www.w3.org/2000/svg" xmlns:xlink="http://www.w3.org/1999/xlink" x="0px" y="0px"
	 viewBox="0 0 60.2 40" style="enable-background:new 0 0 60.2 40;" xml:space="preserve">
<style type="text/css">
	.st0{fill:#41C4BF;}
	.st1{fill:#FFFFFF;}
</style>
<g>
	<g>
		<g>
			<path class="st0" d="M0.4,21c-0.1,0-0.3,0-0.4,0l0.2-1.9c0.2,0,2.3,0.1,3.2-3.4c0.5-2.4,0.2-4.2-0.1-6.2C3.1,8.4,2.9,7.2,2.9,5.9
				C2.8,3.7,3.4,2,4.7,1c1.7-1.4,3.9-0.9,4-0.9L8.2,1.9c0,0-1.4-0.3-2.4,0.5C5.1,3.1,4.7,4.3,4.8,5.9C4.8,7,5,8.1,5.2,9.2
				c0.3,2.1,0.7,4.2,0.1,7C4.3,20,1.8,21,0.4,21z"/>
		</g>
		<g>
			<path class="st0" d="M7.7,40c-0.8,0-2-0.2-3-1c-1.2-1-1.8-2.7-1.8-4.9c0-1.3,0.2-2.4,0.4-3.5c0.3-2,0.6-3.8,0.1-6.2
				c-0.9-3.5-2.9-3.4-3.2-3.4L0,19.1c1.4-0.2,4.2,0.6,5.2,4.8c0.6,2.8,0.3,4.9-0.1,7C5,32,4.8,33,4.8,34.1c0,1.6,0.3,2.8,1.1,3.4
				c1,0.8,2.4,0.5,2.4,0.5l0.4,1.9C8.6,40,8.2,40,7.7,40z"/>
		</g>
	</g>
	<g>
		<g>
			<circle class="st0" cx="30.1" cy="20" r="17.8"/>
		</g>
		<g>
			<path class="st0" d="M20.9,18.5l3,6.3c1,2.1,3.7,2.5,5.2,0.9L47,7.2"/>
			<path class="st1" d="M26.9,28.3c-0.2,0-0.5,0-0.7-0.1c-1.6-0.2-2.9-1.3-3.6-2.7l-3-6.3l2.9-1.4l3,6.3c0.2,0.5,0.7,0.9,1.3,1
				c0.5,0.1,1-0.1,1.4-0.5L45.9,6.1l2.3,2.2L30.3,26.8C29.4,27.8,28.1,28.3,26.9,28.3z"/>
		</g>
	</g>
	<g>
		<g>
			<path class="st0" d="M59.9,21c-1.5,0-3.9-1-4.9-4.8c-0.6-2.8-0.3-4.9,0.1-7c0.2-1.1,0.4-2.1,0.4-3.3c0-1.6-0.3-2.8-1.1-3.4
				c-1-0.8-2.4-0.5-2.4-0.5l-0.4-1.9c0.1,0,2.3-0.5,4,0.9c1.2,1,1.8,2.7,1.8,4.9c0,1.3-0.2,2.4-0.4,3.6c-0.3,2-0.6,3.8-0.1,6.2
				c0.9,3.5,2.9,3.4,3.2,3.4l0.2,1.9C60.1,21,60,21,59.9,21z"/>
		</g>
		<g>
			<path class="st0" d="M52.6,40c-0.5,0-0.9-0.1-0.9-0.1l0.4-1.9c0,0,1.4,0.3,2.4-0.5c0.8-0.6,1.1-1.8,1.1-3.4
				c0-1.1-0.2-2.2-0.4-3.3c-0.3-2.1-0.7-4.2-0.1-7c1-4.2,3.9-5,5.3-4.8L60,21c-0.2,0-2.3-0.1-3.2,3.4c-0.5,2.4-0.2,4.2,0.1,6.2
				c0.2,1.1,0.4,2.3,0.4,3.5c0,2.3-0.6,3.9-1.8,4.9C54.6,39.9,53.4,40,52.6,40z"/>
		</g>
	</g>
</g>
</svg>
