<?xml version="1.0" encoding="utf-8"?>
<!-- Generator: Adobe Illustrator 24.3.0, SVG Export Plug-In . SVG Version: 6.00 Build 0)  -->
<svg version="1.1" id="Layer_1" xmlns="http://www.w3.org/2000/svg" xmlns:xlink="http://www.w3.org/1999/xlink" x="0px" y="0px"
	 viewBox="0 0 70 56" style="enable-background:new 0 0 70 56;" xml:space="preserve">
<style type="text/css">
	.st0{fill:none;stroke:#41C4BF;stroke-width:1.9057;stroke-miterlimit:10;}
	.st1{fill:#41C4BF;}
	.st2{fill:#41C4BF;stroke:#FFFFFF;stroke-width:3.1761;stroke-miterlimit:10;}
</style>
<g>
	<g>
		<path class="st0" d="M13.3,9c0,0-4.7-1-4.6,4.9c0.1,3.4,1.4,6,0.5,10C8.1,28.4,5,28,5,28"/>
		<path class="st0" d="M13.3,47c0,0-4.7,1-4.6-4.9c0.1-3.4,1.4-6,0.5-10C8.1,27.6,5,28,5,28"/>
	</g>
	<g>
		<circle class="st1" cx="35" cy="28" r="17.8"/>
		<path class="st2" d="M25.8,26.5l3,6.3c1,2.1,3.7,2.5,5.2,0.9l17.9-18.5"/>
	</g>
	<g>
		<path class="st0" d="M56.7,9c0,0,4.7-1,4.6,4.9c-0.1,3.4-1.4,6-0.5,10C61.9,28.4,65,28,65,28"/>
		<path class="st0" d="M56.7,47c0,0,4.7,1,4.6-4.9c-0.1-3.4-1.4-6-0.5-10C61.9,27.6,65,28,65,28"/>
	</g>
</g>
</svg>
