<?xml version="1.0" encoding="utf-8"?>
<!-- Generator: Adobe Illustrator 24.3.0, SVG Export Plug-In . SVG Version: 6.00 Build 0)  -->
<svg version="1.1" id="Layer_1" xmlns="http://www.w3.org/2000/svg" xmlns:xlink="http://www.w3.org/1999/xlink" x="0px" y="0px"
	 viewBox="0 0 49.7 49.7" style="enable-background:new 0 0 49.7 49.7;" xml:space="preserve">
<style type="text/css">
	.st0{fill:#41C4BF;}
</style>
<g>
	<g>
		<g>
			<g>
				<path class="st0" d="M10.9,34.6c-1.1,1-1.1,2.8-0.1,3.9c0.5,0.5,1.2,0.8,1.9,0.8c0.7,0,1.4-0.2,1.9-0.8l9.1-8.8l-3.8-3.9
					L10.9,34.6z"/>
			</g>
			<g>
				<path class="st0" d="M33.6,18.4l3.9-1.9l2.1-3.9l-1.9-1.9l-4,2l-2.1,3.9l-4.7,4.5l1.9,2L33.6,18.4z"/>
			</g>
			<g>
				<path class="st0" d="M34.3,28.7h-0.4c-0.7,0-1.3,0.1-1.9,0.3L21,17.6c0.2-0.6,0.4-1.2,0.4-1.9v-0.4c-0.1-2.8-2.4-5.1-5.3-5.2
					c-0.8,0-1.6,0.2-2.4,0.5l3.6,3.7c0.2,0.2,0.3,0.4,0.4,0.7c0.2,0.7,0.1,1.4-0.4,1.9c-0.4,0.3-0.8,0.5-1.3,0.5
					c-0.2,0-0.4-0.1-0.6-0.1c-0.2-0.1-0.5-0.2-0.6-0.4l-3.6-3.7c-0.4,0.7-0.6,1.5-0.6,2.3c-0.1,2.9,2.2,5.3,5,5.5H16
					c0.7,0,1.3-0.1,1.9-0.3l11,11.4c-0.2,0.6-0.4,1.2-0.4,1.9v0.4c0.1,2.8,2.4,5.1,5.3,5.2c0.8,0,1.6-0.2,2.3-0.5l-3.6-3.7
					c-0.2-0.2-0.3-0.4-0.4-0.7c-0.2-0.7-0.1-1.4,0.5-1.9c0.4-0.4,0.8-0.5,1.3-0.5c0.2,0,0.4,0.1,0.6,0.1c0.2,0.1,0.5,0.2,0.6,0.4
					l3.6,3.7c0.3-0.7,0.6-1.5,0.6-2.3C39.4,31.4,37.1,29,34.3,28.7L34.3,28.7z"/>
			</g>
		</g>
	</g>
	<g>
		<path class="st0" d="M24.9,49.7C11.1,49.7,0,38.6,0,24.9S11.1,0,24.9,0s24.8,11.1,24.8,24.9S38.6,49.7,24.9,49.7z M24.9,1.5
			C12,1.5,1.5,12,1.5,24.9c0,12.9,10.5,23.3,23.4,23.3c12.9,0,23.3-10.5,23.3-23.3C48.2,12,37.7,1.5,24.9,1.5z"/>
	</g>
	<g>
		<rect x="24.1" y="43.9" class="st0" width="1.5" height="5"/>
	</g>
	<g>
		<rect x="24.1" y="0.8" class="st0" width="1.5" height="5"/>
	</g>
	<g>
		<rect x="0.8" y="24.1" class="st0" width="5" height="1.5"/>
	</g>
	<g>
		<rect x="43.9" y="24.1" class="st0" width="5" height="1.5"/>
	</g>
	<g>
		<rect x="7" y="39.4" transform="matrix(0.7071 -0.7071 0.7071 0.7071 -25.5931 18.5125)" class="st0" width="5.1" height="1.5"/>
	</g>
	<g>
		<rect x="37.6" y="8.8" transform="matrix(0.7071 -0.7071 0.7071 0.7071 5.0067 31.1874)" class="st0" width="5.1" height="1.5"/>
	</g>
	<g>
		
			<rect x="39.4" y="37.6" transform="matrix(0.7071 -0.7071 0.7071 0.7071 -16.6306 40.1499)" class="st0" width="1.5" height="5.1"/>
	</g>
	<g>
		<rect x="8.7" y="7" transform="matrix(0.7071 -0.7071 0.7071 0.7071 -3.9143 9.45)" class="st0" width="1.5" height="4.8"/>
	</g>
</g>
</svg>
