<?xml version="1.0" encoding="utf-8"?>
<!-- Generator: Adobe Illustrator 24.3.0, SVG Export Plug-In . SVG Version: 6.00 Build 0)  -->
<svg version="1.1" id="Layer_1" xmlns="http://www.w3.org/2000/svg" xmlns:xlink="http://www.w3.org/1999/xlink" x="0px" y="0px"
	 viewBox="0 0 70 56" style="enable-background:new 0 0 70 56;" xml:space="preserve">
<style type="text/css">
	.st0{fill:#41C4BF;}
	.st1{fill:none;stroke:#41C4BF;stroke-width:1.5;stroke-miterlimit:10;}
</style>
<g>
	<g>
		<g>
			<path class="st0" d="M21,37.7c-1.1,1-1.1,2.8-0.1,3.9c0.5,0.5,1.2,0.8,1.9,0.8c0.7,0,1.4-0.2,1.9-0.8l9.1-8.8l-3.8-3.9L21,37.7z
				 M21,37.7"/>
			<path class="st0" d="M43.7,21.5l3.9-1.9l2.1-3.9l-1.9-1.9l-4,2l-2.1,3.9L37,24.2l1.9,2L43.7,21.5z M43.7,21.5"/>
			<path class="st0" d="M44.4,31.8l-0.4,0c-0.7,0-1.3,0.1-1.9,0.3l-11-11.4c0.2-0.6,0.4-1.2,0.4-1.9l0-0.4c-0.1-2.8-2.4-5.1-5.3-5.2
				c-0.8,0-1.6,0.2-2.4,0.5l3.6,3.7c0.2,0.2,0.3,0.4,0.4,0.7c0.2,0.7,0.1,1.4-0.4,1.9c-0.4,0.3-0.8,0.5-1.3,0.5
				c-0.2,0-0.4-0.1-0.6-0.1c-0.2-0.1-0.5-0.2-0.6-0.4l-3.6-3.7c-0.4,0.7-0.6,1.5-0.6,2.3c-0.1,2.9,2.2,5.3,5,5.5l0.4,0
				c0.7,0,1.3-0.1,1.9-0.3l11,11.4c-0.2,0.6-0.4,1.2-0.4,1.9l0,0.4c0.1,2.8,2.4,5.1,5.3,5.2c0.8,0,1.6-0.2,2.3-0.5l-3.6-3.7
				c-0.2-0.2-0.3-0.4-0.4-0.7c-0.2-0.7-0.1-1.4,0.5-1.9c0.4-0.4,0.8-0.5,1.3-0.5c0.2,0,0.4,0.1,0.6,0.1c0.2,0.1,0.5,0.2,0.6,0.4
				l3.6,3.7c0.3-0.7,0.6-1.5,0.6-2.3C49.5,34.5,47.2,32.1,44.4,31.8L44.4,31.8z M44.4,31.8"/>
		</g>
	</g>
	<circle class="st1" cx="35" cy="28" r="24.1"/>
	<line class="st1" x1="35" y1="47.1" x2="35" y2="52.1"/>
	<line class="st1" x1="35" y1="3.9" x2="35" y2="8.9"/>
	<line class="st1" x1="15.9" y1="28" x2="10.9" y2="28"/>
	<line class="st1" x1="59.1" y1="28" x2="54.1" y2="28"/>
	<line class="st1" x1="21.5" y1="41.5" x2="17.9" y2="45.1"/>
	<line class="st1" x1="52.1" y1="10.9" x2="48.5" y2="14.5"/>
	<line class="st1" x1="48.5" y1="41.5" x2="52.1" y2="45.1"/>
	<line class="st1" x1="17.9" y1="10.9" x2="21.3" y2="14.3"/>
</g>
</svg>
