<?xml version="1.0" encoding="utf-8"?>
<!-- Generator: Adobe Illustrator 16.0.0, SVG Export Plug-In . SVG Version: 6.00 Build 0)  -->
<!DOCTYPE svg PUBLIC "-//W3C//DTD SVG 1.1//EN" "http://www.w3.org/Graphics/SVG/1.1/DTD/svg11.dtd">
<svg version="1.1" id="Layer_1" xmlns="http://www.w3.org/2000/svg" xmlns:xlink="http://www.w3.org/1999/xlink" x="0px" y="0px"
	 width="598.109px" height="63.141px" viewBox="0 0 598.109 63.141" enable-background="new 0 0 598.109 63.141"
	 xml:space="preserve">
<path fill="#FFFFFF" d="M27.822,61.919H0V2.702h26.319c14.945,0,21.337,6.392,21.337,16.074c0,6.673-4.512,11.373-10.904,12.407
	c7.144,1.316,12.691,6.015,12.691,14.475C49.443,55.904,41.64,61.919,27.822,61.919 M11.468,27.329h14.099
	c7.049,0,10.057-3.101,10.057-7.519s-3.008-7.613-10.057-7.613H11.468V27.329z M11.468,36.259v16.167h15.039
	c7.331,0,10.903-3.103,10.903-7.99c0-4.982-3.572-8.177-10.903-8.177H11.468z"/>
<path fill="#FFFFFF" d="M91.571,51.862c0,2.162,1.128,3.196,2.914,3.196c1.127,0,2.256-0.282,3.478-0.848v6.017
	c-1.786,1.41-4.042,2.633-7.802,2.633c-4.699,0-8.272-3.008-9.117-7.99c-2.35,4.887-7.614,8.083-14.476,8.083
	c-7.895,0-13.159-4.229-13.159-11.373c0-7.896,6.204-11.185,15.791-12.971l11.373-2.162v-1.222c0-4.606-2.443-7.426-7.237-7.426
	c-4.7,0-7.238,2.82-8.177,6.862l-10.246-0.94c1.41-8.459,7.895-14.381,18.892-14.381c10.716,0,17.766,5.075,17.766,15.979V51.862z
	 M80.573,42.558l-7.801,1.598c-5.17,1.033-8.365,2.349-8.365,6.203c0,2.914,2.067,5.076,5.733,5.076
	c5.921,0,10.433-4.418,10.433-11.469V42.558z"/>
<path fill="#FFFFFF" d="M183.971,48.103c-2.068,9.399-9.399,14.945-20.021,14.945c-12.783,0-21.995-8.179-21.995-21.242
	c0-13.066,9.307-22.465,21.713-22.465c13.535,0,20.491,9.399,20.491,20.679v3.571h-31.112c0.376,6.767,5.17,10.902,11.279,10.902
	c5.546,0,8.93-2.442,10.527-7.331L183.971,48.103z M173.162,37.668c-0.188-5.357-3.29-10.057-9.588-10.057
	c-6.203,0-9.682,4.512-10.339,10.057H173.162z"/>
<path fill="#FFFFFF" d="M219.335,31.559c-2.162-1.222-4.042-1.785-6.768-1.785c-5.828,0-9.775,4.135-9.775,11.654v20.491h-11.279
	V20.468h11.279v7.896c1.504-4.701,5.827-9.024,11.562-9.024c2.537,0,4.605,0.658,5.827,1.692L219.335,31.559z"/>
<path fill="#FFFFFF" d="M224.929,2.702h11.562V13.7h-11.562V2.702z M236.397,61.919h-11.279V20.468h11.279V61.919z"/>
<path fill="#FFFFFF" d="M256.964,61.92h-11.279V20.469h11.279v6.767c2.067-4.7,7.331-7.895,13.535-7.895
	c11.091,0,15.133,7.519,15.133,16.73v25.85h-11.279V38.327c0-6.391-2.538-10.056-8.084-10.056c-5.734,0-9.305,4.511-9.305,11.466
	V61.92z"/>
<path fill="#FFFFFF" d="M330.46,51.862c0,2.162,1.128,3.196,2.914,3.196c1.128,0,2.256-0.282,3.478-0.848v6.017
	c-1.786,1.41-4.042,2.633-7.802,2.633c-4.699,0-8.271-3.008-9.117-7.99c-2.35,4.887-7.613,8.083-14.475,8.083
	c-7.895,0-13.159-4.229-13.159-11.373c0-7.896,6.203-11.185,15.791-12.971l11.373-2.162v-1.222c0-4.606-2.444-7.426-7.237-7.426
	c-4.701,0-7.238,2.82-8.178,6.862l-10.245-0.94c1.409-8.459,7.896-14.381,18.893-14.381c10.716,0,17.765,5.075,17.765,15.979V51.862
	z M319.463,42.558l-7.802,1.598c-5.17,1.033-8.365,2.349-8.365,6.203c0,2.914,2.068,5.076,5.733,5.076
	c5.922,0,10.434-4.418,10.434-11.469V42.558z"/>
<polygon fill="#FFFFFF" points="102.874,18.099 102.874,1.001 117.19,1.001 117.19,23.575 "/>
<polygon fill="#FFFFFF" points="102.874,23.452 112.673,27.199 102.874,30.947 "/>
<polygon fill="#FFFFFF" points="117.19,30.824 117.19,39.106 110.23,61.92 102.875,61.92 102.875,36.3 "/>
<polygon fill="#FFFFFF" points="136.469,18.099 136.469,1.001 122.152,1.001 122.152,23.575 "/>
<polygon fill="#FFFFFF" points="136.469,23.452 126.67,27.199 136.469,30.947 "/>
<polygon fill="#FFFFFF" points="122.151,30.824 122.151,39.106 129.111,61.92 136.468,61.92 136.468,36.3 "/>
<path fill="#41C4BE" d="M429.885,47.781c-2.007,9.457-8.886,15.285-19.012,15.285c-12.037,0-21.018-8.502-21.018-21.306
	c0-13.087,8.885-22.449,20.636-22.449c12.992,0,19.488,9.361,19.488,20.635v2.675h-34.105c0.382,9.17,6.783,15.668,14.999,15.668
	c7.643,0,12.324-3.822,14.043-11.177L429.885,47.781z M423.771,38.513c-0.191-7.643-4.49-14.617-13.279-14.617
	c-8.217,0-13.566,6.879-14.521,14.617H423.771z"/>
<path fill="#41C4BE" d="M445.453,61.92h-5.827V20.458h5.827v7.643c2.007-5.065,7.738-8.789,13.948-8.789
	c10.699,0,15.19,6.972,15.19,16.908V61.92h-5.828V36.031c0-7.357-3.821-12.134-10.891-12.134c-6.592,0-12.42,5.16-12.42,13.185
	V61.92z"/>
<path fill="#41C4BE" d="M487.964,24.757h-6.4v-2.867l2.483-0.477c3.821-0.765,4.586-2.58,5.445-6.592l1.242-5.923h2.962v11.56
	h12.037v4.299h-12.037v28.086c0,3.726,1.528,5.541,5.35,5.541c2.866,0,5.731-1.433,8.121-2.865v4.106
	c-2.962,2.293-5.924,3.44-10.127,3.44c-5.541,0-9.076-2.77-9.076-10.317V24.757z"/>
<path fill="#41C4BE" d="M538.308,26.285c-2.388-1.242-3.821-1.623-6.305-1.623c-6.02,0-10.892,6.209-10.892,14.521V61.92h-5.827
	V20.459h5.827v8.693c1.624-4.777,5.828-9.84,11.942-9.84c2.579,0,4.395,0.573,5.923,1.911L538.308,26.285z"/>
<path fill="#41C4BE" d="M577.571,54.947c0,2.196,1.338,3.248,3.438,3.248c0.956,0,2.58-0.383,3.727-1.052v3.152
	c-1.241,1.432-2.579,2.483-5.445,2.483c-4.107,0-7.069-3.533-7.261-8.789c-2.197,4.873-8.312,9.076-15.381,9.076
	c-7.738,0-12.897-4.3-12.897-11.464c0-7.834,6.879-10.987,17.196-13.089l11.082-2.293v-2.101c0-6.305-3.726-10.223-10.222-10.223
	c-6.688,0-10.414,3.918-11.847,9.268l-4.968-0.956c1.624-7.451,7.738-12.896,16.719-12.896c10.317,0,15.858,5.445,15.858,15.666
	V54.947z M572.03,40.521l-10.127,2.196c-7.547,1.623-12.229,3.153-12.229,8.694c0,3.916,2.58,7.164,8.025,7.164
	c8.12,0,14.33-6.209,14.33-15.478V40.521z"/>
<rect x="592.283" y="1.731" fill="#41C4BE" width="5.826" height="60.188"/>
<path fill="#41C4BE" d="M377.301,44.736c-0.706,7.729-5.549,13.459-14.097,13.459c-8.693,0-14.616-6.783-14.616-17.007
	c0-10.223,5.923-17.005,14.616-17.005c8.479,0,13.311,5.458,14.077,13.083l5.346-0.389c-0.97-9.757-7.432-17.565-19.231-17.565
	c-12.323,0-20.922,8.694-20.922,21.876c0,13.185,8.599,21.878,20.922,21.878c11.873,0,18.345-7.903,19.252-17.746L377.301,44.736z"
	/>
</svg>
