<?xml version="1.0" encoding="utf-8"?>
<!-- Generator: Adobe Illustrator 16.0.0, SVG Export Plug-In . SVG Version: 6.00 Build 0)  -->
<!DOCTYPE svg PUBLIC "-//W3C//DTD SVG 1.1//EN" "http://www.w3.org/Graphics/SVG/1.1/DTD/svg11.dtd">
<svg version="1.1" id="Layer_1" xmlns="http://www.w3.org/2000/svg" xmlns:xlink="http://www.w3.org/1999/xlink" x="0px" y="0px"
	 width="1338px" height="211.076px" viewBox="-7.703 -47.797 1338 211.076" enable-background="new -7.703 -47.797 1338 211.076"
	 xml:space="preserve">
<g>
	<g>
		<g>
			<g>
				<path fill="#464646" d="M54.55,132.66H0V16.558h51.604c29.303,0,41.834,12.53,41.834,31.514
					c0,13.085-8.848,22.298-21.377,24.324c14.006,2.581,24.879,11.796,24.879,28.383C96.938,120.866,81.642,132.66,54.55,132.66z
					 M22.485,64.842h27.642c13.822,0,19.719-6.081,19.719-14.744c0-8.662-5.896-14.926-19.719-14.926H22.485V64.842z M22.485,82.349
					v31.697h29.483c14.374,0,21.378-6.081,21.378-15.666c0-9.767-7.004-16.031-21.378-16.031H22.485z"/>
				<path fill="#464646" d="M179.538,112.94c0,4.238,2.211,6.268,5.714,6.268c2.209,0,4.424-0.553,6.818-1.659v11.795
					c-3.502,2.768-7.925,5.162-15.296,5.162c-9.213,0-16.22-5.896-17.876-15.666c-4.606,9.583-14.928,15.851-28.383,15.851
					c-15.479,0-25.801-8.295-25.801-22.299c0-15.48,12.165-21.932,30.961-25.434l22.298-4.238v-2.396
					c0-9.029-4.789-14.561-14.188-14.561c-9.213,0-14.19,5.529-16.032,13.452l-20.09-1.843
					c2.765-16.585,15.481-28.195,37.042-28.195c21.01,0,34.832,9.951,34.832,31.328L179.538,112.94L179.538,112.94z M157.976,94.698
					l-15.294,3.132c-10.136,2.023-16.399,4.605-16.399,12.162c0,5.714,4.053,9.953,11.241,9.953
					c11.607,0,20.452-8.663,20.452-22.485V94.698z"/>
				<path fill="#464646" d="M360.701,105.569c-4.055,18.429-18.43,29.302-39.253,29.302c-25.062,0-43.124-16.033-43.124-41.647
					c0-25.615,18.246-44.046,42.569-44.046c26.537,0,40.177,18.43,40.177,40.544v7.002h-61c0.734,13.27,10.137,21.377,22.113,21.377
					c10.873,0,17.506-4.791,20.643-14.374L360.701,105.569z M339.509,85.113c-0.371-10.504-6.452-19.719-18.8-19.719
					c-12.161,0-18.981,8.847-20.271,19.719H339.509z"/>
				<path fill="#464646" d="M430.037,73.134c-4.238-2.396-7.924-3.5-13.27-3.5c-11.428,0-19.168,8.106-19.168,22.852v40.175h-22.111
					V51.388h22.111v15.479c2.947-9.215,11.43-17.691,22.67-17.691c4.975,0,9.027,1.291,11.428,3.316L430.037,73.134z"/>
				<path fill="#464646" d="M441.003,16.558h22.672v21.562h-22.672V16.558z M463.49,51.388v81.271h-22.115V51.388H463.49z"/>
				<path fill="#464646" d="M503.812,132.66h-22.113V51.388h22.113v13.271c4.055-9.215,14.373-15.479,26.537-15.479
					c21.746,0,29.67,14.744,29.67,32.805v50.679h-22.113V86.407c0-12.532-4.979-19.719-15.852-19.719
					c-11.24,0-18.242,8.848-18.242,22.481V132.66L503.812,132.66z"/>
				<path fill="#464646" d="M647.916,112.94c0,4.238,2.209,6.268,5.711,6.268c2.211,0,4.426-0.553,6.818-1.659v11.795
					c-3.5,2.768-7.926,5.162-15.299,5.162c-9.211,0-16.219-5.896-17.875-15.666c-4.605,9.583-14.928,15.851-28.381,15.851
					c-15.479,0-25.799-8.295-25.799-22.299c0-15.48,12.158-21.932,30.961-25.434l22.297-4.238v-2.396
					c0-9.029-4.793-14.561-14.188-14.561c-9.215,0-14.189,5.529-16.033,13.452l-20.086-1.843
					c2.764-16.585,15.479-28.195,37.041-28.195c21.012,0,34.832,9.951,34.832,31.328V112.94L647.916,112.94z M626.351,94.698
					l-15.297,3.132c-10.139,2.023-16.4,4.605-16.4,12.162c0,5.714,4.057,9.953,11.238,9.953c11.609,0,20.459-8.663,20.459-22.485
					V94.698z"/>
			</g>
			<g>
				<polygon fill="#464646" points="201.699,46.744 201.699,13.221 229.77,13.221 229.77,57.479 				"/>
				<polygon fill="#464646" points="201.699,57.239 220.912,64.588 201.699,71.933 				"/>
				<polygon fill="#464646" points="229.77,71.695 229.77,87.93 216.124,132.66 201.699,132.66 201.699,82.427 				"/>
			</g>
			<g>
				<polygon fill="#464646" points="267.564,46.744 267.564,13.221 239.495,13.221 239.495,57.479 				"/>
				<polygon fill="#464646" points="267.564,57.239 248.354,64.588 267.564,71.933 				"/>
				<polygon fill="#464646" points="239.495,71.695 239.495,87.93 253.142,132.66 267.564,132.66 267.564,82.427 				"/>
			</g>
		</g>
	</g>
</g>
<g>
	<path fill="#20B6AF" stroke="#20B6AF" stroke-width="2" stroke-miterlimit="10" d="M752.276,108.81
		c-0.575,2.775-1.632,5.68-3.178,8.709c-1.545,3.032-3.778,5.809-6.698,8.324c-2.919,2.521-6.67,4.601-11.248,6.244
		c-4.581,1.644-10.248,2.467-17.003,2.467c-7.212,0-13.309-0.874-18.289-2.621c-4.98-1.745-9.103-3.981-12.365-6.705
		c-3.263-2.723-5.812-5.728-7.642-9.019c-1.832-3.289-3.178-6.475-4.036-9.558s-1.373-5.882-1.546-8.402
		c-0.171-2.517-0.257-4.394-0.257-5.626c0-1.747,0.112-4.032,0.344-6.86c0.227-2.825,0.8-5.805,1.717-8.94
		c0.915-3.134,2.288-6.295,4.122-9.482c1.829-3.184,4.319-6.062,7.471-8.632c3.146-2.568,7.067-4.649,11.763-6.244
		c4.693-1.592,10.418-2.389,17.174-2.389c8.699,0,15.655,1.363,20.867,4.085c5.207,2.724,9.213,6.143,12.021,10.251
		c2.804,4.112,4.693,8.609,5.667,13.489c0.972,4.882,1.572,9.43,1.804,13.643c0,0.617,0.026,1.261,0.086,1.927
		c0.056,0.67,0.085,1.312,0.085,1.927h-67.148c0,3.393,0.517,6.836,1.546,10.329c1.03,3.495,2.633,6.656,4.81,9.48
		c2.172,2.829,5.007,5.165,8.5,7.015c3.491,1.851,7.755,2.775,12.795,2.775c3.548,0,6.753-0.437,9.616-1.311
		c2.86-0.873,5.295-2.056,7.3-3.546c2.001-1.489,3.605-3.211,4.808-5.164c1.202-1.951,2.031-4.009,2.49-6.166H752.276z
		 M737.163,85.841c-0.115-2.568-0.516-5.396-1.202-8.479c-0.687-3.083-1.919-5.935-3.692-8.556
		c-1.775-2.621-4.208-4.803-7.299-6.552c-3.091-1.747-7.101-2.621-12.021-2.621c-5.495,0-10.021,0.9-13.566,2.698
		c-3.551,1.799-6.327,4.034-8.331,6.706c-2.003,2.674-3.348,5.526-4.034,8.557c-0.688,3.032-1.031,5.78-1.031,8.247H737.163z"/>
	<path fill="#20B6AF" stroke="#20B6AF" stroke-width="2" stroke-miterlimit="10" d="M824.403,53.158h16.83l-30.568,37.46
		l32.973,40.853h-16.829l-24.73-32.22l-24.729,32.22h-16.831l32.974-40.853l-30.568-37.46h16.829l22.326,28.982L824.403,53.158z"/>
	<path fill="#20B6AF" stroke="#20B6AF" stroke-width="2" stroke-miterlimit="10" d="M853.082,76.282c0-2.566,0.485-5.395,1.46-8.478
		c0.972-3.083,2.804-5.935,5.496-8.556c2.688-2.621,6.465-4.803,11.334-6.552c4.864-1.747,11.133-2.621,18.805-2.621
		c3.547,0,7.355,0.309,11.422,0.925c4.062,0.617,7.84,1.85,11.334,3.7c3.49,1.85,6.381,4.497,8.672,7.939
		c2.289,3.445,3.376,8.043,3.264,13.798l-0.859,36.228c0,1.541,0.026,2.903,0.086,4.084c0.057,1.183,0.37,2.158,0.944,2.929
		c0.572,0.771,1.487,1.364,2.748,1.773c1.259,0.412,3.032,0.565,5.324,0.462v9.559c-1.031,0.204-2.035,0.358-3.006,0.462
		c-0.975,0.101-2.262,0.154-3.864,0.154c-2.061,0-3.979-0.13-5.753-0.385c-1.776-0.256-3.321-0.771-4.637-1.542
		c-1.317-0.771-2.404-1.9-3.264-3.391c-0.858-1.489-1.518-3.521-1.976-6.091c-1.488,2.467-3.32,4.575-5.495,6.32
		c-2.176,1.749-4.58,3.188-7.212,4.317c-2.636,1.13-5.41,1.951-8.329,2.466c-2.919,0.513-5.869,0.771-8.845,0.771
		c-9.161,0-16.572-1.877-22.239-5.627c-5.668-3.75-8.502-9.736-8.502-17.96c0-3.391,0.573-6.448,1.717-9.172
		c1.145-2.722,3.321-5.138,6.526-7.245c3.204-2.105,7.557-3.854,13.053-5.242c5.495-1.387,12.648-2.439,21.467-3.159
		c3.203-0.204,5.896-0.41,8.071-0.618c2.174-0.204,3.921-0.64,5.238-1.31c1.315-0.668,2.26-1.669,2.833-3.006
		c0.572-1.334,0.859-3.287,0.859-5.858c0-0.925-0.115-2.259-0.344-4.008c-0.231-1.747-0.975-3.493-2.232-5.241
		c-1.262-1.747-3.206-3.261-5.839-4.548c-2.635-1.284-6.354-1.927-11.163-1.927c-1.373,0-3.349,0.103-5.925,0.308
		c-2.576,0.207-5.125,0.848-7.643,1.927c-2.52,1.079-4.694,2.724-6.524,4.933c-1.834,2.211-2.693,5.372-2.576,9.48H853.082z
		 M909.754,91.39c-1.138,0.823-2.329,1.414-3.579,1.771c-1.251,0.361-2.614,0.644-4.09,0.849c-1.476,0.207-3.153,0.386-5.026,0.54
		c-1.875,0.153-4.006,0.385-6.389,0.693c-3.295,0.515-6.448,1.003-9.459,1.465s-5.651,1.183-7.922,2.158
		c-2.272,0.978-4.062,2.39-5.369,4.239s-1.958,4.316-1.958,7.398c0,4.626,1.561,8.198,4.685,10.715
		c3.123,2.52,7.13,3.777,12.014,3.777c2.951,0,5.936-0.386,8.946-1.156s5.793-2.158,8.348-4.163c2.555-2.003,4.685-4.751,6.39-8.247
		c1.704-3.493,2.727-7.963,3.069-13.412L909.754,91.39z"/>
	<path fill="#20B6AF" stroke="#20B6AF" stroke-width="2" stroke-miterlimit="10" d="M966.083,53.158v10.638l-0.172,0.924
		c1.144-2.259,2.689-4.29,4.637-6.089c1.945-1.797,4.122-3.339,6.526-4.625c2.403-1.284,4.951-2.259,7.643-2.929
		c2.688-0.668,5.409-1.002,8.157-1.002c3.778,0,7.098,0.489,9.961,1.464c2.859,0.979,5.294,2.262,7.298,3.854
		c2.003,1.595,3.634,3.391,4.895,5.396c1.259,2.004,2.174,4.035,2.748,6.09c0.8-1.542,2.002-3.262,3.605-5.165
		c1.604-1.9,3.607-3.725,6.012-5.473c2.404-1.746,5.295-3.21,8.673-4.393c3.375-1.18,7.355-1.773,11.936-1.773
		c6.639,0,11.85,1.209,15.628,3.623c3.777,2.416,6.582,5.268,8.416,8.556c1.829,3.291,2.945,6.682,3.348,10.174
		c0.4,3.495,0.601,6.321,0.601,8.479v50.564h-15.111v-49.64c0-2.054-0.146-4.366-0.43-6.936c-0.287-2.568-1.004-4.984-2.147-7.247
		c-1.146-2.259-2.833-4.162-5.065-5.703c-2.232-1.542-5.298-2.312-9.188-2.312c-2.521,0-5.152,0.361-7.9,1.079
		c-2.748,0.72-5.238,2.031-7.471,3.931c-2.231,1.903-4.066,4.471-5.496,7.708c-1.432,3.238-2.146,7.375-2.146,12.41v46.71h-15.113
		V81.986c0-2.875-0.23-5.65-0.686-8.325c-0.459-2.67-1.317-5.034-2.577-7.091c-1.261-2.054-2.978-3.723-5.151-5.01
		c-2.176-1.284-4.98-1.927-8.415-1.927c-3.092,0-6.041,0.592-8.845,1.772c-2.807,1.183-5.267,2.852-7.385,5.01
		c-2.119,2.159-3.777,4.806-4.979,7.939c-1.202,3.137-1.804,6.604-1.804,10.406v46.71H950.97V53.158H966.083z"/>
	<path fill="#20B6AF" stroke="#20B6AF" stroke-width="2" stroke-miterlimit="10" d="M1114.805,53.158v10.791h0.514
		c2.175-2.979,4.552-5.369,7.128-7.168c2.576-1.797,5.153-3.211,7.729-4.239c2.575-1.026,5.066-1.696,7.47-2.004
		c2.405-0.309,4.577-0.462,6.525-0.462c5.382,0,10.447,0.824,15.199,2.467c4.75,1.645,8.932,4.189,12.536,7.631
		c3.607,3.444,6.44,7.838,8.502,13.181c2.061,5.345,3.091,11.664,3.091,18.961c0,7.605-1.09,14.081-3.263,19.423
		c-2.177,5.346-5.096,9.713-8.76,13.104c-3.664,3.393-7.842,5.858-12.535,7.399c-4.696,1.541-9.504,2.312-14.427,2.312
		c-0.918,0-2.548-0.104-4.894-0.309c-2.349-0.206-4.954-0.797-7.814-1.772c-2.863-0.978-5.752-2.415-8.673-4.316
		c-2.919-1.901-5.354-4.549-7.299-7.939v39.772h-15.112V53.158H1114.805z M1114.805,92.624c0,6.064,0.858,11.151,2.575,15.262
		c1.718,4.111,3.921,7.452,6.612,10.02c2.688,2.569,5.608,4.394,8.758,5.473c3.147,1.079,6.153,1.619,9.017,1.619
		c3.091,0,6.153-0.54,9.188-1.619c3.032-1.079,5.78-2.876,8.243-5.395c2.461-2.519,4.465-5.859,6.011-10.021
		c1.547-4.162,2.319-9.376,2.319-15.646c0-10.071-2.292-18.037-6.87-23.895c-4.581-5.858-11.163-8.787-19.749-8.787
		c-1.949,0-4.41,0.335-7.385,1.002c-2.979,0.669-5.839,2.134-8.588,4.394c-2.747,2.261-5.124,5.577-7.126,9.943
		C1115.805,79.342,1114.805,85.223,1114.805,92.624z"/>
	<path fill="#20B6AF" stroke="#20B6AF" stroke-width="2" stroke-miterlimit="10" d="M1218.358,23.56v107.911h-15.112V23.56H1218.358
		z"/>
	<path fill="#20B6AF" stroke="#20B6AF" stroke-width="2" stroke-miterlimit="10" d="M1320.368,108.81
		c-0.573,2.775-1.631,5.68-3.178,8.709c-1.543,3.032-3.777,5.809-6.696,8.324c-2.919,2.521-6.671,4.601-11.249,6.244
		c-4.58,1.644-10.247,2.467-17.002,2.467c-7.212,0-13.31-0.874-18.289-2.621c-4.98-1.745-9.103-3.981-12.365-6.705
		c-3.264-2.723-5.812-5.728-7.642-9.019c-1.833-3.289-3.178-6.475-4.036-9.558s-1.373-5.882-1.547-8.402
		c-0.171-2.517-0.256-4.394-0.256-5.626c0-1.747,0.111-4.032,0.344-6.86c0.227-2.825,0.799-5.805,1.717-8.94
		c0.915-3.134,2.288-6.295,4.121-9.482c1.829-3.184,4.319-6.062,7.471-8.632c3.146-2.568,7.067-4.649,11.764-6.244
		c4.693-1.592,10.417-2.389,17.173-2.389c8.7,0,15.656,1.363,20.867,4.085c5.207,2.724,9.214,6.143,12.021,10.251
		c2.804,4.112,4.692,8.609,5.666,13.489c0.973,4.882,1.573,9.43,1.805,13.643c0,0.617,0.025,1.261,0.085,1.927
		c0.056,0.67,0.086,1.312,0.086,1.927h-67.148c0,3.393,0.516,6.836,1.545,10.329c1.031,3.495,2.634,6.656,4.811,9.48
		c2.172,2.829,5.006,5.165,8.499,7.015c3.492,1.851,7.755,2.775,12.795,2.775c3.548,0,6.753-0.437,9.617-1.311
		c2.86-0.873,5.294-2.056,7.3-3.546c2.001-1.489,3.605-3.211,4.808-5.164c1.202-1.951,2.031-4.009,2.489-6.166H1320.368z
		 M1305.256,85.841c-0.116-2.568-0.517-5.396-1.202-8.479c-0.688-3.083-1.919-5.935-3.692-8.556
		c-1.777-2.621-4.208-4.803-7.299-6.552c-3.091-1.747-7.101-2.621-12.022-2.621c-5.494,0-10.02,0.9-13.565,2.698
		c-3.552,1.799-6.328,4.034-8.331,6.706c-2.003,2.674-3.349,5.526-4.034,8.557c-0.688,3.032-1.031,5.78-1.031,8.247H1305.256z"/>
</g>
<g>
	<path fill="#20B6AF" d="M686.523-47.797v26.606c1.446-3.093,3.729-5.344,6.862-6.753c3.13-1.409,6.583-2.115,10.361-2.115
		c3.782,0,6.996,0.552,9.645,1.65c2.647,1.102,4.847,2.51,6.601,4.229c1.754,1.718,3.146,3.645,4.177,5.775
		c1.032,2.132,1.788,4.245,2.269,6.342c0.482,2.099,0.791,4.04,0.929,5.828c0.136,1.789,0.207,3.231,0.207,4.33
		c0,5.708-0.791,10.401-2.372,14.078c-1.584,3.68-3.574,6.566-5.982,8.664c-2.409,2.1-5.02,3.559-7.839,4.384
		c-2.82,0.824-5.43,1.236-7.836,1.236c-2.201,0-4.179-0.258-5.932-0.773c-1.754-0.516-3.338-1.202-4.746-2.062
		c-1.41-0.857-2.663-1.839-3.76-2.941c-1.103-1.099-2.065-2.269-2.891-3.506h-0.309v7.22h-8.457v-72.192H686.523z M685.907-2.109
		c0,4.125,0.446,7.597,1.341,10.416c0.892,2.821,2.078,5.104,3.557,6.857c1.477,1.754,3.145,3.01,5.002,3.764
		c1.856,0.76,3.783,1.135,5.775,1.135c2.132,0,4.196-0.375,6.191-1.135c1.989-0.754,3.743-1.992,5.258-3.711
		c1.513-1.718,2.715-3.987,3.61-6.806c0.891-2.819,1.34-6.256,1.34-10.315c0-3.918-0.435-7.253-1.289-10.004
		c-0.858-2.748-2.01-5.001-3.454-6.754c-1.445-1.755-3.132-3.024-5.056-3.816c-1.926-0.79-3.956-1.187-6.088-1.187
		c-2.197,0-4.276,0.414-6.236,1.238c-1.959,0.823-3.68,2.099-5.155,3.816c-1.48,1.718-2.647,3.954-3.507,6.702
		C686.333-9.158,685.907-5.89,685.907-2.109z"/>
	<path fill="#20B6AF" d="M741.391,36.669c1.365,0.206,2.353,0.341,2.966,0.413c0.613,0.065,1.125,0.101,1.536,0.101
		c1.293,0,2.385-0.242,3.271-0.721c0.889-0.483,1.636-1.133,2.249-1.959c0.613-0.825,1.105-1.77,1.482-2.835
		c0.372-1.068,0.772-2.183,1.185-3.352l1.246-3.92l-22.598-52.393h10.832l16.738,42.389l13.991-42.389h9.076l-20.834,58.58
		c-0.411,1.239-0.894,2.631-1.443,4.179c-0.549,1.547-1.325,2.99-2.317,4.331c-1.002,1.34-2.29,2.476-3.869,3.403
		c-1.583,0.929-3.612,1.393-6.083,1.393c-1.445,0-2.806-0.037-4.074-0.103c-1.273-0.068-2.392-0.207-3.354-0.413V36.669z"/>
</g>
</svg>
