<?xml version="1.0" encoding="UTF-8" standalone="no"?>
<!DOCTYPE svg PUBLIC "-//W3C//DTD SVG 1.1//EN" "http://www.w3.org/Graphics/SVG/1.1/DTD/svg11.dtd">
<svg width="100%" height="100%" viewBox="0 0 246 64" version="1.1" xmlns="http://www.w3.org/2000/svg" xmlns:xlink="http://www.w3.org/1999/xlink" xml:space="preserve" xmlns:serif="http://www.serif.com/" style="fill-rule:evenodd;clip-rule:evenodd;stroke-linejoin:round;stroke-miterlimit:1.41421;"><g><g><path d="M32,0c-17.555,0 -32,14.445 -32,32c0,17.555 14.445,32 32,32c17.555,0 32,-14.445 32,-32c0,-0.006 0,-0.013 0,-0.019c0,-17.544 -14.437,-31.981 -31.981,-31.981c-0.006,0 -0.013,0 -0.019,0l0,0Zm0,61.583c-16.237,-0.026 -29.583,-13.394 -29.583,-29.631c0,-16.256 13.376,-29.632 29.631,-29.632c16.256,0 29.632,13.376 29.632,29.632c0,0.016 0,0.032 0,0.048c-0.011,16.232 -13.371,29.583 -29.603,29.583c-0.025,0 -0.051,0 -0.077,0l0,0Z" style="fill:#3c1669;fill-rule:nonzero;"/><circle cx="41.804" cy="24.943" r="3.674" style="fill:#3c1669;"/><path d="M52.148,27.553c0.23,-0.885 0.36,-1.793 0.387,-2.707c-0.034,-0.945 -0.163,-1.885 -0.387,-2.804l0,-9.667l-1.16,0.193c-3.673,0.387 -7.444,0.677 -11.118,0.87c-5.001,-2.126 -10.659,-2.126 -15.661,0c-3.771,-0.193 -7.444,-0.483 -11.118,-0.87l-1.16,-0.097l0,9.668c-0.277,0.908 -0.408,1.854 -0.387,2.804c-0.014,0.917 0.116,1.83 0.387,2.707c-1.74,0.966 -3.094,3.093 -3.094,6.09c-0.193,6.768 4.447,13.342 4.447,13.342c0.48,-1.444 1.164,-2.811 2.031,-4.061c1.696,2.617 3.981,4.802 6.67,6.381c-0.354,-0.002 -0.684,0.182 -0.87,0.483c-0.185,-0.301 -0.516,-0.485 -0.87,-0.483l-0.29,0c-0.581,0.005 -1.058,0.482 -1.063,1.063l0,3.481c-0.002,0.022 -0.003,0.045 -0.003,0.068c0,0.589 0.477,1.077 1.066,1.092l0.387,0c0.354,0.002 0.684,-0.182 0.87,-0.484c0.185,0.302 0.516,0.486 0.87,0.484l0.29,0c0.354,0.002 0.685,-0.182 0.87,-0.484c0.186,0.302 0.516,0.486 0.87,0.484l0.097,0c0.581,-0.005 1.058,-0.482 1.063,-1.064l0,-3.093c4.345,1.546 9.093,1.546 13.438,0l0,2.997c-0.002,0.601 0.464,1.11 1.064,1.16l0.29,0c0.354,0.002 0.684,-0.182 0.87,-0.484c0.185,0.302 0.516,0.486 0.87,0.484l0.29,0c0.354,0.002 0.685,-0.182 0.87,-0.484c0.186,0.302 0.516,0.486 0.87,0.484l0.29,0c0.589,-0.015 1.066,-0.503 1.066,-1.092c0,-0.023 -0.001,-0.046 -0.002,-0.068l0,-3.577c0.002,-0.602 -0.464,-1.11 -1.064,-1.161l-0.29,0c-0.354,-0.001 -0.684,0.182 -0.87,0.484c-0.185,-0.302 -0.516,-0.485 -0.87,-0.484c2.69,-1.578 4.974,-3.763 6.671,-6.38c0.866,1.25 1.55,2.617 2.03,4.06c0.48,1.443 4.64,-6.574 4.447,-13.341c0.138,-2.409 -1.05,-4.711 -3.094,-5.994l0,0Zm-29.873,6.091c-4.773,0 -8.701,-3.928 -8.701,-8.701c0,-4.774 3.928,-8.701 8.701,-8.701c4.773,0 8.701,3.927 8.701,8.701c0,4.773 -3.928,8.701 -8.701,8.701l0,0Zm9.765,4.253l-3.964,-3.963c1.711,-1.125 3.082,-2.696 3.964,-4.544c0.855,1.865 2.232,3.443 3.963,4.544l-3.963,3.963Zm9.764,-4.253c-4.773,0 -8.701,-3.928 -8.701,-8.701c0,-4.774 3.928,-8.701 8.701,-8.701c4.773,0 8.701,3.927 8.701,8.701c0,4.773 -3.928,8.701 -8.701,8.701Z" style="fill:#3c1669;fill-rule:nonzero;"/><circle cx="22.275" cy="24.943" r="3.674" style="fill:#3c1669;"/></g><g><path d="M133.099,22.141l0,14.698c0,5.559 -3.553,9.61 -10.165,9.61c-6.612,0 -10.165,-4.051 -10.165,-9.61l0,-14.698l-4.737,0l0,14.698c0,8.291 6.02,13.944 14.902,13.944c8.882,0 14.902,-5.747 14.902,-13.944l0,-14.698l-4.737,0Z" style="fill:#3c1669;fill-rule:nonzero;"/><path d="M79.215,40.513l0,-7.631l18.751,0l0,7.631l4.737,0l0,-27.511l-4.737,0l0,15.452l-18.751,0l0,-15.452l-4.836,0l0,27.511l4.836,0Z" style="fill:#3c1669;fill-rule:nonzero;"/><path d="M147.607,40.513l0,-15.922c0,-4.394 3.786,-8.009 8.388,-8.009c4.602,0 8.389,3.615 8.389,8.009l0,15.922l4.737,0l0,-15.922c0,-4.394 3.787,-8.009 8.388,-8.009c4.602,0 8.389,3.615 8.389,8.009l0,15.922l4.737,0l0,-15.922c0.071,-6.793 -5.714,-12.444 -12.83,-12.531l-0.296,0c-4.378,-0.078 -8.484,2.079 -10.757,5.653c-2.255,-3.591 -6.372,-5.755 -10.757,-5.653c-7.115,-0.068 -13.034,5.455 -13.126,12.248l0,16.205l4.738,0Z" style="fill:#3c1669;fill-rule:nonzero;"/><path d="M226.064,16.205c8.554,0 15.593,6.72 15.593,14.887c0,8.166 -7.039,14.886 -15.593,14.886c-8.554,0 -15.592,-6.72 -15.592,-14.886c0.016,-8.161 7.045,-14.871 15.592,-14.887m0,-4.145c-10.936,0 -19.935,8.591 -19.935,19.032c0,10.44 8.999,19.032 19.935,19.032c10.937,0 19.936,-8.592 19.936,-19.032c0,-0.038 0,-0.076 0,-0.114c0,-10.378 -8.946,-18.919 -19.817,-18.919c-0.039,0 -0.079,0.001 -0.119,0.001Z" style="fill:#3c1669;fill-rule:nonzero;"/><rect x="196.359" y="22.141" width="4.737" height="18.278" style="fill:#3c1669;"/></g></g></svg>