<?xml version="1.0" encoding="utf-8"?>
<!-- Generator: Adobe Illustrator 16.0.4, SVG Export Plug-In . SVG Version: 6.00 Build 0)  -->
<!DOCTYPE svg PUBLIC "-//W3C//DTD SVG 1.0//EN" "http://www.w3.org/TR/2001/REC-SVG-20010904/DTD/svg10.dtd">
<svg version="1.0" id="Layer_1" xmlns="http://www.w3.org/2000/svg" xmlns:xlink="http://www.w3.org/1999/xlink" x="0px" y="0px"
	 width="452.664px" height="497.273px" viewBox="0 0 452.664 497.273" enable-background="new 0 0 452.664 497.273"
	 xml:space="preserve">
<g opacity="0.1">
	<g>
		<defs>
			<rect id="SVGID_13_" x="-49.406" y="-30.09" width="552" height="534.24"/>
		</defs>
		<clipPath id="SVGID_2_">
			<use xlink:href="#SVGID_13_"  overflow="visible"/>
		</clipPath>
		<g clip-path="url(#SVGID_2_)">
			<defs>
				<rect id="SVGID_15_" x="-49.406" y="-30.09" width="552" height="534.24"/>
			</defs>
			<clipPath id="SVGID_4_">
				<use xlink:href="#SVGID_15_"  overflow="visible"/>
			</clipPath>
			<g transform="matrix(1 0 0 1 -3.814697e-06 -1.907349e-06)" clip-path="url(#SVGID_4_)">
				
					<image overflow="visible" width="2300" height="2226" xlink:href="DD122B75A8E211DE.png"  transform="matrix(0.24 0 0 0.24 -49.4062 -30.0903)">
				</image>
			</g>
		</g>
	</g>
</g>
<rect x="-30" y="-21.854" fill="#FFFFFF" width="523.819" height="543.945"/>
<g>
	<rect y="56.654" fill="#F5F6F6" width="452.664" height="441.522"/>
	<line fill="none" stroke="#585A5E" stroke-miterlimit="10" x1="226.332" y1="116.417" x2="226.332" y2="19.75"/>
	<line fill="none" stroke="#585A5E" stroke-miterlimit="10" x1="226.541" y1="113.155" x2="226.541" y2="331.773"/>
	<g>
		<rect x="161.541" y="239.333" fill="#3FBFBB" width="130" height="70"/>
		<g>
			<path fill="#FFFFFF" d="M197.643,266.547c0.381,0.121,0.693,0.354,0.936,0.695c0.242,0.343,0.364,0.722,0.364,1.138
				c0,0.737-0.241,1.303-0.722,1.696c-0.48,0.395-1.143,0.592-1.982,0.592h-3.055v-7.982h2.795c0.85,0,1.512,0.187,1.988,0.56
				s0.715,0.91,0.715,1.612c0,0.416-0.097,0.775-0.292,1.078C198.195,266.24,197.945,266.444,197.643,266.547z M194.496,266.041
				h1.469c0.945,0,1.418-0.368,1.418-1.105c0-0.719-0.473-1.078-1.418-1.078h-1.469V266.041z M194.496,267.159v2.34h1.717
				c0.45,0,0.797-0.104,1.039-0.312s0.364-0.493,0.364-0.857s-0.122-0.65-0.364-0.858s-0.589-0.312-1.039-0.312H194.496z"/>
			<path fill="#FFFFFF" d="M203.492,262.686h1.3l3.067,7.982h-1.377l-0.819-2.21h-3.056l-0.818,2.21h-1.365L203.492,262.686z
				 M204.129,264.337l-1.092,2.951h2.184L204.129,264.337z"/>
			<path fill="#FFFFFF" d="M209.914,270.668v-7.982h1.352v6.773h3.836v1.209H209.914z"/>
			<path fill="#FFFFFF" d="M217.389,270.668v-7.982h1.352v6.773h3.836v1.209H217.389z"/>
			<path fill="#FFFFFF" d="M224.863,262.686h5.214v1.196h-3.888v2.106h3.523v1.183h-3.523v2.288h3.888v1.209h-5.214V262.686z"/>
			<path fill="#FFFFFF" d="M234.77,267.431h-0.962v3.237h-1.353v-7.982h3.082c0.84,0,1.504,0.206,1.988,0.618
				c0.486,0.411,0.729,1.003,0.729,1.774c0,0.658-0.18,1.181-0.539,1.566c-0.36,0.386-0.861,0.631-1.502,0.734l2.314,3.289h-1.535
				L234.77,267.431z M233.808,263.857v2.443h1.703c0.442,0,0.786-0.11,1.034-0.331c0.246-0.222,0.369-0.518,0.369-0.891
				s-0.123-0.67-0.369-0.891c-0.248-0.221-0.592-0.331-1.034-0.331H233.808z"/>
			<path fill="#FFFFFF" d="M241.933,262.686v7.982h-1.353v-7.982H241.933z"/>
			<path fill="#FFFFFF" d="M251.033,262.686v7.982h-1.041l-4.082-5.811v5.811h-1.3v-7.982h1.274l3.848,5.538v-5.538H251.033z"/>
			<path fill="#FFFFFF" d="M256.154,262.686h1.301l3.067,7.982h-1.378l-0.818-2.21h-3.056l-0.819,2.21h-1.365L256.154,262.686z
				 M256.791,264.337l-1.092,2.951h2.185L256.791,264.337z"/>
			<path fill="#FFFFFF" d="M197.291,283.458h1.379c0.25,0.798,0.854,1.196,1.807,1.196c0.468,0,0.842-0.106,1.124-0.318
				c0.282-0.213,0.423-0.501,0.423-0.865c0-0.286-0.09-0.514-0.267-0.683c-0.178-0.169-0.475-0.301-0.891-0.396l-1.353-0.324
				c-1.325-0.312-1.988-1.027-1.988-2.146c0-0.685,0.254-1.25,0.76-1.696c0.508-0.446,1.16-0.67,1.957-0.67
				c0.841,0,1.52,0.197,2.035,0.592s0.847,0.934,0.994,1.618h-1.352c-0.252-0.71-0.807-1.065-1.664-1.065
				c-0.434,0-0.783,0.102-1.047,0.306c-0.265,0.203-0.396,0.47-0.396,0.799c0,0.529,0.351,0.876,1.053,1.04l1.391,0.325
				c0.65,0.147,1.157,0.407,1.521,0.78c0.363,0.372,0.546,0.85,0.546,1.43c0,0.737-0.265,1.324-0.793,1.762
				s-1.214,0.656-2.054,0.656c-0.85,0-1.559-0.206-2.126-0.617C197.783,284.769,197.43,284.195,197.291,283.458z"/>
			<path fill="#FFFFFF" d="M205.572,277.686h5.213v1.196h-3.887v2.106h3.522v1.183h-3.522v2.288h3.887v1.209h-5.213V277.686z"/>
			<path fill="#FFFFFF" d="M215.479,282.431h-0.963v3.237h-1.352v-7.982h3.081c0.841,0,1.504,0.206,1.989,0.618
				c0.485,0.411,0.729,1.003,0.729,1.774c0,0.658-0.181,1.181-0.54,1.566c-0.36,0.386-0.86,0.631-1.501,0.734l2.313,3.289h-1.534
				L215.479,282.431z M214.516,278.857v2.443h1.703c0.442,0,0.787-0.11,1.034-0.331c0.247-0.222,0.37-0.518,0.37-0.891
				s-0.123-0.67-0.37-0.891s-0.592-0.331-1.034-0.331H214.516z"/>
			<path fill="#FFFFFF" d="M224.838,285.668h-1.287l-3.016-7.982h1.416l2.263,6.228l2.263-6.228h1.377L224.838,285.668z"/>
			<path fill="#FFFFFF" d="M231.246,277.686v7.982h-1.352v-7.982H231.246z"/>
			<path fill="#FFFFFF" d="M234.529,284.648c-0.689-0.767-1.033-1.757-1.033-2.971c0-1.213,0.344-2.203,1.033-2.971
				c0.689-0.767,1.554-1.15,2.594-1.15c0.884,0,1.607,0.236,2.171,0.709s0.923,1.116,1.079,1.931h-1.326
				c-0.347-0.945-0.988-1.417-1.924-1.417c-0.693,0-1.244,0.271-1.65,0.812c-0.408,0.541-0.611,1.237-0.611,2.086
				c0,0.85,0.203,1.545,0.611,2.087c0.406,0.542,0.957,0.812,1.65,0.812c0.936,0,1.577-0.477,1.924-1.431h1.326
				c-0.156,0.824-0.516,1.472-1.079,1.944c-0.563,0.472-1.287,0.708-2.171,0.708C236.083,285.798,235.219,285.415,234.529,284.648z"
				/>
			<path fill="#FFFFFF" d="M242.596,277.686h5.213v1.196h-3.887v2.106h3.522v1.183h-3.522v2.288h3.887v1.209h-5.213V277.686z"/>
			<path fill="#FFFFFF" d="M249.563,283.458h1.378c0.252,0.798,0.854,1.196,1.807,1.196c0.469,0,0.844-0.106,1.125-0.318
				c0.281-0.213,0.423-0.501,0.423-0.865c0-0.286-0.089-0.514-0.267-0.683s-0.475-0.301-0.891-0.396l-1.352-0.324
				c-1.326-0.312-1.989-1.027-1.989-2.146c0-0.685,0.253-1.25,0.761-1.696c0.507-0.446,1.158-0.67,1.956-0.67
				c0.841,0,1.519,0.197,2.034,0.592s0.848,0.934,0.995,1.618h-1.353c-0.251-0.71-0.806-1.065-1.664-1.065
				c-0.434,0-0.781,0.102-1.046,0.306c-0.265,0.203-0.397,0.47-0.397,0.799c0,0.529,0.352,0.876,1.054,1.04l1.392,0.325
				c0.649,0.147,1.156,0.407,1.521,0.78c0.364,0.372,0.546,0.85,0.546,1.43c0,0.737-0.265,1.324-0.793,1.762
				c-0.529,0.438-1.213,0.656-2.055,0.656c-0.849,0-1.557-0.206-2.125-0.617C250.056,284.769,249.702,284.195,249.563,283.458z"/>
		</g>
	</g>
	<g>
		<rect x="161.541" y="325.673" fill="#FFFFFF" width="130" height="70"/>
		<g>
			<path fill="#585A5E" d="M183.668,343.213c0.693,0.775,1.04,1.762,1.04,2.957c0,1.196-0.347,2.183-1.04,2.958
				s-1.578,1.163-2.652,1.163s-1.956-0.388-2.646-1.163c-0.688-0.775-1.033-1.762-1.033-2.958c0-1.195,0.345-2.182,1.033-2.957
				c0.689-0.775,1.571-1.164,2.646-1.164S182.975,342.438,183.668,343.213z M182.699,348.263c0.43-0.546,0.644-1.243,0.644-2.093
				c0-0.849-0.214-1.547-0.644-2.093c-0.429-0.546-0.99-0.819-1.684-0.819s-1.252,0.271-1.677,0.812
				c-0.425,0.542-0.638,1.242-0.638,2.1c0,0.858,0.213,1.559,0.638,2.1c0.425,0.542,0.983,0.812,1.677,0.812
				S182.271,348.81,182.699,348.263z"/>
			<path fill="#585A5E" d="M189.258,346.924h-0.963v3.237h-1.352v-7.982h3.081c0.841,0,1.504,0.206,1.989,0.618
				c0.485,0.411,0.729,1.003,0.729,1.774c0,0.658-0.181,1.181-0.54,1.566c-0.36,0.386-0.86,0.631-1.501,0.734l2.313,3.289h-1.534
				L189.258,346.924z M188.295,343.35v2.443h1.703c0.442,0,0.787-0.11,1.034-0.331c0.247-0.222,0.37-0.518,0.37-0.891
				s-0.123-0.67-0.37-0.891s-0.592-0.331-1.034-0.331H188.295z"/>
			<path fill="#585A5E" d="M195.673,349.141c-0.688-0.767-1.033-1.757-1.033-2.971c0-1.213,0.345-2.203,1.033-2.971
				c0.689-0.767,1.554-1.15,2.594-1.15c0.884,0,1.607,0.236,2.171,0.709s0.923,1.116,1.079,1.931h-1.326
				c-0.347-0.945-0.987-1.417-1.924-1.417c-0.693,0-1.243,0.271-1.651,0.812c-0.407,0.541-0.611,1.237-0.611,2.086
				c0,0.85,0.204,1.545,0.611,2.087c0.408,0.542,0.958,0.812,1.651,0.812c0.937,0,1.577-0.477,1.924-1.431h1.326
				c-0.156,0.824-0.516,1.472-1.079,1.944c-0.563,0.472-1.287,0.708-2.171,0.708C197.227,350.292,196.362,349.908,195.673,349.141z"
				/>
			<path fill="#585A5E" d="M209.108,342.179h1.353v7.982h-1.353v-3.497h-4.017v3.497h-1.353v-7.982h1.353v3.289h4.017V342.179z"/>
			<path fill="#585A5E" d="M213.139,342.179h5.213v1.196h-3.887v2.106h3.522v1.183h-3.522v2.288h3.887v1.209h-5.213V342.179z"/>
			<path fill="#585A5E" d="M220.105,347.952h1.379c0.251,0.798,0.854,1.196,1.807,1.196c0.469,0,0.843-0.106,1.125-0.318
				c0.281-0.213,0.422-0.501,0.422-0.865c0-0.286-0.089-0.514-0.266-0.683c-0.178-0.169-0.475-0.301-0.891-0.396l-1.353-0.324
				c-1.325-0.312-1.989-1.027-1.989-2.146c0-0.685,0.254-1.25,0.761-1.696s1.159-0.67,1.956-0.67c0.842,0,1.52,0.197,2.035,0.592
				s0.848,0.934,0.994,1.618h-1.352c-0.252-0.71-0.807-1.065-1.664-1.065c-0.434,0-0.782,0.102-1.047,0.306
				c-0.264,0.203-0.396,0.47-0.396,0.799c0,0.529,0.352,0.876,1.053,1.04l1.392,0.325c0.649,0.147,1.157,0.407,1.521,0.78
				c0.364,0.372,0.547,0.85,0.547,1.43c0,0.737-0.266,1.324-0.793,1.762c-0.529,0.438-1.214,0.656-2.055,0.656
				c-0.85,0-1.558-0.206-2.125-0.617C220.598,349.262,220.244,348.688,220.105,347.952z"/>
			<path fill="#585A5E" d="M227.75,343.375v-1.196h6.656v1.196h-2.652v6.786h-1.352v-6.786H227.75z"/>
			<path fill="#585A5E" d="M238.904,346.924h-0.963v3.237h-1.352v-7.982h3.081c0.841,0,1.504,0.206,1.989,0.618
				c0.485,0.411,0.729,1.003,0.729,1.774c0,0.658-0.181,1.181-0.54,1.566c-0.36,0.386-0.86,0.631-1.501,0.734l2.313,3.289h-1.534
				L238.904,346.924z M237.941,343.35v2.443h1.703c0.442,0,0.787-0.11,1.034-0.331c0.247-0.222,0.37-0.518,0.37-0.891
				s-0.123-0.67-0.37-0.891s-0.592-0.331-1.034-0.331H237.941z"/>
			<path fill="#585A5E" d="M247.159,342.179h1.3l3.068,7.982h-1.379l-0.818-2.21h-3.055l-0.819,2.21h-1.365L247.159,342.179z
				 M247.796,343.831l-1.092,2.951h2.185L247.796,343.831z"/>
			<path fill="#585A5E" d="M252.256,343.375v-1.196h6.655v1.196h-2.651v6.786h-1.353v-6.786H252.256z"/>
			<path fill="#585A5E" d="M266.581,343.213c0.693,0.775,1.04,1.762,1.04,2.957c0,1.196-0.347,2.183-1.04,2.958
				s-1.577,1.163-2.652,1.163s-1.956-0.388-2.646-1.163s-1.033-1.762-1.033-2.958c0-1.195,0.344-2.182,1.033-2.957
				s1.57-1.164,2.646-1.164S265.888,342.438,266.581,343.213z M265.612,348.263c0.429-0.546,0.644-1.243,0.644-2.093
				c0-0.849-0.215-1.547-0.644-2.093s-0.99-0.819-1.684-0.819s-1.253,0.271-1.677,0.812c-0.425,0.542-0.637,1.242-0.637,2.1
				c0,0.858,0.212,1.559,0.637,2.1c0.424,0.542,0.983,0.812,1.677,0.812S265.184,348.81,265.612,348.263z"/>
			<path fill="#585A5E" d="M272.184,346.924h-0.962v3.237h-1.353v-7.982h3.082c0.84,0,1.504,0.206,1.988,0.618
				c0.486,0.411,0.729,1.003,0.729,1.774c0,0.658-0.18,1.181-0.539,1.566c-0.36,0.386-0.861,0.631-1.502,0.734l2.314,3.289h-1.535
				L272.184,346.924z M271.222,343.35v2.443h1.703c0.442,0,0.786-0.11,1.034-0.331c0.246-0.222,0.369-0.518,0.369-0.891
				s-0.123-0.67-0.369-0.891c-0.248-0.221-0.592-0.331-1.034-0.331H271.222z"/>
		</g>
		<g>
			<g>
				<path fill="#B3B3B3" d="M195.15,370.904c0.203,0,0.352-0.162,0.365-0.352l0.121-2.154c-0.15,0.025-0.283,0.055-0.432,0.08
					c-0.768,0.176-1.455,0.553-2.008,1.105l1.791,1.281C195.029,370.89,195.098,370.904,195.15,370.904z"/>
				<path fill="#B3B3B3" d="M194.193,372.318c0.121-0.148,0.109-0.377-0.039-0.498l-1.604-1.428
					c-0.486,0.795-0.688,1.725-0.607,2.641l2.088-0.607C194.1,372.414,194.154,372.373,194.193,372.318z"/>
				<polygon fill="#B3B3B3" points="195.568,373.074 196.16,373.355 196.754,373.074 196.889,372.439 196.484,371.927 
					195.824,371.927 195.42,372.439 				"/>
				<path fill="#B3B3B3" d="M194.328,373.679l-2.141,0.363c0.322,0.889,0.928,1.631,1.684,2.117l0.82-1.982
					c0.029-0.066,0.029-0.135,0.014-0.215C194.666,373.787,194.504,373.666,194.328,373.679z"/>
				<path fill="#B3B3B3" d="M196.877,370.755c0.119,0.148,0.322,0.176,0.471,0.08l1.764-1.252c-0.646-0.646-1.496-1.064-2.424-1.172
					l0.121,2.195C196.82,370.662,196.836,370.714,196.877,370.755z"/>
				<path fill="#B3B3B3" d="M197.777,373.707c-0.162,0.08-0.229,0.256-0.188,0.416l0.85,2.037c0.51-0.338,0.955-0.77,1.293-1.309
					c0.174-0.256,0.311-0.525,0.391-0.82l-2.156-0.365C197.898,373.666,197.832,373.679,197.777,373.707z"/>
				<path fill="#B3B3B3" d="M206.254,374.232l-1.686-7.316c-0.107-0.484-0.43-0.877-0.875-1.092l-6.818-3.248
					c-0.215-0.107-0.457-0.16-0.699-0.16c-0.244,0-0.486,0.053-0.701,0.16l-6.818,3.262c-0.443,0.215-0.768,0.605-0.875,1.092
					l-1.684,7.316c-0.123,0.484,0,0.984,0.309,1.373l4.717,5.863c0.309,0.389,0.768,0.604,1.252,0.604l7.6-0.012
					c0.484,0,0.943-0.23,1.252-0.607l4.717-5.859C206.254,375.214,206.361,374.716,206.254,374.232z M202.951,374.488
					c-0.039,0-0.066,0-0.107-0.014c-0.014-0.014-0.027-0.014-0.039-0.014c-0.027,0-0.055-0.012-0.082-0.012
					c-0.094-0.029-0.162,0.181-0.242,0.142c-0.041-0.014-0.082,0.183-0.121,0.183h-0.014c-0.256-1-0.486-1-0.701-1h-0.027
					c-0.08,0-0.121,0.201-0.174,0.229c-0.014,0-0.014,0.095-0.027,0.095l-0.162,0.013c-0.135,0.418-0.322,0.856-0.564,1.235
					c-0.459,0.727-1.066,1.329-1.779,1.747l0.066,0.167c0,0.014-0.012,0.016-0.012,0.029c-0.016,0.066-0.084,0.123-0.059,0.217
					c0.068,0.201,0.309,0.405,0.309,0.634v0.014c0,0.041,0.098,0.068,0.123,0.107c0.055,0.068,0.129,0.135,0.17,0.217
					c0.014,0.014,0.038,0.039,0.052,0.066c0,0.014,0.019,0.014,0.019,0.027c0.053,0.107,0.056,0.229,0.028,0.338
					c-0.025,0.107-0.104,0.188-0.199,0.242c-0.053,0.025-0.107,0.039-0.162,0.039c-0.16,0-0.321-0.094-0.403-0.256
					c0,0-0.014-0.014-0.014-0.025c-0.014-0.027-0.025-0.041-0.039-0.068c-0.041-0.08-0.281-0.162-0.307-0.242
					c-0.016-0.041-0.268-0.082-0.268-0.121v-0.014c0-0.256,0.051-0.486-0.057-0.674c-0.055-0.082,0.004-0.107-0.062-0.121
					c-0.014-0.014,0.043-0.014,0.029-0.014l-0.052-0.148c-0.229,0.08-0.444,0.148-0.687,0.201c-0.377,0.096-0.774,0.135-1.165,0.135
					c-0.646,0-1.29-0.121-1.884-0.348l-0.092,0.174c-0.014,0.014-0.013,0.014-0.026,0.014c-0.053,0.025-0.12,0.039-0.173,0.121
					c-0.121,0.189-0.189,0.404-0.283,0.674c-0.014,0.039-0.027,0.08-0.041,0.121c-0.027,0.08-0.041,0.148-0.08,0.242
					c-0.014,0.014-0.027,0.041-0.041,0.068c0,0-0.014,0.012-0.014,0.025c-0.08,0.148-0.242,0.256-0.404,0.256
					c-0.053,0-0.107-0.014-0.162-0.039c-0.201-0.096-0.283-0.352-0.174-0.58c0,0,0.012-0.014,0.012-0.027
					c0.014-0.027,0.027-0.053,0.041-0.066c0.055-0.082,0.136-0.148,0.19-0.217c0.027-0.039,0.124-0.066,0.124-0.107v-0.014
					c0-0.229,0.226-0.432,0.308-0.633c0.027-0.094-0.021-0.162-0.048-0.215c0-0.014-0.024-0.014-0.024-0.027l0.076-0.176
					c-0.203-0.121-0.393-0.242-0.582-0.389c-0.822-0.648-1.443-1.537-1.768-2.535l-0.189,0.027c-0.012,0-0.013-0.183-0.026-0.183
					c-0.041-0.027-0.096-0.235-0.176-0.235h-0.027c-0.215,0-0.443,0-0.699,1h-0.014c-0.041,0-0.082-0.189-0.121-0.176
					c-0.082,0.041-0.148-0.049-0.242-0.021c-0.029,0-0.055-0.044-0.082-0.044c0,0.014-0.014-0.015-0.027-0.015
					c-0.041,0.014-0.066-0.001-0.107-0.001c-0.215,0-0.391-0.129-0.432-0.318c-0.041-0.215,0.109-0.446,0.352-0.501
					c0.014-0.014,0.025-0.016,0.039-0.016c0.027,0,0.055-0.015,0.082-0.015c0.094-0.014,0.176,0.046,0.256,0.046
					c0.041-0.014,0.094,0.061,0.135,0.061h0.014c0.281,0,0.525-0.127,0.727-0.195c0.082-0.041,0.121-0.131,0.148-0.186
					c0-0.014,0.014-0.032,0.014-0.044l0.176-0.063c-0.176-1.238,0.08-2.497,0.754-3.562c0.014-0.041-0.182-0.071-0.154-0.112
					l-0.359-0.121v-0.027c0-0.068,0.223-0.135,0.156-0.203c-0.162-0.148-0.252-0.268-0.496-0.418
					c-0.039-0.027-0.024-0.053-0.065-0.066c-0.08-0.041-0.118-0.082-0.2-0.135c-0.027-0.014-0.025-0.041-0.053-0.055
					c-0.014,0-0.007-0.012-0.021-0.012c-0.189-0.162-0.226-0.432-0.093-0.607c0.068-0.094,0.191-0.148,0.312-0.148
					c0.107,0,0.218,0.041,0.298,0.107c0,0.014,0.015,0.014,0.028,0.027c0.025,0.027,0.055,0.041,0.066,0.055
					c0.068,0.068,0.123,0.121,0.176,0.189c0.041,0.025,0.068,0.066,0.096,0.092c0.188,0.203,0.361,0.379,0.539,0.5
					c0.039,0.025,0.078,0.021,0.119,0.021c0.027,0,0.055-0.036,0.082-0.036h0.027l0.133,0.116c0.715-0.754,1.631-1.271,2.668-1.499
					c0.244-0.053,0.486-0.075,0.729-0.103l0.014-0.172c0.014-0.016,0.014-0.014,0.027-0.027c0.039-0.039,0.289-0.08,0.303-0.174
					c0.027-0.215,0.154-0.458,0.154-0.728v-0.014c0-0.053,0.02-0.094,0.006-0.135c-0.025-0.08-0.006-0.16-0.006-0.254v-0.082v-0.027
					c0-0.121-0.189-0.229-0.107-0.309c0.08-0.08-0.115-0.137-0.006-0.137c0.229,0,0.113,0.203,0.113,0.445v0.041v0.08
					c0,0.094,0.006,0.176-0.006,0.256c-0.014,0.041,0.006,0.096,0.006,0.135v0.016c0,0.268,0.101,0.51,0.114,0.727
					c0.014,0.094,0.146,0.135,0.185,0.174c0.014,0.016,0.053,0.016,0.066,0.027l0.033,0.176c1.023,0.094,2.018,0.484,2.826,1.117
					c0.188,0.162,0.382,0.296,0.558,0.485l0.165-0.136h0.027c0.027,0,0.055,0.04,0.082,0.04c0.039,0,0.08,0.003,0.121-0.024
					c0.174-0.123,0.35-0.276,0.539-0.479c0.039-0.027,0.066-0.063,0.094-0.091c0.053-0.066,0.107-0.119,0.174-0.186
					c0.027-0.016,0.041-0.04,0.068-0.054c0.014-0.014,0.014-0.013,0.027-0.026c0.094-0.068,0.188-0.107,0.297-0.107
					c0.121,0,0.242,0.053,0.309,0.148c0.135,0.174,0.094,0.443-0.094,0.605c0,0.014-0.014,0.014-0.027,0.027
					c-0.025,0.027-0.053,0.041-0.066,0.053c-0.082,0.055-0.148,0.096-0.23,0.135c-0.039,0.027-0.08,0.041-0.121,0.068
					c-0.242,0.148-0.681,0.27-0.843,0.418c-0.055,0.068-0.304,0.135-0.304,0.201v0.029l0.103,0.119
					c0.35,0.539,0.724,1.133,0.872,1.766s0.233,1.281,0.153,1.9l0.206,0.055c0,0.012,0.028,0.012,0.028,0.025
					c0.025,0.055,0.06,0.161,0.153,0.202c0.217,0.066,0.453,0.175,0.736,0.175h0.014c0.053,0,0.094-0.04,0.135-0.04
					c0.08,0,0.162-0.013,0.256,0.001c0.027,0,0.055,0.019,0.08,0.019c0,0.014,0.014,0.021,0.027,0.021h0.014
					c0.242,0,0.391,0.263,0.391,0.425C203.328,374.374,203.154,374.488,202.951,374.488z"/>
				<path fill="#B3B3B3" d="M196.297,374.595c-0.148-0.08-0.324-0.027-0.432,0.094l-1.064,1.928
					c0.432,0.135,0.889,0.215,1.359,0.215c0.324,0,0.635-0.041,0.945-0.107c0.133-0.041,0.268-0.066,0.389-0.107l-1.035-1.873
					C196.418,374.689,196.363,374.636,196.297,374.595z"/>
				<path fill="#B3B3B3" d="M199.76,370.392l-1.631,1.469c-0.041,0.039-0.068,0.094-0.082,0.146
					c-0.039,0.189,0.068,0.379,0.258,0.432l2.061,0.594c0.039-0.445,0.014-0.904-0.094-1.361
					C200.162,371.201,199.988,370.769,199.76,370.392z"/>
			</g>
			<path fill-rule="evenodd" clip-rule="evenodd" fill="#B3B3B3" d="M242.05,370.133c-0.576-0.387-1.9-0.527-2.92-0.334
				c-0.131-0.961-0.666-1.793-1.639-2.545l-0.561-0.373l-0.373,0.559c-0.479,0.721-0.717,1.721-0.637,2.678
				c0.033,0.336,0.145,0.939,0.49,1.469c-0.346,0.188-1.029,0.443-1.932,0.426h-17.357l-0.033,0.199
				c-0.164,0.963-0.16,3.965,1.789,6.273c1.482,1.754,3.705,2.645,6.604,2.645c6.287,0,10.939-2.895,13.115-8.154
				c0.857,0.018,2.701,0.006,3.648-1.805c0.025-0.043,0.082-0.15,0.246-0.494l0.092-0.188L242.05,370.133z M228.36,365.774h2.641
				v-2.398h-2.641V365.774z M228.36,368.653h2.641v-2.398h-2.641V368.653z M225.241,368.653h2.641v-2.398h-2.641V368.653z
				 M222.122,368.653h2.641v-2.398h-2.641V368.653z M219.005,371.532h2.639v-2.398h-2.639V371.532z M222.122,371.532h2.641v-2.398
				h-2.641V371.532z M225.241,371.532h2.641v-2.398h-2.641V371.532z M228.36,371.532h2.641v-2.398h-2.641V371.532z M231.479,371.532
				h2.639v-2.398h-2.639V371.532z"/>
			<g>
				<path fill="#B3B3B3" d="M256.753,374.418c0,0,0.398-1.506-1.328-3.447l-0.059-0.061c-0.727-0.863-1.129-1.957-1.129-3.082
					c0-2.639,2.15-4.787,4.795-4.787h0.111c2.643,0,4.795,2.148,4.795,4.787c0,1.125-0.402,2.219-1.129,3.08
					c-0.01,0.01-0.029,0.031-0.059,0.061c-1.531,1.535-1.33,3.449-1.33,3.449c2.801-0.965,4.691-3.598,4.707-6.551
					c0.021-3.691-2.959-6.84-6.643-7.016c-0.045-0.002-0.09-0.002-0.137-0.002c-0.055,0-0.262,0.004-0.262,0.004
					c-0.006,0-0.205-0.004-0.26-0.004c-0.047,0-0.092,0-0.137,0.002c-3.686,0.176-6.664,3.324-6.645,7.016
					C252.063,370.821,253.954,373.454,256.753,374.418"/>
				<path fill="#B3B3B3" d="M265.8,379.975c0.121-0.051,0.264-0.092,0.42-0.123c0.145-0.031,0.307-0.053,0.484-0.059
					c0,0-0.008-0.053-0.018-0.135c-0.006-0.08-0.043-0.188-0.08-0.291c-0.018-0.053-0.035-0.105-0.055-0.152
					c-0.02-0.049-0.049-0.092-0.068-0.131c-0.041-0.074-0.068-0.123-0.068-0.123c-0.174-0.029-0.34-0.068-0.5-0.113
					c-0.162-0.047-0.316-0.1-0.451-0.156c-0.256-0.111-0.496-0.238-0.623-0.379c-0.152-0.133-0.182-0.268-0.176-0.389
					c0.008-0.059,0.035-0.117,0.082-0.172c0.043-0.051,0.1-0.1,0.182-0.141c0,0-0.061-0.033-0.15-0.086
					c-0.047-0.023-0.096-0.053-0.154-0.084c-0.062-0.029-0.127-0.061-0.191-0.09c-0.127-0.061-0.254-0.121-0.359-0.162
					c-0.102-0.041-0.168-0.068-0.168-0.068c-0.125,0.018-0.26,0.025-0.395,0.027c-0.141,0.004-0.285,0-0.424-0.012
					c-0.275-0.021-0.555-0.061-0.795-0.133c-0.125-0.031-0.232-0.07-0.324-0.111c-0.094-0.041-0.176-0.082-0.242-0.129
					c-0.127-0.092-0.215-0.186-0.213-0.281c0,0-0.078-0.012-0.191-0.031c-0.121-0.02-0.375-0.053-0.537-0.074
					c-0.002,0.027-0.02,0.053-0.025,0.098l-0.041,0.197c-0.084,0.395,0.145,0.795,0.533,0.906c0.949,0.277,1.666,0.732,1.873,1.293
					c0.42,1.129-1.34,2.234-4.018,2.234s-4.438-1.105-4.02-2.234c0.203-0.545,0.893-0.994,1.807-1.271
					c0.406-0.123,0.646-0.541,0.559-0.955l-0.057-0.268c-0.105,0.012-0.23,0.029-0.357,0.043c-0.158,0.018-0.311,0.047-0.426,0.064
					c-0.117,0.02-0.195,0.033-0.195,0.033c0.008,0.092-0.057,0.195-0.182,0.283c-0.066,0.045-0.139,0.092-0.227,0.135
					c-0.09,0.043-0.199,0.078-0.312,0.117c-0.119,0.037-0.25,0.064-0.383,0.088c-0.131,0.025-0.27,0.043-0.412,0.057
					c-0.283,0.021-0.568,0.027-0.828-0.006c0,0-0.018,0.008-0.047,0.02c-0.027,0.012-0.074,0.029-0.119,0.051
					c-0.096,0.045-0.223,0.107-0.352,0.168c-0.127,0.064-0.24,0.133-0.332,0.184c-0.047,0.025-0.086,0.047-0.111,0.061
					c-0.023,0.018-0.037,0.027-0.037,0.027c0.178,0.082,0.277,0.193,0.297,0.314c0.045,0.125-0.016,0.256-0.133,0.398
					c-0.066,0.074-0.158,0.141-0.25,0.207c-0.1,0.068-0.223,0.131-0.359,0.191c-0.258,0.123-0.592,0.23-0.951,0.295
					c0,0-0.031,0.051-0.055,0.127c-0.027,0.076-0.064,0.182-0.102,0.287c-0.016,0.105-0.029,0.215-0.041,0.299
					c-0.016,0.084-0.008,0.137-0.008,0.137c0.369,0.004,0.699,0.066,0.945,0.166c0.287,0.094,0.459,0.236,0.594,0.41
					c0.105,0.186,0.146,0.381,0.053,0.607c-0.064,0.219-0.244,0.465-0.539,0.688c0,0,0.018,0.014,0.047,0.039
					c0.031,0.023,0.078,0.057,0.135,0.096c0.117,0.08,0.262,0.195,0.436,0.297c0.182,0.1,0.365,0.199,0.506,0.277
					c0.068,0.039,0.139,0.062,0.184,0.084c0.045,0.02,0.072,0.031,0.072,0.031c0.412-0.178,0.855-0.268,1.301-0.314
					c0.221-0.023,0.439-0.029,0.646-0.016c0.213,0.01,0.428,0.027,0.631,0.074c0.199,0.055,0.395,0.104,0.566,0.18
					c0.174,0.074,0.328,0.174,0.475,0.268c0.291,0.199,0.516,0.482,0.613,0.777c0,0,0.15,0.006,0.377,0.016
					c0.227,0.006,0.527,0.025,0.828,0.01c0.301-0.01,0.604-0.014,0.826-0.029c0.221-0.021,0.369-0.035,0.369-0.035
					c0.031-0.154,0.1-0.299,0.193-0.432c0.045-0.064,0.1-0.127,0.158-0.184c0.057-0.059,0.115-0.121,0.182-0.174
					c0.131-0.107,0.281-0.201,0.449-0.275c0.164-0.076,0.34-0.148,0.543-0.193c0.207-0.041,0.402-0.082,0.613-0.098
					c0.207-0.018,0.434-0.008,0.645,0.002c0.428,0.023,0.904,0.121,1.318,0.277c0,0,0.092-0.051,0.229-0.127
					c0.131-0.078,0.318-0.17,0.463-0.285c0.148-0.109,0.303-0.213,0.396-0.299s0.152-0.143,0.152-0.143
					c-0.309-0.213-0.484-0.439-0.598-0.664c-0.053-0.109-0.068-0.211-0.07-0.312c-0.008-0.1,0.014-0.195,0.07-0.283
					C265.362,380.213,265.567,380.081,265.8,379.975"/>
				<path fill="#B3B3B3" d="M255.538,367.844c-0.008,0.879,0.418,1.674,1.105,2.236c0.854,0.693,1.551,2.096,1.592,3.629
					c0.045,1.701-0.07,3.668-0.141,4.67c-0.91,0.129-1.553,0.436-1.553,0.789c0,0.471,1.135,1.016,2.531,1.016
					c1.4,0,2.531-0.545,2.531-1.016c0-0.354-0.639-0.66-1.549-0.789c-0.072-1.002-0.188-2.969-0.145-4.67
					c0.043-1.533,0.74-2.936,1.592-3.629c0.689-0.562,1.115-1.357,1.107-2.236c-0.014-1.678-1.598-3.025-3.537-3.025
					C257.136,364.819,255.552,366.167,255.538,367.844"/>
			</g>
		</g>
	</g>
	<line fill="none" stroke="#585A5E" stroke-miterlimit="10" x1="80.215" y1="112.927" x2="80.215" y2="337.537"/>
	<g>
		<rect x="15.215" y="325.673" fill="#3FBFBB" width="130" height="70"/>
		<g>
			<path fill="#FFFFFF" d="M51.316,352.886c0.381,0.121,0.693,0.354,0.936,0.695c0.242,0.344,0.364,0.723,0.364,1.139
				c0,0.736-0.241,1.303-0.722,1.695c-0.48,0.395-1.143,0.592-1.982,0.592h-3.055v-7.982h2.795c0.85,0,1.512,0.188,1.988,0.561
				s0.715,0.91,0.715,1.611c0,0.416-0.097,0.775-0.292,1.078C51.869,352.58,51.619,352.783,51.316,352.886z M48.17,352.38h1.469
				c0.945,0,1.418-0.369,1.418-1.105c0-0.719-0.473-1.078-1.418-1.078H48.17V352.38z M48.17,353.498v2.34h1.717
				c0.45,0,0.797-0.104,1.039-0.312c0.242-0.207,0.364-0.492,0.364-0.857c0-0.363-0.122-0.65-0.364-0.857
				c-0.242-0.209-0.589-0.312-1.039-0.312H48.17z"/>
			<path fill="#FFFFFF" d="M57.166,349.025h1.3l3.067,7.982h-1.377l-0.819-2.209h-3.056l-0.818,2.209h-1.365L57.166,349.025z
				 M57.803,350.677l-1.092,2.951h2.184L57.803,350.677z"/>
			<path fill="#FFFFFF" d="M63.588,357.007v-7.982h1.352v6.773h3.836v1.209H63.588z"/>
			<path fill="#FFFFFF" d="M71.062,357.007v-7.982h1.352v6.773h3.836v1.209H71.062z"/>
			<path fill="#FFFFFF" d="M78.537,349.025h5.214v1.197h-3.888v2.105h3.523v1.184h-3.523v2.287h3.888v1.209h-5.214V349.025z"/>
			<path fill="#FFFFFF" d="M88.443,353.771h-0.962v3.236h-1.353v-7.982h3.082c0.84,0,1.504,0.207,1.988,0.619
				c0.486,0.41,0.729,1.002,0.729,1.773c0,0.658-0.18,1.182-0.539,1.566c-0.36,0.387-0.861,0.631-1.502,0.734l2.314,3.289h-1.535
				L88.443,353.771z M87.481,350.197v2.443h1.703c0.442,0,0.786-0.111,1.034-0.332c0.246-0.221,0.369-0.518,0.369-0.891
				s-0.123-0.67-0.369-0.891c-0.248-0.221-0.592-0.33-1.034-0.33H87.481z"/>
			<path fill="#FFFFFF" d="M95.606,349.025v7.982h-1.353v-7.982H95.606z"/>
			<path fill="#FFFFFF" d="M104.707,349.025v7.982h-1.041l-4.082-5.811v5.811h-1.3v-7.982h1.274l3.848,5.539v-5.539H104.707z"/>
			<path fill="#FFFFFF" d="M109.828,349.025h1.301l3.067,7.982h-1.378L112,354.798h-3.056l-0.819,2.209h-1.365L109.828,349.025z
				 M110.465,350.677l-1.092,2.951h2.185L110.465,350.677z"/>
			<path fill="#FFFFFF" d="M50.965,369.798h1.379c0.25,0.797,0.854,1.195,1.807,1.195c0.468,0,0.842-0.105,1.124-0.318
				s0.423-0.5,0.423-0.865c0-0.285-0.09-0.514-0.267-0.682c-0.178-0.17-0.475-0.301-0.891-0.396l-1.353-0.324
				c-1.325-0.312-1.988-1.027-1.988-2.146c0-0.684,0.254-1.25,0.76-1.695c0.508-0.447,1.16-0.67,1.957-0.67
				c0.841,0,1.52,0.197,2.035,0.592s0.847,0.934,0.994,1.617h-1.352c-0.252-0.709-0.807-1.064-1.664-1.064
				c-0.434,0-0.783,0.102-1.047,0.305c-0.265,0.203-0.396,0.471-0.396,0.799c0,0.529,0.351,0.877,1.053,1.041l1.391,0.324
				c0.65,0.148,1.157,0.408,1.521,0.781c0.363,0.371,0.546,0.85,0.546,1.43c0,0.736-0.265,1.324-0.793,1.762
				s-1.214,0.656-2.054,0.656c-0.85,0-1.559-0.207-2.126-0.617C51.457,371.109,51.104,370.535,50.965,369.798z"/>
			<path fill="#FFFFFF" d="M59.246,364.025h5.213v1.197h-3.887v2.105h3.522v1.184h-3.522v2.287h3.887v1.209h-5.213V364.025z"/>
			<path fill="#FFFFFF" d="M69.152,368.771h-0.963v3.236h-1.352v-7.982h3.081c0.841,0,1.504,0.207,1.989,0.619
				c0.485,0.41,0.729,1.002,0.729,1.773c0,0.658-0.181,1.182-0.54,1.566c-0.36,0.387-0.86,0.631-1.501,0.734l2.313,3.289h-1.534
				L69.152,368.771z M68.189,365.197v2.443h1.703c0.442,0,0.787-0.111,1.034-0.332s0.37-0.518,0.37-0.891s-0.123-0.67-0.37-0.891
				s-0.592-0.33-1.034-0.33H68.189z"/>
			<path fill="#FFFFFF" d="M78.512,372.007h-1.287l-3.016-7.982h1.416l2.263,6.229l2.263-6.229h1.377L78.512,372.007z"/>
			<path fill="#FFFFFF" d="M84.92,364.025v7.982h-1.352v-7.982H84.92z"/>
			<path fill="#FFFFFF" d="M88.203,370.988c-0.689-0.768-1.033-1.758-1.033-2.971s0.344-2.203,1.033-2.971s1.554-1.15,2.594-1.15
				c0.884,0,1.607,0.236,2.171,0.709s0.923,1.115,1.079,1.93h-1.326c-0.347-0.945-0.988-1.416-1.924-1.416
				c-0.693,0-1.244,0.27-1.65,0.812c-0.408,0.541-0.611,1.236-0.611,2.086s0.203,1.545,0.611,2.086
				c0.406,0.543,0.957,0.812,1.65,0.812c0.936,0,1.577-0.477,1.924-1.43h1.326c-0.156,0.824-0.516,1.471-1.079,1.943
				s-1.287,0.709-2.171,0.709C89.757,372.138,88.893,371.753,88.203,370.988z"/>
			<path fill="#FFFFFF" d="M96.27,364.025h5.213v1.197h-3.887v2.105h3.522v1.184h-3.522v2.287h3.887v1.209H96.27V364.025z"/>
			<path fill="#FFFFFF" d="M103.237,369.798h1.378c0.252,0.797,0.854,1.195,1.807,1.195c0.469,0,0.844-0.105,1.125-0.318
				s0.423-0.5,0.423-0.865c0-0.285-0.089-0.514-0.267-0.682c-0.178-0.17-0.475-0.301-0.891-0.396l-1.352-0.324
				c-1.326-0.312-1.989-1.027-1.989-2.146c0-0.684,0.253-1.25,0.761-1.695c0.507-0.447,1.158-0.67,1.956-0.67
				c0.841,0,1.519,0.197,2.034,0.592s0.848,0.934,0.995,1.617h-1.353c-0.251-0.709-0.806-1.064-1.664-1.064
				c-0.434,0-0.781,0.102-1.046,0.305s-0.397,0.471-0.397,0.799c0,0.529,0.352,0.877,1.054,1.041l1.392,0.324
				c0.649,0.148,1.156,0.408,1.521,0.781c0.364,0.371,0.546,0.85,0.546,1.43c0,0.736-0.265,1.324-0.793,1.762
				c-0.529,0.438-1.213,0.656-2.055,0.656c-0.849,0-1.557-0.207-2.125-0.617C103.729,371.109,103.376,370.535,103.237,369.798z"/>
		</g>
	</g>
	<line fill="none" stroke="#585A5E" stroke-miterlimit="10" x1="372.868" y1="112.927" x2="372.868" y2="302.289"/>
	<g>
		<rect x="307.868" y="152.705" fill="#3FBFBB" width="130" height="70"/>
		<g>
			<path fill="#FFFFFF" d="M343.977,179.918c0.381,0.121,0.693,0.354,0.936,0.695c0.242,0.343,0.364,0.722,0.364,1.138
				c0,0.737-0.241,1.303-0.722,1.696c-0.48,0.395-1.143,0.592-1.982,0.592h-3.055v-7.982h2.795c0.85,0,1.512,0.187,1.988,0.56
				s0.715,0.91,0.715,1.612c0,0.416-0.097,0.775-0.292,1.078C344.529,179.611,344.279,179.815,343.977,179.918z M340.83,179.412
				h1.469c0.945,0,1.418-0.368,1.418-1.105c0-0.719-0.473-1.078-1.418-1.078h-1.469V179.412z M340.83,180.53v2.34h1.717
				c0.45,0,0.797-0.104,1.039-0.312s0.364-0.493,0.364-0.857s-0.122-0.65-0.364-0.858s-0.589-0.312-1.039-0.312H340.83z"/>
			<path fill="#FFFFFF" d="M349.826,176.057h1.3l3.067,7.982h-1.377l-0.819-2.21h-3.056l-0.818,2.21h-1.365L349.826,176.057z
				 M350.463,177.708l-1.092,2.951h2.184L350.463,177.708z"/>
			<path fill="#FFFFFF" d="M356.248,184.04v-7.982h1.352v6.773h3.836v1.209H356.248z"/>
			<path fill="#FFFFFF" d="M363.723,184.04v-7.982h1.352v6.773h3.836v1.209H363.723z"/>
			<path fill="#FFFFFF" d="M371.197,176.057h5.214v1.196h-3.888v2.106h3.523v1.183h-3.523v2.288h3.888v1.209h-5.214V176.057z"/>
			<path fill="#FFFFFF" d="M381.104,180.802h-0.962v3.237h-1.353v-7.982h3.082c0.84,0,1.504,0.206,1.988,0.618
				c0.486,0.411,0.729,1.003,0.729,1.774c0,0.658-0.18,1.181-0.539,1.566c-0.36,0.386-0.861,0.631-1.502,0.734l2.314,3.289h-1.535
				L381.104,180.802z M380.142,177.228v2.443h1.703c0.442,0,0.786-0.11,1.034-0.331c0.246-0.222,0.369-0.518,0.369-0.891
				s-0.123-0.67-0.369-0.891c-0.248-0.221-0.592-0.331-1.034-0.331H380.142z"/>
			<path fill="#FFFFFF" d="M388.267,176.057v7.982h-1.353v-7.982H388.267z"/>
			<path fill="#FFFFFF" d="M397.354,176.057v7.982h-1.039l-4.082-5.811v5.811h-1.301v-7.982h1.274l3.848,5.538v-5.538H397.354z"/>
			<path fill="#FFFFFF" d="M402.476,176.057h1.3l3.068,7.982h-1.379l-0.818-2.21h-3.055l-0.819,2.21h-1.365L402.476,176.057z
				 M403.112,177.708l-1.092,2.951h2.185L403.112,177.708z"/>
			<path fill="#FFFFFF" d="M343.618,196.83h1.378c0.252,0.798,0.854,1.196,1.807,1.196c0.469,0,0.844-0.106,1.125-0.318
				c0.281-0.213,0.423-0.501,0.423-0.865c0-0.286-0.089-0.514-0.267-0.683s-0.475-0.301-0.891-0.396l-1.352-0.324
				c-1.326-0.312-1.989-1.027-1.989-2.146c0-0.685,0.253-1.25,0.761-1.696c0.507-0.446,1.158-0.67,1.956-0.67
				c0.841,0,1.519,0.197,2.034,0.592s0.848,0.934,0.995,1.618h-1.353c-0.251-0.71-0.806-1.065-1.664-1.065
				c-0.434,0-0.781,0.102-1.046,0.306c-0.265,0.203-0.397,0.47-0.397,0.799c0,0.529,0.352,0.876,1.054,1.04l1.392,0.325
				c0.649,0.147,1.156,0.407,1.521,0.78c0.364,0.372,0.546,0.85,0.546,1.43c0,0.737-0.265,1.324-0.793,1.762
				c-0.529,0.438-1.213,0.656-2.055,0.656c-0.849,0-1.557-0.206-2.125-0.617C344.11,198.14,343.757,197.566,343.618,196.83z"/>
			<path fill="#FFFFFF" d="M351.898,191.057h5.214v1.196h-3.888v2.106h3.523v1.183h-3.523v2.288h3.888v1.209h-5.214V191.057z"/>
			<path fill="#FFFFFF" d="M361.806,195.802h-0.962v3.237h-1.353v-7.982h3.081c0.841,0,1.504,0.206,1.989,0.618
				c0.485,0.411,0.728,1.003,0.728,1.774c0,0.658-0.18,1.181-0.539,1.566s-0.86,0.631-1.502,0.734l2.314,3.289h-1.534
				L361.806,195.802z M360.844,192.228v2.443h1.703c0.441,0,0.786-0.11,1.033-0.331c0.247-0.222,0.37-0.518,0.37-0.891
				s-0.123-0.67-0.37-0.891s-0.592-0.331-1.033-0.331H360.844z"/>
			<path fill="#FFFFFF" d="M371.165,199.04h-1.287l-3.017-7.982h1.418l2.262,6.228l2.262-6.228h1.379L371.165,199.04z"/>
			<path fill="#FFFFFF" d="M377.574,191.057v7.982h-1.353v-7.982H377.574z"/>
			<path fill="#FFFFFF" d="M380.856,198.019c-0.688-0.767-1.033-1.757-1.033-2.971c0-1.213,0.345-2.203,1.033-2.971
				c0.689-0.767,1.554-1.15,2.594-1.15c0.884,0,1.607,0.236,2.171,0.709s0.923,1.116,1.079,1.931h-1.326
				c-0.347-0.945-0.987-1.417-1.924-1.417c-0.693,0-1.243,0.271-1.651,0.812c-0.407,0.541-0.611,1.237-0.611,2.086
				c0,0.85,0.204,1.545,0.611,2.087c0.408,0.542,0.958,0.812,1.651,0.812c0.937,0,1.577-0.477,1.924-1.431h1.326
				c-0.156,0.824-0.516,1.472-1.079,1.944c-0.563,0.472-1.287,0.708-2.171,0.708C382.41,199.169,381.546,198.786,380.856,198.019z"
				/>
			<path fill="#FFFFFF" d="M388.922,191.057h5.214v1.196h-3.888v2.106h3.523v1.183h-3.523v2.288h3.888v1.209h-5.214V191.057z"/>
			<path fill="#FFFFFF" d="M395.891,196.83h1.379c0.25,0.798,0.854,1.196,1.807,1.196c0.468,0,0.842-0.106,1.124-0.318
				c0.282-0.213,0.423-0.501,0.423-0.865c0-0.286-0.09-0.514-0.267-0.683c-0.178-0.169-0.475-0.301-0.891-0.396l-1.353-0.324
				c-1.325-0.312-1.988-1.027-1.988-2.146c0-0.685,0.254-1.25,0.76-1.696c0.508-0.446,1.16-0.67,1.957-0.67
				c0.841,0,1.52,0.197,2.035,0.592s0.847,0.934,0.994,1.618h-1.352c-0.252-0.71-0.807-1.065-1.664-1.065
				c-0.434,0-0.783,0.102-1.047,0.306c-0.265,0.203-0.396,0.47-0.396,0.799c0,0.529,0.351,0.876,1.053,1.04l1.391,0.325
				c0.65,0.147,1.157,0.407,1.521,0.78c0.363,0.372,0.546,0.85,0.546,1.43c0,0.737-0.265,1.324-0.793,1.762
				s-1.214,0.656-2.054,0.656c-0.85,0-1.559-0.206-2.126-0.617C396.383,198.14,396.029,197.566,395.891,196.83z"/>
		</g>
	</g>
	<g>
		<rect x="307.868" y="325.673" fill="#FFFFFF" width="130" height="70"/>
		<g>
			<path fill="#585A5E" d="M329.982,343.213c0.693,0.775,1.039,1.762,1.039,2.957c0,1.196-0.346,2.183-1.039,2.958
				s-1.578,1.163-2.652,1.163c-1.075,0-1.957-0.388-2.646-1.163c-0.688-0.775-1.033-1.762-1.033-2.958
				c0-1.195,0.345-2.182,1.033-2.957c0.689-0.775,1.571-1.164,2.646-1.164C328.404,342.049,329.289,342.438,329.982,343.213z
				 M329.014,348.263c0.429-0.546,0.643-1.243,0.643-2.093c0-0.849-0.214-1.547-0.643-2.093c-0.43-0.546-0.99-0.819-1.684-0.819
				s-1.253,0.271-1.678,0.812c-0.424,0.542-0.637,1.242-0.637,2.1c0,0.858,0.213,1.559,0.637,2.1
				c0.425,0.542,0.984,0.812,1.678,0.812S328.584,348.81,329.014,348.263z"/>
			<path fill="#585A5E" d="M335.585,346.924h-0.962v3.237h-1.353v-7.982h3.081c0.841,0,1.504,0.206,1.989,0.618
				c0.485,0.411,0.728,1.003,0.728,1.774c0,0.658-0.18,1.181-0.539,1.566s-0.86,0.631-1.502,0.734l2.314,3.289h-1.534
				L335.585,346.924z M334.623,343.35v2.443h1.703c0.441,0,0.786-0.11,1.033-0.331c0.247-0.222,0.37-0.518,0.37-0.891
				s-0.123-0.67-0.37-0.891s-0.592-0.331-1.033-0.331H334.623z"/>
			<path fill="#585A5E" d="M342,349.141c-0.689-0.767-1.033-1.757-1.033-2.971c0-1.213,0.344-2.203,1.033-2.971
				c0.689-0.767,1.554-1.15,2.594-1.15c0.884,0,1.607,0.236,2.171,0.709s0.923,1.116,1.079,1.931h-1.326
				c-0.347-0.945-0.988-1.417-1.924-1.417c-0.693,0-1.244,0.271-1.65,0.812c-0.408,0.541-0.611,1.237-0.611,2.086
				c0,0.85,0.203,1.545,0.611,2.087c0.406,0.542,0.957,0.812,1.65,0.812c0.936,0,1.577-0.477,1.924-1.431h1.326
				c-0.156,0.824-0.516,1.472-1.079,1.944c-0.563,0.472-1.287,0.708-2.171,0.708C343.554,350.292,342.689,349.908,342,349.141z"/>
			<path fill="#585A5E" d="M355.436,342.179h1.352v7.982h-1.352v-3.497h-4.018v3.497h-1.352v-7.982h1.352v3.289h4.018V342.179z"/>
			<path fill="#585A5E" d="M359.465,342.179h5.214v1.196h-3.888v2.106h3.523v1.183h-3.523v2.288h3.888v1.209h-5.214V342.179z"/>
			<path fill="#585A5E" d="M366.434,347.952h1.378c0.251,0.798,0.854,1.196,1.807,1.196c0.468,0,0.843-0.106,1.124-0.318
				c0.282-0.213,0.424-0.501,0.424-0.865c0-0.286-0.09-0.514-0.268-0.683s-0.475-0.301-0.891-0.396l-1.352-0.324
				c-1.326-0.312-1.988-1.027-1.988-2.146c0-0.685,0.253-1.25,0.76-1.696c0.508-0.446,1.159-0.67,1.957-0.67
				c0.84,0,1.519,0.197,2.034,0.592s0.847,0.934,0.995,1.618h-1.353c-0.251-0.71-0.806-1.065-1.664-1.065
				c-0.434,0-0.782,0.102-1.046,0.306c-0.266,0.203-0.397,0.47-0.397,0.799c0,0.529,0.351,0.876,1.054,1.04l1.391,0.325
				c0.65,0.147,1.156,0.407,1.521,0.78c0.363,0.372,0.545,0.85,0.545,1.43c0,0.737-0.264,1.324-0.793,1.762
				c-0.528,0.438-1.213,0.656-2.054,0.656c-0.849,0-1.558-0.206-2.126-0.617C366.926,349.262,366.572,348.688,366.434,347.952z"/>
			<path fill="#585A5E" d="M374.078,343.375v-1.196h6.655v1.196h-2.651v6.786h-1.353v-6.786H374.078z"/>
			<path fill="#585A5E" d="M385.231,346.924h-0.962v3.237h-1.353v-7.982h3.081c0.841,0,1.504,0.206,1.989,0.618
				c0.485,0.411,0.728,1.003,0.728,1.774c0,0.658-0.18,1.181-0.539,1.566s-0.86,0.631-1.502,0.734l2.314,3.289h-1.534
				L385.231,346.924z M384.27,343.35v2.443h1.703c0.441,0,0.786-0.11,1.033-0.331c0.247-0.222,0.37-0.518,0.37-0.891
				s-0.123-0.67-0.37-0.891s-0.592-0.331-1.033-0.331H384.27z"/>
			<path fill="#585A5E" d="M393.486,342.179h1.3l3.067,7.982h-1.377l-0.819-2.21h-3.056l-0.818,2.21h-1.365L393.486,342.179z
				 M394.123,343.831l-1.092,2.951h2.184L394.123,343.831z"/>
			<path fill="#585A5E" d="M398.596,343.375v-1.196h6.655v1.196H402.6v6.786h-1.353v-6.786H398.596z"/>
			<path fill="#585A5E" d="M412.921,343.213c0.693,0.775,1.04,1.762,1.04,2.957c0,1.196-0.347,2.183-1.04,2.958
				s-1.577,1.163-2.652,1.163s-1.956-0.388-2.646-1.163s-1.033-1.762-1.033-2.958c0-1.195,0.344-2.182,1.033-2.957
				s1.57-1.164,2.646-1.164S412.228,342.438,412.921,343.213z M411.952,348.263c0.429-0.546,0.644-1.243,0.644-2.093
				c0-0.849-0.215-1.547-0.644-2.093s-0.99-0.819-1.684-0.819s-1.253,0.271-1.677,0.812c-0.425,0.542-0.637,1.242-0.637,2.1
				c0,0.858,0.212,1.559,0.637,2.1c0.424,0.542,0.983,0.812,1.677,0.812S411.523,348.81,411.952,348.263z"/>
			<path fill="#585A5E" d="M418.523,346.924h-0.962v3.237h-1.353v-7.982h3.082c0.84,0,1.504,0.206,1.988,0.618
				c0.486,0.411,0.729,1.003,0.729,1.774c0,0.658-0.18,1.181-0.539,1.566c-0.36,0.386-0.861,0.631-1.502,0.734l2.314,3.289h-1.535
				L418.523,346.924z M417.562,343.35v2.443h1.703c0.442,0,0.786-0.11,1.034-0.331c0.246-0.222,0.369-0.518,0.369-0.891
				s-0.123-0.67-0.369-0.891c-0.248-0.221-0.592-0.331-1.034-0.331H417.562z"/>
		</g>
		<g>
			<g>
				<path fill="#B3B3B3" d="M341.805,370.905c0.203,0,0.352-0.162,0.365-0.352l0.121-2.154c-0.15,0.025-0.283,0.055-0.432,0.08
					c-0.768,0.176-1.455,0.553-2.008,1.105l1.791,1.281C341.684,370.891,341.752,370.905,341.805,370.905z"/>
				<path fill="#B3B3B3" d="M340.982,373.68l-2.141,0.363c0.322,0.889,0.928,1.631,1.684,2.117l0.82-1.982
					c0.029-0.066,0.029-0.135,0.014-0.215C341.32,373.788,341.158,373.667,340.982,373.68z"/>
				<path fill="#B3B3B3" d="M340.848,372.319c0.121-0.148,0.109-0.377-0.039-0.498l-1.604-1.428
					c-0.486,0.795-0.688,1.725-0.607,2.641l2.088-0.607C340.754,372.415,340.809,372.374,340.848,372.319z"/>
				<path fill="#B3B3B3" d="M343.531,370.756c0.119,0.148,0.322,0.176,0.471,0.08l1.764-1.252c-0.646-0.646-1.496-1.064-2.424-1.172
					l0.121,2.195C343.475,370.663,343.49,370.715,343.531,370.756z"/>
				<polygon fill="#B3B3B3" points="342.223,373.075 342.814,373.356 343.408,373.075 343.543,372.44 343.139,371.928 
					342.479,371.928 342.074,372.44 				"/>
				<path fill="#B3B3B3" d="M352.908,374.233l-1.686-7.316c-0.107-0.484-0.43-0.877-0.875-1.092l-6.818-3.248
					c-0.215-0.107-0.457-0.16-0.699-0.16c-0.244,0-0.486,0.053-0.701,0.16l-6.818,3.262c-0.443,0.215-0.768,0.605-0.875,1.092
					l-1.684,7.316c-0.123,0.484,0,0.984,0.309,1.373l4.717,5.863c0.309,0.389,0.768,0.604,1.252,0.604l7.6-0.012
					c0.484,0,0.943-0.23,1.252-0.607l4.717-5.859C352.908,375.215,353.016,374.717,352.908,374.233z M349.605,374.489
					c-0.039,0-0.066,0-0.107-0.014c-0.014-0.014-0.027-0.014-0.039-0.014c-0.027,0-0.055-0.012-0.082-0.012
					c-0.094-0.029-0.162,0.181-0.242,0.142c-0.041-0.014-0.082,0.182-0.121,0.182H349c-0.256-1-0.486-1-0.701-1h-0.027
					c-0.08,0-0.121,0.201-0.174,0.229c-0.014,0-0.014,0.096-0.027,0.096l-0.162,0.013c-0.135,0.418-0.322,0.856-0.564,1.235
					c-0.459,0.727-1.066,1.329-1.779,1.747l0.066,0.167c0,0.014-0.012,0.016-0.012,0.029c-0.016,0.066,0.089,0.123,0.114,0.217
					c0.068,0.201,0.481,0.405,0.481,0.634v0.014c0,0.041-0.075,0.068-0.05,0.107c0.055,0.068,0.042,0.135,0.083,0.217
					c0.014,0.014-0.005,0.039,0.009,0.066c0,0.014-0.003,0.014-0.003,0.027c0.053,0.107,0.046,0.229,0.019,0.338
					c-0.025,0.107-0.11,0.188-0.206,0.242c-0.053,0.025-0.109,0.039-0.164,0.039c-0.16,0-0.324-0.094-0.406-0.256
					c0,0-0.014-0.014-0.014-0.025c-0.014-0.027-0.025-0.041-0.039-0.068c-0.041-0.08-0.108-0.162-0.134-0.242
					c-0.016-0.041-0.095-0.082-0.095-0.121v-0.014c0-0.256-0.122-0.486-0.229-0.674c-0.055-0.082-0.083-0.107-0.149-0.121
					c-0.014-0.014,0.001-0.014-0.013-0.014l-0.074-0.148c-0.229,0.08-0.455,0.148-0.697,0.201c-0.377,0.096-0.78,0.135-1.171,0.135
					c-0.646,0-1.292-0.121-1.886-0.348l-0.093,0.174c-0.014,0.014-0.014,0.014-0.027,0.014c-0.053,0.025-0.121,0.039-0.174,0.121
					c-0.121,0.189-0.189,0.404-0.283,0.674c-0.014,0.039-0.027,0.08-0.041,0.121c-0.027,0.08-0.041,0.148-0.08,0.242
					c-0.014,0.014-0.027,0.041-0.041,0.068c0,0-0.014,0.012-0.014,0.025c-0.08,0.148-0.242,0.256-0.404,0.256
					c-0.053,0-0.107-0.014-0.162-0.039c-0.201-0.096-0.283-0.352-0.174-0.58c0,0,0.012-0.014,0.012-0.027
					c0.014-0.027,0.027-0.053,0.041-0.066c0.055-0.082,0.309-0.148,0.363-0.217c0.027-0.039,0.297-0.066,0.297-0.107v-0.014
					c0-0.229,0.053-0.432,0.135-0.633c0.027-0.094-0.107-0.162-0.135-0.215c0-0.014-0.067-0.014-0.067-0.027l0.055-0.176
					c-0.203-0.121-0.403-0.242-0.593-0.389c-0.822-0.648-1.448-1.537-1.772-2.535l-0.193,0.027c-0.012,0-0.013-0.183-0.026-0.183
					c-0.041-0.027-0.098-0.236-0.178-0.236h-0.027c-0.215,0-0.443,0-0.699,1h-0.014c-0.041,0-0.082-0.189-0.121-0.176
					c-0.082,0.041-0.148-0.048-0.242-0.021c-0.029,0-0.055-0.044-0.082-0.044c0,0.014-0.014-0.016-0.027-0.016
					c-0.041,0.014-0.066,0-0.107,0c-0.215,0-0.391-0.129-0.432-0.318c-0.041-0.215,0.109-0.446,0.352-0.501
					c0.014-0.014,0.025-0.016,0.039-0.016c0.027,0,0.055-0.015,0.082-0.015c0.094-0.014,0.176,0.046,0.256,0.046
					c0.041-0.014,0.094,0.06,0.135,0.06h0.014c0.281,0,0.525-0.127,0.727-0.195c0.082-0.041,0.121-0.13,0.148-0.185
					c0-0.014,0.014-0.032,0.014-0.044l0.176-0.064c-0.176-1.238,0.08-2.496,0.754-3.561c0.014-0.041-0.009-0.071,0.019-0.112
					l-0.187-0.121v-0.027c0-0.068,0.05-0.135-0.017-0.203c-0.162-0.148-0.339-0.268-0.583-0.418
					c-0.039-0.027-0.067-0.053-0.108-0.066c-0.08-0.041-0.141-0.082-0.223-0.135c-0.027-0.014-0.035-0.041-0.062-0.055
					c-0.014,0-0.013-0.012-0.026-0.012c-0.189-0.162-0.228-0.432-0.095-0.607c0.068-0.094,0.19-0.148,0.312-0.148
					c0.107,0,0.217,0.041,0.297,0.107c0,0.014,0.014,0.014,0.027,0.027c0.025,0.027,0.055,0.041,0.066,0.055
					c0.068,0.068,0.123,0.121,0.176,0.189c0.041,0.025,0.068,0.066,0.096,0.092c0.188,0.203,0.361,0.379,0.539,0.5
					c0.039,0.025,0.078,0.021,0.119,0.021c0.027,0,0.055-0.037,0.082-0.037h0.027l0.133,0.117c0.715-0.754,1.631-1.271,2.668-1.5
					c0.244-0.053,0.486-0.074,0.729-0.102l0.014-0.172c0.014-0.016,0.014-0.014,0.027-0.027c0.039-0.039-0.038-0.08-0.024-0.174
					c0.027-0.215-0.173-0.458-0.173-0.728v-0.014c0-0.053,0.02-0.094,0.006-0.135c-0.025-0.08-0.006-0.16-0.006-0.254v-0.082v-0.027
					c0-0.121,0.138-0.229,0.22-0.309c0.08-0.08,0.222-0.137,0.331-0.137c0.229,0,0.449,0.203,0.449,0.445v0.041v0.08
					c0,0.094,0.006,0.176-0.006,0.256c-0.014,0.041,0.006,0.096,0.006,0.135v0.016c0,0.268-0.072,0.51-0.059,0.727
					c0.014,0.094,0.061,0.135,0.1,0.174c0.014,0.016,0.009,0.016,0.022,0.027l0.011,0.176c1.023,0.094,2.008,0.484,2.816,1.117
					c0.188,0.162,0.376,0.296,0.552,0.485l0.159-0.137h0.027c0.027,0,0.055,0.041,0.082,0.041c0.039,0,0.08,0.002,0.121-0.025
					c0.174-0.123,0.35-0.275,0.539-0.479c0.039-0.027,0.066-0.063,0.094-0.091c0.053-0.066,0.107-0.119,0.174-0.186
					c0.027-0.016,0.041-0.04,0.068-0.054c0.014-0.014,0.014-0.013,0.027-0.026c0.094-0.068,0.188-0.107,0.297-0.107
					c0.121,0,0.242,0.053,0.309,0.148c0.135,0.174,0.094,0.443-0.094,0.605c0,0.014-0.014,0.014-0.027,0.027
					c-0.025,0.027-0.053,0.041-0.066,0.053c-0.082,0.055-0.148,0.096-0.23,0.135c-0.039,0.027-0.08,0.041-0.121,0.068
					c-0.242,0.148-0.508,0.27-0.67,0.418c-0.055,0.068-0.131,0.135-0.131,0.201v0.029l-0.07,0.119
					c0.35,0.539,0.639,1.133,0.787,1.766s0.189,1.281,0.109,1.9l0.183,0.055c0,0.012,0.019,0.012,0.019,0.025
					c0.025,0.055,0.055,0.161,0.148,0.202c0.217,0.066,0.447,0.174,0.73,0.174h0.014c0.053,0,0.094-0.039,0.135-0.039
					c0.08,0,0.162-0.014,0.256,0c0.027,0,0.055,0.019,0.08,0.019c0,0.014,0.014,0.021,0.027,0.021h0.014
					c0.242,0,0.391,0.264,0.391,0.426C349.982,374.375,349.809,374.489,349.605,374.489z"/>
				<path fill="#B3B3B3" d="M346.414,370.393l-1.631,1.469c-0.041,0.039-0.068,0.094-0.082,0.146
					c-0.039,0.189,0.068,0.379,0.258,0.432l2.061,0.594c0.039-0.445,0.014-0.904-0.094-1.361
					C346.816,371.202,346.643,370.77,346.414,370.393z"/>
				<path fill="#B3B3B3" d="M344.432,373.708c-0.162,0.08-0.229,0.256-0.188,0.416l0.85,2.037c0.51-0.338,0.955-0.77,1.293-1.309
					c0.174-0.256,0.311-0.525,0.391-0.82l-2.156-0.365C344.553,373.667,344.486,373.68,344.432,373.708z"/>
				<path fill="#B3B3B3" d="M342.951,374.596c-0.148-0.08-0.324-0.027-0.432,0.094l-1.064,1.928
					c0.432,0.135,0.889,0.215,1.359,0.215c0.324,0,0.635-0.041,0.945-0.107c0.133-0.041,0.268-0.066,0.389-0.107l-1.035-1.873
					C343.072,374.69,343.018,374.637,342.951,374.596z"/>
			</g>
			<path fill-rule="evenodd" clip-rule="evenodd" fill="#B3B3B3" d="M388.377,370.132c-0.576-0.386-1.9-0.526-2.92-0.334
				c-0.131-0.96-0.666-1.793-1.639-2.545l-0.561-0.373l-0.373,0.56c-0.479,0.721-0.717,1.72-0.637,2.677
				c0.033,0.337,0.145,0.94,0.49,1.47c-0.346,0.187-1.029,0.442-1.932,0.425h-17.357l-0.033,0.2
				c-0.164,0.962-0.16,3.965,1.789,6.273c1.482,1.754,3.705,2.644,6.604,2.644c6.287,0,10.939-2.894,13.115-8.153
				c0.857,0.017,2.701,0.005,3.648-1.806c0.025-0.042,0.082-0.149,0.246-0.493l0.092-0.188L388.377,370.132z M374.688,365.774h2.641
				v-2.399h-2.641V365.774z M374.688,368.653h2.641v-2.399h-2.641V368.653z M371.568,368.653h2.641v-2.399h-2.641V368.653z
				 M368.449,368.653h2.641v-2.399h-2.641V368.653z M365.332,371.532h2.639v-2.399h-2.639V371.532z M368.449,371.532h2.641v-2.399
				h-2.641V371.532z M371.568,371.532h2.641v-2.399h-2.641V371.532z M374.688,371.532h2.641v-2.399h-2.641V371.532z
				 M377.807,371.532h2.639v-2.399h-2.639V371.532z"/>
			<g>
				<path fill="#B3B3B3" d="M403.08,374.418c0,0,0.398-1.506-1.328-3.447l-0.059-0.061c-0.727-0.863-1.129-1.957-1.129-3.082
					c0-2.639,2.15-4.787,4.795-4.787h0.111c2.643,0,4.795,2.148,4.795,4.787c0,1.125-0.402,2.219-1.129,3.08
					c-0.01,0.01-0.029,0.031-0.059,0.061c-1.531,1.535-1.33,3.449-1.33,3.449c2.801-0.965,4.691-3.598,4.707-6.551
					c0.021-3.691-2.959-6.84-6.643-7.016c-0.045-0.002-0.09-0.002-0.137-0.002c-0.055,0-0.262,0.004-0.262,0.004
					c-0.006,0-0.205-0.004-0.26-0.004c-0.047,0-0.092,0-0.137,0.002c-3.686,0.176-6.664,3.324-6.645,7.016
					C398.391,370.821,400.281,373.454,403.08,374.418"/>
				<path fill="#B3B3B3" d="M412.127,379.975c0.121-0.051,0.264-0.092,0.42-0.123c0.145-0.031,0.307-0.053,0.484-0.059
					c0,0-0.008-0.053-0.018-0.135c-0.006-0.08-0.043-0.188-0.08-0.291c-0.018-0.053-0.035-0.105-0.055-0.152
					c-0.02-0.049-0.049-0.092-0.068-0.131c-0.041-0.074-0.068-0.123-0.068-0.123c-0.174-0.029-0.34-0.068-0.5-0.113
					c-0.162-0.047-0.316-0.1-0.451-0.156c-0.256-0.111-0.496-0.238-0.623-0.379c-0.152-0.133-0.182-0.268-0.176-0.389
					c0.008-0.059,0.035-0.117,0.082-0.172c0.043-0.051,0.1-0.1,0.182-0.141c0,0-0.061-0.033-0.15-0.086
					c-0.047-0.023-0.096-0.053-0.154-0.084c-0.062-0.029-0.127-0.061-0.191-0.09c-0.127-0.061-0.254-0.121-0.359-0.162
					c-0.102-0.041-0.168-0.068-0.168-0.068c-0.125,0.018-0.26,0.025-0.395,0.027c-0.141,0.004-0.285,0-0.424-0.012
					c-0.275-0.021-0.555-0.061-0.795-0.133c-0.125-0.031-0.232-0.07-0.324-0.111c-0.094-0.041-0.176-0.082-0.242-0.129
					c-0.127-0.092-0.215-0.186-0.213-0.281c0,0-0.078-0.012-0.191-0.031c-0.121-0.02-0.375-0.053-0.537-0.074
					c-0.002,0.027-0.02,0.053-0.025,0.098l-0.041,0.197c-0.084,0.395,0.145,0.795,0.533,0.906c0.949,0.277,1.666,0.732,1.873,1.293
					c0.42,1.129-1.34,2.234-4.018,2.234s-4.438-1.105-4.02-2.234c0.203-0.545,0.893-0.994,1.807-1.271
					c0.406-0.123,0.646-0.541,0.559-0.955l-0.057-0.268c-0.105,0.012-0.23,0.029-0.357,0.043c-0.158,0.018-0.311,0.047-0.426,0.064
					c-0.117,0.02-0.195,0.033-0.195,0.033c0.008,0.092-0.057,0.195-0.182,0.283c-0.066,0.045-0.139,0.092-0.227,0.135
					c-0.09,0.043-0.199,0.078-0.312,0.117c-0.119,0.037-0.25,0.064-0.383,0.088c-0.131,0.025-0.27,0.043-0.412,0.057
					c-0.283,0.021-0.568,0.027-0.828-0.006c0,0-0.018,0.008-0.047,0.02c-0.027,0.012-0.074,0.029-0.119,0.051
					c-0.096,0.045-0.223,0.107-0.352,0.168c-0.127,0.064-0.24,0.133-0.332,0.184c-0.047,0.025-0.086,0.047-0.111,0.061
					c-0.023,0.018-0.037,0.027-0.037,0.027c0.178,0.082,0.277,0.193,0.297,0.314c0.045,0.125-0.016,0.256-0.133,0.398
					c-0.066,0.074-0.158,0.141-0.25,0.207c-0.1,0.068-0.223,0.131-0.359,0.191c-0.258,0.123-0.592,0.23-0.951,0.295
					c0,0-0.031,0.051-0.055,0.127c-0.027,0.076-0.064,0.182-0.102,0.287c-0.016,0.105-0.029,0.215-0.041,0.299
					c-0.016,0.084-0.008,0.137-0.008,0.137c0.369,0.004,0.699,0.066,0.945,0.166c0.287,0.094,0.459,0.236,0.594,0.41
					c0.105,0.186,0.146,0.381,0.053,0.607c-0.064,0.219-0.244,0.465-0.539,0.688c0,0,0.018,0.014,0.047,0.039
					c0.031,0.023,0.078,0.057,0.135,0.096c0.117,0.08,0.262,0.195,0.436,0.297c0.182,0.1,0.365,0.199,0.506,0.277
					c0.068,0.039,0.139,0.062,0.184,0.084c0.045,0.02,0.072,0.031,0.072,0.031c0.412-0.178,0.855-0.268,1.301-0.314
					c0.221-0.023,0.439-0.029,0.646-0.016c0.213,0.01,0.428,0.027,0.631,0.074c0.199,0.055,0.395,0.104,0.566,0.18
					c0.174,0.074,0.328,0.174,0.475,0.268c0.291,0.199,0.516,0.482,0.613,0.777c0,0,0.15,0.006,0.377,0.016
					c0.227,0.006,0.527,0.025,0.828,0.01c0.301-0.01,0.604-0.014,0.826-0.029c0.221-0.021,0.369-0.035,0.369-0.035
					c0.031-0.154,0.1-0.299,0.193-0.432c0.045-0.064,0.1-0.127,0.158-0.184c0.057-0.059,0.115-0.121,0.182-0.174
					c0.131-0.107,0.281-0.201,0.449-0.275c0.164-0.076,0.34-0.148,0.543-0.193c0.207-0.041,0.402-0.082,0.613-0.098
					c0.207-0.018,0.434-0.008,0.645,0.002c0.428,0.023,0.904,0.121,1.318,0.277c0,0,0.092-0.051,0.229-0.127
					c0.131-0.078,0.318-0.17,0.463-0.285c0.148-0.109,0.303-0.213,0.396-0.299s0.152-0.143,0.152-0.143
					c-0.309-0.213-0.484-0.439-0.598-0.664c-0.053-0.109-0.068-0.211-0.07-0.312c-0.008-0.1,0.014-0.195,0.07-0.283
					C411.689,380.213,411.895,380.081,412.127,379.975"/>
				<path fill="#B3B3B3" d="M401.865,367.844c-0.008,0.879,0.418,1.674,1.105,2.236c0.854,0.693,1.551,2.096,1.592,3.629
					c0.045,1.701-0.07,3.668-0.141,4.67c-0.91,0.129-1.553,0.436-1.553,0.789c0,0.471,1.135,1.016,2.531,1.016
					c1.4,0,2.531-0.545,2.531-1.016c0-0.354-0.639-0.66-1.549-0.789c-0.072-1.002-0.188-2.969-0.145-4.67
					c0.043-1.533,0.74-2.936,1.592-3.629c0.689-0.562,1.115-1.357,1.107-2.236c-0.014-1.678-1.598-3.025-3.537-3.025
					C403.463,364.819,401.879,366.167,401.865,367.844"/>
			</g>
		</g>
	</g>
	<g>
		<rect x="307.868" y="239.333" fill="#FFFFFF" width="130" height="70"/>
		<g>
			<path fill="#585A5E" d="M327.947,258.454h1.378c0.251,0.798,0.854,1.196,1.807,1.196c0.468,0,0.843-0.106,1.124-0.318
				c0.282-0.213,0.424-0.501,0.424-0.865c0-0.286-0.09-0.514-0.268-0.683s-0.475-0.301-0.891-0.396l-1.352-0.324
				c-1.326-0.312-1.988-1.027-1.988-2.146c0-0.685,0.253-1.25,0.76-1.696c0.508-0.446,1.159-0.67,1.957-0.67
				c0.84,0,1.519,0.197,2.034,0.592s0.847,0.934,0.995,1.618h-1.353c-0.251-0.71-0.806-1.065-1.664-1.065
				c-0.434,0-0.782,0.102-1.046,0.306c-0.266,0.203-0.397,0.47-0.397,0.799c0,0.529,0.351,0.876,1.054,1.04l1.391,0.325
				c0.65,0.147,1.156,0.407,1.521,0.78c0.363,0.372,0.545,0.85,0.545,1.43c0,0.737-0.264,1.324-0.793,1.762
				c-0.528,0.438-1.213,0.656-2.054,0.656c-0.849,0-1.558-0.206-2.126-0.617C328.439,259.764,328.086,259.19,327.947,258.454z"/>
			<path fill="#585A5E" d="M336.228,252.681h5.214v1.196h-3.888v2.106h3.522v1.183h-3.522v2.288h3.888v1.209h-5.214V252.681z"/>
			<path fill="#585A5E" d="M346.135,257.426h-0.963v3.237h-1.352v-7.982h3.08c0.842,0,1.504,0.206,1.99,0.618
				c0.484,0.411,0.728,1.003,0.728,1.774c0,0.658-0.181,1.181-0.54,1.566s-0.859,0.631-1.501,0.734l2.313,3.289h-1.533
				L346.135,257.426z M345.172,253.852v2.443h1.703c0.441,0,0.787-0.11,1.033-0.331c0.248-0.222,0.371-0.518,0.371-0.891
				s-0.123-0.67-0.371-0.891c-0.246-0.221-0.592-0.331-1.033-0.331H345.172z"/>
			<path fill="#585A5E" d="M355.494,260.664h-1.287l-3.017-7.982h1.417l2.262,6.228l2.263-6.228h1.378L355.494,260.664z"/>
			<path fill="#585A5E" d="M361.902,252.681v7.982h-1.352v-7.982H361.902z"/>
			<path fill="#585A5E" d="M365.186,259.643c-0.689-0.767-1.033-1.757-1.033-2.971c0-1.213,0.344-2.203,1.033-2.971
				c0.689-0.767,1.553-1.15,2.594-1.15c0.883,0,1.607,0.236,2.17,0.709c0.564,0.473,0.924,1.116,1.08,1.931h-1.326
				c-0.348-0.945-0.988-1.417-1.924-1.417c-0.693,0-1.244,0.271-1.651,0.812c-0.407,0.541-0.611,1.237-0.611,2.086
				c0,0.85,0.204,1.545,0.611,2.087s0.958,0.812,1.651,0.812c0.936,0,1.576-0.477,1.924-1.431h1.326
				c-0.156,0.824-0.516,1.472-1.08,1.944c-0.562,0.472-1.287,0.708-2.17,0.708C366.738,260.793,365.875,260.41,365.186,259.643z"/>
			<path fill="#585A5E" d="M373.251,252.681h5.214v1.196h-3.888v2.106h3.522v1.183h-3.522v2.288h3.888v1.209h-5.214V252.681z"/>
			<path fill="#585A5E" d="M389.072,260.664h-0.962l-2.197-5.551v5.551h-1.287v-7.982h1.548l2.43,6.137l2.406-6.137h1.508v7.982
				h-1.301v-5.551L389.072,260.664z"/>
			<path fill="#585A5E" d="M395.195,252.681h5.213v1.196h-3.887v2.106h3.522v1.183h-3.522v2.288h3.887v1.209h-5.213V252.681z"/>
			<path fill="#585A5E" d="M402.162,258.454h1.379c0.251,0.798,0.854,1.196,1.807,1.196c0.469,0,0.843-0.106,1.125-0.318
				c0.281-0.213,0.422-0.501,0.422-0.865c0-0.286-0.089-0.514-0.266-0.683c-0.178-0.169-0.475-0.301-0.891-0.396l-1.353-0.324
				c-1.325-0.312-1.989-1.027-1.989-2.146c0-0.685,0.254-1.25,0.761-1.696s1.159-0.67,1.956-0.67c0.842,0,1.52,0.197,2.035,0.592
				s0.848,0.934,0.994,1.618h-1.352c-0.252-0.71-0.807-1.065-1.664-1.065c-0.434,0-0.782,0.102-1.047,0.306
				c-0.264,0.203-0.396,0.47-0.396,0.799c0,0.529,0.352,0.876,1.053,1.04l1.392,0.325c0.649,0.147,1.157,0.407,1.521,0.78
				c0.364,0.372,0.547,0.85,0.547,1.43c0,0.737-0.266,1.324-0.793,1.762c-0.529,0.438-1.214,0.656-2.055,0.656
				c-0.85,0-1.558-0.206-2.125-0.617C402.654,259.764,402.301,259.19,402.162,258.454z"/>
			<path fill="#585A5E" d="M415.812,252.681h1.353v7.982h-1.353v-3.497h-4.017v3.497h-1.353v-7.982h1.353v3.289h4.017V252.681z"/>
		</g>
		<g>
			<g>
				<path fill="#B3B3B3" d="M354.545,291.812v-19.373c3.342,7.07,6.67,14.113,10.047,21.258
					C361.211,293.062,357.918,292.445,354.545,291.812"/>
				<path fill="#B3B3B3" d="M352.98,291.814c-1.797,0.584-3.572,1.164-5.496,1.789c1.85-4.352,3.641-8.57,5.432-12.791
					c0.021,0.004,0.043,0.008,0.064,0.014V291.814z"/>
				<path fill="#B3B3B3" d="M363.885,294.914c-3.812,1.023-7.518,2.02-11.232,3.018c-1.496-0.996-2.975-1.977-4.541-3.018H363.885z"
					/>
			</g>
			<g>
				<path fill="#B3B3B3" d="M381.889,289.643c-0.006-0.804-0.037-1.606-0.002-2.407c0.008-0.202,0.172-0.456,0.342-0.579
					c0.381-0.277,0.812-0.487,1.223-0.723c0.408-0.238,0.818-0.475,1.32-0.764c-0.645-0.369-1.23-0.72-1.832-1.037
					c-0.092-0.05-0.273,0.014-0.387,0.077c-0.795,0.446-1.592,0.891-2.363,1.374c-0.156,0.099-0.277,0.357-0.295,0.554
					c-0.047,0.58-0.031,1.165-0.041,1.748c-0.525,0-1.051,0-1.576-0.001c-0.006-0.93-0.027-1.858-0.004-2.785
					c0.004-0.17,0.158-0.398,0.311-0.491c0.82-0.504,1.662-0.973,2.592-1.509c-0.65-0.374-1.232-0.722-1.83-1.039
					c-0.092-0.047-0.275,0.014-0.387,0.077c-0.793,0.444-1.588,0.892-2.361,1.371c-0.146,0.091-0.279,0.319-0.291,0.495
					c-0.043,0.562-0.025,1.129-0.033,1.692c-0.541-0.001-1.084-0.002-1.625-0.002v-2.957c0.545-0.336,1.094-0.671,1.639-1.007
					c0.41-0.216,0.816-0.433,1.312-0.696c-0.469-0.268-0.852-0.485-1.336-0.763v1.047c-0.539-0.001-1.076-0.003-1.615-0.005v-2.081
					c0.385-0.196,0.791-0.357,1.145-0.597c0.338-0.229,0.594-0.202,0.936-0.006c4.391,2.544,8.775,5.099,13.199,7.582
					c0.809,0.453,1.178,0.922,1.061,1.845c-0.084,0.663-0.027,1.344-0.035,2.017c-0.379,0-0.76,0.011-1.139-0.003
					c-0.277-0.011-0.385,0.098-0.385,0.379c0.004,0.541-0.021,1.083-0.035,1.624c-0.137-0.112-0.262-0.248-0.414-0.336
					c-1.707-0.99-3.418-1.974-5.129-2.957c-0.102-0.058-0.217-0.094-0.373-0.159c-0.02,0.379-0.037,0.699-0.053,1.021
					C382.914,289.642,382.4,289.643,381.889,289.643 M389.389,290.08c0-0.779,0.014-1.429-0.014-2.075
					c-0.006-0.118-0.162-0.267-0.285-0.34c-0.795-0.475-1.598-0.937-2.406-1.39c-0.111-0.062-0.295-0.119-0.387-0.07
					c-0.588,0.312-1.158,0.654-1.826,1.039C386.131,288.201,387.695,289.103,389.389,290.08"/>
				<path fill="#B3B3B3" d="M398.178,282.625v3.18c-0.537-0.003-1.074-0.003-1.609-0.006c-0.008-0.546-0.043-1.094-0.008-1.638
					c0.025-0.388-0.135-0.579-0.449-0.76c-4.439-2.545-8.869-5.1-13.303-7.653c-0.156-0.091-0.316-0.177-0.473-0.271
					c-0.299-0.186-0.32-0.38-0.008-0.575c0.324-0.2,0.646-0.398,0.973-0.596h0.328c0.832,0.485,1.658,0.984,2.504,1.446
					c0.15,0.083,0.426,0.084,0.578,0.001c0.846-0.462,1.67-0.962,2.502-1.447h0.33c0.307,0.188,0.615,0.381,0.926,0.565
					c0.357,0.214,0.367,0.421-0.002,0.633c-0.771,0.443-1.545,0.89-2.395,1.379c0.629,0.362,1.193,0.708,1.781,1.01
					c0.119,0.061,0.348-0.006,0.49-0.083c0.67-0.366,1.352-0.721,1.984-1.146c0.467-0.313,0.859-0.326,1.279,0.021
					c0.242,0.198,0.484,0.398,0.727,0.599c-0.24,0.182-0.467,0.387-0.721,0.542c-0.621,0.378-1.252,0.734-1.936,1.13
					c0.604,0.352,1.141,0.691,1.707,0.972c0.15,0.075,0.422,0.023,0.586-0.065c0.752-0.405,1.492-0.837,2.227-1.277
					c0.26-0.157,0.461-0.125,0.746-0.019c1.031,0.382,1.467,1.059,1.258,2.151c-0.049,0.265-0.018,0.546-0.023,0.818h-1.6v-1.263
					c-0.482,0.274-0.865,0.494-1.332,0.76c0.492,0.265,0.898,0.483,1.305,0.701C397.094,282.031,397.635,282.329,398.178,282.625"/>
				<path fill="#B3B3B3" d="M374.648,285.695c0.541,0,1.084,0.001,1.625,0.002c0,1.131,0,2.264-0.002,3.395
					c-0.541,0-1.082,0-1.623-0.001V285.695z"/>
				<path fill="#B3B3B3" d="M374.648,289.089c0.541,0.001,1.082,0.001,1.623,0.002c0.002,0.619,0.004,1.238,0.006,1.857
					c-0.484,0.044-0.969,0.089-1.455,0.133c-0.057-0.043-0.115-0.087-0.174-0.131V289.089z"/>
				<path fill="#B3B3B3" d="M376.287,281.731c-0.545,0.336-1.092,0.671-1.639,1.007v-1.424c0.539,0.002,1.078,0.004,1.617,0.005
					C376.271,281.458,376.279,281.593,376.287,281.731"/>
				<path fill="#B3B3B3" d="M392.988,288.102c-0.01-0.62-0.047-1.239-0.02-1.856c0.02-0.385-0.125-0.581-0.447-0.766
					c-4.426-2.535-8.844-5.083-13.26-7.636c-0.271-0.157-0.504-0.386-0.754-0.581c0.248-0.196,0.5-0.389,0.742-0.59
					c0.432-0.356,0.809-0.273,1.281,0.001c4.52,2.629,9.055,5.234,13.592,7.829c0.346,0.199,0.484,0.408,0.469,0.809
					c-0.037,0.93-0.02,1.859-0.027,2.789C394.039,288.101,393.514,288.101,392.988,288.102"/>
				<path fill="#B3B3B3" d="M389.316,296.003c-0.824-0.45-1.66-0.885-2.469-1.359c-0.307-0.18-0.529-0.196-0.838-0.009
					c-0.824,0.498-1.672,0.955-2.508,1.429c0-0.623-0.002-1.247-0.002-1.871c0.398-0.228,0.797-0.455,1.275-0.729
					c-0.477-0.275-0.871-0.506-1.268-0.735c-0.002-0.625-0.004-1.251-0.004-1.876c1.945,1.112,3.893,2.226,5.838,3.339
					C389.334,294.795,389.324,295.4,389.316,296.003"/>
				<path fill="#B3B3B3" d="M383.502,290.852c0.002,0.625,0.004,1.251,0.006,1.876l-0.088,0.524c-0.508,0-1.02,0.001-1.529,0.001
					c0-1.204-0.002-2.407-0.002-3.611c0.512,0,1.025-0.001,1.537-0.001C383.451,290.044,383.477,290.449,383.502,290.852"/>
				<path fill="#B3B3B3" d="M396.568,285.799c0.535,0.002,1.072,0.003,1.609,0.005c0,1.097-0.002,2.191-0.002,3.287h-1.598
					C396.574,287.994,396.57,286.898,396.568,285.799"/>
				<path fill="#B3B3B3" d="M378.277,287.884c0.525,0.001,1.051,0.001,1.576,0.001c-0.002,1.022-0.004,2.045-0.006,3.067
					c-0.523,0.001-1.045,0.001-1.568,0.001C378.279,289.931,378.277,288.908,378.277,287.884"/>
				<path fill="#B3B3B3" d="M389.395,292.074c0.014-0.541,0.039-1.083,0.037-1.624c-0.002-0.281,0.105-0.39,0.383-0.379
					c0.379,0.014,0.76,0.003,1.141,0.003c-0.002,1.098-0.002,2.192-0.004,3.289c-0.512-0.001-1.02-0.001-1.531-0.001
					C389.412,292.932,389.402,292.504,389.395,292.074"/>
				<path fill="#B3B3B3" d="M392.988,288.102c0.525-0.001,1.051-0.001,1.576-0.001c0,0.951-0.002,1.901-0.002,2.854
					c-0.523,0-1.047,0-1.568-0.001C392.992,290.002,392.99,289.052,392.988,288.102"/>
				<path fill="#B3B3B3" d="M378.279,290.954c0.523,0,1.047,0,1.568-0.001c0.002,0.873,0.004,1.746,0.006,2.619
					c-0.168,0.042-0.334,0.085-0.502,0.127c-0.84-0.269-1.266-0.79-1.1-1.721C378.312,291.646,378.273,291.295,378.279,290.954"/>
				<path fill="#B3B3B3" d="M381.891,293.253c0.51,0,1.021-0.001,1.529-0.001c0.027,0.313,0.055,0.627,0.08,0.94
					c0,0.623,0,1.248,0,1.871c-0.49-0.266-0.986-0.52-1.465-0.806c-0.094-0.057-0.154-0.238-0.158-0.364
					C381.867,294.347,381.885,293.8,381.891,293.253"/>
				<path fill="#B3B3B3" d="M392.994,290.953c0.521,0.001,1.045,0.001,1.568,0.001c0.006,0.539,0.014,1.079,0.018,1.618
					c0.006,0.395-0.129,0.695-0.543,0.812c-0.254-0.487-0.711-0.124-1.053-0.248C392.988,292.408,392.99,291.681,392.994,290.953"/>
				<path fill="#B3B3B3" d="M389.42,293.362c0.51,0,1.021,0,1.531,0.001c0.006,0.055,0.016,0.106,0.016,0.16
					c0.043,1.741,0.041,1.741-1.57,2.481c-0.027-0.011-0.057-0.014-0.086-0.011l0.006,0.011c0.01-0.604,0.018-1.208,0.025-1.812
					C389.369,293.916,389.395,293.638,389.42,293.362"/>
				<path fill="#B3B3B3" d="M396.58,289.091h1.596c0.006,0.357-0.033,0.725,0.027,1.072c0.113,0.651-0.148,1.037-0.742,1.246
					c-0.295-0.045-0.592-0.089-0.889-0.133C396.574,290.547,396.578,289.82,396.58,289.091"/>
				<path fill="#B3B3B3" d="M396.578,281.536h1.6v1.09c-0.543-0.297-1.084-0.595-1.627-0.892
					C396.559,281.667,396.568,281.602,396.578,281.536"/>
				<path fill="#B3B3B3" d="M374.824,291.082c0.482-0.044,0.969-0.089,1.453-0.133c0.006,0.146,0.02,0.291,0.018,0.438
					c0,0.375-0.209,0.45-0.5,0.296C375.459,291.502,375.146,291.284,374.824,291.082"/>
				<path fill="#B3B3B3" d="M392.984,293.134c0.342,0.124,0.797-0.237,1.053,0.248c-0.115,0.081-0.225,0.186-0.354,0.236
					c-0.189,0.077-0.393,0.117-0.592,0.171C393.057,293.572,393.021,293.354,392.984,293.134"/>
				<path fill="#B3B3B3" d="M396.572,291.276c0.297,0.044,0.592,0.089,0.889,0.134c-0.115,0.078-0.223,0.171-0.346,0.233
					C396.699,291.857,396.592,291.781,396.572,291.276"/>
				<path fill="#B3B3B3" d="M379.352,293.699c0.168-0.042,0.334-0.085,0.502-0.127C379.773,293.954,379.572,293.867,379.352,293.699
					"/>
				<path fill="#B3B3B3" d="M389.312,295.994c0.027-0.003,0.057,0,0.084,0.011C389.369,296,389.34,295.998,389.312,295.994"/>
			</g>
		</g>
	</g>
	<line fill="none" stroke="#585A5E" stroke-miterlimit="10" x1="80.215" y1="113.155" x2="372.868" y2="113.155"/>
	<g>
		<rect x="15.215" y="412.548" fill="#FFFFFF" width="422" height="70"/>
		<g>
			<path fill="#585A5E" d="M214.242,426.603v7.982h-1.353v-7.982H214.242z"/>
			<path fill="#585A5E" d="M219.363,426.603h1.301l3.067,7.982h-1.378l-0.818-2.21h-3.056l-0.819,2.21h-1.365L219.363,426.603z
				 M220,428.254l-1.092,2.951h2.185L220,428.254z"/>
			<path fill="#585A5E" d="M228.217,426.603h1.3l3.067,7.982h-1.377l-0.819-2.21h-3.056l-0.818,2.21h-1.365L228.217,426.603z
				 M228.854,428.254l-1.092,2.951h2.184L228.854,428.254z"/>
			<path fill="#585A5E" d="M233.937,432.375h1.378c0.252,0.798,0.854,1.196,1.807,1.196c0.469,0,0.844-0.106,1.125-0.318
				c0.281-0.213,0.423-0.501,0.423-0.865c0-0.286-0.089-0.514-0.267-0.683s-0.475-0.301-0.891-0.396l-1.352-0.324
				c-1.326-0.312-1.989-1.027-1.989-2.146c0-0.685,0.253-1.25,0.761-1.696c0.507-0.446,1.158-0.67,1.956-0.67
				c0.841,0,1.519,0.197,2.034,0.592s0.848,0.934,0.995,1.618h-1.353c-0.251-0.71-0.806-1.065-1.664-1.065
				c-0.434,0-0.781,0.102-1.046,0.306c-0.265,0.203-0.397,0.47-0.397,0.799c0,0.529,0.352,0.876,1.054,1.04l1.392,0.325
				c0.649,0.147,1.156,0.407,1.521,0.78c0.364,0.372,0.546,0.85,0.546,1.43c0,0.737-0.265,1.324-0.793,1.762
				c-0.529,0.438-1.213,0.656-2.055,0.656c-0.849,0-1.557-0.206-2.125-0.617C234.429,433.686,234.075,433.112,233.937,432.375z"/>
		</g>
		<g>
			<g>
				<g>
					<path fill-rule="evenodd" clip-rule="evenodd" fill="#B3B3B3" d="M234.303,454.762c-0.936-1.605-1.865-3.213-2.793-4.823
						c-0.076-0.131-0.16-0.171-0.307-0.17c-0.922,0.006-1.846,0.003-2.768,0.003c-0.928,0-1.857,0.003-2.789-0.003
						c-0.139,0-0.219,0.043-0.287,0.165c-0.918,1.614-1.84,3.227-2.764,4.837c-0.064,0.114-0.064,0.198,0,0.312
						c0.926,1.61,1.848,3.223,2.764,4.838c0.07,0.122,0.15,0.164,0.289,0.164c1.852-0.005,3.703-0.006,5.555,0
						c0.148,0,0.232-0.042,0.307-0.173c0.928-1.608,1.859-3.216,2.795-4.821C234.375,454.969,234.373,454.882,234.303,454.762z
						 M228.451,457.263c-1.32-0.001-2.342-1.025-2.336-2.35c0.004-1.309,1.027-2.324,2.34-2.324c1.32,0.001,2.342,1.025,2.336,2.352
						C230.785,456.249,229.764,457.264,228.451,457.263z"/>
					<path fill-rule="evenodd" clip-rule="evenodd" fill="#B3B3B3" d="M236.097,448.84c-0.129,0-0.219,0-0.311,0
						c-3.506,0-7.012,0.002-10.518-0.005c-0.221,0-0.346,0.055-0.463,0.26c-0.879,1.558-1.773,3.106-2.664,4.658
						c-0.041,0.071-0.086,0.139-0.141,0.228c-0.375-0.658-0.736-1.291-1.098-1.926c-0.285-0.504-0.568-1.008-0.859-1.508
						c-0.066-0.111-0.072-0.193-0.006-0.311c0.758-1.347,1.502-2.699,2.266-4.045c0.408-0.718,1.033-1.099,1.871-1.099
						c2.873,0,5.748-0.001,8.621,0.001c0.799,0,1.412,0.359,1.811,1.04c0.496,0.847,0.957,1.715,1.434,2.573
						C236.058,448.74,236.069,448.775,236.097,448.84z"/>
					<path fill-rule="evenodd" clip-rule="evenodd" fill="#B3B3B3" d="M219.394,451.384c0.652,1.121,1.287,2.214,1.918,3.308
						c1.186,2.049,2.369,4.099,3.549,6.151c0.074,0.131,0.154,0.174,0.303,0.174c1.814-0.008,3.627-0.004,5.441-0.004
						c0.082,0,0.166,0,0.279,0c-0.039,0.079-0.062,0.14-0.094,0.196c-0.662,1.129-1.326,2.257-1.984,3.39
						c-0.07,0.121-0.148,0.164-0.287,0.164c-1.484-0.006-2.971,0.001-4.455-0.006c-0.773-0.002-1.373-0.34-1.754-1.01
						c-1.471-2.587-2.934-5.178-4.389-7.773c-0.363-0.65-0.375-1.336-0.02-1.991c0.461-0.85,0.953-1.682,1.434-2.521
						C219.347,451.443,219.362,451.426,219.394,451.384z"/>
					<path fill-rule="evenodd" clip-rule="evenodd" fill="#B3B3B3" d="M229.843,464.759c0.045-0.082,0.068-0.13,0.096-0.175
						c1.824-3.174,3.648-6.349,5.479-9.52c0.08-0.138,0.035-0.223-0.029-0.331c-0.898-1.562-1.797-3.128-2.693-4.693
						c-0.043-0.076-0.082-0.154-0.137-0.256c0.1-0.007,0.166-0.012,0.232-0.012c1.219-0.001,2.438,0.003,3.658-0.005
						c0.168-0.001,0.254,0.059,0.334,0.202c0.717,1.3,1.438,2.597,2.164,3.893c0.414,0.735,0.4,1.468-0.008,2.194
						c-1.096,1.95-2.199,3.899-3.299,5.847c-0.326,0.578-0.648,1.155-0.979,1.729c-0.426,0.742-1.059,1.132-1.926,1.128
						C231.784,464.756,230.833,464.759,229.843,464.759z"/>
				</g>
			</g>
			<g>
				<polygon fill="#B3B3B3" points="186.47,454.94 185.63,458.415 187.3,458.415 186.489,454.94 				"/>
				<path fill="#B3B3B3" d="M202.863,453.19c-0.066-2.09-1.764-3.763-3.869-3.763c-0.816,0-1.567,0.253-2.194,0.683
					c-1.201-2.673-3.876-4.539-6.997-4.539c-4.238,0-7.67,3.434-7.67,7.673c0,0.076-0.012,0.147-0.01,0.223
					c-2.273,0.658-3.908,3.319-3.908,5.256v0.506c0,2.515,2.76,5.545,6.111,5.545h17.873c3.352,0,6.016-3.031,6.016-5.545v-0.506
					C208.215,456.383,205.891,453.449,202.863,453.19z M189.076,460.773h-1.174l-0.436-1h-2.064l-0.453,1h-1.176l2.004-7h1.441
					l1.859,7H189.076z M194.746,460.773h-1.303l-0.908-5h-0.02l-0.9,5h-1.303l-1.363-7h1.137l0.928,6h0.02l0.928-6h1.186h0.002
					l0.945,6h0.021l0.918-6h1.113h0.002L194.746,460.773z M201.21,458.773c0,2-0.671,2.266-2.093,2.266
					c-1.746,0-1.902-1.021-1.902-2.009v-0.002v-0.166v-0.089h1v0.089v0.176c0,0.857,0.196,1.293,0.974,1.293
					c0.713,0,0.978-0.504,0.978-1.028c0-0.369-0.139-0.635-0.311-0.832s-0.446-0.325-0.761-0.418l-0.782-0.269
					c-0.514-0.197-0.888-0.43-1.127-0.738c-0.24-0.31-0.354-0.694-0.354-1.199c0-1.283,0.87-1.962,2.192-1.962
					c1.807,0,2.093,0.889,2.093,1.889h0.099v0.093v-0.093h-1v0.093v-0.146c0-0.642-0.449-1.017-1.148-1.017
					c-0.484,0-1.031,0.268-1.032,1.016c0,0.144-0.021,0.269,0.017,0.383c0.002,0.005-0.02,0.012-0.018,0.017
					c0.121,0.354,0.424,0.579,0.986,0.794l0.762,0.277c0.996,0.355,1.434,0.9,1.434,1.867c0,0.001,0-0.283,0-0.283H201.21z"/>
			</g>
			<g>
				<polygon fill="#B3B3B3" points="263.859,445.076 254.334,462.455 248.914,462.998 255.283,452.255 				"/>
				<polygon fill="#B3B3B3" points="264.596,448.046 260.859,455.572 267.439,463.197 255.229,464.582 274.174,464.781 				"/>
			</g>
		</g>
	</g>
	<g>
		
			<rect x="177.022" y="3.145" fill="#FFFFFF" stroke="#A7A8AB" stroke-width="0.6885" stroke-miterlimit="10" width="99.037" height="26.737"/>
		<g>
			<path fill="#585A5E" d="M202.075,19.329c-0.688-0.767-1.033-1.757-1.033-2.971c0-1.213,0.345-2.203,1.033-2.971
				c0.689-0.767,1.554-1.15,2.594-1.15c0.884,0,1.607,0.236,2.171,0.709s0.923,1.116,1.079,1.931h-1.326
				c-0.347-0.945-0.987-1.417-1.924-1.417c-0.693,0-1.243,0.271-1.651,0.812c-0.407,0.541-0.611,1.237-0.611,2.086
				c0,0.85,0.204,1.545,0.611,2.087c0.408,0.542,0.958,0.812,1.651,0.812c0.937,0,1.577-0.477,1.924-1.431h1.326
				c-0.156,0.824-0.516,1.472-1.079,1.944c-0.563,0.472-1.287,0.708-2.171,0.708C203.629,20.479,202.765,20.095,202.075,19.329z"/>
			<path fill="#585A5E" d="M210.142,20.349v-7.982h1.353v6.773h3.834v1.209H210.142z"/>
			<path fill="#585A5E" d="M218.969,12.367v7.982h-1.353v-7.982H218.969z"/>
			<path fill="#585A5E" d="M221.646,12.367h5.213v1.196h-3.887v2.106h3.523v1.183h-3.523v2.288h3.887v1.209h-5.213V12.367z"/>
			<path fill="#585A5E" d="M235.66,12.367v7.982h-1.039l-4.082-5.811v5.811h-1.301v-7.982h1.274l3.848,5.538v-5.538H235.66z"/>
			<path fill="#585A5E" d="M237.844,13.563v-1.196h6.656v1.196h-2.652v6.786h-1.352v-6.786H237.844z"/>
			<path fill="#585A5E" d="M246.008,18.139h1.379c0.25,0.798,0.854,1.196,1.807,1.196c0.468,0,0.842-0.106,1.124-0.318
				c0.282-0.213,0.423-0.501,0.423-0.865c0-0.286-0.09-0.514-0.267-0.683c-0.178-0.169-0.475-0.301-0.891-0.396l-1.353-0.324
				c-1.325-0.312-1.988-1.027-1.988-2.146c0-0.685,0.254-1.25,0.76-1.696c0.508-0.446,1.16-0.67,1.957-0.67
				c0.841,0,1.52,0.197,2.035,0.592s0.847,0.934,0.994,1.618h-1.352c-0.252-0.71-0.807-1.065-1.664-1.065
				c-0.434,0-0.783,0.102-1.047,0.306c-0.265,0.203-0.396,0.47-0.396,0.799c0,0.529,0.351,0.876,1.053,1.04l1.391,0.325
				c0.65,0.147,1.157,0.407,1.521,0.78c0.363,0.372,0.546,0.85,0.546,1.43c0,0.737-0.265,1.324-0.793,1.762
				s-1.214,0.656-2.054,0.656c-0.85,0-1.559-0.206-2.126-0.617C246.5,19.45,246.146,18.875,246.008,18.139z"/>
		</g>
	</g>
</g>
</svg>
