<?xml version="1.0" encoding="utf-8"?>
<!-- Generator: Adobe Illustrator 16.0.4, SVG Export Plug-In . SVG Version: 6.00 Build 0)  -->
<!DOCTYPE svg PUBLIC "-//W3C//DTD SVG 1.0//EN" "http://www.w3.org/TR/2001/REC-SVG-20010904/DTD/svg10.dtd">
<svg version="1.0" id="Layer_1" xmlns="http://www.w3.org/2000/svg" xmlns:xlink="http://www.w3.org/1999/xlink" x="0px" y="0px"
	 width="452.664px" height="456px" viewBox="0 0 452.664 456" enable-background="new 0 0 452.664 456" xml:space="preserve">
<g opacity="0.1">
	<g>
		<defs>
			<rect id="SVGID_41_" x="-49.668" y="-29.522" width="552" height="534.24"/>
		</defs>
		<clipPath id="SVGID_2_">
			<use xlink:href="#SVGID_41_"  overflow="visible"/>
		</clipPath>
		<g transform="matrix(1 0 0 1 0 -1.907349e-06)" clip-path="url(#SVGID_2_)">
			
				<image overflow="visible" width="2300" height="2226" xlink:href="2A48E1F59946C38.png"  transform="matrix(0.24 0 0 0.24 -49.668 -29.522)">
			</image>
		</g>
	</g>
	<rect x="-49.668" y="-29.518" fill="none" width="552" height="534.24"/>
</g>
<rect x="-30.226" y="-21.286" fill="#FFFFFF" width="523.819" height="506.15"/>
<rect fill="#F5F6F6" width="452.664" height="456.902"/>
<rect x="22.811" y="22.38" fill="#FFFFFF" width="118.068" height="410.701"/>
<g>
	<path fill="#585A5E" d="M41.09,37.411l1.295-2.2h0.881l-1.784,2.952v1.96h-0.824v-1.96l-1.776-2.952h0.904L41.09,37.411z"/>
	<path fill="#585A5E" d="M47.77,35.847c0.426,0.477,0.64,1.084,0.64,1.82s-0.214,1.343-0.64,1.82
		c-0.428,0.478-0.971,0.716-1.633,0.716c-0.66,0-1.203-0.239-1.627-0.716c-0.424-0.477-0.637-1.084-0.637-1.82
		s0.213-1.343,0.637-1.82c0.424-0.478,0.967-0.716,1.627-0.716C46.799,35.131,47.342,35.37,47.77,35.847z M47.174,38.955
		c0.264-0.336,0.396-0.765,0.396-1.288c0-0.522-0.132-0.952-0.396-1.288c-0.265-0.336-0.609-0.504-1.037-0.504
		c-0.426,0-0.77,0.167-1.031,0.5c-0.262,0.333-0.393,0.764-0.393,1.292s0.131,0.959,0.393,1.292c0.262,0.333,0.605,0.5,1.031,0.5
		C46.564,39.459,46.909,39.291,47.174,38.955z"/>
	<path fill="#585A5E" d="M53.117,39.679c-0.355,0.349-0.834,0.524-1.436,0.524c-0.604,0-1.082-0.175-1.437-0.524
		c-0.354-0.35-0.532-0.855-0.532-1.516v-2.952h0.832v2.864c0,0.922,0.379,1.384,1.137,1.384c0.757,0,1.135-0.461,1.135-1.384v-2.864
		h0.832v2.96C53.648,38.827,53.472,39.33,53.117,39.679z"/>
	<path fill="#585A5E" d="M56.641,38.131h-0.592v1.992h-0.832v-4.912h1.896c0.517,0,0.925,0.127,1.224,0.38
		c0.298,0.253,0.448,0.618,0.448,1.092c0,0.405-0.111,0.727-0.332,0.964c-0.222,0.237-0.529,0.388-0.924,0.452l1.424,2.024h-0.944
		L56.641,38.131z M56.049,35.931v1.504h1.048c0.272,0,0.484-0.068,0.636-0.204c0.152-0.136,0.229-0.318,0.229-0.548
		s-0.076-0.412-0.229-0.548c-0.151-0.136-0.363-0.204-0.636-0.204H56.049z"/>
	<path fill="#585A5E" d="M62.545,35.211h3.208v0.736h-2.392v1.296h2.168v0.728h-2.168v1.408h2.392v0.744h-3.208V35.211z"/>
	<path fill="#585A5E" d="M71.097,35.211l-1.664,2.392l1.744,2.52h-0.952l-1.271-1.848l-1.272,1.848h-0.928l1.735-2.504l-1.655-2.408
		h0.952l1.184,1.736l1.208-1.736H71.097z"/>
	<path fill="#585A5E" d="M73.185,35.211v4.912h-0.832v-4.912H73.185z"/>
	<path fill="#585A5E" d="M74.449,38.763h0.848c0.154,0.491,0.525,0.736,1.111,0.736c0.289,0,0.52-0.065,0.692-0.196
		c0.173-0.131,0.26-0.308,0.26-0.532c0-0.176-0.055-0.316-0.163-0.42c-0.109-0.104-0.293-0.185-0.549-0.244l-0.832-0.2
		c-0.816-0.192-1.224-0.632-1.224-1.32c0-0.421,0.155-0.769,0.468-1.044c0.312-0.274,0.713-0.412,1.204-0.412
		c0.517,0,0.935,0.122,1.252,0.364s0.521,0.575,0.612,0.996h-0.832c-0.155-0.438-0.496-0.656-1.024-0.656
		c-0.267,0-0.481,0.063-0.644,0.188c-0.163,0.125-0.244,0.29-0.244,0.492c0,0.325,0.216,0.539,0.648,0.64l0.855,0.2
		c0.4,0.091,0.712,0.251,0.936,0.48c0.225,0.229,0.336,0.523,0.336,0.88c0,0.454-0.162,0.815-0.488,1.084
		c-0.324,0.27-0.746,0.404-1.264,0.404c-0.522,0-0.959-0.126-1.308-0.38C74.751,39.57,74.533,39.216,74.449,38.763z"/>
	<path fill="#585A5E" d="M79.152,35.947v-0.736h4.096v0.736h-1.631v4.176h-0.832v-4.176H79.152z"/>
	<path fill="#585A5E" d="M85.416,35.211v4.912h-0.832v-4.912H85.416z"/>
	<path fill="#585A5E" d="M91.009,35.211v4.912h-0.64l-2.512-3.576v3.576h-0.801v-4.912h0.784l2.368,3.408v-3.408H91.009z"/>
	<path fill="#585A5E" d="M96,38.299h-1.072v-0.712h1.865v0.384c0,0.672-0.197,1.212-0.589,1.62c-0.392,0.408-0.892,0.612-1.5,0.612
		c-0.667,0-1.219-0.236-1.655-0.708c-0.438-0.472-0.656-1.082-0.656-1.828s0.217-1.356,0.652-1.828
		c0.434-0.472,0.977-0.708,1.627-0.708c0.55,0,0.999,0.144,1.349,0.432c0.349,0.288,0.571,0.683,0.668,1.184h-0.832
		c-0.106-0.283-0.252-0.497-0.437-0.644c-0.184-0.146-0.434-0.22-0.748-0.22c-0.432,0-0.779,0.167-1.043,0.5
		c-0.265,0.333-0.396,0.762-0.396,1.284c0,0.528,0.133,0.96,0.4,1.296c0.266,0.336,0.623,0.504,1.071,0.504
		c0.362,0,0.656-0.105,0.88-0.316C95.809,38.94,95.947,38.656,96,38.299z"/>
	<path fill="#585A5E" d="M100.201,35.947v-0.736h4.096v0.736h-1.633v4.176h-0.832v-4.176H100.201z"/>
	<path fill="#585A5E" d="M109.016,35.847c0.428,0.477,0.641,1.084,0.641,1.82s-0.213,1.343-0.641,1.82
		c-0.426,0.478-0.971,0.716-1.631,0.716c-0.662,0-1.205-0.239-1.629-0.716c-0.424-0.477-0.636-1.084-0.636-1.82
		s0.212-1.343,0.636-1.82c0.424-0.478,0.967-0.716,1.629-0.716C108.045,35.131,108.59,35.37,109.016,35.847z M108.42,38.955
		c0.265-0.336,0.396-0.765,0.396-1.288c0-0.522-0.132-0.952-0.396-1.288c-0.264-0.336-0.609-0.504-1.035-0.504
		c-0.428,0-0.771,0.167-1.032,0.5c-0.262,0.333-0.392,0.764-0.392,1.292s0.13,0.959,0.392,1.292c0.261,0.333,0.604,0.5,1.032,0.5
		C107.811,39.459,108.156,39.291,108.42,38.955z"/>
	<path fill="#585A5E" d="M114.704,35.847c0.427,0.477,0.64,1.084,0.64,1.82s-0.213,1.343-0.64,1.82
		c-0.427,0.478-0.971,0.716-1.632,0.716s-1.204-0.239-1.628-0.716c-0.424-0.477-0.636-1.084-0.636-1.82s0.212-1.343,0.636-1.82
		c0.424-0.478,0.967-0.716,1.628-0.716S114.277,35.37,114.704,35.847z M114.108,38.955c0.265-0.336,0.396-0.765,0.396-1.288
		c0-0.522-0.131-0.952-0.396-1.288s-0.609-0.504-1.036-0.504s-0.771,0.167-1.031,0.5c-0.262,0.333-0.393,0.764-0.393,1.292
		s0.131,0.959,0.393,1.292c0.261,0.333,0.604,0.5,1.031,0.5S113.844,39.291,114.108,38.955z"/>
	<path fill="#585A5E" d="M116.721,40.123v-4.912h0.832v4.168h2.359v0.744H116.721z"/>
	<path fill="#585A5E" d="M120.936,38.763h0.848c0.155,0.491,0.525,0.736,1.113,0.736c0.287,0,0.518-0.065,0.691-0.196
		c0.174-0.131,0.26-0.308,0.26-0.532c0-0.176-0.055-0.316-0.164-0.42s-0.291-0.185-0.548-0.244l-0.832-0.2
		c-0.815-0.192-1.224-0.632-1.224-1.32c0-0.421,0.156-0.769,0.468-1.044c0.312-0.274,0.714-0.412,1.204-0.412
		c0.518,0,0.935,0.122,1.252,0.364s0.521,0.575,0.611,0.996h-0.832c-0.154-0.438-0.495-0.656-1.023-0.656
		c-0.267,0-0.481,0.063-0.645,0.188c-0.162,0.125-0.243,0.29-0.243,0.492c0,0.325,0.216,0.539,0.647,0.64l0.856,0.2
		c0.399,0.091,0.712,0.251,0.937,0.48c0.223,0.229,0.336,0.523,0.336,0.88c0,0.454-0.163,0.815-0.488,1.084
		c-0.326,0.27-0.747,0.404-1.264,0.404c-0.523,0-0.959-0.126-1.309-0.38S121.021,39.216,120.936,38.763z"/>
</g>
<g>
	<path fill="#585A5E" d="M257.963,37.587c0.234,0.075,0.428,0.217,0.576,0.428c0.149,0.21,0.225,0.444,0.225,0.7
		c0,0.454-0.148,0.802-0.444,1.044s-0.702,0.364-1.22,0.364h-1.881v-4.912h1.721c0.522,0,0.931,0.115,1.224,0.344
		c0.294,0.229,0.44,0.56,0.44,0.992c0,0.256-0.061,0.478-0.18,0.664C258.303,37.398,258.15,37.523,257.963,37.587z M256.027,37.275
		h0.904c0.581,0,0.871-0.227,0.871-0.68c0-0.443-0.29-0.664-0.871-0.664h-0.904V37.275z M256.027,37.963v1.44h1.057
		c0.276,0,0.49-0.064,0.639-0.192c0.15-0.128,0.225-0.304,0.225-0.528s-0.074-0.4-0.225-0.528c-0.148-0.128-0.362-0.192-0.639-0.192
		H256.027z"/>
	<path fill="#585A5E" d="M261.571,35.211h0.8l1.889,4.912h-0.848l-0.505-1.36h-1.88l-0.504,1.36h-0.84L261.571,35.211z
		 M261.963,36.227l-0.672,1.816h1.344L261.963,36.227z"/>
	<path fill="#585A5E" d="M265.516,40.123v-4.912h0.832v4.168h2.359v0.744H265.516z"/>
	<path fill="#585A5E" d="M270.115,40.123v-4.912h0.832v4.168h2.359v0.744H270.115z"/>
	<path fill="#585A5E" d="M274.715,35.211h3.208v0.736h-2.392v1.296h2.168v0.728h-2.168v1.408h2.392v0.744h-3.208V35.211z"/>
	<path fill="#585A5E" d="M280.811,38.131h-0.592v1.992h-0.832v-4.912h1.896c0.518,0,0.926,0.127,1.225,0.38
		c0.298,0.253,0.447,0.618,0.447,1.092c0,0.405-0.11,0.727-0.332,0.964c-0.221,0.237-0.529,0.388-0.924,0.452l1.424,2.024h-0.943
		L280.811,38.131z M280.219,35.931v1.504h1.049c0.271,0,0.484-0.068,0.636-0.204c0.151-0.136,0.228-0.318,0.228-0.548
		s-0.076-0.412-0.228-0.548c-0.151-0.136-0.364-0.204-0.636-0.204H280.219z"/>
	<path fill="#585A5E" d="M285.219,35.211v4.912h-0.832v-4.912H285.219z"/>
	<path fill="#585A5E" d="M290.811,35.211v4.912h-0.64l-2.512-3.576v3.576h-0.8v-4.912h0.783l2.368,3.408v-3.408H290.811z"/>
	<path fill="#585A5E" d="M293.963,35.211h0.801l1.887,4.912h-0.848l-0.504-1.36h-1.88l-0.504,1.36h-0.84L293.963,35.211z
		 M294.355,36.227l-0.672,1.816h1.344L294.355,36.227z"/>
	<path fill="#585A5E" d="M299.939,35.947v-0.736h4.096v0.736h-1.633v4.176h-0.832v-4.176H299.939z"/>
	<path fill="#585A5E" d="M308.754,35.847c0.428,0.477,0.641,1.084,0.641,1.82s-0.213,1.343-0.641,1.82
		c-0.426,0.478-0.971,0.716-1.631,0.716c-0.662,0-1.205-0.239-1.629-0.716c-0.424-0.477-0.636-1.084-0.636-1.82
		s0.212-1.343,0.636-1.82c0.424-0.478,0.967-0.716,1.629-0.716C307.783,35.131,308.328,35.37,308.754,35.847z M308.158,38.955
		c0.265-0.336,0.396-0.765,0.396-1.288c0-0.522-0.132-0.952-0.396-1.288c-0.264-0.336-0.609-0.504-1.035-0.504
		c-0.428,0-0.771,0.167-1.032,0.5c-0.262,0.333-0.392,0.764-0.392,1.292s0.13,0.959,0.392,1.292c0.261,0.333,0.604,0.5,1.032,0.5
		C307.549,39.459,307.895,39.291,308.158,38.955z"/>
	<path fill="#585A5E" d="M314.442,35.847c0.427,0.477,0.64,1.084,0.64,1.82s-0.213,1.343-0.64,1.82
		c-0.427,0.478-0.971,0.716-1.632,0.716s-1.204-0.239-1.628-0.716c-0.424-0.477-0.636-1.084-0.636-1.82s0.212-1.343,0.636-1.82
		c0.424-0.478,0.967-0.716,1.628-0.716S314.016,35.37,314.442,35.847z M313.847,38.955c0.265-0.336,0.396-0.765,0.396-1.288
		c0-0.522-0.131-0.952-0.396-1.288s-0.609-0.504-1.036-0.504s-0.771,0.167-1.031,0.5c-0.262,0.333-0.393,0.764-0.393,1.292
		s0.131,0.959,0.393,1.292c0.261,0.333,0.604,0.5,1.031,0.5S313.582,39.291,313.847,38.955z"/>
	<path fill="#585A5E" d="M316.459,40.123v-4.912h0.832v4.168h2.359v0.744H316.459z"/>
	<path fill="#585A5E" d="M320.675,38.763h0.848c0.155,0.491,0.525,0.736,1.112,0.736c0.288,0,0.519-0.065,0.691-0.196
		c0.174-0.131,0.26-0.308,0.26-0.532c0-0.176-0.055-0.316-0.163-0.42c-0.109-0.104-0.292-0.185-0.548-0.244l-0.832-0.2
		c-0.816-0.192-1.225-0.632-1.225-1.32c0-0.421,0.156-0.769,0.469-1.044c0.312-0.274,0.713-0.412,1.203-0.412
		c0.518,0,0.936,0.122,1.252,0.364c0.318,0.243,0.521,0.575,0.612,0.996h-0.832c-0.155-0.438-0.495-0.656-1.024-0.656
		c-0.266,0-0.48,0.063-0.644,0.188c-0.163,0.125-0.243,0.29-0.243,0.492c0,0.325,0.215,0.539,0.647,0.64l0.856,0.2
		c0.399,0.091,0.711,0.251,0.936,0.48c0.224,0.229,0.336,0.523,0.336,0.88c0,0.454-0.162,0.815-0.488,1.084
		c-0.325,0.27-0.746,0.404-1.264,0.404c-0.523,0-0.959-0.126-1.309-0.38S320.76,39.216,320.675,38.763z"/>
</g>
<line fill="none" stroke="#A7A8AB" stroke-width="0.5" stroke-miterlimit="10" stroke-dasharray="0.5,2" x1="429.402" y1="140.341" x2="32.873" y2="140.341"/>
<line fill="none" stroke="#A7A8AB" stroke-width="0.5" stroke-miterlimit="10" stroke-dasharray="0.5,2" x1="429.402" y1="223.341" x2="32.873" y2="223.341"/>
<line fill="none" stroke="#A7A8AB" stroke-width="0.5" stroke-miterlimit="10" stroke-dasharray="0.5,2" x1="429.402" y1="359.885" x2="32.873" y2="359.885"/>
<g>
	<line fill="none" stroke="#585A5E" stroke-miterlimit="10" x1="289.957" y1="400.539" x2="289.957" y2="390.859"/>
	<polygon fill="#585A5E" points="292.948,399.663 289.956,404.844 286.966,399.663 	"/>
</g>
<line fill="none" stroke="#585A5E" stroke-miterlimit="10" x1="100.536" y1="380.62" x2="164.337" y2="380.62"/>
<rect x="150.477" y="370.381" fill="#FFFFFF" stroke="#A7A8AB" stroke-width="0.5027" stroke-miterlimit="10" width="278.387" height="20.738"/>
<g>
	<g>
		<path fill="#585A5E" d="M256.357,380.423c0.264,0.084,0.479,0.244,0.647,0.481c0.168,0.237,0.252,0.499,0.252,0.787
			c0,0.511-0.167,0.901-0.499,1.175c-0.334,0.273-0.791,0.409-1.373,0.409h-2.115v-5.525h1.936c0.588,0,1.047,0.129,1.377,0.387
			s0.494,0.63,0.494,1.116c0,0.288-0.066,0.537-0.202,0.747C256.739,380.21,256.566,380.351,256.357,380.423z M254.179,380.072
			h1.017c0.654,0,0.981-0.255,0.981-0.765c0-0.498-0.327-0.747-0.981-0.747h-1.017V380.072z M254.179,380.846v1.62h1.188
			c0.312,0,0.551-0.072,0.72-0.216c0.167-0.145,0.252-0.343,0.252-0.595s-0.085-0.449-0.252-0.594
			c-0.169-0.144-0.408-0.216-0.72-0.216H254.179z"/>
		<path fill="#585A5E" d="M260.406,377.75h0.9l2.124,5.525h-0.954l-0.566-1.529h-2.115l-0.567,1.529h-0.944L260.406,377.75z
			 M260.848,378.893l-0.756,2.043h1.512L260.848,378.893z"/>
		<path fill="#585A5E" d="M264.844,383.276v-5.525h0.936v4.688h2.655v0.837H264.844z"/>
		<path fill="#585A5E" d="M270.019,383.276v-5.525h0.937v4.688h2.654v0.837H270.019z"/>
		<path fill="#585A5E" d="M275.193,377.75h3.609v0.827h-2.691v1.458h2.439v0.819h-2.439v1.584h2.691v0.837h-3.609V377.75z"/>
		<path fill="#585A5E" d="M282.051,381.035h-0.666v2.241h-0.936v-5.525h2.133c0.582,0,1.041,0.143,1.377,0.427
			c0.336,0.285,0.504,0.695,0.504,1.229c0,0.456-0.124,0.818-0.373,1.085s-0.596,0.437-1.039,0.509l1.602,2.276h-1.062
			L282.051,381.035z M281.385,378.56v1.692h1.18c0.307,0,0.545-0.077,0.715-0.229c0.172-0.153,0.258-0.358,0.258-0.617
			c0-0.258-0.086-0.463-0.258-0.616c-0.17-0.153-0.408-0.229-0.715-0.229H281.385z"/>
		<path fill="#585A5E" d="M287.01,377.75v5.525h-0.936v-5.525H287.01z"/>
		<path fill="#585A5E" d="M293.311,377.75v5.525h-0.721l-2.825-4.022v4.022h-0.9v-5.525h0.882l2.664,3.834v-3.834H293.311z"/>
		<path fill="#585A5E" d="M296.856,377.75h0.899l2.125,5.525h-0.955l-0.566-1.529h-2.115l-0.566,1.529h-0.945L296.856,377.75z
			 M297.297,378.893l-0.756,2.043h1.512L297.297,378.893z"/>
		<path fill="#585A5E" d="M306.055,381.215h-1.197v2.061h-0.937v-5.525h2.134c0.582,0,1.042,0.149,1.381,0.449
			c0.339,0.301,0.508,0.729,0.508,1.287c0,0.553-0.169,0.979-0.508,1.278S306.637,381.215,306.055,381.215z M307.018,379.487
			c0-0.281-0.084-0.507-0.252-0.675s-0.412-0.252-0.729-0.252h-1.179v1.845h1.179c0.312,0,0.554-0.084,0.725-0.252
			S307.018,379.763,307.018,379.487z"/>
		<path fill="#585A5E" d="M313.178,382.777c-0.398,0.393-0.938,0.589-1.615,0.589s-1.217-0.196-1.615-0.589
			c-0.4-0.394-0.6-0.962-0.6-1.706v-3.32h0.937v3.222c0,1.038,0.426,1.557,1.278,1.557c0.852,0,1.277-0.519,1.277-1.557v-3.222
			h0.937v3.33C313.776,381.818,313.576,382.383,313.178,382.777z"/>
		<path fill="#585A5E" d="M315.09,381.747h0.954c0.175,0.552,0.591,0.827,1.251,0.827c0.324,0,0.584-0.073,0.779-0.22
			c0.194-0.147,0.292-0.347,0.292-0.599c0-0.198-0.062-0.355-0.185-0.473s-0.328-0.209-0.617-0.274l-0.936-0.226
			c-0.918-0.216-1.377-0.711-1.377-1.484c0-0.475,0.176-0.865,0.527-1.175c0.351-0.309,0.802-0.464,1.354-0.464
			c0.582,0,1.052,0.137,1.408,0.41c0.357,0.272,0.587,0.646,0.689,1.12h-0.937c-0.174-0.492-0.558-0.738-1.151-0.738
			c-0.301,0-0.542,0.071-0.725,0.212c-0.184,0.141-0.275,0.325-0.275,0.554c0,0.366,0.244,0.605,0.729,0.72l0.963,0.226
			c0.45,0.102,0.802,0.281,1.054,0.539c0.252,0.259,0.377,0.589,0.377,0.99c0,0.511-0.183,0.917-0.549,1.22
			c-0.365,0.303-0.84,0.454-1.422,0.454c-0.588,0-1.078-0.142-1.471-0.427C315.431,382.654,315.186,382.256,315.09,381.747z"/>
		<path fill="#585A5E" d="M324.521,377.75h0.937v5.525h-0.937v-2.421h-2.781v2.421h-0.936v-5.525h0.936v2.276h2.781V377.75z"/>
	</g>
</g>
<rect x="150.226" y="411.843" fill="#3AD1CA" width="278.891" height="21.238"/>
<g>
	<path fill="#FFFFFF" d="M213.123,422.347c0.264,0.084,0.479,0.244,0.648,0.481c0.168,0.237,0.252,0.499,0.252,0.787
		c0,0.511-0.167,0.901-0.5,1.175s-0.791,0.409-1.373,0.409h-2.115v-5.525h1.936c0.588,0,1.047,0.129,1.377,0.387
		s0.495,0.63,0.495,1.116c0,0.288-0.067,0.537-0.202,0.747S213.333,422.275,213.123,422.347z M210.945,421.996h1.017
		c0.653,0,0.981-0.255,0.981-0.765c0-0.498-0.328-0.747-0.981-0.747h-1.017V421.996z M210.945,422.77v1.62h1.188
		c0.312,0,0.552-0.072,0.721-0.216c0.167-0.145,0.252-0.343,0.252-0.595s-0.085-0.449-0.252-0.594
		c-0.169-0.144-0.408-0.216-0.721-0.216H210.945z"/>
	<path fill="#FFFFFF" d="M219.364,424.701c-0.399,0.393-0.938,0.589-1.616,0.589c-0.678,0-1.216-0.196-1.615-0.589
		c-0.398-0.394-0.598-0.962-0.598-1.706v-3.32h0.936v3.222c0,1.038,0.426,1.557,1.277,1.557c0.853,0,1.279-0.519,1.279-1.557v-3.222
		h0.936v3.33C219.963,423.742,219.764,424.307,219.364,424.701z"/>
	<path fill="#FFFFFF" d="M222.662,419.674v5.525h-0.936v-5.525H222.662z"/>
	<path fill="#FFFFFF" d="M224.517,425.2v-5.525h0.937v4.688h2.654v0.837H224.517z"/>
	<path fill="#FFFFFF" d="M229.691,425.2v-5.525h1.863c0.816,0,1.467,0.25,1.953,0.751s0.729,1.172,0.729,2.012
		s-0.242,1.511-0.729,2.012s-1.137,0.751-1.953,0.751H229.691z M230.627,424.363h0.892c0.569,0,1.009-0.171,1.318-0.513
		s0.464-0.813,0.464-1.413s-0.154-1.072-0.464-1.418c-0.31-0.345-0.749-0.518-1.318-0.518h-0.892V424.363z"/>
	<path fill="#FFFFFF" d="M238.412,425.2v-5.525h0.936v4.688h2.656v0.837H238.412z"/>
	<path fill="#FFFFFF" d="M247.674,420.389c0.479,0.537,0.719,1.22,0.719,2.048s-0.24,1.511-0.719,2.048
		c-0.48,0.537-1.093,0.805-1.837,0.805c-0.743,0-1.354-0.268-1.831-0.805s-0.716-1.22-0.716-2.048s0.239-1.511,0.716-2.048
		c0.477-0.536,1.088-0.806,1.831-0.806C246.581,419.583,247.193,419.853,247.674,420.389z M247.002,423.886
		c0.298-0.378,0.446-0.861,0.446-1.449s-0.148-1.071-0.446-1.449c-0.297-0.378-0.686-0.566-1.165-0.566s-0.866,0.188-1.161,0.562
		c-0.294,0.375-0.441,0.859-0.441,1.453s0.147,1.078,0.441,1.453c0.295,0.375,0.682,0.562,1.161,0.562
		S246.705,424.264,247.002,423.886z"/>
	<path fill="#FFFFFF" d="M250.369,424.494c-0.477-0.531-0.716-1.217-0.716-2.057s0.239-1.525,0.716-2.057s1.075-0.797,1.795-0.797
		c0.612,0,1.113,0.164,1.504,0.491c0.389,0.327,0.639,0.772,0.746,1.336h-0.918c-0.24-0.653-0.684-0.98-1.332-0.98
		c-0.48,0-0.861,0.188-1.143,0.562c-0.282,0.375-0.424,0.856-0.424,1.444s0.142,1.069,0.424,1.444
		c0.281,0.375,0.662,0.562,1.143,0.562c0.648,0,1.092-0.33,1.332-0.99h0.918c-0.107,0.57-0.357,1.019-0.746,1.346
		c-0.391,0.327-0.892,0.49-1.504,0.49C251.444,425.29,250.846,425.025,250.369,424.494z"/>
	<path fill="#FFFFFF" d="M256.889,419.674v2.646l2.295-2.646h1.18l-2.232,2.511l2.312,3.015h-1.17l-1.817-2.367l-0.567,0.648v1.719
		h-0.936v-5.525H256.889z"/>
	<path fill="#FFFFFF" d="M266.132,419.674h0.899l2.125,5.525h-0.955l-0.566-1.529h-2.115l-0.566,1.529h-0.945L266.132,419.674z
		 M266.572,420.817l-0.756,2.043h1.512L266.572,420.817z"/>
	<path fill="#FFFFFF" d="M275.023,419.674v5.525h-0.72l-2.825-4.022v4.022h-0.9v-5.525h0.882l2.664,3.834v-3.834H275.023z"/>
	<path fill="#FFFFFF" d="M276.877,425.2v-5.525h1.863c0.816,0,1.467,0.25,1.953,0.751s0.729,1.172,0.729,2.012
		s-0.243,1.511-0.729,2.012s-1.137,0.751-1.953,0.751H276.877z M277.813,424.363h0.892c0.569,0,1.009-0.171,1.318-0.513
		c0.309-0.342,0.463-0.813,0.463-1.413s-0.154-1.072-0.463-1.418c-0.31-0.345-0.749-0.518-1.318-0.518h-0.892V424.363z"/>
	<path fill="#FFFFFF" d="M288.686,422.347c0.264,0.084,0.479,0.244,0.648,0.481c0.168,0.237,0.252,0.499,0.252,0.787
		c0,0.511-0.167,0.901-0.5,1.175s-0.791,0.409-1.373,0.409h-2.115v-5.525h1.936c0.588,0,1.047,0.129,1.377,0.387
		s0.495,0.63,0.495,1.116c0,0.288-0.067,0.537-0.202,0.747S288.896,422.275,288.686,422.347z M286.508,421.996h1.017
		c0.653,0,0.981-0.255,0.981-0.765c0-0.498-0.328-0.747-0.981-0.747h-1.017V421.996z M286.508,422.77v1.62h1.188
		c0.312,0,0.552-0.072,0.721-0.216c0.167-0.145,0.252-0.343,0.252-0.595s-0.085-0.449-0.252-0.594
		c-0.169-0.144-0.408-0.216-0.721-0.216H286.508z"/>
	<path fill="#FFFFFF" d="M292.123,419.674v5.525h-0.936v-5.525H292.123z"/>
	<path fill="#FFFFFF" d="M293.977,425.2v-5.525h0.937v4.688h2.655v0.837H293.977z"/>
	<path fill="#FFFFFF" d="M299.152,425.2v-5.525h0.936v4.688h2.656v0.837H299.152z"/>
	<path fill="#FFFFFF" d="M311.032,420.389c0.479,0.537,0.72,1.22,0.72,2.048s-0.24,1.511-0.72,2.048
		c-0.48,0.537-1.093,0.805-1.837,0.805c-0.743,0-1.354-0.268-1.831-0.805c-0.477-0.537-0.716-1.22-0.716-2.048
		s0.239-1.511,0.716-2.048c0.478-0.536,1.088-0.806,1.831-0.806C309.939,419.583,310.552,419.853,311.032,420.389z M310.361,423.886
		c0.297-0.378,0.445-0.861,0.445-1.449s-0.148-1.071-0.445-1.449s-0.686-0.566-1.166-0.566c-0.479,0-0.866,0.188-1.16,0.562
		c-0.295,0.375-0.441,0.859-0.441,1.453s0.146,1.078,0.441,1.453c0.294,0.375,0.681,0.562,1.16,0.562
		C309.676,424.453,310.064,424.264,310.361,423.886z"/>
	<path fill="#FFFFFF" d="M314.245,425.2h-0.937v-5.525h3.529v0.827h-2.593v1.639h2.421v0.818h-2.421V425.2z"/>
	<path fill="#FFFFFF" d="M324.091,425.2h-0.666l-1.521-3.843v3.843h-0.892v-5.525h1.071l1.684,4.248l1.664-4.248h1.045v5.525h-0.9
		v-3.843L324.091,425.2z"/>
	<path fill="#FFFFFF" d="M330.021,419.674h0.9l2.124,5.525h-0.954l-0.566-1.529h-2.115l-0.567,1.529h-0.944L330.021,419.674z
		 M330.463,420.817l-0.756,2.043h1.512L330.463,420.817z"/>
	<path fill="#FFFFFF" d="M334.126,420.501v-0.827h4.608v0.827h-1.836v4.698h-0.937v-4.698H334.126z"/>
	<path fill="#FFFFFF" d="M340.246,419.674h3.609v0.827h-2.691v1.458h2.439v0.819h-2.439v1.584h2.691v0.837h-3.609V419.674z"/>
	<path fill="#FFFFFF" d="M347.104,422.958h-0.666v2.241h-0.936v-5.525h2.133c0.582,0,1.041,0.143,1.377,0.427
		c0.336,0.285,0.504,0.695,0.504,1.229c0,0.456-0.125,0.818-0.373,1.085c-0.25,0.267-0.596,0.437-1.04,0.509l1.603,2.276h-1.062
		L347.104,422.958z M346.438,420.484v1.692h1.18c0.306,0,0.544-0.077,0.715-0.229c0.171-0.153,0.257-0.358,0.257-0.617
		c0-0.258-0.086-0.463-0.257-0.616s-0.409-0.229-0.715-0.229H346.438z"/>
	<path fill="#FFFFFF" d="M352.062,419.674v5.525h-0.936v-5.525H352.062z"/>
	<path fill="#FFFFFF" d="M355.609,419.674h0.899l2.124,5.525h-0.954l-0.567-1.529h-2.115l-0.566,1.529h-0.945L355.609,419.674z
		 M356.05,420.817l-0.757,2.043h1.513L356.05,420.817z"/>
	<path fill="#FFFFFF" d="M360.055,425.2v-5.525h0.936v4.688h2.656v0.837H360.055z"/>
	<path fill="#FFFFFF" d="M364.798,423.67h0.954c0.174,0.552,0.591,0.827,1.25,0.827c0.324,0,0.584-0.073,0.779-0.22
		c0.195-0.147,0.293-0.347,0.293-0.599c0-0.198-0.062-0.355-0.186-0.473s-0.328-0.209-0.616-0.274l-0.936-0.226
		c-0.919-0.216-1.378-0.711-1.378-1.484c0-0.475,0.176-0.865,0.527-1.175c0.352-0.309,0.803-0.464,1.354-0.464
		c0.581,0,1.052,0.137,1.408,0.41c0.356,0.272,0.587,0.646,0.688,1.12h-0.936c-0.174-0.492-0.559-0.738-1.152-0.738
		c-0.3,0-0.541,0.071-0.725,0.212s-0.274,0.325-0.274,0.554c0,0.366,0.243,0.605,0.729,0.72l0.963,0.226
		c0.449,0.102,0.801,0.281,1.053,0.539c0.252,0.259,0.378,0.589,0.378,0.99c0,0.511-0.183,0.917-0.549,1.22
		s-0.841,0.454-1.423,0.454c-0.588,0-1.078-0.142-1.471-0.427S364.894,424.18,364.798,423.67z"/>
</g>
<rect x="32.873" y="370.518" fill="#FFFFFF" stroke="#A7A8AB" stroke-width="0.6836" stroke-miterlimit="10" width="97.943" height="46.992"/>
<g>
	<path fill="#585A5E" d="M56.883,386.58H56.14v2.499h-1.044v-6.161h2.379c0.648,0,1.16,0.158,1.535,0.477
		c0.375,0.317,0.562,0.773,0.562,1.369c0,0.509-0.14,0.912-0.417,1.209c-0.278,0.299-0.664,0.487-1.159,0.567l1.787,2.539h-1.186
		L56.883,386.58z M56.14,383.82v1.887h1.314c0.341,0,0.607-0.085,0.798-0.256c0.191-0.17,0.286-0.399,0.286-0.688
		c0-0.287-0.095-0.517-0.286-0.688c-0.19-0.17-0.457-0.256-0.798-0.256H56.14z"/>
	<path fill="#585A5E" d="M61.368,382.917h4.024v0.923h-3.001v1.626h2.72v0.912h-2.72v1.768h3.001v0.933h-4.024V382.917z"/>
	<path fill="#585A5E" d="M71.424,386.791h-1.346v-0.893h2.339v0.48c0,0.844-0.245,1.521-0.737,2.033s-1.119,0.768-1.882,0.768
		c-0.837,0-1.528-0.297-2.077-0.889s-0.823-1.355-0.823-2.293c0-0.937,0.272-1.701,0.817-2.293c0.546-0.592,1.227-0.889,2.043-0.889
		c0.689,0,1.252,0.182,1.691,0.543c0.438,0.361,0.717,0.855,0.838,1.484h-1.044c-0.134-0.354-0.316-0.623-0.548-0.808
		c-0.23-0.184-0.543-0.276-0.938-0.276c-0.542,0-0.979,0.21-1.31,0.628s-0.497,0.955-0.497,1.61c0,0.662,0.168,1.205,0.502,1.626
		s0.783,0.632,1.345,0.632c0.455,0,0.823-0.132,1.104-0.396C71.183,387.595,71.356,387.239,71.424,386.791z"/>
	<path fill="#585A5E" d="M75.197,382.917v6.161h-1.044v-6.161H75.197z"/>
	<path fill="#585A5E" d="M76.782,387.373h1.063c0.194,0.615,0.659,0.924,1.395,0.924c0.361,0,0.651-0.082,0.869-0.246
		c0.217-0.164,0.326-0.387,0.326-0.668c0-0.221-0.068-0.396-0.206-0.526c-0.138-0.131-0.366-0.232-0.688-0.306l-1.044-0.252
		c-1.023-0.24-1.535-0.793-1.535-1.655c0-0.528,0.195-0.965,0.587-1.31s0.896-0.518,1.511-0.518c0.648,0,1.172,0.152,1.57,0.457
		s0.654,0.721,0.768,1.25h-1.043c-0.195-0.549-0.623-0.823-1.285-0.823c-0.334,0-0.604,0.079-0.808,0.235
		c-0.204,0.158-0.306,0.363-0.306,0.617c0,0.408,0.271,0.676,0.812,0.803l1.074,0.252c0.501,0.113,0.893,0.314,1.174,0.602
		s0.421,0.656,0.421,1.104c0,0.569-0.204,1.022-0.612,1.36s-0.937,0.507-1.586,0.507c-0.655,0-1.202-0.159-1.641-0.477
		C77.162,388.384,76.889,387.941,76.782,387.373z"/>
	<path fill="#585A5E" d="M82.684,383.84v-0.923h5.137v0.923h-2.047v5.238H84.73v-5.238H82.684z"/>
	<path fill="#585A5E" d="M91.293,386.58h-0.742v2.499h-1.043v-6.161h2.378c0.648,0,1.161,0.158,1.535,0.477
		c0.374,0.317,0.562,0.773,0.562,1.369c0,0.509-0.139,0.912-0.416,1.209c-0.277,0.299-0.664,0.487-1.159,0.567l1.786,2.539H93.01
		L91.293,386.58z M90.551,383.82v1.887h1.314c0.342,0,0.607-0.085,0.798-0.256c0.19-0.17,0.286-0.399,0.286-0.688
		c0-0.287-0.096-0.517-0.286-0.688c-0.19-0.17-0.456-0.256-0.798-0.256H90.551z"/>
	<path fill="#585A5E" d="M96.822,382.917v6.161h-1.043v-6.161H96.822z"/>
	<path fill="#585A5E" d="M98.891,382.917h4.023v0.923h-3v1.626h2.719v0.912h-2.719v1.768h3v0.933h-4.023V382.917z"/>
	<path fill="#585A5E" d="M104.269,387.373h1.063c0.194,0.615,0.659,0.924,1.395,0.924c0.361,0,0.651-0.082,0.869-0.246
		c0.217-0.164,0.326-0.387,0.326-0.668c0-0.221-0.068-0.396-0.206-0.526c-0.138-0.131-0.366-0.232-0.688-0.306l-1.044-0.252
		c-1.023-0.24-1.535-0.793-1.535-1.655c0-0.528,0.195-0.965,0.587-1.31s0.896-0.518,1.511-0.518c0.648,0,1.172,0.152,1.57,0.457
		s0.654,0.721,0.768,1.25h-1.043c-0.195-0.549-0.623-0.823-1.285-0.823c-0.334,0-0.604,0.079-0.808,0.235
		c-0.204,0.158-0.306,0.363-0.306,0.617c0,0.408,0.271,0.676,0.812,0.803l1.074,0.252c0.501,0.113,0.893,0.314,1.174,0.602
		s0.421,0.656,0.421,1.104c0,0.569-0.204,1.022-0.612,1.36s-0.937,0.507-1.586,0.507c-0.655,0-1.202-0.159-1.641-0.477
		C104.648,388.384,104.375,387.941,104.269,387.373z"/>
</g>
<line fill="none" stroke="#585A5E" stroke-miterlimit="10" x1="100.536" y1="160.863" x2="164.337" y2="160.863"/>
<rect x="150.476" y="150.624" fill="#FFFFFF" stroke="#A7A8AB" stroke-width="0.4995" stroke-miterlimit="10" width="278.391" height="20.478"/>
<g>
	<path fill="#585A5E" d="M255.49,160.664c0.264,0.084,0.479,0.245,0.647,0.481c0.168,0.237,0.252,0.5,0.252,0.788
		c0,0.51-0.167,0.901-0.499,1.174c-0.334,0.273-0.791,0.41-1.373,0.41h-2.115v-5.526h1.936c0.588,0,1.047,0.129,1.377,0.387
		c0.33,0.258,0.494,0.63,0.494,1.116c0,0.288-0.066,0.537-0.202,0.747C255.872,160.451,255.699,160.592,255.49,160.664z
		 M253.312,160.312h1.017c0.654,0,0.981-0.255,0.981-0.765c0-0.498-0.327-0.747-0.981-0.747h-1.017V160.312z M253.312,161.086v1.62
		h1.188c0.312,0,0.551-0.072,0.72-0.216c0.167-0.144,0.252-0.342,0.252-0.594s-0.085-0.45-0.252-0.594
		c-0.169-0.144-0.408-0.216-0.72-0.216H253.312z"/>
	<path fill="#585A5E" d="M259.539,157.991h0.9l2.124,5.526h-0.954l-0.566-1.53h-2.115l-0.567,1.53h-0.944L259.539,157.991z
		 M259.98,159.134l-0.756,2.043h1.512L259.98,159.134z"/>
	<path fill="#585A5E" d="M263.977,163.517v-5.526h0.936v4.689h2.655v0.837H263.977z"/>
	<path fill="#585A5E" d="M269.151,163.517v-5.526h0.937v4.689h2.654v0.837H269.151z"/>
	<path fill="#585A5E" d="M274.326,157.991h3.609v0.828h-2.691v1.458h2.439v0.819h-2.439v1.584h2.691v0.837h-3.609V157.991z"/>
	<path fill="#585A5E" d="M281.184,161.275h-0.666v2.241h-0.936v-5.526h2.133c0.582,0,1.041,0.143,1.377,0.427
		c0.336,0.285,0.504,0.695,0.504,1.229c0,0.456-0.124,0.818-0.373,1.084c-0.249,0.267-0.596,0.437-1.039,0.509l1.602,2.277h-1.062
		L281.184,161.275z M280.518,158.801v1.692h1.18c0.307,0,0.545-0.077,0.715-0.229c0.172-0.153,0.258-0.358,0.258-0.617
		c0-0.258-0.086-0.463-0.258-0.616c-0.17-0.153-0.408-0.229-0.715-0.229H280.518z"/>
	<path fill="#585A5E" d="M286.143,157.991v5.526h-0.936v-5.526H286.143z"/>
	<path fill="#585A5E" d="M292.443,157.991v5.526h-0.721l-2.825-4.023v4.023h-0.9v-5.526h0.882l2.664,3.834v-3.834H292.443z"/>
	<path fill="#585A5E" d="M295.989,157.991h0.899l2.125,5.526h-0.955l-0.566-1.53h-2.115l-0.566,1.53h-0.945L295.989,157.991z
		 M296.43,159.134l-0.756,2.043h1.512L296.43,159.134z"/>
	<path fill="#585A5E" d="M306.141,160.664c0.264,0.084,0.48,0.245,0.648,0.481c0.168,0.237,0.252,0.5,0.252,0.788
		c0,0.51-0.166,0.901-0.5,1.174c-0.332,0.273-0.79,0.41-1.372,0.41h-2.115v-5.526h1.935c0.588,0,1.047,0.129,1.377,0.387
		c0.33,0.258,0.496,0.63,0.496,1.116c0,0.288-0.068,0.537-0.203,0.747S306.352,160.592,306.141,160.664z M303.963,160.312h1.018
		c0.653,0,0.98-0.255,0.98-0.765c0-0.498-0.327-0.747-0.98-0.747h-1.018V160.312z M303.963,161.086v1.62h1.188
		c0.312,0,0.553-0.072,0.721-0.216s0.252-0.342,0.252-0.594s-0.084-0.45-0.252-0.594s-0.408-0.216-0.721-0.216H303.963z"/>
	<path fill="#585A5E" d="M312.364,163.017c-0.399,0.393-0.938,0.589-1.616,0.589c-0.678,0-1.216-0.196-1.615-0.589
		c-0.398-0.393-0.598-0.961-0.598-1.706v-3.321h0.936v3.222c0,1.038,0.426,1.557,1.277,1.557c0.853,0,1.279-0.519,1.279-1.557
		v-3.222h0.936v3.33C312.963,162.059,312.764,162.624,312.364,163.017z"/>
	<path fill="#585A5E" d="M315.662,157.991v5.526h-0.936v-5.526H315.662z"/>
	<path fill="#585A5E" d="M317.517,163.517v-5.526h0.937v4.689h2.654v0.837H317.517z"/>
	<path fill="#585A5E" d="M322.691,163.517v-5.526h1.863c0.816,0,1.467,0.25,1.953,0.751s0.729,1.171,0.729,2.011
		c0,0.84-0.242,1.511-0.729,2.012s-1.137,0.751-1.953,0.751H322.691z M323.627,162.68h0.892c0.569,0,1.009-0.171,1.318-0.513
		c0.31-0.342,0.464-0.813,0.464-1.413c0-0.6-0.154-1.072-0.464-1.417c-0.31-0.345-0.749-0.518-1.318-0.518h-0.892V162.68z"/>
</g>
<rect x="150.226" y="191.911" fill="#3AD1CA" width="278.891" height="21.239"/>
<g>
	<path fill="#FFFFFF" d="M206.867,205.147c-0.117-0.12-0.176-0.267-0.176-0.441c0-0.174,0.059-0.321,0.176-0.441
		s0.263-0.18,0.437-0.18s0.319,0.06,0.437,0.18s0.176,0.267,0.176,0.441c0,0.174-0.059,0.321-0.176,0.441
		c-0.117,0.12-0.263,0.18-0.437,0.18S206.984,205.267,206.867,205.147z"/>
	<path fill="#FFFFFF" d="M212.533,202.411c0.264,0.084,0.479,0.245,0.648,0.481c0.168,0.237,0.252,0.5,0.252,0.788
		c0,0.51-0.167,0.901-0.5,1.174c-0.333,0.273-0.791,0.41-1.373,0.41h-2.115v-5.526h1.936c0.588,0,1.047,0.129,1.377,0.387
		c0.33,0.258,0.495,0.63,0.495,1.116c0,0.288-0.067,0.537-0.202,0.747S212.743,202.339,212.533,202.411z M210.355,202.06h1.017
		c0.653,0,0.981-0.255,0.981-0.765c0-0.498-0.328-0.747-0.981-0.747h-1.017V202.06z M210.355,202.834v1.62h1.188
		c0.312,0,0.552-0.072,0.721-0.216c0.167-0.144,0.252-0.342,0.252-0.594s-0.085-0.45-0.252-0.594
		c-0.169-0.144-0.408-0.216-0.721-0.216H210.355z"/>
	<path fill="#FFFFFF" d="M216.592,199.738h0.9l2.123,5.526h-0.953l-0.567-1.53h-2.115l-0.567,1.53h-0.944L216.592,199.738z
		 M217.033,200.881l-0.757,2.043h1.513L217.033,200.881z"/>
	<path fill="#FFFFFF" d="M221.037,205.264v-5.526h0.937v4.689h2.655v0.837H221.037z"/>
	<path fill="#FFFFFF" d="M230.064,200.454c0.48,0.537,0.721,1.22,0.721,2.047c0,0.828-0.24,1.511-0.721,2.048
		s-1.092,0.805-1.836,0.805s-1.354-0.268-1.832-0.805c-0.477-0.537-0.715-1.22-0.715-2.048c0-0.828,0.238-1.51,0.715-2.047
		c0.478-0.537,1.088-0.806,1.832-0.806S229.584,199.917,230.064,200.454z M229.395,203.95c0.297-0.378,0.445-0.861,0.445-1.449
		c0-0.588-0.148-1.071-0.445-1.449s-0.686-0.567-1.166-0.567s-0.867,0.188-1.16,0.562c-0.295,0.375-0.441,0.859-0.441,1.453
		c0,0.594,0.146,1.079,0.441,1.454c0.293,0.375,0.68,0.562,1.16,0.562S229.098,204.328,229.395,203.95z"/>
	<path fill="#FFFFFF" d="M231.595,206.281l0.647-0.999c-0.149-0.024-0.271-0.087-0.363-0.189c-0.094-0.102-0.141-0.231-0.141-0.387
		c0-0.174,0.059-0.318,0.176-0.432c0.117-0.114,0.263-0.171,0.437-0.171c0.181,0,0.327,0.059,0.44,0.176
		c0.115,0.117,0.172,0.283,0.172,0.5c0,0.222-0.088,0.462-0.262,0.72l-0.521,0.783H231.595z"/>
	<path fill="#FFFFFF" d="M236.963,205.147c-0.117-0.12-0.176-0.267-0.176-0.441c0-0.174,0.059-0.321,0.176-0.441
		s0.263-0.18,0.437-0.18s0.319,0.06,0.437,0.18s0.176,0.267,0.176,0.441c0,0.174-0.059,0.321-0.176,0.441
		c-0.117,0.12-0.263,0.18-0.437,0.18S237.08,205.267,236.963,205.147z"/>
	<path fill="#FFFFFF" d="M242.629,202.411c0.264,0.084,0.479,0.245,0.648,0.481c0.168,0.237,0.252,0.5,0.252,0.788
		c0,0.51-0.167,0.901-0.5,1.174c-0.333,0.273-0.791,0.41-1.373,0.41h-2.115v-5.526h1.936c0.588,0,1.047,0.129,1.377,0.387
		c0.33,0.258,0.495,0.63,0.495,1.116c0,0.288-0.067,0.537-0.202,0.747S242.839,202.339,242.629,202.411z M240.451,202.06h1.017
		c0.653,0,0.981-0.255,0.981-0.765c0-0.498-0.328-0.747-0.981-0.747h-1.017V202.06z M240.451,202.834v1.62h1.188
		c0.312,0,0.552-0.072,0.721-0.216c0.167-0.144,0.252-0.342,0.252-0.594s-0.085-0.45-0.252-0.594
		c-0.169-0.144-0.408-0.216-0.721-0.216H240.451z"/>
	<path fill="#FFFFFF" d="M246.688,199.738h0.9l2.123,5.526h-0.953l-0.567-1.53h-2.115l-0.567,1.53h-0.944L246.688,199.738z
		 M247.129,200.881l-0.757,2.043h1.513L247.129,200.881z"/>
	<path fill="#FFFFFF" d="M251.124,205.264v-5.526h0.937v4.689h2.654v0.837H251.124z"/>
	<path fill="#FFFFFF" d="M260.664,199.738l-1.871,2.691l1.961,2.835h-1.07l-1.432-2.079l-1.431,2.079h-1.044l1.953-2.817
		l-1.863-2.709h1.071l1.332,1.953l1.358-1.953H260.664z"/>
	<path fill="#FFFFFF" d="M267.793,202.411c0.264,0.084,0.479,0.245,0.647,0.481c0.168,0.237,0.252,0.5,0.252,0.788
		c0,0.51-0.167,0.901-0.499,1.174c-0.334,0.273-0.791,0.41-1.373,0.41h-2.115v-5.526h1.936c0.588,0,1.047,0.129,1.377,0.387
		c0.33,0.258,0.494,0.63,0.494,1.116c0,0.288-0.066,0.537-0.202,0.747C268.175,202.198,268.002,202.339,267.793,202.411z
		 M265.614,202.06h1.017c0.654,0,0.981-0.255,0.981-0.765c0-0.498-0.327-0.747-0.981-0.747h-1.017V202.06z M265.614,202.834v1.62
		h1.188c0.312,0,0.551-0.072,0.72-0.216c0.167-0.144,0.252-0.342,0.252-0.594s-0.085-0.45-0.252-0.594
		c-0.169-0.144-0.408-0.216-0.72-0.216H265.614z"/>
	<path fill="#FFFFFF" d="M272.067,202.213l1.458-2.475h0.99l-2.008,3.321v2.205h-0.927v-2.205l-1.998-3.321h1.017L272.067,202.213z"
		/>
	<path fill="#FFFFFF" d="M275.568,200.566v-0.828h4.607v0.828h-1.836v4.698h-0.936v-4.698H275.568z"/>
	<path fill="#FFFFFF" d="M281.688,199.738h3.609v0.828h-2.691v1.458h2.439v0.819h-2.439v1.584h2.691v0.837h-3.609V199.738z"/>
	<path fill="#FFFFFF" d="M287.362,204.558c-0.477-0.531-0.716-1.216-0.716-2.057c0-0.84,0.239-1.525,0.716-2.056
		c0.478-0.531,1.075-0.797,1.796-0.797c0.611,0,1.113,0.164,1.503,0.491s0.639,0.772,0.747,1.336h-0.918
		c-0.24-0.654-0.684-0.981-1.332-0.981c-0.48,0-0.861,0.188-1.143,0.562c-0.283,0.375-0.424,0.856-0.424,1.444
		c0,0.588,0.141,1.07,0.424,1.445c0.281,0.375,0.662,0.562,1.143,0.562c0.648,0,1.092-0.33,1.332-0.99h0.918
		c-0.108,0.57-0.357,1.019-0.747,1.346s-0.892,0.49-1.503,0.49C288.438,205.354,287.84,205.089,287.362,204.558z"/>
	<path fill="#FFFFFF" d="M297.023,200.454c0.48,0.537,0.721,1.22,0.721,2.047c0,0.828-0.24,1.511-0.721,2.048
		s-1.092,0.805-1.836,0.805s-1.354-0.268-1.832-0.805c-0.477-0.537-0.715-1.22-0.715-2.048c0-0.828,0.238-1.51,0.715-2.047
		c0.478-0.537,1.088-0.806,1.832-0.806S296.543,199.917,297.023,200.454z M296.354,203.95c0.297-0.378,0.445-0.861,0.445-1.449
		c0-0.588-0.148-1.071-0.445-1.449s-0.686-0.567-1.166-0.567s-0.867,0.188-1.16,0.562c-0.295,0.375-0.441,0.859-0.441,1.453
		c0,0.594,0.146,1.079,0.441,1.454c0.293,0.375,0.68,0.562,1.16,0.562S296.057,204.328,296.354,203.95z"/>
	<path fill="#FFFFFF" d="M299.301,205.264v-5.526h1.863c0.816,0,1.467,0.25,1.953,0.751s0.729,1.171,0.729,2.011
		c0,0.84-0.242,1.511-0.729,2.012s-1.137,0.751-1.953,0.751H299.301z M300.236,204.427h0.892c0.569,0,1.009-0.171,1.318-0.513
		c0.31-0.342,0.464-0.813,0.464-1.413c0-0.6-0.154-1.072-0.464-1.417c-0.31-0.345-0.749-0.518-1.318-0.518h-0.892V204.427z"/>
	<path fill="#FFFFFF" d="M305.394,199.738h3.609v0.828h-2.691v1.458h2.439v0.819h-2.439v1.584h2.691v0.837h-3.609V199.738z"/>
	<path fill="#FFFFFF" d="M314.961,199.738h0.899l2.124,5.526h-0.954l-0.567-1.53h-2.115l-0.566,1.53h-0.945L314.961,199.738z
		 M315.401,200.881l-0.757,2.043h1.513L315.401,200.881z"/>
	<path fill="#FFFFFF" d="M323.844,199.738v5.526h-0.721l-2.825-4.023v4.023h-0.9v-5.526h0.882l2.664,3.834v-3.834H323.844z"/>
	<path fill="#FFFFFF" d="M325.697,205.264v-5.526h1.863c0.816,0,1.467,0.25,1.953,0.751s0.729,1.171,0.729,2.011
		c0,0.84-0.242,1.511-0.729,2.012s-1.137,0.751-1.953,0.751H325.697z M326.633,204.427h0.892c0.569,0,1.009-0.171,1.318-0.513
		c0.31-0.342,0.464-0.813,0.464-1.413c0-0.6-0.154-1.072-0.464-1.417c-0.31-0.345-0.749-0.518-1.318-0.518h-0.892V204.427z"/>
	<path fill="#FFFFFF" d="M337.506,202.411c0.264,0.084,0.479,0.245,0.647,0.481c0.168,0.237,0.252,0.5,0.252,0.788
		c0,0.51-0.167,0.901-0.499,1.174c-0.334,0.273-0.791,0.41-1.373,0.41h-2.115v-5.526h1.936c0.588,0,1.047,0.129,1.377,0.387
		c0.33,0.258,0.494,0.63,0.494,1.116c0,0.288-0.066,0.537-0.202,0.747C337.888,202.198,337.715,202.339,337.506,202.411z
		 M335.327,202.06h1.017c0.654,0,0.981-0.255,0.981-0.765c0-0.498-0.327-0.747-0.981-0.747h-1.017V202.06z M335.327,202.834v1.62
		h1.188c0.312,0,0.551-0.072,0.72-0.216c0.167-0.144,0.252-0.342,0.252-0.594s-0.085-0.45-0.252-0.594
		c-0.169-0.144-0.408-0.216-0.72-0.216H335.327z"/>
	<path fill="#FFFFFF" d="M340.934,199.738v5.526h-0.936v-5.526H340.934z"/>
	<path fill="#FFFFFF" d="M347.234,199.738v5.526h-0.721l-2.825-4.023v4.023h-0.9v-5.526h0.882l2.664,3.834v-3.834H347.234z"/>
	<path fill="#FFFFFF" d="M350.78,199.738h0.899l2.125,5.526h-0.955l-0.566-1.53h-2.115l-0.566,1.53h-0.945L350.78,199.738z
		 M351.221,200.881l-0.756,2.043h1.512L351.221,200.881z"/>
	<path fill="#FFFFFF" d="M356.818,203.023h-0.666v2.241h-0.936v-5.526h2.133c0.582,0,1.041,0.143,1.377,0.427
		c0.336,0.285,0.504,0.695,0.504,1.229c0,0.456-0.124,0.818-0.373,1.084c-0.249,0.267-0.596,0.437-1.039,0.509l1.602,2.277h-1.062
		L356.818,203.023z M356.152,200.548v1.692h1.18c0.307,0,0.545-0.077,0.715-0.229c0.172-0.153,0.258-0.358,0.258-0.617
		c0-0.258-0.086-0.463-0.258-0.616c-0.17-0.153-0.408-0.229-0.715-0.229H356.152z"/>
	<path fill="#FFFFFF" d="M361.777,199.738v5.526h-0.936v-5.526H361.777z"/>
	<path fill="#FFFFFF" d="M363.623,199.738h3.609v0.828h-2.691v1.458h2.439v0.819h-2.439v1.584h2.691v0.837h-3.609V199.738z"/>
	<path fill="#FFFFFF" d="M368.447,203.734h0.953c0.174,0.552,0.592,0.828,1.251,0.828c0.324,0,0.583-0.073,0.778-0.22
		s0.293-0.347,0.293-0.599c0-0.198-0.062-0.355-0.185-0.473c-0.123-0.117-0.329-0.208-0.616-0.274l-0.936-0.225
		c-0.919-0.216-1.378-0.711-1.378-1.485c0-0.474,0.176-0.865,0.526-1.174c0.352-0.309,0.803-0.464,1.355-0.464
		c0.581,0,1.051,0.137,1.408,0.41c0.356,0.273,0.586,0.646,0.688,1.121h-0.936c-0.174-0.492-0.558-0.738-1.152-0.738
		c-0.299,0-0.541,0.071-0.725,0.212c-0.183,0.141-0.273,0.325-0.273,0.553c0,0.366,0.242,0.606,0.729,0.72l0.963,0.225
		c0.45,0.102,0.801,0.282,1.053,0.54c0.252,0.258,0.379,0.588,0.379,0.99c0,0.51-0.184,0.917-0.549,1.22
		c-0.367,0.303-0.841,0.454-1.423,0.454c-0.588,0-1.078-0.142-1.472-0.427C368.787,204.642,368.543,204.244,368.447,203.734z"/>
</g>
<g>
	<line fill="none" stroke="#585A5E" stroke-miterlimit="10" x1="289.671" y1="180.59" x2="289.671" y2="170.91"/>
	<polygon fill="#585A5E" points="292.662,179.714 289.67,184.896 286.68,179.714 	"/>
</g>
<line fill="none" stroke="#585A5E" stroke-miterlimit="10" x1="99.904" y1="77.242" x2="163.705" y2="77.242"/>
<line fill="none" stroke="#585A5E" stroke-miterlimit="10" x1="275.599" y1="77.242" x2="302.479" y2="77.242"/>
<rect x="150.466" y="67.003" fill="#FFFFFF" stroke="#A7A8AB" stroke-width="0.4795" stroke-miterlimit="10" width="134.518" height="20.501"/>
<g>
	<path fill="#585A5E" d="M166.682,77.044c0.264,0.084,0.48,0.244,0.648,0.481s0.252,0.499,0.252,0.787
		c0,0.511-0.166,0.901-0.5,1.175c-0.332,0.273-0.79,0.409-1.372,0.409h-2.115v-5.525h1.935c0.588,0,1.047,0.129,1.377,0.387
		s0.496,0.63,0.496,1.116c0,0.288-0.068,0.537-0.203,0.747S166.893,76.972,166.682,77.044z M164.504,76.693h1.018
		c0.653,0,0.98-0.255,0.98-0.765c0-0.498-0.327-0.747-0.98-0.747h-1.018V76.693z M164.504,77.467v1.62h1.188
		c0.312,0,0.553-0.072,0.721-0.216c0.168-0.145,0.252-0.343,0.252-0.595s-0.084-0.449-0.252-0.594
		c-0.168-0.144-0.408-0.216-0.721-0.216H164.504z"/>
	<path fill="#585A5E" d="M170.732,74.372h0.899l2.124,5.525h-0.954l-0.567-1.529h-2.115l-0.566,1.529h-0.945L170.732,74.372z
		 M171.173,75.514l-0.757,2.043h1.513L171.173,75.514z"/>
	<path fill="#585A5E" d="M175.178,79.897v-5.525h0.936v4.688h2.656v0.837H175.178z"/>
	<path fill="#585A5E" d="M180.353,79.897v-5.525h0.937v4.688h2.654v0.837H180.353z"/>
	<path fill="#585A5E" d="M185.527,74.372h3.609v0.827h-2.691v1.458h2.439v0.819h-2.439v1.584h2.691v0.837h-3.609V74.372z"/>
	<path fill="#585A5E" d="M192.385,77.656h-0.666v2.241h-0.936v-5.525h2.133c0.582,0,1.041,0.143,1.377,0.427
		c0.336,0.285,0.504,0.695,0.504,1.229c0,0.456-0.124,0.818-0.373,1.085s-0.596,0.437-1.039,0.509l1.602,2.276h-1.062
		L192.385,77.656z M191.719,75.181v1.692h1.18c0.307,0,0.545-0.077,0.715-0.229c0.172-0.153,0.258-0.358,0.258-0.617
		c0-0.258-0.086-0.463-0.258-0.616c-0.17-0.153-0.408-0.229-0.715-0.229H191.719z"/>
	<path fill="#585A5E" d="M197.344,74.372v5.525h-0.936v-5.525H197.344z"/>
	<path fill="#585A5E" d="M203.645,74.372v5.525h-0.721l-2.825-4.022v4.022h-0.9v-5.525h0.882l2.664,3.834v-3.834H203.645z"/>
	<path fill="#585A5E" d="M207.19,74.372h0.899l2.125,5.525h-0.955l-0.566-1.529h-2.115l-0.566,1.529h-0.945L207.19,74.372z
		 M207.631,75.514l-0.756,2.043h1.512L207.631,75.514z"/>
	<path fill="#585A5E" d="M214.246,79.897v-5.525h0.936v4.688h2.656v0.837H214.246z"/>
	<path fill="#585A5E" d="M221.123,74.372h0.899l2.124,5.525h-0.954l-0.567-1.529h-2.115l-0.566,1.529h-0.945L221.123,74.372z
		 M221.563,75.514l-0.757,2.043h1.513L221.563,75.514z"/>
	<path fill="#585A5E" d="M230.014,74.372v5.525h-0.72l-2.825-4.022v4.022h-0.9v-5.525h0.882l2.664,3.834v-3.834H230.014z"/>
	<path fill="#585A5E" d="M235.631,77.845h-1.207v-0.801h2.098v0.432c0,0.756-0.221,1.363-0.662,1.822
		c-0.44,0.459-1.003,0.688-1.688,0.688c-0.75,0-1.371-0.265-1.862-0.796c-0.492-0.531-0.738-1.217-0.738-2.057
		s0.245-1.525,0.733-2.057c0.489-0.531,1.1-0.797,1.832-0.797c0.617,0,1.123,0.162,1.516,0.486c0.394,0.324,0.645,0.769,0.752,1.332
		h-0.936c-0.121-0.317-0.283-0.56-0.49-0.725s-0.488-0.247-0.842-0.247c-0.486,0-0.878,0.188-1.175,0.562s-0.446,0.856-0.446,1.444
		c0,0.594,0.15,1.08,0.451,1.458c0.299,0.378,0.701,0.567,1.205,0.567c0.408,0,0.738-0.119,0.99-0.355
		C235.414,78.567,235.57,78.248,235.631,77.845z"/>
	<path fill="#585A5E" d="M240.266,78.368h0.953c0.174,0.552,0.592,0.827,1.251,0.827c0.324,0,0.583-0.073,0.778-0.22
		c0.195-0.147,0.293-0.347,0.293-0.599c0-0.198-0.062-0.355-0.185-0.473s-0.329-0.209-0.616-0.274l-0.936-0.226
		c-0.919-0.216-1.378-0.711-1.378-1.484c0-0.475,0.176-0.865,0.526-1.175c0.352-0.309,0.803-0.464,1.355-0.464
		c0.581,0,1.051,0.137,1.408,0.41c0.356,0.272,0.586,0.646,0.688,1.12h-0.936c-0.174-0.492-0.558-0.738-1.152-0.738
		c-0.299,0-0.541,0.071-0.725,0.212c-0.183,0.141-0.273,0.325-0.273,0.554c0,0.366,0.242,0.605,0.729,0.72l0.963,0.226
		c0.45,0.102,0.801,0.281,1.053,0.539c0.252,0.259,0.379,0.589,0.379,0.99c0,0.511-0.184,0.917-0.549,1.22
		c-0.367,0.303-0.841,0.454-1.423,0.454c-0.588,0-1.078-0.142-1.472-0.427C240.605,79.275,240.361,78.877,240.266,78.368z"/>
	<path fill="#585A5E" d="M245.988,74.372h3.609v0.827h-2.691v1.458h2.439v0.819h-2.439v1.584h2.691v0.837h-3.609V74.372z"/>
	<path fill="#585A5E" d="M252.847,77.656h-0.666v2.241h-0.937v-5.525h2.134c0.582,0,1.041,0.143,1.377,0.427
		c0.336,0.285,0.504,0.695,0.504,1.229c0,0.456-0.124,0.818-0.374,1.085c-0.248,0.267-0.596,0.437-1.039,0.509l1.602,2.276h-1.062
		L252.847,77.656z M252.181,75.181v1.692h1.179c0.307,0,0.545-0.077,0.716-0.229c0.171-0.153,0.257-0.358,0.257-0.617
		c0-0.258-0.086-0.463-0.257-0.616s-0.409-0.229-0.716-0.229H252.181z"/>
	<path fill="#585A5E" d="M259.318,79.897h-0.892l-2.088-5.525h0.981l1.565,4.311l1.565-4.311h0.955L259.318,79.897z"/>
	<path fill="#585A5E" d="M262.828,74.372h3.609v0.827h-2.691v1.458h2.439v0.819h-2.439v1.584h2.691v0.837h-3.609V74.372z"/>
	<path fill="#585A5E" d="M269.686,77.656h-0.666v2.241h-0.936v-5.525h2.133c0.582,0,1.041,0.143,1.377,0.427
		c0.336,0.285,0.504,0.695,0.504,1.229c0,0.456-0.125,0.818-0.373,1.085c-0.25,0.267-0.596,0.437-1.04,0.509l1.603,2.276h-1.062
		L269.686,77.656z M269.02,75.181v1.692h1.18c0.306,0,0.544-0.077,0.715-0.229c0.171-0.153,0.257-0.358,0.257-0.617
		c0-0.258-0.086-0.463-0.257-0.616s-0.409-0.229-0.715-0.229H269.02z"/>
</g>
<rect x="294.359" y="67.003" fill="#FFFFFF" stroke="#A7A8AB" stroke-width="0.5133" stroke-miterlimit="10" width="134.5" height="20.45"/>
<g>
	<path fill="#585A5E" d="M316.422,77.044c0.264,0.084,0.479,0.244,0.647,0.481c0.168,0.237,0.252,0.499,0.252,0.787
		c0,0.511-0.167,0.901-0.499,1.175c-0.334,0.273-0.791,0.409-1.373,0.409h-2.115v-5.525h1.936c0.588,0,1.047,0.129,1.377,0.387
		s0.494,0.63,0.494,1.116c0,0.288-0.066,0.537-0.202,0.747C316.804,76.832,316.631,76.972,316.422,77.044z M314.243,76.693h1.017
		c0.654,0,0.981-0.255,0.981-0.765c0-0.498-0.327-0.747-0.981-0.747h-1.017V76.693z M314.243,77.467v1.62h1.188
		c0.312,0,0.551-0.072,0.72-0.216c0.167-0.145,0.252-0.343,0.252-0.595s-0.085-0.449-0.252-0.594
		c-0.169-0.144-0.408-0.216-0.72-0.216H314.243z"/>
	<path fill="#585A5E" d="M320.471,74.372h0.9l2.124,5.525h-0.954l-0.566-1.529h-2.115l-0.567,1.529h-0.944L320.471,74.372z
		 M320.912,75.514l-0.756,2.043h1.512L320.912,75.514z"/>
	<path fill="#585A5E" d="M324.908,79.897v-5.525h0.936v4.688h2.655v0.837H324.908z"/>
	<path fill="#585A5E" d="M330.083,79.897v-5.525h0.937v4.688h2.654v0.837H330.083z"/>
	<path fill="#585A5E" d="M335.258,74.372h3.609v0.827h-2.691v1.458h2.439v0.819h-2.439v1.584h2.691v0.837h-3.609V74.372z"/>
	<path fill="#585A5E" d="M342.115,77.656h-0.666v2.241h-0.936v-5.525h2.133c0.582,0,1.041,0.143,1.377,0.427
		c0.336,0.285,0.504,0.695,0.504,1.229c0,0.456-0.124,0.818-0.373,1.085s-0.596,0.437-1.039,0.509l1.602,2.276h-1.062
		L342.115,77.656z M341.449,75.181v1.692h1.18c0.307,0,0.545-0.077,0.715-0.229c0.172-0.153,0.258-0.358,0.258-0.617
		c0-0.258-0.086-0.463-0.258-0.616c-0.17-0.153-0.408-0.229-0.715-0.229H341.449z"/>
	<path fill="#585A5E" d="M347.074,74.372v5.525h-0.936v-5.525H347.074z"/>
	<path fill="#585A5E" d="M353.375,74.372v5.525h-0.721l-2.825-4.022v4.022h-0.9v-5.525h0.882l2.664,3.834v-3.834H353.375z"/>
	<path fill="#585A5E" d="M356.921,74.372h0.899l2.125,5.525h-0.955l-0.566-1.529h-2.115l-0.566,1.529h-0.945L356.921,74.372z
		 M357.361,75.514l-0.756,2.043h1.512L357.361,75.514z"/>
	<path fill="#585A5E" d="M364.404,79.191c-0.477-0.531-0.716-1.217-0.716-2.057s0.239-1.525,0.716-2.057s1.075-0.797,1.795-0.797
		c0.612,0,1.113,0.164,1.504,0.491c0.389,0.327,0.639,0.772,0.746,1.336h-0.918c-0.24-0.653-0.684-0.98-1.332-0.98
		c-0.48,0-0.861,0.188-1.143,0.562c-0.282,0.375-0.424,0.856-0.424,1.444s0.142,1.069,0.424,1.444
		c0.281,0.375,0.662,0.562,1.143,0.562c0.648,0,1.092-0.33,1.332-0.99h0.918c-0.107,0.57-0.357,1.019-0.746,1.346
		c-0.391,0.327-0.892,0.49-1.504,0.49C365.479,79.987,364.881,79.722,364.404,79.191z"/>
	<path fill="#585A5E" d="M374.074,75.086c0.48,0.537,0.721,1.22,0.721,2.048s-0.24,1.511-0.721,2.048s-1.092,0.805-1.836,0.805
		s-1.354-0.268-1.832-0.805c-0.477-0.537-0.715-1.22-0.715-2.048s0.238-1.511,0.715-2.048c0.478-0.536,1.088-0.806,1.832-0.806
		S373.594,74.55,374.074,75.086z M373.404,78.583c0.297-0.378,0.445-0.861,0.445-1.449s-0.148-1.071-0.445-1.449
		s-0.686-0.566-1.166-0.566s-0.867,0.188-1.16,0.562c-0.295,0.375-0.441,0.859-0.441,1.453s0.146,1.078,0.441,1.453
		c0.293,0.375,0.68,0.562,1.16,0.562S373.107,78.961,373.404,78.583z"/>
	<path fill="#585A5E" d="M379.43,79.897h-0.666l-1.521-3.843v3.843h-0.891v-5.525h1.07l1.684,4.248l1.664-4.248h1.045v5.525h-0.9
		v-3.843L379.43,79.897z"/>
	<path fill="#585A5E" d="M385.793,77.836h-1.197v2.061h-0.937v-5.525h2.134c0.582,0,1.042,0.149,1.381,0.449
		c0.339,0.301,0.508,0.729,0.508,1.287c0,0.553-0.169,0.979-0.508,1.278S386.375,77.836,385.793,77.836z M386.756,76.108
		c0-0.281-0.084-0.507-0.252-0.675s-0.412-0.252-0.729-0.252h-1.179v1.845h1.179c0.312,0,0.554-0.084,0.725-0.252
		S386.756,76.384,386.756,76.108z"/>
	<path fill="#585A5E" d="M393.281,75.086c0.479,0.537,0.719,1.22,0.719,2.048s-0.24,1.511-0.719,2.048
		c-0.48,0.537-1.093,0.805-1.837,0.805c-0.743,0-1.354-0.268-1.831-0.805s-0.716-1.22-0.716-2.048s0.239-1.511,0.716-2.048
		c0.477-0.536,1.088-0.806,1.831-0.806C392.188,74.281,392.801,74.55,393.281,75.086z M392.609,78.583
		c0.298-0.378,0.446-0.861,0.446-1.449s-0.148-1.071-0.446-1.449c-0.297-0.378-0.686-0.566-1.165-0.566s-0.866,0.188-1.161,0.562
		c-0.294,0.375-0.441,0.859-0.441,1.453s0.147,1.078,0.441,1.453c0.295,0.375,0.682,0.562,1.161,0.562
		S392.312,78.961,392.609,78.583z"/>
	<path fill="#585A5E" d="M395.125,78.368h0.954c0.175,0.552,0.591,0.827,1.251,0.827c0.324,0,0.584-0.073,0.779-0.22
		c0.194-0.147,0.292-0.347,0.292-0.599c0-0.198-0.062-0.355-0.185-0.473s-0.328-0.209-0.617-0.274l-0.936-0.226
		c-0.918-0.216-1.377-0.711-1.377-1.484c0-0.475,0.176-0.865,0.527-1.175c0.351-0.309,0.802-0.464,1.354-0.464
		c0.582,0,1.052,0.137,1.408,0.41c0.357,0.272,0.587,0.646,0.689,1.12h-0.937c-0.174-0.492-0.558-0.738-1.151-0.738
		c-0.301,0-0.542,0.071-0.725,0.212c-0.184,0.141-0.275,0.325-0.275,0.554c0,0.366,0.244,0.605,0.729,0.72l0.963,0.226
		c0.45,0.102,0.802,0.281,1.054,0.539c0.252,0.259,0.377,0.589,0.377,0.99c0,0.511-0.183,0.917-0.549,1.22
		c-0.365,0.303-0.84,0.454-1.422,0.454c-0.588,0-1.078-0.142-1.471-0.427C395.466,79.275,395.221,78.877,395.125,78.368z"/>
	<path fill="#585A5E" d="M400.857,74.372h3.609v0.827h-2.691v1.458h2.439v0.819h-2.439v1.584h2.691v0.837h-3.609V74.372z"/>
	<path fill="#585A5E" d="M407.716,77.656h-0.666v2.241h-0.937v-5.525h2.134c0.582,0,1.041,0.143,1.377,0.427
		c0.336,0.285,0.504,0.695,0.504,1.229c0,0.456-0.124,0.818-0.374,1.085c-0.248,0.267-0.596,0.437-1.039,0.509l1.602,2.276h-1.062
		L407.716,77.656z M407.05,75.181v1.692h1.179c0.307,0,0.545-0.077,0.716-0.229c0.171-0.153,0.257-0.358,0.257-0.617
		c0-0.258-0.086-0.463-0.257-0.616s-0.409-0.229-0.716-0.229H407.05z"/>
</g>
<rect x="150.226" y="108.399" fill="#3AD1CA" width="278.891" height="21.239"/>
<g>
	<path fill="#FFFFFF" d="M249.055,121.637c-0.117-0.119-0.176-0.267-0.176-0.44s0.059-0.321,0.176-0.441s0.262-0.18,0.436-0.18
		s0.32,0.06,0.438,0.18s0.176,0.268,0.176,0.441s-0.059,0.321-0.176,0.44c-0.117,0.12-0.264,0.181-0.438,0.181
		S249.172,121.757,249.055,121.637z"/>
	<path fill="#FFFFFF" d="M254.721,118.902c0.264,0.084,0.479,0.244,0.647,0.481c0.168,0.237,0.252,0.499,0.252,0.787
		c0,0.511-0.167,0.901-0.499,1.175c-0.334,0.273-0.791,0.409-1.373,0.409h-2.115v-5.525h1.936c0.588,0,1.047,0.129,1.377,0.387
		s0.494,0.63,0.494,1.116c0,0.288-0.066,0.537-0.202,0.747C255.103,118.689,254.93,118.83,254.721,118.902z M252.542,118.55h1.017
		c0.654,0,0.981-0.255,0.981-0.765c0-0.498-0.327-0.747-0.981-0.747h-1.017V118.55z M252.542,119.325v1.62h1.188
		c0.312,0,0.551-0.072,0.72-0.216c0.167-0.145,0.252-0.343,0.252-0.595s-0.085-0.449-0.252-0.594
		c-0.169-0.144-0.408-0.216-0.72-0.216H252.542z"/>
	<path fill="#FFFFFF" d="M258.779,116.229h0.899l2.124,5.525h-0.954l-0.567-1.529h-2.115l-0.566,1.529h-0.945L258.779,116.229z
		 M259.22,117.372l-0.757,2.043h1.513L259.22,117.372z"/>
	<path fill="#FFFFFF" d="M263.225,121.754v-5.525h0.936v4.688h2.656v0.837H263.225z"/>
	<path fill="#FFFFFF" d="M270.587,120.225h0.954c0.174,0.552,0.591,0.827,1.25,0.827c0.324,0,0.584-0.073,0.779-0.22
		c0.195-0.147,0.293-0.347,0.293-0.599c0-0.198-0.062-0.355-0.186-0.473s-0.328-0.209-0.616-0.274l-0.936-0.226
		c-0.919-0.216-1.378-0.711-1.378-1.484c0-0.475,0.176-0.865,0.527-1.175c0.352-0.309,0.803-0.464,1.354-0.464
		c0.581,0,1.052,0.137,1.408,0.41c0.356,0.272,0.587,0.646,0.688,1.12h-0.936c-0.174-0.492-0.559-0.738-1.152-0.738
		c-0.3,0-0.541,0.071-0.725,0.212s-0.274,0.325-0.274,0.554c0,0.366,0.243,0.605,0.729,0.72l0.963,0.226
		c0.449,0.102,0.801,0.281,1.053,0.539c0.252,0.259,0.378,0.589,0.378,0.99c0,0.511-0.183,0.917-0.549,1.22
		s-0.841,0.454-1.423,0.454c-0.588,0-1.078-0.142-1.471-0.427S270.683,120.735,270.587,120.225z"/>
	<path fill="#FFFFFF" d="M280.406,116.944c0.479,0.537,0.719,1.22,0.719,2.048s-0.24,1.511-0.719,2.048
		c-0.48,0.537-1.093,0.805-1.837,0.805c-0.743,0-1.354-0.268-1.831-0.805s-0.716-1.22-0.716-2.048s0.239-1.511,0.716-2.048
		c0.477-0.536,1.088-0.806,1.831-0.806C279.313,116.138,279.926,116.408,280.406,116.944z M279.734,120.441
		c0.298-0.378,0.446-0.861,0.446-1.449s-0.148-1.071-0.446-1.449c-0.297-0.378-0.686-0.566-1.165-0.566s-0.866,0.188-1.161,0.562
		c-0.294,0.375-0.441,0.859-0.441,1.453s0.147,1.078,0.441,1.453c0.295,0.375,0.682,0.562,1.161,0.562
		S279.438,120.819,279.734,120.441z"/>
	<path fill="#FFFFFF" d="M286.413,121.255c-0.399,0.393-0.938,0.589-1.616,0.589c-0.678,0-1.216-0.196-1.615-0.589
		c-0.398-0.394-0.598-0.962-0.598-1.706v-3.32h0.936v3.222c0,1.038,0.426,1.557,1.277,1.557c0.853,0,1.279-0.519,1.279-1.557v-3.222
		h0.936v3.33C287.012,120.296,286.812,120.862,286.413,121.255z"/>
	<path fill="#FFFFFF" d="M290.377,119.513h-0.666v2.241h-0.936v-5.525h2.133c0.582,0,1.041,0.143,1.377,0.427
		c0.336,0.285,0.504,0.695,0.504,1.229c0,0.456-0.124,0.818-0.373,1.085s-0.596,0.437-1.039,0.509l1.602,2.276h-1.062
		L290.377,119.513z M289.711,117.039v1.692h1.18c0.307,0,0.545-0.077,0.715-0.229c0.172-0.153,0.258-0.358,0.258-0.617
		c0-0.258-0.086-0.463-0.258-0.616c-0.17-0.153-0.408-0.229-0.715-0.229H289.711z"/>
	<path fill="#FFFFFF" d="M294.818,121.048c-0.477-0.531-0.715-1.217-0.715-2.057s0.238-1.525,0.715-2.057s1.076-0.797,1.796-0.797
		c0.612,0,1.112,0.164,1.503,0.491c0.39,0.327,0.639,0.772,0.747,1.336h-0.918c-0.24-0.653-0.685-0.98-1.332-0.98
		c-0.48,0-0.861,0.188-1.144,0.562c-0.281,0.375-0.423,0.856-0.423,1.444s0.142,1.069,0.423,1.444
		c0.282,0.375,0.663,0.562,1.144,0.562c0.647,0,1.092-0.33,1.332-0.99h0.918c-0.108,0.57-0.357,1.019-0.747,1.346
		c-0.391,0.327-0.891,0.49-1.503,0.49C295.895,121.844,295.295,121.58,294.818,121.048z"/>
	<path fill="#FFFFFF" d="M300.402,116.229h3.609v0.827h-2.691v1.458h2.439v0.819h-2.439v1.584h2.691v0.837h-3.609V116.229z"/>
	<path fill="#FFFFFF" d="M308.696,121.048c-0.477-0.531-0.716-1.217-0.716-2.057s0.239-1.525,0.716-2.057
		c0.478-0.531,1.075-0.797,1.796-0.797c0.611,0,1.113,0.164,1.503,0.491s0.639,0.772,0.747,1.336h-0.918
		c-0.24-0.653-0.684-0.98-1.332-0.98c-0.48,0-0.861,0.188-1.143,0.562c-0.283,0.375-0.424,0.856-0.424,1.444
		s0.141,1.069,0.424,1.444c0.281,0.375,0.662,0.562,1.143,0.562c0.648,0,1.092-0.33,1.332-0.99h0.918
		c-0.108,0.57-0.357,1.019-0.747,1.346s-0.892,0.49-1.503,0.49C309.771,121.844,309.174,121.58,308.696,121.048z"/>
	<path fill="#FFFFFF" d="M318.367,116.944c0.479,0.537,0.72,1.22,0.72,2.048s-0.24,1.511-0.72,2.048
		c-0.48,0.537-1.092,0.805-1.836,0.805s-1.355-0.268-1.832-0.805s-0.715-1.22-0.715-2.048s0.238-1.511,0.715-2.048
		c0.477-0.536,1.088-0.806,1.832-0.806S317.887,116.408,318.367,116.944z M317.696,120.441c0.298-0.378,0.446-0.861,0.446-1.449
		s-0.148-1.071-0.446-1.449c-0.297-0.378-0.686-0.566-1.165-0.566c-0.48,0-0.867,0.188-1.161,0.562s-0.441,0.859-0.441,1.453
		s0.147,1.078,0.441,1.453s0.681,0.562,1.161,0.562C317.011,121.007,317.399,120.819,317.696,120.441z"/>
	<path fill="#FFFFFF" d="M320.635,121.754v-5.525h1.863c0.816,0,1.467,0.25,1.953,0.751s0.729,1.172,0.729,2.012
		s-0.242,1.511-0.729,2.012s-1.137,0.751-1.953,0.751H320.635z M321.57,120.917h0.892c0.569,0,1.009-0.171,1.318-0.513
		s0.464-0.813,0.464-1.413s-0.154-1.072-0.464-1.418c-0.31-0.345-0.749-0.518-1.318-0.518h-0.892V120.917z"/>
	<path fill="#FFFFFF" d="M326.736,116.229h3.609v0.827h-2.691v1.458h2.439v0.819h-2.439v1.584h2.691v0.837h-3.609V116.229z"/>
</g>
<g>
	<line fill="none" stroke="#585A5E" stroke-miterlimit="10" x1="289.957" y1="97.161" x2="289.957" y2="87.481"/>
	<polygon fill="#585A5E" points="292.948,96.285 289.956,101.466 286.966,96.285 	"/>
</g>
<line fill="none" stroke="#585A5E" stroke-miterlimit="10" x1="100.536" y1="244.375" x2="164.337" y2="244.375"/>
<rect x="150.476" y="234.135" fill="#FFFFFF" stroke="#A7A8AB" stroke-width="0.4995" stroke-miterlimit="10" width="278.391" height="20.479"/>
<g>
	<path fill="#585A5E" d="M266.479,242.33v-0.828h4.607v0.828h-1.836v4.698h-0.936v-4.698H266.479z"/>
	<path fill="#585A5E" d="M272.453,241.502h3.609v0.828h-2.691v1.458h2.439v0.819h-2.439v1.584h2.691v0.837h-3.609V241.502z"/>
	<path fill="#585A5E" d="M277.135,245.498h0.953c0.174,0.552,0.592,0.828,1.251,0.828c0.324,0,0.583-0.073,0.778-0.22
		s0.293-0.347,0.293-0.599c0-0.198-0.062-0.355-0.185-0.473c-0.123-0.117-0.329-0.208-0.616-0.274l-0.936-0.225
		c-0.919-0.216-1.378-0.711-1.378-1.485c0-0.474,0.176-0.865,0.526-1.174c0.352-0.309,0.803-0.464,1.355-0.464
		c0.581,0,1.051,0.137,1.408,0.41c0.356,0.273,0.586,0.646,0.688,1.121h-0.936c-0.174-0.492-0.558-0.738-1.152-0.738
		c-0.299,0-0.541,0.071-0.725,0.212c-0.183,0.141-0.273,0.325-0.273,0.553c0,0.366,0.242,0.606,0.729,0.72l0.963,0.225
		c0.45,0.102,0.801,0.282,1.053,0.54c0.252,0.258,0.379,0.588,0.379,0.99c0,0.51-0.184,0.917-0.549,1.22
		c-0.367,0.303-0.841,0.454-1.423,0.454c-0.588,0-1.078-0.142-1.472-0.427C277.475,246.405,277.23,246.008,277.135,245.498z"/>
	<path fill="#585A5E" d="M282.381,242.33v-0.828h4.607v0.828h-1.836v4.698h-0.936v-4.698H282.381z"/>
	<path fill="#585A5E" d="M288.356,241.502h3.609v0.828h-2.691v1.458h2.439v0.819h-2.439v1.584h2.691v0.837h-3.609V241.502z"/>
	<path fill="#585A5E" d="M295.07,244.787h-0.666v2.241h-0.936v-5.526h2.133c0.582,0,1.041,0.143,1.377,0.427
		c0.336,0.285,0.504,0.695,0.504,1.229c0,0.456-0.125,0.818-0.373,1.084c-0.25,0.267-0.596,0.437-1.04,0.509l1.603,2.277h-1.062
		L295.07,244.787z M294.404,242.312v1.692h1.18c0.306,0,0.544-0.077,0.715-0.229c0.171-0.153,0.257-0.358,0.257-0.617
		c0-0.258-0.086-0.463-0.257-0.616c-0.171-0.153-0.409-0.229-0.715-0.229H294.404z"/>
	<path fill="#585A5E" d="M299.885,241.502v5.526h-0.936v-5.526H299.885z"/>
	<path fill="#585A5E" d="M306.041,241.502v5.526h-0.72l-2.825-4.023v4.023h-0.9v-5.526h0.882l2.664,3.834v-3.834H306.041z"/>
	<path fill="#585A5E" d="M309.443,241.502h0.9l2.124,5.526h-0.954l-0.566-1.53h-2.115l-0.567,1.53h-0.944L309.443,241.502z
		 M309.885,242.645l-0.756,2.043h1.512L309.885,242.645z"/>
</g>
<rect x="150.476" y="275.638" fill="#FFFFFF" stroke="#A7A8AB" stroke-width="0.4995" stroke-miterlimit="10" width="278.391" height="20.479"/>
<g>
	<path fill="#585A5E" d="M255.49,285.679c0.264,0.084,0.479,0.244,0.647,0.48c0.168,0.238,0.252,0.5,0.252,0.788
		c0,0.511-0.167,0.901-0.499,1.175c-0.334,0.273-0.791,0.409-1.373,0.409h-2.115v-5.526h1.936c0.588,0,1.047,0.129,1.377,0.387
		c0.33,0.259,0.494,0.631,0.494,1.117c0,0.287-0.066,0.537-0.202,0.746C255.872,285.466,255.699,285.607,255.49,285.679z
		 M253.312,285.328h1.017c0.654,0,0.981-0.255,0.981-0.766c0-0.497-0.327-0.746-0.981-0.746h-1.017V285.328z M253.312,286.101v1.621
		h1.188c0.312,0,0.551-0.072,0.72-0.217c0.167-0.144,0.252-0.342,0.252-0.594s-0.085-0.449-0.252-0.594
		c-0.169-0.145-0.408-0.217-0.72-0.217H253.312z"/>
	<path fill="#585A5E" d="M259.539,283.005h0.9l2.124,5.526h-0.954l-0.566-1.53h-2.115l-0.567,1.53h-0.944L259.539,283.005z
		 M259.98,284.149l-0.756,2.043h1.512L259.98,284.149z"/>
	<path fill="#585A5E" d="M263.977,288.532v-5.526h0.936v4.689h2.655v0.837H263.977z"/>
	<path fill="#585A5E" d="M269.151,288.532v-5.526h0.937v4.689h2.654v0.837H269.151z"/>
	<path fill="#585A5E" d="M274.326,283.005h3.609v0.828h-2.691v1.458h2.439v0.819h-2.439v1.584h2.691v0.837h-3.609V283.005z"/>
	<path fill="#585A5E" d="M281.184,286.291h-0.666v2.241h-0.936v-5.526h2.133c0.582,0,1.041,0.143,1.377,0.428
		s0.504,0.695,0.504,1.229c0,0.456-0.124,0.818-0.373,1.084c-0.249,0.268-0.596,0.438-1.039,0.51l1.602,2.276h-1.062
		L281.184,286.291z M280.518,283.816v1.691h1.18c0.307,0,0.545-0.076,0.715-0.229c0.172-0.154,0.258-0.359,0.258-0.617
		s-0.086-0.463-0.258-0.616c-0.17-0.153-0.408-0.229-0.715-0.229H280.518z"/>
	<path fill="#585A5E" d="M286.143,283.005v5.526h-0.936v-5.526H286.143z"/>
	<path fill="#585A5E" d="M292.443,283.005v5.526h-0.721l-2.825-4.022v4.022h-0.9v-5.526h0.882l2.664,3.834v-3.834H292.443z"/>
	<path fill="#585A5E" d="M295.989,283.005h0.899l2.125,5.526h-0.955l-0.566-1.53h-2.115l-0.566,1.53h-0.945L295.989,283.005z
		 M296.43,284.149l-0.756,2.043h1.512L296.43,284.149z"/>
	<path fill="#585A5E" d="M306.141,285.679c0.264,0.084,0.48,0.244,0.648,0.48c0.168,0.238,0.252,0.5,0.252,0.788
		c0,0.511-0.166,0.901-0.5,1.175c-0.332,0.273-0.79,0.409-1.372,0.409h-2.115v-5.526h1.935c0.588,0,1.047,0.129,1.377,0.387
		c0.33,0.259,0.496,0.631,0.496,1.117c0,0.287-0.068,0.537-0.203,0.746C306.523,285.466,306.352,285.607,306.141,285.679z
		 M303.963,285.328h1.018c0.653,0,0.98-0.255,0.98-0.766c0-0.497-0.327-0.746-0.98-0.746h-1.018V285.328z M303.963,286.101v1.621
		h1.188c0.312,0,0.553-0.072,0.721-0.217c0.168-0.144,0.252-0.342,0.252-0.594s-0.084-0.449-0.252-0.594s-0.408-0.217-0.721-0.217
		H303.963z"/>
	<path fill="#585A5E" d="M312.364,288.033c-0.399,0.393-0.938,0.589-1.616,0.589c-0.678,0-1.216-0.196-1.615-0.589
		c-0.398-0.394-0.598-0.962-0.598-1.706v-3.321h0.936v3.223c0,1.037,0.426,1.557,1.277,1.557c0.853,0,1.279-0.52,1.279-1.557v-3.223
		h0.936v3.33C312.963,287.074,312.764,287.639,312.364,288.033z"/>
	<path fill="#585A5E" d="M315.662,283.005v5.526h-0.936v-5.526H315.662z"/>
	<path fill="#585A5E" d="M317.517,288.532v-5.526h0.937v4.689h2.654v0.837H317.517z"/>
	<path fill="#585A5E" d="M322.691,288.532v-5.526h1.863c0.816,0,1.467,0.251,1.953,0.752s0.729,1.172,0.729,2.012
		s-0.242,1.51-0.729,2.012c-0.486,0.5-1.137,0.751-1.953,0.751H322.691z M323.627,287.695h0.892c0.569,0,1.009-0.171,1.318-0.514
		c0.31-0.342,0.464-0.812,0.464-1.412s-0.154-1.072-0.464-1.418c-0.31-0.345-0.749-0.518-1.318-0.518h-0.892V287.695z"/>
</g>
<rect x="150.226" y="316.861" fill="#3AD1CA" width="278.891" height="32.539"/>
<g>
	<path fill="#FFFFFF" d="M195.996,330.215v-5.526h1.863c0.816,0,1.467,0.251,1.953,0.752s0.729,1.172,0.729,2.012
		s-0.242,1.51-0.729,2.012c-0.486,0.5-1.137,0.751-1.953,0.751H195.996z M196.932,329.378h0.892c0.569,0,1.009-0.171,1.318-0.514
		c0.31-0.342,0.464-0.812,0.464-1.412s-0.154-1.072-0.464-1.418c-0.31-0.345-0.749-0.518-1.318-0.518h-0.892V329.378z"/>
	<path fill="#FFFFFF" d="M206.221,325.405c0.479,0.537,0.719,1.22,0.719,2.048s-0.24,1.51-0.719,2.047
		c-0.48,0.537-1.093,0.806-1.837,0.806c-0.743,0-1.354-0.269-1.831-0.806s-0.716-1.219-0.716-2.047s0.239-1.511,0.716-2.048
		c0.477-0.536,1.088-0.806,1.831-0.806C205.128,324.599,205.74,324.869,206.221,325.405z M205.549,328.902
		c0.298-0.379,0.446-0.861,0.446-1.449s-0.148-1.071-0.446-1.449c-0.297-0.378-0.686-0.566-1.165-0.566s-0.866,0.188-1.161,0.562
		c-0.294,0.375-0.441,0.859-0.441,1.453s0.147,1.078,0.441,1.453c0.295,0.375,0.682,0.562,1.161,0.562
		S205.252,329.279,205.549,328.902z"/>
	<path fill="#FFFFFF" d="M208.961,329.509c-0.477-0.531-0.716-1.217-0.716-2.057s0.239-1.525,0.716-2.057s1.075-0.797,1.795-0.797
		c0.612,0,1.113,0.164,1.504,0.49c0.389,0.328,0.639,0.773,0.746,1.337h-0.918c-0.24-0.653-0.684-0.981-1.332-0.981
		c-0.48,0-0.861,0.188-1.143,0.562c-0.282,0.375-0.424,0.857-0.424,1.445s0.142,1.069,0.424,1.444
		c0.281,0.375,0.662,0.562,1.143,0.562c0.648,0,1.092-0.33,1.332-0.99h0.918c-0.107,0.57-0.357,1.019-0.746,1.346
		c-0.391,0.327-0.892,0.49-1.504,0.49C210.036,330.305,209.438,330.041,208.961,329.509z"/>
	<path fill="#FFFFFF" d="M215.48,324.689v2.646l2.295-2.646h1.18l-2.232,2.512l2.313,3.015h-1.17l-1.817-2.367l-0.568,0.647v1.72
		h-0.936v-5.526H215.48z"/>
	<path fill="#FFFFFF" d="M220.412,324.689h3.609v0.828h-2.691v1.458h2.439v0.819h-2.439v1.584h2.691v0.837h-3.609V324.689z"/>
	<path fill="#FFFFFF" d="M227.271,327.974h-0.666v2.241h-0.937v-5.526h2.134c0.582,0,1.041,0.143,1.377,0.428
		s0.504,0.695,0.504,1.229c0,0.456-0.124,0.818-0.374,1.084c-0.248,0.268-0.596,0.438-1.039,0.51l1.602,2.276h-1.062
		L227.271,327.974z M226.604,325.5v1.691h1.179c0.307,0,0.545-0.076,0.716-0.229c0.171-0.154,0.257-0.359,0.257-0.617
		s-0.086-0.463-0.257-0.616s-0.409-0.229-0.716-0.229H226.604z"/>
	<path fill="#FFFFFF" d="M230.826,331.232l0.647-0.998c-0.149-0.024-0.271-0.088-0.364-0.189c-0.094-0.102-0.14-0.23-0.14-0.387
		c0-0.174,0.059-0.318,0.175-0.433c0.117-0.114,0.264-0.171,0.438-0.171c0.18,0,0.326,0.059,0.44,0.176s0.171,0.283,0.171,0.5
		c0,0.221-0.087,0.461-0.261,0.719l-0.522,0.783H230.826z"/>
	<path fill="#FFFFFF" d="M237.278,324.689v2.646l2.295-2.646h1.179l-2.231,2.512l2.313,3.015h-1.17l-1.818-2.367l-0.567,0.647v1.72
		h-0.937v-5.526H237.278z"/>
	<path fill="#FFFFFF" d="M245.814,329.716c-0.398,0.393-0.938,0.589-1.615,0.589s-1.217-0.196-1.615-0.589
		c-0.399-0.394-0.599-0.962-0.599-1.706v-3.321h0.937v3.223c0,1.037,0.426,1.557,1.277,1.557s1.278-0.52,1.278-1.557v-3.223h0.937
		v3.33C246.414,328.757,246.214,329.323,245.814,329.716z"/>
	<path fill="#FFFFFF" d="M251.265,327.363c0.264,0.084,0.479,0.244,0.647,0.48c0.168,0.238,0.252,0.5,0.252,0.788
		c0,0.511-0.166,0.901-0.499,1.175s-0.79,0.409-1.372,0.409h-2.115v-5.526h1.935c0.588,0,1.047,0.129,1.377,0.387
		c0.33,0.259,0.495,0.631,0.495,1.117c0,0.287-0.067,0.537-0.203,0.746C251.646,327.15,251.475,327.291,251.265,327.363z
		 M249.086,327.011h1.018c0.654,0,0.98-0.255,0.98-0.766c0-0.497-0.326-0.746-0.98-0.746h-1.018V327.011z M249.086,327.785v1.621
		h1.188c0.312,0,0.552-0.072,0.72-0.217c0.168-0.144,0.252-0.342,0.252-0.594s-0.084-0.449-0.252-0.594s-0.408-0.217-0.72-0.217
		H249.086z"/>
	<path fill="#FFFFFF" d="M253.766,324.689h3.609v0.828h-2.691v1.458h2.439v0.819h-2.439v1.584h2.691v0.837h-3.609V324.689z"/>
	<path fill="#FFFFFF" d="M260.624,327.974h-0.666v2.241h-0.937v-5.526h2.134c0.582,0,1.041,0.143,1.377,0.428
		s0.504,0.695,0.504,1.229c0,0.456-0.124,0.818-0.374,1.084c-0.248,0.268-0.596,0.438-1.039,0.51l1.602,2.276h-1.062
		L260.624,327.974z M259.958,325.5v1.691h1.179c0.307,0,0.545-0.076,0.716-0.229c0.171-0.154,0.257-0.359,0.257-0.617
		s-0.086-0.463-0.257-0.616s-0.409-0.229-0.716-0.229H259.958z"/>
	<path fill="#FFFFFF" d="M269.094,324.689v5.526h-0.721l-2.826-4.022v4.022h-0.9v-5.526h0.883l2.664,3.834v-3.834H269.094z"/>
	<path fill="#FFFFFF" d="M270.947,324.689h3.609v0.828h-2.691v1.458h2.439v0.819h-2.439v1.584h2.691v0.837h-3.609V324.689z"/>
	<path fill="#FFFFFF" d="M275.861,325.517v-0.828h4.607v0.828h-1.836v4.698h-0.936v-4.698H275.861z"/>
	<path fill="#FFFFFF" d="M281.972,324.689h3.609v0.828h-2.691v1.458h2.439v0.819h-2.439v1.584h2.691v0.837h-3.609V324.689z"/>
	<path fill="#FFFFFF" d="M286.796,328.685h0.954c0.174,0.553,0.591,0.828,1.25,0.828c0.324,0,0.584-0.073,0.779-0.221
		c0.195-0.146,0.293-0.346,0.293-0.598c0-0.199-0.062-0.355-0.186-0.473s-0.328-0.209-0.616-0.275l-0.936-0.225
		c-0.919-0.216-1.378-0.711-1.378-1.484c0-0.475,0.176-0.865,0.527-1.175s0.803-0.464,1.354-0.464c0.581,0,1.052,0.137,1.408,0.41
		c0.356,0.272,0.587,0.646,0.688,1.12H290c-0.174-0.492-0.559-0.738-1.152-0.738c-0.3,0-0.541,0.071-0.725,0.212
		s-0.274,0.325-0.274,0.553c0,0.367,0.243,0.606,0.729,0.721l0.963,0.225c0.449,0.103,0.801,0.282,1.053,0.54
		c0.252,0.259,0.378,0.589,0.378,0.99c0,0.511-0.183,0.917-0.549,1.22s-0.841,0.454-1.423,0.454c-0.588,0-1.078-0.142-1.471-0.427
		S286.892,329.195,286.796,328.685z"/>
	<path fill="#FFFFFF" d="M292.061,331.232l0.648-0.998c-0.15-0.024-0.271-0.088-0.364-0.189s-0.14-0.23-0.14-0.387
		c0-0.174,0.059-0.318,0.176-0.433s0.262-0.171,0.436-0.171c0.181,0,0.328,0.059,0.441,0.176c0.114,0.117,0.172,0.283,0.172,0.5
		c0,0.221-0.088,0.461-0.262,0.719l-0.521,0.783H292.061z"/>
	<path fill="#FFFFFF" d="M299.27,324.689h0.9l2.124,5.526h-0.954l-0.566-1.53h-2.115l-0.567,1.53h-0.944L299.27,324.689z
		 M299.711,325.833l-0.756,2.043h1.512L299.711,325.833z"/>
	<path fill="#FFFFFF" d="M308.162,324.689v5.526h-0.721l-2.826-4.022v4.022h-0.9v-5.526h0.883l2.664,3.834v-3.834H308.162z"/>
	<path fill="#FFFFFF" d="M310.016,330.215v-5.526h1.863c0.816,0,1.467,0.251,1.953,0.752s0.729,1.172,0.729,2.012
		s-0.242,1.51-0.729,2.012c-0.486,0.5-1.137,0.751-1.953,0.751H310.016z M310.951,329.378h0.892c0.569,0,1.009-0.171,1.318-0.514
		c0.31-0.342,0.464-0.812,0.464-1.412s-0.154-1.072-0.464-1.418c-0.31-0.345-0.749-0.518-1.318-0.518h-0.892V329.378z"/>
	<path fill="#FFFFFF" d="M319.146,329.509c-0.477-0.531-0.716-1.217-0.716-2.057s0.239-1.525,0.716-2.057
		c0.478-0.531,1.075-0.797,1.796-0.797c0.611,0,1.113,0.164,1.503,0.49c0.39,0.328,0.639,0.773,0.747,1.337h-0.918
		c-0.24-0.653-0.684-0.981-1.332-0.981c-0.48,0-0.861,0.188-1.143,0.562c-0.283,0.375-0.424,0.857-0.424,1.445
		s0.141,1.069,0.424,1.444c0.281,0.375,0.662,0.562,1.143,0.562c0.648,0,1.092-0.33,1.332-0.99h0.918
		c-0.108,0.57-0.357,1.019-0.747,1.346s-0.892,0.49-1.503,0.49C320.221,330.305,319.623,330.041,319.146,329.509z"/>
	<path fill="#FFFFFF" d="M324.73,330.215v-5.526h0.936v4.689h2.655v0.837H324.73z"/>
	<path fill="#FFFFFF" d="M333.758,325.405c0.479,0.537,0.719,1.22,0.719,2.048s-0.24,1.51-0.719,2.047
		c-0.48,0.537-1.093,0.806-1.837,0.806c-0.743,0-1.354-0.269-1.831-0.806s-0.716-1.219-0.716-2.047s0.239-1.511,0.716-2.048
		c0.477-0.536,1.088-0.806,1.831-0.806C332.665,324.599,333.277,324.869,333.758,325.405z M333.086,328.902
		c0.298-0.379,0.446-0.861,0.446-1.449s-0.148-1.071-0.446-1.449c-0.297-0.378-0.686-0.566-1.165-0.566s-0.866,0.188-1.161,0.562
		c-0.294,0.375-0.441,0.859-0.441,1.453s0.147,1.078,0.441,1.453c0.295,0.375,0.682,0.562,1.161,0.562
		S332.789,329.279,333.086,328.902z"/>
	<path fill="#FFFFFF" d="M339.765,329.716c-0.399,0.393-0.938,0.589-1.616,0.589c-0.678,0-1.216-0.196-1.615-0.589
		c-0.398-0.394-0.598-0.962-0.598-1.706v-3.321h0.936v3.223c0,1.037,0.426,1.557,1.277,1.557c0.853,0,1.279-0.52,1.279-1.557v-3.223
		h0.936v3.33C340.363,328.757,340.164,329.323,339.765,329.716z"/>
	<path fill="#FFFFFF" d="M342.127,330.215v-5.526h1.863c0.816,0,1.467,0.251,1.953,0.752s0.729,1.172,0.729,2.012
		s-0.242,1.51-0.729,2.012c-0.486,0.5-1.137,0.751-1.953,0.751H342.127z M343.062,329.378h0.892c0.569,0,1.009-0.171,1.318-0.514
		c0.31-0.342,0.464-0.812,0.464-1.412s-0.154-1.072-0.464-1.418c-0.31-0.345-0.749-0.518-1.318-0.518h-0.892V329.378z"/>
	<path fill="#FFFFFF" d="M355.294,324.689v5.526h-0.72l-2.826-4.022v4.022h-0.9v-5.526h0.883l2.664,3.834v-3.834H355.294z"/>
	<path fill="#FFFFFF" d="M358.84,324.689h0.9l2.123,5.526h-0.953l-0.567-1.53h-2.115l-0.567,1.53h-0.944L358.84,324.689z
		 M359.281,325.833l-0.757,2.043h1.513L359.281,325.833z"/>
	<path fill="#FFFFFF" d="M362.367,325.517v-0.828h4.608v0.828h-1.836v4.698h-0.937v-4.698H362.367z"/>
	<path fill="#FFFFFF" d="M369.424,324.689v5.526h-0.937v-5.526H369.424z"/>
	<path fill="#FFFFFF" d="M373.824,330.215h-0.891l-2.088-5.526h0.98l1.566,4.312l1.566-4.312h0.953L373.824,330.215z"/>
	<path fill="#FFFFFF" d="M377.325,324.689h3.609v0.828h-2.691v1.458h2.439v0.819h-2.439v1.584h2.691v0.837h-3.609V324.689z"/>
</g>
<g>
	<path fill="#FFFFFF" d="M236.283,341.015v-5.525h1.863c0.816,0,1.467,0.25,1.953,0.751s0.729,1.171,0.729,2.011
		c0,0.841-0.243,1.512-0.729,2.012c-0.486,0.502-1.137,0.752-1.953,0.752H236.283z M237.22,340.178h0.892
		c0.569,0,1.009-0.171,1.318-0.513c0.309-0.342,0.463-0.813,0.463-1.414c0-0.6-0.154-1.072-0.463-1.417
		c-0.31-0.345-0.749-0.518-1.318-0.518h-0.892V340.178z"/>
	<path fill="#FFFFFF" d="M242.386,335.49h3.609v0.827h-2.691v1.458h2.439v0.819h-2.439v1.584h2.691v0.837h-3.609V335.49z"/>
	<path fill="#FFFFFF" d="M249.775,338.955h-1.197v2.061h-0.937v-5.525h2.134c0.582,0,1.042,0.149,1.381,0.449
		c0.339,0.301,0.508,0.729,0.508,1.287c0,0.553-0.169,0.979-0.508,1.277C250.817,338.804,250.357,338.955,249.775,338.955z
		 M250.738,337.226c0-0.281-0.084-0.507-0.252-0.675s-0.412-0.252-0.729-0.252h-1.179v1.845h1.179c0.312,0,0.554-0.084,0.725-0.252
		S250.738,337.501,250.738,337.226z"/>
	<path fill="#FFFFFF" d="M253.176,341.015v-5.525h0.937v4.688h2.655v0.837H253.176z"/>
	<path fill="#FFFFFF" d="M262.203,336.205c0.48,0.537,0.721,1.22,0.721,2.047c0,0.828-0.24,1.512-0.721,2.049
		s-1.092,0.805-1.836,0.805s-1.354-0.268-1.832-0.805c-0.477-0.537-0.715-1.221-0.715-2.049c0-0.827,0.238-1.51,0.715-2.047
		c0.478-0.537,1.088-0.806,1.832-0.806S261.723,335.667,262.203,336.205z M261.533,339.701c0.297-0.377,0.445-0.86,0.445-1.449
		c0-0.588-0.148-1.07-0.445-1.448s-0.686-0.567-1.166-0.567s-0.867,0.188-1.16,0.562c-0.295,0.375-0.441,0.859-0.441,1.453
		c0,0.595,0.146,1.079,0.441,1.454c0.293,0.375,0.68,0.562,1.16,0.562S261.236,340.08,261.533,339.701z"/>
	<path fill="#FFFFFF" d="M266.092,337.964l1.458-2.475h0.989l-2.006,3.32v2.205h-0.928v-2.205l-1.998-3.32h1.018L266.092,337.964z"
		/>
	<path fill="#FFFFFF" d="M272.994,341.015h-0.666l-1.521-3.843v3.843h-0.891v-5.525h1.071l1.683,4.248l1.665-4.248h1.044v5.525h-0.9
		v-3.843L272.994,341.015z"/>
	<path fill="#FFFFFF" d="M277.233,335.49h3.609v0.827h-2.691v1.458h2.439v0.819h-2.439v1.584h2.691v0.837h-3.609V335.49z"/>
	<path fill="#FFFFFF" d="M286.936,335.49v5.525h-0.721l-2.825-4.023v4.023h-0.9v-5.525h0.882l2.664,3.834v-3.834H286.936z"/>
	<path fill="#FFFFFF" d="M288.447,336.317v-0.827h4.607v0.827h-1.836v4.698h-0.936v-4.698H288.447z"/>
	<path fill="#FFFFFF" d="M298.869,335.49h0.9l2.123,5.525h-0.953l-0.567-1.529h-2.115l-0.567,1.529h-0.944L298.869,335.49z
		 M299.311,336.632l-0.757,2.043h1.513L299.311,336.632z"/>
	<path fill="#FFFFFF" d="M304.917,338.774h-0.666v2.241h-0.937v-5.525h2.134c0.582,0,1.041,0.143,1.377,0.427
		c0.336,0.285,0.504,0.694,0.504,1.229c0,0.456-0.124,0.817-0.374,1.085c-0.248,0.267-0.596,0.436-1.039,0.508l1.602,2.277h-1.062
		L304.917,338.774z M304.251,336.299v1.692h1.179c0.307,0,0.545-0.077,0.716-0.23c0.171-0.152,0.257-0.357,0.257-0.616
		c0-0.258-0.086-0.464-0.257-0.616c-0.171-0.153-0.409-0.229-0.716-0.229H304.251z"/>
	<path fill="#FFFFFF" d="M308.518,336.317v-0.827h4.607v0.827h-1.836v4.698h-0.936v-4.698H308.518z"/>
	<path fill="#FFFFFF" d="M315.572,335.49v5.525h-0.936v-5.525H315.572z"/>
	<path fill="#FFFFFF" d="M318.363,341.015h-0.937v-5.525h3.528v0.827h-2.592v1.638h2.421v0.819h-2.421V341.015z"/>
	<path fill="#FFFFFF" d="M323.854,335.49h0.899l2.124,5.525h-0.954l-0.567-1.529h-2.115l-0.566,1.529h-0.945L323.854,335.49z
		 M324.294,336.632l-0.757,2.043h1.513L324.294,336.632z"/>
	<path fill="#FFFFFF" d="M328.447,340.308c-0.477-0.53-0.715-1.216-0.715-2.057c0-0.84,0.238-1.525,0.715-2.056
		c0.477-0.531,1.076-0.797,1.796-0.797c0.612,0,1.112,0.163,1.503,0.491c0.39,0.326,0.639,0.771,0.747,1.336h-0.918
		c-0.24-0.654-0.685-0.98-1.332-0.98c-0.48,0-0.861,0.188-1.144,0.562c-0.281,0.375-0.423,0.855-0.423,1.443
		c0,0.589,0.142,1.07,0.423,1.445c0.282,0.375,0.663,0.562,1.144,0.562c0.647,0,1.092-0.33,1.332-0.99h0.918
		c-0.108,0.57-0.357,1.019-0.747,1.346c-0.391,0.327-0.891,0.49-1.503,0.49C329.523,341.105,328.924,340.839,328.447,340.308z"/>
	<path fill="#FFFFFF" d="M333.537,336.317v-0.827h4.607v0.827h-1.836v4.698h-0.936v-4.698H333.537z"/>
	<path fill="#FFFFFF" d="M339.18,339.486h0.953c0.175,0.551,0.592,0.827,1.252,0.827c0.324,0,0.583-0.073,0.778-0.22
		c0.194-0.147,0.292-0.348,0.292-0.6c0-0.197-0.061-0.355-0.184-0.473c-0.123-0.116-0.329-0.208-0.617-0.273l-0.936-0.226
		c-0.918-0.216-1.377-0.711-1.377-1.485c0-0.474,0.176-0.865,0.526-1.174s0.802-0.464,1.354-0.464c0.582,0,1.051,0.137,1.408,0.409
		c0.357,0.273,0.586,0.646,0.688,1.121h-0.937c-0.174-0.492-0.557-0.738-1.151-0.738c-0.3,0-0.542,0.07-0.725,0.212
		c-0.183,0.141-0.274,0.325-0.274,0.554c0,0.365,0.243,0.605,0.729,0.72l0.963,0.226c0.451,0.102,0.802,0.281,1.054,0.539
		s0.378,0.588,0.378,0.99c0,0.51-0.184,0.916-0.549,1.22c-0.366,0.303-0.84,0.454-1.422,0.454c-0.588,0-1.078-0.143-1.472-0.428
		S339.275,339.996,339.18,339.486z"/>
</g>
<g>
	<line fill="none" stroke="#585A5E" stroke-miterlimit="10" x1="289.957" y1="305.555" x2="289.957" y2="295.875"/>
	<polygon fill="#585A5E" points="292.948,304.679 289.956,309.861 286.966,304.679 	"/>
</g>
<g>
	<line fill="none" stroke="#585A5E" stroke-miterlimit="10" x1="289.957" y1="264.293" x2="289.957" y2="254.614"/>
	<polygon fill="#585A5E" points="292.948,263.417 289.956,268.599 286.966,263.417 	"/>
</g>
<rect x="32.873" y="150.716" fill="#FFFFFF" stroke="#A7A8AB" stroke-width="0.6446" stroke-miterlimit="10" width="97.943" height="41.782"/>
<g>
	<g>
		<path fill="#585A5E" d="M63.572,169.591l-2.209-6.767h0.943l1.055,3.333c0.291,0.914,0.542,1.737,0.723,2.53h0.02
			c0.191-0.783,0.473-1.636,0.773-2.52l1.145-3.343h0.934l-2.42,6.767H63.572z"/>
		<path fill="#585A5E" d="M71.893,166.418h-2.631v2.44h2.932v0.733h-3.805v-6.767h3.654v0.733h-2.781v2.139h2.631V166.418z"/>
		<path fill="#585A5E" d="M74.027,162.914c0.441-0.09,1.074-0.141,1.678-0.141c0.934,0,1.535,0.171,1.957,0.552
			c0.342,0.301,0.532,0.763,0.532,1.285c0,0.894-0.562,1.486-1.274,1.727v0.03c0.521,0.181,0.832,0.663,0.993,1.366
			c0.222,0.944,0.382,1.596,0.522,1.857h-0.904c-0.109-0.191-0.261-0.773-0.451-1.617c-0.201-0.934-0.562-1.285-1.355-1.315h-0.823
			v2.932h-0.874V162.914z M74.901,165.997h0.894c0.934,0,1.525-0.512,1.525-1.285c0-0.874-0.632-1.255-1.556-1.265
			c-0.422,0-0.723,0.04-0.863,0.08V165.997z"/>
		<path fill="#585A5E" d="M80.049,168.526c0.392,0.241,0.964,0.442,1.566,0.442c0.894,0,1.416-0.472,1.416-1.155
			c0-0.632-0.361-0.994-1.275-1.345c-1.104-0.392-1.787-0.964-1.787-1.917c0-1.054,0.873-1.837,2.188-1.837
			c0.692,0,1.194,0.161,1.496,0.331l-0.241,0.713c-0.221-0.121-0.672-0.321-1.285-0.321c-0.924,0-1.275,0.552-1.275,1.014
			c0,0.632,0.412,0.944,1.346,1.305c1.145,0.442,1.727,0.994,1.727,1.988c0,1.044-0.772,1.948-2.369,1.948
			c-0.652,0-1.365-0.191-1.727-0.432L80.049,168.526z"/>
		<path fill="#585A5E" d="M86.693,162.824v6.767h-0.874v-6.767H86.693z"/>
		<path fill="#585A5E" d="M94.693,166.137c0,2.33-1.416,3.564-3.143,3.564c-1.787,0-3.043-1.385-3.043-3.434
			c0-2.149,1.336-3.554,3.143-3.554C93.498,162.713,94.693,164.129,94.693,166.137z M89.442,166.248
			c0,1.446,0.782,2.741,2.159,2.741c1.385,0,2.168-1.275,2.168-2.811c0-1.346-0.703-2.751-2.158-2.751
			C90.165,163.426,89.442,164.761,89.442,166.248z"/>
		<path fill="#585A5E" d="M96.527,169.591v-6.767h0.953l2.17,3.424c0.502,0.793,0.893,1.506,1.215,2.199l0.02-0.01
			c-0.08-0.903-0.101-1.727-0.101-2.781v-2.832h0.823v6.767h-0.883l-2.148-3.434c-0.473-0.753-0.924-1.526-1.266-2.259l-0.03,0.01
			c0.05,0.853,0.07,1.667,0.07,2.791v2.892H96.527z"/>
	</g>
	<g>
		<path fill="#585A5E" d="M60.164,179.802c-0.532-0.592-0.799-1.356-0.799-2.293c0-0.937,0.267-1.701,0.799-2.293
			c0.531-0.592,1.199-0.888,2.002-0.888c0.682,0,1.24,0.183,1.676,0.547c0.435,0.365,0.713,0.862,0.833,1.49H63.65
			c-0.268-0.729-0.762-1.094-1.484-1.094c-0.535,0-0.961,0.209-1.275,0.627s-0.471,0.955-0.471,1.61
			c0,0.656,0.156,1.193,0.471,1.611c0.314,0.418,0.74,0.627,1.275,0.627c0.723,0,1.217-0.368,1.484-1.104h1.024
			c-0.12,0.636-0.398,1.136-0.833,1.5c-0.436,0.365-0.994,0.547-1.676,0.547C61.363,180.69,60.695,180.394,60.164,179.802z"/>
		<path fill="#585A5E" d="M70.937,175.226c0.535,0.599,0.804,1.36,0.804,2.283c0,0.923-0.269,1.685-0.804,2.283
			s-1.218,0.898-2.047,0.898s-1.511-0.3-2.042-0.898c-0.532-0.599-0.799-1.36-0.799-2.283c0-0.923,0.267-1.684,0.799-2.283
			c0.531-0.599,1.213-0.898,2.042-0.898S70.401,174.627,70.937,175.226z M70.189,179.125c0.33-0.421,0.496-0.96,0.496-1.616
			c0-0.655-0.166-1.194-0.496-1.616c-0.332-0.421-0.765-0.632-1.3-0.632c-0.536,0-0.967,0.209-1.295,0.627
			c-0.327,0.418-0.491,0.958-0.491,1.621c0,0.663,0.164,1.203,0.491,1.621c0.328,0.418,0.759,0.627,1.295,0.627
			C69.425,179.757,69.857,179.546,70.189,179.125z"/>
		<path fill="#585A5E" d="M78.434,174.428v6.162H77.63l-3.151-4.486v4.486h-1.003v-6.162h0.983l2.971,4.275v-4.275H78.434z"/>
		<path fill="#585A5E" d="M80.119,175.352v-0.923h5.138v0.923H83.21v5.238h-1.044v-5.238H80.119z"/>
		<path fill="#585A5E" d="M88.719,178.091h-0.742v2.499h-1.043v-6.162h2.378c0.648,0,1.161,0.159,1.535,0.477
			s0.562,0.774,0.562,1.37c0,0.509-0.139,0.912-0.416,1.209s-0.664,0.487-1.159,0.567l1.786,2.539h-1.184L88.719,178.091z
			 M87.977,175.331v1.887h1.314c0.342,0,0.607-0.085,0.798-0.256c0.19-0.17,0.286-0.399,0.286-0.688
			c0-0.288-0.096-0.517-0.286-0.687c-0.19-0.171-0.456-0.256-0.798-0.256H87.977z"/>
		<path fill="#585A5E" d="M97.761,175.226c0.535,0.599,0.804,1.36,0.804,2.283c0,0.923-0.269,1.685-0.804,2.283
			s-1.218,0.898-2.047,0.898s-1.511-0.3-2.042-0.898c-0.532-0.599-0.799-1.36-0.799-2.283c0-0.923,0.267-1.684,0.799-2.283
			c0.531-0.599,1.213-0.898,2.042-0.898S97.226,174.627,97.761,175.226z M97.014,179.125c0.33-0.421,0.496-0.96,0.496-1.616
			c0-0.655-0.166-1.194-0.496-1.616c-0.332-0.421-0.765-0.632-1.3-0.632c-0.536,0-0.967,0.209-1.295,0.627
			c-0.327,0.418-0.491,0.958-0.491,1.621c0,0.663,0.164,1.203,0.491,1.621c0.328,0.418,0.759,0.627,1.295,0.627
			C96.249,179.757,96.682,179.546,97.014,179.125z"/>
		<path fill="#585A5E" d="M100.29,180.59v-6.162h1.044v5.229h2.96v0.933H100.29z"/>
	</g>
</g>
<rect x="32.873" y="234.136" fill="#FFFFFF" stroke="#A7A8AB" stroke-width="0.5594" stroke-miterlimit="10" width="97.943" height="31.465"/>
<g>
	<path fill="#585A5E" d="M69.702,252.041c-0.532-0.592-0.798-1.355-0.798-2.293c0-0.937,0.266-1.701,0.798-2.293
		c0.532-0.592,1.199-0.888,2.002-0.888c0.683,0,1.241,0.183,1.677,0.547c0.434,0.365,0.712,0.862,0.832,1.49h-1.023
		c-0.268-0.729-0.763-1.094-1.485-1.094c-0.535,0-0.96,0.209-1.274,0.627s-0.472,0.955-0.472,1.61c0,0.656,0.157,1.193,0.472,1.611
		s0.739,0.627,1.274,0.627c0.723,0,1.218-0.368,1.485-1.104h1.023c-0.12,0.635-0.398,1.135-0.832,1.5
		c-0.436,0.364-0.994,0.547-1.677,0.547C70.901,252.929,70.234,252.632,69.702,252.041z"/>
	<path fill="#585A5E" d="M76.963,246.667v6.162H75.92v-6.162H76.963z"/>
	<path fill="#585A5E" d="M78.398,253.671l2.488-7.366h0.993l-2.489,7.366H78.398z"/>
	<path fill="#585A5E" d="M83.49,252.041c-0.531-0.592-0.798-1.355-0.798-2.293c0-0.937,0.267-1.701,0.798-2.293
		c0.532-0.592,1.199-0.888,2.002-0.888c0.683,0,1.241,0.183,1.676,0.547c0.436,0.365,0.713,0.862,0.834,1.49h-1.024
		c-0.268-0.729-0.763-1.094-1.485-1.094c-0.535,0-0.96,0.209-1.274,0.627s-0.472,0.955-0.472,1.61c0,0.656,0.157,1.193,0.472,1.611
		s0.739,0.627,1.274,0.627c0.723,0,1.218-0.368,1.485-1.104h1.024c-0.121,0.635-0.398,1.135-0.834,1.5
		c-0.435,0.364-0.993,0.547-1.676,0.547C84.689,252.929,84.022,252.632,83.49,252.041z"/>
	<path fill="#585A5E" d="M89.718,252.829v-6.162h2.077c0.91,0,1.636,0.279,2.178,0.838s0.812,1.306,0.812,2.243
		c0,0.938-0.271,1.685-0.812,2.243s-1.268,0.838-2.178,0.838H89.718z M90.762,251.896h0.993c0.636,0,1.126-0.191,1.47-0.572
		c0.345-0.382,0.518-0.906,0.518-1.576c0-0.669-0.173-1.196-0.518-1.581c-0.344-0.384-0.834-0.577-1.47-0.577h-0.993V251.896z"/>
</g>
<rect x="32.873" y="67.249" fill="#FFFFFF" stroke="#A7A8AB" stroke-width="0.7458" stroke-miterlimit="10" width="97.943" height="55.925"/>
<g>
	<path fill="#585A5E" d="M73.546,79.544v6.162h-1.044v-6.162H73.546z"/>
	<path fill="#585A5E" d="M75.613,85.707v-6.162h2.077c0.909,0,1.636,0.279,2.178,0.838s0.813,1.307,0.813,2.243
		s-0.271,1.685-0.813,2.243s-1.269,0.838-2.178,0.838H75.613z M76.656,84.773h0.994c0.635,0,1.125-0.19,1.471-0.572
		c0.344-0.381,0.516-0.906,0.516-1.575s-0.172-1.196-0.516-1.581c-0.346-0.384-0.836-0.576-1.471-0.576h-0.994V84.773z"/>
	<path fill="#585A5E" d="M82.407,79.544h4.024v0.924h-3.001v1.625h2.72v0.913h-2.72v1.767h3.001v0.934h-4.024V79.544z"/>
	<path fill="#585A5E" d="M87.876,84.421h1.023c0.114,0.375,0.408,0.562,0.884,0.562c0.234,0,0.42-0.045,0.557-0.136
		c0.137-0.09,0.205-0.223,0.205-0.396c0-0.12-0.039-0.216-0.12-0.286c-0.08-0.07-0.214-0.128-0.401-0.175l-0.923-0.222
		c-0.736-0.174-1.104-0.582-1.104-1.224c0-0.401,0.159-0.734,0.477-0.999c0.318-0.264,0.721-0.396,1.21-0.396
		c0.509,0,0.913,0.116,1.214,0.347s0.492,0.554,0.572,0.969h-0.983c-0.101-0.328-0.372-0.492-0.813-0.492
		c-0.193,0-0.361,0.044-0.502,0.131c-0.14,0.087-0.21,0.214-0.21,0.381c0,0.194,0.153,0.331,0.462,0.411l0.943,0.221
		c0.762,0.181,1.144,0.603,1.144,1.265c0,0.436-0.162,0.781-0.487,1.039c-0.324,0.258-0.74,0.387-1.248,0.387
		c-0.522,0-0.953-0.124-1.29-0.372C88.146,85.188,87.943,84.85,87.876,84.421z"/>
</g>
<g>
	<line fill="none" stroke="#585A5E" stroke-miterlimit="10" x1="289.957" y1="359.08" x2="289.957" y2="349.4"/>
	<polygon fill="#585A5E" points="292.948,358.204 289.956,363.385 286.966,358.204 	"/>
</g>
<g>
	<line fill="none" stroke="#585A5E" stroke-miterlimit="10" x1="289.957" y1="222.83" x2="289.957" y2="213.15"/>
	<polygon fill="#585A5E" points="292.948,221.954 289.956,227.135 286.966,221.954 	"/>
</g>
<g>
	<line fill="none" stroke="#585A5E" stroke-miterlimit="10" x1="289.957" y1="139.318" x2="289.957" y2="129.638"/>
	<polygon fill="#585A5E" points="292.948,138.442 289.956,143.624 286.966,138.442 	"/>
</g>
<g>
	<g>
		<g>
			<g>
				<g>
					<path fill="#464646" d="M45.945,404.991h-3.684v-7.838h3.484c1.977,0,2.824,0.847,2.824,2.128c0,0.884-0.598,1.505-1.443,1.643
						c0.945,0.175,1.68,0.796,1.68,1.915C48.807,404.195,47.773,404.991,45.945,404.991z M43.779,400.414h1.867
						c0.934,0,1.332-0.41,1.332-0.996c0-0.584-0.398-1.008-1.332-1.008h-1.867V400.414z M43.779,401.594v2.141h1.99
						c0.972,0,1.444-0.41,1.444-1.058c0-0.659-0.473-1.083-1.444-1.083H43.779z"/>
					<path fill="#464646" d="M54.383,403.661c0,0.286,0.148,0.422,0.385,0.422c0.148,0,0.299-0.036,0.461-0.111v0.796
						c-0.236,0.188-0.535,0.349-1.032,0.349c-0.623,0-1.096-0.398-1.206-1.058c-0.312,0.647-1.008,1.07-1.917,1.07
						c-1.046,0-1.742-0.56-1.742-1.505c0-1.046,0.821-1.481,2.09-1.718l1.506-0.285v-0.162c0-0.609-0.323-0.983-0.958-0.983
						c-0.622,0-0.958,0.374-1.082,0.908l-1.356-0.124c0.187-1.12,1.046-1.904,2.501-1.904c1.418,0,2.352,0.673,2.352,2.115V403.661z
						 M52.927,402.428l-1.032,0.212c-0.684,0.137-1.107,0.312-1.107,0.82c0,0.386,0.273,0.673,0.759,0.673
						c0.784,0,1.381-0.585,1.381-1.518V402.428z"/>
					<path fill="#464646" d="M66.613,403.163c-0.274,1.244-1.246,1.979-2.651,1.979c-1.69,0-2.91-1.083-2.91-2.812
						c0-1.73,1.231-2.975,2.873-2.975c1.792,0,2.712,1.244,2.712,2.737v0.473H62.52c0.05,0.896,0.684,1.443,1.492,1.443
						c0.734,0,1.183-0.324,1.395-0.97L66.613,403.163z M65.182,401.782c-0.025-0.709-0.436-1.331-1.269-1.331
						c-0.821,0-1.281,0.597-1.369,1.331H65.182z"/>
					<path fill="#464646" d="M71.293,400.972c-0.287-0.161-0.534-0.236-0.896-0.236c-0.77,0-1.293,0.548-1.293,1.543v2.712h-1.492
						v-5.486h1.492v1.046c0.198-0.622,0.771-1.195,1.531-1.195c0.335,0,0.609,0.087,0.77,0.224L71.293,400.972z"/>
					<path fill="#464646" d="M72.034,397.153h1.53v1.457h-1.53V397.153z M73.551,399.504v5.486h-1.492v-5.486H73.551z"/>
					<path fill="#464646" d="M76.273,404.991H74.78v-5.486h1.493v0.896c0.273-0.623,0.971-1.046,1.791-1.046
						c1.469,0,2.004,0.995,2.004,2.215v3.421h-1.493v-3.122c0-0.846-0.335-1.331-1.069-1.331c-0.76,0-1.232,0.597-1.232,1.518
						V404.991z"/>
					<path fill="#464646" d="M86.002,403.661c0,0.286,0.148,0.422,0.386,0.422c0.148,0,0.299-0.036,0.46-0.111v0.796
						c-0.236,0.188-0.535,0.349-1.032,0.349c-0.622,0-1.095-0.398-1.207-1.058c-0.312,0.647-1.008,1.07-1.915,1.07
						c-1.046,0-1.742-0.56-1.742-1.505c0-1.046,0.82-1.481,2.09-1.718l1.505-0.285v-0.162c0-0.609-0.324-0.983-0.958-0.983
						c-0.622,0-0.957,0.374-1.082,0.908l-1.355-0.124c0.186-1.12,1.044-1.904,2.5-1.904c1.418,0,2.352,0.673,2.352,2.115V403.661z
						 M84.546,402.428l-1.032,0.212c-0.685,0.137-1.107,0.312-1.107,0.82c0,0.386,0.273,0.673,0.76,0.673
						c0.783,0,1.38-0.585,1.38-1.518V402.428z"/>
				</g>
				<g>
					<polygon fill="#464646" points="55.878,399.191 55.878,396.928 57.773,396.928 57.773,399.916 					"/>
					<polygon fill="#464646" points="55.878,399.9 57.176,400.396 55.878,400.891 					"/>
					<polygon fill="#464646" points="57.773,400.875 57.773,401.972 56.852,404.991 55.878,404.991 55.878,401.6 					"/>
				</g>
				<g>
					<polygon fill="#464646" points="60.324,399.191 60.324,396.928 58.431,396.928 58.431,399.916 					"/>
					<polygon fill="#464646" points="60.324,399.9 59.027,400.396 60.324,400.891 					"/>
					<polygon fill="#464646" points="58.431,400.875 58.431,401.972 59.352,404.991 60.324,404.991 60.324,401.6 					"/>
				</g>
			</g>
		</g>
		<g>
			<path fill="#41C4BF" d="M99.16,403.121c-0.264,1.251-1.175,2.022-2.516,2.022c-1.593,0-2.781-1.125-2.781-2.819
				c0-1.733,1.177-2.972,2.731-2.972c1.719,0,2.579,1.238,2.579,2.731v0.354H94.66c0.05,1.214,0.898,2.074,1.984,2.074
				c1.013,0,1.632-0.507,1.859-1.48L99.16,403.121z M98.353,401.893c-0.026-1.012-0.595-1.935-1.758-1.935
				c-1.087,0-1.795,0.91-1.923,1.935H98.353z"/>
			<path fill="#41C4BF" d="M101.222,404.991h-0.771v-5.487h0.771v1.011c0.266-0.669,1.024-1.162,1.848-1.162
				c1.416,0,2.01,0.923,2.01,2.237v3.401h-0.771v-3.426c0-0.975-0.507-1.606-1.442-1.606c-0.872,0-1.644,0.683-1.644,1.746V404.991z
				"/>
			<path fill="#41C4BF" d="M106.85,400.073h-0.848v-0.38l0.328-0.062c0.506-0.102,0.607-0.343,0.721-0.872l0.164-0.785h0.393v1.53
				h1.594v0.569h-1.594v3.718c0,0.492,0.202,0.732,0.709,0.732c0.379,0,0.758-0.188,1.074-0.379v0.543
				c-0.393,0.304-0.785,0.456-1.341,0.456c-0.733,0-1.2-0.367-1.2-1.365V400.073z"/>
			<path fill="#41C4BF" d="M113.513,400.275c-0.315-0.164-0.506-0.214-0.834-0.214c-0.798,0-1.442,0.82-1.442,1.921v3.009h-0.771
				v-5.487h0.771v1.15c0.214-0.632,0.771-1.302,1.581-1.302c0.341,0,0.581,0.074,0.783,0.253L113.513,400.275z"/>
			<path fill="#41C4BF" d="M118.71,404.069c0,0.29,0.177,0.43,0.454,0.43c0.127,0,0.341-0.052,0.493-0.14v0.417
				c-0.164,0.189-0.341,0.329-0.72,0.329c-0.544,0-0.936-0.468-0.962-1.163c-0.29,0.645-1.101,1.201-2.036,1.201
				c-1.023,0-1.706-0.568-1.706-1.517c0-1.038,0.91-1.455,2.276-1.733l1.466-0.304v-0.277c0-0.835-0.492-1.354-1.353-1.354
				c-0.887,0-1.379,0.519-1.568,1.227l-0.657-0.127c0.216-0.985,1.023-1.706,2.214-1.706c1.364,0,2.099,0.721,2.099,2.073V404.069z
				 M117.976,402.16l-1.341,0.29c-0.998,0.215-1.618,0.417-1.618,1.15c0,0.519,0.343,0.948,1.062,0.948
				c1.074,0,1.896-0.821,1.896-2.048V402.16z"/>
			<path fill="#41C4BF" d="M121.428,397.025v7.966h-0.771v-7.966H121.428z"/>
		</g>
	</g>
	<path fill="#41C4BF" d="M92.201,402.717c-0.094,1.022-0.734,1.781-1.865,1.781c-1.151,0-1.935-0.898-1.935-2.251
		c0-1.354,0.783-2.251,1.935-2.251c1.122,0,1.762,0.723,1.863,1.731l0.707-0.052c-0.128-1.29-0.983-2.324-2.545-2.324
		c-1.631,0-2.77,1.15-2.77,2.896s1.139,2.896,2.77,2.896c1.571,0,2.428-1.046,2.549-2.349L92.201,402.717z"/>
</g>
<g>
	<g>
		<g>
			<path fill-rule="evenodd" clip-rule="evenodd" fill="#585A5E" d="M77.289,101.703c0,2.354-0.002,4.708,0.002,7.062
				c0,0.109-0.033,0.161-0.137,0.202c-1.408,0.569-2.814,1.142-4.221,1.718c-0.105,0.043-0.166,0.03-0.246-0.05
				c-2.32-2.324-4.645-4.645-6.967-6.967c-0.104-0.102-0.104-0.102-0.215-0.016c-1.268,0.988-2.533,1.976-3.801,2.963
				c-0.197,0.153-0.396,0.305-0.592,0.46c-0.051,0.04-0.09,0.041-0.146,0.012c-0.541-0.272-1.082-0.543-1.623-0.812
				c-0.064-0.032-0.09-0.069-0.09-0.141c0.002-2.943,0.002-5.885,0-8.828c0-0.071,0.021-0.11,0.088-0.143
				c0.539-0.268,1.08-0.538,1.619-0.809c0.059-0.029,0.098-0.032,0.154,0.012c1.023,0.81,2.051,1.618,3.076,2.425
				c0.434,0.34,0.867,0.679,1.295,1.024c0.084,0.067,0.129,0.067,0.207-0.011c2.328-2.332,4.66-4.661,6.986-6.993
				c0.084-0.084,0.148-0.1,0.262-0.054c1.404,0.566,2.809,1.125,4.215,1.682c0.107,0.042,0.133,0.096,0.133,0.202
				C77.287,96.995,77.289,99.35,77.289,101.703z M72.77,105.393c0.008-0.005,0.018-0.011,0.025-0.017c0-2.438,0-4.876,0-7.349
				c-1.6,1.238-3.176,2.46-4.77,3.693C69.617,102.954,71.193,104.173,72.77,105.393z M61.043,104.524
				c0.047-0.044,0.074-0.067,0.1-0.093c0.334-0.347,0.67-0.694,1.006-1.04c0.516-0.533,1.033-1.064,1.553-1.594
				c0.061-0.062,0.059-0.097-0.002-0.156c-0.854-0.852-1.709-1.707-2.562-2.56c-0.025-0.024-0.055-0.043-0.094-0.075
				C61.043,100.852,61.043,102.674,61.043,104.524z"/>
		</g>
	</g>
	<g>
		<g>
			<path fill-rule="evenodd" clip-rule="evenodd" fill="#585A5E" d="M104.436,93.025c0,5.896,0,11.787,0,17.684
				c-5.896,0-11.791,0-17.688,0c0-5.894,0-11.787,0-17.684C92.643,93.025,98.535,93.025,104.436,93.025z M91.836,101.313
				c0-1.59,0-3.169,0-4.755c0.369,0,0.734,0,1.096,0c0-0.481,0-0.956,0-1.43c-1.252,0-2.5,0-3.75,0c0,0.479,0,0.953,0,1.434
				c0.367,0,0.732,0,1.098,0c0,1.586,0,3.166,0,4.753c-0.369,0-0.732,0-1.098,0c0,0.482,0,0.957,0,1.435c1.254,0,2.5,0,3.75,0
				c0-0.479,0-0.955,0-1.437C92.564,101.313,92.203,101.313,91.836,101.313z M94.156,101.737c0.004,0.009,0.008,0.015,0.012,0.02
				c0.346,0.415,0.762,0.735,1.271,0.924c0.576,0.216,1.17,0.229,1.768,0.115c0.863-0.165,1.451-0.655,1.734-1.494
				c0.145-0.427,0.188-0.87,0.188-1.318c0.002-1.595,0.002-3.188,0.002-4.783c0-0.023,0-0.047,0-0.073c-0.559,0-1.105,0-1.662,0
				c0,0.034,0,0.064,0,0.095c0,1.588,0.002,3.176,0,4.763c0,0.163-0.014,0.327-0.037,0.488c-0.031,0.213-0.107,0.412-0.258,0.572
				c-0.234,0.25-0.539,0.296-0.861,0.258c-0.332-0.04-0.604-0.21-0.848-0.431c-0.102-0.093-0.197-0.191-0.301-0.29
				C94.828,100.966,94.492,101.351,94.156,101.737z M88.518,108.276c2.211,0,4.42,0,6.625,0c0-0.369,0-0.733,0-1.095
				c-2.211,0-4.418,0-6.625,0C88.518,107.548,88.518,107.91,88.518,108.276z"/>
		</g>
	</g>
</g>
</svg>
