<?xml version="1.0" encoding="utf-8"?>
<!-- Generator: Adobe Illustrator 16.0.0, SVG Export Plug-In . SVG Version: 6.00 Build 0)  -->
<!DOCTYPE svg PUBLIC "-//W3C//DTD SVG 1.1//EN" "http://www.w3.org/Graphics/SVG/1.1/DTD/svg11.dtd">
<svg version="1.1" id="Layer_1" xmlns="http://www.w3.org/2000/svg" xmlns:xlink="http://www.w3.org/1999/xlink" x="0px" y="0px"
	 width="18.836px" height="15.309px" viewBox="0 0 18.836 15.309" enable-background="new 0 0 18.836 15.309" xml:space="preserve">
<path fill="#3AD1CA" d="M18.836,1.812C18.143,2.12,17.4,2.327,16.617,2.425c0.797-0.481,1.408-1.24,1.701-2.142
	c-0.749,0.443-1.574,0.766-2.455,0.941C15.158,0.47,14.15,0,13.045,0C10.91,0,9.176,1.731,9.176,3.863
	c0,0.305,0.031,0.597,0.1,0.881c-3.21-0.161-6.057-1.698-7.963-4.035C0.979,1.277,0.791,1.943,0.791,2.652
	c0,1.342,0.68,2.525,1.717,3.219C1.871,5.848,1.279,5.674,0.757,5.387v0.049c0,1.871,1.327,3.434,3.098,3.786
	C3.533,9.313,3.19,9.358,2.836,9.358c-0.247,0-0.488-0.021-0.728-0.072c0.492,1.539,1.925,2.658,3.61,2.686
	C4.4,13.008,2.73,13.625,0.918,13.625c-0.308,0-0.615-0.018-0.918-0.053c1.709,1.098,3.74,1.736,5.922,1.736
	c7.105,0,10.996-5.889,10.996-10.992c0-0.167-0.004-0.337-0.008-0.501C17.659,3.272,18.318,2.59,18.836,1.812"/>
</svg>
