<?xml version="1.0" encoding="utf-8"?>
<!-- Generator: Adobe Illustrator 27.6.1, SVG Export Plug-In . SVG Version: 6.00 Build 0)  -->
<svg version="1.2" baseProfile="tiny" xmlns="http://www.w3.org/2000/svg" xmlns:xlink="http://www.w3.org/1999/xlink" x="0px"
	 y="0px" viewBox="0 0 133.96 40.6" overflow="visible" xml:space="preserve">
<g id="Layer_2" display="none">
	<rect x="-87" y="-321.15" display="inline" fill="#1A1A1A" width="323.19" height="458.54"/>
</g>
<g id="Layer_1">
	<g>
		<g>
			<g>
				<g>
					<g>
						<path fill="#FFFFFF" d="M11.06,24.23H0V0.68h10.47c5.94,0,8.49,2.54,8.49,6.39c0,2.65-1.79,4.52-4.34,4.93
							c2.84,0.52,5.05,2.39,5.05,5.76C19.66,21.83,16.56,24.23,11.06,24.23z M4.56,10.47h5.61c2.8,0,4-1.23,4-2.99
							c0-1.76-1.2-3.03-4-3.03H4.56V10.47z M4.56,14.02v6.43h5.98c2.92,0,4.34-1.23,4.34-3.18c0-1.98-1.42-3.25-4.34-3.25H4.56z"/>
						<path fill="#FFFFFF" d="M36.42,20.23c0,0.86,0.45,1.27,1.16,1.27c0.45,0,0.9-0.11,1.38-0.34v2.39
							c-0.71,0.56-1.61,1.05-3.1,1.05c-1.87,0-3.29-1.2-3.63-3.18c-0.93,1.94-3.03,3.22-5.76,3.22c-3.14,0-5.23-1.68-5.23-4.52
							c0-3.14,2.47-4.45,6.28-5.16l4.52-0.86v-0.49c0-1.83-0.97-2.95-2.88-2.95c-1.87,0-2.88,1.12-3.25,2.73l-4.08-0.37
							c0.56-3.36,3.14-5.72,7.51-5.72c4.26,0,7.06,2.02,7.06,6.36V20.23z M32.04,16.53l-3.1,0.64c-2.06,0.41-3.33,0.93-3.33,2.47
							c0,1.16,0.82,2.02,2.28,2.02c2.36,0,4.15-1.76,4.15-4.56V16.53z"/>
						<path fill="#FFFFFF" d="M73.16,18.73c-0.82,3.74-3.74,5.94-7.96,5.94c-5.08,0-8.75-3.25-8.75-8.45c0-5.2,3.7-8.93,8.63-8.93
							c5.38,0,8.15,3.74,8.15,8.22v1.42H60.86c0.15,2.69,2.06,4.33,4.49,4.33c2.21,0,3.55-0.97,4.19-2.91L73.16,18.73z M68.86,14.58
							c-0.07-2.13-1.31-4-3.81-4c-2.47,0-3.85,1.79-4.11,4H68.86z"/>
						<path fill="#FFFFFF" d="M87.22,12.15c-0.86-0.49-1.61-0.71-2.69-0.71c-2.32,0-3.89,1.64-3.89,4.63v8.15h-4.49V7.74h4.49v3.14
							c0.6-1.87,2.32-3.59,4.6-3.59c1.01,0,1.83,0.26,2.32,0.67L87.22,12.15z"/>
						<path fill="#FFFFFF" d="M89.45,0.68h4.6v4.37h-4.6V0.68z M94.01,7.74v16.48h-4.49V7.74H94.01z"/>
						<path fill="#FFFFFF" d="M102.19,24.23H97.7V7.74h4.49v2.69c0.82-1.87,2.92-3.14,5.38-3.14c4.41,0,6.02,2.99,6.02,6.65v10.28
							h-4.48v-9.38c0-2.54-1.01-4-3.21-4c-2.28,0-3.7,1.79-3.7,4.56V24.23z"/>
						<path fill="#FFFFFF" d="M131.42,20.23c0,0.86,0.45,1.27,1.16,1.27c0.45,0,0.9-0.11,1.38-0.34v2.39
							c-0.71,0.56-1.61,1.05-3.1,1.05c-1.87,0-3.29-1.2-3.63-3.18c-0.93,1.94-3.03,3.22-5.76,3.22c-3.14,0-5.23-1.68-5.23-4.52
							c0-3.14,2.47-4.45,6.28-5.16l4.52-0.86v-0.49c0-1.83-0.97-2.95-2.88-2.95c-1.87,0-2.88,1.12-3.25,2.73l-4.07-0.37
							c0.56-3.36,3.14-5.72,7.51-5.72c4.26,0,7.06,2.02,7.06,6.36V20.23z M127.04,16.53l-3.1,0.64c-2.06,0.41-3.33,0.93-3.33,2.47
							c0,1.16,0.82,2.02,2.28,2.02c2.36,0,4.15-1.76,4.15-4.56V16.53z"/>
					</g>
					<g>
						<polygon fill="#FFFFFF" points="40.91,6.8 40.91,0 46.6,0 46.6,8.98 						"/>
						<polygon fill="#FFFFFF" points="40.91,8.93 44.81,10.42 40.91,11.91 						"/>
						<polygon fill="#FFFFFF" points="46.6,11.86 46.6,15.15 43.84,24.23 40.91,24.23 40.91,14.04 						"/>
					</g>
					<g>
						<polygon fill="#FFFFFF" points="54.27,6.8 54.27,0 48.58,0 48.58,8.98 						"/>
						<polygon fill="#FFFFFF" points="54.27,8.93 50.37,10.42 54.27,11.91 						"/>
						<polygon fill="#FFFFFF" points="48.58,11.86 48.58,15.15 51.34,24.23 54.27,24.23 54.27,14.04 						"/>
					</g>
				</g>
			</g>
		</g>
		<g>
			<path fill="#53C3C2" d="M60.19,37.65c0-0.48-0.17-0.85-0.5-1.1c-0.34-0.26-0.94-0.52-1.82-0.78c-0.88-0.26-1.57-0.56-2.09-0.88
				c-0.99-0.62-1.49-1.43-1.49-2.43c0-0.88,0.36-1.6,1.07-2.16c0.71-0.57,1.64-0.85,2.78-0.85c0.76,0,1.43,0.14,2.02,0.42
				c0.59,0.28,1.06,0.68,1.4,1.19c0.34,0.51,0.51,1.09,0.51,1.71h-1.88c0-0.57-0.18-1.01-0.53-1.33c-0.36-0.32-0.86-0.48-1.53-0.48
				c-0.62,0-1.1,0.13-1.44,0.4c-0.34,0.26-0.51,0.63-0.51,1.1c0,0.4,0.18,0.73,0.55,1c0.37,0.27,0.98,0.53,1.82,0.78
				c0.85,0.25,1.53,0.54,2.04,0.86c0.51,0.32,0.89,0.69,1.13,1.1s0.36,0.9,0.36,1.46c0,0.91-0.35,1.63-1.04,2.16
				c-0.69,0.53-1.64,0.8-2.82,0.8c-0.79,0-1.51-0.15-2.17-0.44c-0.66-0.29-1.17-0.69-1.54-1.21c-0.37-0.51-0.55-1.11-0.55-1.79h1.89
				c0,0.62,0.2,1.09,0.61,1.43c0.41,0.34,0.99,0.51,1.75,0.51c0.66,0,1.15-0.13,1.48-0.4C60.02,38.44,60.19,38.09,60.19,37.65z"/>
			<path fill="#53C3C2" d="M71.88,37.76l1.67-8.18h1.87l-2.51,10.87h-1.81l-2.07-7.93l-2.11,7.93h-1.81l-2.51-10.87h1.87l1.69,8.16
				l2.07-8.16h1.58L71.88,37.76z"/>
			<path fill="#53C3C2" d="M82.18,37.92h-4.21l-0.88,2.53h-1.96l4.1-10.87h1.69l4.11,10.87h-1.97L82.18,37.92z M78.5,36.4h3.15
				l-1.57-4.51L78.5,36.4z"/>
			<path fill="#53C3C2" d="M94.51,40.45h-1.89l-4.84-7.71v7.71h-1.89V29.58h1.89l4.86,7.74v-7.74h1.87V40.45z"/>
			<path fill="#53C3C2" d="M101.67,38.94h4.93v1.51h-6.82V29.58h1.89V38.94z"/>
			<path fill="#53C3C2" d="M113.89,37.92h-4.21l-0.88,2.53h-1.96l4.1-10.87h1.69l4.11,10.87h-1.97L113.89,37.92z M110.21,36.4h3.15
				l-1.57-4.51L110.21,36.4z"/>
			<path fill="#53C3C2" d="M120.72,35.75l-1.23,1.31v3.39h-1.89V29.58h1.89v5.1l1.04-1.29l3.18-3.81H126l-4.04,4.81l4.27,6.05h-2.24
				L120.72,35.75z"/>
			<path fill="#53C3C2" d="M133.2,35.6h-4.46v3.34h5.22v1.51h-7.1V29.58h7.05v1.52h-5.16v3h4.46V35.6z"/>
		</g>
	</g>
</g>
</svg>
