<?xml version="1.0" encoding="utf-8"?>
<!-- Generator: Adobe Illustrator 26.0.1, SVG Export Plug-In . SVG Version: 6.00 Build 0)  -->
<svg version="1.1" id="Layer_1" xmlns="http://www.w3.org/2000/svg" xmlns:xlink="http://www.w3.org/1999/xlink" x="0px" y="0px"
	 viewBox="0 0 15.4 15.4" style="enable-background:new 0 0 15.4 15.4;" xml:space="preserve">
<style type="text/css">
	.st0{fill:#595B5F;}
</style>
<g>
	<g>
		<path class="st0" d="M12.9,1.4c-1-0.4-2-0.8-3-0.9c0,0,0,0,0,0C9.7,0.7,9.5,1,9.4,1.3C8.3,1.1,7.1,1.1,6,1.3
			C5.9,1,5.7,0.7,5.6,0.5c0,0,0,0,0,0C4.5,0.7,3.5,1,2.5,1.4c0,0,0,0,0,0C0.6,4.3,0,7.1,0.3,9.9c0,0,0,0,0,0
			c1.3,0.9,2.5,1.5,3.7,1.9c0,0,0,0,0.1,0c0.3-0.4,0.5-0.8,0.8-1.2c0,0,0-0.1,0-0.1C4.4,10.4,4,10.2,3.7,10c0,0,0-0.1,0-0.1
			c0.1-0.1,0.2-0.1,0.2-0.2c0,0,0,0,0,0c2.4,1.1,5.1,1.1,7.5,0c0,0,0,0,0,0c0.1,0.1,0.2,0.1,0.2,0.2c0,0,0,0.1,0,0.1
			c-0.4,0.2-0.8,0.4-1.2,0.6c0,0,0,0,0,0.1c0.2,0.4,0.5,0.8,0.8,1.2c0,0,0,0,0.1,0c1.2-0.4,2.5-0.9,3.7-1.9c0,0,0,0,0,0
			C15.4,6.7,14.6,3.9,12.9,1.4C12.9,1.4,12.9,1.4,12.9,1.4z M5.2,8.2c-0.7,0-1.3-0.7-1.3-1.5s0.6-1.5,1.3-1.5c0.8,0,1.4,0.7,1.3,1.5
			C6.6,7.5,6,8.2,5.2,8.2z M10.2,8.2c-0.7,0-1.3-0.7-1.3-1.5s0.6-1.5,1.3-1.5c0.8,0,1.4,0.7,1.3,1.5C11.5,7.5,10.9,8.2,10.2,8.2z"/>
	</g>
</g>
</svg>
