<?xml version="1.0" encoding="utf-8"?>
<!-- Generator: Adobe Illustrator 16.0.0, SVG Export Plug-In . SVG Version: 6.00 Build 0)  -->
<!DOCTYPE svg PUBLIC "-//W3C//DTD SVG 1.1//EN" "http://www.w3.org/Graphics/SVG/1.1/DTD/svg11.dtd">
<svg version="1.1" id="Layer_1" xmlns="http://www.w3.org/2000/svg" xmlns:xlink="http://www.w3.org/1999/xlink" x="0px" y="0px"
	 width="18px" height="17.557px" viewBox="0 0 18 17.557" enable-background="new 0 0 18 17.557" xml:space="preserve">
<path fill="#20B6B0" d="M9,0C4.03,0,0,4.029,0,9.001c0,3.977,2.579,7.35,6.156,8.539c0.449,0.083,0.614-0.193,0.614-0.434
	c0-0.214-0.008-0.779-0.013-1.53c-2.503,0.544-3.031-1.207-3.031-1.207c-0.41-1.039-1-1.315-1-1.315
	c-0.816-0.56,0.062-0.548,0.062-0.548c0.903,0.063,1.379,0.929,1.379,0.929c0.803,1.375,2.105,0.978,2.619,0.748
	C6.868,13.6,7.1,13.203,7.357,12.978c-1.999-0.228-4.1-0.999-4.1-4.447c0-0.983,0.351-1.786,0.927-2.415
	C4.093,5.887,3.783,4.973,4.273,3.733c0,0,0.756-0.242,2.475,0.922c0.718-0.199,1.488-0.299,2.254-0.303
	c0.764,0.004,1.533,0.104,2.253,0.303c1.718-1.164,2.472-0.922,2.472-0.922c0.491,1.239,0.184,2.152,0.09,2.382
	c0.578,0.629,0.927,1.432,0.927,2.415c0,3.457-2.104,4.218-4.109,4.44c0.322,0.277,0.611,0.826,0.611,1.667
	c0,1.202-0.013,2.174-0.013,2.469c0,0.241,0.162,0.521,0.619,0.433C15.425,16.347,18,12.976,18,9.001C18,4.029,13.971,0,9,0z"/>
</svg>
