<?xml version="1.0" encoding="UTF-8"?>
<svg id="a" data-name="Layer 1" xmlns="http://www.w3.org/2000/svg" xmlns:xlink="http://www.w3.org/1999/xlink" viewBox="0 0 125 125">
  <defs>
    <style>
      .d {
        fill: none;
      }

      .e {
        opacity: .6;
      }

      .f {
        clip-path: url(#b);
      }

      .g {
        clip-path: url(#c);
      }
    </style>
    <clipPath id="b">
      <rect class="d" x="5.19" y="40.69" width="11.71" height="11.71" transform="translate(-29.77 21.59) rotate(-45.21)"/>
    </clipPath>
    <clipPath id="c">
      <rect class="d" x="30.24" y="43.01" width="6.87" height="6.87" transform="translate(-23.01 37.62) rotate(-45.21)"/>
    </clipPath>
  </defs>
  <path d="M15.99,80.23c.89,1.18,2.04,2.13,3.36,2.79,1.43,.71,3.01,1.07,4.61,1.05,1.29,.03,2.58-.19,3.79-.65,.97-.38,1.83-.98,2.52-1.76,.65-.76,1.12-1.65,1.38-2.61,.29-1.04,.43-2.11,.42-3.19v-3.74h-.09c-.84,1.33-2.05,2.38-3.48,3.03-1.36,.59-2.84,.9-4.32,.89-1.46,.01-2.9-.26-4.26-.8-1.28-.51-2.45-1.26-3.45-2.21-.99-.95-1.78-2.1-2.32-3.37-.57-1.34-.86-2.78-.85-4.23-.01-1.45,.26-2.89,.8-4.23,.51-1.27,1.26-2.44,2.21-3.43,.94-.99,2.08-1.77,3.34-2.3,1.35-.56,2.8-.84,4.26-.82,.66,0,1.33,.06,1.98,.18,.72,.13,1.42,.34,2.09,.62,1.59,.69,2.97,1.8,3.99,3.21h.09v-3.48h2.94v20.68c-.01,1.22-.15,2.43-.42,3.61-.28,1.28-.85,2.48-1.65,3.52-.91,1.15-2.08,2.06-3.41,2.67-1.46,.71-3.36,1.07-5.7,1.07-1.91,.03-3.8-.32-5.57-1.02-1.69-.73-3.21-1.8-4.46-3.16l2.18-2.32Zm.53-14.88c0,1.06,.2,2.11,.6,3.1,.39,.94,.94,1.8,1.65,2.54,.7,.73,1.53,1.32,2.45,1.74,.96,.44,2,.66,3.05,.65,2.08,0,4.09-.78,5.62-2.21,.75-.71,1.33-1.56,1.72-2.52,.41-1.05,.6-2.17,.56-3.3,0-1.06-.17-2.11-.53-3.1-.34-.94-.87-1.81-1.56-2.54-.71-.74-1.55-1.33-2.5-1.74-1.04-.44-2.17-.66-3.3-.65-1.05,0-2.09,.21-3.05,.65-.92,.42-1.75,1.01-2.45,1.74-.7,.74-1.26,1.6-1.65,2.54-.4,.98-.61,2.04-.6,3.1Zm30.48,10.7h-3.21v-31.55h9.72c3.21,0,5.74,.7,7.6,2.09,1.86,1.4,2.79,3.51,2.79,6.33,.06,2.05-.69,4.04-2.07,5.55-1.38,1.5-3.38,2.37-5.99,2.61l9.09,14.97h-3.92l-8.65-14.66h-5.35v14.66Zm0-17.6h5.7c1.23,.03,2.45-.12,3.63-.45,.87-.23,1.68-.63,2.38-1.18,.57-.46,1.02-1.06,1.29-1.74,.27-.69,.41-1.42,.4-2.16,0-.72-.13-1.44-.4-2.12-.28-.68-.72-1.29-1.29-1.76-.7-.56-1.51-.96-2.38-1.18-1.19-.31-2.41-.45-3.63-.42h-5.7v11.01Zm23.44-13.95h9.18c3.21,0,5.74,.7,7.6,2.09,1.86,1.4,2.79,3.51,2.79,6.33,0,2.82-.93,4.94-2.79,6.35-1.86,1.41-4.39,2.12-7.6,2.12h-5.97v14.66h-3.21v-31.55Zm3.21,13.95h5.17c1.23,.03,2.45-.12,3.63-.45,.87-.23,1.68-.63,2.38-1.18,.57-.46,1.02-1.06,1.29-1.74,.27-.69,.41-1.42,.4-2.16,0-.72-.13-1.44-.4-2.12-.28-.68-.72-1.29-1.29-1.76-.7-.56-1.51-.96-2.38-1.18-1.19-.31-2.41-.45-3.63-.42h-5.17v11.01Zm48.58,12.61c-.56,.84-1.23,1.6-1.98,2.27-.81,.73-1.72,1.35-2.7,1.85-1.04,.53-2.14,.94-3.28,1.23-1.22,.3-2.47,.45-3.72,.45-2.24,.02-4.46-.4-6.53-1.25-3.95-1.6-7.08-4.73-8.67-8.69-.85-2.11-1.27-4.37-1.25-6.64-.03-2.27,.4-4.53,1.25-6.64,1.59-3.96,4.72-7.09,8.67-8.69,2.07-.84,4.29-1.27,6.53-1.25,2.02,.01,4.01,.4,5.88,1.16,1.99,.8,3.74,2.12,5.04,3.83l-2.81,2.09c-.38-.56-.83-1.07-1.34-1.52-.59-.52-1.24-.97-1.94-1.34-.75-.39-1.53-.71-2.34-.94-.81-.23-1.65-.35-2.5-.36-1.87-.03-3.73,.35-5.44,1.11-1.55,.7-2.94,1.72-4.08,2.99-1.13,1.27-2,2.75-2.56,4.35-1.19,3.36-1.19,7.02,0,10.38,.57,1.6,1.44,3.08,2.56,4.35,1.14,1.27,2.53,2.28,4.08,2.99,1.71,.77,3.56,1.15,5.44,1.11,.83,0,1.66-.07,2.47-.22,.83-.15,1.64-.41,2.41-.76,.81-.37,1.56-.86,2.23-1.45,.75-.67,1.4-1.44,1.94-2.29l2.63,1.87Z"/>
  <g class="e">
    <path d="M11.08,54.82L2.77,46.57l8.25-8.31,8.31,8.25-8.25,8.31Z"/>
    <g class="f">
      <g>
        <path d="M2.91,38.26l-.15,1.3v-1.3h.15Zm.19,0l-.34,3.01v-1.71l.15-1.3s.19,0,.19,0Zm.19,0l-.53,4.72v-1.71l.34-3.01s.19,0,.19,0Zm.19,0l-.73,6.44v-1.71l.53-4.72h.19Z"/>
        <path d="M3.69,38.26l-.92,8.15v-1.71l.73-6.44h.19Z"/>
        <path d="M3.88,38.26l-1.11,9.86v-1.71l.92-8.15h.19Zm.19,0l-1.31,11.58v-1.71l1.11-9.86h.19Z"/>
        <path d="M4.27,38.26l-1.5,13.29v-1.71l1.31-11.58s.19,0,.19,0Z"/>
        <path d="M4.46,38.26l-1.69,15v-1.71l1.5-13.29s.19,0,.19,0Z"/>
        <path d="M4.65,38.26l-1.87,16.55h-.02v-1.55l1.69-15s.19,0,.19,0Z"/>
        <path d="M4.85,38.26l-1.87,16.56h-.19s1.87-16.56,1.87-16.56c0,0,.19,0,.19,0Z"/>
        <path d="M5.04,38.26l-1.87,16.56h-.19l1.87-16.56h.19Z"/>
        <path d="M5.24,38.26l-1.87,16.56h-.19l1.87-16.56h.19Z"/>
        <path d="M5.43,38.26l-1.87,16.56h-.19l1.87-16.56h.19Z"/>
        <path d="M5.62,38.26l-1.87,16.56h-.19l1.87-16.56s.19,0,.19,0Z"/>
        <path d="M5.82,38.26l-1.87,16.56h-.19l1.87-16.56h.19Z"/>
        <path d="M6.01,38.26l-1.87,16.56h-.19l1.87-16.56s.19,0,.19,0Z"/>
        <path d="M6.2,38.26l-1.87,16.56h-.19l1.87-16.56s.19,0,.19,0Z"/>
        <path d="M6.4,38.26l-1.87,16.56h-.19l1.87-16.56s.19,0,.19,0Z"/>
        <path d="M6.59,38.26l-1.87,16.56h-.19l1.87-16.56s.19,0,.19,0Z"/>
        <path d="M6.78,38.26l-1.87,16.56h-.19l1.87-16.56s.19,0,.19,0Z"/>
        <path d="M6.98,38.26l-1.87,16.56h-.19l1.87-16.56s.19,0,.19,0Z"/>
        <path d="M7.17,38.26l-1.87,16.56h-.19l1.87-16.56s.19,0,.19,0Z"/>
        <path d="M7.36,38.26l-1.87,16.56h-.19l1.87-16.56s.19,0,.19,0Z"/>
        <path d="M7.56,38.26l-1.87,16.56h-.19l1.87-16.56s.19,0,.19,0Z"/>
        <path d="M7.75,38.26l-1.87,16.56h-.19l1.87-16.56s.19,0,.19,0Zm.19,0l-1.87,16.56h-.19l1.87-16.56s.19,0,.19,0Z"/>
        <path d="M8.14,38.26l-1.87,16.56h-.19l1.87-16.56s.19,0,.19,0Z"/>
        <path d="M8.33,38.26l-1.87,16.56h-.19l1.87-16.56s.19,0,.19,0Z"/>
        <path d="M8.53,38.26l-1.87,16.56h-.19l1.87-16.56s.19,0,.19,0Z"/>
        <path d="M8.72,38.26l-1.87,16.56h-.19l1.87-16.56s.19,0,.19,0Z"/>
        <path d="M8.91,38.26l-1.87,16.56h-.19l1.87-16.56s.19,0,.19,0Z"/>
        <path d="M9.11,38.26l-1.87,16.56h-.19l1.87-16.56s.19,0,.19,0Z"/>
        <path d="M9.3,38.26l-1.87,16.56h-.19l1.87-16.56s.19,0,.19,0Z"/>
        <path d="M9.49,38.26l-1.87,16.56h-.19l1.87-16.56h.19Z"/>
        <path d="M9.69,38.26l-1.87,16.56h-.19l1.87-16.56s.19,0,.19,0Z"/>
        <path d="M9.88,38.26l-1.87,16.56h-.19l1.87-16.56s.19,0,.19,0Z"/>
        <path d="M10.07,38.26l-1.87,16.56h-.19l1.87-16.56s.19,0,.19,0Z"/>
        <path d="M10.27,38.26l-1.87,16.56h-.19l1.87-16.56s.19,0,.19,0Z"/>
        <path d="M10.46,38.26l-1.87,16.56h-.19l1.87-16.56s.19,0,.19,0Z"/>
        <path d="M10.66,38.26l-1.87,16.56h-.19l1.87-16.56s.19,0,.19,0Z"/>
        <path d="M10.85,38.26l-1.87,16.56h-.19l1.87-16.56s.19,0,.19,0Z"/>
        <path d="M11.04,38.26l-1.87,16.56h-.19l1.87-16.56s.19,0,.19,0Z"/>
        <path d="M11.24,38.26l-1.87,16.56h-.19l1.87-16.56s.19,0,.19,0Z"/>
        <path d="M11.43,38.26l-1.87,16.56h-.19l1.87-16.56s.19,0,.19,0Z"/>
        <path d="M11.62,38.26l-1.87,16.56h-.19l1.87-16.56s.19,0,.19,0Z"/>
        <path d="M11.82,38.26l-1.87,16.56h-.19l1.87-16.56s.19,0,.19,0Z"/>
        <path d="M12.01,38.26l-1.87,16.56h-.19l1.87-16.56s.19,0,.19,0Z"/>
        <path d="M12.2,38.26l-1.87,16.56h-.19l1.87-16.56s.19,0,.19,0Z"/>
        <path d="M12.4,38.26l-1.87,16.56h-.19l1.87-16.56s.19,0,.19,0Z"/>
        <path d="M12.59,38.26l-1.87,16.56h-.19l1.87-16.56s.19,0,.19,0Z"/>
        <path d="M12.78,38.26l-1.87,16.56h-.19l1.87-16.56s.19,0,.19,0Z"/>
        <path d="M12.98,38.26l-1.87,16.56h-.19l1.87-16.56s.19,0,.19,0Z"/>
        <path d="M13.17,38.26l-1.87,16.56h-.19l1.87-16.56h.19Z"/>
        <path d="M13.36,38.26l-1.87,16.56h-.19l1.87-16.56s.19,0,.19,0Z"/>
        <path d="M13.56,38.26l-1.87,16.56h-.19l1.87-16.56h.19Z"/>
        <path d="M13.75,38.26l-1.87,16.56h-.19l1.87-16.56s.19,0,.19,0Z"/>
        <path d="M13.95,38.26l-1.87,16.56h-.19l1.87-16.56s.19,0,.19,0Z"/>
        <path d="M14.14,38.26l-1.87,16.56h-.19l1.87-16.56s.19,0,.19,0Z"/>
        <path d="M14.33,38.26l-1.87,16.56h-.19l1.87-16.56s.19,0,.19,0Z"/>
        <path d="M14.53,38.26l-1.87,16.56h-.19l1.87-16.56s.19,0,.19,0Z"/>
        <path d="M14.72,38.26l-1.87,16.56h-.19l1.87-16.56s.19,0,.19,0Z"/>
        <path d="M14.91,38.26l-1.87,16.56h-.19l1.87-16.56s.19,0,.19,0Z"/>
        <path d="M15.11,38.26l-1.87,16.56h-.19l1.87-16.56s.19,0,.19,0Z"/>
        <path d="M15.3,38.26l-1.87,16.56h-.19l1.87-16.56s.19,0,.19,0Z"/>
        <path d="M15.49,38.26l-1.87,16.56h-.19l1.87-16.56s.19,0,.19,0Z"/>
        <path d="M15.69,38.26l-1.87,16.56h-.19l1.87-16.56s.19,0,.19,0Z"/>
        <path d="M15.88,38.26l-1.87,16.56h-.19l1.87-16.56s.19,0,.19,0Z"/>
        <path d="M16.07,38.26l-1.87,16.56h-.19l1.87-16.56s.19,0,.19,0Z"/>
        <path d="M19.22,38.26h.11v16.56h-5.12l1.87-16.56s3.14,0,3.14,0Z"/>
      </g>
    </g>
  </g>
  <g class="e">
    <path d="M33.69,51.3l-4.87-4.84,4.84-4.87,4.87,4.84-4.84,4.87Z"/>
    <g class="g">
      <g>
        <path d="M38.53,44.42l-.13-2.84h.13v2.84Z"/>
        <path d="M38.53,47.4l-.27-5.82h.14l.13,2.84v2.98Z"/>
        <path d="M38.53,50.38l-.41-8.8h.14l.27,5.82v2.98Zm-.1,.91l-.45-9.71h.14l.41,8.8v.91h-.1Z"/>
        <path d="M38.29,51.3l-.45-9.71h.14l.45,9.71h-.14Zm-.14,0l-.45-9.71h.14l.45,9.71h-.14Zm-.14,0l-.45-9.71h.14l.45,9.71h-.14Zm-.14,0l-.45-9.71h.14l.45,9.71h-.14Zm-.14,0l-.45-9.71h.14l.45,9.71h-.14Zm-.14,0l-.45-9.71h.14l.45,9.71h-.14Zm-.14,0l-.45-9.71h.14l.45,9.71h-.14Zm-.14,0l-.45-9.71h.14l.45,9.71h-.14Zm-.14,0l-.45-9.71h.14l.45,9.71h-.14Zm-.14,0l-.45-9.71h.14l.45,9.71h-.14Zm-.14,0l-.45-9.71h.14l.45,9.71h-.14Zm-.14,0l-.45-9.71h.14l.45,9.71h-.14Zm-.14,0l-.45-9.71h.14l.45,9.71h-.14Zm-.14,0l-.45-9.71h.14l.45,9.71h-.14Zm-.14,0l-.45-9.71h.14l.45,9.71h-.14Zm-.14,0l-.45-9.71h.14l.45,9.71h-.14Zm-.14,0l-.45-9.71h.14l.45,9.71h-.14Zm-.14,0l-.45-9.71h.14l.45,9.71h-.14Zm-.14,0l-.45-9.71h.14l.45,9.71h-.14Zm-.14,0l-.45-9.71h.14l.45,9.71h-.14Zm-.14,0l-.45-9.71h.14l.45,9.71h-.14Zm-.14,0l-.45-9.71h.14l.45,9.71h-.14Zm-.14,0l-.45-9.71h.14l.45,9.71h-.14Zm-.14,0l-.45-9.71h.14l.45,9.71h-.14Zm-.14,0l-.45-9.71h.14l.45,9.71h-.14Zm-.14,0l-.45-9.71h.14l.45,9.71h-.14Zm-.14,0l-.45-9.71h.14l.45,9.71h-.14Zm-.14,0l-.45-9.71h.14l.45,9.71h-.14Zm-.14,0l-.45-9.71h.14l.45,9.71h-.14Zm-.14,0l-.45-9.71h.14l.45,9.71h-.14Zm-.14,0l-.45-9.71h.14l.45,9.71h-.14Zm-.14,0l-.45-9.71h.14l.45,9.71h-.14Zm-.14,0l-.45-9.71h.14l.45,9.71h-.14Zm-.14,0l-.45-9.71h.14l.45,9.71h-.14Zm-.14,0l-.45-9.71h.14l.45,9.71h-.14Zm-.14,0l-.45-9.71h.14l.45,9.71h-.14Zm-.14,0l-.45-9.71h.14l.45,9.71h-.14Zm-.14,0l-.45-9.71h.14l.45,9.71h-.14Zm-.14,0l-.45-9.71h.14l.45,9.71h-.14Zm-.14,0l-.45-9.71h.14l.45,9.71h-.14Zm-.14,0l-.45-9.71h.14l.45,9.71h-.14Zm-.14,0l-.45-9.71h.14l.45,9.71h-.14Zm-.14,0l-.45-9.71h.14l.45,9.71h-.14Zm-.14,0l-.45-9.71h.14l.45,9.71h-.14Zm-.14,0l-.45-9.71h.14l.45,9.71h-.14Zm-.14,0l-.45-9.71h.14l.45,9.71h-.14Zm-.14,0l-.45-9.71h.14l.45,9.71h-.14Zm-.14,0l-.45-9.71h.14l.45,9.71h-.14Zm-.14,0l-.45-9.71h.14l.45,9.71h-.14Zm-.14,0l-.45-9.71h.14l.45,9.71h-.14Zm-.14,0l-.45-9.71h.14l.45,9.71h-.14Zm-.14,0l-.45-9.71h.14l.45,9.71h-.14Zm-.14,0l-.45-9.71h.14l.45,9.71h-.14Zm-.14,0l-.45-9.71h.14l.45,9.71h-.14Zm-.14,0l-.45-9.71h.14l.45,9.71h-.14Zm-.14,0l-.45-9.71h.14l.45,9.71h-.14Zm-.14,0l-.45-9.71h.14l.45,9.71h-.14Zm-.14,0l-.45-9.71h.14l.45,9.71h-.14Zm-.14,0l-.45-9.71h.14l.45,9.71h-.14Zm-.14,0l-.45-9.71h.14l.45,9.71h-.14Zm-.14,0l-.45-9.71h.14l.45,9.71h-.14Zm-.14,0l-.45-9.71h.14l.45,9.71h-.14Zm-.14,0l-.45-9.71h.14l.45,9.71h-.14Zm-.14,0l-.45-9.71h.14l.45,9.71h-.14Zm-.14,0l-.45-9.71h.14l.45,9.71h-.14Zm-.14,0l-.45-9.71h.14l.45,9.71h-.14Zm-.14,0l-.31-6.74v-2.97h0l.45,9.71h-.14Zm-.14,0l-.18-3.76v-2.98l.31,6.74h-.14Zm-.14,0l-.04-.78v-2.98l.18,3.76h-.14Zm-.04-.78l.04,.78h-.04v-.78Z"/>
      </g>
    </g>
  </g>
  <path d="M11.38,41.53l-5,5.03,5.03,5,4.26-.02-4.46-4.43,22.04-.08-1.93,1.95h2.13s2.5-2.52,2.5-2.52l-2.52-2.5h-2.13s1.95,1.94,1.95,1.94l-22.04,.08,4.43-4.46-4.26,.02Z"/>
</svg>