<?xml version="1.0" encoding="utf-8"?>
<!-- Generator: Adobe Illustrator 28.2.0, SVG Export Plug-In . SVG Version: 6.00 Build 0)  -->
<svg version="1.1" xmlns="http://www.w3.org/2000/svg" xmlns:xlink="http://www.w3.org/1999/xlink" x="0px" y="0px"
	 viewBox="0 0 32 32" style="enable-background:new 0 0 32 32;" xml:space="preserve">
<style type="text/css">
	.st0{fill:#FFFFFF;}
	.st1{display:none;}
	.st2{display:inline;}
	.st3{fill:#585A5E;}
	.st4{fill:none;stroke:#585A5E;stroke-linecap:round;stroke-linejoin:round;stroke-miterlimit:10;}
	.st5{fill:#FFFFFF;stroke:#585A5E;stroke-width:2;stroke-linecap:round;stroke-linejoin:round;stroke-miterlimit:10;}
	.st6{fill:#FFFFFF;stroke:#585A5E;stroke-linecap:round;stroke-linejoin:round;stroke-miterlimit:10;}
	.st7{fill:none;stroke:#585A5E;stroke-width:1.5;stroke-miterlimit:10;}
	.st8{fill:#FFFFFF;stroke:#585A5E;stroke-width:1.5;stroke-miterlimit:10;}
	.st9{display:inline;fill:#585A5E;}
	.st10{display:inline;fill:#595A5E;}
	.st11{fill:none;stroke:#585A5E;stroke-width:1.5;stroke-linecap:round;stroke-linejoin:round;stroke-miterlimit:10;}
	.st12{fill:none;stroke:#585A5E;stroke-miterlimit:10;}
	.st13{fill:none;stroke:#585A5E;stroke-linecap:round;stroke-miterlimit:10;}
	.st14{fill-rule:evenodd;clip-rule:evenodd;fill:#FFFFFF;stroke:#585A5E;stroke-width:1.5;stroke-miterlimit:10;}
</style>
<g id="Layer_2">
	<rect x="-53.27" y="-40" class="st0" width="303.74" height="456.92"/>
</g>
<g id="Layer_1" class="st1">
	<g class="st2">
		<g>
			<path class="st0" d="M5.99,25.33c-0.58,0-1.05-0.47-1.05-1.05V1.06c0-0.58,0.47-1.05,1.05-1.05h22.95c0.58,0,1.05,0.47,1.05,1.05
				v23.23c0,0.58-0.47,1.05-1.05,1.05H5.99z"/>
			<path class="st3" d="M28.94,0.76c0.16,0,0.3,0.13,0.3,0.3v23.23c0,0.16-0.13,0.3-0.3,0.3H5.99c-0.16,0-0.3-0.13-0.3-0.3V1.06
				c0-0.16,0.13-0.3,0.3-0.3H28.94 M28.94-0.74H5.99c-0.99,0-1.8,0.8-1.8,1.8v23.23c0,0.99,0.8,1.8,1.8,1.8h22.95
				c0.99,0,1.8-0.8,1.8-1.8V1.06C30.73,0.07,29.93-0.74,28.94-0.74L28.94-0.74z"/>
		</g>
		<path class="st4" d="M27.14,29.02H2.54c-0.86,0-1.56-0.62-1.56-1.39V3.11"/>
		<g>
			<g>
				<line class="st5" x1="9.93" y1="6.77" x2="13.98" y2="6.77"/>
				<line class="st5" x1="17.34" y1="6.77" x2="17.76" y2="6.77"/>
				<line class="st5" x1="21.11" y1="6.77" x2="24.77" y2="6.77"/>
			</g>
			<g>
				<line class="st6" x1="9.51" y1="11.67" x2="25.19" y2="11.67"/>
				<line class="st6" x1="9.51" y1="15.47" x2="25.19" y2="15.47"/>
				<line class="st6" x1="9.51" y1="19.26" x2="16.74" y2="19.26"/>
			</g>
		</g>
	</g>
</g>
<g id="Layer_3">
	<g>
		<path class="st7" d="M4.04,27.03V16.48c0-2.22,1.8-4.01,4.01-4.01H18.8c2.22,0,4.01,1.8,4.01,4.01v10.55"/>
		<g>
			<path class="st3" d="M13.43,2.48c1.95,0,3.54,1.59,3.54,3.54s-1.59,3.54-3.54,3.54S9.89,7.96,9.89,6.01S11.48,2.48,13.43,2.48
				 M13.43,0.98c-2.78,0-5.04,2.25-5.04,5.04s2.25,5.04,5.04,5.04s5.04-2.25,5.04-5.04S16.21,0.98,13.43,0.98L13.43,0.98z"/>
		</g>
		<path class="st12" d="M27.93,27.2c0,0,0-7.01,0-10.35s-3.46-6.97-3.46-6.97"/>
		<g>
			<path class="st3" d="M23.62,7.95c0.53,0,0.95,0.43,0.95,0.95s-0.43,0.95-0.95,0.95s-0.95-0.43-0.95-0.95S23.09,7.95,23.62,7.95
				 M23.62,6.95c-1.08,0-1.95,0.88-1.95,1.95s0.88,1.95,1.95,1.95c1.08,0,1.95-0.88,1.95-1.95S24.7,6.95,23.62,6.95L23.62,6.95z"/>
		</g>
		<g>
			<path class="st3" d="M30.23,27.27c0.05,0,0.1,0.04,0.1,0.1v2.56c0,0.05-0.04,0.1-0.1,0.1H1.77c-0.05,0-0.1-0.04-0.1-0.1v-2.56
				c0-0.05,0.04-0.1,0.1-0.1H30.23 M30.23,26.27H1.77c-0.61,0-1.1,0.49-1.1,1.1v2.56c0,0.61,0.49,1.1,1.1,1.1h28.47
				c0.61,0,1.1-0.49,1.1-1.1v-2.56C31.33,26.76,30.84,26.27,30.23,26.27L30.23,26.27z"/>
		</g>
	</g>
</g>
</svg>
