<?xml version="1.0" encoding="utf-8"?>
<!-- Generator: Adobe Illustrator 28.2.0, SVG Export Plug-In . SVG Version: 6.00 Build 0)  -->
<svg version="1.1" xmlns="http://www.w3.org/2000/svg" xmlns:xlink="http://www.w3.org/1999/xlink" x="0px" y="0px"
	 viewBox="0 0 32 32" style="enable-background:new 0 0 32 32;" xml:space="preserve">
<style type="text/css">
	.st0{fill:#FFFFFF;}
	.st1{display:none;}
	.st2{display:inline;}
	.st3{fill:#585A5E;}
	.st4{fill:none;stroke:#585A5E;stroke-linecap:round;stroke-linejoin:round;stroke-miterlimit:10;}
	.st5{fill:#FFFFFF;stroke:#585A5E;stroke-width:2;stroke-linecap:round;stroke-linejoin:round;stroke-miterlimit:10;}
	.st6{fill:#FFFFFF;stroke:#585A5E;stroke-linecap:round;stroke-linejoin:round;stroke-miterlimit:10;}
	.st7{fill:none;stroke:#585A5E;stroke-width:1.5;stroke-miterlimit:10;}
	.st8{fill:#FFFFFF;stroke:#585A5E;stroke-width:1.5;stroke-miterlimit:10;}
	.st9{display:inline;fill:#585A5E;}
	.st10{display:inline;fill:#595A5E;}
	.st11{fill:none;stroke:#585A5E;stroke-width:1.5;stroke-linecap:round;stroke-linejoin:round;stroke-miterlimit:10;}
	.st12{fill:none;stroke:#585A5E;stroke-miterlimit:10;}
	.st13{fill:none;stroke:#585A5E;stroke-linecap:round;stroke-miterlimit:10;}
	.st14{fill-rule:evenodd;clip-rule:evenodd;fill:#FFFFFF;stroke:#585A5E;stroke-width:1.5;stroke-miterlimit:10;}
</style>
<g id="Layer_2">
	<rect x="-53.27" y="-134" class="st0" width="303.74" height="456.92"/>
</g>
<g id="Layer_1" class="st1">
	<g class="st2">
		<path class="st4" d="M27.14,0.11H2.54c-0.86,0-1.56-0.62-1.56-1.39v-24.05"/>
	</g>
	<g class="st2">
		<path class="st7" d="M28.9,56.27H7.89c-1.01,0-1.84-0.82-1.84-1.84V31.29c0-1.01,0.82-1.84,1.84-1.84H28.9
			c1.01,0,1.84,0.82,1.84,1.84v23.15C30.73,55.45,29.91,56.27,28.9,56.27z"/>
		<path class="st8" d="M27.14,33.18v-1.96c0-0.98-0.79-1.77-1.77-1.77H5.96c-0.98,0-1.77,0.79-1.77,1.77V54.5
			c0,0.98,0.79,1.77,1.77,1.77h19.41c0.98,0,1.77-0.79,1.77-1.77v-1.95"/>
	</g>
</g>
<g id="Layer_3">
	<g>
		<g>
			<path class="st12" d="M9.63,20.23v-4.3c0-1.5,1.22-2.72,2.72-2.72h7.29c1.5,0,2.72,1.22,2.72,2.72v4.3"/>
			<circle class="st12" cx="16" cy="8.54" r="2.91"/>
		</g>
		<path class="st12" d="M23.31,31.09H8.69l-1.57-9.94c-0.08-0.48,0.24-0.92,0.66-0.92h16.44c0.42,0,0.73,0.44,0.66,0.92L23.31,31.09
			z"/>
		<path class="st7" d="M6.59,0.91h-0.8c-1.28,0-2.32,1.04-2.32,2.32v8.05c0,1.67-1.35,3.02-3.02,3.02H0.39l0,0
			c1.67,0,3.02,1.35,3.02,3.02v8.16c0,1.28,1.04,2.32,2.32,2.32h0.86"/>
		<path class="st7" d="M25.41,0.91h0.8c1.28,0,2.32,1.04,2.32,2.32v8.05c0,1.67,1.35,3.02,3.02,3.02h0.05l0,0
			c-1.67,0-3.02,1.35-3.02,3.02v8.16c0,1.28-1.04,2.32-2.32,2.32h-0.86"/>
	</g>
</g>
</svg>
