<?xml version="1.0" encoding="utf-8"?>
<!-- Generator: Adobe Illustrator 28.2.0, SVG Export Plug-In . SVG Version: 6.00 Build 0)  -->
<svg version="1.1" xmlns="http://www.w3.org/2000/svg" xmlns:xlink="http://www.w3.org/1999/xlink" x="0px" y="0px"
	 viewBox="0 0 32 32" style="enable-background:new 0 0 32 32;" xml:space="preserve">
<style type="text/css">
	.st0{fill:#FFFFFF;}
	.st1{display:none;}
	.st2{display:inline;}
	.st3{fill:#585A5E;}
	.st4{fill:none;stroke:#585A5E;stroke-linecap:round;stroke-linejoin:round;stroke-miterlimit:10;}
	.st5{fill:#FFFFFF;stroke:#585A5E;stroke-width:2;stroke-linecap:round;stroke-linejoin:round;stroke-miterlimit:10;}
	.st6{fill:#FFFFFF;stroke:#585A5E;stroke-linecap:round;stroke-linejoin:round;stroke-miterlimit:10;}
	.st7{fill:none;stroke:#585A5E;stroke-width:1.5;stroke-miterlimit:10;}
	.st8{fill:#FFFFFF;stroke:#585A5E;stroke-width:1.5;stroke-miterlimit:10;}
	.st9{display:inline;fill:#585A5E;}
	.st10{display:inline;fill:#595A5E;}
	.st11{fill:none;stroke:#585A5E;stroke-width:1.5;stroke-linecap:round;stroke-linejoin:round;stroke-miterlimit:10;}
	.st12{fill:none;stroke:#585A5E;stroke-miterlimit:10;}
	.st13{fill:none;stroke:#585A5E;stroke-linecap:round;stroke-miterlimit:10;}
	.st14{fill-rule:evenodd;clip-rule:evenodd;fill:#FFFFFF;stroke:#585A5E;stroke-width:1.5;stroke-miterlimit:10;}
</style>
<g id="Layer_2">
	<rect x="-53.27" y="-268" class="st0" width="303.74" height="456.92"/>
</g>
<g id="Layer_1" class="st1">
</g>
<g id="Layer_3">
	<g>
		<path class="st12" d="M11.92,3.85h16.86c1.11,0,2.01,0.9,2.01,2.01v23.07c0,1.11-0.9,2.01-2.01,2.01H9.51
			c-1.11,0-2.01-0.9-2.01-2.01V17.44"/>
		<g>
			<path class="st12" d="M30.6,18.05l-2.03-0.6c-0.14-0.04-0.28,0.03-0.34,0.15l-0.71,1.51c-0.05,0.11-0.16,0.17-0.27,0.16
				c-0.29-0.01-0.59-0.01-0.89,0.01c-0.37,0.02-0.73,0.07-1.08,0.14c-0.12,0.02-0.24-0.03-0.3-0.13l-0.87-1.38
				c-0.08-0.12-0.23-0.17-0.36-0.11l-1.94,0.84c-0.13,0.06-0.2,0.2-0.16,0.34l0.43,1.61c0.03,0.11-0.01,0.23-0.1,0.3
				c-0.53,0.4-1.01,0.86-1.43,1.38c-0.07,0.09-0.2,0.13-0.31,0.09l-1.54-0.5c-0.14-0.04-0.28,0.02-0.35,0.15l-0.94,1.9
				c-0.06,0.13-0.02,0.28,0.09,0.36l1.34,0.94c0.1,0.07,0.14,0.19,0.11,0.3c-0.15,0.64-0.23,1.31-0.22,2c0,0.12-0.07,0.23-0.18,0.27
				l-1.46,0.59c-0.13,0.05-0.2,0.19-0.17,0.33l0.5,2.06c0.03,0.14,0.16,0.23,0.3,0.22 M23.17,30.73c-1.86-2.06-1.7-5.24,0.36-7.1
				c2.06-1.86,5.24-1.7,7.1,0.36c0.12,0.13,0.23,0.27,0.33,0.41"/>
		</g>
		<path class="st14" d="M14.74,20.2H1.04V1.64C1.04,1.28,1.33,1,1.68,1H14.1c0.35,0,0.64,0.29,0.64,0.64V20.2z"/>
		<rect x="3.99" y="3.85" class="st12" width="2.71" height="2.71"/>
		<rect x="3.99" y="8.61" class="st12" width="2.71" height="2.71"/>
		<rect x="9.08" y="3.85" class="st12" width="2.71" height="2.71"/>
	</g>
</g>
</svg>
