<?xml version="1.0" encoding="UTF-8"?>
<svg id="a" data-name="Layer 1" xmlns="http://www.w3.org/2000/svg" viewBox="0 0 125 125">
  <path d="M74.05,71.3c-.17-.03-.34-.05-.51-.04-.3,.02-.59,.09-.86,.22-1.08,.52-1.56,1.8-1.08,2.9l-.02,.02,5.12,12.38c4.9-3.13,8.62-7.8,10.57-13.28l-13.21-2.23-.02,.03Zm-20.55,1.75c-.23-1-1.11-1.72-2.14-1.74-.15,0-.3,.01-.44,.04l-.02-.03-13.09,2.22c1.97,5.44,5.67,10.07,10.54,13.19l5.07-12.26-.04-.05c.19-.43,.23-.92,.12-1.38Zm10.96,4.81c-.58-1.09-1.94-1.5-3.02-.91-.39,.21-.71,.53-.92,.92h-.01l-6.44,11.64c4.61,1.57,9.56,1.82,14.31,.74,.88-.2,1.74-.44,2.58-.72l-6.45-11.66h-.05Zm20.38-27.04l-9.9,8.86v.03c-.93,.81-1.02,2.23-.21,3.16,.29,.33,.67,.57,1.09,.68v.05s12.84,3.7,12.84,3.7c.55-5.76-.79-11.55-3.82-16.48h0Zm-18.4,.99c.06,1.23,1.1,2.19,2.34,2.13,.44-.02,.86-.17,1.21-.43l.04,.02,10.84-7.68c-4.13-4.04-9.46-6.61-15.19-7.32l.75,13.28h.01Zm-11.48,1.76c1,.73,2.4,.5,3.12-.49,.26-.36,.41-.78,.43-1.22l.06-.03,.75-13.3c-.91,.11-1.81,.26-2.7,.47-4.75,1.07-9.11,3.44-12.58,6.86l10.91,7.73h.02Zm-5.82,10.04c1.19-.32,1.89-1.55,1.57-2.74-.12-.43-.36-.81-.69-1.1v-.05s-9.95-8.91-9.95-8.91c-3.04,4.95-4.34,10.76-3.71,16.53l12.77-3.68v-.04Zm9.68,3.91l3.67,1.77,3.66-1.76,.91-3.96-2.54-3.17h-4.08l-2.54,3.17,.91,3.96Z"/>
  <path d="M123.23,75.33l-10.47-45.47c-.57-2.38-2.18-4.38-4.38-5.45L66,4.17c-2.22-1.06-4.81-1.06-7.03,0L16.6,24.42c-2.2,1.07-3.81,3.07-4.38,5.45L1.77,75.34c-.26,1.15-.26,2.34,0,3.49,.08,.35,.17,.7,.3,1.03,.2,.58,.48,1.13,.81,1.64,.14,.22,.3,.43,.46,.64l29.33,36.46c.13,.16,.27,.3,.41,.45,.46,.49,.98,.92,1.55,1.28,.72,.45,1.5,.79,2.32,1.01,.67,.18,1.36,.28,2.06,.28h47.03c.28-.01,.57-.03,.85-.06,.4-.05,.8-.12,1.2-.23,.28-.07,.56-.16,.83-.27,.21-.08,.42-.16,.63-.26,.31-.15,.6-.31,.89-.49,.74-.46,1.39-1.05,1.95-1.72l.89-1.11,28.42-35.36c.54-.68,.97-1.45,1.27-2.27,.12-.34,.22-.68,.3-1.04,.26-1.15,.26-2.34,0-3.49h0Zm-43.95,17.69c.12,.35,.26,.69,.42,1.02-.26,.45-.33,.99-.2,1.5,.62,1.41,1.37,2.76,2.25,4.03,.49,.65,.95,1.32,1.36,2.02,.1,.19,.24,.48,.33,.68,.72,1.21,.33,2.77-.88,3.49s-2.77,.33-3.49-.88c-.09-.14-.16-.29-.21-.45-.1-.2-.23-.46-.31-.65-.29-.76-.54-1.54-.74-2.32-.44-1.47-1.02-2.9-1.74-4.26-.31-.42-.78-.7-1.29-.79-.08-.14-.38-.69-.54-.98-7.54,2.86-15.87,2.84-23.4-.06l-.57,1.04c-.41,.06-.79,.25-1.09,.53-.86,1.42-1.53,2.95-1.96,4.56-.2,.79-.44,1.56-.73,2.32-.08,.19-.22,.45-.31,.64h0s0,.01,0,.01c-.47,1.32-1.93,2.01-3.25,1.54-1.32-.47-2.01-1.93-1.54-3.25,.06-.16,.13-.31,.22-.46,.1-.2,.22-.49,.32-.68,.41-.7,.87-1.38,1.36-2.03,.89-1.3,1.66-2.68,2.3-4.13,.07-.49-.01-.99-.23-1.43l.46-1.11c-6.94-4.1-12.14-10.59-14.62-18.26l-1.11,.19c-.43-.3-.93-.48-1.46-.51-1.51,.29-2.99,.73-4.42,1.3-.74,.33-1.5,.62-2.28,.87-.18,.05-.45,.1-.66,.15-.02,0-.03,.01-.05,.02-.01,0-.03,0-.04,0-1.34,.44-2.77-.29-3.21-1.62-.44-1.34,.29-2.77,1.62-3.21,.15-.05,.31-.09,.46-.11h.04s.02-.02,.02-.02c.21-.05,.48-.12,.68-.16,.81-.11,1.62-.18,2.43-.2,1.54-.1,3.06-.35,4.55-.75,.44-.28,.81-.66,1.09-1.1l1.06-.31c-1.15-8,.69-16.15,5.18-22.88l-.81-.72c-.03-.53-.21-1.03-.51-1.46-1.17-1-2.43-1.89-3.77-2.65-.72-.37-1.43-.78-2.1-1.23-.15-.11-.36-.29-.53-.42l-.04-.03c-1.2-.86-1.48-2.53-.62-3.74,.49-.6,1.24-.94,2.02-.89,.65,.03,1.26,.26,1.77,.67,.17,.14,.41,.32,.56,.45,.59,.56,1.15,1.15,1.67,1.77,1.04,1.14,2.18,2.17,3.42,3.09,.46,.24,1,.3,1.51,.15,.3,.22,.61,.44,.91,.65,4.46-4.74,10.23-8.03,16.57-9.47,1.51-.34,3.04-.58,4.58-.7l.06-1.07c.39-.35,.68-.81,.82-1.31,.06-1.54-.04-3.08-.28-4.6-.16-.8-.28-1.6-.35-2.41,0-.18,0-.44,0-.65,0-.02,0-.05,0-.07-.14-1.4,.88-2.65,2.28-2.79s2.65,.88,2.79,2.28c.02,.17,.02,.34,0,.51,0,.22,.01,.52,0,.72-.07,.81-.19,1.61-.35,2.41-.24,1.52-.34,3.06-.29,4.6,.1,.51,.4,.97,.83,1.27,0,.18,.04,.79,.06,1.13,8.02,.73,15.5,4.34,21.05,10.17l.97-.69c.52,.09,1.05,.03,1.54-.17,1.24-.92,2.38-1.95,3.42-3.09,.52-.62,1.08-1.21,1.67-1.77,.16-.13,.39-.31,.56-.45,1-.99,2.62-.98,3.6,.03,.99,1,.98,2.62-.03,3.6-.13,.13-.27,.24-.42,.33-.17,.14-.39,.33-.56,.45-.68,.45-1.38,.86-2.11,1.23-1.34,.76-2.6,1.65-3.77,2.65-.34,.4-.51,.91-.48,1.44-.14,.13-.64,.57-.9,.81,4.5,6.7,6.38,14.83,5.28,22.82l1.02,.3c.26,.46,.63,.84,1.09,1.1,1.49,.4,3.01,.65,4.55,.75,.81,.02,1.63,.08,2.43,.19,.21,.04,.52,.12,.74,.17,1.39,.18,2.38,1.46,2.19,2.86s-1.46,2.38-2.86,2.19c-.16-.02-.31-.06-.47-.11h-.04s-.03-.02-.05-.02c-.21-.05-.47-.09-.65-.14-.77-.25-1.53-.54-2.27-.88-1.43-.58-2.91-1.01-4.42-1.3-.52-.02-1.03,.17-1.42,.53-.36-.07-.72-.13-1.08-.19-2.45,7.72-7.65,14.26-14.62,18.39h0Z"/>
</svg>