<svg xmlns="http://www.w3.org/2000/svg" viewBox="0 0 92.25 92.25">
  <defs>
    <style>
      .a {
        fill: #20b6b0;
      }
    </style>
  </defs>
  <path class="a" d="M78.6,78.6H64.93V57.2c0-5.11-.09-11.68-7.1-11.68s-8.21,5.56-8.21,11.31V78.6H36v-44H49.07v6h.18a14.37,14.37,0,0,1,13-7.11c13.86,0,16.41,9.11,16.41,21Zm-58.08-50a7.93,7.93,0,1,1,7.94-7.93,7.92,7.92,0,0,1-7.94,7.93h0m6.84,50H13.68v-44H27.36ZM85.42,0H6.81A6.73,6.73,0,0,0,0,6.66V85.59a6.73,6.73,0,0,0,6.81,6.66H85.42a6.75,6.75,0,0,0,6.83-6.66V6.65A6.74,6.74,0,0,0,85.42,0"/>
</svg>
