<?xml version="1.0" encoding="UTF-8"?>
<svg id="a" data-name="Layer 1" xmlns="http://www.w3.org/2000/svg" viewBox="0 0 125 125">
  <defs>
    <style>
      .b {
        fill: none;
        stroke: #231f20;
        stroke-miterlimit: 10;
        stroke-width: 2px;
      }
    </style>
  </defs>
  <path class="b" d="M111.81,18.75c0-7.73-22.08-14-49.31-14S13.19,11.01,13.19,18.75c0,.04,.02,.08,.02,.13h-.02V106.25c0,7.73,22.08,14,49.31,14s49.31-6.27,49.31-14V18.87h-.02s.02-.08,.02-.13Z"/>
  <path class="b" d="M111.81,48.84c0,7.73-22.08,14-49.31,14s-49.31-6.27-49.31-14"/>
  <path class="b" d="M111.81,78.32c0,7.73-22.08,14-49.31,14s-49.31-6.27-49.31-14"/>
  <ellipse class="b" cx="62.5" cy="18.75" rx="49.31" ry="14"/>
</svg>