<?xml version="1.0" encoding="utf-8"?>
<!-- Generator: Adobe Illustrator 16.0.0, SVG Export Plug-In . SVG Version: 6.00 Build 0)  -->
<!DOCTYPE svg PUBLIC "-//W3C//DTD SVG 1.1//EN" "http://www.w3.org/Graphics/SVG/1.1/DTD/svg11.dtd">
<svg version="1.1" id="Layer_1" xmlns="http://www.w3.org/2000/svg" xmlns:xlink="http://www.w3.org/1999/xlink" x="0px" y="0px"
	 width="15.098px" height="17.875px" viewBox="0 0 15.098 17.875" enable-background="new 0 0 15.098 17.875" xml:space="preserve">
<g>
	<polygon fill="#20B6B0" points="12.75,16.279 12.75,11.495 14.344,11.495 14.344,17.875 0,17.875 0,11.495 1.594,11.495 
		1.594,16.279 	"/>
	<path fill="#20B6B0" d="M3.35,11.055l7.802,1.641l0.328-1.561L3.678,9.494L3.35,11.055z M4.382,7.318l7.229,3.368l0.673-1.446
		L5.055,5.873L4.382,7.318z M6.383,3.772l6.126,5.103L13.53,7.65L7.403,2.547L6.383,3.772z M10.338,0L9.059,0.952l4.758,6.398
		l1.281-0.952L10.338,0z M3.192,14.686h7.975V13.09H3.192V14.686z"/>
</g>
</svg>
