<?xml version="1.0" encoding="utf-8"?><svg version="1.1" id="Layer_1" xmlns="http://www.w3.org/2000/svg" xmlns:xlink="http://www.w3.org/1999/xlink" x="0px" y="0px" viewBox="0 0 650.001 620" enable-background="new 0 0 650.001 620" xml:space="preserve"><g><defs><rect id="SVGID_1_" x="-175.811" y="-189.531" width="1000" height="1000"/></defs><clipPath id="SVGID_2_"><use xlink:href="#SVGID_1_" overflow="visible"/></clipPath><path clip-path="url(#SVGID_2_)" fill="#ED1C40" d="M464.599,538.577c-12.887,8.902-16.119,26.563-7.213,39.444 c8.905,12.881,26.573,16.112,39.468,7.209c12.886-8.901,16.11-26.562,7.204-39.443 C495.151,532.896,477.484,529.674,464.599,538.577 M299.017,588.109c-7.952,5.492-9.946,16.389-4.453,24.337 c5.494,7.949,16.394,9.943,24.346,4.452c7.952-5.5,9.947-16.396,4.453-24.346C317.87,584.604,306.969,582.619,299.017,588.109 M97.871,506.806c1.462,6.798,8.167,11.121,14.959,9.651c6.8-1.47,11.124-8.164,9.654-14.961 c-1.47-6.799-8.167-11.112-14.967-9.651C100.726,493.314,96.4,500.009,97.871,506.806 M49.419,312.066 c8.459-12.331,5.322-29.183-7.015-37.639c-12.336-8.457-29.194-5.32-37.653,7.012s-5.322,29.184,7.015,37.64 C24.103,327.536,40.96,324.398,49.419,312.066 M141.99,137.463c9.344-6.454,11.683-19.258,5.227-28.599 c-6.457-9.342-19.266-11.679-28.61-5.225c-9.336,6.454-11.683,19.258-5.227,28.599C119.835,141.571,132.645,143.917,141.99,137.463 M203.284,11.361c-1.676-7.769-9.336-12.71-17.107-11.034c-7.78,1.676-12.723,9.332-11.038,17.109 c1.676,7.769,9.336,12.71,17.107,11.035C200.025,26.795,204.969,19.129,203.284,11.361 M386.807,30.379 c-7.643-12.719-24.148-16.844-36.863-9.204c-12.723,7.631-16.841,24.131-9.207,36.849c7.644,12.718,24.149,16.835,36.863,9.204 C390.322,59.588,394.44,43.089,386.807,30.379 M518.654,222.402c2.037-26.649-4.617-54.114-21.002-77.815 c-31.937-46.199-90.248-63.146-140.693-44.858c-45.072-28.866-104.691-30.078-151.482,2.243 c-23.684,16.362-40.56,38.86-50.068,63.867c-13.772,1.865-27.355,6.471-39.579,14.918C75.425,208.67,64.765,263.084,90.4,304.342 c-34.791,31.855-42.812,84.896-16.377,125.87c15.68,24.294,40.31,38.929,66.762,43.276c0.49,19.826,6.439,39.737,18.561,57.269 c33.148,47.961,98.922,59.974,146.892,26.837c1.831-1.271,3.249-2.878,4.977-4.236c26.736,23.856,66.875,27.791,97.66,6.523 c16.428-11.344,26.933-27.853,31.515-45.787c24.088,0.885,48.615-5.234,69.969-19.989c51.229-35.388,64.974-104.584,32.203-156.79 c26.306-22.18,31.972-60.971,11.761-89.604C545.313,234.931,532.563,226.544,518.654,222.402 M576.545,205.945 c10.401-7.184,13.007-21.432,5.819-31.83c-7.187-10.398-21.439-13.002-31.842-5.818s-13.007,21.432-5.82,31.831 C551.89,210.526,566.143,213.13,576.545,205.945 M620.853,339.815c-1.986-9.194-11.047-15.029-20.237-13.054 c-9.189,1.985-15.036,11.043-13.05,20.23c1.978,9.194,11.038,15.029,20.237,13.053C616.992,358.06,622.839,349.003,620.853,339.815 M649.712,257.756c-1.479-6.832-8.21-11.18-15.044-9.702c-6.844,1.478-11.186,8.207-9.716,15.047 c1.479,6.832,8.22,11.172,15.054,9.702C646.841,271.325,651.19,264.588,649.712,257.756"/><path clip-path="url(#SVGID_2_)" fill="#FFFFFF" d="M457.278,426.763c-3.911-24.973-50.162-5.715-53.017-33.076 c-4.04-38.825,53.704-122.501,49.147-154.985c-4.092-29.244-23.804-35.371-40.954-35.672c-16.661-0.301-21.062,2.355-26.693,5.629 c-3.25,1.882-7.918,5.612-14.399-0.55c-4.307-4.099-7.152-6.969-11.708-10.604c-2.321-1.857-6.018-4.194-12.208-5.105 c-6.198-0.911-14.219,0-19.316,2.183c-5.106,2.191-9.113,6.015-13.308,9.659c-4.187,3.644-14.821,15.546-24.733,11.154 c-4.298-1.898-18.853-9.169-29.358-13.715c-20.279-8.774-49.526,5.44-60.056,24.157c-15.672,27.843-46.612,137.239-51.297,151.668 c-10.505,32.398,13.316,58.807,45.442,57.285c13.583-0.645,22.618-5.604,31.198-21.201c4.96-9.006,51.537-130.631,55.001-136.466 c2.511-4.228,10.892-9.814,18.002-6.17c7.101,3.644,8.519,11.24,7.471,18.399c-1.703,11.575-34.551,85.772-35.814,94.168 c-2.141,14.273,4.642,22.215,19.463,22.987c10.161,0.542,20.279-3.11,28.317-18.261c4.496-8.474,56.3-112.19,60.882-119.116 c5.038-7.597,9.088-10.097,14.22-9.831c3.979,0.198,10.351,1.22,8.76,13.148c-1.564,11.696-43.215,87.801-47.583,106.439 c-5.845,24.913,7.832,50.145,30.364,61.188C399.475,447.113,462.351,459.178,457.278,426.763"/></g></svg>