<?xml version="1.0" encoding="utf-8"?>
<!-- Generator: Adobe Illustrator 16.0.0, SVG Export Plug-In . SVG Version: 6.00 Build 0)  -->
<!DOCTYPE svg PUBLIC "-//W3C//DTD SVG 1.1//EN" "http://www.w3.org/Graphics/SVG/1.1/DTD/svg11.dtd">
<svg version="1.1" id="Layer_1" xmlns="http://www.w3.org/2000/svg" xmlns:xlink="http://www.w3.org/1999/xlink" x="0px" y="0px"
	 width="600px" height="600px" viewBox="744 0 600 600" enable-background="new 744 0 600 600" xml:space="preserve">
<g>
	<path fill="none" d="M1066.767,305.143c0.001-1.216-0.313-2.344-0.922-3.393c-0.057-0.098-0.078-0.157,0.022-0.256
		c1.15-1.124,1.535-2.476,1.079-4.017c-0.366-1.239-1.203-2.077-2.417-2.526c-0.131-0.048-0.172-0.104-0.161-0.241
		c0.026-0.362,0.008-0.725-0.035-1.084c-0.194-1.644-0.851-3.085-2.048-4.224c-2.025-1.926-4.411-2.494-7.104-1.713
		c-0.153,0.045-0.272,0.038-0.416-0.046c-1.694-0.997-3.521-1.382-5.458-1.022c-2.759,0.512-4.747,2.063-5.931,4.614
		c-0.122,0.263-0.269,0.372-0.545,0.431c-2.4,0.507-4.126,2.557-4.223,5.036c-0.038,0.994,0.197,1.931,0.692,2.796
		c0.071,0.125,0.064,0.198-0.039,0.305c-1.289,1.32-1.854,2.904-1.652,4.737c0.177,1.601,0.937,2.896,2.202,3.887
		c0.688,0.538,1.469,0.893,2.327,1.061c0.155,0.029,0.216,0.093,0.219,0.255c0.004,0.193,0.036,0.39,0.066,0.583
		c0.447,2.797,2.835,4.967,5.673,5.138c1.455,0.088,2.787-0.289,3.976-1.138c0.146-0.105,0.233-0.104,0.375,0.008
		c1.016,0.799,2.174,1.141,3.451,0.958c1.93-0.276,3.207-1.372,3.848-3.21c0.043-0.126,0.098-0.181,0.236-0.18
		c0.409,0.004,0.817-0.037,1.222-0.106C1064.411,311.238,1066.77,308.417,1066.767,305.143z M1062.117,316.286
		c0.919,0,1.675-0.754,1.677-1.677c0.001-0.899-0.752-1.651-1.659-1.654c-0.929-0.003-1.683,0.74-1.687,1.663
		C1060.443,315.52,1061.21,316.285,1062.117,316.286z M1034.186,299.233c0,0.881,0.703,1.591,1.577,1.593
		c0.875,0.002,1.61-0.729,1.607-1.596c-0.004-0.868-0.724-1.588-1.591-1.59C1034.89,297.638,1034.184,298.343,1034.186,299.233z
		 M1056.9,284.586c0.002-0.876-0.69-1.582-1.556-1.586c-0.879-0.006-1.595,0.697-1.6,1.568c-0.005,0.87,0.708,1.585,1.583,1.586
		C1056.199,286.155,1056.898,285.457,1056.9,284.586z M1066.922,294.207c0.764,0.001,1.367-0.595,1.363-1.346
		c-0.004-0.722-0.62-1.336-1.345-1.342c-0.74-0.005-1.367,0.621-1.362,1.359C1065.583,293.615,1066.181,294.206,1066.922,294.207z
		 M1041.77,287.806c-0.69,0.002-1.209,0.515-1.209,1.198c0,0.678,0.528,1.211,1.202,1.211c0.684,0.001,1.212-0.534,1.209-1.222
		C1042.969,288.326,1042.439,287.804,1041.77,287.806z M1052.145,318c0.575,0,1.034-0.451,1.039-1.022
		c0.007-0.563-0.459-1.028-1.029-1.031c-0.587-0.001-1.047,0.453-1.045,1.031C1051.109,317.548,1051.567,318,1052.145,318z
		 M1070.292,301.945c0.002-0.561-0.438-1.014-0.99-1.019c-0.549-0.004-1.024,0.472-1.021,1.021c0.005,0.542,0.457,0.987,1.005,0.987
		C1069.86,302.936,1070.291,302.514,1070.292,301.945z M1046.035,282.846c0-0.479-0.362-0.843-0.84-0.846
		c-0.484-0.002-0.857,0.368-0.857,0.85c0,0.478,0.377,0.85,0.861,0.848C1045.667,283.695,1046.035,283.321,1046.035,282.846z
		 M1071.966,297.132c0.004-0.421-0.328-0.76-0.749-0.766c-0.395-0.004-0.752,0.349-0.757,0.749
		c-0.005,0.413,0.339,0.758,0.759,0.759C1071.636,297.875,1071.963,297.551,1071.966,297.132z M1040.604,312.014
		c0.409-0.002,0.742-0.339,0.744-0.751c0.002-0.399-0.343-0.745-0.75-0.749c-0.412-0.003-0.751,0.344-0.748,0.766
		C1039.854,311.691,1040.188,312.017,1040.604,312.014z"/>
	<path fill="none" d="M1054.753,304.616c-0.033-0.603,0.247-1.181,0.517-1.753c0.64-1.359,1.293-2.709,1.938-4.065
		c0.111-0.236,0.205-0.479,0.306-0.721c0.049-0.115,0.083-0.237,0.088-0.362c0.011-0.231-0.006-0.465-0.234-0.594
		c-0.234-0.132-0.481-0.121-0.71,0.023c-0.254,0.162-0.414,0.407-0.548,0.666c-0.366,0.7-0.73,1.4-1.089,2.104
		c-0.774,1.521-1.544,3.049-2.319,4.572c-0.226,0.443-0.52,0.826-1.009,1.005c-0.422,0.151-0.843,0.124-1.25-0.052
		c-0.398-0.172-0.591-0.604-0.513-1.09c0.047-0.285,0.16-0.547,0.266-0.812c0.52-1.308,1.046-2.61,1.562-3.918
		c0.122-0.309,0.252-0.618,0.278-0.953c0.024-0.314-0.041-0.607-0.284-0.828c-0.398-0.361-1.073-0.176-1.307,0.369
		c-0.232,0.54-0.444,1.087-0.663,1.633c-0.795,1.981-1.546,3.981-2.38,5.949c-0.251,0.593-0.61,1.121-1.267,1.318
		c-0.809,0.242-1.591,0.131-2.305-0.324c-0.915-0.584-1.298-1.647-0.974-2.728c0.724-2.416,1.424-4.839,2.281-7.21
		c0.188-0.513,0.384-1.022,0.623-1.514c0.542-1.108,1.826-1.838,3.055-1.734c0.388,0.033,0.722,0.225,1.065,0.38
		c0.341,0.155,0.683,0.31,1.013,0.485c0.346,0.185,0.66,0.129,0.974-0.067c0.35-0.22,0.621-0.533,0.942-0.786
		c0.798-0.627,1.779-0.593,2.522,0.094c0.157,0.145,0.31,0.294,0.471,0.436c0.21,0.186,0.443,0.224,0.687,0.064
		c0.729-0.48,1.529-0.464,2.336-0.314c0.88,0.164,1.39,0.735,1.614,1.586c0.146,0.562,0.069,1.105-0.093,1.647
		c-0.293,0.988-0.729,1.918-1.144,2.856c-0.431,0.971-0.879,1.934-1.212,2.945c-0.183,0.553-0.344,1.11-0.335,1.703
		c0.009,0.669,0.286,1.02,0.948,1.15c0.4,0.08,0.805,0.14,1.207,0.211c0.136,0.023,0.265,0.066,0.392,0.12
		c0.365,0.151,0.536,0.438,0.552,0.818c0.016,0.379-0.146,0.664-0.492,0.837c-0.438,0.219-0.914,0.251-1.389,0.231
		c-0.666-0.029-1.321-0.129-1.957-0.339C1055.648,307.241,1054.754,306.01,1054.753,304.616z"/>
</g>
<path d="M1234.158,371.418c0.041,45.485-32.715,84.669-77.257,92.373c-5.608,0.963-11.271,1.533-16.962,1.479
	c-1.918-0.021-2.672,0.746-3.282,2.503c-8.892,25.533-26.638,40.751-53.446,44.59c-17.734,2.537-33.827-2.218-47.934-13.306
	c-1.965-1.546-3.166-1.573-5.215-0.108c-16.5,11.801-35,17.028-55.203,15.808c-39.422-2.38-72.59-32.511-78.795-71.363
	c-0.428-2.686-0.881-5.392-0.922-8.098c-0.041-2.251-0.896-3.12-3.045-3.54c-11.937-2.327-22.767-7.243-32.322-14.723
	c-17.584-13.768-28.137-31.745-30.592-53.982c-2.801-25.452,5.06-47.458,22.963-65.795c1.444-1.472,1.533-2.496,0.55-4.226
	c-6.884-12.017-10.146-25.031-9.617-38.832c1.323-34.444,25.289-62.9,58.628-69.946c3.859-0.82,5.88-2.332,7.575-5.987
	c16.444-35.428,44.054-56.974,82.37-64.081c26.896-4.991,52.267,0.353,75.812,14.201c1.979,1.167,3.636,1.261,5.778,0.637
	c37.395-10.85,70.53-2.957,98.66,23.791c16.635,15.814,25.75,35.828,28.449,58.661c0.59,4.992,0.86,10.03,0.48,15.049
	c-0.143,1.898,0.441,2.692,2.238,3.357c16.858,6.239,28.482,17.876,33.568,35.088c6.334,21.41,1.012,40.182-14.986,55.793
	c-1.385,1.356-1.092,2.185-0.306,3.54C1229.797,338.866,1234.178,354.545,1234.158,371.418z M1067.302,364.114
	c0.013,19.354,12.438,36.458,30.056,42.271c8.83,2.916,17.938,4.299,27.182,4.706c6.6,0.285,13.189-0.176,19.287-3.215
	c4.794-2.394,7.053-6.348,6.836-11.617c-0.217-5.303-2.591-9.27-7.664-11.38c-1.763-0.732-3.553-1.329-5.425-1.655
	c-5.595-0.997-11.218-1.838-16.785-2.942c-9.188-1.831-13.041-6.694-13.163-15.985c-0.107-8.219,2.123-15.971,4.652-23.641
	c4.625-14.038,10.863-27.418,16.839-40.907c5.771-13.027,11.819-25.946,15.896-39.666c2.245-7.534,3.316-15.089,1.275-22.881
	c-3.106-11.827-10.193-19.754-22.414-22.034c-11.189-2.082-22.325-2.319-32.443,4.354c-3.365,2.211-6.6,1.682-9.521-0.895
	c-2.231-1.96-4.354-4.035-6.538-6.049c-10.321-9.528-23.966-9.996-35.047-1.295c-4.47,3.513-8.233,7.867-13.089,10.919
	c-4.34,2.726-8.715,3.499-13.522,0.935c-4.578-2.441-9.317-4.59-14.045-6.733c-4.788-2.163-9.427-4.835-14.817-5.29
	c-17.05-1.451-34.893,8.681-42.414,24.082c-3.336,6.815-6.062,13.896-8.646,21.023c-11.93,32.946-21.646,66.596-31.704,100.131
	c-4.503,15.008,0.813,29.777,13.522,37.883c9.914,6.319,20.771,7.881,32.01,4.503c9.107-2.74,14.092-10.07,17.578-18.305
	c11.582-27.315,22.013-55.094,33.054-82.627c3.038-7.575,5.981-15.184,9.203-22.678c3.255-7.568,12.606-10.146,18.155-5.127
	c3.384,3.064,4.279,7.142,3.947,11.502c-0.367,4.659-2.171,8.958-3.867,13.237c-7.182,18.163-14.498,36.269-21.715,54.417
	c-1.457,3.669-3.037,7.311-3.682,11.25c-1.105,6.762,1.573,12.757,7.107,15.144c5.643,2.436,11.502,2.842,17.354,0.719
	c6.809-2.468,10.878-7.799,14.012-13.957c10.77-21.151,21.457-42.352,32.219-63.503c4.972-9.771,10.031-19.497,15.11-29.208
	c1.886-3.601,4.097-7.012,7.623-9.25c3.181-2.014,6.612-2.164,9.874-0.332c3.182,1.783,3.396,5.039,3.262,8.253
	c-0.074,1.729-0.556,3.418-1.221,5.025c-1.396,3.343-2.699,6.734-4.246,10.01c-8.951,18.833-18.039,37.59-26.91,56.463
	C1070.732,347.736,1066.84,355.739,1067.302,364.114z M1192.864,502.901c0.021-12.492-10.45-22.937-23.044-22.971
	c-12.906-0.047-23.376,10.281-23.432,23.093c-0.054,12.524,10.594,23.151,23.188,23.166
	C1182.346,526.203,1192.844,515.705,1192.864,502.901z M803.548,311.475c12.146,0.027,22.366-10.125,22.318-22.163
	c-0.054-12.057-10.058-22.054-22.101-22.087c-12.344-0.034-22.144,9.759-22.137,22.123
	C781.637,301.58,791.409,311.447,803.548,311.475z M1075.521,63.882c-12.207-0.068-22.156,9.691-22.225,21.789
	c-0.074,12.085,9.84,22.014,21.986,22.027c12.099,0.007,21.816-9.684,21.837-21.79C1097.148,73.743,1087.538,63.943,1075.521,63.882
	z M1255.249,200.839c-0.054-10.031-8.606-18.562-18.677-18.63c-10.281-0.074-18.989,8.613-18.921,18.874
	c0.074,10.234,8.375,18.439,18.67,18.453C1246.928,219.556,1255.31,211.269,1255.249,200.839z M870.186,147.276
	c0,9.42,7.33,16.812,16.689,16.826c9.48,0.013,16.832-7.419,16.798-16.975c-0.034-9.27-7.378-16.52-16.704-16.492
	C877.38,130.655,870.191,137.782,870.186,147.276z M1045.505,535.806c0.081-7.846-6.375-14.309-14.31-14.336
	c-8.146-0.026-14.541,6.287-14.521,14.323c0.022,7.927,6.384,14.207,14.386,14.207
	C1039.057,550.007,1045.438,543.74,1045.505,535.806z M1269.369,312.872c-7.623-0.054-14.235,6.558-14.174,14.174
	c0.067,7.527,6.348,13.705,13.957,13.719c7.976,0.015,13.957-5.858,13.977-13.739
	C1283.149,319.226,1277.025,312.926,1269.369,312.872z M934.55,50c-6.721-0.027-11.909,5.107-11.909,11.794
	c0,6.646,5.242,11.813,11.957,11.779c6.516-0.034,11.623-5.229,11.623-11.828C946.223,55.086,941.195,50.034,934.55,50z
	 M1295.966,249.531c-5.479-0.062-10.444,4.842-10.512,10.396c-0.074,5.744,4.707,10.525,10.539,10.539
	c5.792,0.021,10.335-4.483,10.376-10.301C1306.424,254.312,1301.812,249.605,1295.966,249.531z M881.117,456.427
	c0.027-5.562-4.768-10.349-10.417-10.403c-5.724-0.048-10.431,4.768-10.39,10.627c0.047,5.724,4.692,10.246,10.478,10.206
	C876.465,466.823,881.098,462.15,881.117,456.427z"/>
</svg>
