<?xml version="1.0" encoding="utf-8"?>
<!-- Generator: Adobe Illustrator 27.4.1, SVG Export Plug-In . SVG Version: 6.00 Build 0)  -->
<svg version="1.1" id="a" xmlns="http://www.w3.org/2000/svg" xmlns:xlink="http://www.w3.org/1999/xlink" x="0px" y="0px"
	 viewBox="0 0 1111.2 113.5" style="enable-background:new 0 0 1111.2 113.5;" xml:space="preserve">
<style type="text/css">
	.st0{fill:#464646;}
	.st1{fill:#53C3C2;}
</style>
<g>
	<path class="st0" d="M50.8,111.3H0V3.1h48.1c27.3,0,39,11.7,39,29.4c0,12.2-8.2,20.8-19.9,22.7c13.1,2.4,23.2,11,23.2,26.5
		C90.4,100.3,76.1,111.3,50.8,111.3 M21,48.1h25.8c12.9,0,18.4-5.7,18.4-13.7s-5.5-13.9-18.4-13.9H21V48.1z M21,64.4V94h27.5
		c13.4,0,19.9-5.7,19.9-14.6s-6.5-14.9-19.9-14.9C48.5,64.4,21,64.4,21,64.4z"/>
	<path class="st0" d="M167.3,92.9c0,3.9,2.1,5.8,5.3,5.8c2.2,0,4.4-0.6,6.4-1.5v11c-4,3.3-9.1,5-14.2,4.8c-8.6,0-15.1-5.5-16.7-14.6
		c-4.3,8.9-13.9,14.8-26.5,14.8c-14.4,0-24-7.7-24-20.8C97.6,78,109,72,126.5,68.7l20.8-3.9v-2.2c0-8.4-4.5-13.6-13.2-13.6
		s-13.2,5.1-14.9,12.5l-18.7-1.7c2.6-15.5,14.4-26.3,34.5-26.3s32.5,9.3,32.5,29.2C167.4,62.7,167.3,92.9,167.3,92.9z M147.2,75.9
		l-14.2,3c-9.4,1.9-15.3,4.3-15.3,11.3c0,5.3,3.8,9.3,10.5,9.3c10.8,0,19.1-8.1,19.1-21v-2.6H147.2z"/>
	<path class="st0" d="M336.2,86.1c-3.8,17.2-17.2,27.3-36.6,27.3c-23.4,0-40.2-14.9-40.2-38.8s17-41,39.7-41
		c24.7,0,37.5,17.2,37.5,37.8v6.5h-56.9c0.7,12.4,9.4,19.9,20.6,19.9c10.1,0,16.3-4.5,19.2-13.4L336.2,86.1L336.2,86.1z M316.5,67
		c-0.3-9.8-6-18.4-17.5-18.4s-17.7,8.2-18.9,18.4H316.5z"/>
	<path class="st0" d="M400.8,55.8c-3.7-2.2-8-3.4-12.3-3.3c-10.6,0-17.9,7.6-17.9,21.3v37.4H350V35.6h20.6V50
		c2.8-8.6,10.6-16.5,21.1-16.5c4.6,0,8.4,1.2,10.6,3.1L400.8,55.8L400.8,55.8z"/>
	<path class="st0" d="M411,3.1h21.1v20.1H411V3.1z M432,111.3h-20.6V35.6H432V111.3L432,111.3z"/>
	<path class="st0" d="M469.6,111.3H449V35.6h20.6V48c3.8-8.6,13.4-14.4,24.7-14.4c20.3,0,27.6,13.7,27.6,30.6v47.2h-20.6V68.2
		c0-11.7-4.6-18.4-14.8-18.4s-17,8.2-17,21L469.6,111.3L469.6,111.3z"/>
	<path class="st0" d="M603.9,92.9c0,3.9,2.1,5.8,5.3,5.8c2.2,0,4.4-0.6,6.4-1.5v11c-4,3.3-9.1,5-14.3,4.8c-8.6,0-15.1-5.5-16.7-14.6
		c-4.3,8.9-13.9,14.8-26.5,14.8c-14.4,0-24-7.7-24-20.8c0-14.4,11.3-20.4,28.8-23.7l20.8-3.9v-2.2c0-8.4-4.5-13.6-13.2-13.6
		s-13.2,5.1-15,12.5l-18.7-1.7c2.6-15.5,14.4-26.3,34.5-26.3s32.5,9.3,32.5,29.2L603.9,92.9L603.9,92.9z M583.8,75.9l-14.3,2.9
		c-9.5,1.9-15.3,4.3-15.3,11.3c0,5.3,3.8,9.3,10.5,9.3c10.8,0,19.1-8.1,19.1-21V75.9z"/>
	<polygon class="st0" points="188,31.2 188,0 214.1,0 214.1,41.2 	"/>
	<polygon class="st0" points="188,41 205.9,47.9 188,54.7 	"/>
	<polygon class="st0" points="214.1,54.5 214.1,69.6 201.4,111.3 188,111.3 188,64.5 	"/>
	<polygon class="st0" points="249.4,31.2 249.4,0 223.2,0 223.2,41.2 	"/>
	<polygon class="st0" points="249.4,41 231.5,47.9 249.4,54.7 	"/>
	<polygon class="st0" points="223.2,54.5 223.2,69.6 235.9,111.3 249.4,111.3 249.4,64.5 	"/>
	<g>
		<path class="st1" d="M657.6,27.2c5-3.1,10.8-4.6,17.3-4.6c6.6,0,12.3,1.7,17,5.1c4.7,3.4,8,7.7,10,13l17.1-8
			c-1.8-5-4.7-9.5-8.8-13.7c-4.1-4.2-9.2-7.5-15.1-10c-5.9-2.5-12.7-3.8-20.2-3.8c-7.5,0-14.4,1.3-20.8,4
			c-6.4,2.7-11.9,6.4-16.6,11.2c-4.7,4.8-8.4,10.5-11,17.1c-2.6,6.6-3.9,13.8-3.9,21.6c0,7.8,1.3,14.9,3.9,21.5
			c2.6,6.6,6.3,12.3,11,17.1c4.7,4.9,10.3,8.7,16.6,11.4c6.3,2.7,13.2,4.1,20.7,4.1c7.5,0,14.2-1.3,20.2-3.8c5.9-2.5,11-5.9,15.1-10
			c4.1-4.2,7.1-8.7,8.8-13.7l-17.1-8c-2,5.2-5.3,9.6-10,13c-4.7,3.4-10.3,5.1-17,5.1c-6.6,0-12.3-1.5-17.3-4.6
			c-5-3.1-8.9-7.4-11.7-12.9c-2.8-5.5-4.1-11.9-4.1-19.2c0-7.3,1.4-13.7,4.1-19.1C648.7,34.6,652.6,30.3,657.6,27.2z"/>
		<path class="st1" d="M793.8,44.5c-3.2-3.5-7-6.2-11.6-8.1c-4.5-2-9.8-2.9-15.8-2.9c-7.1,0-13.6,1.7-19.3,5.2
			c-5.8,3.5-10.3,8.2-13.6,14.1c-3.3,5.9-5,12.8-5,20.4c0,7.4,1.6,14.1,4.9,20.2c3.3,6.1,7.9,10.9,13.8,14.5
			c5.9,3.6,12.8,5.3,20.6,5.3c5.2,0,10-0.8,14.4-2.4c4.4-1.6,8.1-3.8,11.3-6.6c3.2-2.8,5.5-6,7-9.7l-14.9-7.3c-1.7,3-4,5.4-7,7.2
			c-3,1.8-6.5,2.7-10.7,2.7c-4.2,0-7.9-1-11.2-2.9c-3.2-2-5.7-4.8-7.3-8.4c-1-2.2-1.6-4.6-1.9-7.2h55c0.4-1,0.6-2.2,0.8-3.7
			c0.1-1.4,0.2-2.8,0.2-4.1c0-5.1-0.8-9.9-2.5-14.4C799.4,51.9,796.9,48,793.8,44.5z M756.1,51.5c3-1.9,6.4-2.9,10.3-2.9
			c4,0,7.5,1,10.3,2.9c2.9,2,4.9,4.6,6.2,8c0.6,1.5,0.9,3.2,1.1,4.9h-36c0.3-1.6,0.8-3.2,1.3-4.6C750.9,56.2,753.1,53.4,756.1,51.5z
			"/>
		<path class="st1" d="M871.4,37.1c-4.4-2.4-9.3-3.7-15-3.7c-5.4,0-10.2,1.2-14.3,3.6c-3.1,1.8-5.6,4.3-7.4,7.5v-9.4h-17.3v76.4
			h18.4V66.7c0-3.4,0.7-6.3,2-8.7c1.3-2.4,3.1-4.3,5.5-5.7c2.3-1.4,5-2,8-2c3.1,0,5.8,0.7,8.1,2c2.3,1.4,4.1,3.3,5.4,5.7
			c1.3,2.4,2,5.3,2,8.7v44.8h18.4V62.4c0-5.7-1.2-10.7-3.7-15.1C879.1,42.9,875.7,39.5,871.4,37.1z"/>
		<path class="st1" d="M939.8,96.2c-3,0-5.5-0.5-7.4-1.4c-1.9-0.9-3.3-2.3-4.2-4.1c-0.9-1.8-1.3-3.9-1.3-6.5V51.5h17.6V35.1h-17.6
			V17.7h-18.4v5.9c0,3.7-1,6.6-3.1,8.6c-2.1,2-5,2.9-8.7,2.9h-1.4v16.4h13.2v33.7c0,8.6,2.4,15.3,7.1,20c4.7,4.7,11.4,7.1,20,7.1
			c1.4,0,2.9-0.1,4.6-0.3c1.7-0.2,3.2-0.4,4.5-0.6V95.8c-0.8,0.1-1.7,0.2-2.6,0.3C941.2,96.2,940.5,96.2,939.8,96.2z"/>
		<path class="st1" d="M983,37.6c-2.9,1.7-5.2,4.5-7,8.3V35.1h-17.3v76.4h18.4V69c0-5.8,1.6-10.3,4.8-13.6c3.2-3.2,7.4-4.8,12.6-4.8
			h6.6V34.3h-4.5C991.4,34.3,986.8,35.4,983,37.6z"/>
		<path class="st1" d="M1060.6,36.9c-4.8-2.3-10.3-3.4-16.6-3.4c-5.2,0-9.9,0.8-14.3,2.5c-4.4,1.7-8.2,4-11.4,7
			c-3.2,2.9-5.6,6.4-7.1,10.5l15,7.3c1.4-3.5,3.6-6.2,6.7-8.4c3-2.1,6.5-3.2,10.5-3.2c4.2,0,7.6,1.1,10.2,3.3
			c2.6,2.2,3.9,4.9,3.9,8.2v2.5l-22.8,3.7c-6,0.9-11,2.5-14.9,4.8c-3.9,2.2-6.8,5-8.7,8.4c-1.9,3.3-2.8,7.1-2.8,11.3
			c0,4.4,1.1,8.3,3.2,11.6c2.2,3.3,5.2,5.9,9.1,7.7c3.9,1.8,8.6,2.7,13.9,2.7c4.2,0,8.1-0.6,11.5-1.8c3.5-1.2,6.6-2.9,9.3-5.1
			c1.1-0.9,2.1-1.9,3.1-3v8.1h17.4V60.7c0-5.4-1.3-10.2-4-14.3C1069.1,42.3,1065.4,39.2,1060.6,36.9z M1054.9,89.9
			c-1.6,2.9-3.9,5.2-6.9,6.8c-2.9,1.6-6.3,2.5-10.2,2.5c-3,0-5.5-0.8-7.5-2.3c-2-1.5-3-3.6-3-6.2c0-2.7,0.9-4.9,2.7-6.6
			c1.8-1.7,4.5-2.9,8.1-3.5l19.2-3.3v3.1C1057.4,83.8,1056.6,87,1054.9,89.9z"/>
		<rect x="1092.8" y="5.2" class="st1" width="18.4" height="106.3"/>
	</g>
</g>
</svg>
