<?xml version="1.0" encoding="UTF-8"?>
<svg width="143px" height="15px" viewBox="0 0 143 15" version="1.1" xmlns="http://www.w3.org/2000/svg" xmlns:xlink="http://www.w3.org/1999/xlink">
    <title>Ballerina central logo</title>
    <g id="Page-1" stroke="none" stroke-width="1" fill="none" fill-rule="evenodd">
        <g id="BC-Main" transform="translate(-43.000000, -25.000000)" fill-rule="nonzero">
            <g id="Ballerina-central-logo" transform="translate(43.000000, 25.000000)">
                <path d="M36.9263982,4.13799439 C39.9801338,4.13799439 41.5495305,6.25877575 41.5495305,8.80398414 L41.5495305,9.60974116 L34.5301125,9.60974116 C34.6149448,11.1368662 35.6965561,12.0698836 37.0748546,12.0698836 C38.3261304,12.0698836 39.0896207,11.5186475 39.4499322,10.4157238 L41.5071144,10.6278245 C41.0407626,12.7486059 39.3867592,14 36.9900224,14 C34.1059513,14 32.0277866,12.1547239 32.0277866,9.20697547 C32.0277866,6.25877575 34.1273849,4.13799439 36.9263982,4.13799439 Z M16.6517145,4.13799439 C19.0694338,4.13799439 20.6600387,5.28311253 20.6600387,7.74348064 L20.6600387,11.4762273 C20.6600387,11.9640589 20.9145354,12.1973697 21.3174886,12.1973697 C21.5717598,12.1973697 21.8264822,12.1337395 22.102187,12.0062534 L22.102187,13.3636979 C21.6992338,13.681849 21.1902403,13.9578055 20.3419177,13.9578055 C19.2817401,13.9578055 18.4756081,13.2790833 18.2849611,12.1549496 C17.7547595,13.2578732 16.5671079,13.9790156 15.0189192,13.9790156 C13.2376675,13.9790156 12.0500159,13.0245624 12.0500159,11.4128227 C12.0500159,9.63117687 13.4497481,8.88882442 15.612745,8.48583309 L18.1786952,7.99800148 L18.1786952,7.72227057 C18.1786952,6.68297715 17.6275111,6.04667505 16.5458998,6.04667505 C15.4854966,6.04667505 14.9128789,6.68297715 14.7010239,7.59501015 L12.3893449,7.38290945 C12.7074659,5.4742288 14.1705967,4.13799439 16.6517145,4.13799439 Z M70.5497532,4.13799439 C72.9674725,4.13799439 74.5580773,5.28311253 74.5580773,7.74348064 L74.5580773,11.4762273 L74.5578516,11.4762273 C74.5578516,11.9640589 74.8123484,12.1973697 75.2153016,12.1973697 C75.4697984,12.1973697 75.7242952,12.1337395 76,12.0062534 L76,13.3636979 C75.5970468,13.681849 75.0880532,13.9578055 74.2397307,13.9578055 C73.1793275,13.9578055 72.3731954,13.2790833 72.1825485,12.1549496 C71.6523469,13.2578732 70.4646953,13.9790156 68.9167322,13.9790156 C67.1352548,13.9790156 65.9478289,13.0245624 65.9478289,11.4128227 C65.9478289,9.63117687 67.3473355,8.88882442 69.510558,8.48583309 L72.0765082,7.99800148 L72.0765082,7.72227057 C72.0765082,6.68297715 71.5250985,6.04667505 70.4437128,6.04667505 C69.383084,6.04667505 68.8106919,6.68297715 68.5986113,7.59501015 L66.2871579,7.38290945 C66.6050532,5.4742288 68.0686353,4.13799439 70.5497532,4.13799439 Z M5.93803232,0.384263289 C9.3101145,0.384263289 10.7520372,1.82609677 10.7520372,4.01095961 C10.7520372,5.51664894 9.73427578,6.57715244 8.29212743,6.8104632 C9.90394029,7.10740418 11.1552161,8.16768204 11.1552161,10.0765883 C11.1552161,12.388486 9.39494676,13.7457048 6.27713572,13.7457048 L0,13.7457048 L0,0.384263289 L5.93803232,0.384263289 Z M48.362057,4.13799439 C48.9344492,4.13799439 49.4010266,4.28646488 49.6767314,4.51977565 L49.4858588,6.89507785 C48.9980733,6.61934694 48.5739121,6.49231216 47.9588782,6.49231216 C46.6439782,6.49231216 45.7534652,7.42532959 45.7534652,9.12190955 L45.7534652,13.7454792 L43.2087231,13.7454792 L43.2087231,4.39251523 L45.7534652,4.39251523 L45.7534652,6.17416111 C46.0927942,5.11343197 47.0681395,4.13799439 48.362057,4.13799439 Z M53.3353481,4.39274087 L53.3353481,13.7457048 L50.790606,13.7457048 L50.790606,4.39274087 L53.3353481,4.39274087 Z M61.029363,4.13822003 C63.5316889,4.13822003 64.4436357,5.83479999 64.4436357,7.9131612 L64.4436357,13.7457048 L61.8988936,13.7457048 L61.8988936,8.42220288 C61.8988936,6.98014376 61.3262759,6.15317668 60.0750001,6.15317668 C58.7815338,6.15317668 57.9756274,7.17103439 57.9756274,8.74035393 L57.9756274,13.7457048 L55.4308853,13.7457048 L55.4308853,4.39274087 L57.9756274,4.39274087 L57.9756274,5.91964027 C58.4419791,4.85913677 59.6296307,4.13822003 61.029363,4.13822003 Z M26.4403642,6.72923315 L26.4403642,8.59775006 L24.870065,13.7457048 L23.2104212,13.7457048 L23.2104212,7.96483254 L26.4403642,6.72923315 Z M27.5596536,6.72923315 L30.7895966,7.96483254 L30.7895966,13.7457048 L29.1297272,13.7457048 L27.5596536,8.59775006 L27.5596536,6.72923315 Z M18.1786952,9.37665603 L16.4186515,9.73722722 C15.2522079,9.97031235 14.5313594,10.2672533 14.5313594,11.1368662 C14.5313594,11.7943784 14.9977112,12.28221 15.8248257,12.28221 C17.1607081,12.28221 18.1786952,11.2853367 18.1786952,9.69458144 L18.1786952,9.37665603 Z M72.0765082,9.37665603 L70.3162388,9.73722722 C69.1497953,9.97031235 68.4289468,10.2672533 68.4289468,11.1368662 C68.4289468,11.7943784 68.8955242,12.28221 69.722413,12.28221 C71.0585211,12.28221 72.0765082,11.2853367 72.0765082,9.69458144 L72.0765082,9.37665603 Z M5.98044844,7.95558134 L2.58738381,7.95558134 L2.58738381,11.6034877 L5.98044844,11.6034877 C7.63445182,11.6034877 8.44058387,10.9035554 8.44058387,9.80063179 C8.44058387,8.67649808 7.63445182,7.95558134 5.98044844,7.95558134 Z M36.9051901,6.00448055 C35.5056835,6.00448055 34.7207595,7.0225639 34.5725287,8.27373239 L39.0684126,8.27373239 C39.0259965,7.06498404 38.3261304,6.00448055 36.9051901,6.00448055 Z M23.2101955,5.06582213 L25.4210234,5.91129162 L23.2101955,6.75698675 L23.2101955,5.06582213 Z M30.7898223,5.06582213 L30.7898223,6.75698675 L28.5789944,5.91129162 L30.7898223,5.06582213 Z M5.7683678,2.52602908 L2.58738381,2.52602908 L2.58738381,5.9406247 L5.7683678,5.9406247 C7.35874699,5.9406247 8.03763066,5.24091803 8.03763066,4.24404474 C8.03763066,3.24717145 7.35874699,2.52602908 5.7683678,2.52602908 Z M26.4403642,0 L26.4403642,5.0933501 L23.2101955,3.85797634 L23.2101955,0 L26.4403642,0 Z M30.7898223,0 L30.7898223,3.85797634 L27.5598792,5.0933501 L27.5598792,0 L30.7898223,0 Z M53.3567817,0.384037649 L53.3567817,2.86561583 L50.7479642,2.86561583 L50.7479642,0.384037649 L53.3567817,0.384037649 Z" id="Combined-Shape" fill="#464646"></path>
                <path d="M84.0025082,14.02 L84.0290655,14.0111475 C85.5959508,14.0111475 86.9238196,13.6127869 88.0038196,12.8072131 C89.0838196,12.0016393 89.7831639,11.0455738 90.093,9.93901639 L87.6851311,9.31934426 C87.4638196,9.98327869 87.0211967,10.5409836 86.3572623,10.992459 C85.6933278,11.4439344 84.8966065,11.6740984 83.9759508,11.6740984 C82.7631639,11.6740984 81.780541,11.2580328 81.0192295,10.4170492 C80.257918,9.57606557 79.8772623,8.56688525 79.8772623,7.38065574 C79.8772623,6.20327869 80.257918,5.20295082 81.010377,4.37967213 C81.762836,3.55639344 82.7543114,3.14918033 83.9759508,3.14918033 C84.8966065,3.14918033 85.6844754,3.37934426 86.3484098,3.83967213 C87.0123442,4.3 87.4549672,4.86655738 87.6762787,5.5304918 L90.1107049,4.93737705 C89.7831639,3.82196721 89.0749672,2.85704918 87.9949672,2.04262295 C86.9149672,1.22819672 85.5693934,0.820983607 83.9670983,0.820983607 C82.0815246,0.820983607 80.5057869,1.4495082 79.2398852,2.70655738 C77.9739836,3.96360656 77.345459,5.5304918 77.345459,7.39836066 C77.345459,9.28393443 77.9739836,10.8596721 79.2398852,12.1255738 C80.5057869,13.3914754 82.090377,14.02 84.0025082,14.02 Z M96.3339836,14.02 L96.360541,14.0111475 C97.4670983,14.0111475 98.405459,13.7455738 99.1756229,13.2232787 C99.9457869,12.7009836 100.476934,12.0901639 100.777918,11.3996721 L98.617918,10.7622951 C98.193,11.5678689 97.4493934,11.975082 96.3870983,11.975082 C95.590377,11.975082 94.9707049,11.7891803 94.5192295,11.4085246 C94.0677541,11.0278689 93.8021803,10.5232787 93.7225082,9.8947541 L100.848738,9.8947541 C100.884148,9.7 100.901852,9.41672131 100.901852,9.04491803 C100.901852,7.6904918 100.476934,6.56622951 99.6270983,5.67213115 C98.7772623,4.77803279 97.6175901,4.33540984 96.1569344,4.33540984 C94.7316885,4.33540984 93.5720164,4.7957377 92.6867705,5.71639344 C91.8015246,6.63704918 91.3589016,7.79672131 91.3589016,9.18655738 C91.3589016,10.6383607 91.8192295,11.8068852 92.7398852,12.6921311 C93.660541,13.577377 94.8556229,14.02 96.3339836,14.02 Z M98.5559508,8.39868852 L93.7048032,8.39868852 C93.7756229,7.84098361 94.0323442,7.36295082 94.4749672,6.96459016 C94.9175901,6.56622951 95.4664426,6.36262295 96.130377,6.36262295 C96.8208688,6.36262295 97.3785737,6.55737705 97.8123442,6.94688525 C98.2461147,7.33639344 98.4939836,7.82327869 98.5559508,8.39868852 Z M111.684148,13.7632787 L111.684148,8.39868852 C111.684148,7.14163934 111.374311,6.15016393 110.754639,5.4242623 C110.134967,4.69836066 109.240869,4.33540984 108.063492,4.33540984 L108.063492,4.32655738 C106.833,4.32655738 105.850377,4.7957377 105.115623,5.74295082 L105.115623,4.58327869 L102.725459,4.58327869 L102.725459,13.7544262 L105.115623,13.7544262 L105.115623,9.22196721 C105.115623,8.41639344 105.319229,7.77016393 105.726443,7.28327869 C106.133656,6.79639344 106.664803,6.55737705 107.328738,6.55737705 C107.974967,6.55737705 108.461852,6.76098361 108.789393,7.16819672 C109.116934,7.57540984 109.285131,8.13311475 109.285131,8.85016393 L109.285131,13.7632787 L111.684148,13.7632787 Z M117.615295,13.8960656 C118.314639,13.8960656 119.031688,13.7544262 119.75759,13.4622951 L119.173328,11.5236066 C118.836934,11.6918033 118.473984,11.7803279 118.084475,11.7803279 C117.332016,11.7803279 116.960213,11.3908197 116.960213,10.6206557 L116.960213,6.68131148 L119.642508,6.68131148 L119.642508,4.58327869 L116.960213,4.58327869 L116.960213,1.60885246 L114.552344,1.60885246 L114.552344,4.58327869 L113.012016,4.58327869 L113.012016,6.68131148 L114.552344,6.68131148 L114.552344,10.6206557 C114.552344,11.647541 114.809066,12.4531148 115.322508,13.0285246 C115.835951,13.6039344 116.597262,13.8960656 117.615295,13.8960656 Z M123.785459,13.7544262 L123.785459,9.76196721 C123.785459,8.55803279 124.04218,7.70819672 124.54677,7.21245902 C125.051361,6.71672131 125.80382,6.54852459 126.804148,6.70786885 L126.804148,4.45934426 C125.471071,4.27604629 124.49871,4.70439503 123.887063,5.74439049 L123.785084,5.92958898 L123.785459,4.58327869 L121.395295,4.58327869 L121.395295,13.7544262 L123.785459,13.7544262 Z M132.336934,14.02 L132.345787,14.0111475 C133.602836,14.0111475 134.585459,13.5508197 135.293656,12.6301639 L135.293656,13.7544262 L137.710377,13.7544262 L137.710377,4.58327869 L135.293656,4.58327869 L135.293656,5.68983607 C134.585459,4.77803279 133.602836,4.32655738 132.345787,4.32655738 C131.06218,4.32655738 129.98218,4.78688525 129.114639,5.70754098 C128.247098,6.62819672 127.813328,7.78786885 127.813328,9.17770492 C127.813328,10.5498361 128.247098,11.7006557 129.114639,12.6301639 C129.98218,13.5596721 131.053328,14.02 132.336934,14.02 Z M132.753,11.8777049 C132.000541,11.8777049 131.380869,11.6209836 130.893984,11.1163934 C130.407098,10.6118033 130.168082,9.95672131 130.168082,9.16 C130.168082,8.37213115 130.407098,7.72590164 130.893984,7.22131148 C131.380869,6.71672131 132.000541,6.46885246 132.753,6.46885246 C133.487754,6.46885246 134.107426,6.72557377 134.612016,7.23016393 C135.116607,7.7347541 135.364475,8.37213115 135.364475,9.14229508 C135.364475,9.93016393 135.116607,10.5763934 134.612016,11.0898361 C134.107426,11.6032787 133.487754,11.86 132.753,11.86 L132.753,11.8777049 Z M142.446443,13.7544262 L142.446443,0.52 L140.056279,0.52 L140.056279,13.7544262 L142.446443,13.7544262 Z" id="Central" fill="#5567D5"></path>
            </g>
        </g>
    </g>
</svg>