<?xml version="1.0" encoding="utf-8"?>
<!-- Generator: Adobe Illustrator 16.0.0, SVG Export Plug-In . SVG Version: 6.00 Build 0)  -->
<!DOCTYPE svg PUBLIC "-//W3C//DTD SVG 1.1//EN" "http://www.w3.org/Graphics/SVG/1.1/DTD/svg11.dtd">
<svg version="1.1" id="Layer_1" xmlns="http://www.w3.org/2000/svg" xmlns:xlink="http://www.w3.org/1999/xlink" x="0px" y="0px"
	 width="211px" height="57.25px" viewBox="0 0 211 57.25" enable-background="new 0 0 211 57.25" xml:space="preserve">
<g>
	<defs>
		<rect id="SVGID_1_" x="-13.75" y="-9.657" width="234.272" height="75.907"/>
	</defs>
	<clipPath id="SVGID_2_">
		<use xlink:href="#SVGID_1_"  overflow="visible"/>
	</clipPath>
	<path clip-path="url(#SVGID_2_)" fill="#222228" d="M74.035,13.191C73.778,7.002,68.679,2.064,62.427,2.064H32.042l-0.491,0.01
		C25.362,2.332,20.424,7.43,20.424,13.682l-0.001,13.404l-7.379,0.002l-0.277-0.011C11.032,26.944,9.7,25.58,9.7,23.96l0.002-9.987
		c2.112-1.005,3.573-3.158,3.573-5.653c0-3.455-2.801-6.256-6.256-6.256c-3.455,0-6.256,2.801-6.256,6.256
		c0,2.495,1.461,4.648,3.573,5.653l0.002,10.035l0.008,0.38c0.204,4.533,4.041,8.111,8.698,8.111l7.379-0.001l0.001,11.569
		l0.01,0.49c0.258,6.189,5.356,11.127,11.608,11.127h30.385l0.491-0.01c6.189-0.257,11.127-5.355,11.127-11.607V13.682
		L74.035,13.191z M68.683,44.067l-0.012,0.382c-0.196,3.276-2.917,5.874-6.244,5.874H32.042l-0.381-0.012
		c-3.278-0.196-5.874-2.918-5.874-6.244V13.682l0.011-0.381c0.197-3.277,2.917-5.875,6.244-5.875h30.385
		c3.455,0,6.256,2.801,6.256,6.256V44.067z"/>
	<path clip-path="url(#SVGID_2_)" fill="#222228" d="M47.831,16.363c3.137,0,5.764,0.762,7.903,2.285
		c2.14,1.524,3.478,3.255,4.013,5.218c-0.775,1.098-1.418,1.717-1.927,1.854c-0.566,0.155-1.537-0.025-2.913-0.539
		c-0.364-1.177-1.191-2.193-2.48-3.07c-1.288-0.877-2.796-1.315-4.523-1.315c-2.383,0-4.329,0.784-5.836,2.331
		c-1.508,1.547-2.262,3.439-2.262,5.678c0,2.194,0.754,4.086,2.262,5.68c1.507,1.593,3.453,2.378,5.812,2.378
		c1.726,0,3.234-0.416,4.523-1.247c1.288-0.831,2.115-1.823,2.48-3.001c1.23-0.376,2.117-0.493,2.659-0.352
		c0.533,0.141,1.26,0.681,2.181,1.621c-0.536,1.916-1.849,3.625-3.964,5.148c-1.953,1.405-4.341,2.163-7.164,2.271l-0.715,0.015
		v0.068c-3.77,0-6.906-1.2-9.411-3.601c-2.505-2.401-3.745-5.378-3.745-8.934c0-3.554,1.24-6.532,3.72-8.91
		C40.925,17.563,44.062,16.363,47.831,16.363"/>
	<path clip-path="url(#SVGID_2_)" fill="#222228" d="M86.311,7.417v13.972c1.809-2.553,4.278-3.906,7.408-4.055l0.595-0.015v-0.045
		c2.962,0,5.245,0.905,6.851,2.736c1.49,1.7,2.279,3.985,2.383,6.855l0.014,0.673v13.655h-4.815V28.419
		c0-2.058-0.475-3.662-1.448-4.816c-0.971-1.153-2.396-1.741-4.272-1.741c-2.035,0-3.663,0.701-4.884,2.126
		c-1.119,1.305-1.726,2.99-1.818,5.074l-0.013,0.578v11.575h-4.861V7.417H86.311z"/>
	<path clip-path="url(#SVGID_2_)" fill="#222228" d="M151.928,17.616l0.609,0.065v4.522c-2.555-0.385-4.521,0.112-5.9,1.492
		c-1.287,1.287-1.964,3.401-2.048,6.361l-0.01,0.647v10.513h-4.86V17.929h4.86l-0.002,3.691l0.2-0.383
		c0.691-1.237,1.658-2.182,2.899-2.833C148.902,17.762,150.324,17.493,151.928,17.616"/>
	<path clip-path="url(#SVGID_2_)" fill="#222228" d="M130.303,20.823c-2.352-2.329-5.313-3.482-8.862-3.482
		c-3.55,0-6.489,1.176-8.84,3.505c-2.353,2.328-3.527,5.245-3.527,8.727c0,3.503,1.175,6.42,3.527,8.749
		c2.351,2.328,5.29,3.503,8.84,3.503h0.021l0.659-0.013c3.255-0.139,5.977-1.309,8.182-3.49c2.351-2.329,3.526-5.246,3.526-8.749
		C133.829,26.068,132.653,23.152,130.303,20.823 M126.934,35.18c-1.446,1.491-3.278,2.237-5.493,2.237
		c-2.216,0-4.047-0.746-5.472-2.237c-1.425-1.492-2.147-3.347-2.147-5.562c0-2.26,0.723-4.137,2.147-5.628
		c1.425-1.493,3.256-2.239,5.472-2.239c2.215,0,4.047,0.746,5.493,2.239c1.446,1.491,2.171,3.368,2.171,5.628
		C129.104,31.833,128.38,33.688,126.934,35.18"/>
	<path clip-path="url(#SVGID_2_)" fill="#222228" d="M206.213,20.823c-2.351-2.329-5.312-3.482-8.862-3.482
		c-3.549,0-6.488,1.176-8.839,3.505c-2.353,2.328-3.527,5.245-3.527,8.727c0,3.503,1.175,6.42,3.527,8.749
		c2.351,2.328,5.29,3.503,8.839,3.503h0.021l0.66-0.013c3.255-0.139,5.977-1.309,8.181-3.49c2.352-2.329,3.527-5.246,3.527-8.749
		C209.74,26.068,208.564,23.152,206.213,20.823 M202.845,35.18c-1.447,1.491-3.278,2.237-5.494,2.237
		c-2.215,0-4.047-0.746-5.472-2.237c-1.425-1.492-2.146-3.347-2.146-5.562c0-2.26,0.722-4.137,2.146-5.628
		c1.425-1.493,3.257-2.239,5.472-2.239c2.216,0,4.047,0.746,5.494,2.239c1.446,1.491,2.17,3.368,2.17,5.628
		C205.015,31.833,204.291,33.688,202.845,35.18"/>
	<path clip-path="url(#SVGID_2_)" fill="#222228" d="M177.033,20.71c-2.125-2.238-5.019-3.347-8.705-3.347
		c-3.548,0-6.442,1.176-8.658,3.505c-2.216,2.328-3.322,5.245-3.322,8.749c0,3.641,1.151,6.603,3.459,8.863
		c2.306,2.26,5.29,3.392,8.975,3.392l-0.045-0.047l0.687-0.013c2.483-0.1,4.605-0.749,6.366-1.931
		c1.922-1.288,3.302-2.85,4.139-4.681l-4.433-1.311l-0.209,0.407c-1.237,2.236-3.382,3.346-6.415,3.346
		c-2.282,0-4.113-0.611-5.471-1.809c-1.357-1.198-2.102-2.78-2.261-4.747h18.923l0.073-0.518c0.06-0.507,0.085-0.986,0.085-1.427
		C180.221,25.751,179.158,22.949,177.033,20.71 M161.14,27.876l0.07-0.521c0.266-1.538,0.988-2.856,2.167-3.955
		c1.312-1.221,2.963-1.832,4.975-1.832c2.08,0,3.753,0.588,4.997,1.764c1.243,1.176,1.943,2.69,2.103,4.544H161.14z"/>
</g>
</svg>
