<svg width="67" height="80" viewBox="0 0 67 80" fill="none" xmlns="http://www.w3.org/2000/svg">
<path fill-rule="evenodd" clip-rule="evenodd" d="M0.0117188 24.4031H8.6159C8.61549 23.8853 8.6159 15.7334 8.6159 15.7334L16.61 15.7987L16.4896 10.1533C13.3122 10.3064 8.6159 10.4464 8.6159 10.4464V7.08482L20.2316 7.2533L20.0714 0.716983C15.8716 0.847285 3.29129 1.20546 0.0117188 1.20546C0.0917182 2.15071 0.171718 10.0038 0.171718 10.5252V14.8591C0.171718 15.6411 0.171718 22.6144 0.0117188 24.4031Z" fill="#00F5FF"/>
<path fill-rule="evenodd" clip-rule="evenodd" d="M29.9983 10.4912C30.8373 11.8524 32.0926 13.9346 33.195 15.799L26.7617 16.0931C27.7856 14.2614 29.053 12.0613 29.9983 10.4912ZM21.5335 25.481C22.3993 23.944 23.8167 21.3925 24.1317 20.9345L35.9831 20.3784C36.3764 20.9345 38.3843 23.8458 39.5257 25.4484L47.3216 21.6216C45.6679 19.757 35.0768 5.92029 30.352 -7.15068e-05H29.9589C26.1395 5.00434 15.2341 20.3458 14.0527 22.0137L21.5335 25.481Z" fill="#00F5FF"/>
<path fill-rule="evenodd" clip-rule="evenodd" d="M64.0531 68.5014C63.2495 68.5014 62.6099 67.8659 62.6099 66.9899C62.6099 66.1186 63.2495 65.4885 64.0531 65.4885C64.8467 65.4885 65.4966 66.1186 65.4966 66.9899C65.4966 67.8659 64.8467 68.5014 64.0531 68.5014ZM64.0531 65.0786C63.0141 65.0786 62.0877 65.8267 62.0879 66.9899C62.0877 68.1584 63.0141 68.9111 64.0531 68.9111C65.0921 68.9113 66.0186 68.1584 66.0186 66.9899C66.0186 65.8267 65.0921 65.0786 64.0531 65.0786Z" fill="#00F5FF"/>
<path fill-rule="evenodd" clip-rule="evenodd" d="M63.7161 66.8096L63.7157 66.246H64.074C64.2684 66.246 64.5142 66.2819 64.5142 66.5126C64.5142 66.7736 64.3353 66.8096 64.0944 66.8096H63.7161ZM64.9389 66.5482C64.9391 66.0821 64.6373 65.9128 64.0997 65.9128H63.291V68.0603H63.7161V67.1429H63.9821L64.5037 68.0603H64.9492L64.3763 67.1223C64.6934 67.0967 64.9389 66.9427 64.9389 66.5482" fill="#00F5FF"/>
<path fill-rule="evenodd" clip-rule="evenodd" d="M7.87449 63.6817V53.9173C11.3278 53.9382 15.3565 54.6246 15.3565 57.7131C15.3569 61.5636 10.5682 63.2781 7.87449 63.6817ZM15.9433 66.1427C20.9954 63.9553 23.6659 60.7118 23.6659 56.763C23.6659 55.0048 22.6324 50.8 13.0589 49.7354C9.94558 49.3834 2.71311 49.2463 0.0278787 49.2463C0.138181 50.1143 0.168484 56.1167 0.168484 56.6963V60.1005C0.168282 60.864 0.0822216 68.4075 0 68.9746C4.89471 68.9746 11.7862 67.9425 15.9433 66.1427" fill="#00F5FF"/>
<path fill-rule="evenodd" clip-rule="evenodd" d="M31.7847 61.5407C32.537 60.1894 33.517 58.4567 34.2426 57.2312C34.6129 57.9057 36.383 60.8079 36.6885 61.3219L31.7847 61.5407ZM20.8789 66.6913L27.3534 69.7131C27.3534 69.7131 29.2542 66.3027 29.514 65.8922L39.0905 65.44C39.2206 65.6261 42.0367 69.6818 42.0367 69.6818L48.7722 66.353C47.4068 64.5998 38.1962 52.7009 34.6709 48.2818L34.6214 48.2191H34.135L34.0853 48.2848C30.8419 52.7009 22.3553 64.5998 20.8789 66.6913" fill="#00F5FF"/>
<path fill-rule="evenodd" clip-rule="evenodd" d="M54.2603 41.2814L55.114 46.6938C62.7578 46.1953 66.6838 42.3496 66.6838 39.3672C66.6838 35.3766 60.6628 34.1412 60.6628 33.1238C60.6628 32.1851 62.724 31.9352 65.5446 32.1626L64.6921 26.9906C57.534 27.3685 53.4453 30.5738 53.4453 33.6891C53.4453 36.9848 59.195 38.3925 59.195 39.6291C59.195 40.5258 57.9538 41.368 54.2603 41.2814Z" fill="#00F5FF"/>
<path d="M36.9541 27.1211L29.9381 27.1209C30.2721 28.9948 30.6812 32.3045 30.6812 34.4772C30.6812 36.5728 30.6895 38.8198 30.245 39.9764C29.8553 40.9905 29.3089 41.5582 28.2959 41.5582C27.2832 41.5582 26.777 40.9905 26.3648 39.9766C25.8857 38.7968 25.9107 36.9043 25.9107 34.6546C25.9107 32.7447 26.3366 29.2039 26.637 27.4938H19.5366C19.4774 28.4902 19.3164 31.6271 19.3164 33.1938C19.3164 39.0022 19.5889 41.3147 20.9891 43.3333C22.5641 45.5602 25.0634 46.6426 28.2959 46.6426C31.0709 46.6426 33.3401 45.5941 34.9593 43.6929C36.9583 41.3762 37.2001 38.3121 37.2001 33.1938C37.2001 31.6271 37.0597 28.1108 36.9541 27.1211Z" fill="#00F5FF"/>
<path fill-rule="evenodd" clip-rule="evenodd" d="M52.3783 46.4819L52.2557 41.1347C51.2318 41.1907 46.5612 41.2303 45.9347 41.2303V38.8127C46.5438 38.8127 50.544 38.9062 51.2339 38.9062L51.1405 34.0879C50.0813 34.1966 46.8533 34.3487 45.9347 34.3487V32.0814C46.2785 32.0732 51.3938 31.9441 51.9811 31.9441L51.8579 26.99C50.3949 27.1471 40.7366 27.4653 39.4824 27.4653C39.5162 28.7528 39.5626 34.5966 39.5626 35.0192V38.5584C39.5626 39.1658 39.5628 44.7563 39.4824 46.2177C40.7842 46.2177 51.0682 46.4819 52.3783 46.4819Z" fill="#00F5FF"/>
<path d="M66.6656 53.5209L62.2776 48.7989C60.2647 49.3003 55.8895 52.8086 54.1453 55.6508C52.4013 52.8086 48.026 49.3003 46.0133 48.7989L41.625 53.5209C45.8056 55.5177 48.9054 58.1007 50.3864 60.4738C50.3924 62.6962 50.251 67.6054 50.1833 68.8301H58.1075C58.0398 67.6054 57.8984 62.6962 57.9045 60.4738C59.3853 58.1007 62.4853 55.5177 66.6656 53.5209Z" fill="#00F5FF"/>
<path d="M9.63589 27.7301H7.75065C7.22884 27.7301 1.28969 27.6244 0.0117188 27.5187V32.9044L0.507069 32.8882C0.728279 32.8809 1.08484 32.8656 1.50989 32.8476C2.41534 32.8092 4.51492 32.7587 5.38057 32.7428V38.8383C5.38057 41.7661 5.35148 45.6273 5.30097 46.1934H12.0854C12.0351 45.6273 12.0062 41.7661 12.0062 38.8383V32.7428C12.8716 32.7587 14.9712 32.8092 15.8767 32.8476C16.3017 32.8656 16.6583 32.8809 16.8797 32.8882L17.3748 32.9044V27.5187C16.0969 27.6244 10.1577 27.7301 9.63589 27.7301Z" fill="#00F5FF"/>
<path d="M65.9085 7.6335V0.716983C64.8816 0.850113 55.2773 0.983244 54.8241 0.983244H51.5258C51.0726 0.983244 41.4683 0.850113 40.4414 0.716983V7.6335C40.8915 7.60037 46.7688 7.43411 48.7474 7.43411V15.4046C48.7474 19.0308 48.7064 23.5382 48.6238 24.4031H57.7259C57.6435 23.5382 57.6027 19.0308 57.6027 15.4046V7.43411C59.5811 7.43411 65.4584 7.60037 65.9085 7.6335Z" fill="#00F5FF"/>
<path fill-rule="evenodd" clip-rule="evenodd" d="M65.9084 80C62.9535 80 61.5412 78.0463 58.5864 78.0463C55.6315 78.0463 54.2192 80 51.2643 80C48.3093 80 46.8976 78.0463 43.9429 78.0463C40.988 78.0463 39.5757 80 36.6207 80C33.6658 80 32.2541 78.0463 29.2992 78.0463C26.3443 78.0463 24.9321 80 21.9772 80C19.0223 80 17.6106 78.0463 14.6557 78.0463C11.7007 78.0463 10.2886 80 7.33369 80C4.37876 80 2.96665 78.0463 0.0117188 78.0463V72.0853C2.96665 72.0853 4.37876 74.039 7.33369 74.039C10.2886 74.039 11.7007 72.0853 14.6557 72.0853C17.6106 72.0853 19.0223 74.039 21.9772 74.039C24.9321 74.039 26.3443 72.0853 29.2992 72.0853C32.2541 72.0853 33.6658 74.039 36.6207 74.039C39.5757 74.039 40.988 72.0853 43.9429 72.0853C46.8976 72.0853 48.3093 74.039 51.2643 74.039C54.2192 74.039 55.6315 72.0853 58.5864 72.0853C61.5412 72.0853 62.9535 74.039 65.9084 74.039V80Z" fill="#FF50BE"/>
</svg>
