<svg id="Layer_1" data-name="Layer 1" xmlns="http://www.w3.org/2000/svg" viewBox="0 0 90 90"><defs><style>.cls-1{fill:#41c4bf;}.cls-2{fill:#fff;}</style></defs><circle class="cls-1" cx="45" cy="44.75" r="24.27"/><path class="cls-2" d="M61.18,44.75a3.55,3.55,0,0,0-3.55-3.55,3.41,3.41,0,0,0-2.44,1,17.45,17.45,0,0,0-9.45-3l1.62-7.58,5.25,1.1a2.53,2.53,0,1,0,2.52-2.64,2.46,2.46,0,0,0-2.24,1.42L47,30.24a.75.75,0,0,0-.49.09.73.73,0,0,0-.28.4l-1.79,8.46a17.15,17.15,0,0,0-9.59,3,3.6,3.6,0,0,0-2.45-1A3.55,3.55,0,0,0,31,48a6.3,6.3,0,0,0-.09,1.08c0,5.45,6.33,9.85,14.17,9.85s14.16-4.4,14.16-9.85A7.34,7.34,0,0,0,59.14,48,3.66,3.66,0,0,0,61.18,44.75ZM36.91,47.28a2.53,2.53,0,1,1,2.53,2.52A2.54,2.54,0,0,1,36.91,47.28ZM51,54c-1.73,1.73-5,1.84-6,1.84s-4.29-.14-6-1.84A.66.66,0,0,1,39,53,.68.68,0,0,1,40,53c1.07,1.08,3.4,1.48,5.08,1.48s4-.4,5.08-1.48a.67.67,0,0,1,.93,0A.74.74,0,0,1,51,54Zm-.46-4.15a2.53,2.53,0,1,1,2.53-2.52A2.52,2.52,0,0,1,50.56,49.8Z"/></svg>