<svg id="Layer_1" data-name="Layer 1" xmlns="http://www.w3.org/2000/svg" viewBox="0 0 90 90"><defs><style>.cls-1{fill:#41c4bf;}</style></defs><path class="cls-1" d="M30.6,51.47a5.22,5.22,0,1,1-5.22-5.22H30.6Z"/><path class="cls-1" d="M33.23,51.47a5.22,5.22,0,0,1,10.44,0V64.54a5.22,5.22,0,1,1-10.44,0Z"/><path class="cls-1" d="M38.45,30.52a5.22,5.22,0,1,1,5.22-5.22v5.22Z"/><path class="cls-1" d="M38.45,33.15a5.22,5.22,0,1,1,0,10.43H25.38a5.22,5.22,0,1,1,0-10.43Z"/><path class="cls-1" d="M59.4,38.37a5.22,5.22,0,1,1,5.22,5.21H59.4Z"/><path class="cls-1" d="M56.77,38.37a5.22,5.22,0,0,1-10.43,0V25.3a5.22,5.22,0,1,1,10.43,0Z"/><path class="cls-1" d="M51.55,59.32a5.22,5.22,0,1,1-5.22,5.22V59.32Z"/><path class="cls-1" d="M51.55,56.69a5.22,5.22,0,0,1,0-10.44H64.62a5.22,5.22,0,0,1,0,10.44Z"/></svg>