<svg id="Layer_1" data-name="Layer 1" xmlns="http://www.w3.org/2000/svg" viewBox="0 0 140 140"><defs><style>.cls-1{fill:#fff;}</style></defs><path class="cls-1" d="M34.77,86A12.77,12.77,0,1,1,22,73.27H34.77Z"/><path class="cls-1" d="M41.2,86a12.77,12.77,0,0,1,25.53,0v32a12.77,12.77,0,0,1-25.53,0Z"/><path class="cls-1" d="M54,34.77A12.77,12.77,0,1,1,66.73,22V34.77Z"/><path class="cls-1" d="M54,41.2a12.77,12.77,0,0,1,0,25.53H22A12.77,12.77,0,0,1,22,41.2Z"/><path class="cls-1" d="M105.23,54A12.77,12.77,0,1,1,118,66.73H105.23Z"/><path class="cls-1" d="M98.8,54a12.77,12.77,0,0,1-25.53,0V22A12.77,12.77,0,0,1,98.8,22Z"/><path class="cls-1" d="M86,105.23A12.77,12.77,0,1,1,73.27,118V105.23Z"/><path class="cls-1" d="M86,98.8a12.77,12.77,0,0,1,0-25.53h32a12.77,12.77,0,0,1,0,25.53Z"/></svg>