<svg id="Layer_1" data-name="Layer 1" xmlns="http://www.w3.org/2000/svg" viewBox="0 0 90 90"><defs><style>.cls-1{fill:#e01e5a;}.cls-2{fill:#36c5f0;}.cls-3{fill:#2eb67d;}.cls-4{fill:#ecb22e;}</style></defs><path class="cls-1" d="M31.54,50.29a4.88,4.88,0,1,1-4.88-4.88h4.88Z"/><path class="cls-1" d="M34,50.29a4.88,4.88,0,1,1,9.75,0V62.5a4.88,4.88,0,1,1-9.75,0Z"/><path class="cls-2" d="M38.87,30.7a4.88,4.88,0,1,1,4.88-4.88V30.7Z"/><path class="cls-2" d="M38.87,33.16a4.88,4.88,0,0,1,0,9.76H26.66a4.88,4.88,0,1,1,0-9.76Z"/><path class="cls-3" d="M58.46,38a4.88,4.88,0,1,1,4.88,4.88H58.46Z"/><path class="cls-3" d="M56,38a4.88,4.88,0,1,1-9.75,0V25.82a4.88,4.88,0,0,1,9.75,0Z"/><path class="cls-4" d="M51.13,57.63a4.88,4.88,0,1,1-4.88,4.87V57.63Z"/><path class="cls-4" d="M51.13,55.17a4.88,4.88,0,0,1,0-9.76H63.34a4.88,4.88,0,0,1,0,9.76Z"/></svg>