<svg id="Layer_1" data-name="Layer 1" xmlns="http://www.w3.org/2000/svg" viewBox="0 0 90 90"><defs><style>.cls-1{fill:#41c4bf;}</style></defs><path class="cls-1" d="M75.44,28A22.17,22.17,0,0,1,69,29.72a11.27,11.27,0,0,0,4.94-6.21,22.29,22.29,0,0,1-7.13,2.72A11.24,11.24,0,0,0,47.67,36.47,31.89,31.89,0,0,1,24.54,24.74a11.25,11.25,0,0,0,3.47,15,11.1,11.1,0,0,1-5.08-1.41,11.24,11.24,0,0,0,9,11.15,11.19,11.19,0,0,1-5.07.19,11.26,11.26,0,0,0,10.49,7.8,22.58,22.58,0,0,1-16.62,4.65,31.82,31.82,0,0,0,17.21,5c20.84,0,32.61-17.6,31.9-33.39A22.75,22.75,0,0,0,75.44,28Z"/></svg>