<svg id="Layer_1" data-name="Layer 1" xmlns="http://www.w3.org/2000/svg" viewBox="0 0 140 140"><defs><style>.cls-1{fill:#fff;}</style></defs><path class="cls-1" d="M135.83,27.88a55.84,55.84,0,0,1-16,4.38,27.92,27.92,0,0,0,12.25-15.42,55.62,55.62,0,0,1-17.7,6.77A27.89,27.89,0,0,0,66.89,49,79.09,79.09,0,0,1,9.46,19.91a27.89,27.89,0,0,0,8.62,37.2A27.65,27.65,0,0,1,5.46,53.63,27.89,27.89,0,0,0,27.81,81.3a27.82,27.82,0,0,1-12.59.48,27.91,27.91,0,0,0,26,19.35A56,56,0,0,1,0,112.67a78.84,78.84,0,0,0,42.72,12.52c51.74,0,81-43.7,79.2-82.89A56.59,56.59,0,0,0,135.83,27.88Z"/></svg>