<svg id="Layer_1" data-name="Layer 1" xmlns="http://www.w3.org/2000/svg" viewBox="0 0 90 90"><defs><style>.cls-1{fill:#1d9bf0;}</style></defs><g id="Logo"><path id="white_background" data-name="white background" class="cls-1" d="M66.07,33.35c0,.47,0,.94,0,1.41,0,14.37-10.93,30.93-30.93,30.93h0a30.74,30.74,0,0,1-16.66-4.87,22.2,22.2,0,0,0,2.58.16,21.81,21.81,0,0,0,13.5-4.67,10.86,10.86,0,0,1-10.15-7.54,11,11,0,0,0,4.91-.19,10.87,10.87,0,0,1-8.72-10.66v-.14a10.66,10.66,0,0,0,4.93,1.36,10.88,10.88,0,0,1-3.37-14.51A30.89,30.89,0,0,0,44.6,36a10.89,10.89,0,0,1,18.53-9.92A21.69,21.69,0,0,0,70,23.42a10.86,10.86,0,0,1-4.78,6,21.42,21.42,0,0,0,6.24-1.71A21.66,21.66,0,0,1,66.07,33.35Z"/></g></svg>