<svg id="Layer_1" data-name="Layer 1" xmlns="http://www.w3.org/2000/svg" viewBox="0 0 90 90"><defs><style>.cls-1{fill:red;}.cls-2{fill:#fff;}</style></defs><path class="cls-1" d="M73.68,29.76a7.51,7.51,0,0,0-5.29-5.3C63.72,23.21,45,23.21,45,23.21s-18.72,0-23.39,1.25a7.51,7.51,0,0,0-5.29,5.3c-1.25,4.66-1.25,14.4-1.25,14.4s0,9.74,1.25,14.41a7.48,7.48,0,0,0,5.29,5.29C26.28,65.11,45,65.11,45,65.11s18.72,0,23.39-1.25a7.48,7.48,0,0,0,5.29-5.29c1.25-4.67,1.25-14.41,1.25-14.41S74.93,34.42,73.68,29.76Z"/><polygon class="cls-2" points="39.01 53.14 54.56 44.16 39.01 35.19 39.01 53.14"/></svg>