<svg version="1.1" viewBox="0.0 0.0 1063.4199475065616 754.6430446194225" fill="none" stroke="none" stroke-linecap="square" stroke-miterlimit="10" xmlns:xlink="http://www.w3.org/1999/xlink" xmlns="http://www.w3.org/2000/svg"><clipPath id="p.0"><path d="m0 0l1063.4199 0l0 754.64307l-1063.4199 0l0 -754.64307z" clip-rule="nonzero"/></clipPath><g clip-path="url(#p.0)"><path fill="#000000" fill-opacity="0.0" d="m0 0l1063.4199 0l0 754.64307l-1063.4199 0z" fill-rule="evenodd"/><path fill="#595b5f" d="m191.61417 656.84906l680.31494 0l0 75.590576l-680.31494 0z" fill-rule="evenodd"/><path stroke="#ffffff" stroke-width="1.0" stroke-linejoin="round" stroke-linecap="butt" d="m191.61417 656.84906l680.31494 0l0 75.590576l-680.31494 0z" fill-rule="evenodd"/><path fill="#ffffff" d="m377.45578 701.56433l0 -13.359375l1.765625 0l0 13.359375l-1.765625 0zm3.448944 0.234375l3.875 -13.8125l1.3125 0l-3.859375 13.8125l-1.328125 0zm6.0895386 -6.734375q0 -3.328125 1.78125 -5.203125q1.78125 -1.890625 4.609375 -1.890625q1.84375 0 3.328125 0.890625q1.484375 0.875 2.265625 2.46875q0.78125 1.578125 0.78125 3.578125q0 2.03125 -0.828125 3.640625q-0.8125 1.59375 -2.3125 2.421875q-1.5 0.828125 -3.25 0.828125q-1.875 0 -3.359375 -0.90625q-1.484375 -0.921875 -2.25 -2.5q-0.765625 -1.578125 -0.765625 -3.328125zm1.8125 0.015625q0 2.421875 1.296875 3.8125q1.296875 1.390625 3.265625 1.390625q2.0 0 3.28125 -1.40625q1.28125 -1.40625 1.28125 -3.984375q0 -1.625 -0.546875 -2.84375q-0.546875 -1.21875 -1.609375 -1.875q-1.0625 -0.671875 -2.375 -0.671875q-1.890625 0 -3.25 1.296875q-1.34375 1.28125 -1.34375 4.28125zm17.819733 2.1875l1.65625 -0.140625q0.125 1.0 0.546875 1.640625q0.4375 0.640625 1.34375 1.046875q0.921875 0.390625 2.0625 0.390625q1.0 0 1.78125 -0.296875q0.78125 -0.296875 1.15625 -0.8125q0.375 -0.53125 0.375 -1.15625q0 -0.625 -0.375 -1.09375q-0.359375 -0.46875 -1.1875 -0.796875q-0.546875 -0.203125 -2.390625 -0.640625q-1.828125 -0.453125 -2.5625 -0.84375q-0.96875 -0.5 -1.4375 -1.234375q-0.46875 -0.75 -0.46875 -1.671875q0 -1.0 0.578125 -1.875q0.578125 -0.890625 1.671875 -1.34375q1.109375 -0.453125 2.453125 -0.453125q1.484375 0 2.609375 0.484375q1.140625 0.46875 1.75 1.40625q0.609375 0.921875 0.65625 2.09375l-1.6875 0.125q-0.140625 -1.265625 -0.9375 -1.90625q-0.78125 -0.65625 -2.3125 -0.65625q-1.609375 0 -2.34375 0.59375q-0.734375 0.59375 -0.734375 1.421875q0 0.71875 0.53125 1.171875q0.5 0.46875 2.65625 0.96875q2.15625 0.484375 2.953125 0.84375q1.171875 0.53125 1.71875 1.359375q0.5625 0.828125 0.5625 1.90625q0 1.0625 -0.609375 2.015625q-0.609375 0.9375 -1.75 1.46875q-1.140625 0.515625 -2.578125 0.515625q-1.8125 0 -3.046875 -0.53125q-1.21875 -0.53125 -1.921875 -1.59375q-0.6875 -1.0625 -0.71875 -2.40625zm12.224823 -0.546875q0 -2.6875 1.484375 -3.96875q1.25 -1.078125 3.046875 -1.078125q2.0 0 3.265625 1.3125q1.265625 1.296875 1.265625 3.609375q0 1.859375 -0.5625 2.9375q-0.5625 1.0625 -1.640625 1.65625q-1.0625 0.59375 -2.328125 0.59375q-2.03125 0 -3.28125 -1.296875q-1.25 -1.3125 -1.25 -3.765625zm1.6875 0q0 1.859375 0.796875 2.796875q0.8125 0.921875 2.046875 0.921875q1.21875 0 2.03125 -0.921875q0.8125 -0.9375 0.8125 -2.84375q0 -1.796875 -0.8125 -2.71875q-0.8125 -0.921875 -2.03125 -0.921875q-1.234375 0 -2.046875 0.921875q-0.796875 0.90625 -0.796875 2.765625zm15.625732 4.84375l0 -1.421875q-1.125 1.640625 -3.0625 1.640625q-0.859375 0 -1.609375 -0.328125q-0.734375 -0.328125 -1.09375 -0.828125q-0.359375 -0.5 -0.5 -1.21875q-0.109375 -0.46875 -0.109375 -1.53125l0 -5.984375l1.640625 0l0 5.359375q0 1.28125 0.109375 1.734375q0.15625 0.640625 0.65625 1.015625q0.5 0.375 1.234375 0.375q0.734375 0 1.375 -0.375q0.65625 -0.390625 0.921875 -1.03125q0.265625 -0.65625 0.265625 -1.890625l0 -5.1875l1.640625 0l0 9.671875l-1.46875 0zm4.031952 0l0 -9.671875l1.46875 0l0 1.46875q0.5625 -1.03125 1.03125 -1.359375q0.484375 -0.328125 1.0625 -0.328125q0.828125 0 1.6875 0.53125l-0.5625 1.515625q-0.609375 -0.359375 -1.203125 -0.359375q-0.546875 0 -0.96875 0.328125q-0.421875 0.328125 -0.609375 0.890625q-0.28125 0.875 -0.28125 1.921875l0 5.0625l-1.625 0zm12.540802 -3.546875l1.609375 0.21875q-0.265625 1.65625 -1.359375 2.609375q-1.078125 0.9375 -2.671875 0.9375q-1.984375 0 -3.1875 -1.296875q-1.203125 -1.296875 -1.203125 -3.71875q0 -1.578125 0.515625 -2.75q0.515625 -1.171875 1.578125 -1.75q1.0625 -0.59375 2.3125 -0.59375q1.578125 0 2.578125 0.796875q1.0 0.796875 1.28125 2.265625l-1.59375 0.234375q-0.234375 -0.96875 -0.8125 -1.453125q-0.578125 -0.5 -1.390625 -0.5q-1.234375 0 -2.015625 0.890625q-0.78125 0.890625 -0.78125 2.8125q0 1.953125 0.75 2.84375q0.75 0.875 1.953125 0.875q0.96875 0 1.609375 -0.59375q0.65625 -0.59375 0.828125 -1.828125zm9.640625 0.4375l1.6875 0.203125q-0.40625 1.484375 -1.484375 2.3125q-1.078125 0.8125 -2.765625 0.8125q-2.125 0 -3.375 -1.296875q-1.234375 -1.3125 -1.234375 -3.671875q0 -2.453125 1.25 -3.796875q1.265625 -1.34375 3.265625 -1.34375q1.9375 0 3.15625 1.328125q1.234375 1.3125 1.234375 3.703125q0 0.15625 0 0.4375l-7.21875 0q0.09375 1.59375 0.90625 2.453125q0.8125 0.84375 2.015625 0.84375q0.90625 0 1.546875 -0.46875q0.640625 -0.484375 1.015625 -1.515625zm-5.390625 -2.65625l5.40625 0q-0.109375 -1.21875 -0.625 -1.828125q-0.78125 -0.953125 -2.03125 -0.953125q-1.125 0 -1.90625 0.765625q-0.765625 0.75 -0.84375 2.015625zm8.485077 2.875l1.625 -0.25q0.125 0.96875 0.75 1.5q0.625 0.515625 1.75 0.515625q1.125 0 1.671875 -0.453125q0.546875 -0.46875 0.546875 -1.09375q0 -0.546875 -0.484375 -0.875q-0.328125 -0.21875 -1.671875 -0.546875q-1.8125 -0.46875 -2.515625 -0.796875q-0.6875 -0.328125 -1.046875 -0.90625q-0.359375 -0.59375 -0.359375 -1.3125q0 -0.640625 0.296875 -1.1875q0.296875 -0.5625 0.8125 -0.921875q0.375 -0.28125 1.03125 -0.46875q0.671875 -0.203125 1.421875 -0.203125q1.140625 0 2.0 0.328125q0.859375 0.328125 1.265625 0.890625q0.421875 0.5625 0.578125 1.5l-1.609375 0.21875q-0.109375 -0.75 -0.640625 -1.171875q-0.515625 -0.421875 -1.46875 -0.421875q-1.140625 0 -1.625 0.375q-0.46875 0.375 -0.46875 0.875q0 0.3125 0.1875 0.578125q0.203125 0.265625 0.640625 0.4375q0.234375 0.09375 1.4375 0.421875q1.75 0.453125 2.4375 0.75q0.6875 0.296875 1.078125 0.859375q0.390625 0.5625 0.390625 1.40625q0 0.828125 -0.484375 1.546875q-0.46875 0.71875 -1.375 1.125q-0.90625 0.390625 -2.046875 0.390625q-1.875 0 -2.875 -0.78125q-0.984375 -0.78125 -1.25 -2.328125zm21.480194 1.703125q-0.921875 0.765625 -1.765625 1.09375q-0.828125 0.3125 -1.796875 0.3125q-1.59375 0 -2.453125 -0.78125q-0.859375 -0.78125 -0.859375 -1.984375q0 -0.71875 0.328125 -1.296875q0.328125 -0.59375 0.84375 -0.9375q0.53125 -0.359375 1.1875 -0.546875q0.46875 -0.125 1.453125 -0.25q1.984375 -0.234375 2.921875 -0.5625q0.015625 -0.34375 0.015625 -0.421875q0 -1.0 -0.46875 -1.421875q-0.625 -0.546875 -1.875 -0.546875q-1.15625 0 -1.703125 0.40625q-0.546875 0.40625 -0.8125 1.421875l-1.609375 -0.21875q0.21875 -1.015625 0.71875 -1.640625q0.5 -0.640625 1.453125 -0.984375q0.953125 -0.34375 2.1875 -0.34375q1.25 0 2.015625 0.296875q0.78125 0.28125 1.140625 0.734375q0.375 0.4375 0.515625 1.109375q0.078125 0.421875 0.078125 1.515625l0 2.1875q0 2.28125 0.109375 2.890625q0.109375 0.59375 0.40625 1.15625l-1.703125 0q-0.265625 -0.515625 -0.328125 -1.1875zm-0.140625 -3.671875q-0.890625 0.375 -2.671875 0.625q-1.015625 0.140625 -1.4375 0.328125q-0.421875 0.1875 -0.65625 0.53125q-0.21875 0.34375 -0.21875 0.78125q0 0.65625 0.5 1.09375q0.5 0.4375 1.453125 0.4375q0.9375 0 1.671875 -0.40625q0.75 -0.421875 1.09375 -1.140625q0.265625 -0.5625 0.265625 -1.640625l0 -0.609375zm4.203827 4.859375l0 -9.671875l1.46875 0l0 1.375q1.0625 -1.59375 3.078125 -1.59375q0.875 0 1.609375 0.3125q0.734375 0.3125 1.09375 0.828125q0.375 0.5 0.515625 1.203125q0.09375 0.453125 0.09375 1.59375l0 5.953125l-1.640625 0l0 -5.890625q0 -1.0 -0.203125 -1.484375q-0.1875 -0.5 -0.671875 -0.796875q-0.484375 -0.296875 -1.140625 -0.296875q-1.046875 0 -1.8125 0.671875q-0.75 0.65625 -0.75 2.515625l0 5.28125l-1.640625 0zm16.641357 0l0 -1.21875q-0.90625 1.4375 -2.703125 1.4375q-1.15625 0 -2.125 -0.640625q-0.96875 -0.640625 -1.5 -1.78125q-0.53125 -1.140625 -0.53125 -2.625q0 -1.453125 0.484375 -2.625q0.484375 -1.1875 1.4375 -1.8125q0.96875 -0.625 2.171875 -0.625q0.875 0 1.546875 0.375q0.6875 0.359375 1.109375 0.953125l0 -4.796875l1.640625 0l0 13.359375l-1.53125 0zm-5.171875 -4.828125q0 1.859375 0.78125 2.78125q0.78125 0.921875 1.84375 0.921875q1.078125 0 1.828125 -0.875q0.75 -0.890625 0.75 -2.6875q0 -1.984375 -0.765625 -2.90625q-0.765625 -0.9375 -1.890625 -0.9375q-1.078125 0 -1.8125 0.890625q-0.734375 0.890625 -0.734375 2.8125zm14.0746765 0.53125l1.65625 -0.140625q0.125 1.0 0.546875 1.640625q0.4375 0.640625 1.34375 1.046875q0.921875 0.390625 2.0625 0.390625q1.0 0 1.78125 -0.296875q0.78125 -0.296875 1.15625 -0.8125q0.375 -0.53125 0.375 -1.15625q0 -0.625 -0.375 -1.09375q-0.359375 -0.46875 -1.1875 -0.796875q-0.546875 -0.203125 -2.390625 -0.640625q-1.828125 -0.453125 -2.5625 -0.84375q-0.96875 -0.5 -1.4375 -1.234375q-0.46875 -0.75 -0.46875 -1.671875q0 -1.0 0.578125 -1.875q0.578125 -0.890625 1.671875 -1.34375q1.109375 -0.453125 2.453125 -0.453125q1.484375 0 2.609375 0.484375q1.140625 0.46875 1.75 1.40625q0.609375 0.921875 0.65625 2.09375l-1.6875 0.125q-0.140625 -1.265625 -0.9375 -1.90625q-0.78125 -0.65625 -2.3125 -0.65625q-1.609375 0 -2.34375 0.59375q-0.734375 0.59375 -0.734375 1.421875q0 0.71875 0.53125 1.171875q0.5 0.46875 2.65625 0.96875q2.15625 0.484375 2.953125 0.84375q1.171875 0.53125 1.71875 1.359375q0.5625 0.828125 0.5625 1.90625q0 1.0625 -0.609375 2.015625q-0.609375 0.9375 -1.75 1.46875q-1.140625 0.515625 -2.578125 0.515625q-1.8125 0 -3.046875 -0.53125q-1.21875 -0.53125 -1.921875 -1.59375q-0.6875 -1.0625 -0.71875 -2.40625zm12.8341675 -7.171875l0 -1.890625l1.640625 0l0 1.890625l-1.640625 0zm0 11.46875l0 -9.671875l1.640625 0l0 9.671875l-1.640625 0zm4.1448364 0l0 -9.671875l1.46875 0l0 1.375q1.0625 -1.59375 3.078125 -1.59375q0.875 0 1.609375 0.3125q0.734375 0.3125 1.09375 0.828125q0.375 0.5 0.515625 1.203125q0.09375 0.453125 0.09375 1.59375l0 5.953125l-1.640625 0l0 -5.890625q0 -1.0 -0.203125 -1.484375q-0.1875 -0.5 -0.671875 -0.796875q-0.484375 -0.296875 -1.140625 -0.296875q-1.046875 0 -1.8125 0.671875q-0.75 0.65625 -0.75 2.515625l0 5.28125l-1.640625 0zm10.375732 0l0 -13.359375l1.640625 0l0 7.625l3.890625 -3.9375l2.109375 0l-3.6875 3.59375l4.0625 6.078125l-2.015625 0l-3.203125 -4.953125l-1.15625 1.125l0 3.828125l-1.640625 0zm8.671875 -2.890625l1.625 -0.25q0.125 0.96875 0.75 1.5q0.625 0.515625 1.75 0.515625q1.125 0 1.671875 -0.453125q0.546875 -0.46875 0.546875 -1.09375q0 -0.546875 -0.484375 -0.875q-0.328125 -0.21875 -1.671875 -0.546875q-1.8125 -0.46875 -2.515625 -0.796875q-0.6875 -0.328125 -1.046875 -0.90625q-0.359375 -0.59375 -0.359375 -1.3125q0 -0.640625 0.296875 -1.1875q0.296875 -0.5625 0.8125 -0.921875q0.375 -0.28125 1.03125 -0.46875q0.671875 -0.203125 1.421875 -0.203125q1.140625 0 2.0 0.328125q0.859375 0.328125 1.265625 0.890625q0.421875 0.5625 0.578125 1.5l-1.609375 0.21875q-0.109375 -0.75 -0.640625 -1.171875q-0.515625 -0.421875 -1.46875 -0.421875q-1.140625 0 -1.625 0.375q-0.46875 0.375 -0.46875 0.875q0 0.3125 0.1875 0.578125q0.203125 0.265625 0.640625 0.4375q0.234375 0.09375 1.4375 0.421875q1.75 0.453125 2.4375 0.75q0.6875 0.296875 1.078125 0.859375q0.390625 0.5625 0.390625 1.40625q0 0.828125 -0.484375 1.546875q-0.46875 0.71875 -1.375 1.125q-0.90625 0.390625 -2.046875 0.390625q-1.875 0 -2.875 -0.78125q-0.984375 -0.78125 -1.25 -2.328125zm10.4375 -4.921875l0 -1.859375l1.859375 0l0 1.859375l-1.859375 0zm0 7.8125l0 -1.875l1.859375 0l0 1.875l-1.859375 0zm10.210327 0l0 -13.359375l9.015625 0l0 1.578125l-7.25 0l0 4.140625l6.265625 0l0 1.578125l-6.265625 0l0 6.0625l-1.765625 0zm11.099121 -11.46875l0 -1.890625l1.640625 0l0 1.890625l-1.640625 0zm0 11.46875l0 -9.671875l1.640625 0l0 9.671875l-1.640625 0zm4.0979614 0l0 -13.359375l1.640625 0l0 13.359375l-1.640625 0zm10.816711 -3.109375l1.6875 0.203125q-0.40625 1.484375 -1.484375 2.3125q-1.078125 0.8125 -2.765625 0.8125q-2.125 0 -3.375 -1.296875q-1.234375 -1.3125 -1.234375 -3.671875q0 -2.453125 1.25 -3.796875q1.265625 -1.34375 3.265625 -1.34375q1.9375 0 3.15625 1.328125q1.234375 1.3125 1.234375 3.703125q0 0.15625 0 0.4375l-7.21875 0q0.09375 1.59375 0.90625 2.453125q0.8125 0.84375 2.015625 0.84375q0.90625 0 1.546875 -0.46875q0.640625 -0.484375 1.015625 -1.515625zm-5.390625 -2.65625l5.40625 0q-0.109375 -1.21875 -0.625 -1.828125q-0.78125 -0.953125 -2.03125 -0.953125q-1.125 0 -1.90625 0.765625q-0.765625 0.75 -0.84375 2.015625zm8.485046 2.875l1.625 -0.25q0.125 0.96875 0.75 1.5q0.625 0.515625 1.75 0.515625q1.125 0 1.671875 -0.453125q0.546875 -0.46875 0.546875 -1.09375q0 -0.546875 -0.484375 -0.875q-0.328125 -0.21875 -1.671875 -0.546875q-1.8125 -0.46875 -2.515625 -0.796875q-0.6875 -0.328125 -1.046875 -0.90625q-0.359375 -0.59375 -0.359375 -1.3125q0 -0.640625 0.296875 -1.1875q0.296875 -0.5625 0.8125 -0.921875q0.375 -0.28125 1.03125 -0.46875q0.671875 -0.203125 1.421875 -0.203125q1.140625 0 2.0 0.328125q0.859375 0.328125 1.265625 0.890625q0.421875 0.5625 0.578125 1.5l-1.609375 0.21875q-0.109375 -0.75 -0.640625 -1.171875q-0.515625 -0.421875 -1.46875 -0.421875q-1.140625 0 -1.625 0.375q-0.46875 0.375 -0.46875 0.875q0 0.3125 0.1875 0.578125q0.203125 0.265625 0.640625 0.4375q0.234375 0.09375 1.4375 0.421875q1.75 0.453125 2.4375 0.75q0.6875 0.296875 1.078125 0.859375q0.390625 0.5625 0.390625 1.40625q0 0.828125 -0.484375 1.546875q-0.46875 0.71875 -1.375 1.125q-0.90625 0.390625 -2.046875 0.390625q-1.875 0 -2.875 -0.78125q-0.984375 -0.78125 -1.25 -2.328125zm10.40625 2.890625l0 -1.875l1.875 0l0 1.875q0 1.03125 -0.375 1.65625q-0.359375 0.640625 -1.15625 0.984375l-0.453125 -0.703125q0.515625 -0.21875 0.765625 -0.671875q0.25 -0.4375 0.28125 -1.265625l-0.9375 0zm9.554138 -4.296875l1.65625 -0.140625q0.125 1.0 0.546875 1.640625q0.4375 0.640625 1.34375 1.046875q0.921875 0.390625 2.0625 0.390625q1.0 0 1.78125 -0.296875q0.78125 -0.296875 1.15625 -0.8125q0.375 -0.53125 0.375 -1.15625q0 -0.625 -0.375 -1.09375q-0.359375 -0.46875 -1.1875 -0.796875q-0.546875 -0.203125 -2.390625 -0.640625q-1.828125 -0.453125 -2.5625 -0.84375q-0.96875 -0.5 -1.4375 -1.234375q-0.46875 -0.75 -0.46875 -1.671875q0 -1.0 0.578125 -1.875q0.578125 -0.890625 1.671875 -1.34375q1.109375 -0.453125 2.453125 -0.453125q1.484375 0 2.609375 0.484375q1.140625 0.46875 1.75 1.40625q0.609375 0.921875 0.65625 2.09375l-1.6875 0.125q-0.140625 -1.265625 -0.9375 -1.90625q-0.78125 -0.65625 -2.3125 -0.65625q-1.609375 0 -2.34375 0.59375q-0.734375 0.59375 -0.734375 1.421875q0 0.71875 0.53125 1.171875q0.5 0.46875 2.65625 0.96875q2.15625 0.484375 2.953125 0.84375q1.171875 0.53125 1.71875 1.359375q0.5625 0.828125 0.5625 1.90625q0 1.0625 -0.609375 2.015625q-0.609375 0.9375 -1.75 1.46875q-1.140625 0.515625 -2.578125 0.515625q-1.8125 0 -3.046875 -0.53125q-1.21875 -0.53125 -1.921875 -1.59375q-0.6875 -1.0625 -0.71875 -2.40625zm12.2247925 -0.546875q0 -2.6875 1.484375 -3.96875q1.25 -1.078125 3.046875 -1.078125q2.0 0 3.265625 1.3125q1.265625 1.296875 1.265625 3.609375q0 1.859375 -0.5625 2.9375q-0.5625 1.0625 -1.640625 1.65625q-1.0625 0.59375 -2.328125 0.59375q-2.03125 0 -3.28125 -1.296875q-1.25 -1.3125 -1.25 -3.765625zm1.6875 0q0 1.859375 0.796875 2.796875q0.8125 0.921875 2.046875 0.921875q1.21875 0 2.03125 -0.921875q0.8125 -0.9375 0.8125 -2.84375q0 -1.796875 -0.8125 -2.71875q-0.8125 -0.921875 -2.03125 -0.921875q-1.234375 0 -2.046875 0.921875q-0.796875 0.90625 -0.796875 2.765625zm15.610107 1.296875l1.609375 0.21875q-0.265625 1.65625 -1.359375 2.609375q-1.078125 0.9375 -2.671875 0.9375q-1.984375 0 -3.1875 -1.296875q-1.203125 -1.296875 -1.203125 -3.71875q0 -1.578125 0.515625 -2.75q0.515625 -1.171875 1.578125 -1.75q1.0625 -0.59375 2.3125 -0.59375q1.578125 0 2.578125 0.796875q1.0 0.796875 1.28125 2.265625l-1.59375 0.234375q-0.234375 -0.96875 -0.8125 -1.453125q-0.578125 -0.5 -1.390625 -0.5q-1.234375 0 -2.015625 0.890625q-0.78125 0.890625 -0.78125 2.8125q0 1.953125 0.75 2.84375q0.75 0.875 1.953125 0.875q0.96875 0 1.609375 -0.59375q0.65625 -0.59375 0.828125 -1.828125zm3.015625 3.546875l0 -13.359375l1.640625 0l0 7.625l3.890625 -3.9375l2.109375 0l-3.6875 3.59375l4.0625 6.078125l-2.015625 0l-3.203125 -4.953125l-1.15625 1.125l0 3.828125l-1.640625 0zm15.953125 -3.109375l1.6875 0.203125q-0.40625 1.484375 -1.484375 2.3125q-1.078125 0.8125 -2.765625 0.8125q-2.125 0 -3.375 -1.296875q-1.234375 -1.3125 -1.234375 -3.671875q0 -2.453125 1.25 -3.796875q1.265625 -1.34375 3.265625 -1.34375q1.9375 0 3.15625 1.328125q1.234375 1.3125 1.234375 3.703125q0 0.15625 0 0.4375l-7.21875 0q0.09375 1.59375 0.90625 2.453125q0.8125 0.84375 2.015625 0.84375q0.90625 0 1.546875 -0.46875q0.640625 -0.484375 1.015625 -1.515625zm-5.390625 -2.65625l5.40625 0q-0.109375 -1.21875 -0.625 -1.828125q-0.78125 -0.953125 -2.03125 -0.953125q-1.125 0 -1.90625 0.765625q-0.765625 0.75 -0.84375 2.015625zm12.719482 4.296875l0.234375 1.453125q-0.6875 0.140625 -1.234375 0.140625q-0.890625 0 -1.390625 -0.28125q-0.484375 -0.28125 -0.6875 -0.734375q-0.203125 -0.46875 -0.203125 -1.9375l0 -5.578125l-1.203125 0l0 -1.265625l1.203125 0l0 -2.390625l1.625 -0.984375l0 3.375l1.65625 0l0 1.265625l-1.65625 0l0 5.671875q0 0.6875 0.078125 0.890625q0.09375 0.203125 0.28125 0.328125q0.203125 0.109375 0.578125 0.109375q0.265625 0 0.71875 -0.0625zm0.9489136 -1.421875l1.625 -0.25q0.125 0.96875 0.75 1.5q0.625 0.515625 1.75 0.515625q1.125 0 1.671875 -0.453125q0.546875 -0.46875 0.546875 -1.09375q0 -0.546875 -0.484375 -0.875q-0.328125 -0.21875 -1.671875 -0.546875q-1.8125 -0.46875 -2.515625 -0.796875q-0.6875 -0.328125 -1.046875 -0.90625q-0.359375 -0.59375 -0.359375 -1.3125q0 -0.640625 0.296875 -1.1875q0.296875 -0.5625 0.8125 -0.921875q0.375 -0.28125 1.03125 -0.46875q0.671875 -0.203125 1.421875 -0.203125q1.140625 0 2.0 0.328125q0.859375 0.328125 1.265625 0.890625q0.421875 0.5625 0.578125 1.5l-1.609375 0.21875q-0.109375 -0.75 -0.640625 -1.171875q-0.515625 -0.421875 -1.46875 -0.421875q-1.140625 0 -1.625 0.375q-0.46875 0.375 -0.46875 0.875q0 0.3125 0.1875 0.578125q0.203125 0.265625 0.640625 0.4375q0.234375 0.09375 1.4375 0.421875q1.75 0.453125 2.4375 0.75q0.6875 0.296875 1.078125 0.859375q0.390625 0.5625 0.390625 1.40625q0 0.828125 -0.484375 1.546875q-0.46875 0.71875 -1.375 1.125q-0.90625 0.390625 -2.046875 0.390625q-1.875 0 -2.875 -0.78125q-0.984375 -0.78125 -1.25 -2.328125z" fill-rule="nonzero"/><path fill="#dbdddc" d="m191.61417 568.84906l680.31494 0l0 75.590576l-680.31494 0z" fill-rule="evenodd"/><path stroke="#ffffff" stroke-width="1.0" stroke-linejoin="round" stroke-linecap="butt" d="m191.61417 568.84906l680.31494 0l0 75.590576l-680.31494 0z" fill-rule="evenodd"/><path fill="#000000" d="m515.35974 600.25183q2.46875 0 3.34375 1.0q0.890625 0.984375 0.890625 2.25q0 1.0625 -0.515625 1.84375q-0.515625 0.765625 -1.453125 1.15625l0 0.03125q1.21875 0.265625 1.875 1.125q0.65625 0.84375 0.65625 2.078125q0 1.625 -1.140625 2.734375q-1.125 1.09375 -2.828125 1.09375l-6.5156555 0l0 -13.3125l5.6875305 0zm-0.28125 5.71875q1.328125 0 2.03125 -0.5q0.71875 -0.5 0.71875 -1.625q0 -1.0625 -0.59375 -1.578125q-0.59375 -0.53125 -2.140625 -0.53125l-3.6562805 0l0 4.234375l3.6406555 0zm0.875 6.09375q1.078125 0 1.75 -0.640625q0.6875 -0.640625 0.6875 -1.734375q0 -1.125 -0.765625 -1.671875q-0.765625 -0.5625 -2.203125 -0.5625l-3.9844055 0l0 4.609375l4.5156555 0zm6.9837646 -8.140625l2.8125 7.875l0.046875 0l2.703125 -7.875l1.6875 0l-4.109375 10.671875q-0.640625 1.671875 -1.234375 2.25q-0.59375 0.578125 -1.65625 0.578125q-0.296875 0 -0.578125 -0.03125q-0.265625 -0.03125 -0.53125 -0.125l0 -1.46875q0.234375 0.078125 0.46875 0.140625q0.234375 0.078125 0.46875 0.078125q0.96875 0 1.34375 -0.96875q0.390625 -0.953125 0.609375 -1.53125l-3.828125 -9.59375l1.796875 0zm10.78125 -2.890625l0 2.890625l1.921875 0l0 1.390625l-1.921875 0l0 6.046875q0 0.71875 0.484375 0.765625q0.484375 0.03125 1.0 0.03125l0.4375 0l0 1.40625l-1.296875 0q-1.3125 0 -1.765625 -0.453125q-0.4375 -0.46875 -0.4375 -1.5625l0 -6.234375l-1.65625 0l0 -1.390625l1.65625 0l0 -2.890625l1.578125 0zm7.460266 2.671875q2.078125 0 3.21875 1.5q1.15625 1.484375 1.15625 3.828125l0 0.1875l-7.234375 0l0 0.109375q0 1.390625 0.796875 2.234375q0.8125 0.828125 2.21875 0.828125q1.046875 0 1.671875 -0.484375q0.625 -0.5 0.828125 -1.40625l1.5625 0q-0.328125 1.609375 -1.40625 2.453125q-1.078125 0.84375 -2.71875 0.84375q-1.515625 0 -2.578125 -0.6875q-1.046875 -0.6875 -1.546875 -1.90625q-0.5 -1.234375 -0.5 -2.515625q0 -2.140625 1.28125 -3.5625q1.296875 -1.421875 3.25 -1.421875zm-2.859375 4.109375l5.546875 0q-0.078125 -1.171875 -0.859375 -1.9375q-0.765625 -0.78125 -1.9375 -0.78125q-1.09375 0 -1.875 0.734375q-0.765625 0.734375 -0.875 1.984375zm12.082947 -4.109375q1.9375 0 2.890625 0.75q0.953125 0.75 1.03125 2.265625l-1.578125 0l0 -0.03125q-0.0625 -0.765625 -0.671875 -1.171875q-0.609375 -0.421875 -1.5625 -0.421875q-0.953125 0 -1.515625 0.328125q-0.546875 0.3125 -0.546875 0.90625q0 0.515625 0.484375 0.859375q0.5 0.328125 1.484375 0.546875l1.484375 0.328125q1.40625 0.3125 2.125 0.953125q0.734375 0.640625 0.734375 1.734375q0 1.421875 -1.109375 2.234375q-1.09375 0.8125 -2.984375 0.8125q-1.859375 0 -2.953125 -0.828125q-1.078125 -0.84375 -1.140625 -2.453125l1.59375 0q0.03125 0.90625 0.703125 1.390625q0.6875 0.484375 1.875 0.484375q1.15625 0 1.75 -0.359375q0.59375 -0.375 0.59375 -1.078125q0 -0.65625 -0.59375 -1.03125q-0.59375 -0.375 -2.40625 -0.734375q-1.828125 -0.359375 -2.578125 -1.015625q-0.734375 -0.65625 -0.734375 -1.734375q0 -1.265625 1.03125 -2.0q1.03125 -0.734375 2.59375 -0.734375z" fill-rule="nonzero"/><path fill="#dbdddc" d="m342.7953 493.05643l453.54327 0l0 75.590546l-453.54327 0z" fill-rule="evenodd"/><path stroke="#ffffff" stroke-width="1.0" stroke-linejoin="round" stroke-linecap="butt" d="m342.7953 493.05643l453.54327 0l0 75.590546l-453.54327 0z" fill-rule="evenodd"/><path fill="#dbdddc" d="m871.92914 568.84906l-75.590576 0l0 -75.590515l-151.18109 0l0 -75.590576l226.77167 0z" fill-rule="evenodd"/><path stroke="#ffffff" stroke-width="1.0" stroke-linejoin="round" stroke-linecap="butt" d="m871.92914 568.84906l-75.590576 0l0 -75.590515l-151.18109 0l0 -75.590576l226.77167 0z" fill-rule="evenodd"/><path fill="#c2c3c3" d="m191.61417 568.84906l0 -226.48288l75.590546 0l0 -151.46985l75.590576 0l0 377.95273z" fill-rule="evenodd"/><path stroke="#ffffff" stroke-width="1.0" stroke-linejoin="round" stroke-linecap="butt" d="m191.61417 568.84906l0 -226.48288l75.590546 0l0 -151.46985l75.590576 0l0 377.95273z" fill-rule="evenodd"/><path fill="#dcdcdc" d="m191.61417 190.89633l75.590546 0l0 151.18109l-75.590546 0z" fill-rule="evenodd"/><path stroke="#ffffff" stroke-width="1.0" stroke-linejoin="round" stroke-linecap="butt" d="m191.61417 190.89633l75.590546 0l0 151.18109l-75.590546 0z" fill-rule="evenodd"/><path fill="#c2c3c3" d="m342.7953 190.49213l75.590546 0l0 302.3622l-75.590546 0z" fill-rule="evenodd"/><path stroke="#ffffff" stroke-width="1.0" stroke-linejoin="round" stroke-linecap="butt" d="m342.7953 190.49213l75.590546 0l0 302.3622l-75.590546 0z" fill-rule="evenodd"/><path fill="#c2c3c3" d="m418.38452 493.25854l0 -151.49936l150.40405 0l0 -150.86285l76.367615 0l0 302.3622z" fill-rule="evenodd"/><path stroke="#ffffff" stroke-width="1.0" stroke-linejoin="round" stroke-linecap="butt" d="m418.38452 493.25854l0 -151.49936l150.40405 0l0 -150.86285l76.367615 0l0 302.3622z" fill-rule="evenodd"/><path fill="#dcdcdc" d="m418.38583 190.89633l75.590546 0l0 151.18109l-75.590546 0z" fill-rule="evenodd"/><path stroke="#ffffff" stroke-width="1.0" stroke-linejoin="round" stroke-linecap="butt" d="m418.38583 190.89633l75.590546 0l0 151.18109l-75.590546 0z" fill-rule="evenodd"/><path fill="#dcdcdc" d="m493.97638 190.89633l75.590576 0l0 151.18109l-75.590576 0z" fill-rule="evenodd"/><path stroke="#ffffff" stroke-width="1.0" stroke-linejoin="round" stroke-linecap="butt" d="m493.97638 190.89633l75.590576 0l0 151.18109l-75.590576 0z" fill-rule="evenodd"/><path fill="#dcdcdc" d="m645.1575 190.89633l75.590576 0l0 151.18109l-75.590576 0z" fill-rule="evenodd"/><path stroke="#ffffff" stroke-width="1.0" stroke-linejoin="round" stroke-linecap="butt" d="m645.1575 190.89633l75.590576 0l0 151.18109l-75.590576 0z" fill-rule="evenodd"/><path fill="#c2c3c3" d="m645.1562 417.66797l0 -76.30109l75.63135 0l0 -150.47055l75.54974 0l0 226.77164z" fill-rule="evenodd"/><path stroke="#ffffff" stroke-width="1.0" stroke-linejoin="round" stroke-linecap="butt" d="m645.1562 417.66797l0 -76.30109l75.63135 0l0 -150.47055l75.54974 0l0 226.77164z" fill-rule="evenodd"/><path fill="#c2c3c3" d="m796.33856 190.89633l75.590576 0l0 226.77164l-75.590576 0z" fill-rule="evenodd"/><path stroke="#ffffff" stroke-width="1.0" stroke-linejoin="round" stroke-linecap="butt" d="m796.33856 190.89633l75.590576 0l0 226.77164l-75.590576 0z" fill-rule="evenodd"/><path fill="#000000" fill-opacity="0.0" d="m207.85039 327.90027l0 -116.598434l43.11812 0l0 116.598434z" fill-rule="evenodd"/><path fill="#000000" d="m221.45789 283.62766q0 -3.03125 1.609375 -4.65625q1.59375 -1.640625 4.734375 -1.640625q3.515625 0 5.25 1.625q1.71875 1.609375 1.71875 4.671875l0 4.671875l-13.3125 0l0 -4.671875zm11.8125 -0.109375q0 -2.0 -1.296875 -3.203125q-1.296875 -1.21875 -3.9375 -1.21875q-2.640625 0 -3.859375 1.109375q-1.234375 1.09375 -1.234375 3.25l0 3.078125l10.328125 0l0 -3.015625zm-8.359375 -12.042145q0 -1.96875 0.703125 -2.78125q0.6875 -0.828125 1.875 -0.828125q5.015625 0 5.5625 0q0.546875 0 0.546875 -0.5q0 -0.109375 -0.03125 -0.234375q-0.03125 -0.140625 -0.0625 -0.25l1.234375 0q0.125 0.21875 0.1875 0.5q0.078125 0.28125 0.078125 0.625q0 0.65625 -0.375 1.0q-0.375 0.34375 -1.125 0.34375q0.75 0.640625 1.125 1.5q0.375 0.84375 0.375 1.90625q0 1.484375 -0.703125 2.34375q-0.71875 0.84375 -2.015625 0.84375q-1.296875 0 -2.046875 -0.828125q-0.765625 -0.828125 -1.15625 -3.90625q-0.140625 -1.03125 -0.390625 -1.390625q-0.265625 -0.375 -0.796875 -0.375q-0.796875 0 -1.1875 0.515625q-0.40625 0.5 -0.40625 1.625q0 1.171875 0.453125 1.765625q0.4375 0.59375 1.375 0.640625l0 1.578125q-1.609375 -0.078125 -2.40625 -1.125q-0.8125 -1.0625 -0.8125 -2.96875zm7.265625 2.796875q0.671875 0 1.046875 -0.484375q0.375 -0.5 0.375 -1.390625q0 -1.34375 -0.65625 -2.140625q-0.671875 -0.796875 -1.5 -0.796875l-1.65625 0q0.28125 0.390625 0.390625 1.03125q0.09375 0.640625 0.234375 1.703125q0.15625 1.046875 0.578125 1.5625q0.421875 0.515625 1.1875 0.515625zm-9.9375 -11.067322l2.890625 0l0 -1.921875l1.390625 0l0 1.921875l6.046875 0q0.71875 0 0.765625 -0.484375q0.03125 -0.484375 0.03125 -1.0l0 -0.4375l1.40625 0l0 1.296875q0 1.3125 -0.453125 1.765625q-0.46875 0.4375 -1.5625 0.4375l-6.234375 0l0 1.65625l-1.390625 0l0 -1.65625l-2.890625 0l0 -1.578125zm2.671875 -7.625641q0 -1.96875 0.703125 -2.78125q0.6875 -0.828125 1.875 -0.828125q5.015625 0 5.5625 0q0.546875 0 0.546875 -0.5q0 -0.109375 -0.03125 -0.234375q-0.03125 -0.140625 -0.0625 -0.25l1.234375 0q0.125 0.21875 0.1875 0.5q0.078125 0.28125 0.078125 0.625q0 0.65625 -0.375 1.0q-0.375 0.34375 -1.125 0.34375q0.75 0.640625 1.125 1.5q0.375 0.84375 0.375 1.90625q0 1.484375 -0.703125 2.34375q-0.71875 0.84375 -2.015625 0.84375q-1.296875 0 -2.046875 -0.828125q-0.765625 -0.828125 -1.15625 -3.90625q-0.140625 -1.03125 -0.390625 -1.390625q-0.265625 -0.375 -0.796875 -0.375q-0.796875 0 -1.1875 0.515625q-0.40625 0.5 -0.40625 1.625q0 1.171875 0.453125 1.765625q0.4375 0.59375 1.375 0.640625l0 1.578125q-1.609375 -0.078125 -2.40625 -1.125q-0.8125 -1.0625 -0.8125 -2.96875zm7.265625 2.796875q0.671875 0 1.046875 -0.484375q0.375 -0.5 0.375 -1.390625q0 -1.34375 -0.65625 -2.140625q-0.671875 -0.796875 -1.5 -0.796875l-1.65625 0q0.28125 0.390625 0.390625 1.03125q0.09375 0.640625 0.234375 1.703125q0.15625 1.046875 0.578125 1.5625q0.421875 0.515625 1.1875 0.515625zm-10.71875 -16.156876l13.3125 0l0 1.765625l-13.3125 0l0 -1.765625zm-0.328125 -8.078033l13.953125 5.515625l0 1.375l-13.953125 -5.53125l0 -1.359375zm0 -6.759552q0 -1.9375 0.90625 -3.375q0.890625 -1.4375 2.515625 -2.21875q1.625 -0.78125 3.5625 -0.78125q1.953125 0 3.578125 0.78125q1.609375 0.765625 2.5 2.21875q0.890625 1.453125 0.890625 3.375q0 1.921875 -0.890625 3.375q-0.890625 1.4375 -2.5 2.234375q-1.625 0.78125 -3.578125 0.78125q-3.03125 0 -5.0 -1.734375q-1.984375 -1.75 -1.984375 -4.65625zm6.984375 4.609375q1.484375 0 2.765625 -0.53125q1.28125 -0.546875 2.0 -1.59375q0.71875 -1.0625 0.71875 -2.484375q0 -2.140625 -1.546875 -3.375q-1.546875 -1.234375 -3.9375 -1.234375q-2.375 0 -3.921875 1.234375q-1.5625 1.21875 -1.5625 3.40625q0 2.140625 1.5625 3.359375q1.5625 1.21875 3.921875 1.21875z" fill-rule="nonzero"/><path fill="#000000" fill-opacity="0.0" d="m283.44095 327.90027l0 -116.598434l43.118103 0l0 116.598434z" fill-rule="evenodd"/><path fill="#000000" d="m297.04843 295.848q0 -2.46875 1.0 -3.34375q0.984375 -0.890625 2.25 -0.890625q1.0625 0 1.84375 0.515625q0.765625 0.515625 1.15625 1.453125l0.03125 0q0.265625 -1.21875 1.125 -1.875q0.84375 -0.65625 2.078125 -0.65625q1.625 0 2.734375 1.140625q1.09375 1.125 1.09375 2.828125l0 6.515625l-13.3125 0l0 -5.6875zm5.71875 0.28125q0 -1.328125 -0.5 -2.03125q-0.5 -0.71875 -1.625 -0.71875q-1.0625 0 -1.578125 0.59375q-0.53125 0.59375 -0.53125 2.140625l0 3.65625l4.234375 0l0 -3.640625zm6.09375 -0.875q0 -1.078125 -0.640625 -1.75q-0.640625 -0.6875 -1.734375 -0.6875q-1.125 0 -1.671875 0.765625q-0.5625 0.765625 -0.5625 2.203125l0 3.984375l4.609375 0l0 -4.515625zm-8.140625 -6.983734l7.875 -2.8125l0 -0.046875l-7.875 -2.703125l0 -1.6875l10.671875 4.109375q1.671875 0.640625 2.25 1.234375q0.578125 0.59375 0.578125 1.65625q0 0.296875 -0.03125 0.578125q-0.03125 0.265625 -0.125 0.53125l-1.46875 0q0.078125 -0.234375 0.140625 -0.46875q0.078125 -0.234375 0.078125 -0.46875q0 -0.96875 -0.96875 -1.34375q-0.953125 -0.390625 -1.53125 -0.609375l-9.59375 3.828125l0 -1.796875zm-2.890625 -10.78125l2.890625 0l0 -1.921875l1.390625 0l0 1.921875l6.046875 0q0.71875 0 0.765625 -0.484375q0.03125 -0.484375 0.03125 -1.0l0 -0.4375l1.40625 0l0 1.296875q0 1.3125 -0.453125 1.765625q-0.46875 0.4375 -1.5625 0.4375l-6.234375 0l0 1.65625l-1.390625 0l0 -1.65625l-2.890625 0l0 -1.578125zm2.671875 -7.460266q0 -2.078125 1.5 -3.21875q1.484375 -1.15625 3.828125 -1.15625l0.1875 0l0 7.234375l0.109375 0q1.390625 0 2.234375 -0.796875q0.828125 -0.8125 0.828125 -2.21875q0 -1.046875 -0.484375 -1.671875q-0.5 -0.625 -1.40625 -0.828125l0 -1.5625q1.609375 0.328125 2.453125 1.40625q0.84375 1.078125 0.84375 2.71875q0 1.515625 -0.6875 2.578125q-0.6875 1.046875 -1.90625 1.546875q-1.234375 0.5 -2.515625 0.5q-2.140625 0 -3.5625 -1.28125q-1.421875 -1.296875 -1.421875 -3.25zm4.109375 2.859375l0 -5.546875q-1.171875 0.078125 -1.9375 0.859375q-0.78125 0.765625 -0.78125 1.9375q0 1.09375 0.734375 1.875q0.734375 0.765625 1.984375 0.875zm-4.109375 -12.082947q0 -1.9375 0.75 -2.890625q0.75 -0.953125 2.265625 -1.03125l0 1.578125l-0.03125 0q-0.765625 0.0625 -1.171875 0.671875q-0.421875 0.609375 -0.421875 1.5625q0 0.953125 0.328125 1.515625q0.3125 0.546875 0.90625 0.546875q0.515625 0 0.859375 -0.484375q0.328125 -0.5 0.546875 -1.484375l0.328125 -1.484375q0.3125 -1.40625 0.953125 -2.125q0.640625 -0.734375 1.734375 -0.734375q1.421875 0 2.234375 1.109375q0.8125 1.09375 0.8125 2.984375q0 1.859375 -0.828125 2.953125q-0.84375 1.078125 -2.453125 1.140625l0 -1.59375q0.90625 -0.03125 1.390625 -0.703125q0.484375 -0.6875 0.484375 -1.875q0 -1.15625 -0.359375 -1.75q-0.375 -0.59375 -1.078125 -0.59375q-0.65625 0 -1.03125 0.59375q-0.375 0.59375 -0.734375 2.40625q-0.359375 1.828125 -1.015625 2.578125q-0.65625 0.734375 -1.734375 0.734375q-1.265625 0 -2.0 -1.03125q-0.734375 -1.03125 -0.734375 -2.59375zm-3.453125 -18.585373l13.3125 0l0 1.765625l-13.3125 0l0 -1.765625zm-0.328125 -8.078033l13.953125 5.515625l0 1.375l-13.953125 -5.53125l0 -1.359375zm0 -6.759552q0 -1.9375 0.90625 -3.375q0.890625 -1.4375 2.515625 -2.21875q1.625 -0.78125 3.5625 -0.78125q1.953125 0 3.578125 0.78125q1.609375 0.765625 2.5 2.21875q0.890625 1.453125 0.890625 3.375q0 1.921875 -0.890625 3.375q-0.890625 1.4375 -2.5 2.234375q-1.625 0.78125 -3.578125 0.78125q-3.03125 0 -5.0 -1.734375q-1.984375 -1.75 -1.984375 -4.65625zm6.984375 4.609375q1.484375 0 2.765625 -0.53125q1.28125 -0.546875 2.0 -1.59375q0.71875 -1.0625 0.71875 -2.484375q0 -2.140625 -1.546875 -3.375q-1.546875 -1.234375 -3.9375 -1.234375q-2.375 0 -3.921875 1.234375q-1.5625 1.21875 -1.5625 3.40625q0 2.140625 1.5625 3.359375q1.5625 1.21875 3.921875 1.21875z" fill-rule="nonzero"/><path fill="#000000" fill-opacity="0.0" d="m359.0315 405.9497l0 -194.64568l43.118103 0l0 194.64568z" fill-rule="evenodd"/><path fill="#000000" d="m372.31088 312.36063q0 -2.203125 1.15625 -3.6875q1.140625 -1.5 3.171875 -1.796875l0 1.765625q-1.359375 0.296875 -2.09375 1.296875q-0.734375 0.984375 -0.734375 2.4375q0 2.125 1.5 3.328125q1.484375 1.1875 3.890625 1.1875q2.546875 0 4.0625 -1.171875q1.515625 -1.171875 1.515625 -3.359375q0 -1.625 -1.03125 -2.671875q-1.046875 -1.046875 -2.8125 -1.171875l0 -1.765625q2.578125 0.28125 3.953125 1.796875q1.375 1.5 1.375 3.96875q0 2.859375 -1.890625 4.515625q-1.890625 1.640625 -5.046875 1.640625q-3.109375 0 -5.0625 -1.703125q-1.953125 -1.703125 -1.953125 -4.609375zm3.78125 -11.722931q0 -2.1875 1.40625 -3.421875q1.40625 -1.25 3.640625 -1.25q2.25 0 3.65625 1.28125q1.390625 1.265625 1.390625 3.390625q0 2.09375 -1.375 3.390625q-1.375 1.296875 -3.671875 1.296875q-2.296875 0 -3.671875 -1.265625q-1.375 -1.265625 -1.375 -3.421875zm5.046875 3.015625q1.65625 0 2.65625 -0.84375q0.984375 -0.859375 0.984375 -2.171875q0 -1.296875 -0.984375 -2.140625q-1.0 -0.859375 -2.65625 -0.859375q-1.640625 0 -2.640625 0.84375q-1.015625 0.84375 -1.015625 2.171875q0 1.28125 0.984375 2.140625q0.984375 0.859375 2.671875 0.859375zm-5.046875 -14.228394q0 -1.75 0.890625 -2.53125q0.890625 -0.796875 2.546875 -0.796875l6.421875 0l0 1.59375l-6.59375 0q-0.8125 0 -1.34375 0.53125q-0.53125 0.515625 -0.53125 1.4375q0 1.34375 0.828125 2.09375q0.8125 0.75 2.125 0.75l5.515625 0l0 1.59375l-9.640625 0l0 -1.5l1.53125 0l0 -0.03125q-0.90625 -0.53125 -1.328125 -1.296875q-0.421875 -0.78125 -0.421875 -1.84375zm0 -8.922607q0 -1.9375 0.75 -2.890625q0.75 -0.953125 2.265625 -1.03125l0 1.578125l-0.03125 0q-0.765625 0.0625 -1.171875 0.671875q-0.421875 0.609375 -0.421875 1.5625q0 0.953125 0.328125 1.515625q0.3125 0.546875 0.90625 0.546875q0.515625 0 0.859375 -0.484375q0.328125 -0.5 0.546875 -1.484375l0.328125 -1.484375q0.3125 -1.40625 0.953125 -2.125q0.640625 -0.734375 1.734375 -0.734375q1.421875 0 2.234375 1.109375q0.8125 1.09375 0.8125 2.984375q0 1.859375 -0.828125 2.953125q-0.84375 1.078125 -2.453125 1.140625l0 -1.59375q0.90625 -0.03125 1.390625 -0.703125q0.484375 -0.6875 0.484375 -1.875q0 -1.15625 -0.359375 -1.75q-0.375 -0.59375 -1.078125 -0.59375q-0.65625 0 -1.03125 0.59375q-0.375 0.59375 -0.734375 2.40625q-0.359375 1.828125 -1.015625 2.578125q-0.65625 0.734375 -1.734375 0.734375q-1.265625 0 -2.0 -1.03125q-0.734375 -1.03125 -0.734375 -2.59375zm0 -10.28125q0 -2.1875 1.40625 -3.421875q1.40625 -1.25 3.640625 -1.25q2.25 0 3.65625 1.28125q1.390625 1.265625 1.390625 3.390625q0 2.09375 -1.375 3.390625q-1.375 1.296875 -3.671875 1.296875q-2.296875 0 -3.671875 -1.265625q-1.375 -1.265625 -1.375 -3.421875zm5.046875 3.015625q1.65625 0 2.65625 -0.84375q0.984375 -0.859375 0.984375 -2.171875q0 -1.296875 -0.984375 -2.140625q-1.0 -0.859375 -2.65625 -0.859375q-1.640625 0 -2.640625 0.84375q-1.015625 0.84375 -1.015625 2.171875q0 1.28125 0.984375 2.140625q0.984375 0.859375 2.671875 0.859375zm-8.5 -11.244019l13.3125 0l0 1.59375l-13.3125 0l0 -1.59375zm3.453125 -6.472946q0 -2.078125 1.5 -3.21875q1.484375 -1.15625 3.828125 -1.15625l0.1875 0l0 7.2343903l0.109375 0q1.390625 0 2.234375 -0.796875q0.828125 -0.8125 0.828125 -2.2187653q0 -1.046875 -0.484375 -1.671875q-0.5 -0.625 -1.40625 -0.828125l0 -1.5625q1.609375 0.328125 2.453125 1.40625q0.84375 1.078125 0.84375 2.71875q0 1.5156403 -0.6875 2.5781403q-0.6875 1.046875 -1.90625 1.546875q-1.234375 0.5 -2.515625 0.5q-2.140625 0 -3.5625 -1.28125q-1.421875 -1.296875 -1.421875 -3.2500153zm4.109375 2.8593903l0 -5.5468903q-1.171875 0.078125 -1.9375 0.859375q-0.78125 0.765625 -0.78125 1.9375q0 1.0937653 0.734375 1.8750153q0.734375 0.765625 1.984375 0.875zm-7.5625 -16.15689l13.3125 0l0 1.765625l-13.3125 0l0 -1.765625zm-0.328125 -8.078033l13.953125 5.515625l0 1.375l-13.953125 -5.53125l0 -1.359375zm0 -6.759552q0 -1.9375 0.90625 -3.375q0.890625 -1.4375 2.515625 -2.21875q1.625 -0.78125 3.5625 -0.78125q1.953125 0 3.578125 0.78125q1.609375 0.765625 2.5 2.21875q0.890625 1.453125 0.890625 3.375q0 1.921875 -0.890625 3.375q-0.890625 1.4375 -2.5 2.234375q-1.625 0.78125 -3.578125 0.78125q-3.03125 0 -5.0 -1.734375q-1.984375 -1.75 -1.984375 -4.65625zm6.984375 4.609375q1.484375 0 2.765625 -0.53125q1.28125 -0.546875 2.0 -1.59375q0.71875 -1.0625 0.71875 -2.484375q0 -2.140625 -1.546875 -3.375q-1.546875 -1.234375 -3.9375 -1.234375q-2.375 0 -3.921875 1.234375q-1.5625 1.21875 -1.5625 3.40625q0 2.140625 1.5625 3.359375q1.5625 1.21875 3.921875 1.21875z" fill-rule="nonzero"/><path fill="#000000" fill-opacity="0.0" d="m434.62204 327.90027l0 -116.598434l43.118103 0l0 116.598434z" fill-rule="evenodd"/><path fill="#000000" d="m448.22955 291.9005l10.046875 0q1.578125 0 2.578125 1.0q1.0 0.984375 1.0 2.921875q0 1.796875 -0.9375 2.84375q-0.953125 1.046875 -3.296875 1.046875l-0.453125 0l0 -1.78125l0.40625 0q1.640625 0 2.21875 -0.53125q0.578125 -0.53125 0.578125 -1.609375q0 -1.09375 -0.578125 -1.609375q-0.578125 -0.515625 -1.75 -0.515625l-9.8125 0l0 -1.765625zm-0.328125 -7.4021606q0 -2.21875 1.078125 -3.515625q1.078125 -1.3125 3.140625 -1.390625l0 1.671875q-1.359375 0.15625 -2.03125 1.0q-0.6875 0.828125 -0.6875 2.3125q0 1.421875 0.59375 2.203125q0.578125 0.78125 1.671875 0.78125q0.78125 0 1.28125 -0.65625q0.5 -0.671875 1.09375 -3.625q0.4375 -2.125 1.34375 -3.171875q0.90625 -1.0625 2.5 -1.0625q1.859375 0 2.921875 1.515625q1.046875 1.515625 1.046875 3.6875q0 2.421875 -1.203125 3.953125q-1.21875 1.53125 -3.484375 1.546875l0 -1.6875q1.515625 -0.015625 2.359375 -1.078125q0.84375 -1.078125 0.84375 -2.796875q0 -1.609375 -0.625 -2.484375q-0.625 -0.890625 -1.796875 -0.890625q-0.953125 0 -1.515625 0.8125q-0.578125 0.8125 -1.0 2.9375q-0.53125 2.84375 -1.375 3.8125q-0.859375 0.953125 -2.25 0.953125q-1.796875 0 -2.84375 -1.359375q-1.0625 -1.359375 -1.0625 -3.46875zm0 -13.244537q0 -1.9375 0.90625 -3.375q0.890625 -1.4375 2.515625 -2.21875q1.625 -0.78125 3.5625 -0.78125q1.953125 0 3.578125 0.78125q1.609375 0.765625 2.5 2.21875q0.890625 1.453125 0.890625 3.375q0 1.921875 -0.890625 3.375q-0.890625 1.4375 -2.5 2.234375q-1.625 0.78125 -3.578125 0.78125q-3.03125 0 -5.0 -1.734375q-1.984375 -1.75 -1.984375 -4.65625zm6.984375 4.609375q1.484375 0 2.765625 -0.53125q1.28125 -0.546875 2.0 -1.59375q0.71875 -1.0625 0.71875 -2.484375q0 -2.140625 -1.546875 -3.375q-1.546875 -1.234375 -3.9375 -1.234375q-2.375 0 -3.921875 1.234375q-1.5625 1.21875 -1.5625 3.40625q0 2.140625 1.5625 3.359375q1.5625 1.21875 3.921875 1.21875zm-6.65625 -15.018127l10.796875 -7.0156403l0 -0.03125l-10.796875 0l0 -1.671875l13.3125 0l0 1.9375l-10.6875 6.9531403l0 0.046875l10.6875 0l0 1.671875l-13.3125 0l0 -1.890625zm0 -18.625015l13.3125 0l0 1.765625l-13.3125 0l0 -1.765625zm-0.328125 -8.078033l13.953125 5.515625l0 1.375l-13.953125 -5.53125l0 -1.359375zm0 -6.759552q0 -1.9375 0.90625 -3.375q0.890625 -1.4375 2.515625 -2.21875q1.625 -0.78125 3.5625 -0.78125q1.953125 0 3.578125 0.78125q1.609375 0.765625 2.5 2.21875q0.890625 1.453125 0.890625 3.375q0 1.921875 -0.890625 3.375q-0.890625 1.4375 -2.5 2.234375q-1.625 0.78125 -3.578125 0.78125q-3.03125 0 -5.0 -1.734375q-1.984375 -1.75 -1.984375 -4.65625zm6.984375 4.609375q1.484375 0 2.765625 -0.53125q1.28125 -0.546875 2.0 -1.59375q0.71875 -1.0625 0.71875 -2.484375q0 -2.140625 -1.546875 -3.375q-1.546875 -1.234375 -3.9375 -1.234375q-2.375 0 -3.921875 1.234375q-1.5625 1.21875 -1.5625 3.40625q0 2.140625 1.5625 3.359375q1.5625 1.21875 3.921875 1.21875z" fill-rule="nonzero"/><path fill="#000000" fill-opacity="0.0" d="m510.2126 327.90027l0 -116.598434l43.118103 0l0 116.598434z" fill-rule="evenodd"/><path fill="#000000" d="m523.82007 286.34827l5.203125 -3.3125l-5.203125 -3.484375l0 -1.96875l6.46875 4.40625l6.84375 -4.6875l0 2.171875l-5.5 3.578125l5.5 3.6875l0 2.0l-6.84375 -4.640625l-6.46875 4.375l0 -2.125zm0 -12.942841l11.1875 -4.1875l-11.1875 -4.21875l0 -2.421875l13.3125 0l0 1.671875l-11.09375 0l0 0.03125l11.09375 4.171875l0 1.5l-11.09375 4.171875l0 0.03125l11.09375 0l0 1.671875l-13.3125 0l0 -2.421875zm0 -15.548218l11.8125 0l0 -7.0625153l1.5 0l0 8.82814l-13.3125 0l0 -1.765625zm0 -15.637161l13.3125 0l0 1.765625l-13.3125 0l0 -1.765625zm-0.328125 -8.078033l13.953125 5.515625l0 1.375l-13.953125 -5.53125l0 -1.359375zm0 -6.759552q0 -1.9375 0.90625 -3.375q0.890625 -1.4375 2.515625 -2.21875q1.625 -0.78125 3.5625 -0.78125q1.953125 0 3.578125 0.78125q1.609375 0.765625 2.5 2.21875q0.890625 1.453125 0.890625 3.375q0 1.921875 -0.890625 3.375q-0.890625 1.4375 -2.5 2.234375q-1.625 0.78125 -3.578125 0.78125q-3.03125 0 -5.0 -1.734375q-1.984375 -1.75 -1.984375 -4.65625zm6.984375 4.609375q1.484375 0 2.765625 -0.53125q1.28125 -0.546875 2.0 -1.59375q0.71875 -1.0625 0.71875 -2.484375q0 -2.140625 -1.546875 -3.375q-1.546875 -1.234375 -3.9375 -1.234375q-2.375 0 -3.921875 1.234375q-1.5625 1.21875 -1.5625 3.40625q0 2.140625 1.5625 3.359375q1.5625 1.21875 3.921875 1.21875z" fill-rule="nonzero"/><path fill="#000000" fill-opacity="0.0" d="m585.80316 441.25455l0 -229.95274l43.118103 0l0 229.95274z" fill-rule="evenodd"/><path fill="#000000" d="m599.0825 334.4759q0 -2.203125 1.15625 -3.6875q1.140625 -1.5 3.171875 -1.796875l0 1.765625q-1.359375 0.296875 -2.09375 1.296875q-0.734375 0.984375 -0.734375 2.4375q0 2.125 1.5 3.328125q1.484375 1.1875 3.890625 1.1875q2.546875 0 4.0625 -1.171875q1.515625 -1.171875 1.515625 -3.359375q0 -1.625 -1.03125 -2.671875q-1.046875 -1.046875 -2.8125 -1.171875l0 -1.765625q2.578125 0.28125 3.953125 1.796875q1.375 1.5 1.375 3.96875q0 2.859375 -1.890625 4.515625q-1.890625 1.640625 -5.046875 1.640625q-3.109375 0 -5.0625 -1.703125q-1.953125 -1.703125 -1.953125 -4.609375zm0.328125 -9.144806l5.09375 0l0 -0.03125q-0.78125 -0.34375 -1.203125 -1.171875q-0.4375 -0.828125 -0.4375 -1.875q0 -1.75 0.890625 -2.53125q0.890625 -0.796875 2.546875 -0.796875l6.421875 0l0 1.59375l-6.59375 0q-0.8125 0 -1.34375 0.53125q-0.53125 0.515625 -0.53125 1.4375q0 1.34375 0.828125 2.09375q0.8125 0.75 2.125 0.75l5.515625 0l0 1.59375l-13.3125 0l0 -1.59375zm3.453125 -12.735107q0 -1.96875 0.703125 -2.78125q0.6875 -0.828125 1.875 -0.828125q5.015625 0 5.5625 0q0.546875 0 0.546875 -0.5q0 -0.109375 -0.03125 -0.234375q-0.03125 -0.140625 -0.0625 -0.25l1.234375 0q0.125 0.21875 0.1875 0.5q0.078125 0.28125 0.078125 0.625q0 0.65625 -0.375 1.0q-0.375 0.34375 -1.125 0.34375q0.75 0.640625 1.125 1.5q0.375 0.84375 0.375 1.90625q0 1.484375 -0.703125 2.34375q-0.71875 0.84375 -2.015625 0.84375q-1.296875 0 -2.046875 -0.828125q-0.765625 -0.828125 -1.15625 -3.90625q-0.140625 -1.03125 -0.390625 -1.390625q-0.265625 -0.375 -0.796875 -0.375q-0.796875 0 -1.1875 0.515625q-0.40625 0.5 -0.40625 1.625q0 1.171875 0.453125 1.765625q0.4375 0.59375 1.375 0.640625l0 1.578125q-1.609375 -0.078125 -2.40625 -1.125q-0.8125 -1.0625 -0.8125 -2.96875zm7.265625 2.796875q0.671875 0 1.046875 -0.484375q0.375 -0.5 0.375 -1.390625q0 -1.34375 -0.65625 -2.140625q-0.671875 -0.796875 -1.5 -0.796875l-1.65625 0q0.28125 0.390625 0.390625 1.03125q0.09375 0.640625 0.234375 1.703125q0.15625 1.046875 0.578125 1.5625q0.421875 0.515625 1.1875 0.515625zm-7.28125 -13.676697q0 -0.046875 0 -0.09375q0 -0.046875 0.015625 -0.125l1.671875 0q0 1.796875 0.953125 2.65625q0.9375 0.84375 2.921875 0.84375l4.3125 0l0 1.578125l-9.640625 0l0 -1.484375l2.03125 0l0 -0.046875q-1.15625 -0.546875 -1.703125 -1.359375q-0.5625 -0.828125 -0.5625 -1.96875zm0.015625 -4.9066772q0 -1.96875 0.703125 -2.78125q0.6875 -0.828125 1.875 -0.828125q5.015625 0 5.5625 0q0.546875 0 0.546875 -0.5q0 -0.109375 -0.03125 -0.234375q-0.03125 -0.140625 -0.0625 -0.25l1.234375 0q0.125 0.21875 0.1875 0.5q0.078125 0.28125 0.078125 0.625q0 0.65625 -0.375 1.0q-0.375 0.34375 -1.125 0.34375q0.75 0.640625 1.125 1.5q0.375 0.84375 0.375 1.90625q0 1.484375 -0.703125 2.34375q-0.71875 0.84375 -2.015625 0.84375q-1.296875 0 -2.046875 -0.828125q-0.765625 -0.828125 -1.15625 -3.90625q-0.140625 -1.03125 -0.390625 -1.390625q-0.265625 -0.375 -0.796875 -0.375q-0.796875 0 -1.1875 0.515625q-0.40625 0.5 -0.40625 1.625q0 1.171875 0.453125 1.765625q0.4375 0.59375 1.375 0.640625l0 1.578125q-1.609375 -0.078125 -2.40625 -1.125q-0.8125 -1.0625 -0.8125 -2.96875zm7.265625 2.796875q0.671875 0 1.046875 -0.484375q0.375 -0.5 0.375 -1.390625q0 -1.34375 -0.65625 -2.140625q-0.671875 -0.796875 -1.5 -0.796875l-1.65625 0q0.28125 0.390625 0.390625 1.03125q0.09375 0.640625 0.234375 1.703125q0.15625 1.046875 0.578125 1.5625q0.421875 0.515625 1.1875 0.515625zm-7.265625 -12.895447q0 -1.765625 0.84375 -2.859375q0.828125 -1.109375 2.46875 -1.296875l0 1.625q-0.9375 0.203125 -1.421875 0.828125q-0.5 0.625 -0.5 1.5625q0 1.484375 0.984375 2.25q0.984375 0.765625 2.78125 0.765625q1.609375 0 2.578125 -0.75q0.953125 -0.765625 0.953125 -2.078125q0 -1.15625 -0.625 -1.8125q-0.625 -0.671875 -1.734375 -0.828125l0 -1.625q1.8125 0.265625 2.796875 1.359375q0.96875 1.09375 0.96875 2.890625q0 2.109375 -1.328125 3.3125q-1.328125 1.203125 -3.609375 1.203125q-2.359375 0 -3.75 -1.21875q-1.40625 -1.21875 -1.40625 -3.328125zm-2.671875 -8.192322l2.890625 0l0 -1.921875l1.390625 0l0 1.921875l6.046875 0q0.71875 0 0.765625 -0.484375q0.03125 -0.484375 0.03125 -1.0l0 -0.4375l1.40625 0l0 1.296875q0 1.3125 -0.453125 1.765625q-0.46875 0.4375 -1.5625 0.4375l-6.234375 0l0 1.65625l-1.390625 0l0 -1.65625l-2.890625 0l0 -1.578125zm2.671875 -7.460266q0 -2.078125 1.5 -3.21875q1.484375 -1.15625 3.828125 -1.15625l0.1875 0l0 7.234375l0.109375 0q1.390625 0 2.234375 -0.796875q0.828125 -0.8125 0.828125 -2.21875q0 -1.046875 -0.484375 -1.671875q-0.5 -0.625 -1.40625 -0.828125l0 -1.5625q1.609375 0.328125 2.453125 1.40625q0.84375 1.078125 0.84375 2.71875q0 1.515625 -0.6875 2.578125q-0.6875 1.046875 -1.90625 1.546875q-1.234375 0.5 -2.515625 0.5q-2.140625 0 -3.5625 -1.28125q-1.421875 -1.296875 -1.421875 -3.25zm4.109375 2.859375l0 -5.546875q-1.171875 0.078125 -1.9375 0.859375q-0.78125 0.765625 -0.78125 1.9375q0 1.09375 0.734375 1.875q0.734375 0.765625 1.984375 0.875zm-4.125 -13.676697q0 -0.046875 0 -0.09375q0 -0.046875 0.015625 -0.125l1.671875 0q0 1.796875 0.953125 2.65625q0.9375 0.84375 2.921875 0.84375l4.3125 0l0 1.578125l-9.640625 0l0 -1.484375l2.03125 0l0 -0.046875q-1.15625 -0.546875 -1.703125 -1.359375q-0.5625 -0.828125 -0.5625 -1.96875zm0.015625 -4.618927q0 -1.9375 0.75 -2.890625q0.75 -0.953125 2.265625 -1.03125l0 1.578125l-0.03125 0q-0.765625 0.0625 -1.171875 0.671875q-0.421875 0.609375 -0.421875 1.5625q0 0.953125 0.328125 1.515625q0.3125 0.546875 0.90625 0.546875q0.515625 0 0.859375 -0.484375q0.328125 -0.5 0.546875 -1.484375l0.328125 -1.484375q0.3125 -1.40625 0.953125 -2.125q0.640625 -0.734375 1.734375 -0.734375q1.421875 0 2.234375 1.109375q0.8125 1.09375 0.8125 2.984375q0 1.859375 -0.828125 2.953125q-0.84375 1.078125 -2.453125 1.140625l0 -1.59375q0.90625 -0.03125 1.390625 -0.703125q0.484375 -0.6875 0.484375 -1.875q0 -1.15625 -0.359375 -1.75q-0.375 -0.59375 -1.078125 -0.59375q-0.65625 0 -1.03125 0.59375q-0.375 0.59375 -0.734375 2.40625q-0.359375 1.828125 -1.015625 2.578125q-0.65625 0.734375 -1.734375 0.734375q-1.265625 0 -2.0 -1.03125q-0.734375 -1.03125 -0.734375 -2.59375zm-3.453125 -13.402054l13.3125 0l0 1.765625l-13.3125 0l0 -1.765625zm-0.328125 -8.078033l13.953125 5.515625l0 1.375l-13.953125 -5.53125l0 -1.359375zm0 -6.759552q0 -1.9375 0.90625 -3.375q0.890625 -1.4375 2.515625 -2.21875q1.625 -0.78125 3.5625 -0.78125q1.953125 0 3.578125 0.78125q1.609375 0.765625 2.5 2.21875q0.890625 1.453125 0.890625 3.375q0 1.921875 -0.890625 3.375q-0.890625 1.4375 -2.5 2.234375q-1.625 0.78125 -3.578125 0.78125q-3.03125 0 -5.0 -1.734375q-1.984375 -1.75 -1.984375 -4.65625zm6.984375 4.609375q1.484375 0 2.765625 -0.53125q1.28125 -0.546875 2.0 -1.59375q0.71875 -1.0625 0.71875 -2.484375q0 -2.140625 -1.546875 -3.375q-1.546875 -1.234375 -3.9375 -1.234375q-2.375 0 -3.921875 1.234375q-1.5625 1.21875 -1.5625 3.40625q0 2.140625 1.5625 3.359375q1.5625 1.21875 3.921875 1.21875z" fill-rule="nonzero"/><path fill="#000000" fill-opacity="0.0" d="m661.3937 327.90027l0 -116.598434l43.118164 0l0 116.598434z" fill-rule="evenodd"/><path fill="#000000" d="m674.6731 280.5481q0 -2.203125 1.15625 -3.6875q1.140625 -1.5 3.171875 -1.796875l0 1.765625q-1.359375 0.296875 -2.09375 1.296875q-0.734375 0.984375 -0.734375 2.4375q0 2.125 1.5 3.328125q1.484375 1.1875 3.890625 1.1875q2.546875 0 4.0625 -1.171875q1.515625 -1.171875 1.515625 -3.359375q0 -1.625 -1.03125 -2.671875q-1.046875 -1.046875 -2.8125 -1.171875l0 -1.765625q2.578125 0.28125 3.953125 1.796875q1.375 1.5 1.375 3.96875q0 2.859375 -1.890625 4.515625q-1.890625 1.640625 -5.046875 1.640625q-3.109375 0 -5.0625 -1.703125q-1.953125 -1.703125 -1.953125 -4.609375zm0 -12.301086q0 -2.21875 1.078125 -3.515625q1.078125 -1.3125 3.140625 -1.390625l0 1.671875q-1.359375 0.15625 -2.03125 1.0q-0.6875 0.828125 -0.6875 2.3125q0 1.421875 0.59375 2.203125q0.578125 0.78125 1.671875 0.78125q0.78125 0 1.28125 -0.65625q0.5 -0.671875 1.09375 -3.625q0.4375 -2.125 1.34375 -3.171875q0.90625 -1.0625 2.5 -1.0625q1.859375 0 2.921875 1.515625q1.046875 1.515625 1.046875 3.6875q0 2.421875 -1.203125 3.953125q-1.21875 1.53125 -3.484375 1.546875l0 -1.6875q1.515625 -0.015625 2.359375 -1.078125q0.84375 -1.078125 0.84375 -2.796875q0 -1.609375 -0.625 -2.484375q-0.625 -0.890625 -1.796875 -0.890625q-0.953125 0 -1.515625 0.8125q-0.578125 0.8125 -1.0 2.9375q-0.53125 2.84375 -1.375 3.8125q-0.859375 0.953125 -2.25 0.953125q-1.796875 0 -2.84375 -1.359375q-1.0625 -1.359375 -1.0625 -3.46875zm0.328125 -8.057037l11.53125 -3.8125l0 -0.03125l-11.53125 -3.8437653l0 -1.84375l13.3125 4.734375l0 2.0156403l-13.3125 4.703125l0 -1.921875zm0 -17.969925l13.3125 0l0 1.765625l-13.3125 0l0 -1.765625zm-0.328125 -8.078033l13.953125 5.515625l0 1.375l-13.953125 -5.53125l0 -1.359375zm0 -6.759552q0 -1.9375 0.90625 -3.375q0.890625 -1.4375 2.515625 -2.21875q1.625 -0.78125 3.5625 -0.78125q1.953125 0 3.578125 0.78125q1.609375 0.765625 2.5 2.21875q0.890625 1.453125 0.890625 3.375q0 1.921875 -0.890625 3.375q-0.890625 1.4375 -2.5 2.234375q-1.625 0.78125 -3.578125 0.78125q-3.03125 0 -5.0 -1.734375q-1.984375 -1.75 -1.984375 -4.65625zm6.984375 4.609375q1.484375 0 2.765625 -0.53125q1.28125 -0.546875 2.0 -1.59375q0.71875 -1.0625 0.71875 -2.484375q0 -2.140625 -1.546875 -3.375q-1.546875 -1.234375 -3.9375 -1.234375q-2.375 0 -3.921875 1.234375q-1.5625 1.21875 -1.5625 3.40625q0 2.140625 1.5625 3.359375q1.5625 1.21875 3.921875 1.21875z" fill-rule="nonzero"/><path fill="#000000" fill-opacity="0.0" d="m736.98425 407.02057l0 -195.71652l43.118103 0l0 195.71652z" fill-rule="evenodd"/><path fill="#000000" d="m750.59174 388.46164q0 -3.03125 1.609375 -4.65625q1.59375 -1.640625 4.734375 -1.640625q3.515625 0 5.25 1.625q1.71875 1.609375 1.71875 4.671875l0 4.671875l-13.3125 0l0 -4.671875zm11.8125 -0.109375q0 -2.0 -1.296875 -3.203125q-1.296875 -1.21875 -3.9375 -1.21875q-2.640625 0 -3.859375 1.109375q-1.234375 1.09375 -1.234375 3.25l0 3.078125l10.328125 0l0 -3.015625zm-8.359375 -12.104645q0 -2.078125 1.5 -3.21875q1.484375 -1.15625 3.828125 -1.15625l0.1875 0l0 7.234375l0.109375 0q1.390625 0 2.234375 -0.796875q0.828125 -0.8125 0.828125 -2.21875q0 -1.046875 -0.484375 -1.671875q-0.5 -0.625 -1.40625 -0.828125l0 -1.5625q1.609375 0.328125 2.453125 1.40625q0.84375 1.078125 0.84375 2.71875q0 1.515625 -0.6875 2.578125q-0.6875 1.046875 -1.90625 1.546875q-1.234375 0.5 -2.515625 0.5q-2.140625 0 -3.5625 -1.28125q-1.421875 -1.296875 -1.421875 -3.25zm4.109375 2.859375l0 -5.546875q-1.171875 0.078125 -1.9375 0.859375q-0.78125 0.765625 -0.78125 1.9375q0 1.09375 0.734375 1.875q0.734375 0.765625 1.984375 0.875zm-7.5625 -10.551697l13.3125 0l0 1.59375l-13.3125 0l0 -1.59375zm0 -4.1448364l1.9375 0l0 1.59375l-1.9375 0l0 -1.59375zm3.671875 0l9.640625 0l0 1.59375l-9.640625 0l0 -1.59375zm-0.21875 -7.113556q0 -1.046875 0.421875 -1.71875q0.421875 -0.671875 1.21875 -0.921875q-0.78125 -0.5 -1.203125 -1.28125q-0.4375 -0.796875 -0.4375 -1.765625q0 -1.625 0.734375 -2.40625q0.734375 -0.78125 2.0 -0.78125l7.125 0l0 1.578125l-6.390625 0q-1.046875 0 -1.5625 0.453125q-0.515625 0.4375 -0.515625 1.421875q0 1.1875 0.6875 1.859375q0.6875 0.65625 1.71875 0.65625l6.0625 0l0 1.59375l-6.390625 0q-1.046875 0 -1.5625 0.4375q-0.515625 0.4375 -0.515625 1.359375q0 0.765625 0.359375 1.34375q0.359375 0.578125 1.0 0.90625q0.625 0.328125 1.0625 0.328125l6.046875 0l0 1.59375l-9.640625 0l0 -1.5l1.421875 0l0 -0.03125q-0.84375 -0.546875 -1.234375 -1.3125q-0.40625 -0.78125 -0.40625 -1.8125zm-3.453125 -12.945557l1.9375 0l0 1.59375l-1.9375 0l0 -1.59375zm3.671875 0l9.640625 0l0 1.59375l-9.640625 0l0 -1.59375zm-2.890625 -4.660431l2.890625 0l0 -1.921875l1.390625 0l0 1.921875l6.046875 0q0.71875 0 0.765625 -0.484375q0.03125 -0.484375 0.03125 -1.0l0 -0.4375l1.40625 0l0 1.296875q0 1.3125 -0.453125 1.765625q-0.46875 0.4375 -1.5625 0.4375l-6.234375 0l0 1.65625l-1.390625 0l0 -1.65625l-2.890625 0l0 -1.578125zm2.671875 -7.460266q0 -2.078125 1.5 -3.21875q1.484375 -1.15625 3.828125 -1.15625l0.1875 0l0 7.234375l0.109375 0q1.390625 0 2.234375 -0.796875q0.828125 -0.8125 0.828125 -2.21875q0 -1.046875 -0.484375 -1.671875q-0.5 -0.625 -1.40625 -0.828125l0 -1.5625q1.609375 0.328125 2.453125 1.40625q0.84375 1.078125 0.84375 2.71875q0 1.515625 -0.6875 2.578125q-0.6875 1.046875 -1.90625 1.546875q-1.234375 0.5 -2.515625 0.5q-2.140625 0 -3.5625 -1.28125q-1.421875 -1.296875 -1.421875 -3.25zm4.109375 2.859375l0 -5.546875q-1.171875 0.078125 -1.9375 0.859375q-0.78125 0.765625 -0.78125 1.9375q0 1.09375 0.734375 1.875q0.734375 0.765625 1.984375 0.875zm-7.5625 -17.489197l13.3125 0l0 1.59375l-1.296875 0l0 0.03125q0.734375 0.375 1.140625 1.1875q0.390625 0.8125 0.390625 1.890625q0 2.015625 -1.40625 3.234375q-1.40625 1.203125 -3.671875 1.203125q-2.234375 0 -3.625 -1.171875q-1.390625 -1.171875 -1.390625 -3.21875q0 -0.953125 0.390625 -1.796875q0.375 -0.859375 1.109375 -1.328125l0 -0.03125l-4.953125 0l0 -1.59375zm8.5625 7.46875q1.5625 0 2.578125 -0.8125q1.0 -0.8125 1.0 -2.1875q0 -1.390625 -1.0 -2.15625q-1.015625 -0.78125 -2.640625 -0.78125q-1.640625 0 -2.640625 0.796875q-1.015625 0.78125 -1.015625 2.265625q0 1.359375 1.0 2.125q0.984375 0.75 2.71875 0.75zm-8.5625 -21.710999q0 -1.734375 0.921875 -2.84375q0.90625 -1.109375 2.5625 -1.109375q1.3125 0 2.1875 0.578125q0.859375 0.5625 1.1875 1.734375l0.03125 0q0.203125 -1.015625 0.953125 -1.484375q0.734375 -0.484375 2.53125 -0.5625q1.171875 -0.046875 1.84375 -0.21875q0.65625 -0.171875 1.09375 -0.515625l0 1.984375q-0.21875 0.15625 -0.421875 0.203125q-0.21875 0.046875 -0.59375 0.09375l-1.46875 0.078125q-1.03125 0.03125 -2.09375 0.453125q-1.0625 0.40625 -1.109375 1.8125l0 4.390625l5.6875 0l0 1.765625l-13.3125 0l0 -6.359375zm6.140625 0.796875q0 -1.46875 -0.578125 -2.21875q-0.578125 -0.765625 -1.8125 -0.765625q-1.0625 0 -1.65625 0.609375q-0.609375 0.59375 -0.609375 1.6875l0 4.484375l4.65625 0l0 -3.796875zm-2.6875 -10.968109q0 -2.078125 1.5 -3.21875q1.484375 -1.15625 3.828125 -1.15625l0.1875 0l0 7.234375l0.109375 0q1.390625 0 2.234375 -0.796875q0.828125 -0.8125 0.828125 -2.21875q0 -1.046875 -0.484375 -1.671875q-0.5 -0.625 -1.40625 -0.828125l0 -1.5625q1.609375 0.328125 2.453125 1.40625q0.84375 1.078125 0.84375 2.71875q0 1.515625 -0.6875 2.578125q-0.6875 1.046875 -1.90625 1.546875q-1.234375 0.5 -2.515625 0.5q-2.140625 0 -3.5625 -1.28125q-1.421875 -1.296875 -1.421875 -3.25zm4.109375 2.859375l0 -5.546875q-1.171875 0.078125 -1.9375 0.859375q-0.78125 0.765625 -0.78125 1.9375q0 1.09375 0.734375 1.875q0.734375 0.765625 1.984375 0.875zm-4.109375 -12.895447q0 -1.765625 0.84375 -2.859375q0.828125 -1.109375 2.46875 -1.296875l0 1.625q-0.9375 0.203125 -1.421875 0.828125q-0.5 0.625 -0.5 1.5625q0 1.484375 0.984375 2.25q0.984375 0.765625 2.78125 0.765625q1.609375 0 2.578125 -0.75q0.953125 -0.765625 0.953125 -2.078125q0 -1.15625 -0.625 -1.8125q-0.625 -0.671875 -1.734375 -0.828125l0 -1.625q1.8125 0.265625 2.796875 1.359375q0.96875 1.09375 0.96875 2.890625q0 2.109375 -1.328125 3.3125q-1.328125 1.203125 -3.609375 1.203125q-2.359375 0 -3.75 -1.21875q-1.40625 -1.21875 -1.40625 -3.328125zm0 -10.161072q0 -2.1875 1.40625 -3.421875q1.40625 -1.25 3.640625 -1.25q2.25 0 3.65625 1.28125q1.390625 1.265625 1.390625 3.390625q0 2.09375 -1.375 3.390625q-1.375 1.296875 -3.671875 1.296875q-2.296875 0 -3.671875 -1.265625q-1.375 -1.265625 -1.375 -3.421875zm5.046875 3.015625q1.65625 0 2.65625 -0.84375q0.984375 -0.859375 0.984375 -2.171875q0 -1.296875 -0.984375 -2.140625q-1.0 -0.859375 -2.65625 -0.859375q-1.640625 0 -2.640625 0.84375q-1.015625 0.84375 -1.015625 2.171875q0 1.28125 0.984375 2.140625q0.984375 0.859375 2.671875 0.859375zm-5.0625 -14.369019q0 -0.046875 0 -0.09375q0 -0.046875 0.015625 -0.125l1.671875 0q0 1.796875 0.953125 2.65625q0.9375 0.84375 2.921875 0.84375l4.3125 0l0 1.578125l-9.640625 0l0 -1.484375l2.03125 0l0 -0.046875q-1.15625 -0.546875 -1.703125 -1.359375q-0.5625 -0.828125 -0.5625 -1.96875zm-3.4375 -9.687958l13.3125 0l0 1.59375l-1.296875 0l0 0.03125q0.734375 0.375 1.140625 1.1875q0.390625 0.8125 0.390625 1.890625q0 2.015625 -1.40625 3.234375q-1.40625 1.203125 -3.671875 1.203125q-2.234375 0 -3.625 -1.171875q-1.390625 -1.171875 -1.390625 -3.21875q0 -0.953125 0.390625 -1.796875q0.375 -0.859375 1.109375 -1.328125l0 -0.03125l-4.953125 0l0 -1.59375zm8.5625 7.46875q1.5625 0 2.578125 -0.8125q1.0 -0.8125 1.0 -2.1875q0 -1.390625 -1.0 -2.15625q-1.015625 -0.78125 -2.640625 -0.78125q-1.640625 0 -2.640625 0.796875q-1.015625 0.78125 -1.015625 2.265625q0 1.359375 1.0 2.125q0.984375 0.75 2.71875 0.75zm-8.5625 -17.195358l13.3125 0l0 1.765625l-13.3125 0l0 -1.765625zm-0.328125 -8.078033l13.953125 5.515625l0 1.375l-13.953125 -5.53125l0 -1.359375zm0 -6.759552q0 -1.9375 0.90625 -3.375q0.890625 -1.4375 2.515625 -2.21875q1.625 -0.78125 3.5625 -0.78125q1.953125 0 3.578125 0.78125q1.609375 0.765625 2.5 2.21875q0.890625 1.453125 0.890625 3.375q0 1.921875 -0.890625 3.375q-0.890625 1.4375 -2.5 2.234375q-1.625 0.78125 -3.578125 0.78125q-3.03125 0 -5.0 -1.734375q-1.984375 -1.75 -1.984375 -4.65625zm6.984375 4.609375q1.484375 0 2.765625 -0.53125q1.28125 -0.546875 2.0 -1.59375q0.71875 -1.0625 0.71875 -2.484375q0 -2.140625 -1.546875 -3.375q-1.546875 -1.234375 -3.9375 -1.234375q-2.375 0 -3.921875 1.234375q-1.5625 1.21875 -1.5625 3.40625q0 2.140625 1.5625 3.359375q1.5625 1.21875 3.921875 1.21875z" fill-rule="nonzero"/><path fill="#000000" fill-opacity="0.0" d="m812.5748 407.02057l0 -195.71652l43.118103 0l0 195.71652z" fill-rule="evenodd"/><path fill="#000000" d="m826.1823 365.64697q0 -2.46875 1.0 -3.34375q0.984375 -0.890625 2.25 -0.890625q1.0625 0 1.84375 0.515625q0.765625 0.515625 1.15625 1.453125l0.03125 0q0.265625 -1.21875 1.125 -1.875q0.84375 -0.65625 2.078125 -0.65625q1.625 0 2.734375 1.140625q1.09375 1.125 1.09375 2.828125l0 6.515625l-13.3125 0l0 -5.6875zm5.71875 0.28125q0 -1.328125 -0.5 -2.03125q-0.5 -0.71875 -1.625 -0.71875q-1.0625 0 -1.578125 0.59375q-0.53125 0.59375 -0.53125 2.140625l0 3.65625l4.234375 0l0 -3.640625zm6.09375 -0.875q0 -1.078125 -0.640625 -1.75q-0.640625 -0.6875 -1.734375 -0.6875q-1.125 0 -1.671875 0.765625q-0.5625 0.765625 -0.5625 2.203125l0 3.984375l4.609375 0l0 -4.515625zm-8.140625 -6.983734l7.875 -2.8125l0 -0.046875l-7.875 -2.703125l0 -1.6875l10.671875 4.109375q1.671875 0.640625 2.25 1.234375q0.578125 0.59375 0.578125 1.65625q0 0.296875 -0.03125 0.578125q-0.03125 0.265625 -0.125 0.53125l-1.46875 0q0.078125 -0.234375 0.140625 -0.46875q0.078125 -0.234375 0.078125 -0.46875q0 -0.96875 -0.96875 -1.34375q-0.953125 -0.390625 -1.53125 -0.609375l-9.59375 3.828125l0 -1.796875zm-2.890625 -10.78125l2.890625 0l0 -1.921875l1.390625 0l0 1.921875l6.046875 0q0.71875 0 0.765625 -0.484375q0.03125 -0.484375 0.03125 -1.0l0 -0.4375l1.40625 0l0 1.296875q0 1.3125 -0.453125 1.765625q-0.46875 0.4375 -1.5625 0.4375l-6.234375 0l0 1.65625l-1.390625 0l0 -1.65625l-2.890625 0l0 -1.578125zm2.671875 -7.460266q0 -2.078125 1.5 -3.21875q1.484375 -1.15625 3.828125 -1.15625l0.1875 0l0 7.234375l0.109375 0q1.390625 0 2.234375 -0.796875q0.828125 -0.8125 0.828125 -2.21875q0 -1.046875 -0.484375 -1.671875q-0.5 -0.625 -1.40625 -0.828125l0 -1.5625q1.609375 0.328125 2.453125 1.40625q0.84375 1.078125 0.84375 2.71875q0 1.515625 -0.6875 2.578125q-0.6875 1.046875 -1.90625 1.546875q-1.234375 0.5 -2.515625 0.5q-2.140625 0 -3.5625 -1.28125q-1.421875 -1.296875 -1.421875 -3.25zm4.109375 2.859375l0 -5.546875q-1.171875 0.078125 -1.9375 0.859375q-0.78125 0.765625 -0.78125 1.9375q0 1.09375 0.734375 1.875q0.734375 0.765625 1.984375 0.875zm-4.109375 -12.082947q0 -1.9375 0.75 -2.890625q0.75 -0.953125 2.265625 -1.03125l0 1.578125l-0.03125 0q-0.765625 0.0625 -1.171875 0.671875q-0.421875 0.609375 -0.421875 1.5625q0 0.953125 0.328125 1.515625q0.3125 0.546875 0.90625 0.546875q0.515625 0 0.859375 -0.484375q0.328125 -0.5 0.546875 -1.484375l0.328125 -1.484375q0.3125 -1.40625 0.953125 -2.125q0.640625 -0.734375 1.734375 -0.734375q1.421875 0 2.234375 1.109375q0.8125 1.09375 0.8125 2.984375q0 1.859375 -0.828125 2.953125q-0.84375 1.078125 -2.453125 1.140625l0 -1.59375q0.90625 -0.03125 1.390625 -0.703125q0.484375 -0.6875 0.484375 -1.875q0 -1.15625 -0.359375 -1.75q-0.375 -0.59375 -1.078125 -0.59375q-0.65625 0 -1.03125 0.59375q-0.375 0.59375 -0.734375 2.40625q-0.359375 1.828125 -1.015625 2.578125q-0.65625 0.734375 -1.734375 0.734375q-1.265625 0 -2.0 -1.03125q-0.734375 -1.03125 -0.734375 -2.59375zm-3.453125 -17.917694q0 -1.734375 0.921875 -2.84375q0.90625 -1.109375 2.5625 -1.109375q1.3125 0 2.1875 0.578125q0.859375 0.5625 1.1875 1.734375l0.03125 0q0.203125 -1.015625 0.953125 -1.484375q0.734375 -0.484375 2.53125 -0.5625q1.171875 -0.046875 1.84375 -0.21875q0.65625 -0.171875 1.09375 -0.515625l0 1.984375q-0.21875 0.15625 -0.421875 0.203125q-0.21875 0.046875 -0.59375 0.09375l-1.46875 0.078125q-1.03125 0.03125 -2.09375 0.453125q-1.0625 0.40625 -1.109375 1.8125l0 4.390625l5.6875 0l0 1.765625l-13.3125 0l0 -6.359375zm6.140625 0.796875q0 -1.46875 -0.578125 -2.21875q-0.578125 -0.765625 -1.8125 -0.765625q-1.0625 0 -1.65625 0.609375q-0.609375 0.59375 -0.609375 1.6875l0 4.484375l4.65625 0l0 -3.796875zm-2.6875 -10.968109q0 -2.078125 1.5 -3.21875q1.484375 -1.15625 3.828125 -1.15625l0.1875 0l0 7.234375l0.109375 0q1.390625 0 2.234375 -0.796875q0.828125 -0.8125 0.828125 -2.21875q0 -1.046875 -0.484375 -1.671875q-0.5 -0.625 -1.40625 -0.828125l0 -1.5625q1.609375 0.328125 2.453125 1.40625q0.84375 1.078125 0.84375 2.71875q0 1.515625 -0.6875 2.578125q-0.6875 1.046875 -1.90625 1.546875q-1.234375 0.5 -2.515625 0.5q-2.140625 0 -3.5625 -1.28125q-1.421875 -1.296875 -1.421875 -3.25zm4.109375 2.859375l0 -5.546875q-1.171875 0.078125 -1.9375 0.859375q-0.78125 0.765625 -0.78125 1.9375q0 1.09375 0.734375 1.875q0.734375 0.765625 1.984375 0.875zm-4.109375 -12.895447q0 -1.765625 0.84375 -2.859375q0.828125 -1.109375 2.46875 -1.296875l0 1.625q-0.9375 0.203125 -1.421875 0.828125q-0.5 0.625 -0.5 1.5625q0 1.484375 0.984375 2.25q0.984375 0.765625 2.78125 0.765625q1.609375 0 2.578125 -0.75q0.953125 -0.765625 0.953125 -2.078125q0 -1.15625 -0.625 -1.8125q-0.625 -0.671875 -1.734375 -0.828125l0 -1.625q1.8125 0.265625 2.796875 1.359375q0.96875 1.09375 0.96875 2.890625q0 2.109375 -1.328125 3.3125q-1.328125 1.203125 -3.609375 1.203125q-2.359375 0 -3.75 -1.21875q-1.40625 -1.21875 -1.40625 -3.328125zm0 -10.161072q0 -2.1875 1.40625 -3.421875q1.40625 -1.25 3.640625 -1.25q2.25 0 3.65625 1.28125q1.390625 1.265625 1.390625 3.390625q0 2.09375 -1.375 3.390625q-1.375 1.296875 -3.671875 1.296875q-2.296875 0 -3.671875 -1.265625q-1.375 -1.265625 -1.375 -3.421875zm5.046875 3.015625q1.65625 0 2.65625 -0.84375q0.984375 -0.859375 0.984375 -2.171875q0 -1.296875 -0.984375 -2.140625q-1.0 -0.859375 -2.65625 -0.859375q-1.640625 0 -2.640625 0.84375q-1.015625 0.84375 -1.015625 2.171875q0 1.28125 0.984375 2.140625q0.984375 0.859375 2.671875 0.859375zm-5.0625 -14.369019q0 -0.046875 0 -0.09375q0 -0.046875 0.015625 -0.125l1.671875 0q0 1.796875 0.953125 2.65625q0.9375 0.84375 2.921875 0.84375l4.3125 0l0 1.578125l-9.640625 0l0 -1.484375l2.03125 0l0 -0.046875q-1.15625 -0.546875 -1.703125 -1.359375q-0.5625 -0.828125 -0.5625 -1.96875zm-3.4375 -9.687958l13.3125 0l0 1.59375l-1.296875 0l0 0.03125q0.734375 0.375 1.140625 1.1875q0.390625 0.8125 0.390625 1.890625q0 2.015625 -1.40625 3.234375q-1.40625 1.203125 -3.671875 1.203125q-2.234375 0 -3.625 -1.171875q-1.390625 -1.171875 -1.390625 -3.21875q0 -0.953125 0.390625 -1.796875q0.375 -0.859375 1.109375 -1.328125l0 -0.03125l-4.953125 0l0 -1.59375zm8.5625 7.46875q1.5625 0 2.578125 -0.8125q1.0 -0.8125 1.0 -2.1875q0 -1.390625 -1.0 -2.15625q-1.015625 -0.78125 -2.640625 -0.78125q-1.640625 0 -2.640625 0.796875q-1.015625 0.78125 -1.015625 2.265625q0 1.359375 1.0 2.125q0.984375 0.75 2.71875 0.75zm-5.109375 -13.121429q0 -1.9375 0.75 -2.890625q0.75 -0.953125 2.265625 -1.03125l0 1.578125l-0.03125 0q-0.765625 0.0625 -1.171875 0.671875q-0.421875 0.609375 -0.421875 1.5625q0 0.953125 0.328125 1.515625q0.3125 0.546875 0.90625 0.546875q0.515625 0 0.859375 -0.484375q0.328125 -0.5 0.546875 -1.484375l0.328125 -1.484375q0.3125 -1.40625 0.953125 -2.125q0.640625 -0.734375 1.734375 -0.734375q1.421875 0 2.234375 1.109375q0.8125 1.09375 0.8125 2.984375q0 1.859375 -0.828125 2.953125q-0.84375 1.078125 -2.453125 1.140625l0 -1.59375q0.90625 -0.03125 1.390625 -0.703125q0.484375 -0.6875 0.484375 -1.875q0 -1.15625 -0.359375 -1.75q-0.375 -0.59375 -1.078125 -0.59375q-0.65625 0 -1.03125 0.59375q-0.375 0.59375 -0.734375 2.40625q-0.359375 1.828125 -1.015625 2.578125q-0.65625 0.734375 -1.734375 0.734375q-1.265625 0 -2.0 -1.03125q-0.734375 -1.03125 -0.734375 -2.59375zm-3.453125 -13.402054l13.3125 0l0 1.765625l-13.3125 0l0 -1.765625zm-0.328125 -8.078033l13.953125 5.515625l0 1.375l-13.953125 -5.53125l0 -1.359375zm0 -6.759552q0 -1.9375 0.90625 -3.375q0.890625 -1.4375 2.515625 -2.21875q1.625 -0.78125 3.5625 -0.78125q1.953125 0 3.578125 0.78125q1.609375 0.765625 2.5 2.21875q0.890625 1.453125 0.890625 3.375q0 1.921875 -0.890625 3.375q-0.890625 1.4375 -2.5 2.234375q-1.625 0.78125 -3.578125 0.78125q-3.03125 0 -5.0 -1.734375q-1.984375 -1.75 -1.984375 -4.65625zm6.984375 4.609375q1.484375 0 2.765625 -0.53125q1.28125 -0.546875 2.0 -1.59375q0.71875 -1.0625 0.71875 -2.484375q0 -2.140625 -1.546875 -3.375q-1.546875 -1.234375 -3.9375 -1.234375q-2.375 0 -3.921875 1.234375q-1.5625 1.21875 -1.5625 3.40625q0 2.140625 1.5625 3.359375q1.5625 1.21875 3.921875 1.21875z" fill-rule="nonzero"/><path fill="#000000" fill-opacity="0.0" d="m469.2047 509.49475l175.93701 0l0 43.118103l-175.93701 0z" fill-rule="evenodd"/><path fill="#000000" d="m518.8401 522.7741q2.203125 0 3.6875 1.15625q1.5 1.140625 1.796875 3.171875l-1.765625 0q-0.296875 -1.359375 -1.296875 -2.09375q-0.984375 -0.734375 -2.4375 -0.734375q-2.125 0 -3.328125 1.5q-1.1875 1.484375 -1.1875 3.890625q0 2.546875 1.171875 4.0625q1.171875 1.515625 3.359375 1.515625q1.625 0 2.671875 -1.03125q1.046875 -1.046875 1.171875 -2.8125l1.765625 0q-0.28125 2.578125 -1.796875 3.953125q-1.5 1.375 -3.96875 1.375q-2.859375 0 -4.515625 -1.890625q-1.640625 -1.890625 -1.640625 -5.046875q0 -3.109375 1.703125 -5.0625q1.703125 -1.953125 4.609375 -1.953125zm9.144775 0.328125l0 5.09375l0.03125 0q0.34375 -0.78125 1.171875 -1.203125q0.828125 -0.4375 1.875 -0.4375q1.75 0 2.53125 0.890625q0.796875 0.890625 0.796875 2.546875l0 6.421875l-1.59375 0l0 -6.59375q0 -0.8125 -0.53125 -1.34375q-0.515625 -0.53125 -1.4375 -0.53125q-1.34375 0 -2.09375 0.828125q-0.75 0.8125 -0.75 2.125l0 5.515625l-1.59375 0l0 -13.3125l1.59375 0zm12.735107 3.453125q1.96875 0 2.78125 0.703125q0.828125 0.6875 0.828125 1.875q0 5.015625 0 5.5625q0 0.546875 0.5 0.546875q0.109375 0 0.234375 -0.03125q0.140625 -0.03125 0.25 -0.0625l0 1.234375q-0.21875 0.125 -0.5 0.1875q-0.28125 0.078125 -0.625 0.078125q-0.65625 0 -1.0 -0.375q-0.34375 -0.375 -0.34375 -1.125q-0.640625 0.75 -1.5 1.125q-0.84375 0.375 -1.90625 0.375q-1.484375 0 -2.34375 -0.703125q-0.84375 -0.71875 -0.84375 -2.015625q0 -1.296875 0.828125 -2.046875q0.828125 -0.765625 3.90625 -1.15625q1.03125 -0.140625 1.390625 -0.390625q0.375 -0.265625 0.375 -0.796875q0 -0.796875 -0.515625 -1.1875q-0.5 -0.40625 -1.625 -0.40625q-1.171875 0 -1.765625 0.453125q-0.59375 0.4375 -0.640625 1.375l-1.578125 0q0.078125 -1.609375 1.125 -2.40625q1.0625 -0.8125 2.96875 -0.8125zm-2.796875 7.265625q0 0.671875 0.484375 1.046875q0.5 0.375 1.390625 0.375q1.34375 0 2.140625 -0.65625q0.796875 -0.671875 0.796875 -1.5l0 -1.65625q-0.390625 0.28125 -1.03125 0.390625q-0.640625 0.09375 -1.703125 0.234375q-1.046875 0.15625 -1.5625 0.578125q-0.515625 0.421875 -0.515625 1.1875zm13.676697 -7.28125q0.046875 0 0.09375 0q0.046875 0 0.125 0.015625l0 1.671875q-1.796875 0 -2.65625 0.953125q-0.84375 0.9375 -0.84375 2.921875l0 4.3125l-1.578125 0l0 -9.640625l1.484375 0l0 2.03125l0.046875 0q0.546875 -1.15625 1.359375 -1.703125q0.828125 -0.5625 1.96875 -0.5625zm4.9066772 0.015625q1.96875 0 2.78125 0.703125q0.828125 0.6875 0.828125 1.875q0 5.015625 0 5.5625q0 0.546875 0.5 0.546875q0.109375 0 0.234375 -0.03125q0.140625 -0.03125 0.25 -0.0625l0 1.234375q-0.21875 0.125 -0.5 0.1875q-0.28125 0.078125 -0.625 0.078125q-0.65625 0 -1.0 -0.375q-0.34375 -0.375 -0.34375 -1.125q-0.640625 0.75 -1.5 1.125q-0.84375 0.375 -1.90625 0.375q-1.484375 0 -2.34375 -0.703125q-0.84375 -0.71875 -0.84375 -2.015625q0 -1.296875 0.828125 -2.046875q0.828125 -0.765625 3.90625 -1.15625q1.03125 -0.140625 1.390625 -0.390625q0.375 -0.265625 0.375 -0.796875q0 -0.796875 -0.515625 -1.1875q-0.5 -0.40625 -1.625 -0.40625q-1.171875 0 -1.765625 0.453125q-0.59375 0.4375 -0.640625 1.375l-1.578125 0q0.078125 -1.609375 1.125 -2.40625q1.0625 -0.8125 2.96875 -0.8125zm-2.796875 7.265625q0 0.671875 0.484375 1.046875q0.5 0.375 1.390625 0.375q1.34375 0 2.140625 -0.65625q0.796875 -0.671875 0.796875 -1.5l0 -1.65625q-0.390625 0.28125 -1.03125 0.390625q-0.640625 0.09375 -1.703125 0.234375q-1.046875 0.15625 -1.5625 0.578125q-0.515625 0.421875 -0.515625 1.1875zm12.895447 -7.265625q1.765625 0 2.859375 0.84375q1.109375 0.828125 1.296875 2.46875l-1.625 0q-0.203125 -0.9375 -0.828125 -1.421875q-0.625 -0.5 -1.5625 -0.5q-1.484375 0 -2.25 0.984375q-0.765625 0.984375 -0.765625 2.78125q0 1.609375 0.75 2.578125q0.765625 0.953125 2.078125 0.953125q1.15625 0 1.8125 -0.625q0.671875 -0.625 0.828125 -1.734375l1.625 0q-0.265625 1.8125 -1.359375 2.796875q-1.09375 0.96875 -2.890625 0.96875q-2.109375 0 -3.3125 -1.328125q-1.203125 -1.328125 -1.203125 -3.609375q0 -2.359375 1.21875 -3.75q1.21875 -1.40625 3.328125 -1.40625zm8.192322 -2.671875l0 2.890625l1.921875 0l0 1.390625l-1.921875 0l0 6.046875q0 0.71875 0.484375 0.765625q0.484375 0.03125 1.0 0.03125l0.4375 0l0 1.40625l-1.296875 0q-1.3125 0 -1.765625 -0.453125q-0.4375 -0.46875 -0.4375 -1.5625l0 -6.234375l-1.65625 0l0 -1.390625l1.65625 0l0 -2.890625l1.578125 0zm7.460266 2.671875q2.078125 0 3.21875 1.5q1.15625 1.484375 1.15625 3.828125l0 0.1875l-7.234375 0l0 0.109375q0 1.390625 0.796875 2.234375q0.8125 0.828125 2.21875 0.828125q1.046875 0 1.671875 -0.484375q0.625 -0.5 0.828125 -1.40625l1.5625 0q-0.328125 1.609375 -1.40625 2.453125q-1.078125 0.84375 -2.71875 0.84375q-1.515625 0 -2.578125 -0.6875q-1.046875 -0.6875 -1.546875 -1.90625q-0.5 -1.234375 -0.5 -2.515625q0 -2.140625 1.28125 -3.5625q1.296875 -1.421875 3.25 -1.421875zm-2.859375 4.109375l5.546875 0q-0.078125 -1.171875 -0.859375 -1.9375q-0.765625 -0.78125 -1.9375 -0.78125q-1.09375 0 -1.875 0.734375q-0.765625 0.734375 -0.875 1.984375zm13.676697 -4.125q0.046875 0 0.09375 0q0.046875 0 0.125 0.015625l0 1.671875q-1.796875 0 -2.65625 0.953125q-0.84375 0.9375 -0.84375 2.921875l0 4.3125l-1.578125 0l0 -9.640625l1.484375 0l0 2.03125l0.046875 0q0.546875 -1.15625 1.359375 -1.703125q0.828125 -0.5625 1.96875 -0.5625zm4.6189575 0.015625q1.9375 0 2.890625 0.75q0.953125 0.75 1.03125 2.265625l-1.578125 0l0 -0.03125q-0.0625 -0.765625 -0.671875 -1.171875q-0.609375 -0.421875 -1.5625 -0.421875q-0.953125 0 -1.515625 0.328125q-0.546875 0.3125 -0.546875 0.90625q0 0.515625 0.484375 0.859375q0.5 0.328125 1.484375 0.546875l1.484375 0.328125q1.40625 0.3125 2.125 0.953125q0.734375 0.640625 0.734375 1.734375q0 1.421875 -1.109375 2.234375q-1.09375 0.8125 -2.984375 0.8125q-1.859375 0 -2.953125 -0.828125q-1.078125 -0.84375 -1.140625 -2.453125l1.59375 0q0.03125 0.90625 0.703125 1.390625q0.6875 0.484375 1.875 0.484375q1.15625 0 1.75 -0.359375q0.59375 -0.375 0.59375 -1.078125q0 -0.65625 -0.59375 -1.03125q-0.59375 -0.375 -2.40625 -0.734375q-1.828125 -0.359375 -2.578125 -1.015625q-0.734375 -0.65625 -0.734375 -1.734375q0 -1.265625 1.03125 -2.0q1.03125 -0.734375 2.59375 -0.734375z" fill-rule="nonzero"/><path fill="#000000" fill-opacity="0.0" d="m670.5748 433.80316l175.93701 0l0 43.118103l-175.93701 0z" fill-rule="evenodd"/><path fill="#000000" d="m731.4574 447.41064q1.734375 0 2.84375 0.921875q1.109375 0.90625 1.109375 2.5625q0 1.3125 -0.578125 2.1875q-0.5625 0.859375 -1.734375 1.1875l0 0.03125q1.015625 0.203125 1.484375 0.953125q0.484375 0.734375 0.5625 2.53125q0.046875 1.171875 0.21875 1.84375q0.171875 0.65625 0.515625 1.09375l-1.984375 0q-0.15625 -0.21875 -0.203125 -0.421875q-0.046875 -0.21875 -0.09375 -0.59375l-0.078125 -1.46875q-0.03125 -1.03125 -0.453125 -2.09375q-0.40625 -1.0625 -1.8125 -1.109375l-4.390625 0l0 5.6875l-1.765625 0l0 -13.3125l6.359375 0zm-0.796875 6.140625q1.46875 0 2.21875 -0.578125q0.765625 -0.578125 0.765625 -1.8125q0 -1.0625 -0.609375 -1.65625q-0.59375 -0.609375 -1.6875 -0.609375l-4.484375 0l0 4.65625l3.796875 0zm10.96814 -2.6875q2.078125 0 3.21875 1.5q1.15625 1.484375 1.15625 3.828125l0 0.1875l-7.234375 0l0 0.109375q0 1.390625 0.796875 2.234375q0.8125 0.828125 2.21875 0.828125q1.046875 0 1.671875 -0.484375q0.625 -0.5 0.828125 -1.40625l1.5625 0q-0.328125 1.609375 -1.40625 2.453125q-1.078125 0.84375 -2.71875 0.84375q-1.515625 0 -2.578125 -0.6875q-1.046875 -0.6875 -1.546875 -1.90625q-0.5 -1.234375 -0.5 -2.515625q0 -2.140625 1.28125 -3.5625q1.296875 -1.421875 3.25 -1.421875zm-2.859375 4.109375l5.546875 0q-0.078125 -1.171875 -0.859375 -1.9375q-0.765625 -0.78125 -1.9375 -0.78125q-1.09375 0 -1.875 0.734375q-0.765625 0.734375 -0.875 1.984375zm12.895447 -4.109375q1.765625 0 2.859375 0.84375q1.109375 0.828125 1.296875 2.46875l-1.625 0q-0.203125 -0.9375 -0.828125 -1.421875q-0.625 -0.5 -1.5625 -0.5q-1.484375 0 -2.25 0.984375q-0.765625 0.984375 -0.765625 2.78125q0 1.609375 0.75 2.578125q0.765625 0.953125 2.078125 0.953125q1.15625 0 1.8125 -0.625q0.671875 -0.625 0.828125 -1.734375l1.625 0q-0.265625 1.8125 -1.359375 2.796875q-1.09375 0.96875 -2.890625 0.96875q-2.109375 0 -3.3125 -1.328125q-1.203125 -1.328125 -1.203125 -3.609375q0 -2.359375 1.21875 -3.75q1.21875 -1.40625 3.328125 -1.40625zm10.161072 0q2.1875 0 3.421875 1.40625q1.25 1.40625 1.25 3.640625q0 2.25 -1.28125 3.65625q-1.265625 1.390625 -3.390625 1.390625q-2.09375 0 -3.390625 -1.375q-1.296875 -1.375 -1.296875 -3.671875q0 -2.296875 1.265625 -3.671875q1.265625 -1.375 3.421875 -1.375zm-3.015625 5.046875q0 1.65625 0.84375 2.65625q0.859375 0.984375 2.171875 0.984375q1.296875 0 2.140625 -0.984375q0.859375 -1.0 0.859375 -2.65625q0 -1.640625 -0.84375 -2.640625q-0.84375 -1.015625 -2.171875 -1.015625q-1.28125 0 -2.140625 0.984375q-0.859375 0.984375 -0.859375 2.671875zm14.369019 -5.0625q0.046875 0 0.09375 0q0.046875 0 0.125 0.015625l0 1.671875q-1.796875 0 -2.65625 0.953125q-0.84375 0.9375 -0.84375 2.921875l0 4.3125l-1.578125 0l0 -9.640625l1.484375 0l0 2.03125l0.046875 0q0.546875 -1.15625 1.359375 -1.703125q0.828125 -0.5625 1.96875 -0.5625zm9.687927 -3.4375l0 13.3125l-1.59375 0l0 -1.296875l-0.03125 0q-0.375 0.734375 -1.1875 1.140625q-0.8125 0.390625 -1.890625 0.390625q-2.015625 0 -3.234375 -1.40625q-1.203125 -1.40625 -1.203125 -3.671875q0 -2.234375 1.171875 -3.625q1.171875 -1.390625 3.21875 -1.390625q0.953125 0 1.796875 0.390625q0.859375 0.375 1.328125 1.109375l0.03125 0l0 -4.953125l1.59375 0zm-7.46875 8.5625q0 1.5625 0.8125 2.578125q0.8125 1.0 2.1875 1.0q1.390625 0 2.15625 -1.0q0.78125 -1.015625 0.78125 -2.640625q0 -1.640625 -0.796875 -2.640625q-0.78125 -1.015625 -2.265625 -1.015625q-1.359375 0 -2.125 1.0q-0.75 0.984375 -0.75 2.71875zm13.12146 -5.109375q1.9375 0 2.890625 0.75q0.953125 0.75 1.03125 2.265625l-1.578125 0l0 -0.03125q-0.0625 -0.765625 -0.671875 -1.171875q-0.609375 -0.421875 -1.5625 -0.421875q-0.953125 0 -1.515625 0.328125q-0.546875 0.3125 -0.546875 0.90625q0 0.515625 0.484375 0.859375q0.5 0.328125 1.484375 0.546875l1.484375 0.328125q1.40625 0.3125 2.125 0.953125q0.734375 0.640625 0.734375 1.734375q0 1.421875 -1.109375 2.234375q-1.09375 0.8125 -2.984375 0.8125q-1.859375 0 -2.953125 -0.828125q-1.078125 -0.84375 -1.140625 -2.453125l1.59375 0q0.03125 0.90625 0.703125 1.390625q0.6875 0.484375 1.875 0.484375q1.15625 0 1.75 -0.359375q0.59375 -0.375 0.59375 -1.078125q0 -0.65625 -0.59375 -1.03125q-0.59375 -0.375 -2.40625 -0.734375q-1.828125 -0.359375 -2.578125 -1.015625q-0.734375 -0.65625 -0.734375 -1.734375q0 -1.265625 1.03125 -2.0q1.03125 -0.734375 2.59375 -0.734375z" fill-rule="nonzero"/><path fill="#22b5ad" d="m191.61417 102.203415l680.31494 0l0 75.590546l-680.31494 0z" fill-rule="evenodd"/><path stroke="#ffffff" stroke-width="1.0" stroke-linejoin="round" stroke-linecap="butt" d="m191.61417 102.203415l680.31494 0l0 75.590546l-680.31494 0z" fill-rule="evenodd"/><path fill="#ffffff" d="m496.49625 146.91869l0 -13.359375l9.015625 0l0 1.578125l-7.25 0l0 4.140625l6.265625 0l0 1.578125l-6.265625 0l0 6.0625l-1.765625 0zm11.099121 -11.46875l0 -1.890625l1.640625 0l0 1.890625l-1.640625 0zm0 11.46875l0 -9.671875l1.640625 0l0 9.671875l-1.640625 0zm4.097931 0l0 -13.359375l1.640625 0l0 13.359375l-1.640625 0zm10.816711 -3.109375l1.6875 0.203125q-0.40625 1.484375 -1.484375 2.3125q-1.078125 0.8125 -2.765625 0.8125q-2.125 0 -3.375 -1.296875q-1.234375 -1.3125 -1.234375 -3.671875q0 -2.453125 1.25 -3.796875q1.265625 -1.34375 3.265625 -1.34375q1.9375 0 3.15625 1.328125q1.234375 1.3125 1.234375 3.703125q0 0.15625 0 0.4375l-7.21875 0q0.09375 1.59375 0.90625 2.453125q0.8125 0.84375 2.015625 0.84375q0.90625 0 1.546875 -0.46875q0.640625 -0.484375 1.015625 -1.515625zm-5.390625 -2.65625l5.40625 0q-0.109375 -1.21875 -0.625 -1.828125q-0.78125 -0.953125 -2.03125 -0.953125q-1.125 0 -1.90625 0.765625q-0.765625 0.75 -0.84375 2.015625zm12.029053 5.765625l5.125 -13.359375l1.90625 0l5.46875 13.359375l-2.015625 0l-1.546875 -4.046875l-5.59375 0l-1.46875 4.046875l-1.875 0zm3.859375 -5.484375l4.53125 0l-1.40625 -3.703125q-0.625 -1.6875 -0.9375 -2.765625q-0.265625 1.28125 -0.71875 2.546875l-1.46875 3.921875zm10.0529785 5.484375l0 -13.359375l5.046875 0q1.328125 0 2.03125 0.125q0.96875 0.171875 1.640625 0.640625q0.671875 0.453125 1.078125 1.28125q0.40625 0.828125 0.40625 1.828125q0 1.703125 -1.09375 2.890625q-1.078125 1.171875 -3.921875 1.171875l-3.421875 0l0 5.421875l-1.765625 0zm1.765625 -7.0l3.453125 0q1.71875 0 2.4375 -0.640625q0.71875 -0.640625 0.71875 -1.796875q0 -0.84375 -0.421875 -1.4375q-0.421875 -0.59375 -1.125 -0.78125q-0.4375 -0.125 -1.640625 -0.125l-3.421875 0l0 4.78125zm10.9747925 7.0l0 -13.359375l1.765625 0l0 13.359375l-1.765625 0zm4.0270996 -2.890625l1.625 -0.25q0.125 0.96875 0.75 1.5q0.625 0.515625 1.75 0.515625q1.125 0 1.671875 -0.453125q0.546875 -0.46875 0.546875 -1.09375q0 -0.546875 -0.484375 -0.875q-0.328125 -0.21875 -1.671875 -0.546875q-1.8125 -0.46875 -2.515625 -0.796875q-0.6875 -0.328125 -1.046875 -0.90625q-0.359375 -0.59375 -0.359375 -1.3125q0 -0.640625 0.296875 -1.1875q0.296875 -0.5625 0.8125 -0.921875q0.375 -0.28125 1.03125 -0.46875q0.671875 -0.203125 1.421875 -0.203125q1.140625 0 2.0 0.328125q0.859375 0.328125 1.265625 0.890625q0.421875 0.5625 0.578125 1.5l-1.609375 0.21875q-0.109375 -0.75 -0.640625 -1.171875q-0.515625 -0.421875 -1.46875 -0.421875q-1.140625 0 -1.625 0.375q-0.46875 0.375 -0.46875 0.875q0 0.3125 0.1875 0.578125q0.203125 0.265625 0.640625 0.4375q0.234375 0.09375 1.4375 0.421875q1.75 0.453125 2.4375 0.75q0.6875 0.296875 1.078125 0.859375q0.390625 0.5625 0.390625 1.40625q0 0.828125 -0.484375 1.546875q-0.46875 0.71875 -1.375 1.125q-0.90625 0.390625 -2.046875 0.390625q-1.875 0 -2.875 -0.78125q-0.984375 -0.78125 -1.25 -2.328125z" fill-rule="nonzero"/></g></svg>