<?xml version="1.0" encoding="iso-8859-1"?>
<!-- Generator: Adobe Illustrator 19.0.0, SVG Export Plug-In . SVG Version: 6.00 Build 0)  -->
<svg version="1.1" id="Capa_1" xmlns="http://www.w3.org/2000/svg" xmlns:xlink="http://www.w3.org/1999/xlink" x="0px" y="0px"
	 viewBox="0 0 512 512" style="enable-background:new 0 0 512 512;" xml:space="preserve">
<g>
	<g>
		<path d="M404.742,41.897h-58.355V30c0-16.542-13.458-30-30-30H195.614c-16.542,0-30,13.458-30,30v11.897h-58.355
			c-24.813,0-45,20.187-45,45V467c0,24.813,20.187,45,45,45h297.483c24.813,0,45-20.187,45-45V86.897
			C449.742,62.084,429.555,41.897,404.742,41.897z M195.614,30h120.773l0.02,46.826c0,0-0.006,0.001-0.019,0.001H195.614V30z
			 M419.741,467c0.001,8.271-6.728,15-14.999,15H107.258c-8.271,0-15-6.729-15-15V173.747h327.483V467z M419.741,143.747H92.258
			v-56.85c0-8.271,6.729-15,15-15h58.355v4.93c0,16.542,13.458,30,30,30h120.773c16.542,0,30-13.458,30-30v-4.93h58.355
			c8.271,0,15,6.729,15,15V143.747z"/>
	</g>
</g>
<g>
	<g>
		<path d="M289.898,231.871H153.656c-8.284,0-15,6.716-15,15s6.716,15,15,15h136.242c8.284,0,15-6.716,15-15
			S298.182,231.871,289.898,231.871z"/>
	</g>
</g>
<g>
	<g>
		<path d="M289.898,308.229H153.656c-8.284,0-15,6.716-15,15s6.716,15,15,15h136.242c8.284,0,15-6.716,15-15
			S298.182,308.229,289.898,308.229z"/>
	</g>
</g>
<g>
	<g>
		<path d="M289.898,384.587H153.656c-8.284,0-15,6.716-15,15s6.716,15,15,15h136.242c8.284,0,15-6.716,15-15
			S298.182,384.587,289.898,384.587z"/>
	</g>
</g>
<g>
	<g>
		<path d="M357.671,231.871h-18.222c-8.284,0-15,6.716-15,15s6.716,15,15,15h18.222c8.284,0,15-6.716,15-15
			S365.956,231.871,357.671,231.871z"/>
	</g>
</g>
<g>
	<g>
		<path d="M357.671,308.229h-18.222c-8.284,0-15,6.716-15,15s6.716,15,15,15h18.222c8.284,0,15-6.716,15-15
			S365.956,308.229,357.671,308.229z"/>
	</g>
</g>
<g>
	<g>
		<path d="M357.671,384.587h-18.222c-8.284,0-15,6.716-15,15s6.716,15,15,15h18.222c8.284,0,15-6.716,15-15
			S365.956,384.587,357.671,384.587z"/>
	</g>
</g>
<g>
</g>
<g>
</g>
<g>
</g>
<g>
</g>
<g>
</g>
<g>
</g>
<g>
</g>
<g>
</g>
<g>
</g>
<g>
</g>
<g>
</g>
<g>
</g>
<g>
</g>
<g>
</g>
<g>
</g>
</svg>
