<svg xmlns="http://www.w3.org/2000/svg" width="511.999" height="512" viewBox="0 0 511.999 512">
  <g id="link" transform="translate(-0.001 0)">
    <g id="Group_2" data-name="Group 2">
      <g id="Group_1" data-name="Group 1">
        <path id="Path_1" data-name="Path 1" d="M476.853,35.148a120,120,0,0,0-169.706,0L206.853,135.441c-48.475,48.477-43.987,125.717,0,169.706a114.208,114.208,0,0,0,24.122,18.3l18.305-18.3c12.006-12.008,7.78-26.045,7.564-36.174a57.924,57.924,0,0,1-7.564-6.253c-22.573-22.571-23.588-61.265,0-84.853L349.572,77.575a60,60,0,0,1,84.853,84.853l-66.293,66.293c1.917,10.607,13.422,35.733,7.5,77.181.289-.284.635-.467.923-.754L476.853,204.854A120,120,0,0,0,476.853,35.148Z" fill="#20b6b0"/>
      </g>
    </g>
    <g id="Group_4" data-name="Group 4">
      <g id="Group_3" data-name="Group 3">
        <path id="Path_2" data-name="Path 2" d="M312.918,199.081a114.222,114.222,0,0,0-24.12-18.3l-18.3,18.3c-12.008,12.006-7.782,26.043-7.566,36.172a57.807,57.807,0,0,1,7.566,6.253c22.573,22.573,23.588,61.265,0,84.853L162.427,434.425a60,60,0,0,1-84.853-84.853l74.067-74.067c-1.917-10.607-13.423-35.733-7.5-77.181-.289.284-.637.469-.925.756L35.147,307.147A120,120,0,0,0,204.852,476.853L312.918,368.787C360.494,321.211,357.894,244.056,312.918,199.081Z" fill="#20b6b0"/>
      </g>
    </g>
  </g>
</svg>
