<?xml version="1.0" encoding="utf-8"?>
<!-- Generator: Adobe Illustrator 27.6.1, SVG Export Plug-In . SVG Version: 6.00 Build 0)  -->
<svg version="1.2" baseProfile="tiny" xmlns="http://www.w3.org/2000/svg" xmlns:xlink="http://www.w3.org/1999/xlink" x="0px"
	 y="0px" viewBox="0 0 133.96 40.6" overflow="visible" xml:space="preserve">
<g id="Layer_2" display="none">
	<rect x="-94.62" y="-320.99" display="inline" fill="#FFFFFF" width="323.19" height="458.54"/>
</g>
<g id="Layer_1">
	<g>
		<g>
			<g>
				<g>
					<path fill="#464646" d="M11.06,24.23H0V0.68h10.47c5.94,0,8.49,2.54,8.49,6.39c0,2.65-1.79,4.52-4.34,4.93
						c2.84,0.52,5.05,2.39,5.05,5.76C19.66,21.83,16.56,24.23,11.06,24.23z M4.56,10.47h5.61c2.8,0,4-1.23,4-2.99
						c0-1.76-1.2-3.03-4-3.03H4.56V10.47z M4.56,14.02v6.43h5.98c2.92,0,4.34-1.23,4.34-3.18c0-1.98-1.42-3.25-4.34-3.25H4.56z"/>
					<path fill="#464646" d="M36.42,20.23c0,0.86,0.45,1.27,1.16,1.27c0.45,0,0.9-0.11,1.38-0.34v2.39
						c-0.71,0.56-1.61,1.05-3.1,1.05c-1.87,0-3.29-1.2-3.63-3.18c-0.93,1.94-3.03,3.22-5.76,3.22c-3.14,0-5.23-1.68-5.23-4.52
						c0-3.14,2.47-4.45,6.28-5.16l4.52-0.86v-0.49c0-1.83-0.97-2.95-2.88-2.95c-1.87,0-2.88,1.12-3.25,2.73l-4.08-0.37
						c0.56-3.36,3.14-5.72,7.51-5.72c4.26,0,7.06,2.02,7.06,6.36V20.23z M32.04,16.53l-3.1,0.64c-2.06,0.41-3.33,0.93-3.33,2.47
						c0,1.16,0.82,2.02,2.28,2.02c2.36,0,4.15-1.76,4.15-4.56V16.53z"/>
					<path fill="#464646" d="M73.16,18.73c-0.82,3.74-3.74,5.94-7.96,5.94c-5.08,0-8.75-3.25-8.75-8.45c0-5.2,3.7-8.93,8.63-8.93
						c5.38,0,8.15,3.74,8.15,8.22v1.42H60.86c0.15,2.69,2.06,4.33,4.49,4.33c2.21,0,3.55-0.97,4.19-2.91L73.16,18.73z M68.86,14.58
						c-0.07-2.13-1.31-4-3.81-4c-2.47,0-3.85,1.79-4.11,4H68.86z"/>
					<path fill="#464646" d="M87.22,12.15c-0.86-0.49-1.61-0.71-2.69-0.71c-2.32,0-3.89,1.64-3.89,4.63v8.15h-4.49V7.74h4.49v3.14
						c0.6-1.87,2.32-3.59,4.6-3.59c1.01,0,1.83,0.26,2.32,0.67L87.22,12.15z"/>
					<path fill="#464646" d="M89.45,0.68h4.6v4.37h-4.6V0.68z M94.01,7.74v16.48h-4.49V7.74H94.01z"/>
					<path fill="#464646" d="M102.19,24.23H97.7V7.74h4.49v2.69c0.82-1.87,2.92-3.14,5.38-3.14c4.41,0,6.02,2.99,6.02,6.65v10.28
						h-4.48v-9.38c0-2.54-1.01-4-3.21-4c-2.28,0-3.7,1.79-3.7,4.56V24.23z"/>
					<path fill="#464646" d="M131.42,20.23c0,0.86,0.45,1.27,1.16,1.27c0.45,0,0.9-0.11,1.38-0.34v2.39
						c-0.71,0.56-1.61,1.05-3.1,1.05c-1.87,0-3.29-1.2-3.63-3.18c-0.93,1.94-3.03,3.22-5.76,3.22c-3.14,0-5.23-1.68-5.23-4.52
						c0-3.14,2.47-4.45,6.28-5.16l4.52-0.86v-0.49c0-1.83-0.97-2.95-2.88-2.95c-1.87,0-2.88,1.12-3.25,2.73l-4.07-0.37
						c0.56-3.36,3.14-5.72,7.51-5.72c4.26,0,7.06,2.02,7.06,6.36V20.23z M127.04,16.53l-3.1,0.64c-2.06,0.41-3.33,0.93-3.33,2.47
						c0,1.16,0.82,2.02,2.28,2.02c2.36,0,4.15-1.76,4.15-4.56V16.53z"/>
				</g>
				<g>
					<polygon fill="#464646" points="40.91,6.8 40.91,0 46.6,0 46.6,8.98 					"/>
					<polygon fill="#464646" points="40.91,8.93 44.81,10.42 40.91,11.91 					"/>
					<polygon fill="#464646" points="46.6,11.86 46.6,15.15 43.84,24.23 40.91,24.23 40.91,14.04 					"/>
				</g>
				<g>
					<polygon fill="#464646" points="54.27,6.8 54.27,0 48.58,0 48.58,8.98 					"/>
					<polygon fill="#464646" points="54.27,8.93 50.37,10.42 54.27,11.91 					"/>
					<polygon fill="#464646" points="48.58,11.86 48.58,15.15 51.34,24.23 54.27,24.23 54.27,14.04 					"/>
				</g>
			</g>
		</g>
	</g>
	<g>
		<g>
			<path fill="#53C3C2" d="M68.42,37.55c0-0.49-0.17-0.87-0.52-1.14c-0.35-0.27-0.97-0.54-1.88-0.81c-0.9-0.27-1.62-0.58-2.16-0.91
				c-1.02-0.64-1.53-1.48-1.53-2.51c0-0.9,0.37-1.65,1.11-2.24c0.74-0.59,1.7-0.88,2.87-0.88c0.78,0,1.48,0.14,2.09,0.43
				c0.61,0.29,1.09,0.7,1.44,1.23c0.35,0.53,0.52,1.12,0.52,1.77h-1.94c0-0.59-0.18-1.04-0.55-1.38c-0.37-0.33-0.89-0.5-1.58-0.5
				c-0.64,0-1.13,0.14-1.48,0.41c-0.35,0.27-0.53,0.65-0.53,1.14c0,0.41,0.19,0.75,0.57,1.03c0.38,0.28,1.01,0.54,1.88,0.8
				c0.87,0.26,1.58,0.56,2.11,0.89c0.53,0.33,0.92,0.71,1.16,1.14c0.25,0.43,0.37,0.93,0.37,1.51c0,0.94-0.36,1.68-1.08,2.23
				c-0.72,0.55-1.69,0.83-2.92,0.83c-0.81,0-1.56-0.15-2.24-0.45c-0.68-0.3-1.21-0.72-1.59-1.25c-0.38-0.53-0.57-1.15-0.57-1.85
				h1.95c0,0.64,0.21,1.13,0.63,1.48c0.42,0.35,1.03,0.52,1.81,0.52c0.68,0,1.19-0.14,1.53-0.41C68.25,38.37,68.42,38,68.42,37.55z"
				/>
			<path fill="#53C3C2" d="M79.08,37.86l1.33-5.76h1.83l-2.28,8.34h-1.54l-1.79-5.73l-1.76,5.73h-1.54l-2.28-8.34h1.83l1.35,5.7
				l1.71-5.7h1.41L79.08,37.86z"/>
			<path fill="#53C3C2" d="M88.31,40.44c-0.08-0.16-0.15-0.42-0.22-0.78c-0.6,0.62-1.33,0.93-2.19,0.93c-0.84,0-1.52-0.24-2.05-0.72
				c-0.53-0.48-0.79-1.07-0.79-1.77c0-0.89,0.33-1.57,0.99-2.05c0.66-0.48,1.61-0.71,2.83-0.71h1.15V34.8
				c0-0.43-0.12-0.78-0.36-1.04c-0.24-0.26-0.61-0.39-1.1-0.39c-0.43,0-0.78,0.11-1.05,0.32c-0.27,0.21-0.41,0.48-0.41,0.81h-1.87
				c0-0.46,0.15-0.89,0.45-1.28c0.3-0.4,0.72-0.71,1.24-0.94c0.52-0.23,1.1-0.34,1.75-0.34c0.98,0,1.76,0.25,2.34,0.74
				c0.58,0.49,0.88,1.18,0.89,2.07v3.76c0,0.75,0.11,1.35,0.32,1.8v0.13H88.31z M86.25,39.09c0.37,0,0.72-0.09,1.04-0.27
				c0.33-0.18,0.57-0.42,0.74-0.72v-1.57h-1.01c-0.69,0-1.22,0.12-1.57,0.36c-0.35,0.24-0.52,0.58-0.52,1.03
				c0,0.36,0.12,0.65,0.36,0.86C85.53,38.99,85.85,39.09,86.25,39.09z"/>
			<path fill="#53C3C2" d="M93.45,32.1l0.05,0.96c0.62-0.75,1.43-1.12,2.43-1.12c1.74,0,2.62,0.99,2.65,2.98v5.51h-1.87v-5.41
				c0-0.53-0.11-0.92-0.34-1.18c-0.23-0.25-0.6-0.38-1.12-0.38c-0.76,0-1.32,0.34-1.69,1.03v5.94h-1.87V32.1H93.45z"/>
		</g>
		<g>
			<path fill="#53C3C2" d="M104.36,38.89h5.1v1.56h-7.05V29.21h1.95V38.89z"/>
			<path fill="#53C3C2" d="M115.6,40.44c-0.08-0.16-0.15-0.42-0.22-0.78c-0.6,0.62-1.33,0.93-2.19,0.93c-0.84,0-1.52-0.24-2.05-0.72
				c-0.53-0.48-0.79-1.07-0.79-1.77c0-0.89,0.33-1.57,0.99-2.05c0.66-0.48,1.61-0.71,2.83-0.71h1.15V34.8
				c0-0.43-0.12-0.78-0.36-1.04c-0.24-0.26-0.61-0.39-1.1-0.39c-0.43,0-0.78,0.11-1.05,0.32c-0.27,0.21-0.41,0.48-0.41,0.81h-1.87
				c0-0.46,0.15-0.89,0.45-1.28c0.3-0.4,0.72-0.71,1.24-0.94c0.52-0.23,1.1-0.34,1.75-0.34c0.98,0,1.76,0.25,2.34,0.74
				c0.58,0.49,0.88,1.18,0.89,2.07v3.76c0,0.75,0.11,1.35,0.32,1.8v0.13H115.6z M113.54,39.09c0.37,0,0.72-0.09,1.04-0.27
				c0.33-0.18,0.57-0.42,0.74-0.72v-1.57h-1.01c-0.69,0-1.22,0.12-1.57,0.36c-0.35,0.24-0.52,0.58-0.52,1.03
				c0,0.36,0.12,0.65,0.36,0.86C112.82,38.99,113.14,39.09,113.54,39.09z"/>
			<path fill="#53C3C2" d="M121.71,36.87l-0.83,0.86v2.72h-1.87V28.6h1.87v6.83l0.59-0.73l2.31-2.6h2.25l-3.1,3.48l3.43,4.87h-2.17
				L121.71,36.87z"/>
			<path fill="#53C3C2" d="M130.61,40.6c-1.19,0-2.15-0.37-2.89-1.12c-0.74-0.75-1.11-1.74-1.11-2.99v-0.23
				c0-0.83,0.16-1.58,0.48-2.23c0.32-0.66,0.77-1.17,1.35-1.53s1.23-0.55,1.94-0.55c1.14,0,2.01,0.36,2.63,1.09
				c0.62,0.72,0.93,1.75,0.93,3.08v0.76h-5.45c0.06,0.69,0.29,1.23,0.69,1.63c0.4,0.4,0.91,0.6,1.52,0.6c0.86,0,1.56-0.35,2.1-1.04
				l1.01,0.96c-0.33,0.5-0.78,0.89-1.34,1.16C131.93,40.46,131.3,40.6,130.61,40.6z M130.39,33.45c-0.51,0-0.93,0.18-1.25,0.54
				c-0.32,0.36-0.52,0.86-0.61,1.5h3.57v-0.14c-0.04-0.63-0.21-1.1-0.5-1.42C131.31,33.61,130.91,33.45,130.39,33.45z"/>
		</g>
	</g>
</g>
</svg>
