<svg id="Layer_1" data-name="Layer 1" xmlns="http://www.w3.org/2000/svg" viewBox="0 0 277 53.33"><defs><style>.cls-1{fill:#fff;}</style></defs><path class="cls-1" d="M24,52.17H1.4V4H22.8C35,4,40.15,9.22,40.15,17.09c0,5.43-3.67,9.25-8.87,10.09C37.09,28.25,41.6,32.07,41.6,39c0,8.33-6.34,13.22-17.58,13.22M10.73,24.05H22.19c5.73,0,8.18-2.52,8.18-6.11s-2.45-6.19-8.18-6.19H10.73Zm0,7.26V44.45H23c6,0,8.87-2.52,8.87-6.49S28.91,31.31,23,31.31Z"/><path class="cls-1" d="M75.85,44c0,1.76.92,2.6,2.37,2.6A6.63,6.63,0,0,0,81,45.9v4.89a9.46,9.46,0,0,1-6.34,2.14c-3.82,0-6.72-2.44-7.41-6.49C65.38,50.41,61.1,53,55.52,53c-6.42,0-10.7-3.44-10.7-9.25,0-6.42,5-9.09,12.84-10.54l9.25-1.76v-1c0-3.75-2-6-5.88-6S55.14,26.72,54.38,30l-8.33-.77c1.14-6.87,6.42-11.69,15.36-11.69,8.71,0,14.44,4.13,14.44,13Zm-8.94-7.56-6.34,1.3c-4.21.84-6.8,1.91-6.8,5,0,2.37,1.68,4.13,4.66,4.13,4.81,0,8.48-3.59,8.48-9.33Z"/><path class="cls-1" d="M151,40.94c-1.68,7.64-7.64,12.15-16.28,12.15-10.39,0-17.88-6.65-17.88-17.27s7.57-18.27,17.65-18.27c11,0,16.66,7.64,16.66,16.81v2.91H125.83c.3,5.5,4.2,8.86,9.17,8.86,4.51,0,7.26-2,8.56-6Zm-8.79-8.49c-.15-4.35-2.67-8.17-7.79-8.17S126.52,28,126,32.45Z"/><path class="cls-1" d="M179.72,27.49a10.17,10.17,0,0,0-5.5-1.45c-4.74,0-7.95,3.36-7.95,9.47V52.17H157.1V18.47h9.17v6.42c1.22-3.82,4.74-7.34,9.4-7.34a7.47,7.47,0,0,1,4.74,1.38Z"/><path class="cls-1" d="M184.27,4h9.4V13h-9.4Zm9.32,48.14h-9.17V18.47h9.17Z"/><path class="cls-1" d="M210.31,52.17h-9.17V18.47h9.17V24c1.68-3.82,6-6.42,11-6.42,9,0,12.31,6.12,12.31,13.6v21h-9.17V33c0-5.2-2.07-8.18-6.58-8.18-4.66,0-7.56,3.67-7.56,9.32Z"/><path class="cls-1" d="M270.06,44c0,1.76.92,2.6,2.37,2.6a6.67,6.67,0,0,0,2.83-.69v4.89a9.51,9.51,0,0,1-6.35,2.14c-3.82,0-6.72-2.44-7.41-6.49-1.91,4-6.19,6.57-11.77,6.57C243.31,53,239,49.57,239,43.76c0-6.42,5-9.09,12.83-10.54l9.25-1.76v-1c0-3.75-2-6-5.88-6s-5.89,2.29-6.65,5.58l-8.33-.77c1.14-6.87,6.42-11.69,15.36-11.69,8.71,0,14.44,4.13,14.44,13Zm-8.94-7.56-6.34,1.3c-4.21.84-6.8,1.91-6.8,5,0,2.37,1.68,4.13,4.66,4.13,4.81,0,8.48-3.59,8.48-9.33Z"/><polygon class="cls-1" points="85.04 16.54 85.04 2.64 96.68 2.64 96.68 21 85.04 16.54"/><polygon class="cls-1" points="85.04 20.89 93 23.94 85.04 26.99 85.04 20.89"/><polygon class="cls-1" points="96.68 26.89 96.68 33.62 91.02 52.17 85.04 52.17 85.04 31.34 96.68 26.89"/><polygon class="cls-1" points="112.35 16.54 112.35 2.64 100.71 2.64 100.71 21 112.35 16.54"/><polygon class="cls-1" points="112.35 20.89 104.38 23.94 112.35 26.99 112.35 20.89"/><polygon class="cls-1" points="100.71 26.89 100.71 33.62 106.37 52.17 112.35 52.17 112.35 31.34 100.71 26.89"/></svg>