<?xml version="1.0" encoding="UTF-8"?>
<svg xmlns="http://www.w3.org/2000/svg" version="1.1" viewBox="0 0 32 32">
  <defs>
    <style>
      .cls-1 {
        fill: #53c3c2;
      }

      .cls-2 {
        fill: none;
        stroke: #53c3c2;
        stroke-linecap: round;
        stroke-linejoin: round;
      }
    </style>
  </defs>
  <!-- Generator: Adobe Illustrator 28.6.0, SVG Export Plug-In . SVG Version: 1.2.0 Build 709)  -->
  <g>
    <g id="Layer_3">
      <g>
        <path class="cls-1" d="M16,6.05c2.32,0,4.2,1.89,4.2,4.2,0,1.43-.87,2.37-.87,2.37-.93.95-1.63,2.59-1.63,3.8,0,.39-.42.72-.93.72h-1.54c-.5,0-.93-.33-.93-.72,0-1.22-.7-2.85-1.63-3.8,0,0-.88-.95-.88-2.38,0-2.32,1.89-4.2,4.2-4.2M16,5.05c-2.87,0-5.2,2.33-5.2,5.2,0,1.89,1.16,3.07,1.16,3.07.74.76,1.35,2.15,1.35,3.1s.87,1.72,1.93,1.72h1.54c1.06,0,1.93-.78,1.93-1.72s.61-2.34,1.35-3.1c0,0,1.16-1.19,1.16-3.07,0-2.87-2.33-5.2-5.2-5.2h0Z"/>
        <path class="cls-1" d="M16.87,19.71v.16c0,.38-.31.68-.68.68h-.38c-.38,0-.68-.31-.68-.68v-.16h1.75M17.87,18.71h-3.75v1.16c0,.93.75,1.68,1.68,1.68h.38c.93,0,1.68-.75,1.68-1.68v-1.16h0Z"/>
        <path class="cls-1" d="M17,1.39c0-.28-.22-.5-.5-.5s-.5.22-.5.5v2.31c0,.28.22.5.5.5s.5-.22.5-.5V1.39"/>
        <path class="cls-1" d="M23.45,5.31c.21-.18.23-.5.04-.71-.18-.21-.5-.23-.71-.04l-1.73,1.53c-.21.18-.23.5-.04.71.18.21.5.23.71.04l1.73-1.53"/>
        <path class="cls-1" d="M10.29,6.83c.21.18.52.16.71-.04s.16-.52-.04-.71l-1.73-1.53c-.21-.18-.52-.16-.71.04-.18.21-.16.52.04.71l1.73,1.53"/>
        <path class="cls-1" d="M9.48,11.54c.28,0,.5-.22.5-.5s-.22-.5-.5-.5h-2.34c-.28,0-.5.22-.5.5s.22.5.5.5h2.34"/>
        <path class="cls-1" d="M24.86,11.54c.28,0,.5-.22.5-.5s-.22-.5-.5-.5h-2.31c-.28,0-.5.22-.5.5s.22.5.5.5h2.31"/>
        <path class="cls-2" d="M15.74,17.46s.25-7.84-.75-8.18c-1.31-.44-1.05,2.11.31.96,1.17-.98,2.16-.7,2.16-.7"/>
      </g>
      <path class="cls-2" d="M13.3,15.7H3.2c-.76,0-1.38.62-1.38,1.38v12.18c0,.76.62,1.38,1.38,1.38h25.33c.77,0,1.4-.63,1.4-1.4v-12.13c0-.77-.63-1.4-1.4-1.4h-7.48"/>
      <line class="cls-2" x1="4.69" y1="18.54" x2="11.61" y2="18.54"/>
      <line class="cls-2" x1="4.69" y1="20.91" x2="11.61" y2="20.91"/>
      <line class="cls-2" x1="4.69" y1="23.29" x2="11.61" y2="23.29"/>
      <line class="cls-2" x1="4.69" y1="25.66" x2="11.61" y2="25.66"/>
      <line class="cls-2" x1="15.8" y1="23.72" x2="15.8" y2="30.63"/>
      <line class="cls-2" x1="4.69" y1="28.03" x2="11.61" y2="28.03"/>
      <line class="cls-2" x1="20.25" y1="18.54" x2="27.17" y2="18.54"/>
      <line class="cls-2" x1="20.25" y1="20.91" x2="27.17" y2="20.91"/>
      <line class="cls-2" x1="20.25" y1="23.29" x2="27.17" y2="23.29"/>
      <line class="cls-2" x1="20.25" y1="25.66" x2="27.17" y2="25.66"/>
      <line class="cls-2" x1="20.25" y1="28.03" x2="27.17" y2="28.03"/>
    </g>
  </g>
</svg>