<?xml version="1.0" encoding="utf-8"?>
<!-- Generator: Adobe Illustrator 16.0.0, SVG Export Plug-In . SVG Version: 6.00 Build 0)  -->
<!DOCTYPE svg PUBLIC "-//W3C//DTD SVG 1.1//EN" "http://www.w3.org/Graphics/SVG/1.1/DTD/svg11.dtd">
<svg version="1.1" id="Capa_1" xmlns="http://www.w3.org/2000/svg" xmlns:xlink="http://www.w3.org/1999/xlink" x="0px" y="0px"
	 width="511.656px" height="511.656px" viewBox="0 0 511.656 511.656" enable-background="new 0 0 511.656 511.656"
	 xml:space="preserve">
<g>
	<g>
		<path fill="#57595D" d="M469.583,428.41c-2.086-2.379-5.041-4.709-8.846-6.996c-0.574-0.373-2.143-1.279-4.701-2.699
			c-2.566-1.43-4.613-2.666-6.145-3.717c-1.52-1.047-3.518-2.854-5.994-5.424c-2.473-2.566-4.422-5.283-5.854-8.139
			c-1.426-2.852-2.807-6.704-4.141-11.561c-1.334-4.855-2.088-10.231-2.283-16.133c-2.666,2.276-4.137,6.797-4.424,13.559
			c-0.287,6.757,1.143,13.652,4.285,20.695c3.137,7.045,7.85,11.605,14.129,13.705c6.088,2.098,10.988,4.328,14.705,6.707
			c3.707,2.383,6.092,5.09,7.139,8.135c1.047,3.053-0.719,6.334-5.283,9.852c-4.572,3.525-11.898,6.996-21.984,10.434
			c-13.895,4.752-23.746,8.801-29.555,12.127c-5.803,3.334-14.316,9.664-25.549,18.986c-7.617,6.281-15.705,9.664-24.273,10.141
			c-8.559,0.479-15.512-2.662-20.838-9.418c-5.332-6.756-7.049-16.316-5.143-28.695c3.617-23.791,3.527-42.35-0.277-55.672
			c-3.047-10.469-3.717-19.701-1.998-27.695c1.711-7.986,4.373-12.646,7.994-13.982c3.605-1.338,7.516,1.521,11.703,8.56
			c0.373,0.95,1.234,2.807,2.562,5.567c1.33,2.758,2.424,4.717,3.287,5.853c0.857,1.144,2.141,2.618,3.855,4.429
			c1.711,1.812,3.863,3.094,6.426,3.859c2.568,0.76,5.562,1.234,8.994,1.424c6.471,0.188,12.271-1.143,17.416-3.997
			c5.137-2.854,8.996-6.043,11.562-9.563c2.566-3.525,5.141-6.899,7.707-10.138c2.566-3.241,4.805-5.048,6.711-5.431
			c2.092-0.373,3.996-2.469,5.711-6.28c1.713-3.805,2.854-9.086,3.426-15.841c0.576-6.76,0.096-14.801-1.424-24.123
			c-2.857-16.566-8.523-34.741-16.99-54.535c-8.473-19.797-17.938-35.309-28.408-46.54c-18.842-19.983-31.494-40.729-37.971-62.239
			c-6.656-22.648-9.508-43.015-8.561-61.098c0.955-12.944-1.854-26.982-8.418-42.115c-6.562-15.131-15.275-26.694-26.125-34.688
			c-6.852-5.137-15.324-9.086-25.406-11.848c-10.088-2.762-20.18-4.043-30.267-3.855c-12.369,0-22.27,1.997-29.69,5.996
			c-15.227,8.186-25.312,18.13-30.264,29.836c-4.952,11.704-7.232,26.122-6.854,43.253c0.765,37.687,2.284,67.189,4.57,88.505
			c-2.667,9.899-14.465,28.454-35.404,55.672c-3.809,3.809-7.521,8.947-11.138,15.418c-3.615,6.473-6.471,12.28-8.564,17.415
			c-2.096,5.137-4.902,12.559-8.423,22.268c-3.523,9.705-6.042,16.561-7.566,20.555c-1.332,3.432-3.427,7.422-6.28,11.998
			c-2.856,4.564-5.145,9.041-6.854,13.411c-1.709,4.377-2.663,9.325-2.853,14.846c-0.19,4.188,0,7.806,0.572,10.849
			c0.759,4.574,2.19,5.998,4.281,4.287c8.569-6.472,19.323-2.666,32.264,11.424c9.136,9.896,25.221,32.928,48.251,69.094
			c1.903,3.234,3.805,6.707,5.708,10.428c1.908,3.705,3.711,8.65,5.426,14.838c1.713,6.193,2.428,11.756,2.141,16.707
			c-0.288,4.951-2.474,9.521-6.567,13.701c-4.093,4.188-10.232,6.85-18.415,7.992c-4.38,0.57-9.657,0.195-15.846-1.143
			c-6.186-1.332-14.038-3.52-23.553-6.564c-9.517-3.043-16.558-5.141-21.127-6.283c-6.658-1.525-16.127-3.467-28.406-5.852
			c-12.278-2.383-20.322-4.141-24.128-5.285c-6.471-1.711-9.991-4.182-10.561-7.422c-0.572-2.666,0.76-7.23,3.997-13.699
			c3.239-6.471,4.854-11.139,4.854-13.988c0.188-2.1,0.094-4.186-0.288-6.283c-0.378-2.094-0.806-3.713-1.283-4.855
			c-0.476-1.141-1.285-2.854-2.428-5.141c-1.143-2.283-1.903-4-2.284-5.137c-3.424-7.998-3.901-13.43-1.427-16.279
			c1.711-2.475,5.804-3.426,12.275-2.852c9.707,0.951,17.605-0.479,23.697-4.287c10.085-6.279,13.134-16.367,9.135-30.266
			c0,6.471-1.143,11.32-3.427,14.561c-2.284,3.234-6.283,6.567-11.991,9.996c-3.234,1.903-8.947,3.043-17.129,3.43
			c-8.183,0.381-13.61,1.715-16.274,3.998c-1.902,1.713-2.9,4.283-2.996,7.709c-0.094,3.434,0.337,6.9,1.287,10.424
			c0.95,3.521,1.903,7.562,2.853,12.133c0.953,4.57,1.331,8.381,1.143,11.422c-0.19,2.092-1.908,7.283-5.142,15.555
			c-3.234,8.283-3.9,14.611-1.997,18.986c0.953,2.098,2.568,3.955,4.853,5.57c2.283,1.619,5.471,2.998,9.563,4.146
			c4.089,1.143,7.85,2.045,11.278,2.709c3.424,0.66,8.182,1.521,14.272,2.562c6.091,1.043,10.944,1.955,14.561,2.711
			c12.182,2.479,26.075,6.57,41.684,12.277c15.607,5.713,26.169,8.658,31.689,8.848c5.33,0.188,10.42-0.904,15.275-3.285
			c4.853-2.375,8.992-5.09,12.419-8.135c3.424-3.047,8.516-5.904,15.271-8.566c6.76-2.666,14.325-4.092,22.701-4.283
			c3.806-0.188,9.326-0.428,16.558-0.711c7.233-0.289,12.657-0.43,16.274-0.43c16.367,0,28.738,0.092,37.112,0.283
			c5.712,0.195,10.185,1.096,13.421,2.715c3.234,1.615,5.332,3.475,6.279,5.564c0.951,2.098,2.529,4.52,4.721,7.281
			c2.184,2.76,4.988,4.996,8.41,6.707c7.23,3.43,15.705,4.809,25.414,4.143c9.705-0.664,16.18-2.523,19.412-5.568
			c5.33-5.137,12.512-11.23,21.553-18.27c9.043-7.039,17.188-12.371,24.414-15.988c1.521-0.768,4.092-2.002,7.707-3.717
			c3.613-1.715,6.656-3.188,9.131-4.428c2.475-1.238,5.477-2.811,8.99-4.713c3.523-1.906,6.379-3.666,8.568-5.283
			c2.189-1.619,4.422-3.471,6.707-5.568c2.283-2.092,3.758-4.186,4.43-6.279c0.656-2.094,0.902-4.236,0.711-6.424
			C472.82,433.074,471.681,430.794,469.583,428.41z M316.558,152.468c0.568-0.378,0.953-0.522,1.141-0.428
			c0.191,0.096,0.572,0.478,1.141,1.143c0.574,0.666,1.092,1.287,1.574,1.858c0.473,0.566,1.137,1.331,1.992,2.281
			c0.854,0.953,1.758,1.713,2.707,2.284c1.148,0.76,2.523,1.287,4.143,1.571c1.619,0.284,2.857,0.76,3.717,1.425
			c0.861,0.665,1.48,1.759,1.854,3.284c0.375,2.096,0.057,3.995-0.99,5.708c-1.053,1.715-2.43,2.478-4.146,2.286
			c-3.426-0.762-7.139-3.758-11.133-8.993C314.564,159.653,313.894,155.514,316.558,152.468z M281.154,41.555
			c0.948-1.237,1.52-2.236,1.708-2.996c0.38-1.146,0.429-2.334,0.144-3.571c-0.283-1.237-0.19-2.474,0.285-3.711
			c0.479-1.237,1.574-1.951,3.287-2.141c1.713,0,3.998,1.429,6.853,4.283c0.567,0.382,1.472,0.953,2.702,1.713
			c1.24,0.762,2.096,1.427,2.57,1.997c0.477,0.568,0.713,1.049,0.713,1.427c-0.381,0.95-1.235,1.622-2.563,2
			c-1.327,0.378-2.763,0.572-4.281,0.572s-2.382,0.094-2.569,0.284c-1.522,0.572-2.949,1.427-4.285,2.568
			c-1.33,1.143-2.377,1.999-3.137,2.57c-0.768,0.57-1.526,0.57-2.287,0c-0.76-1.143-1.047-1.952-0.854-2.426
			S280.203,42.792,281.154,41.555z M142.972,255.256c1.328-1.521,2.283-2.758,2.853-3.711c0.571-0.953,1.093-2.238,1.57-3.854
			c0.476-1.62,0.904-2.811,1.285-3.571c0.383-0.765,0.955-1.049,1.715-0.859c0.378-0.094,0.662,0.094,0.859,0.571
			c0.188,0.476,0.284,0.715,0.284,0.715v0.857c0,0.288-0.049,0.666-0.144,1.143c-0.096,0.48-0.24,0.907-0.428,1.285
			c-0.193,0.383-0.382,0.955-0.571,1.714c-0.19,0.76-0.378,1.427-0.572,1.997c-0.76,1.908-1.952,3.617-3.567,5.141
			c-1.619,1.522-2.81,2.188-3.571,1.998C141.543,258.304,141.641,257.158,142.972,255.256z M329.683,431.41
			c-0.381,6.088-1.666,14.658-3.855,25.697c-2.191,11.035-3.572,18.365-4.146,21.98c-3.996-0.195-6.277-1.67-6.85-4.43
			c-0.568-2.762,0-6.326,1.713-10.707c4.188-12.758,6.369-21.512,6.564-26.266c0.387-8.758-0.568-13.705-2.848-14.846
			c-2.102-1.521-5.336,1.334-9.713,8.562c-8.381,13.705-25.221,21.979-50.534,24.842c-22.836,3.045-38.634-0.381-47.392-10.283
			c-1.903-1.332-3.806-1.568-5.708-0.709c-1.903,0.848-3.14,1.758-3.711,2.703c-0.188,0.383,0,0.951,0.572,1.715
			c0.571,0.764,1.475,1.902,2.712,3.426c1.237,1.529,2.236,3.045,2.996,4.574c7.426,12.939,6.761,21.693-1.997,26.262
			c0-8.75-0.666-15.461-1.997-20.121c-1.333-4.664-3.995-9.801-7.994-15.42c-3.995-5.613-6.755-9.85-8.276-12.703
			c5.708-0.568,10.039-2.76,12.99-6.566c2.95-3.807,4.281-7.898,3.997-12.275c-0.286-4.381-1.95-7.998-4.996-10.852
			c-1.713-1.711-10.566-8.994-26.553-21.842c-15.986-12.847-25.885-21.46-29.69-25.837c-0.765-0.763-3.046-2.666-6.854-5.712
			c-3.809-3.045-6.189-5.708-7.139-7.994c-8.757-19.215-9.707-35.021-2.856-47.387l1.141-1.428c0.95-0.188,1.046,1.522,0.284,5.142
			c-1.141,5.331-1.52,10.655-1.141,15.987c0.76,11.994,4.187,20.938,10.277,26.834c3.999,4.004,6.757,3.717,8.281-0.854
			c1.143-1.525,1.665-7.139,1.569-16.851c-0.091-9.702,0.05-16.269,0.431-19.698c1.524-10.848,6.045-24.27,13.562-40.251
			c7.517-15.99,13.468-24.556,17.845-25.697c-3.427-5.52-4.521-11.516-3.283-17.988c1.235-6.472,3.237-11.995,5.995-16.56
			c2.757-4.567,5.568-9.847,8.42-15.844c2.856-5.996,4.283-11.374,4.283-16.132c0-1.33,0.098-2.283,0.288-2.854
			c0.57-1.713,2.95,0.38,7.137,6.279c7.994,11.803,13.99,18.752,17.988,20.845c4.187,2.281,8.848,2.187,13.988-0.288
			c5.138-2.474,11.466-6.567,18.986-12.275c7.515-5.708,13.939-9.897,19.27-12.559c0.575-0.193,1.477-0.621,2.719-1.287
			c1.23-0.662,2.182-1.141,2.846-1.429c0.662-0.284,1.521-0.711,2.57-1.283c1.04-0.571,1.848-1.047,2.42-1.429
			c0.571-0.383,1.144-0.811,1.711-1.287c0.567-0.478,0.947-0.95,1.144-1.427c0.19-0.476,0.286-0.903,0.286-1.285
			c-0.383-1.714-1.189-2.762-2.43-3.14c-1.238-0.38-2.9-0.144-4.996,0.715c-2.094,0.857-4.428,2-6.994,3.426
			c-2.566,1.427-5.42,3.045-8.562,4.854c-3.139,1.809-6.328,3.472-9.562,4.997c-3.234,1.524-6.662,2.856-10.279,3.999
			c-3.616,1.14-7.042,1.809-10.277,1.999c-7.994,0.191-14.368-1.899-19.126-6.28c-3.045-2.858-4.661-4.665-4.854-5.426
			c-0.192-0.759,0.666-0.949,2.568-0.571c10.282,1.333,17.798,1.521,22.557,0.571c4.948-0.759,11.609-2.95,19.985-6.567
			c1.714-0.76,6.041-2.618,12.994-5.568c6.943-2.946,12.323-4.993,16.129-6.136c2.289-0.572,3.86-1.475,4.717-2.712
			c0.852-1.237,1.14-2.38,0.852-3.428c-0.283-1.045-0.902-1.853-1.852-2.424c-2.099-1.143-4-0.38-5.707,2.284
			c-0.955,1.713-2.957,3.381-6,4.997c-3.043,1.62-5.854,2.855-8.422,3.711c-2.57,0.855-5.853,1.855-9.852,2.996
			c-3.999,1.143-6.184,1.809-6.567,1.999c-10.467,3.234-20.174,4.663-29.121,4.281c-4.188-0.188-7.565-0.809-10.133-1.856
			c-2.57-1.044-4.333-2.281-5.282-3.711c-0.953-1.425-2.474-3.234-4.568-5.424c-2.096-2.19-4.476-4.045-7.139-5.57
			c-1.903-0.95-2.618-2.663-2.141-5.137c0.476-2.474,1.951-5.046,4.425-7.71c0.19-0.192,2.142-1.379,5.852-3.569
			c3.711-2.19,6.329-4.427,7.854-6.711c1.709-2.664,4.661-5.426,8.848-8.282c0.19-0.76,0.334-2.853,0.428-6.279
			c0.094-3.424-0.809-7.136-2.712-11.133c-1.903-3.999-4.475-5.995-7.71-5.995c-4.569-0.19-7.804,1.141-9.707,3.997
			c-1.903,2.852-2.757,6.375-2.568,10.562c0.193,3.615,1.097,6.801,2.712,9.563c1.619,2.762,3.095,4.143,4.427,4.143
			c2.092-0.193,2.758,0.566,1.997,2.281c-1.141,2.096-2.666,3.431-4.568,3.999c-1.336,0.378-2.812-0.905-4.427-3.855
			c-1.619-2.95-2.855-6.517-3.711-10.706c-0.855-4.187-1.191-7.708-0.998-10.566c0.378-5.9,1.947-11.563,4.709-16.988
			c2.762-5.424,6.711-8.042,11.848-7.854c5.33,0.193,9.616,3.431,12.85,9.71c3.239,6.28,4.76,14.849,4.57,25.697
			c0.572,1.333,2.046,1.809,4.427,1.427c2.375-0.382,5.518-0.431,9.419-0.144c3.899,0.284,6.706,1.282,8.42,2.996
			c0.193,0,0.288-1.43,0.288-4.283c-3.427-23.979,5.042-36.732,25.41-38.256c3.039,0.572,5.609,1.287,7.7,2.141
			c2.102,0.855,4.329,2.286,6.711,4.283c2.385,1.997,4.376,4.899,5.995,8.708c1.618,3.811,2.905,8.569,3.856,14.277v10.562
			c0,6.09-1.242,9.517-3.717,10.279c-3.994,1.331-6.845,1.285-8.556-0.144c-1.716-1.43-1.529-3.949,0.567-7.566
			c1.902-4.758,1.522-10.282-1.144-16.562c-2.662-6.279-7.519-9.135-14.558-8.563c-4.76,0.191-8.187,2.761-10.28,7.708
			c-2.095,4.949-2.853,9.803-2.282,14.562c0.571,4.758,1.615,7.232,3.143,7.421c1.14,0.193,4.522,1.714,10.137,4.57
			c5.622,2.855,9.855,4.567,12.706,5.138c7.423,1.52,11.651,3.9,12.702,7.137c1.048,3.239,0.619,7.948-1.282,14.133
			c-1.906,6.189-2.476,11.276-1.708,15.275c0.76,4.192,2.189,7.994,4.285,11.42c2.094,3.429,4.324,6.567,6.707,9.424
			c2.377,2.849,5.182,8.183,8.424,15.985c3.232,7.806,6.182,17.607,8.844,29.408c0.188,0.19,0.9,0.856,2.141,1.999
			c1.238,1.141,2.471,2.568,3.713,4.281c1.242,1.714,2.713,4.045,4.428,6.995c1.711,2.952,3.572,7.282,5.57,12.994
			c1.992,5.708,3.855,12.279,5.564,19.697c2.096,8.762,3.189,18.936,3.285,30.554c0.098,11.608,0.855,19.555,2.285,23.839
			c1.432,4.288,5.094,6.047,10.992,5.284c7.424-0.38,12.188-4.377,14.271-11.991c6.283-22.08,1.15-48.54-15.412-79.37
			c-6.283-11.992-11.705-19.892-16.277-23.697c6.66,3.806,13.516,10.941,20.562,21.413c7.043,10.47,11.512,20.275,13.414,29.405
			c0.186,0.955,0.713,3.478,1.566,7.565c0.855,4.094,1.334,6.476,1.424,7.14c0.094,0.667,0.48,2.618,1.141,5.853
			c0.67,3.236,1,5.332,1,6.283c0,0.954,0.092,2.809,0.287,5.567c0.193,2.758,0.143,4.899-0.145,6.423
			c-0.287,1.525-0.568,3.573-0.855,6.137c-0.287,2.569-0.76,5.045-1.428,7.426c-0.656,2.379-1.373,5-2.135,7.852
			c10.465,4.568,15.701,8.562,15.701,11.991c-3.994-3.237-9.709-5.376-17.135-6.413c-7.428-1.051-14.318-0.053-20.697,2.994
			c-6.379,3.046-9.664,8.087-9.857,15.125c-6.85,0-11.707,1.712-14.557,5.145c-4.188,4.945-6.373,11.652-6.564,20.127
			c-0.189,8.465,0.518,17.701,2.137,27.688C329.451,420.419,330.068,427.41,329.683,431.41z M210.062,100.506
			c-0.572-0.188-1.047-0.763-1.425-1.713c0-1.709,0.854-2.38,2.568-1.997c1.143,0.378,2.24,1.807,3.284,4.281
			c1.047,2.474,1.285,5.33,0.715,8.566c0,0.571-0.284,0.859-0.859,0.854c-2.096,0-2.856-1.902-2.284-5.708
			C212.63,101.934,211.964,100.506,210.062,100.506z M284.007,105.077l-0.567,0.855c-1.521,0.95-2.274,1.141-2.274,0.572
			c-0.768-5.142-2.479-8.092-5.142-8.854l-1.144-0.57c-1.334-1.143-0.67-1.809,1.992-1.999c0.57-0.191,1.426,0.093,2.569,0.855
			c1.144,0.763,2.19,1.953,3.142,3.571C283.533,101.127,284.007,102.98,284.007,105.077z"/>
		<path fill="#57595D" d="M217.484,121.631c0,1.143,0.479,1.619,1.431,1.43c0.76,0,1.565-0.905,2.424-2.713
			c0.857-1.804,2.334-2.803,4.425-2.996v-0.003h-2.856C219.293,117.92,217.484,119.347,217.484,121.631z"/>
		<path fill="#57595D" d="M242.326,118.208c1.903-0.572,3.571-0.14,4.998,1.287c1.425,1.425,2.522,2.046,3.284,1.853
			c1.138-0.568,1.425-1.427,0.854-2.568C249.94,116.305,246.896,116.115,242.326,118.208z"/>
	</g>
</g>
</svg>
