<?xml version="1.0" encoding="utf-8"?>
<!-- Generator: Adobe Illustrator 16.0.0, SVG Export Plug-In . SVG Version: 6.00 Build 0)  -->
<!DOCTYPE svg PUBLIC "-//W3C//DTD SVG 1.1//EN" "http://www.w3.org/Graphics/SVG/1.1/DTD/svg11.dtd">
<svg version="1.1" id="Capa_1" xmlns="http://www.w3.org/2000/svg" xmlns:xlink="http://www.w3.org/1999/xlink" x="0px" y="0px"
	 width="100px" height="100px" viewBox="0 0 100 100" enable-background="new 0 0 100 100" xml:space="preserve">
<g>
	<g>
		<path fill="#57595D" d="M77.293,53.13c-0.131-12.672,10.332-18.736,10.796-19.041c-5.876-8.586-15.02-9.767-18.288-9.897
			c-7.773-0.797-15.186,4.579-19.142,4.579c-3.941,0-10.042-4.47-16.498-4.354c-8.491,0.13-16.309,4.941-20.686,12.534
			c-8.817,15.303-2.26,37.965,6.333,50.391c4.203,6.072,9.216,12.891,15.788,12.65c6.333-0.253,8.724-4.1,16.382-4.1
			c7.658,0,9.81,4.1,16.504,3.977c6.818-0.13,11.129-6.194,15.295-12.28c4.826-7.05,6.811-13.882,6.934-14.223
			C90.553,73.279,77.431,68.258,77.293,53.13z"/>
		<path fill="#57595D" d="M64.701,15.969C68.186,11.745,70.548,5.861,69.902,0c-5.035,0.203-11.113,3.34-14.729,7.571
			c-3.239,3.746-6.058,9.723-5.304,15.469C55.478,23.482,61.216,20.186,64.701,15.969z"/>
	</g>
</g>
</svg>
