<?xml version="1.0" encoding="utf-8"?>
<!-- Generator: Adobe Illustrator 26.3.1, SVG Export Plug-In . SVG Version: 6.00 Build 0)  -->
<svg version="1.1" xmlns="http://www.w3.org/2000/svg" xmlns:xlink="http://www.w3.org/1999/xlink" x="0px" y="0px"
	 viewBox="0 0 50 50" style="enable-background:new 0 0 50 50;" xml:space="preserve">
<style type="text/css">
	.st0{display:none;}
	.st1{display:inline;}
	.st2{fill:#595959;stroke:#595959;stroke-miterlimit:10;}
	.st3{fill:#595959;stroke:#595959;stroke-width:0.5;stroke-miterlimit:10;}
	.st4{fill:#5A5A5A;stroke:#595959;stroke-width:0.5;stroke-miterlimit:10;}
</style>
<g id="Build" class="st0">
	<g class="st1">
		<g>
			<path class="st2" d="M21.1,44.3c-0.2,0-0.5,0-0.7-0.1l-3.9-1.4c-1-0.4-1.6-1.5-1.4-2.5l0.5-2.1c-1-0.7-2-1.6-2.9-2.6l-2,0.7
				c-1,0.3-2.2-0.2-2.6-1.1l-1.8-3.8c-0.4-1-0.1-2.1,0.8-2.7L9,27.5c-0.2-1.2-0.2-2.5-0.2-3.7l-1.9-0.9c-1-0.5-1.4-1.6-1-2.6
				l1.4-3.9c0.4-1,1.5-1.6,2.5-1.3l2.1,0.5c0.7-1,1.5-1.8,2.4-2.6l-0.7-2.1c-0.3-1,0.1-2.2,1.1-2.6l3.8-1.8c0.9-0.4,2.2-0.1,2.7,0.8
				l1.2,1.9C23.6,8.9,24.8,8.9,26,9L27,6.9c0.5-1,1.6-1.4,2.6-1.1l3.9,1.4c1,0.4,1.6,1.4,1.3,2.5l-0.6,2.3c1,0.7,1.9,1.6,2.7,2.5
				l2.3-0.8c1-0.3,2.2,0.2,2.6,1.1l1.8,3.8c0.5,1,0.1,2.1-0.8,2.7l-2.2,1.3c0.2,1.1,0.2,2.3,0.1,3.4l2.2,1.1c1,0.5,1.4,1.6,1.1,2.6
				l-1.4,3.9c-0.4,1-1.5,1.6-2.5,1.4l-2.4-0.6c-0.6,0.8-1.4,1.7-2.2,2.4l0.8,2.3c0.3,1-0.1,2.2-1.1,2.6l-3.8,1.8
				c-1,0.4-2.2,0.1-2.7-0.8l-1.2-2C26.4,41,25.2,41.1,24,41l-1,2.1C22.6,43.9,21.9,44.3,21.1,44.3z M13,34.7l0.2,0.2
				c0.9,1.1,2,2,3.1,2.8l0.2,0.1l-0.6,2.6c-0.2,0.7,0.2,1.4,0.9,1.6l3.9,1.4c0.7,0.3,1.4-0.1,1.7-0.7l1.3-2.5l0.2,0
				c1.3,0.1,2.6,0,3.8-0.2l0.3,0l1.5,2.4c0.4,0.6,1.1,0.8,1.8,0.5l3.8-1.8c0.6-0.3,0.9-1,0.7-1.7l-0.9-2.8l0.2-0.2
				c0.9-0.8,1.7-1.7,2.4-2.6l0.1-0.2l2.9,0.7c0.7,0.2,1.4-0.2,1.6-0.9l1.4-3.9c0.2-0.7-0.1-1.4-0.7-1.7l-2.7-1.3l0-0.3
				c0.1-1.2,0.1-2.4-0.1-3.7l0-0.2l2.6-1.6c0.6-0.4,0.8-1.1,0.5-1.8l-1.8-3.8c-0.3-0.6-1-0.9-1.7-0.7l-2.8,0.9l-0.2-0.2
				c-0.8-1-1.8-1.9-2.9-2.7l-0.2-0.1l0.7-2.8c0.2-0.7-0.2-1.4-0.9-1.6l-3.9-1.4c-0.7-0.3-1.4,0.1-1.7,0.7l-1.3,2.5l-0.3,0
				c-1.3-0.1-2.6-0.1-3.9,0.2l-0.2,0l-1.4-2.3C20.2,7,19.4,6.8,18.8,7L15,8.8c-0.6,0.3-0.9,1-0.7,1.7l0.9,2.6L15,13.3
				c-1,0.8-1.9,1.8-2.6,2.8l-0.1,0.2l-2.6-0.6C9,15.5,8.2,15.9,8,16.5l-1.4,3.9c-0.2,0.7,0,1.4,0.7,1.7l2.3,1.2l0,0.3
				c-0.1,1.3-0.1,2.7,0.2,4l0,0.3l-2.3,1.4C6.9,29.6,6.7,30.4,7,31l1.8,3.8c0.3,0.6,1,0.9,1.7,0.7L13,34.7z"/>
		</g>
	</g>
	<g class="st1">
		<path class="st2" d="M20.7,34.8c-1,0-1.7-0.8-1.7-2.1c0-1.7,0-3.4,0-5.1v-9.1c0-1.2,0.7-2.1,1.7-2.1c0.4,0,0.8,0.1,1.2,0.4
			L34.1,24c0.5,0.3,1.1,0.7,1.2,1.4c0.1,0.8-0.3,1.5-1.1,2c-1.6,0.9-3.2,1.9-4.9,2.8L22,34.5C21.6,34.7,21.1,34.8,20.7,34.8z
			 M20.7,17.3c-0.6,0-1,0.5-1,1.3v9.1c0,1.7,0,3.4,0,5.1c0,0.8,0.4,1.3,1,1.3c0.3,0,0.5-0.1,0.8-0.3l7.3-4.3
			c1.6-0.9,3.2-1.9,4.9-2.8c0.6-0.3,0.8-0.7,0.7-1.2c-0.1-0.4-0.3-0.6-0.8-0.9l-12.1-7.1C21.3,17.4,21,17.3,20.7,17.3z"/>
	</g>
</g>
<g id="Layer_2" class="st0">
	<g class="st1">
		<path class="st3" d="M14.7,48.7c0-2.2,0-4.4,0-6.6c0.5,0,0.9,0,1.4,0c0,1.7,0,3.4,0,5.2c6.5,0,12.9,0,19.4,0c0-1.5,0-3,0-4.5
			c-2,0-3.9,0-5.9,0c0-2.5,0-4.9,0-7.3c2,0,3.9,0,5.9,0c0-1,0-2,0-3.1c-0.3,0-0.7,0-1,0c-1.5,0-3,0-4.5,0c-0.3,0-0.4,0-0.4-0.3
			c0-2.3,0-4.5,0-6.8c0-0.1,0-0.1,0-0.2c4.4,0,8.8,0,13.2,0c0,2.4,0,4.8,0,7.3c-2,0-3.9,0-5.9,0c0,1,0,2,0,3.1c2,0,3.9,0,5.9,0
			c0,2.5,0,4.9,0,7.3c-1.9,0-3.9,0-5.9,0c0,2,0,4,0,6C29.6,48.7,22.1,48.7,14.7,48.7z M41.5,41.4c0-1.5,0-3,0-4.5c-3.5,0-7,0-10.5,0
			c0,1.5,0,3,0,4.5C34.5,41.4,38,41.4,41.5,41.4z M41.5,31c0-1.5,0-3,0-4.5c-3.5,0-7,0-10.4,0c0,1.5,0,3,0,4.5
			C34.5,31,38,31,41.5,31z"/>
		<path class="st3" d="M17.7,11.5c0-3.5,0-6.9,0-10.3c5.4,0,10.8,0,16.2,0c0,3.4,0,6.8,0,10.3c-2.5,0-4.9,0-7.4,0c0,0.7,0.1,1.4,0,2
			c-0.1,1.1,0.2,1.8,1,2.5c1,0.8,1.8,1.8,2.7,2.7c0.2,0.2,0.4,0.3,0.8,0.3c1.8,0,3.6,0,5.4,0c0.2,0,0.3,0,0.5,0c0,0.1,0,0.2,0,0.3
			c0,1.3,0,2.7,0,4.1c-0.5,0-0.9,0-1.4,0c0-1,0-1.9,0-3c-0.2,0-0.3,0-0.4,0c-1.4,0-2.8,0-4.2,0c-0.2,0-0.5,0.1-0.6,0.3
			c-1.5,1.5-3,2.9-4.5,4.5c-0.1-0.1-0.3-0.2-0.4-0.3c-1.4-1.4-2.7-2.7-4.1-4.1c-0.2-0.2-0.5-0.3-0.7-0.3c-1.3,0-2.7,0-4,0
			c-0.2,0-0.3,0-0.5,0c0,2.3,0,4.5,0,6.8c2.2,0.3,3.9,1.4,5,3.3c0.9,1.4,1.1,3,0.8,4.7c-0.6,3.1-3.5,5.4-6.6,5.3
			c-3.4-0.1-6.1-2.5-6.4-5.8c-0.4-3.4,1.5-6.8,5.8-7.5c0-2.7,0-5.4,0-8.2c0.2,0,0.4,0,0.6,0c1.8,0,3.6,0,5.4,0
			c0.2,0,0.5-0.1,0.7-0.3c1.2-1.1,2.3-2.3,3.5-3.5c0.2-0.2,0.3-0.4,0.3-0.6c0-1,0-2,0-3.1C22.6,11.5,20.2,11.5,17.7,11.5z M32.6,2.6
			c-4.5,0-9,0-13.4,0c0,2.5,0,5,0,7.5c4.5,0,9,0,13.4,0C32.6,7.6,32.6,5.2,32.6,2.6z M15.4,28.7c-2.9,0-5.2,2.3-5.2,5.2
			c0,2.9,2.3,5.3,5.2,5.3c3,0,5.3-2.3,5.3-5.3C20.6,30.9,18.4,28.7,15.4,28.7z M29.2,19.8c-1.1-1.1-2.3-2.3-3.3-3.3
			c-1.1,1.1-2.3,2.2-3.3,3.3c1.1,1.1,2.2,2.2,3.3,3.3C27,22,28.1,20.9,29.2,19.8z"/>
		<path class="st3" d="M6.1,23.9c0.3-0.3,0.6-0.6,1-0.9c0.5,0.5,1.1,1.1,1.7,1.8c0-6.4,0-12.7,0-19.1c2.5,0,4.9,0,7.4,0
			c0,0.4,0,0.9,0,1.3c-2,0-3.9,0-5.9,0c0,5.9,0,11.7,0,17.7c0.6-0.6,1.2-1.2,1.7-1.8c0.4,0.4,0.7,0.7,1,1c-1.2,1.2-2.3,2.3-3.4,3.4
			C8.4,26.2,7.2,25.1,6.1,23.9z"/>
		<path class="st3" d="M22.2,5.7c0.5,0,0.9,0,1.4,0c0,0.5,0,0.9,0,1.3c-0.5,0-0.9,0-1.4,0C22.2,6.6,22.2,6.2,22.2,5.7z"/>
		<path class="st3" d="M26.6,7.1c-0.5,0-0.9,0-1.4,0c0-0.4,0-0.9,0-1.3c0.5,0,0.9,0,1.4,0C26.6,6.1,26.6,6.6,26.6,7.1z"/>
		<path class="st3" d="M29.5,7.1c-0.5,0-0.9,0-1.4,0c0-0.4,0-0.9,0-1.3c0.5,0,0.9,0,1.4,0C29.5,6.2,29.5,6.6,29.5,7.1z"/>
	</g>
</g>
<g id="Layer_3">
	<path class="st4" d="M3,23.8c-0.2-0.1-0.3-0.2-0.3-0.2c0,0,0.1-0.1,0.3-0.2L17,16.2c0.4-0.2,0.5-0.7,0.3-1c-0.2-0.4-0.7-0.5-1-0.3
		L2.3,22.1c-0.7,0.4-1.1,0.9-1.1,1.5c0,0.6,0.4,1.2,1,1.5l14.1,7.9c0.1,0.1,0.2,0.1,0.4,0.1c0.3,0,0.5-0.1,0.7-0.4
		c0.2-0.4,0.1-0.8-0.3-1L3,23.8z"/>
	<path class="st4" d="M47.7,22.8l-14-7.2c-0.4-0.2-0.8,0-1,0.3c-0.2,0.4,0,0.8,0.3,1L47,24.1c0.2,0.1,0.2,0.2,0.3,0.2
		c0,0-0.1,0.1-0.3,0.2l-14.1,8c-0.4,0.2-0.5,0.7-0.3,1c0.1,0.2,0.4,0.4,0.7,0.4c0.1,0,0.3,0,0.4-0.1l14.1-7.9c0.7-0.4,1-0.9,1-1.6
		C48.8,23.7,48.4,23.1,47.7,22.8z"/>
	<path class="st4" d="M27.7,9.1c-0.4-0.1-0.8,0.2-0.9,0.6L20.7,38c-0.1,0.4,0.2,0.8,0.6,0.9c0.1,0,0.1,0,0.2,0
		c0.4,0,0.7-0.2,0.7-0.6L28.3,10C28.4,9.6,28.2,9.2,27.7,9.1z"/>
</g>
</svg>
