<svg id="Layer_1" data-name="Layer 1" xmlns="http://www.w3.org/2000/svg" viewBox="0 0 1200 800"><defs><style>.cls-1,.cls-2{font-size:224.52px;font-family:Montserrat-Bold, Montserrat;font-weight:700;}.cls-1,.cls-2,.cls-4{fill:#464646;}.cls-1{letter-spacing:-0.03em;}.cls-2{letter-spacing:-0.02em;}.cls-3{letter-spacing:-0.03em;}.cls-5{fill:#be1e2d;stroke:#be1e2d;stroke-miterlimit:10;stroke-width:8px;}</style></defs><text class="cls-1" transform="translate(122.29 471.36)">Ba</text><text class="cls-2" transform="translate(537.95 473.15)">e<tspan class="cls-3" x="136.06" y="0">r</tspan><tspan x="226.31" y="0">ina</tspan></text><polygon class="cls-4" points="433.25 346.68 433.25 298.04 473.98 298.04 473.98 362.26 433.25 346.68"/><polygon class="cls-4" points="433.25 361.91 461.12 372.57 433.25 383.23 433.25 361.91"/><polygon class="cls-4" points="473.98 382.89 473.98 406.44 454.17 471.35 433.25 471.35 433.25 398.46 473.98 382.89"/><polygon class="cls-4" points="528.82 346.68 528.82 298.04 488.09 298.04 488.09 362.26 528.82 346.68"/><polygon class="cls-4" points="528.82 361.91 500.94 372.57 528.82 383.23 528.82 361.91"/><polygon class="cls-4" points="488.09 382.89 488.09 406.44 507.89 471.35 528.82 471.35 528.82 398.46 488.09 382.89"/><line class="cls-5" x1="1094.65" y1="92.85" x2="136.32" y2="720.54"/><line class="cls-5" x1="136.32" y1="92.85" x2="1094.65" y2="720.54"/></svg>