<svg id="Layer_1" data-name="Layer 1" xmlns="http://www.w3.org/2000/svg" viewBox="0 0 2594.46 855.82"><defs><style>.cls-1{fill:#464646;}.cls-2{fill:#be1e2d;stroke:#be1e2d;stroke-miterlimit:10;stroke-width:8px;}</style></defs><path class="cls-1" d="M199.29,534.24H120.13V311.46H195c42.52,0,60.7,24.05,60.7,60.47,0,25.11-12.83,42.79-31,46.67,20.33,5,36.1,22.64,36.1,54.46,0,38.55-22.19,61.18-61.5,61.18M152.76,404.11h40.11c20.06,0,28.61-11.67,28.61-28.28s-8.55-28.65-28.61-28.65H152.76Zm0,33.6v60.81h42.79c20.85,0,31-11.66,31-30,0-18.75-10.17-30.76-31-30.76Z"/><path class="cls-1" d="M380.65,496.4c0,8.14,3.21,12,8.29,12a18.85,18.85,0,0,0,9.89-3.18v22.64c-5.07,5.29-11.49,9.89-22.19,9.89-13.37,0-23.53-11.31-25.94-30-6.68,18.38-21.66,30.4-41.18,30.4-22.47,0-37.44-15.9-37.44-42.78,0-29.71,17.65-42.08,44.92-48.8l32.36-8.13v-4.6c0-17.32-6.95-27.93-20.59-27.93-13.37,0-20.59,10.61-23.26,25.81l-29.15-3.54c4-31.82,22.46-54.09,53.75-54.09,30.48,0,50.54,19.08,50.54,60.1Zm-31.29-35-22.19,6c-14.71,3.88-23.8,8.83-23.8,23.33,0,11,5.88,19.1,16.31,19.1,16.84,0,29.68-16.61,29.68-43.14Z"/><path class="cls-1" d="M643.52,482.26c-5.88,35.35-26.74,56.22-57,56.22-36.37,0-62.57-30.76-62.57-79.91s26.47-84.51,61.77-84.51c38.51,0,58.3,35.35,58.3,77.79v13.43H555.54c1.07,25.46,14.71,41,32.09,41,15.78,0,25.41-9.19,30-27.58ZM612.77,443c-.54-20.15-9.36-37.83-27.28-37.83-17.64,0-27.54,17-29.41,37.83Z"/><path class="cls-1" d="M744.13,420c-6.15-4.6-11.5-6.72-19.25-6.72-16.59,0-27.81,15.56-27.81,43.85v77.09H665V378.29h32.09V408c4.27-17.68,16.57-33.94,32.89-33.94,7.22,0,13.1,2.47,16.58,6.36Z"/><path class="cls-1" d="M760,311.46h32.9v41.38H760Zm32.63,222.78H760.58V378.29h32.09Z"/><path class="cls-1" d="M851.19,534.24H819.1V378.29h32.09v25.47c5.88-17.68,20.85-29.7,38.5-29.7,31.55,0,43,28.28,43,62.93v97.25H900.65V445.48c0-24.05-7.22-37.83-23-37.83-16.32,0-26.47,17-26.47,43.13Z"/><path class="cls-1" d="M1060.28,496.4c0,8.14,3.21,12,8.29,12a18.85,18.85,0,0,0,9.89-3.18v22.64c-5.08,5.29-11.5,9.89-22.19,9.89-13.37,0-23.54-11.31-25.94-30-6.69,18.38-21.67,30.4-41.18,30.4-22.47,0-37.44-15.9-37.44-42.78,0-29.71,17.64-42.08,44.92-48.8l32.36-8.13v-4.6c0-17.32-7-27.93-20.59-27.93-13.38,0-20.59,10.61-23.26,25.81L956,428.15c4-31.82,22.46-54.09,53.74-54.09,30.49,0,50.55,19.08,50.55,60.1Zm-31.29-35-22.19,6c-14.71,3.88-23.8,8.83-23.8,23.33,0,11,5.88,19.1,16.3,19.1,16.85,0,29.69-16.61,29.69-43.14Z"/><polygon class="cls-1" points="412.81 369.38 412.81 305.06 453.54 305.06 453.54 389.99 412.81 369.38"/><polygon class="cls-1" points="412.81 389.52 440.68 403.62 412.81 417.71 412.81 389.52"/><polygon class="cls-1" points="453.54 417.26 453.54 448.41 433.73 534.24 412.81 534.24 412.81 437.86 453.54 417.26"/><polygon class="cls-1" points="508.38 369.38 508.38 305.06 467.65 305.06 467.65 389.99 508.38 369.38"/><polygon class="cls-1" points="508.38 389.52 480.5 403.62 508.38 417.71 508.38 389.52"/><polygon class="cls-1" points="467.65 417.26 467.65 448.41 487.45 534.24 508.38 534.24 508.38 437.86 467.65 417.26"/><line class="cls-2" x1="1078.46" y1="117.79" x2="120.13" y2="745.48"/><line class="cls-2" x1="120.13" y1="117.79" x2="1078.46" y2="745.48"/><path class="cls-1" d="M1460.73,524.94h-87.8V359.66h83c47.16,0,67.33,17.84,67.33,44.86,0,18.63-14.23,31.75-34.4,34.63,22.54,3.67,40,16.79,40,40.4,0,28.6-24.62,45.39-68.22,45.39m-51.61-96.55h44.49c22.25,0,31.73-8.65,31.73-21s-9.48-21.25-31.73-21.25h-44.49Zm0,24.93v45.12h47.46c23.13,0,34.4-8.65,34.4-22.3,0-13.9-11.27-22.82-34.4-22.82Z"/><path class="cls-1" d="M1661.89,496.87c0,6,3.56,8.92,9.2,8.92a28.54,28.54,0,0,0,11-2.37v16.8c-5.63,3.93-12.75,7.34-24.62,7.34-14.82,0-26.1-8.39-28.77-22.3-7.41,13.64-24,22.56-45.68,22.56-24.91,0-41.52-11.8-41.52-31.74,0-22,19.58-31.22,49.83-36.2l35.89-6v-3.41c0-12.85-7.71-20.72-22.84-20.72-14.83,0-22.84,7.87-25.8,19.15l-32.34-2.63c4.45-23.61,24.92-40.13,59.62-40.13,33.82,0,56.06,14.16,56.06,44.59Zm-34.7-26-24.62,4.46c-16.31,2.88-26.4,6.55-26.4,17.31,0,8.14,6.53,14.17,18.1,14.17,18.68,0,32.92-12.33,32.92-32Z"/><path class="cls-1" d="M1953.47,486.38c-6.52,26.22-29.66,41.7-63.18,41.7-40.34,0-69.41-22.82-69.41-59.28s29.37-62.7,68.52-62.7c42.71,0,64.67,26.23,64.67,57.71v10h-98.18c1.18,18.89,16.31,30.43,35.58,30.43,17.51,0,28.19-6.82,33.23-20.46Zm-34.11-29.13c-.59-14.95-10.38-28.07-30.25-28.07-19.58,0-30.55,12.59-32.63,28.07Z"/><path class="cls-1" d="M2065.06,440.2a43.63,43.63,0,0,0-21.35-5c-18.39,0-30.85,11.54-30.85,32.52v57.2h-35.59V409.24h35.59v22a39,39,0,0,1,36.49-25.18c8,0,14.53,1.83,18.38,4.72Z"/><path class="cls-1" d="M2082.72,359.66h36.49v30.7h-36.49Zm36.18,165.28h-35.59V409.24h35.59Z"/><path class="cls-1" d="M2183.81,524.94h-35.59V409.24h35.59v18.89c6.52-13.11,23.13-22,42.71-22,35,0,47.75,21,47.75,46.69v72.15h-35.59V459.09c0-17.84-8-28.07-25.51-28.07-18.09,0-29.36,12.59-29.36,32Z"/><path class="cls-1" d="M2415.74,496.87c0,6,3.56,8.92,9.19,8.92a28.63,28.63,0,0,0,11-2.37v16.8c-5.64,3.93-12.76,7.34-24.62,7.34-14.83,0-26.11-8.39-28.77-22.3-7.42,13.64-24,22.56-45.68,22.56-24.92,0-41.53-11.8-41.53-31.74,0-22,19.57-31.22,49.83-36.2l35.89-6v-3.41c0-12.85-7.71-20.72-22.84-20.72-14.84,0-22.84,7.87-25.8,19.15l-32.34-2.63c4.45-23.61,24.92-40.13,59.62-40.13,33.81,0,56.07,14.16,56.07,44.59Zm-34.71-26-24.62,4.46c-16.31,2.88-26.39,6.55-26.39,17.31,0,8.14,6.52,14.17,18.08,14.17,18.69,0,32.93-12.33,32.93-32Z"/><polygon class="cls-1" points="1697.56 402.63 1697.56 354.91 1742.74 354.91 1742.74 417.92 1697.56 402.63"/><polygon class="cls-1" points="1697.56 417.57 1728.48 428.03 1697.56 438.49 1697.56 417.57"/><polygon class="cls-1" points="1742.74 438.15 1742.74 461.26 1720.77 524.94 1697.56 524.94 1697.56 453.44 1742.74 438.15"/><polygon class="cls-1" points="1803.57 402.63 1803.57 354.91 1758.39 354.91 1758.39 417.92 1803.57 402.63"/><polygon class="cls-1" points="1803.57 417.57 1772.65 428.03 1803.57 438.49 1803.57 417.57"/><polygon class="cls-1" points="1758.39 438.15 1758.39 461.26 1780.35 524.94 1803.57 524.94 1803.57 453.44 1758.39 438.15"/><line class="cls-2" x1="2383.58" y1="117.79" x2="1425.25" y2="745.48"/><line class="cls-2" x1="1425.25" y1="117.79" x2="2383.58" y2="745.48"/></svg>