<svg id="Layer_1" data-name="Layer 1" xmlns="http://www.w3.org/2000/svg" viewBox="0 0 2594.46 855.82"><defs><style>.cls-1{fill:#464646;}.cls-2{fill:#be1e2d;stroke:#be1e2d;stroke-miterlimit:10;stroke-width:8px;}</style></defs><path class="cls-1" d="M426.54,745.9v52.85H314v-50c0-28.4,12.15-40.54,30.54-40.54,12.68,0,21.6,8.57,23.57,20.71,2.5-13.57,11.43-24.1,27.5-24.1,19.46,0,30.89,14.82,30.89,41.07M360.83,777V750.18c0-13.39-5.89-19.1-14.28-19.1s-14.47,5.71-14.47,19.1V777Zm17,0H408.5V748.4c0-13.93-5.89-20.72-15.17-20.72-9.47,0-15.54,6.79-15.54,20.72Z"/><path class="cls-1" d="M407.43,624.8c4.11,0,6.07-2.15,6.07-5.54a15.4,15.4,0,0,0-1.61-6.6h11.44a22.2,22.2,0,0,1,5,14.82c0,8.92-5.71,15.71-15.17,17.32,9.28,4.46,15.35,14.46,15.35,27.49,0,15-8,25-21.6,25-15,0-21.25-11.78-24.65-30l-4.1-21.61h-2.32c-8.75,0-14.11,4.64-14.11,13.75,0,8.93,5.36,13.75,13,15.53L373,694.44c-16.07-2.68-27.32-15-27.32-35.89,0-20.36,9.64-33.75,30.35-33.75Zm-17.68,20.89,3,14.82c2,9.82,4.46,15.89,11.79,15.89,5.53,0,9.64-3.93,9.64-10.89,0-11.25-8.39-19.82-21.79-19.82Z"/><path class="cls-1" d="M400.29,449.27c17.85,3.93,28.39,17.85,28.39,38,0,24.29-15.53,41.79-40.35,41.79s-42.68-17.68-42.68-41.25c0-25.72,17.86-38.93,39.28-38.93h6.79V508c12.85-.71,20.71-9.82,20.71-21.42,0-10.54-4.64-17-13.93-20ZM380.47,469.8c-10.18.36-19.11,6.25-19.11,18.21,0,11.79,8.57,18.4,19.11,19.65Z"/><path class="cls-1" d="M368.86,382.09a23.85,23.85,0,0,0-3.39,12.85c0,11.08,7.86,18.57,22.14,18.57h38.93v21.43H347.79V413.51h15c-8.93-2.85-17.14-11.07-17.14-22,0-4.82,1.25-8.75,3.22-11.07Z"/><path class="cls-1" d="M314,371.46v-22h20.9v22Zm112.5-21.78V371.1H347.79V349.68Z"/><path class="cls-1" d="M426.54,310.6V332H347.79V310.6h12.86c-8.93-3.92-15-13.92-15-25.71,0-21.07,14.28-28.74,31.78-28.74h49.11v21.42H381.72c-12.14,0-19.11,4.82-19.11,15.36,0,10.89,8.57,17.67,21.79,17.67Z"/><path class="cls-1" d="M407.43,171c4.11,0,6.07-2.14,6.07-5.53a15.45,15.45,0,0,0-1.61-6.61h11.44a22.22,22.22,0,0,1,5,14.82c0,8.93-5.71,15.72-15.17,17.32,9.28,4.47,15.35,14.47,15.35,27.5,0,15-8,25-21.6,25-15,0-21.25-11.78-24.65-30l-4.1-21.6h-2.32c-8.75,0-14.11,4.64-14.11,13.75,0,8.93,5.36,13.75,13,15.53L373,240.62c-16.07-2.67-27.32-15-27.32-35.89,0-20.35,9.64-33.75,30.35-33.75Zm-17.68,20.9,3,14.82c2,9.82,4.46,15.89,11.79,15.89,5.53,0,9.64-3.93,9.64-10.89,0-11.25-8.39-19.82-21.79-19.82Z"/><polygon class="cls-1" points="343.29 603.32 310.81 603.32 310.81 576.13 353.7 576.13 343.29 603.32"/><polygon class="cls-1" points="353.46 603.32 360.58 584.71 367.7 603.32 353.46 603.32"/><polygon class="cls-1" points="367.47 576.13 383.2 576.13 426.54 589.35 426.54 603.32 377.87 603.32 367.47 576.13"/><polygon class="cls-1" points="343.29 539.51 310.81 539.51 310.81 566.7 353.7 566.7 343.29 539.51"/><polygon class="cls-1" points="353.46 539.51 360.58 558.12 367.7 539.51 353.46 539.51"/><polygon class="cls-1" points="367.47 566.7 383.2 566.7 426.54 553.48 426.54 539.51 377.87 539.51 367.47 566.7"/><path class="cls-1" d="M828.46,211.7V158.84H716v50c0,28.39,12.15,40.53,30.54,40.53,12.68,0,21.61-8.57,23.57-20.71,2.5,13.57,11.43,24.11,27.5,24.11,19.46,0,30.89-14.83,30.89-41.07m-65.71-31.07v26.78c0,13.39-5.89,19.1-14.28,19.1S734,220.8,734,207.41V180.63Zm17,0h30.72V209.2c0,13.92-5.89,20.71-15.18,20.71-9.47,0-15.54-6.79-15.54-20.71Z"/><path class="cls-1" d="M809.35,332.8c4.11,0,6.07,2.14,6.07,5.53a15.61,15.61,0,0,1-1.6,6.61h11.43a22.23,22.23,0,0,0,5-14.82c0-8.93-5.72-15.71-15.18-17.32,9.28-4.46,15.35-14.46,15.35-27.5,0-15-8-25-21.6-25-15,0-21.25,11.79-24.64,30l-4.11,21.6h-2.32c-8.75,0-14.1-4.64-14.1-13.74,0-8.93,5.35-13.75,13-15.54l-1.79-19.46c-16.07,2.68-27.32,15-27.32,35.89,0,20.36,9.64,33.75,30.36,33.75Zm-17.67-20.9,3-14.81c1.95-9.83,4.46-15.9,11.78-15.9,5.54,0,9.64,3.93,9.64,10.9,0,11.24-8.39,19.81-21.78,19.81Z"/><path class="cls-1" d="M802.21,508.33c17.86-3.93,28.39-17.86,28.39-38,0-24.28-15.53-41.78-40.35-41.78s-42.68,17.68-42.68,41.24c0,25.72,17.86,38.94,39.28,38.94h6.79V449.58c12.86.71,20.71,9.82,20.71,21.43,0,10.53-4.64,17-13.92,20Zm-19.82-20.54c-10.18-.35-19.11-6.25-19.11-18.21,0-11.78,8.58-18.39,19.11-19.64Z"/><path class="cls-1" d="M770.78,575.51a23.89,23.89,0,0,1-3.39-12.86c0-11.07,7.86-18.57,22.14-18.57h38.93V522.66H749.71v21.42h15c-8.94,2.86-17.15,11.07-17.15,22,0,4.82,1.25,8.75,3.22,11.07Z"/><path class="cls-1" d="M716,586.13v22h20.9v-22Zm112.5,21.79V586.49H749.71v21.43Z"/><path class="cls-1" d="M828.46,647V625.57H749.71V647h12.86c-8.93,3.93-15,13.93-15,25.71,0,21.07,14.29,28.75,31.78,28.75h49.11V680H783.64c-12.14,0-19.1-4.82-19.1-15.35,0-10.9,8.57-17.68,21.78-17.68Z"/><path class="cls-1" d="M809.35,786.61c4.11,0,6.07,2.14,6.07,5.54a15.57,15.57,0,0,1-1.6,6.6h11.43a22.23,22.23,0,0,0,5-14.82c0-8.93-5.72-15.72-15.18-17.32,9.28-4.46,15.35-14.47,15.35-27.5,0-15-8-25-21.6-25-15,0-21.25,11.79-24.64,30l-4.11,21.61h-2.32c-8.75,0-14.1-4.64-14.1-13.75,0-8.93,5.35-13.75,13-15.53L774.89,717c-16.07,2.68-27.32,15-27.32,35.89,0,20.36,9.64,33.75,30.36,33.75Zm-17.67-20.89,3-14.82c1.95-9.82,4.46-15.89,11.78-15.89,5.54,0,9.64,3.93,9.64,10.89,0,11.25-8.39,19.82-21.78,19.82Z"/><polygon class="cls-1" points="745.21 354.27 712.73 354.27 712.73 381.47 755.62 381.47 745.21 354.27"/><polygon class="cls-1" points="755.38 354.27 762.5 372.88 769.62 354.27 755.38 354.27"/><polygon class="cls-1" points="769.39 381.47 785.12 381.47 828.46 368.24 828.46 354.27 779.79 354.27 769.39 381.47"/><polygon class="cls-1" points="745.21 418.09 712.73 418.09 712.73 390.89 755.62 390.89 745.21 418.09"/><polygon class="cls-1" points="755.38 418.09 762.5 399.47 769.62 418.09 755.38 418.09"/><polygon class="cls-1" points="769.39 390.89 785.12 390.89 828.46 404.11 828.46 418.09 779.79 418.09 769.39 390.89"/><path class="cls-1" d="M1432.73,629.58l-43.83,29.54L1326,565.84l41.46-28c23.55-15.87,40.4-12.58,50.68,2.67,7.09,10.51,5,22.71-4,31.12,12.65-5.51,26.38-4,35.36,9.33,10.88,16.14,5,33.9-16.79,48.57m-62.49-37.12,22.21-15c11.1-7.49,12.55-15.57,7.86-22.52s-12.82-8.81-23.93-1.32l-22.21,15Zm9.48,14.06L1396.89,632l23.69-16c11.54-7.78,13.88-16.46,8.69-24.16-5.29-7.85-14.31-9.09-25.86-1.3Z"/><path class="cls-1" d="M1522.47,546.05c2.3,3.41,5.17,3.84,8,1.94a15.44,15.44,0,0,0,4.58-5l6.39,9.48a22.16,22.16,0,0,1-9.49,12.42c-7.41,5-16.23,4-22.85-2.9,1.49,10.19-3.41,20.81-14.22,28.1-12.44,8.38-25.22,7.31-32.8-3.94-8.39-12.44-2.11-24.21,11.1-37.2l15.62-15.48-1.3-1.93c-4.89-7.25-11.73-9.1-19.28-4s-8.41,12.13-5.6,19.49l-17.14,9.4c-6.76-14.83-2.83-31,14.49-42.71,16.89-11.38,33.38-10.88,45,6.3Zm-27.2-3-10.59,10.8c-7,7.12-10.69,12.58-6.6,18.66,3.1,4.59,8.65,5.8,14.42,1.91,9.33-6.29,11.75-18,4.26-29.15Z"/><path class="cls-1" d="M1664,442c6.72,17,1.06,33.52-15.67,44.79-20.14,13.58-43.33,10.48-57.2-10.1s-9.19-45.27,10.35-58.44c21.32-14.38,42.26-7,54.24,10.81l3.79,5.63-49,33c7.77,10.26,19.72,11.69,29.34,5.2,8.74-5.89,11.48-13.33,8.8-22.73Zm-28.1-5c-6-8.23-15.86-12.34-25.78-5.66s-10.46,17.39-5.61,26.82Z"/><path class="cls-1" d="M1702.17,378.42a23.87,23.87,0,0,0-12.55,4.37c-9.18,6.19-11,16.89-3,28.74l21.76,32.28-17.76,12-44-65.3,17.77-12,8.38,12.44c-2.62-9-.4-20.4,8.64-26.49,4-2.69,8-3.85,11-3.52Z"/><path class="cls-1" d="M1680.35,327l18.21-12.28,11.68,17.33L1692,344.35Zm80.94,81.11-17.77,12-44-65.3,17.77-12Z"/><path class="cls-1" d="M1793.69,386.29l-17.77,12-44-65.3,17.77-12,7.18,10.66c-1.73-9.59,3.17-20.22,12.94-26.8,17.47-11.78,31.82-4.23,41.6,10.28l27.45,40.72-17.77,12-25-37.17c-6.79-10.07-14.68-13.14-23.41-7.26-9,6.09-9.87,17-2.48,27.94Z"/><path class="cls-1" d="M1898.79,292.41c2.29,3.41,5.17,3.84,8,1.94a15.66,15.66,0,0,0,4.58-5l6.39,9.48a22.23,22.23,0,0,1-9.5,12.42c-7.4,5-16.23,4-22.84-2.9,1.48,10.19-3.42,20.82-14.22,28.1-12.44,8.38-25.22,7.31-32.81-3.94-8.39-12.44-2.11-24.21,11.1-37.2l15.62-15.48-1.3-1.93c-4.88-7.25-11.73-9.1-19.28-4s-8.41,12.13-5.6,19.49l-17.13,9.4c-6.77-14.82-2.83-31,14.49-42.71,16.88-11.38,33.37-10.88,45,6.3Zm-27.21-3L1861,300.23c-7,7.12-10.68,12.58-6.59,18.66,3.09,4.59,8.65,5.8,14.42,1.91,9.33-6.29,11.74-18,4.26-29.15Z"/><polygon class="cls-1" points="1504.43 480.87 1486.27 453.93 1508.83 438.73 1532.8 474.29 1504.43 480.87"/><polygon class="cls-1" points="1510.11 489.3 1529.53 484.8 1518.07 501.1 1510.11 489.3"/><polygon class="cls-1" points="1540.49 485.71 1549.28 498.76 1562.54 542.09 1550.96 549.9 1523.76 509.54 1540.49 485.71"/><polygon class="cls-1" points="1557.35 445.2 1539.19 418.26 1516.64 433.46 1540.61 469.02 1557.35 445.2"/><polygon class="cls-1" points="1563.03 453.63 1551.57 469.94 1570.99 465.44 1563.03 453.63"/><polygon class="cls-1" points="1548.31 480.45 1557.1 493.49 1592.29 522.04 1603.88 514.23 1576.67 473.87 1548.31 480.45"/><path class="cls-1" d="M2378.09,604.76H2431V492.27h-50c-28.39,0-40.53,12.14-40.53,30.53,0,12.68,8.57,21.61,20.71,23.57-13.57,2.5-24.11,11.43-24.11,27.5,0,19.47,14.82,30.89,41.07,30.89m31.07-65.71h-26.78c-13.39,0-19.11-5.89-19.11-14.28s5.72-14.46,19.11-14.46h26.78Zm0,17v30.71h-28.57c-13.93,0-20.71-5.89-20.71-15.18,0-9.46,6.78-15.53,20.71-15.53Z"/><path class="cls-1" d="M2257,585.66c0,4.11-2.14,6.07-5.54,6.07a15.59,15.59,0,0,1-6.6-1.61v11.43a22.15,22.15,0,0,0,14.82,5c8.93,0,15.71-5.71,17.32-15.18,4.46,9.29,14.46,15.36,27.5,15.36,15,0,25-8,25-21.61,0-15-11.79-21.25-30-24.64l-21.61-4.11v-2.32c0-8.75,4.64-14.1,13.75-14.1,8.93,0,13.75,5.35,15.54,13l19.46-1.79c-2.68-16.07-15-27.31-35.89-27.31-20.36,0-33.75,9.63-33.75,30.35ZM2277.88,568l14.82,3c9.82,2,15.89,4.46,15.89,11.78,0,5.54-3.92,9.64-10.89,9.64-11.25,0-19.82-8.39-19.82-21.78Z"/><path class="cls-1" d="M2081.46,578.52c3.93,17.85,17.86,28.39,38,28.39,24.29,0,41.79-15.54,41.79-40.36s-17.68-42.67-41.25-42.67c-25.71,0-38.93,17.85-38.93,39.28v6.78h59.11c-.72,12.86-9.82,20.72-21.43,20.72-10.54,0-17-4.64-20-13.93ZM2102,558.69c.36-10.17,6.25-19.1,18.22-19.1,11.78,0,18.39,8.57,19.64,19.1Z"/><path class="cls-1" d="M2014.28,547.09a23.89,23.89,0,0,1,12.86-3.39c11.07,0,18.57,7.85,18.57,22.14v38.92h21.42V526h-21.42v15c-2.86-8.93-11.07-17.14-22-17.14-4.82,0-8.74,1.25-11.07,3.21Z"/><path class="cls-1" d="M2003.65,492.27h-22v20.89h22Zm-21.78,112.49h21.43V526h-21.43Z"/><path class="cls-1" d="M1942.8,604.76h21.42V526H1942.8v12.85c-3.93-8.92-13.93-15-25.71-15-21.07,0-28.75,14.28-28.75,31.78v49.1h21.43V559.94c0-12.14,4.82-19.1,15.35-19.1,10.89,0,17.68,8.57,17.68,21.78Z"/><path class="cls-1" d="M1803.18,585.66c0,4.11-2.15,6.07-5.54,6.07a15.59,15.59,0,0,1-6.6-1.61v11.43a22.15,22.15,0,0,0,14.82,5c8.92,0,15.71-5.71,17.32-15.18,4.46,9.28,14.46,15.35,27.49,15.35,15,0,25-8,25-21.6,0-15-11.78-21.25-30-24.64l-21.61-4.11v-2.32c0-8.75,4.64-14.1,13.75-14.1,8.93,0,13.75,5.35,15.53,13l19.47-1.79c-2.68-16.07-15-27.31-35.89-27.31-20.36,0-33.75,9.63-33.75,30.35ZM1824.07,568l14.82,3c9.82,2,15.89,4.46,15.89,11.78,0,5.54-3.93,9.64-10.89,9.64-11.25,0-19.82-8.39-19.82-21.78Z"/><polygon class="cls-1" points="2235.52 521.52 2235.52 489.04 2208.32 489.04 2208.32 531.92 2235.52 521.52"/><polygon class="cls-1" points="2235.52 531.69 2216.9 538.81 2235.52 545.92 2235.52 531.69"/><polygon class="cls-1" points="2208.32 545.7 2208.32 561.42 2221.55 604.76 2235.52 604.76 2235.52 556.1 2208.32 545.7"/><polygon class="cls-1" points="2171.7 521.52 2171.7 489.04 2198.9 489.04 2198.9 531.92 2171.7 521.52"/><polygon class="cls-1" points="2171.7 531.69 2190.32 538.81 2171.7 545.92 2171.7 531.69"/><polygon class="cls-1" points="2198.9 545.7 2198.9 561.42 2185.68 604.76 2171.7 604.76 2171.7 556.1 2198.9 545.7"/><line class="cls-2" x1="1060.91" y1="133.97" x2="102.58" y2="761.66"/><line class="cls-2" x1="102.58" y1="133.97" x2="1060.91" y2="761.66"/><line class="cls-2" x1="2367.5" y1="133.97" x2="1409.17" y2="761.66"/><line class="cls-2" x1="1409.17" y1="133.97" x2="2367.5" y2="761.66"/></svg>