<svg id="Layer_1" data-name="Layer 1" xmlns="http://www.w3.org/2000/svg" viewBox="0 0 1200 800"><defs><style>.cls-1{fill:#fff;}</style></defs><rect y="80" width="1200" height="640"/><path class="cls-1" d="M158.33,493.91H70.94v-186h82.67c46.95,0,67,20.08,67,50.5,0,21-14.17,35.72-34.25,39,22.44,4.13,39.86,18.89,39.86,45.47,0,32.19-24.5,51.08-67.91,51.08M107,385.25h44.29c22.14,0,31.59-9.74,31.59-23.61s-9.45-23.92-31.59-23.92H107Zm0,28.06v50.78H154.2c23,0,34.25-9.74,34.25-25.1,0-15.65-11.22-25.68-34.25-25.68Z"/><path class="cls-1" d="M358.58,462.32c0,6.79,3.55,10,9.16,10a25.66,25.66,0,0,0,10.92-2.67V488.6c-5.61,4.42-12.69,8.26-24.51,8.26-14.76,0-26-9.44-28.64-25.09-7.38,15.35-23.91,25.38-45.47,25.38-24.8,0-41.34-13.27-41.34-35.71,0-24.81,19.49-35.15,49.61-40.76L324,413.89v-3.84c0-14.46-7.67-23.32-22.73-23.32-14.77,0-22.73,8.86-25.69,21.55l-32.18-2.95c4.43-26.57,24.8-45.17,59.34-45.17,33.67,0,55.81,15.93,55.81,50.19ZM324,433.09l-24.5,5c-16.24,3.24-26.28,7.38-26.28,19.48,0,9.16,6.5,16,18,16,18.6,0,32.77-13.87,32.77-36Z"/><path class="cls-1" d="M648.83,450.51c-6.5,29.52-29.52,46.94-62.89,46.94-40.16,0-69.09-25.68-69.09-66.73s29.23-70.56,68.2-70.56c42.52,0,64.37,29.52,64.37,64.95v11.22H551.69c1.18,21.26,16.24,34.25,35.43,34.25,17.42,0,28-7.67,33.07-23Zm-34-32.78c-.6-16.83-10.34-31.59-30.12-31.59-19.49,0-30.41,14.17-32.48,31.59Z"/><path class="cls-1" d="M759.91,398.54a39.4,39.4,0,0,0-21.25-5.61c-18.31,0-30.71,13-30.71,36.61v64.37H672.52V363.7H708v24.8c4.72-14.76,18.3-28.34,36.32-28.34,8,0,14.46,2.06,18.3,5.31Z"/><path class="cls-1" d="M777.49,307.89h36.32v34.55H777.49Zm36,186H778.08V363.7h35.43Z"/><path class="cls-1" d="M878.12,493.91H842.69V363.7h35.43V385c6.49-14.76,23-24.8,42.51-24.8,34.84,0,47.54,23.62,47.54,52.55v81.2H932.74V419.8c0-20.08-8-31.59-25.4-31.59-18,0-29.22,14.17-29.22,36Z"/><path class="cls-1" d="M1109,462.32c0,6.79,3.54,10,9.15,10a25.6,25.6,0,0,0,10.92-2.67V488.6c-5.61,4.42-12.69,8.26-24.5,8.26-14.76,0-26-9.44-28.64-25.09-7.38,15.35-23.93,25.38-45.47,25.38-24.81,0-41.34-13.27-41.34-35.71,0-24.81,19.48-35.15,49.6-40.76l35.73-6.79v-3.84c0-14.46-7.68-23.32-22.74-23.32-14.76,0-22.73,8.86-25.68,21.55l-32.19-2.95c4.43-26.57,24.81-45.17,59.35-45.17,33.66,0,55.81,15.93,55.81,50.19Zm-34.55-29.23-24.51,5c-16.24,3.24-26.27,7.38-26.27,19.48,0,9.16,6.49,16,18,16,18.61,0,32.78-13.87,32.78-36Z"/><polygon class="cls-1" points="394.09 356.26 394.09 302.55 439.06 302.55 439.06 373.46 394.09 356.26"/><polygon class="cls-1" points="394.09 373.07 424.87 384.85 394.09 396.61 394.09 373.07"/><polygon class="cls-1" points="439.06 396.24 439.06 422.25 417.19 493.91 394.09 493.91 394.09 413.44 439.06 396.24"/><polygon class="cls-1" points="499.61 356.26 499.61 302.55 454.64 302.55 454.64 373.46 499.61 356.26"/><polygon class="cls-1" points="499.61 373.07 468.83 384.85 499.61 396.61 499.61 373.07"/><polygon class="cls-1" points="454.64 396.24 454.64 422.25 476.5 493.91 499.61 493.91 499.61 413.44 454.64 396.24"/></svg>