<svg id="Layer_1" data-name="Layer 1" xmlns="http://www.w3.org/2000/svg" viewBox="0 0 1200 800"><defs><style>.cls-1{fill:#464646;}.cls-2{fill:#be1e2d;stroke:#be1e2d;stroke-miterlimit:10;stroke-width:8px;}</style></defs><path class="cls-1" d="M209,524.54H129.82V356.07h74.87c42.52,0,60.71,18.18,60.71,45.73,0,19-12.84,32.35-31,35.29,20.32,3.75,36.1,17.12,36.1,41.19,0,29.15-22.2,46.26-61.51,46.26m-46.53-98.41h40.11c20.06,0,28.61-8.82,28.61-21.39s-8.55-21.66-28.61-21.66H162.44Zm0,25.41v46h42.79c20.86,0,31-8.82,31-22.73,0-14.18-10.16-23.26-31-23.26Z"/><path class="cls-1" d="M390.33,495.93c0,6.15,3.21,9.09,8.29,9.09a23.22,23.22,0,0,0,9.89-2.41v17.12c-5.07,4-11.49,7.48-22.19,7.48-13.37,0-23.53-8.55-25.94-22.73-6.68,13.91-21.66,23-41.18,23-22.46,0-37.44-12-37.44-32.35,0-22.47,17.65-31.83,44.93-36.91L359,452.07v-3.48c0-13.1-7-21.12-20.58-21.12-13.38,0-20.6,8-23.27,19.52L286,444.31c4-24.06,22.47-40.91,53.75-40.91,30.49,0,50.54,14.44,50.54,45.46ZM359,469.45,336.85,474c-14.71,2.94-23.8,6.68-23.8,17.65,0,8.29,5.88,14.44,16.31,14.44,16.85,0,29.68-12.57,29.68-32.63Z"/><path class="cls-1" d="M653.21,485.23c-5.89,26.74-26.74,42.52-57,42.52-36.37,0-62.58-23.27-62.58-60.44s26.48-63.91,61.77-63.91c38.51,0,58.31,26.74,58.31,58.83v10.16H565.23c1.07,19.25,14.71,31,32.08,31,15.79,0,25.41-7,30-20.86Zm-30.75-29.69c-.54-15.24-9.36-28.61-27.28-28.61-17.65,0-27.54,12.84-29.42,28.61Z"/><path class="cls-1" d="M753.81,438.16a35.77,35.77,0,0,0-19.25-5.08c-16.58,0-27.81,11.77-27.81,33.16v58.3H674.67V406.61h32.08v22.46c4.28-13.37,16.58-25.67,32.89-25.67,7.22,0,13.1,1.87,16.58,4.82Z"/><path class="cls-1" d="M769.73,356.07h32.89v31.29H769.73Zm32.62,168.47H770.26V406.61h32.09Z"/><path class="cls-1" d="M860.87,524.54H828.78V406.61h32.09v19.25c5.88-13.37,20.85-22.46,38.5-22.46,31.55,0,43,21.39,43,47.6v73.54H910.33V457.42c0-18.19-7.21-28.61-23-28.61-16.31,0-26.47,12.83-26.47,32.62Z"/><path class="cls-1" d="M1070,495.93c0,6.15,3.21,9.09,8.29,9.09a23.26,23.26,0,0,0,9.9-2.41v17.12c-5.09,4-11.5,7.48-22.2,7.48-13.37,0-23.54-8.55-25.94-22.73-6.68,13.91-21.66,23-41.18,23-22.46,0-37.44-12-37.44-32.35,0-22.47,17.65-31.83,44.93-36.91l32.35-6.15v-3.48c0-13.1-7-21.12-20.59-21.12-13.37,0-20.59,8-23.26,19.52l-29.15-2.68c4-24.06,22.46-40.91,53.75-40.91,30.48,0,50.54,14.44,50.54,45.46Zm-31.29-26.48L1016.48,474c-14.71,2.94-23.8,6.68-23.8,17.65,0,8.29,5.89,14.44,16.31,14.44,16.85,0,29.68-12.57,29.68-32.63Z"/><polygon class="cls-1" points="422.49 383.64 422.49 284.33 463.22 284.33 463.22 415.45 422.49 383.64"/><polygon class="cls-1" points="422.49 415.1 450.37 425.76 422.49 436.42 422.49 415.1"/><polygon class="cls-1" points="463.22 436.08 463.22 459.63 443.42 524.54 422.49 524.54 422.49 451.65 463.22 436.08"/><polygon class="cls-1" points="518.06 383.64 518.06 284.33 477.33 284.33 477.33 415.45 518.06 383.64"/><polygon class="cls-1" points="518.06 415.1 490.18 425.76 518.06 436.42 518.06 415.1"/><polygon class="cls-1" points="477.33 436.08 477.33 459.63 497.13 524.54 518.06 524.54 518.06 451.65 477.33 436.08"/><line class="cls-2" x1="1088.15" y1="92.19" x2="129.82" y2="719.89"/><line class="cls-2" x1="129.82" y1="92.19" x2="1088.15" y2="719.89"/></svg>