<svg id="Layer_1" data-name="Layer 1" xmlns="http://www.w3.org/2000/svg" viewBox="0 0 1200 800"><defs><style>.cls-1{fill:#464646;}.cls-2{fill:#be1e2d;stroke:#be1e2d;stroke-miterlimit:10;stroke-width:8px;}</style></defs><path class="cls-1" d="M164.19,473H85V304.56h74.88c42.52,0,60.7,18.19,60.7,45.73,0,19-12.83,32.36-31,35.3,20.32,3.74,36.1,17.11,36.1,41.18,0,29.15-22.19,46.27-61.5,46.27m-46.53-98.42h40.11c20.06,0,28.61-8.82,28.61-21.38s-8.55-21.66-28.61-21.66H117.66Zm0,25.41v46h42.78c20.86,0,31-8.83,31-22.73,0-14.18-10.16-23.27-31-23.27Z"/><path class="cls-1" d="M352.22,444.42c0,6.16,3.21,9.09,8.29,9.09a23.25,23.25,0,0,0,9.89-2.41v17.12c-5.08,4-11.49,7.49-22.19,7.49-13.37,0-23.54-8.56-25.94-22.73-6.69,13.9-21.66,23-41.19,23-22.46,0-37.43-12-37.43-32.35,0-22.47,17.65-31.82,44.92-36.91l32.36-6.15v-3.47C320.93,384,314,376,300.34,376c-13.37,0-20.59,8-23.26,19.51l-29.15-2.67c4-24.07,22.46-40.91,53.74-40.91,30.49,0,50.55,14.43,50.55,45.45ZM320.93,418l-22.19,4.55c-14.71,2.93-23.8,6.68-23.8,17.64,0,8.3,5.88,14.45,16.31,14.45,16.84,0,29.68-12.57,29.68-32.63Z"/><path class="cls-1" d="M638.84,433.73c-5.88,26.73-26.74,42.51-57,42.51-36.37,0-62.57-23.26-62.57-60.43s26.47-63.91,61.77-63.91c38.51,0,58.3,26.74,58.3,58.83v10.16H550.86c1.07,19.25,14.71,31,32.09,31,15.78,0,25.41-7,29.95-20.86ZM608.09,404c-.54-15.24-9.36-28.61-27.28-28.61-17.65,0-27.54,12.83-29.41,28.61Z"/><path class="cls-1" d="M747.37,386.66a35.68,35.68,0,0,0-19.25-5.08c-16.58,0-27.81,11.77-27.81,33.16V473H668.23V355.1h32.08v22.47c4.28-13.37,16.58-25.67,32.89-25.67,7.22,0,13.1,1.87,16.58,4.81Z"/><path class="cls-1" d="M783.22,304.56h32.89v31.29H783.22ZM815.84,473H783.75V355.1h32.09Z"/><path class="cls-1" d="M884.59,473H852.5V355.1h32.09v19.26c5.88-13.37,20.86-22.46,38.5-22.46,31.56,0,43.06,21.39,43.06,47.59V473H934.06V405.91c0-18.18-7.22-28.61-23-28.61-16.31,0-26.47,12.84-26.47,32.62Z"/><path class="cls-1" d="M1102.18,444.42c0,6.16,3.21,9.09,8.29,9.09a23.22,23.22,0,0,0,9.89-2.41v17.12c-5.08,4-11.5,7.49-22.19,7.49-13.37,0-23.54-8.56-25.94-22.73-6.69,13.9-21.67,23-41.18,23-22.47,0-37.44-12-37.44-32.35,0-22.47,17.64-31.82,44.92-36.91l32.36-6.15v-3.47c0-13.1-7-21.12-20.59-21.12-13.38,0-20.6,8-23.26,19.51l-29.16-2.67c4-24.07,22.47-40.91,53.75-40.91,30.49,0,50.55,14.43,50.55,45.45ZM1070.89,418l-22.2,4.55c-14.7,2.93-23.79,6.68-23.79,17.64,0,8.3,5.88,14.45,16.3,14.45,16.85,0,29.69-12.57,29.69-32.63Z"/><polygon class="cls-1" points="398.9 348.37 398.9 299.72 439.63 299.72 439.63 363.95 398.9 348.37"/><polygon class="cls-1" points="398.9 363.59 426.77 374.26 398.9 384.92 398.9 363.59"/><polygon class="cls-1" points="439.63 384.57 439.63 408.13 419.82 473.04 398.9 473.04 398.9 400.15 439.63 384.57"/><polygon class="cls-1" points="494.47 348.37 494.47 299.72 453.74 299.72 453.74 363.95 494.47 348.37"/><polygon class="cls-1" points="494.47 363.59 466.59 374.26 494.47 384.92 494.47 363.59"/><polygon class="cls-1" points="453.74 384.57 453.74 408.13 473.54 473.04 494.47 473.04 494.47 400.15 453.74 384.57"/><line class="cls-2" x1="1081.86" y1="74.14" x2="123.53" y2="701.83"/><line class="cls-2" x1="123.53" y1="74.14" x2="1081.86" y2="701.83"/></svg>