<svg id="Layer_1" data-name="Layer 1" xmlns="http://www.w3.org/2000/svg" viewBox="0 0 1200 800"><defs><style>.cls-1{fill:#464646;}.cls-2{fill:#41c4bf;}</style></defs><path class="cls-1" d="M150.39,463.93H90.88V337.26h56.3c32,0,45.64,13.67,45.64,34.38,0,14.27-9.65,24.33-23.32,26.54,15.28,2.82,27.14,12.87,27.14,31C196.64,451.06,180,463.93,150.39,463.93Zm-35-74h30.16c15.08,0,21.51-6.64,21.51-16.09s-6.43-16.28-21.51-16.28H115.41Zm0,19.1v34.58h32.17c15.68,0,23.32-6.64,23.32-17.09,0-10.66-7.64-17.49-23.32-17.49Z"/><path class="cls-1" d="M286.76,442.41c0,4.63,2.41,6.84,6.23,6.84a17.49,17.49,0,0,0,7.44-1.81v12.87c-3.82,3-8.65,5.63-16.69,5.63-10.05,0-17.69-6.44-19.5-17.09-5,10.45-16.29,17.29-31,17.29-16.88,0-28.15-9.05-28.15-24.33,0-16.89,13.28-23.92,33.78-27.75l24.33-4.62v-2.61c0-9.86-5.22-15.89-15.48-15.89-10.05,0-15.48,6-17.49,14.68l-21.92-2c3-18.1,16.89-30.76,40.41-30.76,22.93,0,38,10.85,38,34.18Zm-23.53-19.9-16.68,3.42c-11.06,2.21-17.9,5-17.9,13.26,0,6.24,4.42,10.86,12.26,10.86,12.67,0,22.32-9.45,22.32-24.53Z"/><path class="cls-1" d="M484.4,434.37c-4.42,20.11-20.1,32-42.82,32-27.35,0-47.05-17.49-47.05-45.44s19.91-48,46.44-48c29,0,43.83,20.1,43.83,44.23v7.64H418.25c.81,14.47,11.06,23.32,24.13,23.32,11.86,0,19.1-5.22,22.52-15.68Zm-23.12-22.32c-.4-11.46-7-21.51-20.51-21.51-13.26,0-20.71,9.65-22.11,21.51Z"/><path class="cls-1" d="M560.05,399a26.93,26.93,0,0,0-14.48-3.82c-12.47,0-20.91,8.85-20.91,24.93v43.84H500.53V375.26h24.13v16.89c3.22-10,12.47-19.3,24.73-19.3,5.43,0,9.85,1.41,12.47,3.62Z"/><path class="cls-1" d="M572,337.26h24.73v23.52H572Zm24.53,38v88.67H572.42V375.26Z"/><path class="cls-1" d="M640.54,463.93H616.41V375.26h24.13v14.48c4.42-10.06,15.68-16.89,29-16.89,23.72,0,32.37,16.08,32.37,35.78v55.3H677.73V413.46c0-13.67-5.43-21.51-17.29-21.51-12.26,0-19.9,9.65-19.9,24.53Z"/><path class="cls-1" d="M797.75,442.41c0,4.63,2.41,6.84,6.23,6.84a17.49,17.49,0,0,0,7.44-1.81v12.87c-3.82,3-8.65,5.63-16.69,5.63-10.05,0-17.69-6.44-19.5-17.09-5,10.45-16.29,17.29-31,17.29-16.89,0-28.15-9.05-28.15-24.33,0-16.89,13.27-23.92,33.78-27.75l24.33-4.62v-2.61c0-9.86-5.23-15.89-15.49-15.89-10,0-15.48,6-17.49,14.68l-21.91-2c3-18.1,16.89-30.76,40.41-30.76,22.92,0,38,10.85,38,34.18Zm-23.52-19.9-16.69,3.42c-11.06,2.21-17.9,5-17.9,13.26,0,6.24,4.43,10.86,12.27,10.86,12.66,0,22.32-9.45,22.32-24.53Z"/><polygon class="cls-1" points="310.93 370.19 310.93 333.62 341.56 333.62 341.56 381.9 310.93 370.19"/><polygon class="cls-1" points="310.93 381.64 331.89 389.66 310.93 397.68 310.93 381.64"/><polygon class="cls-1" points="341.56 397.41 341.56 415.13 326.67 463.93 310.93 463.93 310.93 409.12 341.56 397.41"/><polygon class="cls-1" points="382.79 370.19 382.79 333.62 352.17 333.62 352.17 381.9 382.79 370.19"/><polygon class="cls-1" points="382.79 381.64 361.83 389.66 382.79 397.68 382.79 381.64"/><polygon class="cls-1" points="352.17 397.41 352.17 415.13 367.06 463.93 382.79 463.93 382.79 409.12 352.17 397.41"/><path class="cls-2" d="M897.94,427.17C896.43,443.7,886.07,456,867.79,456c-18.6,0-31.26-14.51-31.26-36.38s12.66-36.37,31.26-36.37c18.14,0,28.47,11.67,30.11,28l11.44-.83c-2.08-20.87-15.9-37.57-41.14-37.57-26.36,0-44.75,18.59-44.75,46.79s18.39,46.8,44.75,46.8c25.39,0,39.24-16.91,41.18-38Z"/><path class="cls-2" d="M969.14,466.38c-25.13,0-44.34-19.21-44.34-46.8s19.21-46.79,44.34-46.79c25.34,0,44.55,19.21,44.55,46.79S994.48,466.38,969.14,466.38Zm0-9.81c20,0,31.47-15.33,31.47-37s-11.44-37-31.47-37c-19.82,0-31.26,15.33-31.26,37S949.32,456.57,969.14,456.57Z"/><path class="cls-2" d="M1046.79,463.93h-12.47V375.24h12.47v16.35c4.29-10.83,16.55-18.8,29.84-18.8,22.88,0,32.49,14.91,32.49,36.17v55h-12.47V408.55c0-15.74-8.17-26-23.3-26-14.09,0-26.56,11-26.56,28.21Z"/></svg>