<svg id="Layer_1" data-name="Layer 1" xmlns="http://www.w3.org/2000/svg" viewBox="0 0 1200 630"><defs><style>.cls-1{fill:#585a5e;}.cls-2{fill:#fff;}</style></defs><rect class="cls-1" x="54.31" y="187.25" width="1115.48" height="291.8"/><path class="cls-2" d="M189.84,422.92H106.29V245.1h79c44.88,0,64.07,19.2,64.07,48.27,0,20-13.55,34.15-32.74,37.26,21.45,3.95,38.11,18.06,38.11,43.46,0,30.77-23.43,48.83-64.92,48.83M140.72,319.06h42.34c21.17,0,30.2-9.32,30.2-22.58s-9-22.87-30.2-22.87H140.72Zm0,26.81v48.54h45.16c22,0,32.75-9.3,32.75-24,0-15-10.73-24.56-32.75-24.56Z"/><path class="cls-2" d="M381.26,392.73c0,6.49,3.39,9.59,8.76,9.59a24.35,24.35,0,0,0,10.43-2.55v18.08c-5.36,4.22-12.13,7.9-23.42,7.9-14.11,0-24.84-9-27.38-24-7,14.67-22.86,24.27-43.47,24.27-23.71,0-39.51-12.7-39.51-34.15,0-23.72,18.62-33.59,47.42-38.95l34.15-6.5v-3.67c0-13.83-7.34-22.29-21.73-22.29-14.12,0-21.74,8.46-24.56,20.6l-30.77-2.83c4.24-25.4,23.72-43.17,56.74-43.17,32.17,0,53.34,15.23,53.34,48Zm-33-28-23.43,4.8c-15.52,3.1-25.12,7.05-25.12,18.63,0,8.75,6.21,15.24,17.22,15.24,17.78,0,31.33-13.26,31.33-34.44Z"/><path class="cls-2" d="M658.72,381.44c-6.2,28.22-28.22,44.87-60.11,44.87-38.4,0-66.06-24.55-66.06-63.79s28-67.45,65.2-67.45c40.65,0,61.54,28.22,61.54,62.09v10.72H565.86c1.13,20.32,15.53,32.75,33.87,32.75,16.66,0,26.82-7.34,31.61-22ZM626.26,350.1c-.56-16.08-9.87-30.2-28.79-30.2-18.62,0-29.06,13.55-31,30.2Z"/><path class="cls-2" d="M764.91,331.75a37.74,37.74,0,0,0-20.31-5.36c-17.51,0-29.36,12.42-29.36,35v61.53H681.37V298.44h33.87v23.72c4.51-14.11,17.5-27.09,34.72-27.09,7.62,0,13.83,2,17.49,5.08Z"/><path class="cls-2" d="M781.71,245.1h34.73v33H781.71Zm34.44,177.82H782.28V298.44h33.87Z"/><path class="cls-2" d="M877.92,422.92H844.05V298.44h33.87v20.33c6.2-14.11,22-23.7,40.63-23.7,33.3,0,45.45,22.57,45.45,50.23v77.62H930.12V352.07c0-19.19-7.61-30.19-24.27-30.19-17.21,0-27.93,13.54-27.93,34.43Z"/><path class="cls-2" d="M1098.61,392.73c0,6.49,3.38,9.59,8.75,9.59a24.35,24.35,0,0,0,10.44-2.55v18.08c-5.36,4.22-12.13,7.9-23.42,7.9-14.11,0-24.85-9-27.38-24-7.06,14.67-22.87,24.27-43.47,24.27-23.71,0-39.52-12.7-39.52-34.15,0-23.72,18.63-33.59,47.42-38.95l34.15-6.5v-3.67c0-13.83-7.33-22.29-21.73-22.29-14.12,0-21.74,8.46-24.55,20.6l-30.77-2.83c4.23-25.4,23.71-43.17,56.73-43.17,32.18,0,53.35,15.23,53.35,48Zm-33-28-23.42,4.8c-15.52,3.1-25.12,7.05-25.12,18.63,0,8.75,6.21,15.24,17.21,15.24,17.79,0,31.33-13.26,31.33-34.44Z"/><polygon class="cls-2" points="415.21 291.34 415.21 240 458.2 240 458.2 307.78 415.21 291.34"/><polygon class="cls-2" points="415.21 307.41 444.63 318.67 415.21 329.91 415.21 307.41"/><polygon class="cls-2" points="458.2 329.55 458.2 354.42 437.29 422.92 415.21 422.92 415.21 345.99 458.2 329.55"/><polygon class="cls-2" points="516.08 291.34 516.08 240 473.09 240 473.09 307.78 516.08 291.34"/><polygon class="cls-2" points="516.08 307.41 486.66 318.67 516.08 329.91 516.08 307.41"/><polygon class="cls-2" points="473.09 329.55 473.09 354.42 493.99 422.92 516.08 422.92 516.08 345.99 473.09 329.55"/></svg>