<svg id="Layer_1" data-name="Layer 1" xmlns="http://www.w3.org/2000/svg" viewBox="0 0 864 362"><defs><style>.cls-1,.cls-3,.cls-4,.cls-6,.cls-7{fill:none;}.cls-2,.cls-5{fill:#464646;}.cls-3,.cls-4,.cls-6{stroke:#20b6af;}.cls-3,.cls-4,.cls-6,.cls-7{stroke-miterlimit:10;}.cls-3{stroke-dasharray:4.01 4.01;}.cls-4{stroke-dasharray:3.99 3.99;}.cls-5{isolation:isolate;font-size:34.17px;font-family:Roboto-Light, Roboto;font-weight:300;}.cls-7{stroke:#464646;}</style></defs><rect class="cls-1" y="-64" width="864" height="426"/><path class="cls-2" d="M207.39,192.8h-38.2V111.49h36.14c20.52,0,29.3,8.78,29.3,22.07,0,9.17-6.2,15.62-15,17,9.81,1.81,17.43,8.26,17.43,19.87,0,14.07-10.71,22.33-29.69,22.33m-22.45-47.49h19.35c9.68,0,13.81-4.26,13.81-10.33s-4.13-10.45-13.81-10.45H184.94Zm0,12.26v22.2h20.65c10.06,0,15-4.26,15-11s-4.91-11.23-15-11.23Z"/><path class="cls-2" d="M294.93,179c0,3,1.54,4.39,4,4.39a11.25,11.25,0,0,0,4.77-1.16v8.26a16,16,0,0,1-10.7,3.6c-6.45,0-11.36-4.12-12.52-11-3.23,6.71-10.45,11.1-19.88,11.1-10.84,0-18.07-5.8-18.07-15.61,0-10.85,8.52-15.36,21.69-17.82l15.61-3v-1.68c0-6.33-3.35-10.2-9.93-10.2s-9.94,3.87-11.23,9.42L244.6,154c1.94-11.61,10.84-19.74,25.94-19.74,14.72,0,24.4,7,24.4,21.94Zm-15.11-12.77-10.71,2.19c-7.1,1.42-11.48,3.23-11.48,8.52,0,4,2.83,7,7.87,7,8.13,0,14.32-6.07,14.32-15.75Z"/><path class="cls-2" d="M421.8,173.83c-2.84,12.91-12.91,20.52-27.49,20.52-17.56,0-30.2-11.23-30.2-29.17s12.77-30.84,29.81-30.84c18.59,0,28.14,12.9,28.14,28.39v4.9H379.34c.51,9.3,7.1,15,15.48,15,7.62,0,12.27-3.36,14.46-10.07ZM407,159.5c-.26-7.35-4.52-13.81-13.17-13.81s-13.29,6.2-14.19,13.81Z"/><path class="cls-2" d="M470.36,151.11a17.23,17.23,0,0,0-9.29-2.45c-8,0-13.43,5.68-13.43,16V192.8H432.16V135.88h15.48v10.85c2.07-6.46,8-12.39,15.88-12.39,3.48,0,6.32.9,8,2.32Z"/><path class="cls-2" d="M478,111.49h15.88v15.1H478Zm15.74,81.31H478.3V135.88h15.48Z"/><path class="cls-2" d="M522,192.8H506.54V135.88H522v9.3c2.83-6.45,10.06-10.84,18.58-10.84,15.23,0,20.78,10.32,20.78,23V192.8H545.9V160.41c0-8.78-3.48-13.81-11.1-13.81-7.87,0-12.77,6.19-12.77,15.74Z"/><path class="cls-2" d="M622.94,179c0,3,1.55,4.39,4,4.39a11.1,11.1,0,0,0,4.77-1.16v8.26a16,16,0,0,1-10.71,3.6c-6.45,0-11.36-4.12-12.52-11-3.23,6.71-10.46,11.1-19.88,11.1-10.84,0-18.07-5.8-18.07-15.61,0-10.85,8.52-15.36,21.69-17.82l15.61-3v-1.68c0-6.33-3.35-10.2-9.93-10.2s-9.94,3.87-11.23,9.42L572.6,154c1.93-11.61,10.84-19.74,25.94-19.74,14.71,0,24.39,7,24.39,21.94Zm-15.1-12.77-10.71,2.19c-7.1,1.42-11.48,3.23-11.48,8.52,0,4,2.84,7,7.87,7,8.13,0,14.32-6.07,14.32-15.75Z"/><polygon class="cls-2" points="310.45 132.63 310.45 109.16 330.1 109.16 330.1 140.15 310.45 132.63"/><polygon class="cls-2" points="310.45 139.98 323.9 145.13 310.45 150.27 310.45 139.98"/><polygon class="cls-2" points="330.1 150.11 330.1 161.48 320.55 192.8 310.45 192.8 310.45 157.63 330.1 150.11"/><polygon class="cls-2" points="356.57 132.63 356.57 109.16 336.92 109.16 336.92 140.15 356.57 132.63"/><polygon class="cls-2" points="356.57 139.98 343.12 145.13 356.57 150.27 356.57 139.98"/><polygon class="cls-2" points="336.92 150.11 336.92 161.48 346.47 192.8 356.57 192.8 356.57 157.63 336.92 150.11"/><line class="cls-3" x1="84.58" y1="110.83" x2="714.99" y2="110.83"/><line class="cls-3" x1="89.61" y1="193.43" x2="714.99" y2="193.43"/><line class="cls-4" x1="168.31" y1="276.57" x2="168.31" y2="27.77"/><line class="cls-4" x1="631.72" y1="276.57" x2="631.72" y2="27.77"/><text class="cls-5" transform="translate(115.73 77.36)">X</text><text class="cls-5" transform="translate(663.64 77.36)">X</text><text class="cls-5" transform="translate(664.49 247.46)">X</text><text class="cls-5" transform="translate(115.73 247.46)">X</text><polyline class="cls-6" points="76.56 109.94 65.53 109.94 65.53 193.93 76.56 193.93"/><line class="cls-6" x1="49.14" y1="151.93" x2="65.53" y2="151.93"/><text class="cls-5" transform="translate(26.96 163.57)">X</text><polyline class="cls-6" points="85.58 284.24 85.58 295.27 168.31 295.27 168.31 284.24"/><line class="cls-6" x1="125.67" y1="311.65" x2="125.67" y2="295.27"/><text class="cls-5" transform="translate(115.73 343.25)">X</text><line class="cls-7" x1="714.99" y1="277.07" x2="714.99" y2="26.99"/><line class="cls-7" x1="85.04" y1="276.57" x2="85.04" y2="26.99"/><line class="cls-7" x1="85.04" y1="27" x2="714.99" y2="27"/><line class="cls-7" x1="85.04" y1="276.57" x2="714.99" y2="276.57"/></svg>