<svg id="Layer_1" data-name="Layer 1" xmlns="http://www.w3.org/2000/svg" viewBox="0 0 140 140"><defs><style>.cls-1{fill:#fff;}</style></defs><g id="Artwork"><circle id="circle114" class="cls-1" cx="114.35" cy="57.04" r="4.92"/><path id="path116" class="cls-1" d="M44,78a3.49,3.49,0,0,0,3.71-3.57,12.86,12.86,0,0,0-.23-2C46,66.05,40.83,61.32,34.66,61.32c-7.34,0-13.29,6.64-13.29,14.81S27.32,91,34.66,91a13.1,13.1,0,0,0,10.26-4.32,2.88,2.88,0,0,0-.47-4.28,3,3,0,0,0-3.66.37,9,9,0,0,1-6.13,2.65c-3.72,0-6.88-3.2-7.57-7.43H44Zm-9.43-11.1c3.34,0,6.22,2.61,7.29,6.18H27.32C28.39,69.49,31.27,66.93,34.61,66.93Z"/><path id="path118" class="cls-1" d="M21.65,64.24a2.79,2.79,0,0,0-2.32-2.74,10.74,10.74,0,0,0-10,3.62v-.37A2.75,2.75,0,0,0,6.51,62a2.79,2.79,0,0,0-2.78,2.78V87.51a2.85,2.85,0,0,0,2.6,2.88,2.79,2.79,0,0,0,3-2.79V75.85c0-5.2,3.9-9.47,9.29-8.87h.55a2.73,2.73,0,0,0,2.51-2.74Z"/><path id="path120" class="cls-1" d="M117.14,67.21a2.79,2.79,0,0,0-5.58,0V87.6a2.79,2.79,0,0,0,5.58,0Z"/><path id="path122" class="cls-1" d="M75.71,51.79a2.79,2.79,0,0,0-5.57,0v12.4A9.66,9.66,0,0,0,63,61.36c-7.34,0-13.28,6.64-13.28,14.82S55.69,91,63,91a9.74,9.74,0,0,0,7.15-2.88,2.79,2.79,0,0,0,5.53-.51ZM63.08,85.46c-4.27,0-7.71-4.13-7.71-9.28s3.44-9.29,7.71-9.29,7.71,4.13,7.71,9.29S67.3,85.46,63.08,85.46Z"/><path id="path124" class="cls-1" d="M104.78,51.79a2.79,2.79,0,0,0-5.57,0v12.4a9.65,9.65,0,0,0-7.11-2.83c-7.33,0-13.28,6.64-13.28,14.82S84.77,91,92.1,91a9.76,9.76,0,0,0,7.16-2.88,2.78,2.78,0,0,0,5.52-.51ZM92.1,85.46c-4.27,0-7.71-4.13-7.71-9.28s3.44-9.29,7.71-9.29,7.71,4.13,7.71,9.29S96.38,85.46,92.1,85.46Z"/><path id="path126" class="cls-1" d="M131.25,87.65V66.93h2.46a2.53,2.53,0,0,0,2.56-2.32A2.49,2.49,0,0,0,133.81,62h-2.56V58.06a2.84,2.84,0,0,0-2.6-2.87,2.78,2.78,0,0,0-3,2.78v4h-2.32a2.55,2.55,0,0,0-2.56,2.32A2.5,2.5,0,0,0,123.27,67h2.36V87.69a2.8,2.8,0,0,0,2.79,2.79,2.87,2.87,0,0,0,2.83-2.83Z"/></g></svg>