<svg id="Layer_1" data-name="Layer 1" xmlns="http://www.w3.org/2000/svg" viewBox="0 0 90 90"><defs><style>.cls-1{fill:#ff4500;}.cls-2{fill:#fff;}</style></defs><g id="Artwork"><circle class="cls-1" cx="45" cy="44.16" r="24.27"/><path class="cls-2" d="M61.18,44.16a3.55,3.55,0,0,0-3.55-3.54,3.4,3.4,0,0,0-2.44,1,17.53,17.53,0,0,0-9.45-3L47.36,31l5.25,1.11a2.53,2.53,0,1,0,2.52-2.64,2.46,2.46,0,0,0-2.24,1.42L47,29.66a.75.75,0,0,0-.49.08.73.73,0,0,0-.28.4L44.46,38.6a17.15,17.15,0,0,0-9.59,3,3.59,3.59,0,0,0-2.45-1A3.54,3.54,0,0,0,31,47.4a6.3,6.3,0,0,0-.09,1.08c0,5.45,6.33,9.85,14.17,9.85s14.16-4.4,14.16-9.85a7.1,7.1,0,0,0-.08-1A3.68,3.68,0,0,0,61.18,44.16ZM36.91,46.69a2.53,2.53,0,1,1,2.53,2.53A2.54,2.54,0,0,1,36.91,46.69ZM51,53.36c-1.73,1.73-5,1.85-6,1.85s-4.29-.15-6-1.85a.66.66,0,0,1,0-.94.68.68,0,0,1,.94,0c1.07,1.08,3.4,1.48,5.08,1.48s4-.4,5.08-1.48a.67.67,0,0,1,.93,0A.74.74,0,0,1,51,53.36Zm-.46-4.14a2.53,2.53,0,1,1,2.53-2.53A2.53,2.53,0,0,1,50.56,49.22Z"/></g></svg>