<?xml version="1.0" encoding="utf-8"?>
<!-- Generator: Adobe Illustrator 24.3.0, SVG Export Plug-In . SVG Version: 6.00 Build 0)  -->
<svg version="1.1" id="Layer_1" xmlns="http://www.w3.org/2000/svg" xmlns:xlink="http://www.w3.org/1999/xlink" x="0px" y="0px"
	 viewBox="0 0 51.7 47.8" style="enable-background:new 0 0 51.7 47.8;" xml:space="preserve">
<style type="text/css">
	.st0{fill:#FFFFFF;}
	.st1{fill:#41C4BF;}
</style>
<g>
	<g>
		<g>
			<rect x="32.9" y="6.3" class="st0" width="18.1" height="6.7"/>
			<path class="st1" d="M51.7,13.7H32.1V5.5h19.6V13.7z M33.6,12.2h16.6V7H33.6V12.2z"/>
		</g>
		<g>
			<rect x="41.2" y="13" class="st1" width="1.5" height="34.8"/>
		</g>
		<g>
			<rect x="38.9" y="18.5" class="st1" width="6.1" height="22.1"/>
			<path class="st1" d="M45.7,41.3h-7.6V17.7h7.6V41.3z M39.6,39.8h4.6V19.2h-4.6V39.8z"/>
		</g>
	</g>
	<g>
		<g>
			<rect x="16.9" y="3.3" class="st1" width="18.1" height="6.7"/>
			<path class="st1" d="M35.7,10.7H16.1V2.5h19.6V10.7z M17.6,9.2h16.6V4H17.6V9.2z"/>
		</g>
		<g>
			<rect x="25.1" y="10" class="st1" width="1.5" height="37.8"/>
		</g>
		<g>
			<rect x="22.8" y="15.5" class="st0" width="6.1" height="22.1"/>
			<path class="st1" d="M29.6,38.3H22V14.7h7.6V38.3z M23.5,36.8h4.6V16.2h-4.6V36.8z"/>
		</g>
	</g>
	<g>
		<g>
			<rect x="0.8" y="0.8" class="st0" width="18.1" height="6.7"/>
			<path class="st1" d="M19.6,8.2H0V0h19.6V8.2z M1.5,6.7h16.6V1.5H1.5V6.7z"/>
		</g>
		<g>
			<rect x="9" y="7.5" class="st1" width="1.5" height="39.9"/>
		</g>
		<g>
			<rect x="6.7" y="13" class="st1" width="6.1" height="22.1"/>
			<path class="st1" d="M13.5,35.8H5.9V12.2h7.6V35.8z M7.4,34.3H12V13.7H7.4V34.3z"/>
		</g>
	</g>
</g>
</svg>
