<?xml version="1.0" encoding="utf-8"?>
<!-- Generator: Adobe Illustrator 24.3.0, SVG Export Plug-In . SVG Version: 6.00 Build 0)  -->
<svg version="1.1" id="Layer_1" xmlns="http://www.w3.org/2000/svg" xmlns:xlink="http://www.w3.org/1999/xlink" x="0px" y="0px"
	 viewBox="0 0 65.7 48.8" style="enable-background:new 0 0 65.7 48.8;" xml:space="preserve">
<style type="text/css">
	.st0{fill:#FFFFFF;}
	.st1{fill:#41C4BF;}
</style>
<g>
	<g>
		<g>
			<rect x="12.8" y="0.8" class="st0" width="16.7" height="7.4"/>
			<path class="st1" d="M30.3,8.9H12.1V0h18.2V8.9z M13.6,7.4h15.2V1.5H13.6V7.4z"/>
		</g>
		<g>
			<rect x="20.4" y="8.4" class="st1" width="1.5" height="40.4"/>
		</g>
		<g>
			<rect x="43.3" y="4.6" class="st1" width="1.5" height="44.1"/>
		</g>
		<g>
			<rect x="17.7" y="13" class="st1" width="6.8" height="15.6"/>
		</g>
		<g>
			<rect x="40.6" y="28.5" class="st1" width="6.8" height="15.6"/>
		</g>
		<g>
			<rect x="17.7" y="27.8" class="st1" width="29.7" height="1.5"/>
		</g>
		<g>
			<rect x="35.4" y="0.9" class="st0" width="17.2" height="7.4"/>
			<path class="st1" d="M53.4,9.1H34.7V0.2h18.7V9.1z M36.2,7.6h15.7V1.7H36.2V7.6z"/>
		</g>
	</g>
	<g>
		<g>
			<path class="st1" d="M65.4,25.5c-1,0-4.3-0.4-5.4-5.5c-0.7-3.1-0.3-5.6,0-8c0.2-1.2,0.4-2.5,0.4-3.9c0.1-2-0.4-3.4-1.3-4.2
				c-1.3-1.1-3.1-0.7-3.1-0.7l-0.3-1.5c0.1,0,2.5-0.5,4.3,1.1C61.4,3.9,62,5.7,62,8.2c0,1.5-0.3,2.8-0.5,4.1
				c-0.4,2.4-0.7,4.6-0.1,7.4c1,4.6,4,4.3,4.1,4.3l0.2,1.5C65.7,25.5,65.6,25.5,65.4,25.5z"/>
		</g>
		<g>
			<path class="st1" d="M56.7,47.9c-0.6,0-0.9-0.1-1-0.1l0.3-1.5c0,0,1.8,0.3,3.1-0.7c0.9-0.8,1.4-2.2,1.3-4.2
				c0-1.4-0.2-2.7-0.4-3.9c-0.4-2.4-0.8-4.9,0-8c1.3-6,5.7-5.5,5.7-5.5l-0.2,1.5c-0.1,0-3-0.3-4.1,4.3c-0.7,2.8-0.3,5.1,0.1,7.4
				c0.2,1.3,0.4,2.6,0.5,4.1c0.1,2.5-0.6,4.3-1.9,5.4C59,47.7,57.6,47.9,56.7,47.9z"/>
		</g>
	</g>
	<g>
		<g>
			<path class="st1" d="M0.3,25.5c-0.2,0-0.3,0-0.3,0L0.2,24c0.1,0,2.9,0.3,4-4.3c0.7-2.8,0.3-5.1-0.1-7.4C3.9,11,3.7,9.6,3.7,8.2
				C3.6,5.7,4.2,3.9,5.5,2.8c1.8-1.5,4.2-1.1,4.3-1.1L9.6,3.2c0,0-1.8-0.3-3.1,0.7C5.5,4.7,5.1,6.1,5.2,8.1c0,1.4,0.2,2.7,0.4,3.9
				c0.4,2.4,0.8,4.9,0,8C4.5,25.1,1.3,25.5,0.3,25.5z"/>
		</g>
		<g>
			<path class="st1" d="M8.9,47.9c-0.9,0-2.2-0.2-3.4-1.1c-1.3-1.1-1.9-2.9-1.9-5.4c0-1.5,0.3-2.8,0.5-4.1c0.4-2.4,0.7-4.6,0.1-7.4
				c-1-4.7-3.9-4.3-4-4.3L0,24c0,0,4.3-0.5,5.6,5.5c0.7,3.1,0.3,5.6,0,8c-0.2,1.2-0.4,2.5-0.4,3.9c-0.1,2,0.4,3.4,1.3,4.2
				c1.2,1.1,3,0.7,3.1,0.7l0.3,1.5C9.8,47.8,9.4,47.9,8.9,47.9z"/>
		</g>
	</g>
</g>
</svg>
