<?xml version="1.0" encoding="utf-8"?>
<!-- Generator: Adobe Illustrator 27.1.1, SVG Export Plug-In . SVG Version: 6.00 Build 0)  -->
<svg version="1.1" id="Layer_1" xmlns="http://www.w3.org/2000/svg" xmlns:xlink="http://www.w3.org/1999/xlink" x="0px" y="0px"
	 viewBox="0 0 628.75 246.77" style="enable-background:new 0 0 628.75 246.77;" xml:space="preserve">
<style type="text/css">
	.st0{fill:#FF7300;}
	.st1{fill-rule:evenodd;clip-rule:evenodd;fill:#FF7300;}
	.st2{fill:#FFFFFF;}
</style>
<g>
	<polygon class="st0" points="232.71,11.83 179.74,147.03 126.49,2.44 70.05,146.71 21.9,11.83 0,11.83 69.19,201.25 125.96,56.98 
		179.15,201.41 254.61,11.83 	"/>
	<path class="st0" d="M339.27,108.07c-8.83-7.22-55.11-31.26-61.06-35.42c-5.93-4.14-8.91-10.18-8.91-18.1
		c0-7.94,3.02-14.38,9.05-19.32c6.03-4.98,13.37-7.44,22.02-7.44c5.57,0,10.34,1.07,14.31,3.25c3.96,2.17,7.75,5.69,11.34,10.55
		l1.9,2.95c0.53,0.38,1.27,1.28,2.17,2.7l15.94-10.26c-5.23-9.19-11.75-16.17-19.6-20.95c-7.83-4.77-16.25-7.16-25.25-7.16
		c-15.32,0-27.85,4.31-37.58,12.97c-9.72,8.65-14.57,19.75-14.57,33.26c0,12.78,4.39,22.65,13.22,29.57
		c8.84,6.93,52.87,29.79,59.72,34.48c6.85,4.67,10.26,11.61,10.26,20.8c0,10.45-3.44,19.13-10.39,26.05
		c-6.94,6.96-15.73,10.41-26.34,10.41c-9.36,0-17.11-2.88-23.23-8.65c-6.13-5.77-10.46-14.03-12.98-24.84l-19.46,5.95
		c1.7,7.29,4.17,13.79,7.38,19.46c3.29,5.78,7.37,10.68,12.22,14.7c9.63,8.03,21.84,12.04,36.62,12.04
		c15.67,0,28.98-5.38,39.99-16.09c10.98-10.72,16.47-23.82,16.47-39.33C352.51,125.8,348.1,115.26,339.27,108.07z"/>
	<path d="M566.14,95.67c4.54-1.29,9.36-1.94,14.52-1.94c13.73,0,24.84,4.44,33.31,13.32c8.5,8.84,12.77,19.29,12.77,31.33
		c0,8.46-2.04,16.39-6.11,23.8c-4.05,7.4-11.93,17.46-23.65,30.09l-37.14,40.09h68.91v14.42H527.37l57.04-61.6
		c11.56-12.41,19.09-21.59,22.58-27.58c3.5-5.97,5.23-12.29,5.23-18.9c0-8.4-3.12-15.63-9.4-21.68c-6.25-6.04-13.92-9.08-23-9.08
		c-5.19,0-9.9,0.94-14.15,2.82C566.05,107.14,566.19,97.02,566.14,95.67z"/>
	<g>
		<ellipse class="st1" cx="457.12" cy="101.92" rx="84" ry="84.9"/>
		<path class="st2" d="M542.95,95.46l-33.75,0.07l-14.83,26.69l-37.01-90.23l-33.3,74.12l-53.94-0.1c0.2,4.08,0.69,8.09,1.45,11.99
			l60.23,0.12l25.05-55.75l35.88,87.47l23.53-42.33l26.76-0.06c0.12-1.83,0.2-3.67,0.2-5.52C543.22,99.74,543.11,97.59,542.95,95.46
			z"/>
		<path d="M457.12,0c-56.45,0-102.2,45.63-102.2,101.92s45.76,101.92,102.2,101.92c56.45,0,102.2-45.63,102.2-101.92
			S513.57,0,457.12,0z M457.12,184.9c-45.34,0-82.1-37.15-82.1-82.98s36.76-82.98,82.1-82.98s82.1,37.15,82.1,82.98
			S502.46,184.9,457.12,184.9z"/>
	</g>
</g>
</svg>
