<?xml version="1.0" encoding="utf-8"?>
<!-- Generator: Adobe Illustrator 16.0.0, SVG Export Plug-In . SVG Version: 6.00 Build 0)  -->
<!DOCTYPE svg PUBLIC "-//W3C//DTD SVG 1.1//EN" "http://www.w3.org/Graphics/SVG/1.1/DTD/svg11.dtd">
<svg version="1.1" id="Layer_1" xmlns="http://www.w3.org/2000/svg" xmlns:xlink="http://www.w3.org/1999/xlink" x="0px" y="0px"
	 width="30px" height="30px" viewBox="0 0 30 30" enable-background="new 0 0 30 30" xml:space="preserve">
<g>
	<path fill="#A7A8AB" d="M21.327,27.74c-2.275,1.2-4.591,1.655-7.362,1.655c-6.785,0-12.532-4.965-12.532-12.903
		c0-8.524,5.915-15.887,15.096-15.887c7.198,0,12.039,5.048,12.039,11.956c0,6.205-3.475,9.843-7.362,9.843
		c-1.653,0-3.188-1.117-3.061-3.639h-0.169c-1.447,2.44-3.35,3.639-5.831,3.639c-2.397,0-4.469-1.942-4.469-5.211
		c0-5.13,4.055-9.803,9.805-9.803c1.779,0,3.352,0.373,4.428,0.869L20.5,15.746c-0.62,3.144-0.125,4.591,1.241,4.632
		c2.11,0.041,4.465-2.771,4.465-7.568c0-5.998-3.597-10.3-10.007-10.3c-6.742,0-12.41,5.335-12.41,13.731
		c0,6.909,4.51,11.167,10.629,11.167c2.358,0,4.553-0.494,6.247-1.446L21.327,27.74z M19.052,9.872
		c-0.411-0.125-1.115-0.29-2.067-0.29c-3.639,0-6.575,3.433-6.575,7.446c0,1.818,0.909,3.144,2.729,3.144
		c2.399,0,4.589-3.062,5.046-5.627L19.052,9.872z"/>
</g>
</svg>
