<?xml version="1.0" encoding="utf-8"?>
<!-- Generator: Adobe Illustrator 16.0.0, SVG Export Plug-In . SVG Version: 6.00 Build 0)  -->
<!DOCTYPE svg PUBLIC "-//W3C//DTD SVG 1.1//EN" "http://www.w3.org/Graphics/SVG/1.1/DTD/svg11.dtd">
<svg version="1.1" id="Layer_1" xmlns="http://www.w3.org/2000/svg" xmlns:xlink="http://www.w3.org/1999/xlink" x="0px" y="0px"
	 width="30px" height="30px" viewBox="0 0 30 30" enable-background="new 0 0 30 30" xml:space="preserve">
<g>
	<path fill="#23B8B1" d="M20.891,27.903c-2.314,1.221-4.671,1.684-7.49,1.684c-6.903,0-12.75-5.05-12.75-13.129
		c0-8.67,6.018-16.161,15.358-16.161c7.324,0,12.247,5.134,12.247,12.162c0,6.312-3.533,10.015-7.49,10.015
		c-1.682,0-3.243-1.137-3.113-3.703h-0.171c-1.473,2.482-3.408,3.703-5.933,3.703c-2.44,0-4.547-1.978-4.547-5.302
		c0-5.219,4.125-9.974,9.975-9.974c1.811,0,3.41,0.378,4.505,0.883l-1.433,7.617c-0.631,3.198-0.126,4.671,1.264,4.714
		c2.146,0.041,4.543-2.819,4.543-7.701c0-6.102-3.659-10.478-10.182-10.478c-6.859,0-12.626,5.428-12.626,13.97
		c0,7.028,4.588,11.361,10.814,11.361c2.398,0,4.63-0.504,6.354-1.472L20.891,27.903z M18.576,9.724
		c-0.419-0.127-1.135-0.295-2.104-0.295c-3.702,0-6.69,3.494-6.69,7.575c0,1.852,0.925,3.198,2.777,3.198
		c2.44,0,4.669-3.114,5.134-5.723L18.576,9.724z"/>
</g>
</svg>
