<?xml version="1.0" encoding="utf-8"?>
<!-- Generator: Adobe Illustrator 16.0.0, SVG Export Plug-In . SVG Version: 6.00 Build 0)  -->
<!DOCTYPE svg PUBLIC "-//W3C//DTD SVG 1.1//EN" "http://www.w3.org/Graphics/SVG/1.1/DTD/svg11.dtd">
<svg version="1.1" id="Layer_1" xmlns="http://www.w3.org/2000/svg" xmlns:xlink="http://www.w3.org/1999/xlink" x="0px" y="0px"
	 width="26.03px" height="26.03px" viewBox="0 0 26.03 26.03" enable-background="new 0 0 26.03 26.03" xml:space="preserve">
<path fill="#CACACA" d="M16.135,13.016l9.25-9.251c0.862-0.861,0.862-2.257,0-3.118c-0.86-0.861-2.257-0.861-3.117,0l-9.251,9.251
	L3.766,0.646c-0.861-0.861-2.258-0.861-3.119,0c-0.86,0.861-0.86,2.257,0,3.118l9.251,9.251l-9.251,9.251
	c-0.86,0.861-0.86,2.257,0,3.118c0.861,0.861,2.258,0.861,3.119,0l9.251-9.251l9.251,9.251c0.86,0.861,2.257,0.861,3.117,0
	c0.862-0.861,0.862-2.257,0-3.118L16.135,13.016z"/>
</svg>
