<?xml version="1.0" encoding="utf-8"?>
<!-- Generator: Adobe Illustrator 26.0.1, SVG Export Plug-In . SVG Version: 6.00 Build 0)  -->
<svg version="1.1" id="Layer_1" xmlns="http://www.w3.org/2000/svg" xmlns:xlink="http://www.w3.org/1999/xlink" x="0px" y="0px"
	 viewBox="0 0 15.4 15.4" style="enable-background:new 0 0 15.4 15.4;" xml:space="preserve">
<style type="text/css">
	.st0{fill:#595B5F;}
</style>
<path class="st0" d="M7.7,0.5c-4.1,0-7.4,3.3-7.5,7.4c0,3.2,2,6.1,5.1,7.1c0.4,0,0.5-0.2,0.5-0.4v-1.3c-2,0.4-2.5-1-2.5-1
	c-0.1-0.5-0.4-0.8-0.8-1.1c-0.7-0.4,0-0.4,0-0.4c0.5,0.1,0.9,0.4,1.1,0.8C4,12.3,5,12.6,5.8,12.2c0-0.4,0.2-0.7,0.5-1
	C4.6,11,2.9,10.3,2.9,7.5c0-0.7,0.3-1.5,0.8-2C3.5,4.8,3.5,4.2,3.8,3.5c0,0,0.6-0.2,2,0.8C6.4,4.2,7,4.1,7.7,4.1
	c0.6,0,1.3,0.1,1.9,0.2c1.4-1,2.1-0.8,2.1-0.8c0.3,0.6,0.3,1.3,0.1,2c0.5,0.5,0.8,1.3,0.8,2c0,2.9-1.7,3.5-3.4,3.7
	c0.4,0.4,0.5,0.9,0.5,1.4v2.1c0,0.2,0.1,0.4,0.5,0.4c3.9-1.2,6.1-5.4,4.9-9.3C14,2.5,11,0.4,7.7,0.5z"/>
</svg>
