<?xml version="1.0" encoding="utf-8"?>
<!-- Generator: Adobe Illustrator 16.0.0, SVG Export Plug-In . SVG Version: 6.00 Build 0)  -->
<!DOCTYPE svg PUBLIC "-//W3C//DTD SVG 1.1//EN" "http://www.w3.org/Graphics/SVG/1.1/DTD/svg11.dtd">
<svg version="1.1" id="Layer_1" xmlns="http://www.w3.org/2000/svg" xmlns:xlink="http://www.w3.org/1999/xlink" x="0px" y="0px"
	 width="30px" height="30px" viewBox="0 0 30 30" enable-background="new 0 0 30 30" xml:space="preserve">
<path fill="#23B8B1" d="M15,29.648c-8.078,0-14.649-6.57-14.649-14.648C0.351,6.924,6.922,0.351,15,0.351
	c8.076,0,14.648,6.573,14.648,14.649C29.648,23.078,23.076,29.648,15,29.648 M15,2.268C7.98,2.268,2.268,7.98,2.268,15
	c0,7.023,5.712,12.732,12.732,12.732c7.018,0,12.732-5.709,12.732-12.732C27.732,7.98,22.018,2.268,15,2.268"/>
<path fill="#23B8B1" d="M15,29.648c-4.702,0-8.38-6.434-8.38-14.648c0-8.213,3.679-14.649,8.38-14.649
	c4.699,0,8.381,6.436,8.381,14.649C23.381,23.215,19.699,29.648,15,29.648 M15,2.268C11.496,2.268,8.537,8.1,8.537,15
	c0,6.902,2.959,12.732,6.463,12.732s6.463-5.83,6.463-12.732C21.463,8.1,18.504,2.268,15,2.268"/>
<rect x="0.451" y="14.042" fill="#23B8B1" width="29.094" height="1.917"/>
<rect x="14.042" y="0.738" fill="#23B8B1" width="1.917" height="28.524"/>
</svg>
