<?xml version="1.0" encoding="utf-8"?>
<!-- Generator: Adobe Illustrator 16.0.0, SVG Export Plug-In . SVG Version: 6.00 Build 0)  -->
<!DOCTYPE svg PUBLIC "-//W3C//DTD SVG 1.1//EN" "http://www.w3.org/Graphics/SVG/1.1/DTD/svg11.dtd">
<svg version="1.1" id="Layer_1" xmlns="http://www.w3.org/2000/svg" xmlns:xlink="http://www.w3.org/1999/xlink" x="0px" y="0px"
	 width="256px" height="256px" viewBox="0 0 256 256" style="enable-background:new 0 0 256 256;" xml:space="preserve">
<style type="text/css">
<![CDATA[
	.st0{fill-rule:evenodd;clip-rule:evenodd;fill:#20B6B0;}
]]>
</style>
<path class="st0" d="M230.2,17c-68.5,0.1-137,0.1-205.5,0c-4.6,0-5.8,1.2-5.7,5.8c0.2,55.3,0.2,110.6,0,166c0,4.7,1.4,5.7,5.8,5.6
	c45.8-0.2,91.7-0.1,137.5-0.1c3,0,5.3,0.7,7.6,2.7c8.2,7.3,16.7,14.3,25,21.5c13.1,11.3,26.3,22.5,40.3,34.6c0.1-2.4,0.2-3.7,0.2-5
	c0-75.3,0-150.6,0.1-226C235.6,17.7,234.1,17,230.2,17z M127.4,56.4c10.7,0.1,19.8,9.3,19.6,19.9c-0.1,10.6-8.9,19.2-19.6,19.3
	c-10.9,0.1-19.9-8.8-19.9-19.5C107.7,65.3,116.8,56.3,127.4,56.4z M78.2,142.2c0.2,2.6-1.2,3-3.4,3c-7.7-0.1-15.3-0.2-23,0
	c-3.2,0.1-3.7-1.4-3.3-4c0.5-3.9,2.8-6.7,5.8-8.9c8.1-5.8,17.1-6.8,27.1-4.7C78.8,132.3,77.7,137.1,78.2,142.2z M73.2,115.4
	c-8.1,0-14.6-6.4-14.8-14.4c-0.2-8.2,6.5-14.9,14.8-14.9c8.3,0,15,6.7,14.8,14.8C87.8,108.9,81.1,115.4,73.2,115.4z M159.3,145.1
	c-10.6,0-21.3,0-31.9,0c-11.6,0-23.3-0.1-34.9,0.1c-3.5,0.1-4.4-1.1-4.5-4.5c-0.1-7,3.7-11.7,8.6-15.5c11-8.6,23.7-10.7,37.2-9.3
	c11.8,1.2,22.4,5,29.8,15c1.2,1.6,2.2,3.3,2.7,5.3C168.1,143.6,166.9,145.1,159.3,145.1z M166.7,101c-0.2-8.2,6.4-14.9,14.7-15
	c8.3,0,15,6.6,14.9,14.7c-0.1,8-6.6,14.5-14.7,14.5C173.6,115.4,166.9,109,166.7,101z M205.9,143.9c-1.1,2.4-3.9,1.1-5.9,1.1
	c-6.7,0.1-13.3,0-20,0.1c-2.4,0-3.9-0.4-3.6-3.3c0.5-4.9-0.7-9.6-3.2-14.3c9.7-2,18.2-1,26.1,4c2.1,1.4,3.9,3.1,5.2,5.3
	C206,139,207,141.6,205.9,143.9z"/>
</svg>
