<?xml version="1.0" encoding="utf-8"?>
<!-- Generator: Adobe Illustrator 21.1.0, SVG Export Plug-In . SVG Version: 6.00 Build 0)  -->
<svg version="1.1" id="Layer_1" xmlns="http://www.w3.org/2000/svg" xmlns:xlink="http://www.w3.org/1999/xlink" x="0px" y="0px"
	 viewBox="0 0 3839.5 177.5" style="enable-background:new 0 0 3839.5 177.5;" xml:space="preserve">
<style type="text/css">
	.st0{clip-path:url(#SVGID_2_);}
	.st1{fill:none;stroke:#FFFFFF;stroke-width:0.7959;stroke-linejoin:round;stroke-miterlimit:10;}
	.st2{fill:none;stroke:#FFFFFF;stroke-width:0.7959;stroke-linecap:round;stroke-linejoin:round;stroke-miterlimit:10;}
	.st3{fill:none;stroke:#FFFFFF;stroke-width:1.1496;stroke-linejoin:round;stroke-miterlimit:10;}
</style>
<g id="Layer_1_1_">
</g>
<g>
	<defs>
		<rect id="SVGID_1_" width="3839.5" height="177.5"/>
	</defs>
	<clipPath id="SVGID_2_">
		<use xlink:href="#SVGID_1_"  style="overflow:visible;"/>
	</clipPath>
	<g class="st0">
		<g>
			<g>
				<g>
					<g>
						<g>
							<g>
								<g>
									<polyline class="st1" points="1786.1,196 1573.5,28.5 1425.4,128.5 1482.8,145.6 1959.3,158.2 1797.6,24.9 1482.8,145.6 
																			"/>
									<polygon class="st2" points="1381.6,247.2 1425.4,128.5 1389.4,41 									"/>
									<polygon class="st1" points="1482.8,145.6 1667.3,35.3 1576.2,224.4 									"/>
									<polygon class="st2" points="1236.5,114.2 1389.4,41 1267.2,245.5 									"/>
								</g>
								<polygon class="st1" points="1425.4,128.5 1236.5,114.2 1236.5,114.2 1277.3,5.6 								"/>
								<polyline class="st1" points="1667.3,35.3 1786.1,196 1797.6,24.9 								"/>
								<g>
									<polyline class="st1" points="2582.6,106.5 2452.9,80.2 2314.1,219.7 2233.8,133.5 2320.5,138.9 2582.6,106.5 
										2569.2,246.9 2320.5,138.9 									"/>
									<polygon class="st1" points="2120.7,86.3 2233.8,133.5 2164.8,204.2 									"/>
									<polygon class="st1" points="2043,145.7 2349.3,223.7 2263,76.6 									"/>
								</g>
								<polygon class="st2" points="2043,145.7 1947.3,64.1 1993.9,231.5 2021.3,267.5 								"/>
								<polygon class="st2" points="1576.2,224.4 1959.3,158.2 1947.3,64.1 								"/>
							</g>
						</g>
					</g>
					<g>
						<g>
							<g>
								<g>
									<g>
										<g>
											<polyline class="st1" points="612.3,64.5 629.2,130.5 773.5,196.4 1021,11.9 1134.3,128.9 1024.9,115.2 629.2,130.5 
												762,25.3 1024.9,115.2 											"/>
											<path class="st2" d="M1177.6,236.4l-7.4-195l-36,87.5l39.5,106.9C1175,236,1176.3,236.2,1177.6,236.4z"/>
											<polygon class="st1" points="1134.3,128.9 892.3,35.7 983.4,224.8 											"/>
											<polygon class="st2" points="1236.5,114.2 1170.2,41.4 1177.6,236.4 											"/>
										</g>
										<polyline class="st1" points="892.3,35.7 805.9,172.3 762,25.3 										"/>
										<g>
											<polyline class="st1" points="-23,106.9 106.7,80.5 245.6,220.1 325.9,133.9 239.1,139.3 -23,106.9 -13.4,206.7 
												239.1,139.3 											"/>
											<polygon class="st1" points="395.7,53.8 325.9,133.9 521.2,168 											"/>
											<polygon class="st1" points="240.6,139.3 117,210.3 296.7,77 											"/>
											<polygon class="st1" points="612.3,64.5 231,234.8 296.7,77 											"/>
										</g>
										<polygon class="st1" points="521.2,168 612.3,64.5 565.7,231.9 538.3,267.9 										"/>
										<polyline class="st3" points="117,210.3 -22.1,108.3 -13.4,206.7 										"/>
										<polygon class="st1" points="805.9,172.3 565.7,231.9 612.3,64.5 										"/>
									</g>
								</g>
							</g>
							<g id="Layer_2">
								<g>
									<g>
										<g>
											<g>
												<g>
													<polyline class="st1" points="3188.8,130.4 3333.2,196.3 3580.7,11.8 3693.9,128.8 3584.5,115.1 3188.8,130.4 
														3321.7,25.2 3584.5,115.1 													"/>
													<polygon class="st2" points="3639.3,177.6 3693.9,128.8 3729.9,41.3 													"/>
													<polygon class="st1" points="3661,194 3452,35.5 3543.1,224.6 													"/>
													<polygon class="st2" points="3882.8,114.4 3729.9,41.3 3852.1,245.8 													"/>
												</g>
												<polygon class="st1" points="3693.9,128.8 3868.9,173.7 3872.2,35.5 3844,-1.7 												"/>
												<polyline class="st1" points="3452,35.5 3385.2,167 3321.7,25.2 												"/>
												<g>
													<polyline class="st1" points="2573.1,206.3 2666.4,80.4 2805.2,220 2885.5,133.8 2831.2,137.2 2580.2,132 
														2546.2,206.6 2811.9,75.4 													"/>
													<polygon class="st1" points="2955.4,53.6 2885.5,133.8 2954.5,204.4 													"/>
													<polygon class="st1" points="2831.2,137.2 2676.6,210.2 2811.9,75.4 													"/>
													<polygon class="st1" points="3160.1,158.5 2790.7,234.7 2856.3,76.9 													"/>
												</g>
												<polygon class="st1" points="3065.5,180.5 3172,64.3 2856.3,76.9 3098,267.8 												"/>
												<polygon class="st1" points="3358.2,181.2 3160.1,158.5 3172,64.3 												"/>
											</g>
										</g>
									</g>
								</g>
							</g>
						</g>
					</g>
				</g>
			</g>
		</g>
	</g>
</g>
</svg>
