<?xml version="1.0" encoding="utf-8"?>
<!-- Generator: Adobe Illustrator 16.0.4, SVG Export Plug-In . SVG Version: 6.00 Build 0)  -->
<!DOCTYPE svg PUBLIC "-//W3C//DTD SVG 1.0//EN" "http://www.w3.org/TR/2001/REC-SVG-20010904/DTD/svg10.dtd">
<svg version="1.0" id="Layer_1" xmlns="http://www.w3.org/2000/svg" xmlns:xlink="http://www.w3.org/1999/xlink" x="0px" y="0px"
	 width="452.664px" height="497px" viewBox="0 0 452.664 497" enable-background="new 0 0 452.664 497" xml:space="preserve">
<rect x="-5.336" y="-4" fill="#F5F6F6" width="464" height="506"/>
<g>
	<g>
		<g>
			<line fill="none" stroke="#585A5E" stroke-miterlimit="10" x1="80.968" y1="187.955" x2="219.115" y2="187.955"/>
			<g>
				<polygon fill="#585A5E" points="218.094,191.445 224.139,187.955 218.094,184.465 				"/>
			</g>
		</g>
	</g>
	<g>
		<g>
			<line fill="none" stroke="#585A5E" stroke-miterlimit="10" x1="224.139" y1="312.186" x2="85.991" y2="312.186"/>
			<g>
				<polygon fill="#585A5E" points="87.013,308.695 80.968,312.186 87.013,315.676 				"/>
			</g>
		</g>
	</g>
</g>
<g>
	<g>
		<g>
			<g>
				<path fill="#696C71" d="M128.01,175.299h-0.963v3.236h-1.352v-7.981h3.081c0.841,0,1.504,0.206,1.989,0.618
					c0.485,0.411,0.729,1.002,0.729,1.773c0,0.659-0.181,1.182-0.54,1.566c-0.36,0.387-0.86,0.631-1.501,0.734l2.313,3.289h-1.534
					L128.01,175.299z M127.047,171.724v2.444h1.703c0.442,0,0.787-0.111,1.034-0.332s0.37-0.518,0.37-0.891
					c0-0.372-0.123-0.669-0.37-0.891c-0.247-0.221-0.592-0.331-1.034-0.331H127.047z"/>
				<path fill="#696C71" d="M133.561,170.554h5.213v1.196h-3.887v2.105h3.522v1.184h-3.522v2.287h3.887v1.209h-5.213V170.554z"/>
				<path fill="#696C71" d="M146.469,179.068l-0.649-0.806c-0.512,0.269-1.07,0.403-1.677,0.403c-1.075,0-1.957-0.389-2.646-1.164
					c-0.688-0.775-1.033-1.762-1.033-2.957c0-1.196,0.345-2.182,1.033-2.958c0.689-0.775,1.571-1.163,2.646-1.163
					c1.074,0,1.959,0.388,2.652,1.163c0.693,0.776,1.039,1.762,1.039,2.958c0,1.222-0.368,2.223-1.104,3.003l0.663,0.819
					L146.469,179.068z M146.469,174.545c0-0.85-0.214-1.547-0.643-2.094c-0.43-0.545-0.99-0.818-1.684-0.818
					s-1.253,0.271-1.678,0.812c-0.424,0.541-0.637,1.241-0.637,2.1c0,0.857,0.213,1.558,0.637,2.1
					c0.425,0.541,0.984,0.812,1.678,0.812c0.329,0,0.633-0.053,0.91-0.156l-0.664-0.819l0.937-0.688l0.638,0.793
					C146.301,176.083,146.469,175.402,146.469,174.545z"/>
				<path fill="#696C71" d="M155.212,177.814c-0.577,0.567-1.354,0.852-2.333,0.852c-0.98,0-1.758-0.284-2.334-0.852
					c-0.576-0.568-0.865-1.389-0.865-2.464v-4.797h1.353v4.653c0,1.5,0.615,2.25,1.847,2.25c1.23,0,1.846-0.75,1.846-2.25v-4.653
					h1.352v4.81C156.076,176.43,155.788,177.246,155.212,177.814z"/>
				<path fill="#696C71" d="M158.363,170.554h5.214v1.196h-3.888v2.105h3.523v1.184h-3.523v2.287h3.888v1.209h-5.214V170.554z"/>
				<path fill="#696C71" d="M165.072,176.326h1.378c0.251,0.797,0.854,1.195,1.807,1.195c0.468,0,0.843-0.105,1.124-0.318
					c0.282-0.213,0.424-0.5,0.424-0.864c0-0.286-0.09-0.514-0.268-0.683s-0.475-0.301-0.891-0.396l-1.352-0.325
					c-1.326-0.312-1.988-1.026-1.988-2.146c0-0.684,0.253-1.25,0.76-1.695c0.508-0.447,1.159-0.67,1.957-0.67
					c0.84,0,1.519,0.197,2.034,0.592s0.847,0.934,0.995,1.618H169.7c-0.251-0.71-0.806-1.065-1.664-1.065
					c-0.434,0-0.782,0.102-1.046,0.305c-0.266,0.203-0.397,0.471-0.397,0.8c0,0.528,0.351,0.876,1.054,1.04l1.391,0.324
					c0.65,0.148,1.156,0.408,1.521,0.781c0.363,0.372,0.545,0.849,0.545,1.43c0,0.736-0.264,1.324-0.793,1.762
					c-0.528,0.438-1.213,0.656-2.054,0.656c-0.849,0-1.558-0.206-2.126-0.617C165.564,177.637,165.211,177.062,165.072,176.326z"/>
				<path fill="#696C71" d="M172.6,171.75v-1.196h6.655v1.196h-2.651v6.785h-1.353v-6.785H172.6z"/>
			</g>
		</g>
	</g>
</g>
<g>
	<g>
		<g>
			<g>
				<path fill="#696C71" d="M249.637,241.655h-1.729v2.977h-1.353v-7.982h3.081c0.841,0,1.506,0.217,1.996,0.65
					c0.489,0.434,0.734,1.053,0.734,1.859c0,0.797-0.245,1.412-0.734,1.846C251.143,241.438,250.478,241.655,249.637,241.655z
					 M251.028,239.159c0-0.407-0.122-0.732-0.364-0.976c-0.243-0.242-0.594-0.363-1.053-0.363h-1.703v2.664h1.703
					c0.45,0,0.799-0.121,1.046-0.363C250.904,239.878,251.028,239.558,251.028,239.159z"/>
				<path fill="#696C71" d="M260.193,237.684c0.693,0.775,1.04,1.762,1.04,2.957c0,1.196-0.347,2.183-1.04,2.958
					s-1.577,1.163-2.652,1.163c-1.074,0-1.956-0.388-2.646-1.163c-0.688-0.775-1.033-1.762-1.033-2.958
					c0-1.195,0.345-2.182,1.033-2.957c0.689-0.775,1.571-1.164,2.646-1.164C258.616,236.52,259.5,236.908,260.193,237.684z
					 M259.225,242.733c0.429-0.546,0.644-1.243,0.644-2.093c0-0.849-0.215-1.547-0.644-2.093s-0.99-0.819-1.684-0.819
					s-1.252,0.271-1.677,0.812c-0.425,0.542-0.637,1.242-0.637,2.1c0,0.858,0.212,1.559,0.637,2.1
					c0.425,0.542,0.983,0.812,1.677,0.812S258.796,243.28,259.225,242.733z"/>
				<path fill="#696C71" d="M262.598,242.422h1.378c0.252,0.798,0.854,1.196,1.808,1.196c0.468,0,0.843-0.106,1.124-0.318
					c0.281-0.213,0.423-0.501,0.423-0.865c0-0.286-0.089-0.514-0.267-0.683s-0.475-0.301-0.891-0.396l-1.352-0.324
					c-1.326-0.312-1.989-1.027-1.989-2.146c0-0.685,0.253-1.25,0.761-1.696c0.507-0.446,1.158-0.67,1.956-0.67
					c0.841,0,1.519,0.197,2.034,0.592s0.848,0.934,0.995,1.618h-1.353c-0.251-0.71-0.806-1.065-1.664-1.065
					c-0.433,0-0.782,0.102-1.046,0.306c-0.265,0.203-0.396,0.47-0.396,0.799c0,0.529,0.351,0.876,1.053,1.04l1.391,0.325
					c0.65,0.147,1.157,0.407,1.521,0.78c0.364,0.372,0.546,0.85,0.546,1.43c0,0.737-0.265,1.324-0.793,1.762
					s-1.214,0.656-2.054,0.656c-0.85,0-1.559-0.206-2.126-0.617C263.09,243.732,262.736,243.158,262.598,242.422z"/>
				<path fill="#696C71" d="M270.124,237.846v-1.196h6.656v1.196h-2.652v6.786h-1.352v-6.786H270.124z"/>
				<path fill="#696C71" d="M282.676,244.021c-0.628-0.857-0.942-1.88-0.942-3.067s0.314-2.21,0.942-3.068
					c0.629-0.858,1.476-1.426,2.542-1.703v1.404c-0.65,0.156-1.179,0.537-1.586,1.144c-0.407,0.607-0.611,1.348-0.611,2.224
					c0,0.875,0.204,1.616,0.611,2.223s0.936,0.988,1.586,1.145v1.403C284.151,245.446,283.305,244.879,282.676,244.021z"/>
				<path fill="#696C71" d="M289.325,241.395h-0.962v3.237h-1.353v-7.982h3.081c0.841,0,1.504,0.206,1.989,0.618
					c0.485,0.411,0.728,1.003,0.728,1.774c0,0.658-0.18,1.181-0.539,1.566s-0.86,0.631-1.502,0.734l2.314,3.289h-1.534
					L289.325,241.395z M288.363,237.82v2.443h1.703c0.441,0,0.786-0.11,1.033-0.331c0.247-0.222,0.37-0.518,0.37-0.891
					s-0.123-0.67-0.37-0.891s-0.592-0.331-1.033-0.331H288.363z"/>
				<path fill="#696C71" d="M294.876,236.649h5.213v1.196h-3.887v2.106h3.523v1.183h-3.523v2.288h3.887v1.209h-5.213V236.649z"/>
				<path fill="#696C71" d="M307.785,245.165l-0.65-0.807c-0.511,0.27-1.07,0.403-1.677,0.403c-1.074,0-1.956-0.388-2.646-1.163
					c-0.688-0.775-1.033-1.762-1.033-2.958c0-1.195,0.345-2.182,1.033-2.957c0.689-0.775,1.571-1.164,2.646-1.164
					c1.075,0,1.959,0.389,2.652,1.164s1.04,1.762,1.04,2.957c0,1.223-0.368,2.224-1.105,3.003l0.663,0.819L307.785,245.165z
					 M307.785,240.641c0-0.849-0.215-1.547-0.644-2.093s-0.99-0.819-1.684-0.819s-1.252,0.271-1.677,0.812
					c-0.425,0.542-0.637,1.242-0.637,2.1c0,0.858,0.212,1.559,0.637,2.1c0.425,0.542,0.983,0.812,1.677,0.812
					c0.329,0,0.633-0.052,0.91-0.156l-0.663-0.818l0.937-0.689l0.637,0.793C307.616,242.18,307.785,241.499,307.785,240.641z"/>
				<path fill="#696C71" d="M316.527,243.91c-0.576,0.568-1.354,0.852-2.333,0.852s-1.758-0.283-2.334-0.852
					c-0.576-0.567-0.864-1.389-0.864-2.463v-4.798h1.353v4.654c0,1.5,0.615,2.249,1.846,2.249s1.846-0.749,1.846-2.249v-4.654h1.353
					v4.811C317.393,242.525,317.104,243.343,316.527,243.91z"/>
				<path fill="#696C71" d="M319.68,236.649h5.213v1.196h-3.887v2.106h3.523v1.183h-3.523v2.288h3.887v1.209h-5.213V236.649z"/>
				<path fill="#696C71" d="M326.388,242.422h1.378c0.252,0.798,0.854,1.196,1.808,1.196c0.468,0,0.843-0.106,1.124-0.318
					c0.281-0.213,0.423-0.501,0.423-0.865c0-0.286-0.089-0.514-0.267-0.683s-0.475-0.301-0.891-0.396l-1.352-0.324
					c-1.326-0.312-1.989-1.027-1.989-2.146c0-0.685,0.253-1.25,0.761-1.696c0.507-0.446,1.158-0.67,1.956-0.67
					c0.841,0,1.519,0.197,2.034,0.592s0.848,0.934,0.995,1.618h-1.353c-0.251-0.71-0.806-1.065-1.664-1.065
					c-0.433,0-0.782,0.102-1.046,0.306c-0.265,0.203-0.396,0.47-0.396,0.799c0,0.529,0.351,0.876,1.053,1.04l1.391,0.325
					c0.65,0.147,1.157,0.407,1.521,0.78c0.364,0.372,0.546,0.85,0.546,1.43c0,0.737-0.265,1.324-0.793,1.762
					s-1.214,0.656-2.054,0.656c-0.85,0-1.559-0.206-2.126-0.617C326.88,243.732,326.526,243.158,326.388,242.422z"/>
				<path fill="#696C71" d="M333.914,237.846v-1.196h6.656v1.196h-2.652v6.786h-1.352v-6.786H333.914z"/>
				<path fill="#696C71" d="M344.412,237.885c0.628,0.858,0.942,1.881,0.942,3.068s-0.314,2.21-0.942,3.067
					c-0.629,0.858-1.476,1.426-2.542,1.703v-1.403c0.65-0.156,1.179-0.538,1.586-1.145s0.611-1.348,0.611-2.223
					c0-0.876-0.204-1.616-0.611-2.224c-0.407-0.606-0.936-0.987-1.586-1.144v-1.404
					C342.937,236.459,343.783,237.026,344.412,237.885z"/>
			</g>
		</g>
	</g>
</g>
<g>
	<g>
		<g>
			<g>
				<path fill="#696C71" d="M124.337,326.332h-0.962v3.236h-1.353v-7.982h3.081c0.841,0,1.504,0.207,1.989,0.619
					c0.485,0.41,0.728,1.002,0.728,1.773c0,0.658-0.18,1.182-0.539,1.566c-0.359,0.387-0.86,0.631-1.502,0.734l2.314,3.289h-1.534
					L124.337,326.332z M123.375,322.758v2.443h1.703c0.441,0,0.786-0.111,1.033-0.332s0.37-0.518,0.37-0.891s-0.123-0.67-0.37-0.891
					s-0.592-0.33-1.033-0.33H123.375z"/>
				<path fill="#696C71" d="M129.887,321.586h5.214v1.197h-3.888v2.105h3.523v1.184h-3.523v2.287h3.888v1.209h-5.214V321.586z"/>
				<path fill="#696C71" d="M136.596,327.359h1.378c0.251,0.797,0.854,1.195,1.807,1.195c0.468,0,0.843-0.105,1.124-0.318
					c0.282-0.213,0.424-0.5,0.424-0.865c0-0.285-0.09-0.514-0.268-0.682c-0.178-0.17-0.475-0.301-0.891-0.396l-1.352-0.324
					c-1.326-0.312-1.988-1.027-1.988-2.146c0-0.684,0.253-1.25,0.76-1.695c0.508-0.447,1.159-0.67,1.957-0.67
					c0.84,0,1.519,0.197,2.034,0.592s0.847,0.934,0.995,1.617h-1.353c-0.251-0.709-0.806-1.064-1.664-1.064
					c-0.434,0-0.782,0.102-1.046,0.305c-0.266,0.203-0.397,0.471-0.397,0.799c0,0.529,0.351,0.877,1.054,1.041l1.391,0.324
					c0.65,0.148,1.156,0.408,1.521,0.781c0.363,0.371,0.545,0.85,0.545,1.43c0,0.736-0.264,1.324-0.793,1.762
					c-0.528,0.438-1.213,0.656-2.054,0.656c-0.849,0-1.558-0.207-2.126-0.617C137.088,328.67,136.734,328.096,136.596,327.359z"/>
				<path fill="#696C71" d="M147.697,326.592h-1.729v2.977h-1.353v-7.982h3.081c0.841,0,1.506,0.217,1.996,0.65
					c0.489,0.434,0.734,1.053,0.734,1.859c0,0.797-0.245,1.412-0.734,1.846C149.203,326.375,148.538,326.592,147.697,326.592z
					 M149.088,324.096c0-0.406-0.121-0.732-0.363-0.975c-0.243-0.242-0.594-0.363-1.053-0.363h-1.703v2.664h1.703
					c0.45,0,0.799-0.121,1.046-0.363C148.965,324.814,149.088,324.494,149.088,324.096z"/>
				<path fill="#696C71" d="M158.254,322.621c0.693,0.775,1.039,1.762,1.039,2.957s-0.346,2.182-1.039,2.957
					s-1.578,1.164-2.652,1.164c-1.075,0-1.957-0.389-2.646-1.164c-0.688-0.775-1.033-1.762-1.033-2.957s0.345-2.182,1.033-2.957
					c0.689-0.775,1.571-1.164,2.646-1.164C156.676,321.457,157.561,321.846,158.254,322.621z M157.285,327.67
					c0.429-0.545,0.643-1.242,0.643-2.092s-0.214-1.547-0.643-2.094c-0.43-0.545-0.99-0.818-1.684-0.818s-1.253,0.271-1.678,0.812
					c-0.424,0.541-0.637,1.242-0.637,2.1s0.213,1.559,0.637,2.1c0.425,0.541,0.984,0.812,1.678,0.812
					S156.855,328.217,157.285,327.67z"/>
				<path fill="#696C71" d="M167.705,321.586v7.982h-1.041l-4.082-5.811v5.811h-1.3v-7.982h1.274l3.848,5.539v-5.539H167.705z"/>
				<path fill="#696C71" d="M169.498,327.359h1.379c0.25,0.797,0.854,1.195,1.807,1.195c0.468,0,0.842-0.105,1.124-0.318
					s0.423-0.5,0.423-0.865c0-0.285-0.09-0.514-0.267-0.682c-0.178-0.17-0.475-0.301-0.891-0.396l-1.353-0.324
					c-1.325-0.312-1.988-1.027-1.988-2.146c0-0.684,0.254-1.25,0.76-1.695c0.508-0.447,1.16-0.67,1.957-0.67
					c0.841,0,1.52,0.197,2.035,0.592s0.847,0.934,0.994,1.617h-1.352c-0.252-0.709-0.807-1.064-1.664-1.064
					c-0.434,0-0.783,0.102-1.047,0.305c-0.265,0.203-0.396,0.471-0.396,0.799c0,0.529,0.351,0.877,1.053,1.041l1.391,0.324
					c0.65,0.148,1.157,0.408,1.521,0.781c0.363,0.371,0.546,0.85,0.546,1.43c0,0.736-0.265,1.324-0.793,1.762
					s-1.214,0.656-2.054,0.656c-0.85,0-1.559-0.207-2.126-0.617C169.99,328.67,169.637,328.096,169.498,327.359z"/>
				<path fill="#696C71" d="M177.52,321.586h5.213v1.197h-3.887v2.105h3.522v1.184h-3.522v2.287h3.887v1.209h-5.213V321.586z"/>
			</g>
		</g>
	</g>
</g>
<rect x="33.177" y="65.971" fill="none" stroke="#585A5E" stroke-miterlimit="10" width="94.699" height="40"/>
<g>
	<g>
		<path fill="#696C71" d="M58.693,88.785c-0.689-0.767-1.033-1.756-1.033-2.971c0-1.213,0.344-2.203,1.033-2.97
			s1.553-1.15,2.594-1.15c0.883,0,1.607,0.235,2.17,0.708c0.564,0.473,0.924,1.116,1.08,1.931h-1.326
			c-0.348-0.944-0.988-1.417-1.924-1.417c-0.693,0-1.244,0.271-1.651,0.812c-0.407,0.542-0.611,1.237-0.611,2.086
			c0,0.85,0.204,1.546,0.611,2.088c0.407,0.541,0.958,0.812,1.651,0.812c0.936,0,1.576-0.477,1.924-1.431h1.326
			c-0.156,0.823-0.516,1.472-1.08,1.943c-0.562,0.473-1.287,0.708-2.17,0.708C60.246,89.936,59.383,89.553,58.693,88.785z"/>
		<path fill="#696C71" d="M68.943,81.824h1.3l3.067,7.982h-1.377l-0.819-2.211h-3.056l-0.818,2.211h-1.365L68.943,81.824z
			 M69.58,83.475l-1.092,2.951h2.184L69.58,83.475z"/>
		<path fill="#696C71" d="M75.105,89.807v-7.982h1.352v6.773h3.835v1.209H75.105z"/>
		<path fill="#696C71" d="M82.32,89.807v-7.982h1.352v6.773h3.835v1.209H82.32z"/>
		<path fill="#696C71" d="M89.535,81.824h5.213v1.195h-3.887v2.106h3.522v1.183h-3.522v2.289h3.887v1.209h-5.213V81.824z"/>
		<path fill="#696C71" d="M99.182,86.569h-0.963v3.237h-1.352v-7.982h3.08c0.842,0,1.504,0.206,1.99,0.617
			c0.484,0.412,0.728,1.004,0.728,1.775c0,0.658-0.181,1.18-0.54,1.566c-0.359,0.385-0.859,0.63-1.501,0.734l2.313,3.289h-1.533
			L99.182,86.569z M98.219,82.994v2.443h1.703c0.441,0,0.787-0.109,1.033-0.331c0.248-0.221,0.371-0.518,0.371-0.89
			c0-0.373-0.123-0.67-0.371-0.891c-0.246-0.222-0.592-0.332-1.033-0.332H98.219z"/>
	</g>
</g>
<rect x="33.177" y="392.383" fill="none" stroke="#585A5E" stroke-miterlimit="10" width="94.699" height="40"/>
<g>
	<g>
		<path fill="#696C71" d="M58.693,415.197c-0.689-0.768-1.033-1.758-1.033-2.971s0.344-2.203,1.033-2.971s1.553-1.15,2.594-1.15
			c0.883,0,1.607,0.236,2.17,0.709c0.564,0.473,0.924,1.115,1.08,1.93h-1.326c-0.348-0.945-0.988-1.416-1.924-1.416
			c-0.693,0-1.244,0.27-1.651,0.812c-0.407,0.541-0.611,1.236-0.611,2.086s0.204,1.545,0.611,2.086
			c0.407,0.543,0.958,0.812,1.651,0.812c0.936,0,1.576-0.477,1.924-1.43h1.326c-0.156,0.824-0.516,1.471-1.08,1.943
			c-0.562,0.473-1.287,0.709-2.17,0.709C60.246,416.348,59.383,415.963,58.693,415.197z"/>
		<path fill="#696C71" d="M68.943,408.234h1.3l3.067,7.982h-1.377l-0.819-2.209h-3.056l-0.818,2.209h-1.365L68.943,408.234z
			 M69.58,409.887l-1.092,2.951h2.184L69.58,409.887z"/>
		<path fill="#696C71" d="M75.105,416.217v-7.982h1.352v6.773h3.835v1.209H75.105z"/>
		<path fill="#696C71" d="M82.32,416.217v-7.982h1.352v6.773h3.835v1.209H82.32z"/>
		<path fill="#696C71" d="M89.535,408.234h5.213v1.197h-3.887v2.105h3.522v1.184h-3.522v2.287h3.887v1.209h-5.213V408.234z"/>
		<path fill="#696C71" d="M99.182,412.98h-0.963v3.236h-1.352v-7.982h3.08c0.842,0,1.504,0.207,1.99,0.619
			c0.484,0.41,0.728,1.002,0.728,1.773c0,0.658-0.181,1.182-0.54,1.566c-0.359,0.387-0.859,0.631-1.501,0.734l2.313,3.289h-1.533
			L99.182,412.98z M98.219,409.406v2.443h1.703c0.441,0,0.787-0.111,1.033-0.332c0.248-0.221,0.371-0.518,0.371-0.891
			s-0.123-0.67-0.371-0.891c-0.246-0.221-0.592-0.33-1.033-0.33H98.219z"/>
	</g>
</g>
<line fill="none" stroke="#696C71" stroke-miterlimit="10" x1="80.526" y1="105.971" x2="80.526" y2="392.941"/>
<line fill="none" stroke="#585A5E" stroke-width="0.7251" stroke-miterlimit="10" x1="262.88" y1="105.471" x2="185.47" y2="105.471"/>
<line fill="none" stroke="#585A5E" stroke-width="0.7251" stroke-miterlimit="10" x1="185.47" y1="392.883" x2="262.88" y2="392.883"/>
<line fill="none" stroke="#696C71" stroke-miterlimit="10" x1="224.175" y1="105.971" x2="224.175" y2="392.883"/>
<g>
	<path fill="#F5F6F6" stroke="#585A5E" stroke-miterlimit="10" d="M242.493,220.391c0,2.215-1.795,4.01-4.01,4.01h-28.588
		c-2.215,0-4.009-1.795-4.009-4.01v-8.76c0-2.213,1.794-4.01,4.009-4.01h28.588c2.215,0,4.01,1.797,4.01,4.01V220.391z"/>
	<g>
		<circle fill="#585A5E" cx="215.99" cy="216.463" r="2.05"/>
		<circle fill="#585A5E" cx="224.189" cy="216.463" r="2.05"/>
		<circle fill="#585A5E" cx="232.389" cy="216.463" r="2.05"/>
	</g>
</g>
<line fill="none" stroke="#20B6AF" stroke-width="0.7252" stroke-miterlimit="10" x1="419.487" y1="105.609" x2="319.842" y2="105.609"/>
<line fill="none" stroke="#20B6AF" stroke-width="0.7252" stroke-miterlimit="10" x1="319.842" y1="393.02" x2="419.487" y2="393.02"/>
<line fill="none" stroke="#20B6AF" stroke-miterlimit="10" x1="367.429" y1="105.971" x2="367.429" y2="393.02"/>
<rect x="360.956" y="252.871" fill="#20B5AE" width="12.73" height="24.045"/>
<g>
	<g>
		<g>
			<line fill="none" stroke="#585A5E" stroke-miterlimit="10" x1="224.19" y1="253.033" x2="357.354" y2="253.033"/>
			<g>
				<polygon fill="#585A5E" points="356.333,256.523 362.378,253.033 356.333,249.543 				"/>
			</g>
		</g>
	</g>
	<g>
		<g>
			
				<line fill="none" stroke="#585A5E" stroke-linecap="round" stroke-linejoin="round" x1="367.429" y1="276.814" x2="365.095" y2="276.814"/>
			
				<line fill="none" stroke="#585A5E" stroke-linecap="round" stroke-linejoin="round" stroke-dasharray="4.6069,4.6069" x1="360.488" y1="276.814" x2="233.799" y2="276.814"/>
			
				<line fill="none" stroke="#585A5E" stroke-linecap="round" stroke-linejoin="round" x1="231.496" y1="276.814" x2="229.162" y2="276.814"/>
			<g>
				<polygon fill="#585A5E" points="230.184,273.324 224.139,276.814 230.184,280.305 				"/>
			</g>
		</g>
	</g>
</g>
<g>
	<g>
		<g>
			<path fill="#696C71" d="M199.137,92.556h1.379c0.251,0.798,0.854,1.196,1.807,1.196c0.469,0,0.843-0.106,1.125-0.318
				c0.281-0.213,0.422-0.501,0.422-0.865c0-0.285-0.089-0.514-0.266-0.682c-0.178-0.17-0.475-0.302-0.891-0.396l-1.353-0.326
				c-1.325-0.312-1.989-1.026-1.989-2.145c0-0.685,0.254-1.25,0.761-1.696s1.159-0.669,1.956-0.669c0.842,0,1.52,0.197,2.035,0.591
				c0.516,0.395,0.848,0.935,0.994,1.618h-1.352c-0.252-0.71-0.807-1.065-1.664-1.065c-0.434,0-0.782,0.102-1.047,0.306
				c-0.264,0.203-0.396,0.47-0.396,0.799c0,0.529,0.352,0.876,1.053,1.04l1.392,0.325c0.649,0.147,1.157,0.408,1.521,0.78
				c0.364,0.372,0.547,0.849,0.547,1.43c0,0.737-0.266,1.324-0.793,1.762c-0.529,0.438-1.214,0.656-2.055,0.656
				c-0.85,0-1.558-0.206-2.125-0.617C199.629,93.867,199.275,93.293,199.137,92.556z"/>
			<path fill="#696C71" d="M207.158,86.783h5.213v1.196h-3.887v2.106h3.523v1.183h-3.523v2.288h3.887v1.209h-5.213V86.783z"/>
			<path fill="#696C71" d="M216.805,91.529h-0.963v3.236h-1.352v-7.982h3.08c0.842,0,1.504,0.207,1.99,0.618
				c0.484,0.411,0.727,1.003,0.727,1.774c0,0.658-0.18,1.181-0.539,1.566s-0.859,0.631-1.502,0.734l2.314,3.289h-1.533
				L216.805,91.529z M215.842,87.953v2.444h1.703c0.441,0,0.787-0.11,1.033-0.331c0.248-0.221,0.371-0.518,0.371-0.891
				s-0.123-0.67-0.371-0.891c-0.246-0.221-0.592-0.332-1.033-0.332H215.842z"/>
			<path fill="#696C71" d="M226.035,94.766h-1.287l-3.018-7.982h1.418l2.262,6.228l2.262-6.228h1.379L226.035,94.766z"/>
			<path fill="#696C71" d="M232.197,86.783v7.982h-1.354v-7.982H232.197z"/>
			<path fill="#696C71" d="M235.219,93.745c-0.689-0.767-1.033-1.757-1.033-2.971c0-1.213,0.344-2.203,1.033-2.97
				c0.689-0.768,1.553-1.15,2.594-1.15c0.883,0,1.607,0.235,2.17,0.708c0.564,0.472,0.924,1.116,1.08,1.931h-1.326
				c-0.348-0.945-0.988-1.418-1.924-1.418c-0.693,0-1.244,0.271-1.652,0.812c-0.406,0.543-0.609,1.238-0.609,2.087
				c0,0.85,0.203,1.546,0.609,2.087c0.408,0.541,0.959,0.812,1.652,0.812c0.936,0,1.576-0.477,1.924-1.43h1.326
				c-0.156,0.822-0.516,1.471-1.08,1.943c-0.562,0.473-1.287,0.708-2.17,0.708C236.771,94.896,235.908,94.512,235.219,93.745z"/>
			<path fill="#696C71" d="M243.025,86.783h5.213v1.196h-3.887v2.106h3.523v1.183h-3.523v2.288h3.887v1.209h-5.213V86.783z"/>
		</g>
	</g>
	<g>
		<polyline fill="none" stroke="#585A5E" stroke-miterlimit="10" points="221.085,38.371 212.901,38.371 201.628,57.896 
			212.901,77.422 235.448,77.422 246.722,57.896 235.448,38.371 227.265,38.371 		"/>
		<circle fill="none" stroke="#585A5E" stroke-miterlimit="10" cx="224.174" cy="57.896" r="8.761"/>
	</g>
</g>
<g>
	<path fill="none" stroke="#20B6AF" stroke-miterlimit="10" d="M403.54,62.501c-4.487,0-8.535,1.859-11.434,4.844
		c-2.898-2.984-6.946-4.844-11.433-4.844c-0.105,0-0.207,0.015-0.311,0.017c-0.107-0.002-0.211-0.017-0.32-0.017
		c-4.332,0-8.243,1.743-11.118,4.55c-2.873-2.807-6.786-4.55-11.12-4.55c-0.107,0-0.211,0.015-0.318,0.017
		c-0.104-0.002-0.203-0.017-0.307-0.017c-4.49,0-8.54,1.859-11.437,4.844c-2.898-2.984-6.946-4.844-11.434-4.844
		c-8.81,0-15.949,7.139-15.949,15.946c0,8.807,7.14,15.948,15.949,15.948c4.487,0,8.535-1.859,11.434-4.844
		c2.896,2.984,6.946,4.844,11.437,4.844c0.104,0,0.203-0.014,0.307-0.016c0.107,0.002,0.211,0.016,0.318,0.016
		c4.334,0,8.247-1.746,11.12-4.55c2.875,2.804,6.786,4.55,11.118,4.55c0.109,0,0.213-0.014,0.32-0.016
		c0.104,0.002,0.205,0.016,0.311,0.016c4.486,0,8.534-1.859,11.433-4.844c2.898,2.984,6.946,4.844,11.434,4.844
		c8.808,0,15.947-7.142,15.947-15.948C419.487,69.64,412.348,62.501,403.54,62.501z"/>
	<g>
		<path fill="#20B6AF" d="M337.756,74.301h5.213v1.196h-3.887v2.106h3.523v1.183h-3.523v2.288h3.887v1.209h-5.213V74.301z"/>
		<path fill="#20B6AF" d="M351.77,74.301v7.982h-1.039l-4.082-5.811v5.811h-1.301v-7.982h1.275l3.848,5.538v-5.538H351.77z"/>
		<path fill="#20B6AF" d="M354.447,82.283v-7.982h2.691c1.18,0,2.119,0.362,2.822,1.086c0.701,0.724,1.053,1.692,1.053,2.905
			c0,1.214-0.352,2.183-1.053,2.905c-0.703,0.725-1.643,1.086-2.822,1.086H354.447z M355.801,81.074h1.287
			c0.822,0,1.457-0.247,1.904-0.741c0.445-0.494,0.668-1.174,0.668-2.041c0-0.866-0.223-1.549-0.668-2.047
			c-0.447-0.499-1.082-0.748-1.904-0.748h-1.287V81.074z"/>
		<path fill="#20B6AF" d="M366.344,79.307h-1.729v2.977h-1.354v-7.982h3.082c0.84,0,1.506,0.217,1.996,0.65
			c0.488,0.434,0.734,1.053,0.734,1.859c0,0.797-0.246,1.412-0.734,1.846C367.85,79.09,367.184,79.307,366.344,79.307z
			 M367.734,76.811c0-0.407-0.121-0.732-0.363-0.976c-0.244-0.242-0.594-0.363-1.053-0.363h-1.703v2.664h1.703
			c0.449,0,0.799-0.121,1.045-0.363C367.611,77.529,367.734,77.209,367.734,76.811z"/>
		<path fill="#20B6AF" d="M377.16,75.335c0.693,0.775,1.039,1.762,1.039,2.957c0,1.196-0.346,2.183-1.039,2.958
			s-1.578,1.163-2.652,1.163s-1.957-0.388-2.646-1.163c-0.688-0.775-1.033-1.762-1.033-2.958c0-1.195,0.346-2.182,1.033-2.957
			c0.689-0.775,1.572-1.164,2.646-1.164S376.467,74.56,377.16,75.335z M376.191,80.385c0.428-0.546,0.643-1.243,0.643-2.093
			c0-0.849-0.215-1.547-0.643-2.093c-0.43-0.546-0.99-0.819-1.684-0.819s-1.252,0.271-1.678,0.812
			c-0.424,0.542-0.637,1.242-0.637,2.1c0,0.858,0.213,1.559,0.637,2.1c0.426,0.542,0.984,0.812,1.678,0.812
			S375.762,80.932,376.191,80.385z"/>
		<path fill="#20B6AF" d="M381.801,74.301v7.982h-1.354v-7.982H381.801z"/>
		<path fill="#20B6AF" d="M390.887,74.301v7.982h-1.041l-4.082-5.811v5.811h-1.299v-7.982h1.273l3.848,5.538v-5.538H390.887z"/>
		<path fill="#20B6AF" d="M393.07,75.497v-1.196h6.656v1.196h-2.652v6.786h-1.352v-6.786H393.07z"/>
	</g>
</g>
<g>
	<path fill="none" stroke="#20B6AF" stroke-miterlimit="10" d="M401.938,405.293c-4.487,0-8.535,1.859-11.434,4.844
		c-2.898-2.984-6.946-4.844-11.433-4.844c-0.105,0-0.207,0.015-0.311,0.017c-0.107-0.002-0.211-0.017-0.32-0.017
		c-4.332,0-8.243,1.743-11.118,4.55c-2.873-2.807-6.786-4.55-11.12-4.55c-0.107,0-0.211,0.015-0.318,0.017
		c-0.104-0.002-0.203-0.017-0.307-0.017c-4.49,0-8.54,1.859-11.437,4.844c-2.898-2.984-6.946-4.844-11.434-4.844
		c-8.81,0-15.949,7.139-15.949,15.946c0,8.807,7.14,15.948,15.949,15.948c4.487,0,8.535-1.859,11.434-4.844
		c2.896,2.984,6.946,4.844,11.437,4.844c0.104,0,0.203-0.014,0.307-0.016c0.107,0.002,0.211,0.016,0.318,0.016
		c4.334,0,8.247-1.746,11.12-4.55c2.875,2.804,6.786,4.55,11.118,4.55c0.109,0,0.213-0.014,0.32-0.016
		c0.104,0.002,0.205,0.016,0.311,0.016c4.486,0,8.534-1.859,11.433-4.844c2.898,2.984,6.946,4.844,11.434,4.844
		c8.808,0,15.947-7.142,15.947-15.948C417.885,412.432,410.745,405.293,401.938,405.293z"/>
	<g>
		<path fill="#20B6AF" d="M336.154,417.093h5.213v1.196h-3.887v2.106h3.523v1.183h-3.523v2.288h3.887v1.209h-5.213V417.093z"/>
		<path fill="#20B6AF" d="M350.168,417.093v7.982h-1.041l-4.082-5.811v5.811h-1.299v-7.982h1.273l3.848,5.538v-5.538H350.168z"/>
		<path fill="#20B6AF" d="M352.846,425.075v-7.982h2.691c1.178,0,2.119,0.362,2.82,1.086s1.053,1.692,1.053,2.905
			c0,1.214-0.352,2.183-1.053,2.905c-0.701,0.725-1.643,1.086-2.82,1.086H352.846z M354.197,423.866h1.287
			c0.824,0,1.459-0.247,1.904-0.741c0.447-0.494,0.67-1.174,0.67-2.041c0-0.866-0.223-1.549-0.67-2.047
			c-0.445-0.499-1.08-0.748-1.904-0.748h-1.287V423.866z"/>
		<path fill="#20B6AF" d="M364.74,422.099h-1.729v2.977h-1.352v-7.982h3.08c0.842,0,1.506,0.217,1.996,0.65s0.734,1.053,0.734,1.859
			c0,0.797-0.244,1.412-0.734,1.846S365.582,422.099,364.74,422.099z M366.133,419.603c0-0.407-0.123-0.732-0.365-0.976
			c-0.242-0.242-0.594-0.363-1.053-0.363h-1.703v2.664h1.703c0.451,0,0.799-0.121,1.047-0.363
			C366.008,420.321,366.133,420.001,366.133,419.603z"/>
		<path fill="#20B6AF" d="M375.557,418.127c0.693,0.775,1.041,1.762,1.041,2.957c0,1.196-0.348,2.183-1.041,2.958
			s-1.576,1.163-2.652,1.163c-1.074,0-1.955-0.388-2.645-1.163s-1.033-1.762-1.033-2.958c0-1.195,0.344-2.182,1.033-2.957
			s1.57-1.164,2.645-1.164C373.98,416.963,374.863,417.352,375.557,418.127z M374.588,423.177c0.43-0.546,0.645-1.243,0.645-2.093
			c0-0.849-0.215-1.547-0.645-2.093c-0.428-0.546-0.99-0.819-1.684-0.819s-1.252,0.271-1.676,0.812
			c-0.426,0.542-0.637,1.242-0.637,2.1c0,0.858,0.211,1.559,0.637,2.1c0.424,0.542,0.982,0.812,1.676,0.812
			S374.16,423.724,374.588,423.177z"/>
		<path fill="#20B6AF" d="M380.197,417.093v7.982h-1.352v-7.982H380.197z"/>
		<path fill="#20B6AF" d="M389.283,417.093v7.982h-1.039l-4.082-5.811v5.811h-1.301v-7.982h1.275l3.848,5.538v-5.538H389.283z"/>
		<path fill="#20B6AF" d="M391.469,418.289v-1.196h6.656v1.196h-2.652v6.786h-1.352v-6.786H391.469z"/>
	</g>
</g>
<g>
	<g>
		<g>
			<path fill="#696C71" d="M199.137,410.695h1.379c0.251,0.798,0.854,1.196,1.807,1.196c0.469,0,0.843-0.106,1.125-0.318
				c0.281-0.213,0.422-0.501,0.422-0.865c0-0.286-0.089-0.514-0.266-0.683c-0.178-0.169-0.475-0.301-0.891-0.396l-1.353-0.324
				c-1.325-0.312-1.989-1.027-1.989-2.146c0-0.685,0.254-1.25,0.761-1.696s1.159-0.67,1.956-0.67c0.842,0,1.52,0.197,2.035,0.592
				s0.848,0.934,0.994,1.618h-1.352c-0.252-0.71-0.807-1.065-1.664-1.065c-0.434,0-0.782,0.102-1.047,0.306
				c-0.264,0.203-0.396,0.47-0.396,0.799c0,0.529,0.352,0.876,1.053,1.04l1.392,0.325c0.649,0.147,1.157,0.407,1.521,0.78
				c0.364,0.372,0.547,0.85,0.547,1.43c0,0.737-0.266,1.324-0.793,1.762c-0.529,0.438-1.214,0.656-2.055,0.656
				c-0.85,0-1.558-0.206-2.125-0.617C199.629,412.006,199.275,411.432,199.137,410.695z"/>
			<path fill="#696C71" d="M207.158,404.923h5.213v1.196h-3.887v2.106h3.523v1.183h-3.523v2.288h3.887v1.209h-5.213V404.923z"/>
			<path fill="#696C71" d="M216.805,409.668h-0.963v3.237h-1.352v-7.982h3.08c0.842,0,1.504,0.206,1.99,0.618
				c0.484,0.411,0.727,1.003,0.727,1.774c0,0.658-0.18,1.181-0.539,1.566s-0.859,0.631-1.502,0.734l2.314,3.289h-1.533
				L216.805,409.668z M215.842,406.094v2.443h1.703c0.441,0,0.787-0.11,1.033-0.331c0.248-0.222,0.371-0.518,0.371-0.891
				s-0.123-0.67-0.371-0.891c-0.246-0.221-0.592-0.331-1.033-0.331H215.842z"/>
			<path fill="#696C71" d="M226.035,412.905h-1.287l-3.018-7.982h1.418l2.262,6.228l2.262-6.228h1.379L226.035,412.905z"/>
			<path fill="#696C71" d="M232.197,404.923v7.982h-1.354v-7.982H232.197z"/>
			<path fill="#696C71" d="M235.219,411.885c-0.689-0.767-1.033-1.757-1.033-2.971c0-1.213,0.344-2.203,1.033-2.971
				c0.689-0.767,1.553-1.15,2.594-1.15c0.883,0,1.607,0.236,2.17,0.709c0.564,0.473,0.924,1.116,1.08,1.931h-1.326
				c-0.348-0.945-0.988-1.417-1.924-1.417c-0.693,0-1.244,0.271-1.652,0.812c-0.406,0.541-0.609,1.237-0.609,2.086
				c0,0.85,0.203,1.545,0.609,2.087c0.408,0.542,0.959,0.812,1.652,0.812c0.936,0,1.576-0.477,1.924-1.431h1.326
				c-0.156,0.824-0.516,1.472-1.08,1.944c-0.562,0.472-1.287,0.708-2.17,0.708C236.771,413.035,235.908,412.651,235.219,411.885z"/>
			<path fill="#696C71" d="M243.025,404.923h5.213v1.196h-3.887v2.106h3.523v1.183h-3.523v2.288h3.887v1.209h-5.213V404.923z"/>
		</g>
	</g>
	<g>
		<polyline fill="none" stroke="#585A5E" stroke-miterlimit="10" points="221.085,422.223 212.901,422.223 201.628,441.748 
			212.901,461.273 235.448,461.273 246.722,441.748 235.448,422.223 227.265,422.223 		"/>
		<circle fill="none" stroke="#585A5E" stroke-miterlimit="10" cx="224.174" cy="441.748" r="8.761"/>
	</g>
</g>
</svg>
