<?xml version="1.0" encoding="utf-8"?>
<!-- Generator: Adobe Illustrator 16.0.4, SVG Export Plug-In . SVG Version: 6.00 Build 0)  -->
<!DOCTYPE svg PUBLIC "-//W3C//DTD SVG 1.0//EN" "http://www.w3.org/TR/2001/REC-SVG-20010904/DTD/svg10.dtd">
<svg version="1.0" id="Layer_1" xmlns="http://www.w3.org/2000/svg" xmlns:xlink="http://www.w3.org/1999/xlink" x="0px" y="0px"
	 width="452.664px" height="456.902px" viewBox="0 0 452.664 456.902" enable-background="new 0 0 452.664 456.902"
	 xml:space="preserve">
<g>
	<rect fill="#F5F6F6" width="452.664" height="456.902"/>
	<rect x="23.036" y="23.256" fill="#FFFFFF" width="112.111" height="414.488"/>
	<line fill="none" stroke="#585A5E" stroke-miterlimit="10" x1="297.941" y1="100.839" x2="297.941" y2="91.161"/>
	<polygon fill="#585A5E" points="300.934,99.964 297.941,105.146 294.949,99.964 	"/>
	<line fill="none" stroke="#585A5E" stroke-miterlimit="10" x1="297.941" y1="186.05" x2="297.941" y2="176.371"/>
	<polygon fill="#585A5E" points="300.934,185.174 297.941,190.356 294.949,185.174 	"/>
	<line fill="none" stroke="#585A5E" stroke-miterlimit="10" x1="297.941" y1="276.581" x2="297.941" y2="266.901"/>
	<polygon fill="#585A5E" points="300.934,275.705 297.941,280.886 294.949,275.705 	"/>
	<line fill="none" stroke="#585A5E" stroke-miterlimit="10" x1="297.941" y1="312.439" x2="297.941" y2="302.759"/>
	<polygon fill="#585A5E" points="300.934,311.563 297.941,316.746 294.949,311.563 	"/>
	<g>
		<path fill="#585A5E" d="M37.211,43.924v-2.287l-1.703-3.103H36.3l0.76,1.487c0.208,0.408,0.368,0.736,0.536,1.111h0.016
			c0.152-0.352,0.335-0.704,0.543-1.111l0.775-1.487h0.792l-1.807,3.094v2.295H37.211z"/>
		<path fill="#585A5E" d="M45.153,41.174c0,1.855-1.127,2.838-2.503,2.838c-1.423,0-2.423-1.104-2.423-2.734
			c0-1.711,1.063-2.831,2.503-2.831C44.202,38.447,45.153,39.575,45.153,41.174z M40.971,41.262c0,1.151,0.624,2.183,1.719,2.183
			c1.104,0,1.727-1.016,1.727-2.239c0-1.071-0.56-2.19-1.719-2.19C41.547,39.015,40.971,40.079,40.971,41.262z"/>
		<path fill="#585A5E" d="M47.315,38.535v3.19c0,1.208,0.536,1.719,1.255,1.719c0.799,0,1.311-0.528,1.311-1.719v-3.19h0.704v3.143
			c0,1.655-0.872,2.334-2.039,2.334c-1.104,0-1.935-0.632-1.935-2.303v-3.174H47.315z"/>
		<path fill="#585A5E" d="M52.355,38.607c0.352-0.072,0.856-0.112,1.335-0.112c0.744,0,1.223,0.136,1.559,0.44
			c0.272,0.24,0.424,0.607,0.424,1.023c0,0.711-0.448,1.184-1.016,1.375v0.024c0.416,0.144,0.664,0.527,0.792,1.087
			c0.176,0.751,0.304,1.271,0.416,1.479h-0.72c-0.088-0.152-0.208-0.616-0.36-1.287c-0.16-0.744-0.447-1.023-1.079-1.048h-0.656
			v2.335h-0.696V38.607z M53.051,41.062h0.711c0.744,0,1.216-0.408,1.216-1.023c0-0.696-0.504-1-1.24-1.008
			c-0.335,0-0.576,0.032-0.688,0.064V41.062z"/>
		<path fill="#585A5E" d="M62.266,41.398h-2.095v1.943h2.335v0.583h-3.031v-5.389h2.911v0.584h-2.215v1.703h2.095V41.398z"/>
		<path fill="#585A5E" d="M66.922,43.924l-0.688-1.191c-0.28-0.456-0.456-0.751-0.624-1.063h-0.016
			c-0.152,0.312-0.304,0.6-0.584,1.071l-0.647,1.184h-0.8l1.647-2.727l-1.583-2.663h0.808l0.712,1.263
			c0.2,0.352,0.352,0.624,0.496,0.912h0.024c0.152-0.32,0.288-0.567,0.488-0.912l0.735-1.263h0.8l-1.639,2.623l1.679,2.767H66.922z"
			/>
		<path fill="#585A5E" d="M69.787,38.535v5.389h-0.695v-5.389H69.787z"/>
		<path fill="#585A5E" d="M71.468,43.077c0.312,0.192,0.768,0.352,1.247,0.352c0.712,0,1.127-0.376,1.127-0.919
			c0-0.504-0.288-0.792-1.015-1.072c-0.88-0.312-1.423-0.768-1.423-1.527c0-0.84,0.696-1.463,1.743-1.463
			c0.552,0,0.951,0.128,1.191,0.264l-0.192,0.567c-0.176-0.096-0.536-0.256-1.023-0.256c-0.736,0-1.016,0.44-1.016,0.808
			c0,0.504,0.328,0.751,1.071,1.04c0.912,0.352,1.375,0.792,1.375,1.583c0,0.832-0.616,1.551-1.887,1.551
			c-0.52,0-1.087-0.152-1.375-0.344L71.468,43.077z"/>
		<path fill="#585A5E" d="M77.003,39.127h-1.639v-0.592h3.99v0.592h-1.647v4.797h-0.703V39.127z"/>
		<path fill="#585A5E" d="M81.203,38.535v5.389h-0.695v-5.389H81.203z"/>
		<path fill="#585A5E" d="M82.972,43.924v-5.389h0.759l1.727,2.727c0.4,0.632,0.712,1.199,0.968,1.751l0.016-0.008
			c-0.064-0.72-0.08-1.375-0.08-2.215v-2.255h0.656v5.389h-0.704l-1.711-2.734c-0.376-0.6-0.735-1.215-1.007-1.799l-0.024,0.008
			c0.04,0.68,0.056,1.327,0.056,2.223v2.303H82.972z"/>
		<path fill="#585A5E" d="M92.897,43.685c-0.312,0.112-0.928,0.296-1.655,0.296c-0.815,0-1.487-0.208-2.015-0.712
			c-0.464-0.448-0.751-1.167-0.751-2.007c0.008-1.607,1.111-2.782,2.918-2.782c0.624,0,1.111,0.136,1.343,0.248l-0.167,0.568
			c-0.288-0.128-0.648-0.232-1.191-0.232c-1.312,0-2.167,0.815-2.167,2.167c0,1.367,0.824,2.175,2.079,2.175
			c0.456,0,0.768-0.064,0.927-0.144v-1.607h-1.095v-0.56h1.775V43.685z"/>
		<path fill="#585A5E" d="M97.803,39.127h-1.639v-0.592h3.99v0.592h-1.647v4.797h-0.703V39.127z"/>
		<path fill="#585A5E" d="M105.665,41.174c0,1.855-1.127,2.838-2.503,2.838c-1.423,0-2.423-1.104-2.423-2.734
			c0-1.711,1.063-2.831,2.503-2.831C104.713,38.447,105.665,39.575,105.665,41.174z M101.483,41.262
			c0,1.151,0.624,2.183,1.719,2.183c1.104,0,1.727-1.016,1.727-2.239c0-1.071-0.56-2.19-1.719-2.19
			C102.059,39.015,101.483,40.079,101.483,41.262z"/>
		<path fill="#585A5E" d="M111.769,41.174c0,1.855-1.127,2.838-2.502,2.838c-1.423,0-2.422-1.104-2.422-2.734
			c0-1.711,1.063-2.831,2.502-2.831C110.817,38.447,111.769,39.575,111.769,41.174z M107.587,41.262
			c0,1.151,0.624,2.183,1.719,2.183c1.104,0,1.727-1.016,1.727-2.239c0-1.071-0.56-2.19-1.719-2.19
			C108.163,39.015,107.587,40.079,107.587,41.262z"/>
		<path fill="#585A5E" d="M113.228,38.535h0.695v4.806h2.303v0.583h-2.998V38.535z"/>
		<path fill="#585A5E" d="M117.467,43.077c0.312,0.192,0.768,0.352,1.247,0.352c0.712,0,1.127-0.376,1.127-0.919
			c0-0.504-0.288-0.792-1.015-1.072c-0.88-0.312-1.423-0.768-1.423-1.527c0-0.84,0.696-1.463,1.743-1.463
			c0.552,0,0.951,0.128,1.191,0.264l-0.192,0.567c-0.176-0.096-0.536-0.256-1.023-0.256c-0.736,0-1.016,0.44-1.016,0.808
			c0,0.504,0.328,0.751,1.071,1.04c0.912,0.352,1.375,0.792,1.375,1.583c0,0.832-0.616,1.551-1.887,1.551
			c-0.52,0-1.087-0.152-1.375-0.344L117.467,43.077z"/>
	</g>
	<g>
		<path fill="#585A5E" d="M262.66,38.607c0.304-0.064,0.783-0.112,1.271-0.112c0.695,0,1.143,0.12,1.479,0.392
			c0.28,0.208,0.448,0.527,0.448,0.951c0,0.52-0.345,0.976-0.911,1.184v0.016c0.512,0.128,1.111,0.551,1.111,1.351
			c0,0.464-0.185,0.815-0.456,1.08c-0.376,0.344-0.983,0.503-1.863,0.503c-0.479,0-0.848-0.032-1.079-0.064V38.607z M263.355,40.814
			h0.632c0.735,0,1.167-0.384,1.167-0.903c0-0.632-0.479-0.88-1.184-0.88c-0.319,0-0.504,0.024-0.615,0.048V40.814z M263.355,43.396
			c0.136,0.024,0.336,0.032,0.584,0.032c0.719,0,1.383-0.264,1.383-1.047c0-0.736-0.631-1.04-1.391-1.04h-0.576V43.396z"/>
		<path fill="#585A5E" d="M268.307,42.229l-0.559,1.695h-0.721l1.832-5.389h0.84l1.838,5.389h-0.743l-0.575-1.695H268.307z
			 M270.074,41.686l-0.527-1.551c-0.12-0.352-0.2-0.671-0.28-0.983h-0.016c-0.08,0.32-0.168,0.647-0.272,0.976l-0.527,1.559H270.074
			z"/>
		<path fill="#585A5E" d="M272.884,38.535h0.696v4.806h2.303v0.583h-2.999V38.535z"/>
		<path fill="#585A5E" d="M277.22,38.535h0.695v4.806h2.303v0.583h-2.998V38.535z"/>
		<path fill="#585A5E" d="M284.346,41.398h-2.095v1.943h2.335v0.583h-3.03v-5.389h2.91v0.584h-2.215v1.703h2.095V41.398z"/>
		<path fill="#585A5E" d="M286.052,38.607c0.352-0.072,0.855-0.112,1.335-0.112c0.744,0,1.224,0.136,1.559,0.44
			c0.272,0.24,0.424,0.607,0.424,1.023c0,0.711-0.447,1.184-1.015,1.375v0.024c0.415,0.144,0.663,0.527,0.792,1.087
			c0.176,0.751,0.303,1.271,0.415,1.479h-0.72c-0.088-0.152-0.207-0.616-0.359-1.287c-0.16-0.744-0.448-1.023-1.08-1.048h-0.655
			v2.335h-0.695V38.607z M286.747,41.062h0.712c0.743,0,1.215-0.408,1.215-1.023c0-0.696-0.504-1-1.239-1.008
			c-0.335,0-0.575,0.032-0.688,0.064V41.062z"/>
		<path fill="#585A5E" d="M291.611,38.535v5.389h-0.696v-5.389H291.611z"/>
		<path fill="#585A5E" d="M293.38,43.924v-5.389h0.759l1.728,2.727c0.399,0.632,0.712,1.199,0.968,1.751l0.016-0.008
			c-0.064-0.72-0.08-1.375-0.08-2.215v-2.255h0.656v5.389h-0.704l-1.711-2.734c-0.376-0.6-0.735-1.215-1.007-1.799l-0.024,0.008
			c0.04,0.68,0.056,1.327,0.056,2.223v2.303H293.38z"/>
		<path fill="#585A5E" d="M300.074,42.229l-0.559,1.695h-0.721l1.832-5.389h0.84l1.838,5.389h-0.743l-0.575-1.695H300.074z
			 M301.842,41.686l-0.527-1.551c-0.12-0.352-0.2-0.671-0.28-0.983h-0.016c-0.08,0.32-0.168,0.647-0.272,0.976l-0.527,1.559H301.842
			z"/>
		<path fill="#585A5E" d="M307.938,39.127H306.3v-0.592h3.989v0.592h-1.646v4.797h-0.704V39.127z"/>
		<path fill="#585A5E" d="M315.801,41.174c0,1.855-1.127,2.838-2.503,2.838c-1.423,0-2.423-1.104-2.423-2.734
			c0-1.711,1.063-2.831,2.503-2.831C314.85,38.447,315.801,39.575,315.801,41.174z M311.619,41.262c0,1.151,0.623,2.183,1.719,2.183
			c1.104,0,1.727-1.016,1.727-2.239c0-1.071-0.559-2.19-1.719-2.19C312.194,39.015,311.619,40.079,311.619,41.262z"/>
		<path fill="#585A5E" d="M321.904,41.174c0,1.855-1.127,2.838-2.502,2.838c-1.424,0-2.423-1.104-2.423-2.734
			c0-1.711,1.063-2.831,2.503-2.831C320.953,38.447,321.904,39.575,321.904,41.174z M317.723,41.262
			c0,1.151,0.624,2.183,1.719,2.183c1.104,0,1.728-1.016,1.728-2.239c0-1.071-0.56-2.19-1.72-2.19
			C318.299,39.015,317.723,40.079,317.723,41.262z"/>
		<path fill="#585A5E" d="M323.363,38.535h0.695v4.806h2.303v0.583h-2.998V38.535z"/>
		<path fill="#585A5E" d="M327.604,43.077c0.312,0.192,0.768,0.352,1.247,0.352c0.712,0,1.127-0.376,1.127-0.919
			c0-0.504-0.288-0.792-1.015-1.072c-0.88-0.312-1.424-0.768-1.424-1.527c0-0.84,0.695-1.463,1.743-1.463
			c0.552,0,0.951,0.128,1.191,0.264l-0.192,0.567c-0.176-0.096-0.535-0.256-1.023-0.256c-0.735,0-1.016,0.44-1.016,0.808
			c0,0.504,0.328,0.751,1.072,1.04c0.911,0.352,1.375,0.792,1.375,1.583c0,0.832-0.615,1.551-1.887,1.551
			c-0.52,0-1.088-0.152-1.375-0.344L327.604,43.077z"/>
	</g>
	<line fill="none" stroke="#585A5E" stroke-miterlimit="10" x1="101.19" y1="77.803" x2="164.991" y2="77.803"/>
	<rect x="39.971" y="61.559" fill="#FFFFFF" width="78.241" height="31.465"/>
	
		<rect x="39.971" y="61.559" fill="none" stroke="#A7A8AB" stroke-width="0.5" stroke-miterlimit="10" width="78.241" height="31.465"/>
	<line fill="none" stroke="#585A5E" stroke-miterlimit="10" x1="286.877" y1="77.803" x2="313.758" y2="77.803"/>
	<g>
		<path fill="#585A5E" d="M70.198,74.552v6.767h-0.874v-6.767H70.198z"/>
		<path fill="#585A5E" d="M72.426,74.642c0.532-0.081,1.165-0.141,1.857-0.141c1.255,0,2.148,0.291,2.741,0.843
			c0.603,0.552,0.954,1.335,0.954,2.43c0,1.104-0.341,2.008-0.974,2.631c-0.632,0.632-1.677,0.974-2.992,0.974
			c-0.623,0-1.145-0.03-1.586-0.08V74.642z M73.299,80.626c0.221,0.04,0.542,0.05,0.883,0.05c1.868,0,2.882-1.044,2.882-2.872
			c0.01-1.596-0.894-2.61-2.741-2.61c-0.452,0-0.793,0.04-1.024,0.09V80.626z"/>
		<path fill="#585A5E" d="M83.305,78.146h-2.63v2.44h2.932v0.733h-3.805v-6.767h3.655v0.733h-2.781v2.139h2.63V78.146z"/>
		<path fill="#585A5E" d="M85.271,80.415c0.261,0.171,0.723,0.352,1.165,0.352c0.643,0,0.943-0.321,0.943-0.723
			c0-0.422-0.251-0.653-0.903-0.894c-0.874-0.311-1.285-0.793-1.285-1.375c0-0.783,0.632-1.425,1.677-1.425
			c0.492,0,0.924,0.14,1.195,0.301l-0.221,0.643c-0.19-0.12-0.542-0.281-0.994-0.281c-0.522,0-0.813,0.301-0.813,0.663
			c0,0.401,0.291,0.582,0.924,0.823c0.843,0.321,1.275,0.743,1.275,1.466c0,0.854-0.663,1.456-1.817,1.456
			c-0.532,0-1.024-0.131-1.365-0.332L85.271,80.415z"/>
	</g>
	<g>
		<path fill="#585A5E" d="M312.593,69.338c0.38-0.08,0.979-0.14,1.589-0.14c0.869,0,1.43,0.15,1.85,0.49
			c0.35,0.26,0.559,0.66,0.559,1.189c0,0.65-0.43,1.22-1.139,1.479v0.02c0.64,0.16,1.389,0.689,1.389,1.689
			c0,0.58-0.229,1.02-0.569,1.349c-0.47,0.43-1.229,0.63-2.329,0.63c-0.6,0-1.059-0.04-1.349-0.08V69.338z M313.462,72.097h0.79
			c0.92,0,1.459-0.48,1.459-1.129c0-0.79-0.6-1.1-1.479-1.1c-0.399,0-0.63,0.03-0.77,0.06V72.097z M313.462,75.325
			c0.17,0.03,0.42,0.04,0.729,0.04c0.9,0,1.729-0.33,1.729-1.309c0-0.92-0.79-1.299-1.739-1.299h-0.72V75.325z"/>
		<path fill="#585A5E" d="M319.643,73.866l-0.7,2.119h-0.899l2.289-6.736h1.049l2.299,6.736h-0.93l-0.719-2.119H319.643z
			 M321.851,73.187l-0.659-1.939c-0.15-0.44-0.25-0.84-0.35-1.229h-0.021c-0.101,0.4-0.21,0.81-0.34,1.219l-0.659,1.949H321.851z"/>
		<path fill="#585A5E" d="M325.373,69.249h0.869v6.007h2.878v0.729h-3.747V69.249z"/>
		<path fill="#585A5E" d="M330.793,69.249h0.869v6.007h2.878v0.729h-3.747V69.249z"/>
		<path fill="#585A5E" d="M339.7,72.827h-2.618v2.429H340v0.729h-3.787v-6.736h3.637v0.729h-2.768v2.129h2.618V72.827z"/>
		<path fill="#585A5E" d="M341.832,69.338c0.439-0.09,1.07-0.14,1.67-0.14c0.929,0,1.529,0.17,1.948,0.55
			c0.34,0.3,0.53,0.759,0.53,1.279c0,0.889-0.561,1.479-1.27,1.719v0.03c0.52,0.18,0.83,0.659,0.989,1.359
			c0.22,0.939,0.38,1.589,0.52,1.849h-0.899c-0.109-0.19-0.26-0.77-0.449-1.609c-0.2-0.93-0.561-1.279-1.35-1.31h-0.82v2.918h-0.869
			V69.338z M342.701,72.407h0.891c0.93,0,1.519-0.51,1.519-1.279c0-0.87-0.63-1.249-1.549-1.259c-0.42,0-0.72,0.04-0.86,0.08V72.407
			z"/>
		<path fill="#585A5E" d="M348.781,69.249v6.736h-0.869v-6.736H348.781z"/>
		<path fill="#585A5E" d="M351.002,75.985v-6.736h0.949l2.159,3.408c0.5,0.79,0.89,1.499,1.21,2.189l0.02-0.01
			c-0.08-0.899-0.1-1.719-0.1-2.769v-2.818h0.819v6.736h-0.88l-2.139-3.418c-0.47-0.75-0.92-1.52-1.26-2.249l-0.029,0.01
			c0.05,0.85,0.07,1.659,0.07,2.778v2.878H351.002z"/>
		<path fill="#585A5E" d="M359.371,73.866l-0.699,2.119h-0.899l2.288-6.736h1.05l2.299,6.736h-0.93l-0.72-2.119H359.371z
			 M361.58,73.187l-0.66-1.939c-0.149-0.44-0.249-0.84-0.35-1.229h-0.02c-0.1,0.4-0.21,0.81-0.34,1.219l-0.66,1.949H361.58z"/>
		<path fill="#585A5E" d="M372.619,75.765c-0.32,0.16-0.959,0.32-1.779,0.32c-1.898,0-3.328-1.2-3.328-3.408
			c0-2.109,1.43-3.538,3.519-3.538c0.839,0,1.369,0.18,1.599,0.3l-0.209,0.709c-0.33-0.16-0.8-0.28-1.359-0.28
			c-1.58,0-2.629,1.009-2.629,2.778c0,1.649,0.949,2.708,2.588,2.708c0.53,0,1.07-0.11,1.42-0.28L372.619,75.765z"/>
		<path fill="#585A5E" d="M380.169,72.547c0,2.319-1.409,3.548-3.128,3.548c-1.779,0-3.029-1.379-3.029-3.418
			c0-2.139,1.33-3.538,3.129-3.538C378.979,69.139,380.169,70.548,380.169,72.547z M374.941,72.657c0,1.439,0.779,2.729,2.148,2.729
			c1.38,0,2.159-1.27,2.159-2.798c0-1.339-0.699-2.739-2.148-2.739C375.661,69.848,374.941,71.178,374.941,72.657z"/>
		<path fill="#585A5E" d="M387.668,73.026c-0.049-0.939-0.109-2.069-0.1-2.908h-0.029c-0.23,0.79-0.51,1.629-0.85,2.559
			l-1.189,3.268h-0.66l-1.09-3.208c-0.319-0.95-0.59-1.819-0.779-2.619h-0.02c-0.02,0.839-0.07,1.969-0.13,2.979l-0.181,2.888
			h-0.829l0.47-6.736h1.109l1.149,3.258c0.28,0.83,0.51,1.569,0.68,2.269h0.03c0.17-0.68,0.41-1.419,0.709-2.269l1.199-3.258h1.109
			l0.42,6.736h-0.85L387.668,73.026z"/>
		<path fill="#585A5E" d="M390.722,69.329c0.419-0.07,0.97-0.13,1.669-0.13c0.859,0,1.489,0.2,1.889,0.56
			c0.37,0.32,0.59,0.81,0.59,1.409c0,0.61-0.18,1.089-0.52,1.439c-0.46,0.49-1.209,0.739-2.059,0.739c-0.26,0-0.5-0.01-0.7-0.06
			v2.699h-0.869V69.329z M391.591,72.577c0.19,0.05,0.431,0.07,0.72,0.07c1.049,0,1.689-0.509,1.689-1.439
			c0-0.89-0.63-1.319-1.59-1.319c-0.379,0-0.67,0.03-0.819,0.07V72.577z"/>
		<path fill="#585A5E" d="M402.498,72.547c0,2.319-1.408,3.548-3.128,3.548c-1.779,0-3.028-1.379-3.028-3.418
			c0-2.139,1.329-3.538,3.129-3.538C401.309,69.139,402.498,70.548,402.498,72.547z M397.271,72.657
			c0,1.439,0.779,2.729,2.148,2.729c1.379,0,2.159-1.27,2.159-2.798c0-1.339-0.7-2.739-2.149-2.739
			C397.99,69.848,397.271,71.178,397.271,72.657z"/>
		<path fill="#585A5E" d="M404.211,74.925c0.391,0.24,0.96,0.44,1.56,0.44c0.89,0,1.409-0.47,1.409-1.149
			c0-0.629-0.359-0.989-1.27-1.339c-1.1-0.39-1.779-0.959-1.779-1.909c0-1.05,0.87-1.829,2.18-1.829c0.689,0,1.189,0.16,1.488,0.33
			l-0.239,0.71c-0.22-0.12-0.669-0.32-1.279-0.32c-0.919,0-1.27,0.549-1.27,1.009c0,0.63,0.41,0.939,1.339,1.299
			c1.141,0.44,1.72,0.989,1.72,1.979c0,1.039-0.77,1.939-2.358,1.939c-0.65,0-1.359-0.19-1.719-0.43L404.211,74.925z"/>
		<path fill="#585A5E" d="M413.439,72.827h-2.619v2.429h2.919v0.729h-3.788v-6.736h3.639v0.729h-2.77v2.129h2.619V72.827z"/>
		<path fill="#585A5E" d="M415.571,69.338c0.439-0.09,1.069-0.14,1.669-0.14c0.93,0,1.529,0.17,1.949,0.55
			c0.34,0.3,0.529,0.759,0.529,1.279c0,0.889-0.56,1.479-1.27,1.719v0.03c0.52,0.18,0.83,0.659,0.99,1.359
			c0.219,0.939,0.379,1.589,0.52,1.849h-0.9c-0.109-0.19-0.26-0.77-0.449-1.609c-0.199-0.93-0.56-1.279-1.35-1.31h-0.819v2.918
			h-0.869V69.338z M416.44,72.407h0.89c0.93,0,1.52-0.51,1.52-1.279c0-0.87-0.63-1.249-1.549-1.259c-0.42,0-0.721,0.04-0.86,0.08
			V72.407z"/>
	</g>
	
		<line fill="none" stroke="#A7A8AB" stroke-width="0.5" stroke-miterlimit="10" stroke-dasharray="0.5,2" x1="429.842" y1="140.592" x2="37.504" y2="140.592"/>
	<rect x="150.88" y="66.914" fill="#FFFFFF" width="146.41" height="20.478"/>
	
		<rect x="150.88" y="66.914" fill="none" stroke="#A7A8AB" stroke-width="0.5" stroke-miterlimit="10" width="146.41" height="20.478"/>
	<g>
		<path fill="#585A5E" d="M169.221,73.819c0.342-0.072,0.882-0.126,1.432-0.126c0.783,0,1.287,0.135,1.666,0.441
			c0.315,0.234,0.504,0.594,0.504,1.071c0,0.585-0.387,1.099-1.026,1.333v0.018c0.576,0.144,1.251,0.621,1.251,1.521
			c0,0.522-0.207,0.918-0.513,1.215c-0.423,0.387-1.107,0.567-2.098,0.567c-0.54,0-0.954-0.036-1.215-0.072V73.819z M170.004,76.304
			h0.711c0.828,0,1.314-0.432,1.314-1.018c0-0.711-0.54-0.99-1.333-0.99c-0.36,0-0.567,0.027-0.693,0.054V76.304z M170.004,79.212
			c0.153,0.027,0.378,0.036,0.657,0.036c0.811,0,1.558-0.297,1.558-1.179c0-0.829-0.711-1.17-1.566-1.17h-0.648V79.212z"/>
		<path fill="#585A5E" d="M175.566,77.897l-0.63,1.909h-0.81l2.062-6.068h0.945l2.071,6.068h-0.837l-0.648-1.909H175.566z
			 M177.556,77.286l-0.594-1.747c-0.135-0.396-0.225-0.756-0.315-1.107h-0.018c-0.09,0.36-0.189,0.729-0.306,1.098l-0.594,1.756
			H177.556z"/>
		<path fill="#585A5E" d="M180.723,73.738h0.783v5.411h2.593v0.657h-3.376V73.738z"/>
		<path fill="#585A5E" d="M185.601,73.738h0.783v5.411h2.593v0.657h-3.376V73.738z"/>
		<path fill="#585A5E" d="M193.621,76.961h-2.359v2.188h2.629v0.657h-3.412v-6.068h3.277v0.657h-2.494v1.917h2.359V76.961z"/>
		<path fill="#585A5E" d="M195.537,73.819c0.396-0.081,0.963-0.126,1.503-0.126c0.837,0,1.377,0.153,1.756,0.495
			c0.306,0.27,0.477,0.684,0.477,1.152c0,0.801-0.504,1.333-1.144,1.548v0.027c0.468,0.162,0.748,0.594,0.892,1.224
			c0.198,0.846,0.342,1.432,0.468,1.666h-0.81c-0.099-0.171-0.234-0.693-0.405-1.449c-0.18-0.837-0.504-1.152-1.215-1.18h-0.738
			v2.629h-0.783V73.819z M196.32,76.583h0.801c0.837,0,1.369-0.459,1.369-1.152c0-0.783-0.567-1.125-1.396-1.134
			c-0.378,0-0.648,0.036-0.774,0.072V76.583z"/>
		<path fill="#585A5E" d="M201.792,73.738v6.068h-0.783v-6.068H201.792z"/>
		<path fill="#585A5E" d="M203.79,79.806v-6.068h0.855l1.944,3.07c0.45,0.711,0.801,1.351,1.089,1.972l0.018-0.009
			c-0.072-0.811-0.09-1.549-0.09-2.494v-2.539h0.738v6.068h-0.792l-1.927-3.079c-0.423-0.675-0.828-1.368-1.134-2.025l-0.027,0.009
			c0.045,0.766,0.063,1.495,0.063,2.503v2.593H203.79z"/>
		<path fill="#585A5E" d="M211.323,77.897l-0.63,1.909h-0.81l2.062-6.068h0.945l2.071,6.068h-0.838l-0.648-1.909H211.323z
			 M213.312,77.286l-0.594-1.747c-0.135-0.396-0.225-0.756-0.315-1.107h-0.018c-0.09,0.36-0.189,0.729-0.306,1.098l-0.594,1.756
			H213.312z"/>
		<path fill="#585A5E" d="M219.008,73.738h0.783v5.411h2.594v0.657h-3.377V73.738z"/>
		<path fill="#585A5E" d="M224.877,77.897l-0.631,1.909h-0.81l2.062-6.068h0.945l2.07,6.068h-0.837l-0.648-1.909H224.877z
			 M226.867,77.286l-0.595-1.747c-0.136-0.396-0.226-0.756-0.315-1.107h-0.018c-0.09,0.36-0.189,0.729-0.307,1.098l-0.594,1.756
			H226.867z"/>
		<path fill="#585A5E" d="M230.033,79.806v-6.068h0.855l1.944,3.07c0.45,0.711,0.802,1.351,1.089,1.972l0.019-0.009
			c-0.071-0.811-0.09-1.549-0.09-2.494v-2.539h0.738v6.068h-0.792l-1.927-3.079c-0.423-0.675-0.829-1.368-1.135-2.025l-0.026,0.009
			c0.045,0.766,0.062,1.495,0.062,2.503v2.593H230.033z"/>
		<path fill="#585A5E" d="M241.204,79.536c-0.351,0.126-1.044,0.333-1.864,0.333c-0.918,0-1.674-0.234-2.268-0.801
			c-0.522-0.504-0.847-1.314-0.847-2.26c0.009-1.81,1.251-3.133,3.286-3.133c0.702,0,1.251,0.153,1.512,0.279l-0.188,0.639
			c-0.324-0.144-0.729-0.261-1.341-0.261c-1.477,0-2.44,0.918-2.44,2.44c0,1.539,0.927,2.449,2.341,2.449
			c0.514,0,0.864-0.072,1.044-0.162v-1.81h-1.233v-0.63h1.999V79.536z"/>
		<path fill="#585A5E" d="M245.459,78.852c0.352,0.216,0.864,0.396,1.404,0.396c0.801,0,1.27-0.423,1.27-1.035
			c0-0.567-0.324-0.892-1.144-1.207c-0.99-0.351-1.603-0.864-1.603-1.72c0-0.945,0.783-1.647,1.963-1.647
			c0.621,0,1.071,0.144,1.342,0.297l-0.217,0.639c-0.197-0.108-0.604-0.288-1.152-0.288c-0.828,0-1.143,0.495-1.143,0.909
			c0,0.567,0.369,0.846,1.206,1.17c1.026,0.396,1.548,0.891,1.548,1.783c0,0.936-0.693,1.746-2.124,1.746
			c-0.585,0-1.225-0.171-1.549-0.387L245.459,78.852z"/>
		<path fill="#585A5E" d="M253.768,76.961h-2.359v2.188h2.629v0.657h-3.412v-6.068h3.277v0.657h-2.494v1.917h2.359V76.961z"/>
		<path fill="#585A5E" d="M255.684,73.819c0.396-0.081,0.963-0.126,1.503-0.126c0.837,0,1.378,0.153,1.756,0.495
			c0.306,0.27,0.478,0.684,0.478,1.152c0,0.801-0.505,1.333-1.145,1.548v0.027c0.469,0.162,0.748,0.594,0.893,1.224
			c0.197,0.846,0.342,1.432,0.467,1.666h-0.81c-0.099-0.171-0.233-0.693-0.405-1.449c-0.18-0.837-0.504-1.152-1.215-1.18h-0.738
			v2.629h-0.783V73.819z M256.467,76.583h0.801c0.838,0,1.369-0.459,1.369-1.152c0-0.783-0.568-1.125-1.396-1.134
			c-0.377,0-0.648,0.036-0.773,0.072V76.583z"/>
		<path fill="#585A5E" d="M262.389,79.806l-1.98-6.068h0.846l0.945,2.989c0.262,0.819,0.486,1.558,0.648,2.269h0.018
			c0.172-0.703,0.424-1.468,0.693-2.26l1.027-2.998h0.836l-2.169,6.068H262.389z"/>
		<path fill="#585A5E" d="M269.85,76.961h-2.358v2.188h2.629v0.657h-3.412v-6.068h3.277v0.657h-2.494v1.917h2.358V76.961z"/>
		<path fill="#585A5E" d="M271.766,73.819c0.396-0.081,0.963-0.126,1.504-0.126c0.837,0,1.377,0.153,1.756,0.495
			c0.306,0.27,0.477,0.684,0.477,1.152c0,0.801-0.504,1.333-1.144,1.548v0.027c0.468,0.162,0.747,0.594,0.892,1.224
			c0.197,0.846,0.342,1.432,0.468,1.666h-0.81c-0.1-0.171-0.234-0.693-0.406-1.449c-0.18-0.837-0.504-1.152-1.215-1.18h-0.738v2.629
			h-0.783V73.819z M272.549,76.583h0.801c0.838,0,1.369-0.459,1.369-1.152c0-0.783-0.567-1.125-1.396-1.134
			c-0.378,0-0.648,0.036-0.774,0.072V76.583z"/>
	</g>
	<rect x="303.665" y="66.914" fill="#FFFFFF" width="127.441" height="20.478"/>
	
		<rect x="303.665" y="66.914" fill="none" stroke="#A7A8AB" stroke-width="0.5" stroke-miterlimit="10" width="127.441" height="20.478"/>
	<g>
		<path fill="#585A5E" d="M318.439,73.819c0.342-0.072,0.882-0.126,1.432-0.126c0.783,0,1.287,0.135,1.665,0.441
			c0.315,0.234,0.504,0.594,0.504,1.071c0,0.585-0.388,1.099-1.026,1.333v0.018c0.576,0.144,1.252,0.621,1.252,1.521
			c0,0.522-0.207,0.918-0.514,1.215c-0.423,0.387-1.107,0.567-2.098,0.567c-0.54,0-0.954-0.036-1.215-0.072V73.819z M319.223,76.304
			h0.711c0.828,0,1.314-0.432,1.314-1.018c0-0.711-0.54-0.99-1.332-0.99c-0.36,0-0.568,0.027-0.693,0.054V76.304z M319.223,79.212
			c0.152,0.027,0.378,0.036,0.656,0.036c0.811,0,1.559-0.297,1.559-1.179c0-0.829-0.712-1.17-1.566-1.17h-0.648V79.212z"/>
		<path fill="#585A5E" d="M324.784,77.897l-0.63,1.909h-0.811l2.062-6.068h0.945l2.071,6.068h-0.838l-0.648-1.909H324.784z
			 M326.773,77.286l-0.594-1.747c-0.135-0.396-0.225-0.756-0.315-1.107h-0.018c-0.091,0.36-0.189,0.729-0.306,1.098l-0.595,1.756
			H326.773z"/>
		<path fill="#585A5E" d="M329.932,73.738h0.783v5.411h2.594v0.657h-3.377V73.738z"/>
		<path fill="#585A5E" d="M334.81,73.738h0.783v5.411h2.593v0.657h-3.376V73.738z"/>
		<path fill="#585A5E" d="M342.83,76.961h-2.359v2.188h2.629v0.657h-3.412v-6.068h3.277v0.657h-2.494v1.917h2.359V76.961z"/>
		<path fill="#585A5E" d="M344.746,73.819c0.396-0.081,0.963-0.126,1.503-0.126c0.837,0,1.378,0.153,1.756,0.495
			c0.306,0.27,0.478,0.684,0.478,1.152c0,0.801-0.505,1.333-1.145,1.548v0.027c0.469,0.162,0.748,0.594,0.893,1.224
			c0.197,0.846,0.342,1.432,0.467,1.666h-0.81c-0.099-0.171-0.233-0.693-0.405-1.449c-0.18-0.837-0.504-1.152-1.215-1.18h-0.738
			v2.629h-0.783V73.819z M345.529,76.583h0.801c0.838,0,1.369-0.459,1.369-1.152c0-0.783-0.568-1.125-1.396-1.134
			c-0.377,0-0.648,0.036-0.773,0.072V76.583z"/>
		<path fill="#585A5E" d="M351,73.738v6.068h-0.783v-6.068H351z"/>
		<path fill="#585A5E" d="M352.998,79.806v-6.068h0.855l1.945,3.07c0.449,0.711,0.801,1.351,1.089,1.972l0.019-0.009
			c-0.072-0.811-0.09-1.549-0.09-2.494v-2.539h0.738v6.068h-0.793l-1.927-3.079c-0.423-0.675-0.828-1.368-1.134-2.025l-0.027,0.009
			c0.045,0.766,0.062,1.495,0.062,2.503v2.593H352.998z"/>
		<path fill="#585A5E" d="M360.531,77.897l-0.63,1.909h-0.81l2.061-6.068h0.945l2.071,6.068h-0.837l-0.648-1.909H360.531z
			 M362.521,77.286l-0.594-1.747c-0.136-0.396-0.226-0.756-0.316-1.107h-0.018c-0.09,0.36-0.189,0.729-0.306,1.098l-0.595,1.756
			H362.521z"/>
		<path fill="#585A5E" d="M372.467,79.608c-0.289,0.144-0.865,0.288-1.604,0.288c-1.71,0-2.997-1.08-2.997-3.07
			c0-1.899,1.287-3.187,3.169-3.187c0.756,0,1.233,0.162,1.44,0.27l-0.188,0.639c-0.298-0.144-0.721-0.252-1.225-0.252
			c-1.423,0-2.368,0.909-2.368,2.503c0,1.485,0.855,2.439,2.331,2.439c0.478,0,0.964-0.099,1.279-0.252L372.467,79.608z"/>
		<path fill="#585A5E" d="M379.262,76.709c0,2.088-1.27,3.196-2.818,3.196c-1.602,0-2.727-1.243-2.727-3.079
			c0-1.926,1.197-3.187,2.817-3.187C378.19,73.639,379.262,74.909,379.262,76.709z M374.553,76.808c0,1.296,0.703,2.458,1.937,2.458
			c1.242,0,1.944-1.144,1.944-2.521c0-1.206-0.631-2.467-1.936-2.467C375.201,74.278,374.553,75.476,374.553,76.808z"/>
		<path fill="#585A5E" d="M386.021,77.141c-0.045-0.846-0.1-1.863-0.091-2.62h-0.026c-0.207,0.711-0.459,1.467-0.766,2.305
			l-1.071,2.944h-0.595l-0.98-2.89c-0.289-0.855-0.531-1.639-0.703-2.359h-0.018c-0.018,0.756-0.062,1.773-0.117,2.683l-0.162,2.602
			h-0.747l0.423-6.068h1l1.035,2.935c0.252,0.747,0.459,1.413,0.612,2.043h0.026c0.153-0.612,0.369-1.278,0.64-2.043l1.08-2.935
			h0.999l0.379,6.068h-0.766L386.021,77.141z"/>
		<path fill="#585A5E" d="M388.764,73.811c0.379-0.063,0.874-0.117,1.504-0.117c0.774,0,1.342,0.18,1.701,0.504
			c0.334,0.288,0.531,0.729,0.531,1.27c0,0.549-0.162,0.981-0.468,1.296c-0.414,0.441-1.089,0.666-1.854,0.666
			c-0.234,0-0.45-0.009-0.631-0.054v2.431h-0.783V73.811z M389.547,76.736c0.172,0.045,0.388,0.063,0.648,0.063
			c0.945,0,1.521-0.459,1.521-1.296c0-0.801-0.566-1.188-1.432-1.188c-0.342,0-0.603,0.027-0.738,0.063V76.736z"/>
		<path fill="#585A5E" d="M399.367,76.709c0,2.088-1.269,3.196-2.817,3.196c-1.603,0-2.728-1.243-2.728-3.079
			c0-1.926,1.197-3.187,2.818-3.187C398.297,73.639,399.367,74.909,399.367,76.709z M394.659,76.808
			c0,1.296,0.702,2.458,1.936,2.458c1.243,0,1.944-1.144,1.944-2.521c0-1.206-0.63-2.467-1.936-2.467
			C395.308,74.278,394.659,75.476,394.659,76.808z"/>
		<path fill="#585A5E" d="M400.904,78.852c0.352,0.216,0.865,0.396,1.404,0.396c0.802,0,1.27-0.423,1.27-1.035
			c0-0.567-0.324-0.892-1.143-1.207c-0.99-0.351-1.603-0.864-1.603-1.72c0-0.945,0.783-1.647,1.962-1.647
			c0.621,0,1.072,0.144,1.342,0.297l-0.216,0.639c-0.198-0.108-0.604-0.288-1.152-0.288c-0.829,0-1.144,0.495-1.144,0.909
			c0,0.567,0.369,0.846,1.207,1.17c1.025,0.396,1.548,0.891,1.548,1.783c0,0.936-0.693,1.746-2.124,1.746
			c-0.586,0-1.225-0.171-1.549-0.387L400.904,78.852z"/>
		<path fill="#585A5E" d="M409.223,76.961h-2.359v2.188h2.629v0.657h-3.412v-6.068h3.277v0.657h-2.494v1.917h2.359V76.961z"/>
		<path fill="#585A5E" d="M411.138,73.819c0.396-0.081,0.964-0.126,1.503-0.126c0.838,0,1.378,0.153,1.756,0.495
			c0.307,0.27,0.478,0.684,0.478,1.152c0,0.801-0.505,1.333-1.144,1.548v0.027c0.469,0.162,0.748,0.594,0.892,1.224
			c0.198,0.846,0.342,1.432,0.468,1.666h-0.811c-0.099-0.171-0.233-0.693-0.404-1.449c-0.181-0.837-0.504-1.152-1.216-1.18h-0.738
			v2.629h-0.783V73.819z M411.921,76.583h0.802c0.837,0,1.368-0.459,1.368-1.152c0-0.783-0.567-1.125-1.396-1.134
			c-0.378,0-0.648,0.036-0.774,0.072V76.583z"/>
	</g>
	<rect x="150.879" y="107.032" fill="#3AD1CA" width="278.89" height="21.239"/>
	<g>
		<path fill="#FFFFFF" d="M249.141,119.917c0-0.333,0.226-0.567,0.541-0.567c0.314,0,0.531,0.234,0.531,0.567
			c0,0.324-0.207,0.567-0.541,0.567C249.357,120.484,249.141,120.241,249.141,119.917z"/>
		<path fill="#FFFFFF" d="M251.85,114.398c0.342-0.072,0.883-0.126,1.432-0.126c0.783,0,1.287,0.135,1.666,0.441
			c0.314,0.234,0.504,0.594,0.504,1.071c0,0.585-0.388,1.099-1.027,1.333v0.018c0.576,0.144,1.252,0.621,1.252,1.521
			c0,0.522-0.207,0.918-0.514,1.215c-0.422,0.387-1.107,0.567-2.098,0.567c-0.539,0-0.953-0.036-1.215-0.072V114.398z
			 M252.633,116.883h0.711c0.828,0,1.314-0.432,1.314-1.018c0-0.711-0.54-0.99-1.332-0.99c-0.36,0-0.567,0.027-0.693,0.054V116.883z
			 M252.633,119.791c0.153,0.027,0.379,0.036,0.657,0.036c0.811,0,1.558-0.297,1.558-1.179c0-0.829-0.711-1.17-1.566-1.17h-0.648
			V119.791z"/>
		<path fill="#FFFFFF" d="M258.204,118.477l-0.63,1.909h-0.811l2.062-6.068h0.945l2.071,6.068h-0.838l-0.648-1.909H258.204z
			 M260.193,117.865l-0.594-1.747c-0.135-0.396-0.225-0.756-0.315-1.107h-0.018c-0.091,0.36-0.189,0.729-0.306,1.098l-0.595,1.756
			H260.193z"/>
		<path fill="#FFFFFF" d="M263.361,114.317h0.783v5.411h2.592v0.657h-3.375V114.317z"/>
		<path fill="#FFFFFF" d="M270.668,119.431c0.352,0.216,0.865,0.396,1.404,0.396c0.802,0,1.27-0.423,1.27-1.035
			c0-0.567-0.324-0.892-1.143-1.207c-0.99-0.351-1.603-0.864-1.603-1.72c0-0.945,0.783-1.647,1.962-1.647
			c0.621,0,1.072,0.144,1.342,0.297l-0.216,0.639c-0.198-0.108-0.604-0.288-1.152-0.288c-0.829,0-1.144,0.495-1.144,0.909
			c0,0.567,0.369,0.846,1.207,1.17c1.025,0.396,1.548,0.891,1.548,1.783c0,0.936-0.693,1.746-2.124,1.746
			c-0.586,0-1.225-0.171-1.549-0.387L270.668,119.431z"/>
		<path fill="#FFFFFF" d="M281.029,117.289c0,2.088-1.27,3.196-2.818,3.196c-1.603,0-2.728-1.243-2.728-3.079
			c0-1.926,1.197-3.187,2.817-3.187C279.957,114.218,281.029,115.488,281.029,117.289z M276.32,117.387
			c0,1.296,0.703,2.458,1.936,2.458c1.242,0,1.945-1.144,1.945-2.521c0-1.206-0.631-2.467-1.936-2.467
			C276.969,114.857,276.32,116.055,276.32,117.387z"/>
		<path fill="#FFFFFF" d="M283.449,114.317v3.592c0,1.359,0.604,1.936,1.413,1.936c0.9,0,1.477-0.594,1.477-1.936v-3.592h0.792
			v3.538c0,1.864-0.98,2.629-2.295,2.629c-1.243,0-2.18-0.711-2.18-2.593v-3.574H283.449z"/>
		<path fill="#FFFFFF" d="M289.118,114.398c0.396-0.081,0.964-0.126,1.503-0.126c0.838,0,1.378,0.153,1.756,0.495
			c0.307,0.27,0.478,0.684,0.478,1.152c0,0.801-0.505,1.333-1.144,1.548v0.027c0.469,0.162,0.748,0.594,0.892,1.224
			c0.198,0.846,0.342,1.432,0.468,1.666h-0.811c-0.099-0.171-0.233-0.693-0.404-1.449c-0.181-0.837-0.504-1.152-1.216-1.18h-0.738
			v2.629h-0.783V114.398z M289.901,117.162h0.802c0.837,0,1.368-0.459,1.368-1.152c0-0.783-0.567-1.125-1.396-1.134
			c-0.378,0-0.648,0.036-0.774,0.072V117.162z"/>
		<path fill="#FFFFFF" d="M298.83,120.187c-0.287,0.144-0.863,0.288-1.602,0.288c-1.711,0-2.998-1.08-2.998-3.07
			c0-1.899,1.287-3.187,3.169-3.187c0.756,0,1.233,0.162,1.44,0.27l-0.189,0.639c-0.297-0.144-0.72-0.252-1.225-0.252
			c-1.422,0-2.367,0.909-2.367,2.503c0,1.485,0.855,2.439,2.332,2.439c0.477,0,0.963-0.099,1.277-0.252L298.83,120.187z"/>
		<path fill="#FFFFFF" d="M303.582,117.541h-2.359v2.188h2.629v0.657h-3.412v-6.068h3.277v0.657h-2.494v1.917h2.359V117.541z"/>
		<path fill="#FFFFFF" d="M312.276,120.187c-0.288,0.144-0.864,0.288-1.603,0.288c-1.711,0-2.998-1.08-2.998-3.07
			c0-1.899,1.287-3.187,3.17-3.187c0.756,0,1.232,0.162,1.439,0.27l-0.188,0.639c-0.298-0.144-0.72-0.252-1.225-0.252
			c-1.423,0-2.368,0.909-2.368,2.503c0,1.485,0.855,2.439,2.332,2.439c0.478,0,0.963-0.099,1.278-0.252L312.276,120.187z"/>
		<path fill="#FFFFFF" d="M319.071,117.289c0,2.088-1.269,3.196-2.817,3.196c-1.604,0-2.729-1.243-2.729-3.079
			c0-1.926,1.197-3.187,2.818-3.187C318,114.218,319.071,115.488,319.071,117.289z M314.363,117.387
			c0,1.296,0.702,2.458,1.936,2.458c1.242,0,1.944-1.144,1.944-2.521c0-1.206-0.63-2.467-1.936-2.467
			C315.012,114.857,314.363,116.055,314.363,117.387z"/>
		<path fill="#FFFFFF" d="M320.708,114.398c0.478-0.072,1.044-0.126,1.665-0.126c1.126,0,1.928,0.261,2.459,0.756
			c0.539,0.495,0.854,1.197,0.854,2.179c0,0.99-0.306,1.8-0.873,2.358c-0.567,0.567-1.503,0.874-2.683,0.874
			c-0.559,0-1.026-0.027-1.423-0.072V114.398z M321.491,119.764c0.198,0.036,0.486,0.045,0.792,0.045
			c1.675,0,2.584-0.937,2.584-2.575c0.01-1.432-0.801-2.341-2.457-2.341c-0.406,0-0.712,0.036-0.919,0.081V119.764z"/>
		<path fill="#FFFFFF" d="M330.474,117.541h-2.358v2.188h2.629v0.657h-3.412v-6.068h3.276v0.657h-2.493v1.917h2.358V117.541z"/>
	</g>
	<line fill="none" stroke="#585A5E" stroke-miterlimit="10" x1="101.19" y1="163.803" x2="164.991" y2="163.803"/>
	<rect x="39.971" y="147.559" fill="#FFFFFF" width="78.241" height="31.465"/>
	
		<rect x="39.971" y="147.559" fill="none" stroke="#A7A8AB" stroke-width="0.5" stroke-miterlimit="10" width="78.241" height="31.465"/>
	<g>
		<path fill="#585A5E" d="M60.097,160.792l-2.209-6.767h0.944l1.054,3.333c0.291,0.914,0.542,1.737,0.723,2.53h0.02
			c0.19-0.783,0.472-1.636,0.773-2.52l1.145-3.343h0.934l-2.42,6.767H60.097z"/>
		<path fill="#585A5E" d="M68.417,157.619h-2.63v2.44h2.932v0.733h-3.805v-6.767h3.654v0.733h-2.781v2.139h2.63V157.619z"/>
		<path fill="#585A5E" d="M70.553,154.115c0.441-0.09,1.074-0.141,1.677-0.141c0.934,0,1.536,0.171,1.958,0.552
			c0.341,0.301,0.532,0.763,0.532,1.285c0,0.894-0.562,1.486-1.275,1.727v0.03c0.522,0.181,0.833,0.663,0.994,1.366
			c0.221,0.944,0.382,1.596,0.522,1.857h-0.904c-0.11-0.191-0.261-0.773-0.452-1.617c-0.201-0.934-0.562-1.285-1.355-1.315h-0.823
			v2.932h-0.874V154.115z M71.426,157.197h0.894c0.934,0,1.526-0.512,1.526-1.285c0-0.874-0.632-1.255-1.556-1.265
			c-0.422,0-0.723,0.04-0.863,0.08V157.197z"/>
		<path fill="#585A5E" d="M76.574,159.727c0.392,0.241,0.964,0.442,1.566,0.442c0.894,0,1.416-0.472,1.416-1.155
			c0-0.632-0.361-0.994-1.275-1.345c-1.104-0.392-1.788-0.964-1.788-1.917c0-1.054,0.874-1.837,2.189-1.837
			c0.693,0,1.195,0.161,1.496,0.331l-0.241,0.713c-0.221-0.121-0.672-0.321-1.285-0.321c-0.923,0-1.275,0.552-1.275,1.014
			c0,0.632,0.412,0.944,1.345,1.305c1.145,0.442,1.727,0.994,1.727,1.988c0,1.044-0.773,1.948-2.37,1.948
			c-0.652,0-1.365-0.191-1.727-0.432L76.574,159.727z"/>
		<path fill="#585A5E" d="M83.218,154.024v6.767h-0.874v-6.767H83.218z"/>
		<path fill="#585A5E" d="M91.218,157.337c0,2.33-1.416,3.564-3.143,3.564c-1.787,0-3.042-1.385-3.042-3.434
			c0-2.149,1.335-3.554,3.143-3.554C90.023,153.914,91.218,155.33,91.218,157.337z M85.967,157.448c0,1.446,0.783,2.741,2.159,2.741
			c1.385,0,2.168-1.275,2.168-2.811c0-1.346-0.703-2.751-2.159-2.751C86.69,154.627,85.967,155.962,85.967,157.448z"/>
		<path fill="#585A5E" d="M93.052,160.792v-6.767h0.954l2.169,3.424c0.502,0.793,0.894,1.506,1.215,2.199l0.02-0.01
			c-0.081-0.903-0.101-1.727-0.101-2.781v-2.832h0.823v6.767h-0.883l-2.148-3.434c-0.472-0.753-0.924-1.526-1.265-2.259l-0.03,0.01
			c0.05,0.853,0.07,1.667,0.07,2.791v2.892H93.052z"/>
	</g>
	<g>
		<path fill="#585A5E" d="M61.272,171.57c-0.321,0.161-0.964,0.321-1.787,0.321c-1.908,0-3.344-1.205-3.344-3.424
			c0-2.119,1.436-3.554,3.534-3.554c0.844,0,1.375,0.181,1.606,0.301l-0.211,0.713c-0.331-0.161-0.803-0.281-1.365-0.281
			c-1.586,0-2.641,1.014-2.641,2.791c0,1.657,0.954,2.721,2.601,2.721c0.532,0,1.074-0.111,1.426-0.281L61.272,171.57z"/>
		<path fill="#585A5E" d="M68.839,168.336c0,2.33-1.416,3.564-3.143,3.564c-1.787,0-3.042-1.385-3.042-3.434
			c0-2.149,1.335-3.554,3.143-3.554C67.645,164.913,68.839,166.329,68.839,168.336z M63.588,168.447
			c0,1.446,0.783,2.741,2.159,2.741c1.385,0,2.168-1.275,2.168-2.811c0-1.346-0.703-2.751-2.159-2.751
			C64.311,165.626,63.588,166.961,63.588,168.447z"/>
		<path fill="#585A5E" d="M70.673,171.791v-6.767h0.954l2.169,3.424c0.502,0.793,0.894,1.506,1.215,2.199l0.02-0.01
			c-0.081-0.903-0.101-1.727-0.101-2.781v-2.832h0.823v6.767H74.87l-2.148-3.434c-0.472-0.753-0.924-1.526-1.265-2.259l-0.03,0.01
			c0.05,0.853,0.07,1.667,0.07,2.791v2.892H70.673z"/>
		<path fill="#585A5E" d="M79.264,165.766h-2.059v-0.743h5.01v0.743h-2.068v6.024h-0.883V165.766z"/>
		<path fill="#585A5E" d="M83.659,165.114c0.442-0.09,1.074-0.141,1.677-0.141c0.934,0,1.536,0.171,1.958,0.552
			c0.342,0.301,0.532,0.763,0.532,1.285c0,0.894-0.562,1.486-1.275,1.727v0.03c0.522,0.181,0.833,0.663,0.994,1.366
			c0.221,0.944,0.382,1.596,0.522,1.857h-0.904c-0.11-0.191-0.261-0.773-0.452-1.617c-0.201-0.934-0.562-1.285-1.355-1.315h-0.823
			v2.932h-0.874V165.114z M84.532,168.196h0.894c0.934,0,1.526-0.512,1.526-1.285c0-0.874-0.632-1.255-1.556-1.265
			c-0.422,0-0.723,0.04-0.863,0.08V168.196z"/>
		<path fill="#585A5E" d="M95.543,168.336c0,2.33-1.416,3.564-3.143,3.564c-1.787,0-3.042-1.385-3.042-3.434
			c0-2.149,1.335-3.554,3.143-3.554C94.349,164.913,95.543,166.329,95.543,168.336z M90.292,168.447
			c0,1.446,0.783,2.741,2.159,2.741c1.385,0,2.168-1.275,2.168-2.811c0-1.346-0.703-2.751-2.159-2.751
			C91.015,165.626,90.292,166.961,90.292,168.447z"/>
		<path fill="#585A5E" d="M97.367,165.023h0.874v6.034h2.892v0.733h-3.765V165.023z"/>
	</g>
	
		<line fill="none" stroke="#A7A8AB" stroke-width="0.5" stroke-miterlimit="10" stroke-dasharray="0.5,2" x1="429.842" y1="229.436" x2="37.504" y2="229.436"/>
	<rect x="150.88" y="152.914" fill="#FFFFFF" width="278.961" height="20.478"/>
	
		<rect x="150.88" y="152.914" fill="none" stroke="#A7A8AB" stroke-width="0.5" stroke-miterlimit="10" width="278.961" height="20.478"/>
	<g>
		<path fill="#585A5E" d="M252.547,159.82c0.343-0.072,0.883-0.126,1.432-0.126c0.783,0,1.287,0.135,1.666,0.441
			c0.314,0.234,0.504,0.594,0.504,1.071c0,0.585-0.387,1.099-1.026,1.333v0.018c0.576,0.144,1.251,0.621,1.251,1.521
			c0,0.522-0.207,0.918-0.513,1.215c-0.423,0.387-1.107,0.567-2.098,0.567c-0.54,0-0.954-0.036-1.216-0.072V159.82z M253.33,162.305
			h0.712c0.828,0,1.314-0.432,1.314-1.018c0-0.711-0.54-0.99-1.333-0.99c-0.359,0-0.566,0.027-0.693,0.054V162.305z M253.33,165.213
			c0.154,0.027,0.379,0.036,0.658,0.036c0.811,0,1.557-0.297,1.557-1.179c0-0.829-0.711-1.17-1.566-1.17h-0.648V165.213z"/>
		<path fill="#585A5E" d="M258.893,163.898l-0.631,1.909h-0.81l2.062-6.068h0.945l2.07,6.068h-0.837l-0.648-1.909H258.893z
			 M260.883,163.287l-0.595-1.747c-0.136-0.396-0.226-0.756-0.315-1.107h-0.018c-0.09,0.36-0.189,0.729-0.307,1.098l-0.594,1.756
			H260.883z"/>
		<path fill="#585A5E" d="M264.041,159.739h0.783v5.411h2.592v0.657h-3.375V159.739z"/>
		<path fill="#585A5E" d="M268.918,159.739h0.783v5.411h2.593v0.657h-3.376V159.739z"/>
		<path fill="#585A5E" d="M276.938,162.962h-2.358v2.188h2.629v0.657h-3.412v-6.068h3.277v0.657h-2.494v1.917h2.358V162.962z"/>
		<path fill="#585A5E" d="M278.854,159.82c0.396-0.081,0.964-0.126,1.504-0.126c0.838,0,1.377,0.153,1.756,0.495
			c0.306,0.27,0.477,0.684,0.477,1.152c0,0.801-0.504,1.333-1.143,1.548v0.027c0.468,0.162,0.747,0.594,0.891,1.224
			c0.198,0.846,0.342,1.432,0.469,1.666h-0.811c-0.1-0.171-0.234-0.693-0.405-1.449c-0.18-0.837-0.504-1.152-1.216-1.18h-0.738
			v2.629h-0.783V159.82z M279.637,162.584h0.802c0.837,0,1.368-0.459,1.368-1.152c0-0.783-0.566-1.125-1.395-1.134
			c-0.379,0-0.648,0.036-0.775,0.072V162.584z"/>
		<path fill="#585A5E" d="M285.109,159.739v6.068h-0.783v-6.068H285.109z"/>
		<path fill="#585A5E" d="M287.107,165.807v-6.068h0.855l1.943,3.07c0.451,0.711,0.802,1.351,1.09,1.972l0.018-0.009
			c-0.071-0.811-0.09-1.549-0.09-2.494v-2.539h0.738v6.068h-0.792l-1.927-3.079c-0.423-0.675-0.828-1.368-1.135-2.025l-0.026,0.009
			c0.045,0.766,0.063,1.495,0.063,2.503v2.593H287.107z"/>
		<path fill="#585A5E" d="M294.641,163.898l-0.631,1.909h-0.811l2.062-6.068h0.945l2.07,6.068h-0.838l-0.647-1.909H294.641z
			 M296.63,163.287l-0.595-1.747c-0.135-0.396-0.225-0.756-0.314-1.107h-0.018c-0.091,0.36-0.189,0.729-0.307,1.098l-0.594,1.756
			H296.63z"/>
		<path fill="#585A5E" d="M302.334,159.82c0.343-0.072,0.883-0.126,1.432-0.126c0.783,0,1.287,0.135,1.666,0.441
			c0.314,0.234,0.504,0.594,0.504,1.071c0,0.585-0.387,1.099-1.026,1.333v0.018c0.576,0.144,1.251,0.621,1.251,1.521
			c0,0.522-0.207,0.918-0.513,1.215c-0.423,0.387-1.107,0.567-2.098,0.567c-0.54,0-0.954-0.036-1.216-0.072V159.82z
			 M303.117,162.305h0.712c0.828,0,1.314-0.432,1.314-1.018c0-0.711-0.54-0.99-1.333-0.99c-0.359,0-0.566,0.027-0.693,0.054V162.305
			z M303.117,165.213c0.154,0.027,0.379,0.036,0.658,0.036c0.811,0,1.557-0.297,1.557-1.179c0-0.829-0.711-1.17-1.566-1.17h-0.648
			V165.213z"/>
		<path fill="#585A5E" d="M308.607,159.739v3.592c0,1.359,0.604,1.936,1.414,1.936c0.9,0,1.477-0.594,1.477-1.936v-3.592h0.792
			v3.538c0,1.864-0.981,2.629-2.296,2.629c-1.242,0-2.178-0.711-2.178-2.593v-3.574H308.607z"/>
		<path fill="#585A5E" d="M315.061,159.739v6.068h-0.783v-6.068H315.061z"/>
		<path fill="#585A5E" d="M317.059,159.739h0.783v5.411h2.593v0.657h-3.376V159.739z"/>
		<path fill="#585A5E" d="M321.937,159.82c0.478-0.072,1.044-0.126,1.665-0.126c1.126,0,1.928,0.261,2.459,0.756
			c0.539,0.495,0.854,1.197,0.854,2.179c0,0.99-0.306,1.8-0.873,2.358c-0.567,0.567-1.503,0.874-2.683,0.874
			c-0.559,0-1.026-0.027-1.423-0.072V159.82z M322.72,165.186c0.198,0.036,0.486,0.045,0.792,0.045c1.675,0,2.584-0.937,2.584-2.575
			c0.01-1.432-0.801-2.341-2.457-2.341c-0.406,0-0.712,0.036-0.919,0.081V165.186z"/>
	</g>
	<rect x="150.879" y="193.032" fill="#3AD1CA" width="278.89" height="21.239"/>
	<g>
		<path fill="#FFFFFF" d="M206.482,205.917c0-0.333,0.225-0.567,0.54-0.567s0.531,0.234,0.531,0.567c0,0.324-0.207,0.567-0.54,0.567
			C206.698,206.484,206.482,206.241,206.482,205.917z"/>
		<path fill="#FFFFFF" d="M209.19,200.398c0.342-0.072,0.882-0.126,1.432-0.126c0.783,0,1.287,0.135,1.666,0.441
			c0.315,0.234,0.504,0.594,0.504,1.071c0,0.585-0.387,1.099-1.026,1.333v0.018c0.576,0.144,1.251,0.621,1.251,1.521
			c0,0.522-0.207,0.918-0.513,1.215c-0.423,0.387-1.107,0.567-2.098,0.567c-0.54,0-0.954-0.036-1.215-0.072V200.398z
			 M209.974,202.883h0.711c0.828,0,1.314-0.432,1.314-1.018c0-0.711-0.541-0.99-1.333-0.99c-0.36,0-0.567,0.027-0.693,0.054V202.883
			z M209.974,205.791c0.153,0.027,0.378,0.036,0.657,0.036c0.811,0,1.558-0.297,1.558-1.179c0-0.829-0.711-1.17-1.566-1.17h-0.648
			V205.791z"/>
		<path fill="#FFFFFF" d="M215.545,204.477l-0.631,1.909h-0.81l2.062-6.068h0.945l2.07,6.068h-0.837l-0.648-1.909H215.545z
			 M217.535,203.865l-0.595-1.747c-0.136-0.396-0.226-0.756-0.315-1.107h-0.018c-0.09,0.36-0.189,0.729-0.307,1.098l-0.594,1.756
			H217.535z"/>
		<path fill="#FFFFFF" d="M220.701,200.317h0.783v5.411h2.594v0.657h-3.377V200.317z"/>
		<path fill="#FFFFFF" d="M230.531,203.289c0,2.088-1.27,3.196-2.818,3.196c-1.603,0-2.728-1.243-2.728-3.079
			c0-1.926,1.197-3.187,2.817-3.187C229.459,200.218,230.531,201.488,230.531,203.289z M225.822,203.387
			c0,1.296,0.703,2.458,1.936,2.458c1.242,0,1.945-1.144,1.945-2.521c0-1.206-0.631-2.467-1.936-2.467
			C226.471,200.857,225.822,202.055,225.822,203.387z"/>
		<path fill="#FFFFFF" d="M231.357,207.493c0.198-0.531,0.441-1.495,0.54-2.152l0.882-0.09c-0.207,0.765-0.603,1.765-0.854,2.188
			L231.357,207.493z"/>
		<path fill="#FFFFFF" d="M236.713,205.917c0-0.333,0.225-0.567,0.539-0.567c0.315,0,0.531,0.234,0.531,0.567
			c0,0.324-0.207,0.567-0.539,0.567C236.928,206.484,236.713,206.241,236.713,205.917z"/>
		<path fill="#FFFFFF" d="M239.421,200.398c0.343-0.072,0.882-0.126,1.432-0.126c0.783,0,1.287,0.135,1.665,0.441
			c0.315,0.234,0.504,0.594,0.504,1.071c0,0.585-0.387,1.099-1.025,1.333v0.018c0.576,0.144,1.251,0.621,1.251,1.521
			c0,0.522-0.207,0.918-0.513,1.215c-0.424,0.387-1.107,0.567-2.098,0.567c-0.541,0-0.955-0.036-1.216-0.072V200.398z
			 M240.204,202.883h0.712c0.828,0,1.314-0.432,1.314-1.018c0-0.711-0.541-0.99-1.333-0.99c-0.36,0-0.567,0.027-0.693,0.054V202.883
			z M240.204,205.791c0.153,0.027,0.378,0.036,0.657,0.036c0.811,0,1.558-0.297,1.558-1.179c0-0.829-0.712-1.17-1.566-1.17h-0.648
			V205.791z"/>
		<path fill="#FFFFFF" d="M245.775,204.477l-0.631,1.909h-0.81l2.062-6.068h0.945l2.07,6.068h-0.837l-0.648-1.909H245.775z
			 M247.766,203.865l-0.595-1.747c-0.136-0.396-0.226-0.756-0.315-1.107h-0.018c-0.09,0.36-0.189,0.729-0.307,1.098l-0.594,1.756
			H247.766z"/>
		<path fill="#FFFFFF" d="M250.923,200.317h0.783v5.411h2.593v0.657h-3.376V200.317z"/>
		<path fill="#FFFFFF" d="M259.123,206.385l-0.774-1.341c-0.315-0.513-0.513-0.846-0.702-1.197h-0.018
			c-0.172,0.351-0.343,0.675-0.658,1.206l-0.729,1.333h-0.9l1.854-3.07l-1.782-2.998h0.909l0.802,1.422
			c0.225,0.396,0.396,0.702,0.558,1.026h0.026c0.172-0.36,0.324-0.639,0.55-1.026l0.828-1.422h0.9l-1.846,2.953l1.891,3.115H259.123
			z"/>
		<path fill="#FFFFFF" d="M264.107,200.398c0.343-0.072,0.883-0.126,1.432-0.126c0.783,0,1.287,0.135,1.666,0.441
			c0.314,0.234,0.504,0.594,0.504,1.071c0,0.585-0.387,1.099-1.026,1.333v0.018c0.576,0.144,1.251,0.621,1.251,1.521
			c0,0.522-0.207,0.918-0.513,1.215c-0.423,0.387-1.107,0.567-2.098,0.567c-0.54,0-0.954-0.036-1.216-0.072V200.398z
			 M264.891,202.883h0.712c0.828,0,1.314-0.432,1.314-1.018c0-0.711-0.54-0.99-1.333-0.99c-0.359,0-0.566,0.027-0.693,0.054V202.883
			z M264.891,205.791c0.154,0.027,0.379,0.036,0.658,0.036c0.811,0,1.557-0.297,1.557-1.179c0-0.829-0.711-1.17-1.566-1.17h-0.648
			V205.791z"/>
		<path fill="#FFFFFF" d="M270.732,206.385v-2.575l-1.918-3.493h0.892l0.855,1.674c0.233,0.459,0.414,0.829,0.603,1.251h0.019
			c0.171-0.396,0.378-0.792,0.612-1.251l0.873-1.674h0.891l-2.034,3.484v2.584H270.732z"/>
		<path fill="#FFFFFF" d="M276.051,200.984h-1.846v-0.667h4.492v0.667h-1.854v5.401h-0.793V200.984z"/>
		<path fill="#FFFFFF" d="M283.144,203.541h-2.358v2.188h2.629v0.657h-3.412v-6.068h3.276v0.657h-2.493v1.917h2.358V203.541z"/>
		<path fill="#FFFFFF" d="M289.3,206.187c-0.288,0.144-0.864,0.288-1.603,0.288c-1.711,0-2.998-1.08-2.998-3.07
			c0-1.899,1.287-3.187,3.17-3.187c0.756,0,1.232,0.162,1.439,0.27l-0.188,0.639c-0.298-0.144-0.72-0.252-1.225-0.252
			c-1.423,0-2.368,0.909-2.368,2.503c0,1.485,0.855,2.439,2.332,2.439c0.478,0,0.963-0.099,1.278-0.252L289.3,206.187z"/>
		<path fill="#FFFFFF" d="M296.086,203.289c0,2.088-1.27,3.196-2.818,3.196c-1.602,0-2.727-1.243-2.727-3.079
			c0-1.926,1.197-3.187,2.817-3.187C295.015,200.218,296.086,201.488,296.086,203.289z M291.377,203.387
			c0,1.296,0.703,2.458,1.937,2.458c1.242,0,1.944-1.144,1.944-2.521c0-1.206-0.631-2.467-1.936-2.467
			C292.025,200.857,291.377,202.055,291.377,203.387z"/>
		<path fill="#FFFFFF" d="M297.73,200.398c0.478-0.072,1.045-0.126,1.666-0.126c1.125,0,1.927,0.261,2.458,0.756
			c0.54,0.495,0.854,1.197,0.854,2.179c0,0.99-0.306,1.8-0.873,2.358c-0.566,0.567-1.503,0.874-2.683,0.874
			c-0.558,0-1.026-0.027-1.423-0.072V200.398z M298.514,205.764c0.199,0.036,0.486,0.045,0.793,0.045
			c1.674,0,2.584-0.937,2.584-2.575c0.009-1.432-0.802-2.341-2.458-2.341c-0.405,0-0.712,0.036-0.919,0.081V205.764z"/>
		<path fill="#FFFFFF" d="M307.488,203.541h-2.359v2.188h2.629v0.657h-3.412v-6.068h3.277v0.657h-2.494v1.917h2.359V203.541z"/>
		<path fill="#FFFFFF" d="M312.924,204.477l-0.631,1.909h-0.811l2.062-6.068h0.945l2.07,6.068h-0.838l-0.647-1.909H312.924z
			 M314.913,203.865l-0.595-1.747c-0.135-0.396-0.225-0.756-0.314-1.107h-0.018c-0.091,0.36-0.189,0.729-0.307,1.098l-0.594,1.756
			H314.913z"/>
		<path fill="#FFFFFF" d="M318.07,206.385v-6.068h0.855l1.945,3.07c0.449,0.711,0.801,1.351,1.089,1.972l0.019-0.009
			c-0.072-0.811-0.09-1.549-0.09-2.494v-2.539h0.738v6.068h-0.793l-1.927-3.079c-0.423-0.675-0.828-1.368-1.134-2.025l-0.027,0.009
			c0.045,0.766,0.062,1.495,0.062,2.503v2.593H318.07z"/>
		<path fill="#FFFFFF" d="M324.623,200.398c0.477-0.072,1.044-0.126,1.665-0.126c1.126,0,1.927,0.261,2.458,0.756
			c0.54,0.495,0.855,1.197,0.855,2.179c0,0.99-0.307,1.8-0.873,2.358c-0.568,0.567-1.504,0.874-2.684,0.874
			c-0.559,0-1.026-0.027-1.422-0.072V200.398z M325.406,205.764c0.197,0.036,0.486,0.045,0.792,0.045
			c1.675,0,2.583-0.937,2.583-2.575c0.01-1.432-0.801-2.341-2.457-2.341c-0.405,0-0.711,0.036-0.918,0.081V205.764z"/>
		<path fill="#FFFFFF" d="M333.785,200.398c0.342-0.072,0.882-0.126,1.432-0.126c0.783,0,1.287,0.135,1.665,0.441
			c0.315,0.234,0.504,0.594,0.504,1.071c0,0.585-0.388,1.099-1.026,1.333v0.018c0.576,0.144,1.252,0.621,1.252,1.521
			c0,0.522-0.207,0.918-0.514,1.215c-0.423,0.387-1.107,0.567-2.098,0.567c-0.54,0-0.954-0.036-1.215-0.072V200.398z
			 M334.568,202.883h0.711c0.828,0,1.314-0.432,1.314-1.018c0-0.711-0.54-0.99-1.332-0.99c-0.36,0-0.568,0.027-0.693,0.054V202.883z
			 M334.568,205.791c0.152,0.027,0.378,0.036,0.656,0.036c0.811,0,1.559-0.297,1.559-1.179c0-0.829-0.712-1.17-1.566-1.17h-0.648
			V205.791z"/>
		<path fill="#FFFFFF" d="M340.066,200.317v6.068h-0.783v-6.068H340.066z"/>
		<path fill="#FFFFFF" d="M342.064,206.385v-6.068h0.855l1.944,3.07c0.45,0.711,0.802,1.351,1.089,1.972l0.019-0.009
			c-0.071-0.811-0.09-1.549-0.09-2.494v-2.539h0.738v6.068h-0.792l-1.927-3.079c-0.423-0.675-0.829-1.368-1.135-2.025l-0.026,0.009
			c0.045,0.766,0.062,1.495,0.062,2.503v2.593H342.064z"/>
		<path fill="#FFFFFF" d="M349.598,204.477l-0.631,1.909h-0.81l2.062-6.068h0.945l2.07,6.068h-0.837l-0.648-1.909H349.598z
			 M351.588,203.865l-0.595-1.747c-0.136-0.396-0.226-0.756-0.315-1.107h-0.018c-0.09,0.36-0.189,0.729-0.307,1.098l-0.594,1.756
			H351.588z"/>
		<path fill="#FFFFFF" d="M354.746,200.398c0.396-0.081,0.963-0.126,1.503-0.126c0.837,0,1.378,0.153,1.756,0.495
			c0.306,0.27,0.478,0.684,0.478,1.152c0,0.801-0.505,1.333-1.145,1.548v0.027c0.469,0.162,0.748,0.594,0.893,1.224
			c0.197,0.846,0.342,1.432,0.467,1.666h-0.81c-0.099-0.171-0.233-0.693-0.405-1.449c-0.18-0.837-0.504-1.152-1.215-1.18h-0.738
			v2.629h-0.783V200.398z M355.529,203.162h0.801c0.838,0,1.369-0.459,1.369-1.152c0-0.783-0.568-1.125-1.396-1.134
			c-0.377,0-0.648,0.036-0.773,0.072V203.162z"/>
		<path fill="#FFFFFF" d="M361,200.317v6.068h-0.783v-6.068H361z"/>
		<path fill="#FFFFFF" d="M366.131,203.541h-2.358v2.188h2.629v0.657h-3.412v-6.068h3.277v0.657h-2.494v1.917h2.358V203.541z"/>
		<path fill="#FFFFFF" d="M367.939,205.431c0.352,0.216,0.864,0.396,1.404,0.396c0.801,0,1.27-0.423,1.27-1.035
			c0-0.567-0.324-0.892-1.144-1.207c-0.99-0.351-1.603-0.864-1.603-1.72c0-0.945,0.783-1.647,1.963-1.647
			c0.621,0,1.071,0.144,1.342,0.297l-0.217,0.639c-0.197-0.108-0.604-0.288-1.152-0.288c-0.828,0-1.143,0.495-1.143,0.909
			c0,0.567,0.369,0.846,1.206,1.17c1.026,0.396,1.548,0.891,1.548,1.783c0,0.936-0.693,1.746-2.124,1.746
			c-0.585,0-1.225-0.171-1.549-0.387L367.939,205.431z"/>
	</g>
	<line fill="none" stroke="#585A5E" stroke-miterlimit="10" x1="297.941" y1="409.524" x2="297.941" y2="399.844"/>
	<polygon fill="#585A5E" points="300.934,408.648 297.941,413.83 294.949,408.648 	"/>
	
		<line fill="none" stroke="#A7A8AB" stroke-width="0.5" stroke-miterlimit="10" stroke-dasharray="0.5,2" x1="429.842" y1="363.656" x2="37.504" y2="363.656"/>
	<line fill="none" stroke="#585A5E" stroke-miterlimit="10" x1="101.19" y1="387.277" x2="164.991" y2="387.277"/>
	<rect x="39.971" y="371.032" fill="#FFFFFF" width="78.241" height="31.466"/>
	
		<rect x="39.971" y="371.032" fill="none" stroke="#A7A8AB" stroke-width="0.5" stroke-miterlimit="10" width="78.241" height="31.466"/>
	<rect x="150.88" y="376.388" fill="#FFFFFF" width="278.961" height="20.478"/>
	
		<rect x="150.88" y="376.388" fill="none" stroke="#A7A8AB" stroke-width="0.5" stroke-miterlimit="10" width="278.961" height="20.478"/>
	<g>
		<path fill="#585A5E" d="M252.547,383.292c0.343-0.071,0.883-0.125,1.432-0.125c0.783,0,1.287,0.135,1.666,0.44
			c0.314,0.234,0.504,0.595,0.504,1.071c0,0.586-0.387,1.099-1.026,1.332v0.019c0.576,0.144,1.251,0.621,1.251,1.521
			c0,0.522-0.207,0.919-0.513,1.216c-0.423,0.387-1.107,0.566-2.098,0.566c-0.54,0-0.954-0.035-1.216-0.072V383.292z
			 M253.33,385.778h0.712c0.828,0,1.314-0.433,1.314-1.018c0-0.711-0.54-0.99-1.333-0.99c-0.359,0-0.566,0.027-0.693,0.054V385.778z
			 M253.33,388.685c0.154,0.027,0.379,0.037,0.658,0.037c0.811,0,1.557-0.298,1.557-1.18c0-0.828-0.711-1.17-1.566-1.17h-0.648
			V388.685z"/>
		<path fill="#585A5E" d="M258.893,387.371l-0.631,1.909h-0.81l2.062-6.067h0.945l2.07,6.067h-0.837l-0.648-1.909H258.893z
			 M260.883,386.759l-0.595-1.746c-0.136-0.396-0.226-0.757-0.315-1.107h-0.018c-0.09,0.359-0.189,0.729-0.307,1.098l-0.594,1.756
			H260.883z"/>
		<path fill="#585A5E" d="M264.041,383.212h0.783v5.41h2.592v0.657h-3.375V383.212z"/>
		<path fill="#585A5E" d="M268.918,383.212h0.783v5.41h2.593v0.657h-3.376V383.212z"/>
		<path fill="#585A5E" d="M276.938,386.435h-2.358v2.188h2.629v0.657h-3.412v-6.067h3.277v0.656h-2.494v1.918h2.358V386.435z"/>
		<path fill="#585A5E" d="M278.854,383.292c0.396-0.08,0.964-0.125,1.504-0.125c0.838,0,1.377,0.152,1.756,0.494
			c0.306,0.271,0.477,0.685,0.477,1.152c0,0.802-0.504,1.333-1.143,1.549v0.027c0.468,0.162,0.747,0.594,0.891,1.225
			c0.198,0.846,0.342,1.432,0.469,1.665h-0.811c-0.1-0.171-0.234-0.693-0.405-1.449c-0.18-0.837-0.504-1.152-1.216-1.18h-0.738
			v2.629h-0.783V383.292z M279.637,386.056h0.802c0.837,0,1.368-0.459,1.368-1.152c0-0.783-0.566-1.125-1.395-1.134
			c-0.379,0-0.648,0.036-0.775,0.072V386.056z"/>
		<path fill="#585A5E" d="M285.109,383.212v6.067h-0.783v-6.067H285.109z"/>
		<path fill="#585A5E" d="M287.107,389.28v-6.067h0.855l1.943,3.069c0.451,0.712,0.802,1.351,1.09,1.972l0.018-0.009
			c-0.071-0.811-0.09-1.549-0.09-2.494v-2.538h0.738v6.067h-0.792l-1.927-3.079c-0.423-0.675-0.828-1.368-1.135-2.025l-0.026,0.009
			c0.045,0.766,0.063,1.495,0.063,2.503v2.593H287.107z"/>
		<path fill="#585A5E" d="M294.641,387.371l-0.631,1.909h-0.811l2.062-6.067h0.945l2.07,6.067h-0.838l-0.647-1.909H294.641z
			 M296.63,386.759l-0.595-1.746c-0.135-0.396-0.225-0.757-0.314-1.107h-0.018c-0.091,0.359-0.189,0.729-0.307,1.098l-0.594,1.756
			H296.63z"/>
		<path fill="#585A5E" d="M302.334,383.292c0.343-0.071,0.883-0.125,1.432-0.125c0.783,0,1.287,0.135,1.666,0.44
			c0.314,0.234,0.504,0.595,0.504,1.071c0,0.586-0.387,1.099-1.026,1.332v0.019c0.576,0.144,1.251,0.621,1.251,1.521
			c0,0.522-0.207,0.919-0.513,1.216c-0.423,0.387-1.107,0.566-2.098,0.566c-0.54,0-0.954-0.035-1.216-0.072V383.292z
			 M303.117,385.778h0.712c0.828,0,1.314-0.433,1.314-1.018c0-0.711-0.54-0.99-1.333-0.99c-0.359,0-0.566,0.027-0.693,0.054V385.778
			z M303.117,388.685c0.154,0.027,0.379,0.037,0.658,0.037c0.811,0,1.557-0.298,1.557-1.18c0-0.828-0.711-1.17-1.566-1.17h-0.648
			V388.685z"/>
		<path fill="#585A5E" d="M308.607,383.212v3.592c0,1.359,0.604,1.936,1.414,1.936c0.9,0,1.477-0.594,1.477-1.936v-3.592h0.792
			v3.537c0,1.864-0.981,2.629-2.296,2.629c-1.242,0-2.178-0.711-2.178-2.592v-3.574H308.607z"/>
		<path fill="#585A5E" d="M315.061,383.212v6.067h-0.783v-6.067H315.061z"/>
		<path fill="#585A5E" d="M317.059,383.212h0.783v5.41h2.593v0.657h-3.376V383.212z"/>
		<path fill="#585A5E" d="M321.937,383.292c0.478-0.071,1.044-0.125,1.665-0.125c1.126,0,1.928,0.261,2.459,0.756
			c0.539,0.495,0.854,1.197,0.854,2.179c0,0.99-0.306,1.8-0.873,2.358c-0.567,0.567-1.503,0.873-2.683,0.873
			c-0.559,0-1.026-0.027-1.423-0.072V383.292z M322.72,388.659c0.198,0.036,0.486,0.045,0.792,0.045
			c1.675,0,2.584-0.937,2.584-2.575c0.01-1.432-0.801-2.34-2.457-2.34c-0.406,0-0.712,0.035-0.919,0.08V388.659z"/>
	</g>
	<rect x="150.879" y="416.505" fill="#3AD1CA" width="278.89" height="21.238"/>
	<g>
		<path fill="#FFFFFF" d="M206.482,429.39c0-0.332,0.225-0.566,0.54-0.566s0.531,0.234,0.531,0.566c0,0.324-0.207,0.568-0.54,0.568
			C206.698,429.958,206.482,429.714,206.482,429.39z"/>
		<path fill="#FFFFFF" d="M209.19,423.873c0.342-0.072,0.882-0.127,1.432-0.127c0.783,0,1.287,0.136,1.666,0.441
			c0.315,0.234,0.504,0.594,0.504,1.071c0,0.585-0.387,1.099-1.026,1.333v0.018c0.576,0.145,1.251,0.621,1.251,1.521
			c0,0.521-0.207,0.918-0.513,1.215c-0.423,0.388-1.107,0.568-2.098,0.568c-0.54,0-0.954-0.037-1.215-0.072V423.873z
			 M209.974,426.357h0.711c0.828,0,1.314-0.432,1.314-1.018c0-0.711-0.541-0.99-1.333-0.99c-0.36,0-0.567,0.027-0.693,0.055V426.357
			z M209.974,429.265c0.153,0.026,0.378,0.035,0.657,0.035c0.811,0,1.558-0.297,1.558-1.179c0-0.829-0.711-1.171-1.566-1.171h-0.648
			V429.265z"/>
		<path fill="#FFFFFF" d="M215.545,427.951l-0.631,1.908h-0.81l2.062-6.068h0.945l2.07,6.068h-0.837l-0.648-1.908H215.545z
			 M217.535,427.338l-0.595-1.747c-0.136-0.396-0.226-0.756-0.315-1.107h-0.018c-0.09,0.36-0.189,0.729-0.307,1.099l-0.594,1.756
			H217.535z"/>
		<path fill="#FFFFFF" d="M220.701,423.791h0.783v5.411h2.594v0.657h-3.377V423.791z"/>
		<path fill="#FFFFFF" d="M230.531,426.762c0,2.089-1.27,3.196-2.818,3.196c-1.603,0-2.728-1.243-2.728-3.08
			c0-1.926,1.197-3.187,2.817-3.187C229.459,423.692,230.531,424.961,230.531,426.762z M225.822,426.861
			c0,1.297,0.703,2.458,1.936,2.458c1.242,0,1.945-1.144,1.945-2.521c0-1.207-0.631-2.467-1.936-2.467
			C226.471,424.332,225.822,425.529,225.822,426.861z"/>
		<path fill="#FFFFFF" d="M231.357,430.966c0.198-0.531,0.441-1.494,0.54-2.152l0.882-0.09c-0.207,0.766-0.603,1.766-0.854,2.188
			L231.357,430.966z"/>
		<path fill="#FFFFFF" d="M236.713,429.39c0-0.332,0.225-0.566,0.539-0.566c0.315,0,0.531,0.234,0.531,0.566
			c0,0.324-0.207,0.568-0.539,0.568C236.928,429.958,236.713,429.714,236.713,429.39z"/>
		<path fill="#FFFFFF" d="M239.421,423.873c0.343-0.072,0.882-0.127,1.432-0.127c0.783,0,1.287,0.136,1.665,0.441
			c0.315,0.234,0.504,0.594,0.504,1.071c0,0.585-0.387,1.099-1.025,1.333v0.018c0.576,0.145,1.251,0.621,1.251,1.521
			c0,0.521-0.207,0.918-0.513,1.215c-0.424,0.388-1.107,0.568-2.098,0.568c-0.541,0-0.955-0.037-1.216-0.072V423.873z
			 M240.204,426.357h0.712c0.828,0,1.314-0.432,1.314-1.018c0-0.711-0.541-0.99-1.333-0.99c-0.36,0-0.567,0.027-0.693,0.055V426.357
			z M240.204,429.265c0.153,0.026,0.378,0.035,0.657,0.035c0.811,0,1.558-0.297,1.558-1.179c0-0.829-0.712-1.171-1.566-1.171h-0.648
			V429.265z"/>
		<path fill="#FFFFFF" d="M245.775,427.951l-0.631,1.908h-0.81l2.062-6.068h0.945l2.07,6.068h-0.837l-0.648-1.908H245.775z
			 M247.766,427.338l-0.595-1.747c-0.136-0.396-0.226-0.756-0.315-1.107h-0.018c-0.09,0.36-0.189,0.729-0.307,1.099l-0.594,1.756
			H247.766z"/>
		<path fill="#FFFFFF" d="M250.923,423.791h0.783v5.411h2.593v0.657h-3.376V423.791z"/>
		<path fill="#FFFFFF" d="M259.123,429.859l-0.774-1.342c-0.315-0.513-0.513-0.846-0.702-1.197h-0.018
			c-0.172,0.352-0.343,0.676-0.658,1.207l-0.729,1.332h-0.9l1.854-3.07l-1.782-2.998h0.909l0.802,1.423
			c0.225,0.396,0.396,0.702,0.558,1.026h0.026c0.172-0.359,0.324-0.639,0.55-1.026l0.828-1.423h0.9l-1.846,2.953l1.891,3.115
			H259.123z"/>
		<path fill="#FFFFFF" d="M264.107,423.873c0.343-0.072,0.883-0.127,1.432-0.127c0.783,0,1.287,0.136,1.666,0.441
			c0.314,0.234,0.504,0.594,0.504,1.071c0,0.585-0.387,1.099-1.026,1.333v0.018c0.576,0.145,1.251,0.621,1.251,1.521
			c0,0.521-0.207,0.918-0.513,1.215c-0.423,0.388-1.107,0.568-2.098,0.568c-0.54,0-0.954-0.037-1.216-0.072V423.873z
			 M264.891,426.357h0.712c0.828,0,1.314-0.432,1.314-1.018c0-0.711-0.54-0.99-1.333-0.99c-0.359,0-0.566,0.027-0.693,0.055V426.357
			z M264.891,429.265c0.154,0.026,0.379,0.035,0.658,0.035c0.811,0,1.557-0.297,1.557-1.179c0-0.829-0.711-1.171-1.566-1.171h-0.648
			V429.265z"/>
		<path fill="#FFFFFF" d="M270.732,429.859v-2.574l-1.918-3.494h0.892l0.855,1.675c0.233,0.46,0.414,0.829,0.603,1.251h0.019
			c0.171-0.396,0.378-0.791,0.612-1.251l0.873-1.675h0.891l-2.034,3.484v2.584H270.732z"/>
		<path fill="#FFFFFF" d="M276.051,424.458h-1.846v-0.667h4.492v0.667h-1.854v5.401h-0.793V424.458z"/>
		<path fill="#FFFFFF" d="M283.144,427.014h-2.358v2.188h2.629v0.657h-3.412v-6.068h3.276v0.658h-2.493v1.917h2.358V427.014z"/>
		<path fill="#FFFFFF" d="M289.3,429.661c-0.288,0.144-0.864,0.288-1.603,0.288c-1.711,0-2.998-1.08-2.998-3.07
			c0-1.898,1.287-3.187,3.17-3.187c0.756,0,1.232,0.162,1.439,0.271l-0.188,0.639c-0.298-0.144-0.72-0.252-1.225-0.252
			c-1.423,0-2.368,0.909-2.368,2.503c0,1.485,0.855,2.439,2.332,2.439c0.478,0,0.963-0.099,1.278-0.252L289.3,429.661z"/>
		<path fill="#FFFFFF" d="M296.086,426.762c0,2.089-1.27,3.196-2.818,3.196c-1.602,0-2.727-1.243-2.727-3.08
			c0-1.926,1.197-3.187,2.817-3.187C295.015,423.692,296.086,424.961,296.086,426.762z M291.377,426.861
			c0,1.297,0.703,2.458,1.937,2.458c1.242,0,1.944-1.144,1.944-2.521c0-1.207-0.631-2.467-1.936-2.467
			C292.025,424.332,291.377,425.529,291.377,426.861z"/>
		<path fill="#FFFFFF" d="M297.73,423.873c0.478-0.072,1.045-0.127,1.666-0.127c1.125,0,1.927,0.262,2.458,0.757
			c0.54,0.495,0.854,1.197,0.854,2.179c0,0.99-0.306,1.801-0.873,2.358c-0.566,0.567-1.503,0.874-2.683,0.874
			c-0.558,0-1.026-0.027-1.423-0.072V423.873z M298.514,429.238c0.199,0.036,0.486,0.045,0.793,0.045
			c1.674,0,2.584-0.937,2.584-2.574c0.009-1.432-0.802-2.342-2.458-2.342c-0.405,0-0.712,0.037-0.919,0.082V429.238z"/>
		<path fill="#FFFFFF" d="M307.488,427.014h-2.359v2.188h2.629v0.657h-3.412v-6.068h3.277v0.658h-2.494v1.917h2.359V427.014z"/>
		<path fill="#FFFFFF" d="M312.924,427.951l-0.631,1.908h-0.811l2.062-6.068h0.945l2.07,6.068h-0.838l-0.647-1.908H312.924z
			 M314.913,427.338l-0.595-1.747c-0.135-0.396-0.225-0.756-0.314-1.107h-0.018c-0.091,0.36-0.189,0.729-0.307,1.099l-0.594,1.756
			H314.913z"/>
		<path fill="#FFFFFF" d="M318.07,429.859v-6.068h0.855l1.945,3.07c0.449,0.711,0.801,1.351,1.089,1.972l0.019-0.009
			c-0.072-0.811-0.09-1.549-0.09-2.494v-2.539h0.738v6.068h-0.793l-1.927-3.079c-0.423-0.675-0.828-1.368-1.134-2.025l-0.027,0.009
			c0.045,0.766,0.062,1.494,0.062,2.503v2.593H318.07z"/>
		<path fill="#FFFFFF" d="M324.623,423.873c0.477-0.072,1.044-0.127,1.665-0.127c1.126,0,1.927,0.262,2.458,0.757
			c0.54,0.495,0.855,1.197,0.855,2.179c0,0.99-0.307,1.801-0.873,2.358c-0.568,0.567-1.504,0.874-2.684,0.874
			c-0.559,0-1.026-0.027-1.422-0.072V423.873z M325.406,429.238c0.197,0.036,0.486,0.045,0.792,0.045
			c1.675,0,2.583-0.937,2.583-2.574c0.01-1.432-0.801-2.342-2.457-2.342c-0.405,0-0.711,0.037-0.918,0.082V429.238z"/>
		<path fill="#FFFFFF" d="M333.785,423.873c0.342-0.072,0.882-0.127,1.432-0.127c0.783,0,1.287,0.136,1.665,0.441
			c0.315,0.234,0.504,0.594,0.504,1.071c0,0.585-0.388,1.099-1.026,1.333v0.018c0.576,0.145,1.252,0.621,1.252,1.521
			c0,0.521-0.207,0.918-0.514,1.215c-0.423,0.388-1.107,0.568-2.098,0.568c-0.54,0-0.954-0.037-1.215-0.072V423.873z
			 M334.568,426.357h0.711c0.828,0,1.314-0.432,1.314-1.018c0-0.711-0.54-0.99-1.332-0.99c-0.36,0-0.568,0.027-0.693,0.055V426.357z
			 M334.568,429.265c0.152,0.026,0.378,0.035,0.656,0.035c0.811,0,1.559-0.297,1.559-1.179c0-0.829-0.712-1.171-1.566-1.171h-0.648
			V429.265z"/>
		<path fill="#FFFFFF" d="M340.066,423.791v6.068h-0.783v-6.068H340.066z"/>
		<path fill="#FFFFFF" d="M342.064,429.859v-6.068h0.855l1.944,3.07c0.45,0.711,0.802,1.351,1.089,1.972l0.019-0.009
			c-0.071-0.811-0.09-1.549-0.09-2.494v-2.539h0.738v6.068h-0.792l-1.927-3.079c-0.423-0.675-0.829-1.368-1.135-2.025l-0.026,0.009
			c0.045,0.766,0.062,1.494,0.062,2.503v2.593H342.064z"/>
		<path fill="#FFFFFF" d="M349.598,427.951l-0.631,1.908h-0.81l2.062-6.068h0.945l2.07,6.068h-0.837l-0.648-1.908H349.598z
			 M351.588,427.338l-0.595-1.747c-0.136-0.396-0.226-0.756-0.315-1.107h-0.018c-0.09,0.36-0.189,0.729-0.307,1.099l-0.594,1.756
			H351.588z"/>
		<path fill="#FFFFFF" d="M354.746,423.873c0.396-0.082,0.963-0.127,1.503-0.127c0.837,0,1.378,0.153,1.756,0.496
			c0.306,0.27,0.478,0.684,0.478,1.152c0,0.801-0.505,1.332-1.145,1.548v0.027c0.469,0.161,0.748,0.594,0.893,1.224
			c0.197,0.847,0.342,1.432,0.467,1.666h-0.81c-0.099-0.171-0.233-0.693-0.405-1.449c-0.18-0.838-0.504-1.152-1.215-1.18h-0.738
			v2.629h-0.783V423.873z M355.529,426.636h0.801c0.838,0,1.369-0.459,1.369-1.152c0-0.783-0.568-1.125-1.396-1.135
			c-0.377,0-0.648,0.036-0.773,0.072V426.636z"/>
		<path fill="#FFFFFF" d="M361,423.791v6.068h-0.783v-6.068H361z"/>
		<path fill="#FFFFFF" d="M366.131,427.014h-2.358v2.188h2.629v0.657h-3.412v-6.068h3.277v0.658h-2.494v1.917h2.358V427.014z"/>
		<path fill="#FFFFFF" d="M367.939,428.905c0.352,0.216,0.864,0.396,1.404,0.396c0.801,0,1.27-0.423,1.27-1.035
			c0-0.566-0.324-0.891-1.144-1.206c-0.99-0.351-1.603-0.864-1.603-1.72c0-0.945,0.783-1.647,1.963-1.647
			c0.621,0,1.071,0.144,1.342,0.298l-0.217,0.639c-0.197-0.107-0.604-0.288-1.152-0.288c-0.828,0-1.143,0.495-1.143,0.909
			c0,0.567,0.369,0.846,1.206,1.17c1.026,0.396,1.548,0.892,1.548,1.783c0,0.936-0.693,1.746-2.124,1.746
			c-0.585,0-1.225-0.171-1.549-0.387L367.939,428.905z"/>
	</g>
	<line fill="none" stroke="#585A5E" stroke-miterlimit="10" x1="101.19" y1="255.477" x2="164.991" y2="255.477"/>
	<rect x="39.971" y="239.232" fill="#FFFFFF" width="78.241" height="31.465"/>
	
		<rect x="39.971" y="239.232" fill="none" stroke="#A7A8AB" stroke-width="0.5" stroke-miterlimit="10" width="78.241" height="31.465"/>
	<g>
		<path fill="#585A5E" d="M71.301,257.7c-0.321,0.161-0.964,0.321-1.787,0.321c-1.908,0-3.344-1.205-3.344-3.424
			c0-2.119,1.436-3.555,3.534-3.555c0.844,0,1.375,0.182,1.606,0.302l-0.211,0.713c-0.331-0.161-0.803-0.281-1.365-0.281
			c-1.586,0-2.641,1.015-2.641,2.791c0,1.657,0.954,2.722,2.601,2.722c0.532,0,1.074-0.111,1.426-0.281L71.301,257.7z"/>
		<path fill="#585A5E" d="M73.958,251.154v6.767h-0.874v-6.767H73.958z"/>
		<path fill="#585A5E" d="M75.412,258.322l2.801-7.279h0.683l-2.812,7.279H75.412z"/>
		<path fill="#585A5E" d="M84.768,257.7c-0.321,0.161-0.964,0.321-1.787,0.321c-1.908,0-3.344-1.205-3.344-3.424
			c0-2.119,1.436-3.555,3.534-3.555c0.843,0,1.375,0.182,1.606,0.302l-0.211,0.713c-0.331-0.161-0.803-0.281-1.365-0.281
			c-1.586,0-2.641,1.015-2.641,2.791c0,1.657,0.954,2.722,2.601,2.722c0.532,0,1.074-0.111,1.426-0.281L84.768,257.7z"/>
		<path fill="#585A5E" d="M86.562,251.244c0.532-0.08,1.165-0.141,1.857-0.141c1.255,0,2.148,0.291,2.741,0.844
			c0.603,0.552,0.954,1.335,0.954,2.43c0,1.104-0.341,2.008-0.974,2.631c-0.632,0.632-1.677,0.973-2.992,0.973
			c-0.623,0-1.145-0.029-1.586-0.08V251.244z M87.436,257.228c0.221,0.039,0.542,0.05,0.883,0.05c1.868,0,2.882-1.044,2.882-2.872
			c0.01-1.596-0.894-2.609-2.741-2.609c-0.452,0-0.793,0.039-1.024,0.09V257.228z"/>
	</g>
	<g>
		<path fill="#585A5E" d="M52.292,382.607c0.442-0.09,1.074-0.141,1.677-0.141c0.934,0,1.536,0.171,1.958,0.553
			c0.342,0.301,0.532,0.763,0.532,1.285c0,0.893-0.562,1.485-1.275,1.727v0.029c0.522,0.182,0.833,0.664,0.994,1.366
			c0.221,0.944,0.382,1.597,0.522,1.857h-0.904c-0.11-0.19-0.261-0.772-0.452-1.616c-0.201-0.934-0.562-1.285-1.355-1.315h-0.823
			v2.932h-0.874V382.607z M53.165,385.689h0.894c0.934,0,1.526-0.512,1.526-1.285c0-0.873-0.632-1.255-1.556-1.265
			c-0.422,0-0.723,0.04-0.863,0.08V385.689z"/>
		<path fill="#585A5E" d="M61.897,386.111h-2.63v2.439h2.932v0.733h-3.805v-6.767h3.655v0.732h-2.781v2.139h2.63V386.111z"/>
		<path fill="#585A5E" d="M69.183,388.982c-0.392,0.141-1.165,0.372-2.078,0.372c-1.024,0-1.868-0.261-2.53-0.894
			c-0.583-0.562-0.944-1.466-0.944-2.52c0.01-2.019,1.396-3.494,3.665-3.494c0.783,0,1.396,0.17,1.687,0.311l-0.211,0.713
			c-0.361-0.16-0.813-0.291-1.496-0.291c-1.646,0-2.721,1.023-2.721,2.721c0,1.717,1.034,2.73,2.61,2.73
			c0.572,0,0.964-0.08,1.165-0.18v-2.019h-1.376v-0.702h2.229V388.982z"/>
		<path fill="#585A5E" d="M72.092,382.517v6.767h-0.874v-6.767H72.092z"/>
		<path fill="#585A5E" d="M74.198,388.219c0.392,0.241,0.964,0.442,1.566,0.442c0.894,0,1.416-0.473,1.416-1.155
			c0-0.632-0.361-0.993-1.275-1.345c-1.104-0.393-1.787-0.965-1.787-1.918c0-1.055,0.873-1.838,2.188-1.838
			c0.693,0,1.195,0.161,1.496,0.332l-0.241,0.713c-0.221-0.121-0.672-0.322-1.285-0.322c-0.923,0-1.275,0.553-1.275,1.015
			c0,0.632,0.412,0.944,1.345,1.306c1.145,0.441,1.727,0.994,1.727,1.987c0,1.044-0.773,1.948-2.37,1.948
			c-0.652,0-1.365-0.191-1.727-0.432L74.198,388.219z"/>
		<path fill="#585A5E" d="M81.144,383.259h-2.059v-0.742h5.01v0.742h-2.068v6.024h-0.883V383.259z"/>
		<path fill="#585A5E" d="M85.548,382.607c0.442-0.09,1.074-0.141,1.677-0.141c0.934,0,1.536,0.171,1.958,0.553
			c0.342,0.301,0.532,0.763,0.532,1.285c0,0.893-0.562,1.485-1.275,1.727v0.029c0.522,0.182,0.833,0.664,0.994,1.366
			c0.221,0.944,0.382,1.597,0.522,1.857h-0.904c-0.11-0.19-0.261-0.772-0.452-1.616c-0.201-0.934-0.562-1.285-1.355-1.315h-0.823
			v2.932h-0.874V382.607z M86.422,385.689h0.894c0.934,0,1.526-0.512,1.526-1.285c0-0.873-0.632-1.255-1.556-1.265
			c-0.422,0-0.723,0.04-0.863,0.08V385.689z"/>
		<path fill="#585A5E" d="M92.523,382.517v6.767H91.65v-6.767H92.523z"/>
		<path fill="#585A5E" d="M98.255,386.111h-2.63v2.439h2.932v0.733h-3.805v-6.767h3.654v0.732h-2.781v2.139h2.63V386.111z"/>
		<path fill="#585A5E" d="M100.27,388.219c0.392,0.241,0.964,0.442,1.566,0.442c0.894,0,1.416-0.473,1.416-1.155
			c0-0.632-0.361-0.993-1.275-1.345c-1.104-0.393-1.788-0.965-1.788-1.918c0-1.055,0.874-1.838,2.189-1.838
			c0.693,0,1.195,0.161,1.496,0.332l-0.241,0.713c-0.221-0.121-0.672-0.322-1.285-0.322c-0.923,0-1.275,0.553-1.275,1.015
			c0,0.632,0.412,0.944,1.345,1.306c1.145,0.441,1.727,0.994,1.727,1.987c0,1.044-0.773,1.948-2.37,1.948
			c-0.652,0-1.365-0.191-1.727-0.432L100.27,388.219z"/>
	</g>
	<rect x="150.88" y="244.587" fill="#FFFFFF" width="278.961" height="20.479"/>
	
		<rect x="150.88" y="244.587" fill="none" stroke="#A7A8AB" stroke-width="0.5" stroke-miterlimit="10" width="278.961" height="20.479"/>
	<g>
		<path fill="#585A5E" d="M254.379,251.494c0.343-0.072,0.883-0.127,1.432-0.127c0.783,0,1.287,0.136,1.666,0.441
			c0.314,0.234,0.504,0.594,0.504,1.071c0,0.585-0.387,1.099-1.026,1.333v0.018c0.576,0.145,1.251,0.621,1.251,1.521
			c0,0.521-0.207,0.918-0.513,1.215c-0.423,0.388-1.107,0.568-2.098,0.568c-0.54,0-0.954-0.037-1.216-0.072V251.494z
			 M255.162,253.978h0.712c0.828,0,1.314-0.432,1.314-1.018c0-0.711-0.54-0.99-1.333-0.99c-0.359,0-0.566,0.027-0.693,0.055V253.978
			z M255.162,256.886c0.154,0.026,0.379,0.035,0.658,0.035c0.811,0,1.557-0.297,1.557-1.179c0-0.829-0.711-1.171-1.566-1.171h-0.648
			V256.886z"/>
		<path fill="#585A5E" d="M260.725,255.572l-0.631,1.908h-0.81l2.062-6.068h0.945l2.07,6.068h-0.837l-0.648-1.908H260.725z
			 M262.715,254.959l-0.595-1.747c-0.136-0.396-0.226-0.756-0.315-1.107h-0.018c-0.09,0.36-0.189,0.729-0.307,1.099l-0.594,1.756
			H262.715z"/>
		<path fill="#585A5E" d="M265.881,251.412h0.783v5.411h2.594v0.657h-3.377V251.412z"/>
		<path fill="#585A5E" d="M270.76,251.412h0.783v5.411h2.592v0.657h-3.375V251.412z"/>
		<path fill="#585A5E" d="M278.779,254.635h-2.359v2.188h2.629v0.657h-3.412v-6.068h3.277v0.658h-2.494v1.917h2.359V254.635z"/>
		<path fill="#585A5E" d="M280.695,251.494c0.396-0.082,0.963-0.127,1.503-0.127c0.837,0,1.378,0.153,1.756,0.496
			c0.306,0.27,0.478,0.684,0.478,1.152c0,0.801-0.505,1.332-1.145,1.548v0.027c0.469,0.161,0.748,0.594,0.893,1.224
			c0.197,0.847,0.342,1.432,0.467,1.666h-0.81c-0.099-0.171-0.233-0.693-0.405-1.449c-0.18-0.838-0.504-1.152-1.215-1.18h-0.738
			v2.629h-0.783V251.494z M281.479,254.257h0.801c0.838,0,1.369-0.459,1.369-1.152c0-0.783-0.568-1.125-1.396-1.135
			c-0.377,0-0.648,0.036-0.773,0.072V254.257z"/>
		<path fill="#585A5E" d="M286.95,251.412v6.068h-0.783v-6.068H286.95z"/>
		<path fill="#585A5E" d="M288.947,257.48v-6.068h0.855l1.945,3.07c0.449,0.711,0.801,1.351,1.089,1.972l0.019-0.009
			c-0.072-0.811-0.09-1.549-0.09-2.494v-2.539h0.738v6.068h-0.793l-1.927-3.079c-0.423-0.675-0.828-1.368-1.134-2.025l-0.027,0.009
			c0.045,0.766,0.062,1.494,0.062,2.503v2.593H288.947z"/>
		<path fill="#585A5E" d="M296.481,255.572l-0.63,1.908h-0.811l2.062-6.068h0.945l2.071,6.068h-0.838l-0.648-1.908H296.481z
			 M298.471,254.959l-0.594-1.747c-0.135-0.396-0.225-0.756-0.315-1.107h-0.018c-0.091,0.36-0.189,0.729-0.306,1.099l-0.595,1.756
			H298.471z"/>
		<path fill="#585A5E" d="M305.318,252.079h-1.845v-0.667h4.492v0.667h-1.854v5.401h-0.793V252.079z"/>
		<path fill="#585A5E" d="M312.412,254.635h-2.359v2.188h2.629v0.657h-3.412v-6.068h3.277v0.658h-2.494v1.917h2.359V254.635z"/>
		<path fill="#585A5E" d="M314.22,256.526c0.351,0.216,0.864,0.396,1.404,0.396c0.802,0,1.27-0.423,1.27-1.035
			c0-0.566-0.324-0.891-1.144-1.206c-0.99-0.351-1.603-0.864-1.603-1.72c0-0.945,0.784-1.647,1.963-1.647
			c0.621,0,1.071,0.144,1.341,0.298l-0.215,0.639c-0.199-0.107-0.604-0.288-1.152-0.288c-0.829,0-1.145,0.495-1.145,0.909
			c0,0.567,0.369,0.846,1.207,1.17c1.026,0.396,1.549,0.892,1.549,1.783c0,0.936-0.693,1.746-2.125,1.746
			c-0.586,0-1.225-0.171-1.549-0.387L314.22,256.526z"/>
		<path fill="#585A5E" d="M320.447,252.079h-1.845v-0.667h4.492v0.667h-1.854v5.401h-0.793V252.079z"/>
	</g>
	<rect x="150.88" y="282.281" fill="#FFFFFF" width="278.961" height="20.479"/>
	
		<rect x="150.88" y="282.281" fill="none" stroke="#A7A8AB" stroke-width="0.5" stroke-miterlimit="10" width="278.961" height="20.479"/>
	<g>
		<path fill="#585A5E" d="M252.547,289.187c0.343-0.071,0.883-0.125,1.432-0.125c0.783,0,1.287,0.135,1.666,0.44
			c0.314,0.234,0.504,0.595,0.504,1.071c0,0.586-0.387,1.099-1.026,1.332v0.019c0.576,0.144,1.251,0.621,1.251,1.521
			c0,0.522-0.207,0.919-0.513,1.216c-0.423,0.387-1.107,0.566-2.098,0.566c-0.54,0-0.954-0.035-1.216-0.072V289.187z
			 M253.33,291.672h0.712c0.828,0,1.314-0.433,1.314-1.018c0-0.711-0.54-0.99-1.333-0.99c-0.359,0-0.566,0.027-0.693,0.054V291.672z
			 M253.33,294.58c0.154,0.027,0.379,0.037,0.658,0.037c0.811,0,1.557-0.298,1.557-1.18c0-0.828-0.711-1.17-1.566-1.17h-0.648
			V294.58z"/>
		<path fill="#585A5E" d="M258.893,293.265l-0.631,1.909h-0.81l2.062-6.067h0.945l2.07,6.067h-0.837l-0.648-1.909H258.893z
			 M260.883,292.654l-0.595-1.746c-0.136-0.396-0.226-0.757-0.315-1.107h-0.018c-0.09,0.359-0.189,0.729-0.307,1.098l-0.594,1.756
			H260.883z"/>
		<path fill="#585A5E" d="M264.041,289.107h0.783v5.41h2.592v0.657h-3.375V289.107z"/>
		<path fill="#585A5E" d="M268.918,289.107h0.783v5.41h2.593v0.657h-3.376V289.107z"/>
		<path fill="#585A5E" d="M276.938,292.33h-2.358v2.188h2.629v0.657h-3.412v-6.067h3.277v0.656h-2.494v1.918h2.358V292.33z"/>
		<path fill="#585A5E" d="M278.854,289.187c0.396-0.08,0.964-0.125,1.504-0.125c0.838,0,1.377,0.152,1.756,0.494
			c0.306,0.271,0.477,0.685,0.477,1.152c0,0.802-0.504,1.333-1.143,1.549v0.027c0.468,0.162,0.747,0.594,0.891,1.225
			c0.198,0.846,0.342,1.432,0.469,1.665h-0.811c-0.1-0.171-0.234-0.693-0.405-1.449c-0.18-0.837-0.504-1.152-1.216-1.18h-0.738
			v2.629h-0.783V289.187z M279.637,291.951h0.802c0.837,0,1.368-0.459,1.368-1.152c0-0.783-0.566-1.125-1.395-1.134
			c-0.379,0-0.648,0.036-0.775,0.072V291.951z"/>
		<path fill="#585A5E" d="M285.109,289.107v6.067h-0.783v-6.067H285.109z"/>
		<path fill="#585A5E" d="M287.107,295.174v-6.067h0.855l1.943,3.069c0.451,0.712,0.802,1.351,1.09,1.972l0.018-0.009
			c-0.071-0.811-0.09-1.549-0.09-2.494v-2.538h0.738v6.067h-0.792l-1.927-3.079c-0.423-0.675-0.828-1.368-1.135-2.025l-0.026,0.009
			c0.045,0.766,0.063,1.495,0.063,2.503v2.593H287.107z"/>
		<path fill="#585A5E" d="M294.641,293.265l-0.631,1.909h-0.811l2.062-6.067h0.945l2.07,6.067h-0.838l-0.647-1.909H294.641z
			 M296.63,292.654l-0.595-1.746c-0.135-0.396-0.225-0.757-0.314-1.107h-0.018c-0.091,0.359-0.189,0.729-0.307,1.098l-0.594,1.756
			H296.63z"/>
		<path fill="#585A5E" d="M302.334,289.187c0.343-0.071,0.883-0.125,1.432-0.125c0.783,0,1.287,0.135,1.666,0.44
			c0.314,0.234,0.504,0.595,0.504,1.071c0,0.586-0.387,1.099-1.026,1.332v0.019c0.576,0.144,1.251,0.621,1.251,1.521
			c0,0.522-0.207,0.919-0.513,1.216c-0.423,0.387-1.107,0.566-2.098,0.566c-0.54,0-0.954-0.035-1.216-0.072V289.187z
			 M303.117,291.672h0.712c0.828,0,1.314-0.433,1.314-1.018c0-0.711-0.54-0.99-1.333-0.99c-0.359,0-0.566,0.027-0.693,0.054V291.672
			z M303.117,294.58c0.154,0.027,0.379,0.037,0.658,0.037c0.811,0,1.557-0.298,1.557-1.18c0-0.828-0.711-1.17-1.566-1.17h-0.648
			V294.58z"/>
		<path fill="#585A5E" d="M308.607,289.107v3.592c0,1.359,0.604,1.936,1.414,1.936c0.9,0,1.477-0.594,1.477-1.936v-3.592h0.792
			v3.537c0,1.864-0.981,2.629-2.296,2.629c-1.242,0-2.178-0.711-2.178-2.592v-3.574H308.607z"/>
		<path fill="#585A5E" d="M315.061,289.107v6.067h-0.783v-6.067H315.061z"/>
		<path fill="#585A5E" d="M317.059,289.107h0.783v5.41h2.593v0.657h-3.376V289.107z"/>
		<path fill="#585A5E" d="M321.937,289.187c0.478-0.071,1.044-0.125,1.665-0.125c1.126,0,1.928,0.261,2.459,0.756
			c0.539,0.495,0.854,1.197,0.854,2.179c0,0.99-0.306,1.8-0.873,2.358c-0.567,0.567-1.503,0.873-2.683,0.873
			c-0.559,0-1.026-0.027-1.423-0.072V289.187z M322.72,294.553c0.198,0.036,0.486,0.045,0.792,0.045
			c1.675,0,2.584-0.937,2.584-2.575c0.01-1.432-0.801-2.34-2.457-2.34c-0.406,0-0.712,0.035-0.919,0.08V294.553z"/>
	</g>
	<rect x="150.528" y="319.095" fill="#3AD1CA" width="278.891" height="32.539"/>
	<g>
		<path fill="#FFFFFF" d="M179.518,326.462c0.477-0.071,1.044-0.125,1.666-0.125c1.125,0,1.927,0.261,2.458,0.756
			c0.54,0.495,0.855,1.197,0.855,2.179c0,0.99-0.306,1.8-0.873,2.358c-0.567,0.567-1.503,0.873-2.683,0.873
			c-0.558,0-1.026-0.027-1.422-0.072V326.462z M180.301,331.829c0.198,0.036,0.486,0.045,0.792,0.045
			c1.674,0,2.583-0.937,2.583-2.575c0.009-1.432-0.801-2.34-2.458-2.34c-0.405,0-0.711,0.035-0.918,0.08V331.829z"/>
		<path fill="#FFFFFF" d="M191.363,329.353c0,2.088-1.269,3.195-2.818,3.195c-1.603,0-2.728-1.242-2.728-3.078
			c0-1.927,1.197-3.188,2.818-3.188C190.292,326.283,191.363,327.552,191.363,329.353z M186.655,329.452
			c0,1.296,0.703,2.458,1.936,2.458c1.242,0,1.944-1.144,1.944-2.521c0-1.205-0.63-2.467-1.936-2.467
			C187.303,326.921,186.655,328.12,186.655,329.452z"/>
		<path fill="#FFFFFF" d="M197.294,332.251c-0.288,0.145-0.864,0.288-1.603,0.288c-1.71,0-2.998-1.08-2.998-3.069
			c0-1.9,1.287-3.188,3.169-3.188c0.756,0,1.233,0.162,1.44,0.27l-0.189,0.64c-0.297-0.144-0.72-0.252-1.225-0.252
			c-1.422,0-2.368,0.909-2.368,2.503c0,1.485,0.855,2.439,2.332,2.439c0.478,0,0.963-0.099,1.278-0.252L197.294,332.251z"/>
		<path fill="#FFFFFF" d="M198.904,326.382h0.783v2.926h0.027c0.162-0.234,0.324-0.451,0.477-0.648l1.854-2.277h0.972l-2.197,2.574
			l2.368,3.493h-0.928l-1.999-2.979l-0.576,0.666v2.313h-0.783V326.382z"/>
		<path fill="#FFFFFF" d="M207.554,329.605h-2.359v2.188h2.629v0.657h-3.412v-6.067h3.277v0.656h-2.494v1.918h2.359V329.605z"/>
		<path fill="#FFFFFF" d="M209.47,326.462c0.396-0.08,0.963-0.125,1.503-0.125c0.837,0,1.377,0.152,1.756,0.494
			c0.306,0.271,0.477,0.685,0.477,1.152c0,0.802-0.504,1.333-1.144,1.549v0.027c0.468,0.162,0.748,0.594,0.892,1.225
			c0.198,0.846,0.342,1.432,0.468,1.665h-0.81c-0.099-0.171-0.234-0.693-0.405-1.449c-0.18-0.837-0.504-1.152-1.215-1.18h-0.738
			v2.629h-0.783V326.462z M210.253,329.226h0.801c0.837,0,1.369-0.459,1.369-1.152c0-0.783-0.567-1.125-1.396-1.134
			c-0.378,0-0.648,0.036-0.774,0.072V329.226z"/>
		<path fill="#FFFFFF" d="M214.401,333.557c0.198-0.531,0.44-1.495,0.54-2.151l0.883-0.09c-0.207,0.765-0.604,1.764-0.855,2.188
			L214.401,333.557z"/>
		<path fill="#FFFFFF" d="M219.973,326.382h0.783v2.926h0.027c0.161-0.234,0.323-0.451,0.477-0.648l1.854-2.277h0.972l-2.196,2.574
			l2.368,3.493h-0.928l-1.998-2.979l-0.576,0.666v2.313h-0.783V326.382z"/>
		<path fill="#FFFFFF" d="M226.129,326.382v3.592c0,1.359,0.604,1.936,1.413,1.936c0.9,0,1.477-0.594,1.477-1.936v-3.592h0.792
			v3.537c0,1.864-0.98,2.629-2.295,2.629c-1.243,0-2.18-0.711-2.18-2.592v-3.574H226.129z"/>
		<path fill="#FFFFFF" d="M231.799,326.462c0.342-0.071,0.882-0.125,1.432-0.125c0.783,0,1.287,0.135,1.665,0.44
			c0.315,0.234,0.504,0.595,0.504,1.071c0,0.586-0.388,1.099-1.026,1.332v0.019c0.576,0.144,1.252,0.621,1.252,1.521
			c0,0.522-0.207,0.919-0.514,1.216c-0.423,0.387-1.107,0.566-2.098,0.566c-0.54,0-0.954-0.035-1.215-0.072V326.462z
			 M232.582,328.948h0.711c0.828,0,1.314-0.433,1.314-1.018c0-0.711-0.54-0.99-1.332-0.99c-0.36,0-0.568,0.027-0.693,0.054V328.948z
			 M232.582,331.855c0.152,0.027,0.378,0.037,0.656,0.037c0.811,0,1.559-0.298,1.559-1.18c0-0.828-0.712-1.17-1.566-1.17h-0.648
			V331.855z"/>
		<path fill="#FFFFFF" d="M240.448,329.605h-2.358v2.188h2.629v0.657h-3.412v-6.067h3.276v0.656h-2.493v1.918h2.358V329.605z"/>
		<path fill="#FFFFFF" d="M242.363,326.462c0.396-0.08,0.964-0.125,1.504-0.125c0.838,0,1.377,0.152,1.756,0.494
			c0.306,0.271,0.477,0.685,0.477,1.152c0,0.802-0.504,1.333-1.143,1.549v0.027c0.468,0.162,0.747,0.594,0.891,1.225
			c0.198,0.846,0.342,1.432,0.469,1.665h-0.811c-0.1-0.171-0.234-0.693-0.405-1.449c-0.18-0.837-0.504-1.152-1.216-1.18h-0.738
			v2.629h-0.783V326.462z M243.146,329.226h0.802c0.837,0,1.368-0.459,1.368-1.152c0-0.783-0.566-1.125-1.395-1.134
			c-0.379,0-0.648,0.036-0.775,0.072V329.226z"/>
		<path fill="#FFFFFF" d="M247.836,332.45v-6.067h0.855l1.944,3.069c0.45,0.712,0.802,1.351,1.089,1.972l0.019-0.009
			c-0.071-0.811-0.09-1.549-0.09-2.494v-2.538h0.738v6.067H251.6l-1.927-3.079c-0.423-0.675-0.829-1.368-1.135-2.025l-0.026,0.009
			c0.045,0.766,0.062,1.495,0.062,2.503v2.593H247.836z"/>
		<path fill="#FFFFFF" d="M257.529,329.605h-2.358v2.188h2.629v0.657h-3.412v-6.067h3.277v0.656h-2.494v1.918h2.358V329.605z"/>
		<path fill="#FFFFFF" d="M260.598,327.048h-1.845v-0.666h4.492v0.666h-1.854v5.401h-0.793V327.048z"/>
		<path fill="#FFFFFF" d="M267.682,329.605h-2.359v2.188h2.629v0.657h-3.412v-6.067h3.277v0.656h-2.494v1.918h2.359V329.605z"/>
		<path fill="#FFFFFF" d="M269.49,331.496c0.351,0.216,0.863,0.396,1.404,0.396c0.801,0,1.27-0.424,1.27-1.035
			c0-0.568-0.324-0.893-1.145-1.207c-0.99-0.352-1.602-0.864-1.602-1.72c0-0.945,0.783-1.647,1.963-1.647
			c0.621,0,1.07,0.145,1.341,0.297l-0.216,0.64c-0.198-0.108-0.604-0.288-1.152-0.288c-0.828,0-1.144,0.495-1.144,0.909
			c0,0.567,0.369,0.847,1.206,1.171c1.026,0.396,1.549,0.891,1.549,1.782c0,0.937-0.693,1.746-2.125,1.746
			c-0.585,0-1.225-0.171-1.549-0.387L269.49,331.496z"/>
		<path fill="#FFFFFF" d="M274.125,333.557c0.197-0.531,0.44-1.495,0.539-2.151l0.883-0.09c-0.207,0.765-0.604,1.764-0.855,2.188
			L274.125,333.557z"/>
		<path fill="#FFFFFF" d="M280.677,330.541l-0.63,1.909h-0.811l2.062-6.067h0.945l2.071,6.067h-0.838l-0.648-1.909H280.677z
			 M282.666,329.929l-0.594-1.746c-0.135-0.396-0.225-0.757-0.315-1.107h-0.018c-0.091,0.359-0.189,0.729-0.306,1.098l-0.595,1.756
			H282.666z"/>
		<path fill="#FFFFFF" d="M285.834,332.45v-6.067h0.855l1.943,3.069c0.451,0.712,0.802,1.351,1.09,1.972l0.018-0.009
			c-0.071-0.811-0.09-1.549-0.09-2.494v-2.538h0.738v6.067h-0.792l-1.927-3.079c-0.423-0.675-0.828-1.368-1.135-2.025l-0.026,0.009
			c0.045,0.766,0.063,1.495,0.063,2.503v2.593H285.834z"/>
		<path fill="#FFFFFF" d="M292.385,326.462c0.478-0.071,1.045-0.125,1.666-0.125c1.125,0,1.927,0.261,2.458,0.756
			c0.54,0.495,0.854,1.197,0.854,2.179c0,0.99-0.306,1.8-0.873,2.358c-0.566,0.567-1.503,0.873-2.683,0.873
			c-0.558,0-1.026-0.027-1.423-0.072V326.462z M293.168,331.829c0.199,0.036,0.486,0.045,0.793,0.045
			c1.674,0,2.584-0.937,2.584-2.575c0.009-1.432-0.802-2.34-2.458-2.34c-0.405,0-0.712,0.035-0.919,0.08V331.829z"/>
		<path fill="#FFFFFF" d="M306.724,329.353c0,2.088-1.269,3.195-2.817,3.195c-1.604,0-2.729-1.242-2.729-3.078
			c0-1.927,1.197-3.188,2.818-3.188C305.652,326.283,306.724,327.552,306.724,329.353z M302.016,329.452
			c0,1.296,0.702,2.458,1.936,2.458c1.242,0,1.944-1.144,1.944-2.521c0-1.205-0.63-2.467-1.936-2.467
			C302.664,326.921,302.016,328.12,302.016,329.452z"/>
		<path fill="#FFFFFF" d="M309.233,327.048h-1.845v-0.666h4.492v0.666h-1.855v5.401h-0.792V327.048z"/>
		<path fill="#FFFFFF" d="M313.958,326.382v2.538h2.935v-2.538h0.793v6.067h-0.793v-2.845h-2.935v2.845h-0.783v-6.067H313.958z"/>
		<path fill="#FFFFFF" d="M322.814,329.605h-2.358v2.188h2.629v0.657h-3.412v-6.067h3.277v0.656h-2.494v1.918h2.358V329.605z"/>
		<path fill="#FFFFFF" d="M324.73,326.462c0.396-0.08,0.964-0.125,1.504-0.125c0.838,0,1.377,0.152,1.756,0.494
			c0.306,0.271,0.477,0.685,0.477,1.152c0,0.802-0.504,1.333-1.143,1.549v0.027c0.468,0.162,0.747,0.594,0.891,1.225
			c0.198,0.846,0.342,1.432,0.469,1.665h-0.811c-0.1-0.171-0.234-0.693-0.405-1.449c-0.18-0.837-0.504-1.152-1.216-1.18h-0.738
			v2.629h-0.783V326.462z M325.514,329.226h0.802c0.837,0,1.368-0.459,1.368-1.152c0-0.783-0.566-1.125-1.395-1.134
			c-0.379,0-0.648,0.036-0.775,0.072V329.226z"/>
		<path fill="#FFFFFF" d="M336.98,332.251c-0.287,0.145-0.863,0.288-1.602,0.288c-1.711,0-2.998-1.08-2.998-3.069
			c0-1.9,1.287-3.188,3.169-3.188c0.756,0,1.233,0.162,1.44,0.27l-0.189,0.64c-0.297-0.144-0.72-0.252-1.225-0.252
			c-1.422,0-2.367,0.909-2.367,2.503c0,1.485,0.855,2.439,2.332,2.439c0.477,0,0.963-0.099,1.277-0.252L336.98,332.251z"/>
		<path fill="#FFFFFF" d="M338.59,326.382h0.783v5.41h2.594v0.657h-3.377V326.382z"/>
		<path fill="#FFFFFF" d="M348.42,329.353c0,2.088-1.27,3.195-2.818,3.195c-1.602,0-2.727-1.242-2.727-3.078
			c0-1.927,1.197-3.188,2.817-3.188C347.349,326.283,348.42,327.552,348.42,329.353z M343.711,329.452
			c0,1.296,0.703,2.458,1.937,2.458c1.242,0,1.944-1.144,1.944-2.521c0-1.205-0.631-2.467-1.936-2.467
			C344.359,326.921,343.711,328.12,343.711,329.452z"/>
		<path fill="#FFFFFF" d="M350.84,326.382v3.592c0,1.359,0.604,1.936,1.413,1.936c0.9,0,1.477-0.594,1.477-1.936v-3.592h0.792v3.537
			c0,1.864-0.98,2.629-2.295,2.629c-1.243,0-2.18-0.711-2.18-2.592v-3.574H350.84z"/>
		<path fill="#FFFFFF" d="M356.51,326.462c0.477-0.071,1.044-0.125,1.665-0.125c1.126,0,1.927,0.261,2.458,0.756
			c0.54,0.495,0.855,1.197,0.855,2.179c0,0.99-0.307,1.8-0.873,2.358c-0.568,0.567-1.504,0.873-2.684,0.873
			c-0.559,0-1.026-0.027-1.422-0.072V326.462z M357.293,331.829c0.197,0.036,0.486,0.045,0.792,0.045
			c1.675,0,2.583-0.937,2.583-2.575c0.01-1.432-0.801-2.34-2.457-2.34c-0.405,0-0.711,0.035-0.918,0.08V331.829z"/>
		<path fill="#FFFFFF" d="M365.671,332.45v-6.067h0.855l1.944,3.069c0.45,0.712,0.801,1.351,1.09,1.972l0.018-0.009
			c-0.072-0.811-0.09-1.549-0.09-2.494v-2.538h0.738v6.067h-0.793l-1.926-3.079c-0.424-0.675-0.828-1.368-1.135-2.025l-0.027,0.009
			c0.045,0.766,0.063,1.495,0.063,2.503v2.593H365.671z"/>
		<path fill="#FFFFFF" d="M373.205,330.541l-0.631,1.909h-0.811l2.062-6.067h0.945l2.07,6.067h-0.838l-0.647-1.909H373.205z
			 M375.194,329.929l-0.595-1.746c-0.135-0.396-0.225-0.757-0.314-1.107h-0.018c-0.091,0.359-0.189,0.729-0.307,1.098l-0.594,1.756
			H375.194z"/>
		<path fill="#FFFFFF" d="M378.938,327.048h-1.846v-0.666h4.492v0.666h-1.854v5.401h-0.792V327.048z"/>
		<path fill="#FFFFFF" d="M383.671,326.382v6.067h-0.783v-6.067H383.671z"/>
		<path fill="#FFFFFF" d="M387.002,332.45l-1.98-6.067h0.846l0.945,2.988c0.261,0.819,0.486,1.558,0.648,2.27h0.018
			c0.171-0.703,0.424-1.469,0.693-2.26l1.026-2.998h0.837l-2.17,6.067H387.002z"/>
		<path fill="#FFFFFF" d="M394.454,329.605h-2.358v2.188h2.629v0.657h-3.412v-6.067h3.276v0.656h-2.493v1.918h2.358V329.605z"/>
	</g>
	<g>
		<path fill="#FFFFFF" d="M235.84,337.263c0.477-0.072,1.045-0.127,1.666-0.127c1.125,0,1.926,0.262,2.457,0.757
			c0.541,0.495,0.855,1.197,0.855,2.179c0,0.99-0.307,1.801-0.873,2.358c-0.567,0.567-1.504,0.874-2.684,0.874
			c-0.558,0-1.025-0.027-1.422-0.072V337.263z M236.623,342.628c0.198,0.036,0.486,0.045,0.793,0.045
			c1.674,0,2.583-0.937,2.583-2.574c0.009-1.432-0.802-2.342-2.458-2.342c-0.404,0-0.711,0.037-0.918,0.082V342.628z"/>
		<path fill="#FFFFFF" d="M245.605,340.405h-2.358v2.188h2.629v0.657h-3.412v-6.068h3.277v0.658h-2.494v1.917h2.358V340.405z"/>
		<path fill="#FFFFFF" d="M247.521,337.253c0.379-0.062,0.873-0.117,1.504-0.117c0.773,0,1.341,0.181,1.701,0.504
			c0.333,0.289,0.531,0.73,0.531,1.27c0,0.55-0.162,0.982-0.469,1.297c-0.414,0.441-1.089,0.666-1.854,0.666
			c-0.234,0-0.451-0.009-0.631-0.054v2.431h-0.783V337.253z M248.305,340.179c0.172,0.045,0.387,0.063,0.648,0.063
			c0.945,0,1.521-0.459,1.521-1.296c0-0.802-0.567-1.189-1.432-1.189c-0.342,0-0.604,0.027-0.738,0.063V340.179z"/>
		<path fill="#FFFFFF" d="M252.939,337.181h0.783v5.411h2.593v0.657h-3.376V337.181z"/>
		<path fill="#FFFFFF" d="M262.77,340.153c0,2.089-1.27,3.196-2.818,3.196c-1.603,0-2.728-1.243-2.728-3.08
			c0-1.926,1.197-3.187,2.817-3.187C261.697,337.083,262.77,338.352,262.77,340.153z M258.061,340.251
			c0,1.297,0.703,2.458,1.936,2.458c1.242,0,1.945-1.144,1.945-2.521c0-1.207-0.631-2.467-1.936-2.467
			C258.709,337.722,258.061,338.919,258.061,340.251z"/>
		<path fill="#FFFFFF" d="M265.369,343.25v-2.574l-1.918-3.494h0.892l0.855,1.675c0.233,0.46,0.414,0.829,0.603,1.251h0.019
			c0.171-0.396,0.378-0.791,0.612-1.251l0.873-1.675h0.891l-2.034,3.484v2.584H265.369z"/>
		<path fill="#FFFFFF" d="M274.631,340.584c-0.045-0.847-0.1-1.863-0.09-2.62h-0.027c-0.207,0.712-0.459,1.468-0.766,2.305
			l-1.07,2.944h-0.595l-0.981-2.89c-0.288-0.855-0.531-1.639-0.702-2.359h-0.019c-0.018,0.757-0.062,1.773-0.116,2.684l-0.162,2.602
			h-0.747l0.423-6.068h0.999l1.035,2.936c0.252,0.747,0.459,1.413,0.613,2.043h0.026c0.153-0.611,0.369-1.277,0.64-2.043l1.08-2.936
			h0.999l0.378,6.068h-0.766L274.631,340.584z"/>
		<path fill="#FFFFFF" d="M280.525,340.405h-2.359v2.188h2.629v0.657h-3.412v-6.068h3.277v0.658h-2.494v1.917h2.359V340.405z"/>
		<path fill="#FFFFFF" d="M282.441,343.25v-6.068h0.855l1.943,3.07c0.451,0.711,0.802,1.351,1.09,1.972l0.018-0.009
			c-0.071-0.811-0.09-1.549-0.09-2.494v-2.539h0.738v6.068h-0.792l-1.927-3.079c-0.423-0.675-0.828-1.368-1.135-2.025l-0.026,0.009
			c0.045,0.766,0.063,1.494,0.063,2.503v2.593H282.441z"/>
		<path fill="#FFFFFF" d="M290.146,337.848h-1.845v-0.667h4.492v0.667h-1.855v5.401h-0.792V337.848z"/>
		<path fill="#FFFFFF" d="M297.606,341.341l-0.63,1.908h-0.811l2.062-6.068h0.945l2.071,6.068h-0.838l-0.648-1.908H297.606z
			 M299.596,340.729l-0.594-1.747c-0.135-0.396-0.225-0.756-0.315-1.107h-0.018c-0.091,0.36-0.189,0.729-0.306,1.099l-0.595,1.756
			H299.596z"/>
		<path fill="#FFFFFF" d="M302.763,337.263c0.396-0.082,0.964-0.127,1.503-0.127c0.838,0,1.378,0.153,1.756,0.496
			c0.307,0.27,0.478,0.684,0.478,1.152c0,0.801-0.505,1.332-1.144,1.548v0.027c0.469,0.161,0.748,0.594,0.892,1.224
			c0.198,0.847,0.342,1.432,0.468,1.666h-0.811c-0.099-0.171-0.233-0.693-0.404-1.449c-0.181-0.838-0.504-1.152-1.216-1.18h-0.738
			v2.629h-0.783V337.263z M303.546,340.027h0.802c0.837,0,1.368-0.459,1.368-1.152c0-0.783-0.567-1.125-1.396-1.135
			c-0.378,0-0.648,0.036-0.774,0.072V340.027z"/>
		<path fill="#FFFFFF" d="M309.307,337.848h-1.846v-0.667h4.492v0.667h-1.854v5.401h-0.792V337.848z"/>
		<path fill="#FFFFFF" d="M314.04,337.181v6.068h-0.783v-6.068H314.04z"/>
		<path fill="#FFFFFF" d="M316.037,337.181h3.269v0.658h-2.485v2.016h2.297v0.648h-2.297v2.746h-0.783V337.181z"/>
		<path fill="#FFFFFF" d="M321.682,341.341l-0.631,1.908h-0.811l2.062-6.068h0.945l2.07,6.068h-0.838l-0.647-1.908H321.682z
			 M323.671,340.729l-0.595-1.747c-0.135-0.396-0.225-0.756-0.314-1.107h-0.018c-0.091,0.36-0.189,0.729-0.307,1.099l-0.594,1.756
			H323.671z"/>
		<path fill="#FFFFFF" d="M330.809,343.051c-0.289,0.144-0.865,0.288-1.604,0.288c-1.71,0-2.997-1.08-2.997-3.07
			c0-1.898,1.287-3.187,3.169-3.187c0.756,0,1.233,0.162,1.44,0.271l-0.188,0.639c-0.298-0.144-0.721-0.252-1.225-0.252
			c-1.423,0-2.368,0.909-2.368,2.503c0,1.485,0.855,2.439,2.331,2.439c0.478,0,0.964-0.099,1.279-0.252L330.809,343.051z"/>
		<path fill="#FFFFFF" d="M333.417,337.848h-1.845v-0.667h4.492v0.667h-1.855v5.401h-0.792V337.848z"/>
		<path fill="#FFFFFF" d="M337.215,342.295c0.352,0.216,0.864,0.396,1.404,0.396c0.801,0,1.27-0.423,1.27-1.035
			c0-0.566-0.324-0.891-1.144-1.206c-0.99-0.351-1.603-0.864-1.603-1.72c0-0.945,0.783-1.647,1.963-1.647
			c0.621,0,1.071,0.144,1.342,0.298l-0.217,0.639c-0.197-0.107-0.604-0.288-1.152-0.288c-0.828,0-1.143,0.495-1.143,0.909
			c0,0.567,0.369,0.846,1.206,1.17c1.026,0.396,1.548,0.892,1.548,1.783c0,0.936-0.693,1.746-2.124,1.746
			c-0.585,0-1.225-0.171-1.549-0.387L337.215,342.295z"/>
	</g>
</g>
</svg>
