<?xml version="1.0" encoding="utf-8"?>
<!-- Generator: Adobe Illustrator 16.0.4, SVG Export Plug-In . SVG Version: 6.00 Build 0)  -->
<!DOCTYPE svg PUBLIC "-//W3C//DTD SVG 1.0//EN" "http://www.w3.org/TR/2001/REC-SVG-20010904/DTD/svg10.dtd">
<svg version="1.0" id="Layer_1" xmlns="http://www.w3.org/2000/svg" xmlns:xlink="http://www.w3.org/1999/xlink" x="0px" y="0px"
	 width="458px" height="470px" viewBox="0 0 458 470" enable-background="new 0 0 458 470" xml:space="preserve">
<g>
	<rect x="2.747" y="62.6" fill="#F5F6F6" width="452.664" height="349.742"/>
	<line fill="none" stroke="#585A5E" stroke-miterlimit="10" x1="224.344" y1="425.863" x2="224.344" y2="381.791"/>
	<polygon fill="#585A5E" points="227.336,424.988 224.344,430.168 221.352,424.988 	"/>
	<rect x="2.59" y="46.865" fill="#F5F6F6" width="106" height="16"/>
	<text transform="matrix(1 0 0 1 18.3848 59.4888)"><tspan x="0" y="0" fill="#585A5E" font-family="'Monaco'" font-size="10">open tracin</tspan><tspan x="68.101" y="0" fill="#585A5E" font-family="'Monaco'" font-size="10">g</tspan></text>
	<rect x="349.258" y="46.865" fill="#F5F6F6" width="106" height="16"/>
	<text transform="matrix(1 0 0 1 386.7559 59.4888)"><tspan x="0" y="0" fill="#585A5E" font-family="'Monaco'" font-size="10">oaut</tspan><tspan x="24.764" y="0" fill="#585A5E" font-family="'Monaco'" font-size="10">h</tspan></text>
	<path fill="#FFFFFF" d="M253.625,440.25c-3.787,0-7.201,1.568-9.646,4.086c-2.443-2.518-5.857-4.086-9.645-4.086
		c-0.088,0-0.174,0.012-0.262,0.014c-0.09-0.002-0.178-0.014-0.268-0.014c-3.656,0-6.955,1.473-9.381,3.838
		c-2.424-2.365-5.725-3.838-9.379-3.838c-0.09,0-0.18,0.012-0.27,0.014c-0.088-0.002-0.172-0.014-0.26-0.014
		c-3.787,0-7.203,1.568-9.646,4.086c-2.444-2.518-5.859-4.086-9.645-4.086c-7.43,0-13.453,6.021-13.453,13.451
		c0,7.432,6.023,13.453,13.453,13.453c3.786,0,7.201-1.568,9.645-4.086c2.444,2.518,5.859,4.086,9.646,4.086
		c0.088,0,0.172-0.012,0.26-0.012c0.09,0.002,0.18,0.012,0.27,0.012c3.654,0,6.955-1.471,9.379-3.838
		c2.426,2.367,5.725,3.838,9.381,3.838c0.09,0,0.178-0.01,0.268-0.012c0.088,0,0.174,0.012,0.262,0.012
		c3.787,0,7.201-1.568,9.645-4.086c2.445,2.518,5.859,4.086,9.646,4.086c7.43,0,13.453-6.021,13.453-13.453
		C267.078,446.271,261.055,440.25,253.625,440.25"/>
	<path fill="none" stroke="#A7A8AB" stroke-width="0.419" stroke-miterlimit="10" d="M253.625,440.25
		c-3.787,0-7.201,1.568-9.646,4.086c-2.443-2.518-5.857-4.086-9.645-4.086c-0.088,0-0.174,0.012-0.262,0.014
		c-0.09-0.002-0.178-0.014-0.268-0.014c-3.656,0-6.955,1.473-9.381,3.838c-2.424-2.365-5.725-3.838-9.379-3.838
		c-0.09,0-0.18,0.012-0.27,0.014c-0.088-0.002-0.172-0.014-0.26-0.014c-3.787,0-7.203,1.568-9.646,4.086
		c-2.444-2.518-5.859-4.086-9.645-4.086c-7.43,0-13.453,6.021-13.453,13.451c0,7.432,6.023,13.453,13.453,13.453
		c3.786,0,7.201-1.568,9.645-4.086c2.444,2.518,5.859,4.086,9.646,4.086c0.088,0,0.172-0.012,0.26-0.012
		c0.09,0.002,0.18,0.012,0.27,0.012c3.654,0,6.955-1.471,9.379-3.838c2.426,2.367,5.725,3.838,9.381,3.838
		c0.09,0,0.178-0.01,0.268-0.012c0.088,0,0.174,0.012,0.262,0.012c3.787,0,7.201-1.568,9.645-4.086
		c2.445,2.518,5.859,4.086,9.646,4.086c7.43,0,13.453-6.021,13.453-13.453C267.078,446.271,261.055,440.25,253.625,440.25z"/>
	<text transform="matrix(1 0 0 1 196.6396 456.6133)"><tspan x="0" y="0" fill="#585A5E" font-family="'Calibre-Semibold'" font-size="10">ENDPO</tspan><tspan x="33.87" y="0" fill="#585A5E" font-family="'Calibre-Semibold'" font-size="10">I</tspan><tspan x="36.95" y="0" fill="#585A5E" font-family="'Calibre-Semibold'" font-size="10">N</tspan><tspan x="44.229" y="0" fill="#585A5E" font-family="'Calibre-Semibold'" font-size="10">T</tspan><tspan x="49.859" y="0" fill="#585A5E" font-family="'Calibre-Semibold'" font-size="10">S</tspan></text>
	<rect x="39.988" y="85.251" fill="#FFFFFF" width="384.895" height="83.44"/>
	<rect x="39.989" y="215.606" fill="#FFFFFF" width="164.007" height="83.441"/>
	<rect x="39.988" y="324.146" fill="#FFFFFF" width="384.895" height="57.578"/>
	<text transform="matrix(1 0 0 1 55.5913 107.2495)"><tspan x="0" y="0" fill="#585556" font-family="'Calibre-Semibold'" font-size="12" letter-spacing="1">B</tspan><tspan x="8.112" y="0" fill="#585556" font-family="'Calibre-Semibold'" font-size="12" letter-spacing="1">ALLERIN</tspan><tspan x="62.507" y="0" fill="#585556" font-family="'Calibre-Semibold'" font-size="12" letter-spacing="1">A</tspan><tspan x="71.639" y="0" fill="#585556" font-family="'Calibre-Semibold'" font-size="12" letter-spacing="1"> AP</tspan><tspan x="93.311" y="0" fill="#585556" font-family="'Calibre-Semibold'" font-size="12">I</tspan></text>
	<text transform="matrix(1 0 0 1 55.5913 121.6499)"><tspan x="0" y="0" fill="#585556" font-family="'Calibre-Semibold'" font-size="12" letter-spacing="1">G</tspan><tspan x="9.276" y="0" fill="#585556" font-family="'Calibre-Semibold'" font-size="12" letter-spacing="1">A</tspan><tspan x="17.652" y="0" fill="#585556" font-family="'Calibre-Semibold'" font-size="12" letter-spacing="1">TE</tspan><tspan x="33.12" y="0" fill="#585556" font-family="'Calibre-Semibold'" font-size="12" letter-spacing="1">W</tspan><tspan x="44.627" y="0" fill="#585556" font-family="'Calibre-Semibold'" font-size="12">A</tspan><tspan x="52.919" y="0" fill="#585556" font-family="'Calibre-Semibold'" font-size="12">Y</tspan></text>
	<line fill="none" stroke="#585A5E" stroke-miterlimit="10" x1="226.254" y1="120.915" x2="226.254" y2="134.418"/>
	<line fill="none" stroke="#585A5E" stroke-miterlimit="10" x1="226.254" y1="120.915" x2="226.254" y2="134.418"/>
	<line fill="none" stroke="#585A5E" stroke-miterlimit="10" x1="215.904" y1="109.156" x2="215.904" y2="144.788"/>
	<line fill="none" stroke="#585A5E" stroke-miterlimit="10" x1="205.617" y1="109.156" x2="205.617" y2="144.788"/>
	<line fill="none" stroke="#585A5E" stroke-miterlimit="10" x1="246.762" y1="109.156" x2="246.762" y2="144.788"/>
	<line fill="none" stroke="#585A5E" stroke-miterlimit="10" x1="236.475" y1="109.156" x2="236.475" y2="144.788"/>
	<path fill="#FFFFFF" d="M231.881,115.286c0,3.107-2.52,5.629-5.627,5.629c-3.109,0-5.629-2.521-5.629-5.629
		c0-3.108,2.52-5.628,5.629-5.628C229.361,109.658,231.881,112.177,231.881,115.286"/>
	<circle fill="none" stroke="#585A5E" stroke-miterlimit="10" cx="226.253" cy="115.286" r="5.628"/>
	<path fill="#FFFFFF" d="M231.881,139.16c0,3.107-2.52,5.628-5.627,5.628c-3.109,0-5.629-2.521-5.629-5.628
		c0-3.108,2.52-5.629,5.629-5.629C229.361,133.531,231.881,136.051,231.881,139.16"/>
	<circle fill="none" stroke="#585A5E" stroke-miterlimit="10" cx="226.253" cy="139.16" r="5.628"/>
	<line fill="none" stroke="#585A5E" stroke-miterlimit="10" x1="226.189" y1="35.001" x2="226.189" y2="109.657"/>
	<path fill="#FFFFFF" d="M248.432,25.376c0,12.282-9.959,22.24-22.242,22.24s-22.242-9.958-22.242-22.24
		c0-12.283,9.958-22.241,22.242-22.241S248.432,13.093,248.432,25.376"/>
	<circle fill="none" stroke="#585A5E" stroke-miterlimit="10" cx="226.19" cy="25.376" r="22.242"/>
	<text transform="matrix(1 0 0 1 215.5645 28.6733)"><tspan x="0" y="0" fill="#585556" font-family="'Calibre-Semibold'" font-size="12" letter-spacing="1">A</tspan><tspan x="9.133" y="0" fill="#585556" font-family="'Calibre-Semibold'" font-size="12" letter-spacing="1">P</tspan><tspan x="17.316" y="0" fill="#585556" font-family="'Calibre-Semibold'" font-size="12">I</tspan></text>
	<text transform="matrix(1 0 0 1 54.5767 240.0229)"><tspan x="0" y="0" fill="#585556" font-family="'Calibre-Semibold'" font-size="12" letter-spacing="1">B</tspan><tspan x="8.112" y="0" fill="#585556" font-family="'Calibre-Semibold'" font-size="12" letter-spacing="1">ALLERIN</tspan><tspan x="62.507" y="0" fill="#585556" font-family="'Calibre-Semibold'" font-size="12">A</tspan></text>
	<text transform="matrix(1 0 0 1 54.5767 254.4238)"><tspan x="0" y="0" fill="#585556" font-family="'Calibre-Semibold'" font-size="12" letter-spacing="1">SE</tspan><tspan x="15.42" y="0" fill="#585556" font-family="'Calibre-Semibold'" font-size="12" letter-spacing="1">R</tspan><tspan x="23.556" y="0" fill="#585556" font-family="'Calibre-Semibold'" font-size="12" letter-spacing="1">VIC</tspan><tspan x="45.479" y="0" fill="#585556" font-family="'Calibre-Semibold'" font-size="12">E</tspan></text>
	<line fill="none" stroke="#585A5E" stroke-miterlimit="10" x1="226.254" y1="144.787" x2="226.254" y2="187.909"/>
	<polygon fill="#FFFFFF" points="150.052,277.102 168.641,277.102 177.936,261.002 168.641,244.904 150.052,244.904 
		140.758,261.002 	"/>
	<polygon fill="none" stroke="#585A5E" stroke-width="0.824" stroke-miterlimit="10" points="150.052,277.102 168.641,277.102 
		177.936,261.002 168.641,244.904 150.052,244.904 140.758,261.002 	"/>
	<path fill="#FFFFFF" d="M166.569,261.004c0,3.988-3.233,7.223-7.223,7.223c-3.989,0-7.223-3.234-7.223-7.223
		c0-3.99,3.234-7.225,7.223-7.225C163.336,253.779,166.569,257.014,166.569,261.004"/>
	<circle fill="none" stroke="#585A5E" stroke-width="0.824" stroke-miterlimit="10" cx="159.346" cy="261.004" r="7.223"/>
	<rect x="156.993" y="242.925" fill="#FFFFFF" width="5.095" height="5.096"/>
	
		<rect x="244.99" y="235.009" fill="none" stroke="#A7A8AB" stroke-width="0.635" stroke-miterlimit="10" stroke-dasharray="3,3" width="188.863" height="64.038"/>
	<text transform="matrix(1 0 0 1 286.4854 285.082)"><tspan x="0" y="0" fill="#585556" font-family="'Calibre-Semibold'" font-size="10" letter-spacing="1">B</tspan><tspan x="6.771" y="0" fill="#585556" font-family="'Calibre-Semibold'" font-size="10" letter-spacing="1">ALLERINA BRI</tspan><tspan x="81.029" y="0" fill="#585556" font-family="'Calibre-Semibold'" font-size="10" letter-spacing="1">D</tspan><tspan x="89.239" y="0" fill="#585556" font-family="'Calibre-Semibold'" font-size="10" letter-spacing="1">G</tspan><tspan x="97.198" y="0" fill="#585556" font-family="'Calibre-Semibold'" font-size="10">E</tspan></text>
	<rect x="260.322" y="215.605" fill="#FFFFFF" width="160.822" height="51.229"/>
	<text transform="matrix(1 0 0 1 295.0859 245.0625)"><tspan x="0" y="0" fill="#585556" font-family="'Calibre-Semibold'" font-size="12" letter-spacing="1">LE</tspan><tspan x="15.167" y="0" fill="#585556" font-family="'Calibre-Semibold'" font-size="12" letter-spacing="1">G</tspan><tspan x="24.443" y="0" fill="#585556" font-family="'Calibre-Semibold'" font-size="12" letter-spacing="1">AC</tspan><tspan x="41.627" y="0" fill="#585556" font-family="'Calibre-Semibold'" font-size="12" letter-spacing="1">Y </tspan><tspan x="54.263" y="0" fill="#585556" font-family="'Calibre-Semibold'" font-size="12" letter-spacing="1">COD</tspan><tspan x="82.846" y="0" fill="#585556" font-family="'Calibre-Semibold'" font-size="12">E</tspan></text>
	<polyline fill="none" stroke="#585A5E" stroke-miterlimit="10" points="159.347,204.203 159.347,187.909 339.42,187.909 
		339.42,204.203 	"/>
	<polygon fill="#585A5E" points="161.84,203.474 159.347,207.792 156.854,203.474 	"/>
	<polygon fill="#585A5E" points="336.928,203.474 339.422,207.792 341.914,203.474 	"/>
	<line fill="none" stroke="#585A5E" stroke-miterlimit="10" x1="159.347" y1="276.902" x2="159.347" y2="305.873"/>
	<polygon fill="#585A5E" points="156.854,305.145 159.347,309.461 161.839,305.145 	"/>
	<line fill="none" stroke="#585A5E" stroke-miterlimit="10" x1="339.422" y1="299.047" x2="339.422" y2="314.053"/>
	<polygon fill="#585A5E" points="336.928,313.322 339.422,317.639 341.914,313.322 	"/>
	<text transform="matrix(1 0 0 1 72.6055 344.9531)"><tspan x="0" y="0" fill="#585A5E" font-family="'Calibre-Semibold'" font-size="9">B</tspan><tspan x="5.364" y="0" fill="#585A5E" font-family="'Calibre-Semibold'" font-size="9">ALLER</tspan><tspan x="31.788" y="0" fill="#585A5E" font-family="'Calibre-Semibold'" font-size="9">I</tspan><tspan x="34.56" y="0" fill="#585A5E" font-family="'Calibre-Semibold'" font-size="9">N</tspan><tspan x="41.111" y="0" fill="#585A5E" font-family="'Calibre-Semibold'" font-size="9">A</tspan></text>
	<text transform="matrix(1 0 0 1 76.4482 355.7539)"><tspan x="0" y="0" fill="#585A5E" font-family="'Calibre-Semibold'" font-size="9">MES</tspan><tspan x="17.991" y="0" fill="#585A5E" font-family="'Calibre-Semibold'" font-size="9">S</tspan><tspan x="22.958" y="0" fill="#585A5E" font-family="'Calibre-Semibold'" font-size="9">A</tspan><tspan x="28.827" y="0" fill="#585A5E" font-family="'Calibre-Semibold'" font-size="9">G</tspan><tspan x="35.271" y="0" fill="#585A5E" font-family="'Calibre-Semibold'" font-size="9">E</tspan></text>
	<text transform="matrix(1 0 0 1 79.5537 366.5527)"><tspan x="0" y="0" fill="#585A5E" font-family="'Calibre-Semibold'" font-size="9">BROKE</tspan><tspan x="28.376" y="0" fill="#585A5E" font-family="'Calibre-Semibold'" font-size="9">R</tspan></text>
	<text transform="matrix(1 0 0 1 203.2676 344.9531)"><tspan x="0" y="0" fill="#585A5E" font-family="'Calibre-Semibold'" font-size="9">B</tspan><tspan x="5.373" y="0" fill="#585A5E" font-family="'Calibre-Semibold'" font-size="9">A</tspan><tspan x="11.502" y="0" fill="#585A5E" font-family="'Calibre-Semibold'" font-size="9">LLERIN</tspan><tspan x="41.121" y="0" fill="#585A5E" font-family="'Calibre-Semibold'" font-size="9">A</tspan></text>
	<text transform="matrix(1 0 0 1 196.2114 355.7539)"><tspan x="0" y="0" fill="#585A5E" font-family="'Calibre-Semibold'" font-size="9">TR</tspan><tspan x="10.575" y="0" fill="#585A5E" font-family="'Calibre-Semibold'" font-size="9">A</tspan><tspan x="16.705" y="0" fill="#585A5E" font-family="'Calibre-Semibold'" font-size="9">N</tspan><tspan x="23.255" y="0" fill="#585A5E" font-family="'Calibre-Semibold'" font-size="9">S</tspan><tspan x="28.224" y="0" fill="#585A5E" font-family="'Calibre-Semibold'" font-size="9">A</tspan><tspan x="34.101" y="0" fill="#585A5E" font-family="'Calibre-Semibold'" font-size="9">C</tspan><tspan x="39.806" y="0" fill="#585A5E" font-family="'Calibre-Semibold'" font-size="9">TIO</tspan><tspan x="54.521" y="0" fill="#585A5E" font-family="'Calibre-Semibold'" font-size="9">N</tspan></text>
	<text transform="matrix(1 0 0 1 195.9595 366.5527)"><tspan x="0" y="0" fill="#585A5E" font-family="'Calibre-Semibold'" font-size="9">C</tspan><tspan x="5.85" y="0" fill="#585A5E" font-family="'Calibre-Semibold'" font-size="9">O</tspan><tspan x="12.726" y="0" fill="#585A5E" font-family="'Calibre-Semibold'" font-size="9">OR</tspan><tspan x="25.029" y="0" fill="#585A5E" font-family="'Calibre-Semibold'" font-size="9">D</tspan><tspan x="31.644" y="0" fill="#585A5E" font-family="'Calibre-Semibold'" font-size="9">IN</tspan><tspan x="40.976" y="0" fill="#585A5E" font-family="'Calibre-Semibold'" font-size="9">A</tspan><tspan x="46.539" y="0" fill="#585A5E" font-family="'Calibre-Semibold'" font-size="9">T</tspan><tspan x="51.353" y="0" fill="#585A5E" font-family="'Calibre-Semibold'" font-size="9">O</tspan><tspan x="58.185" y="0" fill="#585A5E" font-family="'Calibre-Semibold'" font-size="9">R</tspan></text>
	<text transform="matrix(1 0 0 1 336.4854 344.9531)"><tspan x="0" y="0" fill="#585A5E" font-family="'Calibre-Semibold'" font-size="9">B</tspan><tspan x="5.364" y="0" fill="#585A5E" font-family="'Calibre-Semibold'" font-size="9">ALLERIN</tspan><tspan x="41.12" y="0" fill="#585A5E" font-family="'Calibre-Semibold'" font-size="9">A</tspan></text>
	<text transform="matrix(1 0 0 1 338.9873 355.7539)"><tspan x="0" y="0" fill="#585A5E" font-family="'Calibre-Semibold'" font-size="9">IDENTI</tspan><tspan x="28.898" y="0" fill="#585A5E" font-family="'Calibre-Semibold'" font-size="9">T</tspan><tspan x="34.02" y="0" fill="#585A5E" font-family="'Calibre-Semibold'" font-size="9">Y</tspan><tspan x="39.519" y="0" fill="#585A5E" font-family="'Calibre-Semibold'" font-size="9"> </tspan></text>
	<text transform="matrix(1 0 0 1 343.4238 366.5527)"><tspan x="0" y="0" fill="#585A5E" font-family="'Calibre-Semibold'" font-size="9">B</tspan><tspan x="5.5" y="0" fill="#585A5E" font-family="'Calibre-Semibold'" font-size="9">ROKE</tspan><tspan x="28.368" y="0" fill="#585A5E" font-family="'Calibre-Semibold'" font-size="9">R</tspan></text>
</g>
</svg>
