<?xml version="1.0" encoding="utf-8"?>
<!-- Generator: Adobe Illustrator 16.0.0, SVG Export Plug-In . SVG Version: 6.00 Build 0)  -->
<!DOCTYPE svg PUBLIC "-//W3C//DTD SVG 1.1//EN" "http://www.w3.org/Graphics/SVG/1.1/DTD/svg11.dtd">
<svg version="1.1" id="Layer_1" xmlns="http://www.w3.org/2000/svg" xmlns:xlink="http://www.w3.org/1999/xlink" x="0px" y="0px"
	 width="30px" height="30px" viewBox="0 0 30 30" enable-background="new 0 0 30 30" xml:space="preserve">
<g>
	<path fill="#A7A8AB" d="M7.345,6.913L6.868,8.968h0.06C7.781,8.035,8.65,7.359,9.534,6.943c0.883-0.417,1.931-0.626,3.142-0.626
		c0.914,0,1.698,0.144,2.354,0.432c0.655,0.288,1.2,0.685,1.638,1.191c0.437,0.506,0.76,1.122,0.969,1.847
		c0.208,0.726,0.312,1.515,0.312,2.368c0,1.192-0.179,2.408-0.536,3.649c-0.357,1.24-0.889,2.367-1.594,3.38
		c-0.705,1.014-1.584,1.843-2.636,2.488c-1.053,0.645-2.274,0.967-3.664,0.967c-0.219,0-0.541-0.02-0.968-0.06
		c-0.428-0.039-0.884-0.148-1.371-0.326c-0.487-0.179-0.958-0.457-1.415-0.835c-0.457-0.377-0.814-0.894-1.072-1.549l-1.609,7.685
		H0.434L4.783,6.913H7.345z M5.677,14.538c-0.06,0.337-0.114,0.671-0.164,0.998s-0.074,0.661-0.074,0.999
		c0,0.754,0.099,1.399,0.298,1.935c0.198,0.536,0.461,0.974,0.789,1.312c0.328,0.337,0.71,0.591,1.147,0.759
		c0.437,0.17,0.894,0.253,1.371,0.253c0.992,0,1.871-0.262,2.636-0.788c0.764-0.526,1.404-1.207,1.921-2.041s0.903-1.767,1.162-2.8
		c0.259-1.032,0.388-2.056,0.388-3.068c0-0.337-0.035-0.729-0.104-1.176c-0.069-0.447-0.229-0.874-0.477-1.281
		c-0.249-0.407-0.621-0.754-1.118-1.042c-0.497-0.288-1.172-0.432-2.025-0.432c-0.635,0-1.246,0.124-1.832,0.372
		C9.008,8.785,8.461,9.172,7.956,9.698C7.449,10.224,6.997,10.89,6.6,11.693C6.203,12.498,5.895,13.446,5.677,14.538z"/>
	<path fill="#A7A8AB" d="M23.638,6.913l0.953-4.468h2.651l-0.953,4.468h3.276L29.178,8.76h-3.275l-2.025,9.621
		c-0.041,0.179-0.075,0.348-0.104,0.506c-0.03,0.16-0.045,0.328-0.045,0.507c0,0.1,0.004,0.214,0.015,0.343
		c0.01,0.129,0.054,0.263,0.135,0.402c0.078,0.139,0.208,0.252,0.387,0.342c0.178,0.089,0.446,0.134,0.804,0.134
		c0.278,0,0.575-0.034,0.895-0.104c0.317-0.068,0.585-0.134,0.804-0.193l-0.418,1.848c-0.396,0.139-0.823,0.252-1.28,0.342
		c-0.456,0.09-0.913,0.134-1.369,0.134c-0.22,0-0.482-0.015-0.79-0.044c-0.308-0.03-0.611-0.114-0.908-0.254
		c-0.298-0.139-0.551-0.361-0.76-0.669c-0.209-0.309-0.312-0.75-0.312-1.325c0-0.199,0.019-0.433,0.06-0.701
		c0.039-0.268,0.078-0.511,0.119-0.729L23.251,8.76H20.6l0.388-1.847H23.638z"/>
</g>
</svg>
