<?xml version="1.0" encoding="utf-8"?>
<!-- Generator: Adobe Illustrator 16.0.0, SVG Export Plug-In . SVG Version: 6.00 Build 0)  -->
<!DOCTYPE svg PUBLIC "-//W3C//DTD SVG 1.1//EN" "http://www.w3.org/Graphics/SVG/1.1/DTD/svg11.dtd">
<svg version="1.1" id="Layer_1" xmlns="http://www.w3.org/2000/svg" xmlns:xlink="http://www.w3.org/1999/xlink" x="0px" y="0px"
	 width="30px" height="30px" viewBox="0 0 30 30" enable-background="new 0 0 30 30" xml:space="preserve">
<g enable-background="new    ">
	<path fill="#A7A8AB" d="M7.533,0.162h12.429c2.036,0,3.626,0.259,4.771,0.774c1.145,0.517,1.994,1.13,2.553,1.842
		c0.559,0.711,0.893,1.438,1.005,2.176c0.111,0.74,0.167,1.347,0.167,1.82c0,1.033-0.153,2.003-0.46,2.909
		c-0.308,0.906-0.726,1.736-1.255,2.489c-0.531,0.754-1.166,1.402-1.904,1.946c-0.74,0.544-1.527,0.956-2.365,1.234l-0.041,0.126
		c0.893,0.308,1.541,0.823,1.945,1.548c0.404,0.727,0.607,1.549,0.607,2.47c0,0.977-0.092,1.849-0.272,2.615
		c-0.182,0.768-0.355,1.556-0.522,2.364c-0.057,0.252-0.105,0.538-0.146,0.858c-0.043,0.321-0.084,0.635-0.126,0.941
		c-0.042,0.308-0.077,0.593-0.104,0.858c-0.028,0.265-0.042,0.467-0.042,0.606c0,0.308,0.056,0.601,0.167,0.879
		c0.111,0.279,0.252,0.559,0.419,0.837h-4.144c-0.14-0.278-0.251-0.551-0.334-0.816c-0.084-0.265-0.126-0.55-0.126-0.857
		c0-0.726,0.097-1.5,0.293-2.323c0.194-0.822,0.376-1.764,0.544-2.824c0.056-0.307,0.118-0.732,0.188-1.276
		c0.069-0.544,0.104-0.941,0.104-1.192c0-0.614-0.125-1.131-0.376-1.549c-0.251-0.419-0.585-0.739-1.003-0.963
		c-0.418-0.223-0.905-0.383-1.463-0.481c-0.557-0.097-1.142-0.146-1.754-0.146H7.888l-2.657,12.43H1.297L7.533,0.162z M8.604,13.722
		h8.774c0.919,0,1.803-0.14,2.653-0.418c0.849-0.279,1.595-0.684,2.235-1.214s1.148-1.193,1.524-1.988s0.564-1.722,0.564-2.783
		c0-0.445-0.056-0.899-0.167-1.359c-0.111-0.461-0.341-0.879-0.688-1.256c-0.349-0.377-0.842-0.676-1.481-0.899
		c-0.639-0.224-1.474-0.335-2.503-0.335h-8.72L8.604,13.722z"/>
</g>
</svg>
