<?xml version="1.0" encoding="utf-8"?>
<!-- Generator: Adobe Illustrator 16.0.0, SVG Export Plug-In . SVG Version: 6.00 Build 0)  -->
<!DOCTYPE svg PUBLIC "-//W3C//DTD SVG 1.1//EN" "http://www.w3.org/Graphics/SVG/1.1/DTD/svg11.dtd">
<svg version="1.1" id="Layer_1" xmlns="http://www.w3.org/2000/svg" xmlns:xlink="http://www.w3.org/1999/xlink" x="0px" y="0px"
	 width="17.2px" height="16.5px" viewBox="0 0 17.2 16.5" style="enable-background:new 0 0 17.2 16.5;" xml:space="preserve">
<style type="text/css">
<![CDATA[
	.st0{fill:none;stroke:#FFFFFF;stroke-miterlimit:10;}
	.st1{fill:none;stroke:#E45A5E;stroke-miterlimit:10;}
	.st2{fill:none;stroke:#585A5E;stroke-miterlimit:10;}
	.st3{fill:#FFFFFF;}
]]>
</style>
<circle class="st1" cx="28.2" cy="8.4" r="5.9"/>
<path class="st3" d="M9.2,0C5,0,1.6,3.4,1.6,7.6c0,4.2,3.4,7.6,7.6,7.6c4.2,0,7.6-3.4,7.6-7.6C16.8,3.4,13.4,0,9.2,0z M9.2,14.1
	c-3.6,0-6.5-2.9-6.5-6.5c0-3.6,2.9-6.5,6.5-6.5c3.6,0,6.5,2.9,6.5,6.5C15.7,11.2,12.8,14.1,9.2,14.1z"/>
<circle class="st2" cx="9.2" cy="7.6" r="6.1"/>
<line class="st2" x1="5" y1="11.5" x2="0.4" y2="16"/>
<line class="st0" x1="5.2" y1="12.7" x2="1.8" y2="16.1"/>
</svg>
