<?xml version="1.0" encoding="utf-8"?>
<!-- Generator: Adobe Illustrator 16.0.0, SVG Export Plug-In . SVG Version: 6.00 Build 0)  -->
<!DOCTYPE svg PUBLIC "-//W3C//DTD SVG 1.1//EN" "http://www.w3.org/Graphics/SVG/1.1/DTD/svg11.dtd">
<svg version="1.1" id="Layer_1" xmlns="http://www.w3.org/2000/svg" xmlns:xlink="http://www.w3.org/1999/xlink" x="0px" y="0px"
	 width="659.331px" height="661.5px" viewBox="120 1130.5 659.331 661.5" enable-background="new 120 1130.5 659.331 661.5"
	 xml:space="preserve">
<path fill="#20B6B0" d="M577.499,1410.751c0-48.979-17.408-90.877-52.223-125.692s-76.713-52.224-125.693-52.224
	c-48.98,0-90.877,17.408-125.693,52.224c-34.816,34.815-52.223,76.713-52.223,125.692c0,48.98,17.407,90.878,52.223,125.693
	c34.815,34.815,76.713,52.223,125.693,52.223c48.979,0,90.877-17.407,125.693-52.223S577.499,1459.731,577.499,1410.751z
	 M780.831,1741.167c0,13.768-5.03,25.682-15.091,35.742C755.679,1786.97,743.765,1792,729.998,1792
	c-14.297,0-26.211-5.03-35.742-15.091l-136.217-135.82c-47.392,32.83-100.21,49.245-158.457,49.245
	c-37.86,0-74.066-7.348-108.616-22.041c-34.551-14.694-64.336-34.551-89.355-59.57c-25.02-25.02-44.876-54.805-59.57-89.355
	S120,1448.611,120,1410.751c0-37.859,7.347-74.065,22.041-108.616c14.694-34.55,34.551-64.335,59.57-89.354
	c25.019-25.02,54.804-44.876,89.355-59.57c34.55-14.694,70.756-22.041,108.616-22.041c37.86,0,74.065,7.347,108.616,22.041
	c34.55,14.694,64.335,34.551,89.355,59.57s44.876,54.805,59.57,89.354c14.694,34.551,22.041,70.757,22.041,108.616
	c0,58.247-16.415,111.065-49.245,158.457l136.217,136.217C775.933,1715.221,780.831,1727.135,780.831,1741.167z"/>
</svg>
