<?xml version="1.0" encoding="utf-8"?>
<!-- Generator: Adobe Illustrator 26.0.1, SVG Export Plug-In . SVG Version: 6.00 Build 0)  -->
<svg version="1.1" id="Layer_1" xmlns="http://www.w3.org/2000/svg" xmlns:xlink="http://www.w3.org/1999/xlink" x="0px" y="0px"
	 viewBox="0 0 15.4 15.4" style="enable-background:new 0 0 15.4 15.4;" xml:space="preserve">
<style type="text/css">
	.st0{fill:#595B5F;}
</style>
<g>
	<path class="st0" d="M2,11.4c-0.9,0.2-1.7-0.2-2-1.1C-0.1,10-0.1,9.6,0,9.4c0.2-0.7,0.9-1.2,1.7-1.2h1.5v1.5
		C3.2,10.5,2.7,11.1,2,11.4z"/>
	<path class="st0" d="M4.2,9.7c0-0.8,0.7-1.5,1.5-1.5s1.5,0.7,1.5,1.5v3.8c0,0.8-0.7,1.5-1.5,1.5s-1.5-0.7-1.5-1.5V9.7z"/>
	<path class="st0" d="M5.7,3.2C5,3.2,4.3,2.8,4.1,2.1C3.7,1.3,4,0.4,4.8,0s1.8-0.1,2.2,0.7C7,0.8,7.1,1,7.1,1.1
		c0.1,0.2,0.1,0.3,0.1,0.5l0,0v1.6H5.7z"/>
	<path class="st0" d="M5.7,4.2c0.8,0,1.5,0.7,1.5,1.5S6.5,7.2,5.7,7.2H1.9c-0.8,0-1.5-0.7-1.5-1.5s0.7-1.5,1.5-1.5H5.7z"/>
	<path class="st0" d="M13.4,4.1c0.9-0.2,1.7,0.2,2,1.1c0.1,0.3,0.1,0.6,0,0.9c-0.2,0.7-0.9,1.2-1.6,1.2h-1.5V5.7
		C12.2,4.9,12.7,4.3,13.4,4.1z"/>
	<path class="st0" d="M11.2,5.4c0,0.8-0.7,1.5-1.5,1.5S8.2,6.2,8.2,5.4V1.7c0-0.8,0.7-1.5,1.5-1.5s1.5,0.7,1.5,1.5V5.4z"/>
	<path class="st0" d="M11.4,13.4c0.2,0.9-0.2,1.7-1.1,2c-0.3,0.1-0.6,0.1-0.9,0c-0.7-0.2-1.2-0.9-1.2-1.7v-1.5h1.5
		C10.5,12.2,11.1,12.7,11.4,13.4z"/>
	<path class="st0" d="M9.9,11.2c-0.8,0-1.5-0.7-1.5-1.5s0.7-1.5,1.5-1.5h3.8c0.8,0,1.5,0.7,1.5,1.5s-0.7,1.5-1.5,1.5H9.9z"/>
</g>
</svg>
