<svg id="Layer_1" data-name="Layer 1" xmlns="http://www.w3.org/2000/svg" viewBox="0 0 599 403"><defs><style>.cls-1,.cls-2{fill:none;stroke-miterlimit:10;stroke-width:8px;}.cls-1{stroke:#585a5e;}.cls-2{stroke:#52c3c2;}</style></defs><circle class="cls-1" cx="486.74" cy="86.95" r="61.91"/><path class="cls-1" d="M423,288c17.33,4.25,39.55,6.81,63.77,6.81,55.37,0,100.26-13.36,100.26-29.84a9.91,9.91,0,0,0-.17-1.71"/><path class="cls-1" d="M586.83,263.23C584.2,194.79,559.92,156,486.74,156c-60.93,0-88.36,27.52-97.06,77.09"/><circle class="cls-1" cx="112.64" cy="86.95" r="61.91"/><path class="cls-1" d="M12.39,264.94c0,16.48,44.88,29.84,100.25,29.84,27.69,0,52.75-3.34,70.9-8.74"/><path class="cls-1" d="M209.82,233.41C201.34,183.63,174.41,156,112.64,156c-72.34,0-97.46,38.8-100.08,107.24a9,9,0,0,0-.17,1.71"/><circle class="cls-1" cx="299.69" cy="120.45" r="76.89"/><path class="cls-2" d="M475.46,26.44s2.2,22.88,11.7,35c22.49,28.76,61.43,25.34,61.43,25.34"/><path class="cls-2" d="M475.73,53.42s-3.89,10.16-22.09,21.42c-14.31,8.86-28.81,2.7-28.81,2.7"/><path class="cls-2" d="M101.36,26.44s2.2,22.88,11.7,35c22.49,28.76,61.44,25.34,61.44,25.34"/><path class="cls-2" d="M101.63,53.42S97.74,63.58,79.54,74.84c-14.31,8.86-28.81,2.7-28.81,2.7"/><path class="cls-2" d="M285.68,45.3s2.73,28.42,14.53,43.52c27.93,35.72,76.3,31.47,76.3,31.47"/><path class="cls-2" d="M286,78.82s-4.84,12.6-27.44,26.6c-17.77,11-35.78,3.35-35.78,3.35"/><path class="cls-1" d="M175.18,341.49c0,20.47,55.75,37.06,124.51,37.06S424.2,362,424.2,341.49a10.9,10.9,0,0,0-.22-2.12"/><path class="cls-1" d="M424,339.37c-3.26-85-33.41-133.18-124.29-133.18-89.84,0-121,48.18-124.29,133.18a11.73,11.73,0,0,0-.22,2.12"/></svg>