<svg xmlns="http://www.w3.org/2000/svg" viewBox="0 0 15.4 15.4">
  <defs>
    <style>
      .a {
        fill: #20b6b0;
      }
    </style>
  </defs>
  <g>
    <path class="a" d="M2,11.3a1.61,1.61,0,0,1-2-2A1.67,1.67,0,0,1,1.69,8.15H3.2V9.66A1.66,1.66,0,0,1,2,11.3Z" transform="translate(0 0.05)"/>
    <path class="a" d="M4.2,9.63a1.5,1.5,0,0,1,3,0v3.75a1.5,1.5,0,0,1-3,0Z" transform="translate(0 0.05)"/>
    <path class="a" d="M5.67,3.15A1.64,1.64,0,0,1,4.08,2.08,1.6,1.6,0,1,1,7.2,1.55h0v1.6Z" transform="translate(0 0.05)"/>
    <path class="a" d="M5.67,4.15a1.5,1.5,0,1,1,0,3H1.92a1.5,1.5,0,0,1,0-3Z" transform="translate(0 0.05)"/>
    <path class="a" d="M13.38,4a1.61,1.61,0,0,1,2,2,1.66,1.66,0,0,1-1.64,1.17H12.2V5.65A1.66,1.66,0,0,1,13.38,4Z" transform="translate(0 0.05)"/>
    <path class="a" d="M11.2,5.37a1.5,1.5,0,1,1-3,0V1.62a1.5,1.5,0,0,1,3,0Z" transform="translate(0 0.05)"/>
    <path class="a" d="M11.35,13.33a1.61,1.61,0,0,1-2,2A1.66,1.66,0,0,1,8.2,13.66V12.15H9.71A1.67,1.67,0,0,1,11.35,13.33Z" transform="translate(0 0.05)"/>
    <path class="a" d="M9.94,11.15a1.5,1.5,0,0,1,0-3h3.75a1.5,1.5,0,1,1,0,3Z" transform="translate(0 0.05)"/>
  </g>
</svg>
