<?xml version="1.0" encoding="utf-8"?>
<!-- Generator: Adobe Illustrator 16.0.0, SVG Export Plug-In . SVG Version: 6.00 Build 0)  -->
<!DOCTYPE svg PUBLIC "-//W3C//DTD SVG 1.1//EN" "http://www.w3.org/Graphics/SVG/1.1/DTD/svg11.dtd">
<svg version="1.1" id="Layer_1" xmlns="http://www.w3.org/2000/svg" xmlns:xlink="http://www.w3.org/1999/xlink" x="0px" y="0px"
	 width="30px" height="30px" viewBox="0 0 30 30" enable-background="new 0 0 30 30" xml:space="preserve">
<g>
	<path fill="#A7A8AB" d="M18.322,0.018l-1.189,6.185h5.519l-0.618,3.093h-5.519l-2.141,11.181c-0.238,1.284-0.428,2.474-0.428,3.711
		c0,1.38,0.666,2.188,2.188,2.188c0.666,0,1.332-0.048,1.855-0.143l-0.19,3.092c-0.714,0.286-1.903,0.429-3.045,0.429
		c-3.521,0-4.853-2.141-4.853-4.473c0-1.332,0.143-2.664,0.476-4.329l2.284-11.656h-3.33l0.618-3.093h3.283l1-5.186L18.322,0.018z"
		/>
</g>
</svg>
