<?xml version="1.0" encoding="utf-8"?>
<!-- Generator: Adobe Illustrator 16.0.0, SVG Export Plug-In . SVG Version: 6.00 Build 0)  -->
<!DOCTYPE svg PUBLIC "-//W3C//DTD SVG 1.1//EN" "http://www.w3.org/Graphics/SVG/1.1/DTD/svg11.dtd">
<svg version="1.1" id="Layer_1" xmlns="http://www.w3.org/2000/svg" xmlns:xlink="http://www.w3.org/1999/xlink" x="0px" y="0px"
	 width="30px" height="30px" viewBox="0 0 30 30" enable-background="new 0 0 30 30" xml:space="preserve">
<g>
	<path fill="#20B6AF" d="M12.854,6.637L14.27,0h3.938l-1.416,6.637h4.867L21.084,9.38h-4.867l-3.009,14.292
		c-0.06,0.266-0.11,0.518-0.155,0.753c-0.044,0.236-0.066,0.487-0.066,0.752c0,0.148,0.007,0.317,0.022,0.509
		c0.014,0.193,0.081,0.391,0.199,0.598c0.118,0.207,0.31,0.376,0.575,0.509c0.266,0.133,0.664,0.199,1.195,0.199
		c0.413,0,0.855-0.052,1.328-0.155c0.472-0.103,0.869-0.199,1.194-0.287l-0.619,2.743c-0.591,0.206-1.225,0.376-1.903,0.509
		C14.299,29.934,13.621,30,12.942,30c-0.325,0-0.715-0.022-1.172-0.066c-0.458-0.044-0.907-0.17-1.35-0.376
		c-0.442-0.207-0.818-0.538-1.128-0.996c-0.31-0.456-0.464-1.112-0.464-1.969c0-0.294,0.029-0.642,0.088-1.04
		c0.059-0.397,0.118-0.759,0.177-1.084L12.279,9.38H8.341l0.575-2.743H12.854z"/>
</g>
</svg>
