<?xml version="1.0" encoding="utf-8"?>
<!-- Generator: Adobe Illustrator 16.0.0, SVG Export Plug-In . SVG Version: 6.00 Build 0)  -->
<!DOCTYPE svg PUBLIC "-//W3C//DTD SVG 1.1//EN" "http://www.w3.org/Graphics/SVG/1.1/DTD/svg11.dtd">
<svg version="1.1" id="Layer_1" xmlns="http://www.w3.org/2000/svg" xmlns:xlink="http://www.w3.org/1999/xlink" x="0px" y="0px"
	 width="660.4px" height="121.6px" viewBox="147.4 88 660.4 121.6" style="enable-background:new 147.4 88 660.4 121.6;"
	 xml:space="preserve">
<style type="text/css">
<![CDATA[
	.st0{fill:#FFFFFF;}
]]>
</style>
<g>
	<g>
		<g>
			<g>
				<path class="st0" d="M201.9,207.4h-54.5V91.3H199c29.3,0,41.8,12.5,41.8,31.5c0,13.1-8.8,22.3-21.4,24.3
					c14,2.6,24.9,11.8,24.9,28.4C244.3,195.6,229,207.4,201.9,207.4z M169.9,139.6h27.6c13.8,0,19.7-6.1,19.7-14.7
					c0-8.7-5.9-14.9-19.7-14.9h-27.6V139.6z M169.9,157.1v31.7h29.5c14.4,0,21.4-6.1,21.4-15.7c0-9.8-7-16-21.4-16H169.9z"/>
				<path class="st0" d="M326.9,187.7c0,4.2,2.2,6.3,5.7,6.3c2.2,0,4.4-0.6,6.8-1.7v11.8c-3.5,2.8-7.9,5.2-15.3,5.2
					c-9.2,0-16.2-5.9-17.9-15.7c-4.6,9.6-14.9,15.9-28.4,15.9c-15.5,0-25.8-8.3-25.8-22.3c0-15.5,12.2-21.9,31-25.4l22.3-4.2v-2.4
					c0-9-4.8-14.6-14.2-14.6c-9.2,0-14.2,5.5-16,13.5l-20.1-1.8c2.8-16.6,15.5-28.2,37-28.2c21,0,34.8,10,34.8,31.3V187.7
					L326.9,187.7z M305.4,169.5l-15.3,3.1c-10.1,2-16.4,4.6-16.4,12.2c0,5.7,4.1,10,11.2,10c11.6,0,20.5-8.7,20.5-22.5V169.5z"/>
				<path class="st0" d="M508.1,180.3c-4.1,18.4-18.4,29.3-39.3,29.3c-25.1,0-43.1-16-43.1-41.6c0-25.6,18.2-44,42.6-44
					c26.5,0,40.2,18.4,40.2,40.5v7h-61c0.7,13.3,10.1,21.4,22.1,21.4c10.9,0,17.5-4.8,20.6-14.4L508.1,180.3z M486.9,159.9
					c-0.4-10.5-6.5-19.7-18.8-19.7c-12.2,0-19,8.8-20.3,19.7H486.9z"/>
				<path class="st0" d="M577.4,147.9c-4.2-2.4-7.9-3.5-13.3-3.5c-11.4,0-19.2,8.1-19.2,22.9v40.2h-22.1v-81.3H545v15.5
					c2.9-9.2,11.4-17.7,22.7-17.7c5,0,9,1.3,11.4,3.3L577.4,147.9z"/>
				<path class="st0" d="M588.4,91.3h22.7v21.6h-22.7V91.3z M610.9,126.2v81.3h-22.1v-81.3H610.9z"/>
				<path class="st0" d="M651.2,207.4h-22.1v-81.3h22.1v13.3c4.1-9.2,14.4-15.5,26.5-15.5c21.7,0,29.7,14.7,29.7,32.8v50.7h-22.1
					v-46.3c0-12.5-5-19.7-15.9-19.7c-11.2,0-18.2,8.8-18.2,22.5V207.4L651.2,207.4z"/>
				<path class="st0" d="M795.3,187.7c0,4.2,2.2,6.3,5.7,6.3c2.2,0,4.4-0.6,6.8-1.7v11.8c-3.5,2.8-7.9,5.2-15.3,5.2
					c-9.2,0-16.2-5.9-17.9-15.7c-4.6,9.6-14.9,15.9-28.4,15.9c-15.5,0-25.8-8.3-25.8-22.3c0-15.5,12.2-21.9,31-25.4l22.3-4.2v-2.4
					c0-9-4.8-14.6-14.2-14.6c-9.2,0-14.2,5.5-16,13.5l-20.1-1.8c2.8-16.6,15.5-28.2,37-28.2c21,0,34.8,10,34.8,31.3V187.7
					L795.3,187.7z M773.7,169.5l-15.3,3.1c-10.1,2-16.4,4.6-16.4,12.2c0,5.7,4.1,10,11.2,10c11.6,0,20.5-8.7,20.5-22.5V169.5z"/>
			</g>
			<g>
				<polygon class="st0" points="349.1,121.5 349.1,88 377.2,88 377.2,132.3 				"/>
				<polygon class="st0" points="349.1,132 368.3,139.4 349.1,146.7 				"/>
				<polygon class="st0" points="377.2,146.5 377.2,162.7 363.5,207.4 349.1,207.4 349.1,157.2 				"/>
			</g>
			<g>
				<polygon class="st0" points="415,121.5 415,88 386.9,88 386.9,132.3 				"/>
				<polygon class="st0" points="415,132 395.7,139.4 415,146.7 				"/>
				<polygon class="st0" points="386.9,146.5 386.9,162.7 400.5,207.4 415,207.4 415,157.2 				"/>
			</g>
		</g>
	</g>
</g>
</svg>
