<?xml version="1.0" encoding="UTF-8"?>
<svg id="a" xmlns="http://www.w3.org/2000/svg" viewBox="0 0 108.33 106.95">
  <defs>
    <style>
      .b {
        fill: none;
        stroke: #231f20;
        stroke-miterlimit: 10;
        stroke-width: 2px;
      }
    </style>
  </defs>
  <g>
    <path class="b" d="M105.12,66.94h-6.25v-13.04c0-10.67-8.65-19.31-19.31-19.31h-1.18c-10.67,0-19.31,8.65-19.31,19.31v13.04h-6.25c-1.22,0-2.21,.99-2.21,2.21v32.24c0,1.22,.99,2.21,2.21,2.21h52.3c1.22,0,2.21-.99,2.21-2.21v-32.24c0-1.22-.99-2.21-2.21-2.21Z"/>
    <path class="b" d="M66.36,53.9c0-6.62,5.39-12.01,12.01-12.01h1.18c6.62,0,12.01,5.39,12.01,12.01v13.04h-25.21v-13.04Z"/>
    <path class="b" d="M82.34,92.61c.07,.49-.32,.94-.82,.94h-4.93c-.43,0-.75-.38-.7-.8l1.08-7.87c-1.34-.79-2.21-2.3-2.08-4,.17-2.09,1.89-3.77,3.99-3.89,2.45-.13,4.48,1.81,4.48,4.23,0,1.56-.84,2.91-2.09,3.65l1.06,7.73Z"/>
  </g>
  <g>
    <path class="b" d="M79.12,66.94v-25.91"/>
    <path class="b" d="M79.12,34.1V12.19h-.02s.02-.06,.02-.1h0c0-6.12-17.49-11.08-39.06-11.08S1,5.96,1,12.09c0,.03,.02,.06,.02,.1h-.02V81.4c0,6.12,17.49,11.09,39.06,11.09,3.5,0,6.89-.13,10.11-.38"/>
    <path class="b" d="M60.63,45.36c-5.97,1.05-13.02,1.66-20.57,1.66-21.57,0-39.06-4.97-39.06-11.09"/>
    <path class="b" d="M49.6,70.04c-3.05,.22-6.25,.33-9.54,.33-21.57,0-39.06-4.97-39.06-11.09"/>
    <path class="b" d="M79.12,59.28c0,3.2-4.78,4.93-12.42,6.96"/>
    <ellipse class="b" cx="40.06" cy="12.09" rx="39.06" ry="11.09"/>
  </g>
</svg>