<?xml version="1.0" encoding="UTF-8"?>
<svg id="a" data-name="Layer 1" xmlns="http://www.w3.org/2000/svg" viewBox="0 0 131.33 168.24">
  <defs>
    <style>
      .b {
        fill: none;
        stroke: #595b5f;
        stroke-miterlimit: 10;
        stroke-width: 4.76px;
      }
    </style>
  </defs>
  <line class="b" x1="20.14" y1="120.74" x2="111.18" y2="120.74"/>
  <line class="b" x1="20.14" y1="142.73" x2="111.18" y2="142.73"/>
  <g>
    <polyline class="b" points="127.93 33.78 92.3 33.78 92.3 4.37"/>
    <path class="b" d="M128.95,161.05V37.47c0-2.32-1-4.51-2.73-5.99L94.73,4.55c-1.63-1.4-3.7-2.16-5.82-2.16H6.68c-2.38,0-4.3,1.98-4.3,4.42V161.19c0,2.58,2.04,4.67,4.55,4.67H124.26c2.59,0,4.68-2.15,4.68-4.81Z"/>
  </g>
  <line class="b" x1="20.14" y1="98.75" x2="111.18" y2="98.75"/>
  <line class="b" x1="20.14" y1="76.76" x2="111.18" y2="76.76"/>
  <line class="b" x1="20.14" y1="54.76" x2="111.18" y2="54.76"/>
  <line class="b" x1="20.14" y1="32.77" x2="77.73" y2="32.77"/>
</svg>