<?xml version="1.0" encoding="UTF-8"?>
<svg id="Layer_3" data-name="Layer 3" xmlns="http://www.w3.org/2000/svg" xmlns:xlink="http://www.w3.org/1999/xlink" viewBox="0 0 400 400">
  <defs>
    <filter id="drop-shadow-2" x="36.49" y="60.25" width="323.52" height="279.84" filterUnits="userSpaceOnUse">
      <feOffset dx="1.93" dy=".97"/>
      <feGaussianBlur result="blur" stdDeviation="4.84"/>
      <feFlood flood-color="#000" flood-opacity=".3"/>
      <feComposite in2="blur" operator="in"/>
      <feComposite in="SourceGraphic"/>
    </filter>
    <clipPath id="clippath">
      <rect x="52.06" y="142.04" width="191.8" height="186.52" transform="translate(-101.24 112.19) rotate(-31.55)" fill="none"/>
    </clipPath>
    <clipPath id="clippath-1">
      <rect x="44.86" y="140.38" width="194.97" height="189.6" transform="translate(-102.01 109.23) rotate(-31.55)" fill="none"/>
    </clipPath>
  </defs>
  <g>
    <path d="M295.35,134.61c5.54,9.02,17.33,11.83,26.34,6.29l18.86,30.72c5.45,8.88,2.67,20.51-6.21,25.96l-201.99,124.01c-8.88,5.45-20.5,2.67-25.96-6.22l-18.86-30.72c9.01-5.53,11.84-17.32,6.3-26.34-5.54-9.02-17.33-11.84-26.34-6.31l-15.52-25.28c-5.45-8.88-2.68-20.5,6.21-25.95l201.99-124.01c8.88-5.45,20.5-2.68,25.96,6.2l15.52,25.28c-9.02,5.54-11.84,17.33-6.3,26.35Z" fill="#fcfcfc" filter="url(#drop-shadow-2)"/>
    <g>
      <line x1="199.9" y1="132.54" x2="202.94" y2="137.48" fill="none" stroke="#e66700" stroke-miterlimit="10" stroke-width="5.8"/>
      <line x1="208.65" y1="146.79" x2="251.51" y2="216.6" fill="none" stroke="#e66700" stroke-dasharray="10.92 10.92" stroke-miterlimit="10" stroke-width="5.8"/>
      <line x1="254.37" y1="221.25" x2="257.41" y2="226.2" fill="none" stroke="#e66700" stroke-miterlimit="10" stroke-width="5.8"/>
    </g>
    <g clip-path="url(#clippath)">
      <path d="M369.47,308c5.54,9.02,17.33,11.83,26.34,6.29l18.86,30.72c5.45,8.88,2.67,20.51-6.21,25.96l-201.99,124.01c-8.88,5.45-20.5,2.67-25.96-6.22l-18.86-30.72c9.01-5.53,11.84-17.32,6.3-26.34-5.54-9.02-17.33-11.84-26.34-6.31l-15.52-25.28c-5.45-8.88-2.68-20.5,6.21-25.95l201.99-124.01c8.88-5.45,20.5-2.68,25.96,6.2l15.52,25.28c-9.02,5.54-11.84,17.33-6.3,26.35Z" fill="#d8d7d6"/>
    </g>
    <g clip-path="url(#clippath-1)">
      <path d="M291.69,136.2c5.46,8.9,17.1,11.67,26,6.21l18.61,30.31c5.38,8.77,2.64,20.24-6.13,25.62l-199.32,122.37c-8.77,5.38-20.23,2.63-25.61-6.13l-18.61-30.31c8.89-5.46,11.68-17.09,6.22-25.99-5.46-8.9-17.1-11.68-25.99-6.22l-15.32-24.95c-5.38-8.77-2.64-20.22,6.13-25.61l199.32-122.37c8.77-5.38,20.23-2.65,25.62,6.12l15.32,24.95c-8.9,5.46-11.68,17.1-6.22,26Z" fill="#f7f7f7"/>
    </g>
    <path d="M154.4,247.01c-2.46,1.51-5.05,2.28-7.75,2.3-2.7.02-5.25-.59-7.65-1.83-2.4-1.24-4.34-3.07-5.82-5.49-1.49-2.42-2.25-4.99-2.28-7.71-.04-2.72.57-5.27,1.83-7.65,1.26-2.37,3.12-4.32,5.58-5.83s5.04-2.29,7.73-2.34c2.69-.04,5.22.57,7.61,1.85,2.39,1.28,4.33,3.13,5.81,5.55,1.49,2.42,2.25,4.97,2.3,7.66.05,2.69-.55,5.23-1.8,7.63-1.24,2.4-3.1,4.35-5.56,5.87ZM161.88,276.37l9.99-75.07,8.47-5.2-9.99,75.07-8.47,5.2ZM150.65,240.89c1.39-.85,2.38-1.92,2.98-3.22.6-1.29.83-2.64.71-4.04-.12-1.41-.54-2.69-1.26-3.86s-1.71-2.18-2.89-2.9c-1.18-.72-2.49-1.11-3.91-1.16-1.42-.05-2.83.35-4.21,1.2s-2.33,1.89-2.94,3.2c-.62,1.3-.88,2.66-.8,4.05.09,1.4.5,2.7,1.24,3.91s1.68,2.11,2.9,2.84c1.22.73,2.55,1.12,3.99,1.16,1.44.04,2.84-.35,4.18-1.18ZM203.57,251.89c-2.46,1.51-5.06,2.29-7.78,2.32-2.72.04-5.27-.57-7.65-1.83-2.38-1.26-4.31-3.09-5.79-5.51-1.48-2.42-2.26-4.98-2.32-7.69-.06-2.71.55-5.26,1.83-7.65,1.28-2.39,3.15-4.34,5.61-5.85s5.04-2.29,7.73-2.34c2.69-.04,5.22.57,7.61,1.85,2.39,1.28,4.33,3.13,5.81,5.55s2.25,4.97,2.3,7.66c.05,2.69-.55,5.23-1.79,7.63-1.24,2.4-3.1,4.35-5.56,5.87ZM199.82,245.77c1.39-.85,2.37-1.92,2.94-3.19.57-1.28.81-2.62.71-4.04-.1-1.42-.51-2.71-1.22-3.88s-1.72-2.17-2.92-2.88c-1.21-.71-2.51-1.1-3.91-1.16-1.4-.07-2.79.33-4.18,1.18-1.34.83-2.33,1.89-2.94,3.19-.62,1.3-.88,2.66-.8,4.05.09,1.4.5,2.7,1.24,3.91s1.68,2.11,2.9,2.84c1.22.73,2.55,1.12,3.99,1.16,1.44.04,2.84-.35,4.18-1.18Z" fill="#e66700"/>
    <g>
      <path d="M113.47,217.57l-10.65-8.72,2.2-1.35,8.65,7.32-.43.26-2.58-11.04,2.2-1.35,2.93,13.44-2.32,1.42Z" fill="#e66700"/>
      <path d="M126.15,210.06c-.81.5-1.66.82-2.54.96-.88.14-1.74.12-2.58-.08s-1.62-.55-2.34-1.07c-.72-.52-1.33-1.19-1.83-2s-.82-1.67-.96-2.54c-.14-.87-.1-1.72.11-2.56s.58-1.61,1.11-2.33c.53-.71,1.21-1.32,2.03-1.83s1.67-.83,2.55-.97,1.74-.12,2.58.07c.84.19,1.62.54,2.33,1.06s1.33,1.18,1.83,2.01.81,1.66.94,2.54c.13.88.09,1.74-.12,2.58s-.58,1.61-1.1,2.33c-.52.71-1.2,1.32-2.02,1.83ZM125.02,208.21c.55-.33.99-.74,1.33-1.21.34-.47.57-.99.7-1.54.13-.56.14-1.13.03-1.72-.11-.59-.33-1.16-.67-1.72s-.75-1.01-1.22-1.37c-.47-.36-.99-.61-1.54-.75-.56-.14-1.12-.17-1.69-.08-.57.09-1.13.3-1.68.64s-.97.72-1.32,1.19c-.34.47-.57.98-.7,1.54-.13.56-.14,1.14-.04,1.72s.32,1.16.66,1.71.75,1.01,1.23,1.37,1,.61,1.55.75c.55.14,1.12.16,1.69.08s1.13-.29,1.67-.62Z" fill="#e66700"/>
      <path d="M138.02,202.8c-.85.52-1.72.81-2.6.85-.88.05-1.7-.13-2.46-.52-.76-.39-1.38-.99-1.87-1.78l-4.36-7.13,2.02-1.24,4.3,7.02c.28.46.63.81,1.06,1.05s.88.36,1.36.34c.48-.01.95-.16,1.41-.44s.81-.64,1.04-1.06c.23-.42.33-.87.31-1.36s-.17-.97-.45-1.42l-4.3-7.02,2.02-1.24,4.36,7.13c.49.79.73,1.62.74,2.47,0,.86-.21,1.66-.65,2.42-.44.76-1.09,1.4-1.94,1.92Z" fill="#e66700"/>
      <path d="M149.64,195.69c-.79.49-1.61.79-2.46.91-.85.12-1.68.08-2.49-.13s-1.58-.58-2.28-1.1c-.7-.52-1.31-1.2-1.81-2.02s-.83-1.67-.99-2.53c-.16-.87-.14-1.71.05-2.53.19-.82.53-1.57,1.03-2.27.5-.7,1.15-1.29,1.94-1.77s1.59-.79,2.38-.9,1.54-.09,2.25.09c.71.17,1.31.47,1.82.88l-1.3,1.96c-.55-.43-1.18-.67-1.9-.73-.72-.06-1.43.13-2.13.56s-1.21.96-1.54,1.61c-.33.65-.47,1.36-.41,2.11.06.75.33,1.52.8,2.29s1.03,1.36,1.68,1.76c.65.4,1.34.6,2.07.61s1.44-.21,2.14-.63,1.19-.98,1.47-1.64c.28-.67.35-1.34.21-2.02l2.33-.26c.13.64.12,1.32-.05,2.02-.17.71-.48,1.39-.95,2.04s-1.1,1.22-1.89,1.71Z" fill="#e66700"/>
      <path d="M155.84,191.65l-6.78-11.08,2.02-1.24,2.96,4.84,4.72-2.88-2.96-4.84,2.04-1.25,6.78,11.08-2.04,1.25-2.73-4.46-4.72,2.88,2.73,4.46-2.02,1.24Z" fill="#e66700"/>
      <path d="M166.75,184.98l-6.78-11.08,7.36-4.5,1.09,1.79-5.34,3.27,1.74,2.84,5.04-3.09,1.09,1.79-5.04,3.09,1.77,2.89,5.34-3.27,1.09,1.79-7.36,4.5Z" fill="#e66700"/>
      <path d="M175.6,179.57l-6.78-11.08,4.12-2.52c.75-.46,1.5-.73,2.25-.81.75-.08,1.44.04,2.09.36s1.2.85,1.65,1.6.68,1.52.65,2.28c-.03.76-.28,1.45-.74,2.09l5.27,2.89-2.29,1.4-5.7-3.2,1.78-.03-2.78,1.7,2.5,4.09-2.02,1.24ZM174.03,172.45l2.13-1.3c.37-.22.64-.49.82-.8.18-.31.27-.64.26-.98,0-.35-.12-.69-.32-1.03s-.47-.6-.77-.76c-.3-.16-.63-.23-.99-.21-.36.02-.72.14-1.08.37l-2.13,1.3,2.09,3.42Z" fill="#e66700"/>
    </g>
  </g>
  <polygon points="338.6 313.87 293.26 291.93 248.58 313.9 248.56 234.37 338.58 234.34 338.6 313.87" fill="#e66700"/>
  <circle cx="294.45" cy="225.77" r="55.52" fill="#fffefd" stroke="#e66700" stroke-miterlimit="10" stroke-width="3"/>
  <circle cx="294.45" cy="225.77" r="47.37" fill="#f7f7f7"/>
  <g>
    <g>
      <polygon points="287.44 205.37 282.28 217.89 277.56 204.32 272.05 217.67 267.79 205.02 265.75 204.98 271.88 222.75 277.42 209.4 282.13 222.95 289.48 205.41 287.44 205.37" fill="#e66700"/>
      <path d="M297.22,214.52c-.81-.69-5.09-3.01-5.63-3.4-.55-.4-.81-.96-.8-1.7s.31-1.34.88-1.79c.57-.45,1.26-.67,2.06-.66.52,0,.96.12,1.33.33.37.21.71.54,1.04,1l.17.28s.12.12.2.26l1.5-.93c-.47-.87-1.07-1.53-1.79-1.99-.72-.46-1.5-.69-2.34-.71-1.43-.03-2.6.36-3.52,1.15-.92.79-1.39,1.82-1.41,3.08-.02,1.19.37,2.12,1.18,2.78.81.66,4.88,2.87,5.51,3.31.63.45.94,1.1.92,1.96-.02.97-.35,1.78-1.01,2.41-.66.64-1.48.94-2.47.93-.87-.02-1.59-.3-2.15-.85-.56-.55-.95-1.32-1.17-2.34l-1.82.52c.15.68.37,1.29.66,1.83.3.54.67,1.01,1.11,1.39.88.76,2.02,1.16,3.39,1.18,1.46.03,2.71-.45,3.75-1.43,1.04-.98,1.58-2.19,1.6-3.64.02-1.29-.37-2.28-1.18-2.97Z" fill="#e66700"/>
      <path d="M318.39,213.74c.43-.11.88-.17,1.36-.16,1.28.02,2.31.46,3.08,1.3.78.84,1.16,1.82,1.14,2.94-.01.79-.22,1.52-.61,2.21-.39.68-1.14,1.61-2.26,2.77l-3.53,3.67,6.42.12-.02,1.34-9.45-.17,5.42-5.65c1.1-1.14,1.82-1.98,2.15-2.53.34-.55.51-1.14.52-1.75.01-.78-.27-1.46-.84-2.04-.57-.57-1.28-.87-2.13-.88-.48,0-.92.07-1.32.24.04-.34.07-1.28.07-1.41Z" fill="#e66700"/>
      <g>
        <path d="M308.38,204.64c-5.26-.09-9.6,4.08-9.7,9.33-.09,5.25,4.1,9.58,9.36,9.67s9.6-4.08,9.7-9.33c.09-5.25-4.1-9.58-9.36-9.67ZM308.07,221.88c-4.23-.08-7.59-3.6-7.52-7.87.08-4.27,3.57-7.67,7.79-7.6,4.23.08,7.59,3.6,7.52,7.87-.08,4.27-3.57,7.67-7.79,7.6Z" fill="#e66700"/>
        <path d="M315.85,213.68l-2.77-.04-1.43,2.46-3.3-8.47-3.23,6.85-4.56-.09c.01.38.05.75.12,1.12l5.15.1,2.43-5.16,3.2,8.21,2.26-3.91,2.12.03c.01-.17.02-.34.03-.51,0-.2,0-.4-.01-.6Z" fill="#e66700"/>
      </g>
    </g>
    <text transform="translate(262.74 242.91) rotate(1.03)" font-family="PlusJakartaSans-Bold, &apos;Plus Jakarta Sans&apos;" font-size="12.57" font-weight="700"><tspan x="0" y="0">CE</tspan><tspan x="17.21" y="0" letter-spacing="-.02em">R</tspan><tspan x="25.26" y="0" letter-spacing="0em">TIFIED</tspan></text>
  </g>
</svg>