<?xml version="1.0" encoding="UTF-8"?>
<svg id="Layer_1" data-name="Layer 1" xmlns="http://www.w3.org/2000/svg" xmlns:xlink="http://www.w3.org/1999/xlink" viewBox="0 0 400 400">
  <defs>
    <filter id="drop-shadow-1" x="39.63" y="111.05" width="324.96" height="241.44" filterUnits="userSpaceOnUse">
      <feOffset dx="1.93" dy=".97"/>
      <feGaussianBlur result="blur" stdDeviation="4.84"/>
      <feFlood flood-color="#000" flood-opacity=".3"/>
      <feComposite in2="blur" operator="in"/>
      <feComposite in="SourceGraphic"/>
    </filter>
    <clipPath id="clippath">
      <rect x="49.08" y="162" width="191.8" height="186.52" transform="translate(-74.04 59.8) rotate(-18.66)" fill="none"/>
    </clipPath>
    <clipPath id="clippath-1">
      <rect x="42.04" y="159.09" width="194.97" height="189.6" transform="translate(-73.9 57.98) rotate(-18.66)" fill="none"/>
    </clipPath>
    <clipPath id="clippath-2">
      <rect x="115.7" y="192.92" width="95.74" height="31.91" transform="translate(-58.23 63.31) rotate(-18.66)" fill="none"/>
    </clipPath>
    <filter id="drop-shadow-2" x="50.91" y="51.66" width="312.24" height="191.52" filterUnits="userSpaceOnUse">
      <feOffset dx="1.93" dy=".97"/>
      <feGaussianBlur result="blur-2" stdDeviation="4.84"/>
      <feFlood flood-color="#000" flood-opacity=".3"/>
      <feComposite in2="blur-2" operator="in"/>
      <feComposite in="SourceGraphic"/>
    </filter>
    <clipPath id="clippath-3">
      <rect x="48.94" y="53.43" width="191.8" height="186.52" transform="translate(13.36 -12.09) rotate(5.01)" fill="none"/>
    </clipPath>
    <clipPath id="clippath-4">
      <rect x="42.91" y="48.45" width="194.97" height="189.6" transform="translate(13.04 -11.71) rotate(5.01)" fill="none"/>
    </clipPath>
    <clipPath id="clippath-5">
      <rect x="164.53" y="63.8" width="31.91" height="95.74" transform="translate(53.48 281.72) rotate(-84.99)" fill="none"/>
    </clipPath>
  </defs>
  <g>
    <path d="M311.11,189.98c3.38,10.02,14.25,15.4,24.28,12.01l11.53,34.15c3.34,9.88-1.97,20.59-11.85,23.92l-224.56,75.83c-9.88,3.34-20.58-1.97-23.92-11.85l-11.53-34.15c10.01-3.38,15.4-14.24,12.02-24.27s-14.26-15.41-24.27-12.02l-9.49-28.11c-3.34-9.88,1.96-20.58,11.84-23.91l224.56-75.83c9.88-3.34,20.59,1.96,23.92,11.84l9.49,28.11c-10.02,3.38-15.41,14.26-12.02,24.28Z" fill="#fcfcfc" filter="url(#drop-shadow-1)"/>
    <g>
      <line x1="220.08" y1="171.84" x2="221.94" y2="177.33" fill="none" stroke="#46a6a1" stroke-miterlimit="10" stroke-width="5.8"/>
      <line x1="225.43" y1="187.68" x2="251.64" y2="265.29" fill="none" stroke="#46a6a1" stroke-dasharray="10.92 10.92" stroke-miterlimit="10" stroke-width="5.8"/>
      <line x1="253.38" y1="270.47" x2="255.24" y2="275.97" fill="none" stroke="#46a6a1" stroke-miterlimit="10" stroke-width="5.8"/>
    </g>
    <g clip-path="url(#clippath)">
      <path d="M344.69,375.53c3.38,10.02,14.25,15.4,24.28,12.01l11.53,34.15c3.34,9.88-1.97,20.59-11.85,23.92l-224.56,75.83c-9.88,3.34-20.58-1.97-23.92-11.85l-11.53-34.15c10.01-3.38,15.4-14.24,12.02-24.27-3.38-10.02-14.26-15.41-24.27-12.02l-9.49-28.11c-3.34-9.88,1.96-20.58,11.84-23.91l224.56-75.83c9.88-3.34,20.59,1.96,23.92,11.84l9.49,28.11c-10.02,3.38-15.41,14.26-12.02,24.28Z" fill="#d8d7d6"/>
    </g>
    <g clip-path="url(#clippath-1)">
      <path d="M307.19,190.72c3.34,9.89,14.06,15.19,23.96,11.85l11.38,33.7c3.29,9.75-1.94,20.32-11.69,23.61l-221.59,74.83c-9.75,3.29-20.31-1.95-23.6-11.69l-11.38-33.7c9.88-3.34,15.2-14.06,11.86-23.95-3.34-9.89-14.07-15.2-23.95-11.87l-9.37-27.74c-3.29-9.75,1.94-20.3,11.68-23.6l221.59-74.83c9.75-3.29,20.31,1.93,23.6,11.68l9.37,27.74c-9.89,3.34-15.2,14.07-11.86,23.96Z" fill="#f7f7f7"/>
    </g>
    <path d="M151.39,274.77c-2.74.93-5.43,1.1-8.07.52-2.64-.58-4.99-1.74-7.05-3.49-2.06-1.75-3.54-3.96-4.45-6.65s-1.08-5.36-.51-8.03c.57-2.66,1.73-5.01,3.49-7.05,1.75-2.03,4-3.52,6.74-4.44s5.42-1.11,8.05-.56c2.63.56,4.96,1.72,7.01,3.5,2.04,1.78,3.52,4.01,4.43,6.7s1.08,5.35.53,7.98c-.56,2.63-1.71,4.97-3.45,7.03-1.75,2.06-3.99,3.55-6.73,4.48ZM152.13,305.07l26.48-70.95,9.41-3.18-26.48,70.95-9.41,3.18ZM149.1,267.97c1.54-.52,2.75-1.34,3.62-2.47.87-1.13,1.4-2.39,1.59-3.78.19-1.4.07-2.74-.36-4.04s-1.18-2.5-2.17-3.47c-.99-.97-2.18-1.64-3.55-2.01-1.37-.37-2.83-.29-4.38.23-1.49.5-2.69,1.32-3.58,2.46-.89,1.13-1.45,2.39-1.68,3.77-.23,1.38-.11,2.74.34,4.09s1.17,2.44,2.2,3.42c1.03.98,2.24,1.66,3.64,2.02,1.4.36,2.84.29,4.34-.22ZM198.23,290.5c-2.74.93-5.44,1.1-8.1.53-2.66-.57-5.01-1.73-7.05-3.49-2.04-1.75-3.51-3.98-4.42-6.67-.91-2.69-1.09-5.36-.54-8.01.55-2.65,1.71-5,3.49-7.05,1.78-2.04,4.04-3.53,6.78-4.45s5.42-1.11,8.05-.55c2.63.56,4.96,1.72,7.01,3.5,2.04,1.78,3.52,4.01,4.43,6.7s1.08,5.35.53,7.98c-.56,2.63-1.71,4.98-3.45,7.03-1.75,2.06-3.99,3.55-6.73,4.48ZM195.94,283.7c1.54-.52,2.74-1.34,3.58-2.46.84-1.12,1.37-2.38,1.59-3.78.22-1.41.11-2.75-.33-4.05s-1.19-2.5-2.21-3.46c-1.02-.96-2.2-1.63-3.55-2.01-1.35-.38-2.8-.3-4.34.22s-2.69,1.32-3.58,2.46c-.89,1.13-1.45,2.39-1.68,3.77-.23,1.38-.11,2.74.34,4.09s1.17,2.44,2.2,3.42c1.03.99,2.24,1.66,3.64,2.02,1.4.36,2.84.29,4.34-.22Z" fill="#46a6a1"/>
    <g clip-path="url(#clippath-2)">
      <path d="M122.96,223.61c-.88.3-1.72.37-2.51.21-.8-.17-1.5-.53-2.11-1.1-.61-.58-1.07-1.32-1.37-2.23-.37-1.1-.42-2.15-.16-3.16.28-1.01.85-1.91,1.71-2.7.88-.79,2-1.42,3.38-1.88.63-.21,1.16-.34,1.58-.39l-.13-.39c-.32-.94-.72-1.57-1.22-1.91-.5-.35-1.11-.41-1.81-.17-1.14.38-1.67,1.23-1.58,2.53.02.38-.14.59-.46.65l-2.67.41c-.2.03-.35-.01-.47-.11-.1-.1-.17-.27-.19-.49-.1-1.36.25-2.57,1.06-3.61.81-1.06,2.01-1.85,3.6-2.39,1.88-.63,3.48-.61,4.8.07,1.33.68,2.32,1.98,2.98,3.91l3.14,9.29c.05.14.04.27-.03.4-.06.12-.15.2-.29.24l-2.41.81c-.3.1-.54,0-.72-.29l-.96-1.61-.15.05c-.06.93-.35,1.72-.87,2.39-.51.66-1.21,1.15-2.11,1.45ZM120.86,218.68c.22.65.56,1.12,1.03,1.4.48.26,1,.3,1.59.1.77-.26,1.24-.8,1.42-1.61.18-.83.05-1.88-.39-3.16l-.33-.98c-.37.06-.71.14-1.01.24-1.01.34-1.73.88-2.14,1.61-.41.71-.46,1.51-.16,2.4ZM127.93,204.97c-.05-.14-.04-.26.02-.38.07-.13.17-.22.3-.27l2.45-.83c.14-.05.26-.04.38.02.13.05.23.15.3.29l.98,1.68.15-.05c.05-.96.31-1.77.77-2.42.48-.67,1.14-1.15,2-1.44.92-.31,1.78-.33,2.6-.08.83.25,1.57.76,2.23,1.53l.15-.05c.23-1.12.61-2.02,1.13-2.71.53-.69,1.21-1.17,2.05-1.45.92-.31,1.79-.33,2.62-.06.85.26,1.6.79,2.27,1.58.67.79,1.21,1.81,1.63,3.05l3.09,9.14c.05.14.04.27-.03.4-.06.12-.15.2-.29.24l-2.97,1c-.14.05-.27.04-.4-.01-.12-.07-.2-.17-.25-.31l-2.99-8.85c-.3-.9-.71-1.53-1.22-1.89-.51-.36-1.09-.43-1.75-.21-.72.24-1.17.71-1.36,1.41-.18.69-.09,1.57.27,2.64l2.81,8.33c.05.14.04.27-.03.4-.06.12-.15.2-.29.24l-2.97,1c-.14.05-.27.04-.4-.01-.12-.07-.2-.17-.25-.31l-2.99-8.85c-.3-.9-.71-1.53-1.22-1.89s-1.09-.43-1.75-.21c-.72.24-1.17.71-1.36,1.41-.18.69-.09,1.57.27,2.64l2.81,8.33c.05.14.04.27-.03.4-.06.12-.15.2-.29.24l-2.97,1c-.14.05-.27.04-.4-.01-.12-.07-.2-.17-.25-.31l-4.86-14.41ZM153.71,208.08c-.37-1.1-.42-2.15-.16-3.16.28-1.01.85-1.91,1.71-2.7.88-.79,2-1.42,3.38-1.88.63-.21,1.16-.34,1.58-.39l-.13-.39c-.32-.94-.72-1.57-1.22-1.91-.5-.35-1.11-.41-1.81-.17-1.14.38-1.67,1.23-1.58,2.53.02.38-.14.59-.46.65l-2.67.41c-.2.03-.35-.01-.47-.11-.1-.1-.17-.27-.19-.49-.1-1.36.25-2.57,1.06-3.61.81-1.06,2.01-1.85,3.6-2.39,1.88-.64,3.48-.61,4.8.07,1.33.68,2.32,1.98,2.98,3.91l3.14,9.29c.05.14.04.27-.03.4-.06.12-.15.2-.29.24l-2.41.81c-.3.1-.54,0-.72-.29l-.96-1.61-.15.05c-.06.93-.35,1.72-.87,2.39-.51.66-1.21,1.15-2.11,1.45s-1.72.37-2.51.21c-.8-.17-1.5-.53-2.11-1.1-.61-.58-1.07-1.32-1.37-2.23ZM157.6,206.27c.22.65.56,1.12,1.03,1.4.48.26,1,.3,1.59.1.77-.26,1.24-.8,1.42-1.61.18-.83.05-1.88-.39-3.16l-.33-.98c-.37.06-.71.14-1.01.24-1.01.34-1.73.88-2.14,1.61-.41.71-.46,1.51-.16,2.4ZM168.49,204.84c-.09-.27-.1-.53-.01-.78l3.36-10.99-5.94,2.01c-.14.05-.27.04-.4-.01-.12-.07-.2-.17-.25-.31l-.72-2.14c-.05-.14-.04-.26.02-.38.07-.13.17-.22.3-.27l9.76-3.3c.14-.05.26-.03.38.03.13.05.22.15.26.28l.75,2.23c.09.27.1.53.01.78l-3.1,9.81c.33-.18.67-.33,1.03-.45.89-.3,1.73-.5,2.53-.59.8-.11,1.67-.12,2.59-.05.33.03.54.19.64.48l.72,2.12c.07.2.05.35-.05.47-.1.1-.26.15-.47.14-1.04-.03-1.95,0-2.71.11-.76.09-1.55.28-2.39.56s-1.62.63-2.37,1.05c-.74.42-1.54.95-2.39,1.61-.16.12-.32.18-.46.16-.15-.03-.25-.14-.32-.33l-.77-2.27ZM178.8,195.82c-.51-1.5-.68-2.96-.51-4.38.17-1.43.64-2.66,1.42-3.69.79-1.05,1.81-1.78,3.06-2.21s2.52-.46,3.77-.1c1.26.34,2.39,1.03,3.39,2.07,1.01,1.02,1.76,2.28,2.27,3.78s.67,2.97.49,4.4c-.17,1.42-.65,2.65-1.44,3.7-.78,1.03-1.8,1.76-3.07,2.19s-2.5.46-3.76.12c-1.25-.36-2.37-1.05-3.37-2.07-1-1.03-1.75-2.3-2.26-3.81ZM182.88,194.44c.53,1.56,1.16,2.7,1.89,3.39.73.69,1.51.89,2.35.6s1.35-.92,1.52-1.91c.17-1,0-2.29-.54-3.85s-1.16-2.69-1.9-3.37c-.74-.7-1.54-.9-2.38-.62s-1.34.93-1.5,1.93c-.16.99.02,2.26.55,3.83ZM191.77,183.42c-.05-.14-.04-.26.02-.38.07-.13.17-.22.3-.27l2.45-.83c.14-.05.26-.04.38.02.13.05.23.15.3.29l.98,1.68.15-.05c.05-.95.32-1.76.81-2.43.5-.68,1.19-1.16,2.07-1.46.94-.32,1.83-.34,2.68-.08.86.26,1.63.78,2.31,1.57.68.79,1.23,1.8,1.65,3.04l3.09,9.14c.05.14.04.27-.03.4-.06.12-.15.2-.29.24l-2.97,1c-.14.05-.27.04-.4-.01-.12-.07-.2-.17-.25-.31l-2.99-8.85c-.3-.9-.72-1.53-1.26-1.88-.53-.35-1.14-.42-1.82-.19-.75.25-1.23.73-1.44,1.43-.2.7-.13,1.59.24,2.66l2.81,8.33c.05.14.04.27-.03.4-.06.12-.15.2-.29.24l-2.97,1c-.14.05-.27.04-.4-.01-.12-.07-.2-.17-.25-.31l-4.86-14.41Z" fill="#171d25"/>
      <path d="M129.44,223.41c-.17.26-.12.59.16.97.25.34.7.72,1.35,1.13,2.61,1.64,5.44,2.79,8.5,3.43,3.06.64,6.16.83,9.31.56,3.16-.26,6.27-.9,9.31-1.93,3.9-1.32,7.42-3.14,10.56-5.46,3.15-2.31,5.56-4.88,7.24-7.71.58-1.01.8-1.73.66-2.16-.05-.16-.18-.3-.37-.41-.25-.12-.49-.11-.73.04-.24.15-.55.43-.94.83-1.86,1.95-4.31,3.82-7.32,5.62-3,1.81-6.26,3.31-9.79,4.5-4.37,1.47-8.79,2.31-13.25,2.5-4.47.19-8.7-.44-12.69-1.89-.58-.2-1.03-.31-1.34-.31-.31,0-.52.09-.65.28Z" fill="#ec6c2d"/>
      <path d="M170.99,210.41c-.18.33-.16.62.06.84.15.17.36.22.61.16.26-.05.6-.19,1.03-.43.69-.41,1.42-.78,2.21-1.12.79-.32,1.49-.54,2.11-.67.62-.11,1.04-.09,1.26.07.33.26.49.99.47,2.19,0,1.2-.17,2.41-.47,3.64-.11.49-.15.86-.12,1.11.03.25.16.43.39.53.15.07.29.09.43.04.36-.12.77-.61,1.24-1.47.87-1.47,1.3-3.02,1.31-4.64.02-.84-.08-1.69-.3-2.53-.22-.85-.51-1.41-.88-1.68-.35-.27-.97-.37-1.85-.32-.87.05-1.7.2-2.51.48-1.57.53-2.94,1.4-4.1,2.62-.42.46-.72.85-.9,1.19Z" fill="#ec6c2d"/>
    </g>
  </g>
  <g>
    <path d="M323.2,153.59c-.92,10.54,6.87,19.82,17.41,20.75l-3.15,35.9c-.91,10.39-10.07,18.07-20.45,17.16l-236.11-20.7c-10.39-.91-18.06-10.07-17.15-20.45l3.15-35.9c10.53.92,19.82-6.86,20.75-17.4.92-10.54-6.87-19.83-17.4-20.76l2.59-29.56c.91-10.39,10.06-18.06,20.44-17.15l236.11,20.7c10.39.91,18.07,10.06,17.16,20.44l-2.59,29.56c-10.54-.92-19.83,6.87-20.76,17.41Z" fill="#fcfcfc" filter="url(#drop-shadow-2)"/>
    <g>
      <line x1="247.11" y1="100.43" x2="246.61" y2="106.21" fill="none" stroke="#46a6a1" stroke-miterlimit="10" stroke-width="5.8"/>
      <line x1="245.65" y1="117.09" x2="238.5" y2="198.7" fill="none" stroke="#46a6a1" stroke-dasharray="10.92 10.92" stroke-miterlimit="10" stroke-width="5.8"/>
      <line x1="238.02" y1="204.14" x2="237.52" y2="209.92" fill="none" stroke="#46a6a1" stroke-miterlimit="10" stroke-width="5.8"/>
    </g>
    <g clip-path="url(#clippath-3)">
      <path d="M279.47,337.02c-.92,10.54,6.87,19.82,17.41,20.75l-3.15,35.9c-.91,10.39-10.07,18.07-20.45,17.16l-236.11-20.7c-10.39-.91-18.06-10.07-17.15-20.45l3.15-35.9c10.53.92,19.82-6.86,20.75-17.4.92-10.54-6.87-19.83-17.4-20.76l2.59-29.56c.91-10.39,10.06-18.06,20.44-17.15l236.11,20.7c10.39.91,18.07,10.06,17.16,20.44l-2.59,29.56c-10.54-.92-19.83,6.87-20.76,17.41Z" fill="#d8d7d6"/>
    </g>
    <g clip-path="url(#clippath-4)">
      <path d="M319.32,152.7c-.91,10.4,6.78,19.56,17.18,20.47l-3.11,35.43c-.9,10.25-9.93,17.83-20.18,16.93l-232.99-20.42c-10.25-.9-17.82-9.93-16.92-20.18l3.11-35.43c10.39.91,19.56-6.77,20.47-17.17.91-10.4-6.78-19.57-17.17-20.48l2.56-29.17c.9-10.25,9.92-17.82,20.17-16.92l232.99,20.42c10.25.9,17.83,9.93,16.93,20.17l-2.56,29.17c-10.4-.91-19.57,6.78-20.48,17.18Z" fill="#f7f7f7"/>
    </g>
    <path d="M142.88,167.14c-2.88-.25-5.41-1.17-7.59-2.76-2.18-1.59-3.87-3.6-5.05-6.02-1.19-2.43-1.65-5.05-1.41-7.88s1.17-5.35,2.76-7.56c1.59-2.21,3.6-3.89,6.02-5.05,2.42-1.16,5.08-1.61,7.96-1.36s5.41,1.16,7.6,2.72c2.18,1.56,3.86,3.57,5.01,6.02,1.16,2.45,1.61,5.09,1.36,7.92-.25,2.83-1.15,5.34-2.72,7.52-1.56,2.19-3.56,3.87-5.98,5.06-2.43,1.19-5.08,1.65-7.96,1.4ZM131.4,195.18l52.73-54.35,9.9.87-52.73,54.35-9.9-.87ZM143.51,159.99c1.62.14,3.06-.13,4.31-.81,1.25-.68,2.24-1.62,2.98-2.83.74-1.2,1.17-2.48,1.29-3.85s-.07-2.76-.59-4.05c-.52-1.28-1.34-2.37-2.45-3.26-1.11-.89-2.48-1.4-4.1-1.55s-2.99.13-4.27.81c-1.27.68-2.29,1.61-3.05,2.78-.76,1.17-1.21,2.47-1.33,3.88s.09,2.7.64,4.01c.54,1.31,1.38,2.42,2.52,3.31,1.14.89,2.49,1.41,4.06,1.54ZM179.47,200.35c-2.88-.25-5.43-1.18-7.63-2.77-2.21-1.59-3.89-3.6-5.05-6.02-1.16-2.42-1.62-5.05-1.37-7.88.25-2.83,1.15-5.35,2.72-7.56,1.57-2.21,3.57-3.89,6.02-5.05,2.45-1.16,5.11-1.61,8-1.36s5.41,1.16,7.6,2.72c2.18,1.56,3.86,3.57,5.01,6.02,1.16,2.45,1.61,5.09,1.36,7.92s-1.15,5.33-2.72,7.52c-1.56,2.19-3.56,3.87-5.98,5.06-2.43,1.18-5.08,1.65-7.96,1.4ZM180.1,193.2c1.62.14,3.05-.13,4.27-.81,1.22-.69,2.21-1.63,2.98-2.83.76-1.2,1.21-2.48,1.33-3.84s-.09-2.76-.63-4.05c-.55-1.29-1.36-2.38-2.44-3.26-1.08-.89-2.44-1.4-4.06-1.54s-2.99.13-4.27.81c-1.27.68-2.29,1.61-3.05,2.78-.76,1.17-1.21,2.47-1.33,3.88s.09,2.7.64,4.01c.54,1.31,1.38,2.42,2.52,3.31,1.14.89,2.49,1.41,4.06,1.54Z" fill="#46a6a1"/>
    <g clip-path="url(#clippath-5)">
      <path d="M137.38,108.86c-.92-.08-1.72-.35-2.39-.82-.67-.48-1.16-1.09-1.49-1.85-.33-.77-.45-1.64-.36-2.6.1-1.15.48-2.14,1.12-2.95.66-.82,1.55-1.41,2.65-1.78,1.12-.37,2.4-.49,3.85-.37.66.06,1.2.15,1.61.28l.04-.41c.09-.98-.03-1.73-.35-2.24-.32-.52-.85-.82-1.59-.88-1.2-.1-2.02.46-2.47,1.68-.14.35-.36.49-.68.41l-2.61-.7c-.19-.06-.32-.15-.39-.29-.05-.14-.04-.31.03-.53.45-1.29,1.26-2.25,2.42-2.88,1.17-.64,2.59-.89,4.25-.74,1.98.17,3.43.84,4.37,1.99.95,1.15,1.33,2.75,1.15,4.78l-.86,9.77c-.01.14-.08.26-.19.36-.1.08-.22.12-.36.11l-2.54-.22c-.31-.03-.49-.21-.54-.56l-.23-1.86h-.16c-.43.81-1.01,1.42-1.75,1.83-.73.41-1.57.57-2.52.48ZM137.44,103.5c-.06.69.07,1.25.38,1.7.33.43.8.68,1.41.73.81.07,1.46-.23,1.95-.91.49-.69.8-1.7.92-3.05l.09-1.03c-.36-.1-.7-.16-1.03-.19-1.07-.09-1.94.11-2.61.61-.66.49-1.03,1.2-1.11,2.13ZM149.42,93.79c.01-.14.07-.25.17-.34.11-.09.24-.14.38-.12l2.58.23c.14.01.26.07.34.17.1.1.15.23.16.39l.22,1.94h.16c.43-.85.99-1.48,1.68-1.89.71-.42,1.51-.59,2.4-.51.96.08,1.77.41,2.41.97.66.57,1.14,1.33,1.43,2.3h.16c.66-.92,1.37-1.6,2.12-2.01.76-.42,1.58-.59,2.46-.51.96.08,1.77.42,2.43,1,.67.58,1.15,1.37,1.45,2.36.29.99.38,2.14.27,3.45l-.84,9.61c-.01.14-.08.26-.19.36-.1.08-.22.12-.36.11l-3.12-.27c-.14-.01-.26-.07-.36-.17-.08-.11-.12-.24-.1-.38l.82-9.3c.08-.95-.04-1.69-.36-2.22-.32-.54-.82-.84-1.51-.9-.75-.07-1.36.18-1.81.74-.44.56-.71,1.41-.81,2.53l-.77,8.76c-.01.14-.08.26-.19.36-.1.08-.22.12-.36.11l-3.12-.27c-.14-.01-.26-.07-.36-.17-.08-.11-.12-.24-.1-.38l.82-9.3c.08-.95-.04-1.69-.36-2.22s-.82-.84-1.51-.9c-.75-.07-1.36.18-1.81.74-.44.56-.71,1.41-.81,2.53l-.77,8.76c-.01.14-.08.26-.19.36-.1.08-.22.12-.36.11l-3.12-.27c-.14-.01-.26-.07-.36-.17-.08-.11-.12-.24-.1-.38l1.33-15.15ZM171.78,106.98c.1-1.15.48-2.14,1.12-2.95.66-.82,1.55-1.41,2.65-1.78,1.12-.37,2.4-.49,3.85-.37.66.06,1.2.15,1.61.28l.04-.41c.09-.98-.03-1.73-.35-2.24-.32-.52-.85-.82-1.59-.88-1.2-.1-2.02.46-2.47,1.68-.14.35-.36.49-.68.41l-2.61-.7c-.19-.06-.32-.15-.39-.29-.05-.14-.04-.31.03-.53.45-1.29,1.26-2.25,2.42-2.88,1.17-.64,2.59-.89,4.25-.74,1.98.17,3.43.84,4.37,1.99.95,1.15,1.33,2.75,1.15,4.78l-.86,9.77c-.01.14-.08.26-.19.36-.1.08-.22.12-.36.11l-2.54-.22c-.31-.03-.49-.21-.54-.56l-.23-1.86h-.16c-.43.81-1.01,1.42-1.75,1.83-.73.41-1.57.57-2.52.48s-1.72-.35-2.39-.82c-.67-.48-1.16-1.09-1.49-1.85-.33-.77-.45-1.64-.36-2.6ZM176.07,106.89c-.06.69.07,1.25.38,1.7.33.43.8.68,1.41.73.81.07,1.46-.23,1.95-.91.49-.69.8-1.7.92-3.05l.09-1.03c-.36-.1-.7-.16-1.03-.19-1.07-.09-1.94.11-2.61.61-.66.49-1.03,1.2-1.11,2.13ZM186.62,109.95c.02-.28.12-.52.3-.72l7.49-8.72-6.24-.55c-.14-.01-.26-.07-.36-.17-.08-.11-.12-.24-.1-.38l.2-2.25c.01-.14.07-.25.17-.34.11-.09.24-.14.38-.12l10.26.9c.14.01.26.07.34.19.1.1.14.22.13.36l-.21,2.35c-.02.28-.12.52-.3.72l-6.77,7.74c.37-.03.74-.03,1.12,0,.94.08,1.79.24,2.55.48.78.22,1.58.56,2.39.99.29.16.42.39.39.7l-.2,2.23c-.02.21-.1.34-.23.41-.14.05-.3.03-.49-.06-.94-.45-1.79-.78-2.53-.98-.73-.22-1.53-.37-2.42-.45s-1.74-.07-2.6,0c-.85.08-1.79.25-2.84.51-.2.05-.36.03-.49-.04-.12-.09-.18-.23-.16-.42l.21-2.39ZM199.68,105.83c.14-1.58.57-2.98,1.29-4.21.72-1.24,1.65-2.18,2.78-2.81,1.14-.64,2.37-.91,3.69-.79s2.49.59,3.49,1.42c1.02.82,1.77,1.9,2.27,3.25.51,1.34.7,2.79.56,4.37s-.58,2.99-1.31,4.23c-.72,1.23-1.66,2.16-2.8,2.81-1.13.63-2.36.89-3.69.77s-2.48-.58-3.49-1.4c-1-.83-1.75-1.91-2.25-3.25-.5-1.35-.68-2.81-.54-4.39ZM203.97,106.2c-.14,1.64-.02,2.93.37,3.87.39.92,1.03,1.42,1.91,1.5s1.61-.3,2.16-1.14c.56-.85.91-2.1,1.06-3.74s.01-2.93-.39-3.85c-.4-.94-1.05-1.44-1.93-1.52s-1.6.31-2.15,1.16c-.55.84-.89,2.08-1.03,3.73ZM216.54,99.67c.01-.14.07-.25.17-.34.11-.09.24-.14.38-.12l2.58.23c.14.01.26.07.34.17.1.1.15.23.16.39l.22,1.94h.16c.43-.84,1-1.47,1.72-1.89.73-.42,1.56-.59,2.48-.51.99.09,1.82.42,2.49,1,.68.58,1.18,1.37,1.48,2.36.31.99.4,2.14.29,3.45l-.84,9.61c-.01.14-.08.26-.19.36-.1.08-.22.12-.36.11l-3.12-.27c-.14-.01-.26-.07-.36-.17-.08-.11-.12-.24-.1-.38l.82-9.3c.08-.95-.05-1.69-.39-2.23-.35-.54-.88-.84-1.59-.9-.79-.07-1.42.18-1.89.73-.47.56-.75,1.4-.85,2.53l-.77,8.76c-.01.14-.08.26-.19.36-.1.08-.22.12-.36.11l-3.12-.27c-.14-.01-.26-.07-.36-.17-.08-.11-.12-.24-.1-.38l1.33-15.15Z" fill="#171d25"/>
      <path d="M143.4,111.28c-.26.17-.34.49-.24.96.09.41.36.94.79,1.58,1.73,2.55,3.86,4.74,6.41,6.55,2.54,1.81,5.31,3.23,8.3,4.25,3,1.03,6.1,1.69,9.3,1.97,4.1.36,8.05.11,11.86-.76,3.81-.85,7.05-2.24,9.72-4.16.94-.69,1.43-1.26,1.47-1.71.01-.17-.04-.34-.17-.52-.18-.21-.41-.3-.69-.26-.28.04-.68.17-1.19.38-2.49,1.03-5.48,1.77-8.96,2.21-3.47.45-7.06.52-10.77.19-4.59-.4-8.97-1.41-13.14-3.03-4.17-1.62-7.79-3.89-10.86-6.82-.45-.42-.82-.69-1.11-.82-.28-.13-.51-.13-.71,0Z" fill="#ec6c2d"/>
      <path d="M186.67,116.06c-.3.24-.39.5-.29.8.07.22.24.35.5.4.26.06.63.07,1.12.02.8-.1,1.62-.15,2.47-.14.85.02,1.58.1,2.2.23.62.15.99.33,1.13.57.2.37.05,1.1-.45,2.19-.49,1.09-1.12,2.14-1.89,3.14-.3.4-.48.73-.56.97-.07.24-.03.45.14.64.11.13.23.2.37.21.38.03.95-.25,1.73-.85,1.39-1,2.41-2.24,3.06-3.72.36-.76.6-1.58.74-2.44.14-.86.1-1.49-.13-1.89-.22-.38-.74-.73-1.56-1.04-.81-.31-1.64-.5-2.49-.57-1.65-.14-3.25.11-4.8.75-.57.25-1.01.49-1.3.73Z" fill="#ec6c2d"/>
    </g>
  </g>
</svg>