<?xml version="1.0" encoding="utf-8"?>
<!-- Generator: Adobe Illustrator 28.2.0, SVG Export Plug-In . SVG Version: 6.00 Build 0)  -->
<svg version="1.1" xmlns="http://www.w3.org/2000/svg" xmlns:xlink="http://www.w3.org/1999/xlink" x="0px" y="0px"
	 viewBox="0 0 32 32" style="enable-background:new 0 0 32 32;" xml:space="preserve">
<style type="text/css">
	.st0{fill:#FFFFFF;}
	.st1{display:none;}
	.st2{display:inline;}
	.st3{fill:#585A5E;}
	.st4{fill:none;stroke:#585A5E;stroke-linecap:round;stroke-linejoin:round;stroke-miterlimit:10;}
	.st5{fill:#FFFFFF;stroke:#585A5E;stroke-width:2;stroke-linecap:round;stroke-linejoin:round;stroke-miterlimit:10;}
	.st6{fill:#FFFFFF;stroke:#585A5E;stroke-linecap:round;stroke-linejoin:round;stroke-miterlimit:10;}
	.st7{fill:none;stroke:#585A5E;stroke-width:1.5;stroke-miterlimit:10;}
	.st8{fill:#FFFFFF;stroke:#585A5E;stroke-width:1.5;stroke-miterlimit:10;}
	.st9{display:inline;fill:#585A5E;}
	.st10{display:inline;fill:#595A5E;}
	.st11{fill:none;stroke:#585A5E;stroke-width:1.5;stroke-linecap:round;stroke-linejoin:round;stroke-miterlimit:10;}
	.st12{fill:none;stroke:#585A5E;stroke-miterlimit:10;}
	.st13{fill:none;stroke:#585A5E;stroke-linecap:round;stroke-miterlimit:10;}
	.st14{fill-rule:evenodd;clip-rule:evenodd;fill:#FFFFFF;stroke:#585A5E;stroke-width:1.5;stroke-miterlimit:10;}
</style>
<g id="Layer_2">
	<rect x="-53.27" y="-176" class="st0" width="303.74" height="456.92"/>
</g>
<g id="Layer_1" class="st1">
	<g class="st2">
		<path class="st7" d="M28.9,14.27H7.89c-1.01,0-1.84-0.82-1.84-1.84v-23.15c0-1.01,0.82-1.84,1.84-1.84H28.9
			c1.01,0,1.84,0.82,1.84,1.84v23.15C30.73,13.45,29.91,14.27,28.9,14.27z"/>
		<path class="st8" d="M27.14-8.82v-1.96c0-0.98-0.79-1.77-1.77-1.77H5.96c-0.98,0-1.77,0.79-1.77,1.77V12.5
			c0,0.98,0.79,1.77,1.77,1.77h19.41c0.98,0,1.77-0.79,1.77-1.77v-1.95"/>
		<path class="st4" d="M27.14,17.21H2.54c-0.86,0-1.56-0.62-1.56-1.39V-8.23"/>
		<g>
			<line class="st6" x1="9.51" y1="3.47" x2="22.4" y2="3.47"/>
			<line class="st6" x1="9.51" y1="7.45" x2="15.81" y2="7.45"/>
		</g>
		<line class="st7" x1="27.14" y1="-1.52" x2="27.14" y2="2.47"/>
		<line class="st7" x1="27.14" y1="4.85" x2="27.14" y2="8.74"/>
	</g>
</g>
<g id="Layer_3">
	<g>
		<g>
			<path class="st12" d="M27.04,9.9c0-5.14-4.72-9.28-10.48-9.13C11.12,0.92,6.67,5.07,6.7,9.96c0.02,2.47,1.13,4.7,2.92,6.33
				c1.76,1.61,2.79,3.75,2.79,6.01v0c0,2.14,1.75,3.71,3.9,3.71h1.12c2.15,0,3.9-1.57,3.9-3.5l0-0.21c0-2.19,0.88-4.34,2.62-5.86
				C25.85,14.78,27.04,12.47,27.04,9.9z"/>
			<path class="st12" d="M13.05,26.08v2.02c0,1.59,1.29,2.88,2.88,2.88h1.74c1.8,0,3.25-1.46,3.25-3.25l0,0"/>
			<path class="st13" d="M16.11,26.01c0,0,0.61-11.13-1.52-14.3c-1.6-2.39,0.45-3.71,1.99-3.77c1.46-0.05,2.75,1.51,1.79,2.88
				c-0.84,1.2-0.82,1.44-0.82,1.44"/>
			<line class="st12" x1="20.93" y1="27.74" x2="20.93" y2="23.92"/>
		</g>
		<g>
			<path class="st8" d="M18.14,21.13v-5.26c0-1.5,1.22-2.72,2.72-2.72h7.29c1.5,0,2.72,1.22,2.72,2.72v5.26
				c0,0.57-0.47,1.04-1.04,1.04l-10.66,0C18.61,22.17,18.14,21.71,18.14,21.13z"/>
			<circle class="st8" cx="24.51" cy="8.48" r="2.91"/>
		</g>
		<g>
			<path class="st8" d="M1.12,30.19v-5.26c0-1.5,1.22-2.72,2.72-2.72h7.29c1.5,0,2.72,1.22,2.72,2.72v5.26
				c0,0.57-0.47,1.04-1.04,1.04l-10.66,0C1.59,31.23,1.12,30.77,1.12,30.19z"/>
			<circle class="st8" cx="7.49" cy="17.54" r="2.91"/>
		</g>
	</g>
</g>
</svg>
