<?xml version="1.0" encoding="UTF-8"?>
<svg id="a" data-name="Layer 1" xmlns="http://www.w3.org/2000/svg" viewBox="0 0 125 125">
  <path d="M9.08,75.81c0-3.27,.45-5.65,.45-8.65,0-1.75-1.21-3.45-6.5-3.5v-2.33c5.29-.04,6.5-1.75,6.5-3.49,0-2.82-.45-5.56-.45-8.65,0-4.62,2.69-5.96,8.29-5.96h2.78v2.11h-2.33c-4.57,0-5.56,1.16-5.56,4.08,0,2.55,.27,5.33,.27,8.11s-.99,4.35-4.08,4.88v.18c3.09,.54,4.08,1.97,4.08,4.88s-.27,5.38-.27,8.11c0,2.91,.99,4.08,5.56,4.08h2.33v2.11h-2.78c-5.6,0-8.29-1.34-8.29-5.96Z"/>
  <path d="M104.89,79.66h2.29c4.57,0,5.6-1.17,5.6-4.08,0-2.73-.27-5.06-.27-8.11s.94-4.35,4.03-4.88v-.18c-3.09-.54-4.03-1.97-4.03-4.88s.27-5.56,.27-8.11c0-2.91-1.03-4.08-5.6-4.08h-2.29v-2.11h2.73c5.65,0,8.25,1.34,8.25,5.96,0,3.09-.4,5.83-.4,8.65,0,1.75,1.21,3.45,6.5,3.5v2.33c-5.29,.04-6.5,1.75-6.5,3.5,0,3,.4,5.38,.4,8.65,0,4.62-2.6,5.96-8.25,5.96h-2.73v-2.11Z"/>
  <g>
    <path d="M20.15,51.21h7.61c4.94,0,8.54,1.78,8.54,6.87s-3.6,7.2-8.54,7.2h-4.45v10.28h-3.16v-24.36Zm7.17,11.55c3.79,0,5.87-1.56,5.87-4.68s-2.08-4.34-5.87-4.34h-4.01v9.02h4.01Zm2.27,.04l7.43,12.77h-3.53l-6.35-11.14,2.45-1.63Z"/>
    <path d="M42.98,51.21h15.07v2.64h-11.95v7.61h10.1v2.64h-10.1v8.84h12.33v2.64h-15.44v-24.36Z"/>
    <path d="M63.51,72.41l1.86-2.15c1.86,1.82,4.38,3.01,7.13,3.01,3.34,0,5.27-1.6,5.27-3.82,0-2.6-1.89-3.34-4.34-4.38l-3.53-1.56c-2.41-.96-5.23-2.67-5.23-6.27s3.34-6.46,7.98-6.46c3.04,0,5.72,1.23,7.5,3.01l-1.63,2c-1.6-1.41-3.45-2.26-5.98-2.26-2.82,0-4.71,1.34-4.71,3.53,0,2.34,2.26,3.19,4.34,4.01l3.42,1.52c3.01,1.19,5.38,2.9,5.38,6.5,0,3.86-3.27,6.94-8.61,6.94-3.56,0-6.65-1.41-8.84-3.6Z"/>
    <path d="M92.88,53.84h-8.06v-2.64h19.23v2.64h-8.06v21.72h-3.12v-21.72Z"/>
  </g>
</svg>