<?xml version="1.0" encoding="utf-8"?>
<!-- Generator: Adobe Illustrator 28.2.0, SVG Export Plug-In . SVG Version: 6.00 Build 0)  -->
<svg version="1.1" xmlns="http://www.w3.org/2000/svg" xmlns:xlink="http://www.w3.org/1999/xlink" x="0px" y="0px"
	 viewBox="0 0 32 32" style="enable-background:new 0 0 32 32;" xml:space="preserve">
<style type="text/css">
	.st0{fill:#FFFFFF;}
	.st1{display:none;}
	.st2{display:inline;}
	.st3{fill:#585A5E;}
	.st4{fill:none;stroke:#585A5E;stroke-linecap:round;stroke-linejoin:round;stroke-miterlimit:10;}
	.st5{fill:#FFFFFF;stroke:#585A5E;stroke-width:2;stroke-linecap:round;stroke-linejoin:round;stroke-miterlimit:10;}
	.st6{fill:#FFFFFF;stroke:#585A5E;stroke-linecap:round;stroke-linejoin:round;stroke-miterlimit:10;}
	.st7{fill:none;stroke:#585A5E;stroke-width:1.5;stroke-miterlimit:10;}
	.st8{fill:#FFFFFF;stroke:#585A5E;stroke-width:1.5;stroke-miterlimit:10;}
	.st9{display:inline;fill:#585A5E;}
	.st10{display:inline;fill:#595A5E;}
	.st11{fill:none;stroke:#585A5E;stroke-width:1.5;stroke-linecap:round;stroke-linejoin:round;stroke-miterlimit:10;}
	.st12{fill:none;stroke:#585A5E;stroke-miterlimit:10;}
	.st13{fill:none;stroke:#585A5E;stroke-linecap:round;stroke-miterlimit:10;}
	.st14{fill-rule:evenodd;clip-rule:evenodd;fill:#FFFFFF;stroke:#585A5E;stroke-width:1.5;stroke-miterlimit:10;}
</style>
<g id="Layer_2">
	<rect x="-53.27" y="-90" class="st0" width="303.74" height="456.92"/>
</g>
<g id="Layer_1" class="st1">
	<g class="st2">
		<path class="st7" d="M28.9,41.17H6.03c-1.01,0-1.84-0.82-1.84-1.84V16.19c0-1.01,0.82-1.84,1.84-1.84H28.9
			c1.01,0,1.84,0.82,1.84,1.84v23.15C30.73,40.35,29.91,41.17,28.9,41.17z"/>
		<path class="st4" d="M27.14,44.11H2.54c-0.86,0-1.56-0.62-1.56-1.39V18.67"/>
		<g>
			<line class="st6" x1="9.51" y1="26.76" x2="25.19" y2="26.76"/>
			<line class="st6" x1="9.51" y1="31.06" x2="25.19" y2="31.06"/>
			<line class="st5" x1="9.51" y1="21.39" x2="25.19" y2="21.39"/>
		</g>
	</g>
</g>
<g id="Layer_3">
	<g>
		<g>
			<path class="st12" d="M16.64,27.43v-6.41c0-1.68,1.36-3.05,3.05-3.05h8.17c1.68,0,3.05,1.36,3.05,3.05v7.22
				c0,0.44-0.36,0.79-0.79,0.79h-3.8"/>
			<circle class="st12" cx="23.77" cy="12.74" r="3.26"/>
		</g>
		<line class="st7" x1="9.39" y1="24.08" x2="16.64" y2="24.08"/>
		<path class="st7" d="M28.84,17.97V5.1c0-0.54-0.48-0.97-1.07-0.97H2.16c-0.59,0-1.07,0.44-1.07,0.97v18.01
			c0,0.54,0.48,0.97,1.07,0.97h2.25"/>
		<polyline class="st12" points="24.91,4.12 14.97,0.85 5.73,4.12 		"/>
		<g>
			<path class="st12" d="M1.09,30.91v-1c0-1.37,1.11-2.48,2.48-2.48h6.65c1.37,0,2.48,1.11,2.48,2.48v1"/>
			<circle class="st12" cx="6.9" cy="23.17" r="2.66"/>
		</g>
		<g>
			<path class="st12" d="M14.71,30.91v-1c0-1.37,1.11-2.48,2.48-2.48h6.65c1.37,0,2.48,1.11,2.48,2.48v1.24"/>
			<circle class="st12" cx="20.51" cy="23.17" r="2.66"/>
		</g>
	</g>
</g>
</svg>
