<?xml version="1.0" encoding="UTF-8"?><svg id="Layer_1" xmlns="http://www.w3.org/2000/svg" viewBox="0 0 144.23 144.23"><defs><style>.cls-1{fill:#52c3c2;}</style></defs><path class="cls-1" d="m66.85,131.56c-17.29,0-33.54-6.73-45.76-18.95-12.22-12.22-18.95-28.47-18.95-45.76s6.73-33.54,18.95-45.76C33.31,8.87,49.56,2.14,66.85,2.14s33.54,6.73,45.76,18.95h0c12.22,12.22,18.95,28.47,18.95,45.76s-6.73,33.54-18.95,45.76c-12.22,12.22-28.47,18.95-45.76,18.95Zm0-124.42c-15.95,0-30.95,6.21-42.22,17.49-11.28,11.28-17.49,26.27-17.49,42.22s6.21,30.94,17.49,42.22c11.28,11.28,26.27,17.49,42.22,17.49s30.94-6.21,42.22-17.49,17.49-26.27,17.49-42.22-6.21-30.95-17.49-42.22h0c-11.28-11.28-26.27-17.49-42.22-17.49Z"/><rect class="cls-1" x="115.86" y="105.81" width="13.78" height="33.87" transform="translate(-50.84 122.75) rotate(-45)"/><path class="cls-1" d="m129.85,142.1c-.64,0-1.28-.24-1.77-.73l-23.95-23.95c-.47-.47-.73-1.1-.73-1.77s.26-1.3.73-1.77l9.75-9.75c.98-.98,2.56-.98,3.54,0l23.95,23.95c.47.47.73,1.1.73,1.77s-.26,1.3-.73,1.77l-9.75,9.75c-.49.49-1.13.73-1.77.73h0Zm-20.42-26.45l20.42,20.42,6.21-6.21-20.42-20.42-6.21,6.21Z"/><rect class="cls-1" x="66.85" y="47.4" width="6.02" height="13.44"/><rect class="cls-1" x="60.83" y="47.4" width="6.01" height="13.44"/><rect class="cls-1" x="60.83" y="72.86" width="6.01" height="13.44"/><rect class="cls-1" x="66.85" y="72.86" width="6.02" height="13.44"/><polygon class="cls-1" points="72.86 66.85 72.86 72.86 86.3 72.86 86.3 60.83 72.86 60.83 72.86 66.85"/><rect class="cls-1" x="47.4" y="60.83" width="13.44" height="6.01"/><rect class="cls-1" x="47.4" y="66.85" width="13.44" height="6.02"/><rect class="cls-1" x="66.85" y="60.83" width="6.02" height="6.01"/><rect class="cls-1" x="60.83" y="60.83" width="6.01" height="6.01"/><rect class="cls-1" x="66.85" y="66.85" width="6.02" height="6.02"/><rect class="cls-1" x="60.83" y="66.85" width="6.01" height="6.02"/></svg>