<svg width="240" height="116" viewBox="0 0 240 116" fill="none" xmlns="http://www.w3.org/2000/svg">
<path d="M126.036 73.0309V42.9993H153.074V48.5766L150.07 51.58H135.478V55.441H147.924V64.0216H135.478V73.0309H126.036Z" fill="#C2C2FF"/>
<path d="M90.4179 73.0309V42.9993H99.8599V53.725H112.735V42.9993H122.177V73.0309H112.735V62.3053H99.8599V73.0309H90.4179Z" fill="#C2C2FF"/>
<path d="M132.397 107.026H124.175V115.245H132.397V107.026Z" fill="#5A5AB5"/>
<path d="M140.614 107.026H132.392V115.245H140.614V107.026Z" fill="#5A5AB5"/>
<path d="M140.614 98.8101H132.392V107.029H140.614V98.8101Z" fill="#A0A0FF"/>
<path d="M148.845 90.5935H140.623V98.8124H148.845V90.5935Z" fill="#5A5AB5"/>
<path d="M148.845 82.3811H140.623V90.6H148.845V82.3811Z" fill="#5A5AB5"/>
<path d="M132.397 8.43881H124.175V0.219948H132.397V8.43881Z" fill="#5A5AB5"/>
<path d="M140.614 8.43881H132.392V0.219948H140.614V8.43881Z" fill="#5A5AB5"/>
<path d="M140.614 16.6549H132.392V8.43607H140.614V16.6549Z" fill="#A0A0FF"/>
<path d="M148.845 24.8678H140.623V16.6489H148.845V24.8678Z" fill="#5A5AB5"/>
<path d="M107.723 107.026H115.945V115.245H107.723V107.026Z" fill="#5A5AB5"/>
<path d="M99.5053 107.026H107.727V115.245H99.5053V107.026Z" fill="#5A5AB5"/>
<path d="M99.5053 98.8101H107.727V107.029H99.5053V98.8101Z" fill="#A0A0FF"/>
<path d="M91.275 90.5935H99.4968V98.8124H91.275V90.5935Z" fill="#5A5AB5"/>
<path d="M91.275 82.3811H99.4968V90.6H91.275V82.3811Z" fill="#5A5AB5"/>
<path d="M107.723 8.43881L115.945 8.43881V0.219948L107.723 0.219948V8.43881Z" fill="#5A5AB5"/>
<path d="M99.5053 8.43881L107.727 8.43881V0.219948L99.5053 0.219948V8.43881Z" fill="#5A5AB5"/>
<path d="M99.5053 16.6549H107.727V8.43607L99.5053 8.43607V16.6549Z" fill="#A0A0FF"/>
<path d="M91.275 24.8678H99.4968V16.6489H91.275V24.8678Z" fill="#5A5AB5"/>
<path d="M148.806 0.193359H140.584V8.41222H148.806V0.193359Z" fill="#A0A0FF"/>
<path d="M157.023 8.40625H148.801V16.6251H157.023V8.40625Z" fill="#5A5AB5"/>
<path d="M165.254 8.40625H157.032V16.6251H165.254V8.40625Z" fill="#A0A0FF"/>
<path d="M173.471 16.6224H165.249V24.8413H173.471V16.6224Z" fill="#A0A0FF"/>
<path d="M181.702 24.8385H173.48V33.0574H181.702V24.8385Z" fill="#5A5AB5"/>
<path d="M181.702 33.0807H173.48V41.2995H181.702V33.0807Z" fill="#A0A0FF"/>
<path d="M189.918 41.2937H181.697V49.5125H189.918V41.2937Z" fill="#A0A0FF"/>
<path d="M189.918 49.5067H181.697V57.7256H189.918V49.5067Z" fill="#5A5AB5"/>
<path d="M148.806 115.288H140.584V107.069H148.806V115.288Z" fill="#A0A0FF"/>
<path d="M157.023 107.075H148.801V98.856H157.023V107.075Z" fill="#5A5AB5"/>
<path d="M165.254 107.075H157.032V98.856H165.254V107.075Z" fill="#A0A0FF"/>
<path d="M173.471 98.8588H165.249V90.6399H173.471V98.8588Z" fill="#A0A0FF"/>
<path d="M181.702 90.6428H173.48V82.424H181.702V90.6428Z" fill="#5A5AB5"/>
<path d="M181.702 82.4004H173.48V74.1815H181.702V82.4004Z" fill="#A0A0FF"/>
<path d="M189.918 74.1873H181.697V65.9684H189.918V74.1873Z" fill="#A0A0FF"/>
<path d="M189.918 65.9746H181.697V57.7557H189.918V65.9746Z" fill="#5A5AB5"/>
<path d="M91.2929 0.193359H99.5147V8.41222H91.2929V0.193359Z" fill="#A0A0FF"/>
<path d="M83.0755 8.40625H91.2972V16.6251H83.0755V8.40625Z" fill="#5A5AB5"/>
<path d="M74.8448 8.40625H83.0666V16.6251H74.8448V8.40625Z" fill="#A0A0FF"/>
<path d="M66.6275 16.6224H74.8492V24.8413H66.6275V16.6224Z" fill="#A0A0FF"/>
<path d="M58.3969 24.8385H66.6187V33.0574H58.3969V24.8385Z" fill="#5A5AB5"/>
<path d="M58.3969 33.0807H66.6187V41.2995H58.3969V33.0807Z" fill="#A0A0FF"/>
<path d="M50.1798 41.2937H58.4016V49.5125H50.1798V41.2937Z" fill="#A0A0FF"/>
<path d="M50.1798 49.5067H58.4016V57.7256H50.1798V49.5067Z" fill="#5A5AB5"/>
<path d="M91.2929 115.288H99.5147V107.069H91.2929V115.288Z" fill="#A0A0FF"/>
<path d="M83.0755 107.075H91.2972V98.856H83.0755V107.075Z" fill="#5A5AB5"/>
<path d="M74.8448 107.075H83.0666V98.856H74.8448V107.075Z" fill="#A0A0FF"/>
<path d="M66.6275 98.8588H74.8492V90.6399H66.6275V98.8588Z" fill="#A0A0FF"/>
<path d="M58.3969 90.6428H66.6187V82.424H58.3969V90.6428Z" fill="#5A5AB5"/>
<path d="M58.3969 82.4004H66.6187V74.1815H58.3969V82.4004Z" fill="#A0A0FF"/>
<path d="M50.1798 74.1873H58.4016V65.9684H50.1798V74.1873Z" fill="#A0A0FF"/>
<path d="M50.1798 65.9746H58.4016V57.7557H50.1798V65.9746Z" fill="#5A5AB5"/>
<path d="M165.28 0.19986H157.058V8.41872H165.28V0.19986Z" fill="#5A5AB5"/>
<path d="M173.51 8.41278H165.288V16.6316H173.51V8.41278Z" fill="#5A5AB5"/>
<path d="M173.51 0.19986H165.288V8.41872H173.51V0.19986Z" fill="#A0A0FF"/>
<path d="M181.727 8.41278H173.506V16.6316H181.727V8.41278Z" fill="#A0A0FF"/>
<path d="M189.958 16.6289H181.737V24.8478H189.958V16.6289Z" fill="#A0A0FF"/>
<path d="M189.958 8.41278H181.737V16.6316H189.958V8.41278Z" fill="#5A5AB5"/>
<path d="M198.175 16.6289H189.953V24.8478H198.175V16.6289Z" fill="#5A5AB5"/>
<path d="M206.395 24.8451H198.173V33.0639H206.395V24.8451Z" fill="#5A5AB5"/>
<path d="M214.612 33.0873H206.39V41.3062H214.612V33.0873Z" fill="#A0A0FF"/>
<path d="M214.612 41.3H206.39V49.5189H214.612V41.3Z" fill="#5A5AB5"/>
<path d="M157.062 0.19986H148.84V8.41872H157.062V0.19986Z" fill="#5A5AB5"/>
<path d="M165.28 115.294H157.058V107.076H165.28V115.294Z" fill="#5A5AB5"/>
<path d="M157.062 115.294H148.84V107.076H157.062V115.294Z" fill="#5A5AB5"/>
<path d="M173.51 107.081H165.288V98.8624H173.51V107.081Z" fill="#5A5AB5"/>
<path d="M173.51 115.294H165.288V107.076H173.51V115.294Z" fill="#A0A0FF"/>
<path d="M181.727 107.081H173.506V98.8624H181.727V107.081Z" fill="#A0A0FF"/>
<path d="M189.958 98.8653H181.737V90.6464H189.958V98.8653Z" fill="#A0A0FF"/>
<path d="M189.958 107.081H181.737V98.8624H189.958V107.081Z" fill="#5A5AB5"/>
<path d="M198.175 98.8653H189.953V90.6464H198.175V98.8653Z" fill="#5A5AB5"/>
<path d="M206.395 90.649H198.173V82.4302H206.395V90.649Z" fill="#5A5AB5"/>
<path d="M214.612 82.4069H206.39V74.188H214.612V82.4069Z" fill="#A0A0FF"/>
<path d="M214.612 74.194H206.39V65.9751H214.612V74.194Z" fill="#5A5AB5"/>
<path d="M214.612 70.086H206.39V61.8671H214.612V70.086Z" fill="#5A5AB5"/>
<path d="M74.8401 0.19986H83.0619V8.41872H74.8401V0.19986Z" fill="#5A5AB5"/>
<path d="M66.6095 8.41278H74.8313V16.6316H66.6095V8.41278Z" fill="#5A5AB5"/>
<path d="M66.6095 0.19986H74.8313V8.41872H66.6095V0.19986Z" fill="#A0A0FF"/>
<path d="M58.3923 8.41278H66.6141V16.6316H58.3923V8.41278Z" fill="#A0A0FF"/>
<path d="M50.1616 16.6289H58.3834V24.8478H50.1616V16.6289Z" fill="#A0A0FF"/>
<path d="M50.1616 8.41278H58.3834V16.6316H50.1616V8.41278Z" fill="#5A5AB5"/>
<path d="M41.944 16.6289H50.1658V24.8478H41.944V16.6289Z" fill="#5A5AB5"/>
<path d="M33.7251 24.8451H41.9469V33.0639H33.7251V24.8451Z" fill="#5A5AB5"/>
<path d="M25.5075 33.0873H33.7293V41.3062H25.5075V33.0873Z" fill="#A0A0FF"/>
<path d="M25.5075 41.3H33.7293V49.5189H25.5075V41.3Z" fill="#5A5AB5"/>
<path d="M25.5075 49.5129H33.7293V57.7318H25.5075V49.5129Z" fill="#5A5AB5"/>
<path d="M83.0573 0.19986H91.2791V8.41872H83.0573V0.19986Z" fill="#5A5AB5"/>
<path d="M74.8401 115.294H83.0619V107.076H74.8401V115.294Z" fill="#5A5AB5"/>
<path d="M83.0573 115.294H91.2791V107.076H83.0573V115.294Z" fill="#5A5AB5"/>
<path d="M66.6095 107.081H74.8313V98.8624H66.6095V107.081Z" fill="#5A5AB5"/>
<path d="M66.6095 115.294H74.8313V107.076H66.6095V115.294Z" fill="#A0A0FF"/>
<path d="M58.3923 107.081H66.6141V98.8624H58.3923V107.081Z" fill="#A0A0FF"/>
<path d="M50.1616 98.8653H58.3834V90.6464H50.1616V98.8653Z" fill="#A0A0FF"/>
<path d="M50.1616 107.081H58.3834V98.8624H50.1616V107.081Z" fill="#5A5AB5"/>
<path d="M41.944 98.8653H50.1658V90.6464H41.944V98.8653Z" fill="#5A5AB5"/>
<path d="M33.7251 90.649H41.9469V82.4302H33.7251V90.649Z" fill="#5A5AB5"/>
<path d="M25.5075 82.4069H33.7293V74.188H25.5075V82.4069Z" fill="#A0A0FF"/>
<path d="M25.5075 74.194H33.7293V65.9751H25.5075V74.194Z" fill="#5A5AB5"/>
<path d="M25.5075 65.981H33.7293V57.7621H25.5075V65.981Z" fill="#5A5AB5"/>
<path d="M198.184 8.48114H189.962V16.7H198.184V8.48114Z" fill="#A0A0FF"/>
<path d="M206.401 8.48114H198.179V16.7H206.401V8.48114Z" fill="#5A5AB5"/>
<path d="M206.401 16.694H198.179V24.9129H206.401V16.694Z" fill="#A0A0FF"/>
<path d="M214.632 16.694H206.41V24.9129H214.632V16.694Z" fill="#5A5AB5"/>
<path d="M222.849 16.694H214.627V24.9129H222.849V16.694Z" fill="#A0A0FF"/>
<path d="M222.849 24.9135H214.627V33.1323H222.849V24.9135Z" fill="#5A5AB5"/>
<path d="M231.08 24.9135H222.858V33.1323H231.08V24.9135Z" fill="#A0A0FF"/>
<path d="M231.08 33.1263H222.858V41.3451H231.08V33.1263Z" fill="#A0A0FF"/>
<path d="M239.297 41.3683H231.076V49.5872H239.297V41.3683Z" fill="#A0A0FF"/>
<path d="M239.297 49.5814H231.076V57.8002H239.297V49.5814Z" fill="#A0A0FF"/>
<path d="M198.184 107.085H189.962V98.8659H198.184V107.085Z" fill="#A0A0FF"/>
<path d="M206.401 107.085H198.179V98.8659H206.401V107.085Z" fill="#5A5AB5"/>
<path d="M206.401 98.8716H198.179V90.6528H206.401V98.8716Z" fill="#A0A0FF"/>
<path d="M214.632 98.8716H206.41V90.6528H214.632V98.8716Z" fill="#5A5AB5"/>
<path d="M222.849 98.8716H214.627V90.6528H222.849V98.8716Z" fill="#A0A0FF"/>
<path d="M222.849 90.6557H214.627V82.4368H222.849V90.6557Z" fill="#5A5AB5"/>
<path d="M231.08 90.6557H222.858V82.4368H231.08V90.6557Z" fill="#A0A0FF"/>
<path d="M231.08 82.4394H222.858V74.2206H231.08V82.4394Z" fill="#A0A0FF"/>
<path d="M239.297 74.1973H231.076V65.9784H239.297V74.1973Z" fill="#A0A0FF"/>
<path d="M239.297 65.9844H231.076V57.7655H239.297V65.9844Z" fill="#A0A0FF"/>
<path d="M41.9343 8.48114H50.1561V16.7H41.9343V8.48114Z" fill="#A0A0FF"/>
<path d="M33.7154 8.48114H41.9372V16.7H33.7154V8.48114Z" fill="#5A5AB5"/>
<path d="M33.7154 16.694H41.9372V24.9129H33.7154V16.694Z" fill="#A0A0FF"/>
<path d="M25.4866 16.694H33.7083V24.9129H25.4866V16.694Z" fill="#5A5AB5"/>
<path d="M17.2674 16.694H25.4892V24.9129H17.2674V16.694Z" fill="#A0A0FF"/>
<path d="M17.2674 24.9135H25.4892V33.1323H17.2674V24.9135Z" fill="#5A5AB5"/>
<path d="M9.03859 24.9135H17.2604V33.1323H9.03859V24.9135Z" fill="#A0A0FF"/>
<path d="M9.03859 33.1263H17.2604V41.3451H9.03859V33.1263Z" fill="#A0A0FF"/>
<path d="M0.819537 41.3683H9.04132V49.5872H0.819537V41.3683Z" fill="#A0A0FF"/>
<path d="M0.819537 49.5814H9.04132V57.8002H0.819537V49.5814Z" fill="#A0A0FF"/>
<path d="M41.9343 107.085H50.1561V98.8659H41.9343V107.085Z" fill="#A0A0FF"/>
<path d="M33.7168 107.085H41.9386V98.8659H33.7168V107.085Z" fill="#5A5AB5"/>
<path d="M33.7168 98.8716H41.9386V90.6528H33.7168V98.8716Z" fill="#A0A0FF"/>
<path d="M25.4866 98.8716H33.7083V90.6528H25.4866V98.8716Z" fill="#5A5AB5"/>
<path d="M17.2691 98.8716H25.4908V90.6528H17.2691V98.8716Z" fill="#A0A0FF"/>
<path d="M17.2691 90.6557H25.4908V82.4368H17.2691V90.6557Z" fill="#5A5AB5"/>
<path d="M9.03859 90.6557H17.2604V82.4368H9.03859L9.03859 90.6557Z" fill="#A0A0FF"/>
<path d="M9.03859 82.4394H17.2604V74.2206H9.03859L9.03859 82.4394Z" fill="#A0A0FF"/>
<path d="M0.821124 74.1973H9.04291L9.04291 65.9784H0.821124L0.821124 74.1973Z" fill="#A0A0FF"/>
<path d="M0.821124 65.9844H9.04291L9.04291 57.7655H0.821124L0.821124 65.9844Z" fill="#A0A0FF"/>
<path d="M124.196 98.8101H115.974V107.029H124.196V98.8101Z" fill="#5A5AB5"/>
<path d="M124.196 82.4037H115.974V90.6226H124.196V82.4037Z" fill="#5A5AB5"/>
<path d="M124.196 16.6354H115.974V24.8543H124.196V16.6354Z" fill="#A0A0FF"/>
<path d="M124.196 0.20639H115.974V8.42525H124.196V0.20639Z" fill="#A0A0FF"/>
<path d="M124.196 107.048H115.974V115.267H124.196V107.048Z" fill="#A0A0FF"/>
<path d="M124.196 90.6197H115.974V98.8386H124.196V90.6197Z" fill="#A0A0FF"/>
<path d="M124.196 24.8515H115.974V33.0704H124.196V24.8515Z" fill="#5A5AB5"/>
<path d="M124.196 8.41925H115.974V16.6381H124.196V8.41925Z" fill="#5A5AB5"/>
<path d="M74.8656 61.8465V53.6277H66.6438V61.8465H74.8656Z" fill="#5A5AB5"/>
<path d="M41.981 61.8465V53.6277H33.7592V61.8465H41.981Z" fill="#A0A0FF"/>
<path d="M25.5331 61.8465V53.6277H17.3114V61.8465H25.5331Z" fill="#A0A0FF"/>
<path d="M198.183 61.8465V53.6277H189.961V61.8465H198.183Z" fill="#5A5AB5"/>
<path d="M50.1985 61.8465V53.6277H41.9767V61.8465H50.1985Z" fill="#5A5AB5"/>
<path d="M214.63 53.6335V45.4146H206.409V53.6335H214.63Z" fill="#5A5AB5"/>
<path d="M181.746 61.8465V53.6277H173.524V61.8465H181.746Z" fill="#A0A0FF"/>
<path d="M222.848 61.8465V53.6277H214.626V61.8465H222.848Z" fill="#A0A0FF"/>
<path d="M231.078 61.8465V53.6277H222.856V61.8465H231.078Z" fill="#5A5AB5"/>
<path d="M66.6464 61.8465V53.6277H58.4246V61.8465H66.6464Z" fill="#A0A0FF"/>
<path d="M17.3141 61.8465V53.6277H9.092V61.8465H17.3141Z" fill="#5A5AB5"/>
<path d="M206.413 61.8465V53.6277H198.191V61.8465H206.413Z" fill="#A0A0FF"/>
<path d="M173.529 61.8465V53.6277H165.307V61.8465H173.529Z" fill="#5A5AB5"/>
<path d="M83.0661 90.6264H74.8443V98.8452H83.0661V90.6264Z" fill="#5A5AB5"/>
<path d="M165.281 90.6264H157.06V98.8452H165.281V90.6264Z" fill="#5A5AB5"/>
<path d="M99.514 82.4133H91.2922V90.6321H99.514V82.4133Z" fill="#A0A0FF"/>
<path d="M148.833 82.4133H140.612V90.6321H148.833V82.4133Z" fill="#A0A0FF"/>
<path d="M83.0661 24.8808H74.8443V16.662H83.0661V24.8808Z" fill="#5A5AB5"/>
<path d="M165.281 24.8808H157.06V16.662H165.281V24.8808Z" fill="#5A5AB5"/>
<path d="M99.514 33.0937H91.2922V24.8749H99.514V33.0937Z" fill="#A0A0FF"/>
<path d="M148.833 33.0937H140.612V24.8749H148.833V33.0937Z" fill="#A0A0FF"/>
</svg>
