<?xml version="1.0" encoding="utf-8"?>
<!-- Generator: Adobe Illustrator 26.0.1, SVG Export Plug-In . SVG Version: 6.00 Build 0)  -->
<svg version="1.1" id="Layer_1" xmlns="http://www.w3.org/2000/svg" xmlns:xlink="http://www.w3.org/1999/xlink" x="0px" y="0px"
	 viewBox="0 0 15.4 15.4" style="enable-background:new 0 0 15.4 15.4;" xml:space="preserve">
<style type="text/css">
	.st0{fill:#595B5F;}
</style>
<path class="st0" d="M13,13h-2.3V9.5c0-0.8,0-1.9-1.1-1.9S8.3,8.5,8.3,9.4V13H6.1V5.8h2.1v1l0,0c0.4-0.7,1.2-1.2,2.1-1.2
	c2.3,0,2.7,1.4,2.7,3.4V13z M3.6,4.9c-0.7,0-1.3-0.6-1.3-1.3c0-0.7,0.6-1.3,1.3-1.3s1.3,0.6,1.3,1.3C4.8,4.3,4.3,4.9,3.6,4.9
	L3.6,4.9 M4.7,13H2.5V5.8h2.2V13z M14.1,0.2H1.3c-0.6,0-1.1,0.5-1.1,1.1c0,0,0,0,0,0l0,0v12.8c0,0.6,0.5,1.1,1.1,1.1c0,0,0,0,0,0
	h12.7c0.6,0,1.1-0.5,1.1-1.1c0,0,0,0,0,0V1.3C15.2,0.7,14.7,0.2,14.1,0.2C14.1,0.2,14.1,0.2,14.1,0.2L14.1,0.2"/>
</svg>
