<?xml version="1.0" encoding="UTF-8"?>
<svg xmlns="http://www.w3.org/2000/svg" version="1.1" viewBox="0 0 32 32">
  <defs>
    <style>
      .cls-1 {
        stroke-linecap: round;
      }

      .cls-1, .cls-2, .cls-3, .cls-4 {
        fill: none;
        stroke: #53c3c2;
        stroke-miterlimit: 10;
      }

      .cls-1, .cls-4 {
        stroke-width: .75px;
      }

      .cls-5 {
        fill: #52c2c1;
      }

      .cls-3 {
        stroke-width: .5px;
      }
    </style>
  </defs>
  <!-- Generator: Adobe Illustrator 28.6.0, SVG Export Plug-In . SVG Version: 1.2.0 Build 709)  -->
  <g>
    <g id="Layer_3">
      <circle class="cls-2" cx="16" cy="19.9" r="11.19"/>
      <path class="cls-3" d="M16,29.09c-5.07,0-9.19-4.12-9.19-9.19s4.12-9.19,9.19-9.19,9.19,4.12,9.19,9.19-4.12,9.19-9.19,9.19Z"/>
      <path class="cls-1" d="M26.92.91v4.53c0,.95-.62,1.73-1.38,1.73H6.46c-.76,0-1.38-.77-1.38-1.73V.91"/>
      <g>
        <g>
          <polygon class="cls-5" points="12.98 17.5 12.98 14.43 15.55 14.43 15.55 18.48 12.98 17.5"/>
          <polygon class="cls-5" points="12.98 18.46 14.74 19.14 12.98 19.81 12.98 18.46"/>
          <polygon class="cls-5" points="15.55 19.79 15.55 21.28 14.3 25.38 12.98 25.38 12.98 20.77 15.55 19.79"/>
        </g>
        <g>
          <polygon class="cls-5" points="19.02 17.5 19.02 14.43 16.45 14.43 16.45 18.48 19.02 17.5"/>
          <polygon class="cls-5" points="19.02 18.46 17.26 19.14 19.02 19.81 19.02 18.46"/>
          <polygon class="cls-5" points="16.45 19.79 16.45 21.28 17.7 25.38 19.02 25.38 19.02 20.77 16.45 19.79"/>
        </g>
      </g>
      <line class="cls-4" x1="12" y1="9.54" x2="12" y2="7.17"/>
      <line class="cls-4" x1="20" y1="7.17" x2="20" y2="9.54"/>
    </g>
  </g>
</svg>