<?xml version="1.0" encoding="utf-8"?>
<!-- Generator: Adobe Illustrator 26.0.1, SVG Export Plug-In . SVG Version: 6.00 Build 0)  -->
<svg version="1.1" id="Layer_1" xmlns="http://www.w3.org/2000/svg" xmlns:xlink="http://www.w3.org/1999/xlink" x="0px" y="0px"
	 viewBox="0 0 13.1 15.4" style="enable-background:new 0 0 13.1 15.4;" xml:space="preserve">
<style type="text/css">
	.st0{fill:#595B5F;}
</style>
<path class="st0" d="M2.5,0.2c0.2,0.5,0.4,1,0.5,1.6C3.3,2.4,3.4,3,3.6,3.6v2.2h0.8V3.6l1.1-3.4H4.6L4,2.4L3.4,0.2H2.5z M6.6,1.6
	C6.2,1.6,5.9,1.7,5.7,2C5.5,2.3,5.4,2.7,5.4,3v1.5c0,0.3,0,0.7,0.2,1C6,6,6.8,6.1,7.3,5.7c0.1-0.1,0.2-0.1,0.2-0.2
	c0.2-0.3,0.2-0.7,0.2-1V3c0-0.3,0-0.7-0.2-1C7.3,1.7,6.9,1.5,6.6,1.6L6.6,1.6z M8.4,1.6v3.3c0,0.3,0,0.5,0.1,0.6
	C8.5,5.8,8.7,5.8,9,5.8c0.4,0,0.7-0.2,0.9-0.5v0.4h0.8V1.6H9.9v3.2C9.7,5.1,9.6,5.2,9.4,5.2c-0.1,0-0.1-0.1-0.1-0.2V1.7L8.4,1.6
	L8.4,1.6z M6.6,2.3c0.2,0,0.4,0.2,0.4,0.6v1.8c0,0.4-0.2,0.6-0.4,0.6C6.3,5.2,6.2,4.9,6.2,4.6V2.8C6.2,2.5,6.3,2.3,6.6,2.3z
	 M1.9,6.8C1.2,6.8,0.7,7.3,0.6,8c-0.2,1-0.3,1.9-0.2,2.9V11c0,1,0,1.9,0.2,2.9c0.2,0.6,0.7,1.1,1.4,1.1c3.1,0.2,6.2,0.2,9.3,0.1
	c0.7-0.1,1.2-0.6,1.4-1.2c0.2-0.9,0.3-1.9,0.2-2.9v-0.1c0-1,0-2-0.2-2.9c-0.1-0.7-0.7-1.1-1.4-1.2C8.1,6.6,5,6.5,1.9,6.8z M1.2,8.1
	h2.6v0.8H3v4.8H2.1V8.9H1.2L1.2,8.1z M6.8,8.1h0.8v1.8C7.7,9.6,8,9.5,8.3,9.4c0.3,0,0.5,0.2,0.6,0.4C9,10.2,9,10.5,9,10.7v1.6
	c0,0.3,0,0.6-0.1,0.8c-0.1,0.3-0.3,0.5-0.6,0.4c-0.3,0-0.6-0.2-0.8-0.4v0.4H6.8V8.1z M10.8,9.5c0.4,0,0.7,0.2,0.9,0.4
	c0.2,0.3,0.3,0.7,0.2,1v0.8h-1.5v0.8c0,0.4,0.1,0.6,0.4,0.6c0.2,0,0.3-0.1,0.4-0.3v-0.5h0.8v0.5c0,0.2-0.1,0.3-0.1,0.4
	c-0.4,0.5-1.1,0.6-1.6,0.2c-0.1-0.1-0.2-0.1-0.2-0.2c-0.2-0.3-0.2-0.7-0.2-1v-1.4c0-0.3,0-0.7,0.2-1C10.1,9.5,10.4,9.4,10.8,9.5
	L10.8,9.5z M4,9.5h0.8v3.4c0,0.1,0.1,0.1,0.2,0.1s0.3-0.1,0.4-0.4V9.5h0.8v4.1H5.4v-0.4c-0.2,0.3-0.5,0.5-0.8,0.5
	c-0.2,0-0.4-0.1-0.5-0.3C4,13.2,4,13,4,12.8L4,9.5L4,9.5z M7.9,10.1c-0.1,0-0.3,0.1-0.4,0.1v2.6C7.6,12.9,7.8,13,7.9,13
	c0.2,0,0.3-0.1,0.3-0.5v-1.7C8.3,10.3,8.1,10.1,7.9,10.1z M10.8,10.1c-0.2,0-0.4,0.2-0.4,0.6v0.4h0.8v-0.4
	C11.1,10.4,11,10.1,10.8,10.1L10.8,10.1z"/>
</svg>
