<?xml version="1.0" encoding="utf-8"?>
<!-- Generator: Adobe Illustrator 16.0.0, SVG Export Plug-In . SVG Version: 6.00 Build 0)  -->
<!DOCTYPE svg PUBLIC "-//W3C//DTD SVG 1.1//EN" "http://www.w3.org/Graphics/SVG/1.1/DTD/svg11.dtd">
<svg version="1.1" xmlns="http://www.w3.org/2000/svg" xmlns:xlink="http://www.w3.org/1999/xlink" x="0px" y="0px"
	 width="798.382px" height="409.964px" viewBox="0 0 798.382 409.964" enable-background="new 0 0 798.382 409.964"
	 xml:space="preserve">
<g id="_x32__1_" display="none">
	<g display="inline">
		
			<rect x="50.075" y="20.785" fill="none" stroke="#A6A8AB" stroke-width="0.15" stroke-miterlimit="10" width="599.818" height="317.687"/>
		<rect x="102.073" y="84.785" fill="#E6E6E6" width="495.822" height="198"/>
		<g>
			<text transform="matrix(1 0 0 1 99.3486 80.144)" fill="#585A5E" font-family="'Calibre-Medium'" font-size="14">DOOR STATE</text>
		</g>
		<g>
			<g>
				<text transform="matrix(1 0 0 1 501.9214 130.4844)" fill="#585A5E" font-family="'Calibre-Light'" font-size="14">Shapes</text>
			</g>
			<g>
				<g>
					<polyline fill="none" stroke="#585A5E" stroke-miterlimit="10" stroke-dasharray="2,2" points="491.53,131.785 
						410.043,131.785 410.043,139.525 					"/>
					<g>
						<polygon fill="#585A5E" points="407.5,138.781 410.043,143.185 412.586,138.781 						"/>
					</g>
				</g>
			</g>
			<g>
				<g>
					<polyline fill="none" stroke="#585A5E" stroke-miterlimit="10" stroke-dasharray="2,2" points="491.53,123.785 
						240.167,123.785 240.167,139.525 					"/>
					<g>
						<polygon fill="#585A5E" points="237.624,138.781 240.167,143.185 242.709,138.781 						"/>
					</g>
				</g>
			</g>
			<g>
				<g>
					<polyline fill="none" stroke="#585A5E" stroke-miterlimit="10" stroke-dasharray="2,2" points="527.53,141.365 527.53,246.726 
						240.167,246.726 240.167,231.552 					"/>
					<g>
						<polygon fill="#585A5E" points="242.709,232.296 240.167,227.892 237.624,232.296 						"/>
					</g>
				</g>
			</g>
			<g>
				<g>
					<polyline fill="none" stroke="#585A5E" stroke-miterlimit="10" stroke-dasharray="2,2" points="519.53,142.365 519.53,239.726 
						410.043,239.726 410.043,231.366 					"/>
					<g>
						<polygon fill="#585A5E" points="412.586,232.11 410.043,227.706 407.5,232.11 						"/>
					</g>
				</g>
			</g>
			<g>
				<g>
					<rect x="159.336" y="145.365" fill="#FFFFFF" width="160.867" height="33.527"/>
					<text transform="matrix(1 0 0 1 172.4629 166.1841)"><tspan x="0" y="0" fill="#696B6E" font-family="'Calibre-Light'" font-size="13">{ open:</tspan><tspan x="36.009" y="0" fill="#585A5E" font-family="'Calibre-Light'" font-size="13"> </tspan><tspan x="39.207" y="0" fill="#222429" font-family="'Calibre-Light'" font-size="13">true</tspan><tspan x="60.423" y="0" fill="#585A5E" font-family="'Calibre-Light'" font-size="13">, locked: </tspan><tspan x="105.532" y="0" fill="#222429" font-family="'Calibre-Light'" font-size="13">true</tspan><tspan x="126.747" y="0" fill="#2F3136" font-family="'Calibre-Light'" font-size="13"> </tspan><tspan x="129.945" y="0" fill="#696B6E" font-family="'Calibre-Light'" font-size="13">}</tspan></text>
				</g>
				<g>
					<rect x="329.77" y="145.365" fill="#FFFFFF" width="160.869" height="33.527"/>
					<text transform="matrix(1 0 0 1 341.3765 166.1841)"><tspan x="0" y="0" fill="#696B6E" font-family="'Calibre-Light'" font-size="13">{ open:</tspan><tspan x="36.009" y="0" fill="#585A5E" font-family="'Calibre-Light'" font-size="13"> </tspan><tspan x="39.207" y="0" fill="#222429" font-family="'Calibre-Light'" font-size="13">true</tspan><tspan x="60.423" y="0" fill="#585A5E" font-family="'Calibre-Light'" font-size="13">, locked: </tspan><tspan x="105.532" y="0" fill="#222429" font-family="'Calibre-Light'" font-size="13">false</tspan><tspan x="129.788" y="0" fill="#2F3136" font-family="'Calibre-Light'" font-size="13"> </tspan><tspan x="132.987" y="0" fill="#696B6E" font-family="'Calibre-Light'" font-size="13">}</tspan></text>
				</g>
				<g>
					<rect x="159.336" y="186.628" fill="#FFFFFF" width="160.867" height="33.527"/>
					<text transform="matrix(1 0 0 1 170.9419 207.4482)"><tspan x="0" y="0" fill="#696B6E" font-family="'Calibre-Light'" font-size="13">{ open:</tspan><tspan x="36.009" y="0" fill="#585A5E" font-family="'Calibre-Light'" font-size="13"> </tspan><tspan x="39.207" y="0" fill="#222429" font-family="'Calibre-Light'" font-size="13">false</tspan><tspan x="63.464" y="0" fill="#585A5E" font-family="'Calibre-Light'" font-size="13">, locked: </tspan><tspan x="108.573" y="0" fill="#222429" font-family="'Calibre-Light'" font-size="13">true</tspan><tspan x="129.789" y="0" fill="#2F3136" font-family="'Calibre-Light'" font-size="13"> </tspan><tspan x="132.987" y="0" fill="#696B6E" font-family="'Calibre-Light'" font-size="13">}</tspan></text>
				</g>
				<g>
					<rect x="329.77" y="186.628" fill="#FFFFFF" width="160.869" height="33.527"/>
					<text transform="matrix(1 0 0 1 339.8555 207.4482)"><tspan x="0" y="0" fill="#696B6E" font-family="'Calibre-Light'" font-size="13">{ open:</tspan><tspan x="36.009" y="0" fill="#585A5E" font-family="'Calibre-Light'" font-size="13"> </tspan><tspan x="39.208" y="0" fill="#222429" font-family="'Calibre-Light'" font-size="13">false</tspan><tspan x="63.464" y="0" fill="#585A5E" font-family="'Calibre-Light'" font-size="13">, locked: </tspan><tspan x="108.573" y="0" fill="#222429" font-family="'Calibre-Light'" font-size="13">false</tspan><tspan x="132.831" y="0" fill="#2F3136" font-family="'Calibre-Light'" font-size="13"> </tspan><tspan x="136.028" y="0" fill="#696B6E" font-family="'Calibre-Light'" font-size="13">}</tspan></text>
				</g>
			</g>
		</g>
	</g>
	<rect x="349.984" y="354.819" display="inline" fill="#585A5E" width="50" height="50"/>
</g>
<g id="_x32__copy">
	<path fill="#E6E6E6" d="M636.52,204.979c0,85.594-107.348,154.982-239.768,154.982c-132.421,0-239.769-69.389-239.769-154.982
		C156.984,119.388,264.332,50,396.752,50C529.172,50,636.52,119.388,636.52,204.979z"/>
	<g>
		<g>
			<path fill="#585A5E" d="M658.028,105.928h0.742c0.168,0.514,0.467,0.905,0.896,1.176c0.429,0.271,0.942,0.406,1.539,0.406
				c0.635,0,1.15-0.154,1.547-0.462s0.596-0.728,0.596-1.26c0-0.784-0.495-1.316-1.484-1.596l-1.638-0.462
				c-0.653-0.177-1.146-0.427-1.478-0.749c-0.331-0.322-0.496-0.772-0.496-1.351c0-0.709,0.261-1.274,0.783-1.694
				c0.523-0.42,1.167-0.63,1.933-0.63c0.812,0,1.475,0.194,1.987,0.581c0.514,0.388,0.859,0.913,1.037,1.575h-0.715
				c-0.354-1.008-1.125-1.512-2.31-1.512c-0.579,0-1.062,0.147-1.449,0.441c-0.388,0.294-0.581,0.693-0.581,1.197
				c0,0.429,0.129,0.751,0.385,0.966c0.257,0.215,0.674,0.401,1.254,0.56l1.441,0.42c0.7,0.196,1.213,0.474,1.54,0.833
				c0.327,0.359,0.489,0.824,0.489,1.393c0,0.737-0.266,1.321-0.797,1.75c-0.532,0.43-1.214,0.644-2.045,0.644
				c-0.803,0-1.49-0.196-2.064-0.588S658.196,106.628,658.028,105.928z"/>
			<path fill="#585A5E" d="M665.616,108.028v-9.1h0.7v3.878c0.206-0.317,0.483-0.583,0.833-0.798
				c0.35-0.214,0.735-0.322,1.155-0.322c0.69,0,1.223,0.203,1.596,0.609c0.374,0.406,0.56,0.945,0.56,1.617v4.116h-0.686v-4.018
				c0-0.504-0.133-0.91-0.398-1.218c-0.267-0.308-0.666-0.462-1.197-0.462c-0.411,0-0.784,0.126-1.12,0.378
				s-0.583,0.574-0.742,0.966v4.354H665.616z"/>
			<path fill="#585A5E" d="M676.606,108.028h-0.672v-0.588c-0.15,0.177-0.383,0.336-0.7,0.476c-0.317,0.14-0.658,0.21-1.022,0.21
				c-0.652,0-1.199-0.175-1.638-0.525c-0.438-0.35-0.657-0.814-0.657-1.393c0-0.56,0.223-1.018,0.672-1.372
				c0.447-0.354,0.998-0.532,1.651-0.532c0.336,0,0.663,0.068,0.979,0.203c0.318,0.135,0.556,0.287,0.715,0.455v-1.106
				c0-0.467-0.139-0.842-0.413-1.127c-0.275-0.285-0.656-0.427-1.142-0.427c-0.774,0-1.278,0.355-1.512,1.064h-0.686
				c0.121-0.522,0.38-0.933,0.777-1.232c0.396-0.298,0.869-0.448,1.42-0.448c0.691,0,1.234,0.194,1.631,0.581
				c0.396,0.388,0.596,0.908,0.596,1.561V108.028z M675.934,106.614v-0.798c-0.104-0.271-0.311-0.492-0.623-0.665
				s-0.656-0.259-1.029-0.259c-0.477,0-0.88,0.115-1.211,0.343c-0.332,0.229-0.497,0.553-0.497,0.973c0,0.42,0.165,0.747,0.497,0.98
				c0.331,0.233,0.734,0.35,1.211,0.35c0.373,0,0.717-0.086,1.029-0.259C675.624,107.106,675.831,106.885,675.934,106.614z"/>
			<path fill="#585A5E" d="M679.223,107.104v3.304h-0.699v-8.596h0.699v0.924c0.188-0.289,0.455-0.537,0.806-0.742
				c0.351-0.205,0.726-0.308,1.127-0.308c0.868,0,1.538,0.31,2.009,0.931c0.471,0.621,0.707,1.389,0.707,2.303
				s-0.236,1.682-0.707,2.303c-0.471,0.621-1.141,0.931-2.009,0.931c-0.401,0-0.776-0.103-1.127-0.308
				S679.411,107.393,679.223,107.104z M679.223,103.562v2.716c0.43,0.821,1.051,1.232,1.863,1.232c0.644,0,1.152-0.24,1.525-0.721
				c0.373-0.481,0.561-1.104,0.561-1.869s-0.188-1.388-0.561-1.869c-0.373-0.48-0.882-0.721-1.525-0.721
				C680.274,102.33,679.653,102.741,679.223,103.562z"/>
			<path fill="#585A5E" d="M689.458,106.222h0.672c-0.121,0.588-0.395,1.057-0.818,1.407c-0.426,0.35-0.955,0.525-1.59,0.525
				c-0.821,0-1.486-0.298-1.994-0.896c-0.51-0.597-0.764-1.376-0.764-2.338c0-0.943,0.25-1.717,0.749-2.324
				c0.499-0.606,1.164-0.91,1.995-0.91c0.803,0,1.424,0.278,1.861,0.833c0.439,0.555,0.658,1.29,0.658,2.205v0.252h-4.578
				c0.01,0.784,0.205,1.407,0.588,1.869s0.878,0.693,1.484,0.693c0.439,0,0.814-0.116,1.127-0.35S689.364,106.633,689.458,106.222z
				 M687.708,102.302c-0.561,0-1.02,0.191-1.379,0.574s-0.576,0.901-0.651,1.554h3.851c-0.02-0.597-0.182-1.101-0.49-1.512
				S688.286,102.302,687.708,102.302z"/>
			<path fill="#585A5E" d="M691.235,106.418h0.701c0.252,0.756,0.83,1.134,1.735,1.134c0.448,0,0.812-0.098,1.093-0.294
				c0.279-0.196,0.42-0.48,0.42-0.854c0-0.522-0.383-0.891-1.148-1.106l-1.162-0.322c-0.98-0.261-1.471-0.784-1.471-1.568
				c0-0.522,0.201-0.94,0.603-1.253c0.401-0.312,0.901-0.469,1.498-0.469c0.635,0,1.15,0.149,1.547,0.448
				c0.397,0.299,0.651,0.714,0.763,1.246h-0.686c-0.242-0.728-0.784-1.092-1.624-1.092c-0.411,0-0.751,0.096-1.022,0.287
				c-0.271,0.191-0.406,0.46-0.406,0.805c0,0.28,0.087,0.49,0.26,0.63c0.172,0.14,0.459,0.266,0.861,0.378l1.105,0.308
				c1.036,0.271,1.555,0.835,1.555,1.694c0,0.551-0.206,0.982-0.617,1.295c-0.41,0.312-0.938,0.469-1.582,0.469
				c-0.635,0-1.174-0.154-1.616-0.462C691.597,107.384,691.329,106.959,691.235,106.418z"/>
		</g>
	</g>
	<g>
		<g>
			<polyline fill="none" stroke="#585A5E" stroke-miterlimit="10" stroke-dasharray="2,2" points="652.78,108.029 501.569,108.029 
				501.569,180.501 			"/>
			<g>
				<polygon fill="#585A5E" points="499.026,179.757 501.569,184.161 504.112,179.757 				"/>
			</g>
		</g>
	</g>
	<g>
		<g>
			<polyline fill="none" stroke="#585A5E" stroke-miterlimit="10" stroke-dasharray="2,2" points="652.78,100.029 278.82,100.029 
				278.82,138.835 			"/>
			<g>
				<polygon fill="#585A5E" points="276.277,138.091 278.82,142.496 281.363,138.091 				"/>
			</g>
		</g>
	</g>
	<g>
		<g>
			<polyline fill="none" stroke="#585A5E" stroke-miterlimit="10" stroke-dasharray="2,2" points="684.36,117.607 684.36,301.823 
				278.82,301.823 278.82,247.419 			"/>
			<g>
				<polygon fill="#585A5E" points="281.363,248.163 278.82,243.759 276.277,248.163 				"/>
			</g>
		</g>
	</g>
	<g>
		<g>
			<polyline fill="none" stroke="#585A5E" stroke-miterlimit="10" stroke-dasharray="2,2" points="675.487,118.607 675.487,293.36 
				501.569,293.36 501.569,280.946 			"/>
			<g>
				<polygon fill="#585A5E" points="504.112,281.69 501.569,277.286 499.026,281.69 				"/>
			</g>
		</g>
	</g>
	<g>
		<rect x="198.55" y="145.365" fill="#FFFFFF" width="160.868" height="33.525"/>
		<g>
			<path fill="#696B6E" d="M213.653,163.415v2.691c0,0.39,0.182,0.585,0.546,0.585h1.469v0.585h-1.456
				c-0.347,0-0.631-0.112-0.852-0.338c-0.221-0.226-0.332-0.516-0.332-0.871v-2.678c0-0.39-0.182-0.585-0.546-0.585h-0.546v-0.598
				h0.546c0.364,0,0.546-0.195,0.546-0.585v-2.678c0-0.355,0.11-0.646,0.332-0.871c0.221-0.226,0.505-0.338,0.852-0.338h1.456v0.585
				h-1.469c-0.364,0-0.546,0.195-0.546,0.585v2.691c0,0.398-0.173,0.702-0.52,0.91C213.479,162.73,213.653,163.034,213.653,163.415z
				"/>
			<path fill="#696B6E" d="M224.449,161.127c0.472,0.555,0.708,1.279,0.708,2.171c0,0.893-0.236,1.617-0.708,2.171
				c-0.473,0.555-1.09,0.832-1.853,0.832c-0.763,0-1.378-0.277-1.846-0.832s-0.702-1.278-0.702-2.171
				c0-0.892,0.234-1.616,0.702-2.171c0.468-0.554,1.083-0.832,1.846-0.832C223.359,160.295,223.977,160.573,224.449,161.127z
				 M223.987,165.06c0.347-0.446,0.52-1.034,0.52-1.762c0-0.728-0.173-1.315-0.52-1.761s-0.81-0.669-1.391-0.669
				c-0.572,0-1.032,0.223-1.378,0.669s-0.52,1.034-0.52,1.761c0,0.728,0.173,1.315,0.52,1.762s0.806,0.669,1.378,0.669
				C223.177,165.729,223.641,165.506,223.987,165.06z"/>
			<path fill="#696B6E" d="M227.563,165.326v3.068h-0.65v-7.982h0.65v0.858c0.173-0.269,0.422-0.498,0.747-0.689
				c0.325-0.19,0.674-0.286,1.047-0.286c0.806,0,1.428,0.289,1.865,0.865s0.657,1.289,0.657,2.138c0,0.85-0.219,1.562-0.657,2.139
				c-0.438,0.577-1.06,0.865-1.865,0.865c-0.373,0-0.722-0.096-1.047-0.286C227.985,165.825,227.736,165.595,227.563,165.326z
				 M227.563,162.037v2.522c0.398,0.763,0.975,1.144,1.729,1.144c0.598,0,1.07-0.223,1.417-0.669c0.346-0.446,0.52-1.025,0.52-1.736
				c0-0.71-0.173-1.289-0.52-1.735c-0.347-0.446-0.819-0.669-1.417-0.669C228.538,160.893,227.961,161.274,227.563,162.037z"/>
			<path fill="#696B6E" d="M237.391,164.507h0.624c-0.113,0.546-0.366,0.981-0.761,1.306c-0.395,0.325-0.886,0.488-1.476,0.488
				c-0.763,0-1.38-0.277-1.853-0.832c-0.472-0.555-0.708-1.278-0.708-2.171c0-0.875,0.232-1.594,0.696-2.158
				c0.463-0.563,1.081-0.845,1.853-0.845c0.745,0,1.321,0.258,1.729,0.773c0.407,0.516,0.611,1.198,0.611,2.048v0.234h-4.251
				c0.008,0.728,0.19,1.307,0.546,1.735c0.355,0.429,0.814,0.644,1.378,0.644c0.407,0,0.756-0.108,1.046-0.325
				C237.115,165.188,237.304,164.889,237.391,164.507z M235.766,160.867c-0.52,0-0.947,0.178-1.281,0.533
				c-0.333,0.355-0.535,0.836-0.604,1.443h3.575c-0.018-0.555-0.169-1.023-0.455-1.404S236.303,160.867,235.766,160.867z"/>
			<path fill="#696B6E" d="M239.847,166.184v-5.772h0.65v0.923c0.19-0.294,0.448-0.542,0.773-0.741
				c0.325-0.199,0.682-0.299,1.072-0.299c0.641,0,1.135,0.188,1.482,0.565c0.347,0.377,0.52,0.878,0.52,1.502v3.822h-0.637v-3.731
				c0-0.468-0.124-0.845-0.371-1.131c-0.247-0.286-0.618-0.429-1.112-0.429c-0.381,0-0.728,0.117-1.04,0.351
				s-0.542,0.533-0.689,0.897v4.043H239.847z"/>
			<path fill="#696B6E" d="M246.1,161.803c-0.095-0.095-0.143-0.212-0.143-0.351s0.047-0.258,0.143-0.357
				c0.096-0.1,0.208-0.149,0.338-0.149c0.138,0,0.255,0.05,0.351,0.149c0.095,0.1,0.143,0.219,0.143,0.357s-0.047,0.256-0.143,0.351
				c-0.096,0.095-0.213,0.143-0.351,0.143C246.308,161.946,246.196,161.898,246.1,161.803z M246.1,166.08
				c-0.095-0.095-0.143-0.212-0.143-0.351s0.047-0.258,0.143-0.357c0.096-0.1,0.208-0.149,0.338-0.149
				c0.138,0,0.255,0.05,0.351,0.149c0.095,0.1,0.143,0.219,0.143,0.357s-0.047,0.256-0.143,0.351
				c-0.096,0.096-0.213,0.143-0.351,0.143C246.308,166.223,246.196,166.176,246.1,166.08z"/>
			<path fill="#222429" d="M252.067,164.845v-3.874h-0.975v-0.559h0.975v-1.482h0.637v1.482h1.495v0.559h-1.495v3.809
				c0,0.624,0.277,0.936,0.832,0.936c0.277,0,0.542-0.074,0.793-0.221v0.611c-0.243,0.13-0.528,0.195-0.858,0.195
				c-0.434,0-0.776-0.124-1.027-0.371C252.193,165.684,252.067,165.322,252.067,164.845z"/>
			<path fill="#222429" d="M258.71,160.373v0.637c-0.165-0.069-0.343-0.104-0.533-0.104c-0.347,0-0.654,0.113-0.923,0.338
				c-0.269,0.226-0.473,0.529-0.611,0.91v4.03h-0.65v-5.772h0.65v0.923c0.138-0.303,0.346-0.552,0.624-0.748
				c0.277-0.195,0.589-0.292,0.936-0.292C258.367,160.295,258.536,160.321,258.71,160.373z"/>
			<path fill="#222429" d="M264.638,160.412v5.772h-0.637v-0.923c-0.19,0.294-0.446,0.542-0.767,0.741
				c-0.32,0.199-0.676,0.299-1.066,0.299c-0.641,0-1.135-0.188-1.482-0.566c-0.347-0.377-0.52-0.877-0.52-1.501v-3.822h0.637v3.731
				c0,0.468,0.124,0.845,0.371,1.131c0.247,0.286,0.617,0.429,1.111,0.429c0.381,0,0.726-0.117,1.034-0.351
				c0.307-0.234,0.535-0.533,0.682-0.897v-4.043H264.638z"/>
			<path fill="#222429" d="M270.566,164.507h0.624c-0.113,0.546-0.366,0.981-0.761,1.306c-0.395,0.325-0.886,0.488-1.476,0.488
				c-0.763,0-1.38-0.277-1.853-0.832c-0.472-0.555-0.708-1.278-0.708-2.171c0-0.875,0.232-1.594,0.696-2.158
				c0.463-0.563,1.081-0.845,1.853-0.845c0.745,0,1.321,0.258,1.729,0.773c0.407,0.516,0.611,1.198,0.611,2.048v0.234h-4.251
				c0.008,0.728,0.19,1.307,0.546,1.735c0.355,0.429,0.814,0.644,1.378,0.644c0.407,0,0.756-0.108,1.046-0.325
				C270.291,165.188,270.479,164.889,270.566,164.507z M268.941,160.867c-0.52,0-0.947,0.178-1.281,0.533
				c-0.333,0.355-0.535,0.836-0.604,1.443h3.575c-0.018-0.555-0.169-1.023-0.455-1.404S269.479,160.867,268.941,160.867z"/>
			<path fill="#585A5E" d="M272.217,167.497l0.702-1.3c-0.26-0.052-0.39-0.208-0.39-0.468c0-0.139,0.045-0.255,0.136-0.351
				c0.091-0.095,0.206-0.143,0.345-0.143c0.147,0,0.266,0.048,0.357,0.143c0.091,0.096,0.136,0.221,0.136,0.377
				c0,0.156-0.065,0.347-0.195,0.572l-0.624,1.17H272.217z"/>
			<path fill="#585A5E" d="M279.029,157.734v8.45h-0.65v-8.45H279.029z"/>
			<path fill="#585A5E" d="M285.184,161.127c0.472,0.555,0.708,1.279,0.708,2.171c0,0.893-0.236,1.617-0.708,2.171
				c-0.473,0.555-1.09,0.832-1.853,0.832c-0.763,0-1.378-0.277-1.846-0.832s-0.702-1.278-0.702-2.171
				c0-0.892,0.234-1.616,0.702-2.171c0.468-0.554,1.083-0.832,1.846-0.832C284.094,160.295,284.711,160.573,285.184,161.127z
				 M284.722,165.06c0.347-0.446,0.52-1.034,0.52-1.762c0-0.728-0.173-1.315-0.52-1.761s-0.81-0.669-1.391-0.669
				c-0.572,0-1.032,0.223-1.378,0.669s-0.52,1.034-0.52,1.761c0,0.728,0.173,1.315,0.52,1.762s0.806,0.669,1.378,0.669
				C283.912,165.729,284.375,165.506,284.722,165.06z"/>
			<path fill="#585A5E" d="M287.934,165.469c-0.468-0.555-0.702-1.278-0.702-2.171c0-0.892,0.234-1.616,0.702-2.171
				c0.468-0.554,1.083-0.832,1.846-0.832c0.598,0,1.089,0.163,1.475,0.488c0.386,0.325,0.631,0.76,0.735,1.306h-0.663
				c-0.087-0.381-0.265-0.678-0.533-0.89s-0.606-0.319-1.014-0.319c-0.563,0-1.021,0.221-1.372,0.663s-0.526,1.027-0.526,1.755
				c0,0.728,0.175,1.313,0.526,1.755c0.351,0.442,0.808,0.663,1.372,0.663c0.407,0,0.745-0.106,1.014-0.319
				c0.269-0.212,0.446-0.509,0.533-0.89h0.663c-0.104,0.546-0.349,0.981-0.735,1.306c-0.386,0.325-0.877,0.488-1.475,0.488
				C289.017,166.301,288.401,166.024,287.934,165.469z"/>
			<path fill="#585A5E" d="M297.579,166.184l-2.509-2.886l-0.702,0.65v2.236h-0.65v-8.45h0.65v5.46l3.055-2.782h0.858l-2.743,2.483
				l2.834,3.289H297.579z"/>
			<path fill="#585A5E" d="M303.598,164.507h0.624c-0.113,0.546-0.366,0.981-0.761,1.306c-0.395,0.325-0.886,0.488-1.476,0.488
				c-0.763,0-1.38-0.277-1.853-0.832c-0.472-0.555-0.708-1.278-0.708-2.171c0-0.875,0.232-1.594,0.696-2.158
				c0.463-0.563,1.081-0.845,1.853-0.845c0.745,0,1.321,0.258,1.729,0.773c0.407,0.516,0.611,1.198,0.611,2.048v0.234h-4.251
				c0.008,0.728,0.19,1.307,0.546,1.735c0.355,0.429,0.814,0.644,1.378,0.644c0.407,0,0.756-0.108,1.046-0.325
				C303.323,165.188,303.511,164.889,303.598,164.507z M301.973,160.867c-0.52,0-0.947,0.178-1.281,0.533
				c-0.333,0.355-0.535,0.836-0.604,1.443h3.575c-0.018-0.555-0.169-1.023-0.455-1.404S302.51,160.867,301.973,160.867z"/>
			<path fill="#585A5E" d="M309.955,166.184v-0.858c-0.174,0.269-0.423,0.499-0.748,0.689c-0.325,0.19-0.674,0.286-1.047,0.286
				c-0.814,0-1.438-0.288-1.872-0.865c-0.434-0.576-0.65-1.289-0.65-2.139c0-0.849,0.217-1.562,0.65-2.138
				c0.433-0.576,1.057-0.865,1.872-0.865c0.373,0,0.722,0.096,1.047,0.286c0.325,0.191,0.574,0.42,0.748,0.689v-3.536h0.637v8.45
				H309.955z M309.955,164.559v-2.522c-0.191-0.364-0.44-0.646-0.748-0.845c-0.308-0.199-0.64-0.299-0.995-0.299
				c-0.589,0-1.058,0.223-1.404,0.669c-0.347,0.447-0.52,1.025-0.52,1.735c0,0.711,0.173,1.29,0.52,1.736s0.815,0.669,1.404,0.669
				c0.355,0,0.687-0.1,0.995-0.299C309.514,165.205,309.764,164.923,309.955,164.559z"/>
			<path fill="#585A5E" d="M312.424,161.803c-0.095-0.095-0.143-0.212-0.143-0.351s0.047-0.258,0.143-0.357
				c0.096-0.1,0.208-0.149,0.338-0.149c0.138,0,0.255,0.05,0.351,0.149c0.095,0.1,0.143,0.219,0.143,0.357s-0.047,0.256-0.143,0.351
				c-0.096,0.095-0.213,0.143-0.351,0.143C312.632,161.946,312.52,161.898,312.424,161.803z M312.424,166.08
				c-0.095-0.095-0.143-0.212-0.143-0.351s0.047-0.258,0.143-0.357c0.096-0.1,0.208-0.149,0.338-0.149
				c0.138,0,0.255,0.05,0.351,0.149c0.095,0.1,0.143,0.219,0.143,0.357s-0.047,0.256-0.143,0.351
				c-0.096,0.096-0.213,0.143-0.351,0.143C312.632,166.223,312.52,166.176,312.424,166.08z"/>
			<path fill="#222429" d="M318.392,164.845v-3.874h-0.975v-0.559h0.975v-1.482h0.637v1.482h1.495v0.559h-1.495v3.809
				c0,0.624,0.277,0.936,0.832,0.936c0.277,0,0.542-0.074,0.793-0.221v0.611c-0.243,0.13-0.528,0.195-0.858,0.195
				c-0.434,0-0.776-0.124-1.027-0.371C318.517,165.684,318.392,165.322,318.392,164.845z"/>
			<path fill="#222429" d="M325.035,160.373v0.637c-0.165-0.069-0.343-0.104-0.533-0.104c-0.347,0-0.654,0.113-0.923,0.338
				c-0.269,0.226-0.473,0.529-0.611,0.91v4.03h-0.65v-5.772h0.65v0.923c0.138-0.303,0.346-0.552,0.624-0.748
				c0.277-0.195,0.589-0.292,0.936-0.292C324.692,160.295,324.861,160.321,325.035,160.373z"/>
			<path fill="#222429" d="M330.962,160.412v5.772h-0.637v-0.923c-0.19,0.294-0.446,0.542-0.767,0.741
				c-0.32,0.199-0.676,0.299-1.066,0.299c-0.641,0-1.135-0.188-1.482-0.566c-0.347-0.377-0.52-0.877-0.52-1.501v-3.822h0.637v3.731
				c0,0.468,0.124,0.845,0.371,1.131c0.247,0.286,0.617,0.429,1.111,0.429c0.381,0,0.726-0.117,1.034-0.351
				c0.307-0.234,0.535-0.533,0.682-0.897v-4.043H330.962z"/>
			<path fill="#222429" d="M336.891,164.507h0.623c-0.111,0.546-0.365,0.981-0.76,1.306c-0.395,0.325-0.887,0.488-1.476,0.488
				c-0.763,0-1.38-0.277-1.853-0.832c-0.472-0.555-0.708-1.278-0.708-2.171c0-0.875,0.232-1.594,0.696-2.158
				c0.463-0.563,1.081-0.845,1.853-0.845c0.745,0,1.322,0.258,1.729,0.773c0.408,0.516,0.611,1.198,0.611,2.048v0.234h-4.251
				c0.008,0.728,0.19,1.307,0.546,1.735c0.355,0.429,0.814,0.644,1.378,0.644c0.407,0,0.757-0.108,1.046-0.325
				C336.615,165.188,336.805,164.889,336.891,164.507z M335.266,160.867c-0.52,0-0.947,0.178-1.281,0.533
				c-0.333,0.355-0.535,0.836-0.604,1.443h3.575c-0.018-0.555-0.168-1.023-0.455-1.404
				C336.215,161.058,335.803,160.867,335.266,160.867z"/>
			<path fill="#696B6E" d="M343.988,166.106v-2.691c0-0.381,0.173-0.685,0.52-0.91c-0.347-0.208-0.52-0.511-0.52-0.91v-2.691
				c0-0.39-0.183-0.585-0.546-0.585h-1.47v-0.585h1.456c0.347,0,0.631,0.113,0.852,0.338c0.222,0.225,0.332,0.516,0.332,0.871v2.678
				c0,0.39,0.182,0.585,0.546,0.585h0.546v0.598h-0.546c-0.364,0-0.546,0.195-0.546,0.585v2.678c0,0.355-0.11,0.646-0.332,0.871
				c-0.221,0.226-0.505,0.338-0.852,0.338h-1.456v-0.585h1.47C343.806,166.691,343.988,166.496,343.988,166.106z"/>
		</g>
	</g>
	<g>
		<rect x="417.983" y="184.161" fill="#FFFFFF" width="160.869" height="33.527"/>
		<g>
			<path fill="#696B6E" d="M431.59,202.213v2.69c0,0.391,0.182,0.586,0.546,0.586h1.47v0.584h-1.457
				c-0.346,0-0.631-0.111-0.852-0.338c-0.221-0.225-0.331-0.516-0.331-0.871v-2.678c0-0.39-0.183-0.584-0.546-0.584h-0.547v-0.599
				h0.547c0.363,0,0.546-0.194,0.546-0.585v-2.678c0-0.355,0.11-0.646,0.331-0.871c0.221-0.226,0.506-0.338,0.852-0.338h1.457v0.584
				h-1.47c-0.364,0-0.546,0.195-0.546,0.586v2.691c0,0.398-0.174,0.701-0.52,0.909C431.417,201.528,431.59,201.831,431.59,202.213z"
				/>
			<path fill="#696B6E" d="M442.387,199.925c0.472,0.555,0.708,1.279,0.708,2.171c0,0.894-0.236,1.616-0.708,2.171
				c-0.473,0.555-1.091,0.832-1.854,0.832c-0.762,0-1.378-0.277-1.846-0.832s-0.702-1.277-0.702-2.171
				c0-0.892,0.234-1.616,0.702-2.171s1.084-0.832,1.846-0.832C441.296,199.093,441.915,199.37,442.387,199.925z M441.924,203.857
				c0.348-0.446,0.521-1.034,0.521-1.762s-0.173-1.315-0.521-1.761c-0.346-0.447-0.81-0.67-1.391-0.67
				c-0.572,0-1.031,0.223-1.378,0.67c-0.347,0.445-0.52,1.033-0.52,1.761s0.173,1.315,0.52,1.762s0.806,0.669,1.378,0.669
				C441.115,204.526,441.579,204.304,441.924,203.857z"/>
			<path fill="#696B6E" d="M445.5,204.124v3.068h-0.65v-7.982h0.65v0.857c0.173-0.268,0.422-0.498,0.747-0.688
				s0.674-0.286,1.047-0.286c0.806,0,1.428,0.289,1.865,0.865s0.657,1.289,0.657,2.138c0,0.85-0.22,1.562-0.657,2.139
				c-0.438,0.577-1.06,0.864-1.865,0.864c-0.373,0-0.722-0.096-1.047-0.285C445.922,204.622,445.673,204.393,445.5,204.124z
				 M445.5,200.835v2.521c0.398,0.764,0.975,1.145,1.729,1.145c0.598,0,1.07-0.223,1.418-0.67c0.346-0.445,0.52-1.024,0.52-1.735
				c0-0.71-0.174-1.288-0.52-1.735c-0.348-0.446-0.82-0.67-1.418-0.67C446.475,199.69,445.899,200.072,445.5,200.835z"/>
			<path fill="#696B6E" d="M455.329,203.306h0.623c-0.112,0.545-0.365,0.98-0.76,1.306s-0.887,0.487-1.477,0.487
				c-0.762,0-1.379-0.277-1.852-0.832s-0.709-1.277-0.709-2.171c0-0.875,0.232-1.595,0.695-2.157
				c0.464-0.564,1.082-0.846,1.854-0.846c0.744,0,1.32,0.258,1.729,0.773c0.407,0.516,0.611,1.198,0.611,2.048v0.233h-4.252
				c0.009,0.729,0.191,1.307,0.547,1.736c0.355,0.429,0.814,0.643,1.377,0.643c0.408,0,0.757-0.107,1.047-0.324
				C455.053,203.985,455.241,203.687,455.329,203.306z M453.704,199.665c-0.521,0-0.947,0.178-1.281,0.533s-0.535,0.836-0.604,1.443
				h3.575c-0.018-0.555-0.169-1.023-0.455-1.404C454.652,199.855,454.241,199.665,453.704,199.665z"/>
			<path fill="#696B6E" d="M457.785,204.981v-5.771h0.65v0.923c0.19-0.294,0.448-0.542,0.773-0.741s0.683-0.299,1.072-0.299
				c0.642,0,1.136,0.188,1.481,0.565c0.348,0.378,0.521,0.878,0.521,1.502v3.821h-0.637v-3.73c0-0.469-0.124-0.846-0.37-1.131
				c-0.248-0.286-0.618-0.43-1.112-0.43c-0.382,0-0.728,0.117-1.04,0.352c-0.312,0.234-0.541,0.533-0.688,0.896v4.043H457.785z"/>
			<path fill="#696B6E" d="M464.038,200.601c-0.096-0.095-0.143-0.212-0.143-0.351s0.047-0.258,0.143-0.357s0.208-0.149,0.338-0.149
				c0.139,0,0.256,0.05,0.352,0.149s0.143,0.219,0.143,0.357s-0.047,0.256-0.143,0.351c-0.096,0.096-0.213,0.144-0.352,0.144
				C464.246,200.744,464.133,200.696,464.038,200.601z M464.038,204.878c-0.096-0.096-0.143-0.213-0.143-0.352
				s0.047-0.258,0.143-0.357s0.208-0.148,0.338-0.148c0.139,0,0.256,0.049,0.352,0.148s0.143,0.219,0.143,0.357
				s-0.047,0.256-0.143,0.352s-0.213,0.143-0.352,0.143C464.246,205.021,464.133,204.974,464.038,204.878z"/>
			<path fill="#222429" d="M470.004,203.644v-3.875h-0.975v-0.559h0.975v-1.482h0.637v1.482h1.496v0.559h-1.496v3.81
				c0,0.624,0.277,0.937,0.832,0.937c0.277,0,0.542-0.074,0.793-0.222v0.61c-0.242,0.131-0.527,0.195-0.857,0.195
				c-0.434,0-0.775-0.123-1.027-0.37C470.13,204.481,470.004,204.12,470.004,203.644z"/>
			<path fill="#222429" d="M476.647,199.171v0.637c-0.164-0.068-0.342-0.104-0.533-0.104c-0.346,0-0.654,0.113-0.922,0.338
				c-0.27,0.226-0.473,0.529-0.611,0.91v4.029h-0.65v-5.771h0.65v0.923c0.139-0.304,0.346-0.552,0.623-0.747s0.59-0.293,0.937-0.293
				C476.305,199.093,476.473,199.119,476.647,199.171z"/>
			<path fill="#222429" d="M482.576,199.21v5.771h-0.638v-0.922c-0.189,0.294-0.445,0.541-0.767,0.74
				c-0.32,0.199-0.676,0.299-1.065,0.299c-0.642,0-1.136-0.188-1.482-0.565c-0.347-0.377-0.52-0.878-0.52-1.501v-3.822h0.637v3.73
				c0,0.469,0.123,0.846,0.371,1.131c0.246,0.287,0.617,0.43,1.111,0.43c0.381,0,0.725-0.117,1.033-0.352
				c0.307-0.233,0.535-0.533,0.682-0.896v-4.043H482.576z"/>
			<path fill="#222429" d="M488.504,203.306h0.623c-0.112,0.545-0.365,0.98-0.76,1.306s-0.887,0.487-1.477,0.487
				c-0.762,0-1.379-0.277-1.852-0.832s-0.709-1.277-0.709-2.171c0-0.875,0.232-1.595,0.695-2.157
				c0.464-0.564,1.082-0.846,1.854-0.846c0.744,0,1.32,0.258,1.729,0.773c0.407,0.516,0.611,1.198,0.611,2.048v0.233h-4.252
				c0.009,0.729,0.191,1.307,0.547,1.736c0.355,0.429,0.814,0.643,1.377,0.643c0.408,0,0.757-0.107,1.047-0.324
				C488.229,203.985,488.417,203.687,488.504,203.306z M486.879,199.665c-0.521,0-0.947,0.178-1.281,0.533s-0.535,0.836-0.604,1.443
				h3.575c-0.018-0.555-0.169-1.023-0.455-1.404C487.828,199.855,487.417,199.665,486.879,199.665z"/>
			<path fill="#585A5E" d="M490.155,206.295l0.701-1.3c-0.26-0.053-0.39-0.208-0.39-0.469c0-0.139,0.046-0.255,0.136-0.351
				c0.092-0.095,0.207-0.144,0.346-0.144c0.146,0,0.266,0.049,0.357,0.144c0.09,0.096,0.136,0.222,0.136,0.377
				c0,0.156-0.065,0.347-0.194,0.572l-0.625,1.17H490.155z"/>
			<path fill="#585A5E" d="M496.966,196.532v8.449h-0.65v-8.449H496.966z"/>
			<path fill="#585A5E" d="M503.122,199.925c0.473,0.555,0.709,1.279,0.709,2.171c0,0.894-0.236,1.616-0.709,2.171
				s-1.09,0.832-1.853,0.832s-1.378-0.277-1.847-0.832c-0.467-0.555-0.701-1.277-0.701-2.171c0-0.892,0.234-1.616,0.701-2.171
				c0.469-0.555,1.084-0.832,1.847-0.832S502.649,199.37,503.122,199.925z M502.66,203.857c0.347-0.446,0.521-1.034,0.521-1.762
				s-0.174-1.315-0.521-1.761c-0.347-0.447-0.81-0.67-1.391-0.67c-0.572,0-1.032,0.223-1.378,0.67
				c-0.348,0.445-0.52,1.033-0.52,1.761s0.172,1.315,0.52,1.762c0.346,0.446,0.806,0.669,1.378,0.669
				C501.85,204.526,502.313,204.304,502.66,203.857z"/>
			<path fill="#585A5E" d="M505.872,204.267c-0.469-0.555-0.703-1.277-0.703-2.171c0-0.892,0.234-1.616,0.703-2.171
				c0.467-0.555,1.083-0.832,1.846-0.832c0.598,0,1.09,0.162,1.475,0.488c0.387,0.324,0.631,0.76,0.735,1.306h-0.663
				c-0.087-0.381-0.265-0.678-0.533-0.89c-0.269-0.213-0.606-0.319-1.014-0.319c-0.563,0-1.021,0.222-1.371,0.663
				c-0.352,0.441-0.527,1.027-0.527,1.755s0.176,1.313,0.527,1.755c0.351,0.442,0.808,0.664,1.371,0.664
				c0.407,0,0.745-0.107,1.014-0.319s0.446-0.509,0.533-0.89h0.663c-0.104,0.545-0.349,0.98-0.735,1.306
				c-0.385,0.325-0.877,0.487-1.475,0.487C506.955,205.099,506.338,204.821,505.872,204.267z"/>
			<path fill="#585A5E" d="M515.516,204.981l-2.509-2.886l-0.702,0.65v2.235h-0.65v-8.449h0.65v5.459l3.055-2.781h0.858
				l-2.743,2.482l2.834,3.289H515.516z"/>
			<path fill="#585A5E" d="M521.536,203.306h0.624c-0.112,0.545-0.366,0.98-0.761,1.306s-0.887,0.487-1.476,0.487
				c-0.763,0-1.38-0.277-1.853-0.832s-0.709-1.277-0.709-2.171c0-0.875,0.232-1.595,0.696-2.157
				c0.464-0.564,1.081-0.846,1.853-0.846c0.745,0,1.321,0.258,1.729,0.773c0.408,0.516,0.611,1.198,0.611,2.048v0.233H518
				c0.009,0.729,0.19,1.307,0.546,1.736c0.355,0.429,0.814,0.643,1.378,0.643c0.407,0,0.757-0.107,1.046-0.324
				C521.26,203.985,521.449,203.687,521.536,203.306z M519.911,199.665c-0.52,0-0.947,0.178-1.281,0.533
				c-0.333,0.355-0.535,0.836-0.604,1.443h3.574c-0.018-0.555-0.168-1.023-0.455-1.404
				C520.86,199.855,520.448,199.665,519.911,199.665z"/>
			<path fill="#585A5E" d="M527.892,204.981v-0.857c-0.174,0.269-0.423,0.498-0.747,0.689c-0.326,0.189-0.675,0.285-1.047,0.285
				c-0.814,0-1.439-0.287-1.872-0.864c-0.434-0.576-0.65-1.289-0.65-2.139c0-0.849,0.217-1.562,0.65-2.138
				c0.433-0.576,1.058-0.865,1.872-0.865c0.372,0,0.721,0.096,1.047,0.286c0.324,0.19,0.573,0.421,0.747,0.688v-3.535h0.637v8.449
				H527.892z M527.892,203.356v-2.521c-0.19-0.364-0.44-0.646-0.747-0.846c-0.309-0.199-0.641-0.299-0.995-0.299
				c-0.589,0-1.058,0.224-1.404,0.67c-0.347,0.447-0.52,1.025-0.52,1.735c0,0.711,0.173,1.29,0.52,1.735
				c0.347,0.447,0.815,0.67,1.404,0.67c0.354,0,0.687-0.1,0.995-0.299C527.452,204.003,527.702,203.721,527.892,203.356z"/>
			<path fill="#585A5E" d="M530.362,200.601c-0.096-0.095-0.143-0.212-0.143-0.351s0.047-0.258,0.143-0.357s0.208-0.149,0.338-0.149
				c0.139,0,0.256,0.05,0.352,0.149s0.143,0.219,0.143,0.357s-0.047,0.256-0.143,0.351c-0.096,0.096-0.213,0.144-0.352,0.144
				C530.57,200.744,530.458,200.696,530.362,200.601z M530.362,204.878c-0.096-0.096-0.143-0.213-0.143-0.352
				s0.047-0.258,0.143-0.357s0.208-0.148,0.338-0.148c0.139,0,0.256,0.049,0.352,0.148s0.143,0.219,0.143,0.357
				s-0.047,0.256-0.143,0.352s-0.213,0.143-0.352,0.143C530.57,205.021,530.458,204.974,530.362,204.878z"/>
			<path fill="#222429" d="M538.643,196.532v0.598c-0.174-0.096-0.369-0.143-0.585-0.143c-0.312,0-0.565,0.11-0.761,0.331
				c-0.195,0.222-0.293,0.526-0.293,0.917v0.975h1.353v0.559h-1.353v5.213h-0.637v-5.213h-0.936v-0.559h0.936v-1.04
				c0-0.521,0.152-0.942,0.455-1.268c0.304-0.325,0.693-0.487,1.17-0.487C538.227,196.415,538.444,196.454,538.643,196.532z"/>
			<path fill="#222429" d="M543.623,204.981h-0.624v-0.545c-0.139,0.164-0.355,0.312-0.65,0.441s-0.611,0.195-0.949,0.195
				c-0.606,0-1.113-0.162-1.521-0.488c-0.407-0.324-0.61-0.756-0.61-1.293c0-0.52,0.207-0.945,0.623-1.273
				c0.416-0.33,0.928-0.494,1.534-0.494c0.312,0,0.615,0.062,0.91,0.188c0.294,0.127,0.516,0.268,0.663,0.423v-1.026
				c0-0.434-0.128-0.783-0.384-1.047c-0.255-0.264-0.608-0.396-1.06-0.396c-0.719,0-1.188,0.33-1.404,0.988h-0.637
				c0.113-0.486,0.354-0.867,0.722-1.145s0.808-0.416,1.319-0.416c0.642,0,1.146,0.18,1.515,0.539
				c0.368,0.36,0.553,0.844,0.553,1.45V204.981z M542.999,203.669v-0.741c-0.096-0.251-0.289-0.457-0.578-0.617
				c-0.291-0.16-0.609-0.241-0.956-0.241c-0.442,0-0.817,0.107-1.124,0.319c-0.309,0.212-0.462,0.513-0.462,0.903
				s0.153,0.693,0.462,0.91c0.307,0.217,0.682,0.324,1.124,0.324c0.347,0,0.665-0.08,0.956-0.24
				C542.709,204.126,542.903,203.921,542.999,203.669z"/>
			<path fill="#222429" d="M546.378,196.532v8.449h-0.65v-8.449H546.378z"/>
			<path fill="#222429" d="M548.016,203.487h0.65c0.233,0.701,0.771,1.053,1.611,1.053c0.416,0,0.754-0.092,1.014-0.273
				s0.391-0.445,0.391-0.793c0-0.484-0.355-0.827-1.066-1.027l-1.078-0.299c-0.91-0.242-1.365-0.728-1.365-1.455
				c0-0.486,0.186-0.873,0.559-1.164c0.373-0.29,0.836-0.436,1.391-0.436c0.59,0,1.068,0.139,1.438,0.416
				c0.367,0.277,0.604,0.663,0.708,1.157h-0.638c-0.225-0.677-0.728-1.015-1.508-1.015c-0.381,0-0.697,0.09-0.949,0.268
				c-0.251,0.178-0.377,0.426-0.377,0.747c0,0.26,0.08,0.455,0.241,0.585c0.16,0.13,0.427,0.247,0.8,0.352l1.026,0.285
				c0.962,0.252,1.443,0.775,1.443,1.573c0,0.511-0.19,0.912-0.572,1.202c-0.382,0.291-0.871,0.436-1.469,0.436
				c-0.59,0-1.091-0.143-1.501-0.429C548.352,204.384,548.102,203.989,548.016,203.487z"/>
			<path fill="#222429" d="M557.818,203.306h0.624c-0.112,0.545-0.366,0.98-0.76,1.306c-0.395,0.325-0.887,0.487-1.476,0.487
				c-0.763,0-1.38-0.277-1.853-0.832s-0.709-1.277-0.709-2.171c0-0.875,0.232-1.595,0.695-2.157
				c0.464-0.564,1.082-0.846,1.853-0.846c0.745,0,1.322,0.258,1.729,0.773s0.61,1.198,0.61,2.048v0.233h-4.251
				c0.009,0.729,0.191,1.307,0.547,1.736c0.355,0.429,0.814,0.643,1.378,0.643c0.407,0,0.756-0.107,1.046-0.324
				S557.732,203.687,557.818,203.306z M556.193,199.665c-0.52,0-0.946,0.178-1.28,0.533s-0.535,0.836-0.604,1.443h3.575
				c-0.018-0.555-0.169-1.023-0.455-1.404C557.142,199.855,556.73,199.665,556.193,199.665z"/>
			<path fill="#696B6E" d="M564.916,204.903v-2.69c0-0.382,0.173-0.685,0.52-0.91c-0.347-0.208-0.52-0.511-0.52-0.909v-2.691
				c0-0.391-0.183-0.586-0.546-0.586h-1.47v-0.584h1.456c0.347,0,0.631,0.112,0.852,0.338c0.222,0.225,0.332,0.516,0.332,0.871
				v2.678c0,0.391,0.182,0.585,0.546,0.585h0.546v0.599h-0.546c-0.364,0-0.546,0.194-0.546,0.584v2.678
				c0,0.355-0.11,0.646-0.332,0.871c-0.221,0.227-0.505,0.338-0.852,0.338H562.9v-0.584h1.47
				C564.733,205.489,564.916,205.294,564.916,204.903z"/>
		</g>
	</g>
	<g>
		<rect x="198.55" y="204.96" fill="#FFFFFF" width="160.868" height="33.527"/>
		<g>
			<path fill="#696B6E" d="M212.158,223.013v2.691c0,0.39,0.182,0.584,0.546,0.584h1.469v0.586h-1.456
				c-0.347,0-0.631-0.113-0.852-0.338c-0.221-0.227-0.332-0.516-0.332-0.871v-2.678c0-0.391-0.182-0.586-0.546-0.586h-0.546v-0.598
				h0.546c0.364,0,0.546-0.195,0.546-0.585v-2.679c0-0.354,0.11-0.645,0.332-0.87c0.221-0.226,0.505-0.339,0.852-0.339h1.456v0.586
				h-1.469c-0.364,0-0.546,0.195-0.546,0.585v2.69c0,0.398-0.173,0.702-0.52,0.91C211.985,222.328,212.158,222.632,212.158,223.013z
				"/>
			<path fill="#696B6E" d="M222.955,220.725c0.472,0.555,0.708,1.278,0.708,2.171s-0.236,1.617-0.708,2.172
				c-0.473,0.555-1.09,0.832-1.853,0.832c-0.763,0-1.378-0.277-1.846-0.832s-0.702-1.279-0.702-2.172s0.234-1.616,0.702-2.171
				c0.468-0.554,1.083-0.832,1.846-0.832C221.864,219.893,222.482,220.171,222.955,220.725z M222.493,224.657
				c0.347-0.446,0.52-1.033,0.52-1.762c0-0.728-0.173-1.314-0.52-1.762c-0.347-0.445-0.81-0.669-1.391-0.669
				c-0.572,0-1.032,0.224-1.378,0.669c-0.347,0.447-0.52,1.034-0.52,1.762c0,0.729,0.173,1.315,0.52,1.762s0.806,0.67,1.378,0.67
				C221.683,225.327,222.146,225.104,222.493,224.657z"/>
			<path fill="#696B6E" d="M226.068,224.924v3.067h-0.65v-7.981h0.65v0.858c0.173-0.27,0.422-0.498,0.747-0.689
				c0.325-0.19,0.674-0.286,1.047-0.286c0.806,0,1.428,0.288,1.865,0.864s0.657,1.289,0.657,2.139s-0.219,1.562-0.657,2.139
				s-1.06,0.865-1.865,0.865c-0.373,0-0.722-0.096-1.047-0.287C226.491,225.423,226.241,225.192,226.068,224.924z M226.068,221.635
				v2.522c0.398,0.762,0.975,1.144,1.729,1.144c0.598,0,1.07-0.224,1.417-0.669c0.346-0.447,0.52-1.025,0.52-1.736
				s-0.173-1.289-0.52-1.735c-0.347-0.446-0.819-0.669-1.417-0.669C227.043,220.491,226.467,220.872,226.068,221.635z"/>
			<path fill="#696B6E" d="M235.896,224.104h0.624c-0.113,0.547-0.366,0.982-0.761,1.307c-0.395,0.325-0.886,0.488-1.476,0.488
				c-0.763,0-1.38-0.277-1.853-0.832c-0.472-0.555-0.708-1.279-0.708-2.172c0-0.875,0.232-1.594,0.696-2.158
				c0.463-0.562,1.081-0.845,1.853-0.845c0.745,0,1.321,0.259,1.729,0.773c0.407,0.517,0.611,1.198,0.611,2.048v0.234h-4.251
				c0.008,0.728,0.19,1.307,0.546,1.734c0.355,0.43,0.814,0.645,1.378,0.645c0.407,0,0.756-0.109,1.046-0.325
				C235.621,224.785,235.809,224.486,235.896,224.104z M234.271,220.465c-0.52,0-0.947,0.178-1.281,0.532
				c-0.333,0.355-0.535,0.837-0.604,1.443h3.575c-0.018-0.555-0.169-1.022-0.455-1.404
				C235.22,220.655,234.808,220.465,234.271,220.465z"/>
			<path fill="#696B6E" d="M238.353,225.782v-5.772h0.65v0.923c0.19-0.295,0.448-0.541,0.773-0.74c0.325-0.199,0.682-0.3,1.072-0.3
				c0.641,0,1.135,0.188,1.482,0.565s0.52,0.878,0.52,1.502v3.822h-0.637v-3.731c0-0.468-0.124-0.845-0.371-1.131
				s-0.618-0.429-1.112-0.429c-0.381,0-0.728,0.117-1.04,0.351s-0.542,0.532-0.689,0.897v4.043H238.353z"/>
			<path fill="#696B6E" d="M244.605,221.401c-0.095-0.096-0.143-0.213-0.143-0.352s0.047-0.258,0.143-0.357
				c0.096-0.1,0.208-0.149,0.338-0.149c0.138,0,0.255,0.05,0.351,0.149c0.095,0.1,0.143,0.219,0.143,0.357s-0.047,0.256-0.143,0.352
				c-0.096,0.095-0.213,0.143-0.351,0.143C244.813,221.544,244.701,221.496,244.605,221.401z M244.605,225.678
				c-0.095-0.095-0.143-0.212-0.143-0.351s0.047-0.258,0.143-0.357c0.096-0.1,0.208-0.15,0.338-0.15c0.138,0,0.255,0.051,0.351,0.15
				c0.095,0.1,0.143,0.219,0.143,0.357s-0.047,0.256-0.143,0.351c-0.096,0.096-0.213,0.144-0.351,0.144
				C244.813,225.821,244.701,225.773,244.605,225.678z"/>
			<path fill="#222429" d="M252.887,217.331v0.599c-0.173-0.095-0.369-0.144-0.585-0.144c-0.312,0-0.565,0.111-0.761,0.332
				c-0.195,0.221-0.292,0.526-0.292,0.916v0.976h1.352v0.56h-1.352v5.213h-0.637v-5.213h-0.936v-0.56h0.936v-1.04
				c0-0.52,0.151-0.942,0.455-1.268c0.304-0.324,0.693-0.487,1.17-0.487C252.471,217.215,252.687,217.254,252.887,217.331z"/>
			<path fill="#222429" d="M257.866,225.782h-0.624v-0.547c-0.139,0.165-0.355,0.312-0.65,0.442
				c-0.295,0.13-0.611,0.194-0.949,0.194c-0.607,0-1.114-0.162-1.521-0.486c-0.407-0.326-0.611-0.756-0.611-1.294
				c0-0.521,0.208-0.944,0.624-1.274c0.416-0.329,0.927-0.494,1.534-0.494c0.312,0,0.615,0.063,0.91,0.189
				c0.294,0.125,0.516,0.266,0.663,0.422v-1.027c0-0.433-0.128-0.781-0.384-1.046c-0.255-0.265-0.609-0.396-1.059-0.396
				c-0.72,0-1.188,0.329-1.404,0.987h-0.637c0.112-0.484,0.353-0.865,0.721-1.144c0.368-0.277,0.808-0.416,1.32-0.416
				c0.641,0,1.146,0.181,1.514,0.54s0.553,0.843,0.553,1.449V225.782z M257.242,224.469v-0.741
				c-0.096-0.251-0.289-0.457-0.579-0.617c-0.291-0.16-0.609-0.24-0.956-0.24c-0.442,0-0.817,0.105-1.125,0.318
				s-0.461,0.514-0.461,0.903s0.154,0.693,0.461,0.91c0.308,0.216,0.683,0.325,1.125,0.325c0.347,0,0.665-0.08,0.956-0.24
				C256.953,224.926,257.146,224.72,257.242,224.469z"/>
			<path fill="#222429" d="M260.622,217.331v8.451h-0.65v-8.451H260.622z"/>
			<path fill="#222429" d="M262.26,224.286h0.65c0.234,0.703,0.771,1.054,1.612,1.054c0.416,0,0.754-0.091,1.014-0.272
				c0.26-0.183,0.39-0.447,0.39-0.793c0-0.486-0.355-0.828-1.066-1.027l-1.079-0.299c-0.91-0.243-1.365-0.729-1.365-1.457
				c0-0.484,0.187-0.873,0.559-1.163s0.836-0.436,1.391-0.436c0.589,0,1.068,0.139,1.437,0.416c0.368,0.278,0.604,0.663,0.708,1.157
				h-0.637c-0.226-0.676-0.728-1.014-1.508-1.014c-0.381,0-0.698,0.088-0.949,0.266s-0.377,0.428-0.377,0.748
				c0,0.26,0.08,0.455,0.241,0.585c0.16,0.13,0.427,0.247,0.799,0.351l1.027,0.286c0.962,0.251,1.443,0.776,1.443,1.573
				c0,0.512-0.191,0.912-0.572,1.203c-0.381,0.29-0.871,0.436-1.469,0.436c-0.59,0-1.09-0.144-1.501-0.43
				C262.595,225.184,262.346,224.79,262.26,224.286z"/>
			<path fill="#222429" d="M272.062,224.104h0.624c-0.113,0.547-0.366,0.982-0.761,1.307c-0.395,0.325-0.886,0.488-1.476,0.488
				c-0.763,0-1.38-0.277-1.853-0.832c-0.472-0.555-0.708-1.279-0.708-2.172c0-0.875,0.232-1.594,0.696-2.158
				c0.463-0.562,1.081-0.845,1.853-0.845c0.745,0,1.321,0.259,1.729,0.773c0.407,0.517,0.611,1.198,0.611,2.048v0.234h-4.251
				c0.008,0.728,0.19,1.307,0.546,1.734c0.355,0.43,0.814,0.645,1.378,0.645c0.407,0,0.756-0.109,1.046-0.325
				C271.786,224.785,271.975,224.486,272.062,224.104z M270.437,220.465c-0.52,0-0.947,0.178-1.281,0.532
				c-0.333,0.355-0.535,0.837-0.604,1.443h3.575c-0.018-0.555-0.169-1.022-0.455-1.404
				C271.385,220.655,270.974,220.465,270.437,220.465z"/>
			<path fill="#585A5E" d="M273.712,227.095l0.702-1.3c-0.26-0.052-0.39-0.208-0.39-0.468c0-0.139,0.045-0.256,0.136-0.352
				c0.091-0.096,0.206-0.143,0.345-0.143c0.147,0,0.266,0.047,0.357,0.143c0.091,0.096,0.136,0.221,0.136,0.377
				s-0.065,0.348-0.195,0.572l-0.624,1.17H273.712z"/>
			<path fill="#585A5E" d="M280.524,217.331v8.451h-0.65v-8.451H280.524z"/>
			<path fill="#585A5E" d="M286.68,220.725c0.472,0.555,0.708,1.278,0.708,2.171s-0.236,1.617-0.708,2.172
				c-0.473,0.555-1.09,0.832-1.853,0.832c-0.763,0-1.378-0.277-1.846-0.832s-0.702-1.279-0.702-2.172s0.234-1.616,0.702-2.171
				c0.468-0.554,1.083-0.832,1.846-0.832C285.589,219.893,286.207,220.171,286.68,220.725z M286.218,224.657
				c0.347-0.446,0.52-1.033,0.52-1.762c0-0.728-0.173-1.314-0.52-1.762c-0.347-0.445-0.81-0.669-1.391-0.669
				c-0.572,0-1.032,0.224-1.378,0.669c-0.347,0.447-0.52,1.034-0.52,1.762c0,0.729,0.173,1.315,0.52,1.762s0.806,0.67,1.378,0.67
				C285.408,225.327,285.871,225.104,286.218,224.657z"/>
			<path fill="#585A5E" d="M289.429,225.067c-0.468-0.555-0.702-1.279-0.702-2.172s0.234-1.616,0.702-2.171
				c0.468-0.554,1.083-0.832,1.846-0.832c0.598,0,1.089,0.163,1.475,0.487c0.386,0.325,0.631,0.761,0.735,1.307h-0.663
				c-0.087-0.381-0.265-0.678-0.533-0.891c-0.269-0.212-0.606-0.318-1.014-0.318c-0.563,0-1.021,0.221-1.372,0.663
				s-0.526,1.027-0.526,1.755c0,0.729,0.175,1.312,0.526,1.756c0.351,0.441,0.808,0.662,1.372,0.662
				c0.407,0,0.745-0.105,1.014-0.318c0.269-0.212,0.446-0.509,0.533-0.891h0.663c-0.104,0.547-0.349,0.982-0.735,1.307
				c-0.386,0.325-0.877,0.488-1.475,0.488C290.512,225.899,289.896,225.622,289.429,225.067z"/>
			<path fill="#585A5E" d="M299.075,225.782l-2.509-2.887l-0.702,0.65v2.236h-0.65v-8.451h0.65v5.461l3.055-2.782h0.858
				l-2.743,2.483l2.834,3.289H299.075z"/>
			<path fill="#585A5E" d="M305.093,224.104h0.624c-0.113,0.547-0.366,0.982-0.761,1.307c-0.395,0.325-0.886,0.488-1.476,0.488
				c-0.763,0-1.38-0.277-1.853-0.832c-0.472-0.555-0.708-1.279-0.708-2.172c0-0.875,0.232-1.594,0.696-2.158
				c0.463-0.562,1.081-0.845,1.853-0.845c0.745,0,1.321,0.259,1.729,0.773c0.407,0.517,0.611,1.198,0.611,2.048v0.234h-4.251
				c0.008,0.728,0.19,1.307,0.546,1.734c0.355,0.43,0.814,0.645,1.378,0.645c0.407,0,0.756-0.109,1.046-0.325
				C304.818,224.785,305.006,224.486,305.093,224.104z M303.468,220.465c-0.52,0-0.947,0.178-1.281,0.532
				c-0.333,0.355-0.535,0.837-0.604,1.443h3.575c-0.018-0.555-0.169-1.022-0.455-1.404
				C304.417,220.655,304.005,220.465,303.468,220.465z"/>
			<path fill="#585A5E" d="M311.45,225.782v-0.858c-0.174,0.269-0.423,0.499-0.748,0.688c-0.325,0.191-0.674,0.287-1.047,0.287
				c-0.814,0-1.438-0.289-1.872-0.865c-0.434-0.576-0.65-1.289-0.65-2.139s0.217-1.562,0.65-2.139
				c0.433-0.576,1.057-0.864,1.872-0.864c0.373,0,0.722,0.096,1.047,0.286c0.325,0.191,0.574,0.42,0.748,0.689v-3.537h0.637v8.451
				H311.45z M311.45,224.157v-2.522c-0.191-0.364-0.44-0.646-0.748-0.845c-0.308-0.199-0.64-0.299-0.995-0.299
				c-0.589,0-1.058,0.223-1.404,0.669s-0.52,1.024-0.52,1.735s0.173,1.289,0.52,1.736c0.347,0.445,0.815,0.669,1.404,0.669
				c0.355,0,0.687-0.1,0.995-0.299C311.01,224.802,311.259,224.521,311.45,224.157z"/>
			<path fill="#585A5E" d="M313.92,221.401c-0.095-0.096-0.143-0.213-0.143-0.352s0.047-0.258,0.143-0.357
				c0.096-0.1,0.208-0.149,0.338-0.149c0.138,0,0.255,0.05,0.351,0.149c0.095,0.1,0.143,0.219,0.143,0.357s-0.047,0.256-0.143,0.352
				c-0.096,0.095-0.213,0.143-0.351,0.143C314.128,221.544,314.016,221.496,313.92,221.401z M313.92,225.678
				c-0.095-0.095-0.143-0.212-0.143-0.351s0.047-0.258,0.143-0.357c0.096-0.1,0.208-0.15,0.338-0.15c0.138,0,0.255,0.051,0.351,0.15
				c0.095,0.1,0.143,0.219,0.143,0.357s-0.047,0.256-0.143,0.351c-0.096,0.096-0.213,0.144-0.351,0.144
				C314.128,225.821,314.016,225.773,313.92,225.678z"/>
			<path fill="#222429" d="M319.887,224.442v-3.873h-0.975v-0.56h0.975v-1.481h0.637v1.481h1.495v0.56h-1.495v3.809
				c0,0.624,0.277,0.936,0.832,0.936c0.277,0,0.542-0.073,0.793-0.221v0.611c-0.243,0.129-0.528,0.195-0.858,0.195
				c-0.434,0-0.776-0.124-1.027-0.371C320.013,225.281,319.887,224.919,319.887,224.442z"/>
			<path fill="#222429" d="M326.53,219.971v0.638c-0.165-0.07-0.343-0.104-0.533-0.104c-0.347,0-0.654,0.112-0.923,0.338
				c-0.269,0.226-0.473,0.528-0.611,0.91v4.03h-0.65v-5.772h0.65v0.923c0.138-0.303,0.346-0.553,0.624-0.748
				c0.277-0.194,0.589-0.292,0.936-0.292C326.187,219.893,326.356,219.919,326.53,219.971z"/>
			<path fill="#222429" d="M332.458,220.01v5.772h-0.637v-0.924c-0.19,0.295-0.446,0.542-0.767,0.741
				c-0.32,0.199-0.676,0.3-1.066,0.3c-0.641,0-1.135-0.189-1.482-0.566s-0.52-0.877-0.52-1.502v-3.821h0.637v3.731
				c0,0.467,0.124,0.845,0.371,1.131c0.247,0.285,0.617,0.429,1.111,0.429c0.381,0,0.726-0.117,1.034-0.351
				c0.307-0.234,0.535-0.533,0.682-0.897v-4.043H332.458z"/>
			<path fill="#222429" d="M338.386,224.104h0.624c-0.112,0.547-0.366,0.982-0.76,1.307c-0.395,0.325-0.887,0.488-1.476,0.488
				c-0.763,0-1.38-0.277-1.853-0.832c-0.472-0.555-0.708-1.279-0.708-2.172c0-0.875,0.232-1.594,0.696-2.158
				c0.463-0.562,1.082-0.845,1.852-0.845c0.745,0,1.322,0.259,1.729,0.773c0.407,0.517,0.61,1.198,0.61,2.048v0.234h-4.25
				c0.008,0.728,0.19,1.307,0.546,1.734c0.355,0.43,0.815,0.645,1.378,0.645c0.407,0,0.756-0.109,1.046-0.325
				C338.11,224.785,338.3,224.486,338.386,224.104z M336.761,220.465c-0.52,0-0.946,0.178-1.28,0.532
				c-0.333,0.355-0.535,0.837-0.604,1.443h3.575c-0.018-0.555-0.169-1.022-0.455-1.404
				C337.71,220.655,337.298,220.465,336.761,220.465z"/>
			<path fill="#696B6E" d="M345.483,225.704v-2.691c0-0.381,0.173-0.685,0.52-0.91c-0.347-0.208-0.52-0.512-0.52-0.91v-2.69
				c0-0.39-0.183-0.585-0.546-0.585h-1.47v-0.586h1.456c0.347,0,0.631,0.113,0.852,0.339c0.222,0.226,0.332,0.516,0.332,0.87v2.679
				c0,0.39,0.182,0.585,0.546,0.585h0.546v0.598h-0.546c-0.364,0-0.546,0.195-0.546,0.586v2.678c0,0.355-0.11,0.645-0.332,0.871
				c-0.221,0.225-0.505,0.338-0.852,0.338h-1.456v-0.586h1.47C345.301,226.288,345.483,226.094,345.483,225.704z"/>
		</g>
	</g>
	<g>
		<rect x="417.983" y="243.759" fill="#FFFFFF" width="160.869" height="33.527"/>
		<g>
			<path fill="#696B6E" d="M430.095,261.811v2.69c0,0.391,0.183,0.586,0.546,0.586h1.469v0.584h-1.455
				c-0.348,0-0.631-0.111-0.852-0.338c-0.222-0.225-0.332-0.516-0.332-0.871v-2.678c0-0.39-0.182-0.584-0.546-0.584h-0.546v-0.599
				h0.546c0.364,0,0.546-0.194,0.546-0.585v-2.678c0-0.355,0.11-0.646,0.332-0.871c0.221-0.226,0.504-0.338,0.852-0.338h1.455v0.584
				h-1.469c-0.363,0-0.546,0.195-0.546,0.586v2.691c0,0.398-0.173,0.701-0.521,0.909
				C429.922,261.126,430.095,261.429,430.095,261.811z"/>
			<path fill="#696B6E" d="M440.891,259.522c0.473,0.555,0.709,1.279,0.709,2.171c0,0.894-0.236,1.616-0.709,2.171
				s-1.09,0.832-1.852,0.832c-0.764,0-1.379-0.277-1.847-0.832s-0.702-1.277-0.702-2.171c0-0.892,0.234-1.616,0.702-2.171
				s1.083-0.832,1.847-0.832C439.801,258.69,440.418,258.968,440.891,259.522z M440.43,263.455c0.346-0.446,0.52-1.034,0.52-1.762
				s-0.174-1.315-0.52-1.761c-0.348-0.447-0.811-0.67-1.391-0.67c-0.572,0-1.032,0.223-1.379,0.67
				c-0.347,0.445-0.52,1.033-0.52,1.761s0.173,1.315,0.52,1.762s0.807,0.669,1.379,0.669
				C439.62,264.124,440.083,263.901,440.43,263.455z"/>
			<path fill="#696B6E" d="M444.005,263.722v3.068h-0.65v-7.982h0.65v0.857c0.173-0.268,0.423-0.498,0.747-0.688
				c0.325-0.19,0.674-0.286,1.047-0.286c0.806,0,1.428,0.289,1.865,0.865s0.656,1.289,0.656,2.138c0,0.85-0.219,1.562-0.656,2.139
				c-0.438,0.577-1.06,0.864-1.865,0.864c-0.373,0-0.722-0.096-1.047-0.285C444.428,264.22,444.178,263.99,444.005,263.722z
				 M444.005,260.433v2.521c0.398,0.764,0.975,1.145,1.729,1.145c0.599,0,1.07-0.223,1.417-0.67c0.347-0.445,0.52-1.024,0.52-1.735
				c0-0.71-0.173-1.288-0.52-1.735c-0.347-0.446-0.818-0.67-1.417-0.67C444.98,259.288,444.404,259.67,444.005,260.433z"/>
			<path fill="#696B6E" d="M453.833,262.903h0.625c-0.113,0.545-0.367,0.98-0.762,1.306s-0.886,0.487-1.475,0.487
				c-0.764,0-1.381-0.277-1.854-0.832c-0.472-0.555-0.708-1.277-0.708-2.171c0-0.875,0.231-1.595,0.696-2.157
				c0.463-0.564,1.08-0.846,1.852-0.846c0.746,0,1.322,0.258,1.729,0.773s0.61,1.198,0.61,2.048v0.233h-4.25
				c0.008,0.729,0.189,1.307,0.545,1.736c0.355,0.429,0.814,0.643,1.379,0.643c0.406,0,0.756-0.107,1.046-0.324
				S453.747,263.284,453.833,262.903z M452.208,259.263c-0.52,0-0.947,0.178-1.28,0.533s-0.535,0.836-0.604,1.443h3.575
				c-0.018-0.555-0.169-1.023-0.455-1.404C453.157,259.453,452.745,259.263,452.208,259.263z"/>
			<path fill="#696B6E" d="M456.29,264.579v-5.771h0.65v0.923c0.19-0.294,0.448-0.542,0.773-0.741
				c0.324-0.199,0.682-0.299,1.072-0.299c0.641,0,1.135,0.188,1.482,0.565c0.346,0.378,0.52,0.878,0.52,1.502v3.821h-0.637v-3.73
				c0-0.469-0.123-0.846-0.371-1.131c-0.246-0.286-0.617-0.43-1.111-0.43c-0.381,0-0.728,0.117-1.039,0.352
				c-0.312,0.234-0.543,0.533-0.689,0.896v4.043H456.29z"/>
			<path fill="#696B6E" d="M462.542,260.198c-0.095-0.095-0.143-0.212-0.143-0.351s0.048-0.258,0.143-0.357
				c0.096-0.1,0.208-0.149,0.339-0.149c0.138,0,0.255,0.05,0.351,0.149c0.095,0.1,0.143,0.219,0.143,0.357s-0.048,0.256-0.143,0.351
				c-0.096,0.096-0.213,0.144-0.351,0.144C462.75,260.342,462.638,260.294,462.542,260.198z M462.542,264.476
				c-0.095-0.096-0.143-0.213-0.143-0.352s0.048-0.258,0.143-0.357c0.096-0.1,0.208-0.148,0.339-0.148
				c0.138,0,0.255,0.049,0.351,0.148c0.095,0.1,0.143,0.219,0.143,0.357s-0.048,0.256-0.143,0.352
				c-0.096,0.096-0.213,0.143-0.351,0.143C462.75,264.618,462.638,264.571,462.542,264.476z"/>
			<path fill="#222429" d="M470.824,256.13v0.598c-0.173-0.096-0.368-0.143-0.585-0.143c-0.312,0-0.565,0.11-0.761,0.331
				c-0.194,0.222-0.292,0.526-0.292,0.917v0.975h1.352v0.559h-1.352v5.213h-0.637v-5.213h-0.937v-0.559h0.937v-1.04
				c0-0.521,0.15-0.942,0.454-1.268s0.693-0.487,1.171-0.487C470.408,256.013,470.624,256.052,470.824,256.13z"/>
			<path fill="#222429" d="M475.803,264.579h-0.625v-0.545c-0.139,0.164-0.355,0.312-0.649,0.441
				c-0.295,0.13-0.611,0.195-0.949,0.195c-0.606,0-1.114-0.162-1.521-0.488c-0.408-0.324-0.611-0.756-0.611-1.293
				c0-0.52,0.208-0.945,0.624-1.273c0.416-0.33,0.927-0.494,1.534-0.494c0.312,0,0.615,0.062,0.91,0.188
				c0.294,0.127,0.516,0.268,0.662,0.423v-1.026c0-0.434-0.127-0.783-0.383-1.047s-0.609-0.396-1.06-0.396
				c-0.72,0-1.188,0.33-1.404,0.988h-0.637c0.112-0.486,0.353-0.867,0.722-1.145c0.367-0.277,0.808-0.416,1.319-0.416
				c0.642,0,1.146,0.18,1.515,0.539c0.367,0.36,0.553,0.844,0.553,1.45V264.579z M475.178,263.267v-0.741
				c-0.096-0.251-0.288-0.457-0.578-0.617c-0.291-0.16-0.609-0.241-0.955-0.241c-0.442,0-0.817,0.107-1.125,0.319
				s-0.461,0.513-0.461,0.903s0.153,0.693,0.461,0.91s0.683,0.324,1.125,0.324c0.346,0,0.664-0.08,0.955-0.24
				C474.89,263.724,475.083,263.519,475.178,263.267z"/>
			<path fill="#222429" d="M478.559,256.13v8.449h-0.65v-8.449H478.559z"/>
			<path fill="#222429" d="M480.197,263.085h0.649c0.234,0.701,0.771,1.053,1.612,1.053c0.416,0,0.754-0.092,1.015-0.273
				c0.26-0.182,0.39-0.445,0.39-0.793c0-0.484-0.355-0.827-1.065-1.027l-1.08-0.299c-0.91-0.242-1.365-0.728-1.365-1.455
				c0-0.486,0.188-0.873,0.56-1.164c0.372-0.29,0.837-0.436,1.392-0.436c0.589,0,1.067,0.139,1.436,0.416
				c0.369,0.277,0.605,0.663,0.709,1.157h-0.637c-0.227-0.677-0.729-1.015-1.508-1.015c-0.382,0-0.698,0.09-0.949,0.268
				c-0.252,0.178-0.377,0.426-0.377,0.747c0,0.26,0.08,0.455,0.24,0.585s0.427,0.247,0.799,0.352l1.027,0.285
				c0.963,0.252,1.443,0.775,1.443,1.573c0,0.511-0.191,0.912-0.572,1.202c-0.381,0.291-0.871,0.436-1.469,0.436
				c-0.59,0-1.09-0.143-1.502-0.429S480.284,263.587,480.197,263.085z"/>
			<path fill="#222429" d="M489.999,262.903h0.624c-0.112,0.545-0.366,0.98-0.761,1.306s-0.887,0.487-1.476,0.487
				c-0.763,0-1.38-0.277-1.853-0.832s-0.709-1.277-0.709-2.171c0-0.875,0.232-1.595,0.696-2.157
				c0.464-0.564,1.081-0.846,1.853-0.846c0.745,0,1.321,0.258,1.729,0.773c0.408,0.516,0.611,1.198,0.611,2.048v0.233h-4.251
				c0.009,0.729,0.19,1.307,0.546,1.736c0.355,0.429,0.814,0.643,1.378,0.643c0.407,0,0.757-0.107,1.046-0.324
				C489.723,263.583,489.912,263.284,489.999,262.903z M488.374,259.263c-0.52,0-0.947,0.178-1.281,0.533
				c-0.333,0.355-0.535,0.836-0.604,1.443h3.574c-0.018-0.555-0.168-1.023-0.455-1.404
				C489.323,259.453,488.911,259.263,488.374,259.263z"/>
			<path fill="#585A5E" d="M491.649,265.893l0.702-1.3c-0.26-0.053-0.39-0.208-0.39-0.469c0-0.139,0.045-0.255,0.137-0.351
				c0.091-0.095,0.205-0.144,0.344-0.144c0.147,0,0.267,0.049,0.357,0.144c0.092,0.096,0.137,0.222,0.137,0.377
				c0,0.156-0.064,0.347-0.195,0.572l-0.623,1.17H491.649z"/>
			<path fill="#585A5E" d="M498.461,256.13v8.449h-0.65v-8.449H498.461z"/>
			<path fill="#585A5E" d="M504.617,259.522c0.472,0.555,0.708,1.279,0.708,2.171c0,0.894-0.236,1.616-0.708,2.171
				c-0.473,0.555-1.091,0.832-1.853,0.832c-0.763,0-1.379-0.277-1.846-0.832c-0.469-0.555-0.703-1.277-0.703-2.171
				c0-0.892,0.234-1.616,0.703-2.171c0.467-0.555,1.083-0.832,1.846-0.832C503.526,258.69,504.144,258.968,504.617,259.522z
				 M504.155,263.455c0.347-0.446,0.52-1.034,0.52-1.762s-0.173-1.315-0.52-1.761c-0.347-0.447-0.811-0.67-1.391-0.67
				c-0.572,0-1.031,0.223-1.379,0.67c-0.346,0.445-0.52,1.033-0.52,1.761s0.174,1.315,0.52,1.762
				c0.348,0.446,0.807,0.669,1.379,0.669C503.344,264.124,503.808,263.901,504.155,263.455z"/>
			<path fill="#585A5E" d="M507.366,263.864c-0.468-0.555-0.702-1.277-0.702-2.171c0-0.892,0.234-1.616,0.702-2.171
				s1.084-0.832,1.846-0.832c0.598,0,1.09,0.162,1.476,0.488c0.386,0.324,0.631,0.76,0.735,1.306h-0.664
				c-0.086-0.381-0.264-0.678-0.533-0.89c-0.268-0.213-0.605-0.319-1.014-0.319c-0.562,0-1.02,0.222-1.371,0.663
				s-0.526,1.027-0.526,1.755s0.175,1.313,0.526,1.755c0.352,0.442,0.809,0.664,1.371,0.664c0.408,0,0.746-0.107,1.014-0.319
				c0.27-0.212,0.447-0.509,0.533-0.89h0.664c-0.104,0.545-0.35,0.98-0.735,1.306s-0.878,0.487-1.476,0.487
				C508.45,264.696,507.833,264.419,507.366,263.864z"/>
			<path fill="#585A5E" d="M517.012,264.579l-2.51-2.886l-0.701,0.65v2.235h-0.65v-8.449h0.65v5.459l3.055-2.781h0.857l-2.742,2.482
				l2.834,3.289H517.012z"/>
			<path fill="#585A5E" d="M523.03,262.903h0.625c-0.113,0.545-0.367,0.98-0.762,1.306s-0.886,0.487-1.475,0.487
				c-0.764,0-1.381-0.277-1.854-0.832c-0.472-0.555-0.708-1.277-0.708-2.171c0-0.875,0.231-1.595,0.696-2.157
				c0.463-0.564,1.08-0.846,1.852-0.846c0.746,0,1.322,0.258,1.729,0.773s0.61,1.198,0.61,2.048v0.233h-4.25
				c0.008,0.729,0.189,1.307,0.545,1.736c0.355,0.429,0.814,0.643,1.379,0.643c0.406,0,0.756-0.107,1.046-0.324
				S522.944,263.284,523.03,262.903z M521.405,259.263c-0.52,0-0.947,0.178-1.28,0.533s-0.535,0.836-0.604,1.443h3.575
				c-0.018-0.555-0.169-1.023-0.455-1.404C522.354,259.453,521.942,259.263,521.405,259.263z"/>
			<path fill="#585A5E" d="M529.387,264.579v-0.857c-0.174,0.269-0.423,0.498-0.748,0.689c-0.324,0.189-0.674,0.285-1.047,0.285
				c-0.814,0-1.438-0.287-1.871-0.864c-0.434-0.576-0.65-1.289-0.65-2.139c0-0.849,0.217-1.562,0.65-2.138s1.057-0.865,1.871-0.865
				c0.373,0,0.723,0.096,1.047,0.286c0.325,0.19,0.574,0.421,0.748,0.688v-3.535h0.637v8.449H529.387z M529.387,262.954v-2.521
				c-0.191-0.364-0.44-0.646-0.748-0.846c-0.308-0.199-0.639-0.299-0.994-0.299c-0.59,0-1.058,0.224-1.404,0.67
				c-0.347,0.447-0.52,1.025-0.52,1.735c0,0.711,0.173,1.29,0.52,1.735c0.347,0.447,0.814,0.67,1.404,0.67
				c0.355,0,0.687-0.1,0.994-0.299S529.196,263.318,529.387,262.954z"/>
			<path fill="#585A5E" d="M531.857,260.198c-0.095-0.095-0.143-0.212-0.143-0.351s0.048-0.258,0.143-0.357
				c0.096-0.1,0.208-0.149,0.339-0.149c0.138,0,0.255,0.05,0.351,0.149c0.095,0.1,0.143,0.219,0.143,0.357s-0.048,0.256-0.143,0.351
				c-0.096,0.096-0.213,0.144-0.351,0.144C532.065,260.342,531.953,260.294,531.857,260.198z M531.857,264.476
				c-0.095-0.096-0.143-0.213-0.143-0.352s0.048-0.258,0.143-0.357c0.096-0.1,0.208-0.148,0.339-0.148
				c0.138,0,0.255,0.049,0.351,0.148c0.095,0.1,0.143,0.219,0.143,0.357s-0.048,0.256-0.143,0.352
				c-0.096,0.096-0.213,0.143-0.351,0.143C532.065,264.618,531.953,264.571,531.857,264.476z"/>
			<path fill="#222429" d="M540.138,256.13v0.598c-0.173-0.096-0.368-0.143-0.585-0.143c-0.312,0-0.565,0.11-0.761,0.331
				c-0.194,0.222-0.292,0.526-0.292,0.917v0.975h1.352v0.559H538.5v5.213h-0.637v-5.213h-0.937v-0.559h0.937v-1.04
				c0-0.521,0.15-0.942,0.454-1.268s0.693-0.487,1.171-0.487C539.722,256.013,539.938,256.052,540.138,256.13z"/>
			<path fill="#222429" d="M545.117,264.579h-0.624v-0.545c-0.139,0.164-0.355,0.312-0.65,0.441s-0.611,0.195-0.949,0.195
				c-0.606,0-1.113-0.162-1.521-0.488c-0.407-0.324-0.61-0.756-0.61-1.293c0-0.52,0.207-0.945,0.623-1.273
				c0.416-0.33,0.928-0.494,1.534-0.494c0.312,0,0.615,0.062,0.91,0.188c0.294,0.127,0.516,0.268,0.663,0.423v-1.026
				c0-0.434-0.128-0.783-0.384-1.047c-0.255-0.264-0.608-0.396-1.06-0.396c-0.719,0-1.188,0.33-1.404,0.988h-0.637
				c0.113-0.486,0.354-0.867,0.722-1.145s0.808-0.416,1.319-0.416c0.642,0,1.146,0.18,1.515,0.539
				c0.368,0.36,0.553,0.844,0.553,1.45V264.579z M544.493,263.267v-0.741c-0.096-0.251-0.289-0.457-0.578-0.617
				c-0.291-0.16-0.609-0.241-0.956-0.241c-0.442,0-0.817,0.107-1.124,0.319c-0.309,0.212-0.462,0.513-0.462,0.903
				s0.153,0.693,0.462,0.91c0.307,0.217,0.682,0.324,1.124,0.324c0.347,0,0.665-0.08,0.956-0.24
				C544.204,263.724,544.397,263.519,544.493,263.267z"/>
			<path fill="#222429" d="M547.874,256.13v8.449h-0.65v-8.449H547.874z"/>
			<path fill="#222429" d="M549.51,263.085h0.65c0.234,0.701,0.771,1.053,1.611,1.053c0.416,0,0.754-0.092,1.015-0.273
				c0.26-0.182,0.39-0.445,0.39-0.793c0-0.484-0.355-0.827-1.065-1.027l-1.079-0.299c-0.91-0.242-1.365-0.728-1.365-1.455
				c0-0.486,0.187-0.873,0.559-1.164c0.373-0.29,0.837-0.436,1.392-0.436c0.589,0,1.067,0.139,1.437,0.416
				c0.368,0.277,0.604,0.663,0.709,1.157h-0.638c-0.226-0.677-0.728-1.015-1.508-1.015c-0.382,0-0.698,0.09-0.949,0.268
				s-0.377,0.426-0.377,0.747c0,0.26,0.08,0.455,0.241,0.585c0.16,0.13,0.426,0.247,0.799,0.352l1.027,0.285
				c0.962,0.252,1.443,0.775,1.443,1.573c0,0.511-0.191,0.912-0.572,1.202c-0.382,0.291-0.871,0.436-1.469,0.436
				c-0.59,0-1.091-0.143-1.502-0.429C549.846,263.981,549.597,263.587,549.51,263.085z"/>
			<path fill="#222429" d="M559.312,262.903h0.624c-0.112,0.545-0.366,0.98-0.76,1.306c-0.395,0.325-0.887,0.487-1.476,0.487
				c-0.763,0-1.381-0.277-1.853-0.832c-0.473-0.555-0.709-1.277-0.709-2.171c0-0.875,0.232-1.595,0.695-2.157
				c0.464-0.564,1.081-0.846,1.853-0.846c0.745,0,1.322,0.258,1.729,0.773s0.61,1.198,0.61,2.048v0.233h-4.251
				c0.009,0.729,0.191,1.307,0.547,1.736c0.354,0.429,0.814,0.643,1.378,0.643c0.407,0,0.756-0.107,1.046-0.324
				S559.226,263.284,559.312,262.903z M557.687,259.263c-0.52,0-0.946,0.178-1.28,0.533s-0.535,0.836-0.604,1.443h3.575
				c-0.018-0.555-0.169-1.023-0.455-1.404C558.636,259.453,558.224,259.263,557.687,259.263z"/>
			<path fill="#696B6E" d="M566.411,264.501v-2.69c0-0.382,0.173-0.685,0.52-0.91c-0.347-0.208-0.52-0.511-0.52-0.909V257.3
				c0-0.391-0.183-0.586-0.546-0.586h-1.47v-0.584h1.456c0.347,0,0.631,0.112,0.852,0.338c0.222,0.225,0.332,0.516,0.332,0.871
				v2.678c0,0.391,0.182,0.585,0.546,0.585h0.546v0.599h-0.546c-0.364,0-0.546,0.194-0.546,0.584v2.678
				c0,0.355-0.11,0.646-0.332,0.871c-0.221,0.227-0.505,0.338-0.852,0.338h-1.456v-0.584h1.47
				C566.228,265.087,566.411,264.892,566.411,264.501z"/>
		</g>
	</g>
	<rect fill="none" stroke="#989A9E" stroke-width="0.25" stroke-miterlimit="10" width="798.382" height="409.964"/>
	<g>
		<g>
			<path fill="#585A5E" d="M36.615,204.72v-8.596h2.898c1.269,0,2.282,0.391,3.038,1.17c0.756,0.779,1.134,1.822,1.134,3.129
				s-0.378,2.35-1.134,3.129c-0.756,0.779-1.769,1.168-3.038,1.168H36.615z M38.071,203.419h1.386c0.887,0,1.57-0.267,2.051-0.799
				c0.48-0.531,0.721-1.265,0.721-2.197c0-0.934-0.24-1.669-0.721-2.205c-0.481-0.537-1.165-0.806-2.051-0.806h-1.386V203.419z"/>
			<path fill="#585A5E" d="M51.483,197.237c0.747,0.836,1.12,1.896,1.12,3.186c0,1.287-0.374,2.35-1.12,3.185
				c-0.747,0.835-1.699,1.253-2.856,1.253c-1.158,0-2.107-0.418-2.849-1.253s-1.113-1.897-1.113-3.185
				c0-1.289,0.371-2.35,1.113-3.186s1.691-1.253,2.849-1.253C49.784,195.984,50.736,196.401,51.483,197.237z M50.44,202.677
				c0.462-0.588,0.693-1.34,0.693-2.254c0-0.915-0.231-1.666-0.693-2.254c-0.462-0.589-1.066-0.883-1.813-0.883
				c-0.747,0-1.349,0.292-1.806,0.875c-0.458,0.584-0.686,1.337-0.686,2.262c0,0.924,0.229,1.678,0.686,2.26
				c0.457,0.584,1.059,0.875,1.806,0.875C49.374,203.558,49.978,203.265,50.44,202.677z"/>
			<path fill="#585A5E" d="M60.401,197.237c0.747,0.836,1.12,1.896,1.12,3.186c0,1.287-0.374,2.35-1.12,3.185
				c-0.747,0.835-1.699,1.253-2.856,1.253c-1.158,0-2.107-0.418-2.849-1.253s-1.113-1.897-1.113-3.185
				c0-1.289,0.371-2.35,1.113-3.186s1.691-1.253,2.849-1.253C58.702,195.984,59.654,196.401,60.401,197.237z M59.358,202.677
				c0.462-0.588,0.693-1.34,0.693-2.254c0-0.915-0.231-1.666-0.693-2.254c-0.462-0.589-1.066-0.883-1.813-0.883
				c-0.747,0-1.349,0.292-1.806,0.875c-0.458,0.584-0.686,1.337-0.686,2.262c0,0.924,0.229,1.678,0.686,2.26
				c0.457,0.584,1.059,0.875,1.806,0.875C58.292,203.558,58.896,203.265,59.358,202.677z"/>
			<path fill="#585A5E" d="M65.455,201.234h-1.036v3.485h-1.456v-8.596h3.318c0.905,0,1.619,0.223,2.142,0.665
				c0.522,0.443,0.784,1.081,0.784,1.911c0,0.709-0.194,1.271-0.581,1.688c-0.388,0.415-0.927,0.679-1.617,0.791l2.492,3.541h-1.652
				L65.455,201.234z M64.419,197.384v2.633h1.834c0.476,0,0.847-0.119,1.113-0.357s0.399-0.558,0.399-0.959
				s-0.133-0.721-0.399-0.959s-0.637-0.357-1.113-0.357H64.419z"/>
			<path fill="#585A5E" d="M73.154,202.341h1.484c0.271,0.858,0.919,1.287,1.946,1.287c0.504,0,0.908-0.113,1.211-0.343
				c0.303-0.229,0.455-0.539,0.455-0.931c0-0.309-0.096-0.553-0.287-0.735s-0.511-0.324-0.959-0.427l-1.456-0.35
				c-1.428-0.336-2.142-1.106-2.142-2.311c0-0.737,0.273-1.346,0.819-1.827c0.546-0.48,1.248-0.721,2.107-0.721
				c0.905,0,1.636,0.212,2.191,0.637s0.912,1.006,1.071,1.743h-1.456c-0.271-0.766-0.868-1.148-1.792-1.148
				c-0.467,0-0.843,0.11-1.127,0.33c-0.285,0.219-0.427,0.506-0.427,0.86c0,0.569,0.378,0.942,1.134,1.12l1.498,0.35
				c0.7,0.159,1.246,0.439,1.638,0.84c0.392,0.402,0.588,0.915,0.588,1.541c0,0.793-0.285,1.426-0.854,1.896
				s-1.307,0.707-2.212,0.707c-0.915,0-1.678-0.222-2.289-0.665S73.304,203.134,73.154,202.341z"/>
			<path fill="#585A5E" d="M80.42,197.412v-1.288h7.168v1.288h-2.856v7.308h-1.456v-7.308H80.42z"/>
			<path fill="#585A5E" d="M90.752,196.124h1.4l3.304,8.596h-1.484l-0.882-2.379H89.8l-0.882,2.379h-1.47L90.752,196.124z
				 M91.438,197.902l-1.176,3.178h2.352L91.438,197.902z"/>
			<path fill="#585A5E" d="M95.316,197.412v-1.288h7.168v1.288h-2.856v7.308h-1.456v-7.308H95.316z"/>
			<path fill="#585A5E" d="M103.856,196.124h5.614v1.288h-4.186v2.269h3.794v1.273h-3.794v2.465h4.186v1.301h-5.614V196.124z"/>
		</g>
	</g>
	<g>
		<g>
			
				<line fill="none" stroke="#585A5E" stroke-width="1.5" stroke-miterlimit="10" x1="113.821" y1="201.353" x2="153.006" y2="201.353"/>
			<g>
				<polygon fill="#585A5E" points="151.89,205.167 158.496,201.353 151.89,197.538 				"/>
			</g>
		</g>
	</g>
</g>
</svg>
