<?xml version="1.0" encoding="utf-8"?>
<!-- Generator: Adobe Illustrator 16.0.0, SVG Export Plug-In . SVG Version: 6.00 Build 0)  -->
<!DOCTYPE svg PUBLIC "-//W3C//DTD SVG 1.1//EN" "http://www.w3.org/Graphics/SVG/1.1/DTD/svg11.dtd">
<svg version="1.1" xmlns="http://www.w3.org/2000/svg" xmlns:xlink="http://www.w3.org/1999/xlink" x="0px" y="0px"
	 width="580.471px" height="302.207px" viewBox="0 0 580.471 302.207" enable-background="new 0 0 580.471 302.207"
	 xml:space="preserve">
<g id="_x32__1_" display="none">
	<g display="inline">
		
			<rect x="-100.796" y="27.601" fill="none" stroke="#A6A8AB" stroke-width="0.15" stroke-miterlimit="10" width="437.965" height="246.645"/>
		<rect x="-53.797" y="91.6" fill="#E6E6E6" width="337.968" height="132.645"/>
		<g>
			<text transform="matrix(1 0 0 1 -54.6045 86.9604)" fill="#585A5E" font-family="'Calibre-Medium'" font-size="14">BOOLEAN</text>
		</g>
		<g>
			<g>
				<g>
					<rect x="6.811" y="142.403" fill="#FFFFFF" width="99.075" height="33.527"/>
					<text transform="matrix(1 0 0 1 45.9043 163.2222)" fill="#222429" font-family="'Calibre-Light'" font-size="13">true</text>
				</g>
				<g>
					<rect x="124.29" y="142.403" fill="#FFFFFF" width="99.08" height="33.527"/>
					<text transform="matrix(1 0 0 1 161.8643 163.2222)" fill="#222429" font-family="'Calibre-Light'" font-size="13">false</text>
				</g>
			</g>
		</g>
	</g>
</g>
<g id="_x32__copy">
	<ellipse fill="#E6E6E6" cx="299.804" cy="154.141" rx="138.174" ry="101.143"/>
	<g>
		<g>
			
				<line fill="none" stroke="#585A5E" stroke-width="2" stroke-miterlimit="10" x1="114.608" y1="152.446" x2="154.31" y2="152.446"/>
			<g>
				<polygon fill="#585A5E" points="152.822,157.532 161.63,152.446 152.822,147.36 				"/>
			</g>
		</g>
	</g>
	<rect fill="none" stroke="#989A9E" stroke-width="0.25" stroke-miterlimit="10" width="580.471" height="302.207"/>
	<g>
		<g>
			<path fill="#585A5E" d="M68.871,155.304v0.532h-1.399v-9.1h1.399v3.416c0.149-0.187,0.368-0.345,0.657-0.476
				c0.29-0.13,0.598-0.196,0.925-0.196c0.887,0,1.589,0.311,2.106,0.931c0.519,0.621,0.777,1.393,0.777,2.317
				c0,0.924-0.259,1.696-0.777,2.317c-0.518,0.621-1.22,0.931-2.106,0.931c-0.327,0-0.635-0.065-0.925-0.196
				C69.239,155.65,69.021,155.491,68.871,155.304z M68.871,151.552v2.352c0.121,0.243,0.304,0.441,0.546,0.595
				c0.242,0.154,0.509,0.231,0.798,0.231c0.532,0,0.952-0.187,1.261-0.56c0.308-0.373,0.461-0.854,0.461-1.442
				s-0.153-1.069-0.461-1.442c-0.309-0.374-0.729-0.56-1.261-0.56c-0.289,0-0.556,0.077-0.798,0.231
				C69.175,151.111,68.992,151.31,68.871,151.552z"/>
			<path fill="#585A5E" d="M79.294,150.391c0.546,0.606,0.818,1.386,0.818,2.338s-0.272,1.731-0.818,2.338
				c-0.546,0.607-1.258,0.91-2.135,0.91s-1.59-0.303-2.135-0.91c-0.547-0.606-0.819-1.386-0.819-2.338s0.272-1.731,0.819-2.338
				c0.545-0.607,1.258-0.91,2.135-0.91S78.748,149.784,79.294,150.391z M78.308,154.206c0.27-0.378,0.405-0.87,0.405-1.477
				c0-0.606-0.136-1.099-0.405-1.477c-0.271-0.378-0.654-0.567-1.148-0.567c-0.495,0-0.877,0.189-1.148,0.567
				c-0.271,0.378-0.406,0.871-0.406,1.477c0,0.607,0.136,1.099,0.406,1.477c0.271,0.378,0.653,0.567,1.148,0.567
				C77.653,154.772,78.036,154.583,78.308,154.206z"/>
			<path fill="#585A5E" d="M86.069,150.391c0.547,0.606,0.819,1.386,0.819,2.338s-0.272,1.731-0.819,2.338
				c-0.545,0.607-1.258,0.91-2.135,0.91s-1.589-0.303-2.135-0.91c-0.546-0.606-0.818-1.386-0.818-2.338s0.272-1.731,0.818-2.338
				c0.546-0.607,1.258-0.91,2.135-0.91S85.524,149.784,86.069,150.391z M85.083,154.206c0.271-0.378,0.406-0.87,0.406-1.477
				c0-0.606-0.136-1.099-0.406-1.477c-0.271-0.378-0.653-0.567-1.148-0.567c-0.494,0-0.877,0.189-1.147,0.567
				s-0.406,0.871-0.406,1.477c0,0.607,0.136,1.099,0.406,1.477s0.653,0.567,1.147,0.567
				C84.43,154.772,84.812,154.583,85.083,154.206z"/>
			<path fill="#585A5E" d="M89.591,146.736v9.1h-1.4v-9.1H89.591z"/>
			<path fill="#585A5E" d="M95.163,153.904h1.287c-0.111,0.635-0.395,1.139-0.847,1.512c-0.452,0.374-1.043,0.56-1.771,0.56
				c-0.869,0-1.576-0.299-2.121-0.896c-0.547-0.597-0.819-1.377-0.819-2.338c0-0.933,0.274-1.71,0.825-2.331
				s1.246-0.931,2.087-0.931c0.858,0,1.523,0.278,1.995,0.833c0.471,0.555,0.707,1.3,0.707,2.233v0.504h-4.242
				c0.019,0.542,0.17,0.969,0.455,1.281c0.284,0.312,0.655,0.469,1.113,0.469C94.569,154.8,95.013,154.502,95.163,153.904z
				 M93.818,150.656c-0.392,0-0.721,0.119-0.987,0.357c-0.266,0.238-0.44,0.577-0.524,1.015h2.813
				c-0.009-0.401-0.125-0.73-0.35-0.987S94.229,150.656,93.818,150.656z"/>
			<path fill="#585A5E" d="M102.582,155.836h-1.329v-0.35c-0.113,0.112-0.315,0.217-0.609,0.315
				c-0.295,0.098-0.604,0.147-0.932,0.147c-0.662,0-1.215-0.184-1.658-0.553s-0.666-0.861-0.666-1.477
				c0-0.579,0.231-1.057,0.693-1.435c0.463-0.378,1.039-0.567,1.729-0.567c0.271,0,0.547,0.04,0.826,0.119
				c0.281,0.079,0.486,0.166,0.617,0.259v-0.504c0-0.327-0.104-0.595-0.309-0.805s-0.5-0.315-0.882-0.315
				c-0.552,0-0.905,0.224-1.064,0.672h-1.344c0.093-0.541,0.366-0.987,0.819-1.337c0.452-0.35,0.991-0.525,1.617-0.525
				c0.783,0,1.395,0.203,1.834,0.609c0.438,0.406,0.657,0.964,0.657,1.673V155.836z M101.253,154.185v-0.518
				c-0.076-0.187-0.234-0.338-0.477-0.455s-0.509-0.175-0.799-0.175c-0.345,0-0.646,0.075-0.902,0.224
				c-0.257,0.149-0.385,0.369-0.385,0.658c0,0.29,0.126,0.511,0.378,0.665c0.252,0.154,0.556,0.231,0.909,0.231
				c0.29,0,0.557-0.058,0.799-0.175S101.177,154.371,101.253,154.185z"/>
			<path fill="#585A5E" d="M104.234,155.836v-6.216h1.399v0.588c0.42-0.485,0.98-0.728,1.681-0.728c0.69,0,1.229,0.21,1.616,0.63
				c0.388,0.42,0.582,0.98,0.582,1.68v4.046h-1.4v-3.808c0-0.401-0.098-0.714-0.294-0.938s-0.49-0.336-0.882-0.336
				c-0.309,0-0.584,0.091-0.826,0.273c-0.243,0.182-0.401,0.422-0.477,0.721v4.088H104.234z"/>
		</g>
	</g>
	<g>
		<g>
			<rect x="200.338" y="115.784" fill="#FFFFFF" width="99.075" height="33.527"/>
			<g>
				<path fill="#222429" d="M240.614,135.263v-3.874h-0.975v-0.559h0.975v-1.482h0.637v1.482h1.496v0.559h-1.496v3.809
					c0,0.624,0.277,0.936,0.832,0.936c0.277,0,0.542-0.074,0.793-0.221v0.611c-0.242,0.13-0.527,0.195-0.857,0.195
					c-0.434,0-0.775-0.124-1.027-0.371C240.74,136.102,240.614,135.74,240.614,135.263z"/>
				<path fill="#222429" d="M247.258,130.791v0.637c-0.165-0.069-0.343-0.104-0.533-0.104c-0.347,0-0.654,0.113-0.923,0.338
					c-0.27,0.226-0.473,0.529-0.611,0.91v4.03h-0.65v-5.772h0.65v0.923c0.139-0.303,0.347-0.552,0.624-0.748
					c0.277-0.195,0.589-0.292,0.937-0.292C246.915,130.713,247.084,130.739,247.258,130.791z"/>
				<path fill="#222429" d="M253.186,130.83v5.772h-0.638v-0.923c-0.189,0.294-0.445,0.542-0.767,0.741
					c-0.32,0.199-0.676,0.299-1.065,0.299c-0.642,0-1.136-0.188-1.482-0.566c-0.347-0.377-0.52-0.877-0.52-1.501v-3.822h0.637v3.731
					c0,0.468,0.123,0.845,0.371,1.131c0.246,0.286,0.617,0.429,1.111,0.429c0.381,0,0.725-0.117,1.033-0.351
					c0.307-0.234,0.535-0.533,0.682-0.897v-4.043H253.186z"/>
				<path fill="#222429" d="M259.114,134.925h0.623c-0.112,0.546-0.365,0.981-0.76,1.306c-0.395,0.325-0.887,0.488-1.477,0.488
					c-0.762,0-1.379-0.277-1.852-0.832s-0.709-1.278-0.709-2.171c0-0.875,0.232-1.594,0.695-2.158
					c0.464-0.563,1.082-0.845,1.854-0.845c0.744,0,1.32,0.258,1.729,0.773c0.407,0.516,0.611,1.198,0.611,2.048v0.234h-4.252
					c0.009,0.728,0.191,1.307,0.547,1.735c0.355,0.429,0.814,0.644,1.377,0.644c0.408,0,0.757-0.108,1.047-0.325
					C258.839,135.605,259.026,135.307,259.114,134.925z M257.489,131.285c-0.521,0-0.947,0.178-1.281,0.533
					c-0.334,0.355-0.535,0.836-0.604,1.443h3.575c-0.018-0.555-0.169-1.023-0.455-1.404S258.026,131.285,257.489,131.285z"/>
			</g>
		</g>
		<g>
			<rect x="300.188" y="161.36" fill="#FFFFFF" width="99.08" height="33.527"/>
			<g>
				<path fill="#222429" d="M341.286,173.728v0.598c-0.174-0.095-0.369-0.143-0.585-0.143c-0.312,0-0.565,0.111-0.761,0.332
					c-0.195,0.221-0.293,0.526-0.293,0.917v0.976H341v0.559h-1.353v5.213h-0.637v-5.213h-0.936v-0.559h0.936v-1.041
					c0-0.52,0.152-0.942,0.455-1.268c0.304-0.325,0.693-0.487,1.17-0.487C340.87,173.611,341.087,173.65,341.286,173.728z"/>
				<path fill="#222429" d="M346.266,182.178h-0.624v-0.546c-0.139,0.165-0.355,0.312-0.65,0.442
					c-0.295,0.129-0.611,0.194-0.949,0.194c-0.606,0-1.113-0.162-1.521-0.487s-0.61-0.756-0.61-1.293
					c0-0.521,0.207-0.945,0.623-1.274s0.928-0.494,1.534-0.494c0.312,0,0.615,0.063,0.91,0.188c0.294,0.126,0.516,0.267,0.663,0.422
					v-1.026c0-0.433-0.128-0.782-0.384-1.046c-0.255-0.265-0.608-0.396-1.06-0.396c-0.719,0-1.188,0.329-1.404,0.987h-0.637
					c0.113-0.485,0.354-0.866,0.722-1.144s0.808-0.416,1.319-0.416c0.642,0,1.146,0.18,1.515,0.539s0.553,0.844,0.553,1.449V182.178
					z M345.642,180.866v-0.742c-0.096-0.25-0.289-0.457-0.578-0.617c-0.291-0.16-0.609-0.24-0.956-0.24
					c-0.442,0-0.817,0.106-1.124,0.318c-0.309,0.213-0.462,0.514-0.462,0.904c0,0.39,0.153,0.693,0.462,0.91
					c0.307,0.216,0.682,0.324,1.124,0.324c0.347,0,0.665-0.08,0.956-0.24C345.353,181.323,345.546,181.117,345.642,180.866z"/>
				<path fill="#222429" d="M349.021,173.728v8.45h-0.65v-8.45H349.021z"/>
				<path fill="#222429" d="M350.659,180.683h0.65c0.233,0.702,0.771,1.054,1.611,1.054c0.416,0,0.754-0.092,1.014-0.273
					s0.391-0.446,0.391-0.793c0-0.485-0.355-0.828-1.066-1.027l-1.078-0.299c-0.91-0.242-1.365-0.729-1.365-1.456
					c0-0.485,0.186-0.873,0.559-1.163c0.373-0.291,0.836-0.436,1.391-0.436c0.59,0,1.068,0.139,1.438,0.416
					c0.367,0.277,0.604,0.662,0.708,1.156h-0.638c-0.225-0.676-0.728-1.014-1.508-1.014c-0.381,0-0.697,0.089-0.949,0.267
					c-0.251,0.178-0.377,0.427-0.377,0.747c0,0.26,0.08,0.455,0.241,0.586c0.16,0.129,0.427,0.246,0.8,0.351l1.026,0.286
					c0.962,0.251,1.443,0.775,1.443,1.572c0,0.512-0.19,0.912-0.572,1.203s-0.871,0.436-1.469,0.436c-0.59,0-1.091-0.143-1.501-0.43
					C350.995,181.581,350.745,181.186,350.659,180.683z"/>
				<path fill="#222429" d="M360.461,180.501h0.624c-0.113,0.546-0.366,0.981-0.761,1.306c-0.395,0.326-0.886,0.488-1.476,0.488
					c-0.763,0-1.38-0.277-1.853-0.832c-0.472-0.555-0.708-1.278-0.708-2.172c0-0.875,0.231-1.594,0.695-2.157
					c0.463-0.563,1.081-0.845,1.853-0.845c0.745,0,1.321,0.258,1.729,0.773c0.406,0.516,0.61,1.197,0.61,2.047v0.234h-4.251
					c0.008,0.729,0.19,1.307,0.546,1.735s0.814,0.644,1.378,0.644c0.407,0,0.756-0.108,1.047-0.324
					C360.186,181.182,360.374,180.883,360.461,180.501z M358.836,176.862c-0.521,0-0.947,0.178-1.28,0.532
					c-0.334,0.355-0.535,0.837-0.605,1.443h3.576c-0.018-0.555-0.17-1.022-0.455-1.404
					C359.784,177.051,359.373,176.862,358.836,176.862z"/>
			</g>
		</g>
	</g>
</g>
</svg>
