<?xml version="1.0" encoding="UTF-8"?>
<svg width="150" height="100" version="1.1" viewBox="0 0 39.688 26.458" xml:space="preserve" xmlns="http://www.w3.org/2000/svg" xmlns:xlink="http://www.w3.org/1999/xlink"><defs><marker id="a" overflow="visible" markerHeight="1" markerWidth="1" orient="auto-start-reverse" preserveAspectRatio="xMidYMid" viewBox="0 0 1 1"><path transform="scale(.5)" d="m6 0c-3 1-7 3-9 5 0 0 0-4 2-5-2-1-2-5-2-5 2 2 6 4 9 5z" fill="context-stroke" fill-rule="evenodd" stroke="context-stroke" stroke-width="1pt"/></marker><pattern id="b" xlink:href="#c" patternTransform="matrix(.06 0 0 .06 -2.2614 .66552)" preserveAspectRatio="xMidYMid"/><pattern id="c" width="24" height="10" fill="#20b6b0" patternUnits="userSpaceOnUse" preserveAspectRatio="xMidYMid"><g><path d="m12-2c-2.8333 0-4.832 1.4355-6.582 2.6855-1.75 1.25-3.2513 2.3145-5.418 2.3145v2c2.8333 0 4.832-1.4355 6.582-2.6855 1.75-1.25 3.2513-2.3145 5.418-2.3145 2.1667 0 3.668 1.0645 5.418 2.3145 1.75 1.25 3.7487 2.6855 6.582 2.6855v-2c-2.1667 0-3.668-1.0645-5.418-2.3145-1.75-1.25-3.7487-2.6855-6.582-2.6855z"/><path d="m12 3c-2.8333 0-4.832 1.4355-6.582 2.6855-1.75 1.25-3.2513 2.3145-5.418 2.3145v2c2.8333 0 4.832-1.4355 6.582-2.6855 1.75-1.25 3.2513-2.3145 5.418-2.3145 2.1667 0 3.668 1.0645 5.418 2.3145 1.75 1.25 3.7487 2.6855 6.582 2.6855v-2c-2.1667 0-3.668-1.0645-5.418-2.3145-1.75-1.25-3.7487-2.6855-6.582-2.6855z"/><path d="m12 8c-2.8333 0-4.832 1.4355-6.582 2.6855-1.75 1.25-3.2513 2.3145-5.418 2.3145v2c2.8333 0 4.832-1.4355 6.582-2.6855 1.75-1.25 3.2513-2.3145 5.418-2.3145 2.1667 0 3.668 1.0645 5.418 2.3145s3.7487 2.6855 6.582 2.6855v-2c-2.1667 0-3.668-1.0645-5.418-2.3145-1.75-1.25-3.7487-2.6855-6.582-2.6855z"/></g></pattern></defs><rect transform="rotate(45)" x="17.148" y="-1.5233" width="3.0843" height="3.0843" fill="#20b6b0"/><path d="m21.533 7.7478-8.3584 5.547 8.364 5.52" fill="none" marker-end="url(#a)" marker-start="url(#a)" stroke="#20b6b0" stroke-width=".66491"/><g fill="#20b6b0"><rect transform="rotate(45)" x="21.222" y="-15.562" width="3.0843" height="3.0843"/><rect transform="rotate(45)" x="28.27" y="-12.646" width="3.0843" height="3.0843"/><rect transform="rotate(45)" x="31.186" y="-5.5973" width="3.0843" height="3.0843"/></g><path d="m13.399 13.361 10.599-0.1438" fill="none" marker-end="url(#a)" stroke="#20b6b0" stroke-width=".66491"/><path d="m5.2965 10.092c0 1.0954 8.25e-4 2.0973 0.52182 2.702h-4.0453l-0.03309 0.8697h4.1025c-0.54526 0.65752-0.54504 1.7788-0.54591 2.702l5.6012-3.1369z" fill="url(#b)"/></svg>
