<?xml version="1.0" encoding="UTF-8" standalone="no"?>
<svg
   width="150"
   height="100"
   version="1.1"
   viewBox="0 0 39.688 26.458"
   xml:space="preserve"
   id="svg4"
   sodipodi:docname="selective-consumer.svg"
   inkscape:version="1.3 (0e150ed, 2023-07-21)"
   xmlns:inkscape="http://www.inkscape.org/namespaces/inkscape"
   xmlns:sodipodi="http://sodipodi.sourceforge.net/DTD/sodipodi-0.dtd"
   xmlns:xlink="http://www.w3.org/1999/xlink"
   xmlns="http://www.w3.org/2000/svg"
   xmlns:svg="http://www.w3.org/2000/svg"><sodipodi:namedview
     id="namedview4"
     pagecolor="#ffffff"
     bordercolor="#000000"
     borderopacity="0.25"
     inkscape:showpageshadow="2"
     inkscape:pageopacity="0.0"
     inkscape:pagecheckerboard="0"
     inkscape:deskcolor="#d1d1d1"
     inkscape:zoom="2.9844731"
     inkscape:cx="76.22786"
     inkscape:cy="106.55147"
     inkscape:window-width="1680"
     inkscape:window-height="977"
     inkscape:window-x="0"
     inkscape:window-y="38"
     inkscape:window-maximized="0"
     inkscape:current-layer="g2" /><defs
     id="defs1"><marker
       id="a"
       overflow="visible"
       markerHeight="1"
       markerWidth="1"
       orient="auto-start-reverse"
       preserveAspectRatio="xMidYMid"
       viewBox="0 0 1 1"><path
         transform="scale(.5)"
         d="m6 0c-3 1-7 3-9 5 0 0 0-4 2-5-2-1-2-5-2-5 2 2 6 4 9 5z"
         fill="context-stroke"
         fill-rule="evenodd"
         stroke="context-stroke"
         stroke-width="1pt"
         id="path1" /></marker><pattern
       inkscape:collect="always"
       xlink:href="#Wave-0"
       preserveAspectRatio="xMidYMid"
       id="pattern1-9"
       patternTransform="matrix(0.06,0,0,0.06,-2.26142,0.47798713)"
       x="0"
       y="0" /><pattern
       patternUnits="userSpaceOnUse"
       width="24"
       height="10"
       preserveAspectRatio="xMidYMid"
       id="Wave-0"
       style="fill:#20b6b0"
       x="0"
       y="0"
       inkscape:collect="always"
       inkscape:isstock="true"
       inkscape:label="Wave"><g
         id="wave_g-5"
         style="display:inline"><path
           d="M 12,-2 C 9.1666695,-2 7.1679672,-0.56445187 5.4179687,0.68554687 3.6679703,1.9355456 2.1666645,3 0,3 V 5 C 2.8333305,5 4.8320328,3.5644519 6.5820312,2.3144531 8.3320297,1.0644544 9.8333355,0 12,0 14.166665,0 15.667971,1.0644544 17.417969,2.3144531 19.167967,3.5644519 21.166669,5 24,5 V 3 C 21.833335,3 20.332029,1.9355456 18.582031,0.68554687 16.832033,-0.56445189 14.833331,-2 12,-2 Z"
           id="path3-5" /><path
           d="M 12,3 C 9.1666695,3 7.1679672,4.4355481 5.4179687,5.6855469 3.6679703,6.9355456 2.1666645,8 0,8 v 2 C 2.8333305,10 4.8320328,8.5644519 6.5820312,7.3144531 8.3320297,6.0644544 9.8333355,5 12,5 14.166665,5 15.667971,6.0644544 17.417969,7.3144531 19.167967,8.5644519 21.166669,10 24,10 V 8 C 21.833335,8 20.332029,6.9355456 18.582031,5.6855469 16.832033,4.4355481 14.833331,3 12,3 Z"
           id="path4-6" /><path
           d="M 12,8 C 9.1666695,8 7.1679672,9.4355481 5.4179687,10.685547 3.6679703,11.935546 2.1666645,13 0,13 v 2 C 2.8333305,15 4.8320328,13.564452 6.5820312,12.314453 8.3320297,11.064454 9.8333355,10 12,10 c 2.166665,0 3.667971,1.064454 5.417969,2.314453 C 19.167967,13.564452 21.166669,15 24,15 V 13 C 21.833335,13 20.332029,11.935546 18.582031,10.685547 16.832033,9.4355481 14.833331,8 12,8 Z"
           id="path5-3" /></g></pattern></defs><g
     id="g3"><g
       id="g2"
       transform="translate(2.9149379,26.010215)"><g
         id="g4"
         transform="translate(2.8883726,0.18752928)"><rect
           transform="rotate(45,29.939638,-16.523749)"
           x="28.885925"
           y="-13.526801"
           width="3.0843"
           height="3.0843"
           id="rect3"
           style="fill:#20b6b0" /><path
           d="m 20.807685,13.144039 4.249061,-0.1438"
           fill="none"
           marker-end="url(#a)"
           stroke="#20b6b0"
           stroke-width="0.66491"
           id="path4"
           sodipodi:nodetypes="cc"
           transform="translate(-2.9149379,-26.010215)" /><path
           id="path25-2"
           style="fill:url(#pattern1-9);fill-opacity:1;fill-rule:nonzero;stroke:none;stroke-width:0.109138;stroke-dasharray:none;stroke-dashoffset:0;stroke-opacity:1"
           d="m 5.296543,9.9045872 c 0,1.0953528 8.25e-4,2.0973388 0.521819,2.7020348 H 1.773089 l -0.03309,0.869698 h 4.102456 c -0.545263,0.65752 -0.54504,1.778845 -0.545906,2.702034 l 5.601241,-3.136883 z"
           sodipodi:nodetypes="cccccccc"
           transform="translate(-2.9149379,-26.010215)" /><circle
           style="fill:none;stroke:#20b6b0;stroke-width:0.664906"
           id="path2"
           cx="13.418773"
           cy="-12.968744"
           r="4.7648025" /><text
           xml:space="preserve"
           style="font-size:3.17504px;font-family:Helvetica;-inkscape-font-specification:'Helvetica, Normal';fill:none;stroke:#20b6b0;stroke-width:0.664906"
           x="11.2113"
           y="-10.090503"
           id="text2"><tspan
             sodipodi:role="line"
             id="tspan2"
             style="font-style:normal;font-variant:normal;font-weight:normal;font-stretch:normal;font-size:7.76121px;font-family:Sans;-inkscape-font-specification:'Sans, Normal';font-variant-ligatures:normal;font-variant-caps:normal;font-variant-numeric:normal;font-variant-east-asian:normal;fill:#20b6b0;fill-opacity:1;stroke:none;stroke-width:0.664906"
             x="11.2113"
             y="-10.090503">?</tspan></text></g></g></g></svg>
