<?xml version="1.0" encoding="utf-8"?>
<!-- Generator: Adobe Illustrator 28.0.0, SVG Export Plug-In . SVG Version: 6.00 Build 0)  -->
<svg version="1.1" id="Layer_1" xmlns="http://www.w3.org/2000/svg" xmlns:xlink="http://www.w3.org/1999/xlink" x="0px" y="0px"
	 viewBox="0 0 1200 800" style="enable-background:new 0 0 1200 800;" xml:space="preserve">
<style type="text/css">
	.st0{fill:#464646;}
	.st1{fill:#53C3C2;}
	.st2{fill:none;stroke:#BE1E2D;stroke-width:8;stroke-miterlimit:10;}
</style>
<g>
	<g>
		<g>
			<g>
				<g>
					<path class="st0" d="M407.3,454.1h-57.9V330.9h54.8c31.1,0,44.4,13.3,44.4,33.4c0,13.9-9.4,23.7-22.7,25.8
						c14.9,2.7,26.4,12.5,26.4,30.1C452.2,441.6,436,454.1,407.3,454.1z M373.2,382.2h29.3c14.7,0,20.9-6.5,20.9-15.6
						c0-9.2-6.3-15.8-20.9-15.8h-29.3V382.2z M373.2,400.7v33.6h31.3c15.3,0,22.7-6.5,22.7-16.6c0-10.4-7.4-17-22.7-17H373.2z"/>
					<path class="st0" d="M539.9,433.2c0,4.5,2.3,6.6,6.1,6.6c2.3,0,4.7-0.6,7.2-1.8v12.5c-3.7,2.9-8.4,5.5-16.2,5.5
						c-9.8,0-17.2-6.3-19-16.6c-4.9,10.2-15.8,16.8-30.1,16.8c-16.4,0-27.4-8.8-27.4-23.7c0-16.4,12.9-23.3,32.9-27l23.7-4.5v-2.5
						c0-9.6-5.1-15.4-15.1-15.4c-9.8,0-15.1,5.9-17,14.3l-21.3-2c2.9-17.6,16.4-29.9,39.3-29.9c22.3,0,37,10.6,37,33.2V433.2z
						 M517,413.9l-16.2,3.3c-10.8,2.1-17.4,4.9-17.4,12.9c0,6.1,4.3,10.6,11.9,10.6c12.3,0,21.7-9.2,21.7-23.9V413.9z"/>
					<path class="st0" d="M732.1,425.4c-4.3,19.6-19.6,31.1-41.6,31.1c-26.6,0-45.8-17-45.8-44.2c0-27.2,19.4-46.7,45.2-46.7
						c28.2,0,42.6,19.6,42.6,43v7.4h-64.7c0.8,14.1,10.8,22.7,23.5,22.7c11.5,0,18.6-5.1,21.9-15.2L732.1,425.4z M709.6,403.7
						c-0.4-11.1-6.8-20.9-19.9-20.9c-12.9,0-20.1,9.4-21.5,20.9H709.6z"/>
					<path class="st0" d="M805.7,391c-4.5-2.5-8.4-3.7-14.1-3.7c-12.1,0-20.3,8.6-20.3,24.2v42.6h-23.5v-86.2h23.5v16.4
						c3.1-9.8,12.1-18.8,24-18.8c5.3,0,9.6,1.4,12.1,3.5L805.7,391z"/>
					<path class="st0" d="M817.3,330.9h24.1v22.9h-24.1V330.9z M841.2,367.9v86.2h-23.5v-86.2H841.2z"/>
					<path class="st0" d="M884,454.1h-23.5v-86.2H884V382c4.3-9.8,15.3-16.4,28.2-16.4c23.1,0,31.5,15.6,31.5,34.8v53.8h-23.5v-49.1
						c0-13.3-5.3-20.9-16.8-20.9c-11.9,0-19.4,9.4-19.4,23.9V454.1z"/>
					<path class="st0" d="M1036.9,433.2c0,4.5,2.3,6.6,6.1,6.6c2.3,0,4.7-0.6,7.2-1.8v12.5c-3.7,2.9-8.4,5.5-16.2,5.5
						c-9.8,0-17.2-6.3-19-16.6c-4.9,10.2-15.8,16.8-30.1,16.8c-16.4,0-27.4-8.8-27.4-23.7c0-16.4,12.9-23.3,32.9-27l23.7-4.5v-2.5
						c0-9.6-5.1-15.4-15.1-15.4c-9.8,0-15.1,5.9-17,14.3l-21.3-2c2.9-17.6,16.4-29.9,39.3-29.9c22.3,0,37,10.6,37,33.2V433.2z
						 M1014,413.9l-16.2,3.3c-10.8,2.1-17.4,4.9-17.4,12.9c0,6.1,4.3,10.6,11.9,10.6c12.3,0,21.7-9.2,21.7-23.9V413.9z"/>
				</g>
				<g>
					<polygon class="st0" points="563.4,363 563.4,327.4 593.2,327.4 593.2,374.4 					"/>
					<polygon class="st0" points="563.4,374.1 583.8,381.9 563.4,389.7 					"/>
					<polygon class="st0" points="593.2,389.4 593.2,406.7 578.7,454.1 563.4,454.1 563.4,400.8 					"/>
				</g>
				<g>
					<polygon class="st0" points="633.3,363 633.3,327.4 603.5,327.4 603.5,374.4 					"/>
					<polygon class="st0" points="633.3,374.1 612.9,381.9 633.3,389.7 					"/>
					<polygon class="st0" points="603.5,389.4 603.5,406.7 618,454.1 633.3,454.1 633.3,400.8 					"/>
				</g>
			</g>
		</g>
	</g>
	<g>
		<g>
			<path class="st1" d="M707.3,523.8c0-2.6-0.9-4.6-2.7-6c-1.8-1.4-5.1-2.8-9.8-4.2c-4.7-1.4-8.5-3-11.3-4.8c-5.4-3.4-8-7.7-8-13.2
				c0-4.7,1.9-8.6,5.8-11.7c3.9-3.1,8.9-4.6,15-4.6c4.1,0,7.7,0.8,10.9,2.3c3.2,1.5,5.7,3.7,7.5,6.4c1.8,2.8,2.7,5.9,2.7,9.3h-10.2
				c0-3.1-1-5.5-2.9-7.2c-1.9-1.7-4.7-2.6-8.3-2.6c-3.3,0-5.9,0.7-7.8,2.1c-1.8,1.4-2.8,3.4-2.8,6c0,2.2,1,3.9,3,5.4
				c2,1.4,5.3,2.8,9.8,4.2c4.6,1.4,8.2,2.9,11,4.6c2.8,1.7,4.8,3.7,6.1,6c1.3,2.2,1.9,4.9,1.9,7.9c0,4.9-1.9,8.8-5.6,11.7
				c-3.8,2.9-8.8,4.3-15.3,4.3c-4.2,0-8.2-0.8-11.7-2.4c-3.6-1.6-6.3-3.7-8.3-6.5c-2-2.8-3-6-3-9.7h10.2c0,3.3,1.1,5.9,3.3,7.7
				c2.2,1.8,5.4,2.7,9.5,2.7c3.6,0,6.2-0.7,8-2.2C706.4,528.1,707.3,526.2,707.3,523.8z"/>
			<path class="st1" d="M763.1,525.5l6.9-30.1h9.6L767.7,539h-8.1l-9.4-30l-9.2,30H733L721,495.3h9.6l7.1,29.8l9-29.8h7.4
				L763.1,525.5z"/>
			<path class="st1" d="M811.4,539c-0.4-0.8-0.8-2.2-1.1-4.1c-3.1,3.3-6.9,4.9-11.5,4.9c-4.4,0-8-1.3-10.7-3.8
				c-2.8-2.5-4.2-5.6-4.2-9.3c0-4.7,1.7-8.2,5.2-10.7c3.5-2.5,8.4-3.7,14.8-3.7h6v-2.9c0-2.3-0.6-4.1-1.9-5.4s-3.2-2-5.8-2
				c-2.2,0-4.1,0.6-5.5,1.7c-1.4,1.1-2.1,2.5-2.1,4.3h-9.8c0-2.4,0.8-4.6,2.4-6.7c1.6-2.1,3.7-3.7,6.5-4.9c2.7-1.2,5.8-1.8,9.1-1.8
				c5.1,0,9.2,1.3,12.2,3.9c3,2.6,4.6,6.2,4.7,10.8v19.7c0,3.9,0.6,7.1,1.7,9.4v0.7H811.4z M800.6,531.9c1.9,0,3.8-0.5,5.5-1.4
				c1.7-0.9,3-2.2,3.9-3.8v-8.2h-5.3c-3.6,0-6.4,0.6-8.2,1.9c-1.8,1.3-2.7,3.1-2.7,5.4c0,1.9,0.6,3.4,1.9,4.5
				C796.8,531.4,798.5,531.9,800.6,531.9z"/>
			<path class="st1" d="M838.3,495.3l0.3,5c3.2-3.9,7.5-5.8,12.7-5.8c9.1,0,13.7,5.2,13.9,15.6V539h-9.8v-28.3
				c0-2.8-0.6-4.8-1.8-6.2c-1.2-1.3-3.2-2-5.9-2c-4,0-6.9,1.8-8.8,5.4V539H829v-43.7H838.3z"/>
		</g>
		<g>
			<path class="st1" d="M895.3,530.8H922v8.1h-36.9v-58.7h10.2V530.8z"/>
			<path class="st1" d="M954.1,539c-0.4-0.8-0.8-2.2-1.1-4.1c-3.1,3.3-6.9,4.9-11.5,4.9c-4.4,0-8-1.3-10.7-3.8
				c-2.8-2.5-4.2-5.6-4.2-9.3c0-4.7,1.7-8.2,5.2-10.7c3.5-2.5,8.4-3.7,14.8-3.7h6v-2.9c0-2.3-0.6-4.1-1.9-5.4s-3.2-2-5.8-2
				c-2.2,0-4.1,0.6-5.5,1.7c-1.4,1.1-2.1,2.5-2.1,4.3h-9.8c0-2.4,0.8-4.6,2.4-6.7c1.6-2.1,3.7-3.7,6.5-4.9c2.7-1.2,5.8-1.8,9.1-1.8
				c5.1,0,9.2,1.3,12.2,3.9c3,2.6,4.6,6.2,4.7,10.8v19.7c0,3.9,0.6,7.1,1.7,9.4v0.7H954.1z M943.4,531.9c1.9,0,3.8-0.5,5.5-1.4
				c1.7-0.9,3-2.2,3.9-3.8v-8.2h-5.3c-3.6,0-6.4,0.6-8.2,1.9c-1.8,1.3-2.7,3.1-2.7,5.4c0,1.9,0.6,3.4,1.9,4.5
				C939.6,531.4,941.3,531.9,943.4,531.9z"/>
			<path class="st1" d="M986.1,520.3l-4.4,4.5V539h-9.8v-62h9.8v35.7l3.1-3.8l12.1-13.6h11.8l-16.2,18.2l18,25.5h-11.3L986.1,520.3z
				"/>
			<path class="st1" d="M1032.6,539.8c-6.2,0-11.2-2-15.1-5.9c-3.9-3.9-5.8-9.1-5.8-15.6v-1.2c0-4.4,0.8-8.3,2.5-11.7
				c1.7-3.4,4-6.1,7.1-8c3-1.9,6.4-2.9,10.2-2.9c5.9,0,10.5,1.9,13.8,5.7c3.2,3.8,4.9,9.2,4.9,16.1v4h-28.5c0.3,3.6,1.5,6.5,3.6,8.6
				c2.1,2.1,4.8,3.1,8,3.1c4.5,0,8.1-1.8,11-5.4l5.3,5c-1.7,2.6-4.1,4.6-7,6.1C1039.6,539.1,1036.3,539.8,1032.6,539.8z
				 M1031.5,502.4c-2.7,0-4.9,0.9-6.5,2.8s-2.7,4.5-3.2,7.9h18.7v-0.7c-0.2-3.3-1.1-5.8-2.6-7.4
				C1036.3,503.2,1034.2,502.4,1031.5,502.4z"/>
		</g>
	</g>
</g>
<polygon class="st0" points="149.8,353.1 149.8,293.1 200.1,293.1 200.1,372.3 "/>
<polygon class="st0" points="149.8,371.9 184.2,385 149.8,398.2 "/>
<polygon class="st0" points="200.1,397.8 200.1,426.8 175.7,506.9 149.8,506.9 149.8,417 "/>
<polygon class="st0" points="267.8,353.1 267.8,293.1 217.5,293.1 217.5,372.3 "/>
<polygon class="st0" points="267.8,371.9 233.4,385 267.8,398.2 "/>
<polygon class="st0" points="217.5,397.8 217.5,426.8 241.9,506.9 267.8,506.9 267.8,417 "/>
<line class="st2" x1="1079.2" y1="86.2" x2="120.8" y2="713.8"/>
<line class="st2" x1="120.8" y1="86.2" x2="1079.2" y2="713.8"/>
</svg>
