<?xml version="1.0" encoding="utf-8"?>
<!-- Generator: Adobe Illustrator 28.0.0, SVG Export Plug-In . SVG Version: 6.00 Build 0)  -->
<svg version="1.1" id="Layer_1" xmlns="http://www.w3.org/2000/svg" xmlns:xlink="http://www.w3.org/1999/xlink" x="0px" y="0px"
	 viewBox="0 0 1200 800" style="enable-background:new 0 0 1200 800;" xml:space="preserve">
<style type="text/css">
	.st0{fill:#FFFFFF;}
	.st1{fill:#53C3C2;}
</style>
<rect y="80" width="1200" height="640"/>
<g>
	<g>
		<g>
			<g>
				<g>
					<path class="st0" d="M158.16,495.11H70.74V309.06h82.69c46.96,0,67.04,20.08,67.04,50.5c0,20.97-14.18,35.73-34.26,38.98
						c22.44,4.13,39.87,18.9,39.87,45.49C226.08,476.21,201.57,495.11,158.16,495.11z M106.78,386.44h44.29
						c22.16,0,31.6-9.75,31.6-23.63c0-13.88-9.45-23.92-31.6-23.92h-44.29V386.44z M106.78,414.49v50.8h47.25
						c23.03,0,34.25-9.75,34.25-25.11c0-15.65-11.22-25.69-34.25-25.69H106.78z"/>
					<path class="st0" d="M358.44,463.52c0,6.79,3.55,10.04,9.16,10.04c3.54,0,7.08-0.88,10.92-2.66v18.9
						c-5.61,4.43-12.7,8.27-24.51,8.27c-14.77,0-25.99-9.44-28.65-25.1c-7.38,15.36-23.92,25.4-45.48,25.4
						c-24.81,0-41.34-13.29-41.34-35.74c0-24.8,19.49-35.14,49.61-40.75l35.73-6.79v-3.84c0-14.46-7.67-23.33-22.75-23.33
						c-14.76,0-22.73,8.86-25.68,21.55l-32.2-2.95c4.43-26.58,24.81-45.19,59.37-45.19c33.66,0,55.81,15.94,55.81,50.21V463.52z
						 M323.89,434.28l-24.51,5.02c-16.25,3.24-26.28,7.38-26.28,19.48c0,9.16,6.49,15.95,18.01,15.95
						c18.61,0,32.78-13.88,32.78-36.03V434.28z"/>
					<path class="st0" d="M648.74,451.7c-6.5,29.53-29.53,46.95-62.9,46.95c-40.17,0-69.11-25.7-69.11-66.74
						c0-41.05,29.24-70.58,68.21-70.58c42.53,0,64.39,29.53,64.39,64.97v11.22h-97.76c1.19,21.26,16.25,34.25,35.44,34.25
						c17.43,0,28.06-7.67,33.08-23.02L648.74,451.7z M614.78,418.92c-0.59-16.83-10.34-31.6-30.13-31.6
						c-19.48,0-30.42,14.18-32.48,31.6H614.78z"/>
					<path class="st0" d="M759.86,399.73c-6.8-3.84-12.7-5.61-21.27-5.61c-18.31,0-30.71,12.98-30.71,36.61v64.38h-35.44V364.88
						h35.44v24.81c4.72-14.77,18.31-28.35,36.32-28.35c7.97,0,14.47,2.07,18.31,5.32L759.86,399.73z"/>
					<path class="st0" d="M777.43,309.06h36.32v34.55h-36.32V309.06z M813.46,364.88v130.24h-35.44V364.88H813.46z"/>
					<path class="st0" d="M878.07,495.11h-35.44V364.88h35.44v21.27c6.49-14.76,23.03-24.81,42.52-24.81
						c34.85,0,47.54,23.63,47.54,52.57v81.2h-35.43v-74.12c0-20.09-7.98-31.6-25.4-31.6c-18.02,0-29.24,14.17-29.24,36.02V495.11z"
						/>
					<path class="st0" d="M1108.99,463.52c0,6.79,3.54,10.04,9.16,10.04c3.55,0,7.09-0.88,10.93-2.66v18.9
						c-5.61,4.43-12.7,8.27-24.52,8.27c-14.76,0-25.99-9.44-28.64-25.1c-7.38,15.36-23.92,25.4-45.48,25.4
						c-24.81,0-41.34-13.29-41.34-35.74c0-24.8,19.49-35.14,49.61-40.75l35.73-6.79v-3.84c0-14.46-7.68-23.33-22.74-23.33
						c-14.77,0-22.74,8.86-25.69,21.55l-32.19-2.95c4.43-26.58,24.81-45.19,59.36-45.19c33.67,0,55.81,15.94,55.81,50.21V463.52z
						 M1074.44,434.28l-24.52,5.02c-16.24,3.24-26.28,7.38-26.28,19.48c0,9.16,6.5,15.95,18.01,15.95
						c18.61,0,32.79-13.88,32.79-36.03V434.28z"/>
				</g>
				<g>
					<polygon class="st0" points="393.95,357.44 393.95,303.72 438.93,303.72 438.93,374.64 					"/>
					<polygon class="st0" points="393.95,374.25 424.74,386.03 393.95,397.8 					"/>
					<polygon class="st0" points="438.93,397.42 438.93,423.43 417.07,495.11 393.95,495.11 393.95,414.62 					"/>
				</g>
				<g>
					<polygon class="st0" points="499.5,357.44 499.5,303.72 454.52,303.72 454.52,374.64 					"/>
					<polygon class="st0" points="499.5,374.25 468.72,386.03 499.5,397.8 					"/>
					<polygon class="st0" points="454.52,397.42 454.52,423.43 476.39,495.11 499.5,495.11 499.5,414.62 					"/>
				</g>
			</g>
		</g>
	</g>
	<g>
		<g>
			<path class="st1" d="M611.31,601.6c0-3.9-1.37-6.91-4.11-9.02c-2.74-2.11-7.69-4.24-14.84-6.4c-7.15-2.15-12.83-4.55-17.06-7.19
				c-8.08-5.08-12.13-11.7-12.13-19.86c0-7.15,2.91-13.04,8.74-17.67c5.83-4.63,13.39-6.95,22.69-6.95c6.17,0,11.68,1.14,16.51,3.41
				c4.83,2.28,8.63,5.51,11.4,9.72c2.76,4.2,4.14,8.86,4.14,13.98h-15.35c0-4.63-1.45-8.26-4.36-10.88
				c-2.9-2.62-7.06-3.93-12.46-3.93c-5.04,0-8.95,1.08-11.73,3.23c-2.78,2.15-4.17,5.16-4.17,9.02c0,3.25,1.5,5.96,4.51,8.14
				c3.01,2.17,7.96,4.29,14.87,6.34c6.9,2.05,12.45,4.39,16.63,7.01c4.18,2.62,7.25,5.63,9.2,9.02c1.95,3.39,2.93,7.36,2.93,11.91
				c0,7.39-2.83,13.27-8.5,17.64s-13.35,6.55-23.06,6.55c-6.42,0-12.32-1.19-17.7-3.56c-5.38-2.38-9.56-5.66-12.55-9.84
				c-2.98-4.18-4.48-9.06-4.48-14.62h15.41c0,5.04,1.67,8.94,5,11.7c3.33,2.76,8.1,4.14,14.32,4.14c5.36,0,9.39-1.09,12.09-3.26
				C609.96,608.04,611.31,605.17,611.31,601.6z"/>
			<path class="st1" d="M695.49,604.03l10.48-45.51h14.44l-17.97,65.92h-12.19l-14.14-45.27l-13.89,45.27h-12.18L632,558.52h14.44
				l10.67,45.03l13.52-45.03h11.15L695.49,604.03z"/>
			<path class="st1" d="M768.45,624.44c-0.65-1.26-1.22-3.31-1.7-6.15c-4.71,4.92-10.48,7.37-17.31,7.37
				c-6.62,0-12.02-1.89-16.21-5.67c-4.19-3.78-6.28-8.45-6.28-14.01c0-7.03,2.61-12.42,7.83-16.18c5.22-3.76,12.68-5.64,22.39-5.64
				h9.08v-4.33c0-3.41-0.96-6.14-2.86-8.19c-1.91-2.05-4.81-3.08-8.71-3.08c-3.37,0-6.13,0.84-8.29,2.53
				c-2.15,1.69-3.23,3.83-3.23,6.43h-14.8c0-3.61,1.2-7,3.59-10.14c2.4-3.15,5.66-5.62,9.78-7.4c4.12-1.79,8.72-2.68,13.8-2.68
				c7.72,0,13.87,1.94,18.46,5.82c4.59,3.88,6.94,9.33,7.07,16.36v29.73c0,5.93,0.83,10.66,2.5,14.2v1.04H768.45z M752.18,613.78
				c2.92,0,5.68-0.71,8.26-2.13c2.58-1.42,4.52-3.33,5.82-5.73v-12.43h-7.98c-5.48,0-9.61,0.95-12.37,2.86
				c-2.76,1.91-4.14,4.61-4.14,8.1c0,2.84,0.95,5.11,2.83,6.79C746.49,612.94,749.01,613.78,752.18,613.78z"/>
			<path class="st1" d="M809.06,558.52l0.43,7.62c4.87-5.89,11.27-8.83,19.19-8.83c13.73,0,20.71,7.86,20.96,23.58v43.56h-14.81
				v-42.71c0-4.18-0.9-7.28-2.71-9.29c-1.81-2.01-4.76-3.02-8.86-3.02c-5.97,0-10.42,2.7-13.34,8.1v46.92h-14.81v-65.92H809.06z"/>
		</g>
		<g>
			<path class="st1" d="M895.25,612.14h40.27v12.31h-55.69v-88.71h15.42V612.14z"/>
			<path class="st1" d="M984.06,624.44c-0.65-1.26-1.22-3.31-1.7-6.15c-4.71,4.92-10.48,7.37-17.31,7.37
				c-6.62,0-12.02-1.89-16.21-5.67c-4.19-3.78-6.28-8.45-6.28-14.01c0-7.03,2.61-12.42,7.83-16.18c5.22-3.76,12.68-5.64,22.39-5.64
				h9.08v-4.33c0-3.41-0.96-6.14-2.86-8.19c-1.91-2.05-4.81-3.08-8.71-3.08c-3.37,0-6.13,0.84-8.29,2.53
				c-2.15,1.69-3.23,3.83-3.23,6.43h-14.8c0-3.61,1.2-7,3.59-10.14c2.4-3.15,5.66-5.62,9.78-7.4c4.12-1.79,8.72-2.68,13.8-2.68
				c7.72,0,13.87,1.94,18.46,5.82c4.59,3.88,6.94,9.33,7.07,16.36v29.73c0,5.93,0.83,10.66,2.5,14.2v1.04H984.06z M967.79,613.78
				c2.92,0,5.68-0.71,8.26-2.13c2.58-1.42,4.52-3.33,5.82-5.73v-12.43h-7.98c-5.48,0-9.61,0.95-12.37,2.86
				c-2.76,1.91-4.14,4.61-4.14,8.1c0,2.84,0.95,5.11,2.83,6.79C962.09,612.94,964.62,613.78,967.79,613.78z"/>
			<path class="st1" d="M1032.34,596.17l-6.58,6.76v21.51h-14.81v-93.59h14.81v53.98l4.63-5.79l18.22-20.53h17.79L1041.91,586
				l27.11,38.45h-17.12L1032.34,596.17z"/>
			<path class="st1" d="M1102.63,625.66c-9.38,0-16.99-2.96-22.82-8.87c-5.83-5.91-8.74-13.78-8.74-23.61v-1.83
				c0-6.58,1.27-12.46,3.81-17.64c2.54-5.18,6.1-9.21,10.69-12.09c4.59-2.88,9.71-4.33,15.35-4.33c8.98,0,15.91,2.86,20.81,8.59
				c4.89,5.73,7.34,13.83,7.34,24.31v5.97h-43.08c0.45,5.44,2.26,9.75,5.45,12.92c3.19,3.17,7.2,4.75,12.03,4.75
				c6.78,0,12.31-2.74,16.57-8.22l7.98,7.62c-2.64,3.94-6.16,7-10.57,9.17C1113.06,624.57,1108.11,625.66,1102.63,625.66z
				 M1100.86,569.18c-4.06,0-7.34,1.42-9.84,4.27c-2.5,2.84-4.09,6.8-4.78,11.88h28.21v-1.1c-0.32-4.96-1.65-8.7-3.96-11.24
				C1108.17,570.45,1104.96,569.18,1100.86,569.18z"/>
		</g>
	</g>
</g>
</svg>
