<?xml version="1.0" encoding="utf-8"?>
<!-- Generator: Adobe Illustrator 28.0.0, SVG Export Plug-In . SVG Version: 6.00 Build 0)  -->
<svg version="1.1" id="Layer_1" xmlns="http://www.w3.org/2000/svg" xmlns:xlink="http://www.w3.org/1999/xlink" x="0px" y="0px"
	 viewBox="0 0 1200 800" style="enable-background:new 0 0 1200 800;" xml:space="preserve">
<style type="text/css">
	.st0{fill:#EFEFEF;}
	.st1{fill:#464646;}
	.st2{fill:#53C3C2;}
</style>
<rect class="st0" width="1200" height="800"/>
<g>
	<g>
		<g>
			<g>
				<g>
					<path class="st1" d="M199.99,428.09h-79.16V259.62h74.87c42.52,0,60.71,18.19,60.71,45.73c0,18.99-12.84,32.36-31.02,35.29
						c20.32,3.74,36.1,17.11,36.1,41.19C261.49,410.98,239.3,428.09,199.99,428.09z M153.46,329.68h40.1
						c20.06,0,28.62-8.83,28.62-21.39c0-12.57-8.56-21.66-28.62-21.66h-40.1V329.68z M153.46,355.09v46h42.79
						c20.85,0,31.02-8.82,31.02-22.74c0-14.17-10.16-23.26-31.02-23.26H153.46z"/>
					<path class="st1" d="M381.35,399.48c0,6.15,3.21,9.09,8.29,9.09c3.21,0,6.41-0.8,9.89-2.41v17.11
						c-5.08,4.02-11.5,7.49-22.19,7.49c-13.37,0-23.54-8.55-25.94-22.73c-6.68,13.91-21.66,23-41.19,23
						c-22.46,0-37.44-12.03-37.44-32.36c0-22.46,17.65-31.82,44.93-36.9l32.35-6.15v-3.47c0-13.1-6.95-21.12-20.6-21.12
						c-13.37,0-20.59,8.02-23.26,19.52l-29.16-2.67c4.01-24.07,22.46-40.92,53.76-40.92c30.48,0,50.54,14.44,50.54,45.46v47.06
						H381.35z M350.06,373.01l-22.19,4.55c-14.72,2.93-23.8,6.68-23.8,17.64c0,8.29,5.88,14.44,16.3,14.44
						c16.85,0,29.69-12.57,29.69-32.63V373.01z"/>
					<path class="st1" d="M644.22,388.78c-5.88,26.74-26.74,42.52-56.96,42.52c-36.38,0-62.58-23.27-62.58-60.43
						c0-37.17,26.47-63.91,61.77-63.91c38.51,0,58.3,26.74,58.3,58.83v10.16h-88.52c1.08,19.25,14.71,31.01,32.09,31.01
						c15.78,0,25.41-6.95,29.95-20.85L644.22,388.78z M613.47,359.1c-0.53-15.24-9.36-28.62-27.28-28.62
						c-17.64,0-27.54,12.84-29.41,28.62H613.47z"/>
					<path class="st1" d="M744.84,341.72c-6.16-3.48-11.5-5.08-19.26-5.08c-16.58,0-27.81,11.76-27.81,33.15v58.3h-32.08V310.16
						h32.09v22.47c4.27-13.37,16.58-25.67,32.89-25.67c7.21,0,13.1,1.87,16.58,4.82L744.84,341.72z"/>
					<path class="st1" d="M760.75,259.62h32.89v31.29h-32.89V259.62z M793.38,310.16v117.93h-32.1V310.16H793.38z"/>
					<path class="st1" d="M851.89,428.09H819.8V310.16h32.09v19.26c5.87-13.37,20.85-22.47,38.5-22.47
						c31.55,0,43.05,21.39,43.05,47.61v73.53h-32.09v-67.12c0-18.19-7.22-28.61-23-28.61c-16.31,0-26.47,12.83-26.47,32.62v63.11
						H851.89z"/>
					<path class="st1" d="M1060.98,399.48c0,6.15,3.21,9.09,8.29,9.09c3.21,0,6.42-0.8,9.9-2.41v17.11
						c-5.08,4.02-11.5,7.49-22.2,7.49c-13.37,0-23.54-8.55-25.94-22.73c-6.68,13.91-21.66,23-41.18,23
						c-22.46,0-37.44-12.03-37.44-32.36c0-22.46,17.65-31.82,44.93-36.9l32.36-6.15v-3.47c0-13.1-6.96-21.12-20.6-21.12
						c-13.37,0-20.59,8.02-23.26,19.52l-29.15-2.67c4.01-24.07,22.46-40.92,53.75-40.92c30.49,0,50.54,14.44,50.54,45.46
						L1060.98,399.48L1060.98,399.48z M1029.7,373.01l-22.2,4.55c-14.71,2.93-23.8,6.68-23.8,17.64c0,8.29,5.88,14.44,16.31,14.44
						c16.85,0,29.69-12.57,29.69-32.63V373.01z"/>
				</g>
				<g>
					<polygon class="st1" points="413.5,303.42 413.5,254.78 454.23,254.78 454.23,318.99 					"/>
					<polygon class="st1" points="413.5,318.65 441.38,329.32 413.5,339.97 					"/>
					<polygon class="st1" points="454.23,339.62 454.23,363.18 434.43,428.09 413.5,428.09 413.5,355.2 					"/>
				</g>
				<g>
					<polygon class="st1" points="509.08,303.42 509.08,254.78 468.35,254.78 468.35,318.99 					"/>
					<polygon class="st1" points="509.08,318.65 481.2,329.32 509.08,339.97 					"/>
					<polygon class="st1" points="468.35,339.62 468.35,363.18 488.15,428.09 509.08,428.09 509.08,355.2 					"/>
				</g>
			</g>
		</g>
	</g>
	<g>
		<g>
			<path class="st2" d="M610.33,523.42c0-3.53-1.24-6.25-3.72-8.17c-2.48-1.91-6.96-3.84-13.44-5.79
				c-6.47-1.95-11.62-4.12-15.45-6.51c-7.32-4.6-10.98-10.59-10.98-17.99c0-6.47,2.64-11.81,7.92-16
				c5.28-4.19,12.13-6.29,20.55-6.29c5.59,0,10.57,1.03,14.95,3.09s7.82,4.99,10.32,8.8s3.75,8.03,3.75,12.66h-13.9
				c0-4.19-1.31-7.48-3.94-9.85s-6.39-3.56-11.28-3.56c-4.56,0-8.1,0.97-10.62,2.92s-3.78,4.67-3.78,8.16c0,2.94,1.36,5.4,4.08,7.37
				c2.72,1.97,7.21,3.88,13.46,5.74s11.27,3.97,15.06,6.34c3.79,2.37,6.57,5.09,8.33,8.17c1.77,3.07,2.65,6.67,2.65,10.79
				c0,6.69-2.57,12.02-7.7,15.97c-5.13,3.95-12.09,5.93-20.88,5.93c-5.81,0-11.15-1.08-16.03-3.23c-4.87-2.15-8.66-5.12-11.37-8.91
				c-2.7-3.79-4.05-8.2-4.05-13.24h13.96c0,4.56,1.51,8.09,4.52,10.59c3.02,2.5,7.34,3.75,12.97,3.75c4.86,0,8.51-0.98,10.95-2.95
				C609.11,529.27,610.33,526.66,610.33,523.42z"/>
			<path class="st2" d="M686.55,525.62l9.49-41.21h13.08l-16.28,59.7H681.8L669,503.12l-12.58,40.99h-11.03l-16.33-59.7h13.07
				l9.66,40.77l12.25-40.77h10.1L686.55,525.62z"/>
			<path class="st2" d="M752.62,544.11c-0.59-1.14-1.1-3-1.54-5.57c-4.27,4.45-9.49,6.68-15.67,6.68c-5.99,0-10.89-1.71-14.67-5.13
				c-3.79-3.42-5.68-7.65-5.68-12.69c0-6.36,2.36-11.25,7.09-14.65c4.73-3.4,11.48-5.1,20.28-5.1h8.22v-3.92
				c0-3.09-0.87-5.56-2.59-7.42c-1.73-1.86-4.36-2.79-7.89-2.79c-3.05,0-5.55,0.76-7.5,2.29c-1.95,1.53-2.92,3.47-2.92,5.82h-13.41
				c0-3.27,1.08-6.33,3.25-9.19c2.17-2.85,5.12-5.09,8.86-6.7c3.73-1.62,7.9-2.43,12.49-2.43c6.99,0,12.56,1.76,16.72,5.27
				c4.15,3.51,6.29,8.45,6.4,14.81v26.92c0,5.37,0.75,9.65,2.26,12.85v0.94h-13.7V544.11z M737.89,534.46
				c2.65,0,5.14-0.64,7.48-1.93c2.34-1.29,4.09-3.02,5.27-5.19v-11.26h-7.23c-4.97,0-8.7,0.86-11.2,2.59
				c-2.5,1.73-3.75,4.17-3.75,7.34c0,2.58,0.86,4.63,2.57,6.15C732.73,533.7,735.02,534.46,737.89,534.46z"/>
			<path class="st2" d="M789.39,484.41l0.39,6.9c4.41-5.33,10.21-8,17.38-8c12.43,0,18.76,7.12,18.98,21.35v39.45h-13.41v-38.68
				c0-3.79-0.82-6.59-2.45-8.41c-1.64-1.82-4.31-2.73-8.03-2.73c-5.41,0-9.43,2.45-12.08,7.34v42.48h-13.41v-59.7L789.39,484.41
				L789.39,484.41z"/>
		</g>
		<g>
			<path class="st2" d="M867.44,532.97h36.47v11.14h-50.43v-80.33h13.96L867.44,532.97L867.44,532.97z"/>
			<path class="st2" d="M947.86,544.11c-0.59-1.14-1.1-3-1.54-5.57c-4.27,4.45-9.49,6.68-15.67,6.68c-5.99,0-10.89-1.71-14.67-5.13
				c-3.79-3.42-5.68-7.65-5.68-12.69c0-6.36,2.36-11.25,7.09-14.65c4.73-3.4,11.48-5.1,20.28-5.1h8.22v-3.92
				c0-3.09-0.87-5.56-2.59-7.42c-1.73-1.86-4.36-2.79-7.89-2.79c-3.05,0-5.55,0.76-7.5,2.29c-1.95,1.53-2.92,3.47-2.92,5.82h-13.41
				c0-3.27,1.08-6.33,3.25-9.19c2.17-2.85,5.12-5.09,8.86-6.7c3.73-1.62,7.9-2.43,12.49-2.43c6.99,0,12.56,1.76,16.72,5.27
				c4.15,3.51,6.29,8.45,6.4,14.81v26.92c0,5.37,0.75,9.65,2.26,12.85v0.94h-13.7V544.11z M933.13,534.46
				c2.65,0,5.14-0.64,7.48-1.93c2.34-1.29,4.09-3.02,5.27-5.19v-11.26h-7.23c-4.97,0-8.7,0.86-11.2,2.59
				c-2.5,1.73-3.75,4.17-3.75,7.34c0,2.58,0.86,4.63,2.57,6.15C927.97,533.7,930.26,534.46,933.13,534.46z"/>
			<path class="st2" d="M991.58,518.52l-5.96,6.12v19.48h-13.41v-84.74h13.41v48.88l4.19-5.24l16.5-18.59h16.11l-22.18,24.88
				l24.55,34.81h-15.5L991.58,518.52z"/>
			<path class="st2" d="M1055.22,545.22c-8.5,0-15.38-2.68-20.66-8.03c-5.28-5.35-7.92-12.48-7.92-21.38v-1.66
				c0-5.96,1.15-11.28,3.45-15.97c2.3-4.69,5.53-8.34,9.68-10.95c4.16-2.61,8.79-3.92,13.9-3.92c8.13,0,14.41,2.59,18.84,7.78
				c4.43,5.19,6.65,12.52,6.65,22.01v5.41h-39.01c0.4,4.93,2.05,8.83,4.94,11.7c2.89,2.87,6.52,4.3,10.9,4.3
				c6.14,0,11.14-2.48,15.01-7.45l7.23,6.9c-2.39,3.57-5.58,6.34-9.57,8.3C1064.67,544.23,1060.19,545.22,1055.22,545.22z
				 M1053.63,494.07c-3.68,0-6.65,1.29-8.91,3.86s-3.71,6.16-4.33,10.76h25.54v-0.99c-0.29-4.49-1.49-7.88-3.59-10.18
				C1060.25,495.22,1057.34,494.07,1053.63,494.07z"/>
		</g>
	</g>
</g>
</svg>
