<?xml version="1.0" encoding="utf-8"?>
<!-- Generator: Adobe Illustrator 28.0.0, SVG Export Plug-In . SVG Version: 6.00 Build 0)  -->
<svg version="1.1" id="Layer_1" xmlns="http://www.w3.org/2000/svg" xmlns:xlink="http://www.w3.org/1999/xlink" x="0px" y="0px"
	 viewBox="0 0 2594.46 855.82" style="enable-background:new 0 0 2594.46 855.82;" xml:space="preserve">
<style type="text/css">
	.st0{fill:#464646;}
	.st1{fill:#53C3C2;}
	.st2{fill:none;stroke:#BE1E2D;stroke-width:8;stroke-miterlimit:10;}
</style>
<g>
	<g>
		<g>
			<g>
				<g>
					<path class="st0" d="M2439.96,587.01h52.71v112.18h-49.86c-28.31,0-40.42-12.11-40.42-30.45c0-12.64,8.55-21.54,20.66-23.5
						c-13.53-2.49-24.04-11.4-24.04-27.43C2399.01,598.4,2413.78,587.01,2439.96,587.01z M2470.94,652.53h-26.7
						c-13.36,0-19.06,5.88-19.06,14.25c0,8.37,5.7,14.42,19.06,14.42h26.7V652.53z M2470.94,635.62v-30.63h-28.49
						c-13.89,0-20.65,5.88-20.65,15.14c0,9.44,6.77,15.49,20.65,15.49H2470.94z"/>
					<path class="st0" d="M2319.2,606.06c0-4.09-2.14-6.05-5.52-6.05c-2.13,0-4.27,0.53-6.59,1.6v-11.39
						c3.38-2.67,7.66-4.99,14.78-4.99c8.9,0,15.67,5.69,17.27,15.14c4.45-9.26,14.42-15.32,27.42-15.32
						c14.96,0,24.93,8.01,24.93,21.55c0,14.96-11.75,21.19-29.91,24.57l-21.54,4.09v2.31c0,8.72,4.63,14.06,13.71,14.06
						c8.9,0,13.71-5.34,15.49-12.99l19.41,1.78c-2.67,16.03-14.96,27.25-35.79,27.25c-20.3,0-33.65-9.61-33.65-30.27V606.06z
						 M2340.03,623.69l14.78-3.03c9.8-1.95,15.85-4.45,15.85-11.75c0-5.52-3.92-9.62-10.86-9.62c-11.22,0-19.77,8.37-19.77,21.73
						V623.69z"/>
					<path class="st0" d="M2144.16,613.18c3.92-17.8,17.8-28.31,37.92-28.31c24.22,0,41.67,15.49,41.67,40.24
						c0,24.75-17.63,42.56-41.13,42.56c-25.65,0-38.82-17.81-38.82-39.17v-6.77h58.94c-0.72-12.82-9.8-20.65-21.37-20.65
						c-10.51,0-16.92,4.62-19.94,13.88L2144.16,613.18z M2164.64,632.94c0.35,10.15,6.23,19.05,18.16,19.05
						c11.75,0,18.34-8.55,19.58-19.05H2164.64z"/>
					<path class="st0" d="M2077.16,644.52c4.1,2.32,7.66,3.38,12.82,3.38c11.04,0,18.52-7.83,18.52-22.08v-38.82h21.37v78.53h-21.37
						v-14.96c-2.85,8.9-11.04,17.09-21.9,17.09c-4.8,0-8.72-1.25-11.04-3.21L2077.16,644.52z"/>
					<path class="st0" d="M2066.57,699.18h-21.9v-20.83h21.9V699.18z M2044.84,665.53v-78.53h21.37v78.53H2044.84z"/>
					<path class="st0" d="M2005.88,587.01h21.37v78.53h-21.37v-12.82c-3.91,8.9-13.89,14.96-25.64,14.96
						c-21.01,0-28.67-14.25-28.67-31.7v-48.96h21.36v44.69c0,12.11,4.81,19.05,15.31,19.05c10.86,0,17.63-8.55,17.63-21.72V587.01z"
						/>
					<path class="st0" d="M1866.66,606.06c0-4.09-2.14-6.05-5.52-6.05c-2.14,0-4.27,0.53-6.59,1.6v-11.39
						c3.38-2.67,7.66-4.99,14.78-4.99c8.9,0,15.67,5.69,17.27,15.14c4.45-9.26,14.42-15.32,27.42-15.32
						c14.96,0,24.93,8.01,24.93,21.55c0,14.96-11.75,21.19-29.91,24.57l-21.55,4.09v2.31c0,8.72,4.63,14.06,13.71,14.06
						c8.91,0,13.71-5.34,15.49-12.99l19.41,1.78c-2.67,16.03-14.96,27.25-35.79,27.25c-20.3,0-33.65-9.61-33.65-30.27V606.06z
						 M1887.49,623.69l14.78-3.03c9.79-1.95,15.84-4.45,15.84-11.75c0-5.52-3.92-9.62-10.86-9.62c-11.22,0-19.77,8.37-19.77,21.73
						V623.69z"/>
				</g>
				<g>
					<polygon class="st0" points="2297.79,670.02 2297.79,702.41 2270.67,702.41 2270.67,659.65 					"/>
					<polygon class="st0" points="2297.79,659.88 2279.22,652.78 2297.79,645.68 					"/>
					<polygon class="st0" points="2270.67,645.91 2270.67,630.22 2283.85,587.01 2297.79,587.01 2297.79,635.54 					"/>
				</g>
				<g>
					<polygon class="st0" points="2234.15,670.02 2234.15,702.41 2261.27,702.41 2261.27,659.65 					"/>
					<polygon class="st0" points="2234.15,659.88 2252.71,652.78 2234.15,645.68 					"/>
					<polygon class="st0" points="2261.27,645.91 2261.27,630.22 2248.08,587.01 2234.15,587.01 2234.15,635.54 					"/>
				</g>
			</g>
		</g>
	</g>
	<g>
		<g>
			<path class="st1" d="M2166.73,523.53c0,2.35,0.83,4.16,2.48,5.44c1.65,1.27,4.64,2.56,8.95,3.86c4.31,1.3,7.74,2.74,10.29,4.33
				c4.87,3.06,7.31,7.05,7.31,11.98c0,4.31-1.76,7.86-5.27,10.65c-3.51,2.79-8.08,4.19-13.68,4.19c-3.72,0-7.04-0.69-9.96-2.06
				c-2.92-1.37-5.21-3.32-6.87-5.86c-1.67-2.53-2.5-5.35-2.5-8.43h9.26c0,2.79,0.87,4.98,2.63,6.56s4.26,2.37,7.51,2.37
				c3.04,0,5.4-0.65,7.07-1.95c1.68-1.3,2.52-3.11,2.52-5.44c0-1.96-0.9-3.59-2.72-4.91s-4.8-2.58-8.97-3.82
				c-4.16-1.24-7.5-2.64-10.03-4.22c-2.52-1.58-4.37-3.39-5.55-5.44c-1.18-2.04-1.76-4.44-1.76-7.18c0-4.46,1.71-8,5.13-10.64
				c3.42-2.63,8.05-3.95,13.91-3.95c3.87,0,7.43,0.72,10.67,2.15c3.25,1.43,5.77,3.41,7.57,5.93c1.8,2.52,2.7,5.46,2.7,8.82h-9.29
				c0-3.04-1.01-5.39-3.01-7.05c-2.01-1.67-4.89-2.5-8.63-2.5c-3.23,0-5.66,0.66-7.29,1.97
				C2167.54,519.64,2166.73,521.37,2166.73,523.53z"/>
			<path class="st1" d="M2115.98,522.06l-6.32,27.44h-8.71l10.84-39.75h7.35l8.52,27.3l8.38-27.3h7.35l10.88,39.75h-8.71
				l-6.43-27.15l-8.15,27.15h-6.72L2115.98,522.06z"/>
			<path class="st1" d="M2071.98,509.75c0.39,0.76,0.73,2,1.03,3.71c2.84-2.96,6.32-4.45,10.43-4.45c3.99,0,7.25,1.14,9.77,3.42
				c2.52,2.28,3.78,5.09,3.78,8.45c0,4.24-1.57,7.49-4.72,9.75c-3.15,2.27-7.65,3.4-13.5,3.4h-5.47v2.61c0,2.06,0.58,3.7,1.73,4.94
				c1.15,1.24,2.9,1.86,5.25,1.86c2.03,0,3.7-0.51,5-1.52c1.3-1.02,1.95-2.31,1.95-3.88h8.93c0,2.18-0.72,4.22-2.17,6.12
				c-1.45,1.9-3.41,3.39-5.9,4.46c-2.48,1.08-5.26,1.62-8.32,1.62c-4.65,0-8.36-1.17-11.13-3.51c-2.77-2.34-4.19-5.63-4.26-9.86
				v-17.93c0-3.58-0.5-6.43-1.51-8.56v-0.62H2071.98z M2081.79,516.18c-1.76,0-3.42,0.43-4.98,1.29c-1.56,0.86-2.72,2.01-3.51,3.45
				v7.49h4.81c3.31,0,5.79-0.58,7.46-1.73c1.67-1.15,2.5-2.78,2.5-4.89c0-1.71-0.57-3.08-1.71-4.1
				C2085.23,516.69,2083.7,516.18,2081.79,516.18z"/>
			<path class="st1" d="M2047.5,549.5l-0.26-4.59c-2.94,3.55-6.8,5.33-11.57,5.33c-8.28,0-12.49-4.74-12.64-14.22v-26.27h8.93v25.75
				c0,2.52,0.54,4.39,1.63,5.6c1.09,1.21,2.87,1.82,5.35,1.82c3.6,0,6.28-1.63,8.05-4.89v-28.29h8.93v39.75H2047.5z"/>
		</g>
		<g>
			<path class="st1" d="M1995.52,517.17h-24.28v-7.42h33.58v53.49h-9.3V517.17z"/>
			<path class="st1" d="M1941.98,509.75c0.39,0.76,0.73,2,1.03,3.71c2.84-2.96,6.32-4.45,10.43-4.45c3.99,0,7.25,1.14,9.77,3.42
				c2.52,2.28,3.78,5.09,3.78,8.45c0,4.24-1.57,7.49-4.72,9.75c-3.15,2.27-7.65,3.4-13.5,3.4h-5.47v2.61c0,2.06,0.58,3.7,1.73,4.94
				c1.15,1.24,2.9,1.86,5.25,1.86c2.03,0,3.7-0.51,5-1.52c1.3-1.02,1.95-2.31,1.95-3.88h8.93c0,2.18-0.72,4.22-2.17,6.12
				c-1.45,1.9-3.41,3.39-5.9,4.46c-2.48,1.08-5.26,1.62-8.32,1.62c-4.65,0-8.36-1.17-11.13-3.51c-2.77-2.34-4.19-5.63-4.26-9.86
				v-17.93c0-3.58-0.5-6.43-1.51-8.56v-0.62H1941.98z M1951.79,516.18c-1.76,0-3.42,0.43-4.98,1.29c-1.56,0.86-2.72,2.01-3.51,3.45
				v7.49h4.81c3.31,0,5.79-0.58,7.46-1.73c1.67-1.15,2.5-2.78,2.5-4.89c0-1.71-0.57-3.08-1.71-4.1
				C1955.23,516.69,1953.7,516.18,1951.79,516.18z"/>
			<path class="st1" d="M1912.87,526.8l3.97-4.08v-12.97h8.93v56.43h-8.93v-32.55l-2.79,3.49l-10.98,12.38h-10.73l14.77-16.57
				l-16.35-23.18h10.32L1912.87,526.8z"/>
			<path class="st1" d="M1870.49,509.02c5.66,0,10.24,1.78,13.76,5.35c3.52,3.56,5.27,8.31,5.27,14.24v1.1
				c0,3.97-0.76,7.51-2.3,10.64c-1.53,3.12-3.68,5.55-6.45,7.29s-5.85,2.61-9.26,2.61c-5.41,0-9.59-1.73-12.55-5.18
				c-2.95-3.45-4.43-8.34-4.43-14.66v-3.6h25.97c-0.27-3.28-1.37-5.88-3.29-7.79c-1.92-1.91-4.34-2.87-7.26-2.87
				c-4.09,0-7.42,1.65-9.99,4.96l-4.81-4.59c1.59-2.38,3.72-4.22,6.37-5.53C1864.2,509.67,1867.18,509.02,1870.49,509.02z
				 M1871.55,543.07c2.45,0,4.43-0.86,5.93-2.57c1.51-1.71,2.47-4.1,2.88-7.16h-17.01V534c0.2,2.99,0.99,5.25,2.39,6.78
				C1867.15,542.31,1869.08,543.07,1871.55,543.07z"/>
		</g>
	</g>
</g>
<g>
	<g>
		<g>
			<g>
				<g>
					<path class="st0" d="M1497.77,517.97l-44.13,28.82l-61.34-93.92l41.74-27.26c23.71-15.48,40.47-11.96,50.5,3.39
						c6.91,10.59,4.62,22.71-4.45,30.97c12.69-5.31,26.36-3.6,35.12,9.82C1525.83,486.04,1519.68,503.66,1497.77,517.97z
						 M1436,480.05l22.36-14.6c11.18-7.3,12.74-15.34,8.17-22.35c-4.58-7.01-12.66-8.96-23.84-1.66l-22.36,14.6L1436,480.05z
						 M1445.25,494.21l16.75,25.65l23.85-15.58c11.63-7.59,14.08-16.21,9.01-23.97c-5.16-7.9-14.14-9.27-25.76-1.68L1445.25,494.21z
						"/>
					<path class="st0" d="M1588.46,435.99c2.24,3.43,5.1,3.9,7.93,2.05c1.79-1.17,3.29-2.78,4.64-4.94l6.23,9.54
						c-1.37,4.09-3.68,8.36-9.65,12.26c-7.45,4.87-16.24,3.8-22.74-3.23c1.34,10.19-3.7,20.71-14.59,27.82
						c-12.52,8.18-25.25,6.92-32.65-4.41c-8.18-12.52-1.75-24.16,11.61-36.93l15.8-15.21l-1.27-1.94
						c-4.77-7.3-11.56-9.25-19.17-4.28c-7.45,4.87-8.56,11.97-5.86,19.35l-17.23,9.13c-6.53-14.88-2.37-30.99,15.07-42.38
						c16.99-11.1,33.43-10.35,44.73,6.95L1588.46,435.99z M1561.38,432.63l-10.72,10.61c-7.14,6.99-10.83,12.39-6.84,18.5
						c3.02,4.62,8.54,5.91,14.35,2.12c9.4-6.14,11.97-17.82,4.67-29L1561.38,432.63z"/>
					<path class="st0" d="M1731.12,334.32c6.45,17.05,0.57,33.44-16.27,44.44c-20.28,13.24-43.36,9.81-56.89-10.91
						c-13.53-20.72-8.51-45.27,11.17-58.12c21.47-14.02,42.24-6.32,53.92,11.57l3.7,5.67l-49.35,32.23
						c7.61,10.34,19.49,11.93,29.18,5.61c8.8-5.75,11.64-13.12,9.11-22.53L1731.12,334.32z M1703.17,328.97
						c-5.85-8.3-15.64-12.55-25.63-6.02c-9.84,6.42-10.68,17.19-5.98,26.66L1703.17,328.97z"/>
					<path class="st0" d="M1770.08,271.45c-4.7,0.3-8.26,1.36-12.59,4.18c-9.24,6.04-11.22,16.68-3.43,28.61l21.22,32.5
						l-17.89,11.68l-42.94-65.75l17.89-11.68l8.18,12.53c-2.49-9.01-0.11-20.35,8.99-26.29c4.02-2.63,7.99-3.72,11-3.35
						L1770.08,271.45z"/>
					<path class="st0" d="M1749.06,219.89l18.34-11.98l11.39,17.44l-18.34,11.98L1749.06,219.89z M1785.65,236.19l42.94,65.75
						l-17.89,11.69l-42.94-65.75L1785.65,236.19z"/>
					<path class="st0" d="M1861.21,280.63l-17.89,11.68l-42.94-65.75l17.89-11.68l7.01,10.74c-1.59-9.59,3.45-20.12,13.29-26.54
						c17.59-11.49,31.79-3.75,41.33,10.87l26.77,41l-17.89,11.68l-24.44-37.42c-6.62-10.14-14.44-13.32-23.24-7.58
						c-9.1,5.94-10.09,16.79-2.88,27.82L1861.21,280.63z"/>
					<path class="st0" d="M1967.36,188.55c2.24,3.43,5.1,3.9,7.93,2.05c1.79-1.17,3.29-2.78,4.64-4.95l6.23,9.54
						c-1.37,4.09-3.69,8.36-9.65,12.26c-7.45,4.87-16.24,3.8-22.73-3.23c1.34,10.19-3.7,20.71-14.58,27.82
						c-12.52,8.18-25.25,6.92-32.65-4.41c-8.18-12.52-1.75-24.16,11.61-36.93l15.8-15.21l-1.27-1.94
						c-4.77-7.3-11.57-9.24-19.17-4.28c-7.46,4.87-8.56,11.97-5.86,19.35l-17.22,9.13c-6.53-14.88-2.37-30.99,15.07-42.38
						c17-11.1,33.43-10.35,44.73,6.95L1967.36,188.55z M1940.29,185.18l-10.72,10.62c-7.13,6.99-10.83,12.39-6.84,18.5
						c3.02,4.62,8.54,5.91,14.35,2.11c9.4-6.14,11.98-17.82,4.67-29L1940.29,185.18z"/>
				</g>
				<g>
					<polygon class="st0" points="1571.42,370.73 1553.71,343.61 1576.41,328.79 1599.8,364.59 					"/>
					<polygon class="st0" points="1576.96,379.22 1596.39,375.02 1584.72,391.11 					"/>
					<polygon class="st0" points="1607.31,376.09 1615.88,389.22 1628.47,432.62 1616.81,440.24 1590.27,399.6 					"/>
				</g>
				<g>
					<polygon class="st0" points="1624.7,335.94 1606.99,308.82 1584.28,323.65 1607.66,359.45 					"/>
					<polygon class="st0" points="1630.24,344.43 1618.59,360.52 1638.01,356.31 					"/>
					<polygon class="st0" points="1615.17,370.95 1623.75,384.08 1658.42,413.06 1670.09,405.44 1643.55,364.81 					"/>
				</g>
			</g>
		</g>
	</g>
	<g>
		<g>
			<path class="st1" d="M1761.25,421.73c-1.29-1.97-2.97-3.03-5.05-3.2c-2.08-0.16-5.28,0.39-9.6,1.66
				c-4.32,1.27-7.98,1.93-10.98,1.99c-5.75,0.1-9.98-1.91-12.67-6.03c-2.36-3.61-2.83-7.54-1.41-11.8
				c1.42-4.26,4.47-7.92,9.17-10.99c3.12-2.04,6.27-3.27,9.46-3.72c3.19-0.45,6.18-0.06,8.96,1.15c2.78,1.21,5.01,3.11,6.7,5.69
				l-7.75,5.06c-1.53-2.34-3.45-3.69-5.78-4.05c-2.33-0.37-4.86,0.34-7.59,2.12c-2.54,1.66-4.16,3.49-4.86,5.5
				c-0.7,2-0.41,3.98,0.87,5.93c1.07,1.64,2.72,2.52,4.96,2.62c2.23,0.11,5.43-0.46,9.6-1.7c4.16-1.24,7.73-1.89,10.71-1.95
				c2.97-0.06,5.52,0.45,7.62,1.52c2.1,1.07,3.9,2.75,5.4,5.05c2.44,3.73,2.95,7.63,1.52,11.71c-1.42,4.07-4.58,7.71-9.48,10.91
				c-3.24,2.12-6.61,3.46-10.11,4.04c-3.5,0.58-6.69,0.3-9.58-0.83c-2.89-1.13-5.25-3.1-7.08-5.91l7.78-5.08
				c1.66,2.54,3.79,3.96,6.38,4.26c2.59,0.3,5.46-0.58,8.59-2.63c2.71-1.77,4.38-3.65,5.03-5.63
				C1762.69,425.43,1762.42,423.53,1761.25,421.73z"/>
			<path class="st1" d="M1804.54,395.21l-9.71-26.43l7.29-4.76l12.66,39.21l-6.15,4.02l-22.06-18.19l7.91,27.43l-6.15,4.02
				l-30.84-27.33l7.29-4.76l20.23,19.21l-8.02-27.19l5.63-3.68L1804.54,395.21z"/>
			<path class="st1" d="M1848.11,381.46c-0.74-0.42-1.71-1.27-2.89-2.54c-0.76,4.04-2.86,7.18-6.31,9.43
				c-3.34,2.18-6.69,3.01-10.05,2.48c-3.36-0.53-5.95-2.2-7.79-5.01c-2.32-3.55-2.78-7.13-1.38-10.75c1.4-3.62,4.54-7.03,9.45-10.23
				l4.58-2.99l-1.43-2.18c-1.12-1.72-2.51-2.79-4.15-3.19c-1.64-0.41-3.44,0.03-5.41,1.32c-1.7,1.11-2.82,2.45-3.35,4.01
				c-0.53,1.56-0.37,3,0.49,4.31l-7.47,4.88c-1.19-1.82-1.7-3.93-1.53-6.31c0.17-2.38,1-4.7,2.5-6.96c1.49-2.26,3.52-4.23,6.08-5.9
				c3.9-2.54,7.64-3.59,11.24-3.15c3.6,0.45,6.58,2.42,8.96,5.93l9.8,15.01c1.96,2.99,3.94,5.11,5.94,6.34l0.34,0.52L1848.11,381.46
				z M1836.38,381.44c1.48-0.96,2.63-2.23,3.46-3.8c0.83-1.57,1.18-3.17,1.05-4.81l-4.1-6.28l-4.03,2.63
				c-2.77,1.81-4.54,3.65-5.3,5.52c-0.77,1.87-0.57,3.69,0.58,5.46c0.94,1.44,2.16,2.27,3.67,2.5
				C1833.23,382.89,1834.78,382.48,1836.38,381.44z"/>
			<path class="st1" d="M1846.88,334.79l2.73,3.7c0.52-4.58,2.78-8.18,6.78-10.79c6.93-4.53,13.05-2.86,18.35,4.99l14.36,21.99
				l-7.48,4.88l-14.08-21.56c-1.38-2.11-2.86-3.38-4.43-3.8c-1.58-0.42-3.4,0.05-5.47,1.4c-3.02,1.97-4.37,4.8-4.07,8.49
				l15.47,23.68l-7.48,4.88l-21.73-33.28L1846.88,334.79z"/>
		</g>
		<g>
			<path class="st1" d="M1908.07,333.44l20.33-13.28l4.06,6.21l-28.11,18.36l-29.25-44.79l7.78-5.08L1908.07,333.44z"/>
			<path class="st1" d="M1956.95,310.38c-0.74-0.42-1.71-1.27-2.89-2.54c-0.76,4.04-2.86,7.18-6.31,9.43
				c-3.34,2.18-6.69,3.01-10.05,2.48c-3.36-0.53-5.95-2.2-7.79-5.01c-2.32-3.55-2.78-7.13-1.38-10.75c1.4-3.62,4.54-7.03,9.45-10.23
				l4.58-2.99l-1.43-2.18c-1.12-1.72-2.51-2.79-4.15-3.19c-1.64-0.41-3.44,0.03-5.41,1.32c-1.7,1.11-2.82,2.45-3.35,4.01
				c-0.53,1.56-0.37,3,0.49,4.31l-7.47,4.88c-1.19-1.82-1.7-3.93-1.53-6.31c0.17-2.38,1-4.7,2.5-6.96c1.49-2.26,3.52-4.23,6.08-5.9
				c3.9-2.54,7.64-3.59,11.24-3.15c3.6,0.45,6.58,2.42,8.96,5.93l9.8,15.01c1.96,2.99,3.94,5.11,5.94,6.34l0.34,0.52L1956.95,310.38
				z M1945.23,310.36c1.48-0.96,2.63-2.23,3.46-3.8c0.83-1.57,1.18-3.17,1.05-4.81l-4.1-6.28l-4.03,2.63
				c-2.77,1.81-4.54,3.65-5.3,5.52c-0.77,1.87-0.57,3.69,0.58,5.46c0.94,1.44,2.16,2.27,3.67,2.5
				C1942.07,311.81,1943.63,311.4,1945.23,310.36z"/>
			<path class="st1" d="M1972.01,280.18l-1.09,5.58l7.09,10.86l-7.48,4.88l-30.85-47.25l7.48-4.88l17.8,27.25l0.43-4.45l2.43-16.37
				l8.98-5.86l-3.31,21.95l26.36,10.47l-8.64,5.64L1972.01,280.18z"/>
			<path class="st1" d="M2017.21,271.9c-4.74,3.09-9.55,4.11-14.44,3.05c-4.89-1.06-8.96-4.07-12.2-9.04l-0.6-0.92
				c-2.17-3.32-3.47-6.71-3.89-10.16c-0.43-3.45,0.04-6.66,1.41-9.63c1.37-2.97,3.47-5.38,6.33-7.25c4.53-2.96,8.98-3.8,13.34-2.52
				c4.36,1.28,8.27,4.56,11.72,9.85l1.97,3.01l-21.75,14.2c2.02,2.6,4.36,4.18,7.01,4.72c2.65,0.55,5.2,0.03,7.64-1.57
				c3.42-2.24,5.31-5.44,5.66-9.62l6.54,1.21c-0.03,2.86-0.8,5.56-2.31,8.11C2022.12,267.91,2019.98,270.09,2017.21,271.9z
				 M1997.7,243.97c-2.05,1.34-3.24,3.14-3.56,5.4c-0.32,2.26,0.18,4.78,1.5,7.57l14.24-9.3l-0.36-0.55
				c-1.8-2.39-3.7-3.85-5.71-4.37C2001.81,242.2,1999.77,242.62,1997.7,243.97z"/>
		</g>
	</g>
</g>
<g>
	<g>
		<g>
			<g>
				<g>
					<path class="st0" d="M817.89,215.18v-52.71H705.72v49.86c0,28.31,12.11,40.42,30.45,40.42c12.64,0,21.54-8.55,23.5-20.66
						c2.49,13.53,11.4,24.04,27.43,24.04C806.5,256.13,817.89,241.35,817.89,215.18z M752.37,184.2v26.7
						c0,13.36-5.88,19.06-14.25,19.06c-8.37,0-14.42-5.7-14.42-19.06v-26.7H752.37z M769.28,184.2h30.63v28.49
						c0,13.89-5.88,20.65-15.14,20.65c-9.44,0-15.49-6.77-15.49-20.65V184.2z"/>
					<path class="st0" d="M798.84,335.94c4.09,0,6.05,2.14,6.05,5.52c0,2.13-0.53,4.27-1.6,6.59h11.39
						c2.67-3.38,4.99-7.65,4.99-14.78c0-8.9-5.69-15.67-15.14-17.27c9.26-4.45,15.32-14.42,15.32-27.42
						c0-14.96-8.01-24.93-21.55-24.93c-14.96,0-21.19,11.75-24.57,29.91l-4.09,21.54h-2.31c-8.72,0-14.06-4.63-14.06-13.71
						c0-8.9,5.34-13.71,12.99-15.49l-1.78-19.41c-16.03,2.67-27.25,14.96-27.25,35.79c0,20.3,9.61,33.65,30.27,33.65H798.84z
						 M781.22,315.11l3.03-14.78c1.95-9.8,4.45-15.85,11.75-15.85c5.52,0,9.62,3.92,9.62,10.86c0,11.22-8.37,19.77-21.73,19.77
						H781.22z"/>
					<path class="st0" d="M791.72,510.98c17.8-3.92,28.31-17.8,28.31-37.92c0-24.22-15.49-41.67-40.24-41.67
						c-24.75,0-42.56,17.63-42.56,41.13c0,25.64,17.81,38.82,39.17,38.82h6.77v-58.94c12.82,0.72,20.65,9.8,20.65,21.37
						c0,10.51-4.62,16.92-13.88,19.94L791.72,510.98z M771.96,490.5c-10.15-0.35-19.05-6.23-19.05-18.16
						c0-11.75,8.55-18.34,19.05-19.58V490.5z"/>
					<path class="st0" d="M760.38,577.97c-2.32-4.1-3.38-7.66-3.38-12.82c0-11.04,7.83-18.52,22.08-18.52h38.82v-21.37h-78.53v21.37
						h14.96c-8.9,2.85-17.09,11.04-17.09,21.9c0,4.8,1.25,8.72,3.21,11.04L760.38,577.97z"/>
					<path class="st0" d="M705.72,588.57v21.9h20.83v-21.9H705.72z M739.37,610.29h78.53v-21.37h-78.53V610.29z"/>
					<path class="st0" d="M817.89,649.25v-21.37h-78.53v21.37h12.82c-8.9,3.91-14.96,13.89-14.96,25.64
						c0,21.01,14.25,28.67,31.7,28.67h48.96V682.2H773.2c-12.11,0-19.05-4.81-19.05-15.31c0-10.86,8.55-17.63,21.72-17.63H817.89z"
						/>
					<path class="st0" d="M798.84,788.48c4.09,0,6.05,2.14,6.05,5.52c0,2.14-0.53,4.27-1.6,6.59h11.39
						c2.67-3.38,4.99-7.66,4.99-14.78c0-8.9-5.69-15.67-15.14-17.27c9.26-4.45,15.32-14.42,15.32-27.42
						c0-14.96-8.01-24.93-21.55-24.93c-14.96,0-21.19,11.75-24.57,29.91l-4.09,21.55h-2.31c-8.72,0-14.06-4.63-14.06-13.71
						c0-8.91,5.34-13.71,12.99-15.49l-1.78-19.41c-16.03,2.67-27.25,14.96-27.25,35.79c0,20.3,9.61,33.65,30.27,33.65H798.84z
						 M781.22,767.65l3.03-14.78c1.95-9.79,4.45-15.84,11.75-15.84c5.52,0,9.62,3.92,9.62,10.86c0,11.22-8.37,19.77-21.73,19.77
						H781.22z"/>
				</g>
				<g>
					<polygon class="st0" points="734.88,357.35 702.49,357.35 702.49,384.47 745.26,384.47 					"/>
					<polygon class="st0" points="745.02,357.35 752.12,375.92 759.22,357.35 					"/>
					<polygon class="st0" points="758.99,384.47 774.68,384.47 817.89,371.29 817.89,357.35 769.36,357.35 					"/>
				</g>
				<g>
					<polygon class="st0" points="734.88,420.99 702.49,420.99 702.49,393.87 745.26,393.87 					"/>
					<polygon class="st0" points="745.02,420.99 752.12,402.43 759.22,420.99 					"/>
					<polygon class="st0" points="758.99,393.87 774.68,393.87 817.89,407.06 817.89,420.99 769.36,420.99 					"/>
				</g>
			</g>
		</g>
	</g>
	<g>
		<g>
			<path class="st1" d="M881.37,488.41c-2.35,0-4.16-0.83-5.44-2.48c-1.27-1.65-2.56-4.64-3.86-8.95c-1.3-4.31-2.74-7.74-4.33-10.29
				c-3.06-4.87-7.05-7.31-11.98-7.31c-4.31,0-7.86,1.76-10.65,5.27c-2.79,3.51-4.19,8.08-4.19,13.68c0,3.72,0.69,7.04,2.06,9.96
				c1.37,2.92,3.32,5.21,5.86,6.87c2.53,1.67,5.35,2.5,8.43,2.5v-9.26c-2.79,0-4.98-0.87-6.56-2.63c-1.58-1.75-2.37-4.26-2.37-7.51
				c0-3.04,0.65-5.4,1.95-7.07c1.3-1.68,3.11-2.52,5.44-2.52c1.96,0,3.59,0.9,4.91,2.72s2.58,4.8,3.82,8.97
				c1.24,4.16,2.64,7.5,4.22,10.03c1.58,2.52,3.39,4.37,5.44,5.55c2.04,1.18,4.44,1.76,7.18,1.76c4.46,0,8-1.71,10.64-5.13
				c2.63-3.42,3.95-8.05,3.95-13.91c0-3.87-0.72-7.43-2.15-10.67c-1.43-3.25-3.41-5.77-5.93-7.57c-2.52-1.8-5.46-2.7-8.82-2.7v9.29
				c3.04,0,5.39,1.01,7.05,3.01c1.67,2.01,2.5,4.89,2.5,8.63c0,3.23-0.66,5.66-1.97,7.29C885.26,487.6,883.53,488.41,881.37,488.41z
				"/>
			<path class="st1" d="M882.84,539.16l-27.44,6.32v8.71l39.75-10.84V536l-27.3-8.52l27.3-8.38v-7.35l-39.75-10.87v8.71l27.15,6.43
				l-27.15,8.15v6.72L882.84,539.16z"/>
			<path class="st1" d="M895.15,583.16c-0.76-0.39-2-0.73-3.71-1.03c2.96-2.84,4.45-6.32,4.45-10.43c0-3.99-1.14-7.25-3.42-9.77
				c-2.28-2.52-5.09-3.78-8.45-3.78c-4.24,0-7.49,1.57-9.75,4.72c-2.27,3.15-3.4,7.65-3.4,13.5v5.47h-2.61
				c-2.06,0-3.7-0.58-4.94-1.73c-1.24-1.15-1.86-2.9-1.86-5.25c0-2.03,0.51-3.7,1.52-5c1.02-1.3,2.31-1.95,3.88-1.95v-8.93
				c-2.18,0-4.22,0.72-6.12,2.17c-1.9,1.45-3.39,3.41-4.46,5.9c-1.08,2.48-1.62,5.26-1.62,8.32c0,4.65,1.17,8.36,3.51,11.13
				c2.34,2.77,5.63,4.19,9.86,4.26h17.93c3.58,0,6.43,0.5,8.56,1.51h0.62V583.16z M888.72,573.35c0,1.76-0.43,3.42-1.29,4.98
				c-0.86,1.56-2.01,2.72-3.45,3.51h-7.49v-4.81c0-3.31,0.58-5.79,1.73-7.46c1.15-1.67,2.78-2.5,4.89-2.5c1.71,0,3.08,0.57,4.1,1.71
				C888.21,569.91,888.72,571.44,888.72,573.35z"/>
			<path class="st1" d="M855.4,607.64l4.59,0.26c-3.55,2.94-5.33,6.8-5.33,11.57c0,8.28,4.74,12.49,14.22,12.64h26.27v-8.93H869.4
				c-2.52,0-4.39-0.54-5.6-1.63c-1.21-1.09-1.82-2.87-1.82-5.35c0-3.6,1.63-6.28,4.89-8.05h28.29v-8.93H855.4V607.64z"/>
		</g>
		<g>
			<path class="st1" d="M887.73,659.61v24.28h7.42v-33.58h-53.49v9.3H887.73z"/>
			<path class="st1" d="M895.15,713.16c-0.76-0.39-2-0.73-3.71-1.03c2.96-2.84,4.45-6.32,4.45-10.43c0-3.99-1.14-7.25-3.42-9.77
				c-2.28-2.52-5.09-3.78-8.45-3.78c-4.24,0-7.49,1.57-9.75,4.72c-2.27,3.15-3.4,7.65-3.4,13.5v5.47h-2.61
				c-2.06,0-3.7-0.58-4.94-1.73c-1.24-1.15-1.86-2.9-1.86-5.25c0-2.03,0.51-3.7,1.52-5c1.02-1.3,2.31-1.95,3.88-1.95v-8.93
				c-2.18,0-4.22,0.72-6.12,2.17c-1.9,1.45-3.39,3.41-4.46,5.9c-1.08,2.48-1.62,5.26-1.62,8.32c0,4.65,1.17,8.36,3.51,11.13
				c2.34,2.77,5.63,4.19,9.86,4.26h17.93c3.58,0,6.43,0.5,8.56,1.51h0.62V713.16z M888.72,703.35c0,1.76-0.43,3.42-1.29,4.98
				c-0.86,1.56-2.01,2.72-3.45,3.51h-7.49v-4.81c0-3.31,0.58-5.79,1.73-7.46c1.15-1.67,2.78-2.5,4.89-2.5c1.71,0,3.08,0.57,4.1,1.71
				C888.21,699.91,888.72,701.44,888.72,703.35z"/>
			<path class="st1" d="M878.1,742.27l4.08-3.97h12.97v-8.93h-56.43v8.93h32.55l-3.49,2.79l-12.38,10.99v10.73l16.57-14.77
				l23.18,16.35v-10.32L878.1,742.27z"/>
			<path class="st1" d="M895.89,784.65c0-5.66-1.78-10.24-5.35-13.76c-3.56-3.52-8.31-5.27-14.24-5.27h-1.1
				c-3.97,0-7.51,0.76-10.64,2.3c-3.12,1.53-5.55,3.68-7.29,6.45s-2.61,5.85-2.61,9.26c0,5.41,1.73,9.59,5.18,12.55
				c3.45,2.95,8.34,4.43,14.66,4.43h3.6v-25.97c3.28,0.27,5.88,1.37,7.79,3.29c1.91,1.92,2.87,4.34,2.87,7.25
				c0,4.09-1.65,7.42-4.96,9.99l4.59,4.81c2.38-1.59,4.22-3.72,5.53-6.37C895.23,790.94,895.89,787.95,895.89,784.65z
				 M861.83,783.58c0-2.45,0.86-4.43,2.57-5.93c1.71-1.51,4.1-2.47,7.16-2.88v17.01h-0.66c-2.99-0.2-5.25-0.99-6.78-2.39
				C862.6,787.99,861.83,786.06,861.83,783.58z"/>
		</g>
	</g>
</g>
<g>
	<g>
		<g>
			<g>
				<g>
					<path class="st0" d="M423.27,747.88v52.71H311.09v-49.86c0-28.31,12.11-40.42,30.45-40.42c12.64,0,21.54,8.55,23.5,20.66
						c2.49-13.53,11.4-24.04,27.43-24.04C411.87,706.93,423.27,721.71,423.27,747.88z M357.74,778.87v-26.7
						c0-13.36-5.88-19.06-14.25-19.06c-8.37,0-14.42,5.7-14.42,19.06v26.7H357.74z M374.66,778.87h30.63v-28.49
						c0-13.89-5.88-20.65-15.14-20.65c-9.44,0-15.49,6.77-15.49,20.65V778.87z"/>
					<path class="st0" d="M404.22,627.12c4.09,0,6.05-2.14,6.05-5.52c0-2.13-0.53-4.27-1.6-6.59h11.39
						c2.67,3.38,4.99,7.65,4.99,14.78c0,8.9-5.69,15.67-15.14,17.27c9.26,4.45,15.32,14.42,15.32,27.42
						c0,14.96-8.01,24.93-21.55,24.93c-14.96,0-21.19-11.75-24.57-29.91l-4.09-21.54h-2.31c-8.72,0-14.06,4.63-14.06,13.71
						c0,8.9,5.34,13.71,12.99,15.49l-1.78,19.41c-16.03-2.67-27.25-14.96-27.25-35.79c0-20.3,9.61-33.65,30.27-33.65H404.22z
						 M386.59,647.96l3.03,14.78c1.95,9.8,4.45,15.85,11.75,15.85c5.52,0,9.62-3.92,9.62-10.86c0-11.22-8.37-19.77-21.73-19.77
						H386.59z"/>
					<path class="st0" d="M397.1,452.08c17.8,3.92,28.31,17.8,28.31,37.92c0,24.22-15.49,41.67-40.24,41.67
						c-24.75,0-42.56-17.63-42.56-41.13c0-25.65,17.81-38.82,39.17-38.82h6.77v58.94c12.82-0.72,20.65-9.8,20.65-21.37
						c0-10.51-4.62-16.92-13.88-19.94L397.1,452.08z M377.33,472.56c-10.15,0.35-19.05,6.23-19.05,18.16
						c0,11.75,8.55,18.34,19.05,19.58V472.56z"/>
					<path class="st0" d="M365.76,385.09c-2.32,4.1-3.38,7.66-3.38,12.82c0,11.04,7.83,18.52,22.08,18.52h38.82v21.37h-78.53v-21.37
						h14.96c-8.9-2.85-17.09-11.04-17.09-21.9c0-4.8,1.25-8.72,3.21-11.04L365.76,385.09z"/>
					<path class="st0" d="M311.09,374.49v-21.9h20.83v21.9H311.09z M344.74,352.77h78.53v21.37h-78.53V352.77z"/>
					<path class="st0" d="M423.27,313.81v21.37h-78.53v-21.37h12.82c-8.9-3.91-14.96-13.89-14.96-25.64
						c0-21.01,14.25-28.67,31.7-28.67h48.96v21.36h-44.69c-12.11,0-19.05,4.81-19.05,15.31c0,10.86,8.55,17.63,21.72,17.63H423.27z"
						/>
					<path class="st0" d="M404.22,174.58c4.09,0,6.05-2.14,6.05-5.52c0-2.14-0.53-4.27-1.6-6.59h11.39
						c2.67,3.38,4.99,7.66,4.99,14.78c0,8.9-5.69,15.67-15.14,17.27c9.26,4.45,15.32,14.42,15.32,27.42
						c0,14.96-8.01,24.93-21.55,24.93c-14.96,0-21.19-11.75-24.57-29.91l-4.09-21.55h-2.31c-8.72,0-14.06,4.63-14.06,13.71
						c0,8.91,5.34,13.71,12.99,15.49l-1.78,19.41c-16.03-2.67-27.25-14.96-27.25-35.79c0-20.3,9.61-33.65,30.27-33.65H404.22z
						 M386.59,195.41l3.03,14.78c1.95,9.79,4.45,15.84,11.75,15.84c5.52,0,9.62-3.92,9.62-10.86c0-11.22-8.37-19.77-21.73-19.77
						H386.59z"/>
				</g>
				<g>
					<polygon class="st0" points="340.26,605.71 307.87,605.71 307.87,578.59 350.63,578.59 					"/>
					<polygon class="st0" points="350.4,605.71 357.5,587.15 364.59,605.71 					"/>
					<polygon class="st0" points="364.36,578.59 380.05,578.59 423.27,591.78 423.27,605.71 374.74,605.71 					"/>
				</g>
				<g>
					<polygon class="st0" points="340.26,542.07 307.87,542.07 307.87,569.19 350.63,569.19 					"/>
					<polygon class="st0" points="350.4,542.07 357.5,560.63 364.59,542.07 					"/>
					<polygon class="st0" points="364.36,569.19 380.05,569.19 423.27,556.01 423.27,542.07 374.74,542.07 					"/>
				</g>
			</g>
		</g>
	</g>
	<g>
		<g>
			<path class="st1" d="M486.75,474.66c-2.35,0-4.16,0.83-5.44,2.48c-1.27,1.65-2.56,4.64-3.86,8.95c-1.3,4.31-2.74,7.74-4.33,10.29
				c-3.06,4.87-7.05,7.31-11.98,7.31c-4.31,0-7.86-1.76-10.65-5.27c-2.79-3.51-4.19-8.08-4.19-13.68c0-3.72,0.69-7.04,2.06-9.96
				c1.37-2.92,3.32-5.21,5.86-6.87c2.53-1.67,5.35-2.5,8.43-2.5v9.26c-2.79,0-4.98,0.87-6.56,2.63s-2.37,4.26-2.37,7.51
				c0,3.04,0.65,5.4,1.95,7.07c1.3,1.68,3.11,2.52,5.44,2.52c1.96,0,3.59-0.9,4.91-2.72s2.58-4.8,3.82-8.97
				c1.24-4.16,2.64-7.5,4.22-10.03c1.58-2.52,3.39-4.37,5.44-5.55c2.05-1.18,4.44-1.76,7.18-1.76c4.46,0,8,1.71,10.64,5.13
				c2.63,3.42,3.95,8.05,3.95,13.91c0,3.87-0.72,7.43-2.15,10.67c-1.43,3.25-3.41,5.77-5.93,7.57c-2.52,1.8-5.46,2.7-8.82,2.7v-9.29
				c3.04,0,5.39-1.01,7.05-3.01c1.67-2.01,2.5-4.89,2.5-8.63c0-3.23-0.66-5.66-1.97-7.29C490.64,475.47,488.9,474.66,486.75,474.66z
				"/>
			<path class="st1" d="M488.22,423.9l-27.44-6.32v-8.71l39.75,10.84v7.35l-27.3,8.52l27.3,8.38v7.35l-39.75,10.87v-8.71l27.15-6.43
				l-27.15-8.15v-6.72L488.22,423.9z"/>
			<path class="st1" d="M500.52,379.91c-0.76,0.39-2,0.73-3.71,1.03c2.96,2.84,4.45,6.32,4.45,10.43c0,3.99-1.14,7.25-3.42,9.77
				c-2.28,2.52-5.09,3.78-8.45,3.78c-4.24,0-7.49-1.57-9.75-4.72c-2.27-3.15-3.4-7.65-3.4-13.5v-5.47h-2.61
				c-2.06,0-3.7,0.58-4.94,1.73s-1.86,2.9-1.86,5.25c0,2.03,0.51,3.7,1.52,5c1.02,1.3,2.31,1.95,3.88,1.95v8.93
				c-2.18,0-4.22-0.72-6.12-2.17c-1.9-1.45-3.39-3.41-4.46-5.9c-1.08-2.48-1.62-5.26-1.62-8.32c0-4.65,1.17-8.36,3.51-11.13
				c2.34-2.77,5.63-4.19,9.86-4.26h17.93c3.58,0,6.43-0.5,8.56-1.51h0.62V379.91z M494.1,389.72c0-1.76-0.43-3.42-1.29-4.98
				c-0.86-1.56-2.01-2.72-3.45-3.51h-7.49v4.81c0,3.31,0.58,5.79,1.73,7.46c1.15,1.67,2.78,2.5,4.89,2.5c1.71,0,3.08-0.57,4.1-1.71
				C493.59,393.15,494.1,391.63,494.1,389.72z"/>
			<path class="st1" d="M460.77,355.42l4.59-0.26c-3.55-2.94-5.33-6.8-5.33-11.57c0-8.28,4.74-12.49,14.22-12.64h26.27v8.93h-25.75
				c-2.52,0-4.39,0.54-5.6,1.63c-1.21,1.09-1.82,2.87-1.82,5.35c0,3.6,1.63,6.28,4.89,8.05h28.29v8.93h-39.75V355.42z"/>
		</g>
		<g>
			<path class="st1" d="M493.1,303.45v-24.28h7.42v33.58h-53.49v-9.3H493.1z"/>
			<path class="st1" d="M500.52,249.91c-0.76,0.39-2,0.73-3.71,1.03c2.96,2.84,4.45,6.32,4.45,10.43c0,3.99-1.14,7.25-3.42,9.77
				c-2.28,2.52-5.09,3.78-8.45,3.78c-4.24,0-7.49-1.57-9.75-4.72c-2.27-3.15-3.4-7.65-3.4-13.5v-5.47h-2.61
				c-2.06,0-3.7,0.58-4.94,1.73s-1.86,2.9-1.86,5.25c0,2.03,0.51,3.7,1.52,5c1.02,1.3,2.31,1.95,3.88,1.95v8.93
				c-2.18,0-4.22-0.72-6.12-2.17c-1.9-1.45-3.39-3.41-4.46-5.9c-1.08-2.48-1.62-5.26-1.62-8.32c0-4.65,1.17-8.36,3.51-11.13
				c2.34-2.77,5.63-4.19,9.86-4.26h17.93c3.58,0,6.43-0.5,8.56-1.51h0.62V249.91z M494.1,259.72c0-1.76-0.43-3.42-1.29-4.98
				c-0.86-1.56-2.01-2.72-3.45-3.51h-7.49v4.81c0,3.31,0.58,5.79,1.73,7.46c1.15,1.67,2.78,2.5,4.89,2.5c1.71,0,3.08-0.57,4.1-1.71
				C493.59,263.15,494.1,261.63,494.1,259.72z"/>
			<path class="st1" d="M483.48,220.79l4.08,3.97h12.97v8.93H444.1v-8.93h32.55l-3.49-2.79l-12.38-10.99v-10.73l16.57,14.77
				l23.18-16.35V209L483.48,220.79z"/>
			<path class="st1" d="M501.26,178.42c0,5.66-1.78,10.24-5.35,13.76c-3.56,3.52-8.31,5.27-14.24,5.27h-1.1
				c-3.97,0-7.51-0.76-10.64-2.3s-5.55-3.68-7.29-6.45s-2.61-5.85-2.61-9.26c0-5.41,1.73-9.59,5.18-12.55
				c3.45-2.95,8.34-4.43,14.66-4.43h3.6v25.97c3.28-0.27,5.88-1.37,7.79-3.29c1.91-1.92,2.87-4.34,2.87-7.25
				c0-4.09-1.65-7.42-4.96-9.99l4.59-4.81c2.38,1.59,4.22,3.72,5.53,6.37C500.6,172.13,501.26,175.11,501.26,178.42z M467.2,179.48
				c0,2.45,0.86,4.43,2.57,5.93c1.71,1.51,4.1,2.47,7.16,2.88v-17.01h-0.66c-2.99,0.2-5.25,0.99-6.78,2.39
				C467.97,175.07,467.2,177.01,467.2,179.48z"/>
		</g>
	</g>
</g>
<line class="st2" x1="1060.91" y1="133.97" x2="102.58" y2="761.66"/>
<line class="st2" x1="102.58" y1="133.97" x2="1060.91" y2="761.66"/>
<line class="st2" x1="2367.5" y1="133.97" x2="1409.17" y2="761.66"/>
<line class="st2" x1="1409.17" y1="133.97" x2="2367.5" y2="761.66"/>
</svg>
