<?xml version="1.0" encoding="utf-8"?>
<!-- Generator: Adobe Illustrator 28.0.0, SVG Export Plug-In . SVG Version: 6.00 Build 0)  -->
<svg version="1.1" id="Layer_1" xmlns="http://www.w3.org/2000/svg" xmlns:xlink="http://www.w3.org/1999/xlink" x="0px" y="0px"
	 viewBox="0 0 1200 800" style="enable-background:new 0 0 1200 800;" xml:space="preserve">
<style type="text/css">
	.st0{fill:#464646;}
	.st1{fill:#53C3C2;}
	.st2{fill:none;stroke:#BE1E2D;stroke-width:8;stroke-miterlimit:10;}
</style>
<path class="st0" d="M164.19,473H85V304.56h74.88c42.52,0,60.7,18.19,60.7,45.73c0,19-12.83,32.36-31,35.3
	c20.32,3.74,36.1,17.11,36.1,41.18c0,29.15-22.19,46.27-61.5,46.27 M117.65,374.62h40.11c20.06,0,28.61-8.82,28.61-21.38
	s-8.55-21.66-28.61-21.66h-40.1L117.65,374.62z M117.65,400.03v46h42.78c20.86,0,31-8.83,31-22.73c0-14.18-10.16-23.27-31-23.27
	H117.65z"/>
<path class="st0" d="M352.22,444.42c0,6.16,3.21,9.09,8.29,9.09c3.43-0.06,6.81-0.89,9.89-2.41v17.12c-5.08,4-11.49,7.49-22.19,7.49
	c-13.37,0-23.54-8.56-25.94-22.73c-6.69,13.9-21.66,23-41.19,23c-22.46,0-37.43-12-37.43-32.35c0-22.47,17.65-31.82,44.92-36.91
	l32.36-6.15v-3.47c0-13.1-6.93-21.1-20.59-21.1c-13.37,0-20.59,8-23.26,19.51l-29.15-2.67c4-24.07,22.46-40.91,53.74-40.91
	c30.49,0,50.55,14.43,50.55,45.45L352.22,444.42z M320.93,418l-22.19,4.55c-14.71,2.93-23.8,6.68-23.8,17.64
	c0,8.3,5.88,14.45,16.31,14.45c16.84,0,29.68-12.57,29.68-32.63V418z"/>
<path class="st0" d="M638.84,433.73c-5.88,26.73-26.74,42.51-57,42.51c-36.37,0-62.57-23.26-62.57-60.43s26.47-63.91,61.77-63.91
	c38.51,0,58.3,26.74,58.3,58.83v10.16h-88.48c1.07,19.25,14.71,31,32.09,31c15.78,0,25.41-7,29.95-20.86L638.84,433.73z M608.09,404
	c-0.54-15.24-9.36-28.61-27.28-28.61c-17.65,0-27.54,12.83-29.41,28.61H608.09z"/>
<path class="st0" d="M747.37,386.66c-5.8-3.49-12.48-5.25-19.25-5.08c-16.58,0-27.81,11.77-27.81,33.16V473h-32.08V355.1h32.08
	v22.47c4.28-13.37,16.58-25.67,32.89-25.67c7.22,0,13.1,1.87,16.58,4.81L747.37,386.66z"/>
<path class="st0" d="M783.22,304.56h32.89v31.29h-32.89V304.56z M815.84,473h-32.09V355.1h32.09V473z"/>
<path class="st0" d="M884.59,473H852.5V355.1h32.09v19.26c5.88-13.37,20.86-22.46,38.5-22.46c31.56,0,43.06,21.39,43.06,47.59V473
	h-32.09v-67.09c0-18.18-7.22-28.61-23-28.61c-16.31,0-26.47,12.84-26.47,32.62V473z"/>
<path class="st0" d="M1102.18,444.42c0,6.16,3.21,9.09,8.29,9.09c3.43-0.06,6.81-0.89,9.89-2.41v17.12c-5.08,4-11.5,7.49-22.19,7.49
	c-13.37,0-23.54-8.56-25.94-22.73c-6.69,13.9-21.67,23-41.18,23c-22.47,0-37.44-12-37.44-32.35c0-22.47,17.64-31.82,44.92-36.91
	l32.36-6.15v-3.47c0-13.1-7-21.12-20.59-21.12c-13.38,0-20.6,8-23.26,19.51l-29.16-2.67c4-24.07,22.47-40.91,53.75-40.91
	c30.49,0,50.55,14.43,50.55,45.45L1102.18,444.42z M1070.89,418l-22.2,4.55c-14.7,2.93-23.79,6.68-23.79,17.64
	c0,8.3,5.88,14.45,16.3,14.45c16.85,0,29.69-12.57,29.69-32.63V418z"/>
<polygon class="st0" points="398.9,348.37 398.9,299.72 439.63,299.72 439.63,363.95 "/>
<polygon class="st0" points="398.9,363.59 426.77,374.26 398.9,384.92 "/>
<polygon class="st0" points="439.63,384.57 439.63,408.13 419.82,473.04 398.9,473.04 398.9,400.15 "/>
<polygon class="st0" points="494.47,348.37 494.47,299.72 453.74,299.72 453.74,363.95 "/>
<polygon class="st0" points="494.47,363.59 466.59,374.26 494.47,384.92 "/>
<polygon class="st0" points="453.74,384.57 453.74,408.13 473.54,473.04 494.47,473.04 494.47,400.15 "/>
<g>
	<g>
		<g>
			<g>
				<g>
					<path class="st0" d="M163.65,471.91H85V304.53h74.39c42.25,0,60.32,18.07,60.32,45.44c0,18.86-12.75,32.15-30.82,35.07
						c20.19,3.72,35.87,17,35.87,40.92C224.75,454.91,202.7,471.91,163.65,471.91z M117.42,374.14h39.84
						c19.93,0,28.43-8.77,28.43-21.26c0-12.49-8.5-21.52-28.43-21.52h-39.84V374.14z M117.42,399.38v45.7h42.51
						c20.72,0,30.82-8.77,30.82-22.59c0-14.08-10.1-23.11-30.82-23.11H117.42z"/>
					<path class="st0" d="M351.93,443.49c0,6.11,3.19,9.03,8.24,9.03c3.19,0,6.37-0.79,9.83-2.39v17
						c-5.05,3.99-11.42,7.44-22.05,7.44c-13.28,0-23.38-8.5-25.77-22.58c-6.64,13.82-21.52,22.85-40.92,22.85
						c-22.32,0-37.19-11.96-37.19-32.15c0-22.32,17.53-31.61,44.64-36.67l32.15-6.11v-3.45c0-13.01-6.9-20.99-20.46-20.99
						c-13.28,0-20.45,7.97-23.11,19.39l-28.97-2.65c3.99-23.91,22.32-40.65,53.41-40.65c30.29,0,50.21,14.34,50.21,45.17V443.49z
						 M320.84,417.18l-22.05,4.52c-14.62,2.91-23.65,6.64-23.65,17.53c0,8.24,5.84,14.35,16.2,14.35
						c16.74,0,29.49-12.49,29.49-32.42V417.18z"/>
					<path class="st0" d="M640.46,432.86c-5.85,26.56-26.57,42.24-56.59,42.24c-36.14,0-62.17-23.12-62.17-60.04
						c0-36.93,26.3-63.5,61.37-63.5c38.27,0,57.93,26.57,57.93,58.45v10.1h-87.95c1.07,19.12,14.62,30.81,31.88,30.81
						c15.68,0,25.24-6.9,29.76-20.71L640.46,432.86z M609.91,403.37c-0.53-15.14-9.3-28.43-27.1-28.43
						c-17.53,0-27.36,12.76-29.22,28.43H609.91z"/>
					<path class="st0" d="M747.14,386.1c-6.12-3.46-11.43-5.04-19.13-5.04c-16.47,0-27.63,11.68-27.63,32.94v57.92h-31.88V354.74
						h31.88v22.32c4.25-13.29,16.47-25.51,32.68-25.51c7.17,0,13.01,1.86,16.47,4.79L747.14,386.1z"/>
					<path class="st0" d="M783.33,304.53H816v31.08h-32.68V304.53z M815.74,354.74v117.17h-31.89V354.74H815.74z"/>
					<path class="st0" d="M884.75,471.91h-31.88V354.74h31.88v19.13c5.84-13.28,20.72-22.32,38.26-22.32
						c31.35,0,42.77,21.26,42.77,47.3v73.06H933.9v-66.68c0-18.07-7.18-28.43-22.85-28.43c-16.21,0-26.3,12.75-26.3,32.41V471.91z"
						/>
					<path class="st0" d="M1101.88,443.49c0,6.11,3.19,9.03,8.24,9.03c3.19,0,6.38-0.79,9.83-2.39v17
						c-5.05,3.99-11.43,7.44-22.06,7.44c-13.28,0-23.38-8.5-25.77-22.58c-6.64,13.82-21.52,22.85-40.91,22.85
						c-22.32,0-37.2-11.96-37.2-32.15c0-22.32,17.53-31.61,44.64-36.67l32.15-6.11v-3.45c0-13.01-6.91-20.99-20.46-20.99
						c-13.29,0-20.46,7.97-23.11,19.39l-28.96-2.65c3.98-23.91,22.32-40.65,53.4-40.65c30.29,0,50.21,14.34,50.21,45.17V443.49z
						 M1070.8,417.18l-22.06,4.52c-14.61,2.91-23.64,6.64-23.64,17.53c0,8.24,5.85,14.35,16.2,14.35c16.74,0,29.5-12.49,29.5-32.42
						V417.18z"/>
				</g>
				<g>
					<polygon class="st0" points="399.48,348.05 399.48,299.72 439.94,299.72 439.94,363.53 					"/>
					<polygon class="st0" points="399.48,363.18 427.18,373.78 399.48,384.36 					"/>
					<polygon class="st0" points="439.94,384.02 439.94,407.43 420.27,471.91 399.48,471.91 399.48,399.5 					"/>
				</g>
				<g>
					<polygon class="st0" points="494.43,348.05 494.43,299.72 453.97,299.72 453.97,363.53 					"/>
					<polygon class="st0" points="494.43,363.18 466.74,373.78 494.43,384.36 					"/>
					<polygon class="st0" points="453.97,384.02 453.97,407.43 473.64,471.91 494.43,471.91 494.43,399.5 					"/>
				</g>
			</g>
		</g>
	</g>
	<g>
		<g>
			<path class="st1" d="M526.3,566.63c0-3.51-1.23-6.21-3.7-8.11c-2.47-1.9-6.92-3.82-13.35-5.76c-6.43-1.94-11.55-4.09-15.35-6.47
				c-7.27-4.57-10.91-10.52-10.91-17.87c0-6.43,2.62-11.73,7.87-15.9c5.24-4.17,12.05-6.25,20.42-6.25c5.55,0,10.51,1.02,14.85,3.07
				c4.35,2.05,7.77,4.96,10.25,8.74c2.49,3.78,3.73,7.98,3.73,12.58H526.3c0-4.17-1.31-7.43-3.92-9.78
				c-2.61-2.36-6.35-3.54-11.21-3.54c-4.53,0-8.05,0.97-10.55,2.91c-2.5,1.94-3.75,4.64-3.75,8.11c0,2.92,1.35,5.36,4.05,7.32
				c2.7,1.95,7.16,3.86,13.38,5.7c6.21,1.85,11.2,3.95,14.96,6.3c3.76,2.36,6.52,5.06,8.28,8.11c1.76,3.05,2.63,6.62,2.63,10.72
				c0,6.65-2.55,11.94-7.65,15.87c-5.1,3.93-12.01,5.89-20.75,5.89c-5.77,0-11.08-1.07-15.92-3.21c-4.84-2.14-8.6-5.09-11.29-8.85
				c-2.69-3.76-4.03-8.15-4.03-13.16h13.87c0,4.53,1.5,8.04,4.49,10.52c3,2.49,7.29,3.73,12.88,3.73c4.83,0,8.45-0.98,10.88-2.93
				C525.09,572.43,526.3,569.85,526.3,566.63z"/>
			<path class="st1" d="M619.41,568.83l9.43-40.95h12.99l-16.17,59.31H614.7l-12.72-40.73l-12.5,40.73h-10.96l-16.23-59.31h12.99
				l9.6,40.51l12.17-40.51h10.03L619.41,568.83z"/>
			<path class="st1" d="M701.29,587.19c-0.58-1.13-1.1-2.98-1.53-5.54c-4.24,4.42-9.43,6.63-15.57,6.63c-5.96,0-10.82-1.7-14.58-5.1
				c-3.77-3.4-5.65-7.6-5.65-12.61c0-6.32,2.35-11.17,7.04-14.55c4.69-3.38,11.41-5.07,20.15-5.07h8.17v-3.89
				c0-3.07-0.86-5.53-2.58-7.37c-1.72-1.85-4.33-2.77-7.84-2.77c-3.03,0-5.52,0.76-7.46,2.27c-1.94,1.52-2.91,3.45-2.91,5.78h-13.32
				c0-3.25,1.08-6.29,3.23-9.13c2.16-2.83,5.09-5.05,8.8-6.66c3.71-1.61,7.84-2.41,12.41-2.41c6.94,0,12.48,1.74,16.61,5.23
				c4.13,3.49,6.25,8.4,6.36,14.72v26.75c0,5.34,0.75,9.59,2.25,12.77v0.93H701.29z M686.66,577.6c2.63,0,5.11-0.64,7.43-1.92
				c2.32-1.28,4.07-3,5.23-5.15v-11.18h-7.18c-4.93,0-8.64,0.86-11.13,2.58c-2.49,1.72-3.73,4.15-3.73,7.29
				c0,2.56,0.85,4.6,2.55,6.11C681.53,576.84,683.8,577.6,686.66,577.6z"/>
			<path class="st1" d="M749.56,527.88l0.38,6.85c4.39-5.3,10.14-7.95,17.27-7.95c12.35,0,18.64,7.07,18.86,21.21v39.19h-13.32
				v-38.43c0-3.76-0.81-6.55-2.44-8.36c-1.63-1.81-4.29-2.71-7.98-2.71c-5.37,0-9.37,2.43-12.01,7.29v42.21h-13.32v-59.31H749.56z"
				/>
		</g>
		<g>
			<path class="st1" d="M863.35,576.12h36.23v11.07h-50.1v-79.81h13.87V576.12z"/>
			<path class="st1" d="M956.18,587.19c-0.58-1.13-1.1-2.98-1.53-5.54c-4.24,4.42-9.43,6.63-15.57,6.63c-5.96,0-10.82-1.7-14.58-5.1
				c-3.77-3.4-5.65-7.6-5.65-12.61c0-6.32,2.35-11.17,7.04-14.55c4.69-3.38,11.41-5.07,20.15-5.07h8.17v-3.89
				c0-3.07-0.86-5.53-2.58-7.37c-1.72-1.85-4.33-2.77-7.84-2.77c-3.03,0-5.52,0.76-7.46,2.27c-1.94,1.52-2.91,3.45-2.91,5.78h-13.32
				c0-3.25,1.08-6.29,3.23-9.13c2.16-2.83,5.09-5.05,8.8-6.66c3.71-1.61,7.84-2.41,12.41-2.41c6.94,0,12.48,1.74,16.61,5.23
				c4.13,3.49,6.25,8.4,6.36,14.72v26.75c0,5.34,0.75,9.59,2.25,12.77v0.93H956.18z M941.55,577.6c2.63,0,5.11-0.64,7.43-1.92
				c2.32-1.28,4.07-3,5.23-5.15v-11.18h-7.18c-4.93,0-8.64,0.86-11.13,2.58c-2.49,1.72-3.73,4.15-3.73,7.29
				c0,2.56,0.85,4.6,2.55,6.11C936.42,576.84,938.7,577.6,941.55,577.6z"/>
			<path class="st1" d="M1008.29,561.75l-5.92,6.08v19.35h-13.32v-84.2h13.32v48.57l4.17-5.21l16.39-18.47h16l-22.03,24.72
				l24.39,34.59h-15.4L1008.29,561.75z"/>
			<path class="st1" d="M1088.95,588.29c-8.44,0-15.28-2.66-20.53-7.98c-5.25-5.32-7.87-12.4-7.87-21.24v-1.64
				c0-5.92,1.14-11.21,3.43-15.87c2.28-4.66,5.49-8.29,9.62-10.88s8.73-3.89,13.81-3.89c8.08,0,14.32,2.58,18.72,7.73
				c4.4,5.15,6.6,12.44,6.6,21.87v5.37h-38.75c0.4,4.9,2.04,8.77,4.91,11.62c2.87,2.85,6.48,4.28,10.83,4.28
				c6.1,0,11.07-2.47,14.91-7.4l7.18,6.85c-2.37,3.55-5.54,6.3-9.51,8.25C1098.33,587.31,1093.88,588.29,1088.95,588.29z
				 M1087.36,537.47c-3.65,0-6.6,1.28-8.85,3.84s-3.68,6.12-4.3,10.69h25.38v-0.99c-0.29-4.46-1.48-7.83-3.56-10.11
				C1093.94,538.61,1091.05,537.47,1087.36,537.47z"/>
		</g>
	</g>
</g>
<line class="st2" x1="123.53" y1="74.14" x2="1081.86" y2="701.83"/>
<line class="st2" x1="1081.86" y1="74.14" x2="123.53" y2="701.83"/>
</svg>
