<?xml version="1.0" encoding="utf-8"?>
<!-- Generator: Adobe Illustrator 28.0.0, SVG Export Plug-In . SVG Version: 6.00 Build 0)  -->
<svg version="1.1" id="Layer_1" xmlns="http://www.w3.org/2000/svg" xmlns:xlink="http://www.w3.org/1999/xlink" x="0px" y="0px"
	 viewBox="0 0 1200 800" style="enable-background:new 0 0 1200 800;" xml:space="preserve">
<style type="text/css">
	.st0{fill:#464646;}
	.st1{fill:#53C3C2;}
</style>
<g>
	<g>
		<g>
			<g>
				<g>
					<path class="st0" d="M158.34,431.02h-87.4V245h82.67c46.95,0,67.03,20.08,67.03,50.49c0,20.96-14.17,35.72-34.25,38.97
						c22.44,4.13,39.86,18.9,39.86,45.48C226.25,412.12,201.74,431.02,158.34,431.02z M106.97,322.36h44.28
						c22.15,0,31.6-9.75,31.6-23.62c0-13.88-9.45-23.92-31.6-23.92h-44.28V322.36z M106.97,350.41v50.79h47.24
						c23.03,0,34.25-9.74,34.25-25.1c0-15.65-11.22-25.69-34.25-25.69H106.97z"/>
					<path class="st0" d="M358.59,399.43c0,6.79,3.55,10.04,9.16,10.04c3.54,0,7.08-0.88,10.92-2.66v18.89
						c-5.61,4.43-12.69,8.27-24.5,8.27c-14.76,0-25.99-9.44-28.64-25.1c-7.38,15.35-23.92,25.4-45.47,25.4
						c-24.8,0-41.33-13.29-41.33-35.73c0-24.8,19.48-35.13,49.6-40.75l35.72-6.79v-3.84c0-14.46-7.67-23.32-22.74-23.32
						c-14.76,0-22.73,8.86-25.68,21.55l-32.19-2.95c4.43-26.58,24.8-45.18,59.35-45.18c33.66,0,55.8,15.94,55.8,50.2V399.43z
						 M324.04,370.2l-24.5,5.02c-16.25,3.24-26.28,7.38-26.28,19.48c0,9.16,6.49,15.95,18,15.95c18.61,0,32.78-13.88,32.78-36.03
						V370.2z"/>
					<path class="st0" d="M648.83,387.62c-6.5,29.52-29.52,46.94-62.89,46.94c-40.16,0-69.09-25.69-69.09-66.73
						c0-41.04,29.23-70.57,68.2-70.57c42.52,0,64.37,29.52,64.37,64.96v11.22h-97.74c1.19,21.25,16.24,34.24,35.43,34.24
						c17.42,0,28.05-7.67,33.07-23.02L648.83,387.62z M614.88,354.84c-0.59-16.83-10.33-31.6-30.12-31.6
						c-19.48,0-30.41,14.18-32.47,31.6H614.88z"/>
					<path class="st0" d="M759.93,335.65c-6.8-3.84-12.7-5.61-21.26-5.61c-18.3,0-30.7,12.98-30.7,36.61v64.37h-35.43V300.8h35.43
						v24.81c4.72-14.77,18.3-28.35,36.31-28.35c7.97,0,14.46,2.07,18.3,5.32L759.93,335.65z"/>
					<path class="st0" d="M777.49,245h36.32v34.54h-36.32V245z M813.52,300.8v130.21h-35.44V300.8H813.52z"/>
					<path class="st0" d="M878.12,431.02h-35.43V300.8h35.43v21.26c6.49-14.76,23.03-24.8,42.52-24.8
						c34.84,0,47.53,23.62,47.53,52.56v81.19h-35.43v-74.11c0-20.08-7.98-31.59-25.39-31.59c-18.01,0-29.23,14.17-29.23,36.02
						V431.02z"/>
					<path class="st0" d="M1108.99,399.43c0,6.79,3.54,10.04,9.15,10.04c3.55,0,7.09-0.88,10.93-2.66v18.89
						c-5.61,4.43-12.7,8.27-24.51,8.27c-14.76,0-25.99-9.44-28.64-25.1c-7.38,15.35-23.91,25.4-45.47,25.4
						c-24.8,0-41.34-13.29-41.34-35.73c0-24.8,19.48-35.13,49.6-40.75l35.73-6.79v-3.84c0-14.46-7.68-23.32-22.74-23.32
						c-14.77,0-22.74,8.86-25.68,21.55l-32.19-2.95c4.43-26.58,24.8-45.18,59.35-45.18c33.66,0,55.8,15.94,55.8,50.2V399.43z
						 M1074.45,370.2l-24.51,5.02c-16.24,3.24-26.27,7.38-26.27,19.48c0,9.16,6.5,15.95,18.01,15.95
						c18.61,0,32.78-13.88,32.78-36.03V370.2z"/>
				</g>
				<g>
					<polygon class="st0" points="394.09,293.37 394.09,239.66 439.06,239.66 439.06,310.57 					"/>
					<polygon class="st0" points="394.09,310.18 424.87,321.96 394.09,333.72 					"/>
					<polygon class="st0" points="439.06,333.34 439.06,359.35 417.2,431.02 394.09,431.02 394.09,350.54 					"/>
				</g>
				<g>
					<polygon class="st0" points="499.61,293.37 499.61,239.66 454.64,239.66 454.64,310.57 					"/>
					<polygon class="st0" points="499.61,310.18 468.84,321.96 499.61,333.72 					"/>
					<polygon class="st0" points="454.64,333.34 454.64,359.35 476.51,431.02 499.61,431.02 499.61,350.54 					"/>
				</g>
			</g>
		</g>
	</g>
	<g>
		<g>
			<path class="st1" d="M611.41,536.28c0-3.9-1.37-6.9-4.11-9.02c-2.74-2.11-7.69-4.24-14.84-6.4c-7.15-2.15-12.83-4.55-17.06-7.19
				c-8.08-5.08-12.12-11.7-12.12-19.86c0-7.15,2.91-13.04,8.74-17.67c5.83-4.63,13.39-6.94,22.69-6.94c6.17,0,11.67,1.14,16.51,3.41
				c4.83,2.27,8.63,5.51,11.39,9.72c2.76,4.2,4.14,8.86,4.14,13.98h-15.35c0-4.63-1.45-8.25-4.35-10.87
				c-2.9-2.62-7.06-3.93-12.46-3.93c-5.04,0-8.95,1.08-11.73,3.23c-2.78,2.15-4.17,5.16-4.17,9.01c0,3.25,1.5,5.96,4.51,8.13
				c3.01,2.17,7.96,4.28,14.87,6.34c6.9,2.05,12.44,4.39,16.63,7c4.18,2.62,7.25,5.63,9.2,9.02c1.95,3.39,2.93,7.36,2.93,11.91
				c0,7.39-2.83,13.27-8.5,17.64c-5.67,4.37-13.35,6.55-23.06,6.55c-6.42,0-12.31-1.19-17.7-3.56c-5.38-2.38-9.56-5.65-12.55-9.84
				c-2.98-4.18-4.47-9.06-4.47-14.62h15.41c0,5.04,1.67,8.93,4.99,11.7c3.33,2.76,8.1,4.14,14.32,4.14c5.36,0,9.39-1.09,12.09-3.26
				C610.06,542.73,611.41,539.85,611.41,536.28z"/>
			<path class="st1" d="M695.57,538.71l10.48-45.5h14.44l-17.97,65.91h-12.18l-14.13-45.26l-13.89,45.26h-12.18l-18.03-65.91h14.44
				l10.66,45.02l13.52-45.02h11.15L695.57,538.71z"/>
			<path class="st1" d="M768.52,559.12c-0.65-1.26-1.22-3.31-1.7-6.15c-4.71,4.91-10.48,7.37-17.3,7.37
				c-6.62,0-12.02-1.89-16.2-5.67c-4.18-3.78-6.27-8.45-6.27-14.01c0-7.02,2.61-12.42,7.83-16.17c5.22-3.76,12.68-5.64,22.39-5.64
				h9.08v-4.33c0-3.41-0.96-6.14-2.86-8.19s-4.81-3.08-8.71-3.08c-3.37,0-6.13,0.84-8.29,2.53c-2.15,1.69-3.23,3.83-3.23,6.43h-14.8
				c0-3.61,1.2-6.99,3.59-10.14c2.4-3.15,5.66-5.61,9.78-7.4c4.12-1.79,8.72-2.68,13.8-2.68c7.72,0,13.87,1.94,18.46,5.82
				c4.59,3.88,6.94,9.33,7.07,16.36v29.73c0,5.93,0.83,10.66,2.5,14.19v1.04H768.52z M752.25,548.46c2.92,0,5.67-0.71,8.25-2.13
				c2.58-1.42,4.52-3.33,5.82-5.73v-12.43h-7.98c-5.48,0-9.61,0.95-12.37,2.86c-2.76,1.91-4.14,4.61-4.14,8.1
				c0,2.84,0.95,5.11,2.83,6.79C746.56,547.62,749.08,548.46,752.25,548.46z"/>
			<path class="st1" d="M809.12,493.21l0.43,7.61c4.87-5.89,11.27-8.83,19.19-8.83c13.72,0,20.71,7.86,20.96,23.57v43.56h-14.8
				v-42.7c0-4.18-0.9-7.28-2.71-9.29c-1.81-2.01-4.76-3.02-8.86-3.02c-5.97,0-10.42,2.7-13.34,8.1v46.91h-14.8v-65.91H809.12z"/>
		</g>
		<g>
			<path class="st1" d="M895.3,546.82h40.27v12.31h-55.68v-88.7h15.41V546.82z"/>
			<path class="st1" d="M984.08,559.12c-0.65-1.26-1.22-3.31-1.7-6.15c-4.71,4.91-10.48,7.37-17.3,7.37
				c-6.62,0-12.02-1.89-16.2-5.67c-4.18-3.78-6.27-8.45-6.27-14.01c0-7.02,2.61-12.42,7.83-16.17c5.22-3.76,12.68-5.64,22.39-5.64
				h9.08v-4.33c0-3.41-0.96-6.14-2.86-8.19s-4.81-3.08-8.71-3.08c-3.37,0-6.13,0.84-8.29,2.53c-2.15,1.69-3.23,3.83-3.23,6.43H944
				c0-3.61,1.2-6.99,3.59-10.14c2.4-3.15,5.66-5.61,9.78-7.4c4.12-1.79,8.72-2.68,13.8-2.68c7.72,0,13.87,1.94,18.46,5.82
				c4.59,3.88,6.94,9.33,7.07,16.36v29.73c0,5.93,0.83,10.66,2.5,14.19v1.04H984.08z M967.82,548.46c2.92,0,5.67-0.71,8.25-2.13
				c2.58-1.42,4.52-3.33,5.82-5.73v-12.43h-7.98c-5.48,0-9.61,0.95-12.37,2.86c-2.76,1.91-4.14,4.61-4.14,8.1
				c0,2.84,0.95,5.11,2.83,6.79C962.12,547.62,964.65,548.46,967.82,548.46z"/>
			<path class="st1" d="M1032.36,530.86l-6.58,6.76v21.5h-14.8v-93.57h14.8v53.97l4.63-5.79l18.22-20.53h17.79l-24.49,27.47
				l27.11,38.44h-17.12L1032.36,530.86z"/>
			<path class="st1" d="M1102.63,560.34c-9.38,0-16.98-2.95-22.81-8.86c-5.83-5.91-8.74-13.78-8.74-23.61v-1.83
				c0-6.58,1.27-12.46,3.81-17.64c2.54-5.18,6.1-9.21,10.69-12.09c4.59-2.88,9.7-4.32,15.35-4.32c8.97,0,15.91,2.86,20.8,8.59
				c4.89,5.73,7.34,13.83,7.34,24.31v5.97H1086c0.45,5.44,2.26,9.75,5.45,12.91c3.19,3.17,7.2,4.75,12.03,4.75
				c6.78,0,12.31-2.74,16.57-8.22l7.98,7.61c-2.64,3.94-6.16,7-10.57,9.17C1113.06,559.25,1108.11,560.34,1102.63,560.34z
				 M1100.87,503.87c-4.06,0-7.34,1.42-9.84,4.26c-2.5,2.84-4.09,6.8-4.78,11.88h28.2v-1.1c-0.32-4.95-1.65-8.7-3.96-11.24
				C1108.18,505.14,1104.97,503.87,1100.87,503.87z"/>
		</g>
	</g>
</g>
</svg>
