<?xml version="1.0" encoding="utf-8"?>
<!-- Generator: Adobe Illustrator 28.0.0, SVG Export Plug-In . SVG Version: 6.00 Build 0)  -->
<svg version="1.1" id="Layer_1" xmlns="http://www.w3.org/2000/svg" xmlns:xlink="http://www.w3.org/1999/xlink" x="0px" y="0px"
	 viewBox="0 0 1200 800" style="enable-background:new 0 0 1200 800;" xml:space="preserve">
<style type="text/css">
	.st0{fill:#464646;}
	.st1{fill:#53C3C2;}
	.st2{fill:none;stroke:#BE1E2D;stroke-width:8;stroke-miterlimit:10;}
</style>
<g>
	<g>
		<g>
			<g>
				<g>
					<path class="st0" d="M208.8,523.3h-79.2V354.7h74.9c42.5,0,60.7,18.2,60.7,45.8c0,19-12.8,32.4-31,35.3
						c20.3,3.7,36.1,17.1,36.1,41.2C270.3,506.2,248.1,523.3,208.8,523.3z M162.2,424.8h40.1c20.1,0,28.6-8.8,28.6-21.4
						c0-12.6-8.6-21.7-28.6-21.7h-40.1V424.8z M162.2,450.2v46H205c20.9,0,31-8.8,31-22.7c0-14.2-10.2-23.3-31-23.3H162.2z"/>
					<path class="st0" d="M390.2,494.7c0,6.2,3.2,9.1,8.3,9.1c3.2,0,6.4-0.8,9.9-2.4v17.1c-5.1,4-11.5,7.5-22.2,7.5
						c-13.4,0-23.5-8.6-26-22.7c-6.7,13.9-21.7,23-41.2,23c-22.5,0-37.5-12-37.5-32.4c0-22.5,17.7-31.8,44.9-36.9l32.4-6.2v-3.5
						c0-13.1-7-21.1-20.6-21.1c-13.4,0-20.6,8-23.3,19.5l-29.2-2.7c4-24.1,22.5-40.9,53.8-40.9c30.5,0,50.6,14.4,50.6,45.5V494.7z
						 M358.9,468.2l-22.2,4.5c-14.7,2.9-23.8,6.7-23.8,17.7c0,8.3,5.9,14.5,16.3,14.5c16.9,0,29.7-12.6,29.7-32.6V468.2z"/>
					<path class="st0" d="M653.2,484c-5.9,26.7-26.8,42.5-57,42.5c-36.4,0-62.6-23.3-62.6-60.5c0-37.2,26.5-63.9,61.8-63.9
						c38.5,0,58.3,26.8,58.3,58.9v10.2h-88.6c1.1,19.3,14.7,31,32.1,31c15.8,0,25.4-6.9,30-20.9L653.2,484z M622.5,454.3
						c-0.5-15.3-9.4-28.6-27.3-28.6c-17.7,0-27.6,12.8-29.4,28.6H622.5z"/>
					<path class="st0" d="M753.9,436.9c-6.2-3.5-11.5-5.1-19.3-5.1c-16.6,0-27.8,11.8-27.8,33.2v58.3h-32.1v-118h32.1v22.5
						c4.3-13.4,16.6-25.7,32.9-25.7c7.2,0,13.1,1.9,16.6,4.8L753.9,436.9z"/>
					<path class="st0" d="M769.8,354.7h32.9V386h-32.9V354.7z M802.5,405.3v118h-32.1v-118H802.5z"/>
					<path class="st0" d="M861,523.3h-32.1v-118H861v19.3c5.9-13.4,20.9-22.5,38.5-22.5c31.6,0,43.1,21.4,43.1,47.6v73.6h-32.1
						v-67.2c0-18.2-7.2-28.6-23-28.6c-16.3,0-26.5,12.8-26.5,32.6V523.3z"/>
					<path class="st0" d="M1070.2,494.7c0,6.2,3.2,9.1,8.3,9.1c3.2,0,6.4-0.8,9.9-2.4v17.1c-5.1,4-11.5,7.5-22.2,7.5
						c-13.4,0-23.5-8.6-25.9-22.7c-6.7,13.9-21.7,23-41.2,23c-22.5,0-37.5-12-37.5-32.4c0-22.5,17.7-31.8,44.9-36.9l32.4-6.2v-3.5
						c0-13.1-7-21.1-20.6-21.1c-13.4,0-20.6,8-23.3,19.5l-29.2-2.7c4-24.1,22.5-40.9,53.8-40.9c30.5,0,50.6,14.4,50.6,45.5V494.7z
						 M1038.9,468.2l-22.2,4.5c-14.7,2.9-23.8,6.7-23.8,17.7c0,8.3,5.9,14.5,16.3,14.5c16.9,0,29.7-12.6,29.7-32.6V468.2z"/>
				</g>
				<g>
					<polygon class="st0" points="422.4,398.6 422.4,284.3 463.1,284.3 463.1,414.1 					"/>
					<polygon class="st0" points="422.4,413.8 450.3,424.5 422.4,435.1 					"/>
					<polygon class="st0" points="463.1,434.8 463.1,458.3 443.3,523.3 422.4,523.3 422.4,450.4 					"/>
				</g>
				<g>
					<polygon class="st0" points="518,398.6 518,284.3 477.3,284.3 477.3,414.1 					"/>
					<polygon class="st0" points="518,413.8 490.1,424.5 518,435.1 					"/>
					<polygon class="st0" points="477.3,434.8 477.3,458.3 497.1,523.3 518,523.3 518,450.4 					"/>
				</g>
			</g>
		</g>
	</g>
	<g>
		<g>
			<path class="st1" d="M619.3,618.7c0-3.5-1.2-6.3-3.7-8.2c-2.5-1.9-7-3.8-13.4-5.8c-6.5-1.9-11.6-4.1-15.5-6.5
				c-7.3-4.6-11-10.6-11-18c0-6.5,2.6-11.8,7.9-16c5.3-4.2,12.1-6.3,20.6-6.3c5.6,0,10.6,1,15,3.1c4.4,2.1,7.8,5,10.3,8.8
				c2.5,3.8,3.8,8,3.8,12.7h-13.9c0-4.2-1.3-7.5-3.9-9.9c-2.6-2.4-6.4-3.6-11.3-3.6c-4.6,0-8.1,1-10.6,2.9c-2.5,2-3.8,4.7-3.8,8.2
				c0,2.9,1.4,5.4,4.1,7.4s7.2,3.9,13.5,5.7c6.3,1.9,11.3,4,15.1,6.3c3.8,2.4,6.6,5.1,8.3,8.2c1.8,3.1,2.7,6.7,2.7,10.8
				c0,6.7-2.6,12-7.7,16s-12.1,5.9-20.9,5.9c-5.8,0-11.2-1.1-16-3.2c-4.9-2.2-8.7-5.1-11.4-8.9c-2.7-3.8-4.1-8.2-4.1-13.2h14
				c0,4.6,1.5,8.1,4.5,10.6c3,2.5,7.3,3.8,13,3.8c4.9,0,8.5-1,11-3C618.1,624.5,619.3,621.9,619.3,618.7z"/>
			<path class="st1" d="M695.6,620.9l9.5-41.2h13.1l-16.3,59.7h-11l-12.8-41l-12.6,41h-11l-16.3-59.7h13.1l9.7,40.8l12.3-40.8h10.1
				L695.6,620.9z"/>
			<path class="st1" d="M761.7,639.4c-0.6-1.1-1.1-3-1.5-5.6c-4.3,4.5-9.5,6.7-15.7,6.7c-6,0-10.9-1.7-14.7-5.1
				c-3.8-3.4-5.7-7.7-5.7-12.7c0-6.4,2.4-11.3,7.1-14.7c4.7-3.4,11.5-5.1,20.3-5.1h8.2V599c0-3.1-0.9-5.6-2.6-7.4
				c-1.7-1.9-4.4-2.8-7.9-2.8c-3.1,0-5.6,0.8-7.5,2.3c-2,1.5-2.9,3.5-2.9,5.8h-13.4c0-3.3,1.1-6.3,3.3-9.2c2.2-2.9,5.1-5.1,8.9-6.7
				c3.7-1.6,7.9-2.4,12.5-2.4c7,0,12.6,1.8,16.7,5.3c4.2,3.5,6.3,8.5,6.4,14.8v26.9c0,5.4,0.8,9.7,2.3,12.9v0.9H761.7z M746.9,629.7
				c2.6,0,5.1-0.6,7.5-1.9c2.3-1.3,4.1-3,5.3-5.2v-11.3h-7.2c-5,0-8.7,0.9-11.2,2.6c-2.5,1.7-3.8,4.2-3.8,7.3c0,2.6,0.9,4.6,2.6,6.2
				C741.8,628.9,744.1,629.7,746.9,629.7z"/>
			<path class="st1" d="M798.5,579.6l0.4,6.9c4.4-5.3,10.2-8,17.4-8c12.4,0,18.8,7.1,19,21.4v39.5h-13.4v-38.7
				c0-3.8-0.8-6.6-2.5-8.4c-1.6-1.8-4.3-2.7-8-2.7c-5.4,0-9.4,2.4-12.1,7.3v42.5h-13.4v-59.7H798.5z"/>
		</g>
		<g>
			<path class="st1" d="M876.6,628.2H913v11.2h-50.5V559h14V628.2z"/>
			<path class="st1" d="M957,639.4c-0.6-1.1-1.1-3-1.5-5.6c-4.3,4.5-9.5,6.7-15.7,6.7c-6,0-10.9-1.7-14.7-5.1
				c-3.8-3.4-5.7-7.7-5.7-12.7c0-6.4,2.4-11.3,7.1-14.7c4.7-3.4,11.5-5.1,20.3-5.1h8.2V599c0-3.1-0.9-5.6-2.6-7.4
				c-1.7-1.9-4.4-2.8-7.9-2.8c-3.1,0-5.6,0.8-7.5,2.3c-2,1.5-2.9,3.5-2.9,5.8h-13.4c0-3.3,1.1-6.3,3.3-9.2c2.2-2.9,5.1-5.1,8.9-6.7
				c3.7-1.6,7.9-2.4,12.5-2.4c7,0,12.6,1.8,16.7,5.3c4.2,3.5,6.3,8.5,6.4,14.8v26.9c0,5.4,0.8,9.7,2.3,12.9v0.9H957z M942.3,629.7
				c2.6,0,5.1-0.6,7.5-1.9c2.3-1.3,4.1-3,5.3-5.2v-11.3h-7.2c-5,0-8.7,0.9-11.2,2.6c-2.5,1.7-3.8,4.2-3.8,7.3c0,2.6,0.9,4.6,2.6,6.2
				C937.1,628.9,939.4,629.7,942.3,629.7z"/>
			<path class="st1" d="M1000.8,613.8l-6,6.1v19.5h-13.4v-84.8h13.4v48.9l4.2-5.2l16.5-18.6h16.1l-22.2,24.9l24.6,34.8h-15.5
				L1000.8,613.8z"/>
			<path class="st1" d="M1064.4,640.5c-8.5,0-15.4-2.7-20.7-8c-5.3-5.4-7.9-12.5-7.9-21.4v-1.7c0-6,1.1-11.3,3.4-16
				c2.3-4.7,5.5-8.3,9.7-11c4.2-2.6,8.8-3.9,13.9-3.9c8.1,0,14.4,2.6,18.9,7.8c4.4,5.2,6.6,12.5,6.6,22v5.4h-39
				c0.4,4.9,2.1,8.8,4.9,11.7c2.9,2.9,6.5,4.3,10.9,4.3c6.1,0,11.2-2.5,15-7.5l7.2,6.9c-2.4,3.6-5.6,6.3-9.6,8.3
				C1073.9,639.5,1069.4,640.5,1064.4,640.5z M1062.8,589.3c-3.7,0-6.6,1.3-8.9,3.9c-2.3,2.6-3.7,6.2-4.3,10.8h25.6v-1
				c-0.3-4.5-1.5-7.9-3.6-10.2C1069.5,590.5,1066.6,589.3,1062.8,589.3z"/>
		</g>
	</g>
</g>
<line class="st2" x1="1088.2" y1="92.2" x2="129.8" y2="719.9"/>
<line class="st2" x1="129.8" y1="92.2" x2="1088.2" y2="719.9"/>
</svg>
