<?xml version="1.0" encoding="utf-8"?>
<!-- Generator: Adobe Illustrator 28.0.0, SVG Export Plug-In . SVG Version: 6.00 Build 0)  -->
<svg version="1.1" id="Layer_1" xmlns="http://www.w3.org/2000/svg" xmlns:xlink="http://www.w3.org/1999/xlink" x="0px" y="0px"
	 viewBox="0 0 306.46 111.35" style="enable-background:new 0 0 306.46 111.35;" xml:space="preserve">
<style type="text/css">
	.st0{fill:#FFFFFF;}
	.st1{fill:#53C3C2;}
</style>
<g>
	<g>
		<g>
			<g>
				<g>
					<path class="st0" d="M38.13,63.72H15.45V15.46H36.9c12.18,0,17.39,5.21,17.39,13.1c0,5.44-3.68,9.27-8.89,10.11
						c5.82,1.07,10.34,4.9,10.34,11.8C55.75,58.82,49.39,63.72,38.13,63.72z M24.8,35.53h11.49c5.75,0,8.2-2.53,8.2-6.13
						c0-3.6-2.45-6.21-8.2-6.21H24.8V35.53z M24.8,42.81v13.18h12.26c5.97,0,8.89-2.53,8.89-6.51c0-4.06-2.91-6.66-8.89-6.66H24.8z"
						/>
					<path class="st0" d="M90.09,55.52c0,1.76,0.92,2.6,2.38,2.6c0.92,0,1.84-0.23,2.83-0.69v4.9c-1.46,1.15-3.29,2.15-6.36,2.15
						c-3.83,0-6.74-2.45-7.43-6.51c-1.91,3.98-6.21,6.59-11.8,6.59c-6.44,0-10.72-3.45-10.72-9.27c0-6.43,5.06-9.12,12.87-10.57
						l9.27-1.76v-1c0-3.75-1.99-6.05-5.9-6.05c-3.83,0-5.9,2.3-6.66,5.59l-8.35-0.76c1.15-6.9,6.44-11.72,15.4-11.72
						c8.73,0,14.48,4.14,14.48,13.03V55.52z M81.12,47.94l-6.36,1.3c-4.22,0.84-6.82,1.91-6.82,5.05c0,2.38,1.68,4.14,4.67,4.14
						c4.83,0,8.5-3.6,8.5-9.35V47.94z"/>
					<path class="st0" d="M165.4,52.46c-1.69,7.66-7.66,12.18-16.32,12.18c-10.42,0-17.93-6.67-17.93-17.31
						c0-10.65,7.58-18.31,17.7-18.31c11.03,0,16.7,7.66,16.7,16.86v2.91h-25.36c0.31,5.51,4.21,8.88,9.19,8.88
						c4.52,0,7.28-1.99,8.58-5.97L165.4,52.46z M156.59,43.96c-0.15-4.37-2.68-8.2-7.82-8.2c-5.05,0-7.89,3.68-8.43,8.2H156.59z"/>
					<path class="st0" d="M194.23,38.98c-1.76-1-3.3-1.45-5.52-1.45c-4.75,0-7.97,3.37-7.97,9.5v16.7h-9.19V29.93h9.19v6.44
						c1.22-3.83,4.75-7.36,9.42-7.36c2.07,0,3.75,0.54,4.75,1.38L194.23,38.98z"/>
					<path class="st0" d="M198.78,15.46h9.42v8.96h-9.42V15.46z M208.13,29.93v33.79h-9.2V29.93H208.13z"/>
					<path class="st0" d="M224.89,63.72h-9.19V29.93h9.19v5.52c1.68-3.83,5.97-6.44,11.03-6.44c9.04,0,12.33,6.13,12.33,13.64v21.07
						h-9.19V44.49c0-5.21-2.07-8.2-6.59-8.2c-4.67,0-7.58,3.68-7.58,9.35V63.72z"/>
					<path class="st0" d="M284.8,55.52c0,1.76,0.92,2.6,2.38,2.6c0.92,0,1.84-0.23,2.84-0.69v4.9c-1.46,1.15-3.3,2.15-6.36,2.15
						c-3.83,0-6.74-2.45-7.43-6.51c-1.91,3.98-6.2,6.59-11.8,6.59c-6.44,0-10.73-3.45-10.73-9.27c0-6.43,5.06-9.12,12.87-10.57
						l9.27-1.76v-1c0-3.75-1.99-6.05-5.9-6.05c-3.83,0-5.9,2.3-6.66,5.59l-8.35-0.76c1.15-6.9,6.44-11.72,15.4-11.72
						c8.73,0,14.48,4.14,14.48,13.03V55.52z M275.84,47.94l-6.36,1.3c-4.21,0.84-6.82,1.91-6.82,5.05c0,2.38,1.69,4.14,4.67,4.14
						c4.83,0,8.51-3.6,8.51-9.35V47.94z"/>
				</g>
				<g>
					<polygon class="st0" points="99.3,28 99.3,14.07 110.97,14.07 110.97,32.47 					"/>
					<polygon class="st0" points="99.3,32.37 107.29,35.42 99.3,38.48 					"/>
					<polygon class="st0" points="110.97,38.38 110.97,45.13 105.3,63.72 99.3,63.72 99.3,42.84 					"/>
				</g>
				<g>
					<polygon class="st0" points="126.68,28 126.68,14.07 115.01,14.07 115.01,32.47 					"/>
					<polygon class="st0" points="126.68,32.37 118.7,35.42 126.68,38.48 					"/>
					<polygon class="st0" points="115.01,38.38 115.01,45.13 120.69,63.72 126.68,63.72 126.68,42.84 					"/>
				</g>
			</g>
		</g>
	</g>
	<g>
		<g>
			<path class="st1" d="M155.69,91.03c0-1.01-0.36-1.79-1.07-2.34c-0.71-0.55-1.99-1.1-3.85-1.66c-1.85-0.56-3.33-1.18-4.43-1.86
				c-2.1-1.32-3.15-3.03-3.15-5.15c0-1.85,0.76-3.38,2.27-4.58c1.51-1.2,3.47-1.8,5.89-1.8c1.6,0,3.03,0.3,4.28,0.89
				c1.25,0.59,2.24,1.43,2.96,2.52c0.72,1.09,1.07,2.3,1.07,3.63h-3.98c0-1.2-0.38-2.14-1.13-2.82c-0.75-0.68-1.83-1.02-3.23-1.02
				c-1.31,0-2.32,0.28-3.04,0.84c-0.72,0.56-1.08,1.34-1.08,2.34c0,0.84,0.39,1.55,1.17,2.11s2.07,1.11,3.86,1.64
				c1.79,0.53,3.23,1.14,4.31,1.82c1.08,0.68,1.88,1.46,2.39,2.34c0.51,0.88,0.76,1.91,0.76,3.09c0,1.92-0.74,3.44-2.21,4.58
				s-3.46,1.7-5.98,1.7c-1.67,0-3.2-0.31-4.59-0.92c-1.4-0.62-2.48-1.47-3.26-2.55c-0.77-1.09-1.16-2.35-1.16-3.79h4
				c0,1.31,0.43,2.32,1.3,3.03c0.86,0.72,2.1,1.07,3.71,1.07c1.39,0,2.44-0.28,3.14-0.85C155.34,92.71,155.69,91.96,155.69,91.03z"
				/>
			<path class="st1" d="M177.53,91.67l2.72-11.81h3.75l-4.66,17.1h-3.16l-3.67-11.74l-3.6,11.74h-3.16l-4.68-17.1h3.75l2.77,11.68
				l3.51-11.68h2.89L177.53,91.67z"/>
			<path class="st1" d="M196.45,96.96c-0.17-0.33-0.32-0.86-0.44-1.6c-1.22,1.28-2.72,1.91-4.49,1.91c-1.72,0-3.12-0.49-4.2-1.47
				c-1.09-0.98-1.63-2.19-1.63-3.64c0-1.82,0.68-3.22,2.03-4.2c1.35-0.97,3.29-1.46,5.81-1.46h2.36v-1.12
				c0-0.89-0.25-1.59-0.74-2.13c-0.5-0.53-1.25-0.8-2.26-0.8c-0.87,0-1.59,0.22-2.15,0.66c-0.56,0.44-0.84,0.99-0.84,1.67h-3.84
				c0-0.94,0.31-1.81,0.93-2.63c0.62-0.82,1.47-1.46,2.54-1.92c1.07-0.46,2.26-0.7,3.58-0.7c2,0,3.6,0.5,4.79,1.51
				c1.19,1.01,1.8,2.42,1.83,4.24v7.71c0,1.54,0.22,2.77,0.65,3.68v0.27H196.45z M192.23,94.2c0.76,0,1.47-0.18,2.14-0.55
				c0.67-0.37,1.17-0.86,1.51-1.49v-3.22h-2.07c-1.42,0-2.49,0.25-3.21,0.74c-0.72,0.5-1.08,1.2-1.08,2.1
				c0,0.74,0.25,1.33,0.74,1.76C190.76,93.98,191.41,94.2,192.23,94.2z"/>
			<path class="st1" d="M206.99,79.86l0.11,1.98c1.26-1.53,2.92-2.29,4.98-2.29c3.56,0,5.37,2.04,5.44,6.12v11.3h-3.84V85.88
				c0-1.09-0.23-1.89-0.7-2.41c-0.47-0.52-1.24-0.78-2.3-0.78c-1.55,0-2.7,0.7-3.46,2.1v12.17h-3.84v-17.1H206.99z"/>
		</g>
		<g>
			<path class="st1" d="M229.35,93.77h10.45v3.19h-14.45V73.95h4V93.77z"/>
			<path class="st1" d="M252.39,96.96c-0.17-0.33-0.32-0.86-0.44-1.6c-1.22,1.28-2.72,1.91-4.49,1.91c-1.72,0-3.12-0.49-4.2-1.47
				c-1.09-0.98-1.63-2.19-1.63-3.64c0-1.82,0.68-3.22,2.03-4.2c1.35-0.97,3.29-1.46,5.81-1.46h2.36v-1.12
				c0-0.89-0.25-1.59-0.74-2.13c-0.5-0.53-1.25-0.8-2.26-0.8c-0.87,0-1.59,0.22-2.15,0.66c-0.56,0.44-0.84,0.99-0.84,1.67h-3.84
				c0-0.94,0.31-1.81,0.93-2.63c0.62-0.82,1.47-1.46,2.54-1.92c1.07-0.46,2.26-0.7,3.58-0.7c2,0,3.6,0.5,4.79,1.51
				c1.19,1.01,1.8,2.42,1.83,4.24v7.71c0,1.54,0.22,2.77,0.65,3.68v0.27H252.39z M248.17,94.2c0.76,0,1.47-0.18,2.14-0.55
				c0.67-0.37,1.17-0.86,1.51-1.49v-3.22h-2.07c-1.42,0-2.49,0.25-3.21,0.74c-0.72,0.5-1.08,1.2-1.08,2.1
				c0,0.74,0.25,1.33,0.74,1.76C246.69,93.98,247.35,94.2,248.17,94.2z"/>
			<path class="st1" d="M264.92,89.63l-1.71,1.75v5.58h-3.84V72.68h3.84v14l1.2-1.5l4.73-5.33h4.61l-6.35,7.13l7.03,9.97h-4.44
				L264.92,89.63z"/>
			<path class="st1" d="M283.15,97.28c-2.43,0-4.41-0.77-5.92-2.3c-1.51-1.53-2.27-3.57-2.27-6.13v-0.47c0-1.71,0.33-3.23,0.99-4.58
				s1.58-2.39,2.77-3.14c1.19-0.75,2.52-1.12,3.98-1.12c2.33,0,4.13,0.74,5.4,2.23c1.27,1.49,1.9,3.59,1.9,6.31v1.55h-11.17
				c0.12,1.41,0.59,2.53,1.41,3.35c0.83,0.82,1.87,1.23,3.12,1.23c1.76,0,3.19-0.71,4.3-2.13l2.07,1.98
				c-0.68,1.02-1.6,1.82-2.74,2.38C285.85,97,284.57,97.28,283.15,97.28z M282.69,82.63c-1.05,0-1.9,0.37-2.55,1.11
				s-1.06,1.76-1.24,3.08h7.32v-0.28c-0.08-1.29-0.43-2.26-1.03-2.92C284.59,82.95,283.75,82.63,282.69,82.63z"/>
		</g>
	</g>
</g>
</svg>
