<?xml version="1.0" encoding="utf-8"?>
<!-- Generator: Adobe Illustrator 28.0.0, SVG Export Plug-In . SVG Version: 6.00 Build 0)  -->
<svg version="1.1" id="Layer_1" xmlns="http://www.w3.org/2000/svg" xmlns:xlink="http://www.w3.org/1999/xlink" x="0px" y="0px"
	 viewBox="0 0 1200 800" style="enable-background:new 0 0 1200 800;" xml:space="preserve">
<style type="text/css">
	.st0{fill:#585A5E;}
	.st1{opacity:0.51;fill:#F1F2F2;enable-background:new    ;}
	.st2{font-family:'Roboto-Bold';}
	.st3{font-size:110.51px;}
	.st4{fill:#F1F2F2;}
	.st5{letter-spacing:-1;}
	.st6{fill:#FFFFFF;}
	.st7{fill:none;stroke:#BE1E2D;stroke-width:8;stroke-miterlimit:10;}
</style>
<rect y="147.08" class="st0" width="1200" height="505.85"/>
<text transform="matrix(1 0 0 1 -0.09 235.03)" class="st1 st2 st3">Lo</text>
<text transform="matrix(1 0 0 1 122.23 235.03)" class="st4 st2 st3 st5">r</text>
<text transform="matrix(1 0 0 1 161.52 235.03)" class="st4 st2 st3">em ipsum dolor </text>
<text transform="matrix(1 0 0 1 -0.09 367.64)" class="st4 st2 st3">sit amet, consectetur </text>
<text transform="matrix(1 0 0 1 -0.09 500.25)" class="st4 st2 st3">adipiscing elit, sed </text>
<text transform="matrix(1 0 0 1 -0.09 632.86)" class="st4 st2 st3">do eiusmod tempor incididunt</text>
<g>
	<g>
		<g>
			<g>
				<g>
					<path class="st6" d="M187.17,457.6h-79.64V288.09h75.33c42.78,0,61.08,18.3,61.08,46.01c0,19.1-12.92,32.55-31.21,35.51
						c20.45,3.77,36.32,17.22,36.32,41.44C249.05,440.38,226.72,457.6,187.17,457.6z M140.36,358.59h40.35
						c20.19,0,28.79-8.88,28.79-21.53c0-12.65-8.61-21.79-28.79-21.79h-40.35V358.59z M140.36,384.14v46.28h43.05
						c20.98,0,31.21-8.88,31.21-22.88c0-14.26-10.22-23.41-31.21-23.41H140.36z"/>
					<path class="st6" d="M369.64,428.81c0,6.19,3.23,9.15,8.34,9.15c3.23,0,6.45-0.8,9.95-2.42v17.22
						c-5.11,4.04-11.57,7.54-22.33,7.54c-13.45,0-23.68-8.6-26.1-22.87c-6.72,13.99-21.79,23.14-41.44,23.14
						c-22.6,0-37.67-12.11-37.67-32.56c0-22.6,17.75-32.02,45.2-37.13l32.55-6.19v-3.5c0-13.18-6.99-21.25-20.72-21.25
						c-13.45,0-20.71,8.07-23.4,19.64l-29.33-2.68c4.04-24.22,22.6-41.17,54.09-41.17c30.67,0,50.85,14.53,50.85,45.74V428.81z
						 M338.16,402.17l-22.33,4.57c-14.81,2.95-23.94,6.73-23.94,17.75c0,8.34,5.92,14.53,16.4,14.53
						c16.96,0,29.87-12.65,29.87-32.83V402.17z"/>
					<path class="st6" d="M634.14,418.05c-5.92,26.9-26.9,42.78-57.31,42.78c-36.6,0-62.96-23.41-62.96-60.81
						c0-37.4,26.64-64.31,62.15-64.31c38.75,0,58.66,26.9,58.66,59.19v10.22h-89.06c1.08,19.37,14.8,31.2,32.29,31.2
						c15.88,0,25.56-6.99,30.14-20.98L634.14,418.05z M603.19,388.18c-0.53-15.34-9.42-28.79-27.45-28.79
						c-17.75,0-27.71,12.92-29.59,28.79H603.19z"/>
					<path class="st6" d="M735.37,370.69c-6.19-3.5-11.57-5.11-19.38-5.11c-16.68,0-27.98,11.83-27.98,33.36v58.65h-32.29V338.94
						h32.29v22.61c4.3-13.45,16.68-25.83,33.09-25.83c7.26,0,13.18,1.89,16.68,4.85L735.37,370.69z"/>
					<path class="st6" d="M751.38,288.09h33.09v31.48h-33.09V288.09z M784.2,338.94V457.6h-32.29V338.94H784.2z"/>
					<path class="st6" d="M843.07,457.6h-32.29V338.94h32.29v19.38c5.91-13.45,20.98-22.6,38.74-22.6
						c31.75,0,43.31,21.53,43.31,47.9v73.98h-32.28v-67.53c0-18.3-7.27-28.79-23.14-28.79c-16.41,0-26.64,12.91-26.64,32.82V457.6z"
						/>
					<path class="st6" d="M1053.45,428.81c0,6.19,3.23,9.15,8.34,9.15c3.23,0,6.46-0.8,9.96-2.42v17.22
						c-5.11,4.04-11.57,7.54-22.34,7.54c-13.45,0-23.68-8.6-26.09-22.87c-6.73,13.99-21.79,23.14-41.43,23.14
						c-22.6,0-37.67-12.11-37.67-32.56c0-22.6,17.75-32.02,45.2-37.13l32.56-6.19v-3.5c0-13.18-7-21.25-20.72-21.25
						c-13.46,0-20.72,8.07-23.4,19.64l-29.33-2.68c4.03-24.22,22.6-41.17,54.08-41.17c30.68,0,50.85,14.53,50.85,45.74V428.81z
						 M1021.98,402.17l-22.34,4.57c-14.8,2.95-23.94,6.73-23.94,17.75c0,8.34,5.92,14.53,16.41,14.53
						c16.96,0,29.87-12.65,29.87-32.83V402.17z"/>
				</g>
				<g>
					<polygon class="st6" points="402,332.16 402,283.22 442.98,283.22 442.98,347.84 					"/>
					<polygon class="st6" points="402,347.48 430.05,358.22 402,368.94 					"/>
					<polygon class="st6" points="442.98,368.59 442.98,392.29 423.06,457.6 402,457.6 402,384.26 					"/>
				</g>
				<g>
					<polygon class="st6" points="498.16,332.16 498.16,283.22 457.18,283.22 457.18,347.84 					"/>
					<polygon class="st6" points="498.16,347.48 470.11,358.22 498.16,368.94 					"/>
					<polygon class="st6" points="457.18,368.59 457.18,392.29 477.1,457.6 498.16,457.6 498.16,384.26 					"/>
				</g>
			</g>
		</g>
	</g>
	<g>
		<g>
			<path class="st6" d="M600.03,553.52c0-3.55-1.25-6.29-3.75-8.22c-2.5-1.92-7.01-3.87-13.52-5.83
				c-6.51-1.96-11.69-4.14-15.54-6.55c-7.36-4.63-11.05-10.66-11.05-18.1c0-6.51,2.65-11.88,7.97-16.1
				c5.31-4.22,12.2-6.33,20.68-6.33c5.62,0,10.64,1.04,15.04,3.11c4.4,2.07,7.87,5.02,10.38,8.85c2.52,3.83,3.77,8.08,3.77,12.74
				h-13.99c0-4.22-1.32-7.52-3.97-9.91c-2.65-2.39-6.43-3.58-11.35-3.58c-4.59,0-8.15,0.98-10.69,2.94c-2.54,1.96-3.8,4.7-3.8,8.21
				c0,2.96,1.37,5.43,4.11,7.41c2.74,1.98,7.25,3.9,13.55,5.77c6.29,1.87,11.34,4,15.15,6.38c3.81,2.39,6.61,5.13,8.38,8.22
				c1.78,3.09,2.67,6.71,2.67,10.85c0,6.74-2.58,12.09-7.74,16.07c-5.16,3.98-12.17,5.97-21.01,5.97c-5.85,0-11.22-1.08-16.13-3.25
				c-4.9-2.16-8.71-5.15-11.44-8.96c-2.72-3.81-4.08-8.25-4.08-13.32h14.04c0,4.59,1.52,8.14,4.55,10.66
				c3.04,2.52,7.38,3.77,13.05,3.77c4.89,0,8.56-0.99,11.02-2.97C598.8,559.39,600.03,556.77,600.03,553.52z"/>
			<path class="st6" d="M676.72,555.74l9.55-41.47h13.16l-16.38,60.06h-11.1l-12.88-41.24l-12.66,41.24h-11.1l-16.43-60.06h13.16
				l9.72,41.02l12.32-41.02h10.16L676.72,555.74z"/>
			<path class="st6" d="M743.2,574.33c-0.59-1.15-1.11-3.02-1.55-5.61c-4.29,4.48-9.55,6.72-15.77,6.72
				c-6.03,0-10.95-1.72-14.76-5.16c-3.81-3.44-5.72-7.7-5.72-12.77c0-6.4,2.38-11.31,7.13-14.74c4.75-3.42,11.55-5.14,20.4-5.14
				h8.27v-3.94c0-3.11-0.87-5.6-2.61-7.47c-1.74-1.87-4.39-2.8-7.94-2.8c-3.07,0-5.59,0.77-7.55,2.3c-1.96,1.54-2.94,3.49-2.94,5.86
				h-13.49c0-3.29,1.09-6.37,3.27-9.24c2.18-2.87,5.15-5.12,8.91-6.75c3.75-1.63,7.94-2.44,12.57-2.44c7.03,0,12.64,1.77,16.82,5.3
				c4.18,3.54,6.33,8.5,6.44,14.91v27.09c0,5.4,0.76,9.71,2.27,12.93v0.94H743.2z M728.38,564.62c2.66,0,5.17-0.65,7.52-1.94
				c2.35-1.29,4.12-3.03,5.3-5.22v-11.32h-7.27c-5,0-8.75,0.87-11.27,2.61c-2.52,1.74-3.78,4.2-3.78,7.38
				c0,2.59,0.86,4.65,2.58,6.19C723.19,563.85,725.49,564.62,728.38,564.62z"/>
			<path class="st6" d="M780.2,514.27l0.39,6.94c4.44-5.37,10.27-8.05,17.49-8.05c12.51,0,18.87,7.16,19.1,21.48v39.69h-13.49
				v-38.91c0-3.81-0.82-6.63-2.47-8.47c-1.65-1.83-4.34-2.75-8.08-2.75c-5.44,0-9.49,2.46-12.16,7.38v42.74h-13.49v-60.06H780.2z"/>
		</g>
		<g>
			<path class="st6" d="M858.73,563.12h36.69v11.21h-50.74v-80.82h14.05V563.12z"/>
			<path class="st6" d="M939.63,574.33c-0.59-1.15-1.11-3.02-1.55-5.61c-4.29,4.48-9.55,6.72-15.77,6.72
				c-6.03,0-10.95-1.72-14.76-5.16c-3.81-3.44-5.72-7.7-5.72-12.77c0-6.4,2.38-11.31,7.13-14.74c4.75-3.42,11.55-5.14,20.4-5.14
				h8.27v-3.94c0-3.11-0.87-5.6-2.61-7.47c-1.74-1.87-4.39-2.8-7.94-2.8c-3.07,0-5.59,0.77-7.55,2.3c-1.96,1.54-2.94,3.49-2.94,5.86
				h-13.49c0-3.29,1.09-6.37,3.27-9.24c2.18-2.87,5.15-5.12,8.91-6.75c3.75-1.63,7.94-2.44,12.57-2.44c7.03,0,12.64,1.77,16.82,5.3
				c4.18,3.54,6.33,8.5,6.44,14.91v27.09c0,5.4,0.76,9.71,2.27,12.93v0.94H939.63z M924.81,564.62c2.66,0,5.17-0.65,7.52-1.94
				c2.35-1.29,4.12-3.03,5.3-5.22v-11.32h-7.27c-5,0-8.75,0.87-11.27,2.61c-2.52,1.74-3.78,4.2-3.78,7.38
				c0,2.59,0.86,4.65,2.58,6.19C919.62,563.85,921.92,564.62,924.81,564.62z"/>
			<path class="st6" d="M983.63,548.58l-5.99,6.16v19.6h-13.49v-85.27h13.49v49.18l4.22-5.27l16.6-18.71h16.21l-22.31,25.03
				l24.7,35.03h-15.6L983.63,548.58z"/>
			<path class="st6" d="M1047.66,575.45c-8.55,0-15.48-2.69-20.79-8.08c-5.31-5.39-7.97-12.55-7.97-21.51v-1.67
				c0-6,1.16-11.35,3.47-16.07c2.31-4.72,5.56-8.39,9.74-11.02c4.18-2.63,8.84-3.94,13.99-3.94c8.18,0,14.5,2.61,18.96,7.83
				c4.46,5.22,6.69,12.6,6.69,22.15v5.44h-39.25c0.41,4.96,2.06,8.88,4.97,11.77c2.91,2.89,6.56,4.33,10.96,4.33
				c6.18,0,11.21-2.5,15.1-7.49l7.27,6.94c-2.4,3.59-5.61,6.38-9.63,8.35C1057.16,574.45,1052.66,575.45,1047.66,575.45z
				 M1046.05,523.99c-3.7,0-6.69,1.3-8.96,3.89c-2.28,2.59-3.73,6.2-4.36,10.82h25.7v-1c-0.3-4.51-1.5-7.93-3.61-10.24
				C1052.71,525.14,1049.79,523.99,1046.05,523.99z"/>
		</g>
	</g>
</g>
<line class="st7" x1="1083.66" y1="86.15" x2="125.33" y2="713.85"/>
<line class="st7" x1="125.33" y1="86.15" x2="1083.66" y2="713.85"/>
</svg>
