<?xml version="1.0" encoding="utf-8"?>
<!-- Generator: Adobe Illustrator 28.0.0, SVG Export Plug-In . SVG Version: 6.00 Build 0)  -->
<svg version="1.1" id="Layer_1" xmlns="http://www.w3.org/2000/svg" xmlns:xlink="http://www.w3.org/1999/xlink" x="0px" y="0px"
	 viewBox="0 0 1200 800" style="enable-background:new 0 0 1200 800;" xml:space="preserve">
<style type="text/css">
	.st0{fill:#52C3C2;}
	.st1{fill:#FFCC22;}
	.st2{fill:none;stroke:#BE1E2D;stroke-width:8;stroke-miterlimit:10;}
</style>
<rect y="147.1" class="st0" width="1200" height="505.8"/>
<g>
	<g>
		<g>
			<g>
				<g>
					<path class="st1" d="M200.5,436.5h-79.6V267.1h75.3c42.8,0,61.1,18.3,61.1,46c0,19.1-12.9,32.5-31.2,35.5
						c20.4,3.8,36.3,17.2,36.3,41.4C262.3,419.3,240,436.5,200.5,436.5z M153.7,337.5H194c20.2,0,28.8-8.9,28.8-21.5
						c0-12.6-8.6-21.8-28.8-21.8h-40.3V337.5z M153.7,363.1v46.3h43c21,0,31.2-8.9,31.2-22.9c0-14.3-10.2-23.4-31.2-23.4H153.7z"/>
					<path class="st1" d="M382.9,407.7c0,6.2,3.2,9.1,8.3,9.1c3.2,0,6.5-0.8,9.9-2.4v17.2c-5.1,4-11.6,7.5-22.3,7.5
						c-13.4,0-23.7-8.6-26.1-22.9c-6.7,14-21.8,23.1-41.4,23.1c-22.6,0-37.7-12.1-37.7-32.5c0-22.6,17.7-32,45.2-37.1l32.5-6.2v-3.5
						c0-13.2-7-21.2-20.7-21.2c-13.4,0-20.7,8.1-23.4,19.6l-29.3-2.7c4-24.2,22.6-41.2,54.1-41.2c30.7,0,50.8,14.5,50.8,45.7V407.7z
						 M351.4,381.1l-22.3,4.6c-14.8,3-23.9,6.7-23.9,17.7c0,8.3,5.9,14.5,16.4,14.5c17,0,29.9-12.6,29.9-32.8V381.1z"/>
					<path class="st1" d="M647.3,397c-5.9,26.9-26.9,42.8-57.3,42.8c-36.6,0-62.9-23.4-62.9-60.8c0-37.4,26.6-64.3,62.1-64.3
						c38.7,0,58.6,26.9,58.6,59.2v10.2h-89c1.1,19.4,14.8,31.2,32.3,31.2c15.9,0,25.6-7,30.1-21L647.3,397z M616.3,367.1
						c-0.5-15.3-9.4-28.8-27.4-28.8c-17.7,0-27.7,12.9-29.6,28.8H616.3z"/>
					<path class="st1" d="M748.5,349.6c-6.2-3.5-11.6-5.1-19.4-5.1c-16.7,0-28,11.8-28,33.3v58.6h-32.3V317.9h32.3v22.6
						c4.3-13.5,16.7-25.8,33.1-25.8c7.3,0,13.2,1.9,16.7,4.8L748.5,349.6z"/>
					<path class="st1" d="M764.5,267.1h33.1v31.5h-33.1V267.1z M797.3,317.9v118.6H765V317.9H797.3z"/>
					<path class="st1" d="M856.2,436.5h-32.3V317.9h32.3v19.4c5.9-13.4,21-22.6,38.7-22.6c31.7,0,43.3,21.5,43.3,47.9v74h-32.3V369
						c0-18.3-7.3-28.8-23.1-28.8c-16.4,0-26.6,12.9-26.6,32.8V436.5z"/>
					<path class="st1" d="M1066.5,407.7c0,6.2,3.2,9.1,8.3,9.1c3.2,0,6.5-0.8,10-2.4v17.2c-5.1,4-11.6,7.5-22.3,7.5
						c-13.4,0-23.7-8.6-26.1-22.9c-6.7,14-21.8,23.1-41.4,23.1c-22.6,0-37.7-12.1-37.7-32.5c0-22.6,17.7-32,45.2-37.1l32.5-6.2v-3.5
						c0-13.2-7-21.2-20.7-21.2c-13.5,0-20.7,8.1-23.4,19.6l-29.3-2.7c4-24.2,22.6-41.2,54.1-41.2c30.7,0,50.8,14.5,50.8,45.7V407.7z
						 M1035,381.1l-22.3,4.6c-14.8,3-23.9,6.7-23.9,17.7c0,8.3,5.9,14.5,16.4,14.5c17,0,29.9-12.6,29.9-32.8V381.1z"/>
				</g>
				<g>
					<polygon class="st1" points="415.2,311.1 415.2,262.2 456.2,262.2 456.2,326.8 					"/>
					<polygon class="st1" points="415.2,326.4 443.3,337.2 415.2,347.9 					"/>
					<polygon class="st1" points="456.2,347.5 456.2,371.2 436.3,436.5 415.2,436.5 415.2,363.2 					"/>
				</g>
				<g>
					<polygon class="st1" points="511.3,311.1 511.3,262.2 470.4,262.2 470.4,326.8 					"/>
					<polygon class="st1" points="511.3,326.4 483.3,337.2 511.3,347.9 					"/>
					<polygon class="st1" points="470.4,347.5 470.4,371.2 490.3,436.5 511.3,436.5 511.3,363.2 					"/>
				</g>
			</g>
		</g>
	</g>
	<g>
		<g>
			<path class="st1" d="M613.2,532.4c0-3.6-1.2-6.3-3.7-8.2c-2.5-1.9-7-3.9-13.5-5.8c-6.5-2-11.7-4.1-15.5-6.5
				c-7.4-4.6-11-10.7-11-18.1c0-6.5,2.7-11.9,8-16.1c5.3-4.2,12.2-6.3,20.7-6.3c5.6,0,10.6,1,15,3.1c4.4,2.1,7.9,5,10.4,8.9
				c2.5,3.8,3.8,8.1,3.8,12.7h-14c0-4.2-1.3-7.5-4-9.9s-6.4-3.6-11.3-3.6c-4.6,0-8.2,1-10.7,2.9c-2.5,2-3.8,4.7-3.8,8.2
				c0,3,1.4,5.4,4.1,7.4c2.7,2,7.3,3.9,13.5,5.8c6.3,1.9,11.3,4,15.1,6.4c3.8,2.4,6.6,5.1,8.4,8.2c1.8,3.1,2.7,6.7,2.7,10.8
				c0,6.7-2.6,12.1-7.7,16.1c-5.2,4-12.2,6-21,6c-5.8,0-11.2-1.1-16.1-3.2c-4.9-2.2-8.7-5.2-11.4-9c-2.7-3.8-4.1-8.3-4.1-13.3h14
				c0,4.6,1.5,8.1,4.5,10.7c3,2.5,7.4,3.8,13,3.8c4.9,0,8.6-1,11-3C612,538.3,613.2,535.7,613.2,532.4z"/>
			<path class="st1" d="M689.9,534.6l9.5-41.5h13.2l-16.4,60h-11.1L672.2,512l-12.7,41.2h-11.1l-16.4-60h13.2l9.7,41l12.3-41h10.2
				L689.9,534.6z"/>
			<path class="st1" d="M756.3,553.2c-0.6-1.1-1.1-3-1.6-5.6c-4.3,4.5-9.5,6.7-15.8,6.7c-6,0-11-1.7-14.8-5.2
				c-3.8-3.4-5.7-7.7-5.7-12.8c0-6.4,2.4-11.3,7.1-14.7c4.8-3.4,11.6-5.1,20.4-5.1h8.3v-3.9c0-3.1-0.9-5.6-2.6-7.5s-4.4-2.8-7.9-2.8
				c-3.1,0-5.6,0.8-7.5,2.3c-2,1.5-2.9,3.5-2.9,5.9h-13.5c0-3.3,1.1-6.4,3.3-9.2c2.2-2.9,5.2-5.1,8.9-6.7c3.8-1.6,7.9-2.4,12.6-2.4
				c7,0,12.6,1.8,16.8,5.3c4.2,3.5,6.3,8.5,6.4,14.9v27.1c0,5.4,0.8,9.7,2.3,12.9v0.9H756.3z M741.5,543.5c2.7,0,5.2-0.6,7.5-1.9
				c2.3-1.3,4.1-3,5.3-5.2V525H747c-5,0-8.8,0.9-11.3,2.6c-2.5,1.7-3.8,4.2-3.8,7.4c0,2.6,0.9,4.7,2.6,6.2
				C736.3,542.7,738.6,543.5,741.5,543.5z"/>
			<path class="st1" d="M793.3,493.2l0.4,6.9c4.4-5.4,10.3-8,17.5-8c12.5,0,18.9,7.2,19.1,21.5v39.7h-13.5v-38.9
				c0-3.8-0.8-6.6-2.5-8.5c-1.6-1.8-4.3-2.7-8.1-2.7c-5.4,0-9.5,2.5-12.2,7.4v42.7h-13.5v-60H793.3z"/>
		</g>
		<g>
			<path class="st1" d="M871.8,542h36.7v11.2h-50.7v-80.8h14V542z"/>
			<path class="st1" d="M952.7,553.2c-0.6-1.1-1.1-3-1.6-5.6c-4.3,4.5-9.5,6.7-15.8,6.7c-6,0-11-1.7-14.8-5.2
				c-3.8-3.4-5.7-7.7-5.7-12.8c0-6.4,2.4-11.3,7.1-14.7c4.8-3.4,11.6-5.1,20.4-5.1h8.3v-3.9c0-3.1-0.9-5.6-2.6-7.5
				c-1.7-1.9-4.4-2.8-7.9-2.8c-3.1,0-5.6,0.8-7.5,2.3c-2,1.5-2.9,3.5-2.9,5.9h-13.5c0-3.3,1.1-6.4,3.3-9.2c2.2-2.9,5.2-5.1,8.9-6.7
				c3.8-1.6,7.9-2.4,12.6-2.4c7,0,12.6,1.8,16.8,5.3c4.2,3.5,6.3,8.5,6.4,14.9v27.1c0,5.4,0.8,9.7,2.3,12.9v0.9H952.7z M937.9,543.5
				c2.7,0,5.2-0.6,7.5-1.9c2.3-1.3,4.1-3,5.3-5.2V525h-7.3c-5,0-8.8,0.9-11.3,2.6c-2.5,1.7-3.8,4.2-3.8,7.4c0,2.6,0.9,4.7,2.6,6.2
				C932.7,542.7,935,543.5,937.9,543.5z"/>
			<path class="st1" d="M996.7,527.5l-6,6.2v19.6h-13.5V468h13.5v49.2l4.2-5.3l16.6-18.7h16.2l-22.3,25l24.7,35h-15.6L996.7,527.5z"
				/>
			<path class="st1" d="M1060.7,554.3c-8.5,0-15.5-2.7-20.8-8.1c-5.3-5.4-8-12.6-8-21.5v-1.7c0-6,1.2-11.3,3.5-16.1
				c2.3-4.7,5.6-8.4,9.7-11s8.8-3.9,14-3.9c8.2,0,14.5,2.6,19,7.8c4.5,5.2,6.7,12.6,6.7,22.1v5.4h-39.2c0.4,5,2.1,8.9,5,11.8
				c2.9,2.9,6.6,4.3,11,4.3c6.2,0,11.2-2.5,15.1-7.5l7.3,6.9c-2.4,3.6-5.6,6.4-9.6,8.4C1070.2,553.3,1065.7,554.3,1060.7,554.3z
				 M1059.1,502.9c-3.7,0-6.7,1.3-9,3.9c-2.3,2.6-3.7,6.2-4.4,10.8h25.7v-1c-0.3-4.5-1.5-7.9-3.6-10.2
				C1065.7,504,1062.8,502.9,1059.1,502.9z"/>
		</g>
	</g>
</g>
<line class="st2" x1="1088.2" y1="86.2" x2="129.8" y2="713.8"/>
<line class="st2" x1="129.8" y1="86.2" x2="1088.2" y2="713.8"/>
</svg>
