<?xml version="1.0" encoding="utf-8"?>
<!-- Generator: Adobe Illustrator 28.0.0, SVG Export Plug-In . SVG Version: 6.00 Build 0)  -->
<svg version="1.1" id="Layer_1" xmlns="http://www.w3.org/2000/svg" xmlns:xlink="http://www.w3.org/1999/xlink" x="0px" y="0px"
	 viewBox="0 0 2594.46 855.82" style="enable-background:new 0 0 2594.46 855.82;" xml:space="preserve">
<style type="text/css">
	.st0{fill:#464646;}
	.st1{fill:#53C3C2;}
	.st2{fill:none;stroke:#BE1E2D;stroke-width:8;stroke-miterlimit:10;}
</style>
<g>
	<g>
		<g>
			<g>
				<g>
					<path class="st0" d="M1460.73,474.58h-87.8V308.59h83.05c47.17,0,67.34,17.92,67.34,45.06c0,18.71-14.24,31.88-34.41,34.77
						c22.54,3.69,40.04,16.86,40.04,40.58C1528.95,457.72,1504.33,474.58,1460.73,474.58z M1409.12,377.63h44.48
						c22.25,0,31.74-8.7,31.74-21.08c0-12.39-9.49-21.34-31.74-21.34h-44.48V377.63z M1409.12,402.65v45.32h47.46
						c23.13,0,34.4-8.69,34.4-22.4c0-13.96-11.27-22.92-34.4-22.92H1409.12z"/>
					<path class="st0" d="M1661.9,446.39c0,6.06,3.56,8.96,9.2,8.96c3.56,0,7.12-0.79,10.97-2.37v16.86
						c-5.64,3.96-12.75,7.38-24.62,7.38c-14.83,0-26.11-8.43-28.77-22.4c-7.41,13.7-24.03,22.66-45.68,22.66
						c-24.92,0-41.52-11.86-41.52-31.88c0-22.13,19.57-31.35,49.83-36.36l35.89-6.06v-3.42c0-12.9-7.71-20.81-22.85-20.81
						c-14.83,0-22.83,7.91-25.8,19.23l-32.34-2.63c4.45-23.71,24.92-40.32,59.63-40.32c33.81,0,56.06,14.23,56.06,44.8V446.39z
						 M1627.19,420.31l-24.62,4.48c-16.32,2.89-26.4,6.59-26.4,17.38c0,8.17,6.52,14.23,18.09,14.23
						c18.69,0,32.93-12.39,32.93-32.15V420.31z"/>
					<path class="st0" d="M1953.48,435.86c-6.53,26.34-29.66,41.89-63.18,41.89c-40.35,0-69.41-22.93-69.41-59.54
						c0-36.63,29.36-62.97,68.51-62.97c42.72,0,64.67,26.35,64.67,57.97v10.01h-98.19c1.19,18.96,16.32,30.55,35.59,30.55
						c17.5,0,28.18-6.84,33.22-20.54L1953.48,435.86z M1919.37,406.61c-0.59-15.02-10.38-28.19-30.26-28.19
						c-19.57,0-30.55,12.65-32.62,28.19H1919.37z"/>
					<path class="st0" d="M2065.09,389.48c-6.83-3.43-12.76-5-21.36-5c-18.39,0-30.84,11.58-30.84,32.67v57.44h-35.59v-116.2h35.59
						v22.14c4.74-13.18,18.39-25.3,36.48-25.3c8,0,14.53,1.85,18.39,4.75L2065.09,389.48z"/>
					<path class="st0" d="M2082.74,308.59h36.48v30.83h-36.48V308.59z M2118.92,358.39v116.2h-35.6v-116.2H2118.92z"/>
					<path class="st0" d="M2183.83,474.58h-35.59v-116.2h35.59v18.97c6.52-13.17,23.13-22.13,42.71-22.13
						c35,0,47.75,21.08,47.75,46.9v72.45h-35.59v-66.13c0-17.92-8.01-28.19-25.51-28.19c-18.1,0-29.36,12.64-29.36,32.14V474.58z"/>
					<path class="st0" d="M2415.76,446.39c0,6.06,3.56,8.96,9.2,8.96c3.56,0,7.12-0.79,10.98-2.37v16.86
						c-5.64,3.96-12.76,7.38-24.62,7.38c-14.83,0-26.11-8.43-28.77-22.4c-7.41,13.7-24.02,22.66-45.68,22.66
						c-24.92,0-41.53-11.86-41.53-31.88c0-22.13,19.57-31.35,49.83-36.36l35.89-6.06v-3.42c0-12.9-7.72-20.81-22.85-20.81
						c-14.84,0-22.84,7.91-25.8,19.23l-32.34-2.63c4.45-23.71,24.92-40.32,59.62-40.32c33.82,0,56.06,14.23,56.06,44.8V446.39z
						 M2381.06,420.31l-24.63,4.48c-16.31,2.89-26.39,6.59-26.39,17.38c0,8.17,6.53,14.23,18.09,14.23
						c18.69,0,32.93-12.39,32.93-32.15V420.31z"/>
				</g>
				<g>
					<polygon class="st0" points="1697.57,351.75 1697.57,303.82 1742.74,303.82 1742.74,367.1 					"/>
					<polygon class="st0" points="1697.57,366.76 1728.49,377.26 1697.57,387.76 					"/>
					<polygon class="st0" points="1742.74,387.42 1742.74,410.63 1720.78,474.58 1697.57,474.58 1697.57,402.77 					"/>
				</g>
				<g>
					<polygon class="st0" points="1803.58,351.75 1803.58,303.82 1758.4,303.82 1758.4,367.1 					"/>
					<polygon class="st0" points="1803.58,366.76 1772.66,377.26 1803.58,387.76 					"/>
					<polygon class="st0" points="1758.4,387.42 1758.4,410.63 1780.37,474.58 1803.58,474.58 1803.58,402.77 					"/>
				</g>
			</g>
		</g>
	</g>
	<g>
		<g>
			<path class="st1" d="M1915.89,568.52c0-3.48-1.38-6.16-4.13-8.05c-2.76-1.88-7.72-3.79-14.9-5.71
				c-7.18-1.92-12.89-4.06-17.13-6.41c-8.12-4.53-12.18-10.44-12.18-17.72c0-6.38,2.93-11.63,8.78-15.76
				c5.85-4.13,13.45-6.2,22.79-6.2c6.2,0,11.73,1.02,16.58,3.04c4.86,2.03,8.67,4.92,11.45,8.67c2.77,3.75,4.16,7.91,4.16,12.48
				h-15.42c0-4.13-1.46-7.37-4.37-9.7c-2.92-2.34-7.09-3.51-12.51-3.51c-5.06,0-8.99,0.96-11.78,2.88c-2.8,1.92-4.19,4.6-4.19,8.04
				c0,2.9,1.51,5.32,4.53,7.26c3.02,1.94,8,3.82,14.93,5.65c6.93,1.83,12.5,3.91,16.71,6.25c4.2,2.34,7.28,5.02,9.24,8.05
				c1.96,3.03,2.94,6.57,2.94,10.63c0,6.6-2.85,11.84-8.54,15.74c-5.69,3.9-13.41,5.84-23.16,5.84c-6.45,0-12.37-1.06-17.78-3.18
				c-5.41-2.12-9.61-5.05-12.61-8.78c-3-3.73-4.5-8.08-4.5-13.05h15.48c0,4.49,1.67,7.97,5.02,10.44c3.35,2.46,8.14,3.7,14.38,3.7
				c5.39,0,9.44-0.97,12.15-2.91C1914.53,574.27,1915.89,571.7,1915.89,568.52z"/>
			<path class="st1" d="M2000.43,570.69l10.53-40.61h14.51l-18.05,58.82h-12.24l-14.2-40.39l-13.95,40.39h-12.24l-18.12-58.82h14.5
				l10.71,40.17l13.58-40.17h11.2L2000.43,570.69z"/>
			<path class="st1" d="M2073.72,588.9c-0.65-1.12-1.22-2.95-1.71-5.49c-4.73,4.39-10.53,6.58-17.38,6.58
				c-6.65,0-12.08-1.68-16.28-5.06c-4.2-3.37-6.3-7.54-6.3-12.5c0-6.27,2.62-11.08,7.86-14.43c5.24-3.35,12.74-5.03,22.49-5.03h9.12
				v-3.86c0-3.04-0.96-5.48-2.88-7.31c-1.92-1.83-4.83-2.75-8.75-2.75c-3.39,0-6.16,0.75-8.32,2.26c-2.16,1.5-3.24,3.42-3.24,5.73
				h-14.87c0-3.22,1.2-6.24,3.61-9.05c2.41-2.81,5.68-5.01,9.82-6.61c4.14-1.59,8.76-2.39,13.86-2.39c7.75,0,13.93,1.73,18.54,5.19
				c4.61,3.46,6.97,8.33,7.1,14.6v26.53c0,5.29,0.84,9.51,2.51,12.67v0.92H2073.72z M2057.38,579.39c2.94,0,5.7-0.63,8.29-1.9
				c2.59-1.27,4.54-2.97,5.84-5.11v-11.09h-8.02c-5.51,0-9.65,0.85-12.42,2.56c-2.77,1.7-4.16,4.11-4.16,7.23
				c0,2.54,0.95,4.56,2.85,6.06C2051.66,578.63,2054.19,579.39,2057.38,579.39z"/>
			<path class="st1" d="M2114.51,530.08l0.43,6.79c4.9-5.25,11.32-7.88,19.28-7.88c13.79,0,20.81,7.01,21.05,21.04v38.87h-14.87
				v-38.11c0-3.73-0.91-6.5-2.72-8.29c-1.82-1.79-4.78-2.69-8.9-2.69c-6,0-10.46,2.41-13.4,7.23v41.86h-14.87v-58.82H2114.51z"/>
		</g>
		<g>
			<path class="st1" d="M2201.08,577.92h40.45v10.98h-55.94v-79.15h15.48V577.92z"/>
			<path class="st1" d="M2290.28,588.9c-0.65-1.12-1.22-2.95-1.71-5.49c-4.73,4.39-10.53,6.58-17.38,6.58
				c-6.65,0-12.08-1.68-16.28-5.06c-4.2-3.37-6.3-7.54-6.3-12.5c0-6.27,2.62-11.08,7.86-14.43c5.24-3.35,12.74-5.03,22.49-5.03h9.12
				v-3.86c0-3.04-0.96-5.48-2.88-7.31c-1.92-1.83-4.83-2.75-8.75-2.75c-3.39,0-6.16,0.75-8.32,2.26c-2.16,1.5-3.24,3.42-3.24,5.73
				h-14.87c0-3.22,1.2-6.24,3.61-9.05c2.41-2.81,5.68-5.01,9.82-6.61c4.14-1.59,8.76-2.39,13.86-2.39c7.75,0,13.93,1.73,18.54,5.19
				c4.61,3.46,6.97,8.33,7.1,14.6v26.53c0,5.29,0.84,9.51,2.51,12.67v0.92H2290.28z M2273.94,579.39c2.94,0,5.7-0.63,8.29-1.9
				c2.59-1.27,4.54-2.97,5.84-5.11v-11.09h-8.02c-5.51,0-9.65,0.85-12.42,2.56c-2.77,1.7-4.16,4.11-4.16,7.23
				c0,2.54,0.95,4.56,2.85,6.06C2268.21,578.63,2270.75,579.39,2273.94,579.39z"/>
			<path class="st1" d="M2338.78,563.68l-6.61,6.03v19.19h-14.87v-83.5h14.87v48.16l4.65-5.16l18.3-18.32h17.87l-24.6,24.52
				l27.23,34.3h-17.2L2338.78,563.68z"/>
			<path class="st1" d="M2409.37,589.99c-9.42,0-17.06-2.64-22.92-7.91c-5.86-5.27-8.78-12.29-8.78-21.06v-1.63
				c0-5.87,1.27-11.12,3.82-15.74s6.13-8.22,10.74-10.79c4.61-2.57,9.75-3.86,15.42-3.86c9.02,0,15.98,2.56,20.9,7.67
				c4.92,5.11,7.37,12.34,7.37,21.69v5.33h-43.27c0.45,4.86,2.27,8.7,5.48,11.52c3.2,2.83,7.23,4.24,12.09,4.24
				c6.81,0,12.36-2.45,16.65-7.34l8.02,6.79c-2.65,3.52-6.19,6.24-10.62,8.18C2419.85,589.02,2414.88,589.99,2409.37,589.99z
				 M2407.6,539.6c-4.08,0-7.37,1.27-9.88,3.81c-2.51,2.54-4.11,6.07-4.8,10.6h28.33v-0.98c-0.33-4.42-1.65-7.76-3.98-10.03
				C2414.94,540.73,2411.72,539.6,2407.6,539.6z"/>
		</g>
	</g>
</g>
<g>
	<g>
		<g>
			<g>
				<g>
					<path class="st0" d="M200.5,483.77h-79.05V260.33h74.77c42.46,0,60.63,24.12,60.63,60.65c0,25.18-12.82,42.91-30.98,46.81
						c20.3,4.96,36.05,22.7,36.05,54.63C261.92,461.07,239.75,483.77,200.5,483.77z M154.04,353.26h40.05
						c20.03,0,28.58-11.71,28.58-28.38c0-16.67-8.54-28.73-28.58-28.73h-40.05V353.26z M154.04,386.94v61.01h42.73
						c20.83,0,30.97-11.7,30.97-30.16c0-18.8-10.15-30.86-30.97-30.86H154.04z"/>
					<path class="st0" d="M381.61,445.82c0,8.16,3.21,12.06,8.28,12.06c3.2,0,6.41-1.06,9.88-3.2v22.7
						c-5.07,5.33-11.48,9.93-22.16,9.93c-13.35,0-23.5-11.34-25.9-30.15c-6.67,18.44-21.63,30.51-41.13,30.51
						c-22.43,0-37.38-15.96-37.38-42.92c0-29.79,17.62-42.2,44.86-48.95l32.31-8.16v-4.61c0-17.37-6.94-28.01-20.57-28.01
						c-13.35,0-20.56,10.64-23.23,25.88l-29.11-3.54c4.01-31.92,22.43-54.27,53.68-54.27c30.44,0,50.47,19.15,50.47,60.3V445.82z
						 M350.36,410.71l-22.16,6.03c-14.69,3.89-23.77,8.87-23.77,23.4c0,11,5.87,19.16,16.28,19.16c16.83,0,29.65-16.67,29.65-43.28
						V410.71z"/>
					<path class="st0" d="M644.12,431.64c-5.88,35.46-26.7,56.39-56.88,56.39c-36.33,0-62.49-30.86-62.49-80.15
						c0-49.3,26.44-84.77,61.68-84.77c38.46,0,58.22,35.47,58.22,78.03v13.48h-88.4c1.07,25.53,14.69,41.13,32.04,41.13
						c15.76,0,25.37-9.21,29.91-27.65L644.12,431.64z M613.41,392.27c-0.53-20.22-9.35-37.95-27.24-37.95
						c-17.62,0-27.5,17.03-29.37,37.95H613.41z"/>
					<path class="st0" d="M744.59,369.21c-6.15-4.62-11.49-6.73-19.23-6.73c-16.55,0-27.77,15.59-27.77,43.97v77.32h-32.04V327.36
						h32.04v29.8c4.27-17.74,16.55-34.05,32.84-34.05c7.2,0,13.08,2.49,16.55,6.39L744.59,369.21z"/>
					<path class="st0" d="M760.48,260.33h32.85v41.49h-32.85V260.33z M793.06,327.36v156.42h-32.05V327.36H793.06z"/>
					<path class="st0" d="M851.49,483.77h-32.04V327.36h32.04v25.54c5.87-17.73,20.83-29.79,38.45-29.79
						c31.51,0,42.99,28.38,42.99,63.14v97.53H900.9v-89.02c0-24.13-7.21-37.95-22.97-37.95c-16.29,0-26.44,17.02-26.44,43.26V483.77
						z"/>
					<path class="st0" d="M1060.3,445.82c0,8.16,3.2,12.06,8.28,12.06c3.21,0,6.41-1.06,9.88-3.2v22.7
						c-5.07,5.33-11.49,9.93-22.17,9.93c-13.35,0-23.5-11.34-25.9-30.15c-6.67,18.44-21.63,30.51-41.12,30.51
						c-22.43,0-37.39-15.96-37.39-42.92c0-29.79,17.62-42.2,44.86-48.95l32.31-8.16v-4.61c0-17.37-6.95-28.01-20.57-28.01
						c-13.36,0-20.56,10.64-23.23,25.88l-29.11-3.54c4-31.92,22.43-54.27,53.68-54.27c30.45,0,50.47,19.15,50.47,60.3V445.82z
						 M1029.06,410.71l-22.17,6.03c-14.68,3.89-23.76,8.87-23.76,23.4c0,11,5.88,19.16,16.29,19.16c16.83,0,29.65-16.67,29.65-43.28
						V410.71z"/>
				</g>
				<g>
					<polygon class="st0" points="413.72,318.42 413.72,253.91 454.39,253.91 454.39,339.08 					"/>
					<polygon class="st0" points="413.72,338.62 441.56,352.77 413.72,366.9 					"/>
					<polygon class="st0" points="454.39,366.44 454.39,397.69 434.62,483.77 413.72,483.77 413.72,387.1 					"/>
				</g>
				<g>
					<polygon class="st0" points="509.16,318.42 509.16,253.91 468.49,253.91 468.49,339.08 					"/>
					<polygon class="st0" points="509.16,338.62 481.33,352.77 509.16,366.9 					"/>
					<polygon class="st0" points="468.49,366.44 468.49,397.69 488.26,483.77 509.16,483.77 509.16,387.1 					"/>
				</g>
			</g>
		</g>
	</g>
	<g>
		<g>
			<path class="st1" d="M610.27,610.22c0-4.68-1.24-8.29-3.72-10.83c-2.48-2.54-6.95-5.1-13.42-7.68
				c-6.46-2.58-11.6-5.46-15.43-8.63c-7.31-6.1-10.96-14.05-10.96-23.86c0-8.59,2.63-15.66,7.91-21.22
				c5.27-5.56,12.11-8.34,20.52-8.34c5.58,0,10.56,1.37,14.93,4.1c4.37,2.73,7.81,6.62,10.3,11.67c2.5,5.05,3.75,10.65,3.75,16.79
				h-13.88c0-5.56-1.31-9.92-3.94-13.06c-2.63-3.15-6.38-4.72-11.27-4.72c-4.56,0-8.09,1.29-10.61,3.88
				c-2.52,2.59-3.77,6.2-3.77,10.83c0,3.9,1.36,7.16,4.08,9.77c2.72,2.61,7.2,5.15,13.45,7.61c6.24,2.46,11.26,5.27,15.04,8.41
				c3.78,3.15,6.56,6.76,8.32,10.83c1.76,4.07,2.65,8.84,2.65,14.31c0,8.88-2.56,15.94-7.69,21.18c-5.12,5.24-12.07,7.87-20.85,7.87
				c-5.8,0-11.14-1.43-16-4.28c-4.87-2.85-8.65-6.79-11.35-11.82c-2.7-5.02-4.05-10.88-4.05-17.56h13.94
				c0,6.05,1.51,10.73,4.52,14.05c3.01,3.32,7.33,4.98,12.95,4.98c4.85,0,8.49-1.31,10.94-3.92
				C609.05,617.96,610.27,614.51,610.27,610.22z"/>
			<path class="st1" d="M686.38,613.14l9.48-54.66h13.06l-16.25,79.18h-11.02l-12.78-54.37l-12.56,54.37h-11.02l-16.31-79.18h13.06
				l9.64,54.08l12.23-54.08h10.08L686.38,613.14z"/>
			<path class="st1" d="M752.36,637.66c-0.59-1.51-1.1-3.97-1.54-7.39c-4.26,5.9-9.48,8.85-15.65,8.85
				c-5.99,0-10.87-2.27-14.65-6.81c-3.78-4.54-5.68-10.15-5.68-16.83c0-8.44,2.36-14.92,7.08-19.43c4.72-4.51,11.47-6.77,20.25-6.77
				h8.21v-5.2c0-4.1-0.86-7.38-2.59-9.84c-1.73-2.46-4.35-3.7-7.88-3.7c-3.05,0-5.55,1.01-7.49,3.04c-1.95,2.02-2.92,4.6-2.92,7.72
				h-13.39c0-4.34,1.08-8.4,3.25-12.18c2.17-3.78,5.12-6.74,8.84-8.89c3.73-2.15,7.88-3.22,12.48-3.22c6.98,0,12.54,2.33,16.7,6.99
				c4.15,4.66,6.28,11.21,6.39,19.65v35.71c0,7.12,0.75,12.81,2.26,17.05v1.24H752.36z M737.65,624.85c2.64,0,5.13-0.85,7.47-2.56
				c2.33-1.71,4.09-4,5.26-6.88v-14.93h-7.22c-4.96,0-8.69,1.15-11.19,3.44c-2.5,2.29-3.75,5.54-3.75,9.73
				c0,3.42,0.86,6.14,2.56,8.16C732.5,623.84,734.79,624.85,737.65,624.85z"/>
			<path class="st1" d="M789.09,558.48l0.39,9.15c4.41-7.07,10.19-10.61,17.36-10.61c12.41,0,18.73,9.44,18.95,28.32v52.32h-13.39
				v-51.3c0-5.02-0.82-8.74-2.45-11.16c-1.64-2.41-4.31-3.62-8.02-3.62c-5.4,0-9.42,3.24-12.07,9.73v56.35h-13.39v-79.18H789.09z"/>
		</g>
		<g>
			<path class="st1" d="M867.03,622.88h36.42v14.78h-50.36V531.11h13.94V622.88z"/>
			<path class="st1" d="M947.33,637.66c-0.59-1.51-1.1-3.97-1.54-7.39c-4.26,5.9-9.48,8.85-15.65,8.85
				c-5.99,0-10.87-2.27-14.65-6.81c-3.78-4.54-5.68-10.15-5.68-16.83c0-8.44,2.36-14.92,7.08-19.43c4.72-4.51,11.47-6.77,20.25-6.77
				h8.21v-5.2c0-4.1-0.86-7.38-2.59-9.84c-1.73-2.46-4.35-3.7-7.88-3.7c-3.05,0-5.55,1.01-7.49,3.04c-1.95,2.02-2.92,4.6-2.92,7.72
				h-13.39c0-4.34,1.08-8.4,3.25-12.18c2.17-3.78,5.12-6.74,8.84-8.89c3.73-2.15,7.88-3.22,12.48-3.22c6.98,0,12.54,2.33,16.7,6.99
				c4.15,4.66,6.28,11.21,6.39,19.65v35.71c0,7.12,0.75,12.81,2.26,17.05v1.24H947.33z M932.62,624.85c2.64,0,5.13-0.85,7.47-2.56
				c2.33-1.71,4.09-4,5.26-6.88v-14.93h-7.22c-4.96,0-8.69,1.15-11.19,3.44c-2.5,2.29-3.75,5.54-3.75,9.73
				c0,3.42,0.86,6.14,2.56,8.16C927.47,623.84,929.75,624.85,932.62,624.85z"/>
			<path class="st1" d="M990.99,603.7l-5.95,8.12v25.83h-13.39v-112.4h13.39v64.83l4.19-6.95l16.47-24.66h16.09l-22.15,33
				l24.52,46.17h-15.48L990.99,603.7z"/>
			<path class="st1" d="M1054.55,639.12c-8.48,0-15.36-3.55-20.63-10.65c-5.27-7.1-7.91-16.55-7.91-28.36v-2.2
				c0-7.9,1.15-14.96,3.44-21.18s5.52-11.06,9.67-14.53c4.15-3.46,8.78-5.2,13.88-5.2c8.12,0,14.39,3.44,18.82,10.32
				c4.42,6.88,6.64,16.61,6.64,29.2v7.17h-38.95c0.4,6.54,2.05,11.71,4.93,15.51c2.88,3.81,6.51,5.71,10.88,5.71
				c6.13,0,11.13-3.29,14.99-9.88l7.22,9.15c-2.39,4.73-5.57,8.41-9.56,11.01C1063.98,637.82,1059.51,639.12,1054.55,639.12z
				 M1052.95,571.29c-3.67,0-6.64,1.71-8.9,5.12s-3.7,8.17-4.32,14.27h25.51v-1.32c-0.29-5.95-1.49-10.45-3.58-13.5
				C1059.56,572.81,1056.66,571.29,1052.95,571.29z"/>
		</g>
	</g>
</g>
<line class="st2" x1="1078.46" y1="117.79" x2="120.13" y2="745.48"/>
<line class="st2" x1="120.13" y1="117.79" x2="1078.46" y2="745.48"/>
<line class="st2" x1="2383.58" y1="117.79" x2="1425.25" y2="745.48"/>
<line class="st2" x1="1425.25" y1="117.79" x2="2383.58" y2="745.48"/>
</svg>
