<?xml version="1.0" encoding="utf-8"?>
<!-- Generator: Adobe Illustrator 28.0.0, SVG Export Plug-In . SVG Version: 6.00 Build 0)  -->
<svg version="1.1" id="Layer_1" xmlns="http://www.w3.org/2000/svg" xmlns:xlink="http://www.w3.org/1999/xlink" x="0px" y="0px"
	 viewBox="0 0 1200 630" style="enable-background:new 0 0 1200 630;" xml:space="preserve">
<style type="text/css">
	.st0{fill:#464646;}
	.st1{fill:#53C3C2;}
</style>
<g>
	<g>
		<g>
			<g>
				<g>
					<path class="st0" d="M146.45,401.7H54.31V205.6h87.15c49.5,0,70.66,21.17,70.66,53.23c0,22.1-14.94,37.66-36.11,41.08
						c23.66,4.36,42.02,19.92,42.02,47.94C218.03,381.78,192.2,401.7,146.45,401.7z M92.29,287.16h46.68
						c23.35,0,33.31-10.27,33.31-24.9c0-14.63-9.96-25.21-33.31-25.21H92.29V287.16z M92.29,316.72v53.54h49.8
						c24.27,0,36.1-10.27,36.1-26.47c0-16.49-11.83-27.08-36.1-27.08H92.29z"/>
					<path class="st0" d="M357.55,368.4c0,7.16,3.74,10.58,9.65,10.58c3.73,0,7.47-0.93,11.51-2.8v19.92
						c-5.91,4.67-13.38,8.72-25.83,8.72c-15.56,0-27.4-9.95-30.19-26.46c-7.78,16.19-25.21,26.77-47.94,26.77
						c-26.15,0-43.57-14.01-43.57-37.67c0-26.14,20.54-37.04,52.29-42.96l37.66-7.16v-4.04c0-15.24-8.09-24.59-23.97-24.59
						c-15.56,0-23.96,9.34-27.07,22.72l-33.94-3.11c4.67-28.02,26.15-47.63,62.57-47.63c35.48,0,58.83,16.81,58.83,52.92V368.4z
						 M321.13,337.58l-25.83,5.29c-17.13,3.41-27.7,7.78-27.7,20.53c0,9.65,6.85,16.81,18.98,16.81c19.62,0,34.55-14.63,34.55-37.98
						V337.58z"/>
					<path class="st0" d="M663.53,355.95c-6.85,31.12-31.12,49.49-66.3,49.49c-42.34,0-72.84-27.08-72.84-70.34
						c0-43.27,30.81-74.39,71.9-74.39c44.83,0,67.86,31.13,67.86,68.48V341H561.12c1.25,22.4,17.12,36.09,37.35,36.09
						c18.37,0,29.57-8.08,34.86-24.27L663.53,355.95z M627.73,321.4c-0.62-17.74-10.89-33.31-31.75-33.31
						c-20.53,0-32.06,14.94-34.23,33.31H627.73z"/>
					<path class="st0" d="M780.64,301.16c-7.17-4.05-13.39-5.91-22.42-5.91c-19.29,0-32.37,13.69-32.37,38.59v67.86h-37.35V264.43
						h37.35v26.15c4.98-15.57,19.29-29.88,38.28-29.88c8.4,0,15.25,2.18,19.29,5.61L780.64,301.16z"/>
					<path class="st0" d="M799.16,205.6h38.29v36.42h-38.29V205.6z M837.13,264.43V401.7h-37.36V264.43H837.13z"/>
					<path class="st0" d="M905.24,401.7h-37.35V264.43h37.35v22.41c6.84-15.56,24.27-26.15,44.82-26.15
						c36.73,0,50.11,24.9,50.11,55.41v85.59h-37.35v-78.12c0-21.17-8.41-33.3-26.77-33.3c-18.99,0-30.81,14.94-30.81,37.97V401.7z"
						/>
					<path class="st0" d="M1148.62,368.4c0,7.16,3.74,10.58,9.65,10.58c3.74,0,7.47-0.93,11.52-2.8v19.92
						c-5.91,4.67-13.39,8.72-25.84,8.72c-15.56,0-27.4-9.95-30.19-26.46c-7.78,16.19-25.21,26.77-47.93,26.77
						c-26.15,0-43.58-14.01-43.58-37.67c0-26.14,20.54-37.04,52.29-42.96l37.66-7.16v-4.04c0-15.24-8.1-24.59-23.97-24.59
						c-15.57,0-23.97,9.34-27.07,22.72l-33.93-3.11c4.67-28.02,26.15-47.63,62.56-47.63c35.49,0,58.83,16.81,58.83,52.92V368.4z
						 M1112.21,337.58l-25.84,5.29c-17.12,3.41-27.7,7.78-27.7,20.53c0,9.65,6.85,16.81,18.98,16.81
						c19.62,0,34.56-14.63,34.56-37.98V337.58z"/>
				</g>
				<g>
					<polygon class="st0" points="394.97,256.59 394.97,199.97 442.38,199.97 442.38,274.72 					"/>
					<polygon class="st0" points="394.97,274.31 427.43,286.73 394.97,299.13 					"/>
					<polygon class="st0" points="442.38,298.73 442.38,326.15 419.34,401.7 394.97,401.7 394.97,316.86 					"/>
				</g>
				<g>
					<polygon class="st0" points="506.22,256.59 506.22,199.97 458.81,199.97 458.81,274.72 					"/>
					<polygon class="st0" points="506.22,274.31 473.78,286.73 506.22,299.13 					"/>
					<polygon class="st0" points="458.81,298.73 458.81,326.15 481.86,401.7 506.22,401.7 506.22,316.86 					"/>
				</g>
			</g>
		</g>
	</g>
	<g>
		<g>
			<path class="st1" d="M624.07,512.67c0-4.11-1.44-7.28-4.33-9.51c-2.89-2.23-8.1-4.47-15.64-6.74
				c-7.53-2.27-13.53-4.79-17.98-7.58c-8.52-5.35-12.78-12.33-12.78-20.94c0-7.53,3.07-13.74,9.22-18.62
				c6.14-4.88,14.12-7.32,23.92-7.32c6.51,0,12.31,1.2,17.4,3.6c5.1,2.4,9.1,5.81,12.01,10.24c2.91,4.43,4.37,9.34,4.37,14.74
				h-16.18c0-4.88-1.53-8.7-4.59-11.46c-3.06-2.76-7.44-4.14-13.13-4.14c-5.31,0-9.43,1.13-12.36,3.4c-2.93,2.27-4.4,5.44-4.4,9.5
				c0,3.43,1.58,6.28,4.75,8.57c3.17,2.29,8.39,4.52,15.67,6.68c7.28,2.16,13.12,4.62,17.53,7.38c4.41,2.76,7.64,5.93,9.7,9.51
				c2.06,3.57,3.08,7.76,3.08,12.56c0,7.79-2.99,13.99-8.96,18.59c-5.97,4.6-14.07,6.9-24.31,6.9c-6.76,0-12.98-1.25-18.65-3.76
				c-5.67-2.5-10.08-5.96-13.23-10.37c-3.15-4.41-4.72-9.55-4.72-15.41h16.25c0,5.31,1.76,9.42,5.27,12.33
				c3.51,2.91,8.54,4.37,15.09,4.37c5.65,0,9.9-1.15,12.75-3.44C622.65,519.46,624.07,516.43,624.07,512.67z"/>
			<path class="st1" d="M712.79,515.23l11.05-47.97h15.22l-18.95,69.48h-12.85l-14.9-47.71l-14.64,47.71h-12.84l-19.01-69.48h15.22
				l11.24,47.46l14.25-47.46h11.75L712.79,515.23z"/>
			<path class="st1" d="M789.7,536.75c-0.68-1.33-1.28-3.49-1.8-6.49c-4.97,5.18-11.05,7.77-18.24,7.77
				c-6.98,0-12.67-1.99-17.08-5.97c-4.41-3.98-6.61-8.9-6.61-14.77c0-7.41,2.75-13.09,8.25-17.05c5.5-3.96,13.37-5.94,23.6-5.94
				h9.57v-4.56c0-3.6-1.01-6.47-3.02-8.64c-2.01-2.16-5.07-3.24-9.18-3.24c-3.55,0-6.47,0.89-8.73,2.67
				c-2.27,1.78-3.4,4.04-3.4,6.77h-15.6c0-3.81,1.26-7.37,3.79-10.69c2.53-3.32,5.96-5.92,10.31-7.8c4.34-1.88,9.19-2.82,14.54-2.82
				c8.13,0,14.62,2.04,19.46,6.13c4.83,4.09,7.32,9.84,7.45,17.24v31.34c0,6.25,0.88,11.24,2.63,14.96v1.09H789.7z M772.55,525.51
				c3.08,0,5.98-0.75,8.7-2.25c2.72-1.5,4.76-3.51,6.13-6.04v-13.1h-8.41c-5.78,0-10.13,1.01-13.04,3.02
				c-2.91,2.01-4.37,4.86-4.37,8.54c0,3,1,5.38,2.99,7.16C766.55,524.62,769.21,525.51,772.55,525.51z"/>
			<path class="st1" d="M832.5,467.26l0.45,8.03c5.14-6.21,11.88-9.31,20.23-9.31c14.47,0,21.83,8.28,22.09,24.85v45.92h-15.61
				v-45.02c0-4.41-0.95-7.67-2.86-9.79c-1.91-2.12-5.02-3.18-9.34-3.18c-6.3,0-10.98,2.85-14.06,8.54v49.45h-15.61v-69.48H832.5z"/>
		</g>
		<g>
			<path class="st1" d="M923.35,523.77h42.45v12.97h-58.7v-93.5h16.25V523.77z"/>
			<path class="st1" d="M1016.95,536.75c-0.68-1.33-1.28-3.49-1.8-6.49c-4.97,5.18-11.05,7.77-18.24,7.77
				c-6.98,0-12.67-1.99-17.08-5.97c-4.41-3.98-6.61-8.9-6.61-14.77c0-7.41,2.75-13.09,8.25-17.05c5.5-3.96,13.37-5.94,23.6-5.94
				h9.57v-4.56c0-3.6-1.01-6.47-3.02-8.64c-2.01-2.16-5.07-3.24-9.18-3.24c-3.55,0-6.46,0.89-8.73,2.67
				c-2.27,1.78-3.4,4.04-3.4,6.77h-15.6c0-3.81,1.26-7.37,3.79-10.69c2.53-3.32,5.96-5.92,10.31-7.8c4.34-1.88,9.19-2.82,14.54-2.82
				c8.13,0,14.62,2.04,19.46,6.13c4.83,4.09,7.32,9.84,7.45,17.24v31.34c0,6.25,0.88,11.24,2.63,14.96v1.09H1016.95z M999.8,525.51
				c3.08,0,5.98-0.75,8.7-2.25c2.72-1.5,4.76-3.51,6.13-6.04v-13.1h-8.41c-5.78,0-10.13,1.01-13.04,3.02
				c-2.91,2.01-4.37,4.86-4.37,8.54c0,3,1,5.38,2.99,7.16C993.79,524.62,996.46,525.51,999.8,525.51z"/>
			<path class="st1" d="M1067.84,506.95l-6.93,7.13v22.67h-15.61v-98.64h15.61v56.9l4.88-6.1l19.2-21.64h18.75l-25.81,28.96
				l28.58,40.52h-18.05L1067.84,506.95z"/>
			<path class="st1" d="M1141.92,538.03c-9.89,0-17.91-3.12-24.05-9.34c-6.15-6.23-9.22-14.52-9.22-24.89v-1.93
				c0-6.94,1.34-13.13,4.01-18.59c2.68-5.46,6.43-9.71,11.27-12.75c4.84-3.04,10.23-4.56,16.18-4.56c9.46,0,16.77,3.02,21.93,9.06
				c5.16,6.04,7.74,14.58,7.74,25.62v6.29h-45.4c0.47,5.74,2.39,10.28,5.75,13.61c3.36,3.34,7.59,5.01,12.68,5.01
				c7.15,0,12.97-2.89,17.47-8.67l8.41,8.03c-2.78,4.15-6.49,7.38-11.14,9.66C1152.91,536.89,1147.7,538.03,1141.92,538.03z
				 M1140.06,478.5c-4.28,0-7.74,1.5-10.37,4.5s-4.31,7.17-5.04,12.52h29.73v-1.16c-0.34-5.22-1.73-9.17-4.18-11.85
				C1147.76,479.84,1144.38,478.5,1140.06,478.5z"/>
		</g>
	</g>
</g>
</svg>
