<?xml version="1.0" encoding="utf-8"?>
<!-- Generator: Adobe Illustrator 28.0.0, SVG Export Plug-In . SVG Version: 6.00 Build 0)  -->
<svg version="1.1" id="Layer_1" xmlns="http://www.w3.org/2000/svg" xmlns:xlink="http://www.w3.org/1999/xlink" x="0px" y="0px"
	 viewBox="0 0 864 416" style="enable-background:new 0 0 864 416;" xml:space="preserve">
<style type="text/css">
	.st0{fill:#464646;}
	.st1{fill:#53C3C2;}
	.st2{fill:none;}
	.st3{fill:none;stroke:#20B6AF;stroke-miterlimit:10;stroke-dasharray:4.01,4.01;}
	.st4{fill:none;stroke:#20B6AF;stroke-miterlimit:10;stroke-dasharray:3.99,3.99;}
	.st5{font-family:'Roboto-Light';}
	.st6{font-size:34.17px;}
	.st7{fill:none;stroke:#20B6AF;stroke-miterlimit:10;}
	.st8{fill:none;stroke:#464646;stroke-miterlimit:10;}
</style>
<g>
	<g>
		<g>
			<g>
				<g>
					<path class="st0" d="M207.39,192.8h-38.2V111.5h36.14c20.52,0,29.3,8.78,29.3,22.07c0,9.16-6.2,15.62-14.97,17.03
						c9.81,1.81,17.42,8.26,17.42,19.88C237.08,184.54,226.36,192.8,207.39,192.8z M184.94,145.31h19.35
						c9.68,0,13.81-4.26,13.81-10.33c0-6.07-4.13-10.45-13.81-10.45h-19.35V145.31z M184.94,157.57v22.2h20.65
						c10.07,0,14.97-4.26,14.97-10.97c0-6.84-4.9-11.23-14.97-11.23H184.94z"/>
					<path class="st0" d="M294.92,179c0,2.97,1.55,4.39,4,4.39c1.55,0,3.1-0.39,4.77-1.16v8.26c-2.45,1.94-5.55,3.62-10.71,3.62
						c-6.45,0-11.36-4.13-12.52-10.97c-3.23,6.71-10.45,11.1-19.88,11.1c-10.84,0-18.07-5.81-18.07-15.62
						c0-10.84,8.52-15.36,21.68-17.81l15.62-2.97v-1.68c0-6.32-3.35-10.19-9.94-10.19c-6.45,0-9.94,3.87-11.22,9.42l-14.07-1.29
						c1.94-11.62,10.84-19.75,25.94-19.75c14.71,0,24.39,6.97,24.39,21.94V179z M279.82,166.22l-10.71,2.19
						c-7.1,1.42-11.49,3.23-11.49,8.51c0,4,2.84,6.97,7.87,6.97c8.13,0,14.33-6.07,14.33-15.75V166.22z"/>
					<path class="st0" d="M421.79,173.83c-2.84,12.9-12.9,20.52-27.49,20.52c-17.56,0-30.2-11.23-30.2-29.17
						c0-17.94,12.78-30.85,29.81-30.85c18.59,0,28.14,12.91,28.14,28.39v4.9h-42.72c0.52,9.29,7.1,14.97,15.49,14.97
						c7.62,0,12.26-3.35,14.46-10.06L421.79,173.83z M406.95,159.51c-0.26-7.36-4.52-13.81-13.17-13.81
						c-8.51,0-13.29,6.2-14.19,13.81H406.95z"/>
					<path class="st0" d="M470.35,151.12c-2.97-1.68-5.55-2.45-9.29-2.45c-8,0-13.42,5.67-13.42,16v28.14h-15.49v-56.92h15.49v10.84
						c2.06-6.45,8-12.39,15.87-12.39c3.48,0,6.32,0.9,8,2.32L470.35,151.12z"/>
					<path class="st0" d="M478.03,111.5h15.87v15.1h-15.87V111.5z M493.78,135.89v56.92h-15.49v-56.92H493.78z"/>
					<path class="st0" d="M522.02,192.8h-15.49v-56.92h15.49v9.29c2.84-6.45,10.07-10.84,18.58-10.84
						c15.23,0,20.78,10.33,20.78,22.98v35.49h-15.49v-32.39c0-8.78-3.49-13.81-11.1-13.81c-7.87,0-12.78,6.19-12.78,15.74V192.8z"/>
					<path class="st0" d="M622.93,179c0,2.97,1.55,4.39,4,4.39c1.55,0,3.1-0.39,4.78-1.16v8.26c-2.45,1.94-5.55,3.62-10.71,3.62
						c-6.45,0-11.36-4.13-12.52-10.97c-3.23,6.71-10.45,11.1-19.87,11.1c-10.84,0-18.07-5.81-18.07-15.62
						c0-10.84,8.52-15.36,21.68-17.81l15.62-2.97v-1.68c0-6.32-3.36-10.19-9.94-10.19c-6.45,0-9.94,3.87-11.23,9.42l-14.07-1.29
						c1.93-11.62,10.84-19.75,25.94-19.75c14.71,0,24.39,6.97,24.39,21.94V179z M607.83,166.22l-10.72,2.19
						c-7.1,1.42-11.48,3.23-11.48,8.51c0,4,2.84,6.97,7.87,6.97c8.13,0,14.33-6.07,14.33-15.75V166.22z"/>
				</g>
				<g>
					<polygon class="st0" points="310.44,132.64 310.44,109.16 330.1,109.16 330.1,140.15 					"/>
					<polygon class="st0" points="310.44,139.99 323.9,145.13 310.44,150.28 					"/>
					<polygon class="st0" points="330.1,150.11 330.1,161.48 320.54,192.8 310.44,192.8 310.44,157.63 					"/>
				</g>
				<g>
					<polygon class="st0" points="356.57,132.64 356.57,109.16 336.91,109.16 336.91,140.15 					"/>
					<polygon class="st0" points="356.57,139.99 343.12,145.13 356.57,150.28 					"/>
					<polygon class="st0" points="336.91,150.11 336.91,161.48 346.47,192.8 356.57,192.8 356.57,157.63 					"/>
				</g>
			</g>
		</g>
	</g>
	<g>
		<g>
			<path class="st1" d="M405.43,238.82c0-1.7-0.6-3.02-1.8-3.94c-1.2-0.92-3.36-1.85-6.48-2.8c-3.12-0.94-5.61-1.99-7.46-3.14
				c-3.53-2.22-5.3-5.11-5.3-8.68c0-3.12,1.27-5.7,3.82-7.72c2.55-2.02,5.85-3.04,9.92-3.04c2.7,0,5.1,0.5,7.22,1.49
				c2.11,0.99,3.77,2.41,4.98,4.25c1.21,1.84,1.81,3.87,1.81,6.11h-6.71c0-2.02-0.63-3.61-1.9-4.75c-1.27-1.14-3.08-1.72-5.45-1.72
				c-2.2,0-3.91,0.47-5.13,1.41c-1.22,0.94-1.82,2.25-1.82,3.94c0,1.42,0.66,2.61,1.97,3.56c1.31,0.95,3.48,1.87,6.5,2.77
				c3.02,0.9,5.44,1.92,7.27,3.06c1.83,1.14,3.17,2.46,4.02,3.94c0.85,1.48,1.28,3.22,1.28,5.21c0,3.23-1.24,5.8-3.71,7.71
				s-5.84,2.86-10.08,2.86c-2.8,0-5.38-0.52-7.74-1.56c-2.35-1.04-4.18-2.47-5.49-4.3c-1.3-1.83-1.96-3.96-1.96-6.39h6.74
				c0,2.2,0.73,3.91,2.18,5.11c1.46,1.21,3.54,1.81,6.26,1.81c2.34,0,4.11-0.48,5.29-1.42
				C404.84,241.63,405.43,240.38,405.43,238.82z"/>
			<path class="st1" d="M442.22,239.88l4.58-19.89h6.31l-7.86,28.81h-5.33l-6.18-19.78l-6.07,19.78h-5.32l-7.88-28.81h6.31
				l4.66,19.68l5.91-19.68h4.87L442.22,239.88z"/>
			<path class="st1" d="M474.11,248.8c-0.28-0.55-0.53-1.45-0.74-2.69c-2.06,2.15-4.58,3.22-7.56,3.22c-2.89,0-5.25-0.83-7.08-2.48
				c-1.83-1.65-2.74-3.69-2.74-6.12c0-3.07,1.14-5.43,3.42-7.07c2.28-1.64,5.54-2.46,9.79-2.46h3.97v-1.89
				c0-1.49-0.42-2.68-1.25-3.58c-0.83-0.9-2.1-1.35-3.81-1.35c-1.47,0-2.68,0.37-3.62,1.11c-0.94,0.74-1.41,1.67-1.41,2.81h-6.47
				c0-1.58,0.52-3.06,1.57-4.43c1.05-1.38,2.47-2.45,4.27-3.24c1.8-0.78,3.81-1.17,6.03-1.17c3.37,0,6.06,0.85,8.07,2.54
				c2,1.7,3.03,4.08,3.09,7.15v12.99c0,2.59,0.36,4.66,1.09,6.2v0.45H474.11z M467,244.14c1.28,0,2.48-0.31,3.61-0.93
				c1.13-0.62,1.97-1.46,2.54-2.5v-5.43h-3.49c-2.4,0-4.2,0.42-5.41,1.25c-1.21,0.83-1.81,2.01-1.81,3.54
				c0,1.24,0.41,2.23,1.24,2.97C464.51,243.77,465.61,244.14,467,244.14z"/>
			<path class="st1" d="M491.86,219.99l0.19,3.33c2.13-2.57,4.93-3.86,8.39-3.86c6,0,9.05,3.43,9.16,10.3v19.04h-6.47v-18.67
				c0-1.83-0.39-3.18-1.18-4.06c-0.79-0.88-2.08-1.32-3.87-1.32c-2.61,0-4.55,1.18-5.83,3.54v20.5h-6.47v-28.81H491.86z"/>
		</g>
		<g>
			<path class="st1" d="M529.53,243.42h17.6v5.38h-24.34v-38.77h6.74V243.42z"/>
			<path class="st1" d="M568.33,248.8c-0.28-0.55-0.53-1.45-0.74-2.69c-2.06,2.15-4.58,3.22-7.56,3.22c-2.89,0-5.25-0.83-7.08-2.48
				c-1.83-1.65-2.74-3.69-2.74-6.12c0-3.07,1.14-5.43,3.42-7.07c2.28-1.64,5.54-2.46,9.79-2.46h3.97v-1.89
				c0-1.49-0.42-2.68-1.25-3.58c-0.83-0.9-2.1-1.35-3.81-1.35c-1.47,0-2.68,0.37-3.62,1.11c-0.94,0.74-1.41,1.67-1.41,2.81h-6.47
				c0-1.58,0.52-3.06,1.57-4.43c1.05-1.38,2.47-2.45,4.27-3.24c1.8-0.78,3.81-1.17,6.03-1.17c3.37,0,6.06,0.85,8.07,2.54
				c2,1.7,3.03,4.08,3.09,7.15v12.99c0,2.59,0.36,4.66,1.09,6.2v0.45H568.33z M561.23,244.14c1.28,0,2.48-0.31,3.61-0.93
				c1.13-0.62,1.97-1.46,2.54-2.5v-5.43h-3.49c-2.4,0-4.2,0.42-5.41,1.25c-1.21,0.83-1.81,2.01-1.81,3.54
				c0,1.24,0.41,2.23,1.24,2.97C558.74,243.77,559.84,244.14,561.23,244.14z"/>
			<path class="st1" d="M589.44,236.45l-2.88,2.96v9.4h-6.47v-40.9h6.47v23.59l2.02-2.53l7.96-8.97h7.77L593.62,232l11.85,16.8
				h-7.48L589.44,236.45z"/>
			<path class="st1" d="M620.15,249.33c-4.1,0-7.42-1.29-9.97-3.87c-2.55-2.58-3.82-6.02-3.82-10.32v-0.8
				c0-2.88,0.55-5.45,1.66-7.71s2.67-4.02,4.67-5.29c2.01-1.26,4.24-1.89,6.71-1.89c3.92,0,6.95,1.25,9.09,3.75
				c2.14,2.5,3.21,6.04,3.21,10.62v2.61h-18.83c0.19,2.38,0.99,4.26,2.38,5.65c1.39,1.38,3.15,2.08,5.26,2.08
				c2.96,0,5.38-1.2,7.24-3.59l3.49,3.33c-1.15,1.72-2.69,3.06-4.62,4.01C624.71,248.86,622.55,249.33,620.15,249.33z
				 M619.38,224.65c-1.77,0-3.21,0.62-4.3,1.86c-1.09,1.24-1.79,2.97-2.09,5.19h12.33v-0.48c-0.14-2.17-0.72-3.8-1.73-4.91
				C622.58,225.2,621.17,224.65,619.38,224.65z"/>
		</g>
	</g>
</g>
<rect y="-64" class="st2" width="864" height="426"/>
<line class="st3" x1="84.58" y1="110.83" x2="714.99" y2="110.83"/>
<line class="st3" x1="89.61" y1="193.43" x2="631.71" y2="193.43"/>
<line class="st4" x1="168.31" y1="332.43" x2="168.31" y2="27.77"/>
<line class="st4" x1="631.72" y1="332.43" x2="631.72" y2="27.77"/>
<text transform="matrix(1 0 0 1 115.73 77.36)" class="st0 st5 st6">X</text>
<text transform="matrix(1 0 0 1 663.64 77.36)" class="st0 st5 st6">X</text>
<text transform="matrix(1 0 0 1 664.49 303.4601)" class="st0 st5 st6">X</text>
<text transform="matrix(1 0 0 1 115.73 303.4601)" class="st0 st5 st6">X</text>
<polyline class="st7" points="76.56,109.94 65.53,109.94 65.53,193.93 76.56,193.93 "/>
<line class="st7" x1="49.14" y1="151.93" x2="65.53" y2="151.93"/>
<text transform="matrix(1 0 0 1 26.96 163.57)" class="st0 st5 st6">X</text>
<polyline class="st7" points="85.58,343.25 85.58,354.28 168.31,354.28 168.31,343.25 "/>
<line class="st7" x1="125.67" y1="370.66" x2="125.67" y2="354.28"/>
<text transform="matrix(1 0 0 1 115.73 402.26)" class="st0 st5 st6">X</text>
<line class="st8" x1="714.99" y1="332.43" x2="714.99" y2="26.99"/>
<line class="st8" x1="85.04" y1="332.43" x2="85.04" y2="26.99"/>
<line class="st8" x1="85.04" y1="27" x2="714.99" y2="27"/>
<line class="st8" x1="85.04" y1="332.43" x2="714.99" y2="332.43"/>
<line class="st3" x1="85.58" y1="249.33" x2="714.99" y2="249.33"/>
</svg>
