<?xml version="1.0" encoding="utf-8"?>
<!-- Generator: Adobe Illustrator 16.0.4, SVG Export Plug-In . SVG Version: 6.00 Build 0)  -->
<!DOCTYPE svg PUBLIC "-//W3C//DTD SVG 1.0//EN" "http://www.w3.org/TR/2001/REC-SVG-20010904/DTD/svg10.dtd">
<svg version="1.0" id="Layer_1" xmlns="http://www.w3.org/2000/svg" xmlns:xlink="http://www.w3.org/1999/xlink" x="0px" y="0px"
	 width="792px" height="612px" viewBox="0 0 792 612" enable-background="new 0 0 792 612" xml:space="preserve">
<g>
	<defs>
		<rect id="SVGID_1_" width="792" height="612"/>
	</defs>
	<clipPath id="SVGID_2_">
		<use xlink:href="#SVGID_1_"  overflow="visible"/>
	</clipPath>
	<path clip-path="url(#SVGID_2_)" fill="#464646" d="M252.779,319.89h-27.822v-59.216h26.319c14.945,0,21.337,6.39,21.337,16.073
		c0,6.673-4.512,11.373-10.904,12.407c7.144,1.316,12.69,6.015,12.69,14.475C274.399,313.876,266.597,319.89,252.779,319.89
		 M236.425,285.299h14.099c7.049,0,10.057-3.101,10.057-7.519c0-4.418-3.008-7.614-10.057-7.614h-14.099V285.299z M236.425,294.229
		v16.167h15.039c7.331,0,10.903-3.102,10.903-7.99c0-4.982-3.572-8.177-10.903-8.177H236.425z"/>
	<path clip-path="url(#SVGID_2_)" fill="#464646" d="M316.528,309.832c0,2.162,1.128,3.196,2.914,3.196
		c1.127,0,2.256-0.282,3.478-0.847v6.016c-1.786,1.41-4.042,2.633-7.802,2.633c-4.699,0-8.272-3.008-9.117-7.99
		c-2.35,4.888-7.614,8.084-14.476,8.084c-7.896,0-13.16-4.23-13.16-11.373c0-7.896,6.205-11.186,15.792-12.972l11.373-2.162v-1.222
		c0-4.606-2.443-7.426-7.237-7.426c-4.7,0-7.238,2.82-8.177,6.862l-10.247-0.94c1.411-8.459,7.896-14.381,18.893-14.381
		c10.716,0,17.766,5.075,17.766,15.979V309.832z M305.53,300.527l-7.801,1.598c-5.17,1.033-8.365,2.349-8.365,6.203
		c0,2.914,2.067,5.076,5.733,5.076c5.921,0,10.433-4.418,10.433-11.468V300.527z"/>
	<path clip-path="url(#SVGID_2_)" fill="#464646" d="M408.928,306.072c-2.067,9.399-9.398,14.945-20.021,14.945
		c-12.784,0-21.995-8.178-21.995-21.242c0-13.066,9.306-22.465,21.713-22.465c13.535,0,20.491,9.399,20.491,20.679v3.571h-31.113
		c0.376,6.768,5.171,10.903,11.28,10.903c5.546,0,8.93-2.443,10.527-7.331L408.928,306.072z M398.119,295.639
		c-0.188-5.357-3.29-10.057-9.588-10.057c-6.204,0-9.682,4.512-10.339,10.057H398.119z"/>
	<path clip-path="url(#SVGID_2_)" fill="#464646" d="M444.292,289.529c-2.162-1.222-4.042-1.785-6.768-1.785
		c-5.828,0-9.775,4.135-9.775,11.654v20.491H416.47v-41.451h11.279v7.896c1.504-4.701,5.827-9.024,11.562-9.024
		c2.537,0,4.605,0.658,5.827,1.692L444.292,289.529z"/>
	<path clip-path="url(#SVGID_2_)" fill="#464646" d="M449.886,260.673h11.563v10.998h-11.563V260.673z M461.354,319.89h-11.278
		v-41.451h11.278V319.89z"/>
	<path clip-path="url(#SVGID_2_)" fill="#464646" d="M481.921,319.89h-11.279v-41.451h11.279v6.767
		c2.067-4.7,7.331-7.895,13.535-7.895c11.091,0,15.133,7.519,15.133,16.73v25.849H499.31v-23.593c0-6.391-2.538-10.056-8.084-10.056
		c-5.733,0-9.305,4.511-9.305,11.466V319.89z"/>
	<path clip-path="url(#SVGID_2_)" fill="#464646" d="M555.418,309.832c0,2.162,1.128,3.196,2.914,3.196
		c1.128,0,2.256-0.282,3.478-0.847v6.016c-1.786,1.41-4.042,2.633-7.802,2.633c-4.7,0-8.273-3.008-9.118-7.99
		c-2.35,4.888-7.614,8.084-14.475,8.084c-7.896,0-13.159-4.23-13.159-11.373c0-7.896,6.203-11.186,15.791-12.972l11.373-2.162
		v-1.222c0-4.606-2.444-7.426-7.237-7.426c-4.701,0-7.238,2.82-8.178,6.862l-10.245-0.94c1.409-8.459,7.896-14.381,18.893-14.381
		c10.716,0,17.766,5.075,17.766,15.979V309.832z M544.42,300.527l-7.802,1.598c-5.17,1.033-8.365,2.349-8.365,6.203
		c0,2.914,2.068,5.076,5.733,5.076c5.922,0,10.434-4.418,10.434-11.468V300.527z"/>
	<polygon clip-path="url(#SVGID_2_)" fill="#464646" points="327.832,276.069 327.832,258.971 342.147,258.971 342.147,281.544 	"/>
	<polygon clip-path="url(#SVGID_2_)" fill="#464646" points="327.832,281.422 337.63,285.169 327.832,288.917 	"/>
	<polygon clip-path="url(#SVGID_2_)" fill="#464646" points="342.148,288.794 342.148,297.075 335.188,319.89 327.832,319.89 
		327.832,294.27 	"/>
	<polygon clip-path="url(#SVGID_2_)" fill="#464646" points="361.426,276.069 361.426,258.971 347.109,258.971 347.109,281.544 	"/>
	<polygon clip-path="url(#SVGID_2_)" fill="#464646" points="361.426,281.422 351.627,285.169 361.426,288.917 	"/>
	<polygon clip-path="url(#SVGID_2_)" fill="#464646" points="347.109,288.794 347.109,297.075 354.069,319.89 361.426,319.89 
		361.426,294.27 	"/>
</g>
</svg>
