<?xml version="1.0" encoding="UTF-8"?>
<svg width="122px" height="15px" viewBox="0 0 122 15" version="1.1" xmlns="http://www.w3.org/2000/svg" xmlns:xlink="http://www.w3.org/1999/xlink">
    <title>Ballerina Docs logo</title>
    <g id="Page-1" stroke="none" stroke-width="1" fill="none" fill-rule="evenodd">
        <g id="Ballerina-Docs-logo" fill-rule="nonzero">
            <path d="M36.9263982,4.13799439 C39.9801338,4.13799439 41.5495305,6.25877575 41.5495305,8.80398414 L41.5495305,9.60974116 L34.5301125,9.60974116 C34.6149448,11.1368662 35.6965561,12.0698836 37.0748546,12.0698836 C38.3261304,12.0698836 39.0896207,11.5186475 39.4499322,10.4157238 L41.5071144,10.6278245 C41.0407626,12.7486059 39.3867592,14 36.9900224,14 C34.1059513,14 32.0277866,12.1547239 32.0277866,9.20697547 C32.0277866,6.25877575 34.1273849,4.13799439 36.9263982,4.13799439 Z M16.6517145,4.13799439 C19.0694338,4.13799439 20.6600387,5.28311253 20.6600387,7.74348064 L20.6600387,11.4762273 C20.6600387,11.9640589 20.9145354,12.1973697 21.3174886,12.1973697 C21.5717598,12.1973697 21.8264822,12.1337395 22.102187,12.0062534 L22.102187,13.3636979 C21.6992338,13.681849 21.1902403,13.9578055 20.3419177,13.9578055 C19.2817401,13.9578055 18.4756081,13.2790833 18.2849611,12.1549496 C17.7547595,13.2578732 16.5671079,13.9790156 15.0189192,13.9790156 C13.2376675,13.9790156 12.0500159,13.0245624 12.0500159,11.4128227 C12.0500159,9.63117687 13.4497481,8.88882442 15.612745,8.48583309 L18.1786952,7.99800148 L18.1786952,7.72227057 C18.1786952,6.68297715 17.6275111,6.04667505 16.5458998,6.04667505 C15.4854966,6.04667505 14.9128789,6.68297715 14.7010239,7.59501015 L12.3893449,7.38290945 C12.7074659,5.4742288 14.1705967,4.13799439 16.6517145,4.13799439 Z M70.5497532,4.13799439 C72.9674725,4.13799439 74.5580773,5.28311253 74.5580773,7.74348064 L74.5580773,11.4762273 L74.5578516,11.4762273 C74.5578516,11.9640589 74.8123484,12.1973697 75.2153016,12.1973697 C75.4697984,12.1973697 75.7242952,12.1337395 76,12.0062534 L76,13.3636979 C75.5970468,13.681849 75.0880532,13.9578055 74.2397307,13.9578055 C73.1793275,13.9578055 72.3731954,13.2790833 72.1825485,12.1549496 C71.6523469,13.2578732 70.4646953,13.9790156 68.9167322,13.9790156 C67.1352548,13.9790156 65.9478289,13.0245624 65.9478289,11.4128227 C65.9478289,9.63117687 67.3473355,8.88882442 69.510558,8.48583309 L72.0765082,7.99800148 L72.0765082,7.72227057 C72.0765082,6.68297715 71.5250985,6.04667505 70.4437128,6.04667505 C69.383084,6.04667505 68.8106919,6.68297715 68.5986113,7.59501015 L66.2871579,7.38290945 C66.6050532,5.4742288 68.0686353,4.13799439 70.5497532,4.13799439 Z M5.93803232,0.384263289 C9.3101145,0.384263289 10.7520372,1.82609677 10.7520372,4.01095961 C10.7520372,5.51664894 9.73427578,6.57715244 8.29212743,6.8104632 C9.90394029,7.10740418 11.1552161,8.16768204 11.1552161,10.0765883 C11.1552161,12.388486 9.39494676,13.7457048 6.27713572,13.7457048 L0,13.7457048 L0,0.384263289 L5.93803232,0.384263289 Z M48.362057,4.13799439 C48.9344492,4.13799439 49.4010266,4.28646488 49.6767314,4.51977565 L49.4858588,6.89507785 C48.9980733,6.61934694 48.5739121,6.49231216 47.9588782,6.49231216 C46.6439782,6.49231216 45.7534652,7.42532959 45.7534652,9.12190955 L45.7534652,13.7454792 L43.2087231,13.7454792 L43.2087231,4.39251523 L45.7534652,4.39251523 L45.7534652,6.17416111 C46.0927942,5.11343197 47.0681395,4.13799439 48.362057,4.13799439 Z M53.3353481,4.39274087 L53.3353481,13.7457048 L50.790606,13.7457048 L50.790606,4.39274087 L53.3353481,4.39274087 Z M61.029363,4.13822003 C63.5316889,4.13822003 64.4436357,5.83479999 64.4436357,7.9131612 L64.4436357,13.7457048 L61.8988936,13.7457048 L61.8988936,8.42220288 C61.8988936,6.98014376 61.3262759,6.15317668 60.0750001,6.15317668 C58.7815338,6.15317668 57.9756274,7.17103439 57.9756274,8.74035393 L57.9756274,13.7457048 L55.4308853,13.7457048 L55.4308853,4.39274087 L57.9756274,4.39274087 L57.9756274,5.91964027 C58.4419791,4.85913677 59.6296307,4.13822003 61.029363,4.13822003 Z M26.4403642,6.72923315 L26.4403642,8.59775006 L24.870065,13.7457048 L23.2104212,13.7457048 L23.2104212,7.96483254 L26.4403642,6.72923315 Z M27.5596536,6.72923315 L30.7895966,7.96483254 L30.7895966,13.7457048 L29.1297272,13.7457048 L27.5596536,8.59775006 L27.5596536,6.72923315 Z M18.1786952,9.37665603 L16.4186515,9.73722722 C15.2522079,9.97031235 14.5313594,10.2672533 14.5313594,11.1368662 C14.5313594,11.7943784 14.9977112,12.28221 15.8248257,12.28221 C17.1607081,12.28221 18.1786952,11.2853367 18.1786952,9.69458144 L18.1786952,9.37665603 Z M72.0765082,9.37665603 L70.3162388,9.73722722 C69.1497953,9.97031235 68.4289468,10.2672533 68.4289468,11.1368662 C68.4289468,11.7943784 68.8955242,12.28221 69.722413,12.28221 C71.0585211,12.28221 72.0765082,11.2853367 72.0765082,9.69458144 L72.0765082,9.37665603 Z M5.98044844,7.95558134 L2.58738381,7.95558134 L2.58738381,11.6034877 L5.98044844,11.6034877 C7.63445182,11.6034877 8.44058387,10.9035554 8.44058387,9.80063179 C8.44058387,8.67649808 7.63445182,7.95558134 5.98044844,7.95558134 Z M36.9051901,6.00448055 C35.5056835,6.00448055 34.7207595,7.0225639 34.5725287,8.27373239 L39.0684126,8.27373239 C39.0259965,7.06498404 38.3261304,6.00448055 36.9051901,6.00448055 Z M23.2101955,5.06582213 L25.4210234,5.91129162 L23.2101955,6.75698675 L23.2101955,5.06582213 Z M30.7898223,5.06582213 L30.7898223,6.75698675 L28.5789944,5.91129162 L30.7898223,5.06582213 Z M5.7683678,2.52602908 L2.58738381,2.52602908 L2.58738381,5.9406247 L5.7683678,5.9406247 C7.35874699,5.9406247 8.03763066,5.24091803 8.03763066,4.24404474 C8.03763066,3.24717145 7.35874699,2.52602908 5.7683678,2.52602908 Z M26.4403642,0 L26.4403642,5.0933501 L23.2101955,3.85797634 L23.2101955,0 L26.4403642,0 Z M30.7898223,0 L30.7898223,3.85797634 L27.5598792,5.0933501 L27.5598792,0 L30.7898223,0 Z M53.3567817,0.384037649 L53.3567817,2.86561583 L50.7479642,2.86561583 L50.7479642,0.384037649 L53.3567817,0.384037649 Z" id="Combined-Shape" fill="#494949"></path>
            <path d="M83.3331288,13.7455215 C85.2380368,13.7455215 86.7656442,13.1289571 87.9159509,11.8958282 C89.0662577,10.6626994 89.6368098,9.0798773 89.6368098,7.14736196 C89.6368098,5.18723926 89.0570552,3.59521472 87.9067485,2.37128834 C86.7564417,1.14736196 85.2288344,0.54 83.3239264,0.54 L83.3331288,0.549202454 L77.6,0.549202454 L77.6,13.7455215 L83.3331288,13.7455215 Z M83.2595092,11.4080982 L83.2687117,11.3988957 L80.1582822,11.3988957 L80.1582822,2.8590184 L83.2687117,2.8590184 C84.4006135,2.8590184 85.3116564,3.24552147 86.0018405,4.02773006 C86.6920245,4.80993865 87.0325153,5.83141104 87.0325153,7.09214724 C87.0325153,8.37128834 86.6828221,9.41116564 85.992638,10.2117791 C85.302454,11.0123926 84.391411,11.4080982 83.2595092,11.4080982 Z M96.0693252,14.0123926 C97.5325153,14.0123926 98.7472393,13.533865 99.7134969,12.5676074 C100.679755,11.6013497 101.158282,10.4050307 101.158282,8.96944785 C101.158282,7.53386503 100.679755,6.33754601 99.7134969,5.3804908 C98.7472393,4.42343558 97.5325153,3.94490798 96.0601227,3.94490798 C94.5877301,3.94490798 93.3730061,4.42343558 92.4067485,5.3804908 C91.4404908,6.33754601 90.9527607,7.53386503 90.9527607,8.96944785 C90.9527607,10.4050307 91.4312883,11.6013497 92.397546,12.5676074 C93.3638037,13.533865 94.5785276,14.0123926 96.0509202,14.0123926 L96.0693252,14.0123926 Z M96.0509202,11.748589 C95.2595092,11.748589 94.6153374,11.4909202 94.1184049,10.9663804 C93.6214724,10.4418405 93.3730061,9.7792638 93.3730061,8.97865031 C93.3730061,8.17803681 93.6214724,7.51546012 94.1184049,6.99092025 C94.6153374,6.46638037 95.2595092,6.20871166 96.0509202,6.20871166 C96.8423313,6.20871166 97.4865031,6.46638037 97.9834356,6.99092025 C98.4803681,7.51546012 98.7288344,8.17803681 98.7288344,8.97865031 C98.7288344,9.7792638 98.4803681,10.4418405 97.9834356,10.9663804 C97.4865031,11.4909202 96.8423313,11.748589 96.0509202,11.748589 Z M107.480368,14.04 L107.52638,14.0123926 C108.750307,14.0123926 109.771779,13.6995092 110.6,13.0737423 C111.428221,12.4479755 111.943558,11.730184 112.155215,10.9111656 L109.836196,10.2669939 C109.725767,10.6811043 109.458896,11.04 109.02638,11.343681 C108.593865,11.647362 108.08773,11.7946012 107.498773,11.7946012 C106.734969,11.7946012 106.109202,11.5185276 105.621472,10.9571779 C105.133742,10.3958282 104.894479,9.73325153 104.894479,8.96944785 C104.894479,8.18723926 105.133742,7.52466258 105.61227,6.98171779 C106.090798,6.43877301 106.716564,6.16269939 107.480368,6.16269939 C108.078528,6.16269939 108.584663,6.3191411 109.007975,6.63202454 C109.431288,6.94490798 109.69816,7.31300613 109.808589,7.74552147 L112.127607,7.08294479 C111.915951,6.28233129 111.391411,5.56453988 110.553988,4.9203681 C109.716564,4.27619632 108.68589,3.95411043 107.461963,3.95411043 C106.017178,3.95411043 104.811656,4.43263804 103.854601,5.38969325 C102.897546,6.34674847 102.419018,7.54306748 102.419018,8.97865031 C102.419018,10.4142331 102.897546,11.6197546 103.854601,12.5860123 C104.811656,13.5522699 106.017178,14.04 107.480368,14.04 Z M117.713497,14.0123926 C118.919018,14.0123926 119.903681,13.7179141 120.676687,13.1289571 C121.449693,12.54 121.836196,11.7946012 121.836196,10.8927607 C121.836196,10.1105521 121.606135,9.53079755 121.13681,9.14429448 C120.667485,8.75779141 120.004908,8.43570552 119.14908,8.18723926 L116.774847,7.50625767 C116.250307,7.34981595 115.983436,7.10134969 115.983436,6.75165644 C115.983436,6.52159509 116.11227,6.3191411 116.379141,6.14429448 C116.646012,5.96944785 116.968098,5.88662577 117.345399,5.88662577 C118.284049,5.88662577 118.965031,6.25472393 119.379141,7.0001227 L121.58773,6.35595092 C121.284049,5.62895706 120.750307,5.04920245 119.995706,4.60748466 C119.241104,4.16576687 118.357669,3.94490798 117.354601,3.94490798 C116.296319,3.94490798 115.394479,4.2209816 114.64908,4.78233129 C113.903681,5.34368098 113.52638,6.01546012 113.52638,6.80687117 C113.52638,8.04920245 114.308589,8.89582822 115.882209,9.34674847 L118.311656,10.0645399 C119.020245,10.2761963 119.369939,10.5890798 119.369939,11.0031902 C119.369939,11.2792638 119.222699,11.5093252 118.928221,11.7025767 C118.633742,11.8958282 118.256442,11.9878528 117.787117,11.9878528 C117.170552,11.9878528 116.646012,11.8406135 116.204294,11.546135 C115.762577,11.2516564 115.458896,10.8743558 115.293252,10.4050307 L113.047853,11.0584049 C113.296319,11.8590184 113.848466,12.5492025 114.704294,13.1289571 C115.560123,13.7087117 116.553988,14.0031902 117.68589,14.0031902 L117.713497,14.0123926 Z" id="Docs" fill="#52B3AF"></path>
        </g>
    </g>
</svg>