<?xml version="1.0" encoding="utf-8"?>
<!-- Generator: Adobe Illustrator 16.0.4, SVG Export Plug-In . SVG Version: 6.00 Build 0)  -->
<!DOCTYPE svg PUBLIC "-//W3C//DTD SVG 1.1//EN" "http://www.w3.org/Graphics/SVG/1.1/DTD/svg11.dtd">
<svg version="1.1" id="Layer_1" xmlns="http://www.w3.org/2000/svg" xmlns:xlink="http://www.w3.org/1999/xlink" x="0px" y="0px"
	 width="452.664px" height="497px" viewBox="0 0 452.664 497" enable-background="new 0 0 452.664 497" xml:space="preserve">
<rect x="-6.168" y="-5" fill="#F5F6F6" width="464" height="506"/>
<g>
	<g>
		<polygon fill="#696C71" points="229.929,231.568 226.832,236.928 223.735,231.568 		"/>
		
			<line fill="none" stroke="#696C71" stroke-width="0.6735" stroke-miterlimit="10" x1="226.832" y1="233.045" x2="226.832" y2="155.471"/>
	</g>
	<g>
		<g>
			<path fill="#696C71" d="M238.234,205.999v-1.196h6.656v1.196h-2.652v6.786h-1.352v-6.786H238.234z"/>
			<path fill="#696C71" d="M249.259,204.802h1.301l3.067,7.982h-1.379l-0.817-2.21h-3.056l-0.818,2.21h-1.365L249.259,204.802z
				 M249.896,206.454l-1.092,2.951h2.185L249.896,206.454z"/>
			<path fill="#696C71" d="M256.772,204.802v7.982h-1.354v-7.982H256.772z"/>
			<path fill="#696C71" d="M265.613,204.802v7.982h-1.041l-4.082-5.811v5.811h-1.3v-7.982h1.273l3.849,5.538v-5.538H265.613z"/>
			<path fill="#696C71" d="M267.537,205.999v-1.196h6.655v1.196h-2.651v6.786h-1.353v-6.786H267.537z"/>
			<path fill="#696C71" d="M276.116,204.802h5.214v1.196h-3.888v2.106h3.521v1.183h-3.521v2.288h3.888v1.209h-5.214V204.802z"/>
			<path fill="#696C71" d="M283.447,212.785v-7.982h2.691c1.179,0,2.118,0.362,2.82,1.086s1.055,1.692,1.055,2.905
				c0,1.214-0.353,2.183-1.055,2.905c-0.702,0.725-1.643,1.086-2.82,1.086H283.447z M284.8,211.576h1.287
				c0.823,0,1.458-0.247,1.905-0.741c0.445-0.494,0.669-1.174,0.669-2.041c0-0.866-0.224-1.549-0.669-2.047
				c-0.447-0.499-1.082-0.748-1.905-0.748H284.8V211.576z"/>
			<path fill="#696C71" d="M295.524,212.785v-7.982h2.69c1.18,0,2.118,0.362,2.821,1.086c0.701,0.724,1.053,1.692,1.053,2.905
				c0,1.214-0.352,2.183-1.053,2.905c-0.703,0.725-1.643,1.086-2.821,1.086H295.524z M296.877,211.576h1.287
				c0.822,0,1.457-0.247,1.904-0.741c0.445-0.494,0.67-1.174,0.67-2.041c0-0.866-0.225-1.549-0.67-2.047
				c-0.447-0.499-1.082-0.748-1.904-0.748h-1.287V211.576z"/>
			<path fill="#696C71" d="M306.523,204.802h1.299l3.068,7.982h-1.378l-0.819-2.21h-3.055l-0.818,2.21h-1.365L306.523,204.802z
				 M307.16,206.454l-1.092,2.951h2.185L307.16,206.454z"/>
			<path fill="#696C71" d="M312.191,205.999v-1.196h6.655v1.196h-2.651v6.786h-1.353v-6.786H312.191z"/>
			<path fill="#696C71" d="M323.216,204.802h1.3l3.066,7.982h-1.377l-0.818-2.21h-3.057l-0.817,2.21h-1.365L323.216,204.802z
				 M323.852,206.454l-1.092,2.951h2.184L323.852,206.454z"/>
		</g>
	</g>
	<rect x="111.332" y="43" fill="#FFFFFF" width="230" height="131"/>
	<g>
		<rect x="128.332" y="74" fill="#F5F6F6" width="196" height="87"/>
		<rect x="128.332" y="57" fill="#F5F6F6" width="70" height="20"/>
		<g>
			<g>
				<g>
					<g>
						<path fill="#696C71" d="M153.487,89.353v7.982h-1.04l-4.082-5.811v5.811h-1.3v-7.982h1.273l3.849,5.538v-5.538H153.487z"/>
						<path fill="#696C71" d="M158.349,89.353h1.3l3.067,7.982h-1.378l-0.818-2.21h-3.056l-0.818,2.21h-1.365L158.349,89.353z
							 M158.986,91.004l-1.092,2.951h2.184L158.986,91.004z"/>
						<path fill="#696C71" d="M168.957,97.335h-0.962l-2.197-5.551v5.551h-1.286v-7.982h1.547l2.431,6.137l2.405-6.137h1.508v7.982
							h-1.3v-5.551L168.957,97.335z"/>
						<path fill="#696C71" d="M174.82,89.353h5.213v1.196h-3.887v2.106h3.522v1.183h-3.522v2.288h3.887v1.209h-5.213V89.353z"/>
					</g>
				</g>
				<g>
					<g>
						<path fill="#696C71" d="M149.821,113.353h1.3l3.068,7.982h-1.378l-0.819-2.21h-3.055l-0.819,2.21h-1.365L149.821,113.353z
							 M150.458,115.004l-1.092,2.951h2.184L150.458,115.004z"/>
						<path fill="#696C71" d="M161.417,118.371h-1.742v-1.157h3.029v0.624c0,1.092-0.317,1.97-0.956,2.633
							c-0.637,0.663-1.449,0.994-2.438,0.994c-1.083,0-1.98-0.384-2.691-1.15c-0.711-0.767-1.065-1.757-1.065-2.971
							c0-1.213,0.353-2.203,1.06-2.971c0.706-0.767,1.588-1.15,2.646-1.15c0.894,0,1.623,0.234,2.19,0.702
							c0.567,0.468,0.929,1.109,1.085,1.924h-1.352c-0.174-0.459-0.41-0.808-0.708-1.046c-0.298-0.238-0.704-0.357-1.215-0.357
							c-0.702,0-1.269,0.271-1.697,0.812c-0.43,0.541-0.645,1.237-0.645,2.086c0,0.858,0.218,1.562,0.65,2.106
							c0.433,0.546,1.014,0.818,1.742,0.818c0.589,0,1.065-0.171,1.43-0.513C161.104,119.413,161.33,118.952,161.417,118.371z"/>
						<path fill="#696C71" d="M164.692,113.353h5.213v1.196h-3.887v2.106h3.522v1.183h-3.522v2.288h3.887v1.209h-5.213V113.353z"/>
					</g>
				</g>
				<rect x="189" y="86.5" fill="none" stroke="#696C71" stroke-width="0.5" stroke-miterlimit="10" width="117" height="15"/>
				<rect x="189" y="110.5" fill="none" stroke="#696C71" stroke-width="0.5" stroke-miterlimit="10" width="117" height="15"/>
				<g>
					<rect x="188.832" y="133.5" fill="#696C71" stroke="#696C71" stroke-miterlimit="10" width="74" height="18"/>
					<g>
						<g>
							<path fill="#FFFFFF" d="M203.252,144.125h1.378c0.251,0.798,0.854,1.196,1.808,1.196c0.468,0,0.843-0.106,1.125-0.318
								c0.282-0.213,0.423-0.501,0.423-0.865c0-0.286-0.089-0.514-0.267-0.683c-0.179-0.169-0.476-0.301-0.892-0.396l-1.352-0.324
								c-1.326-0.312-1.989-1.027-1.989-2.146c0-0.685,0.253-1.25,0.76-1.696s1.159-0.67,1.957-0.67c0.841,0,1.52,0.197,2.035,0.592
								s0.847,0.934,0.995,1.618h-1.353c-0.251-0.71-0.806-1.065-1.664-1.065c-0.434,0-0.781,0.102-1.046,0.306
								c-0.265,0.203-0.396,0.47-0.396,0.799c0,0.529,0.351,0.876,1.053,1.04l1.391,0.325c0.65,0.147,1.157,0.407,1.521,0.78
								c0.364,0.372,0.546,0.85,0.546,1.43c0,0.737-0.265,1.324-0.793,1.762c-0.529,0.438-1.213,0.656-2.054,0.656
								c-0.85,0-1.559-0.206-2.125-0.617C203.745,145.436,203.391,144.861,203.252,144.125z"/>
							<path fill="#FFFFFF" d="M216.675,145.613c-0.576,0.568-1.354,0.852-2.333,0.852c-0.979,0-1.757-0.283-2.333-0.852
								c-0.576-0.567-0.864-1.389-0.864-2.463v-4.798h1.352v4.654c0,1.5,0.615,2.249,1.846,2.249s1.847-0.749,1.847-2.249v-4.654
								h1.352v4.811C217.54,144.229,217.251,145.046,216.675,145.613z"/>
							<path fill="#FFFFFF" d="M224.286,142.214c0.381,0.121,0.693,0.354,0.937,0.695c0.242,0.343,0.363,0.722,0.363,1.138
								c0,0.737-0.24,1.303-0.722,1.696c-0.481,0.395-1.142,0.592-1.982,0.592h-3.055v-7.982h2.795c0.85,0,1.512,0.187,1.989,0.56
								c0.477,0.373,0.715,0.91,0.715,1.612c0,0.416-0.097,0.775-0.292,1.078S224.59,142.11,224.286,142.214z M221.14,141.707h1.469
								c0.944,0,1.417-0.368,1.417-1.105c0-0.719-0.473-1.078-1.417-1.078h-1.469V141.707z M221.14,142.825v2.34h1.716
								c0.451,0,0.797-0.104,1.04-0.312c0.242-0.208,0.363-0.493,0.363-0.857c0-0.364-0.121-0.65-0.363-0.858
								c-0.243-0.208-0.589-0.312-1.04-0.312L221.14,142.825L221.14,142.825z"/>
							<path fill="#FFFFFF" d="M232.086,146.335h-0.961l-2.196-5.551v5.551h-1.288v-7.982h1.547l2.431,6.137l2.405-6.137h1.508
								v7.982h-1.3v-5.551L232.086,146.335z"/>
							<path fill="#FFFFFF" d="M239.301,138.353v7.982h-1.352v-7.982H239.301z"/>
							<path fill="#FFFFFF" d="M241.226,139.549v-1.196h6.654v1.196h-2.65v6.786h-1.354v-6.786H241.226z"/>
						</g>
					</g>
				</g>
			</g>
			<g>
				<path fill="#696C71" d="M148.157,73.492h-1.026V65.51h4.875v0.91h-3.849v2.691h3.614v0.91h-3.614V73.492z"/>
				<path fill="#696C71" d="M159.818,66.544c0.677,0.767,1.015,1.753,1.015,2.957c0,1.205-0.338,2.19-1.015,2.958
					c-0.676,0.767-1.542,1.15-2.601,1.15c-1.049,0-1.91-0.384-2.587-1.15c-0.676-0.768-1.014-1.753-1.014-2.958
					c0-1.204,0.338-2.19,1.014-2.957c0.677-0.768,1.538-1.15,2.587-1.15C158.276,65.394,159.142,65.776,159.818,66.544z
					 M159.09,71.796c0.478-0.594,0.716-1.358,0.716-2.295c0-0.936-0.238-1.7-0.716-2.294c-0.477-0.594-1.101-0.891-1.872-0.891
					c-0.763,0-1.383,0.297-1.858,0.891c-0.477,0.594-0.715,1.358-0.715,2.294c0,0.937,0.237,1.701,0.715,2.295
					c0.477,0.594,1.097,0.891,1.858,0.891C157.99,72.687,158.614,72.39,159.09,71.796z"/>
				<path fill="#696C71" d="M165.356,70.112h-1.417v3.38h-1.026V65.51h2.964c0.814,0,1.454,0.2,1.917,0.599
					c0.464,0.398,0.696,0.971,0.696,1.716c0,0.65-0.178,1.166-0.533,1.547c-0.354,0.382-0.854,0.615-1.495,0.702l2.354,3.419h-1.17
					L165.356,70.112z M163.939,66.407v2.834h1.911c0.521,0,0.921-0.126,1.203-0.377c0.28-0.251,0.422-0.598,0.422-1.04
					c0-0.442-0.142-0.788-0.422-1.04c-0.282-0.251-0.684-0.377-1.203-0.377H163.939z"/>
				<path fill="#696C71" d="M174.937,73.492h-0.702l-2.522-6.084v6.084h-0.975V65.51h1.157l2.703,6.553l2.69-6.553h1.118v7.982
					h-0.976v-6.084L174.937,73.492z"/>
			</g>
		</g>
	</g>
	<rect x="133.332" y="397" fill="#FFFFFF" width="186" height="44"/>
	<g>
		<polygon fill="#696C71" points="230.929,382.568 227.832,387.928 224.735,382.568 		"/>
		
			<line fill="none" stroke="#696C71" stroke-width="0.6735" stroke-miterlimit="10" x1="227.832" y1="384.045" x2="227.832" y2="306.471"/>
	</g>
	<g>
		<g>
			<path fill="#696C71" d="M241.81,360.809h-1.729v2.978h-1.352v-7.981h3.081c0.841,0,1.506,0.217,1.995,0.649
				c0.489,0.435,0.733,1.053,0.733,1.858c0,0.797-0.244,1.412-0.733,1.847C243.315,360.592,242.65,360.809,241.81,360.809z
				 M243.201,358.312c0-0.408-0.122-0.732-0.364-0.977c-0.242-0.242-0.594-0.363-1.054-0.363h-1.703v2.664h1.703
				c0.451,0,0.8-0.121,1.047-0.363S243.201,358.711,243.201,358.312z"/>
			<path fill="#696C71" d="M252.365,356.837c0.693,0.774,1.041,1.763,1.041,2.957c0,1.196-0.348,2.183-1.041,2.958
				s-1.577,1.163-2.652,1.163c-1.073,0-1.955-0.388-2.645-1.163c-0.69-0.775-1.033-1.762-1.033-2.958
				c0-1.194,0.344-2.183,1.033-2.957c0.688-0.774,1.57-1.164,2.645-1.164C250.788,355.673,251.672,356.062,252.365,356.837z
				 M251.396,361.887c0.43-0.546,0.645-1.242,0.645-2.093c0-0.849-0.215-1.547-0.645-2.093c-0.429-0.546-0.99-0.819-1.685-0.819
				c-0.693,0-1.252,0.271-1.676,0.812c-0.426,0.543-0.638,1.242-0.638,2.101s0.212,1.56,0.638,2.101
				c0.424,0.541,0.982,0.812,1.676,0.812C250.406,362.706,250.969,362.434,251.396,361.887z"/>
			<path fill="#696C71" d="M254.771,361.575h1.378c0.252,0.798,0.854,1.196,1.807,1.196c0.469,0,0.844-0.106,1.125-0.318
				c0.281-0.213,0.423-0.501,0.423-0.865c0-0.285-0.089-0.514-0.267-0.683s-0.475-0.302-0.891-0.396l-1.353-0.323
				c-1.326-0.312-1.989-1.027-1.989-2.146c0-0.686,0.253-1.25,0.762-1.696c0.507-0.446,1.157-0.67,1.956-0.67
				c0.841,0,1.519,0.197,2.033,0.593c0.516,0.395,0.849,0.934,0.995,1.617h-1.353c-0.251-0.71-0.807-1.064-1.664-1.064
				c-0.435,0-0.781,0.102-1.046,0.306c-0.266,0.203-0.397,0.47-0.397,0.799c0,0.529,0.353,0.876,1.055,1.04l1.392,0.325
				c0.649,0.147,1.156,0.407,1.521,0.78c0.364,0.371,0.547,0.85,0.547,1.43c0,0.736-0.266,1.324-0.793,1.762
				c-0.529,0.438-1.214,0.656-2.056,0.656c-0.849,0-1.557-0.206-2.125-0.617C255.263,362.886,254.909,362.312,254.771,361.575z"/>
			<path fill="#696C71" d="M262.298,356.999v-1.196h6.655v1.196h-2.65v6.786h-1.354v-6.786H262.298z"/>
			<path fill="#696C71" d="M274.85,363.174c-0.629-0.857-0.943-1.88-0.943-3.066c0-1.188,0.314-2.211,0.943-3.068
				c0.628-0.857,1.475-1.426,2.541-1.703v1.404c-0.65,0.156-1.18,0.537-1.586,1.144c-0.408,0.607-0.611,1.349-0.611,2.224
				s0.203,1.617,0.611,2.224c0.406,0.606,0.936,0.987,1.586,1.146v1.402C276.324,364.6,275.478,364.032,274.85,363.174z"/>
			<path fill="#696C71" d="M283.631,363.785h-0.963l-2.196-5.551v5.551h-1.287v-7.982h1.548l2.431,6.137l2.405-6.137h1.508v7.982
				h-1.3v-5.551L283.631,363.785z"/>
			<path fill="#696C71" d="M289.493,355.803h5.214v1.196h-3.888v2.106h3.521v1.183h-3.521v2.288h3.888v1.209h-5.214V355.803z"/>
			<path fill="#696C71" d="M296.201,361.575h1.378c0.251,0.798,0.854,1.196,1.808,1.196c0.468,0,0.843-0.106,1.123-0.318
				c0.282-0.213,0.425-0.501,0.425-0.865c0-0.285-0.09-0.514-0.269-0.683c-0.178-0.169-0.475-0.302-0.891-0.396l-1.353-0.323
				c-1.325-0.312-1.987-1.027-1.987-2.146c0-0.686,0.253-1.25,0.76-1.696c0.508-0.446,1.159-0.67,1.957-0.67
				c0.84,0,1.519,0.197,2.034,0.593c0.515,0.395,0.847,0.934,0.995,1.617h-1.354c-0.251-0.71-0.806-1.064-1.664-1.064
				c-0.434,0-0.782,0.102-1.046,0.306c-0.266,0.203-0.396,0.47-0.396,0.799c0,0.529,0.351,0.876,1.054,1.04l1.391,0.325
				c0.65,0.147,1.156,0.407,1.521,0.78c0.362,0.371,0.545,0.85,0.545,1.43c0,0.736-0.265,1.324-0.793,1.762
				c-0.528,0.438-1.213,0.656-2.054,0.656c-0.85,0-1.559-0.206-2.127-0.617C296.693,362.886,296.34,362.312,296.201,361.575z"/>
			<path fill="#696C71" d="M303.598,361.575h1.379c0.25,0.798,0.854,1.196,1.807,1.196c0.468,0,0.842-0.106,1.124-0.318
				c0.282-0.213,0.423-0.501,0.423-0.865c0-0.285-0.09-0.514-0.267-0.683c-0.178-0.169-0.476-0.302-0.892-0.396l-1.353-0.323
				c-1.325-0.312-1.988-1.027-1.988-2.146c0-0.686,0.254-1.25,0.76-1.696c0.509-0.446,1.16-0.67,1.957-0.67
				c0.842,0,1.521,0.197,2.036,0.593c0.515,0.395,0.847,0.934,0.993,1.617h-1.352c-0.252-0.71-0.808-1.064-1.664-1.064
				c-0.435,0-0.783,0.102-1.047,0.306c-0.266,0.203-0.396,0.47-0.396,0.799c0,0.529,0.352,0.876,1.053,1.04l1.392,0.325
				c0.65,0.147,1.157,0.407,1.521,0.78c0.362,0.371,0.546,0.85,0.546,1.43c0,0.736-0.266,1.324-0.793,1.762
				c-0.528,0.438-1.215,0.656-2.055,0.656c-0.85,0-1.559-0.206-2.126-0.617C304.09,362.886,303.736,362.312,303.598,361.575z"/>
			<path fill="#696C71" d="M314.062,355.803h1.301l3.067,7.982h-1.378l-0.818-2.21h-3.056l-0.819,2.21h-1.365L314.062,355.803z
				 M314.699,357.454l-1.092,2.95h2.185L314.699,357.454z"/>
			<path fill="#696C71" d="M325.658,360.82h-1.741v-1.156h3.028v0.624c0,1.092-0.317,1.97-0.955,2.633
				c-0.637,0.663-1.448,0.994-2.438,0.994c-1.084,0-1.98-0.384-2.691-1.149c-0.711-0.767-1.064-1.758-1.064-2.972
				c0-1.213,0.353-2.203,1.06-2.972c0.706-0.766,1.588-1.149,2.646-1.149c0.893,0,1.621,0.234,2.189,0.702
				c0.567,0.468,0.93,1.109,1.086,1.924h-1.353c-0.173-0.459-0.409-0.808-0.708-1.046c-0.299-0.237-0.705-0.356-1.216-0.356
				c-0.702,0-1.269,0.271-1.696,0.812c-0.43,0.541-0.646,1.237-0.646,2.086c0,0.858,0.218,1.562,0.65,2.106s1.014,0.817,1.742,0.817
				c0.59,0,1.065-0.171,1.43-0.513C325.347,361.863,325.572,361.402,325.658,360.82z"/>
			<path fill="#696C71" d="M328.935,355.803h5.214v1.196h-3.888v2.106h3.521v1.183h-3.521v2.288h3.888v1.209h-5.214V355.803z"/>
			<path fill="#696C71" d="M338.184,357.038c0.629,0.858,0.943,1.881,0.943,3.067c0,1.188-0.314,2.211-0.943,3.067
				c-0.628,0.858-1.475,1.427-2.541,1.703v-1.403c0.65-0.156,1.179-0.537,1.586-1.145c0.408-0.605,0.611-1.348,0.611-2.223
				c0-0.877-0.203-1.617-0.611-2.225c-0.407-0.605-0.936-0.986-1.586-1.145v-1.403C336.71,355.611,337.556,356.18,338.184,357.038z"
				/>
		</g>
	</g>
	<rect x="7.332" y="246" fill="#FFFFFF" width="438" height="78"/>
	<g>
		<path fill="#0071BC" d="M18.317,273.967v-0.846c0.508,0.15,0.936,0.225,1.284,0.225c0.303,0,0.56-0.053,0.771-0.158
			c0.211-0.104,0.377-0.282,0.496-0.535c0.119-0.25,0.178-0.686,0.178-1.309v-4.209h-2.313v-0.756h3.223v4.791
			c0,0.924-0.108,1.566-0.327,1.926c-0.218,0.36-0.481,0.617-0.791,0.773c-0.309,0.156-0.731,0.234-1.27,0.234
			C19.18,274.104,18.763,274.059,18.317,273.967z M20.9,264.408c0-0.205,0.069-0.357,0.208-0.457c0.138-0.102,0.271-0.15,0.397-0.15
			s0.261,0.049,0.398,0.15c0.138,0.1,0.208,0.252,0.208,0.457c0,0.201-0.069,0.352-0.208,0.453c-0.138,0.1-0.271,0.149-0.398,0.149
			s-0.26-0.051-0.397-0.149C20.969,264.76,20.9,264.609,20.9,264.408z"/>
		<path fill="#0071BC" d="M24.798,271.545v-0.963c0.365,0.238,0.75,0.404,1.157,0.5c0.407,0.098,0.752,0.145,1.035,0.145
			c0.459,0,0.79-0.074,0.991-0.223c0.202-0.146,0.303-0.332,0.303-0.553c0-0.146-0.047-0.271-0.142-0.377
			c-0.095-0.104-0.329-0.232-0.703-0.385l-0.312-0.127l-0.63-0.25c-0.677-0.265-1.104-0.509-1.279-0.732
			c-0.179-0.221-0.269-0.49-0.269-0.811c0-0.449,0.173-0.818,0.521-1.107c0.347-0.291,0.909-0.436,1.688-0.436
			c0.583,0,1.136,0.086,1.657,0.254v0.825c-0.601-0.215-1.164-0.321-1.692-0.321c-0.385,0-0.686,0.065-0.901,0.201
			c-0.218,0.137-0.325,0.305-0.325,0.506c0,0.194,0.094,0.352,0.283,0.469c0.186,0.117,0.487,0.252,0.908,0.406l0.616,0.225
			c0.564,0.205,0.959,0.428,1.187,0.668c0.228,0.242,0.341,0.543,0.341,0.904c0,0.471-0.183,0.858-0.544,1.164
			c-0.362,0.305-0.943,0.457-1.741,0.457C26.25,271.984,25.534,271.838,24.798,271.545z"/>
		<path fill="#0071BC" d="M33.479,271.984c-0.78,0-1.405-0.273-1.873-0.818s-0.703-1.232-0.703-2.062s0.234-1.518,0.703-2.061
			c0.468-0.545,1.093-0.816,1.873-0.816c0.776,0,1.399,0.271,1.868,0.816c0.468,0.543,0.702,1.23,0.702,2.061
			c0,0.832-0.233,1.519-0.702,2.062C34.878,271.71,34.257,271.984,33.479,271.984z M33.479,271.227c0.483,0,0.869-0.188,1.154-0.565
			c0.286-0.377,0.43-0.896,0.43-1.558c0-0.658-0.144-1.176-0.43-1.553c-0.285-0.379-0.671-0.566-1.154-0.566
			c-0.487,0-0.875,0.188-1.16,0.566c-0.286,0.377-0.429,0.895-0.429,1.553c0,0.66,0.143,1.181,0.429,1.558
			C32.605,271.039,32.992,271.227,33.479,271.227z"/>
		<path fill="#0071BC" d="M37.737,271.832v-5.453h0.908v1.191c0.26-0.42,0.575-0.75,0.941-0.986
			c0.368-0.238,0.736-0.357,1.104-0.357c0.322,0,0.615,0.086,0.879,0.256c0.264,0.173,0.448,0.396,0.554,0.673
			c0.106,0.276,0.159,0.819,0.159,1.631v3.047h-0.908v-3.158c0-0.524-0.024-0.87-0.076-1.038c-0.05-0.166-0.143-0.306-0.277-0.412
			c-0.135-0.107-0.282-0.16-0.442-0.16c-0.319,0-0.662,0.149-1.028,0.453c-0.365,0.303-0.668,0.682-0.905,1.139v3.178h-0.908
			V271.832z"/>
		<path fill="#666666" d="M50.329,271.832v-5.453h0.796v1.25c0.25-0.531,0.484-0.896,0.701-1.1c0.216-0.201,0.437-0.303,0.657-0.303
			c0.264,0,0.476,0.104,0.637,0.311s0.242,0.5,0.242,0.881v0.293c0.107-0.332,0.237-0.602,0.388-0.809
			c0.151-0.205,0.31-0.371,0.472-0.492c0.162-0.123,0.35-0.184,0.562-0.184c0.234,0,0.435,0.1,0.601,0.299
			c0.166,0.197,0.249,0.594,0.249,1.186v4.121h-0.796v-3.725c0-0.308-0.01-0.517-0.028-0.629c-0.021-0.111-0.06-0.197-0.117-0.256
			c-0.059-0.06-0.122-0.089-0.19-0.089c-0.169,0-0.351,0.13-0.544,0.39c-0.193,0.258-0.392,0.688-0.593,1.287v3.021h-0.757v-3.722
			c0-0.479-0.047-0.764-0.143-0.85c-0.095-0.084-0.18-0.127-0.255-0.127c-0.167,0-0.345,0.145-0.536,0.436
			c-0.19,0.289-0.374,0.66-0.546,1.113v3.148h-0.799V271.832z"/>
		<path fill="#666666" d="M61.776,271.469c-0.727,0.344-1.413,0.516-2.062,0.516c-0.491,0-0.931-0.123-1.317-0.366
			c-0.388-0.242-0.697-0.593-0.931-1.045c-0.232-0.455-0.349-0.939-0.349-1.457c0-0.498,0.111-0.978,0.332-1.435
			c0.221-0.459,0.531-0.815,0.928-1.072c0.397-0.254,0.84-0.383,1.328-0.383c0.648,0,1.168,0.23,1.561,0.693
			c0.392,0.461,0.588,1.172,0.588,2.135v0.195h-3.76c0,0.379,0.078,0.725,0.236,1.037s0.365,0.549,0.623,0.705
			s0.55,0.234,0.879,0.234c0.586,0,1.234-0.195,1.943-0.586V271.469z M58.148,268.57h2.72v-0.131c0-0.445-0.109-0.799-0.327-1.062
			c-0.218-0.264-0.509-0.396-0.874-0.396c-0.368,0-0.686,0.134-0.955,0.4C58.443,267.65,58.255,268.049,58.148,268.57z"/>
		<path fill="#666666" d="M63.804,271.545v-0.963c0.364,0.238,0.75,0.404,1.156,0.5c0.407,0.098,0.752,0.145,1.035,0.145
			c0.459,0,0.79-0.074,0.991-0.223c0.202-0.146,0.303-0.332,0.303-0.553c0-0.146-0.047-0.271-0.142-0.377
			c-0.094-0.104-0.329-0.232-0.703-0.385l-0.312-0.127l-0.63-0.25c-0.677-0.265-1.104-0.509-1.278-0.732
			c-0.18-0.221-0.27-0.49-0.27-0.811c0-0.449,0.173-0.818,0.521-1.107c0.347-0.291,0.91-0.436,1.688-0.436
			c0.583,0,1.136,0.086,1.657,0.254v0.825c-0.6-0.215-1.164-0.321-1.692-0.321c-0.385,0-0.686,0.065-0.901,0.201
			c-0.217,0.137-0.325,0.305-0.325,0.506c0,0.194,0.094,0.352,0.283,0.469c0.186,0.117,0.487,0.252,0.909,0.406l0.615,0.225
			c0.564,0.205,0.959,0.428,1.187,0.668c0.228,0.242,0.341,0.543,0.341,0.904c0,0.471-0.182,0.858-0.544,1.164
			c-0.362,0.305-0.943,0.457-1.741,0.457C65.256,271.984,64.54,271.838,63.804,271.545z"/>
		<path fill="#666666" d="M70.305,271.545v-0.963c0.364,0.238,0.75,0.404,1.156,0.5c0.407,0.098,0.752,0.145,1.035,0.145
			c0.459,0,0.79-0.074,0.991-0.223c0.202-0.146,0.303-0.332,0.303-0.553c0-0.146-0.047-0.271-0.142-0.377
			c-0.094-0.104-0.329-0.232-0.703-0.385l-0.312-0.127l-0.63-0.25c-0.677-0.265-1.104-0.509-1.278-0.732
			c-0.18-0.221-0.27-0.49-0.27-0.811c0-0.449,0.173-0.818,0.521-1.107c0.347-0.291,0.91-0.436,1.688-0.436
			c0.583,0,1.137,0.086,1.657,0.254v0.825c-0.6-0.215-1.164-0.321-1.692-0.321c-0.385,0-0.686,0.065-0.901,0.201
			c-0.217,0.137-0.325,0.305-0.325,0.506c0,0.194,0.094,0.352,0.283,0.469c0.186,0.117,0.487,0.252,0.909,0.406l0.615,0.225
			c0.564,0.205,0.959,0.428,1.187,0.668c0.228,0.242,0.341,0.543,0.341,0.904c0,0.471-0.182,0.858-0.544,1.164
			c-0.362,0.305-0.943,0.457-1.741,0.457C71.757,271.984,71.041,271.838,70.305,271.545z"/>
		<path fill="#666666" d="M80.328,270.613c-0.275,0.453-0.608,0.795-0.999,1.025c-0.39,0.229-0.747,0.346-1.072,0.346
			c-0.456,0-0.864-0.197-1.229-0.592c-0.363-0.394-0.544-0.99-0.544-1.791c0-0.634,0.121-1.195,0.362-1.693
			c0.24-0.496,0.562-0.889,0.968-1.176c0.403-0.289,0.903-0.433,1.501-0.433c0.172,0,0.433,0.019,0.78,0.054
			c0.052,0.008,0.13,0.016,0.233,0.024h0.911v3.853c0,0.658,0.07,1.19,0.21,1.602h-0.947
			C80.429,271.535,80.371,271.127,80.328,270.613z M80.332,269.525v-2.342c-0.323-0.084-0.623-0.127-0.899-0.127
			c-0.562,0-1.028,0.217-1.401,0.649s-0.56,1.022-0.56,1.771c0,0.541,0.102,0.948,0.306,1.225c0.204,0.275,0.436,0.414,0.697,0.414
			c0.283,0,0.597-0.146,0.938-0.432C79.754,270.398,80.061,270.012,80.332,269.525z"/>
		<path fill="#666666" d="M86.891,270.605c-0.277,0.457-0.61,0.801-1,1.03c-0.39,0.232-0.747,0.349-1.073,0.349
			c-0.457,0-0.866-0.197-1.23-0.592c-0.362-0.394-0.545-0.99-0.545-1.791c0-0.634,0.121-1.195,0.362-1.693
			c0.241-0.496,0.562-0.889,0.968-1.176c0.404-0.289,0.904-0.433,1.501-0.433c0.172,0,0.434,0.019,0.78,0.054
			c0.052,0.008,0.13,0.016,0.234,0.024h0.91v3.856c0,0.918-0.012,1.479-0.035,1.683s-0.062,0.41-0.116,0.617
			c-0.13,0.485-0.427,0.866-0.893,1.147c-0.464,0.279-1.025,0.42-1.684,0.42c-0.661,0-1.331-0.17-2.009-0.508v-0.918
			c0.257,0.176,0.574,0.33,0.951,0.465c0.376,0.138,0.74,0.203,1.093,0.203c0.276,0,0.54-0.043,0.787-0.131
			c0.248-0.088,0.447-0.215,0.602-0.381s0.257-0.359,0.313-0.58c0.055-0.219,0.083-0.512,0.083-0.875V270.605z M86.891,269.525
			v-2.342c-0.323-0.084-0.623-0.127-0.9-0.127c-0.561,0-1.028,0.217-1.401,0.649s-0.56,1.022-0.56,1.771
			c0,0.541,0.102,0.948,0.306,1.225c0.204,0.275,0.437,0.414,0.697,0.414c0.284,0,0.597-0.146,0.939-0.432
			C86.314,270.398,86.621,270.012,86.891,269.525z"/>
		<path fill="#666666" d="M94.281,271.469c-0.726,0.344-1.413,0.516-2.061,0.516c-0.492,0-0.932-0.123-1.318-0.366
			c-0.387-0.242-0.697-0.593-0.93-1.045c-0.233-0.455-0.35-0.939-0.35-1.457c0-0.498,0.111-0.978,0.332-1.435
			c0.221-0.459,0.531-0.815,0.928-1.072c0.397-0.254,0.841-0.383,1.328-0.383c0.648,0,1.168,0.23,1.561,0.693
			c0.392,0.461,0.588,1.172,0.588,2.135v0.195h-3.76c0,0.379,0.079,0.725,0.236,1.037c0.158,0.312,0.365,0.549,0.623,0.705
			s0.55,0.234,0.879,0.234c0.586,0,1.234-0.195,1.943-0.586V271.469z M90.653,268.57h2.72v-0.131c0-0.445-0.108-0.799-0.327-1.062
			c-0.218-0.264-0.509-0.396-0.874-0.396c-0.367,0-0.686,0.134-0.955,0.4C90.948,267.65,90.76,268.049,90.653,268.57z"/>
		<path fill="#666666" d="M114.14,267.971v0.756h-5.304v-0.756H114.14z M114.14,269.674v0.758h-5.304v-0.758H114.14z"/>
		<path fill="#0071BC" d="M126.839,271.676c-0.608,0.205-1.188,0.309-1.737,0.309c-0.547,0-1.033-0.127-1.458-0.379
			c-0.426-0.252-0.756-0.594-0.994-1.024s-0.356-0.922-0.356-1.474c0-0.825,0.271-1.514,0.809-2.061s1.188-0.82,1.95-0.82
			c0.563,0,1.159,0.105,1.787,0.318v0.873c-0.635-0.289-1.202-0.434-1.704-0.434c-0.331,0-0.645,0.082-0.938,0.246
			s-0.519,0.42-0.679,0.77c-0.16,0.348-0.239,0.705-0.239,1.074c0,0.49,0.154,0.959,0.461,1.406c0.308,0.444,0.79,0.668,1.448,0.668
			c0.199,0,0.394-0.015,0.586-0.041c0.191-0.027,0.547-0.129,1.063-0.306L126.839,271.676L126.839,271.676z"/>
		<path fill="#0071BC" d="M128.75,271.832v-7.881h0.908v3.619c0.26-0.42,0.575-0.75,0.942-0.986
			c0.367-0.238,0.735-0.357,1.104-0.357c0.31,0,0.592,0.08,0.847,0.236c0.256,0.158,0.435,0.35,0.535,0.574
			c0.082,0.174,0.138,0.355,0.166,0.549c0.029,0.195,0.044,0.594,0.044,1.199v3.047h-0.907v-3.158c0-0.525-0.025-0.871-0.076-1.039
			c-0.05-0.166-0.144-0.305-0.278-0.412c-0.135-0.106-0.282-0.16-0.442-0.16c-0.318,0-0.661,0.15-1.027,0.453
			s-0.668,0.683-0.906,1.14v3.178L128.75,271.832L128.75,271.832z"/>
		<path fill="#0071BC" d="M139.788,271.469c-0.726,0.344-1.413,0.516-2.061,0.516c-0.492,0-0.932-0.123-1.318-0.366
			c-0.387-0.242-0.697-0.593-0.93-1.045c-0.233-0.455-0.35-0.939-0.35-1.457c0-0.498,0.111-0.978,0.332-1.435
			c0.222-0.459,0.531-0.815,0.929-1.072c0.396-0.254,0.84-0.383,1.327-0.383c0.648,0,1.169,0.23,1.561,0.693
			c0.392,0.461,0.588,1.172,0.588,2.135v0.195h-3.76c0,0.379,0.079,0.725,0.236,1.037c0.158,0.312,0.365,0.549,0.623,0.705
			c0.259,0.156,0.551,0.234,0.88,0.234c0.586,0,1.233-0.195,1.942-0.586V271.469z M136.16,268.57h2.72v-0.131
			c0-0.445-0.108-0.799-0.326-1.062c-0.219-0.264-0.51-0.396-0.874-0.396c-0.368,0-0.687,0.134-0.955,0.4
			C136.455,267.65,136.267,268.049,136.16,268.57z"/>
		<path fill="#0071BC" d="M146.342,271.676c-0.608,0.205-1.188,0.309-1.737,0.309c-0.547,0-1.033-0.127-1.458-0.379
			s-0.756-0.594-0.994-1.024s-0.356-0.922-0.356-1.474c0-0.825,0.271-1.514,0.809-2.061s1.188-0.82,1.951-0.82
			c0.562,0,1.158,0.105,1.786,0.318v0.873c-0.635-0.289-1.202-0.434-1.703-0.434c-0.332,0-0.646,0.082-0.938,0.246
			s-0.519,0.42-0.679,0.77c-0.16,0.348-0.239,0.705-0.239,1.074c0,0.49,0.154,0.959,0.461,1.406c0.308,0.444,0.79,0.668,1.448,0.668
			c0.199,0,0.394-0.015,0.586-0.041c0.192-0.027,0.547-0.129,1.063-0.306L146.342,271.676L146.342,271.676z"/>
		<path fill="#0071BC" d="M148.498,271.832v-7.881h0.908v4.951l2.622-2.523h1.202l-2.598,2.5l2.675,2.953h-1.25l-2.651-2.93v2.93
			H148.498L148.498,271.832z"/>
		<path fill="#666666" d="M161.719,271.832v-5.453h0.907v1.191c0.283-0.449,0.608-0.785,0.975-1.01
			c0.365-0.224,0.773-0.334,1.223-0.334c0.329,0,0.658,0.051,0.986,0.151v1.967h-0.874v-1.243c-0.153-0.027-0.273-0.039-0.361-0.039
			c-0.338,0-0.67,0.133-0.996,0.399s-0.643,0.666-0.952,1.201v3.168L161.719,271.832L161.719,271.832z"/>
		<path fill="#666666" d="M172.292,271.469c-0.726,0.344-1.413,0.516-2.061,0.516c-0.492,0-0.932-0.123-1.318-0.366
			c-0.387-0.242-0.697-0.593-0.93-1.045c-0.233-0.455-0.35-0.939-0.35-1.457c0-0.498,0.111-0.978,0.332-1.435
			c0.222-0.459,0.531-0.815,0.929-1.072c0.396-0.254,0.84-0.383,1.328-0.383c0.647,0,1.168,0.23,1.56,0.693
			c0.392,0.461,0.588,1.172,0.588,2.135v0.195h-3.76c0,0.379,0.079,0.725,0.237,1.037c0.157,0.312,0.364,0.549,0.623,0.705
			c0.258,0.156,0.55,0.234,0.879,0.234c0.586,0,1.233-0.195,1.942-0.586V271.469z M168.665,268.57h2.72v-0.131
			c0-0.445-0.108-0.799-0.326-1.062c-0.219-0.264-0.51-0.396-0.874-0.396c-0.368,0-0.687,0.134-0.955,0.4
			C168.96,267.65,168.772,268.049,168.665,268.57z"/>
		<path fill="#666666" d="M177.905,270.605c-0.277,0.457-0.61,0.801-1,1.03c-0.389,0.232-0.747,0.349-1.073,0.349
			c-0.457,0-0.866-0.197-1.229-0.592c-0.363-0.394-0.545-0.99-0.545-1.791c0-0.634,0.121-1.195,0.361-1.693
			c0.241-0.496,0.563-0.889,0.969-1.176c0.403-0.289,0.903-0.433,1.501-0.433c0.172,0,0.433,0.019,0.779,0.054
			c0.053,0.008,0.13,0.016,0.234,0.024h0.911v7.572h-0.908V270.605z M177.905,269.525v-2.342c-0.323-0.084-0.623-0.127-0.9-0.127
			c-0.561,0-1.027,0.217-1.4,0.649s-0.561,1.022-0.561,1.771c0,0.541,0.103,0.948,0.307,1.225c0.204,0.275,0.436,0.414,0.696,0.414
			c0.284,0,0.598-0.146,0.939-0.432C177.328,270.398,177.634,270.012,177.905,269.525z"/>
		<path fill="#666666" d="M183,272.062c-0.218,0-0.404-0.078-0.562-0.234s-0.234-0.344-0.234-0.562c0-0.221,0.079-0.408,0.237-0.563
			c0.158-0.154,0.344-0.229,0.559-0.229s0.401,0.075,0.56,0.229c0.157,0.155,0.236,0.344,0.236,0.563
			c0,0.219-0.077,0.406-0.233,0.562S183.218,272.062,183,272.062z"/>
		<path fill="#666666" d="M190.907,270.605c-0.277,0.457-0.61,0.801-1,1.03c-0.389,0.232-0.747,0.349-1.073,0.349
			c-0.457,0-0.866-0.197-1.229-0.592c-0.363-0.394-0.545-0.99-0.545-1.791c0-0.634,0.121-1.195,0.361-1.693
			c0.241-0.496,0.563-0.889,0.969-1.176c0.403-0.289,0.903-0.433,1.501-0.433c0.172,0,0.433,0.019,0.779,0.054
			c0.053,0.008,0.13,0.016,0.234,0.024h0.911v3.856c0,0.918-0.012,1.479-0.036,1.683c-0.023,0.203-0.062,0.41-0.116,0.617
			c-0.13,0.485-0.427,0.866-0.892,1.147c-0.464,0.279-1.026,0.42-1.685,0.42c-0.661,0-1.331-0.17-2.009-0.508v-0.918
			c0.257,0.176,0.574,0.33,0.951,0.465c0.376,0.138,0.741,0.203,1.093,0.203c0.277,0,0.54-0.043,0.787-0.131
			c0.248-0.088,0.448-0.215,0.603-0.381c0.153-0.166,0.257-0.359,0.312-0.58c0.055-0.219,0.083-0.512,0.083-0.875V270.605
			L190.907,270.605z M190.907,269.525v-2.342c-0.323-0.084-0.623-0.127-0.9-0.127c-0.561,0-1.027,0.217-1.4,0.649
			s-0.561,1.022-0.561,1.771c0,0.541,0.103,0.948,0.307,1.225c0.204,0.275,0.436,0.414,0.696,0.414c0.284,0,0.598-0.146,0.939-0.432
			C190.33,270.398,190.636,270.012,190.907,269.525z"/>
		<path fill="#666666" d="M198.296,271.469c-0.726,0.344-1.413,0.516-2.061,0.516c-0.492,0-0.931-0.123-1.318-0.366
			c-0.387-0.242-0.696-0.593-0.93-1.045c-0.233-0.455-0.349-0.939-0.349-1.457c0-0.498,0.11-0.978,0.332-1.435
			c0.221-0.459,0.53-0.815,0.928-1.072c0.396-0.254,0.84-0.383,1.328-0.383c0.647,0,1.168,0.23,1.56,0.693
			c0.393,0.461,0.588,1.172,0.588,2.135v0.195h-3.76c0,0.379,0.079,0.725,0.237,1.037c0.157,0.312,0.364,0.549,0.623,0.705
			c0.258,0.156,0.55,0.234,0.879,0.234c0.586,0,1.233-0.195,1.942-0.586V271.469z M194.668,268.57h2.721v-0.131
			c0-0.445-0.109-0.799-0.327-1.062c-0.219-0.264-0.509-0.396-0.874-0.396c-0.368,0-0.687,0.134-0.955,0.4
			C194.963,267.65,194.776,268.049,194.668,268.57z"/>
		<path fill="#666666" d="M204.822,271.613c-0.426,0.178-0.736,0.285-0.928,0.318c-0.192,0.034-0.377,0.053-0.558,0.053
			c-0.381,0-0.729-0.074-1.045-0.221c-0.315-0.147-0.554-0.363-0.715-0.648c-0.161-0.287-0.242-0.73-0.242-1.328v-2.197h-1.361
			v-0.758h1.361v-2.197h0.908v2.197h2.427v0.758h-2.427v2.182c0,0.439,0.052,0.75,0.156,0.931c0.104,0.182,0.243,0.313,0.417,0.397
			c0.174,0.086,0.38,0.127,0.618,0.127c0.438,0,0.901-0.139,1.387-0.414L204.822,271.613L204.822,271.613z"/>
		<path fill="#666666" d="M206.542,271.67v-0.928c0.709,0.375,1.305,0.562,1.782,0.562c0.25,0,0.479-0.05,0.687-0.146
			c0.206-0.098,0.37-0.262,0.492-0.492c0.122-0.229,0.184-0.721,0.184-1.473v-4.183h-1.704v-0.758h2.689v4.961
			c0,0.81-0.092,1.39-0.275,1.744c-0.185,0.354-0.442,0.627-0.774,0.815c-0.332,0.191-0.757,0.287-1.273,0.287
			C207.77,272.062,207.167,271.932,206.542,271.67z"/>
		<path fill="#666666" d="M213.327,271.545v-0.963c0.365,0.238,0.75,0.404,1.157,0.5c0.407,0.098,0.752,0.145,1.035,0.145
			c0.459,0,0.79-0.074,0.99-0.223c0.202-0.146,0.304-0.332,0.304-0.553c0-0.146-0.047-0.271-0.143-0.377
			c-0.094-0.104-0.329-0.232-0.703-0.385l-0.312-0.127l-0.63-0.25c-0.677-0.265-1.104-0.509-1.279-0.732
			c-0.179-0.221-0.269-0.49-0.269-0.811c0-0.449,0.173-0.818,0.521-1.107c0.348-0.291,0.91-0.436,1.689-0.436
			c0.583,0,1.136,0.086,1.657,0.254v0.825c-0.601-0.215-1.164-0.321-1.692-0.321c-0.385,0-0.687,0.065-0.902,0.201
			c-0.217,0.137-0.325,0.305-0.325,0.506c0,0.194,0.095,0.352,0.283,0.469c0.187,0.117,0.488,0.252,0.909,0.406l0.616,0.225
			c0.563,0.205,0.959,0.428,1.186,0.668c0.229,0.242,0.342,0.543,0.342,0.904c0,0.471-0.183,0.858-0.545,1.164
			c-0.361,0.305-0.942,0.457-1.74,0.457C214.778,271.984,214.062,271.838,213.327,271.545z"/>
		<path fill="#666666" d="M222.008,271.984c-0.779,0-1.404-0.273-1.873-0.818c-0.468-0.545-0.702-1.232-0.702-2.062
			s0.233-1.518,0.702-2.061c0.469-0.545,1.094-0.816,1.873-0.816c0.777,0,1.4,0.271,1.868,0.816c0.469,0.543,0.703,1.23,0.703,2.061
			c0,0.832-0.233,1.519-0.703,2.062C223.407,271.71,222.785,271.984,222.008,271.984z M222.008,271.227
			c0.484,0,0.869-0.188,1.155-0.565c0.286-0.377,0.429-0.896,0.429-1.558c0-0.658-0.143-1.176-0.429-1.553
			c-0.286-0.379-0.671-0.566-1.155-0.566c-0.486,0-0.875,0.188-1.159,0.566c-0.286,0.377-0.43,0.895-0.43,1.553
			c0,0.66,0.144,1.181,0.43,1.558C221.133,271.039,221.521,271.227,222.008,271.227z"/>
		<path fill="#666666" d="M226.265,271.832v-5.453h0.907v1.191c0.261-0.42,0.575-0.75,0.942-0.986
			c0.368-0.238,0.736-0.357,1.103-0.357c0.322,0,0.615,0.086,0.88,0.256c0.264,0.173,0.448,0.396,0.555,0.673
			c0.104,0.276,0.158,0.819,0.158,1.631v3.047h-0.908v-3.158c0-0.524-0.025-0.87-0.075-1.038c-0.05-0.166-0.144-0.306-0.278-0.412
			c-0.134-0.107-0.281-0.16-0.44-0.16c-0.319,0-0.662,0.149-1.028,0.453c-0.366,0.303-0.668,0.682-0.906,1.139v3.178h-0.908V271.832
			z"/>
		<path fill="#666666" d="M233.855,269.068v2.764h-0.986v-7.578h1.885c0.774,0,1.339,0.088,1.693,0.262s0.627,0.43,0.816,0.765
			c0.188,0.336,0.282,0.711,0.282,1.122c0,0.486-0.127,0.938-0.381,1.357s-0.607,0.744-1.062,0.969
			c-0.454,0.228-1.07,0.34-1.849,0.34H233.855L233.855,269.068z M233.855,268.312h0.424c0.609,0,1.062-0.08,1.357-0.238
			c0.297-0.158,0.523-0.385,0.684-0.682c0.16-0.298,0.24-0.617,0.24-0.964c0-0.438-0.144-0.782-0.429-1.036
			c-0.284-0.254-0.848-0.382-1.688-0.382h-0.59L233.855,268.312L233.855,268.312z"/>
		<path fill="#666666" d="M242.852,270.613c-0.275,0.453-0.609,0.795-0.998,1.025c-0.39,0.229-0.746,0.346-1.072,0.346
			c-0.455,0-0.865-0.197-1.229-0.592c-0.363-0.394-0.546-0.99-0.546-1.791c0-0.634,0.121-1.195,0.362-1.693
			c0.241-0.496,0.563-0.889,0.968-1.176c0.404-0.289,0.904-0.433,1.501-0.433c0.174,0,0.434,0.019,0.78,0.054
			c0.052,0.008,0.13,0.016,0.234,0.024h0.91v3.853c0,0.658,0.069,1.19,0.211,1.602h-0.947
			C242.953,271.535,242.896,271.127,242.852,270.613z M242.855,269.525v-2.342c-0.322-0.084-0.623-0.127-0.899-0.127
			c-0.562,0-1.027,0.217-1.4,0.649s-0.562,1.022-0.562,1.771c0,0.541,0.104,0.948,0.307,1.225c0.203,0.275,0.437,0.414,0.696,0.414
			c0.284,0,0.598-0.146,0.939-0.432C242.279,270.398,242.586,270.012,242.855,269.525z"/>
		<path fill="#666666" d="M247.777,271.617l-2.521-5.238h1l2.009,4.096l1.675-4.096h0.913l-2.109,5.068
			c-0.446,1.068-0.871,1.779-1.271,2.129c-0.401,0.352-0.924,0.527-1.562,0.527c-0.276,0-0.523-0.025-0.742-0.074v-0.801
			c0.251,0.078,0.489,0.116,0.719,0.116c0.293,0,0.553-0.057,0.78-0.17c0.228-0.112,0.437-0.313,0.624-0.604
			c0.188-0.289,0.322-0.538,0.4-0.75L247.777,271.617z"/>
		<path fill="#666666" d="M253.734,271.832v-7.123h-1.631v-0.758h2.539v7.125h1.703v0.756H253.734z"/>
		<path fill="#666666" d="M261.014,271.984c-0.78,0-1.404-0.273-1.873-0.818c-0.47-0.545-0.703-1.232-0.703-2.062
			s0.233-1.518,0.703-2.061c0.469-0.545,1.093-0.816,1.873-0.816c0.776,0,1.399,0.271,1.867,0.816
			c0.469,0.543,0.702,1.23,0.702,2.061c0,0.832-0.233,1.519-0.702,2.062C262.414,271.71,261.791,271.984,261.014,271.984z
			 M261.014,271.227c0.483,0,0.868-0.188,1.154-0.565c0.286-0.377,0.43-0.896,0.43-1.558c0-0.658-0.144-1.176-0.43-1.553
			c-0.286-0.379-0.671-0.566-1.154-0.566c-0.487,0-0.875,0.188-1.16,0.566c-0.286,0.377-0.431,0.895-0.431,1.553
			c0,0.66,0.145,1.181,0.431,1.558C260.139,271.039,260.526,271.227,261.014,271.227z"/>
		<path fill="#666666" d="M268.855,270.613c-0.275,0.453-0.609,0.795-0.998,1.025c-0.389,0.229-0.746,0.346-1.072,0.346
			c-0.455,0-0.865-0.197-1.229-0.592c-0.363-0.394-0.545-0.99-0.545-1.791c0-0.634,0.12-1.195,0.361-1.693
			c0.241-0.496,0.563-0.889,0.968-1.176c0.404-0.289,0.904-0.433,1.501-0.433c0.174,0,0.434,0.019,0.78,0.054
			c0.052,0.008,0.13,0.016,0.234,0.024h0.91v3.853c0,0.658,0.069,1.19,0.211,1.602h-0.947
			C268.957,271.535,268.899,271.127,268.855,270.613z M268.859,269.525v-2.342c-0.322-0.084-0.623-0.127-0.899-0.127
			c-0.562,0-1.027,0.217-1.4,0.649s-0.562,1.022-0.562,1.771c0,0.541,0.104,0.948,0.308,1.225c0.202,0.275,0.436,0.414,0.695,0.414
			c0.284,0,0.598-0.146,0.939-0.432C268.283,270.398,268.59,270.012,268.859,269.525z"/>
		<path fill="#666666" d="M275.42,270.605c-0.276,0.457-0.61,0.801-1,1.03c-0.39,0.232-0.748,0.349-1.072,0.349
			c-0.456,0-0.866-0.197-1.229-0.592c-0.363-0.394-0.545-0.99-0.545-1.791c0-0.634,0.12-1.195,0.361-1.693
			c0.24-0.496,0.563-0.889,0.968-1.176c0.404-0.289,0.905-0.433,1.501-0.433c0.173,0,0.434,0.019,0.782,0.054
			c0.052,0.008,0.13,0.016,0.234,0.024v-2.428h0.908v7.881h-0.908V270.605L275.42,270.605z M275.42,269.525v-2.342
			c-0.322-0.084-0.623-0.127-0.899-0.127c-0.562,0-1.027,0.217-1.401,0.649s-0.56,1.022-0.56,1.771c0,0.541,0.102,0.948,0.305,1.225
			c0.204,0.275,0.438,0.414,0.697,0.414c0.283,0,0.597-0.146,0.938-0.432C274.842,270.398,275.148,270.012,275.42,269.525z"/>
		<path fill="#666666" d="M282.75,273.648c-0.9-0.056-1.661-0.312-2.278-0.765c-0.619-0.454-1.113-1.065-1.482-1.838
			s-0.555-1.545-0.555-2.319c0-0.773,0.186-1.548,0.555-2.318c0.369-0.771,0.863-1.385,1.482-1.84
			c0.617-0.453,1.378-0.709,2.278-0.769v0.757c-0.681,0.062-1.268,0.291-1.758,0.688c-0.49,0.395-0.876,0.898-1.156,1.512
			c-0.279,0.611-0.42,1.268-0.42,1.969s0.141,1.357,0.42,1.969c0.28,0.613,0.666,1.115,1.156,1.511s1.077,0.623,1.758,0.688V273.648
			z"/>
		<path fill="#666666" d="M284.783,263.801c0.902,0.059,1.662,0.314,2.281,0.768c0.618,0.455,1.11,1.068,1.48,1.841
			s0.555,1.545,0.555,2.317c0,0.775-0.185,1.549-0.555,2.32s-0.862,1.383-1.48,1.838c-0.619,0.453-1.379,0.709-2.281,0.764v-0.756
			c0.681-0.065,1.266-0.295,1.756-0.688s0.875-0.896,1.157-1.511c0.282-0.61,0.423-1.268,0.423-1.969s-0.141-1.356-0.423-1.969
			c-0.282-0.613-0.667-1.117-1.157-1.512c-0.49-0.396-1.075-0.625-1.756-0.688V263.801z"/>
		<path fill="#666666" d="M292.588,273.951v-0.605c0.234-0.061,0.413-0.15,0.535-0.266c0.122-0.116,0.221-0.262,0.293-0.439
			c0.073-0.177,0.109-0.391,0.109-0.643c-0.303,0-0.525-0.086-0.668-0.256c-0.145-0.172-0.215-0.354-0.215-0.549
			c0-0.226,0.079-0.414,0.237-0.57c0.16-0.154,0.347-0.23,0.558-0.23c0.272,0,0.51,0.117,0.709,0.354
			c0.198,0.235,0.297,0.559,0.297,0.969c0,0.359-0.078,0.695-0.234,1.015c-0.155,0.315-0.368,0.588-0.637,0.812
			S292.976,273.902,292.588,273.951z M293.438,267.818c-0.218,0-0.404-0.078-0.562-0.234c-0.156-0.156-0.233-0.344-0.233-0.561
			c0-0.224,0.078-0.41,0.235-0.564c0.158-0.154,0.345-0.232,0.56-0.232s0.401,0.078,0.56,0.232s0.237,0.342,0.237,0.564
			c0,0.217-0.078,0.403-0.234,0.561S293.656,267.818,293.438,267.818z"/>
		<path fill="#666666" d="M18.297,286.545v-0.963c0.365,0.238,0.75,0.404,1.157,0.5c0.407,0.098,0.752,0.145,1.035,0.145
			c0.459,0,0.79-0.074,0.991-0.223c0.202-0.146,0.303-0.332,0.303-0.553c0-0.146-0.047-0.271-0.142-0.377
			c-0.095-0.104-0.329-0.232-0.703-0.385l-0.312-0.127l-0.63-0.25c-0.677-0.265-1.104-0.509-1.279-0.732
			c-0.179-0.221-0.269-0.49-0.269-0.811c0-0.449,0.173-0.818,0.521-1.107c0.347-0.291,0.909-0.436,1.688-0.436
			c0.583,0,1.136,0.086,1.657,0.254v0.825c-0.601-0.215-1.164-0.321-1.692-0.321c-0.385,0-0.686,0.065-0.901,0.201
			c-0.218,0.137-0.325,0.305-0.325,0.506c0,0.194,0.094,0.352,0.283,0.469c0.186,0.117,0.487,0.252,0.908,0.406l0.616,0.225
			c0.564,0.205,0.959,0.428,1.187,0.668c0.228,0.242,0.341,0.543,0.341,0.904c0,0.471-0.183,0.858-0.544,1.164
			c-0.362,0.305-0.943,0.457-1.741,0.457C19.749,286.984,19.033,286.838,18.297,286.545z"/>
		<path fill="#666666" d="M28.32,285.613c-0.276,0.453-0.609,0.795-0.999,1.025c-0.39,0.229-0.747,0.346-1.072,0.346
			c-0.456,0-0.865-0.197-1.229-0.592c-0.363-0.394-0.544-0.99-0.544-1.791c0-0.634,0.121-1.195,0.361-1.693
			c0.241-0.496,0.563-0.889,0.969-1.176c0.403-0.289,0.903-0.433,1.501-0.433c0.172,0,0.433,0.019,0.779,0.054
			c0.053,0.008,0.13,0.016,0.234,0.024h0.911v3.853c0,0.658,0.069,1.19,0.21,1.602h-0.947
			C28.421,286.535,28.363,286.127,28.32,285.613z M28.324,284.525v-2.342c-0.323-0.084-0.623-0.127-0.9-0.127
			c-0.561,0-1.027,0.217-1.4,0.649s-0.561,1.022-0.561,1.771c0,0.541,0.103,0.948,0.307,1.225c0.204,0.275,0.436,0.414,0.696,0.414
			c0.284,0,0.598-0.146,0.939-0.432C27.747,285.398,28.053,285.012,28.324,284.525z"/>
		<path fill="#666666" d="M31.236,286.832v-5.453h0.908v1.191c0.26-0.42,0.575-0.75,0.941-0.986
			c0.368-0.238,0.736-0.357,1.104-0.357c0.322,0,0.615,0.086,0.879,0.256c0.264,0.173,0.448,0.396,0.554,0.673
			c0.106,0.276,0.159,0.819,0.159,1.631v3.047h-0.908v-3.158c0-0.524-0.024-0.87-0.076-1.038c-0.05-0.166-0.143-0.306-0.277-0.412
			c-0.136-0.107-0.282-0.16-0.442-0.16c-0.319,0-0.662,0.149-1.028,0.453c-0.365,0.303-0.668,0.682-0.905,1.139v3.178h-0.908
			V286.832z"/>
		<path fill="#666666" d="M39.265,286.832v-4.697h-1.515v-0.756h2.422v4.697h1.52v0.756H39.265z M39.119,279.408
			c0-0.205,0.07-0.357,0.209-0.457c0.14-0.102,0.271-0.15,0.395-0.15c0.126,0,0.259,0.049,0.398,0.15
			c0.139,0.1,0.209,0.252,0.209,0.457c0,0.201-0.07,0.352-0.209,0.453c-0.14,0.1-0.271,0.149-0.398,0.149
			c-0.123,0-0.255-0.051-0.395-0.149C39.188,279.76,39.119,279.609,39.119,279.408z"/>
		<path fill="#666666" d="M48.798,286.613c-0.426,0.178-0.735,0.285-0.928,0.318c-0.191,0.034-0.377,0.053-0.557,0.053
			c-0.381,0-0.729-0.074-1.045-0.221c-0.316-0.147-0.555-0.363-0.715-0.648c-0.161-0.287-0.242-0.73-0.242-1.328v-2.197H43.95
			v-0.758h1.362v-2.197h0.908v2.197h2.427v0.758H46.22v2.182c0,0.439,0.052,0.75,0.155,0.931c0.104,0.182,0.243,0.313,0.417,0.397
			c0.174,0.086,0.38,0.127,0.618,0.127c0.439,0,0.902-0.139,1.387-0.414V286.613z"/>
		<path fill="#666666" d="M52.267,286.832v-4.697h-1.515v-0.756h2.422v4.697h1.52v0.756H52.267z M52.121,279.408
			c0-0.205,0.07-0.357,0.209-0.457c0.141-0.102,0.271-0.15,0.395-0.15c0.126,0,0.259,0.049,0.398,0.15
			c0.14,0.1,0.209,0.252,0.209,0.457c0,0.201-0.069,0.352-0.209,0.453c-0.14,0.1-0.271,0.149-0.398,0.149
			c-0.123,0-0.254-0.051-0.395-0.149C52.19,279.76,52.121,279.609,52.121,279.408z"/>
		<path fill="#666666" d="M57.132,286.832v-0.834l3.344-3.863H57.21v-0.756h4.469v0.756l-3.369,3.863h3.48v0.834H57.132z"/>
		<path fill="#666666" d="M68.277,286.469c-0.727,0.344-1.413,0.516-2.062,0.516c-0.491,0-0.931-0.123-1.317-0.366
			c-0.387-0.242-0.697-0.593-0.931-1.045c-0.232-0.455-0.349-0.939-0.349-1.457c0-0.498,0.111-0.978,0.332-1.435
			c0.221-0.459,0.531-0.815,0.928-1.072c0.397-0.254,0.841-0.383,1.328-0.383c0.648,0,1.168,0.23,1.561,0.693
			c0.392,0.461,0.588,1.172,0.588,2.135v0.195h-3.76c0,0.379,0.078,0.725,0.236,1.037s0.365,0.549,0.623,0.705
			s0.55,0.234,0.879,0.234c0.586,0,1.234-0.195,1.943-0.586V286.469z M64.649,283.57h2.72v-0.131c0-0.445-0.109-0.799-0.327-1.062
			c-0.218-0.264-0.509-0.396-0.874-0.396c-0.368,0-0.686,0.134-0.955,0.4C64.944,282.65,64.756,283.049,64.649,283.57z"/>
		<path fill="#666666" d="M70.242,286.832v-7.578h1.797c0.827,0,1.441,0.145,1.843,0.432c0.402,0.289,0.704,0.726,0.906,1.308
			c0.202,0.584,0.303,1.272,0.303,2.069c0,0.756-0.105,1.418-0.319,1.99c-0.213,0.57-0.516,1.01-0.906,1.318
			c-0.391,0.307-1,0.461-1.826,0.461H70.242z M71.228,285.998h0.658c0.665,0,1.141-0.119,1.426-0.357
			c0.284-0.238,0.486-0.567,0.608-0.99c0.122-0.422,0.184-1.004,0.184-1.745c0-0.728-0.071-1.285-0.214-1.677
			c-0.144-0.391-0.349-0.69-0.614-0.901c-0.268-0.209-0.704-0.313-1.312-0.313h-0.735L71.228,285.998L71.228,285.998z"/>
		<path fill="#666666" d="M80.328,285.613c-0.275,0.453-0.608,0.795-0.999,1.025c-0.39,0.229-0.747,0.346-1.072,0.346
			c-0.456,0-0.864-0.197-1.229-0.592c-0.363-0.394-0.544-0.99-0.544-1.791c0-0.634,0.121-1.195,0.362-1.693
			c0.24-0.496,0.562-0.889,0.968-1.176c0.403-0.289,0.903-0.433,1.501-0.433c0.172,0,0.433,0.019,0.78,0.054
			c0.052,0.008,0.13,0.016,0.233,0.024h0.911v3.853c0,0.658,0.07,1.19,0.21,1.602h-0.947
			C80.429,286.535,80.371,286.127,80.328,285.613z M80.332,284.525v-2.342c-0.323-0.084-0.623-0.127-0.899-0.127
			c-0.562,0-1.028,0.217-1.401,0.649s-0.56,1.022-0.56,1.771c0,0.541,0.102,0.948,0.306,1.225c0.204,0.275,0.436,0.414,0.697,0.414
			c0.283,0,0.597-0.146,0.938-0.432C79.754,285.398,80.061,285.012,80.332,284.525z"/>
		<path fill="#666666" d="M87.804,286.613c-0.427,0.178-0.736,0.285-0.929,0.318c-0.191,0.034-0.377,0.053-0.557,0.053
			c-0.381,0-0.729-0.074-1.045-0.221c-0.316-0.147-0.554-0.363-0.715-0.648c-0.161-0.287-0.242-0.73-0.242-1.328v-2.197h-1.362
			v-0.758h1.362v-2.197h0.908v2.197h2.427v0.758h-2.427v2.182c0,0.439,0.052,0.75,0.155,0.931c0.104,0.182,0.243,0.313,0.417,0.397
			c0.175,0.086,0.381,0.127,0.618,0.127c0.439,0,0.902-0.139,1.388-0.414L87.804,286.613L87.804,286.613z"/>
		<path fill="#666666" d="M93.33,285.613c-0.275,0.453-0.608,0.795-0.999,1.025c-0.39,0.229-0.747,0.346-1.072,0.346
			c-0.455,0-0.864-0.197-1.229-0.592c-0.363-0.394-0.544-0.99-0.544-1.791c0-0.634,0.121-1.195,0.362-1.693
			c0.24-0.496,0.562-0.889,0.968-1.176c0.404-0.289,0.904-0.433,1.501-0.433c0.172,0,0.433,0.019,0.78,0.054
			c0.052,0.008,0.13,0.016,0.233,0.024h0.911v3.853c0,0.658,0.07,1.19,0.21,1.602h-0.947
			C93.431,286.535,93.373,286.127,93.33,285.613z M93.333,284.525v-2.342c-0.323-0.084-0.623-0.127-0.899-0.127
			c-0.562,0-1.028,0.217-1.401,0.649s-0.56,1.022-0.56,1.771c0,0.541,0.102,0.948,0.306,1.225c0.204,0.275,0.436,0.414,0.697,0.414
			c0.283,0,0.597-0.146,0.938-0.432C92.756,285.398,93.063,285.012,93.333,284.525z"/>
		<path fill="#666666" d="M100.723,288.648c-0.902-0.056-1.662-0.312-2.28-0.765c-0.619-0.454-1.112-1.065-1.482-1.838
			s-0.554-1.545-0.554-2.319c0-0.773,0.185-1.548,0.554-2.318c0.369-0.771,0.863-1.385,1.482-1.84
			c0.619-0.453,1.378-0.709,2.28-0.769v0.757c-0.682,0.062-1.269,0.291-1.759,0.688c-0.49,0.395-0.876,0.898-1.156,1.512
			c-0.28,0.611-0.42,1.268-0.42,1.969s0.14,1.357,0.42,1.969c0.279,0.613,0.666,1.115,1.156,1.511s1.077,0.623,1.759,0.688V288.648z
			"/>
		<path fill="#666666" d="M102.336,286.832v-5.453h0.796v1.25c0.25-0.531,0.484-0.896,0.701-1.1
			c0.216-0.201,0.437-0.303,0.657-0.303c0.264,0,0.476,0.104,0.637,0.311s0.242,0.5,0.242,0.881v0.293
			c0.107-0.332,0.237-0.602,0.388-0.809c0.151-0.205,0.31-0.371,0.472-0.492c0.163-0.123,0.35-0.184,0.562-0.184
			c0.234,0,0.436,0.1,0.602,0.299c0.166,0.197,0.249,0.594,0.249,1.186v4.121h-0.797v-3.725c0-0.308-0.01-0.517-0.028-0.629
			c-0.021-0.111-0.06-0.197-0.117-0.256c-0.058-0.06-0.122-0.089-0.19-0.089c-0.169,0-0.351,0.13-0.544,0.39
			c-0.193,0.258-0.392,0.688-0.593,1.287v3.021h-0.757v-3.722c0-0.479-0.047-0.764-0.142-0.85c-0.096-0.084-0.181-0.127-0.256-0.127
			c-0.167,0-0.345,0.145-0.535,0.436c-0.191,0.289-0.374,0.66-0.547,1.113v3.148h-0.799V286.832z"/>
		<path fill="#666666" d="M113.784,286.469c-0.726,0.344-1.413,0.516-2.061,0.516c-0.492,0-0.932-0.123-1.318-0.366
			c-0.387-0.242-0.697-0.593-0.93-1.045c-0.233-0.455-0.35-0.939-0.35-1.457c0-0.498,0.111-0.978,0.332-1.435
			c0.222-0.459,0.531-0.815,0.929-1.072c0.396-0.254,0.84-0.383,1.327-0.383c0.648,0,1.168,0.23,1.561,0.693
			c0.392,0.461,0.588,1.172,0.588,2.135v0.195h-3.76c0,0.379,0.079,0.725,0.236,1.037c0.158,0.312,0.365,0.549,0.623,0.705
			c0.259,0.156,0.551,0.234,0.879,0.234c0.586,0,1.234-0.195,1.943-0.586V286.469z M110.156,283.57h2.72v-0.131
			c0-0.445-0.108-0.799-0.327-1.062c-0.218-0.264-0.509-0.396-0.874-0.396c-0.367,0-0.686,0.134-0.954,0.4
			C110.451,282.65,110.263,283.049,110.156,283.57z"/>
		<path fill="#666666" d="M115.812,286.545v-0.963c0.364,0.238,0.75,0.404,1.157,0.5c0.406,0.098,0.752,0.145,1.034,0.145
			c0.459,0,0.79-0.074,0.991-0.223c0.202-0.146,0.303-0.332,0.303-0.553c0-0.146-0.047-0.271-0.142-0.377
			c-0.094-0.104-0.329-0.232-0.703-0.385l-0.312-0.127l-0.63-0.25c-0.678-0.265-1.104-0.509-1.279-0.732
			c-0.179-0.221-0.27-0.49-0.27-0.811c0-0.449,0.174-0.818,0.521-1.107c0.347-0.291,0.91-0.436,1.688-0.436
			c0.583,0,1.137,0.086,1.657,0.254v0.825c-0.6-0.215-1.164-0.321-1.691-0.321c-0.386,0-0.687,0.065-0.902,0.201
			c-0.217,0.137-0.325,0.305-0.325,0.506c0,0.194,0.094,0.352,0.283,0.469c0.186,0.117,0.488,0.252,0.909,0.406l0.616,0.225
			c0.563,0.205,0.959,0.428,1.186,0.668c0.228,0.242,0.341,0.543,0.341,0.904c0,0.471-0.182,0.858-0.544,1.164
			c-0.362,0.305-0.943,0.457-1.741,0.457C117.264,286.984,116.548,286.838,115.812,286.545z"/>
		<path fill="#666666" d="M122.313,286.545v-0.963c0.365,0.238,0.75,0.404,1.157,0.5c0.406,0.098,0.752,0.145,1.034,0.145
			c0.459,0,0.79-0.074,0.991-0.223c0.202-0.146,0.303-0.332,0.303-0.553c0-0.146-0.047-0.271-0.142-0.377
			c-0.094-0.104-0.329-0.232-0.703-0.385l-0.312-0.127l-0.63-0.25c-0.678-0.265-1.104-0.509-1.279-0.732
			c-0.179-0.221-0.27-0.49-0.27-0.811c0-0.449,0.174-0.818,0.521-1.107c0.347-0.291,0.91-0.436,1.688-0.436
			c0.583,0,1.137,0.086,1.657,0.254v0.825c-0.6-0.215-1.164-0.321-1.691-0.321c-0.386,0-0.687,0.065-0.902,0.201
			c-0.217,0.137-0.325,0.305-0.325,0.506c0,0.194,0.094,0.352,0.283,0.469c0.186,0.117,0.488,0.252,0.909,0.406l0.616,0.225
			c0.563,0.205,0.959,0.428,1.186,0.668c0.228,0.242,0.341,0.543,0.341,0.904c0,0.471-0.182,0.858-0.544,1.164
			c-0.362,0.305-0.942,0.457-1.741,0.457C123.765,286.984,123.049,286.838,122.313,286.545z"/>
		<path fill="#666666" d="M132.335,285.613c-0.275,0.453-0.608,0.795-0.999,1.025c-0.39,0.229-0.747,0.346-1.071,0.346
			c-0.456,0-0.865-0.197-1.229-0.592c-0.363-0.394-0.544-0.99-0.544-1.791c0-0.634,0.121-1.195,0.362-1.693
			c0.241-0.496,0.562-0.889,0.968-1.176c0.404-0.289,0.904-0.433,1.501-0.433c0.172,0,0.433,0.019,0.78,0.054
			c0.052,0.008,0.13,0.016,0.233,0.024h0.911v3.853c0,0.658,0.07,1.19,0.21,1.602h-0.946
			C132.437,286.535,132.379,286.127,132.335,285.613z M132.339,284.525v-2.342c-0.322-0.084-0.623-0.127-0.899-0.127
			c-0.562,0-1.028,0.217-1.401,0.649s-0.56,1.022-0.56,1.771c0,0.541,0.102,0.948,0.306,1.225c0.204,0.275,0.437,0.414,0.697,0.414
			c0.284,0,0.597-0.146,0.938-0.432C131.762,285.398,132.069,285.012,132.339,284.525z"/>
		<path fill="#666666" d="M138.899,285.605c-0.277,0.457-0.61,0.801-1,1.03c-0.39,0.232-0.747,0.349-1.073,0.349
			c-0.457,0-0.866-0.197-1.229-0.592c-0.363-0.394-0.546-0.99-0.546-1.791c0-0.634,0.121-1.195,0.362-1.693
			c0.241-0.496,0.563-0.889,0.968-1.176c0.404-0.289,0.904-0.433,1.501-0.433c0.173,0,0.434,0.019,0.78,0.054
			c0.052,0.008,0.13,0.016,0.234,0.024h0.911v3.856c0,0.918-0.013,1.479-0.036,1.683s-0.062,0.41-0.116,0.617
			c-0.13,0.485-0.427,0.866-0.892,1.147c-0.465,0.279-1.026,0.42-1.685,0.42c-0.661,0-1.331-0.17-2.009-0.508v-0.918
			c0.257,0.176,0.574,0.33,0.951,0.465c0.376,0.138,0.741,0.203,1.093,0.203c0.277,0,0.54-0.043,0.787-0.131
			c0.248-0.088,0.448-0.215,0.602-0.381c0.154-0.166,0.258-0.359,0.313-0.58c0.055-0.219,0.083-0.512,0.083-0.875V285.605
			L138.899,285.605z M138.899,284.525v-2.342c-0.323-0.084-0.623-0.127-0.9-0.127c-0.561,0-1.027,0.217-1.4,0.649
			s-0.561,1.022-0.561,1.771c0,0.541,0.103,0.948,0.307,1.225c0.203,0.275,0.436,0.414,0.696,0.414c0.284,0,0.598-0.146,0.939-0.432
			C138.322,285.398,138.628,285.012,138.899,284.525z"/>
		<path fill="#666666" d="M146.289,286.469c-0.726,0.344-1.413,0.516-2.061,0.516c-0.492,0-0.932-0.123-1.318-0.366
			c-0.387-0.242-0.697-0.593-0.93-1.045c-0.233-0.455-0.35-0.939-0.35-1.457c0-0.498,0.111-0.978,0.332-1.435
			c0.222-0.459,0.531-0.815,0.929-1.072c0.396-0.254,0.84-0.383,1.328-0.383c0.647,0,1.168,0.23,1.56,0.693
			c0.392,0.461,0.588,1.172,0.588,2.135v0.195h-3.76c0,0.379,0.079,0.725,0.237,1.037c0.157,0.312,0.364,0.549,0.622,0.705
			c0.259,0.156,0.551,0.234,0.88,0.234c0.586,0,1.233-0.195,1.942-0.586V286.469z M142.661,283.57h2.72v-0.131
			c0-0.445-0.108-0.799-0.326-1.062c-0.219-0.264-0.51-0.396-0.874-0.396c-0.368,0-0.687,0.134-0.955,0.4
			C142.956,282.65,142.768,283.049,142.661,283.57z"/>
		<path fill="#666666" d="M148.263,278.801c0.901,0.059,1.661,0.314,2.279,0.768c0.619,0.455,1.112,1.068,1.482,1.841
			s0.554,1.545,0.554,2.317c0,0.775-0.185,1.549-0.554,2.32s-0.863,1.383-1.482,1.838c-0.619,0.453-1.378,0.709-2.279,0.764v-0.756
			c0.68-0.065,1.266-0.295,1.755-0.688c0.488-0.394,0.875-0.896,1.156-1.511c0.282-0.61,0.423-1.268,0.423-1.969
			s-0.142-1.356-0.423-1.969c-0.281-0.613-0.667-1.117-1.156-1.512c-0.49-0.396-1.075-0.625-1.755-0.688V278.801z"/>
		<path fill="#666666" d="M156.068,288.951v-0.605c0.233-0.061,0.413-0.15,0.535-0.266c0.122-0.116,0.22-0.262,0.293-0.439
			c0.073-0.177,0.109-0.391,0.109-0.643c-0.303,0-0.525-0.086-0.669-0.256c-0.143-0.172-0.215-0.354-0.215-0.549
			c0-0.226,0.08-0.414,0.239-0.57c0.16-0.154,0.345-0.23,0.557-0.23c0.273,0,0.51,0.117,0.708,0.354
			c0.199,0.237,0.298,0.559,0.298,0.969c0,0.359-0.077,0.695-0.233,1.015c-0.156,0.315-0.369,0.588-0.637,0.812
			C156.785,288.766,156.455,288.902,156.068,288.951z M156.917,282.818c-0.218,0-0.404-0.078-0.562-0.234s-0.234-0.344-0.234-0.561
			c0-0.224,0.079-0.41,0.237-0.564s0.344-0.232,0.559-0.232s0.401,0.078,0.56,0.232s0.236,0.342,0.236,0.564
			c0,0.217-0.077,0.403-0.233,0.561S157.136,282.818,156.917,282.818z"/>
		<path fill="#666666" d="M18.234,301.832v-7.881h0.908v3.619c0.26-0.42,0.574-0.75,0.941-0.986
			c0.368-0.238,0.736-0.357,1.104-0.357c0.309,0,0.592,0.08,0.847,0.236c0.255,0.158,0.435,0.35,0.535,0.574
			c0.082,0.174,0.137,0.355,0.166,0.549c0.029,0.195,0.044,0.594,0.044,1.199v3.047h-0.908v-3.158c0-0.525-0.024-0.871-0.076-1.039
			c-0.05-0.166-0.143-0.305-0.277-0.412c-0.136-0.106-0.282-0.16-0.442-0.16c-0.319,0-0.662,0.15-1.028,0.453
			c-0.365,0.303-0.668,0.683-0.905,1.14v3.178L18.234,301.832L18.234,301.832z"/>
		<path fill="#666666" d="M29.295,301.613c-0.426,0.178-0.735,0.285-0.928,0.318c-0.192,0.034-0.377,0.053-0.557,0.053
			c-0.381,0-0.729-0.074-1.045-0.221c-0.316-0.147-0.555-0.363-0.716-0.648c-0.16-0.287-0.241-0.73-0.241-1.328v-2.197h-1.362
			v-0.758h1.362v-2.197h0.907v2.197h2.428v0.758h-2.428v2.182c0,0.439,0.053,0.75,0.156,0.931c0.104,0.182,0.243,0.313,0.417,0.397
			c0.174,0.086,0.38,0.127,0.618,0.127c0.439,0,0.902-0.139,1.387-0.414L29.295,301.613L29.295,301.613z"/>
		<path fill="#666666" d="M35.796,301.613c-0.426,0.178-0.735,0.285-0.928,0.318c-0.192,0.034-0.377,0.053-0.557,0.053
			c-0.381,0-0.729-0.074-1.045-0.221c-0.316-0.147-0.555-0.363-0.716-0.648c-0.16-0.287-0.241-0.73-0.241-1.328v-2.197h-1.362
			v-0.758h1.362v-2.197h0.907v2.197h2.428v0.758h-2.428v2.182c0,0.439,0.053,0.75,0.156,0.931c0.104,0.182,0.243,0.313,0.417,0.397
			c0.174,0.086,0.38,0.127,0.618,0.127c0.439,0,0.902-0.139,1.387-0.414L35.796,301.613L35.796,301.613z"/>
		<path fill="#666666" d="M38.577,297.605c0.28-0.457,0.614-0.801,1.001-1.031c0.387-0.232,0.744-0.348,1.069-0.348
			c0.456,0,0.866,0.196,1.229,0.592c0.365,0.393,0.547,0.99,0.547,1.791c0,0.633-0.12,1.195-0.363,1.69
			c-0.243,0.498-0.565,0.89-0.97,1.179c-0.403,0.287-0.902,0.432-1.499,0.432c-0.169,0-0.43-0.018-0.78-0.053
			c-0.053-0.008-0.13-0.017-0.234-0.025v2.119h-0.908v-7.572h0.908V297.605z M38.577,298.686v2.342
			c0.329,0.085,0.631,0.128,0.908,0.128c0.55,0,1.013-0.218,1.389-0.648s0.564-1.021,0.564-1.771c0-0.545-0.104-0.953-0.309-1.228
			s-0.438-0.411-0.697-0.411c-0.283,0-0.596,0.145-0.936,0.432C39.157,297.812,38.85,298.199,38.577,298.686z"/>
		<path fill="#666666" d="M46.479,297.818c-0.218,0-0.405-0.078-0.562-0.234s-0.233-0.344-0.233-0.561
			c0-0.224,0.079-0.41,0.236-0.564c0.158-0.154,0.345-0.232,0.56-0.232s0.4,0.078,0.559,0.232s0.237,0.342,0.237,0.564
			c0,0.217-0.078,0.403-0.234,0.561S46.697,297.818,46.479,297.818z M46.479,302.062c-0.218,0-0.405-0.078-0.562-0.234
			s-0.233-0.344-0.233-0.562c0-0.221,0.079-0.408,0.236-0.563c0.158-0.154,0.345-0.229,0.56-0.229s0.4,0.075,0.559,0.229
			c0.158,0.155,0.237,0.344,0.237,0.563c0,0.219-0.078,0.406-0.234,0.562S46.697,302.062,46.479,302.062z"/>
		<path fill="#666666" d="M51.696,298.609v3.223H50.71v-7.578h2.024c0.66,0,1.146,0.068,1.458,0.203
			c0.312,0.135,0.554,0.338,0.724,0.611c0.171,0.272,0.256,0.567,0.256,0.883c0,0.293-0.057,0.588-0.17,0.883
			c-0.113,0.297-0.271,0.561-0.47,0.793s-0.488,0.453-0.865,0.662l2.191,3.543h-1.175l-2.007-3.223H51.696z M51.696,297.854h1.377
			c0.31-0.17,0.54-0.344,0.691-0.52c0.15-0.176,0.266-0.363,0.344-0.562c0.078-0.198,0.117-0.396,0.117-0.596
			c0-0.355-0.129-0.639-0.388-0.85c-0.258-0.209-0.727-0.314-1.405-0.314h-0.736V297.854z"/>
		<path fill="#666666" d="M61.776,301.469c-0.727,0.344-1.413,0.516-2.062,0.516c-0.491,0-0.931-0.123-1.317-0.366
			c-0.388-0.242-0.697-0.593-0.931-1.045c-0.232-0.455-0.349-0.939-0.349-1.457c0-0.498,0.111-0.978,0.332-1.435
			c0.221-0.459,0.531-0.815,0.928-1.072c0.397-0.254,0.84-0.383,1.328-0.383c0.648,0,1.168,0.23,1.561,0.693
			c0.392,0.461,0.588,1.172,0.588,2.135v0.195h-3.76c0,0.379,0.078,0.725,0.236,1.037s0.365,0.549,0.623,0.705
			s0.55,0.234,0.879,0.234c0.586,0,1.234-0.195,1.943-0.586V301.469z M58.148,298.57h2.72v-0.131c0-0.445-0.109-0.799-0.327-1.062
			c-0.218-0.264-0.509-0.396-0.874-0.396c-0.368,0-0.686,0.134-0.955,0.4C58.443,297.65,58.255,298.049,58.148,298.57z"/>
		<path fill="#666666" d="M63.804,301.545v-0.963c0.364,0.238,0.75,0.404,1.156,0.5c0.407,0.098,0.752,0.145,1.035,0.145
			c0.459,0,0.79-0.074,0.991-0.223c0.202-0.146,0.303-0.332,0.303-0.553c0-0.146-0.047-0.271-0.142-0.377
			c-0.094-0.104-0.329-0.232-0.703-0.385l-0.312-0.127l-0.63-0.25c-0.677-0.265-1.104-0.509-1.278-0.732
			c-0.18-0.221-0.27-0.49-0.27-0.811c0-0.449,0.173-0.818,0.521-1.107c0.347-0.291,0.91-0.436,1.688-0.436
			c0.583,0,1.136,0.086,1.657,0.254v0.825c-0.6-0.215-1.164-0.321-1.692-0.321c-0.385,0-0.686,0.065-0.901,0.201
			c-0.217,0.137-0.325,0.305-0.325,0.506c0,0.194,0.094,0.352,0.283,0.469c0.186,0.117,0.487,0.252,0.909,0.406l0.615,0.225
			c0.564,0.205,0.959,0.428,1.187,0.668c0.228,0.242,0.341,0.543,0.341,0.904c0,0.471-0.182,0.858-0.544,1.164
			c-0.362,0.305-0.943,0.457-1.741,0.457C65.256,301.984,64.54,301.838,63.804,301.545z"/>
		<path fill="#666666" d="M71.082,297.605c0.28-0.457,0.614-0.801,1.001-1.031c0.388-0.232,0.744-0.348,1.069-0.348
			c0.456,0,0.866,0.196,1.229,0.592c0.365,0.393,0.548,0.99,0.548,1.791c0,0.633-0.121,1.195-0.364,1.69
			c-0.243,0.498-0.565,0.89-0.969,1.179c-0.404,0.287-0.903,0.432-1.499,0.432c-0.169,0-0.431-0.018-0.781-0.053
			c-0.052-0.008-0.13-0.017-0.234-0.025v2.119h-0.908v-7.572h0.908V297.605z M71.082,298.686v2.342
			c0.329,0.085,0.631,0.128,0.908,0.128c0.55,0,1.013-0.218,1.389-0.648s0.564-1.021,0.564-1.771c0-0.545-0.104-0.953-0.309-1.228
			c-0.204-0.274-0.438-0.411-0.697-0.411c-0.283,0-0.596,0.145-0.936,0.432C71.662,297.812,71.355,298.199,71.082,298.686z"/>
		<path fill="#666666" d="M78.986,301.984c-0.78,0-1.405-0.273-1.873-0.818s-0.703-1.232-0.703-2.062s0.234-1.518,0.703-2.061
			c0.468-0.545,1.093-0.816,1.873-0.816c0.777,0,1.4,0.271,1.868,0.816c0.468,0.543,0.703,1.23,0.703,2.061
			c0,0.832-0.234,1.519-0.703,2.062C80.385,301.71,79.764,301.984,78.986,301.984z M78.986,301.227c0.484,0,0.869-0.188,1.155-0.565
			c0.286-0.377,0.429-0.896,0.429-1.558c0-0.658-0.143-1.176-0.429-1.553c-0.286-0.379-0.671-0.566-1.155-0.566
			c-0.487,0-0.875,0.188-1.16,0.566c-0.286,0.377-0.429,0.895-0.429,1.553c0,0.66,0.143,1.181,0.429,1.558
			C78.112,301.039,78.499,301.227,78.986,301.227z"/>
		<path fill="#666666" d="M83.244,301.832v-5.453h0.908v1.191c0.26-0.42,0.575-0.75,0.942-0.986
			c0.367-0.238,0.735-0.357,1.104-0.357c0.322,0,0.615,0.086,0.879,0.256c0.264,0.173,0.448,0.396,0.554,0.673
			c0.106,0.276,0.159,0.819,0.159,1.631v3.047h-0.908v-3.158c0-0.524-0.024-0.87-0.075-1.038c-0.051-0.166-0.144-0.306-0.278-0.412
			c-0.135-0.107-0.282-0.16-0.442-0.16c-0.318,0-0.662,0.149-1.027,0.453c-0.366,0.303-0.668,0.682-0.906,1.139v3.178h-0.908
			V301.832z"/>
		<path fill="#666666" d="M89.808,301.545v-0.963c0.364,0.238,0.75,0.404,1.156,0.5c0.407,0.098,0.752,0.145,1.035,0.145
			c0.459,0,0.79-0.074,0.991-0.223c0.202-0.146,0.303-0.332,0.303-0.553c0-0.146-0.047-0.271-0.142-0.377
			c-0.094-0.104-0.329-0.232-0.703-0.385l-0.312-0.127l-0.631-0.25c-0.677-0.265-1.104-0.509-1.278-0.732
			c-0.18-0.221-0.27-0.49-0.27-0.811c0-0.449,0.173-0.818,0.521-1.107c0.347-0.291,0.91-0.436,1.688-0.436
			c0.583,0,1.137,0.086,1.657,0.254v0.825c-0.6-0.215-1.164-0.321-1.692-0.321c-0.385,0-0.686,0.065-0.901,0.201
			c-0.217,0.137-0.325,0.305-0.325,0.506c0,0.194,0.094,0.352,0.283,0.469c0.186,0.117,0.488,0.252,0.909,0.406l0.615,0.225
			c0.564,0.205,0.959,0.428,1.187,0.668c0.228,0.242,0.341,0.543,0.341,0.904c0,0.471-0.182,0.858-0.544,1.164
			c-0.362,0.305-0.943,0.457-1.741,0.457C91.26,301.984,90.544,301.838,89.808,301.545z"/>
		<path fill="#666666" d="M100.782,301.469c-0.726,0.344-1.413,0.516-2.061,0.516c-0.492,0-0.932-0.123-1.318-0.366
			c-0.387-0.242-0.697-0.593-0.93-1.045c-0.233-0.455-0.35-0.939-0.35-1.457c0-0.498,0.111-0.978,0.332-1.435
			c0.222-0.459,0.531-0.815,0.928-1.072c0.397-0.254,0.841-0.383,1.328-0.383c0.648,0,1.168,0.23,1.561,0.693
			c0.392,0.461,0.588,1.172,0.588,2.135v0.195H97.1c0,0.379,0.079,0.725,0.236,1.037c0.158,0.312,0.365,0.549,0.623,0.705
			s0.55,0.234,0.879,0.234c0.586,0,1.234-0.195,1.943-0.586V301.469z M97.154,298.57h2.72v-0.131c0-0.445-0.108-0.799-0.327-1.062
			c-0.218-0.264-0.509-0.396-0.874-0.396c-0.367,0-0.686,0.134-0.955,0.4C97.449,297.65,97.261,298.049,97.154,298.57z"/>
		<path fill="#666666" d="M104.592,302.062v-8.033h0.797v8.033H104.592z"/>
		<path fill="#0071BC" d="M113.784,301.469c-0.726,0.344-1.413,0.516-2.061,0.516c-0.492,0-0.932-0.123-1.318-0.366
			c-0.387-0.242-0.697-0.593-0.93-1.045c-0.233-0.455-0.35-0.939-0.35-1.457c0-0.498,0.111-0.978,0.332-1.435
			c0.222-0.459,0.531-0.815,0.929-1.072c0.396-0.254,0.84-0.383,1.327-0.383c0.648,0,1.168,0.23,1.561,0.693
			c0.392,0.461,0.588,1.172,0.588,2.135v0.195h-3.76c0,0.379,0.079,0.725,0.236,1.037c0.158,0.312,0.365,0.549,0.623,0.705
			c0.259,0.156,0.551,0.234,0.879,0.234c0.586,0,1.234-0.195,1.943-0.586V301.469z M110.156,298.57h2.72v-0.131
			c0-0.445-0.108-0.799-0.327-1.062c-0.218-0.264-0.509-0.396-0.874-0.396c-0.367,0-0.686,0.134-0.954,0.4
			C110.451,297.65,110.263,298.049,110.156,298.57z"/>
		<path fill="#0071BC" d="M116.212,301.832v-5.453h0.908v1.191c0.283-0.449,0.608-0.785,0.975-1.01
			c0.365-0.224,0.773-0.334,1.223-0.334c0.329,0,0.658,0.051,0.986,0.151v1.967h-0.874v-1.243c-0.153-0.027-0.273-0.039-0.361-0.039
			c-0.338,0-0.67,0.133-0.996,0.399s-0.643,0.666-0.952,1.201v3.168L116.212,301.832L116.212,301.832z"/>
		<path fill="#0071BC" d="M122.713,301.832v-5.453h0.908v1.191c0.283-0.449,0.608-0.785,0.975-1.01
			c0.365-0.224,0.773-0.334,1.223-0.334c0.329,0,0.658,0.051,0.986,0.151v1.967h-0.874v-1.243c-0.153-0.027-0.273-0.039-0.361-0.039
			c-0.338,0-0.67,0.133-0.996,0.399s-0.643,0.666-0.952,1.201v3.168L122.713,301.832L122.713,301.832z"/>
		<path fill="#0071BC" d="M130.994,301.984c-0.78,0-1.405-0.273-1.873-0.818s-0.703-1.232-0.703-2.062s0.234-1.518,0.703-2.061
			c0.468-0.545,1.093-0.816,1.873-0.816c0.777,0,1.4,0.271,1.868,0.816c0.468,0.543,0.703,1.23,0.703,2.061
			c0,0.832-0.234,1.519-0.703,2.062S131.771,301.984,130.994,301.984z M130.994,301.227c0.484,0,0.869-0.188,1.155-0.565
			c0.286-0.377,0.429-0.896,0.429-1.558c0-0.658-0.143-1.176-0.429-1.553c-0.286-0.379-0.671-0.566-1.155-0.566
			c-0.487,0-0.875,0.188-1.16,0.566c-0.286,0.377-0.429,0.895-0.429,1.553c0,0.66,0.143,1.181,0.429,1.558
			C130.12,301.039,130.507,301.227,130.994,301.227z"/>
		<path fill="#0071BC" d="M135.715,301.832v-5.453h0.908v1.191c0.283-0.449,0.608-0.785,0.975-1.01
			c0.365-0.224,0.773-0.334,1.223-0.334c0.329,0,0.658,0.051,0.986,0.151v1.967h-0.874v-1.243c-0.153-0.027-0.273-0.039-0.361-0.039
			c-0.338,0-0.67,0.133-0.996,0.399s-0.643,0.666-0.952,1.201v3.168L135.715,301.832L135.715,301.832z"/>
		<path fill="#666666" d="M148.717,301.832v-5.453h0.908v1.191c0.283-0.449,0.608-0.785,0.975-1.01
			c0.365-0.224,0.773-0.334,1.223-0.334c0.329,0,0.658,0.051,0.986,0.151v1.967h-0.874v-1.243c-0.153-0.027-0.273-0.039-0.361-0.039
			c-0.338,0-0.67,0.133-0.996,0.399s-0.643,0.666-0.952,1.201v3.168L148.717,301.832L148.717,301.832z"/>
		<path fill="#666666" d="M159.291,301.469c-0.726,0.344-1.413,0.516-2.061,0.516c-0.492,0-0.932-0.123-1.318-0.366
			c-0.387-0.242-0.697-0.593-0.93-1.045c-0.233-0.455-0.35-0.939-0.35-1.457c0-0.498,0.111-0.978,0.332-1.435
			c0.222-0.459,0.531-0.815,0.929-1.072c0.396-0.254,0.84-0.383,1.328-0.383c0.647,0,1.168,0.23,1.56,0.693
			c0.392,0.461,0.588,1.172,0.588,2.135v0.195h-3.76c0,0.379,0.079,0.725,0.237,1.037c0.157,0.312,0.364,0.549,0.623,0.705
			c0.258,0.156,0.55,0.234,0.879,0.234c0.586,0,1.233-0.195,1.942-0.586V301.469z M155.663,298.57h2.72v-0.131
			c0-0.445-0.108-0.799-0.326-1.062c-0.219-0.264-0.51-0.396-0.874-0.396c-0.368,0-0.687,0.134-0.955,0.4
			C155.958,297.65,155.77,298.049,155.663,298.57z"/>
		<path fill="#666666" d="M161.319,301.545v-0.963c0.365,0.238,0.75,0.404,1.157,0.5c0.406,0.098,0.752,0.145,1.035,0.145
			c0.459,0,0.789-0.074,0.99-0.223c0.202-0.146,0.304-0.332,0.304-0.553c0-0.146-0.048-0.271-0.143-0.377
			c-0.094-0.104-0.329-0.232-0.703-0.385l-0.312-0.127l-0.63-0.25c-0.678-0.265-1.104-0.509-1.279-0.732
			c-0.179-0.221-0.269-0.49-0.269-0.811c0-0.449,0.173-0.818,0.521-1.107c0.347-0.291,0.91-0.436,1.689-0.436
			c0.583,0,1.136,0.086,1.656,0.254v0.825c-0.6-0.215-1.164-0.321-1.691-0.321c-0.386,0-0.687,0.065-0.902,0.201
			c-0.217,0.137-0.325,0.305-0.325,0.506c0,0.194,0.095,0.352,0.283,0.469c0.187,0.117,0.488,0.252,0.909,0.406l0.616,0.225
			c0.563,0.205,0.959,0.428,1.186,0.668c0.229,0.242,0.341,0.543,0.341,0.904c0,0.471-0.182,0.858-0.544,1.164
			c-0.361,0.305-0.942,0.457-1.741,0.457C162.771,301.984,162.055,301.838,161.319,301.545z"/>
		<path fill="#666666" d="M179.15,297.971v0.756h-5.303v-0.756H179.15z M179.15,299.674v0.758h-5.303v-0.758H179.15z"/>
		<path fill="#666666" d="M188.099,297.605c0.279-0.457,0.613-0.801,1.001-1.031c0.387-0.232,0.744-0.348,1.068-0.348
			c0.456,0,0.866,0.196,1.23,0.592c0.365,0.393,0.547,0.99,0.547,1.791c0,0.633-0.121,1.195-0.364,1.69
			c-0.243,0.498-0.564,0.89-0.969,1.179c-0.404,0.287-0.903,0.432-1.499,0.432c-0.169,0-0.43-0.018-0.781-0.053
			c-0.052-0.008-0.13-0.017-0.233-0.025h-0.908v-7.881h0.908V297.605L188.099,297.605z M188.099,298.686v2.342
			c0.329,0.085,0.631,0.128,0.907,0.128c0.551,0,1.014-0.218,1.39-0.648s0.563-1.021,0.563-1.771c0-0.545-0.103-0.953-0.308-1.228
			s-0.438-0.411-0.698-0.411c-0.283,0-0.595,0.145-0.935,0.432C188.679,297.812,188.373,298.199,188.099,298.686z"/>
		<path fill="#666666" d="M198.296,301.469c-0.726,0.344-1.413,0.516-2.061,0.516c-0.492,0-0.931-0.123-1.318-0.366
			c-0.387-0.242-0.696-0.593-0.93-1.045c-0.233-0.455-0.349-0.939-0.349-1.457c0-0.498,0.11-0.978,0.332-1.435
			c0.221-0.459,0.53-0.815,0.928-1.072c0.396-0.254,0.84-0.383,1.328-0.383c0.647,0,1.168,0.23,1.56,0.693
			c0.393,0.461,0.588,1.172,0.588,2.135v0.195h-3.76c0,0.379,0.079,0.725,0.237,1.037c0.157,0.312,0.364,0.549,0.623,0.705
			c0.258,0.156,0.55,0.234,0.879,0.234c0.586,0,1.233-0.195,1.942-0.586V301.469z M194.668,298.57h2.721v-0.131
			c0-0.445-0.109-0.799-0.327-1.062c-0.219-0.264-0.509-0.396-0.874-0.396c-0.368,0-0.687,0.134-0.955,0.4
			C194.963,297.65,194.776,298.049,194.668,298.57z"/>
		<path fill="#666666" d="M204.851,301.676c-0.609,0.205-1.188,0.309-1.738,0.309c-0.547,0-1.033-0.127-1.458-0.379
			s-0.756-0.594-0.994-1.024s-0.355-0.922-0.355-1.474c0-0.825,0.27-1.514,0.808-2.061s1.188-0.82,1.951-0.82
			c0.562,0,1.159,0.105,1.787,0.318v0.873c-0.636-0.289-1.203-0.434-1.704-0.434c-0.332,0-0.646,0.082-0.938,0.246
			s-0.519,0.42-0.679,0.77c-0.16,0.348-0.239,0.705-0.239,1.074c0,0.49,0.154,0.959,0.461,1.406c0.309,0.444,0.79,0.668,1.448,0.668
			c0.199,0,0.395-0.015,0.586-0.041c0.192-0.027,0.547-0.129,1.064-0.306L204.851,301.676L204.851,301.676z"/>
		<path fill="#666666" d="M207.006,301.832v-7.881h0.908v4.951l2.622-2.523h1.202l-2.597,2.5l2.674,2.953h-1.25l-2.651-2.93v2.93
			H207.006L207.006,301.832z"/>
		<path fill="#666666" d="M217.799,301.469c-0.726,0.344-1.412,0.516-2.061,0.516c-0.492,0-0.931-0.123-1.318-0.366
			c-0.387-0.242-0.696-0.593-0.93-1.045c-0.233-0.455-0.349-0.939-0.349-1.457c0-0.498,0.11-0.978,0.332-1.435
			c0.221-0.459,0.53-0.815,0.928-1.072c0.396-0.254,0.84-0.383,1.328-0.383c0.647,0,1.168,0.23,1.56,0.693
			c0.393,0.461,0.588,1.172,0.588,2.135v0.195h-3.76c0,0.379,0.079,0.725,0.237,1.037s0.365,0.549,0.623,0.705
			s0.55,0.234,0.879,0.234c0.586,0,1.233-0.195,1.942-0.586V301.469z M214.171,298.57h2.721v-0.131c0-0.445-0.109-0.799-0.327-1.062
			c-0.218-0.264-0.509-0.396-0.874-0.396c-0.368,0-0.687,0.134-0.955,0.4C214.466,297.65,214.279,298.049,214.171,298.57z"/>
		<path fill="#666666" d="M219.764,301.832v-5.453h0.907v1.191c0.261-0.42,0.575-0.75,0.942-0.986
			c0.368-0.238,0.736-0.357,1.104-0.357c0.321,0,0.614,0.086,0.879,0.256c0.264,0.173,0.447,0.396,0.554,0.673
			c0.105,0.276,0.159,0.819,0.159,1.631v3.047h-0.908v-3.158c0-0.524-0.025-0.87-0.076-1.038c-0.05-0.166-0.143-0.306-0.278-0.412
			c-0.135-0.107-0.281-0.16-0.441-0.16c-0.319,0-0.662,0.149-1.028,0.453c-0.366,0.303-0.668,0.682-0.906,1.139v3.178h-0.907
			V301.832z"/>
		<path fill="#666666" d="M229.912,300.605c-0.276,0.457-0.608,0.801-1,1.03c-0.389,0.232-0.747,0.349-1.072,0.349
			c-0.457,0-0.865-0.197-1.229-0.592c-0.363-0.394-0.545-0.99-0.545-1.791c0-0.634,0.121-1.195,0.362-1.693
			c0.24-0.496,0.563-0.889,0.968-1.176c0.403-0.289,0.904-0.433,1.501-0.433c0.173,0,0.434,0.019,0.782,0.054
			c0.053,0.008,0.131,0.016,0.233,0.024v-2.428h0.908v7.881h-0.908V300.605z M229.912,299.525v-2.342
			c-0.322-0.084-0.623-0.127-0.898-0.127c-0.562,0-1.028,0.217-1.401,0.649s-0.56,1.022-0.56,1.771c0,0.541,0.102,0.948,0.306,1.225
			c0.204,0.275,0.436,0.414,0.697,0.414c0.283,0,0.597-0.146,0.938-0.432C229.336,300.398,229.643,300.012,229.912,299.525z"/>
		<path fill="#666666" d="M237.092,300.998v0.834H233v-7.578h4.021v0.762h-3.033v2.574h2.729v0.756h-2.729v2.652H237.092
			L237.092,300.998z"/>
		<path fill="#666666" d="M240.355,299.068v2.764h-0.986v-7.578h1.885c0.775,0,1.341,0.088,1.695,0.262s0.626,0.43,0.814,0.765
			c0.188,0.336,0.282,0.711,0.282,1.122c0,0.486-0.127,0.938-0.381,1.357s-0.606,0.744-1.062,0.969
			c-0.454,0.228-1.07,0.34-1.85,0.34H240.355L240.355,299.068z M240.355,298.312h0.426c0.608,0,1.061-0.08,1.357-0.238
			c0.296-0.158,0.522-0.385,0.684-0.682c0.159-0.298,0.238-0.617,0.238-0.964c0-0.438-0.144-0.782-0.428-1.036
			c-0.283-0.254-0.847-0.382-1.687-0.382h-0.592L240.355,298.312L240.355,298.312z"/>
		<path fill="#666666" d="M246.119,299.143v-0.758h3.789v0.758H246.119z"/>
		<path fill="#666666" d="M257.162,299.178l-5.303,2.654v-0.844l3.624-1.805l-3.624-1.824v-0.834L257.162,299.178z"/>
		<path fill="#666666" d="M259.609,297.605c0.28-0.457,0.614-0.801,1.002-1.031c0.387-0.232,0.743-0.348,1.068-0.348
			c0.456,0,0.865,0.196,1.229,0.592c0.365,0.393,0.547,0.99,0.547,1.791c0,0.633-0.121,1.195-0.362,1.69
			c-0.242,0.498-0.565,0.89-0.97,1.179c-0.403,0.287-0.903,0.432-1.5,0.432c-0.169,0-0.43-0.018-0.78-0.053
			c-0.053-0.008-0.131-0.017-0.234-0.025v2.119h-0.908v-7.572h0.908V297.605z M259.609,298.686v2.342
			c0.329,0.085,0.632,0.128,0.908,0.128c0.551,0,1.014-0.218,1.39-0.648s0.563-1.021,0.563-1.771c0-0.545-0.103-0.953-0.308-1.228
			s-0.438-0.411-0.699-0.411c-0.282,0-0.594,0.145-0.935,0.432C260.189,297.812,259.883,298.199,259.609,298.686z"/>
		<path fill="#666666" d="M267.515,301.984c-0.78,0-1.405-0.273-1.873-0.818c-0.469-0.545-0.702-1.232-0.702-2.062
			s0.233-1.518,0.702-2.061c0.468-0.545,1.093-0.816,1.873-0.816c0.776,0,1.398,0.271,1.867,0.816
			c0.47,0.543,0.703,1.23,0.703,2.061c0,0.832-0.233,1.519-0.703,2.062C268.914,301.71,268.292,301.984,267.515,301.984z
			 M267.515,301.227c0.483,0,0.868-0.188,1.154-0.565c0.286-0.377,0.431-0.896,0.431-1.558c0-0.658-0.145-1.176-0.431-1.553
			c-0.286-0.379-0.671-0.566-1.154-0.566c-0.487,0-0.874,0.188-1.16,0.566c-0.286,0.377-0.429,0.895-0.429,1.553
			c0,0.66,0.143,1.181,0.429,1.558C266.641,301.039,267.027,301.227,267.515,301.227z"/>
		<path fill="#666666" d="M271.836,301.545v-0.963c0.364,0.238,0.75,0.404,1.156,0.5c0.407,0.098,0.752,0.145,1.035,0.145
			c0.459,0,0.79-0.074,0.992-0.223c0.201-0.146,0.303-0.332,0.303-0.553c0-0.146-0.048-0.271-0.143-0.377
			c-0.095-0.104-0.328-0.232-0.703-0.385l-0.312-0.127l-0.629-0.25c-0.678-0.265-1.104-0.509-1.279-0.732
			c-0.18-0.221-0.27-0.49-0.27-0.811c0-0.449,0.174-0.818,0.521-1.107c0.348-0.291,0.91-0.436,1.689-0.436
			c0.582,0,1.135,0.086,1.656,0.254v0.825c-0.601-0.215-1.164-0.321-1.691-0.321c-0.385,0-0.686,0.065-0.902,0.201
			c-0.217,0.137-0.325,0.305-0.325,0.506c0,0.194,0.095,0.352,0.282,0.469c0.187,0.117,0.488,0.252,0.91,0.406l0.615,0.225
			c0.564,0.205,0.959,0.428,1.187,0.668c0.229,0.242,0.342,0.543,0.342,0.904c0,0.471-0.183,0.858-0.545,1.164
			c-0.363,0.305-0.943,0.457-1.74,0.457C273.287,301.984,272.571,301.838,271.836,301.545z"/>
		<path fill="#666666" d="M282.834,301.613c-0.427,0.178-0.735,0.285-0.928,0.318c-0.192,0.034-0.378,0.053-0.557,0.053
			c-0.382,0-0.729-0.074-1.045-0.221c-0.316-0.146-0.556-0.363-0.717-0.648c-0.161-0.287-0.24-0.73-0.24-1.328v-2.197h-1.363v-0.758
			h1.363v-2.197h0.907v2.197h2.427v0.758h-2.427v2.182c0,0.439,0.053,0.75,0.156,0.931c0.104,0.182,0.242,0.313,0.417,0.397
			c0.175,0.086,0.38,0.127,0.618,0.127c0.438,0,0.901-0.139,1.387-0.414L282.834,301.613L282.834,301.613z"/>
		<path fill="#666666" d="M289.252,303.648c-0.901-0.056-1.662-0.312-2.28-0.765c-0.618-0.454-1.111-1.065-1.481-1.838
			s-0.554-1.545-0.554-2.319c0-0.773,0.184-1.548,0.554-2.318c0.37-0.771,0.863-1.385,1.481-1.84
			c0.618-0.453,1.379-0.709,2.28-0.769v0.757c-0.682,0.062-1.268,0.291-1.758,0.688c-0.491,0.395-0.877,0.898-1.157,1.512
			c-0.279,0.611-0.421,1.268-0.421,1.969s0.142,1.357,0.421,1.969c0.28,0.613,0.666,1.115,1.157,1.511
			c0.49,0.396,1.076,0.623,1.758,0.688V303.648z"/>
		<path fill="#666666" d="M292.793,296.682h-0.629l-0.312-2.729h1.221L292.793,296.682z M294.898,296.682h-0.621L294,293.952h1.191
			L294.898,296.682z"/>
		<path fill="#666666" d="M298.074,302.062h-0.894l4.814-8.033h0.865L298.074,302.062z"/>
		<path fill="#666666" d="M305.795,296.682h-0.629l-0.312-2.729h1.221L305.795,296.682z M307.9,296.682h-0.621l-0.277-2.729h1.191
			L307.9,296.682z"/>
		<path fill="#666666" d="M312.093,303.951v-0.605c0.233-0.061,0.412-0.15,0.534-0.266c0.121-0.116,0.22-0.262,0.293-0.439
			c0.072-0.177,0.109-0.391,0.109-0.643c-0.303,0-0.525-0.086-0.67-0.256c-0.143-0.172-0.215-0.354-0.215-0.549
			c0-0.226,0.08-0.414,0.24-0.57c0.159-0.154,0.345-0.23,0.557-0.23c0.273,0,0.509,0.117,0.707,0.354
			c0.199,0.235,0.299,0.559,0.299,0.969c0,0.359-0.078,0.695-0.233,1.015c-0.156,0.315-0.369,0.588-0.639,0.812
			C312.806,303.766,312.479,303.902,312.093,303.951z"/>
		<path fill="#0071BC" d="M328.268,296.379v5.453h-0.908v-1.195c-0.293,0.449-0.619,0.785-0.977,1.01
			c-0.358,0.226-0.717,0.338-1.074,0.338c-0.319,0-0.611-0.086-0.877-0.258c-0.266-0.17-0.45-0.395-0.555-0.674
			c-0.104-0.277-0.156-0.82-0.156-1.627v-3.047h0.908v3.158c0,0.525,0.024,0.871,0.075,1.037c0.052,0.168,0.144,0.307,0.278,0.414
			c0.135,0.106,0.28,0.16,0.438,0.16c0.318,0,0.661-0.15,1.027-0.451s0.67-0.682,0.911-1.141v-3.179L328.268,296.379
			L328.268,296.379z"/>
		<path fill="#0071BC" d="M330.281,301.832v-5.453h0.908v1.191c0.26-0.42,0.574-0.75,0.941-0.986
			c0.368-0.238,0.735-0.357,1.104-0.357c0.322,0,0.615,0.086,0.879,0.256c0.265,0.173,0.449,0.396,0.556,0.673
			c0.104,0.276,0.157,0.819,0.157,1.631v3.047h-0.907v-3.158c0-0.524-0.025-0.87-0.076-1.038c-0.049-0.166-0.144-0.306-0.277-0.412
			c-0.134-0.107-0.283-0.16-0.441-0.16c-0.319,0-0.661,0.149-1.028,0.453c-0.365,0.303-0.668,0.682-0.904,1.139v3.178h-0.91V301.832
			z"/>
		<path fill="#0071BC" d="M341.343,301.613c-0.426,0.178-0.734,0.285-0.929,0.318c-0.19,0.034-0.377,0.053-0.557,0.053
			c-0.381,0-0.729-0.074-1.045-0.221c-0.314-0.146-0.553-0.363-0.715-0.648c-0.16-0.287-0.242-0.73-0.242-1.328v-2.197h-1.361
			v-0.758h1.361v-2.197h0.908v2.197h2.428v0.758h-2.428v2.182c0,0.439,0.053,0.75,0.156,0.931c0.104,0.182,0.243,0.313,0.418,0.397
			c0.174,0.086,0.381,0.127,0.616,0.127c0.439,0,0.902-0.139,1.388-0.414L341.343,301.613L341.343,301.613z"/>
		<path fill="#0071BC" d="M346.867,300.613c-0.274,0.453-0.608,0.795-0.998,1.025c-0.389,0.229-0.746,0.346-1.071,0.346
			c-0.455,0-0.865-0.197-1.229-0.592c-0.363-0.394-0.545-0.99-0.545-1.791c0-0.634,0.121-1.195,0.361-1.693
			c0.242-0.496,0.563-0.889,0.969-1.176c0.404-0.289,0.904-0.433,1.5-0.433c0.174,0,0.434,0.019,0.781,0.054
			c0.053,0.008,0.131,0.016,0.233,0.024h0.91v3.853c0,0.658,0.07,1.19,0.211,1.602h-0.946
			C346.969,301.535,346.91,301.127,346.867,300.613z M346.871,299.525v-2.342c-0.321-0.084-0.623-0.127-0.899-0.127
			c-0.562,0-1.027,0.217-1.4,0.649s-0.561,1.022-0.561,1.771c0,0.541,0.102,0.948,0.307,1.225c0.203,0.275,0.437,0.414,0.697,0.414
			c0.283,0,0.596-0.146,0.938-0.432C346.296,300.398,346.602,300.012,346.871,299.525z"/>
		<path fill="#0071BC" d="M351.312,301.832v-4.697h-1.514v-0.756h2.422v4.697h1.518v0.756H351.312z M351.166,294.408
			c0-0.205,0.068-0.357,0.21-0.457c0.139-0.102,0.27-0.15,0.395-0.15s0.258,0.049,0.398,0.15c0.139,0.1,0.209,0.252,0.209,0.457
			c0,0.201-0.07,0.352-0.209,0.453c-0.142,0.1-0.273,0.149-0.398,0.149s-0.256-0.051-0.395-0.149
			C351.234,294.76,351.166,294.609,351.166,294.408z"/>
		<path fill="#0071BC" d="M356.285,301.832v-5.453h0.908v1.191c0.26-0.42,0.574-0.75,0.941-0.986
			c0.369-0.238,0.735-0.357,1.104-0.357c0.322,0,0.615,0.086,0.879,0.256c0.265,0.173,0.449,0.396,0.556,0.673
			c0.104,0.276,0.157,0.819,0.157,1.631v3.047h-0.907v-3.158c0-0.524-0.025-0.87-0.076-1.038c-0.049-0.166-0.144-0.306-0.277-0.412
			c-0.134-0.107-0.283-0.16-0.44-0.16c-0.32,0-0.662,0.149-1.029,0.453c-0.365,0.303-0.668,0.682-0.904,1.139v3.178h-0.91V301.832z"
			/>
		<path fill="#0071BC" d="M367.346,301.613c-0.426,0.178-0.734,0.285-0.928,0.318c-0.191,0.034-0.378,0.053-0.558,0.053
			c-0.381,0-0.729-0.074-1.045-0.221c-0.313-0.146-0.553-0.363-0.715-0.648c-0.16-0.287-0.242-0.73-0.242-1.328v-2.197h-1.361
			v-0.758h1.361v-2.197h0.908v2.197h2.428v0.758h-2.428v2.182c0,0.439,0.053,0.75,0.156,0.931c0.104,0.182,0.243,0.313,0.418,0.397
			c0.174,0.086,0.381,0.127,0.616,0.127c0.439,0,0.902-0.139,1.388-0.414L367.346,301.613L367.346,301.613z"/>
		<path fill="#666666" d="M375.378,301.832v-5.453h0.797v1.25c0.25-0.531,0.483-0.896,0.701-1.1
			c0.215-0.201,0.434-0.303,0.655-0.303c0.265,0,0.478,0.104,0.638,0.311c0.161,0.207,0.241,0.5,0.241,0.881v0.293
			c0.107-0.332,0.236-0.602,0.39-0.809c0.149-0.205,0.307-0.371,0.471-0.492c0.162-0.123,0.35-0.184,0.561-0.184
			c0.234,0,0.437,0.1,0.603,0.299c0.166,0.197,0.248,0.594,0.248,1.186v4.121h-0.795v-3.725c0-0.308-0.011-0.517-0.029-0.629
			c-0.02-0.111-0.059-0.197-0.117-0.256c-0.058-0.06-0.123-0.089-0.19-0.089c-0.168,0-0.351,0.13-0.543,0.39
			c-0.195,0.258-0.394,0.688-0.595,1.287v3.021h-0.758v-3.722c0-0.479-0.047-0.764-0.141-0.85c-0.097-0.084-0.181-0.127-0.256-0.127
			c-0.166,0-0.347,0.145-0.537,0.436c-0.189,0.289-0.373,0.66-0.545,1.113v3.148h-0.798V301.832z"/>
		<path fill="#666666" d="M386.824,301.469c-0.725,0.344-1.412,0.516-2.061,0.516c-0.49,0-0.931-0.123-1.318-0.366
			c-0.387-0.242-0.697-0.593-0.93-1.045c-0.232-0.455-0.351-0.939-0.351-1.457c0-0.498,0.111-0.978,0.332-1.435
			c0.224-0.459,0.531-0.815,0.929-1.072c0.397-0.254,0.84-0.383,1.328-0.383c0.647,0,1.168,0.23,1.561,0.693
			c0.394,0.461,0.588,1.172,0.588,2.135v0.195h-3.76c0,0.379,0.08,0.725,0.236,1.037c0.157,0.312,0.366,0.549,0.623,0.705
			c0.258,0.156,0.551,0.234,0.879,0.234c0.586,0,1.233-0.195,1.942-0.586L386.824,301.469L386.824,301.469z M383.197,298.57h2.719
			v-0.131c0-0.445-0.108-0.799-0.325-1.062c-0.22-0.264-0.511-0.396-0.875-0.396c-0.367,0-0.687,0.134-0.955,0.4
			C383.492,297.652,383.305,298.049,383.197,298.57z"/>
		<path fill="#666666" d="M388.854,301.545v-0.963c0.363,0.238,0.75,0.404,1.156,0.5c0.408,0.098,0.752,0.145,1.035,0.145
			c0.459,0,0.789-0.074,0.991-0.223c0.201-0.146,0.304-0.332,0.304-0.553c0-0.146-0.047-0.271-0.144-0.377
			c-0.094-0.104-0.328-0.232-0.703-0.385l-0.312-0.127l-0.629-0.25c-0.678-0.265-1.104-0.509-1.279-0.732
			c-0.18-0.221-0.27-0.49-0.27-0.811c0-0.449,0.174-0.818,0.521-1.107c0.348-0.291,0.91-0.436,1.689-0.436
			c0.582,0,1.135,0.086,1.655,0.254v0.825c-0.6-0.215-1.164-0.321-1.69-0.321c-0.385,0-0.687,0.065-0.902,0.201
			c-0.217,0.137-0.326,0.305-0.326,0.506c0,0.194,0.097,0.352,0.283,0.469s0.488,0.252,0.91,0.406l0.615,0.225
			c0.563,0.205,0.959,0.428,1.186,0.668c0.229,0.242,0.342,0.543,0.342,0.904c0,0.471-0.182,0.858-0.545,1.164
			c-0.362,0.305-0.942,0.457-1.739,0.457C390.305,301.984,389.589,301.838,388.854,301.545z"/>
		<path fill="#666666" d="M395.354,301.545v-0.963c0.365,0.238,0.75,0.404,1.158,0.5c0.406,0.098,0.752,0.145,1.035,0.145
			c0.459,0,0.789-0.074,0.989-0.223c0.203-0.146,0.304-0.332,0.304-0.553c0-0.146-0.047-0.271-0.142-0.377
			c-0.096-0.104-0.33-0.232-0.703-0.385l-0.312-0.127l-0.631-0.25c-0.676-0.265-1.104-0.509-1.279-0.732
			c-0.178-0.221-0.268-0.49-0.268-0.811c0-0.449,0.174-0.818,0.52-1.107c0.348-0.291,0.91-0.436,1.689-0.436
			c0.584,0,1.137,0.086,1.657,0.254v0.825c-0.6-0.215-1.164-0.321-1.692-0.321c-0.385,0-0.687,0.065-0.902,0.201
			c-0.217,0.137-0.324,0.305-0.324,0.506c0,0.194,0.095,0.352,0.283,0.469c0.187,0.117,0.488,0.252,0.908,0.406l0.615,0.225
			c0.563,0.205,0.961,0.428,1.188,0.668c0.228,0.242,0.34,0.543,0.34,0.904c0,0.471-0.182,0.858-0.545,1.164
			c-0.36,0.305-0.94,0.457-1.74,0.457C396.807,301.984,396.091,301.838,395.354,301.545z"/>
		<path fill="#666666" d="M405.378,300.613c-0.277,0.453-0.609,0.795-1,1.025c-0.39,0.229-0.746,0.346-1.07,0.346
			c-0.457,0-0.867-0.197-1.229-0.592c-0.362-0.394-0.545-0.99-0.545-1.791c0-0.634,0.119-1.195,0.361-1.693
			c0.24-0.496,0.563-0.889,0.969-1.176c0.402-0.289,0.904-0.433,1.5-0.433c0.172,0,0.435,0.019,0.781,0.054
			c0.051,0.008,0.129,0.016,0.231,0.024h0.912v3.853c0,0.658,0.07,1.19,0.209,1.602h-0.946
			C405.479,301.535,405.421,301.127,405.378,300.613z M405.382,299.525v-2.342c-0.324-0.084-0.623-0.127-0.9-0.127
			c-0.561,0-1.027,0.217-1.402,0.649c-0.373,0.435-0.559,1.022-0.559,1.771c0,0.541,0.102,0.948,0.305,1.225
			c0.205,0.275,0.438,0.414,0.697,0.414c0.283,0,0.598-0.146,0.939-0.432C404.803,300.398,405.109,300.012,405.382,299.525z"/>
		<path fill="#666666" d="M411.939,300.605c-0.277,0.457-0.609,0.801-1,1.03c-0.389,0.232-0.746,0.349-1.072,0.349
			c-0.457,0-0.866-0.197-1.229-0.592c-0.363-0.394-0.545-0.99-0.545-1.791c0-0.634,0.121-1.195,0.36-1.693
			c0.242-0.496,0.564-0.889,0.97-1.176c0.403-0.289,0.903-0.433,1.5-0.433c0.174,0,0.434,0.019,0.78,0.054
			c0.054,0.008,0.132,0.016,0.234,0.024h0.91v3.856c0,0.918-0.012,1.479-0.035,1.683s-0.062,0.41-0.115,0.617
			c-0.131,0.485-0.428,0.866-0.893,1.147c-0.465,0.279-1.025,0.42-1.685,0.42c-0.662,0-1.332-0.17-2.01-0.508v-0.918
			c0.258,0.176,0.574,0.33,0.951,0.465c0.377,0.138,0.74,0.203,1.094,0.203c0.275,0,0.539-0.043,0.787-0.131
			c0.246-0.088,0.447-0.215,0.6-0.381c0.154-0.166,0.259-0.359,0.314-0.58c0.055-0.219,0.082-0.512,0.082-0.875L411.939,300.605
			L411.939,300.605z M411.939,299.525v-2.342c-0.322-0.084-0.623-0.127-0.9-0.127c-0.561,0-1.026,0.217-1.399,0.649
			s-0.562,1.022-0.562,1.771c0,0.541,0.103,0.948,0.308,1.225c0.203,0.275,0.436,0.414,0.696,0.414c0.283,0,0.597-0.146,0.938-0.432
			C411.363,300.398,411.671,300.012,411.939,299.525z"/>
		<path fill="#666666" d="M419.33,301.469c-0.727,0.344-1.414,0.516-2.061,0.516c-0.492,0-0.932-0.123-1.318-0.366
			c-0.389-0.242-0.696-0.593-0.93-1.045c-0.234-0.455-0.35-0.939-0.35-1.457c0-0.498,0.108-0.978,0.332-1.435
			c0.221-0.459,0.528-0.815,0.928-1.072c0.396-0.254,0.84-0.383,1.328-0.383c0.646,0,1.168,0.23,1.561,0.693
			c0.392,0.461,0.588,1.172,0.588,2.135v0.195h-3.76c0,0.379,0.078,0.725,0.236,1.037c0.157,0.312,0.364,0.549,0.623,0.705
			c0.256,0.156,0.549,0.234,0.879,0.234c0.586,0,1.231-0.195,1.942-0.586L419.33,301.469L419.33,301.469z M415.701,298.57h2.722
			v-0.131c0-0.445-0.109-0.799-0.328-1.062c-0.217-0.264-0.51-0.396-0.873-0.396c-0.369,0-0.687,0.134-0.955,0.4
			C415.998,297.652,415.809,298.049,415.701,298.57z"/>
		<path fill="#666666" d="M421.305,293.801c0.899,0.059,1.662,0.314,2.279,0.768c0.618,0.455,1.112,1.068,1.481,1.841
			s0.555,1.545,0.555,2.317c0,0.775-0.186,1.549-0.555,2.32s-0.863,1.383-1.481,1.838c-0.617,0.453-1.38,0.709-2.279,0.764v-0.756
			c0.68-0.065,1.266-0.295,1.754-0.688c0.49-0.396,0.877-0.896,1.158-1.511c0.28-0.61,0.422-1.268,0.422-1.969
			s-0.142-1.356-0.422-1.969c-0.281-0.613-0.668-1.117-1.158-1.512c-0.488-0.396-1.074-0.625-1.754-0.688V293.801z"/>
		<path fill="#666666" d="M429.109,303.951v-0.605c0.234-0.061,0.412-0.15,0.535-0.266c0.121-0.115,0.219-0.262,0.293-0.439
			c0.072-0.178,0.109-0.391,0.109-0.643c-0.304,0-0.525-0.086-0.67-0.256c-0.144-0.172-0.216-0.354-0.216-0.549
			c0-0.226,0.08-0.414,0.24-0.57c0.158-0.154,0.344-0.23,0.557-0.23c0.273,0,0.511,0.117,0.707,0.354
			c0.199,0.235,0.3,0.559,0.3,0.969c0,0.359-0.078,0.695-0.234,1.015c-0.156,0.315-0.369,0.588-0.637,0.812
			C429.824,303.766,429.496,303.902,429.109,303.951z M429.96,297.818c-0.22,0-0.406-0.078-0.562-0.234s-0.234-0.344-0.234-0.561
			c0-0.224,0.08-0.41,0.238-0.564c0.156-0.154,0.344-0.232,0.56-0.232c0.215,0,0.399,0.078,0.559,0.232s0.236,0.342,0.236,0.564
			c0,0.217-0.078,0.403-0.234,0.561S430.177,297.818,429.96,297.818z"/>
	</g>
	<g>
		<g>
			<path fill="#696C71" d="M176.229,420.119c0.382,0.121,0.692,0.354,0.937,0.695c0.242,0.343,0.363,0.722,0.363,1.138
				c0,0.737-0.24,1.303-0.721,1.696c-0.481,0.395-1.144,0.592-1.982,0.592h-3.056v-7.982h2.795c0.85,0,1.513,0.188,1.989,0.561
				c0.476,0.373,0.715,0.91,0.715,1.611c0,0.416-0.099,0.775-0.292,1.078C176.782,419.812,176.533,420.016,176.229,420.119z
				 M173.084,419.612h1.47c0.943,0,1.417-0.368,1.417-1.105c0-0.719-0.474-1.078-1.417-1.078h-1.47V419.612z M173.084,420.73v2.34
				h1.716c0.45,0,0.798-0.104,1.04-0.312s0.364-0.493,0.364-0.856c0-0.364-0.122-0.65-0.364-0.858s-0.59-0.312-1.04-0.312
				L173.084,420.73L173.084,420.73z"/>
			<path fill="#696C71" d="M182.027,416.258h1.3l3.068,7.982h-1.378l-0.819-2.21h-3.055l-0.819,2.21h-1.365L182.027,416.258z
				 M182.664,417.909l-1.092,2.951h2.184L182.664,417.909z"/>
			<path fill="#696C71" d="M188.794,423.22c-0.688-0.767-1.032-1.757-1.032-2.971c0-1.213,0.345-2.203,1.032-2.971
				c0.689-0.768,1.555-1.15,2.595-1.15c0.884,0,1.606,0.236,2.171,0.709c0.563,0.473,0.923,1.116,1.079,1.931h-1.326
				c-0.348-0.944-0.988-1.417-1.924-1.417c-0.693,0-1.244,0.271-1.651,0.812s-0.61,1.237-0.61,2.086c0,0.85,0.203,1.545,0.61,2.087
				s0.958,0.812,1.651,0.812c0.936,0,1.576-0.478,1.924-1.432h1.326c-0.156,0.824-0.517,1.473-1.079,1.944
				c-0.563,0.472-1.287,0.708-2.171,0.708C190.348,424.37,189.483,423.986,188.794,423.22z"/>
			<path fill="#696C71" d="M197.953,416.258v3.822l3.314-3.822h1.703l-3.225,3.627l3.341,4.355h-1.689l-2.626-3.419l-0.818,0.936
				v2.483H196.6v-7.982H197.953L197.953,416.258z"/>
			<path fill="#696C71" d="M204.816,416.258h5.213v1.196h-3.887v2.105h3.522v1.184h-3.522v2.288h3.887v1.209h-5.213V416.258z"/>
			<path fill="#696C71" d="M218.569,416.258v7.982h-1.04l-4.082-5.812v5.812h-1.3v-7.982h1.273l3.849,5.538v-5.538H218.569z"/>
			<path fill="#696C71" d="M220.988,424.24v-7.982h2.691c1.179,0,2.118,0.362,2.82,1.086c0.701,0.725,1.054,1.692,1.054,2.905
				c0,1.214-0.353,2.183-1.054,2.905c-0.702,0.725-1.643,1.086-2.82,1.086H220.988z M222.341,423.031h1.287
				c0.823,0,1.458-0.247,1.904-0.741s0.669-1.174,0.669-2.041c0-0.866-0.223-1.549-0.669-2.047
				c-0.446-0.499-1.081-0.748-1.904-0.748h-1.287V423.031z"/>
			<path fill="#696C71" d="M232.44,422.03h1.378c0.252,0.798,0.854,1.195,1.808,1.195c0.469,0,0.844-0.105,1.124-0.317
				c0.281-0.213,0.423-0.501,0.423-0.865c0-0.286-0.089-0.514-0.267-0.683s-0.475-0.302-0.891-0.396l-1.353-0.324
				c-1.326-0.312-1.989-1.026-1.989-2.146c0-0.686,0.254-1.25,0.762-1.696c0.507-0.446,1.157-0.67,1.956-0.67
				c0.841,0,1.519,0.197,2.033,0.592c0.516,0.396,0.849,0.935,0.995,1.618h-1.353c-0.251-0.71-0.806-1.064-1.664-1.064
				c-0.433,0-0.782,0.102-1.046,0.306c-0.266,0.203-0.396,0.47-0.396,0.799c0,0.529,0.352,0.876,1.054,1.04l1.391,0.325
				c0.65,0.146,1.157,0.407,1.521,0.78c0.364,0.372,0.547,0.85,0.547,1.43c0,0.737-0.266,1.324-0.793,1.762
				c-0.528,0.438-1.215,0.656-2.055,0.656c-0.85,0-1.559-0.206-2.126-0.617C232.933,423.341,232.579,422.767,232.44,422.03z"/>
			<path fill="#696C71" d="M240.462,416.258h5.213v1.196h-3.887v2.105h3.523v1.184h-3.523v2.288h3.887v1.209h-5.213V416.258z"/>
			<path fill="#696C71" d="M250.107,421.003h-0.962v3.237h-1.354v-7.982h3.081c0.841,0,1.504,0.206,1.989,0.618
				c0.485,0.411,0.728,1.003,0.728,1.774c0,0.657-0.18,1.181-0.539,1.565c-0.358,0.385-0.859,0.631-1.502,0.734l2.314,3.289h-1.534
				L250.107,421.003z M249.146,417.429v2.443h1.703c0.44,0,0.785-0.11,1.032-0.331c0.247-0.222,0.37-0.518,0.37-0.891
				s-0.123-0.67-0.37-0.892c-0.246-0.221-0.592-0.331-1.032-0.331L249.146,417.429L249.146,417.429z"/>
			<path fill="#696C71" d="M259.338,424.24h-1.286l-3.018-7.982h1.417l2.263,6.229l2.263-6.229h1.378L259.338,424.24z"/>
			<path fill="#696C71" d="M265.5,416.258v7.982h-1.353v-7.982H265.5z"/>
			<path fill="#696C71" d="M268.521,423.22c-0.688-0.767-1.033-1.757-1.033-2.971c0-1.213,0.345-2.203,1.033-2.971
				s1.554-1.15,2.594-1.15c0.884,0,1.607,0.236,2.171,0.709c0.564,0.473,0.923,1.116,1.079,1.931h-1.326
				c-0.347-0.944-0.988-1.417-1.924-1.417c-0.693,0-1.244,0.271-1.651,0.812c-0.406,0.541-0.609,1.237-0.609,2.086
				c0,0.85,0.203,1.545,0.609,2.087c0.407,0.542,0.958,0.812,1.651,0.812c0.936,0,1.577-0.478,1.924-1.432h1.326
				c-0.156,0.824-0.516,1.473-1.079,1.944c-0.562,0.472-1.287,0.708-2.171,0.708C270.075,424.37,269.211,423.986,268.521,423.22z"/>
			<path fill="#696C71" d="M276.328,416.258h5.213v1.196h-3.887v2.105h3.523v1.184h-3.523v2.288h3.887v1.209h-5.213V416.258z"/>
		</g>
	</g>
</g>
</svg>
