<svg id="Layer_1" data-name="Layer 1" xmlns="http://www.w3.org/2000/svg" viewBox="0 0 306.46 81.23"><defs><style>.cls-1{fill:#464646;}</style></defs><path class="cls-1" d="M44.65,65H22V16.89H43.43c12.15,0,17.35,5.2,17.35,13.07,0,5.43-3.67,9.25-8.87,10.09,5.81,1.07,10.32,4.89,10.32,11.77C62.23,60.15,55.89,65,44.65,65M31.36,36.91H42.82c5.73,0,8.18-2.52,8.18-6.11s-2.45-6.19-8.18-6.19H31.36Zm0,7.26V57.32H43.58c6,0,8.87-2.52,8.87-6.5s-2.91-6.65-8.87-6.65Z"/><path class="cls-1" d="M96.48,56.86c0,1.76.92,2.6,2.37,2.6a6.67,6.67,0,0,0,2.83-.69v4.89a9.49,9.49,0,0,1-6.35,2.14c-3.82,0-6.72-2.44-7.41-6.5-1.91,4-6.19,6.57-11.77,6.57-6.42,0-10.7-3.43-10.7-9.24,0-6.42,5-9.09,12.84-10.55l9.25-1.75v-1c0-3.74-2-6-5.88-6S75.77,39.59,75,42.87l-8.33-.76C67.82,35.23,73.1,30.42,82,30.42c8.71,0,14.44,4.12,14.44,13Zm-8.94-7.57-6.34,1.3c-4.21.84-6.8,1.91-6.8,5,0,2.37,1.68,4.12,4.66,4.12,4.81,0,8.48-3.59,8.48-9.32Z"/><path class="cls-1" d="M171.6,53.8C169.92,61.44,164,66,155.32,66c-10.39,0-17.88-6.65-17.88-17.27S145,30.42,155.09,30.42c11,0,16.66,7.64,16.66,16.81v2.9H146.46c.3,5.51,4.2,8.87,9.17,8.87,4.51,0,7.26-2,8.56-6Zm-8.79-8.48c-.15-4.36-2.67-8.18-7.79-8.18s-7.87,3.67-8.41,8.18Z"/><path class="cls-1" d="M200.35,40.35a10.26,10.26,0,0,0-5.5-1.45c-4.74,0-7.95,3.36-7.95,9.48V65h-9.17V31.33h9.17v6.43c1.22-3.83,4.74-7.34,9.4-7.34A7.48,7.48,0,0,1,201,31.79Z"/><path class="cls-1" d="M204.9,16.89h9.4v8.94h-9.4ZM214.22,65h-9.17V31.33h9.17Z"/><path class="cls-1" d="M230.94,65h-9.17V31.33h9.17v5.51c1.68-3.82,6-6.42,11-6.42,9,0,12.31,6.11,12.31,13.6V65h-9.17V45.85c0-5.19-2.07-8.17-6.58-8.17-4.66,0-7.56,3.67-7.56,9.32Z"/><path class="cls-1" d="M290.69,56.86c0,1.76.92,2.6,2.37,2.6a6.67,6.67,0,0,0,2.83-.69v4.89a9.49,9.49,0,0,1-6.35,2.14c-3.82,0-6.72-2.44-7.41-6.5-1.91,4-6.19,6.57-11.76,6.57-6.42,0-10.7-3.43-10.7-9.24,0-6.42,5-9.09,12.83-10.55l9.25-1.75v-1c0-3.74-2-6-5.88-6s-5.89,2.29-6.65,5.57l-8.33-.76c1.14-6.88,6.42-11.69,15.36-11.69,8.71,0,14.44,4.12,14.44,13Zm-8.94-7.57-6.34,1.3c-4.21.84-6.8,1.91-6.8,5,0,2.37,1.68,4.12,4.66,4.12,4.81,0,8.48-3.59,8.48-9.32Z"/><polygon class="cls-1" points="105.67 29.41 105.67 15.51 117.31 15.51 117.31 33.86 105.67 29.41"/><polygon class="cls-1" points="105.67 33.76 113.64 36.81 105.67 39.85 105.67 33.76"/><polygon class="cls-1" points="117.31 39.76 117.31 46.49 111.65 65.04 105.67 65.04 105.67 44.21 117.31 39.76"/><polygon class="cls-1" points="132.98 29.41 132.98 15.51 121.34 15.51 121.34 33.86 132.98 29.41"/><polygon class="cls-1" points="132.98 33.76 125.01 36.81 132.98 39.85 132.98 33.76"/><polygon class="cls-1" points="121.34 39.76 121.34 46.49 127 65.04 132.98 65.04 132.98 44.21 121.34 39.76"/></svg>