<?xml version="1.0" encoding="utf-8"?>
<!-- Generator: Adobe Illustrator 16.0.0, SVG Export Plug-In . SVG Version: 6.00 Build 0)  -->
<!DOCTYPE svg PUBLIC "-//W3C//DTD SVG 1.1//EN" "http://www.w3.org/Graphics/SVG/1.1/DTD/svg11.dtd">
<svg version="1.1" id="Layer_1" xmlns="http://www.w3.org/2000/svg" xmlns:xlink="http://www.w3.org/1999/xlink" x="0px" y="0px"
	 width="452.7px" height="497px" viewBox="0 0 452.7 497" style="enable-background:new 0 0 452.7 497;" xml:space="preserve">
<style type="text/css">
<![CDATA[
	.st0{fill:#FFFFFF;stroke:#585A5E;stroke-miterlimit:10;}
	.st1{fill:none;stroke:#FFFFFF;stroke-width:4.5134;stroke-linecap:round;stroke-linejoin:round;stroke-miterlimit:10;}
	.st2{fill:none;stroke:#585A5E;stroke-width:0.7251;stroke-miterlimit:10;}
	.st3{fill:#585A5E;}
	.st4{fill:none;stroke:#585A5E;stroke-linecap:round;stroke-linejoin:round;}
	.st5{fill:#20B5AE;}
	.st6{fill:#20B6AF;}
	.st7{fill:none;stroke:#585A5E;stroke-miterlimit:10;}
	.st8{fill:#FFFFFF;}
	.st9{fill:none;stroke:#20B6AF;stroke-width:0.7252;stroke-miterlimit:10;}
	.st10{fill:none;stroke:#20B6AF;stroke-width:3.3851;stroke-miterlimit:10;}
	.st11{fill:none;stroke:#696C71;stroke-miterlimit:10;}
	.st12{fill:#696C71;}
	.st13{fill:none;stroke:#FFFFFF;stroke-width:4.5134;stroke-miterlimit:10;}
	.st14{fill:none;stroke:#20B6AF;stroke-miterlimit:10;}
	.st15{fill:none;stroke:#585A5E;stroke-linecap:round;stroke-linejoin:round;stroke-dasharray:4.6069,4.6069;}
	.st16{fill:none;stroke:#20B6AF;stroke-width:1.1284;stroke-linecap:round;stroke-linejoin:round;stroke-miterlimit:10;}
	.st17{fill:none;stroke:#20B6AF;stroke-width:1.1284;stroke-miterlimit:10;}
]]>
</style>
<g>
	<g>
		<g>
			<g>
				<line class="st7" x1="87.6" y1="197.4" x2="225.8" y2="197.4"/>
				<g>
					<polygon class="st3" points="224.8,200.9 230.8,197.4 224.8,193.9 					"/>
				</g>
			</g>
		</g>
		<g>
			<g>
				<line class="st7" x1="230.8" y1="321.7" x2="92.7" y2="321.7"/>
				<g>
					<polygon class="st3" points="93.7,318.2 87.6,321.7 93.7,325.1 					"/>
				</g>
			</g>
		</g>
	</g>
	<g>
		<g>
			<g>
				<g>
					<path class="st12" d="M134.7,184.8h-1v3.2h-1.4v-8h3.1c0.8,0,1.5,0.2,2,0.6c0.5,0.4,0.7,1,0.7,1.8c0,0.7-0.2,1.2-0.5,1.6
						c-0.4,0.4-0.9,0.6-1.5,0.7l2.3,3.3h-1.5L134.7,184.8z M133.7,181.2v2.4h1.7c0.4,0,0.8-0.1,1-0.3c0.2-0.2,0.4-0.5,0.4-0.9
						c0-0.4-0.1-0.7-0.4-0.9c-0.2-0.2-0.6-0.3-1-0.3L133.7,181.2L133.7,181.2z"/>
					<path class="st12" d="M140.2,180h5.2v1.2h-3.9v2.1h3.5v1.2h-3.5v2.3h3.9v1.2h-5.2V180z"/>
					<path class="st12" d="M153.1,188.5l-0.6-0.8c-0.5,0.3-1.1,0.4-1.7,0.4c-1.1,0-2-0.4-2.6-1.2c-0.7-0.8-1-1.8-1-3
						c0-1.2,0.3-2.2,1-3c0.7-0.8,1.6-1.2,2.6-1.2c1.1,0,2,0.4,2.7,1.2c0.7,0.8,1,1.8,1,3c0,1.2-0.4,2.2-1.1,3l0.7,0.8L153.1,188.5z
						 M153.1,184c0-0.8-0.2-1.5-0.6-2.1c-0.4-0.5-1-0.8-1.7-0.8s-1.3,0.3-1.7,0.8c-0.4,0.5-0.6,1.2-0.6,2.1c0,0.9,0.2,1.6,0.6,2.1
						c0.4,0.5,1,0.8,1.7,0.8c0.3,0,0.6-0.1,0.9-0.2l-0.7-0.8l0.9-0.7l0.6,0.8C153,185.5,153.1,184.9,153.1,184z"/>
					<path class="st12" d="M161.9,187.3c-0.6,0.6-1.4,0.9-2.3,0.9c-1,0-1.8-0.3-2.3-0.9c-0.6-0.6-0.9-1.4-0.9-2.5V180h1.4v4.7
						c0,1.5,0.6,2.2,1.8,2.2s1.8-0.8,1.8-2.2V180h1.4v4.8C162.8,185.9,162.5,186.7,161.9,187.3z"/>
					<path class="st12" d="M165,180h5.2v1.2h-3.9v2.1h3.5v1.2h-3.5v2.3h3.9v1.2H165V180z"/>
					<path class="st12" d="M171.7,185.8h1.4c0.3,0.8,0.9,1.2,1.8,1.2c0.5,0,0.8-0.1,1.1-0.3c0.3-0.2,0.4-0.5,0.4-0.9
						c0-0.3-0.1-0.5-0.3-0.7c-0.2-0.2-0.5-0.3-0.9-0.4l-1.4-0.3c-1.3-0.3-2-1-2-2.1c0-0.7,0.3-1.2,0.8-1.7c0.5-0.4,1.2-0.7,2-0.7
						c0.8,0,1.5,0.2,2,0.6s0.8,0.9,1,1.6h-1.4c-0.3-0.7-0.8-1.1-1.7-1.1c-0.4,0-0.8,0.1-1,0.3c-0.3,0.2-0.4,0.5-0.4,0.8
						c0,0.5,0.4,0.9,1.1,1l1.4,0.3c0.6,0.1,1.2,0.4,1.5,0.8c0.4,0.4,0.5,0.8,0.5,1.4c0,0.7-0.3,1.3-0.8,1.8
						c-0.5,0.4-1.2,0.7-2.1,0.7c-0.9,0-1.6-0.2-2.1-0.6C172.2,187.1,171.9,186.5,171.7,185.8z"/>
					<path class="st12" d="M179.3,181.2V180h6.7v1.2h-2.7v6.8h-1.4v-6.8H179.3z"/>
				</g>
			</g>
		</g>
	</g>
	<g>
		<g>
			<g>
				<g>
					<path class="st12" d="M256.3,251.1h-1.7v3h-1.4v-8h3.1c0.8,0,1.5,0.2,2,0.6c0.5,0.4,0.7,1.1,0.7,1.9c0,0.8-0.2,1.4-0.7,1.8
						C257.8,250.9,257.2,251.1,256.3,251.1z M257.7,248.6c0-0.4-0.1-0.7-0.4-1c-0.2-0.2-0.6-0.4-1.1-0.4h-1.7v2.7h1.7
						c0.5,0,0.8-0.1,1-0.4C257.6,249.3,257.7,249,257.7,248.6z"/>
					<path class="st12" d="M266.9,247.1c0.7,0.8,1,1.8,1,3s-0.3,2.2-1,3c-0.7,0.8-1.6,1.2-2.7,1.2c-1.1,0-2-0.4-2.6-1.2
						c-0.7-0.8-1-1.8-1-3s0.3-2.2,1-3s1.6-1.2,2.6-1.2S266.2,246.4,266.9,247.1z M265.9,252.2c0.4-0.5,0.6-1.2,0.6-2.1
						s-0.2-1.5-0.6-2.1c-0.4-0.5-1-0.8-1.7-0.8c-0.7,0-1.3,0.3-1.7,0.8c-0.4,0.5-0.6,1.2-0.6,2.1c0,0.9,0.2,1.6,0.6,2.1
						c0.4,0.5,1,0.8,1.7,0.8C264.9,253,265.5,252.7,265.9,252.2z"/>
					<path class="st12" d="M269.3,251.9h1.4c0.3,0.8,0.9,1.2,1.8,1.2c0.5,0,0.8-0.1,1.1-0.3c0.3-0.2,0.4-0.5,0.4-0.9
						c0-0.3-0.1-0.5-0.3-0.7s-0.5-0.3-0.9-0.4l-1.4-0.3c-1.3-0.3-2-1-2-2.1c0-0.7,0.3-1.2,0.8-1.7c0.5-0.4,1.2-0.7,2-0.7
						c0.8,0,1.5,0.2,2,0.6s0.8,0.9,1,1.6h-1.4c-0.2-0.7-0.8-1.1-1.7-1.1c-0.4,0-0.8,0.1-1,0.3c-0.3,0.2-0.4,0.5-0.4,0.8
						c0,0.5,0.4,0.9,1.1,1l1.4,0.3c0.7,0.1,1.2,0.4,1.5,0.8c0.4,0.4,0.5,0.9,0.5,1.4c0,0.7-0.3,1.3-0.8,1.8
						c-0.5,0.4-1.2,0.7-2.1,0.7c-0.8,0-1.6-0.2-2.1-0.6C269.8,253.2,269.4,252.6,269.3,251.9z"/>
					<path class="st12" d="M276.8,247.3v-1.2h6.7v1.2h-2.7v6.8h-1.4v-6.8H276.8z"/>
					<path class="st12" d="M289.4,253.5c-0.6-0.9-0.9-1.9-0.9-3.1s0.3-2.2,0.9-3.1s1.5-1.4,2.5-1.7v1.4c-0.6,0.2-1.2,0.5-1.6,1.1
						c-0.4,0.6-0.6,1.3-0.6,2.2c0,0.9,0.2,1.6,0.6,2.2c0.4,0.6,0.9,1,1.6,1.1v1.4C290.8,254.9,290,254.3,289.4,253.5z"/>
					<path class="st12" d="M296,250.9h-1v3.2h-1.4v-8h3.1c0.8,0,1.5,0.2,2,0.6c0.5,0.4,0.7,1,0.7,1.8c0,0.7-0.2,1.2-0.5,1.6
						c-0.4,0.4-0.9,0.6-1.5,0.7l2.3,3.3h-1.5L296,250.9z M295,247.3v2.4h1.7c0.4,0,0.8-0.1,1-0.3c0.2-0.2,0.4-0.5,0.4-0.9
						s-0.1-0.7-0.4-0.9c-0.2-0.2-0.6-0.3-1-0.3L295,247.3L295,247.3z"/>
					<path class="st12" d="M301.6,246.1h5.2v1.2h-3.9v2.1h3.5v1.2h-3.5v2.3h3.9v1.2h-5.2V246.1z"/>
					<path class="st12" d="M314.5,254.6l-0.6-0.8c-0.5,0.3-1.1,0.4-1.7,0.4c-1.1,0-2-0.4-2.6-1.2c-0.7-0.8-1-1.8-1-3s0.3-2.2,1-3
						s1.6-1.2,2.6-1.2s2,0.4,2.7,1.2s1,1.8,1,3c0,1.2-0.4,2.2-1.1,3l0.7,0.8L314.5,254.6z M314.5,250.1c0-0.8-0.2-1.5-0.6-2.1
						c-0.4-0.5-1-0.8-1.7-0.8c-0.7,0-1.3,0.3-1.7,0.8c-0.4,0.5-0.6,1.2-0.6,2.1c0,0.9,0.2,1.6,0.6,2.1c0.4,0.5,1,0.8,1.7,0.8
						c0.3,0,0.6-0.1,0.9-0.2l-0.7-0.8l0.9-0.7l0.6,0.8C314.3,251.6,314.5,251,314.5,250.1z"/>
					<path class="st12" d="M323.2,253.4c-0.6,0.6-1.4,0.9-2.3,0.9c-1,0-1.8-0.3-2.3-0.9c-0.6-0.6-0.9-1.4-0.9-2.5v-4.8h1.4v4.7
						c0,1.5,0.6,2.2,1.8,2.2c1.2,0,1.8-0.8,1.8-2.2v-4.7h1.4v4.8C324.1,252,323.8,252.8,323.2,253.4z"/>
					<path class="st12" d="M326.4,246.1h5.2v1.2h-3.9v2.1h3.5v1.2h-3.5v2.3h3.9v1.2h-5.2V246.1z"/>
					<path class="st12" d="M333.1,251.9h1.4c0.3,0.8,0.9,1.2,1.8,1.2c0.5,0,0.8-0.1,1.1-0.3c0.3-0.2,0.4-0.5,0.4-0.9
						c0-0.3-0.1-0.5-0.3-0.7c-0.2-0.2-0.5-0.3-0.9-0.4l-1.4-0.3c-1.3-0.3-2-1-2-2.1c0-0.7,0.3-1.2,0.8-1.7c0.5-0.4,1.2-0.7,2-0.7
						c0.8,0,1.5,0.2,2,0.6c0.5,0.4,0.8,0.9,1,1.6h-1.4c-0.3-0.7-0.8-1.1-1.7-1.1c-0.4,0-0.8,0.1-1,0.3c-0.3,0.2-0.4,0.5-0.4,0.8
						c0,0.5,0.4,0.9,1.1,1l1.4,0.3c0.6,0.1,1.2,0.4,1.5,0.8c0.4,0.4,0.5,0.9,0.5,1.4c0,0.7-0.3,1.3-0.8,1.8
						c-0.5,0.4-1.2,0.7-2.1,0.7c-0.8,0-1.6-0.2-2.1-0.6C333.6,253.2,333.2,252.6,333.1,251.9z"/>
					<path class="st12" d="M340.6,247.3v-1.2h6.7v1.2h-2.7v6.8h-1.4v-6.8H340.6z"/>
					<path class="st12" d="M351.1,247.4c0.6,0.9,0.9,1.9,0.9,3.1s-0.3,2.2-0.9,3.1c-0.6,0.9-1.5,1.4-2.5,1.7v-1.4
						c0.7-0.2,1.2-0.5,1.6-1.1c0.4-0.6,0.6-1.3,0.6-2.2c0-0.9-0.2-1.6-0.6-2.2c-0.4-0.6-0.9-1-1.6-1.1v-1.4
						C349.6,245.9,350.5,246.5,351.1,247.4z"/>
				</g>
			</g>
		</g>
	</g>
	<g>
		<g>
			<g>
				<g>
					<path class="st12" d="M131,335.8h-1v3.2h-1.4v-8h3.1c0.8,0,1.5,0.2,2,0.6c0.5,0.4,0.7,1,0.7,1.8c0,0.7-0.2,1.2-0.5,1.6
						c-0.4,0.4-0.9,0.6-1.5,0.7l2.3,3.3h-1.5L131,335.8z M130.1,332.2v2.4h1.7c0.4,0,0.8-0.1,1-0.3s0.4-0.5,0.4-0.9
						s-0.1-0.7-0.4-0.9c-0.2-0.2-0.6-0.3-1-0.3H130.1L130.1,332.2z"/>
					<path class="st12" d="M136.6,331.1h5.2v1.2h-3.9v2.1h3.5v1.2h-3.5v2.3h3.9v1.2h-5.2V331.1z"/>
					<path class="st12" d="M143.3,336.8h1.4c0.3,0.8,0.9,1.2,1.8,1.2c0.5,0,0.8-0.1,1.1-0.3c0.3-0.2,0.4-0.5,0.4-0.9
						c0-0.3-0.1-0.5-0.3-0.7c-0.2-0.2-0.5-0.3-0.9-0.4l-1.4-0.3c-1.3-0.3-2-1-2-2.1c0-0.7,0.3-1.2,0.8-1.7c0.5-0.4,1.2-0.7,2-0.7
						c0.8,0,1.5,0.2,2,0.6c0.5,0.4,0.8,0.9,1,1.6h-1.4c-0.3-0.7-0.8-1.1-1.7-1.1c-0.4,0-0.8,0.1-1,0.3c-0.3,0.2-0.4,0.5-0.4,0.8
						c0,0.5,0.4,0.9,1.1,1l1.4,0.3c0.6,0.1,1.2,0.4,1.5,0.8c0.4,0.4,0.5,0.8,0.5,1.4c0,0.7-0.3,1.3-0.8,1.8
						c-0.5,0.4-1.2,0.7-2.1,0.7c-0.9,0-1.6-0.2-2.1-0.6C143.8,338.1,143.4,337.6,143.3,336.8z"/>
					<path class="st12" d="M154.4,336.1h-1.7v3h-1.4v-8h3.1c0.8,0,1.5,0.2,2,0.7c0.5,0.4,0.7,1.1,0.7,1.9c0,0.8-0.2,1.4-0.7,1.8
						C155.9,335.8,155.2,336.1,154.4,336.1z M155.8,333.6c0-0.4-0.1-0.7-0.4-1c-0.2-0.2-0.6-0.4-1.1-0.4h-1.7v2.7h1.7
						c0.5,0,0.8-0.1,1-0.4C155.6,334.3,155.8,334,155.8,333.6z"/>
					<path class="st12" d="M164.9,332.1c0.7,0.8,1,1.8,1,3s-0.3,2.2-1,3c-0.7,0.8-1.6,1.2-2.7,1.2c-1.1,0-2-0.4-2.6-1.2
						c-0.7-0.8-1-1.8-1-3s0.3-2.2,1-3s1.6-1.2,2.6-1.2C163.4,330.9,164.2,331.3,164.9,332.1z M164,337.1c0.4-0.5,0.6-1.2,0.6-2.1
						s-0.2-1.5-0.6-2.1c-0.4-0.5-1-0.8-1.7-0.8c-0.7,0-1.3,0.3-1.7,0.8c-0.4,0.5-0.6,1.2-0.6,2.1s0.2,1.6,0.6,2.1
						c0.4,0.5,1,0.8,1.7,0.8C163,338,163.5,337.7,164,337.1z"/>
					<path class="st12" d="M174.4,331.1v8h-1l-4.1-5.8v5.8H168v-8h1.3l3.8,5.5v-5.5H174.4z"/>
					<path class="st12" d="M176.2,336.8h1.4c0.3,0.8,0.9,1.2,1.8,1.2c0.5,0,0.8-0.1,1.1-0.3c0.3-0.2,0.4-0.5,0.4-0.9
						c0-0.3-0.1-0.5-0.3-0.7c-0.2-0.2-0.5-0.3-0.9-0.4l-1.4-0.3c-1.3-0.3-2-1-2-2.1c0-0.7,0.3-1.2,0.8-1.7c0.5-0.4,1.2-0.7,2-0.7
						c0.8,0,1.5,0.2,2,0.6c0.5,0.4,0.8,0.9,1,1.6h-1.4c-0.3-0.7-0.8-1.1-1.7-1.1c-0.4,0-0.8,0.1-1,0.3c-0.3,0.2-0.4,0.5-0.4,0.8
						c0,0.5,0.4,0.9,1.1,1l1.4,0.3c0.6,0.1,1.2,0.4,1.5,0.8c0.4,0.4,0.5,0.8,0.5,1.4c0,0.7-0.3,1.3-0.8,1.8
						c-0.5,0.4-1.2,0.7-2.1,0.7c-0.8,0-1.6-0.2-2.1-0.6C176.7,338.1,176.3,337.6,176.2,336.8z"/>
					<path class="st12" d="M184.2,331.1h5.2v1.2h-3.9v2.1h3.5v1.2h-3.5v2.3h3.9v1.2h-5.2V331.1z"/>
				</g>
			</g>
		</g>
	</g>
	<rect x="39.9" y="75.4" class="st8" width="94.7" height="40"/>
	<g>
		<g>
			<path class="st12" d="M65.4,98.2c-0.7-0.8-1-1.8-1-3c0-1.2,0.3-2.2,1-3c0.7-0.8,1.6-1.1,2.6-1.1c0.9,0,1.6,0.2,2.2,0.7
				c0.6,0.5,0.9,1.1,1.1,1.9h-1.3c-0.3-0.9-1-1.4-1.9-1.4c-0.7,0-1.2,0.3-1.6,0.8c-0.4,0.5-0.6,1.2-0.6,2.1c0,0.9,0.2,1.5,0.6,2.1
				c0.4,0.5,1,0.8,1.6,0.8c0.9,0,1.6-0.5,1.9-1.4h1.3c-0.2,0.8-0.5,1.5-1.1,1.9c-0.6,0.5-1.3,0.7-2.2,0.7
				C66.9,99.4,66.1,99,65.4,98.2z"/>
			<path class="st12" d="M75.6,91.3h1.3l3.1,8h-1.4l-0.8-2.2h-3.1l-0.8,2.2h-1.4L75.6,91.3z M76.3,92.9l-1.1,3h2.2L76.3,92.9z"/>
			<path class="st12" d="M81.8,99.3v-8h1.4v6.8H87v1.2H81.8z"/>
			<path class="st12" d="M89,99.3v-8h1.4v6.8h3.8v1.2H89z"/>
			<path class="st12" d="M96.2,91.3h5.2v1.2h-3.9v2.1h3.5v1.2h-3.5v2.3h3.9v1.2h-5.2V91.3z"/>
			<path class="st12" d="M105.9,96h-1v3.2h-1.4v-8h3.1c0.8,0,1.5,0.2,2,0.6c0.5,0.4,0.7,1,0.7,1.8c0,0.7-0.2,1.2-0.5,1.6
				c-0.4,0.4-0.9,0.6-1.5,0.7l2.3,3.3h-1.5L105.9,96z M104.9,92.5v2.4h1.7c0.4,0,0.8-0.1,1-0.3c0.2-0.2,0.4-0.5,0.4-0.9
				c0-0.4-0.1-0.7-0.4-0.9c-0.2-0.2-0.6-0.3-1-0.3L104.9,92.5L104.9,92.5z"/>
		</g>
	</g>
	<rect x="39.9" y="401.8" class="st8" width="94.7" height="40"/>
	<g>
		<g>
			<path class="st12" d="M65.4,424.7c-0.7-0.8-1-1.8-1-3c0-1.2,0.3-2.2,1-3c0.7-0.8,1.6-1.1,2.6-1.1c0.9,0,1.6,0.2,2.2,0.7
				c0.6,0.5,0.9,1.1,1.1,1.9h-1.3c-0.3-0.9-1-1.4-1.9-1.4c-0.7,0-1.2,0.3-1.6,0.8c-0.4,0.5-0.6,1.2-0.6,2.1c0,0.8,0.2,1.5,0.6,2.1
				c0.4,0.5,1,0.8,1.6,0.8c0.9,0,1.6-0.5,1.9-1.4h1.3c-0.2,0.8-0.5,1.5-1.1,1.9c-0.6,0.5-1.3,0.7-2.2,0.7
				C66.9,425.8,66.1,425.4,65.4,424.7z"/>
			<path class="st12" d="M75.6,417.7h1.3l3.1,8h-1.4l-0.8-2.2h-3.1l-0.8,2.2h-1.4L75.6,417.7z M76.3,419.4l-1.1,3h2.2L76.3,419.4z"
				/>
			<path class="st12" d="M81.8,425.7v-8h1.4v6.8H87v1.2H81.8L81.8,425.7z"/>
			<path class="st12" d="M89,425.7v-8h1.4v6.8h3.8v1.2H89L89,425.7z"/>
			<path class="st12" d="M96.2,417.7h5.2v1.2h-3.9v2.1h3.5v1.2h-3.5v2.3h3.9v1.2h-5.2V417.7z"/>
			<path class="st12" d="M105.9,422.4h-1v3.2h-1.4v-8h3.1c0.8,0,1.5,0.2,2,0.6c0.5,0.4,0.7,1,0.7,1.8c0,0.7-0.2,1.2-0.5,1.6
				c-0.4,0.4-0.9,0.6-1.5,0.7l2.3,3.3h-1.5L105.9,422.4z M104.9,418.9v2.4h1.7c0.4,0,0.8-0.1,1-0.3c0.2-0.2,0.4-0.5,0.4-0.9
				s-0.1-0.7-0.4-0.9c-0.2-0.2-0.6-0.3-1-0.3L104.9,418.9L104.9,418.9z"/>
		</g>
	</g>
	<g>
		<g>
			<path class="st12" d="M204,425.7v-8h2.7c1.2,0,2.1,0.4,2.8,1.1c0.7,0.7,1.1,1.7,1.1,2.9s-0.4,2.2-1.1,2.9
				c-0.7,0.7-1.6,1.1-2.8,1.1H204z M205.4,424.5h1.3c0.8,0,1.5-0.2,1.9-0.7c0.4-0.5,0.7-1.2,0.7-2s-0.2-1.5-0.7-2
				c-0.4-0.5-1.1-0.7-1.9-0.7h-1.3V424.5z"/>
			<path class="st12" d="M212.6,417.7h5.2v1.2h-3.9v2.1h3.5v1.2h-3.5v2.3h3.9v1.2h-5.2V417.7L212.6,417.7z"/>
			<path class="st12" d="M221.3,425.7h-1.4v-8h5.1v1.2h-3.7v2.4h3.5v1.2h-3.5V425.7L221.3,425.7z"/>
			<path class="st12" d="M229.4,417.7h1.3l3.1,8h-1.4l-0.8-2.2h-3.1l-0.8,2.2h-1.4L229.4,417.7z M230.1,419.4l-1.1,3h2.2
				L230.1,419.4z"/>
			<path class="st12" d="M241,425c-0.6,0.6-1.4,0.9-2.3,0.9c-1,0-1.8-0.3-2.3-0.9c-0.6-0.6-0.9-1.4-0.9-2.5v-4.8h1.4v4.7
				c0,1.5,0.6,2.2,1.8,2.2s1.8-0.7,1.8-2.2v-4.7h1.4v4.8C241.9,423.6,241.6,424.4,241,425z"/>
			<path class="st12" d="M244.2,425.7v-8h1.4v6.8h3.8v1.2H244.2L244.2,425.7z"/>
			<path class="st12" d="M250.9,418.9v-1.2h6.7v1.2h-2.7v6.8h-1.4v-6.8H250.9z"/>
		</g>
	</g>
	<g>
		<g>
			<path class="st12" d="M204,99.3v-8h2.7c1.2,0,2.1,0.4,2.8,1.1c0.7,0.7,1.1,1.7,1.1,2.9c0,1.2-0.4,2.2-1.1,2.9
				c-0.7,0.7-1.6,1.1-2.8,1.1H204z M205.4,98.1h1.3c0.8,0,1.5-0.2,1.9-0.7c0.4-0.5,0.7-1.2,0.7-2c0-0.9-0.2-1.5-0.7-2
				c-0.4-0.5-1.1-0.7-1.9-0.7h-1.3V98.1z"/>
			<path class="st12" d="M212.6,91.3h5.2v1.2h-3.9v2.1h3.5v1.2h-3.5v2.3h3.9v1.2h-5.2V91.3L212.6,91.3z"/>
			<path class="st12" d="M221.3,99.3h-1.4v-8h5.1v1.2h-3.7v2.4h3.5V96h-3.5V99.3L221.3,99.3z"/>
			<path class="st12" d="M229.4,91.3h1.3l3.1,8h-1.4l-0.8-2.2h-3.1l-0.8,2.2h-1.4L229.4,91.3z M230.1,92.9l-1.1,3h2.2L230.1,92.9z"
				/>
			<path class="st12" d="M241,98.5c-0.6,0.6-1.4,0.9-2.3,0.9c-1,0-1.8-0.3-2.3-0.9c-0.6-0.6-0.9-1.4-0.9-2.5v-4.8h1.4v4.7
				c0,1.5,0.6,2.2,1.8,2.2s1.8-0.7,1.8-2.2v-4.7h1.4v4.8C241.9,97.2,241.6,98,241,98.5z"/>
			<path class="st12" d="M244.2,99.3v-8h1.4v6.8h3.8v1.2H244.2z"/>
			<path class="st12" d="M250.9,92.5v-1.2h6.7v1.2h-2.7v6.8h-1.4v-6.8H250.9z"/>
		</g>
	</g>
	<line class="st11" x1="87.2" y1="115.4" x2="87.2" y2="402.4"/>
	<line class="st2" x1="269.6" y1="114.9" x2="192.1" y2="114.9"/>
	<line class="st2" x1="192.1" y1="402.3" x2="269.6" y2="402.3"/>
	<line class="st11" x1="230.9" y1="115.4" x2="230.9" y2="402.3"/>
	<g>
		<path class="st0" d="M249.2,229.9c0,2.2-1.8,4-4,4h-28.6c-2.2,0-4-1.8-4-4v-8.8c0-2.2,1.8-4,4-4h28.6c2.2,0,4,1.8,4,4V229.9z"/>
		<g>
			<circle class="st3" cx="222.7" cy="225.9" r="2.1"/>
			<circle class="st3" cx="230.9" cy="225.9" r="2.1"/>
			<circle class="st3" cx="239.1" cy="225.9" r="2.1"/>
		</g>
	</g>
	<g>
		<path class="st6" d="M352.4,422.4h-1v3.2h-1.4v-8h3.1c0.8,0,1.5,0.2,2,0.6c0.5,0.4,0.7,1,0.7,1.8c0,0.7-0.2,1.2-0.5,1.6
			c-0.4,0.4-0.9,0.6-1.5,0.7l2.3,3.3h-1.5L352.4,422.4z M351.4,418.9v2.4h1.7c0.4,0,0.8-0.1,1-0.3c0.2-0.2,0.4-0.5,0.4-0.9
			s-0.1-0.7-0.4-0.9c-0.2-0.2-0.6-0.3-1-0.3L351.4,418.9L351.4,418.9z"/>
		<path class="st6" d="M357.9,417.7h5.2v1.2h-3.9v2.1h3.5v1.2h-3.5v2.3h3.9v1.2h-5.2V417.7z"/>
		<path class="st6" d="M369.7,425.7h-1l-2.2-5.6v5.6h-1.3v-8h1.5l2.4,6.1l2.4-6.1h1.5v8h-1.3v-5.6L369.7,425.7z"/>
		<path class="st6" d="M381.5,418.7c0.7,0.8,1,1.8,1,3s-0.3,2.2-1,3c-0.7,0.8-1.6,1.2-2.7,1.2c-1.1,0-2-0.4-2.6-1.2
			c-0.7-0.8-1-1.8-1-3s0.3-2.2,1-3c0.7-0.8,1.6-1.2,2.6-1.2C379.9,417.6,380.8,418,381.5,418.7z M380.5,423.8
			c0.4-0.5,0.6-1.2,0.6-2.1s-0.2-1.5-0.6-2.1c-0.4-0.5-1-0.8-1.7-0.8c-0.7,0-1.3,0.3-1.7,0.8c-0.4,0.5-0.6,1.2-0.6,2.1
			c0,0.9,0.2,1.6,0.6,2.1c0.4,0.5,1,0.8,1.7,0.8C379.5,424.6,380.1,424.3,380.5,423.8z"/>
		<path class="st6" d="M384,418.9v-1.2h6.7v1.2H388v6.8h-1.4v-6.8H384z"/>
		<path class="st6" d="M392.6,417.7h5.2v1.2h-3.9v2.1h3.5v1.2h-3.5v2.3h3.9v1.2h-5.2V417.7z"/>
	</g>
	<g>
		<g>
			<path class="st6" d="M352.4,96h-1v3.2h-1.4v-8h3.1c0.8,0,1.5,0.2,2,0.6c0.5,0.4,0.7,1,0.7,1.8c0,0.7-0.2,1.2-0.5,1.6
				c-0.4,0.4-0.9,0.6-1.5,0.7l2.3,3.3h-1.5L352.4,96z M351.4,92.5v2.4h1.7c0.4,0,0.8-0.1,1-0.3c0.2-0.2,0.4-0.5,0.4-0.9
				s-0.1-0.7-0.4-0.9c-0.2-0.2-0.6-0.3-1-0.3L351.4,92.5L351.4,92.5z"/>
			<path class="st6" d="M357.9,91.3h5.2v1.2h-3.9v2.1h3.5v1.2h-3.5v2.3h3.9v1.2h-5.2V91.3z"/>
			<path class="st6" d="M369.7,99.3h-1l-2.2-5.6v5.6h-1.3v-8h1.5l2.4,6.1l2.4-6.1h1.5v8h-1.3v-5.6L369.7,99.3z"/>
			<path class="st6" d="M381.5,92.3c0.7,0.8,1,1.8,1,3c0,1.2-0.3,2.2-1,3c-0.7,0.8-1.6,1.2-2.7,1.2c-1.1,0-2-0.4-2.6-1.2
				c-0.7-0.8-1-1.8-1-3c0-1.2,0.3-2.2,1-3c0.7-0.8,1.6-1.2,2.6-1.2C379.9,91.2,380.8,91.5,381.5,92.3z M380.5,97.4
				c0.4-0.5,0.6-1.2,0.6-2.1c0-0.8-0.2-1.5-0.6-2.1c-0.4-0.5-1-0.8-1.7-0.8c-0.7,0-1.3,0.3-1.7,0.8c-0.4,0.5-0.6,1.2-0.6,2.1
				c0,0.9,0.2,1.6,0.6,2.1c0.4,0.5,1,0.8,1.7,0.8C379.5,98.2,380.1,97.9,380.5,97.4z"/>
			<path class="st6" d="M384,92.5v-1.2h6.7v1.2H388v6.8h-1.4v-6.8H384z"/>
			<path class="st6" d="M392.6,91.3h5.2v1.2h-3.9v2.1h3.5v1.2h-3.5v2.3h3.9v1.2h-5.2V91.3z"/>
		</g>
	</g>
	<line class="st9" x1="412.8" y1="115.1" x2="335.4" y2="115.1"/>
	<line class="st9" x1="335.4" y1="402.5" x2="412.8" y2="402.5"/>
	<line class="st14" x1="374.1" y1="115.4" x2="374.1" y2="402.5"/>
	<rect x="367.6" y="262.3" class="st5" width="12.7" height="24"/>
	<g id="cXyJnD_1_">
		<g>
			<g>
				<path class="st3" d="M225.5,63.2c-0.2,0.5-0.1,0.8,0.3,1.2c1.3,1.3,2.6,2.5,3.8,3.8c0.2,0.2,0.5,0.4,0.8,0.3
					c0.4-0.1,0.6-0.4,0.6-0.8c0-0.8,0-1.5,0-2.3c0-0.1,0-0.1,0-0.2c1.3,0.1,2.5,0.4,3.5,1.2c1.4,1,2.3,2.3,2.6,4
					c0.4,2,0,3.9-1.4,5.5c-2.2,2.6-5.9,3.2-8.7,1.2c-2-1.4-2.9-3.4-2.8-5.9c0-0.7-0.1-0.8-0.7-0.8c-0.7,0-1.4,0-2.1,0
					c-0.3,0-0.5,0.1-0.5,0.5c-0.2,2.5,0.5,4.8,2,6.8c2.1,2.6,4.8,3.9,8.2,3.8c2.1-0.1,3.9-0.8,5.6-2c0.2-0.1,0.3-0.2,0.5-0.4
					c0.3-0.3,0.6-0.6,0.9-0.9c0.2-0.2,0.3-0.4,0.5-0.6c1.4-2,2.1-4.1,1.9-6.6c-0.1-1.8-0.7-3.4-1.7-4.9c-0.2-0.3-0.4-0.6-0.7-0.9
					c-0.3-0.3-0.6-0.6-0.9-0.9c-0.2-0.1-0.3-0.3-0.5-0.4c-1.2-0.9-2.6-1.6-4.1-1.9c-0.5-0.1-1.1-0.1-1.6-0.2c0-0.1,0-0.2,0-0.3
					c0-0.7,0-1.3,0-2c0-0.5-0.3-0.8-0.7-0.8c-0.2,0-0.3,0.1-0.5,0.1C228.4,60.3,227,61.7,225.5,63.2z"/>
			</g>
		</g>
	</g>
	<g>
		<circle class="st10" cx="374.9" cy="69.1" r="10.7"/>
		<circle class="st10" cx="374.9" cy="69.1" r="5.1"/>
		<g>
			<line class="st1" x1="373.2" y1="67.4" x2="363.2" y2="57.4"/>
			<polyline class="st1" points="366.5,67.7 373.2,67.4 374,60.7 			"/>
			<line class="st13" x1="366.5" y1="67.7" x2="373.2" y2="67.4"/>
		</g>
		<g>
			<line class="st16" x1="373.2" y1="67.4" x2="363.2" y2="57.4"/>
			<polyline class="st16" points="366.5,67.7 373.2,67.4 374,60.7 			"/>
			<line class="st17" x1="366.5" y1="67.7" x2="373.2" y2="67.4"/>
		</g>
	</g>
	<g>
		<g>
			<g>
				<line class="st7" x1="230.9" y1="262.5" x2="364" y2="262.5"/>
				<g>
					<polygon class="st3" points="363,266 369.1,262.5 363,259 					"/>
				</g>
			</g>
		</g>
		<g>
			<g>
				<line class="st4" x1="374.1" y1="286.3" x2="371.8" y2="286.3"/>
				<line class="st15" x1="367.2" y1="286.3" x2="240.5" y2="286.3"/>
				<line class="st4" x1="238.2" y1="286.3" x2="235.8" y2="286.3"/>
				<g>
					<polygon class="st3" points="236.9,282.8 230.8,286.3 236.9,289.8 					"/>
				</g>
			</g>
		</g>
	</g>
</g>
</svg>
