<?xml version="1.0" encoding="utf-8"?>
<!-- Generator: Adobe Illustrator 16.0.4, SVG Export Plug-In . SVG Version: 6.00 Build 0)  -->
<!DOCTYPE svg PUBLIC "-//W3C//DTD SVG 1.1//EN" "http://www.w3.org/Graphics/SVG/1.1/DTD/svg11.dtd">
<svg version="1.1" id="Layer_1" xmlns="http://www.w3.org/2000/svg" xmlns:xlink="http://www.w3.org/1999/xlink" x="0px" y="0px"
	 width="474px" height="497px" viewBox="-11.168 0 474 497" enable-background="new -11.168 0 474 497" xml:space="preserve">
<rect x="-11.168" y="-0.312" fill="#F5F6F6" width="474" height="497.625"/>
<rect x="-5.168" y="25" fill="#FFFFFF" width="463" height="35"/>
<g>
	<g>
		<path fill="#696C71" d="M181.276,44.125h1.378c0.251,0.797,0.854,1.196,1.807,1.196c0.468,0,0.843-0.106,1.125-0.318
			s0.423-0.5,0.423-0.864c0-0.286-0.089-0.514-0.267-0.683c-0.178-0.169-0.475-0.301-0.891-0.396l-1.352-0.325
			c-1.326-0.312-1.989-1.027-1.989-2.145c0-0.685,0.253-1.25,0.76-1.696c0.507-0.446,1.159-0.669,1.957-0.669
			c0.841,0,1.519,0.197,2.035,0.591c0.516,0.395,0.847,0.934,0.995,1.619h-1.352c-0.251-0.71-0.806-1.066-1.664-1.066
			c-0.434,0-0.782,0.102-1.046,0.305c-0.265,0.204-0.397,0.47-0.397,0.8c0,0.528,0.351,0.875,1.053,1.04l1.391,0.325
			c0.65,0.147,1.157,0.408,1.521,0.78c0.364,0.373,0.546,0.849,0.546,1.43c0,0.737-0.265,1.324-0.793,1.762
			c-0.529,0.438-1.213,0.656-2.054,0.656c-0.849,0-1.558-0.206-2.125-0.617C181.769,45.437,181.415,44.862,181.276,44.125z"/>
		<path fill="#696C71" d="M189.297,38.354h5.213v1.196h-3.887v2.106h3.523v1.183h-3.523v2.288h3.887v1.209h-5.213V38.354z"/>
		<path fill="#696C71" d="M198.944,43.099h-0.962v3.237h-1.352v-7.982h3.081c0.841,0,1.504,0.206,1.989,0.618
			s0.728,1.003,0.728,1.774c0,0.659-0.18,1.181-0.54,1.566c-0.36,0.386-0.86,0.63-1.501,0.734l2.314,3.289h-1.534L198.944,43.099z
			 M197.982,39.523v2.444h1.703c0.442,0,0.787-0.11,1.034-0.332c0.247-0.221,0.37-0.518,0.37-0.89s-0.123-0.669-0.37-0.891
			s-0.592-0.332-1.034-0.332H197.982z"/>
		<path fill="#696C71" d="M208.174,46.335h-1.287l-3.016-7.982h1.417l2.262,6.227l2.262-6.227h1.378L208.174,46.335z"/>
		<path fill="#696C71" d="M214.335,38.354v7.982h-1.352v-7.982H214.335z"/>
		<path fill="#696C71" d="M217.357,45.315c-0.689-0.767-1.033-1.757-1.033-2.971c0-1.213,0.344-2.203,1.033-2.97
			c0.689-0.767,1.554-1.15,2.594-1.15c0.884,0,1.607,0.236,2.171,0.708c0.563,0.472,0.923,1.116,1.079,1.93h-1.326
			c-0.347-0.944-0.988-1.417-1.924-1.417c-0.693,0-1.244,0.271-1.651,0.812c-0.408,0.542-0.611,1.237-0.611,2.086
			c0,0.85,0.204,1.545,0.611,2.087c0.407,0.542,0.958,0.812,1.651,0.812c0.936,0,1.577-0.477,1.924-1.43h1.326
			c-0.156,0.823-0.516,1.471-1.079,1.943c-0.563,0.473-1.287,0.708-2.171,0.708C218.911,46.465,218.047,46.082,217.357,45.315z"/>
		<path fill="#696C71" d="M225.164,38.354h5.213v1.196h-3.887v2.106h3.523v1.183h-3.523v2.288h3.887v1.209h-5.213V38.354z"/>
		<path fill="#696C71" d="M236.02,46.335v-7.982h1.352v6.773h3.835v1.209H236.02z"/>
		<path fill="#696C71" d="M249.137,39.387c0.693,0.776,1.039,1.762,1.039,2.958c0,1.196-0.346,2.182-1.039,2.958
			c-0.693,0.776-1.578,1.164-2.652,1.164c-1.075,0-1.957-0.388-2.646-1.164c-0.688-0.775-1.033-1.761-1.033-2.958
			c0-1.196,0.345-2.182,1.033-2.958c0.689-0.775,1.571-1.163,2.646-1.163C247.559,38.224,248.443,38.611,249.137,39.387z
			 M248.168,44.438c0.429-0.546,0.643-1.244,0.643-2.093c0-0.849-0.214-1.547-0.643-2.093c-0.43-0.546-0.99-0.819-1.684-0.819
			s-1.253,0.271-1.678,0.812c-0.424,0.542-0.637,1.241-0.637,2.099c0,0.858,0.213,1.558,0.637,2.1
			c0.425,0.542,0.984,0.812,1.678,0.812S247.738,44.983,248.168,44.438z"/>
		<path fill="#696C71" d="M257.599,43.372h-1.741v-1.157h3.028v0.624c0,1.092-0.318,1.97-0.956,2.633
			c-0.637,0.663-1.449,0.994-2.438,0.994c-1.083,0-1.98-0.383-2.69-1.15c-0.711-0.767-1.065-1.757-1.065-2.971
			c0-1.213,0.353-2.203,1.059-2.97c0.707-0.767,1.588-1.15,2.646-1.15c0.893,0,1.622,0.234,2.189,0.702
			c0.568,0.468,0.93,1.11,1.086,1.924h-1.352c-0.174-0.459-0.41-0.808-0.709-1.047c-0.299-0.238-0.704-0.357-1.215-0.357
			c-0.703,0-1.268,0.271-1.697,0.812c-0.429,0.542-0.644,1.237-0.644,2.086c0,0.858,0.217,1.56,0.65,2.106
			c0.433,0.546,1.014,0.819,1.741,0.819c0.59,0,1.066-0.171,1.431-0.514C257.287,44.414,257.512,43.952,257.599,43.372z"/>
		<path fill="#696C71" d="M262.227,38.354v7.982h-1.352v-7.982H262.227z"/>
		<path fill="#696C71" d="M265.25,45.315c-0.689-0.767-1.033-1.757-1.033-2.971c0-1.213,0.344-2.203,1.033-2.97
			s1.553-1.15,2.594-1.15c0.883,0,1.607,0.236,2.17,0.708c0.564,0.472,0.924,1.116,1.08,1.93h-1.326
			c-0.348-0.944-0.988-1.417-1.924-1.417c-0.693,0-1.244,0.271-1.651,0.812c-0.407,0.542-0.611,1.237-0.611,2.086
			c0,0.85,0.204,1.545,0.611,2.087s0.958,0.812,1.651,0.812c0.936,0,1.576-0.477,1.924-1.43h1.326
			c-0.156,0.823-0.516,1.471-1.08,1.943c-0.562,0.473-1.287,0.708-2.17,0.708C266.803,46.465,265.939,46.082,265.25,45.315z"/>
	</g>
</g>
<rect x="-5.168" y="70" fill="#FFFFFF" width="463" height="358"/>
<g>
	<g>
		<path fill="#696C71" d="M166.644,86.247c0.381,0.122,0.693,0.354,0.936,0.696s0.364,0.721,0.364,1.137
			c0,0.737-0.241,1.302-0.722,1.697c-0.481,0.394-1.142,0.591-1.982,0.591h-3.055v-7.982h2.795c0.849,0,1.512,0.187,1.989,0.559
			s0.715,0.91,0.715,1.612c0,0.416-0.097,0.776-0.292,1.079C167.196,85.939,166.947,86.143,166.644,86.247z M163.498,85.74h1.469
			c0.944,0,1.417-0.368,1.417-1.105c0-0.719-0.473-1.079-1.417-1.079h-1.469V85.74z M163.498,86.858v2.34h1.716
			c0.451,0,0.797-0.104,1.04-0.312c0.242-0.208,0.364-0.494,0.364-0.858c0-0.364-0.122-0.65-0.364-0.858
			c-0.243-0.208-0.589-0.312-1.04-0.312H163.498z"/>
		<path fill="#696C71" d="M172.442,82.386h1.3l3.068,7.982h-1.378l-0.819-2.21h-3.055l-0.819,2.21h-1.365L172.442,82.386z
			 M173.079,84.037l-1.092,2.951h2.184L173.079,84.037z"/>
		<path fill="#696C71" d="M178.604,90.368v-7.982h1.352v6.773h3.835v1.209H178.604z"/>
		<path fill="#696C71" d="M185.818,90.368v-7.982h1.352v6.773h3.835v1.209H185.818z"/>
		<path fill="#696C71" d="M193.033,82.386h5.213v1.196h-3.887v2.106h3.523v1.183h-3.523v2.288h3.887v1.209h-5.213V82.386z"/>
		<path fill="#696C71" d="M202.68,87.131h-0.962v3.237h-1.352v-7.982h3.081c0.841,0,1.504,0.206,1.989,0.618
			s0.728,1.003,0.728,1.774c0,0.659-0.18,1.181-0.54,1.566c-0.36,0.386-0.86,0.63-1.501,0.734l2.314,3.289h-1.534L202.68,87.131z
			 M201.717,83.556V86h1.703c0.442,0,0.787-0.11,1.034-0.332c0.247-0.221,0.37-0.518,0.37-0.89s-0.123-0.669-0.37-0.891
			s-0.592-0.332-1.034-0.332H201.717z"/>
		<path fill="#696C71" d="M209.582,82.386v7.982h-1.352v-7.982H209.582z"/>
		<path fill="#696C71" d="M218.422,82.386v7.982h-1.04l-4.082-5.811v5.811H212v-7.982h1.274l3.848,5.538v-5.538H218.422z"/>
		<path fill="#696C71" d="M223.284,82.386h1.3l3.068,7.982h-1.378l-0.819-2.21H222.4l-0.819,2.21h-1.365L223.284,82.386z
			 M223.921,84.037l-1.092,2.951h2.184L223.921,84.037z"/>
		<path fill="#696C71" d="M235.283,87.131h-0.963v3.237h-1.352v-7.982h3.081c0.841,0,1.504,0.206,1.989,0.618
			s0.729,1.003,0.729,1.774c0,0.659-0.181,1.181-0.54,1.566c-0.36,0.386-0.86,0.63-1.501,0.734l2.313,3.289h-1.534L235.283,87.131z
			 M234.32,83.556V86h1.703c0.442,0,0.787-0.11,1.034-0.332c0.247-0.221,0.37-0.518,0.37-0.89s-0.123-0.669-0.37-0.891
			s-0.592-0.332-1.034-0.332H234.32z"/>
		<path fill="#696C71" d="M246.235,89.646c-0.577,0.568-1.354,0.852-2.333,0.852c-0.98,0-1.758-0.284-2.334-0.852
			c-0.576-0.567-0.865-1.389-0.865-2.463v-4.797h1.353v4.654c0,1.5,0.615,2.249,1.847,2.249c1.23,0,1.846-0.75,1.846-2.249v-4.654
			h1.352v4.81C247.1,88.262,246.812,89.079,246.235,89.646z"/>
		<path fill="#696C71" d="M255.81,82.386v7.982h-1.04l-4.082-5.811v5.811h-1.301v-7.982h1.275l3.848,5.538v-5.538H255.81z"/>
		<path fill="#696C71" d="M261.256,83.582v-1.196h6.656v1.196h-2.652v6.786h-1.352v-6.786H261.256z"/>
		<path fill="#696C71" d="M271.188,82.386v7.982h-1.352v-7.982H271.188z"/>
		<path fill="#696C71" d="M278.053,90.368h-0.963l-2.197-5.551v5.551h-1.287v-7.982h1.548l2.431,6.136l2.405-6.136h1.508v7.982h-1.3
			v-5.551L278.053,90.368z"/>
		<path fill="#696C71" d="M283.915,82.386h5.214v1.196h-3.888v2.106h3.522v1.183h-3.522v2.288h3.888v1.209h-5.214V82.386z"/>
	</g>
</g>
<rect x="4.216" y="180.833" fill="#F5F6F6" width="442.232" height="75"/>
<g>
	<g>
		<path fill="#696C71" d="M191.35,199.154c0.381,0.122,0.693,0.354,0.936,0.696s0.364,0.721,0.364,1.137
			c0,0.737-0.241,1.302-0.722,1.697c-0.481,0.394-1.142,0.591-1.982,0.591h-3.055v-7.982h2.795c0.849,0,1.512,0.187,1.989,0.559
			s0.715,0.91,0.715,1.612c0,0.416-0.097,0.776-0.292,1.079C191.903,198.847,191.654,199.05,191.35,199.154z M188.204,198.647h1.469
			c0.944,0,1.417-0.368,1.417-1.105c0-0.719-0.473-1.079-1.417-1.079h-1.469V198.647z M188.204,199.766v2.34h1.716
			c0.451,0,0.797-0.104,1.04-0.312c0.242-0.208,0.364-0.494,0.364-0.858c0-0.364-0.122-0.65-0.364-0.858
			c-0.243-0.208-0.589-0.312-1.04-0.312H188.204z"/>
		<path fill="#696C71" d="M200.106,202.554c-0.577,0.568-1.354,0.852-2.333,0.852c-0.979,0-1.757-0.284-2.333-0.852
			c-0.577-0.567-0.865-1.389-0.865-2.463v-4.797h1.352v4.654c0,1.5,0.615,2.249,1.846,2.249c1.23,0,1.846-0.75,1.846-2.249v-4.654
			h1.352v4.81C200.97,201.169,200.682,201.986,200.106,202.554z"/>
		<path fill="#696C71" d="M204.61,195.293v7.982h-1.352v-7.982H204.61z"/>
		<path fill="#696C71" d="M207.028,203.275v-7.982h1.352v6.773h3.835v1.209H207.028z"/>
		<path fill="#696C71" d="M213.749,196.489v-1.196h6.656v1.196h-2.652v6.786h-1.352v-6.786H213.749z"/>
		<path fill="#696C71" d="M221.965,200.455v-1.183h3.133v1.183H221.965z"/>
		<path fill="#696C71" d="M228.504,195.293v7.982h-1.353v-7.982H228.504z"/>
		<path fill="#696C71" d="M237.344,195.293v7.982h-1.04l-4.082-5.811v5.811h-1.3v-7.982h1.273l3.848,5.538v-5.538H237.344z"/>
		<path fill="#696C71" d="M248.861,203.809l-0.65-0.806c-0.512,0.269-1.07,0.403-1.677,0.403c-1.075,0-1.956-0.388-2.646-1.164
			c-0.689-0.775-1.033-1.761-1.033-2.958c0-1.196,0.344-2.182,1.033-2.958c0.689-0.775,1.57-1.163,2.646-1.163
			s1.959,0.388,2.652,1.163c0.693,0.776,1.04,1.762,1.04,2.958c0,1.222-0.369,2.223-1.105,3.003l0.663,0.819L248.861,203.809z
			 M248.861,199.284c0-0.849-0.215-1.547-0.644-2.093s-0.99-0.819-1.684-0.819s-1.253,0.271-1.677,0.812
			c-0.425,0.542-0.637,1.241-0.637,2.099c0,0.858,0.212,1.558,0.637,2.1c0.424,0.542,0.983,0.812,1.677,0.812
			c0.329,0,0.633-0.052,0.91-0.156l-0.663-0.819l0.936-0.689l0.638,0.793C248.692,200.823,248.861,200.143,248.861,199.284z"/>
		<path fill="#696C71" d="M256.447,198.218c0.507,0.563,0.76,1.287,0.76,2.171c0,0.884-0.253,1.608-0.76,2.171
			c-0.508,0.563-1.168,0.845-1.982,0.845c-0.815,0-1.477-0.281-1.982-0.845c-0.508-0.563-0.762-1.287-0.762-2.171
			c0-0.884,0.254-1.607,0.762-2.171c0.506-0.563,1.167-0.845,1.982-0.845C255.279,197.374,255.939,197.655,256.447,198.218z
			 M255.53,201.761c0.251-0.351,0.377-0.808,0.377-1.372c0-0.563-0.126-1.021-0.377-1.371c-0.251-0.351-0.606-0.527-1.065-0.527
			c-0.46,0-0.815,0.176-1.066,0.527c-0.252,0.351-0.377,0.808-0.377,1.371c0,0.563,0.125,1.021,0.377,1.372
			c0.251,0.351,0.606,0.527,1.066,0.527C254.924,202.288,255.279,202.112,255.53,201.761z"/>
		<path fill="#696C71" d="M258.52,201.065h1.379c0.251,0.797,0.854,1.196,1.807,1.196c0.469,0,0.843-0.106,1.125-0.318
			c0.281-0.212,0.422-0.5,0.422-0.864c0-0.286-0.089-0.514-0.266-0.683c-0.178-0.169-0.475-0.301-0.891-0.396l-1.353-0.325
			c-1.325-0.312-1.989-1.027-1.989-2.145c0-0.685,0.254-1.25,0.761-1.696s1.159-0.669,1.956-0.669c0.842,0,1.52,0.197,2.035,0.591
			c0.516,0.395,0.848,0.934,0.994,1.619h-1.352c-0.252-0.71-0.807-1.066-1.664-1.066c-0.434,0-0.782,0.102-1.047,0.305
			c-0.264,0.204-0.396,0.47-0.396,0.8c0,0.528,0.352,0.875,1.053,1.04l1.392,0.325c0.649,0.147,1.157,0.408,1.521,0.78
			c0.364,0.373,0.547,0.849,0.547,1.43c0,0.737-0.266,1.324-0.793,1.762c-0.529,0.438-1.214,0.656-2.055,0.656
			c-0.85,0-1.558-0.206-2.125-0.617C259.012,202.376,258.658,201.802,258.52,201.065z"/>
	</g>
</g>
<rect x="13.753" y="216.306" fill="#FFFFFF" width="101.284" height="30.003"/>
<rect x="121.377" y="216.306" fill="#FFFFFF" width="101.286" height="30.003"/>
<rect x="229.002" y="216.306" fill="#FFFFFF" width="101.283" height="30.003"/>
<rect x="336.627" y="216.306" fill="#FFFFFF" width="101.284" height="30.003"/>
<g>
	<g>
		<path fill="#696C71" d="M34.996,231.859h-0.888v2.988h-1.248v-7.368h2.844c0.776,0,1.388,0.19,1.836,0.57
			c0.448,0.38,0.672,0.926,0.672,1.638c0,0.608-0.166,1.09-0.498,1.446s-0.794,0.582-1.386,0.678l2.136,3.036h-1.416L34.996,231.859
			z M34.107,228.559v2.256h1.572c0.408,0,0.726-0.102,0.954-0.306s0.342-0.478,0.342-0.822c0-0.344-0.114-0.618-0.342-0.822
			s-0.546-0.306-0.954-0.306H34.107z"/>
		<path fill="#696C71" d="M40.12,227.479h4.812v1.104h-3.588v1.944h3.252v1.092h-3.252v2.112h3.588v1.116H40.12V227.479z"/>
		<path fill="#696C71" d="M46.312,232.807h1.272c0.232,0.736,0.788,1.104,1.668,1.104c0.432,0,0.778-0.098,1.038-0.294
			c0.26-0.196,0.39-0.462,0.39-0.798c0-0.264-0.082-0.474-0.246-0.63c-0.164-0.156-0.438-0.278-0.822-0.366l-1.248-0.3
			c-1.224-0.288-1.836-0.948-1.836-1.98c0-0.632,0.234-1.154,0.702-1.566c0.468-0.412,1.07-0.618,1.806-0.618
			c0.776,0,1.402,0.182,1.878,0.546s0.782,0.862,0.918,1.494h-1.248c-0.232-0.656-0.744-0.984-1.536-0.984
			c-0.4,0-0.722,0.094-0.966,0.282c-0.244,0.188-0.366,0.434-0.366,0.738c0,0.488,0.324,0.808,0.972,0.96l1.284,0.3
			c0.6,0.136,1.068,0.376,1.404,0.72c0.336,0.344,0.504,0.784,0.504,1.32c0,0.68-0.244,1.222-0.732,1.626
			c-0.488,0.404-1.12,0.606-1.896,0.606c-0.784,0-1.438-0.19-1.962-0.57C46.766,234.017,46.439,233.487,46.312,232.807z"/>
		<path fill="#696C71" d="M54.963,227.479v7.368h-1.248v-7.368H54.963z"/>
		<path fill="#696C71" d="M57.195,234.847v-7.368h1.248v6.252h3.54v1.116H57.195z"/>
		<path fill="#696C71" d="M65.104,227.479v7.368h-1.248v-7.368H65.104z"/>
		<path fill="#696C71" d="M67.335,227.479h4.812v1.104H68.56v1.944h3.252v1.092H68.56v2.112h3.588v1.116h-4.812V227.479z"/>
		<path fill="#696C71" d="M80.032,227.479v7.368h-0.96l-3.768-5.364v5.364h-1.2v-7.368h1.176l3.552,5.112v-5.112H80.032z"/>
		<path fill="#696C71" d="M82.821,233.905c-0.636-0.708-0.954-1.622-0.954-2.742c0-1.12,0.318-2.034,0.954-2.742
			c0.636-0.708,1.434-1.062,2.394-1.062c0.816,0,1.484,0.218,2.004,0.654s0.852,1.03,0.996,1.782h-1.224
			c-0.32-0.872-0.912-1.308-1.776-1.308c-0.64,0-1.148,0.25-1.524,0.75c-0.376,0.5-0.564,1.142-0.564,1.926
			c0,0.784,0.188,1.426,0.564,1.926c0.376,0.5,0.884,0.75,1.524,0.75c0.864,0,1.456-0.44,1.776-1.32h1.224
			c-0.144,0.76-0.476,1.358-0.996,1.794c-0.52,0.437-1.188,0.654-2.004,0.654C84.255,234.967,83.457,234.613,82.821,233.905z"/>
		<path fill="#696C71" d="M92.703,230.779l1.944-3.3h1.32l-2.676,4.428v2.94h-1.236v-2.94l-2.664-4.428h1.356L92.703,230.779z"/>
	</g>
</g>
<g>
	<g>
		<path fill="#696C71" d="M128.61,228.583v-1.104h6.144v1.104h-2.448v6.264h-1.248v-6.264H128.61z"/>
		<path fill="#696C71" d="M138.666,231.859h-0.888v2.988h-1.248v-7.368h2.844c0.776,0,1.388,0.19,1.836,0.57
			c0.448,0.38,0.672,0.926,0.672,1.638c0,0.608-0.166,1.09-0.498,1.446s-0.794,0.582-1.386,0.678l2.136,3.036h-1.416
			L138.666,231.859z M137.778,228.559v2.256h1.572c0.408,0,0.726-0.102,0.954-0.306s0.342-0.478,0.342-0.822
			c0-0.344-0.114-0.618-0.342-0.822s-0.546-0.306-0.954-0.306H137.778z"/>
		<path fill="#696C71" d="M146.046,227.479h1.2l2.832,7.368h-1.272l-0.756-2.04h-2.82l-0.756,2.04h-1.26L146.046,227.479z
			 M146.634,229.002l-1.008,2.724h2.016L146.634,229.002z"/>
		<path fill="#696C71" d="M157.662,227.479v7.368h-0.96l-3.768-5.364v5.364h-1.2v-7.368h1.176l3.552,5.112v-5.112H157.662z"/>
		<path fill="#696C71" d="M159.318,232.807h1.272c0.232,0.736,0.788,1.104,1.668,1.104c0.432,0,0.778-0.098,1.038-0.294
			c0.26-0.196,0.39-0.462,0.39-0.798c0-0.264-0.082-0.474-0.246-0.63c-0.164-0.156-0.438-0.278-0.822-0.366l-1.248-0.3
			c-1.224-0.288-1.836-0.948-1.836-1.98c0-0.632,0.234-1.154,0.702-1.566c0.468-0.412,1.07-0.618,1.806-0.618
			c0.776,0,1.402,0.182,1.878,0.546s0.782,0.862,0.918,1.494h-1.248c-0.232-0.656-0.744-0.984-1.536-0.984
			c-0.4,0-0.722,0.094-0.966,0.282c-0.244,0.188-0.366,0.434-0.366,0.738c0,0.488,0.324,0.808,0.972,0.96l1.284,0.3
			c0.6,0.136,1.068,0.376,1.404,0.72c0.336,0.344,0.504,0.784,0.504,1.32c0,0.68-0.244,1.222-0.732,1.626
			c-0.488,0.404-1.12,0.606-1.896,0.606c-0.784,0-1.438-0.19-1.962-0.57C159.771,234.017,159.445,233.487,159.318,232.807z"/>
		<path fill="#696C71" d="M168.978,227.479h1.2l2.832,7.368h-1.272l-0.756-2.04h-2.82l-0.756,2.04h-1.26L168.978,227.479z
			 M169.566,229.002l-1.008,2.724h2.016L169.566,229.002z"/>
		<path fill="#696C71" d="M175.224,233.905c-0.636-0.708-0.954-1.622-0.954-2.742c0-1.12,0.318-2.034,0.954-2.742
			c0.636-0.708,1.434-1.062,2.394-1.062c0.816,0,1.484,0.218,2.004,0.654s0.852,1.03,0.996,1.782h-1.224
			c-0.32-0.872-0.912-1.308-1.776-1.308c-0.64,0-1.148,0.25-1.524,0.75c-0.376,0.5-0.564,1.142-0.564,1.926
			c0,0.784,0.188,1.426,0.564,1.926c0.376,0.5,0.884,0.75,1.524,0.75c0.864,0,1.456-0.44,1.776-1.32h1.224
			c-0.144,0.76-0.476,1.358-0.996,1.794c-0.52,0.437-1.188,0.654-2.004,0.654C176.658,234.967,175.859,234.613,175.224,233.905z"/>
		<path fill="#696C71" d="M181.974,228.583v-1.104h6.144v1.104h-2.448v6.264h-1.248v-6.264H181.974z"/>
		<path fill="#696C71" d="M191.141,227.479v7.368h-1.248v-7.368H191.141z"/>
		<path fill="#696C71" d="M198.821,228.433c0.64,0.716,0.96,1.626,0.96,2.73s-0.32,2.014-0.96,2.73
			c-0.64,0.716-1.456,1.074-2.448,1.074s-1.806-0.358-2.442-1.074c-0.636-0.716-0.954-1.626-0.954-2.73s0.318-2.014,0.954-2.73
			c0.636-0.716,1.45-1.074,2.442-1.074S198.181,227.717,198.821,228.433z M197.927,233.095c0.396-0.504,0.594-1.148,0.594-1.932
			c0-0.784-0.198-1.428-0.594-1.932c-0.396-0.504-0.914-0.756-1.554-0.756s-1.156,0.25-1.548,0.75
			c-0.392,0.5-0.588,1.146-0.588,1.938s0.196,1.438,0.588,1.938c0.392,0.5,0.908,0.75,1.548,0.75S197.531,233.599,197.927,233.095z"
			/>
		<path fill="#696C71" d="M207.545,227.479v7.368h-0.96l-3.768-5.364v5.364h-1.2v-7.368h1.176l3.552,5.112v-5.112H207.545z"/>
		<path fill="#696C71" d="M209.202,232.807h1.272c0.232,0.736,0.788,1.104,1.668,1.104c0.432,0,0.778-0.098,1.038-0.294
			c0.26-0.196,0.39-0.462,0.39-0.798c0-0.264-0.082-0.474-0.246-0.63c-0.164-0.156-0.438-0.278-0.822-0.366l-1.248-0.3
			c-1.224-0.288-1.836-0.948-1.836-1.98c0-0.632,0.234-1.154,0.702-1.566c0.468-0.412,1.07-0.618,1.806-0.618
			c0.776,0,1.402,0.182,1.878,0.546s0.782,0.862,0.918,1.494h-1.248c-0.232-0.656-0.744-0.984-1.536-0.984
			c-0.4,0-0.722,0.094-0.966,0.282c-0.244,0.188-0.366,0.434-0.366,0.738c0,0.488,0.324,0.808,0.972,0.96l1.284,0.3
			c0.6,0.136,1.068,0.376,1.404,0.72c0.336,0.344,0.504,0.784,0.504,1.32c0,0.68-0.244,1.222-0.732,1.626
			c-0.488,0.404-1.12,0.606-1.896,0.606c-0.784,0-1.438-0.19-1.962-0.57C209.655,234.017,209.329,233.487,209.202,232.807z"/>
	</g>
</g>
<g>
	<g>
		<path fill="#696C71" d="M252.387,232.807h1.271c0.232,0.736,0.787,1.104,1.668,1.104c0.432,0,0.777-0.098,1.037-0.294
			c0.261-0.196,0.391-0.462,0.391-0.798c0-0.264-0.082-0.474-0.246-0.63c-0.164-0.156-0.438-0.278-0.822-0.366l-1.248-0.3
			c-1.224-0.288-1.836-0.948-1.836-1.98c0-0.632,0.234-1.154,0.703-1.566c0.467-0.412,1.069-0.618,1.805-0.618
			c0.776,0,1.402,0.182,1.879,0.546c0.476,0.364,0.781,0.862,0.918,1.494h-1.248c-0.232-0.656-0.744-0.984-1.536-0.984
			c-0.4,0-0.722,0.094-0.966,0.282s-0.366,0.434-0.366,0.738c0,0.488,0.323,0.808,0.972,0.96l1.284,0.3
			c0.601,0.136,1.067,0.376,1.404,0.72c0.336,0.344,0.504,0.784,0.504,1.32c0,0.68-0.244,1.222-0.731,1.626
			c-0.488,0.404-1.121,0.606-1.896,0.606c-0.784,0-1.438-0.19-1.963-0.57C252.84,234.017,252.514,233.487,252.387,232.807z"/>
		<path fill="#696C71" d="M259.79,227.479h4.812v1.104h-3.588v1.944h3.252v1.092h-3.252v2.112h3.588v1.116h-4.812V227.479z"/>
		<path fill="#696C71" d="M267.116,233.905c-0.636-0.708-0.954-1.622-0.954-2.742c0-1.12,0.318-2.034,0.954-2.742
			s1.435-1.062,2.394-1.062c0.816,0,1.484,0.218,2.004,0.654c0.521,0.436,0.853,1.03,0.996,1.782h-1.224
			c-0.319-0.872-0.912-1.308-1.776-1.308c-0.64,0-1.147,0.25-1.523,0.75c-0.377,0.5-0.564,1.142-0.564,1.926
			c0,0.784,0.188,1.426,0.564,1.926c0.376,0.5,0.884,0.75,1.523,0.75c0.864,0,1.457-0.44,1.776-1.32h1.224
			c-0.144,0.76-0.476,1.358-0.996,1.794c-0.52,0.437-1.188,0.654-2.004,0.654C268.551,234.967,267.752,234.613,267.116,233.905z"/>
		<path fill="#696C71" d="M279.308,234.181c-0.532,0.524-1.25,0.786-2.153,0.786c-0.904,0-1.623-0.262-2.154-0.786
			c-0.532-0.524-0.799-1.282-0.799-2.274v-4.428h1.248v4.296c0,1.384,0.568,2.076,1.705,2.076c1.135,0,1.703-0.692,1.703-2.076
			v-4.296h1.248v4.44C280.105,232.903,279.84,233.657,279.308,234.181z"/>
		<path fill="#696C71" d="M284.354,231.859h-0.888v2.988h-1.248v-7.368h2.845c0.775,0,1.387,0.19,1.836,0.57
			c0.447,0.38,0.672,0.926,0.672,1.638c0,0.608-0.166,1.09-0.498,1.446s-0.795,0.582-1.387,0.678l2.137,3.036h-1.416
			L284.354,231.859z M283.466,228.559v2.256h1.572c0.407,0,0.726-0.102,0.954-0.306c0.228-0.204,0.342-0.478,0.342-0.822
			c0-0.344-0.114-0.618-0.342-0.822c-0.229-0.204-0.547-0.306-0.954-0.306H283.466z"/>
		<path fill="#696C71" d="M290.727,227.479v7.368h-1.248v-7.368H290.727z"/>
		<path fill="#696C71" d="M292.502,228.583v-1.104h6.145v1.104h-2.448v6.264h-1.248v-6.264H292.502z"/>
		<path fill="#696C71" d="M303.098,230.779l1.944-3.3h1.319l-2.676,4.428v2.94h-1.235v-2.94l-2.664-4.428h1.356L303.098,230.779z"/>
	</g>
</g>
<g>
	<g>
		<path fill="#696C71" d="M349.571,228.433c0.641,0.716,0.96,1.626,0.96,2.73s-0.319,2.014-0.96,2.73
			c-0.64,0.716-1.456,1.074-2.447,1.074c-0.992,0-1.807-0.358-2.442-1.074c-0.636-0.716-0.954-1.626-0.954-2.73
			s0.318-2.014,0.954-2.73c0.636-0.716,1.45-1.074,2.442-1.074C348.115,227.359,348.932,227.717,349.571,228.433z M348.678,233.095
			c0.396-0.504,0.594-1.148,0.594-1.932c0-0.784-0.198-1.428-0.594-1.932c-0.396-0.504-0.914-0.756-1.554-0.756
			c-0.641,0-1.156,0.25-1.549,0.75c-0.392,0.5-0.588,1.146-0.588,1.938s0.196,1.438,0.588,1.938c0.393,0.5,0.908,0.75,1.549,0.75
			C347.764,233.851,348.281,233.599,348.678,233.095z"/>
		<path fill="#696C71" d="M356.482,231.042c0.353,0.112,0.641,0.326,0.864,0.642c0.224,0.316,0.336,0.666,0.336,1.05
			c0,0.68-0.222,1.202-0.666,1.566c-0.443,0.364-1.054,0.546-1.83,0.546h-2.819v-7.368h2.58c0.783,0,1.396,0.172,1.836,0.516
			c0.439,0.344,0.659,0.84,0.659,1.488c0,0.384-0.09,0.716-0.27,0.996C356.993,230.759,356.763,230.947,356.482,231.042z
			 M353.579,230.575h1.355c0.872,0,1.309-0.34,1.309-1.02c0-0.664-0.437-0.996-1.309-0.996h-1.355V230.575z M353.579,231.606v2.16
			h1.584c0.416,0,0.735-0.096,0.96-0.288c0.224-0.192,0.336-0.456,0.336-0.792s-0.112-0.6-0.336-0.792
			c-0.225-0.192-0.544-0.288-0.96-0.288H353.579z"/>
		<path fill="#696C71" d="M359.004,232.807h1.271c0.232,0.736,0.788,1.104,1.668,1.104c0.433,0,0.778-0.098,1.038-0.294
			c0.26-0.196,0.391-0.462,0.391-0.798c0-0.264-0.083-0.474-0.246-0.63c-0.164-0.156-0.438-0.278-0.822-0.366l-1.248-0.3
			c-1.224-0.288-1.836-0.948-1.836-1.98c0-0.632,0.234-1.154,0.702-1.566c0.468-0.412,1.069-0.618,1.806-0.618
			c0.776,0,1.402,0.182,1.878,0.546c0.477,0.364,0.782,0.862,0.918,1.494h-1.248c-0.231-0.656-0.744-0.984-1.536-0.984
			c-0.399,0-0.722,0.094-0.966,0.282s-0.366,0.434-0.366,0.738c0,0.488,0.324,0.808,0.973,0.96l1.284,0.3
			c0.6,0.136,1.067,0.376,1.403,0.72c0.336,0.344,0.504,0.784,0.504,1.32c0,0.68-0.244,1.222-0.731,1.626
			c-0.488,0.404-1.12,0.606-1.896,0.606c-0.784,0-1.438-0.19-1.962-0.57C359.458,234.017,359.132,233.487,359.004,232.807z"/>
		<path fill="#696C71" d="M366.407,227.479h4.812v1.104h-3.588v1.944h3.252v1.092h-3.252v2.112h3.588v1.116h-4.812V227.479z"/>
		<path fill="#696C71" d="M375.312,231.859h-0.888v2.988h-1.248v-7.368h2.844c0.775,0,1.388,0.19,1.836,0.57
			s0.672,0.926,0.672,1.638c0,0.608-0.166,1.09-0.498,1.446s-0.794,0.582-1.386,0.678l2.136,3.036h-1.416L375.312,231.859z
			 M374.424,228.559v2.256h1.571c0.408,0,0.727-0.102,0.954-0.306c0.229-0.204,0.342-0.478,0.342-0.822
			c0-0.344-0.113-0.618-0.342-0.822c-0.228-0.204-0.546-0.306-0.954-0.306H374.424z"/>
		<path fill="#696C71" d="M383.831,234.847h-1.188l-2.784-7.368h1.308l2.088,5.748l2.088-5.748h1.272L383.831,234.847z"/>
		<path fill="#696C71" d="M390.527,227.479h1.2l2.831,7.368h-1.271l-0.756-2.04h-2.82l-0.756,2.04h-1.26L390.527,227.479z
			 M391.115,229.002l-1.008,2.724h2.016L391.115,229.002z"/>
		<path fill="#696C71" d="M400.331,231.042c0.353,0.112,0.641,0.326,0.864,0.642c0.224,0.316,0.336,0.666,0.336,1.05
			c0,0.68-0.222,1.202-0.666,1.566c-0.443,0.364-1.054,0.546-1.83,0.546h-2.819v-7.368h2.58c0.783,0,1.396,0.172,1.836,0.516
			c0.439,0.344,0.659,0.84,0.659,1.488c0,0.384-0.09,0.716-0.27,0.996C400.842,230.759,400.611,230.947,400.331,231.042z
			 M397.428,230.575h1.355c0.872,0,1.309-0.34,1.309-1.02c0-0.664-0.437-0.996-1.309-0.996h-1.355V230.575z M397.428,231.606v2.16
			h1.584c0.416,0,0.735-0.096,0.96-0.288c0.224-0.192,0.336-0.456,0.336-0.792s-0.112-0.6-0.336-0.792
			c-0.225-0.192-0.544-0.288-0.96-0.288H397.428z"/>
		<path fill="#696C71" d="M404.676,227.479v7.368h-1.248v-7.368H404.676z"/>
		<path fill="#696C71" d="M406.908,234.847v-7.368h1.248v6.252h3.539v1.116H406.908z"/>
		<path fill="#696C71" d="M414.815,227.479v7.368h-1.248v-7.368H414.815z"/>
		<path fill="#696C71" d="M416.591,228.583v-1.104h6.144v1.104h-2.448v6.264h-1.248v-6.264H416.591z"/>
		<path fill="#696C71" d="M427.188,230.779l1.943-3.3h1.32l-2.676,4.428v2.94h-1.236v-2.94l-2.664-4.428h1.356L427.188,230.779z"/>
	</g>
</g>
<rect x="4.216" y="100.688" fill="#F5F6F6" width="442.232" height="75"/>
<rect x="13.753" y="136.843" fill="#FFFFFF" width="101.284" height="30"/>
<rect x="121.377" y="136.843" fill="#FFFFFF" width="101.285" height="30"/>
<rect x="229.002" y="136.843" fill="#FFFFFF" width="101.283" height="30"/>
<rect x="336.627" y="136.843" fill="#FFFFFF" width="101.284" height="30"/>
<g>
	<g>
		<path fill="#696C71" d="M138.857,114.757v7.982h-1.04l-4.082-5.811v5.811h-1.3v-7.982h1.274l3.848,5.538v-5.538H138.857z"/>
		<path fill="#696C71" d="M141.274,114.757h5.213v1.196h-3.887v2.106h3.523v1.183h-3.523v2.288h3.887v1.209h-5.213V114.757z"/>
		<path fill="#696C71" d="M148.113,115.953v-1.196h6.656v1.196h-2.652v6.786h-1.352v-6.786H148.113z"/>
		<path fill="#696C71" d="M160.32,114.757h1.092l1.508,5.876l1.443-5.876h1.3l-2.054,7.982h-1.248l-1.508-5.707l-1.534,5.707h-1.235
			l-2.054-7.982h1.326l1.443,5.876L160.32,114.757z"/>
		<path fill="#696C71" d="M173.32,115.791c0.693,0.776,1.04,1.762,1.04,2.958c0,1.196-0.347,2.182-1.04,2.958
			c-0.693,0.776-1.578,1.164-2.652,1.164s-1.956-0.388-2.646-1.164c-0.689-0.775-1.033-1.761-1.033-2.958
			c0-1.196,0.344-2.182,1.033-2.958c0.689-0.775,1.571-1.163,2.646-1.163S172.626,115.015,173.32,115.791z M172.351,120.841
			c0.429-0.546,0.644-1.244,0.644-2.093c0-0.849-0.214-1.547-0.644-2.093c-0.429-0.546-0.99-0.819-1.684-0.819
			s-1.252,0.271-1.677,0.812c-0.425,0.542-0.637,1.241-0.637,2.099c0,0.858,0.212,1.558,0.637,2.1
			c0.424,0.542,0.983,0.812,1.677,0.812S171.922,121.387,172.351,120.841z"/>
		<path fill="#696C71" d="M178.663,119.502H177.7v3.237h-1.352v-7.982h3.081c0.841,0,1.504,0.206,1.989,0.618
			s0.728,1.003,0.728,1.774c0,0.659-0.18,1.181-0.54,1.566c-0.36,0.386-0.86,0.63-1.501,0.734l2.314,3.289h-1.534L178.663,119.502z
			 M177.7,115.927v2.444h1.703c0.442,0,0.787-0.11,1.034-0.332c0.247-0.221,0.37-0.518,0.37-0.89s-0.123-0.669-0.37-0.891
			s-0.592-0.332-1.034-0.332H177.7z"/>
		<path fill="#696C71" d="M185.565,114.757v3.822l3.315-3.822h1.703l-3.224,3.627l3.341,4.355h-1.69l-2.626-3.419l-0.819,0.936
			v2.483h-1.352v-7.982H185.565z"/>
		<path fill="#696C71" d="M192.065,119.918v-1.183h3.133v1.183H192.065z"/>
		<path fill="#696C71" d="M199.696,114.757h1.3l3.068,7.982h-1.378l-0.819-2.21h-3.055l-0.819,2.21h-1.365L199.696,114.757z
			 M200.333,116.408l-1.092,2.951h2.184L200.333,116.408z"/>
		<path fill="#696C71" d="M209.485,114.757h1.092l1.508,5.876l1.443-5.876h1.3l-2.054,7.982h-1.248l-1.508-5.707l-1.534,5.707
			h-1.235l-2.054-7.982h1.326l1.443,5.876L209.485,114.757z"/>
		<path fill="#696C71" d="M219.027,114.757h1.3l3.068,7.982h-1.378l-0.819-2.21h-3.055l-0.819,2.21h-1.365L219.027,114.757z
			 M219.664,116.408l-1.092,2.951h2.184L219.664,116.408z"/>
		<path fill="#696C71" d="M227.503,119.502h-0.962v3.237h-1.352v-7.982h3.081c0.841,0,1.504,0.206,1.989,0.618
			s0.728,1.003,0.728,1.774c0,0.659-0.18,1.181-0.539,1.566s-0.86,0.63-1.502,0.734l2.314,3.289h-1.534L227.503,119.502z
			 M226.541,115.927v2.444h1.704c0.441,0,0.786-0.11,1.033-0.332c0.247-0.221,0.37-0.518,0.37-0.89s-0.123-0.669-0.37-0.891
			s-0.592-0.332-1.033-0.332H226.541z"/>
		<path fill="#696C71" d="M233.053,114.757h5.214v1.196h-3.888v2.106h3.523v1.183h-3.523v2.288h3.888v1.209h-5.214V114.757z"/>
		<path fill="#696C71" d="M243.908,122.739v-7.982h2.691c1.179,0,2.119,0.362,2.821,1.085s1.054,1.692,1.054,2.905
			c0,1.214-0.352,2.182-1.054,2.906s-1.643,1.085-2.821,1.085H243.908z M245.261,121.53h1.287c0.823,0,1.458-0.247,1.905-0.741
			c0.445-0.494,0.669-1.174,0.669-2.041c0-0.866-0.224-1.549-0.669-2.047c-0.447-0.498-1.082-0.748-1.905-0.748h-1.287V121.53z"/>
		<path fill="#696C71" d="M254.906,114.757h1.301l3.067,7.982h-1.378l-0.818-2.21h-3.056l-0.819,2.21h-1.365L254.906,114.757z
			 M255.543,116.408l-1.092,2.951h2.185L255.543,116.408z"/>
		<path fill="#696C71" d="M260.574,115.953v-1.196h6.656v1.196h-2.652v6.786h-1.352v-6.786H260.574z"/>
		<path fill="#696C71" d="M271.599,114.757h1.3l3.068,7.982h-1.379l-0.818-2.21h-3.055l-0.819,2.21h-1.365L271.599,114.757z
			 M272.235,116.408l-1.092,2.951h2.185L272.235,116.408z"/>
		<path fill="#696C71" d="M280.79,115.953v-1.196h6.655v1.196h-2.651v6.786h-1.353v-6.786H280.79z"/>
		<path fill="#696C71" d="M292.27,118.332l2.105-3.575h1.43l-2.898,4.797v3.185h-1.34v-3.185l-2.886-4.797h1.47L292.27,118.332z"/>
		<path fill="#696C71" d="M300.614,119.762h-1.729v2.977h-1.352v-7.982h3.081c0.841,0,1.506,0.217,1.995,0.65
			c0.49,0.434,0.734,1.053,0.734,1.859c0,0.798-0.244,1.413-0.734,1.846C302.12,119.546,301.455,119.762,300.614,119.762z
			 M302.006,117.266c0-0.407-0.122-0.732-0.364-0.975c-0.243-0.242-0.594-0.364-1.054-0.364h-1.703v2.665h1.703
			c0.451,0,0.8-0.121,1.047-0.364C301.882,117.986,302.006,117.665,302.006,117.266z"/>
		<path fill="#696C71" d="M305.268,114.757h5.214v1.196h-3.888v2.106h3.523v1.183h-3.523v2.288h3.888v1.209h-5.214V114.757z"/>
		<path fill="#696C71" d="M311.977,120.529h1.379c0.25,0.797,0.854,1.196,1.807,1.196c0.468,0,0.842-0.106,1.124-0.318
			s0.423-0.5,0.423-0.864c0-0.286-0.09-0.514-0.267-0.683c-0.178-0.169-0.475-0.301-0.891-0.396l-1.353-0.325
			c-1.325-0.312-1.988-1.027-1.988-2.145c0-0.685,0.254-1.25,0.76-1.696c0.508-0.446,1.16-0.669,1.957-0.669
			c0.841,0,1.52,0.197,2.035,0.591c0.516,0.395,0.847,0.934,0.994,1.619h-1.352c-0.252-0.71-0.807-1.066-1.664-1.066
			c-0.434,0-0.783,0.102-1.047,0.305c-0.265,0.204-0.396,0.47-0.396,0.8c0,0.528,0.351,0.875,1.053,1.04l1.391,0.325
			c0.65,0.147,1.157,0.408,1.521,0.78c0.363,0.373,0.546,0.849,0.546,1.43c0,0.737-0.265,1.324-0.793,1.762
			s-1.214,0.656-2.054,0.656c-0.85,0-1.559-0.206-2.126-0.617S312.115,121.266,311.977,120.529z"/>
	</g>
</g>
<g>
	<g>
		<path fill="#696C71" d="M49.724,155.984h1.296c0.088,0.752,0.48,1.128,1.176,1.128c0.832,0,1.248-0.508,1.248-1.524v-4.824h1.248
			v4.824c0,0.864-0.22,1.524-0.66,1.98s-1.044,0.684-1.812,0.684c-0.76,0-1.352-0.206-1.776-0.618S49.78,156.672,49.724,155.984z"/>
		<path fill="#696C71" d="M56.204,156.092h1.272c0.232,0.736,0.788,1.104,1.668,1.104c0.432,0,0.778-0.098,1.038-0.294
			c0.26-0.196,0.39-0.462,0.39-0.798c0-0.264-0.082-0.474-0.246-0.63c-0.164-0.156-0.438-0.278-0.822-0.366l-1.248-0.3
			c-1.224-0.288-1.836-0.948-1.836-1.98c0-0.632,0.234-1.154,0.702-1.566c0.468-0.412,1.07-0.618,1.806-0.618
			c0.776,0,1.402,0.182,1.878,0.546s0.782,0.862,0.918,1.494h-1.248c-0.232-0.656-0.744-0.984-1.536-0.984
			c-0.4,0-0.722,0.094-0.966,0.282c-0.244,0.188-0.366,0.434-0.366,0.738c0,0.488,0.324,0.808,0.972,0.96l1.284,0.3
			c0.6,0.136,1.068,0.376,1.404,0.72c0.336,0.344,0.504,0.784,0.504,1.32c0,0.68-0.244,1.222-0.732,1.626
			c-0.488,0.404-1.12,0.606-1.896,0.606c-0.784,0-1.438-0.19-1.962-0.57C56.658,157.302,56.332,156.772,56.204,156.092z"/>
		<path fill="#696C71" d="M69.056,151.718c0.64,0.716,0.96,1.626,0.96,2.73s-0.32,2.014-0.96,2.73
			c-0.64,0.716-1.456,1.074-2.448,1.074s-1.806-0.358-2.442-1.074c-0.636-0.716-0.954-1.626-0.954-2.73s0.318-2.014,0.954-2.73
			c0.636-0.716,1.45-1.074,2.442-1.074S68.416,151.002,69.056,151.718z M68.162,156.38c0.396-0.504,0.594-1.148,0.594-1.932
			c0-0.784-0.198-1.428-0.594-1.932c-0.396-0.504-0.914-0.756-1.554-0.756s-1.156,0.25-1.548,0.75
			c-0.392,0.5-0.588,1.146-0.588,1.938s0.196,1.438,0.588,1.938c0.392,0.5,0.908,0.75,1.548,0.75S67.766,156.884,68.162,156.38z"/>
		<path fill="#696C71" d="M77.78,150.764v7.368h-0.96l-3.768-5.364v5.364h-1.2v-7.368h1.176l3.552,5.112v-5.112H77.78z"/>
	</g>
</g>
<g>
	<g>
		<path fill="#696C71" d="M166.805,150.765l-2.496,3.588l2.616,3.78h-1.428l-1.908-2.772l-1.908,2.772h-1.392l2.604-3.756
			l-2.484-3.612h1.428l1.776,2.604l1.812-2.604H166.805z"/>
		<path fill="#696C71" d="M172.564,158.133h-0.888l-2.028-5.124v5.124h-1.188v-7.368h1.428l2.244,5.664l2.22-5.664h1.392v7.368h-1.2
			v-5.124L172.564,158.133z"/>
		<path fill="#696C71" d="M177.977,158.133v-7.368h1.248v6.252h3.54v1.116H177.977z"/>
	</g>
</g>
<g>
	<g>
		<path fill="#696C71" d="M261.955,151.868v-1.104h6.144v1.104h-2.448v6.264h-1.248v-6.264H261.955z"/>
		<path fill="#696C71" d="M272.131,150.764h1.199l2.832,7.368h-1.271l-0.756-2.04h-2.82l-0.756,2.04h-1.26L272.131,150.764z
			 M272.719,152.288l-1.008,2.724h2.016L272.719,152.288z"/>
		<path fill="#696C71" d="M281.936,154.328c0.352,0.112,0.639,0.326,0.863,0.642c0.225,0.316,0.336,0.666,0.336,1.05
			c0,0.68-0.222,1.202-0.666,1.566c-0.443,0.364-1.054,0.546-1.83,0.546h-2.82v-7.368h2.58c0.785,0,1.396,0.172,1.836,0.516
			c0.44,0.344,0.66,0.84,0.66,1.488c0,0.384-0.09,0.716-0.27,0.996C282.445,154.044,282.215,154.232,281.936,154.328z
			 M279.031,153.86h1.355c0.872,0,1.309-0.34,1.309-1.02c0-0.664-0.437-0.996-1.309-0.996h-1.355V153.86z M279.031,154.892v2.16
			h1.584c0.416,0,0.736-0.096,0.959-0.288c0.225-0.192,0.337-0.456,0.337-0.792s-0.112-0.6-0.337-0.792
			c-0.223-0.192-0.543-0.288-0.959-0.288H279.031z"/>
		<path fill="#696C71" d="M285.03,158.132v-7.368h1.248v6.252h3.54v1.116H285.03z"/>
		<path fill="#696C71" d="M291.69,150.764h4.812v1.104h-3.588v1.944h3.252v1.092h-3.252v2.112h3.588v1.116h-4.812V150.764z"/>
	</g>
</g>
<g>
	<g>
		<path fill="#696C71" d="M364.595,156.093h1.271c0.232,0.736,0.788,1.104,1.668,1.104c0.433,0,0.778-0.098,1.038-0.294
			c0.26-0.196,0.391-0.462,0.391-0.798c0-0.264-0.083-0.474-0.246-0.63c-0.164-0.156-0.438-0.278-0.822-0.366l-1.248-0.3
			c-1.224-0.288-1.836-0.948-1.836-1.98c0-0.632,0.234-1.154,0.702-1.566c0.468-0.412,1.069-0.618,1.806-0.618
			c0.776,0,1.402,0.182,1.878,0.546c0.477,0.364,0.782,0.862,0.918,1.494h-1.248c-0.231-0.656-0.744-0.984-1.536-0.984
			c-0.399,0-0.722,0.094-0.966,0.282s-0.366,0.434-0.366,0.738c0,0.488,0.324,0.808,0.973,0.96l1.284,0.3
			c0.6,0.136,1.067,0.376,1.403,0.72c0.336,0.344,0.504,0.784,0.504,1.32c0,0.68-0.244,1.222-0.731,1.626
			c-0.488,0.404-1.12,0.606-1.896,0.606c-0.784,0-1.438-0.19-1.962-0.57C365.049,157.303,364.723,156.773,364.595,156.093z"/>
		<path fill="#696C71" d="M371.542,151.869v-1.104h6.144v1.104h-2.448v6.264h-1.248v-6.264H371.542z"/>
		<path fill="#696C71" d="M381.599,155.145h-0.888v2.988h-1.248v-7.368h2.844c0.775,0,1.388,0.19,1.836,0.57
			s0.672,0.926,0.672,1.638c0,0.608-0.166,1.09-0.498,1.446s-0.794,0.582-1.386,0.678l2.136,3.036h-1.416L381.599,155.145z
			 M380.711,151.845v2.256h1.571c0.408,0,0.727-0.102,0.954-0.306c0.229-0.204,0.342-0.478,0.342-0.822
			c0-0.344-0.113-0.618-0.342-0.822c-0.228-0.204-0.546-0.306-0.954-0.306H380.711z"/>
		<path fill="#696C71" d="M386.723,150.765h4.812v1.104h-3.588v1.944h3.252v1.092h-3.252v2.112h3.588v1.116h-4.812V150.765z"/>
		<path fill="#696C71" d="M395.747,150.765h1.2l2.831,7.368h-1.271l-0.756-2.04h-2.82l-0.756,2.04h-1.26L395.747,150.765z
			 M396.335,152.289l-1.008,2.724h2.016L396.335,152.289z"/>
		<path fill="#696C71" d="M405.538,158.133h-0.888l-2.028-5.124v5.124h-1.188v-7.368h1.428l2.244,5.664l2.22-5.664h1.392v7.368
			h-1.199v-5.124L405.538,158.133z"/>
	</g>
</g>
<rect x="4.216" y="301.123" fill="#F5F6F6" width="442.232" height="75"/>
<g>
	<g>
		<path fill="#696C71" d="M185.319,319.046v-1.196h6.656v1.196h-2.652v6.786h-1.352v-6.786H185.319z"/>
		<path fill="#696C71" d="M196.213,322.596h-0.962v3.236h-1.352v-7.982h3.081c0.841,0,1.504,0.207,1.989,0.618
			s0.728,1.003,0.728,1.774c0,0.658-0.18,1.181-0.54,1.566c-0.36,0.386-0.86,0.631-1.501,0.734l2.314,3.289h-1.534L196.213,322.596z
			 M195.25,319.02v2.444h1.703c0.442,0,0.787-0.11,1.034-0.331s0.37-0.518,0.37-0.891s-0.123-0.67-0.37-0.891
			s-0.592-0.332-1.034-0.332H195.25z"/>
		<path fill="#696C71" d="M204.208,317.85h1.3l3.068,7.982h-1.378l-0.819-2.21h-3.055l-0.819,2.21h-1.365L204.208,317.85z
			 M204.844,319.501l-1.092,2.951h2.184L204.844,319.501z"/>
		<path fill="#696C71" d="M216.792,317.85v7.982h-1.04l-4.082-5.811v5.811h-1.3v-7.982h1.274l3.848,5.539v-5.539H216.792z"/>
		<path fill="#696C71" d="M218.585,323.622h1.378c0.251,0.798,0.854,1.196,1.807,1.196c0.468,0,0.843-0.106,1.125-0.318
			c0.282-0.213,0.423-0.501,0.423-0.865c0-0.285-0.089-0.514-0.267-0.682c-0.178-0.17-0.475-0.302-0.891-0.396l-1.352-0.326
			c-1.326-0.312-1.989-1.026-1.989-2.145c0-0.685,0.253-1.25,0.76-1.696c0.507-0.446,1.159-0.669,1.957-0.669
			c0.841,0,1.519,0.197,2.035,0.591c0.516,0.395,0.847,0.935,0.995,1.618h-1.352c-0.251-0.71-0.806-1.065-1.664-1.065
			c-0.434,0-0.782,0.102-1.046,0.306c-0.265,0.203-0.397,0.47-0.397,0.799c0,0.529,0.351,0.876,1.053,1.04l1.391,0.325
			c0.65,0.147,1.157,0.408,1.521,0.78c0.364,0.372,0.546,0.849,0.546,1.43c0,0.737-0.265,1.324-0.793,1.762
			c-0.529,0.438-1.213,0.656-2.054,0.656c-0.849,0-1.558-0.206-2.125-0.617C219.078,324.934,218.724,324.359,218.585,323.622z"/>
		<path fill="#696C71" d="M229.688,322.855h-1.729v2.977h-1.353v-7.982h3.081c0.841,0,1.506,0.217,1.996,0.65
			c0.489,0.434,0.734,1.053,0.734,1.859c0,0.797-0.245,1.412-0.734,1.846C231.193,322.639,230.528,322.855,229.688,322.855z
			 M231.078,320.359c0-0.408-0.121-0.732-0.363-0.976c-0.243-0.242-0.594-0.364-1.053-0.364h-1.703v2.666h1.703
			c0.45,0,0.799-0.121,1.046-0.365C230.955,321.078,231.078,320.758,231.078,320.359z"/>
		<path fill="#696C71" d="M240.244,318.883c0.693,0.776,1.039,1.762,1.039,2.958s-0.346,2.183-1.039,2.958s-1.578,1.163-2.652,1.163
			c-1.075,0-1.957-0.388-2.646-1.163c-0.688-0.775-1.033-1.762-1.033-2.958s0.345-2.182,1.033-2.958
			c0.689-0.775,1.571-1.162,2.646-1.162C238.666,317.721,239.551,318.107,240.244,318.883z M239.275,323.934
			c0.429-0.545,0.643-1.243,0.643-2.093c0-0.849-0.214-1.547-0.643-2.093c-0.43-0.546-0.99-0.818-1.684-0.818
			s-1.253,0.271-1.678,0.812c-0.424,0.541-0.637,1.24-0.637,2.099s0.213,1.558,0.637,2.1c0.425,0.542,0.984,0.812,1.678,0.812
			S238.846,324.48,239.275,323.934z"/>
		<path fill="#696C71" d="M245.586,322.596h-0.962v3.236h-1.353v-7.982h3.082c0.84,0,1.504,0.207,1.988,0.618
			c0.486,0.411,0.729,1.003,0.729,1.774c0,0.658-0.18,1.181-0.539,1.566c-0.36,0.386-0.861,0.631-1.502,0.734l2.314,3.289h-1.535
			L245.586,322.596z M244.624,319.02v2.444h1.703c0.442,0,0.786-0.11,1.034-0.331c0.246-0.221,0.369-0.518,0.369-0.891
			s-0.123-0.67-0.369-0.891c-0.248-0.221-0.592-0.332-1.034-0.332H244.624z"/>
		<path fill="#696C71" d="M250.644,319.046v-1.196h6.655v1.196h-2.651v6.786h-1.353v-6.786H250.644z"/>
		<path fill="#696C71" d="M258.6,323.622h1.378c0.251,0.798,0.854,1.196,1.807,1.196c0.468,0,0.843-0.106,1.124-0.318
			c0.282-0.213,0.424-0.501,0.424-0.865c0-0.285-0.09-0.514-0.268-0.682c-0.178-0.17-0.475-0.302-0.891-0.396l-1.352-0.326
			c-1.326-0.312-1.988-1.026-1.988-2.145c0-0.685,0.253-1.25,0.76-1.696c0.508-0.446,1.159-0.669,1.957-0.669
			c0.84,0,1.519,0.197,2.034,0.591c0.516,0.395,0.847,0.935,0.995,1.618h-1.353c-0.251-0.71-0.806-1.065-1.664-1.065
			c-0.434,0-0.782,0.102-1.046,0.306c-0.266,0.203-0.397,0.47-0.397,0.799c0,0.529,0.351,0.876,1.054,1.04l1.391,0.325
			c0.65,0.147,1.156,0.408,1.521,0.78c0.363,0.372,0.545,0.849,0.545,1.43c0,0.737-0.264,1.324-0.793,1.762
			c-0.528,0.438-1.213,0.656-2.054,0.656c-0.849,0-1.558-0.206-2.126-0.617C259.092,324.934,258.738,324.359,258.6,323.622z"/>
	</g>
</g>
<rect x="13.753" y="337.277" fill="#FFFFFF" width="101.284" height="30"/>
<rect x="121.377" y="337.277" fill="#FFFFFF" width="101.285" height="30"/>
<rect x="229.002" y="337.277" fill="#FFFFFF" width="101.283" height="30"/>
<rect x="336.627" y="337.277" fill="#FFFFFF" width="101.284" height="30"/>
<g>
	<g>
		<path fill="#696C71" d="M54.915,348.447h1.248v7.368h-1.248v-3.228h-3.708v3.228h-1.248v-7.368h1.248v3.036h3.708V348.447z"/>
		<path fill="#696C71" d="M57.939,349.551v-1.104h6.144v1.104h-2.448v6.265h-1.248v-6.265H57.939z"/>
		<path fill="#696C71" d="M65.403,349.551v-1.104h6.144v1.104h-2.448v6.265h-1.248v-6.265H65.403z"/>
		<path fill="#696C71" d="M76.167,353.067H74.57v2.748h-1.248v-7.368h2.844c0.776,0,1.39,0.2,1.842,0.6
			c0.452,0.4,0.678,0.973,0.678,1.717c0,0.736-0.226,1.304-0.678,1.703C77.556,352.867,76.942,353.067,76.167,353.067z
			 M77.45,350.764c0-0.376-0.112-0.676-0.336-0.9c-0.224-0.224-0.548-0.336-0.972-0.336H74.57v2.46h1.572
			c0.416,0,0.738-0.112,0.966-0.336S77.45,351.131,77.45,350.764z"/>
	</g>
</g>
<g>
	<g>
		<path fill="#696C71" d="M161.766,355.455v-0.24c-0.128,0.152-0.314,0.283-0.558,0.391c-0.244,0.107-0.51,0.162-0.798,0.162
			c-0.752,0-1.353-0.264-1.8-0.792c-0.448-0.528-0.672-1.164-0.672-1.908s0.224-1.38,0.672-1.907c0.448-0.529,1.048-0.793,1.8-0.793
			c0.288,0,0.554,0.055,0.798,0.162c0.244,0.107,0.43,0.238,0.558,0.391v-0.433h1.2v4.884c0,0.864-0.23,1.514-0.69,1.95
			s-1.066,0.654-1.818,0.654c-0.672,0-1.218-0.167-1.638-0.498c-0.42-0.332-0.662-0.79-0.726-1.374h1.164
			c0.12,0.592,0.52,0.888,1.2,0.888C161.33,356.991,161.766,356.479,161.766,355.455z M161.766,354.075v-2.016
			c-0.104-0.185-0.26-0.336-0.468-0.456s-0.436-0.18-0.684-0.18c-0.448,0-0.802,0.152-1.062,0.455
			c-0.26,0.305-0.39,0.701-0.39,1.188c0,0.488,0.13,0.884,0.39,1.188c0.26,0.304,0.614,0.455,1.062,0.455
			c0.248,0,0.476-0.06,0.684-0.18C161.506,354.412,161.662,354.26,161.766,354.075z"/>
		<path fill="#696C71" d="M167.262,352.828h-0.888v2.987h-1.248v-7.368h2.844c0.776,0,1.388,0.19,1.836,0.57
			c0.448,0.38,0.672,0.926,0.672,1.638c0,0.608-0.166,1.091-0.498,1.446s-0.794,0.582-1.386,0.678l2.136,3.036h-1.416
			L167.262,352.828z M166.374,349.527v2.256h1.572c0.408,0,0.726-0.102,0.954-0.306s0.342-0.478,0.342-0.822
			c0-0.344-0.114-0.618-0.342-0.821c-0.228-0.205-0.546-0.307-0.954-0.307H166.374z"/>
		<path fill="#696C71" d="M175.23,353.067h-1.596v2.748h-1.248v-7.368h2.844c0.776,0,1.39,0.2,1.842,0.6
			c0.452,0.4,0.678,0.973,0.678,1.717c0,0.736-0.226,1.304-0.678,1.703C176.62,352.867,176.006,353.067,175.23,353.067z
			 M176.514,350.764c0-0.376-0.112-0.676-0.336-0.9c-0.224-0.224-0.548-0.336-0.972-0.336h-1.572v2.46h1.572
			c0.416,0,0.738-0.112,0.966-0.336S176.514,351.131,176.514,350.764z"/>
		<path fill="#696C71" d="M180.084,354.873c-0.636-0.707-0.954-1.621-0.954-2.742c0-1.119,0.318-2.033,0.954-2.741
			c0.636-0.708,1.434-1.062,2.394-1.062c0.816,0,1.484,0.217,2.004,0.653s0.852,1.03,0.996,1.782h-1.224
			c-0.32-0.872-0.912-1.309-1.776-1.309c-0.64,0-1.148,0.25-1.524,0.75c-0.376,0.5-0.564,1.143-0.564,1.926
			c0,0.785,0.188,1.427,0.564,1.927c0.376,0.5,0.884,0.75,1.524,0.75c0.864,0,1.456-0.44,1.776-1.32h1.224
			c-0.144,0.761-0.476,1.358-0.996,1.794c-0.52,0.437-1.188,0.654-2.004,0.654C181.518,355.936,180.72,355.582,180.084,354.873z"/>
	</g>
</g>
<g>
	<g>
		<path fill="#696C71" d="M249.543,348.447h1.008l1.392,5.424l1.332-5.424h1.2l-1.896,7.368h-1.152l-1.392-5.269l-1.415,5.269
			h-1.141l-1.896-7.368h1.225l1.332,5.424L249.543,348.447z"/>
		<path fill="#696C71" d="M256.094,348.447h4.812v1.104h-3.588v1.945h3.252v1.092h-3.252v2.111h3.588v1.116h-4.812V348.447z"/>
		<path fill="#696C71" d="M266.979,352.012c0.352,0.111,0.64,0.326,0.863,0.642c0.225,0.316,0.336,0.666,0.336,1.05
			c0,0.68-0.221,1.202-0.666,1.566c-0.443,0.364-1.053,0.546-1.829,0.546h-2.82v-7.368h2.58c0.784,0,1.396,0.172,1.836,0.516
			c0.44,0.345,0.66,0.84,0.66,1.488c0,0.385-0.091,0.717-0.271,0.996C267.488,351.728,267.258,351.916,266.979,352.012z
			 M264.074,351.543h1.355c0.873,0,1.309-0.34,1.309-1.02c0-0.664-0.436-0.996-1.309-0.996h-1.355V351.543z M264.074,352.575v2.16
			h1.584c0.416,0,0.736-0.096,0.96-0.288c0.224-0.191,0.337-0.456,0.337-0.792s-0.113-0.6-0.337-0.792
			c-0.224-0.191-0.544-0.288-0.96-0.288H264.074z"/>
		<path fill="#696C71" d="M269.498,353.775h1.272c0.231,0.736,0.788,1.104,1.668,1.104c0.432,0,0.778-0.098,1.038-0.293
			c0.26-0.196,0.39-0.463,0.39-0.799c0-0.264-0.082-0.474-0.246-0.63c-0.164-0.155-0.438-0.278-0.821-0.366l-1.248-0.3
			c-1.225-0.288-1.836-0.948-1.836-1.979c0-0.633,0.233-1.154,0.701-1.566c0.469-0.412,1.07-0.617,1.807-0.617
			c0.775,0,1.401,0.182,1.877,0.545c0.477,0.365,0.783,0.862,0.918,1.494h-1.247c-0.232-0.656-0.744-0.984-1.536-0.984
			c-0.4,0-0.723,0.095-0.967,0.283c-0.243,0.188-0.365,0.434-0.365,0.737c0,0.488,0.324,0.808,0.973,0.96l1.283,0.301
			c0.6,0.135,1.068,0.375,1.404,0.719c0.336,0.345,0.504,0.785,0.504,1.32c0,0.68-0.244,1.223-0.732,1.627
			c-0.488,0.403-1.119,0.605-1.896,0.605c-0.784,0-1.438-0.189-1.962-0.57C269.952,354.985,269.626,354.455,269.498,353.775z"/>
		<path fill="#696C71" d="M282.35,349.401c0.641,0.716,0.961,1.626,0.961,2.729c0,1.104-0.32,2.015-0.961,2.73
			c-0.64,0.717-1.455,1.074-2.447,1.074s-1.807-0.357-2.442-1.074c-0.636-0.716-0.954-1.626-0.954-2.73
			c0-1.104,0.318-2.014,0.954-2.729s1.45-1.073,2.442-1.073S281.71,348.686,282.35,349.401z M281.456,354.063
			c0.396-0.504,0.594-1.147,0.594-1.933c0-0.783-0.198-1.428-0.594-1.932s-0.914-0.756-1.554-0.756c-0.641,0-1.156,0.25-1.549,0.75
			c-0.392,0.5-0.588,1.146-0.588,1.938c0,0.793,0.196,1.438,0.588,1.938c0.393,0.5,0.908,0.75,1.549,0.75
			C280.542,354.819,281.061,354.567,281.456,354.063z"/>
		<path fill="#696C71" d="M285.704,354.873c-0.636-0.707-0.954-1.621-0.954-2.742c0-1.119,0.318-2.033,0.954-2.741
			s1.435-1.062,2.394-1.062c0.816,0,1.484,0.217,2.004,0.653c0.521,0.437,0.853,1.03,0.996,1.782h-1.224
			c-0.319-0.872-0.912-1.309-1.776-1.309c-0.64,0-1.147,0.25-1.523,0.75c-0.377,0.5-0.564,1.143-0.564,1.926
			c0,0.785,0.188,1.427,0.564,1.927c0.376,0.5,0.884,0.75,1.523,0.75c0.864,0,1.457-0.44,1.776-1.32h1.224
			c-0.144,0.761-0.476,1.358-0.996,1.794c-0.52,0.437-1.188,0.654-2.004,0.654C287.139,355.936,286.34,355.582,285.704,354.873z"/>
		<path fill="#696C71" d="M294.158,348.447v3.528l3.06-3.528h1.571l-2.975,3.348l3.084,4.021h-1.561l-2.424-3.155l-0.756,0.863
			v2.292h-1.248v-7.368H294.158z"/>
		<path fill="#696C71" d="M300.494,348.447h4.812v1.104h-3.588v1.945h3.252v1.092h-3.252v2.111h3.588v1.116h-4.812V348.447z"/>
		<path fill="#696C71" d="M306.806,349.551v-1.104h6.144v1.104h-2.447v6.265h-1.248v-6.265H306.806z"/>
	</g>
</g>
<g>
	<g>
		<path fill="#696C71" d="M359.387,355.814h-0.888l-2.028-5.124v5.124h-1.188v-7.368h1.428l2.244,5.664l2.22-5.664h1.392v7.368
			h-1.199v-5.124L359.387,355.814z"/>
		<path fill="#696C71" d="M364.799,348.446h4.812v1.104h-3.588v1.943h3.252v1.092h-3.252v2.112h3.588v1.116h-4.812V348.446z"/>
		<path fill="#696C71" d="M370.991,353.774h1.271c0.232,0.736,0.788,1.104,1.668,1.104c0.433,0,0.778-0.098,1.038-0.295
			c0.26-0.195,0.391-0.461,0.391-0.797c0-0.265-0.083-0.475-0.246-0.631c-0.164-0.156-0.438-0.277-0.822-0.365l-1.248-0.301
			c-1.224-0.287-1.836-0.947-1.836-1.98c0-0.631,0.234-1.153,0.702-1.565c0.468-0.411,1.069-0.618,1.806-0.618
			c0.776,0,1.402,0.182,1.878,0.547c0.477,0.363,0.782,0.861,0.918,1.493h-1.248c-0.231-0.655-0.744-0.983-1.536-0.983
			c-0.399,0-0.722,0.094-0.966,0.281c-0.244,0.188-0.366,0.435-0.366,0.738c0,0.488,0.324,0.809,0.973,0.96l1.284,0.3
			c0.6,0.137,1.067,0.377,1.403,0.721s0.504,0.783,0.504,1.32c0,0.68-0.244,1.222-0.731,1.625c-0.488,0.404-1.12,0.606-1.896,0.606
			c-0.784,0-1.438-0.19-1.962-0.57C371.445,354.984,371.119,354.455,370.991,353.774z"/>
		<path fill="#696C71" d="M377.818,353.774h1.271c0.232,0.736,0.788,1.104,1.668,1.104c0.433,0,0.778-0.098,1.038-0.295
			c0.26-0.195,0.391-0.461,0.391-0.797c0-0.265-0.083-0.475-0.246-0.631c-0.164-0.156-0.438-0.277-0.822-0.365l-1.248-0.301
			c-1.224-0.287-1.836-0.947-1.836-1.98c0-0.631,0.234-1.153,0.702-1.565c0.468-0.411,1.069-0.618,1.806-0.618
			c0.776,0,1.402,0.182,1.878,0.547c0.477,0.363,0.782,0.861,0.918,1.493h-1.248c-0.231-0.655-0.744-0.983-1.536-0.983
			c-0.399,0-0.722,0.094-0.966,0.281c-0.244,0.188-0.366,0.435-0.366,0.738c0,0.488,0.324,0.809,0.973,0.96l1.284,0.3
			c0.6,0.137,1.067,0.377,1.403,0.721s0.504,0.783,0.504,1.32c0,0.68-0.244,1.222-0.731,1.625c-0.488,0.404-1.12,0.606-1.896,0.606
			c-0.784,0-1.438-0.19-1.962-0.57C378.272,354.984,377.946,354.455,377.818,353.774z"/>
		<path fill="#696C71" d="M387.479,348.446h1.2l2.831,7.368h-1.271l-0.756-2.04h-2.82l-0.756,2.04h-1.26L387.479,348.446z
			 M388.066,349.971l-1.008,2.724h2.016L388.066,349.971z"/>
		<path fill="#696C71" d="M398.182,353.078h-1.608v-1.068h2.796v0.576c0,1.008-0.294,1.818-0.882,2.431s-1.338,0.918-2.25,0.918
			c-1,0-1.828-0.354-2.483-1.062c-0.656-0.709-0.984-1.623-0.984-2.742c0-1.12,0.326-2.034,0.979-2.742
			c0.651-0.708,1.466-1.062,2.441-1.062c0.824,0,1.498,0.217,2.022,0.648c0.523,0.432,0.857,1.023,1.002,1.775h-1.248
			c-0.16-0.424-0.378-0.746-0.654-0.965c-0.276-0.221-0.65-0.33-1.122-0.33c-0.647,0-1.17,0.25-1.565,0.75
			c-0.396,0.5-0.595,1.142-0.595,1.926c0,0.791,0.2,1.439,0.601,1.943c0.399,0.504,0.936,0.756,1.607,0.756
			c0.544,0,0.984-0.158,1.32-0.474S398.102,353.615,398.182,353.078z"/>
		<path fill="#696C71" d="M402.454,348.446v7.368h-1.248v-7.368H402.454z"/>
		<path fill="#696C71" d="M410.614,348.446v7.368h-0.96l-3.769-5.363v5.363h-1.199v-7.368h1.176l3.552,5.112v-5.112H410.614z"/>
		<path fill="#696C71" d="M417.861,353.078h-1.608v-1.068h2.796v0.576c0,1.008-0.294,1.818-0.882,2.431s-1.338,0.918-2.25,0.918
			c-1,0-1.828-0.354-2.483-1.062c-0.656-0.709-0.984-1.623-0.984-2.742c0-1.12,0.326-2.034,0.979-2.742
			c0.651-0.708,1.466-1.062,2.441-1.062c0.824,0,1.498,0.217,2.022,0.648c0.523,0.432,0.857,1.023,1.002,1.775h-1.248
			c-0.16-0.424-0.378-0.746-0.654-0.965c-0.276-0.221-0.65-0.33-1.122-0.33c-0.647,0-1.17,0.25-1.565,0.75
			c-0.396,0.5-0.595,1.142-0.595,1.926c0,0.791,0.2,1.439,0.601,1.943c0.399,0.504,0.936,0.756,1.607,0.756
			c0.544,0,0.984-0.158,1.32-0.474S417.781,353.615,417.861,353.078z"/>
	</g>
</g>
<rect x="4.216" y="260.979" fill="#F5F6F6" width="442.232" height="35"/>
<g>
	<g>
		<path fill="#696C71" d="M191.499,274.747h5.213v1.196h-3.887v2.105h3.523v1.184h-3.523v2.287h3.887v1.209h-5.213V274.747z"/>
		<path fill="#696C71" d="M205.253,274.747v7.981h-1.04l-4.082-5.811v5.811h-1.3v-7.981h1.274l3.848,5.538v-5.538H205.253z"/>
		<path fill="#696C71" d="M207.67,282.729v-7.981h2.691c1.178,0,2.119,0.362,2.821,1.085c0.702,0.725,1.053,1.693,1.053,2.906
			s-0.351,2.182-1.053,2.905s-1.643,1.085-2.821,1.085H207.67z M209.022,281.52h1.287c0.823,0,1.458-0.246,1.905-0.74
			c0.446-0.494,0.669-1.174,0.669-2.041s-0.224-1.549-0.669-2.048c-0.447-0.498-1.082-0.747-1.905-0.747h-1.287V281.52z"/>
		<path fill="#696C71" d="M219.306,279.752h-1.729v2.977h-1.352v-7.981h3.081c0.841,0,1.506,0.217,1.996,0.649
			c0.49,0.434,0.734,1.054,0.734,1.859c0,0.798-0.245,1.413-0.734,1.846C220.812,279.535,220.146,279.752,219.306,279.752z
			 M220.697,277.256c0-0.407-0.122-0.732-0.364-0.975c-0.243-0.242-0.594-0.364-1.053-0.364h-1.703v2.665h1.703
			c0.451,0,0.799-0.121,1.046-0.364C220.573,277.976,220.697,277.654,220.697,277.256z"/>
		<path fill="#696C71" d="M229.861,275.78c0.693,0.776,1.041,1.762,1.041,2.958c0,1.195-0.348,2.182-1.041,2.957
			s-1.577,1.164-2.652,1.164c-1.074,0-1.956-0.389-2.645-1.164c-0.689-0.775-1.033-1.762-1.033-2.957
			c0-1.196,0.344-2.182,1.033-2.958c0.689-0.775,1.571-1.163,2.645-1.163C228.284,274.617,229.168,275.005,229.861,275.78z
			 M228.893,280.831c0.43-0.546,0.645-1.243,0.645-2.093s-0.215-1.547-0.645-2.094c-0.428-0.545-0.99-0.818-1.684-0.818
			c-0.693,0-1.252,0.271-1.676,0.812c-0.425,0.541-0.637,1.241-0.637,2.1c0,0.857,0.212,1.558,0.637,2.1
			c0.424,0.541,0.983,0.812,1.676,0.812C227.902,281.65,228.465,281.377,228.893,280.831z"/>
		<path fill="#696C71" d="M234.242,274.747v7.981h-1.352v-7.981H234.242z"/>
		<path fill="#696C71" d="M243.082,274.747v7.981h-1.04l-4.082-5.811v5.811h-1.3v-7.981h1.273l3.848,5.538v-5.538H243.082z"/>
		<path fill="#696C71" d="M245.006,275.943v-1.196h6.656v1.196h-2.652v6.785h-1.352v-6.785H245.006z"/>
		<path fill="#696C71" d="M252.962,280.52h1.378c0.252,0.797,0.854,1.195,1.807,1.195c0.469,0,0.844-0.105,1.125-0.318
			s0.423-0.5,0.423-0.864c0-0.286-0.089-0.514-0.267-0.683s-0.475-0.301-0.891-0.396l-1.352-0.325
			c-1.326-0.312-1.989-1.026-1.989-2.146c0-0.684,0.253-1.25,0.761-1.695c0.507-0.447,1.158-0.67,1.956-0.67
			c0.841,0,1.519,0.197,2.034,0.592s0.848,0.934,0.995,1.618h-1.353c-0.251-0.71-0.806-1.065-1.664-1.065
			c-0.434,0-0.781,0.102-1.046,0.305s-0.397,0.471-0.397,0.8c0,0.528,0.352,0.876,1.054,1.04l1.392,0.324
			c0.649,0.148,1.156,0.408,1.521,0.781c0.364,0.372,0.546,0.849,0.546,1.43c0,0.736-0.265,1.324-0.793,1.762
			c-0.529,0.438-1.213,0.656-2.055,0.656c-0.849,0-1.557-0.206-2.125-0.617C253.454,281.83,253.101,281.256,252.962,280.52z"/>
	</g>
</g>
<rect x="4.216" y="381.268" fill="#F5F6F6" width="442.232" height="35"/>
<g>
	<g>
		<path fill="#696C71" d="M162.927,395.389h1.092l1.508,5.877l1.443-5.877h1.3l-2.054,7.982h-1.248l-1.508-5.707l-1.534,5.707
			h-1.235l-2.054-7.982h1.326l1.443,5.877L162.927,395.389z"/>
		<path fill="#696C71" d="M175.927,396.422c0.693,0.776,1.04,1.762,1.04,2.958s-0.347,2.183-1.04,2.958s-1.578,1.163-2.652,1.163
			s-1.956-0.388-2.646-1.163c-0.689-0.775-1.033-1.762-1.033-2.958s0.344-2.182,1.033-2.958c0.689-0.775,1.571-1.162,2.646-1.162
			S175.233,395.646,175.927,396.422z M174.958,401.473c0.429-0.545,0.644-1.243,0.644-2.093c0-0.849-0.214-1.547-0.644-2.093
			c-0.429-0.546-0.99-0.818-1.684-0.818s-1.252,0.271-1.677,0.812c-0.425,0.541-0.637,1.24-0.637,2.099s0.212,1.558,0.637,2.1
			c0.424,0.542,0.983,0.812,1.677,0.812S174.529,402.02,174.958,401.473z"/>
		<path fill="#696C71" d="M181.27,400.135h-0.962v3.236h-1.352v-7.982h3.081c0.841,0,1.504,0.207,1.989,0.618
			s0.728,1.003,0.728,1.774c0,0.658-0.18,1.181-0.54,1.566c-0.36,0.386-0.86,0.631-1.501,0.734l2.314,3.289h-1.534L181.27,400.135z
			 M180.307,396.559v2.444h1.703c0.442,0,0.787-0.11,1.034-0.331s0.37-0.518,0.37-0.891s-0.123-0.67-0.37-0.891
			s-0.592-0.332-1.034-0.332H180.307z"/>
		<path fill="#696C71" d="M188.172,395.389v3.822l3.315-3.822h1.703l-3.224,3.627l3.341,4.355h-1.69l-2.626-3.419l-0.819,0.937
			v2.482h-1.352v-7.982H188.172z"/>
		<path fill="#696C71" d="M195.036,395.389h5.213v1.196h-3.887v2.106h3.523v1.183h-3.523v2.288h3.887v1.209h-5.213V395.389z"/>
		<path fill="#696C71" d="M204.683,400.135h-0.962v3.236h-1.352v-7.982h3.081c0.841,0,1.504,0.207,1.989,0.618
			s0.728,1.003,0.728,1.774c0,0.658-0.18,1.181-0.54,1.566c-0.36,0.386-0.86,0.631-1.501,0.734l2.314,3.289h-1.534L204.683,400.135z
			 M203.72,396.559v2.444h1.703c0.442,0,0.787-0.11,1.034-0.331s0.37-0.518,0.37-0.891s-0.123-0.67-0.37-0.891
			s-0.592-0.332-1.034-0.332H203.72z"/>
		<path fill="#696C71" d="M209.609,401.161h1.378c0.251,0.798,0.854,1.196,1.807,1.196c0.468,0,0.843-0.106,1.125-0.318
			c0.282-0.213,0.423-0.501,0.423-0.865c0-0.285-0.089-0.514-0.267-0.682c-0.178-0.17-0.475-0.302-0.891-0.396l-1.352-0.326
			c-1.326-0.312-1.989-1.026-1.989-2.145c0-0.685,0.253-1.25,0.76-1.696c0.507-0.446,1.159-0.669,1.957-0.669
			c0.841,0,1.519,0.197,2.035,0.591c0.516,0.395,0.847,0.935,0.995,1.618h-1.352c-0.251-0.71-0.806-1.065-1.664-1.065
			c-0.434,0-0.782,0.102-1.046,0.306c-0.265,0.203-0.397,0.47-0.397,0.799c0,0.529,0.351,0.876,1.053,1.04l1.391,0.325
			c0.65,0.147,1.157,0.408,1.521,0.78c0.364,0.372,0.546,0.849,0.546,1.43c0,0.737-0.265,1.324-0.793,1.762
			c-0.529,0.438-1.213,0.656-2.054,0.656c-0.849,0-1.558-0.206-2.125-0.617C210.101,402.473,209.748,401.898,209.609,401.161z"/>
		<path fill="#696C71" d="M216.954,404.84l0.936-1.443c-0.217-0.033-0.392-0.125-0.526-0.272c-0.135-0.147-0.202-0.333-0.202-0.56
			c0-0.25,0.084-0.459,0.253-0.623c0.169-0.165,0.379-0.247,0.63-0.247c0.26,0,0.473,0.085,0.637,0.253
			c0.165,0.17,0.247,0.41,0.247,0.722c0,0.321-0.126,0.667-0.377,1.04l-0.754,1.131H216.954z"/>
		<path fill="#696C71" d="M226.848,395.389h1.3l3.067,7.982h-1.377l-0.819-2.21h-3.055l-0.819,2.21h-1.365L226.848,395.389z
			 M227.484,397.04l-1.092,2.951h2.184L227.484,397.04z"/>
		<path fill="#696C71" d="M232.385,401.161h1.379c0.251,0.798,0.854,1.196,1.807,1.196c0.469,0,0.843-0.106,1.125-0.318
			c0.281-0.213,0.422-0.501,0.422-0.865c0-0.285-0.089-0.514-0.266-0.682c-0.178-0.17-0.475-0.302-0.891-0.396l-1.353-0.326
			c-1.325-0.312-1.989-1.026-1.989-2.145c0-0.685,0.254-1.25,0.761-1.696s1.159-0.669,1.956-0.669c0.842,0,1.52,0.197,2.035,0.591
			c0.516,0.395,0.848,0.935,0.994,1.618h-1.352c-0.252-0.71-0.807-1.065-1.664-1.065c-0.434,0-0.782,0.102-1.047,0.306
			c-0.264,0.203-0.396,0.47-0.396,0.799c0,0.529,0.352,0.876,1.053,1.04l1.392,0.325c0.649,0.147,1.157,0.408,1.521,0.78
			c0.364,0.372,0.547,0.849,0.547,1.43c0,0.737-0.266,1.324-0.793,1.762c-0.529,0.438-1.214,0.656-2.055,0.656
			c-0.85,0-1.558-0.206-2.125-0.617C232.877,402.473,232.523,401.898,232.385,401.161z"/>
		<path fill="#696C71" d="M243.306,398.964l2.106-3.575h1.43l-2.899,4.797v3.186h-1.339v-3.186l-2.887-4.797h1.47L243.306,398.964z"
			/>
		<path fill="#696C71" d="M254.992,395.389v7.982h-1.04l-4.082-5.811v5.811h-1.3v-7.982h1.273l3.848,5.539v-5.539H254.992z"/>
		<path fill="#696C71" d="M258.015,402.351c-0.688-0.767-1.033-1.757-1.033-2.971c0-1.213,0.345-2.203,1.033-2.97
			c0.689-0.768,1.554-1.15,2.594-1.15c0.884,0,1.607,0.235,2.171,0.708c0.563,0.472,0.923,1.116,1.079,1.931h-1.326
			c-0.347-0.945-0.987-1.418-1.924-1.418c-0.693,0-1.243,0.271-1.651,0.812c-0.407,0.543-0.611,1.238-0.611,2.087
			c0,0.85,0.204,1.546,0.611,2.087c0.408,0.541,0.958,0.812,1.651,0.812c0.937,0,1.577-0.477,1.924-1.43h1.326
			c-0.156,0.822-0.516,1.471-1.079,1.943s-1.287,0.708-2.171,0.708C259.568,403.501,258.704,403.117,258.015,402.351z"/>
		<path fill="#696C71" d="M271.189,395.389h1.353v7.982h-1.353v-3.497h-4.017v3.497h-1.353v-7.982h1.353v3.289h4.017V395.389z"/>
		<path fill="#696C71" d="M277.273,400.135h-0.962v3.236h-1.353v-7.982h3.082c0.84,0,1.504,0.207,1.988,0.618
			c0.486,0.411,0.729,1.003,0.729,1.774c0,0.658-0.18,1.181-0.539,1.566c-0.36,0.386-0.861,0.631-1.502,0.734l2.314,3.289h-1.535
			L277.273,400.135z M276.312,396.559v2.444h1.703c0.442,0,0.786-0.11,1.034-0.331c0.246-0.221,0.369-0.518,0.369-0.891
			s-0.123-0.67-0.369-0.891c-0.248-0.221-0.592-0.332-1.034-0.332H276.312z"/>
		<path fill="#696C71" d="M288.727,396.422c0.693,0.776,1.04,1.762,1.04,2.958s-0.347,2.183-1.04,2.958s-1.578,1.163-2.652,1.163
			s-1.956-0.388-2.646-1.163c-0.688-0.775-1.033-1.762-1.033-2.958s0.345-2.182,1.033-2.958c0.689-0.775,1.571-1.162,2.646-1.162
			S288.033,395.646,288.727,396.422z M287.758,401.473c0.43-0.545,0.644-1.243,0.644-2.093c0-0.849-0.214-1.547-0.644-2.093
			c-0.429-0.546-0.99-0.818-1.684-0.818s-1.252,0.271-1.677,0.812c-0.425,0.541-0.638,1.24-0.638,2.099s0.213,1.558,0.638,2.1
			s0.983,0.812,1.677,0.812S287.329,402.02,287.758,401.473z"/>
		<path fill="#696C71" d="M298.178,395.389v7.982h-1.041l-4.082-5.811v5.811h-1.3v-7.982h1.274l3.848,5.539v-5.539H298.178z"/>
		<path fill="#696C71" d="M303.494,398.964l2.106-3.575h1.43l-2.899,4.797v3.186h-1.338v-3.186l-2.887-4.797h1.469L303.494,398.964z
			"/>
	</g>
</g>
<rect x="-5.168" y="439" fill="#FFFFFF" width="463" height="35"/>
<g>
	<g>
		<path fill="#696C71" d="M171.077,453.387c0.693,0.775,1.04,1.762,1.04,2.957c0,1.197-0.347,2.183-1.04,2.958
			c-0.693,0.776-1.578,1.163-2.652,1.163s-1.956-0.387-2.646-1.163c-0.689-0.775-1.033-1.761-1.033-2.958
			c0-1.195,0.344-2.182,1.033-2.957c0.689-0.775,1.571-1.163,2.646-1.163S170.383,452.611,171.077,453.387z M170.108,458.438
			c0.429-0.546,0.644-1.244,0.644-2.094c0-0.849-0.214-1.547-0.644-2.092c-0.429-0.547-0.99-0.819-1.684-0.819
			s-1.252,0.271-1.677,0.812c-0.425,0.542-0.637,1.241-0.637,2.099c0,0.859,0.212,1.559,0.637,2.1
			c0.424,0.543,0.983,0.812,1.677,0.812S169.679,458.983,170.108,458.438z"/>
		<path fill="#696C71" d="M177.186,457.358h-1.729v2.978h-1.352v-7.982h3.081c0.841,0,1.506,0.217,1.996,0.65
			s0.734,1.053,0.734,1.858c0,0.798-0.245,1.413-0.734,1.847S178.027,457.358,177.186,457.358z M178.577,454.862
			c0-0.407-0.122-0.731-0.364-0.976c-0.243-0.242-0.594-0.363-1.053-0.363h-1.703v2.665h1.703c0.451,0,0.799-0.121,1.046-0.364
			C178.454,455.582,178.577,455.262,178.577,454.862z"/>
		<path fill="#696C71" d="M181.84,452.354h5.213v1.195h-3.887v2.106h3.523v1.183h-3.523v2.289h3.887v1.209h-5.213V452.354z"/>
		<path fill="#696C71" d="M191.487,457.099h-0.962v3.237h-1.352v-7.982h3.081c0.841,0,1.504,0.206,1.989,0.617
			c0.485,0.412,0.728,1.004,0.728,1.775c0,0.658-0.18,1.18-0.54,1.566c-0.36,0.385-0.86,0.63-1.501,0.734l2.314,3.289h-1.534
			L191.487,457.099z M190.524,453.523v2.443h1.703c0.442,0,0.787-0.109,1.034-0.331c0.247-0.221,0.37-0.518,0.37-0.89
			c0-0.373-0.123-0.67-0.37-0.891c-0.247-0.222-0.592-0.332-1.034-0.332H190.524z"/>
		<path fill="#696C71" d="M199.481,452.354h1.3l3.068,7.982h-1.378l-0.819-2.211h-3.055l-0.819,2.211h-1.365L199.481,452.354z
			 M200.118,454.004l-1.092,2.951h2.184L200.118,454.004z"/>
		<path fill="#696C71" d="M205.149,453.549v-1.195h6.656v1.195h-2.652v6.787h-1.352v-6.787H205.149z"/>
		<path fill="#696C71" d="M215.081,452.354v7.982h-1.352v-7.982H215.081z"/>
		<path fill="#696C71" d="M223.921,452.354v7.982h-1.04l-4.082-5.812v5.812h-1.3v-7.982h1.274l3.848,5.538v-5.538H223.921z"/>
		<path fill="#696C71" d="M231.773,457.371h-1.742v-1.156h3.029v0.623c0,1.093-0.318,1.971-0.956,2.633
			c-0.637,0.663-1.449,0.994-2.438,0.994c-1.083,0-1.98-0.383-2.69-1.15c-0.711-0.767-1.066-1.756-1.066-2.971
			c0-1.213,0.353-2.203,1.06-2.97c0.706-0.767,1.588-1.15,2.646-1.15c0.893,0,1.623,0.233,2.19,0.702
			c0.567,0.468,0.929,1.109,1.085,1.924h-1.352c-0.174-0.459-0.41-0.809-0.709-1.047s-0.703-0.357-1.215-0.357
			c-0.702,0-1.268,0.271-1.697,0.812c-0.428,0.542-0.643,1.237-0.643,2.086c0,0.859,0.217,1.561,0.65,2.107
			c0.433,0.545,1.014,0.818,1.741,0.818c0.589,0,1.065-0.171,1.431-0.514C231.461,458.414,231.687,457.952,231.773,457.371z"/>
		<path fill="#696C71" d="M237.947,458.125h1.379c0.251,0.798,0.854,1.196,1.807,1.196c0.469,0,0.843-0.106,1.125-0.318
			c0.281-0.212,0.422-0.501,0.422-0.864c0-0.286-0.089-0.514-0.266-0.683c-0.178-0.169-0.475-0.302-0.891-0.396l-1.353-0.325
			c-1.325-0.312-1.989-1.027-1.989-2.145c0-0.686,0.254-1.25,0.761-1.697c0.507-0.445,1.159-0.669,1.956-0.669
			c0.842,0,1.52,0.197,2.035,0.591c0.516,0.395,0.848,0.935,0.994,1.619h-1.352c-0.252-0.711-0.807-1.066-1.664-1.066
			c-0.434,0-0.782,0.102-1.047,0.306c-0.264,0.204-0.396,0.47-0.396,0.8c0,0.528,0.352,0.875,1.053,1.039l1.392,0.326
			c0.649,0.146,1.157,0.407,1.521,0.779c0.364,0.373,0.547,0.85,0.547,1.43c0,0.737-0.266,1.324-0.793,1.762
			c-0.529,0.438-1.214,0.656-2.055,0.656c-0.85,0-1.558-0.205-2.125-0.617C238.439,459.437,238.086,458.862,237.947,458.125z"/>
		<path fill="#696C71" d="M248.868,455.928l2.106-3.574h1.43l-2.899,4.797v3.186h-1.339v-3.186l-2.887-4.797h1.47L248.868,455.928z"
			/>
		<path fill="#696C71" d="M253.508,458.125h1.379c0.251,0.798,0.854,1.196,1.807,1.196c0.469,0,0.843-0.106,1.125-0.318
			c0.281-0.212,0.422-0.501,0.422-0.864c0-0.286-0.089-0.514-0.266-0.683c-0.178-0.169-0.475-0.302-0.891-0.396l-1.353-0.325
			c-1.325-0.312-1.989-1.027-1.989-2.145c0-0.686,0.254-1.25,0.761-1.697c0.507-0.445,1.159-0.669,1.956-0.669
			c0.842,0,1.52,0.197,2.035,0.591c0.516,0.395,0.848,0.935,0.994,1.619h-1.352c-0.252-0.711-0.807-1.066-1.664-1.066
			c-0.434,0-0.782,0.102-1.047,0.306c-0.264,0.204-0.396,0.47-0.396,0.8c0,0.528,0.352,0.875,1.053,1.039l1.392,0.326
			c0.649,0.146,1.157,0.407,1.521,0.779c0.364,0.373,0.547,0.85,0.547,1.43c0,0.737-0.266,1.324-0.793,1.762
			c-0.529,0.438-1.214,0.656-2.055,0.656c-0.85,0-1.558-0.205-2.125-0.617C254,459.437,253.646,458.862,253.508,458.125z"/>
		<path fill="#696C71" d="M261.036,453.549v-1.195h6.655v1.195h-2.651v6.787h-1.353v-6.787H261.036z"/>
		<path fill="#696C71" d="M269.615,452.354h5.214v1.195h-3.888v2.106h3.523v1.183h-3.523v2.289h3.888v1.209h-5.214V452.354z"/>
		<path fill="#696C71" d="M281.395,460.336h-0.963l-2.197-5.551v5.551h-1.287v-7.982h1.548l2.431,6.136l2.405-6.136h1.508v7.982
			h-1.3v-5.551L281.395,460.336z"/>
	</g>
</g>
</svg>
