<?xml version="1.0" encoding="utf-8"?>
<!-- Generator: Adobe Illustrator 16.0.4, SVG Export Plug-In . SVG Version: 6.00 Build 0)  -->
<!DOCTYPE svg PUBLIC "-//W3C//DTD SVG 1.0//EN" "http://www.w3.org/TR/2001/REC-SVG-20010904/DTD/svg10.dtd">
<svg version="1.0" id="Layer_1" xmlns="http://www.w3.org/2000/svg" xmlns:xlink="http://www.w3.org/1999/xlink" x="0px" y="0px"
	 width="452.664px" height="497px" viewBox="0 0 452.664 497" enable-background="new 0 0 452.664 497" xml:space="preserve">
<rect x="-5.336" y="-4" fill="#F5F6F6" width="464" height="506"/>
<g>
	<g>
		<g>
			<g>
				<line fill="none" stroke="#585A5E" stroke-miterlimit="10" x1="87.645" y1="197.42" x2="225.792" y2="197.42"/>
				<g>
					<polygon fill="#585A5E" points="224.771,200.91 230.815,197.42 224.771,193.93 					"/>
				</g>
			</g>
		</g>
		<g>
			<g>
				<line fill="none" stroke="#585A5E" stroke-miterlimit="10" x1="230.815" y1="321.65" x2="92.668" y2="321.65"/>
				<g>
					<polygon fill="#585A5E" points="93.689,318.16 87.645,321.65 93.689,325.141 					"/>
				</g>
			</g>
		</g>
	</g>
	<g>
		<g>
			<g>
				<g>
					<path fill="#696C71" d="M134.687,184.764h-0.962V188h-1.353v-7.981h3.081c0.841,0,1.504,0.206,1.989,0.618
						c0.485,0.411,0.728,1.002,0.728,1.773c0,0.659-0.18,1.182-0.539,1.566c-0.359,0.387-0.86,0.631-1.502,0.734l2.314,3.289h-1.534
						L134.687,184.764z M133.725,181.188v2.444h1.703c0.441,0,0.786-0.111,1.033-0.332s0.37-0.518,0.37-0.891
						c0-0.372-0.123-0.669-0.37-0.891c-0.247-0.221-0.592-0.331-1.033-0.331H133.725z"/>
					<path fill="#696C71" d="M140.236,180.019h5.214v1.196h-3.888v2.105h3.523v1.184h-3.523v2.287h3.888V188h-5.214V180.019z"/>
					<path fill="#696C71" d="M153.146,188.533l-0.65-0.806c-0.512,0.269-1.07,0.403-1.678,0.403c-1.074,0-1.955-0.389-2.645-1.164
						s-1.033-1.762-1.033-2.957c0-1.196,0.344-2.182,1.033-2.958c0.689-0.775,1.57-1.163,2.645-1.163
						c1.075,0,1.959,0.388,2.652,1.163c0.693,0.776,1.041,1.762,1.041,2.958c0,1.222-0.369,2.223-1.105,3.003l0.662,0.819
						L153.146,188.533z M153.146,184.01c0-0.85-0.215-1.547-0.645-2.094c-0.428-0.545-0.99-0.818-1.684-0.818
						s-1.252,0.271-1.676,0.812c-0.426,0.541-0.638,1.241-0.638,2.1c0,0.857,0.212,1.558,0.638,2.1
						c0.424,0.541,0.982,0.812,1.676,0.812c0.33,0,0.633-0.053,0.91-0.156l-0.662-0.819l0.936-0.688l0.637,0.793
						C152.977,185.548,153.146,184.867,153.146,184.01z"/>
					<path fill="#696C71" d="M161.889,187.279c-0.576,0.567-1.354,0.852-2.334,0.852c-0.979,0-1.757-0.284-2.333-0.852
						c-0.577-0.568-0.864-1.389-0.864-2.464v-4.797h1.352v4.653c0,1.5,0.615,2.25,1.846,2.25s1.846-0.75,1.846-2.25v-4.653h1.353
						v4.81C162.753,185.895,162.465,186.711,161.889,187.279z"/>
					<path fill="#696C71" d="M165.041,180.019h5.213v1.196h-3.887v2.105h3.522v1.184h-3.522v2.287h3.887V188h-5.213V180.019z"/>
					<path fill="#696C71" d="M171.748,185.791h1.379c0.251,0.797,0.854,1.195,1.807,1.195c0.469,0,0.843-0.105,1.125-0.318
						c0.281-0.213,0.422-0.5,0.422-0.864c0-0.286-0.089-0.514-0.266-0.683c-0.178-0.169-0.475-0.301-0.891-0.396l-1.353-0.325
						c-1.325-0.312-1.989-1.026-1.989-2.146c0-0.684,0.254-1.25,0.761-1.695c0.507-0.447,1.159-0.67,1.956-0.67
						c0.842,0,1.52,0.197,2.035,0.592s0.848,0.934,0.994,1.618h-1.352c-0.252-0.71-0.807-1.065-1.664-1.065
						c-0.434,0-0.782,0.102-1.047,0.305c-0.264,0.203-0.396,0.471-0.396,0.8c0,0.528,0.352,0.876,1.053,1.04l1.392,0.324
						c0.649,0.148,1.157,0.408,1.521,0.781c0.364,0.372,0.547,0.849,0.547,1.43c0,0.736-0.266,1.324-0.793,1.762
						c-0.529,0.438-1.214,0.656-2.055,0.656c-0.85,0-1.558-0.206-2.125-0.617C172.24,187.102,171.887,186.527,171.748,185.791z"/>
					<path fill="#696C71" d="M179.275,181.215v-1.196h6.656v1.196h-2.652V188h-1.352v-6.785H179.275z"/>
				</g>
			</g>
		</g>
	</g>
	<g>
		<g>
			<g>
				<g>
					<path fill="#696C71" d="M256.313,251.12h-1.729v2.977h-1.353v-7.982h3.081c0.841,0,1.506,0.217,1.996,0.65
						c0.489,0.434,0.734,1.053,0.734,1.859c0,0.797-0.245,1.412-0.734,1.846C257.819,250.903,257.154,251.12,256.313,251.12z
						 M257.705,248.624c0-0.407-0.122-0.732-0.364-0.976c-0.243-0.242-0.594-0.363-1.053-0.363h-1.703v2.664h1.703
						c0.45,0,0.799-0.121,1.046-0.363C257.581,249.343,257.705,249.022,257.705,248.624z"/>
					<path fill="#696C71" d="M266.87,247.148c0.693,0.775,1.04,1.762,1.04,2.957c0,1.196-0.347,2.183-1.04,2.958
						s-1.577,1.163-2.652,1.163c-1.074,0-1.956-0.388-2.646-1.163c-0.688-0.775-1.033-1.762-1.033-2.958
						c0-1.195,0.345-2.182,1.033-2.957c0.689-0.775,1.571-1.164,2.646-1.164C265.293,245.984,266.177,246.373,266.87,247.148z
						 M265.901,252.198c0.429-0.546,0.644-1.243,0.644-2.093c0-0.849-0.215-1.547-0.644-2.093s-0.99-0.819-1.684-0.819
						s-1.252,0.271-1.677,0.812c-0.425,0.542-0.637,1.242-0.637,2.1c0,0.858,0.212,1.559,0.637,2.1
						c0.425,0.542,0.983,0.812,1.677,0.812S265.473,252.745,265.901,252.198z"/>
					<path fill="#696C71" d="M269.274,251.887h1.378c0.252,0.798,0.854,1.196,1.808,1.196c0.468,0,0.843-0.106,1.124-0.318
						c0.281-0.213,0.423-0.501,0.423-0.865c0-0.286-0.089-0.514-0.267-0.683s-0.475-0.301-0.891-0.396l-1.352-0.324
						c-1.326-0.312-1.989-1.027-1.989-2.146c0-0.685,0.253-1.25,0.761-1.696c0.507-0.446,1.158-0.67,1.956-0.67
						c0.841,0,1.519,0.197,2.034,0.592s0.848,0.934,0.995,1.618h-1.353c-0.251-0.71-0.806-1.065-1.664-1.065
						c-0.433,0-0.782,0.102-1.046,0.306c-0.265,0.203-0.396,0.47-0.396,0.799c0,0.529,0.351,0.876,1.053,1.04l1.391,0.325
						c0.65,0.147,1.157,0.407,1.521,0.78c0.364,0.372,0.546,0.85,0.546,1.43c0,0.737-0.265,1.324-0.793,1.762
						s-1.214,0.656-2.054,0.656c-0.85,0-1.559-0.206-2.126-0.617C269.767,253.197,269.413,252.623,269.274,251.887z"/>
					<path fill="#696C71" d="M276.801,247.311v-1.196h6.656v1.196h-2.652v6.786h-1.352v-6.786H276.801z"/>
					<path fill="#696C71" d="M289.353,253.485c-0.628-0.857-0.942-1.88-0.942-3.067s0.314-2.21,0.942-3.068
						c0.629-0.858,1.476-1.426,2.542-1.703v1.404c-0.65,0.156-1.179,0.537-1.586,1.144c-0.407,0.607-0.611,1.348-0.611,2.224
						c0,0.875,0.204,1.616,0.611,2.223s0.936,0.988,1.586,1.145v1.403C290.828,254.911,289.981,254.344,289.353,253.485z"/>
					<path fill="#696C71" d="M296.002,250.859h-0.962v3.237h-1.353v-7.982h3.081c0.841,0,1.504,0.206,1.989,0.618
						c0.485,0.411,0.728,1.003,0.728,1.774c0,0.658-0.18,1.181-0.539,1.566s-0.86,0.631-1.502,0.734l2.314,3.289h-1.534
						L296.002,250.859z M295.04,247.285v2.443h1.703c0.441,0,0.786-0.11,1.033-0.331c0.247-0.222,0.37-0.518,0.37-0.891
						s-0.123-0.67-0.37-0.891s-0.592-0.331-1.033-0.331H295.04z"/>
					<path fill="#696C71" d="M301.553,246.114h5.213v1.196h-3.887v2.106h3.523v1.183h-3.523v2.288h3.887v1.209h-5.213V246.114z"/>
					<path fill="#696C71" d="M314.462,254.63l-0.65-0.807c-0.511,0.27-1.07,0.403-1.677,0.403c-1.074,0-1.956-0.388-2.646-1.163
						c-0.688-0.775-1.033-1.762-1.033-2.958c0-1.195,0.345-2.182,1.033-2.957c0.689-0.775,1.571-1.164,2.646-1.164
						c1.075,0,1.959,0.389,2.652,1.164s1.04,1.762,1.04,2.957c0,1.223-0.368,2.224-1.105,3.003l0.663,0.819L314.462,254.63z
						 M314.462,250.105c0-0.849-0.215-1.547-0.644-2.093s-0.99-0.819-1.684-0.819s-1.252,0.271-1.677,0.812
						c-0.425,0.542-0.637,1.242-0.637,2.1c0,0.858,0.212,1.559,0.637,2.1c0.425,0.542,0.983,0.812,1.677,0.812
						c0.329,0,0.633-0.052,0.91-0.156l-0.663-0.818l0.937-0.689l0.637,0.793C314.293,251.645,314.462,250.964,314.462,250.105z"/>
					<path fill="#696C71" d="M323.204,253.375c-0.576,0.568-1.354,0.852-2.333,0.852s-1.758-0.283-2.334-0.852
						c-0.576-0.567-0.864-1.389-0.864-2.463v-4.798h1.353v4.654c0,1.5,0.615,2.249,1.846,2.249s1.846-0.749,1.846-2.249v-4.654
						h1.353v4.811C324.069,251.99,323.78,252.808,323.204,253.375z"/>
					<path fill="#696C71" d="M326.356,246.114h5.213v1.196h-3.887v2.106h3.523v1.183h-3.523v2.288h3.887v1.209h-5.213V246.114z"/>
					<path fill="#696C71" d="M333.064,251.887h1.378c0.252,0.798,0.854,1.196,1.808,1.196c0.468,0,0.843-0.106,1.124-0.318
						c0.281-0.213,0.423-0.501,0.423-0.865c0-0.286-0.089-0.514-0.267-0.683s-0.475-0.301-0.891-0.396l-1.352-0.324
						c-1.326-0.312-1.989-1.027-1.989-2.146c0-0.685,0.253-1.25,0.761-1.696c0.507-0.446,1.158-0.67,1.956-0.67
						c0.841,0,1.519,0.197,2.034,0.592s0.848,0.934,0.995,1.618h-1.353c-0.251-0.71-0.806-1.065-1.664-1.065
						c-0.433,0-0.782,0.102-1.046,0.306c-0.265,0.203-0.396,0.47-0.396,0.799c0,0.529,0.351,0.876,1.053,1.04l1.391,0.325
						c0.65,0.147,1.157,0.407,1.521,0.78c0.364,0.372,0.546,0.85,0.546,1.43c0,0.737-0.265,1.324-0.793,1.762
						s-1.214,0.656-2.054,0.656c-0.85,0-1.559-0.206-2.126-0.617C333.557,253.197,333.203,252.623,333.064,251.887z"/>
					<path fill="#696C71" d="M340.591,247.311v-1.196h6.656v1.196h-2.652v6.786h-1.352v-6.786H340.591z"/>
					<path fill="#696C71" d="M351.089,247.35c0.628,0.858,0.942,1.881,0.942,3.068s-0.314,2.21-0.942,3.067
						c-0.629,0.858-1.476,1.426-2.542,1.703v-1.403c0.65-0.156,1.179-0.538,1.586-1.145s0.611-1.348,0.611-2.223
						c0-0.876-0.204-1.616-0.611-2.224c-0.407-0.606-0.936-0.987-1.586-1.144v-1.404C349.613,245.924,350.46,246.491,351.089,247.35
						z"/>
				</g>
			</g>
		</g>
	</g>
	<g>
		<g>
			<g>
				<g>
					<path fill="#696C71" d="M131.014,335.797h-0.963v3.236h-1.352v-7.982h3.081c0.841,0,1.504,0.207,1.989,0.619
						c0.485,0.41,0.729,1.002,0.729,1.773c0,0.658-0.181,1.182-0.54,1.566c-0.36,0.387-0.86,0.631-1.501,0.734l2.313,3.289h-1.534
						L131.014,335.797z M130.051,332.223v2.443h1.703c0.442,0,0.787-0.111,1.034-0.332s0.37-0.518,0.37-0.891
						s-0.123-0.67-0.37-0.891s-0.592-0.33-1.034-0.33H130.051z"/>
					<path fill="#696C71" d="M136.564,331.051h5.213v1.197h-3.887v2.105h3.522v1.184h-3.522v2.287h3.887v1.209h-5.213V331.051z"/>
					<path fill="#696C71" d="M143.271,336.824h1.379c0.251,0.797,0.854,1.195,1.807,1.195c0.469,0,0.843-0.105,1.125-0.318
						c0.281-0.213,0.422-0.5,0.422-0.865c0-0.285-0.089-0.514-0.266-0.682c-0.178-0.17-0.475-0.301-0.891-0.396l-1.353-0.324
						c-1.325-0.312-1.989-1.027-1.989-2.146c0-0.684,0.254-1.25,0.761-1.695c0.507-0.447,1.159-0.67,1.956-0.67
						c0.842,0,1.52,0.197,2.035,0.592s0.848,0.934,0.994,1.617H147.9c-0.252-0.709-0.807-1.064-1.664-1.064
						c-0.434,0-0.782,0.102-1.047,0.305c-0.264,0.203-0.396,0.471-0.396,0.799c0,0.529,0.352,0.877,1.053,1.041l1.392,0.324
						c0.649,0.148,1.157,0.408,1.521,0.781c0.364,0.371,0.547,0.85,0.547,1.43c0,0.736-0.266,1.324-0.793,1.762
						c-0.529,0.438-1.214,0.656-2.055,0.656c-0.85,0-1.558-0.207-2.125-0.617C143.764,338.135,143.41,337.561,143.271,336.824z"/>
					<path fill="#696C71" d="M154.374,336.057h-1.729v2.977h-1.352v-7.982h3.081c0.841,0,1.506,0.217,1.995,0.65
						c0.49,0.434,0.734,1.053,0.734,1.859c0,0.797-0.244,1.412-0.734,1.846C155.88,335.84,155.215,336.057,154.374,336.057z
						 M155.766,333.561c0-0.406-0.122-0.732-0.364-0.975c-0.243-0.242-0.594-0.363-1.054-0.363h-1.703v2.664h1.703
						c0.451,0,0.8-0.121,1.047-0.363C155.642,334.279,155.766,333.959,155.766,333.561z"/>
					<path fill="#696C71" d="M164.93,332.086c0.693,0.775,1.041,1.762,1.041,2.957s-0.348,2.182-1.041,2.957
						s-1.577,1.164-2.652,1.164c-1.074,0-1.955-0.389-2.645-1.164s-1.033-1.762-1.033-2.957s0.344-2.182,1.033-2.957
						s1.57-1.164,2.645-1.164C163.353,330.922,164.236,331.311,164.93,332.086z M163.961,337.135
						c0.43-0.545,0.645-1.242,0.645-2.092s-0.215-1.547-0.645-2.094c-0.428-0.545-0.99-0.818-1.684-0.818s-1.252,0.271-1.676,0.812
						c-0.426,0.541-0.638,1.242-0.638,2.1s0.212,1.559,0.638,2.1c0.424,0.541,0.982,0.812,1.676,0.812
						S163.533,337.682,163.961,337.135z"/>
					<path fill="#696C71" d="M174.381,331.051v7.982h-1.039l-4.082-5.811v5.811h-1.301v-7.982h1.274l3.848,5.539v-5.539H174.381z"/>
					<path fill="#696C71" d="M176.175,336.824h1.378c0.252,0.797,0.854,1.195,1.807,1.195c0.469,0,0.844-0.105,1.125-0.318
						s0.423-0.5,0.423-0.865c0-0.285-0.089-0.514-0.267-0.682c-0.178-0.17-0.475-0.301-0.891-0.396l-1.352-0.324
						c-1.326-0.312-1.989-1.027-1.989-2.146c0-0.684,0.253-1.25,0.761-1.695c0.507-0.447,1.158-0.67,1.956-0.67
						c0.841,0,1.519,0.197,2.034,0.592s0.848,0.934,0.995,1.617h-1.353c-0.251-0.709-0.806-1.064-1.664-1.064
						c-0.434,0-0.781,0.102-1.046,0.305s-0.397,0.471-0.397,0.799c0,0.529,0.352,0.877,1.054,1.041l1.392,0.324
						c0.649,0.148,1.156,0.408,1.521,0.781c0.364,0.371,0.546,0.85,0.546,1.43c0,0.736-0.265,1.324-0.793,1.762
						c-0.529,0.438-1.213,0.656-2.055,0.656c-0.849,0-1.557-0.207-2.125-0.617C176.667,338.135,176.313,337.561,176.175,336.824z"/>
					<path fill="#696C71" d="M184.195,331.051h5.214v1.197h-3.888v2.105h3.523v1.184h-3.523v2.287h3.888v1.209h-5.214V331.051z"/>
				</g>
			</g>
		</g>
	</g>
	<rect x="39.854" y="75.436" fill="#FFFFFF" width="94.699" height="40"/>
	<g>
		<g>
			<path fill="#696C71" d="M65.369,98.25c-0.688-0.767-1.033-1.756-1.033-2.971c0-1.213,0.345-2.203,1.033-2.97
				c0.689-0.767,1.555-1.15,2.594-1.15c0.885,0,1.607,0.235,2.172,0.708c0.562,0.473,0.922,1.116,1.078,1.931h-1.326
				c-0.346-0.944-0.987-1.417-1.924-1.417c-0.693,0-1.243,0.271-1.65,0.812c-0.408,0.542-0.611,1.237-0.611,2.086
				c0,0.85,0.203,1.546,0.611,2.088c0.407,0.541,0.957,0.812,1.65,0.812c0.937,0,1.578-0.477,1.924-1.431h1.326
				c-0.156,0.823-0.516,1.472-1.078,1.943c-0.564,0.473-1.287,0.708-2.172,0.708C66.924,99.4,66.059,99.018,65.369,98.25z"/>
			<path fill="#696C71" d="M75.62,91.289h1.3l3.068,7.982h-1.379l-0.818-2.211h-3.055l-0.819,2.211h-1.365L75.62,91.289z
				 M76.257,92.939l-1.092,2.951h2.185L76.257,92.939z"/>
			<path fill="#696C71" d="M81.781,99.271v-7.982h1.353v6.773h3.835v1.209H81.781z"/>
			<path fill="#696C71" d="M88.996,99.271v-7.982h1.353v6.773h3.835v1.209H88.996z"/>
			<path fill="#696C71" d="M96.211,91.289h5.214v1.195h-3.888v2.106h3.523v1.183h-3.523v2.289h3.888v1.209h-5.214V91.289z"/>
			<path fill="#696C71" d="M105.857,96.034h-0.962v3.237h-1.353v-7.982h3.082c0.84,0,1.504,0.206,1.988,0.617
				c0.486,0.412,0.729,1.004,0.729,1.775c0,0.658-0.18,1.18-0.539,1.566c-0.36,0.385-0.861,0.63-1.502,0.734l2.314,3.289h-1.535
				L105.857,96.034z M104.896,92.459v2.443h1.703c0.442,0,0.786-0.109,1.034-0.331c0.246-0.221,0.369-0.518,0.369-0.89
				c0-0.373-0.123-0.67-0.369-0.891c-0.248-0.222-0.592-0.332-1.034-0.332H104.896z"/>
		</g>
	</g>
	<rect x="39.854" y="401.848" fill="#FFFFFF" width="94.699" height="40"/>
	<g>
		<g>
			<path fill="#696C71" d="M65.369,424.662c-0.688-0.768-1.033-1.758-1.033-2.971s0.345-2.203,1.033-2.971
				c0.689-0.768,1.555-1.15,2.594-1.15c0.885,0,1.607,0.236,2.172,0.709c0.562,0.473,0.922,1.115,1.078,1.93h-1.326
				c-0.346-0.945-0.987-1.416-1.924-1.416c-0.693,0-1.243,0.27-1.65,0.812c-0.408,0.541-0.611,1.236-0.611,2.086
				s0.203,1.545,0.611,2.086c0.407,0.543,0.957,0.812,1.65,0.812c0.937,0,1.578-0.477,1.924-1.43h1.326
				c-0.156,0.824-0.516,1.471-1.078,1.943c-0.564,0.473-1.287,0.709-2.172,0.709C66.924,425.812,66.059,425.428,65.369,424.662z"/>
			<path fill="#696C71" d="M75.62,417.699h1.3l3.068,7.982h-1.379l-0.818-2.209h-3.055l-0.819,2.209h-1.365L75.62,417.699z
				 M76.257,419.352l-1.092,2.951h2.185L76.257,419.352z"/>
			<path fill="#696C71" d="M81.781,425.682v-7.982h1.353v6.773h3.835v1.209H81.781z"/>
			<path fill="#696C71" d="M88.996,425.682v-7.982h1.353v6.773h3.835v1.209H88.996z"/>
			<path fill="#696C71" d="M96.211,417.699h5.214v1.197h-3.888v2.105h3.523v1.184h-3.523v2.287h3.888v1.209h-5.214V417.699z"/>
			<path fill="#696C71" d="M105.857,422.445h-0.962v3.236h-1.353v-7.982h3.082c0.84,0,1.504,0.207,1.988,0.619
				c0.486,0.41,0.729,1.002,0.729,1.773c0,0.658-0.18,1.182-0.539,1.566c-0.36,0.387-0.861,0.631-1.502,0.734l2.314,3.289h-1.535
				L105.857,422.445z M104.896,418.871v2.443h1.703c0.442,0,0.786-0.111,1.034-0.332c0.246-0.221,0.369-0.518,0.369-0.891
				s-0.123-0.67-0.369-0.891c-0.248-0.221-0.592-0.33-1.034-0.33H104.896z"/>
		</g>
	</g>
	<g>
		<g>
			<path fill="#696C71" d="M204.02,425.682v-7.982h2.691c1.179,0,2.119,0.362,2.821,1.086s1.054,1.692,1.054,2.905
				c0,1.214-0.352,2.183-1.054,2.905c-0.702,0.725-1.643,1.086-2.821,1.086H204.02z M205.372,424.473h1.287
				c0.823,0,1.458-0.247,1.905-0.741c0.445-0.494,0.669-1.174,0.669-2.041c0-0.866-0.224-1.549-0.669-2.047
				c-0.447-0.499-1.082-0.748-1.905-0.748h-1.287V424.473z"/>
			<path fill="#696C71" d="M212.574,417.699h5.213v1.196H213.9v2.106h3.522v1.183H213.9v2.288h3.887v1.209h-5.213V417.699z"/>
			<path fill="#696C71" d="M221.258,425.682h-1.352v-7.982h5.096v1.196h-3.744v2.366h3.498v1.183h-3.498V425.682z"/>
			<path fill="#696C71" d="M229.436,417.699h1.299l3.068,7.982h-1.377l-0.82-2.21h-3.055l-0.818,2.21h-1.365L229.436,417.699z
				 M230.072,419.351l-1.092,2.951h2.184L230.072,419.351z"/>
			<path fill="#696C71" d="M240.998,424.96c-0.576,0.568-1.354,0.852-2.334,0.852c-0.979,0-1.758-0.283-2.334-0.852
				c-0.576-0.567-0.863-1.389-0.863-2.463v-4.798h1.352v4.654c0,1.5,0.615,2.249,1.846,2.249s1.846-0.749,1.846-2.249v-4.654h1.354
				v4.811C241.863,423.575,241.574,424.393,240.998,424.96z"/>
			<path fill="#696C71" d="M244.15,425.682v-7.982h1.354v6.773h3.834v1.209H244.15z"/>
			<path fill="#696C71" d="M250.871,418.896v-1.196h6.656v1.196h-2.652v6.786h-1.352v-6.786H250.871z"/>
		</g>
	</g>
	<g>
		<g>
			<path fill="#696C71" d="M204.02,99.271v-7.982h2.691c1.179,0,2.119,0.362,2.821,1.086s1.054,1.692,1.054,2.905
				c0,1.214-0.352,2.183-1.054,2.905c-0.702,0.725-1.643,1.086-2.821,1.086H204.02z M205.372,98.062h1.287
				c0.823,0,1.458-0.247,1.905-0.741c0.445-0.493,0.669-1.174,0.669-2.041c0-0.866-0.224-1.549-0.669-2.048
				c-0.447-0.498-1.082-0.747-1.905-0.747h-1.287V98.062z"/>
			<path fill="#696C71" d="M212.574,91.289h5.213v1.196H213.9v2.106h3.522v1.183H213.9v2.288h3.887v1.209h-5.213V91.289z"/>
			<path fill="#696C71" d="M221.258,99.271h-1.352v-7.982h5.096v1.196h-3.744v2.366h3.498v1.184h-3.498V99.271z"/>
			<path fill="#696C71" d="M229.436,91.289h1.299l3.068,7.982h-1.377l-0.82-2.21h-3.055l-0.818,2.21h-1.365L229.436,91.289z
				 M230.072,92.94l-1.092,2.951h2.184L230.072,92.94z"/>
			<path fill="#696C71" d="M240.998,98.55c-0.576,0.567-1.354,0.852-2.334,0.852c-0.979,0-1.758-0.284-2.334-0.852
				s-0.863-1.389-0.863-2.464v-4.797h1.352v4.654c0,1.5,0.615,2.249,1.846,2.249s1.846-0.749,1.846-2.249v-4.654h1.354V96.1
				C241.863,97.166,241.574,97.982,240.998,98.55z"/>
			<path fill="#696C71" d="M244.15,99.271v-7.982h1.354v6.773h3.834v1.209H244.15z"/>
			<path fill="#696C71" d="M250.871,92.485v-1.196h6.656v1.196h-2.652v6.786h-1.352v-6.786H250.871z"/>
		</g>
	</g>
	<line fill="none" stroke="#696C71" stroke-miterlimit="10" x1="87.203" y1="115.436" x2="87.203" y2="402.406"/>
	
		<line fill="none" stroke="#585A5E" stroke-width="0.7251" stroke-miterlimit="10" x1="269.557" y1="114.936" x2="192.146" y2="114.936"/>
	
		<line fill="none" stroke="#585A5E" stroke-width="0.7251" stroke-miterlimit="10" x1="192.146" y1="402.348" x2="269.557" y2="402.348"/>
	<line fill="none" stroke="#696C71" stroke-miterlimit="10" x1="230.852" y1="115.436" x2="230.852" y2="402.348"/>
	<g>
		<path fill="#FFFFFF" stroke="#585A5E" stroke-miterlimit="10" d="M249.17,229.855c0,2.215-1.795,4.01-4.01,4.01h-28.588
			c-2.215,0-4.009-1.795-4.009-4.01v-8.76c0-2.213,1.794-4.01,4.009-4.01h28.588c2.215,0,4.01,1.797,4.01,4.01V229.855z"/>
		<g>
			<circle fill="#585A5E" cx="222.667" cy="225.928" r="2.05"/>
			<circle fill="#585A5E" cx="230.866" cy="225.928" r="2.05"/>
			<circle fill="#585A5E" cx="239.065" cy="225.928" r="2.05"/>
		</g>
	</g>
	<g>
		<path fill="#20B6AF" d="M352.377,422.444h-0.963v3.237h-1.352v-7.982h3.08c0.842,0,1.504,0.206,1.99,0.618
			c0.484,0.411,0.727,1.003,0.727,1.774c0,0.658-0.18,1.181-0.539,1.566s-0.859,0.631-1.502,0.734l2.314,3.289H354.6
			L352.377,422.444z M351.414,418.87v2.443h1.703c0.441,0,0.787-0.11,1.033-0.331c0.248-0.222,0.371-0.518,0.371-0.891
			s-0.123-0.67-0.371-0.891c-0.246-0.221-0.592-0.331-1.033-0.331H351.414z"/>
		<path fill="#20B6AF" d="M357.928,417.699h5.213v1.196h-3.887v2.106h3.523v1.183h-3.523v2.288h3.887v1.209h-5.213V417.699z"/>
		<path fill="#20B6AF" d="M369.705,425.682h-0.961l-2.197-5.551v5.551h-1.287v-7.982h1.547l2.432,6.137l2.404-6.137h1.508v7.982
			h-1.301v-5.551L369.705,425.682z"/>
		<path fill="#20B6AF" d="M381.471,418.733c0.693,0.775,1.039,1.762,1.039,2.957c0,1.196-0.346,2.183-1.039,2.958
			s-1.578,1.163-2.652,1.163s-1.957-0.388-2.646-1.163c-0.688-0.775-1.033-1.762-1.033-2.958c0-1.195,0.346-2.182,1.033-2.957
			c0.689-0.775,1.572-1.164,2.646-1.164S380.777,417.958,381.471,418.733z M380.502,423.783c0.428-0.546,0.643-1.243,0.643-2.093
			c0-0.849-0.215-1.547-0.643-2.093c-0.43-0.546-0.99-0.819-1.684-0.819s-1.252,0.271-1.678,0.812
			c-0.424,0.542-0.637,1.242-0.637,2.1c0,0.858,0.213,1.559,0.637,2.1c0.426,0.542,0.984,0.812,1.678,0.812
			S380.072,424.33,380.502,423.783z"/>
		<path fill="#20B6AF" d="M384.004,418.896v-1.196h6.656v1.196h-2.652v6.786h-1.352v-6.786H384.004z"/>
		<path fill="#20B6AF" d="M392.584,417.699h5.213v1.196h-3.887v2.106h3.523v1.183h-3.523v2.288h3.887v1.209h-5.213V417.699z"/>
	</g>
	<g>
		<g>
			<path fill="#20B6AF" d="M352.377,96.035h-0.963v3.236h-1.352v-7.982h3.08c0.842,0,1.504,0.207,1.99,0.618
				c0.484,0.411,0.727,1.003,0.727,1.774c0,0.658-0.18,1.181-0.539,1.566s-0.859,0.631-1.502,0.734l2.314,3.289H354.6
				L352.377,96.035z M351.414,92.459v2.444h1.703c0.441,0,0.787-0.11,1.033-0.331c0.248-0.221,0.371-0.518,0.371-0.891
				s-0.123-0.67-0.371-0.891c-0.246-0.221-0.592-0.332-1.033-0.332H351.414z"/>
			<path fill="#20B6AF" d="M357.928,91.289h5.213v1.196h-3.887v2.106h3.523v1.183h-3.523v2.288h3.887v1.209h-5.213V91.289z"/>
			<path fill="#20B6AF" d="M369.705,99.271h-0.961l-2.197-5.551v5.551h-1.287v-7.982h1.547l2.432,6.137l2.404-6.137h1.508v7.982
				h-1.301v-5.551L369.705,99.271z"/>
			<path fill="#20B6AF" d="M381.471,92.322c0.693,0.776,1.039,1.762,1.039,2.958s-0.346,2.183-1.039,2.958s-1.578,1.163-2.652,1.163
				s-1.957-0.388-2.646-1.163c-0.688-0.775-1.033-1.762-1.033-2.958s0.346-2.182,1.033-2.958c0.689-0.775,1.572-1.162,2.646-1.162
				S380.777,91.547,381.471,92.322z M380.502,97.373c0.428-0.545,0.643-1.243,0.643-2.093c0-0.849-0.215-1.547-0.643-2.093
				c-0.43-0.546-0.99-0.818-1.684-0.818s-1.252,0.271-1.678,0.812c-0.424,0.541-0.637,1.24-0.637,2.099s0.213,1.558,0.637,2.1
				c0.426,0.542,0.984,0.812,1.678,0.812S380.072,97.92,380.502,97.373z"/>
			<path fill="#20B6AF" d="M384.004,92.485v-1.196h6.656v1.196h-2.652v6.786h-1.352v-6.786H384.004z"/>
			<path fill="#20B6AF" d="M392.584,91.289h5.213v1.196h-3.887v2.106h3.523v1.183h-3.523v2.288h3.887v1.209h-5.213V91.289z"/>
		</g>
	</g>
	
		<line fill="none" stroke="#20B6AF" stroke-width="0.7252" stroke-miterlimit="10" x1="412.811" y1="115.074" x2="335.4" y2="115.074"/>
	
		<line fill="none" stroke="#20B6AF" stroke-width="0.7252" stroke-miterlimit="10" x1="335.4" y1="402.484" x2="412.811" y2="402.484"/>
	<line fill="none" stroke="#20B6AF" stroke-miterlimit="10" x1="374.105" y1="115.436" x2="374.105" y2="402.484"/>
	<rect x="367.633" y="262.336" fill="#20B5AE" width="12.73" height="24.045"/>
	<g id="cXyJnD_1_">
		<g>
			<g>
				<path fill-rule="evenodd" clip-rule="evenodd" fill="#585A5E" d="M225.521,63.168c-0.193,0.473-0.057,0.842,0.301,1.195
					c1.285,1.262,2.553,2.541,3.824,3.816c0.24,0.24,0.51,0.352,0.848,0.252c0.402-0.119,0.594-0.359,0.596-0.781
					c0.006-0.752,0.004-1.504,0.004-2.254c0-0.074,0.002-0.146,0.004-0.23c1.305,0.053,2.492,0.428,3.543,1.199
					c1.359,1,2.256,2.318,2.6,3.975c0.422,2.047-0.025,3.918-1.365,5.518c-2.205,2.641-5.918,3.16-8.74,1.191
					c-2.014-1.404-2.943-3.398-2.77-5.861c0.049-0.678-0.141-0.799-0.725-0.781c-0.686,0.02-1.369,0.008-2.055,0.012
					c-0.33,0.002-0.473,0.133-0.498,0.465c-0.189,2.51,0.453,4.787,2.002,6.768c2.068,2.643,4.832,3.914,8.176,3.824
					c2.068-0.055,3.938-0.77,5.586-2.035c0.158-0.121,0.316-0.24,0.477-0.359c0.305-0.305,0.611-0.611,0.914-0.916
					c0.164-0.209,0.334-0.414,0.488-0.631c1.398-1.967,2.07-4.146,1.889-6.562c-0.135-1.768-0.699-3.396-1.711-4.859
					c-0.211-0.305-0.441-0.596-0.666-0.893c-0.293-0.293-0.588-0.588-0.883-0.883c-0.17-0.131-0.34-0.26-0.51-0.393
					c-1.232-0.938-2.605-1.57-4.127-1.857c-0.531-0.102-1.068-0.146-1.645-0.223c0.006-0.09,0.021-0.193,0.021-0.297
					c-0.002-0.67-0.002-1.34-0.012-2.01c-0.006-0.463-0.285-0.775-0.748-0.805c-0.162-0.012-0.33,0.057-0.494,0.09
					C228.404,60.283,226.963,61.727,225.521,63.168z"/>
			</g>
		</g>
	</g>
	<g>
		
			<circle fill-rule="evenodd" clip-rule="evenodd" fill="none" stroke="#20B6AF" stroke-width="3.3851" stroke-miterlimit="10" cx="374.856" cy="69.068" r="10.72"/>
		
			<circle fill-rule="evenodd" clip-rule="evenodd" fill="none" stroke="#20B6AF" stroke-width="3.3851" stroke-miterlimit="10" cx="374.857" cy="69.068" r="5.078"/>
		<g>
			
				<line fill="none" stroke="#FFFFFF" stroke-width="4.5134" stroke-linecap="round" stroke-linejoin="round" stroke-miterlimit="10" x1="373.184" y1="67.395" x2="363.199" y2="57.41"/>
			
				<polyline fill="none" stroke="#FFFFFF" stroke-width="4.5134" stroke-linecap="round" stroke-linejoin="round" stroke-miterlimit="10" points="
				366.533,67.686 373.184,67.395 374.049,60.707 			"/>
			
				<line fill="none" stroke="#FFFFFF" stroke-width="4.5134" stroke-miterlimit="10" x1="366.533" y1="67.686" x2="373.184" y2="67.395"/>
		</g>
		<g>
			
				<line fill="none" stroke="#20B6AF" stroke-width="1.1284" stroke-linecap="round" stroke-linejoin="round" stroke-miterlimit="10" x1="373.184" y1="67.395" x2="363.199" y2="57.41"/>
			
				<polyline fill="none" stroke="#20B6AF" stroke-width="1.1284" stroke-linecap="round" stroke-linejoin="round" stroke-miterlimit="10" points="
				366.533,67.686 373.184,67.395 374.049,60.707 			"/>
			
				<line fill="none" stroke="#20B6AF" stroke-width="1.1284" stroke-miterlimit="10" x1="366.533" y1="67.686" x2="373.184" y2="67.395"/>
		</g>
	</g>
	<g>
		<g>
			<g>
				<line fill="none" stroke="#585A5E" stroke-miterlimit="10" x1="230.867" y1="262.498" x2="364.031" y2="262.498"/>
				<g>
					<polygon fill="#585A5E" points="363.01,265.988 369.055,262.498 363.01,259.008 					"/>
				</g>
			</g>
		</g>
		<g>
			<g>
				
					<line fill="none" stroke="#585A5E" stroke-linecap="round" stroke-linejoin="round" x1="374.105" y1="286.279" x2="371.771" y2="286.279"/>
				
					<line fill="none" stroke="#585A5E" stroke-linecap="round" stroke-linejoin="round" stroke-dasharray="4.6069,4.6069" x1="367.165" y1="286.279" x2="240.476" y2="286.279"/>
				
					<line fill="none" stroke="#585A5E" stroke-linecap="round" stroke-linejoin="round" x1="238.173" y1="286.279" x2="235.839" y2="286.279"/>
				<g>
					<polygon fill="#585A5E" points="236.86,282.789 230.815,286.279 236.86,289.77 					"/>
				</g>
			</g>
		</g>
	</g>
</g>
</svg>
