<svg version="1" xmlns="http://www.w3.org/2000/svg" viewBox="0 0 452.7 517.6"><path fill="#FFF" d="M-6 311h464v211.9H-6z"/><path fill="#F5F6F6" d="M-6-6h464v317H-6z"/><path fill="none" stroke="#585A5E" stroke-miterlimit="10" d="M62.3 106.1h104.9"/><path fill="#585A5E" d="M166.2 109.6l6-3.5-6-3.5z"/><path fill="none" stroke="#585A5E" stroke-miterlimit="10" d="M172.2 206.5H67.1"/><path fill="#585A5E" d="M68.1 203l-6 3.5 6 3.5z"/><g fill="#676C72"><path d="M94.6 96.7h-.9v3h-1.2v-7.4h2.8c.8 0 1.4.2 1.8.6.5.3.7.9.7 1.6 0 .6-.1 1-.5 1.4-.3.4-.8.6-1.4.7l2.2 3h-1.4l-2.1-3zm-.9-3.3v2.2h1.6c.4 0 .7 0 1-.3.2-.2.3-.5.3-.8s-.1-.6-.4-.8-.5-.3-1-.3h-1.5zM99.7 92.3h4.8v1H101v2h3.2v1.1H101v2.1h3.5v1.2h-4.8v-7.4zM111.6 100.1l-.6-.7c-.4.2-1 .4-1.5.4-1 0-1.8-.4-2.4-1.1-.7-.7-1-1.6-1-2.7s.3-2 1-2.8c.6-.7 1.4-1 2.4-1s1.8.3 2.4 1a4 4 0 0 1 1 2.8c0 1.1-.3 2-1 2.7l.6.8-.9.6zm0-4.1a3 3 0 0 0-.6-2c-.3-.5-.9-.7-1.5-.7s-1.2.2-1.6.7c-.3.5-.5 1.2-.5 2s.2 1.4.5 2c.4.4 1 .7 1.6.7.3 0 .6 0 .8-.2l-.6-.7.9-.7.6.8c.3-.5.4-1.1.4-2zM119.7 99a3 3 0 0 1-2.1.8 3 3 0 0 1-2.2-.8c-.5-.5-.8-1.3-.8-2.3v-4.4h1.3v4.3c0 1.4.5 2 1.7 2 1 0 1.7-.6 1.7-2v-4.3h1.2v4.4c0 1-.3 1.8-.8 2.3zM122.6 92.3h4.8v1h-3.6v2h3.3v1.1h-3.3v2.1h3.6v1.2h-4.8v-7.4zM128.8 97.6h1.3c.2.7.8 1.1 1.7 1.1.4 0 .7 0 1-.3.3-.2.4-.4.4-.8l-.3-.6-.8-.4-1.2-.3c-1.3-.3-1.9-1-1.9-2 0-.6.3-1.1.7-1.5.5-.4 1.1-.6 1.8-.6.8 0 1.4.1 2 .5s.7.9.8 1.5h-1.2c-.2-.7-.8-1-1.6-1-.4 0-.7.1-1 .3-.2.2-.3.4-.3.7 0 .5.3.8 1 1l1.3.3c.6.1 1 .4 1.4.7.3.4.5.8.5 1.3a2 2 0 0 1-.8 1.7c-.4.4-1 .6-1.8.6s-1.5-.2-2-.6c-.5-.4-.9-1-1-1.6zM135.8 93.4v-1.1h6.1v1h-2.4v6.4h-1.3v-6.3h-2.4z"/></g><g fill="#676C72"><path d="M191.6 117H190v-1h2.8v.6c0 1-.3 1.8-.9 2.4a3 3 0 0 1-2.2 1c-1 0-1.9-.4-2.5-1.2-.7-.7-1-1.6-1-2.7s.3-2 1-2.7c.6-.7 1.4-1 2.4-1a3 3 0 0 1 2 .6c.6.4.9 1 1 1.7h-1.2l-.7-1c-.2-.2-.6-.3-1-.3-.7 0-1.3.3-1.7.8a3 3 0 0 0-.6 2c0 .7.2 1.3.6 1.9.4.5 1 .7 1.7.7.5 0 1-.1 1.3-.5s.5-.7.6-1.2zM194.6 112.4h4.8v1.1h-3.6v2h3.3v1h-3.3v2.2h3.6v1h-4.8v-7.3zM201 113.5v-1h6v1h-2.4v6.3h-1.2v-6.3h-2.5zM212.5 119.2c-.6-.8-.8-1.7-.8-2.8s.2-2 .8-2.8a4 4 0 0 1 2.4-1.6v1.3c-.6.1-1.1.5-1.5 1-.4.6-.6 1.3-.6 2.1s.2 1.5.6 2c.4.6.9 1 1.5 1.1v1.3c-1-.3-1.8-.8-2.4-1.6zM218.7 116.8h-1v3h-1.2v-7.4h2.9c.7 0 1.4.2 1.8.6.5.4.7 1 .7 1.6 0 .6-.2 1.1-.5 1.5s-.8.6-1.4.7l2.1 3h-1.4l-2-3zm-1-3.3v2.3h1.6c.4 0 .8-.1 1-.3.2-.3.3-.5.3-.9s0-.6-.3-.8c-.2-.2-.6-.3-1-.3h-1.5zM223.8 112.4h4.8v1.1H225v2h3.3v1H225v2.2h3.6v1h-4.8v-7.3zM235.7 120.3l-.6-.8c-.5.3-1 .4-1.5.4-1 0-1.9-.3-2.5-1a4 4 0 0 1-1-2.8c0-1.1.4-2 1-2.7.6-.7 1.5-1.1 2.5-1.1s1.8.4 2.4 1a4 4 0 0 1 1 2.8c0 1.1-.4 2-1 2.8l.5.7-.8.7zm0-4.2a3 3 0 0 0-.6-2c-.4-.4-1-.7-1.5-.7-.7 0-1.2.3-1.6.8a3 3 0 0 0-.6 2c0 .7.2 1.3.6 1.8.4.5 1 .8 1.6.8.3 0 .5 0 .8-.2l-.6-.7.8-.6.6.7c.3-.5.5-1.1.5-1.9zM243.8 119.1a3 3 0 0 1-2.2.8c-.9 0-1.6-.3-2.1-.8s-.8-1.3-.8-2.2v-4.5h1.2v4.3c0 1.4.6 2 1.7 2 1.2 0 1.7-.6 1.7-2v-4.3h1.3v4.5c0 1-.3 1.7-.8 2.2zM246.7 112.4h4.8v1.1h-3.6v2h3.3v1h-3.3v2.2h3.6v1h-4.8v-7.3zM252.9 117.8h1.2c.3.7.8 1 1.7 1 .4 0 .8 0 1-.2s.4-.5.4-.8c0-.3 0-.5-.2-.7l-.8-.3-1.3-.3c-1.2-.3-1.8-1-1.8-2 0-.6.2-1.2.7-1.6s1-.6 1.8-.6a3 3 0 0 1 1.9.5c.4.4.8 1 .9 1.5H257c-.2-.6-.7-1-1.5-1-.4 0-.7.2-1 .3s-.3.5-.3.8c0 .5.3.8 1 1l1.2.2c.6.2 1.1.4 1.4.8a2 2 0 0 1-.2 2.9c-.5.4-1.1.6-1.9.6-.8 0-1.4-.2-2-.6-.5-.3-.8-.9-1-1.5zM259.8 113.5v-1h6.2v1h-2.5v6.3h-1.2v-6.3h-2.5zM269.5 113.6c.6.8.9 1.7.9 2.8s-.3 2-.9 2.8c-.6.8-1.4 1.3-2.3 1.6v-1.3c.6-.1 1-.5 1.4-1 .4-.6.6-1.3.6-2.1s-.2-1.5-.6-2c-.4-.6-.8-1-1.4-1.1V112c1 .2 1.7.8 2.3 1.6z"/></g><g fill="#676C72"><path d="M95.8 218h-.9v3h-1.2v-7.3h2.8c.8 0 1.4.2 1.8.6.5.3.7.9.7 1.6 0 .6-.2 1-.5 1.4s-.8.6-1.4.7l2.2 3h-1.5l-2-3zm-.9-3.2v2.2h1.6c.4 0 .7 0 1-.3.2-.2.3-.5.3-.8s-.1-.6-.4-.8-.5-.3-1-.3H95zM101 213.7h4.7v1.1h-3.6v2h3.3v1H102v2.1h3.6v1.2H101v-7.4zM107.1 219h1.3c.2.8.8 1.1 1.6 1.1.5 0 .8 0 1-.3.3-.2.5-.4.5-.8l-.3-.6-.8-.4-1.2-.3c-1.3-.3-1.9-1-1.9-2 0-.6.3-1.1.7-1.5.5-.4 1-.6 1.8-.6a3 3 0 0 1 2 .5c.4.4.7.9.8 1.5h-1.2c-.3-.6-.8-1-1.6-1-.4 0-.7.1-1 .3-.2.2-.3.4-.3.7 0 .5.3.9 1 1l1.3.3c.6.1 1 .4 1.4.7.3.4.5.8.5 1.3a2 2 0 0 1-.8 1.7c-.4.4-1 .6-1.9.6-.7 0-1.4-.2-2-.6-.4-.4-.8-.9-.9-1.6zM117.4 218.3h-1.6v2.8h-1.3v-7.4h2.9c.7 0 1.3.2 1.8.6.4.4.7 1 .7 1.7s-.3 1.3-.7 1.7c-.5.4-1 .6-1.8.6zm1.2-2.3c0-.4 0-.7-.3-.9-.2-.2-.5-.3-1-.3h-1.5v2.4h1.5c.4 0 .8 0 1-.3s.3-.5.3-.9zM127.1 214.6a4 4 0 0 1 1 2.8 4 4 0 0 1-1 2.7c-.6.7-1.5 1-2.5 1s-1.8-.3-2.4-1a4 4 0 0 1-1-2.7c0-1.1.4-2 1-2.8.6-.7 1.5-1 2.4-1s1.9.3 2.5 1zm-.9 4.7a3 3 0 0 0 .6-2c0-.7-.2-1.4-.6-1.9s-1-.7-1.6-.7-1.1.2-1.5.7a3 3 0 0 0-.6 2c0 .8.2 1.4.6 2 .4.4 1 .7 1.5.7s1.2-.3 1.6-.8zM135.8 213.7v7.4h-1l-3.7-5.4v5.4h-1.2v-7.4h1.2l3.5 5.1v-5.1h1.2zM137.5 219h1.3c.2.8.7 1.1 1.6 1.1.5 0 .8 0 1-.3.3-.2.4-.4.4-.8 0-.2 0-.4-.2-.6s-.4-.3-.8-.4l-1.3-.3c-1.2-.3-1.8-1-1.8-2 0-.6.2-1.1.7-1.5.5-.4 1-.6 1.8-.6a3 3 0 0 1 1.9.5c.5.4.8.9.9 1.5h-1.3c-.2-.6-.7-1-1.5-1-.4 0-.7.1-1 .3-.2.2-.3.4-.3.7 0 .5.3.9 1 1l1.2.3c.6.1 1.1.4 1.4.7.4.4.5.8.5 1.3a2 2 0 0 1-.7 1.7c-.5.4-1.1.6-1.9.6-.8 0-1.4-.2-2-.6-.5-.4-.8-.9-1-1.6zM144.9 213.7h4.8v1.1H146v2h3.3v1H146v2.1h3.6v1.2h-4.8v-7.4z"/></g><path fill="none" stroke="#585A5E" stroke-miterlimit="10" d="M172.4 126.3h107.2"/><path fill="#585A5E" d="M278.6 129.8l6-3.5-6-3.5z"/><path fill="none" stroke="#585A5E" stroke-linecap="round" stroke-linejoin="round" d="M284.4 141H282"/><path fill="none" stroke="#585A5E" stroke-linecap="round" stroke-linejoin="round" stroke-dasharray="4.8774,4.8774" d="M277.2 141h-95.1"/><path fill="none" stroke="#585A5E" stroke-linecap="round" stroke-linejoin="round" d="M179.6 141h-2.3"/><path fill="#585A5E" d="M178.3 137.5l-6 3.5 6 3.5z"/><path fill="none" stroke="#585A5E" stroke-miterlimit="10" d="M15.2 39.1h94.7v40H15.2z"/><g fill="#676C72"><path d="M40.7 62c-.6-.9-1-1.8-1-3 0-1.3.4-2.3 1-3 .7-.8 1.6-1.2 2.6-1.2s1.6.3 2.2.7c.6.5 1 1.1 1 2h-1.2c-.4-1-1-1.5-2-1.5a2 2 0 0 0-1.6.9c-.4.5-.6 1.2-.6 2 0 .9.2 1.6.6 2.1.4.6 1 .8 1.6.8 1 0 1.6-.4 2-1.4h1.3c-.2.8-.5 1.5-1 2s-1.4.7-2.3.7c-1 0-1.9-.4-2.6-1.2zM51 55h1.3l3 8H54l-.8-2.3h-3l-1 2.2H48l3-8zm.6 1.6l-1 3h2.1l-1-3zM57.2 63v-8h1.3v6.7h3.8V63h-5.1zM64.4 63v-8h1.3v6.7h3.9V63h-5.2zM71.6 55h5.2V56h-3.9v2.2h3.5v1.1H73v2.3h3.9V63h-5.2v-8zM81.2 59.7h-1v3.2H79v-8H82c.8 0 1.5.3 2 .7s.7 1 .7 1.7-.2 1.2-.5 1.6c-.4.4-.9.6-1.5.7L85 63h-1.5l-2.3-3.2zm-1-3.6v2.5H82c.4 0 .8-.1 1-.4s.4-.5.4-.9-.1-.6-.4-.8-.6-.4-1-.4h-1.7z"/></g><path fill="none" stroke="#585A5E" stroke-miterlimit="10" d="M15.2 234.3h94.7v40H15.2z"/><g fill="#676C72"><path d="M40.7 257.1c-.6-.7-1-1.7-1-3 0-1.1.4-2.1 1-2.9.7-.8 1.6-1.2 2.6-1.2s1.6.3 2.2.8 1 1 1 1.9h-1.2c-.4-1-1-1.4-2-1.4a2 2 0 0 0-1.6.8c-.4.5-.6 1.2-.6 2 0 1 .2 1.6.6 2.2.4.5 1 .8 1.6.8 1 0 1.6-.5 2-1.5h1.3c-.2.9-.5 1.5-1 2-.7.5-1.4.7-2.3.7-1 0-1.9-.4-2.6-1.2zM51 250.2h1.3l3 8H54l-.8-2.3h-3l-1 2.3H48l3-8zm.6 1.6l-1 3h2.1l-1-3zM57.2 258.2v-8h1.3v6.7h3.8v1.3h-5.1zM64.4 258.2v-8h1.3v6.7h3.9v1.3h-5.2zM71.6 250.2h5.2v1.2h-3.9v2h3.5v1.3H73v2.2h3.9v1.3h-5.2v-8zM81.2 255h-1v3.2H79v-8H82c.8 0 1.5.2 2 .6s.7 1 .7 1.8c0 .6-.2 1.1-.5 1.5-.4.4-.9.7-1.5.8l2.3 3.3h-1.5l-2.3-3.3zm-1-3.7v2.5H82c.4 0 .8-.1 1-.3.3-.3.4-.6.4-1s-.1-.6-.4-.8-.6-.4-1-.4h-1.7z"/></g><path fill="none" stroke="#676C72" stroke-miterlimit="10" d="M62.6 79.1v155.2"/><path fill="none" stroke="#20B6AF" stroke-width=".7" stroke-miterlimit="10" d="M334 78.7h-99.7M234.3 235H334"/><path fill="none" stroke="#20B6AF" stroke-miterlimit="10" d="M284.2 79.1V235M318.8 38.3c-4.5 0-8.6 1.9-11.5 4.9-2.8-3-6.9-4.9-11.4-4.9h-.6c-4.3 0-8.3 1.8-11.1 4.6a15.9 15.9 0 0 0-11.2-4.6h-.3-.3c-4.5 0-8.5 1.9-11.4 4.9a15.9 15.9 0 0 0-27.4 11A16 16 0 0 0 261 65.5c2.9 3 7 4.8 11.4 4.8h.6c4.4 0 8.3-1.7 11.2-4.5 2.8 2.8 6.8 4.5 11 4.5h.7c4.5 0 8.6-1.9 11.4-4.8a15.9 15.9 0 0 0 27.4-11.1 16 16 0 0 0-16-16z"/><g fill="#20B6AF"><path d="M253 50.1h5.2v1.2h-3.9v2.1h3.5v1.2h-3.5v2.3h4V58H253v-8zM267 50.1v8h-1l-4.1-5.8V58h-1.3v-8h1.3l3.8 5.6V50h1.3zM269.7 58.1v-8h2.7c1.2 0 2.1.4 2.8 1.1a4 4 0 0 1 1 3 4 4 0 0 1-1 2.8c-.7.7-1.6 1.1-2.8 1.1h-2.7zm1.3-1.2h1.3c.9 0 1.5-.3 2-.7s.6-1.2.6-2a3 3 0 0 0-.7-2.1c-.4-.5-1-.8-1.9-.8H271V57zM281.6 55.1h-1.7v3h-1.4v-8h3a3 3 0 0 1 2 .7c.6.4.8 1 .8 1.8s-.2 1.4-.7 1.9c-.5.4-1.2.6-2 .6zm1.4-2.5c0-.4-.1-.7-.4-1-.2-.2-.6-.3-1-.3h-1.7V54h1.7c.4 0 .8-.2 1-.4.3-.3.4-.6.4-1zM292.4 51.2c.7.7 1 1.7 1 3 0 1.1-.3 2-1 2.9s-1.6 1.1-2.6 1.1c-1.1 0-2-.4-2.7-1.1-.7-.8-1-1.8-1-3s.3-2.2 1-3c.7-.7 1.6-1.1 2.6-1.1 1.1 0 2 .4 2.7 1.2zm-1 5c.5-.5.7-1.2.7-2 0-1-.2-1.6-.7-2.2s-1-.8-1.6-.8-1.3.3-1.7.8c-.5.6-.7 1.3-.7 2.1 0 .9.2 1.6.7 2.1.4.6 1 .8 1.6.8s1.3-.3 1.7-.8zM297 50.1v8h-1.3v-8h1.3zM306.1 50.1v8h-1l-4-5.8V58h-1.4v-8h1.3l3.8 5.6V50h1.3zM308.3 51.3v-1.2h6.7v1.2h-2.7v6.8H311v-6.8h-2.7z"/></g><path fill="none" stroke="#20B6AF" stroke-miterlimit="10" d="M318.8 242.2c-4.5 0-8.6 1.9-11.5 4.9-2.8-3-6.9-4.9-11.4-4.9h-.6c-4.3 0-8.3 1.8-11.1 4.6a15.9 15.9 0 0 0-11.2-4.6h-.3-.3c-4.5 0-8.5 1.9-11.4 4.9a15.9 15.9 0 0 0-27.4 11 16 16 0 0 0 27.4 11.2c2.9 3 7 4.8 11.4 4.8h.6c4.4 0 8.3-1.7 11.2-4.5 2.8 2.8 6.8 4.5 11 4.5h.7c4.5 0 8.6-1.9 11.4-4.8a15.9 15.9 0 0 0 27.4-11.1 16 16 0 0 0-16-16z"/><g fill="#20B6AF"><path d="M253 254h5.2v1.2h-3.9v2.1h3.5v1.2h-3.5v2.3h4v1.2H253v-8zM267 254v8h-1l-4.1-5.8v5.8h-1.3v-8h1.3l3.8 5.5V254h1.3zM269.7 262v-8h2.7c1.2 0 2.1.4 2.8 1.1a4 4 0 0 1 1 2.9 4 4 0 0 1-1 3c-.7.6-1.6 1-2.8 1h-2.7zm1.3-1.2h1.3c.9 0 1.5-.3 2-.8s.6-1.1.6-2a3 3 0 0 0-.7-2c-.4-.5-1-.8-1.9-.8H271v5.6zM281.6 259h-1.7v3h-1.4v-8h3a3 3 0 0 1 2 .7c.6.4.8 1 .8 1.8s-.2 1.4-.7 1.9c-.5.4-1.2.6-2 .6zm1.4-2.5c0-.4-.1-.7-.4-1-.2-.2-.6-.3-1-.3h-1.7v2.6h1.7c.4 0 .8 0 1-.3.3-.3.4-.6.4-1zM292.4 255c.7.8 1 1.8 1 3s-.3 2.2-1 3-1.6 1.1-2.6 1.1c-1.1 0-2-.4-2.7-1.1-.7-.8-1-1.8-1-3s.3-2.2 1-3c.7-.7 1.6-1.1 2.6-1.1 1.1 0 2 .4 2.7 1.1zm-1 5c.5-.5.7-1.1.7-2 0-.8-.2-1.5-.7-2s-1-1-1.6-1-1.3.4-1.7.9c-.5.5-.7 1.2-.7 2.1 0 .9.2 1.6.7 2.1.4.5 1 .8 1.6.8s1.3-.3 1.7-.8zM297 254v8h-1.3v-8h1.3zM306.1 254v8h-1l-4-5.8v5.8h-1.4v-8h1.3l3.8 5.5V254h1.3zM308.3 255.2V254h6.7v1.2h-2.7v6.8H311v-6.8h-2.7z"/></g><path fill="none" stroke="#585A5E" stroke-width=".7" stroke-miterlimit="10" d="M147.5 234.8H196M196 78.6h-48.5"/><path fill="none" stroke="#676C72" stroke-miterlimit="10" d="M171.8 79.1V235"/><g fill="#676C72"><path d="M146.7 65.7h1.4c.3.8.9 1.2 1.8 1.2.5 0 .9-.1 1.1-.3s.5-.5.5-.9c0-.3-.1-.5-.3-.7a2 2 0 0 0-.9-.4l-1.3-.3c-1.4-.3-2-1-2-2.2 0-.6.2-1.2.7-1.6.5-.5 1.2-.7 2-.7s1.5.2 2 .6.9 1 1 1.6h-1.3c-.3-.7-.8-1-1.7-1-.4 0-.8 0-1 .2a1 1 0 0 0-.4.8c0 .6.3 1 1 1l1.4.4a3 3 0 0 1 1.5.8c.4.3.6.8.6 1.4 0 .7-.3 1.3-.8 1.8-.6.4-1.2.6-2 .6-1 0-1.6-.2-2.2-.6-.6-.4-1-1-1-1.7zM154.7 60h5.3V61h-4v2.1h3.6v1.2h-3.5v2.3h3.9v1.2h-5.3v-8zM164.4 64.7h-1v3.2h-1.3v-8h3a3 3 0 0 1 2 .6c.5.4.8 1 .8 1.8 0 .7-.2 1.2-.6 1.6-.3.4-.8.6-1.5.7l2.4 3.3h-1.6l-2.2-3.2zm-1-3.6v2.4h1.7c.5 0 .8 0 1-.3s.4-.5.4-.9 0-.7-.3-.9c-.3-.2-.6-.3-1-.3h-1.8zM173.6 67.9h-1.3l-3-8h1.4l2.3 6.2 2.3-6.2h1.3l-3 8zM179.8 60v7.9h-1.4v-8h1.4zM182.8 66.9c-.7-.8-1-1.8-1-3s.3-2.2 1-3c.7-.7 1.6-1.1 2.6-1.1.9 0 1.6.2 2.2.7.5.5.9 1.1 1 2h-1.3c-.3-1-1-1.5-1.9-1.5-.7 0-1.2.3-1.6.8s-.7 1.3-.7 2.1.2 1.5.7 2c.4.6 1 .9 1.6.9 1 0 1.6-.5 2-1.4h1.3c-.2.8-.6 1.4-1.1 2s-1.3.6-2.2.6c-1 0-1.9-.4-2.6-1.1zM190.6 60h5.2V61H192v2.1h3.6v1.2h-3.6v2.3h4v1.2h-5.3v-8z"/></g><g fill="none" stroke="#585A5E" stroke-miterlimit="10"><path d="M168.7 11.5h-8.2L149.2 31l11.3 19.5H183L194.3 31 183 11.5H175"/><path d="M180.5 31a8.8 8.8 0 1 1-17.5 0 8.8 8.8 0 0 1 17.5 0z"/></g><g fill="#676C72"><path d="M146.7 250h1.4c.3.8.9 1.2 1.8 1.2.5 0 .9-.1 1.1-.3.3-.2.5-.5.5-.9 0-.3-.1-.5-.3-.7a2 2 0 0 0-.9-.4l-1.3-.3c-1.4-.3-2-1-2-2.1 0-.7.2-1.3.7-1.7.5-.5 1.2-.7 2-.7s1.5.2 2 .6.9 1 1 1.6h-1.3c-.3-.7-.8-1-1.7-1-.4 0-.8 0-1 .2a1 1 0 0 0-.4.8c0 .6.3 1 1 1l1.4.4a3 3 0 0 1 1.5.8c.4.4.6.8.6 1.4 0 .8-.3 1.3-.8 1.8-.6.4-1.2.6-2 .6-1 0-1.6-.2-2.2-.6-.6-.4-1-1-1-1.7zM154.7 244.2h5.3v1.2h-4v2.1h3.6v1.2h-3.5v2.3h3.9v1.2h-5.3v-8zM164.4 249h-1v3.2h-1.3v-8h3a3 3 0 0 1 2 .6c.5.4.8 1 .8 1.8 0 .7-.2 1.2-.6 1.6s-.8.6-1.5.7l2.4 3.3h-1.6l-2.2-3.2zm-1-3.6v2.4h1.7c.5 0 .8 0 1-.3.3-.2.4-.5.4-.9s0-.7-.3-.9-.6-.3-1-.3h-1.8zM173.6 252.2h-1.3l-3-8h1.4l2.3 6.2 2.3-6.2h1.3l-3 8zM179.8 244.2v8h-1.4v-8h1.4zM182.8 251.2c-.7-.8-1-1.8-1-3s.3-2.2 1-3c.7-.7 1.6-1.1 2.6-1.1.9 0 1.6.2 2.2.7s.9 1.1 1 2h-1.3c-.3-1-1-1.5-1.9-1.5a2 2 0 0 0-1.6.8c-.5.6-.7 1.3-.7 2.1 0 .9.2 1.6.7 2.1s1 .8 1.6.8c1 0 1.6-.5 2-1.4h1.3c-.2.8-.6 1.5-1.1 2-.6.4-1.3.6-2.2.6-1 0-1.9-.4-2.6-1.1zM190.6 244.2h5.2v1.2H192v2.1h3.6v1.2h-3.6v2.3h4v1.2h-5.3v-8z"/></g><g fill="none" stroke="#585A5E" stroke-miterlimit="10"><path d="M168.7 261.5h-8.2L149.2 281l11.3 19.6H183l11.3-19.6-11.3-19.5H175"/><path d="M180.5 281a8.8 8.8 0 1 1-17.5 0 8.8 8.8 0 0 1 17.5 0z"/></g><path fill="none" stroke="#20B6AF" stroke-width=".7" stroke-miterlimit="10" d="M436.4 78.6h-63.6"/><path fill="none" stroke="#20B6AF" stroke-miterlimit="10" d="M404.6 78.9v155.9"/><g fill="#20B6AF"><path d="M372.2 67.9v-8h2.6c1.2 0 2.2.4 2.9 1.1.7.7 1 1.7 1 2.9s-.3 2.2-1 3-1.7 1-2.9 1h-2.6zm1.3-1.2h1.3c.8 0 1.5-.3 1.9-.8.4-.5.7-1.1.7-2s-.3-1.5-.7-2c-.4-.5-1-.8-1.9-.8h-1.3v5.6zM383.4 60h1.3l3 7.9h-1.3l-.9-2.2h-3l-.8 2.2h-1.4l3-8zm.6 1.6l-1 3h2l-1-3zM389.2 61.1V60h6.7v1.2h-2.7V68H392V61h-2.7zM400.5 60h1.3l3 7.9h-1.3l-.9-2.2h-3l-.8 2.2h-1.4l3-8zm.6 1.6l-1 3h2.1l-1-3zM411.3 63.8c.4 0 .7.3 1 .7.2.3.3.7.3 1.1a2 2 0 0 1-.7 1.7 3 3 0 0 1-2 .6h-3v-8h2.7c.9 0 1.5.2 2 .6.5.3.7.9.7 1.6 0 .4 0 .8-.3 1-.1.4-.4.6-.7.7zm-3.1-.5h1.4c1 0 1.4-.4 1.4-1.1 0-.8-.4-1.1-1.4-1.1h-1.4v2.2zm0 1v2.4h1.7c.4 0 .8 0 1-.3.3-.2.4-.5.4-.8a1 1 0 0 0-.4-.9c-.2-.2-.6-.3-1-.3h-1.7zM417.3 60h1.3l3 7.9h-1.3l-.8-2.2h-3l-.9 2.2h-1.4l3.1-8zm.6 1.6l-1 3h2.1l-1-3zM423 65.7h1.4c.3.8.9 1.2 1.8 1.2.5 0 .9-.1 1.2-.3s.4-.5.4-.9c0-.3-.1-.5-.3-.7s-.5-.3-.9-.4l-1.3-.3c-1.4-.3-2-1-2-2.2 0-.6.2-1.2.7-1.6.6-.5 1.2-.7 2-.7s1.5.2 2 .6.9 1 1 1.6h-1.3c-.3-.7-.8-1-1.7-1-.4 0-.8 0-1 .2a1 1 0 0 0-.4.8c0 .6.3 1 1 1l1.4.4a3 3 0 0 1 1.5.8c.4.3.6.8.6 1.4 0 .7-.3 1.3-.8 1.8s-1.2.6-2 .6c-1 0-1.6-.2-2.2-.6-.6-.4-1-1-1-1.7zM431.3 60h5.2V61h-3.9v2.1h3.5v1.2h-3.5v2.3h3.9v1.2h-5.2v-8z"/></g><g fill="none" stroke="#20B6AF" stroke-miterlimit="10"><path d="M387.1 24.3v20.1c0 3.4 7.8 6.1 17.5 6.1s17.5-2.7 17.5-6.1V24.3"/><path d="M422.1 24.3c0 3.4-7.8 6.1-17.5 6.1s-17.5-2.7-17.5-6.1c0-3.4 7.8-6.2 17.5-6.2s17.5 2.8 17.5 6.2z"/></g><path fill="none" stroke="#20B6AF" stroke-width=".7" stroke-miterlimit="10" d="M436.4 235h-63.6"/><g><g fill="#20B6AF"><path d="M372.2 252.2v-8h2.6c1.2 0 2.2.4 2.9 1.1.7.7 1 1.7 1 3s-.3 2-1 2.8-1.7 1.1-2.9 1.1h-2.6zm1.3-1.2h1.3c.8 0 1.5-.3 1.9-.7.4-.5.7-1.2.7-2s-.3-1.6-.7-2.1c-.4-.5-1-.8-2-.8h-1.2v5.6zM383.4 244.2h1.3l3 8h-1.3l-.9-2.2h-3l-.8 2.2h-1.4l3-8zm.6 1.7l-1 3h2l-1-3zM389.2 245.4v-1.2h6.7v1.2h-2.7v6.8H392v-6.8h-2.7zM400.5 244.2h1.3l3 8h-1.3l-.9-2.2h-3l-.8 2.2h-1.4l3-8zm.6 1.7l-1 3h2.1l-1-3zM411.3 248c.4.2.7.4 1 .8.2.3.3.7.3 1.1a2 2 0 0 1-.7 1.7 3 3 0 0 1-2 .6h-3v-8h2.7c.9 0 1.5.2 2 .6.5.4.7.9.7 1.6 0 .4 0 .8-.3 1-.1.4-.4.6-.7.7zm-3.1-.4h1.4c1 0 1.4-.4 1.4-1.1 0-.7-.4-1.1-1.4-1.1h-1.4v2.2zm0 1v2.4h1.7c.4 0 .8 0 1-.3.3-.2.4-.5.4-.8a1 1 0 0 0-.4-.9c-.2-.2-.6-.3-1-.3h-1.7zM417.3 244.2h1.3l3 8h-1.3l-.8-2.2h-3l-.9 2.2h-1.4l3.1-8zm.6 1.7l-1 3h2.1l-1-3zM423 250h1.4c.3.8.9 1.2 1.8 1.2.5 0 .9-.1 1.2-.3s.4-.5.4-.9c0-.3-.1-.5-.3-.7s-.5-.3-.9-.4l-1.3-.3c-1.4-.3-2-1-2-2.1 0-.7.2-1.3.7-1.7.6-.5 1.2-.7 2-.7s1.5.2 2 .6.9 1 1 1.6h-1.3c-.3-.7-.8-1-1.7-1-.4 0-.8 0-1 .2a1 1 0 0 0-.4.8c0 .6.3 1 1 1l1.4.4a3 3 0 0 1 1.5.8c.4.4.6.8.6 1.4 0 .8-.3 1.3-.8 1.8s-1.2.6-2 .6c-1 0-1.6-.2-2.2-.6-.6-.4-1-1-1-1.7zM431.3 244.2h5.2v1.2h-3.9v2.1h3.5v1.2h-3.5v2.3h3.9v1.2h-5.2v-8z"/></g></g><g fill="none" stroke="#20B6AF" stroke-miterlimit="10"><path d="M387.1 267.7v20c0 3.5 7.8 6.2 17.5 6.2s17.5-2.7 17.5-6.1v-20.1"/><path d="M422.1 267.7c0 3.4-7.8 6.1-17.5 6.1s-17.5-2.7-17.5-6.1c0-3.4 7.8-6.2 17.5-6.2s17.5 2.8 17.5 6.2z"/></g><g><path fill="none" stroke="#585A5E" stroke-miterlimit="10" d="M172.2 173.3h227.9"/><path fill="#585A5E" d="M399 176.8l6.1-3.5-6-3.5z"/></g><g><path fill="none" stroke="#585A5E" stroke-linecap="round" stroke-linejoin="round" d="M404.2 188h-2.4"/><path fill="none" stroke="#585A5E" stroke-linecap="round" stroke-linejoin="round" stroke-dasharray="4.7493,4.7493" d="M397.1 188H181"/><path fill="none" stroke="#585A5E" stroke-linecap="round" stroke-linejoin="round" d="M178.6 188h-2.3"/><path fill="#585A5E" d="M177.3 184.5l-6 3.5 6 3.5z"/></g><path fill="#F5F6F6" d="M281 157.9h7.5v11.2H281z"/><g><g fill="#676C72"><path d="M271.9 166.2a3 3 0 0 1-2.2.7 3 3 0 0 1-2.1-.7c-.5-.6-.8-1.3-.8-2.3v-4.5h1.2v4.3c0 1.4.6 2.1 1.7 2.1 1.2 0 1.7-.7 1.7-2v-4.4h1.3v4.5c0 1-.3 1.7-.8 2.3zM277.7 164H276v2.8h-1.3v-7.4h2.9c.7 0 1.3.2 1.8.7s.7 1 .7 1.7-.3 1.3-.7 1.7-1 .6-1.8.6zm1.2-2.2c0-.4 0-.7-.3-1s-.5-.3-1-.3h-1.5v2.5h1.5c.4 0 .8-.1 1-.3.2-.3.3-.6.3-1zM282 166.8v-7.3h2.4c1.1 0 2 .3 2.6 1 .7.6 1 1.5 1 2.6a3.4 3.4 0 0 1-3.6 3.7H282zm1.2-1.1h1.2c.7 0 1.3-.2 1.7-.7s.7-1 .7-1.9c0-.8-.2-1.4-.7-1.9-.4-.4-1-.6-1.7-.6h-1.2v5.1zM292.1 159.4h1.2l2.8 7.4H295l-.8-2h-2.8l-.8 2h-1.2l2.8-7.4zm.6 1.6l-1 2.7h2l-1-2.7zM297.3 160.6v-1.1h6.2v1H301v6.3h-1.2v-6.2h-2.5zM305.3 159.4h4.8v1.2h-3.6v1.9h3.2v1h-3.2v2.2h3.6v1.1h-4.8v-7.4z"/></g></g><g><path fill="#0071BC" d="M5.6 331v-.7l.9.4.8.1c.4 0 .7 0 .8-.2l.3-.4-.1-.3-.6-.3-.3-.1-.5-.2-1-.6a1 1 0 0 1-.2-.6c0-.4.1-.7.4-1s.7-.3 1.4-.3c.4 0 .9 0 1.3.2v.7a4 4 0 0 0-1.4-.3c-.3 0-.5 0-.7.2l-.2.4c0 .1 0 .3.2.4l.7.3.5.2c.5.1.8.3 1 .5s.2.4.2.7c0 .4-.1.7-.4 1s-.8.3-1.4.3c-.6 0-1.1 0-1.7-.3zM14.4 331c-.6.3-1.2.4-1.7.4a2 2 0 0 1-1.8-1.1l-.3-1.2c0-.4.1-.8.3-1.1s.4-.7.7-.9.7-.3 1.1-.3c.5 0 1 .2 1.2.6s.5 1 .5 1.7v.1h-3c0 .3 0 .6.2.9l.5.5c.2.2.4.2.7.2.5 0 1-.1 1.6-.5v.7zm-3-2.3h2.2v-.1c0-.4 0-.7-.2-.9s-.4-.3-.7-.3c-.3 0-.6.1-.8.3s-.4.6-.4 1zM16.3 331.3v-4.4h.7v1l.8-.8c.3-.2.6-.3 1-.3l.8.1v1.6h-.7v-1h-.3c-.3 0-.6 0-.8.3l-.8 1v2.5h-.7zM22.6 331.3l-2-4.4h.9l1.4 3.5 1.6-3.5h.7l-2 4.4h-.6zM27.6 331.3v-3.8h-1.3v-.6h2v3.8h1.2v.6h-2zm-.2-6c0-.1 0-.2.2-.3l.3-.1.3.1.2.4c0 .1 0 .2-.2.3l-.3.1h-.3l-.2-.4zM35.2 331.2l-1.4.2c-.4 0-.8 0-1.2-.3s-.6-.5-.7-.8-.3-.7-.3-1.2c0-.6.2-1.2.6-1.6s1-.7 1.6-.7l1.4.3v.7c-.5-.3-1-.4-1.4-.4-.2 0-.5 0-.7.2l-.6.6c-.2.2-.1.6-.1.9 0 .4 0 .8.3 1.1s.7.6 1.2.6h.5l.8-.3v.7zM40.4 331c-.6.3-1.2.4-1.7.4a2 2 0 0 1-1.8-1.1l-.3-1.2c0-.4.1-.8.3-1.1s.4-.7.7-.9.7-.3 1.1-.3c.5 0 1 .2 1.3.6s.4 1 .4 1.7v.1h-3c0 .3 0 .6.2.9l.5.5c.2.2.4.2.7.2.5 0 1-.1 1.6-.5v.7zm-3-2.3h2.2v-.1c0-.4 0-.7-.2-.9s-.4-.3-.7-.3c-.3 0-.6.1-.8.3s-.4.6-.4 1z"/><path fill="#666" d="M47.1 331.3v-6h1.5c.6 0 1.1 0 1.4.3s.6.6.8 1 .2 1 .2 1.7c0 .6 0 1.1-.2 1.6s-.5.8-.8 1-.8.4-1.4.4H47zm.8-.7h.5c.6 0 1 0 1.2-.2l.5-.8.1-1.4-.1-1.4-.5-.7c-.3-.2-.6-.3-1-.3h-.7v4.8zM56 331c-.6.3-1.2.4-1.7.4a2 2 0 0 1-1.8-1.1l-.3-1.2c0-.4.1-.8.3-1.1s.4-.7.7-.9.7-.3 1.1-.3c.5 0 1 .2 1.3.6s.4 1 .4 1.7v.1h-3c0 .3 0 .6.2.9l.5.5c.2.2.4.2.7.2.5 0 1-.1 1.6-.5v.7zm-3-2.3h2.2v-.1c0-.4 0-.7-.2-.9s-.4-.3-.7-.3c-.3 0-.6.1-.8.3s-.4.6-.4 1zM57.2 331.3v-4.4h.6v1l.6-.8.5-.3c.2 0 .4.1.5.3l.2.7v.2l.3-.6.4-.4.5-.2c.2 0 .3.1.4.3l.2 1v3.2h-.6v-3-.5l-.1-.2h-.2s-.2 0-.4.3l-.5 1v2.4H59v-3-.7h-.3c-.1 0-.3 0-.4.3l-.5.9v2.5h-.6zM64.5 331.4c-.6 0-1.1-.2-1.5-.6s-.5-1-.5-1.7.2-1.2.5-1.6.9-.7 1.5-.7c.7 0 1.1.2 1.5.7s.6 1 .6 1.6-.2 1.2-.6 1.7-.8.6-1.5.6zm0-.6c.4 0 .7-.1 1-.4s.3-.8.3-1.3-.1-1-.3-1.2-.6-.5-1-.5-.7.2-.9.5-.3.7-.3 1.2 0 1 .3 1.3.5.4 1 .4zM68 331.2v-.8a4 4 0 0 0 1.6.5l.7-.1.4-.4.1-.5c0-.2 0-.4-.2-.6l-.7-.6-.4-.2-.4-.3c-.7-.4-1.1-.9-1.1-1.5 0-.5.2-.9.5-1.2s.8-.4 1.5-.4l1.2.1v.7l-1.3-.2c-.3 0-.6 0-.8.2-.2.2-.3.4-.3.7 0 .2 0 .4.2.6l.6.4.3.2.4.3.3.1c.7.5 1 1 1 1.6 0 .4-.1.9-.5 1.2s-.9.5-1.6.5a3.8 3.8 0 0 1-1.6-.3zM76.8 331c-.6.3-1.2.4-1.7.4a2 2 0 0 1-1.8-1.1l-.3-1.2c0-.4.1-.8.3-1.1s.4-.7.7-.9.7-.3 1.1-.3c.5 0 1 .2 1.3.6s.4 1 .4 1.7v.1h-3c0 .3 0 .6.2.9l.5.5c.2.2.4.2.7.2.5 0 1-.1 1.6-.5v.7zm-3-2.3H76v-.1c0-.4 0-.7-.2-.9s-.4-.3-.7-.3c-.3 0-.6.1-.8.3s-.4.6-.4 1zM78.7 331.3v-4.4h.7v1l.8-.8c.3-.2.6-.3 1-.3l.8.1v1.6h-.7v-1H81c-.3 0-.5 0-.8.3l-.8 1v2.5h-.7zM85 331.3l-2-4.4h.9l1.5 3.5 1.5-3.5h.7l-1.9 4.4H85zM90 331.3v-3.8h-1.3v-.6h2v3.8h1.2v.6h-2zm-.2-6l.2-.3.3-.1.3.1c.2 0 .2.2.2.4 0 .1 0 .2-.2.3l-.3.1H90l-.2-.4zM97.6 331.2l-1.4.2c-.4 0-.8 0-1.1-.3s-.7-.5-.8-.8-.3-.7-.3-1.2c0-.6.2-1.2.6-1.6s1-.7 1.6-.7c.4 0 1 .1 1.4.3v.7c-.5-.3-1-.4-1.4-.4-.2 0-.5 0-.7.2l-.5.6-.2.9c0 .4 0 .8.3 1.1s.7.6 1.2.6h.5l.8-.3v.7zM102.8 331c-.6.3-1.2.4-1.7.4a2 2 0 0 1-1.8-1.1l-.3-1.2c0-.4.1-.8.3-1.1s.4-.7.8-.9.6-.3 1-.3c.5 0 1 .2 1.3.6s.4 1 .4 1.7v.1h-3c0 .3 0 .6.2.9l.5.5c.2.2.5.2.7.2.5 0 1-.1 1.6-.5v.7zm-3-2.3h2.2v-.1c0-.4 0-.7-.2-.9s-.4-.3-.7-.3c-.3 0-.6.1-.8.3s-.3.6-.4 1zM111.3 331.4c-.6 0-1-.2-1.5-.6s-.5-1-.5-1.7.2-1.2.5-1.6 1-.7 1.5-.7c.7 0 1.2.2 1.5.7s.6 1 .6 1.6-.2 1.2-.6 1.7-.8.6-1.5.6zm0-.6c.4 0 .7-.1 1-.4s.3-.8.3-1.3-.1-1-.3-1.2-.6-.5-1-.5-.7.2-.9.5-.3.7-.3 1.2 0 1 .3 1.3.5.4 1 .4zM114.7 331.3v-4.4h.8v1l.7-.8c.3-.2.6-.3 1-.3.2 0 .4 0 .6.2l.5.6v3.7h-.6v-2.5l-.1-.9-.2-.3a.5.5 0 0 0-.4-.1c-.2 0-.5.1-.8.4l-.7.9v2.5h-.8zM125.1 331.3v-4.4h.8v1l.7-.8c.3-.2.6-.3 1-.3.2 0 .4 0 .6.2l.5.6v3.7h-.6v-2.5l-.1-.9-.2-.3a.5.5 0 0 0-.4-.1c-.2 0-.5.1-.8.4l-.7.9v2.5h-.8zM134 331c-.6.3-1.2.4-1.7.4a2 2 0 0 1-1.8-1.1l-.3-1.2c0-.4.1-.8.3-1.1s.4-.7.8-.9.6-.3 1-.3c.5 0 1 .2 1.3.6s.4 1 .4 1.7v.1h-3c0 .3 0 .6.2.9l.5.5c.2.2.5.2.7.2.5 0 1-.1 1.6-.5v.7zm-3-2.3h2.2v-.1c0-.4 0-.7-.2-.9s-.4-.3-.7-.3c-.3 0-.6.1-.8.3s-.3.6-.4 1zM135.7 331.3l-.7-4.4h.7l.4 2.7.1.6.1-.6.7-2.7h.7l.8 2.7v.6l.2-.6.4-2.7h.6l-.7 4.4h-.7l-.9-2.8-.1-.6-.1.6-.8 2.8h-.7zM146 331.3V325h.7v2.9l.7-.8c.3-.2.6-.3 1-.3.2 0 .4 0 .6.2l.4.5.1.4v3.4h-.6v-2.5l-.1-.9-.2-.3a.5.5 0 0 0-.4-.1c-.2 0-.5.1-.8.4l-.7.9v2.5h-.8zM154.8 331.1l-.7.3h-.5c-.3 0-.6 0-.8-.2l-.6-.5a3 3 0 0 1-.2-1v-1.8h-1v-.6h1v-1.8h.7v1.8h2v.6h-2v1.8c0 .3 0 .6.2.7l.3.3.5.1c.3 0 .7 0 1.1-.3v.6zM160 331.1l-.7.3h-.5c-.3 0-.6 0-.8-.2l-.6-.5a3 3 0 0 1-.2-1v-1.8h-1v-.6h1v-1.8h.7v1.8h2v.6h-2v1.8c0 .3 0 .6.2.7l.3.3.5.1c.3 0 .7 0 1.1-.3v.6zM162.2 328c.2-.4.5-.7.8-.9l.9-.3c.3 0 .7.2 1 .5s.4.8.4 1.4c0 .5-.1 1-.3 1.4s-.4.7-.8 1-.7.3-1.2.3a7 7 0 0 1-.8 0v1.6h-.7v-6h.7v1zm0 .8v1.9h.7c.5 0 .9-.1 1.2-.5.3-.3.4-.8.4-1.4 0-.4 0-.7-.2-1l-.6-.3c-.2 0-.5.1-.7.4-.3.2-.6.5-.8.9zM168.5 328h-.4l-.2-.5c0-.2 0-.4.2-.5l.4-.2c.1 0 .4 0 .5.2l.2.5c0 .1 0 .3-.2.4l-.5.2zm0 3.5c-.1 0-.3 0-.4-.2l-.2-.4c0-.2 0-.4.2-.5l.4-.2c.1 0 .4 0 .5.2l.2.5c0 .1 0 .3-.2.4l-.5.2zM175.5 330.6v.7h-3.3v-6h.8v5.3h2.5zM178.4 331.3v-3.8h-1.2v-.6h1.9v3.8h1.2v.6h-2zm-.1-6l.1-.3.3-.1.4.1.1.4-.1.3-.4.1h-.3l-.1-.4zM182.4 331v-.7l1 .4.8.1c.3 0 .6 0 .7-.2l.3-.4-.1-.3-.6-.3-.2-.1-.5-.2c-.6-.2-1-.4-1-.6a1 1 0 0 1-.3-.6c0-.4.2-.7.4-1s.8-.3 1.4-.3c.5 0 .9 0 1.3.2v.7a4 4 0 0 0-1.3-.3c-.3 0-.6 0-.8.2l-.2.4c0 .1 0 .3.2.4l.7.3.5.2c.5.1.8.3 1 .5s.3.4.3.7c0 .4-.2.7-.5 1s-.7.3-1.4.3c-.5 0-1.1 0-1.7-.3zM191.2 331.1l-.7.3h-.5c-.3 0-.6 0-.8-.2l-.6-.5a3 3 0 0 1-.2-1v-1.8h-1v-.6h1v-1.8h.7v1.8h2v.6h-2v1.8c0 .3 0 .6.2.7l.3.3.5.1c.3 0 .7 0 1.1-.3v.6zM196.4 331c-.6.3-1.1.4-1.7.4a2 2 0 0 1-1.8-1.1l-.2-1.2c0-.4 0-.8.2-1.1s.4-.7.8-.9.6-.3 1-.3c.5 0 1 .2 1.3.6s.4 1 .4 1.7v.1h-3l.2.9.5.5c.2.2.5.2.7.2.5 0 1-.1 1.6-.5v.7zm-3-2.3h2.3v-.1c0-.4-.1-.7-.3-.9s-.4-.3-.7-.3c-.3 0-.6.1-.8.3s-.3.6-.4 1zM198 331.3v-4.4h.7v1l.7-.8c.3-.2.6-.3 1-.3.2 0 .4 0 .6.2l.5.6v3.7h-.6v-2.5l-.1-.9-.2-.3a.5.5 0 0 0-.4-.1c-.2 0-.5.1-.8.4l-.7.9v2.5h-.7zM206.8 331c-.6.3-1.1.4-1.7.4a2 2 0 0 1-1.8-1.1l-.2-1.2c0-.4 0-.8.2-1.1s.4-.7.8-.9.6-.3 1-.3c.5 0 1 .2 1.3.6s.4 1 .4 1.7v.1h-3l.2.9.5.5c.2.2.5.2.7.2.5 0 1-.1 1.6-.5v.7zm-3-2.3h2.3v-.1c0-.4-.1-.7-.3-.9s-.4-.3-.7-.3c-.3 0-.6.1-.8.3s-.3.6-.4 1zM208.7 331.3v-4.4h.8v1c.2-.4.4-.6.7-.8s.7-.3 1-.3l.8.1v1.6h-.7v-1h-.3c-.3 0-.5 0-.8.3l-.7 1v2.5h-.8zM217.1 332.8a3.4 3.4 0 0 1-3-2.1 4.3 4.3 0 0 1 1.2-5.2c.5-.4 1.1-.6 1.8-.6v.6c-.5 0-1 .2-1.4.5-.4.3-.7.8-.9 1.2s-.3 1-.3 1.6 0 1.1.3 1.6.5.9 1 1.2c.3.3.8.5 1.3.6v.6zM221.8 328c-.2.4-.4.6-.7.8s-.6.2-.9.2c-.3 0-.6 0-.9-.2l-.6-.6c-.1-.2-.3-.6-.3-1 0-.6.2-1 .6-1.5s.8-.6 1.4-.6c.7 0 1.3.3 1.6.9s.6 1.3.6 2.2c0 1-.3 1.8-.7 2.4s-1 .9-1.8.9a4 4 0 0 1-1.2-.2v-.7l1.2.3c.5 0 1-.3 1.3-.8s.4-1.1.4-1.9v-.1zm-1.4-2.3l-.6.1c-.2.1-.4.3-.5.6l-.1.8c0 .3 0 .6.2.9s.5.3.9.3c.3 0 .6-.1.9-.4s.3-.6.3-1-.1-.7-.3-1-.5-.3-.8-.3zM225.8 325c.6 0 1.2.4 1.5 1s.6 1.3.6 2.3c0 1-.2 1.7-.6 2.3s-.9.9-1.5.9c-.7 0-1.3-.3-1.6-.9s-.6-1.3-.6-2.3c0-1 .2-1.8.6-2.4s.9-.8 1.6-.8zm-1.2 4.6l2-3.3c0-.3-.2-.4-.4-.5l-.5-.1c-.4 0-.7.2-1 .7-.2.5-.3 1-.3 1.8v.6l.2.8zm2.3-2.6l-2 3.3c0 .2.2.3.3.4l.5.2c.5 0 .9-.3 1-.8s.4-1.2.4-1.9c0-.4 0-.8-.2-1.2zM232.2 328c-.2.4-.4.6-.7.8s-.6.2-.9.2c-.3 0-.6 0-.9-.2l-.6-.6c-.1-.2-.3-.6-.3-1 0-.6.2-1 .6-1.5s.8-.6 1.4-.6c.7 0 1.3.3 1.6.9s.6 1.3.6 2.2c0 1-.3 1.8-.7 2.4s-1 .9-1.8.9a4 4 0 0 1-1.2-.2v-.7l1.2.3c.6 0 1-.3 1.3-.8s.4-1.1.4-1.9v-.1zm-1.4-2.3l-.6.1c-.2.1-.4.3-.5.6l-.1.8c0 .3 0 .6.2.9s.5.3.9.3c.3 0 .6-.1.9-.4s.3-.6.3-1 0-.7-.3-1-.5-.3-.8-.3zM236.2 325c.6 0 1.2.4 1.5 1s.6 1.3.6 2.3c0 1-.2 1.7-.6 2.3s-.9.9-1.5.9c-.7 0-1.3-.3-1.6-.9s-.6-1.3-.6-2.3c0-1 .2-1.8.6-2.4s.9-.8 1.6-.8zm-1.2 4.6l2-3.3c0-.3-.2-.4-.4-.5l-.4-.1c-.5 0-.8.2-1 .7-.3.5-.4 1-.4 1.8v.6l.2.8zm2.3-2.6l-2 3.3c0 .2.2.3.3.4l.5.2c.5 0 .9-.3 1-.8s.4-1.2.4-1.9c0-.4 0-.8-.2-1.2zM239.6 324.9a3.4 3.4 0 0 1 3 2c.3.7.4 1.3.4 2s-.1 1.2-.4 1.8-.7 1-1.2 1.4-1.1.6-1.8.7v-.6c.5-.1 1-.3 1.4-.6.4-.3.7-.7.9-1.2s.3-1 .3-1.6 0-1-.3-1.6-.5-.9-1-1.2c-.3-.3-.8-.5-1.3-.5v-.6zM251.5 328.8l.5.4.3.4v1l-.1.4v1l.9.1h.6v.7h-.6c-.8 0-1.2-.2-1.4-.4s-.3-.5-.3-.8v-.8l.2-.3v-.2-.3c0-.2 0-.5-.2-.6-.2-.2-.5-.3-.9-.3h-.3v-.6h.3c.4 0 .7 0 .9-.2.2-.2.2-.4.2-.7v-.4l-.1-.4v-.3l-.1-.5c0-.3 0-.5.3-.8s.6-.3 1.4-.3h.6v.6h-.6c-.4 0-.7 0-.8.2l-.2.4v.5l.2.4v.6a1.1 1.1 0 0 1-.3.8 2 2 0 0 1-.5.4z"/><path fill="#0071BC" d="M11.1 350.3v-4.4h.7v1l.8-.8c.3-.2.6-.3 1-.3l.8.1v1.6h-.7v-1h-.3c-.3 0-.6 0-.8.3l-.8 1v2.5h-.7zM19.6 350c-.6.3-1.2.4-1.7.4a2 2 0 0 1-1.8-1.1l-.3-1.2c0-.4.1-.8.3-1.1s.4-.7.7-.9.7-.3 1.1-.3c.5 0 1 .2 1.2.6s.5 1 .5 1.7v.1h-3c0 .3 0 .6.2.9l.5.5c.2.2.4.2.7.2.5 0 1-.1 1.6-.5v.7zm-3-2.3h2.2v-.1c0-.4 0-.7-.2-.9s-.4-.3-.7-.3c-.3 0-.6.1-.8.3s-.4.6-.4 1zM21.2 350v-.7l.9.4.8.1c.4 0 .7 0 .8-.2l.3-.4-.1-.3-.6-.3-.3-.1-.5-.2-1-.6a1 1 0 0 1-.2-.6c0-.4.1-.7.4-1s.7-.3 1.4-.3c.4 0 .9 0 1.3.2v.7a4 4 0 0 0-1.4-.3c-.3 0-.5 0-.7.2l-.2.4c0 .1 0 .3.2.4l.7.3.5.2c.5.1.8.3 1 .5s.2.4.2.7c0 .4-.1.7-.4 1s-.8.3-1.4.3c-.6 0-1.1 0-1.7-.3zM28.1 350.4c-.6 0-1.1-.2-1.5-.6s-.5-1-.5-1.7.2-1.2.5-1.6.9-.7 1.5-.7 1.1.2 1.5.7.6 1 .6 1.6-.2 1.2-.6 1.7-.9.6-1.5.6zm0-.6c.4 0 .7-.1 1-.4s.3-.8.3-1.3-.1-1-.4-1.2-.5-.5-.9-.5-.7.2-.9.5-.3.7-.3 1.2 0 1 .3 1.3.5.4 1 .4zM35.1 346v4.3h-.7v-1c-.2.4-.5.7-.8.9s-.6.2-.8.2c-.3 0-.5 0-.7-.2l-.5-.5-.1-1.3v-2.5h.7V349.3l.3.3.3.2c.3 0 .6-.2.9-.4s.5-.5.7-1V346h.7zM37.1 350.3v-4.4h.7v1l.8-.8c.3-.2.6-.3 1-.3l.8.1v1.6h-.7v-1h-.3c-.3 0-.5 0-.8.3l-.8 1v2.5h-.7zM45.6 350.2l-1.4.2c-.4 0-.8 0-1.2-.3s-.6-.5-.7-.8-.3-.7-.3-1.2c0-.6.2-1.2.6-1.6s1-.7 1.6-.7l1.4.3v.7c-.5-.3-1-.4-1.4-.4-.2 0-.5 0-.7.2l-.6.6c-.2.2-.1.6-.1.9 0 .4 0 .8.3 1.1s.7.6 1.2.6h.5l.8-.3v.7zM50.8 350c-.6.3-1.2.4-1.7.4a2 2 0 0 1-1.8-1.1l-.3-1.2c0-.4.1-.8.3-1.1s.4-.7.7-.9.7-.3 1.1-.3c.5 0 1 .2 1.3.6s.4 1 .4 1.7v.1h-3c0 .3 0 .6.2.9l.5.5c.2.2.4.2.7.2.5 0 1-.1 1.6-.5v.7zm-3-2.3H50v-.1c0-.4 0-.7-.2-.9s-.4-.3-.7-.3c-.3 0-.6.1-.8.3s-.4.6-.4 1zM58.5 350.3v-3.4h-1v-.6h1v-.2l.2-1.3.6-.7c.2-.2.7-.2 1.1-.2h1v.8c-.3-.2-.7-.2-1-.2l-.6.1-.4.4-.1 1v.3H61v.6h-1.7v3.4h-.8zM66.3 346v4.3h-.7v-1c-.2.4-.5.7-.8.9s-.6.2-.8.2c-.3 0-.5 0-.7-.2l-.5-.5-.1-1.3v-2.5h.7V349.3l.3.3.3.2c.3 0 .6-.2.9-.4s.5-.5.7-1V346h.7zM68 350.3v-4.4h.7v1l.7-.8.9-.3c.3 0 .5 0 .7.2l.4.6c0 .3.2.6.2 1.3v2.4h-.8v-2.5-.9c0-.2-.1-.2-.2-.3l-.4-.1c-.2 0-.5.1-.8.4l-.7.9v2.5h-.8zM76.8 350.2l-1.4.2c-.4 0-.8 0-1.1-.3s-.7-.5-.8-.8-.3-.7-.3-1.2c0-.6.2-1.2.6-1.6s1-.7 1.6-.7c.4 0 1 .1 1.4.3v.7c-.5-.3-1-.4-1.4-.4-.2 0-.5 0-.7.2l-.5.6-.2.9c0 .4 0 .8.3 1.1s.7.6 1.2.6h.5l.8-.3v.7zM82 350.1l-.8.3h-.4c-.3 0-.6 0-.8-.2l-.6-.5a3 3 0 0 1-.2-1v-1.8h-1v-.6h1v-1.8h.7v1.8h2v.6h-2v1.8l.1.7c.1.1.2.3.4.3l.5.1c.3 0 .7 0 1-.3v.6zM84.8 350.3v-3.8h-1.3v-.6h2v3.8h1.2v.6h-2zm-.2-6l.2-.3.3-.1.3.1c.2 0 .2.2.2.4 0 .1 0 .2-.2.3l-.3.1h-.3l-.2-.4zM90.5 350.4c-.6 0-1-.2-1.5-.6s-.5-1-.5-1.7.2-1.2.5-1.6 1-.7 1.5-.7c.7 0 1.2.2 1.5.7s.6 1 .6 1.6-.2 1.2-.6 1.7-.8.6-1.5.6zm0-.6c.4 0 .7-.1 1-.4s.3-.8.3-1.3-.1-1-.3-1.2-.6-.5-1-.5-.7.2-.9.5-.3.7-.3 1.2 0 1 .3 1.3.5.4 1 .4zM94 350.3v-4.4h.7v1l.7-.8.9-.3c.3 0 .5 0 .7.2l.4.6c0 .3.2.6.2 1.3v2.4h-.8v-2.5-.9c0-.2-.1-.2-.2-.3l-.4-.1c-.2 0-.5.1-.8.4l-.7.9v2.5h-.8z"/><path fill="#666" d="M107.3 349.3c-.3.4-.5.7-.8.8l-.9.3c-.4 0-.7-.1-1-.4s-.4-.8-.4-1.5c0-.5 0-1 .3-1.3s.4-.7.7-1 .8-.3 1.2-.3a7 7 0 0 1 .9 0h.7v4.5l-.1.5c-.1.4-.4.7-.7.9-.4.2-.9.3-1.4.3-.5 0-1-.1-1.6-.4v-.7l.8.4.8.1h.7c.2 0 .3-.3.4-.4l.3-.5V349.3zm0-.8v-2h-.8c-.4 0-.8.2-1 .5a2 2 0 0 0-.5 1.4c0 .5 0 .8.2 1l.6.3c.2 0 .5 0 .7-.3l.8-1zM113.2 350c-.6.3-1.2.4-1.7.4a2 2 0 0 1-1.8-1.1l-.3-1.2c0-.4.1-.8.3-1.1s.4-.7.8-.9.6-.3 1-.3c.5 0 1 .2 1.3.6s.4 1 .4 1.7v.1h-3c0 .3 0 .6.2.9l.5.5c.2.2.5.2.7.2.5 0 1-.1 1.6-.5v.7zm-3-2.3h2.2v-.1c0-.4 0-.7-.2-.9s-.4-.3-.7-.3c-.3 0-.6.1-.8.3s-.3.6-.4 1zM118.4 350.1l-.8.3h-.4c-.3 0-.6 0-.8-.2l-.6-.5a3 3 0 0 1-.2-1v-1.8h-1v-.6h1v-1.8h.7v1.8h2v.6h-2v1.8c0 .3 0 .6.2.7l.3.3.5.1c.3 0 .7 0 1-.3v.6zM120 350.3v-6h1.4c.6 0 1.1 0 1.5.3s.5.6.7 1 .2 1 .2 1.7c0 .6 0 1.1-.2 1.6s-.4.8-.8 1-.8.4-1.4.4h-1.5zm.7-.7h.6c.5 0 .9 0 1.1-.2l.5-.8.1-1.4-.1-1.4-.5-.7c-.2-.2-.6-.3-1-.3h-.7v4.8zM128 349.3c-.2.4-.5.7-.8.8l-.8.3c-.4 0-.7-.1-1-.4s-.5-.8-.5-1.5c0-.5.1-1 .3-1.3s.5-.7.8-1 .7-.3 1.2-.3a7 7 0 0 1 .8 0h.7v3.1l.2 1.3h-.7l-.2-1zm0-.8v-2h-.7c-.5 0-.8.2-1.1.5a2 2 0 0 0-.5 1.4c0 .5.1.8.3 1 .1.2.3.3.5.3.3 0 .5 0 .8-.3l.7-1zM134 350.1l-.7.3h-.5c-.3 0-.6 0-.8-.2l-.6-.5a3 3 0 0 1-.2-1v-1.8h-1v-.6h1v-1.8h.7v1.8h2v.6h-2v1.8c0 .3 0 .6.2.7l.3.3.5.1c.3 0 .7 0 1-.3v.6zM138.4 349.3c-.2.4-.5.7-.8.8l-.8.3c-.4 0-.7-.1-1-.4s-.5-.8-.5-1.5c0-.5.1-1 .3-1.3s.5-.7.8-1 .7-.3 1.2-.3a7 7 0 0 1 .8 0h.7v3.1l.2 1.3h-.7l-.2-1zm0-.8v-2h-.7c-.5 0-.8.2-1.1.5a2 2 0 0 0-.5 1.4c0 .5.1.8.3 1 .1.2.3.3.5.3.3 0 .5 0 .8-.3l.7-1zM144.3 351.8a3.4 3.4 0 0 1-3-2.1 4.3 4.3 0 0 1 1.2-5.2c.5-.4 1.1-.6 1.8-.6v.6c-.5 0-1 .2-1.4.5-.4.3-.7.8-.9 1.2s-.3 1-.3 1.6 0 1.1.3 1.6.5.9 1 1.2c.3.3.8.5 1.3.6v.6z"/><path fill="#0071BC" d="M146 350.3V344h.7v2.9l.7-.8c.3-.2.6-.3 1-.3.2 0 .4 0 .6.2l.4.5.1.4v3.4h-.6v-2.5l-.1-.9-.2-.3a.5.5 0 0 0-.4-.1c-.2 0-.5.1-.8.4l-.7.9v2.5h-.8zM154.8 350.1l-.7.3h-.5c-.3 0-.6 0-.8-.2l-.6-.5a3 3 0 0 1-.2-1v-1.8h-1v-.6h1v-1.8h.7v1.8h2v.6h-2v1.8c0 .3 0 .6.2.7l.3.3.5.1c.3 0 .7 0 1.1-.3v.6zM160 350.1l-.7.3h-.5c-.3 0-.6 0-.8-.2l-.6-.5a3 3 0 0 1-.2-1v-1.8h-1v-.6h1v-1.8h.7v1.8h2v.6h-2v1.8c0 .3 0 .6.2.7l.3.3.5.1c.3 0 .7 0 1.1-.3v.6zM162.2 347c.2-.4.5-.7.8-.9l.9-.3c.3 0 .7.2 1 .5s.4.8.4 1.4c0 .5-.1 1-.3 1.4s-.4.7-.8 1-.7.3-1.2.3a7 7 0 0 1-.8 0v1.6h-.7v-6h.7v1zm0 .8v1.9h.7c.5 0 .9-.1 1.2-.5.3-.3.4-.8.4-1.4 0-.4 0-.7-.2-1l-.6-.3c-.2 0-.5.1-.7.4-.3.2-.6.5-.8.9z"/><path fill="#666" d="M168.5 347h-.4l-.2-.5c0-.2 0-.4.2-.5l.4-.2c.1 0 .4 0 .5.2l.2.5c0 .1 0 .3-.2.4l-.5.2zm0 3.5c-.1 0-.3 0-.4-.2l-.2-.4c0-.2 0-.4.2-.5l.4-.2c.1 0 .4 0 .5.2l.2.5c0 .1 0 .3-.2.4l-.5.2z"/><path fill="#0071BC" d="M175.6 350.2l-1.2.3a2.4 2.4 0 0 1-2.3-1.5c-.2-.5-.3-1-.3-1.7s.1-1.2.3-1.7.6-.9 1-1.2.8-.3 1.3-.3c.3 0 .7 0 1.2.2v.7c-.4-.2-.8-.3-1.3-.3-.3 0-.6 0-.8.3l-.6 1c-.1.4-.3.8-.3 1.3s.1 1 .3 1.3l.6 1c.3.2.5.3.8.3.5 0 .9-.1 1.3-.4v.7zM180 349.3c-.2.4-.5.7-.8.8l-.8.3c-.4 0-.7-.1-1-.4s-.5-.8-.5-1.5c0-.5.1-1 .3-1.3s.5-.7.8-1 .7-.3 1.2-.3a7 7 0 0 1 .8 0h.8v3.1l.1 1.3h-.7l-.2-1zm0-.8v-2h-.7c-.4 0-.8.2-1.1.5a2 2 0 0 0-.5 1.4c0 .5.1.8.3 1 .1.2.3.3.5.3.3 0 .5 0 .8-.3l.7-1zM183.5 350.3v-5.7h-1.3v-.6h2v5.7h1.4v.6h-2zM188.7 350.3v-5.7h-1.3v-.6h2v5.7h1.4v.6h-2zM196.4 350c-.6.3-1.1.4-1.7.4a2 2 0 0 1-1.8-1.1l-.2-1.2c0-.4 0-.8.2-1.1s.4-.7.8-.9.6-.3 1-.3c.5 0 1 .2 1.3.6s.4 1 .4 1.7v.1h-3l.2.9.5.5c.2.2.5.2.7.2.5 0 1-.1 1.6-.5v.7zm-3-2.3h2.3v-.1c0-.4-.1-.7-.3-.9s-.4-.3-.7-.3c-.3 0-.6.1-.8.3s-.3.6-.4 1zM198.3 350.3v-4.4h.8v1c.2-.4.4-.6.7-.8s.7-.3 1-.3l.8.1v1.6h-.7v-1h-.3c-.3 0-.5 0-.8.3l-.7 1v2.5h-.8z"/><path fill="#666" d="M212 350.2l-1.4.2c-.4 0-.8 0-1.1-.3s-.6-.5-.8-.8-.3-.7-.3-1.2c0-.6.2-1.2.6-1.6s1-.7 1.6-.7c.4 0 1 .1 1.4.3v.7c-.5-.3-1-.4-1.3-.4-.3 0-.6 0-.8.2l-.5.6-.2.9c0 .4.1.8.4 1.1s.6.6 1.1.6h.5l.8-.3v.7zM216.4 349.3c-.2.4-.5.7-.8.8l-.8.3c-.4 0-.7-.1-1-.4s-.5-.8-.5-1.5c0-.5.1-1 .3-1.3s.5-.7.8-1 .7-.3 1.2-.3a7 7 0 0 1 .8 0h.8v3.1l.1 1.3h-.7l-.2-1zm0-.8v-2h-.7c-.4 0-.8.2-1.1.5a2 2 0 0 0-.5 1.4c0 .5.1.8.3 1 .1.2.3.3.5.3.3 0 .5 0 .8-.3l.7-1zM220 350.3v-5.7h-1.4v-.6h2v5.7h1.4v.6h-2zM225.1 350.3v-5.7h-1.3v-.6h2v5.7h1.4v.6h-2zM232.8 350c-.6.3-1.1.4-1.7.4a2 2 0 0 1-1.8-1.1l-.2-1.2c0-.4 0-.8.2-1.1s.5-.7.8-.9.6-.3 1-.3c.6 0 1 .2 1.3.6s.5 1 .5 1.7v.1h-3l.1.9.5.5c.2.2.5.2.7.2.5 0 1-.1 1.6-.5v.7zm-3-2.3h2.3v-.1c0-.4-.1-.7-.3-.9s-.4-.3-.7-.3c-.3 0-.5.1-.8.3s-.3.6-.4 1zM234.7 350.3v-4.4h.8v1c.2-.4.4-.6.7-.8s.7-.3 1-.3l.8.1v1.6h-.7v-1h-.3c-.3 0-.5 0-.8.3l-.7 1v2.5h-.8zM240.6 352v-.5l.4-.2.3-.3v-.6c-.2 0-.4 0-.5-.2l-.1-.4.1-.5c.1-.2.3-.1.5-.1s.4 0 .6.2.2.5.2.8c0 .3 0 .6-.2.8l-.5.7c-.2.2-.5.3-.8.3z"/><path fill="#0071BC" d="M250 350.3V344h.7v2.9l.7-.8c.3-.2.6-.3 1-.3.2 0 .4 0 .6.2l.4.5.2.4v3.4h-.7v-2.5-.9c0-.2-.2-.2-.3-.3l-.4-.1c-.2 0-.5.1-.8.4l-.7.9v2.5h-.7zM258.8 350.1l-.7.3h-.5c-.3 0-.6 0-.8-.2l-.6-.5a3 3 0 0 1-.2-1v-1.8h-1v-.6h1v-1.8h.8v1.8h1.9v.6h-2v1.8c0 .3 0 .6.2.7l.3.3.5.1c.4 0 .7 0 1.1-.3v.6zM264 350.1l-.7.3h-.5c-.3 0-.6 0-.8-.2l-.6-.5a3 3 0 0 1-.2-1v-1.8h-1v-.6h1v-1.8h.8v1.8h1.9v.6h-2v1.8c0 .3 0 .6.2.7l.3.3.5.1c.4 0 .7 0 1.1-.3v.6zM266.2 347l.8-.9.9-.3c.4 0 .7.2 1 .5s.4.8.4 1.4c0 .5 0 1-.3 1.4s-.4.7-.8 1-.7.3-1.1.3a7 7 0 0 1-.9 0v1.6h-.7v-6h.7v1zm0 .8v1.9h.8c.4 0 .8-.1 1-.5.4-.3.5-.8.5-1.4 0-.4 0-.7-.2-1l-.6-.3c-.2 0-.5.1-.7.4l-.8.9z"/><path fill="#666" d="M272.6 347h-.5l-.2-.5c0-.2 0-.4.2-.5l.5-.2c.2 0 .3 0 .4.2l.2.5c0 .1 0 .3-.2.4l-.4.2zm0 3.5c-.2 0-.4 0-.5-.2l-.2-.4c0-.2 0-.4.2-.5l.5-.2c.2 0 .3 0 .4.2l.2.5c0 .1 0 .3-.2.4l-.4.2z"/><path fill="#0071BC" d="M276.7 347.7v2.6h-.8v-6h1.7l1.1.1c.3.1.5.3.6.5l.2.7-.1.7c-.1.2-.2.5-.4.6l-.7.6 1.8 2.8h-1l-1.6-2.6h-.8zm0-.6h1.1l.6-.4.3-.4v-.5c0-.3 0-.5-.3-.7-.2-.2-.5-.3-1-.3h-.7v2.3zM284.8 350c-.6.3-1.1.4-1.7.4a2 2 0 0 1-1.8-1.1l-.2-1.2c0-.4 0-.8.2-1.1s.5-.7.8-.9.6-.3 1-.3c.6 0 1 .2 1.3.6s.5 1 .5 1.7v.1h-3l.1.9.5.5c.2.2.5.2.7.2.5 0 1-.1 1.6-.5v.7zm-3-2.3h2.3v-.1c0-.4-.1-.7-.3-.9s-.4-.3-.7-.3c-.3 0-.5.1-.8.3s-.3.6-.4 1zM289.3 349.3c-.2.4-.5.7-.8.8l-.9.3c-.3 0-.7-.1-1-.4s-.4-.8-.4-1.5c0-.5.1-1 .3-1.3s.4-.7.8-1 .7-.3 1.2-.3a7 7 0 0 1 .8 0h.7v6.1h-.7v-2.7zm0-.8v-2h-.7c-.5 0-.9.2-1.2.5a2 2 0 0 0-.4 1.4c0 .5 0 .8.2 1l.6.3c.2 0 .5 0 .8-.3l.7-1zM295.2 346v4.3h-.8v-1l-.7.9c-.2.2-.6.2-1 .2-.2 0-.4 0-.6-.2l-.5-.5v-3.8h.7V349.3l.2.3.4.2.8-.4c.3-.2.5-.5.7-1V346h.8zM300.4 350c-.6.3-1.1.4-1.6.4a2 2 0 0 1-1.8-1.1l-.3-1.2c0-.4 0-.8.2-1.1s.5-.7.8-.9.7-.3 1-.3c.6 0 1 .2 1.3.6s.5 1 .5 1.7v.1h-3l.1.9.5.5c.2.2.5.2.7.2.5 0 1-.1 1.6-.5v.7zm-2.9-2.3h2.2v-.1c0-.4-.1-.7-.3-.9s-.4-.3-.7-.3c-.3 0-.5.1-.8.3s-.3.6-.4 1zM302 350v-.7l1 .4.8.1c.3 0 .6 0 .8-.2l.2-.4-.1-.3-.6-.3-.2-.1-.5-.2c-.6-.2-.9-.4-1-.6a1 1 0 0 1-.3-.6c0-.4.2-.7.5-1s.7-.3 1.3-.3c.5 0 1 0 1.3.2v.7a4 4 0 0 0-1.3-.3c-.3 0-.6 0-.7.2l-.3.4c0 .1 0 .3.2.4l.8.3.4.2c.5.1.8.3 1 .5s.3.4.3.7c0 .4-.2.7-.5 1s-.7.3-1.4.3c-.5 0-1 0-1.7-.3zM310.8 350.1l-.7.3h-.5c-.3 0-.6 0-.8-.2l-.6-.5c-.2-.3-.2-.6-.2-1v-1.8h-1v-.6h1v-1.8h.8v1.8h1.9v.6h-2v1.8l.2.7.3.3.5.1c.4 0 .7 0 1.1-.3v.6z"/><path fill="#666" d="M318 350.3v-4.4h.7v1c.2-.4.5-.6.8-.8s.6-.3 1-.3l.7.1v1.6h-.7v-1h-.3c-.2 0-.5 0-.8.3l-.7 1v2.5h-.8zM326.4 350c-.6.3-1.1.4-1.6.4a2 2 0 0 1-1.8-1.1l-.3-1.2c0-.4 0-.8.2-1.1s.5-.7.8-.9.7-.3 1-.3c.6 0 1 .2 1.3.6s.5 1 .5 1.7v.1h-3l.1.9.5.5c.2.2.5.2.7.2.5 0 1-.1 1.6-.5v.7zm-2.9-2.3h2.2v-.1c0-.4-.1-.7-.3-.9s-.4-.3-.7-.3c-.3 0-.5.1-.7.3s-.4.6-.5 1zM330.9 349.3c-.2.4-.5.7-.8.8l-.9.3c-.3 0-.7-.1-1-.4s-.4-.8-.4-1.5c0-.5.1-1 .3-1.3s.5-.7.8-1 .7-.3 1.2-.3a7 7 0 0 1 .8 0h.7v6.1h-.7v-2.7zm0-.8v-2h-.7c-.5 0-.9.2-1.1.5a2 2 0 0 0-.5 1.4c0 .5 0 .8.2 1l.6.3c.2 0 .5 0 .8-.3l.7-1zM336.8 346v4.3h-.8v-1l-.7.9c-.2.2-.6.2-.9.2-.3 0-.5 0-.7-.2l-.4-.5-.2-1.3v-2.5h.8V349.3l.2.3.4.2.8-.4c.3-.2.5-.5.7-1V346h.8zM342 350c-.6.3-1.1.4-1.6.4a2 2 0 0 1-1.8-1.1l-.3-1.2c0-.4 0-.8.2-1.1s.5-.7.8-.9.7-.3 1-.3c.6 0 1 .2 1.3.6s.5 1 .5 1.7v.1h-3l.1.9.5.5c.3.2.5.2.8.2.4 0 1-.1 1.5-.5v.7zm-2.9-2.3h2.2v-.1c0-.4-.1-.7-.3-.9s-.4-.3-.7-.3c-.3 0-.5.1-.7.3s-.4.6-.5 1zM343.6 350v-.7l1 .4.8.1c.3 0 .6 0 .8-.2l.2-.4-.1-.3-.6-.3-.2-.1-.5-.2c-.6-.2-.9-.4-1-.6a1 1 0 0 1-.3-.6c0-.4.2-.7.5-1s.7-.3 1.3-.3c.5 0 1 0 1.3.2v.7a4 4 0 0 0-1.3-.3c-.3 0-.6 0-.7.2l-.3.4c0 .1 0 .3.2.4l.8.3.5.2c.4.1.7.3.9.5s.3.4.3.7c0 .4-.2.7-.5 1s-.7.3-1.4.3c-.5 0-1 0-1.7-.3zM352.4 350.1l-.7.3h-.5c-.3 0-.5 0-.8-.2l-.6-.5c-.2-.3-.2-.6-.2-1v-1.8h-1v-.6h1v-1.8h.8v1.8h2v.6h-2v2.5l.4.3.5.1c.4 0 .7 0 1.1-.3v.6zM354 343.9a3.4 3.4 0 0 1 3 2c.3.7.4 1.3.4 2s-.1 1.2-.4 1.8-.7 1-1.2 1.4-1 .6-1.8.7v-.6c.5-.1 1-.3 1.4-.6.4-.3.7-.7 1-1.2s.3-1 .3-1.6-.2-1-.4-1.6-.5-.9-1-1.2c-.3-.3-.8-.5-1.3-.5v-.6zM364.8 350.3v-4.4h.7v1c.2-.4.5-.6.8-.8s.6-.3 1-.3l.7.1v1.6h-.7v-1h-.3c-.2 0-.5 0-.8.3l-.7 1v2.5h-.7zM373.2 350c-.6.3-1.1.4-1.6.4a2 2 0 0 1-1.8-1.1l-.3-1.2c0-.4 0-.8.2-1.1s.5-.7.8-.9.7-.3 1-.3c.6 0 1 .2 1.3.6s.5 1 .5 1.7v.1h-3c0 .3 0 .6.2.9 0 .2.2.4.5.5.2.2.4.2.7.2.4 0 1-.1 1.5-.5v.7zm-2.9-2.3h2.2v-.1c0-.4-.1-.7-.3-.9s-.4-.3-.7-.3c-.3 0-.5.1-.7.3s-.4.6-.5 1zM378.4 350.1l-.7.3h-.5c-.3 0-.5 0-.8-.2l-.6-.5c-.2-.3-.2-.6-.2-1v-1.8h-1v-.6h1v-1.8h.8v1.8h2v.6h-2v2.5l.4.3.5.1c.4 0 .7 0 1.1-.3v.6zM383.6 346v4.3h-.8v-1c-.2.4-.4.7-.7.9s-.6.2-.9.2c-.2 0-.5 0-.7-.2l-.4-.5-.2-1.3v-2.5h.8V349.3l.2.3.4.2c.3 0 .5-.2.8-.4s.6-.5.7-1V346h.8zM385.6 350.3v-4.4h.7v1c.2-.4.5-.6.8-.8s.6-.3 1-.3l.7.1v1.6h-.7v-1h-.3c-.2 0-.5 0-.8.3l-.7 1v2.5h-.7zM390.4 350.3v-4.4h.7v1l.8-.8.8-.3c.3 0 .5 0 .8.2s.3.3.4.6l.1 1.3v2.4h-.7v-2.5-.9c0-.2-.2-.2-.3-.3l-.3-.1c-.3 0-.6.1-.9.4l-.7.9v2.5h-.7zM395.6 350v-.7l1 .4.8.1c.4 0 .6 0 .8-.2l.2-.4v-.3l-.7-.3-.2-.1-.5-.2c-.5-.2-.9-.4-1-.6a1 1 0 0 1-.2-.6c0-.4.1-.7.4-1s.7-.3 1.3-.3c.5 0 1 0 1.4.2v.7a4 4 0 0 0-1.4-.3c-.3 0-.6 0-.7.2l-.3.4c0 .1 0 .3.2.4l.8.3.5.2 1 .5c.2.2.2.4.2.7 0 .4-.2.7-.5 1s-.7.3-1.3.3c-.6 0-1.2 0-1.8-.3zM409.6 350c-.6.3-1.1.4-1.6.4a2 2 0 0 1-1.8-1.1l-.3-1.2c0-.4 0-.8.3-1.1s.4-.7.7-.9.7-.3 1-.3c.6 0 1 .2 1.3.6s.5 1 .5 1.7v.1h-3c0 .3 0 .6.2.9 0 .2.3.4.5.5.2.2.4.2.7.2.4 0 1-.1 1.5-.5v.7zm-2.9-2.3h2.2v-.1c0-.4-.1-.7-.3-.9s-.4-.3-.7-.3c-.3 0-.5.1-.7.3s-.4.6-.5 1zM411.6 350.3v-4.4h.7v1c.2-.4.5-.6.8-.8s.6-.3 1-.3l.7.1v1.6h-.7v-1h-.3c-.2 0-.5 0-.8.3l-.7 1v2.5h-.7zM416.8 350.3v-4.4h.7v1c.2-.4.5-.6.8-.8s.6-.3 1-.3l.7.1v1.6h-.7v-1h-.3c-.2 0-.5 0-.8.3l-.7 1v2.5h-.7zM423.4 350.4c-.6 0-1.1-.2-1.5-.6s-.6-1-.6-1.7.2-1.2.6-1.6.9-.7 1.5-.7 1.1.2 1.5.7.5 1 .5 1.6-.1 1.2-.5 1.7-.9.6-1.5.6zm0-.6c.4 0 .7-.1 1-.4s.2-.8.2-1.3 0-1-.3-1.2-.5-.5-1-.5c-.3 0-.6.2-.8.5s-.4.7-.4 1.2.1 1 .4 1.3.5.4.9.4zM427.2 350.3v-4.4h.7v1c.2-.4.5-.6.8-.8s.6-.3 1-.3l.7.1v1.6h-.7v-1h-.3c-.2 0-.5 0-.8.3l-.7 1v2.5h-.7zM433 348.6v-.2-.5l.2-.4.5-.6.2-.3.2-.2.3-.3.3-.7c0-.2 0-.4-.2-.5-.2-.2-.4-.2-.8-.2h-.7l-.8.4v-.7l1.5-.3c.6 0 1 0 1.3.3s.5.6.5 1c0 .3-.2.7-.6 1.1l-.3.3-.3.3-.2.3-.3.4-.1.6v.2h-.7zm.3 1.9c-.1 0-.2 0-.3-.2l-.2-.4c0-.2 0-.3.2-.4l.3-.1.4.1.2.4c0 .1 0 .3-.2.4l-.4.2zM444 347.8l.5.4c.2 0 .2.2.2.4v1.4l-.2.6.2.4.8.1h.6v.7h-.6c-.7 0-1.2-.2-1.4-.4s-.3-.5-.3-.8v-.5l.1-.3v-.3l.1-.2v-.3c0-.2 0-.5-.2-.6-.1-.2-.4-.3-.8-.3h-.4v-.6h.4c.4 0 .7 0 .8-.2.2-.2.3-.4.3-.7v-.2l-.1-.2v-.4l-.1-.3-.1-.5c0-.3.1-.5.3-.8s.7-.3 1.4-.3h.6v.6h-.6c-.4 0-.6 0-.8.2l-.2.4.1.5.1.4v.6a1.1 1.1 0 0 1-.2.8 2 2 0 0 1-.6.4zM21.1 364.3V358h.8v2.9l.7-.8.9-.3c.2 0 .5 0 .7.2l.4.5.1.4v3.4H24v-2.5-.9c0-.2-.1-.2-.2-.3l-.4-.1c-.3 0-.5.1-.8.4l-.7.9v2.5H21zM30 364.1l-.8.3h-.4c-.3 0-.6 0-.8-.2l-.6-.5a3 3 0 0 1-.2-1v-1.8H26v-.6h1v-1.8h.8v1.8h2v.6h-2v1.8l.1.7c.1.1.2.3.4.3l.5.1c.3 0 .7 0 1-.3v.6zM35.2 364.1l-.8.3H34c-.3 0-.6 0-.8-.2l-.6-.5a3 3 0 0 1-.2-1v-1.8h-1.1v-.6h1v-1.8h.8v1.8h2v.6h-2v1.8l.1.7c.1.1.2.3.4.3l.5.1c.3 0 .7 0 1-.3v.6zM37.4 361c.2-.4.5-.7.8-.9l.9-.3c.3 0 .7.2 1 .5s.4.8.4 1.4c0 .5-.1 1-.3 1.4s-.5.7-.8 1-.7.3-1.2.3a7 7 0 0 1-.8 0v1.6h-.7v-6h.7v1zm0 .8v1.9h.7c.5 0 .8-.1 1.1-.5.3-.3.5-.8.5-1.4 0-.4 0-.7-.3-1-.1-.2-.3-.3-.5-.3s-.5.1-.8.4l-.7.9zM43.7 361h-.4l-.2-.5c0-.2 0-.4.2-.5l.4-.2c.1 0 .3 0 .5.2s.2.3.2.5l-.2.4-.5.2zm0 3.5c-.2 0-.3 0-.4-.2l-.2-.4c0-.2 0-.4.2-.5l.4-.2c.1 0 .3 0 .5.2s.2.3.2.5l-.2.4-.5.2zM47.9 361.7v2.6h-.8v-6h1.6l1.2.1.6.5.2.7c0 .2 0 .5-.2.7l-.3.6-.7.6 1.7 2.8h-1l-1.5-2.6h-.8zm0-.6H49l.6-.4.2-.4.1-.5c0-.3 0-.5-.3-.7-.2-.2-.6-.3-1.1-.3h-.6v2.3zM56 364c-.6.3-1.2.4-1.7.4a2 2 0 0 1-1.8-1.1l-.3-1.2c0-.4.1-.8.3-1.1s.4-.7.7-.9.7-.3 1.1-.3c.5 0 1 .2 1.3.6s.4 1 .4 1.7v.1h-3c0 .3 0 .6.2.9l.5.5c.2.2.4.2.7.2.5 0 1-.1 1.6-.5v.7zm-3-2.3h2.2v-.1c0-.4 0-.7-.2-.9s-.4-.3-.7-.3c-.3 0-.6.1-.8.3s-.4.6-.4 1zM57.6 364v-.7l1 .4.7.1c.4 0 .7 0 .8-.2l.3-.4-.1-.3-.6-.3-.3-.1-.5-.2-1-.6a1 1 0 0 1-.2-.6c0-.4.1-.7.4-1s.8-.3 1.4-.3c.4 0 .9 0 1.3.2v.7a4 4 0 0 0-1.4-.3c-.3 0-.5 0-.7.2l-.2.4c0 .1 0 .3.2.4l.7.3.5.2c.5.1.8.3 1 .5s.2.4.2.7c0 .4-.1.7-.4 1s-.8.3-1.4.3c-.6 0-1.1 0-1.7-.3zM63.4 361c.2-.4.5-.7.8-.9l.9-.3c.3 0 .7.2 1 .5s.4.8.4 1.4c0 .5-.1 1-.3 1.4s-.5.7-.8 1-.7.3-1.2.3a7 7 0 0 1-.8 0v1.6h-.7v-6h.7v1zm0 .8v1.9h.7c.5 0 .8-.1 1.1-.5.3-.3.5-.8.5-1.4 0-.4 0-.7-.3-1-.1-.2-.3-.3-.5-.3s-.5.1-.8.4l-.7.9zM69.7 364.4c-.6 0-1-.2-1.5-.6s-.5-1-.5-1.7.2-1.2.5-1.6 1-.7 1.5-.7c.7 0 1.2.2 1.5.7s.6 1 .6 1.6-.2 1.2-.6 1.7-.8.6-1.5.6zm0-.6c.4 0 .7-.1 1-.4s.3-.8.3-1.3-.1-1-.3-1.2-.6-.5-1-.5-.7.2-.9.5-.3.7-.3 1.2 0 1 .3 1.3.5.4 1 .4zM73.1 364.3v-4.4h.8v1l.7-.8.9-.3c.3 0 .5 0 .7.2l.4.6c0 .3.2.6.2 1.3v2.4H76v-2.5-.9c0-.2-.1-.2-.2-.3l-.4-.1c-.2 0-.5.1-.8.4l-.7.9v2.5H73zM78.4 364v-.7l1 .4.7.1c.4 0 .7 0 .8-.2l.3-.4-.1-.3-.6-.3-.2-.1-.6-.2-1-.6a1 1 0 0 1-.2-.6c0-.4.1-.7.4-1s.8-.3 1.4-.3c.4 0 .9 0 1.3.2v.7a4 4 0 0 0-1.3-.3c-.4 0-.6 0-.8.2l-.2.4c0 .1 0 .3.2.4l.7.3.5.2c.5.1.8.3 1 .5s.2.4.2.7c0 .4-.1.7-.4 1s-.8.3-1.4.3c-.6 0-1.1 0-1.7-.3zM87.2 364c-.6.3-1.2.4-1.7.4a2 2 0 0 1-1.8-1.1l-.3-1.2c0-.4.1-.8.3-1.1s.4-.7.7-.9.7-.3 1.1-.3c.5 0 1 .2 1.3.6s.4 1 .4 1.7v.1h-3c0 .3 0 .6.2.9l.5.5c.2.2.4.2.7.2.5 0 1-.1 1.6-.5v.7zm-3-2.3h2.2v-.1c0-.4 0-.7-.2-.9s-.4-.3-.7-.3c-.3 0-.6.1-.8.3s-.4.6-.4 1zM94.3 364.3v-4.4h.7v1l.8-.8c.3-.2.6-.3 1-.3l.8.1v1.6h-.7v-1h-.3c-.3 0-.5 0-.8.3l-.8 1v2.5h-.7zM102.8 364c-.6.3-1.2.4-1.7.4a2 2 0 0 1-1.8-1.1l-.3-1.2c0-.4.1-.8.3-1.1s.4-.7.8-.9.6-.3 1-.3c.5 0 1 .2 1.3.6s.4 1 .4 1.7v.1h-3c0 .3 0 .6.2.9l.5.5c.2.2.5.2.7.2.5 0 1-.1 1.6-.5v.7zm-3-2.3h2.2v-.1c0-.4 0-.7-.2-.9s-.4-.3-.7-.3c-.3 0-.6.1-.8.3s-.3.6-.4 1zM104.4 364v-.7l1 .4.7.1c.4 0 .7 0 .8-.2l.3-.4-.1-.3-.6-.3-.2-.1-.5-.2c-.6-.2-1-.4-1-.6a1 1 0 0 1-.3-.6c0-.4.2-.7.4-1s.8-.3 1.4-.3c.4 0 .9 0 1.3.2v.7a4 4 0 0 0-1.3-.3c-.4 0-.6 0-.8.2l-.2.4c0 .1 0 .3.2.4l.7.3.5.2c.5.1.8.3 1 .5s.2.4.2.7c0 .4-.1.7-.4 1s-.7.3-1.4.3c-.5 0-1.1 0-1.7-.3zM110.2 361c.2-.4.5-.7.8-.9l.9-.3c.3 0 .7.2 1 .5s.4.8.4 1.4c0 .5-.1 1-.3 1.4s-.5.7-.8 1-.7.3-1.2.3a7 7 0 0 1-.8 0v1.6h-.7v-6h.7v1zm0 .8v1.9h.7c.5 0 .9-.1 1.2-.5.3-.3.4-.8.4-1.4 0-.4 0-.7-.2-1l-.6-.3c-.2 0-.5.1-.8.4l-.7.9zM116.5 364.4c-.6 0-1-.2-1.5-.6s-.5-1-.5-1.7.2-1.2.5-1.6 1-.7 1.5-.7c.7 0 1.2.2 1.5.7s.6 1 .6 1.6-.2 1.2-.6 1.7-.8.6-1.5.6zm0-.6c.4 0 .7-.1 1-.4s.3-.8.3-1.3-.1-1-.3-1.2-.6-.5-1-.5-.7.2-.9.5-.3.7-.3 1.2 0 1 .3 1.3.5.4 1 .4zM120 364.3v-4.4h.7v1l.7-.8c.3-.2.6-.3 1-.3.2 0 .4 0 .6.2l.5.6v3.7h-.6v-2.5l-.1-.9-.2-.3a.5.5 0 0 0-.4-.1c-.2 0-.5.1-.8.4l-.7.9v2.5h-.8zM125.2 364v-.7l1 .4.7.1c.4 0 .7 0 .8-.2l.3-.4-.1-.3-.6-.3-.2-.1-.5-.2c-.6-.2-1-.4-1-.6a1 1 0 0 1-.3-.6c0-.4.2-.7.4-1s.8-.3 1.4-.3c.5 0 .9 0 1.3.2v.7a4 4 0 0 0-1.3-.3c-.3 0-.6 0-.8.2l-.2.4c0 .1 0 .3.2.4l.7.3.5.2c.5.1.8.3 1 .5s.2.4.2.7c0 .4-.1.7-.4 1s-.7.3-1.4.3c-.5 0-1.1 0-1.7-.3zM134 364c-.6.3-1.2.4-1.7.4a2 2 0 0 1-1.8-1.1l-.3-1.2c0-.4.1-.8.3-1.1s.4-.7.8-.9.6-.3 1-.3c.5 0 1 .2 1.3.6s.4 1 .4 1.7v.1h-3c0 .3 0 .6.2.9l.5.5c.2.2.5.2.7.2.5 0 1-.1 1.6-.5v.7zm-3-2.3h2.2v-.1c0-.4 0-.7-.2-.9s-.4-.3-.7-.3c-.3 0-.6.1-.8.3s-.3.6-.4 1zM144.7 361.2v.6h-4.3v-.6h4.3zm0 1.4v.6h-4.3v-.6h4.3z"/><path fill="#0071BC" d="M154.8 364.2l-1.4.2c-.4 0-.8 0-1.1-.3s-.6-.5-.8-.8-.3-.7-.3-1.2c0-.6.2-1.2.6-1.6s1-.7 1.6-.7c.4 0 1 .1 1.4.3v.7c-.5-.3-1-.4-1.3-.4-.3 0-.6 0-.8.2l-.5.6-.2.9c0 .4.1.8.3 1.1s.7.6 1.2.6h.5l.8-.3v.7zM156.3 364.3V358h.8v2.9l.7-.8c.3-.2.6-.3 1-.3.2 0 .4 0 .6.2l.4.5.2.4v3.4h-.7v-2.5l-.1-.9-.2-.3a.5.5 0 0 0-.4-.1c-.2 0-.5.1-.8.4l-.7.9v2.5h-.8zM165.2 364c-.6.3-1.2.4-1.7.4a2 2 0 0 1-1.8-1.1c-.2-.4-.2-.8-.2-1.2 0-.4 0-.8.2-1.1s.4-.7.8-.9.6-.3 1-.3c.5 0 1 .2 1.3.6s.4 1 .4 1.7v.1h-3l.2.9.5.5c.2.2.5.2.7.2.5 0 1-.1 1.6-.5v.7zm-3-2.3h2.3v-.1c0-.4-.1-.7-.3-.9s-.4-.3-.7-.3c-.3 0-.6.1-.8.3s-.3.6-.4 1zM170.4 364.2l-1.4.2c-.4 0-.8 0-1.1-.3s-.6-.5-.8-.8-.3-.7-.3-1.2c0-.6.2-1.2.6-1.6s1-.7 1.6-.7c.4 0 1 .1 1.4.3v.7c-.5-.3-1-.4-1.3-.4-.3 0-.6 0-.8.2l-.5.6-.2.9c0 .4.1.8.3 1.1s.7.6 1.2.6h.5l.8-.3v.7zM172.1 364.3V358h.8v4l2-2h1l-2 2 2 2.3h-1l-2-2.3v2.3h-.8z"/><path fill="#666" d="M183 361c.2-.4.5-.7.8-.9l.9-.3c.3 0 .7.2 1 .5s.4.8.4 1.4c0 .5-.1 1-.3 1.4s-.4.7-.8 1-.7.3-1.2.3a7 7 0 0 1-.8 0h-.7V358h.7v3zm0 .8v1.9h.8c.4 0 .8-.1 1-.5.4-.3.5-.8.5-1.4 0-.4 0-.7-.2-1l-.6-.3c-.2 0-.5.1-.7.4-.3.2-.6.5-.8.9zM190.4 363.3c-.2.4-.5.7-.8.8l-.8.3c-.4 0-.7-.1-1-.4s-.5-.8-.5-1.5c0-.5.1-1 .3-1.3s.5-.7.8-1 .7-.3 1.2-.3a7 7 0 0 1 .8 0h.8v3.1l.1 1.3h-.7l-.2-1zm0-.8v-2h-.7c-.4 0-.8.2-1.1.5a2 2 0 0 0-.5 1.4c0 .5.1.8.3 1 .1.2.3.3.5.3.3 0 .5 0 .8-.3l.7-1zM196.4 364.2l-1.4.2c-.4 0-.8 0-1.1-.3s-.6-.5-.8-.8-.3-.7-.3-1.2c0-.6.2-1.2.6-1.6s1-.7 1.6-.7c.4 0 1 .1 1.4.3v.7c-.5-.3-1-.4-1.3-.4-.3 0-.6 0-.8.2l-.5.6-.2.9c0 .4.1.8.3 1.1s.7.6 1.2.6h.5l.8-.3v.7zM198.2 364.3V358h.7v4l2-2h1l-2 2 2.1 2.3h-1l-2.1-2.3v2.3h-.8zM206.8 364c-.6.3-1.1.4-1.7.4a2 2 0 0 1-1.8-1.1l-.2-1.2c0-.4 0-.8.2-1.1s.4-.7.8-.9.6-.3 1-.3c.5 0 1 .2 1.3.6s.4 1 .4 1.7v.1h-3l.2.9.5.5c.2.2.5.2.7.2.5 0 1-.1 1.6-.5v.7zm-3-2.3h2.3v-.1c0-.4-.1-.7-.3-.9s-.4-.3-.7-.3c-.3 0-.6.1-.8.3s-.3.6-.4 1zM208.4 364.3v-4.4h.7v1l.7-.8c.3-.2.6-.3 1-.3.2 0 .4 0 .6.2l.5.6v3.7h-.6v-2.5-.9c0-.2-.2-.2-.3-.3l-.4-.1c-.2 0-.5.1-.8.4l-.7.9v2.5h-.7zM216.5 363.3c-.2.4-.5.7-.8.8l-.9.3c-.3 0-.7-.1-1-.4s-.4-.8-.4-1.5c0-.5 0-1 .3-1.3s.4-.7.8-1a2 2 0 0 1 1.2-.3 7 7 0 0 1 .8 0V358h.7v6.3h-.7v-1zm0-.8v-2h-.7c-.5 0-.9.2-1.2.5a2 2 0 0 0-.4 1.4c0 .5 0 .8.2 1l.6.3c.2 0 .5 0 .7-.3l.8-1zM222.4 364.2l-1.2.3a2.4 2.4 0 0 1-2.3-1.5c-.2-.5-.3-1-.3-1.7s.1-1.2.3-1.7.6-.9 1-1.2.8-.3 1.3-.3c.3 0 .7 0 1.2.2v.7l-1.2-.3c-.4 0-.6 0-1 .3s-.4.5-.5 1l-.3 1.3c0 .5.1 1 .3 1.3l.6 1c.3.2.5.3.9.3s.8-.1 1.2-.4v.7zM225.1 364.3v-5.7h-1.3v-.6h2v5.7h1.4v.6h-2zM230.4 364.3v-3.8h-1.2v-.6h2v3.8h1.1v.6h-2zm-.1-6l.1-.3.3-.1.4.1.1.4-.1.3-.4.1h-.3l-.1-.4zM238 364c-.6.3-1.1.4-1.7.4a2 2 0 0 1-1.8-1.1l-.2-1.2c0-.4 0-.8.2-1.1s.5-.7.8-.9.6-.3 1-.3c.6 0 1 .2 1.3.6s.5 1 .5 1.7v.1h-3l.1.9.5.5c.2.2.5.2.7.2.5 0 1-.1 1.6-.5v.7zm-3-2.3h2.3v-.1c0-.4-.1-.7-.3-.9s-.4-.3-.7-.3c-.3 0-.5.1-.8.3s-.3.6-.4 1zM239.6 364.3v-4.4h.7v1l.7-.8c.3-.2.6-.3 1-.3.2 0 .4 0 .6.2l.5.6.1 1.3v2.4h-.7v-2.5-.9c0-.2-.2-.2-.3-.3l-.4-.1c-.2 0-.5.1-.8.4l-.7.9v2.5h-.7zM248.4 364.1l-.7.3h-.5c-.3 0-.6 0-.8-.2l-.6-.5a3 3 0 0 1-.2-1v-1.8h-1v-.6h1v-1.8h.7v1.8h2v.6h-2v1.8c0 .3 0 .6.2.7l.3.3.5.1c.4 0 .7 0 1.1-.3v.6zM253.4 363.6v.7h-3.3v-6h3.3v.6h-2.5v2h2.2v.6H251v2.1h2.5zM256 362v2.3h-.8v-6h1.6c.6 0 1 0 1.3.2l.7.6c.2.3.2.5.2.9a2 2 0 0 1-1.2 1.8c-.3.2-.8.3-1.4.3h-.4zm0-.5h.4c.5 0 .8 0 1-.2.3-.1.5-.3.6-.5l.2-.8a1 1 0 0 0-.3-.8c-.3-.3-.7-.4-1.4-.4h-.5v2.7zM260.6 362.2v-.7h3v.7h-3zM269.5 362.2l-4.3 2.1v-.7l3-1.4-3-1.5v-.6l4.3 2zM273.7 363.3c-.2.4-.5.7-.8.8l-.9.3c-.3 0-.7-.1-1-.4s-.4-.8-.4-1.5c0-.5.1-1 .3-1.3s.4-.7.8-1 .7-.3 1.2-.3a7 7 0 0 1 .8 0h.7v4.5l-.1.5c-.1.4-.4.7-.7.9-.4.2-.8.3-1.4.3-.5 0-1-.1-1.6-.4v-.7l.8.4.9.1h.6c.2 0 .3-.3.5-.4s.2-.3.2-.5V363.3zm0-.8v-2h-.7c-.5 0-.9.2-1.2.5a2 2 0 0 0-.4 1.4c0 .5 0 .8.2 1l.6.3c.2 0 .5 0 .7-.3l.8-1zM279.6 364c-.6.3-1.1.4-1.7.4a2 2 0 0 1-1.8-1.1l-.2-1.2c0-.4 0-.8.2-1.1s.5-.7.8-.9.6-.3 1-.3c.6 0 1 .2 1.3.6s.5 1 .5 1.7v.1h-3l.1.9.5.5c.2.2.5.2.7.2.5 0 1-.1 1.6-.5v.7zm-3-2.3h2.3v-.1c0-.4-.1-.7-.3-.9s-.4-.3-.7-.3c-.3 0-.5.1-.8.3s-.3.6-.4 1zM284.8 364.1l-.7.3h-.5c-.3 0-.6 0-.8-.2l-.6-.5a3 3 0 0 1-.2-1v-1.8h-1v-.6h1v-1.8h.8v1.8h1.9v.6h-2v1.8l.2.7.3.3.5.1c.4 0 .7 0 1.1-.3v.6zM290 365.8a3.4 3.4 0 0 1-3-2.1c-.4-.6-.5-1.3-.5-1.9s.1-1.2.4-1.8.7-1.1 1.2-1.5 1.1-.6 1.8-.6v.6c-.5 0-1 .2-1.4.5l-.9 1.2a3.8 3.8 0 0 0 0 3.2c.2.5.6.9 1 1.2.3.3.8.5 1.3.6v.6z"/><path fill="#C1272D" d="M292.8 360.2h-.5l-.3-2.2h1l-.2 2.2zm1.7 0h-.5l-.3-2.2h1l-.2 2.2zM297 364.5h-.7l3.8-6.4h.7l-3.8 6.4zM302 364.3V358h.7v2.9l.8-.8c.3-.2.5-.3.8-.3.3 0 .5 0 .7.2l.4.5.2.4v3.4h-.7v-2.5-.9c0-.2-.2-.2-.3-.3l-.4-.1c-.2 0-.5.1-.8.4l-.7.9v2.5h-.7zM310.8 364c-.6.3-1.1.4-1.6.4a2 2 0 0 1-1.8-1.1l-.3-1.2c0-.4 0-.8.2-1.1s.5-.7.8-.9.7-.3 1-.3c.6 0 1 .2 1.3.6s.5 1 .5 1.7v.1h-3l.1.9.5.5c.2.2.5.2.7.2.5 0 1-.1 1.6-.5v.7zm-2.9-2.3h2.2v-.1c0-.4-.1-.7-.3-.9s-.4-.3-.7-.3c-.3 0-.5.1-.8.3s-.3.6-.4 1zM313.5 364.3v-5.7h-1.3v-.6h2v5.7h1.4v.6h-2zM318.7 364.3v-5.7h-1.3v-.6h2v5.7h1.4v.6h-2zM324.6 364.4c-.7 0-1.2-.2-1.5-.6s-.6-1-.6-1.7.2-1.2.6-1.6.8-.7 1.5-.7c.6 0 1 .2 1.5.7s.5 1 .5 1.6-.2 1.2-.5 1.7-1 .6-1.5.6zm0-.6c.4 0 .7-.1.9-.4s.3-.8.3-1.3 0-1-.3-1.2-.5-.5-1-.5c-.3 0-.6.2-.9.5s-.3.7-.3 1.2.1 1 .3 1.3.6.4 1 .4zM329.2 360.2h-.5l-.3-2.2h1l-.2 2.2zm1.7 0h-.5l-.2-2.2h1l-.3 2.2z"/><path fill="#666" d="M333.2 357.9a3.4 3.4 0 0 1 3 2c.3.7.4 1.3.4 2s-.1 1.2-.4 1.8-.7 1-1.2 1.4-1.1.6-1.8.7v-.6c.5-.1 1-.3 1.4-.6.4-.3.7-.7 1-1.2s.3-1 .3-1.6-.2-1-.4-1.6-.5-.9-1-1.2c-.3-.3-.8-.5-1.3-.5v-.6zM339.4 366v-.5l.5-.2.2-.3v-.6c-.2 0-.3 0-.5-.2s-.1-.3-.1-.4c0-.2 0-.3.2-.5s.2-.1.4-.1.4 0 .6.2.2.5.2.8c0 .3 0 .6-.2.8l-.5.7c-.2.2-.5.3-.8.3zm.7-5h-.4l-.2-.5c0-.2 0-.4.2-.5l.4-.2c.2 0 .3 0 .5.2s.1.3.1.5l-.1.4-.5.2z"/><path fill="#0071BC" d="M21.2 380v-.7c.4.2.7.2 1 .2l.6-.1.4-.4.2-1v-3.5h-1.9v-.6h2.6v3.9c0 .7 0 1.2-.3 1.5-.1.3-.3.5-.6.6l-1 .2h-1zm2-7.6l.2-.4.3-.1.4.1.1.4-.1.3-.4.1h-.3l-.1-.4zM26.4 378v-.7l1 .4.7.1c.4 0 .7 0 .8-.2l.3-.4-.1-.3-.6-.3-.3-.1-.5-.2-1-.6a1 1 0 0 1-.2-.6c0-.4.1-.7.4-1s.7-.3 1.4-.3c.4 0 .9 0 1.3.2v.7a4 4 0 0 0-1.4-.3c-.3 0-.5 0-.7.2l-.2.4c0 .1 0 .3.2.4l.7.3.5.2c.5.1.8.3 1 .5s.2.4.2.7c0 .4-.1.7-.4 1s-.8.3-1.4.3c-.6 0-1.1 0-1.7-.3zM33.3 378.4c-.6 0-1.1-.2-1.5-.6s-.5-1-.5-1.7.2-1.2.5-1.6.9-.7 1.5-.7 1.1.2 1.5.7.6 1 .6 1.6-.2 1.2-.6 1.7-.9.6-1.5.6zm0-.6c.4 0 .7-.1 1-.4s.3-.8.3-1.3-.1-1-.4-1.2-.5-.5-.9-.5-.7.2-.9.5-.3.7-.3 1.2 0 1 .3 1.3.5.4 1 .4zM36.7 378.3v-4.4h.8v1l.7-.8.9-.3c.3 0 .5 0 .7.2l.4.6c0 .3.2.6.2 1.3v2.4h-.8v-2.5-.9c0-.2-.1-.2-.2-.3l-.4-.1c-.3 0-.5.1-.8.4l-.7.9v2.5h-.8z"/><path fill="#666" d="M47.2 380v-.7c.4.2.7.2 1 .2l.6-.1.4-.4.2-1v-3.5h-1.9v-.6h2.6v3.9c0 .7 0 1.2-.3 1.5-.1.3-.3.5-.6.6l-1 .2h-1zm2-7.6l.2-.4.3-.1.4.1.1.4-.1.3-.4.1h-.3l-.1-.4zM61.4 375.2v.6h-4.2v-.6h4.2zm0 1.4v.6h-4.2v-.6h4.2z"/><path fill="#0071BC" d="M71.6 378.2l-1.4.2c-.4 0-.8 0-1.2-.3s-.6-.5-.7-.8-.3-.7-.3-1.2c0-.6.2-1.2.6-1.6s1-.7 1.6-.7l1.4.3v.7c-.5-.3-1-.4-1.4-.4-.2 0-.5 0-.7.2l-.5.6-.2.9c0 .4 0 .8.3 1.1s.7.6 1.2.6h.5l.8-.3v.7zM73.1 378.3V372h.8v2.9l.7-.8.9-.3c.2 0 .5 0 .7.2l.4.5.1.4v3.4H76v-2.5-.9c0-.2-.1-.2-.2-.3l-.4-.1c-.2 0-.5.1-.8.4l-.7.9v2.5H73zM82 378c-.6.3-1.2.4-1.7.4a2 2 0 0 1-1.8-1.1l-.3-1.2c0-.4.1-.8.3-1.1s.4-.7.7-.9.7-.3 1.1-.3c.5 0 1 .2 1.3.6s.4 1 .4 1.7v.1h-3c0 .3 0 .6.2.9l.5.5c.2.2.4.2.7.2.5 0 1-.1 1.6-.5v.7zm-3-2.3h2.2v-.1c0-.4 0-.7-.2-.9s-.4-.3-.7-.3c-.3 0-.6.1-.8.3s-.4.6-.4 1zM87.2 378.2l-1.4.2c-.4 0-.8 0-1.1-.3s-.7-.5-.8-.8-.3-.7-.3-1.2c0-.6.2-1.2.6-1.6s1-.7 1.6-.7c.4 0 1 .1 1.4.3v.7c-.5-.3-1-.4-1.4-.4-.2 0-.5 0-.7.2l-.5.6-.2.9c0 .4 0 .8.3 1.1s.7.6 1.2.6h.5l.8-.3v.7zM89 378.3V372h.7v4l2-2h1l-2 2 2 2.3h-1l-2-2.3v2.3h-.8z"/><path fill="#666" d="M99.5 378.3v-4.4h.7v1l.8-.8c.3-.2.6-.3 1-.3l.8.1v1.6h-.7v-1h-.3c-.3 0-.5 0-.8.3l-.8 1v2.5h-.7zM108 378c-.6.3-1.2.4-1.7.4a2 2 0 0 1-1.8-1.1l-.3-1.2c0-.4.1-.8.3-1.1s.4-.7.8-.9.6-.3 1-.3c.5 0 1 .2 1.3.6s.4 1 .4 1.7v.1h-3c0 .3 0 .6.2.9l.5.5c.2.2.5.2.7.2.5 0 1-.1 1.6-.5v.7zm-3-2.3h2.2v-.1c0-.4 0-.7-.2-.9s-.4-.3-.7-.3c-.3 0-.6.1-.8.3s-.3.6-.4 1zM109.6 378v-.7l1 .4.7.1c.4 0 .7 0 .8-.2l.3-.4-.1-.3-.6-.3-.2-.1-.5-.2c-.6-.2-1-.4-1-.6a1 1 0 0 1-.3-.6c0-.4.2-.7.4-1s.8-.3 1.4-.3c.4 0 .9 0 1.3.2v.7a4 4 0 0 0-1.3-.3c-.4 0-.6 0-.8.2l-.2.4c0 .1 0 .3.2.4l.7.3.5.2c.5.1.8.3 1 .5s.2.4.2.7c0 .4-.1.7-.4 1s-.7.3-1.4.3c-.5 0-1.1 0-1.7-.3zM115.4 375c.2-.4.5-.7.8-.9l.9-.3c.3 0 .7.2 1 .5s.4.8.4 1.4c0 .5-.1 1-.3 1.4s-.5.7-.8 1-.7.3-1.2.3a7 7 0 0 1-.8 0v1.6h-.7v-6h.7v1zm0 .8v1.9h.7c.5 0 .9-.1 1.2-.5.3-.3.4-.8.4-1.4 0-.4 0-.7-.2-1l-.6-.3c-.2 0-.5.1-.7.4-.3.2-.6.5-.8.9zM121.7 378.4c-.6 0-1-.2-1.5-.6s-.5-1-.5-1.7.2-1.2.5-1.6 1-.7 1.5-.7c.7 0 1.2.2 1.5.7s.6 1 .6 1.6-.2 1.2-.6 1.7-.8.6-1.5.6zm0-.6c.4 0 .7-.1 1-.4s.3-.8.3-1.3-.1-1-.3-1.2-.6-.5-1-.5-.7.2-.9.5-.3.7-.3 1.2 0 1 .3 1.3.5.4 1 .4zM125.1 378.3v-4.4h.8v1l.7-.8c.3-.2.6-.3 1-.3.2 0 .4 0 .6.2l.5.6v3.7h-.6v-2.5l-.1-.9-.2-.3a.5.5 0 0 0-.4-.1c-.2 0-.5.1-.8.4l-.7.9v2.5h-.8zM130.4 378v-.7l1 .4.7.1c.4 0 .7 0 .8-.2l.3-.4-.1-.3-.6-.3-.2-.1-.5-.2c-.6-.2-1-.4-1-.6a1 1 0 0 1-.3-.6c0-.4.2-.7.4-1s.8-.3 1.4-.3c.5 0 .9 0 1.3.2v.7a4 4 0 0 0-1.3-.3c-.3 0-.6 0-.8.2l-.2.4c0 .1 0 .3.2.4l.7.3.5.2c.5.1.8.3 1 .5s.2.4.2.7c0 .4-.1.7-.4 1s-.7.3-1.4.3c-.5 0-1.1 0-1.7-.3zM139.2 378c-.6.3-1.2.4-1.7.4a2 2 0 0 1-1.8-1.1l-.3-1.2c0-.4.1-.8.3-1.1s.4-.7.8-.9.6-.3 1-.3c.5 0 1 .2 1.3.6s.4 1 .4 1.7v.1h-3c0 .3 0 .6.2.9l.5.5c.2.2.5.2.7.2.5 0 1-.1 1.6-.5v.7zm-3-2.3h2.2v-.1c0-.4 0-.7-.2-.9s-.4-.3-.7-.3c-.3 0-.6.1-.8.3s-.3.6-.4 1zM142.5 378.5c-.1 0-.3 0-.4-.2l-.2-.4c0-.2 0-.4.2-.5l.4-.2c.1 0 .4 0 .5.2l.2.5c0 .1 0 .3-.2.4l-.5.2zM148.9 377.3c-.3.4-.5.7-.8.8l-.9.3c-.4 0-.7-.1-1-.4s-.4-.8-.4-1.5c0-.5 0-1 .3-1.3s.4-.7.8-1 .7-.3 1.2-.3a7 7 0 0 1 .8 0h.7v4.5l-.1.5c-.1.4-.4.7-.7.9-.4.2-.9.3-1.4.3-.5 0-1-.1-1.6-.4v-.7l.8.4.8.1h.7c.2 0 .3-.3.5-.4s.2-.3.2-.5V377.3zm0-.8v-2h-.8c-.4 0-.8.2-1 .5a2 2 0 0 0-.5 1.4c0 .5 0 .8.2 1l.6.3c.2 0 .5 0 .7-.3l.8-1zM154.8 378c-.6.3-1.2.4-1.7.4a2 2 0 0 1-1.8-1.1c-.2-.4-.2-.8-.2-1.2 0-.4 0-.8.2-1.1s.4-.7.8-.9.6-.3 1-.3c.5 0 1 .2 1.3.6s.4 1 .4 1.7v.1h-3c0 .3 0 .6.2.9l.5.5c.2.2.5.2.7.2.5 0 1-.1 1.6-.5v.7zm-3-2.3h2.3v-.1c0-.4-.1-.7-.3-.9s-.4-.3-.7-.3c-.3 0-.6.1-.8.3s-.3.6-.4 1zM160 378.1l-.7.3h-.5c-.3 0-.6 0-.8-.2l-.6-.5a3 3 0 0 1-.2-1v-1.8h-1v-.6h1v-1.8h.7v1.8h2v.6h-2v1.8c0 .3 0 .6.2.7l.3.3.5.1c.3 0 .7 0 1.1-.3v.6zM161.4 378.2v-.8c.5.3 1 .5 1.4.5l.5-.1.4-.4.2-1.2v-3.4h-1.4v-.6h2.2v4l-.2 1.4c-.1.3-.4.5-.7.7s-.6.2-1 .2-1-.1-1.4-.3zM166.8 378v-.7l1 .4.8.1c.3 0 .6 0 .7-.2l.3-.4-.1-.3-.6-.3-.2-.1-.5-.2c-.6-.2-1-.4-1-.6a1 1 0 0 1-.3-.6c0-.4.2-.7.4-1s.8-.3 1.4-.3c.5 0 .9 0 1.3.2v.7a4 4 0 0 0-1.3-.3c-.3 0-.6 0-.8.2l-.2.4c0 .1 0 .3.2.4l.7.3.5.2c.5.1.8.3 1 .5s.2.4.2.7c0 .4-.1.7-.4 1s-.7.3-1.4.3c-.5 0-1.1 0-1.7-.3zM173.7 378.4c-.6 0-1-.2-1.5-.6s-.5-1-.5-1.7.2-1.2.5-1.6 1-.7 1.5-.7c.7 0 1.2.2 1.5.7s.6 1 .6 1.6-.2 1.2-.6 1.7-.8.6-1.5.6zm0-.6c.4 0 .7-.1 1-.4s.3-.8.3-1.3-.1-1-.3-1.2-.6-.5-1-.5c-.3 0-.7.2-.9.5s-.3.7-.3 1.2 0 1 .3 1.3.6.4 1 .4zM177.2 378.3v-4.4h.7v1l.7-.8c.3-.2.6-.3 1-.3.2 0 .4 0 .6.2l.5.6v3.7h-.6v-2.5l-.1-.9-.2-.3a.5.5 0 0 0-.4-.1c-.2 0-.5.1-.8.4l-.7.9v2.5h-.7zM183.2 376v2.3h-.8v-6h1.5c.7 0 1.1 0 1.4.2l.6.6c.1.3.3.5.3.9a2 2 0 0 1-1.2 1.8c-.3.2-.8.3-1.5.3h-.3zm0-.5h.4c.5 0 .8 0 1-.2.3-.1.5-.3.6-.5l.2-.8a1 1 0 0 0-.4-.8c-.2-.3-.6-.4-1.3-.4h-.5v2.7zM190.4 377.3c-.2.4-.5.7-.8.8l-.8.3c-.4 0-.7-.1-1-.4s-.5-.8-.5-1.5c0-.5.1-1 .3-1.3s.5-.7.8-1 .7-.3 1.2-.3a7 7 0 0 1 .8 0h.8v3.1l.1 1.3h-.7l-.2-1zm0-.8v-2h-.7c-.4 0-.8.2-1.1.5a2 2 0 0 0-.5 1.4c0 .5.1.8.3 1 .1.2.3.3.5.3.3 0 .5 0 .8-.3l.7-1zM194.4 378.1l-2-4.2h.7l1.7 3.3 1.3-3.3h.7l-1.7 4.1c-.3.9-.7 1.4-1 1.7s-.7.4-1.2.4h-.6v-.7l.5.1.7-.1.5-.5.3-.6v-.2zM199.1 378.3v-5.7h-1.3v-.6h2v5.7h1.4v.6h-2zM205 378.4c-.7 0-1.2-.2-1.5-.6s-.6-1-.6-1.7.2-1.2.6-1.6.8-.7 1.5-.7c.6 0 1 .2 1.4.7s.6 1 .6 1.6-.2 1.2-.6 1.7-.8.6-1.4.6zm0-.6c.3 0 .6-.1.9-.4s.3-.8.3-1.3-.1-1-.3-1.2-.6-.5-1-.5c-.3 0-.6.2-.9.5s-.3.7-.3 1.2 0 1 .3 1.3.6.4 1 .4zM211.2 377.3c-.2.4-.5.7-.8.8l-.8.3c-.4 0-.7-.1-1-.4s-.5-.8-.5-1.5c0-.5.1-1 .3-1.3s.5-.7.8-1 .7-.3 1.2-.3a7 7 0 0 1 .8 0h.8v3.1l.1 1.3h-.7l-.2-1zm0-.8v-2h-.7c-.4 0-.8.2-1.1.5a2 2 0 0 0-.5 1.4c0 .5.1.8.3 1 .1.2.3.3.5.3.3 0 .5 0 .8-.3l.7-1zM216.5 377.3c-.2.4-.5.7-.8.8l-.9.3c-.3 0-.7-.1-1-.4s-.4-.8-.4-1.5c0-.5 0-1 .3-1.3s.4-.7.8-1a2 2 0 0 1 1.2-.3 7 7 0 0 1 .8 0V372h.7v6.3h-.7v-1zm0-.8v-2h-.7c-.5 0-.9.2-1.2.5a2 2 0 0 0-.4 1.4c0 .5 0 .8.2 1l.6.3c.2 0 .5 0 .7-.3l.8-1zM222.3 379.8a3.4 3.4 0 0 1-3-2.1 4.3 4.3 0 0 1 1.2-5.2c.5-.4 1.1-.6 1.8-.6v.6c-.5 0-1 .2-1.4.5-.4.3-.7.8-.9 1.2s-.3 1-.3 1.6 0 1.1.3 1.6.5.9 1 1.2c.3.3.8.5 1.3.6v.6zM224 371.9a3.4 3.4 0 0 1 3 2c.3.7.4 1.3.4 2s-.1 1.2-.4 1.8-.7 1-1.2 1.4-1.1.6-1.8.7v-.6c.5-.1 1-.3 1.4-.6.4-.3.7-.7.9-1.2s.3-1 .3-1.6 0-1-.3-1.6-.5-.9-1-1.2c-.3-.3-.8-.5-1.3-.5v-.6zM230.2 380v-.5l.4-.2.3-.3v-.6c-.2 0-.4 0-.5-.2l-.1-.4.1-.5c.1-.2.3-.1.5-.1s.4 0 .6.2.2.5.2.8c0 .3 0 .6-.2.8l-.5.7c-.2.2-.5.3-.8.3zm.7-5h-.5c-.2 0-.1-.4-.1-.5l.1-.5.5-.2c.2 0 .3 0 .4.2l.2.5c0 .1 0 .3-.2.4l-.4.2z"/><path fill="#0071BC" d="M22.6 392.3l-2-4.4h.9l1.4 3.5 1.6-3.5h.7l-2 4.4h-.6zM29.2 391.3c-.2.4-.5.7-.8.8l-.9.3c-.3 0-.7-.1-1-.4s-.4-.8-.4-1.5c0-.5.1-1 .3-1.3s.5-.7.8-1 .7-.3 1.2-.3a7 7 0 0 1 .8 0h.7v3.1c0 .5 0 1 .2 1.3h-.8l-.1-1zm0-.8v-2h-.7c-.5 0-.8.2-1.1.5a2 2 0 0 0-.5 1.4c0 .5 0 .8.3 1 .1.2.3.3.5.3s.5 0 .8-.3l.7-1zM31.9 392.3v-4.4h.7v1l.8-.8c.3-.2.6-.3 1-.3l.8.1v1.6h-.7v-1h-.3c-.3 0-.5 0-.8.3l-.8 1v2.5H32z"/><path fill="#666" d="M42.3 392.3v-4.4h.7v1l.8-.8c.3-.2.6-.3 1-.3l.8.1v1.6h-.7v-1h-.3c-.3 0-.5 0-.8.3l-.8 1v2.5h-.7zM50.8 392c-.6.3-1.2.4-1.7.4a2 2 0 0 1-1.8-1.1l-.3-1.2c0-.4.1-.8.3-1.1s.4-.7.7-.9.7-.3 1.1-.3c.5 0 1 .2 1.3.6s.4 1 .4 1.7v.1h-3c0 .3 0 .6.2.9l.5.5c.2.2.4.2.7.2.5 0 1-.1 1.6-.5v.7zm-3-2.3H50v-.1c0-.4 0-.7-.2-.9s-.4-.3-.7-.3c-.3 0-.6.1-.8.3s-.4.6-.4 1zM52.4 392v-.7l1 .4.7.1c.4 0 .7 0 .8-.2l.3-.4-.1-.3-.6-.3-.3-.1-.5-.2-1-.6a1 1 0 0 1-.2-.6c0-.4.1-.7.4-1s.8-.3 1.4-.3c.4 0 .9 0 1.3.2v.7a4 4 0 0 0-1.4-.3c-.3 0-.5 0-.7.2l-.2.4c0 .1 0 .3.2.4l.7.3.5.2c.5.1.8.3 1 .5s.2.4.2.7c0 .4-.1.7-.4 1s-.8.3-1.4.3c-.6 0-1.1 0-1.7-.3zM61.1 388v4.3h-.7v-1c-.2.4-.5.7-.8.9s-.6.2-.8.2c-.3 0-.5 0-.7-.2l-.5-.5-.1-1.3v-2.5h.7V391.3l.3.3.3.2c.3 0 .6-.2.9-.4s.5-.5.7-1V388h.7zM64 392.3v-5.7h-1.4v-.6h2v5.7H66v.6h-2zM71.6 392.1l-.8.3h-.4c-.3 0-.6 0-.8-.2l-.6-.5a3 3 0 0 1-.2-1v-1.8h-1v-.6h1v-1.8h.7v1.8h2v.6h-2v1.8l.1.7c.1.1.2.3.4.3l.5.1c.3 0 .7 0 1-.3v.6zM82.3 389.2v.6H78v-.6h4.3zm0 1.4v.6H78v-.6h4.3z"/><path fill="#0071BC" d="M92.4 392.2l-1.4.2c-.4 0-.8 0-1.1-.3s-.7-.5-.8-.8-.3-.7-.3-1.2c0-.6.2-1.2.6-1.6s1-.7 1.6-.7c.4 0 1 .1 1.4.3v.7c-.5-.3-1-.4-1.4-.4-.2 0-.5 0-.7.2l-.5.6-.2.9c0 .4 0 .8.3 1.1s.7.6 1.2.6h.5l.8-.3v.7zM94 392.3V386h.7v2.9l.7-.8.9-.3c.3 0 .5 0 .7.2l.4.5.1.4v3.4h-.7v-2.5-.9c0-.2-.1-.2-.2-.3l-.4-.1c-.2 0-.5.1-.8.4l-.7.9v2.5h-.8zM102.8 392c-.6.3-1.2.4-1.7.4a2 2 0 0 1-1.8-1.1l-.3-1.2c0-.4.1-.8.3-1.1s.4-.7.8-.9.6-.3 1-.3c.5 0 1 .2 1.3.6s.4 1 .4 1.7v.1h-3c0 .3 0 .6.2.9l.5.5c.2.2.5.2.7.2.5 0 1-.1 1.6-.5v.7zm-3-2.3h2.2v-.1c0-.4 0-.7-.2-.9s-.4-.3-.7-.3c-.3 0-.6.1-.8.3s-.3.6-.4 1zM108 392.2l-1.4.2c-.4 0-.8 0-1.1-.3s-.6-.5-.8-.8-.3-.7-.3-1.2c0-.6.2-1.2.6-1.6s1-.7 1.6-.7c.4 0 1 .1 1.4.3v.7c-.5-.3-1-.4-1.3-.4-.3 0-.6 0-.8.2l-.5.6-.2.9c0 .4 0 .8.3 1.1s.7.6 1.2.6h.5l.8-.3v.7zM109.7 392.3V386h.8v4l2-2h1l-2 2 2 2.3h-1l-2-2.3v2.3h-.8z"/><path fill="#666" d="M123.6 392.1l-.8.3h-.4c-.3 0-.6 0-.8-.2l-.6-.5a3 3 0 0 1-.2-1v-1.8h-1v-.6h1v-1.8h.7v1.8h2v.6h-2v1.8c0 .3 0 .6.2.7l.3.3.5.1c.3 0 .7 0 1-.3v.6zM128.8 392c-.6.3-1.2.4-1.7.4a2 2 0 0 1-1.8-1.1l-.3-1.2c0-.4.1-.8.3-1.1s.4-.7.8-.9.6-.3 1-.3c.5 0 1 .2 1.3.6s.4 1 .4 1.7v.1h-3c0 .3 0 .6.2.9l.5.5c.2.2.5.2.7.2.5 0 1-.1 1.6-.5v.7zm-3-2.3h2.2v-.1c0-.4 0-.7-.2-.9s-.4-.3-.7-.3c-.3 0-.6.1-.8.3s-.3.6-.4 1zM130.4 392v-.7l1 .4.7.1c.4 0 .7 0 .8-.2l.3-.4-.1-.3-.6-.3-.2-.1-.5-.2c-.6-.2-1-.4-1-.6a1 1 0 0 1-.3-.6c0-.4.2-.7.4-1s.8-.3 1.4-.3c.5 0 .9 0 1.3.2v.7a4 4 0 0 0-1.3-.3c-.3 0-.6 0-.8.2l-.2.4c0 .1 0 .3.2.4l.7.3.5.2c.5.1.8.3 1 .5s.2.4.2.7c0 .4-.1.7-.4 1s-.7.3-1.4.3c-.5 0-1.1 0-1.7-.3zM139.2 392.1l-.7.3h-.5c-.3 0-.6 0-.8-.2l-.6-.5a3 3 0 0 1-.2-1v-1.8h-1v-.6h1v-1.8h.7v1.8h2v.6h-2v1.8c0 .3 0 .6.2.7l.3.3.5.1c.3 0 .7 0 1-.3v.6zM140.7 392.3v-6h1.5c.6 0 1.1 0 1.5.3s.5.6.7 1 .2 1 .2 1.7c0 .6 0 1.1-.2 1.6s-.4.8-.8 1-.8.4-1.4.4h-1.5zm.8-.7h.6c.5 0 .9 0 1.1-.2l.5-.8.1-1.4-.1-1.4-.5-.7c-.2-.2-.6-.3-1-.3h-.7v4.8zM146 392.3v-6h1.2l1.4.1.6.5c.2.2.1.4.1.7v.6l-.4.5c0 .2-.3.3-.6.5.5.2.8.4 1 .7s.3.6.3.8c0 .3-.1.6-.3.8l-.6.6-1.2.2H146zm.8-3.3h.8l.6-.4.3-.4v-.5c0-.3 0-.5-.2-.6-.1-.2-.5-.3-1-.3h-.5v2.2zm0 2.7h.7c.5 0 .8-.1 1-.3s.3-.4.3-.7c0-.2 0-.4-.2-.6l-.5-.4-1-.1h-.3v2.1zM151.4 390.2v-.7h3v.7h-3zM160.3 390.2l-4.3 2.1v-.7l3-1.4-3-1.5v-.6l4.3 2z"/><path fill="#0071BC" d="M165.1 388v4.3h-.7v-1c-.2.4-.5.7-.8.9s-.5.2-.8.2c-.3 0-.5 0-.7-.2l-.5-.5-.1-1.3v-2.5h.7V391.3l.3.3.4.2.8-.4c.3-.2.5-.5.7-1V388h.7zM167.4 389c.2-.4.5-.7.8-.9l.9-.3c.3 0 .7.2 1 .5s.4.8.4 1.4c0 .5-.1 1-.3 1.4s-.4.7-.8 1-.7.3-1.2.3a7 7 0 0 1-.8 0v1.6h-.7v-6h.7v1zm0 .8v1.9h.7c.5 0 .9-.1 1.2-.5.3-.3.4-.8.4-1.4 0-.4 0-.7-.2-1l-.6-.3c-.2 0-.5.1-.7.4-.3.2-.6.5-.8.9zM174.9 391.3c-.3.4-.5.7-.8.8l-.9.3c-.4 0-.7-.1-1-.4s-.4-.8-.4-1.5c0-.5 0-1 .3-1.3s.4-.7.8-1a2 2 0 0 1 1.2-.3 7 7 0 0 1 .8 0V386h.7v6.3h-.7v-1zm0-.8v-2h-.8c-.4 0-.8.2-1 .5a2 2 0 0 0-.5 1.4c0 .5 0 .8.2 1l.6.3c.2 0 .5 0 .7-.3l.8-1zM180 391.3c-.2.4-.5.7-.8.8l-.8.3c-.4 0-.7-.1-1-.4s-.5-.8-.5-1.5c0-.5.1-1 .3-1.3s.5-.7.8-1 .7-.3 1.2-.3a7 7 0 0 1 .8 0h.8v3.1l.1 1.3h-.7l-.2-1zm0-.8v-2h-.7c-.4 0-.8.2-1.1.5a2 2 0 0 0-.5 1.4c0 .5.1.8.3 1 .1.2.3.3.5.3.3 0 .5 0 .8-.3l.7-1zM186 392.1l-.7.3h-.5c-.3 0-.6 0-.8-.2l-.6-.5a3 3 0 0 1-.2-1v-1.8h-1v-.6h1v-1.8h.7v1.8h2v.6h-2v1.8c0 .3 0 .6.2.7l.3.3.5.1c.3 0 .7 0 1.1-.3v.6zM191.2 392c-.6.3-1.1.4-1.7.4a2 2 0 0 1-1.8-1.1c-.2-.4-.2-.8-.2-1.2 0-.4 0-.8.2-1.1s.4-.7.8-.9.6-.3 1-.3c.5 0 1 .2 1.3.6s.4 1 .4 1.7v.1h-3l.2.9.5.5c.2.2.5.2.7.2.5 0 1-.1 1.6-.5v.7zm-3-2.3h2.3v-.1c0-.4-.1-.7-.3-.9s-.4-.3-.7-.3c-.3 0-.6.1-.8.3s-.3.6-.4 1z"/><path fill="#666" d="M196.3 393.8a3.4 3.4 0 0 1-3-2.1 4.3 4.3 0 0 1 1.2-5.2c.5-.4 1.1-.6 1.8-.6v.6c-.5 0-1 .2-1.4.5-.4.3-.7.8-.9 1.2s-.3 1-.3 1.6 0 1.1.3 1.6.5.9 1 1.2c.3.3.8.5 1.3.6v.6z"/><path fill="#C1272D" d="M199.2 388.2h-.5l-.3-2.2h1l-.2 2.2zm1.7 0h-.5l-.3-2.2h1l-.2 2.2zM203.2 392.3v-.6h1.4v-4.9h-1.4v-.6h3.5v.6h-1.4v4.9h1.4v.6h-3.5zM209 392.3h-.8v-6h.8l2.1 4 .2.6v-4.6h.8v6h-.8l-2-4-.3-.6v4.6zM213.6 392.2v-.8a4 4 0 0 0 1.7.5l.6-.1.4-.4.2-.5-.2-.6-.8-.6-.4-.2-.4-.3c-.7-.4-1-.9-1-1.5 0-.5 0-.9.4-1.2s.8-.4 1.5-.4l1.2.1v.7l-1.3-.2c-.3 0-.6 0-.8.2-.2.2-.3.4-.3.7 0 .2 0 .4.3.6.1.2.3.3.6.4l.3.2.3.3.4.1c.6.5 1 1 1 1.6 0 .4-.2.9-.6 1.2s-.8.5-1.6.5a3.8 3.8 0 0 1-1.5-.3zM222.2 391.6v.7H219v-6h3.3v.6h-2.5v2h2.2v.6h-2.2v2.1h2.5zM224.7 389.7v2.6h-.8v-6h1.7l1.1.1c.3.1.5.3.6.5l.2.7-.1.7c-.1.2-.2.5-.4.6l-.7.6 1.8 2.8h-1l-1.6-2.6h-.8zm0-.6h1.1l.6-.4.3-.4v-.5c0-.3 0-.5-.3-.7-.2-.2-.5-.3-1-.3h-.7v2.3zM230.6 392.3v-5.4h-1.9v-.7h4.5v.7h-1.9v5.4h-.7zM239.6 392.3v-.6h1.4v-4.9h-1.4v-.6h3.5v.6h-1.4v4.9h1.4v.6h-3.5zM245.4 392.3h-.8v-6h.8l2.1 4 .2.6v-4.6h.8v6h-.8l-2-4-.3-.6v4.6zM251.4 392.3v-5.4h-1.9v-.7h4.5v.7h-1.8v5.4h-.8zM257 392.5c-.7 0-1.3-.3-1.6-.9-.4-.6-.6-1.3-.6-2.3 0-1 .2-1.8.6-2.4.3-.6.9-.8 1.6-.8.6 0 1.2.2 1.5.8.4.6.6 1.4.6 2.4s-.2 1.7-.6 2.3c-.3.6-.9.9-1.5.9zm0-.6c.3 0 .7-.2 1-.7s.3-1 .3-2-.1-1.5-.4-1.9-.6-.6-1-.6-.6.2-.9.6-.4 1.1-.4 2 .2 1.5.4 2 .6.6 1 .6zM269.2 392c-.6.3-1.1.4-1.7.4a2 2 0 0 1-1.8-1.1l-.2-1.2c0-.4 0-.8.2-1.1s.5-.7.8-.9.6-.3 1-.3c.6 0 1 .2 1.3.6s.5 1 .5 1.7v.1h-3l.1.9.5.5c.2.2.5.2.7.2.5 0 1-.1 1.6-.5v.7zm-3-2.3h2.3v-.1c0-.4-.1-.7-.3-.9s-.4-.3-.7-.3c-.3 0-.5.1-.8.3s-.3.6-.4 1zM270.4 392.3v-4.4h.7v1l.5-.8.6-.3c.2 0 .3.1.5.3s.2.4.2.7v.2c0-.3.2-.5.3-.6l.4-.4.4-.2c.2 0 .3.1.5.3s.2.4.2 1v3.2h-.7v-3-.5-.2h-.2c-.2 0-.3 0-.5.3l-.4 1v2.4h-.6v-3c0-.4 0-.6-.2-.7h-.2s-.2 0-.4.3l-.4.9v2.5h-.7zM276.6 389l.8-.9.9-.3c.4 0 .7.2 1 .5s.4.8.4 1.4c0 .5 0 1-.3 1.4s-.4.7-.8 1-.7.3-1.1.3a7 7 0 0 1-.9 0v1.6h-.7v-6h.7v1zm0 .8v1.9h.8c.4 0 .8-.1 1-.5.4-.3.5-.8.5-1.4 0-.4 0-.7-.2-1l-.6-.3c-.2 0-.5.1-.7.4l-.8.9zM282.3 392.3v-5.7H281v-.6h2v5.7h1.4v.6h-2zM288.2 392.4c-.7 0-1.2-.2-1.5-.6s-.6-1-.6-1.7.2-1.2.6-1.6.8-.7 1.5-.7c.6 0 1 .2 1.5.7s.5 1 .5 1.6-.2 1.2-.5 1.7-1 .6-1.5.6zm0-.6c.4 0 .7-.1.9-.4s.3-.8.3-1.3 0-1-.3-1.2-.6-.5-1-.5c-.3 0-.6.2-.9.5s-.3.7-.3 1.2.1 1 .3 1.3.6.4 1 .4zM293.2 392.1l-2-4.2h.8l1.6 3.3 1.3-3.3h.7L294 392c-.3.9-.6 1.4-1 1.7s-.7.4-1.2.4h-.6v-.7l.6.1.6-.1.5-.5.3-.6v-.2zM300.4 392c-.6.3-1.1.4-1.6.4a2 2 0 0 1-1.8-1.1l-.3-1.2c0-.4 0-.8.2-1.1s.5-.7.8-.9.7-.3 1-.3c.6 0 1 .2 1.3.6s.5 1 .5 1.7v.1h-3l.1.9.5.5c.2.2.5.2.7.2.5 0 1-.1 1.6-.5v.7zm-2.9-2.3h2.2v-.1c0-.4-.1-.7-.3-.9s-.4-.3-.7-.3c-.3 0-.5.1-.8.3s-.3.6-.4 1zM305.6 392c-.6.3-1.1.4-1.6.4a2 2 0 0 1-1.8-1.1l-.3-1.2c0-.4 0-.8.2-1.1s.5-.7.8-.9.7-.3 1-.3c.6 0 1 .2 1.3.6s.5 1 .5 1.7v.1h-3l.1.9.5.5c.2.2.5.2.7.2.5 0 1-.1 1.6-.5v.7zm-2.9-2.3h2.2v-.1c0-.4-.1-.7-.3-.9s-.4-.3-.7-.3c-.3 0-.5.1-.8.3s-.3.6-.4 1zM310.8 393.8a3.4 3.4 0 0 1-3-2.1c-.4-.6-.5-1.3-.5-1.9s.1-1.2.4-1.8.7-1.1 1.2-1.5 1.1-.6 1.9-.6v.6c-.6 0-1 .2-1.5.5l-.9 1.2a3.8 3.8 0 0 0 0 3.2c.2.5.6.9 1 1.2.3.3.8.5 1.4.6v.6zM313.6 392.3v-3.8h-1.2v-.6h2v3.8h1.1v.6h-1.9zm-.1-6l.1-.3.4-.1.3.1.1.4-.1.3-.3.1h-.4l-.1-.4zM320.5 391.3c-.2.4-.5.7-.8.8l-.9.3c-.3 0-.7-.1-1-.4s-.4-.8-.4-1.5c0-.5.1-1 .3-1.3s.5-.7.8-1a2 2 0 0 1 1.2-.3 7 7 0 0 1 .8 0V386h.7v6.3h-.7v-1zm0-.8v-2h-.7c-.5 0-.9.2-1.2.5a2 2 0 0 0-.4 1.4c0 .5 0 .8.2 1l.6.3c.2 0 .5 0 .8-.3l.7-1zM323.8 394v-.5l.5-.2.2-.3v-.6c-.2 0-.3 0-.5-.2s-.1-.3-.1-.4c0-.2 0-.3.2-.5s.2-.1.4-.1.4 0 .6.2.2.5.2.8c0 .3 0 .6-.2.8l-.5.7c-.2.2-.5.3-.8.3zM333.2 392.3v-4.4h.7v1l.8-.8c.3-.2.5-.3.8-.3.3 0 .5 0 .7.2l.5.6.1 1.3v2.4h-.7v-2.5-.9c0-.2-.2-.2-.3-.3l-.4-.1c-.2 0-.5.1-.8.4l-.7.9v2.5h-.7zM341.2 391.3c-.2.4-.4.7-.8.8l-.8.3c-.4 0-.7-.1-1-.4s-.4-.8-.4-1.5c0-.5 0-1 .3-1.3s.4-.7.7-1 .8-.3 1.2-.3a7 7 0 0 1 .8 0h.8v3.1l.1 1.3h-.7l-.2-1zm0-.8v-2h-.7c-.4 0-.8.2-1 .5a2 2 0 0 0-.5 1.4c0 .5 0 .8.2 1l.6.3c.2 0 .4 0 .7-.3l.7-1zM343.2 392.3v-4.4h.7v1l.5-.8.6-.3c.2 0 .4.1.5.3l.2.7v.2c0-.3.2-.5.3-.6l.4-.4.4-.2c.2 0 .4.1.5.3l.2 1v3.2h-.6v-3-.5l-.2-.2h-.1c-.2 0-.3 0-.5.3l-.4 1v2.4h-.6v-3l-.1-.7h-.2c-.2 0-.3 0-.5.3l-.4.9v2.5h-.7zM352.4 392c-.6.3-1.1.4-1.6.4a2 2 0 0 1-1.8-1.1l-.3-1.2c0-.4 0-.8.2-1.1s.5-.7.8-.9.7-.3 1-.3c.6 0 1 .2 1.3.6s.5 1 .5 1.7v.1h-3c0 .3 0 .6.2.9 0 .2.2.4.4.5.3.2.5.2.8.2.4 0 1-.1 1.5-.5v.7zm-2.9-2.3h2.2v-.1c0-.4-.1-.7-.3-.9s-.4-.3-.7-.3c-.3 0-.5.1-.7.3s-.4.6-.5 1zM354 385.9a3.4 3.4 0 0 1 3 2c.3.7.4 1.3.4 2s-.1 1.2-.4 1.8-.7 1-1.2 1.4-1 .6-1.8.7v-.6c.5-.1 1-.3 1.4-.6.4-.3.7-.7 1-1.2s.3-1 .3-1.6-.2-1-.4-1.6-.5-.9-1-1.2c-.3-.3-.8-.5-1.3-.5v-.6zM365.8 392.3l-1.9-4.4h.8l1.5 3.5 1.5-3.5h.8l-2 4.4h-.7zM372.4 391.3c-.2.4-.4.7-.7.8-.4.2-.6.3-1 .3-.3 0-.6-.1-.9-.4s-.4-.8-.4-1.5c0-.5 0-1 .3-1.3s.4-.7.7-1 .8-.3 1.2-.3a7 7 0 0 1 .9 0h.7v3.1l.1 1.3h-.7l-.2-1zm0-.8v-2h-.7c-.4 0-.8.2-1 .5a2 2 0 0 0-.5 1.4c0 .5 0 .8.2 1l.6.3c.2 0 .4 0 .7-.3l.8-1zM376 392.3v-5.7h-1.4v-.6h2v5.7h1.4v.6h-2zM383.6 388v4.3h-.8v-1c-.2.4-.4.7-.7.9s-.6.2-.9.2c-.2 0-.5 0-.7-.2l-.4-.5-.2-1.3v-2.5h.8V391.3l.2.3.4.2c.3 0 .5-.2.8-.4s.6-.5.7-1V388h.8zM388.8 392c-.6.3-1.1.4-1.6.4a2 2 0 0 1-1.8-1.1l-.3-1.2c0-.4 0-.8.3-1.1s.4-.7.7-.9.7-.3 1-.3c.6 0 1 .2 1.3.6s.5 1 .5 1.7v.1h-3c0 .3 0 .6.2.9 0 .2.2.4.5.5.2.2.4.2.7.2.4 0 1-.1 1.5-.5v.7zm-2.9-2.3h2.2v-.1c0-.4-.1-.7-.3-.9s-.4-.3-.7-.3c-.3 0-.5.1-.7.3s-.4.6-.5 1zM390.4 392v-.7l1 .4.8.1c.4 0 .6 0 .8-.2l.2-.4v-.3l-.7-.3-.2-.1-.5-.2c-.5-.2-.9-.4-1-.6a1 1 0 0 1-.2-.6c0-.4.1-.7.4-1s.7-.3 1.3-.3c.5 0 1 0 1.4.2v.7a4 4 0 0 0-1.4-.3c-.3 0-.6 0-.7.2l-.3.4c0 .1 0 .3.2.4l.8.3.5.2 1 .5c.2.2.2.4.2.7 0 .4-.2.7-.5 1s-.7.3-1.3.3c-.6 0-1.2 0-1.8-.3zM399.2 393.8a3.4 3.4 0 0 1-3-2.1c-.3-.6-.5-1.3-.5-1.9s.2-1.2.5-1.8.6-1.1 1.1-1.5 1.1-.6 1.9-.6v.6c-.6 0-1 .2-1.4.5-.4.3-.7.8-1 1.2s-.3 1-.3 1.6.1 1.1.3 1.6.6.9 1 1.2c.4.3.8.5 1.4.6v.6zM401.7 390.6v-.2l.1-.5.2-.4.5-.6.2-.3.2-.2.3-.3.3-.7c0-.2 0-.4-.2-.5-.2-.2-.4-.2-.8-.2h-.7l-.8.4v-.7l1.5-.3c.6 0 1 0 1.3.3s.5.6.5 1c0 .3-.2.7-.6 1.1l-.3.3-.3.3-.2.3-.3.4-.1.6v.2h-.8zm.4 1.9c-.1 0-.2 0-.3-.2l-.2-.4c0-.2 0-.3.2-.4l.3-.1.4.1.2.4c0 .1 0 .3-.2.4l-.4.2zM407 394v-.5l.5-.2.2-.3v-.6c-.2 0-.3 0-.4-.2l-.2-.4c0-.2 0-.3.2-.5s.2-.1.4-.1.4 0 .6.2.2.5.2.8c0 .3 0 .6-.2.8l-.5.7c-.2.2-.5.3-.8.3zM412.1 390.6v-.2l.1-.5.2-.4.5-.6.2-.3.2-.2.3-.3.3-.7c0-.2 0-.4-.2-.5-.2-.2-.4-.2-.8-.2h-.7l-.8.4v-.7l1.5-.3c.6 0 1 0 1.3.3s.5.6.5 1c0 .3-.2.7-.6 1.1l-.3.3-.3.3-.2.3-.3.4-.1.6v.2h-.8zm.4 1.9c-.1 0-.2 0-.3-.2l-.2-.4c0-.2 0-.3.2-.4l.3-.1.4.1.2.4c0 .1 0 .3-.2.4l-.4.2zM416.4 385.9a3.4 3.4 0 0 1 3 2c.3.7.4 1.3.4 2s-.1 1.2-.4 1.8-.7 1-1.2 1.4-1 .6-1.8.7v-.6c.5-.1 1-.3 1.4-.6.4-.3.7-.7 1-1.2s.3-1 .3-1.6-.1-1-.4-1.6-.5-.9-.9-1.2c-.4-.3-.9-.5-1.4-.5v-.6zM422.8 388.2h-.5l-.3-2.2h1l-.2 2.2zm1.7 0h-.5l-.2-2.2h1l-.3 2.2z"/><path fill="#666" d="M427.8 394v-.5l.5-.2.2-.3v-.6c-.2 0-.3 0-.4-.2l-.2-.4c0-.2 0-.3.2-.5s.2-.1.4-.1.4 0 .6.2.2.5.2.8c0 .3 0 .6-.2.8l-.5.7c-.2.2-.5.3-.8.3z"/><path fill="#0071BC" d="M40.4 406.2l-1.4.2c-.4 0-.8 0-1.2-.3s-.6-.5-.7-.8-.3-.7-.3-1.2c0-.6.2-1.2.6-1.6s1-.7 1.6-.7l1.4.3v.7c-.5-.3-1-.4-1.4-.4-.2 0-.5 0-.7.2l-.6.6c-.2.2-.1.6-.1.9 0 .4 0 .8.3 1.1s.7.6 1.2.6h.5l.8-.3v.7zM42 406.3V400h.7v2.9l.7-.8.9-.3c.2 0 .5 0 .7.2l.4.5.1.4v3.4h-.7v-2.5-.9c0-.2-.1-.2-.2-.3l-.4-.1c-.3 0-.5.1-.8.4l-.7.9v2.5h-.8zM50.8 406c-.6.3-1.2.4-1.7.4a2 2 0 0 1-1.8-1.1l-.3-1.2c0-.4.1-.8.3-1.1s.4-.7.7-.9.7-.3 1.1-.3c.5 0 1 .2 1.3.6s.4 1 .4 1.7v.1h-3c0 .3 0 .6.2.9l.5.5c.2.2.4.2.7.2.5 0 1-.1 1.6-.5v.7zm-3-2.3H50v-.1c0-.4 0-.7-.2-.9s-.4-.3-.7-.3c-.3 0-.6.1-.8.3s-.4.6-.4 1zM56 406.2l-1.4.2c-.4 0-.8 0-1.2-.3s-.6-.5-.7-.8-.3-.7-.3-1.2c0-.6.2-1.2.6-1.6s1-.7 1.6-.7l1.4.3v.7c-.5-.3-1-.4-1.4-.4-.2 0-.5 0-.7.2l-.6.6c-.2.2-.1.6-.1.9 0 .4 0 .8.3 1.1s.7.6 1.2.6h.5l.8-.3v.7zM57.7 406.3V400h.8v4l2-2h1l-2 2 2 2.3h-1l-2-2.3v2.3h-.8zM68 406v-.7l1 .4.7.1c.4 0 .7 0 .8-.2l.3-.4-.1-.3-.6-.3-.2-.1-.6-.2-1-.6a1 1 0 0 1-.2-.6c0-.4.1-.7.4-1s.8-.3 1.4-.3c.4 0 .9 0 1.3.2v.7a4 4 0 0 0-1.4-.3c-.3 0-.5 0-.7.2l-.2.4c0 .1 0 .3.2.4l.7.3.5.2c.5.1.8.3 1 .5s.2.4.2.7c0 .4-.1.7-.4 1s-.8.3-1.4.3c-.6 0-1.1 0-1.7-.3zM76.8 406.1l-.8.3h-.4c-.3 0-.6 0-.8-.2l-.6-.5a3 3 0 0 1-.2-1v-1.8h-1v-.6h1v-1.8h.7v1.8h2v.6h-2v1.8l.1.7c.1.1.2.3.4.3l.5.1c.3 0 .7 0 1-.3v.6zM78.7 406.3v-4.4h.7v1l.8-.8c.3-.2.6-.3 1-.3l.8.1v1.6h-.7v-1H81c-.3 0-.5 0-.8.3l-.8 1v2.5h-.7zM84.8 406.3v-3.8h-1.3v-.6h2v3.8h1.2v.6h-2zm-.2-6l.2-.3.3-.1.3.1c.2 0 .2.2.2.4 0 .1 0 .2-.2.3l-.3.1h-.3l-.2-.4zM88.7 406.3v-4.4h.8v1l.7-.8.9-.3c.3 0 .5 0 .7.2l.4.6c0 .3.2.6.2 1.3v2.4h-.8v-2.5-.9c0-.2-.1-.2-.2-.3l-.4-.1c-.2 0-.5.1-.8.4l-.7.9v2.5h-.8zM96.9 405.3c-.3.4-.5.7-.8.8l-.9.3c-.4 0-.7-.1-1-.4s-.4-.8-.4-1.5c0-.5 0-1 .3-1.3s.4-.7.7-1 .8-.3 1.2-.3a7 7 0 0 1 .9 0h.7v4.5l-.1.5c-.1.4-.4.7-.7.9-.4.2-.9.3-1.4.3-.5 0-1-.1-1.6-.4v-.7l.8.4.8.1h.7c.2 0 .3-.3.4-.4l.3-.5V405.3zm0-.8v-2H96c-.4 0-.8.2-1 .5a2 2 0 0 0-.5 1.4c0 .5 0 .8.2 1l.6.3c.2 0 .4 0 .7-.3l.8-1z"/><path fill="#666" d="M101 406.5c-.2 0-.4 0-.5-.2l-.2-.4c0-.2 0-.4.2-.5l.4-.2c.1 0 .4 0 .5.2l.2.5c0 .1 0 .3-.2.4l-.5.2zM108 406.2l-1.4.2c-.4 0-.8 0-1.1-.3s-.6-.5-.8-.8-.3-.7-.3-1.2c0-.6.2-1.2.6-1.6s1-.7 1.6-.7c.4 0 1 .1 1.4.3v.7c-.5-.3-1-.4-1.3-.4-.3 0-.6 0-.8.2l-.5.6-.2.9c0 .4 0 .8.3 1.1s.7.6 1.2.6h.5l.8-.3v.7zM111.3 406.4c-.6 0-1-.2-1.5-.6s-.5-1-.5-1.7.2-1.2.5-1.6 1-.7 1.5-.7c.7 0 1.2.2 1.5.7s.6 1 .6 1.6-.2 1.2-.6 1.7-.8.6-1.5.6zm0-.6c.4 0 .7-.1 1-.4s.3-.8.3-1.3-.1-1-.3-1.2-.6-.5-1-.5-.7.2-.9.5-.3.7-.3 1.2 0 1 .3 1.3.5.4 1 .4zM114.7 406.3v-4.4h.8v1l.7-.8c.3-.2.6-.3 1-.3.2 0 .4 0 .6.2l.5.6v3.7h-.6v-2.5l-.1-.9-.2-.3a.5.5 0 0 0-.4-.1c-.2 0-.5.1-.8.4l-.7.9v2.5h-.8zM121.4 406.3l-2-4.4h.9l1.5 3.5 1.5-3.5h.7l-1.9 4.4h-.7zM128.8 406c-.6.3-1.2.4-1.7.4a2 2 0 0 1-1.8-1.1l-.3-1.2c0-.4.1-.8.3-1.1s.4-.7.8-.9.6-.3 1-.3c.5 0 1 .2 1.3.6s.4 1 .4 1.7v.1h-3c0 .3 0 .6.2.9l.5.5c.2.2.5.2.7.2.5 0 1-.1 1.6-.5v.7zm-3-2.3h2.2v-.1c0-.4 0-.7-.2-.9s-.4-.3-.7-.3c-.3 0-.6.1-.8.3s-.3.6-.4 1zM130.7 406.3v-4.4h.7v1l.8-.8c.3-.2.6-.3 1-.3l.8.1v1.6h-.7v-1h-.3c-.3 0-.5 0-.8.3l-.8 1v2.5h-.7zM139.2 406.1l-.7.3h-.5c-.3 0-.6 0-.8-.2l-.6-.5a3 3 0 0 1-.2-1v-1.8h-1v-.6h1v-1.8h.7v1.8h2v.6h-2v1.8c0 .3 0 .6.2.7l.3.3.5.1c.3 0 .7 0 1-.3v.6zM144.3 407.8a3.4 3.4 0 0 1-3-2.1 4.3 4.3 0 0 1 1.2-5.2c.5-.4 1.1-.6 1.8-.6v.6c-.5 0-1 .2-1.4.5-.4.3-.7.8-.9 1.2s-.3 1-.3 1.6 0 1.1.3 1.6.5.9 1 1.2c.3.3.8.5 1.3.6v.6z"/><path fill="#539BD8" d="M146 408v-.7c.4.2.8.2 1 .2l.7-.1.4-.4.1-1v-3.5h-1.9v-.6h2.6v3.9c0 .7 0 1.2-.2 1.5-.2.3-.4.5-.7.6l-1 .2h-1zm2-7.6l.2-.4.4-.1.3.1.1.4-.1.3-.3.1h-.4l-.1-.4zM153 406.5c-.2 0-.4 0-.5-.2l-.2-.4c0-.2 0-.4.2-.5l.4-.2c.1 0 .4 0 .5.2l.2.5c0 .1 0 .3-.2.4l-.5.2zM156.3 406.3v-4.4h.8v1l.7-.8c.3-.2.6-.3 1-.3.2 0 .4 0 .6.2l.5.6v3.7h-.6v-2.5l-.1-.9-.2-.3a.5.5 0 0 0-.4-.1c-.2 0-.5.1-.8.4l-.7.9v2.5h-.8zM164.4 405.3c-.2.4-.5.7-.8.8l-.8.3c-.4 0-.7-.1-1-.4s-.5-.8-.5-1.5c0-.5.1-1 .3-1.3s.5-.7.8-1 .7-.3 1.2-.3a7 7 0 0 1 .8 0h.7v3.1l.2 1.3h-.7l-.2-1zm0-.8v-2h-.7c-.4 0-.8.2-1.1.5a2 2 0 0 0-.5 1.4c0 .5.1.8.3 1 .1.2.3.3.5.3.3 0 .5 0 .8-.3l.7-1zM166.4 406.3v-4.4h.7v1c.2-.4.3-.7.5-.8l.5-.3c.3 0 .4.1.6.3s.1.4.1.7v.2c.1-.3.2-.5.4-.6l.3-.4.5-.2c.2 0 .3.1.5.3s.2.4.2 1v3.2h-.7v-3-.5-.2h-.2c-.2 0-.3 0-.5.3l-.5 1v2.4h-.6v-3-.7h-.3c-.1 0-.3 0-.4.3l-.4.9v2.5h-.7zM175.6 406c-.6.3-1.1.4-1.7.4a2 2 0 0 1-1.8-1.1c-.2-.4-.2-.8-.2-1.2 0-.4 0-.8.2-1.1s.4-.7.8-.9.6-.3 1-.3c.5 0 1 .2 1.3.6s.4 1 .4 1.7v.1h-3l.2.9.5.5c.2.2.5.2.7.2.5 0 1-.1 1.6-.5v.7zm-3-2.3h2.3v-.1c0-.4-.1-.7-.3-.9s-.4-.3-.7-.3c-.3 0-.6.1-.8.3s-.3.6-.4 1z"/><path fill="#666" d="M177.2 399.9a3.4 3.4 0 0 1 3 2c.3.7.4 1.3.4 2s-.1 1.2-.4 1.8-.7 1-1.2 1.4-1.1.6-1.8.7v-.6c.5-.1 1-.3 1.4-.6.4-.3.7-.7.9-1.2s.3-1 .3-1.6 0-1-.3-1.6-.5-.9-1-1.2c-.3-.3-.8-.5-1.3-.5v-.6zM183.4 408v-.5l.4-.2.3-.3v-.6c-.2 0-.4 0-.5-.2l-.2-.4.2-.5c.1-.2.3-.1.5-.1s.4 0 .5.2l.3.8c0 .3 0 .6-.2.8l-.5.7c-.2.2-.5.3-.8.3z"/><path fill="#0071BC" d="M196.4 406.2l-1.4.2c-.4 0-.8 0-1.1-.3s-.6-.5-.8-.8-.3-.7-.3-1.2c0-.6.2-1.2.6-1.6s1-.7 1.6-.7c.4 0 1 .1 1.4.3v.7c-.5-.3-1-.4-1.3-.4-.3 0-.6 0-.8.2l-.5.6-.2.9c0 .4.1.8.3 1.1s.7.6 1.2.6h.5l.8-.3v.7zM198 406.3V400h.7v2.9l.7-.8c.3-.2.6-.3 1-.3.2 0 .4 0 .6.2l.4.5.2.4v3.4h-.7v-2.5-.9c0-.2-.2-.2-.3-.3l-.4-.1c-.2 0-.5.1-.8.4l-.7.9v2.5h-.7zM206.8 406c-.6.3-1.1.4-1.7.4a2 2 0 0 1-1.8-1.1l-.2-1.2c0-.4 0-.8.2-1.1s.4-.7.8-.9.6-.3 1-.3c.5 0 1 .2 1.3.6s.4 1 .4 1.7v.1h-3l.2.9.5.5c.2.2.5.2.7.2.5 0 1-.1 1.6-.5v.7zm-3-2.3h2.3v-.1c0-.4-.1-.7-.3-.9s-.4-.3-.7-.3c-.3 0-.6.1-.8.3s-.3.6-.4 1zM212 406.2l-1.4.2c-.4 0-.8 0-1.1-.3s-.6-.5-.8-.8-.3-.7-.3-1.2c0-.6.2-1.2.6-1.6s1-.7 1.6-.7c.4 0 1 .1 1.4.3v.7c-.5-.3-1-.4-1.3-.4-.3 0-.6 0-.8.2l-.5.6-.2.9c0 .4.1.8.4 1.1s.6.6 1.1.6h.5l.8-.3v.7zM213.8 406.3V400h.7v4l2-2h1l-2 2 2.1 2.3h-1l-2.1-2.3v2.3h-.7zM225.2 406.3v-3.8H224v-.6h2v3.8h1.1v.6h-2zm-.1-6l.1-.3.3-.1.4.1.1.4-.1.3-.4.1h-.3l-.1-.4zM229.2 406.3v-4.4h.7v1l.7-.8c.3-.2.6-.3 1-.3.2 0 .4 0 .6.2l.5.6.1 1.3v2.4h-.7v-2.5-.9c0-.2-.2-.2-.3-.3l-.4-.1c-.2 0-.5.1-.8.4l-.7.9v2.5h-.7zM238 406.1l-.7.3h-.5c-.3 0-.6 0-.8-.2l-.6-.5a3 3 0 0 1-.2-1v-1.8h-1v-.6h1v-1.8h.7v1.8h2v.6h-2v1.8c0 .3 0 .6.2.7l.3.3.5.1c.4 0 .7 0 1.1-.3v.6z"/><path fill="#666" d="M241.4 406.5c-.2 0-.4 0-.5-.2l-.2-.4c0-.2 0-.4.2-.5l.5-.2c.2 0 .3 0 .4.2l.2.5c0 .1 0 .3-.2.4l-.4.2zM248.4 406.2l-1.4.2c-.4 0-.8 0-1.1-.3s-.6-.5-.8-.8-.3-.7-.3-1.2c0-.6.2-1.2.6-1.6s1-.7 1.6-.7c.5 0 1 .1 1.4.3v.7c-.5-.3-1-.4-1.3-.4-.3 0-.5 0-.8.2l-.5.6-.2.9c0 .4.1.8.4 1.1s.6.6 1.1.6h.5l.8-.3v.7zM251.8 406.4c-.7 0-1.2-.2-1.5-.6s-.6-1-.6-1.7.2-1.2.6-1.6.8-.7 1.5-.7c.6 0 1 .2 1.5.7s.5 1 .5 1.6-.2 1.2-.5 1.7-1 .6-1.5.6zm0-.6c.3 0 .7-.1.9-.4s.3-.8.3-1.3 0-1-.3-1.2-.6-.5-1-.5c-.3 0-.6.2-.9.5s-.3.7-.3 1.2.1 1 .3 1.3.6.4 1 .4zM255.2 406.3v-4.4h.7v1l.7-.8c.3-.2.6-.3 1-.3.2 0 .4 0 .6.2l.5.6.1 1.3v2.4h-.7v-2.5-.9c0-.2-.2-.2-.3-.3l-.4-.1c-.2 0-.5.1-.8.4l-.7.9v2.5h-.7zM261.8 406.3l-2-4.4h.9l1.5 3.5 1.5-3.5h.7l-1.9 4.4h-.7zM269.2 406c-.6.3-1.1.4-1.7.4a2 2 0 0 1-1.8-1.1l-.2-1.2c0-.4 0-.8.2-1.1s.5-.7.8-.9.6-.3 1-.3c.6 0 1 .2 1.3.6s.5 1 .5 1.7v.1h-3l.1.9.5.5c.2.2.5.2.7.2.5 0 1-.1 1.6-.5v.7zm-3-2.3h2.3v-.1c0-.4-.1-.7-.3-.9s-.4-.3-.7-.3c-.3 0-.5.1-.8.3s-.3.6-.4 1zM271.1 406.3v-4.4h.8v1c.2-.4.4-.6.7-.8s.7-.3 1-.3l.8.1v1.6h-.7v-1h-.3c-.2 0-.5 0-.8.3l-.7 1v2.5h-.8zM279.6 406.1l-.7.3h-.5c-.3 0-.6 0-.8-.2l-.6-.5a3 3 0 0 1-.2-1v-1.8h-1v-.6h1v-1.8h.8v1.8h1.9v.6h-2v1.8l.2.7.3.3.5.1c.4 0 .7 0 1.1-.3v.6zM284.8 407.8a3.4 3.4 0 0 1-3-2.1c-.4-.6-.5-1.3-.5-1.9s.1-1.2.4-1.8.7-1.1 1.2-1.5 1.1-.6 1.9-.6v.6c-.6 0-1 .2-1.5.5l-.9 1.2a3.8 3.8 0 0 0 0 3.2c.2.5.6.9 1 1.2.3.3.8.5 1.4.6v.6zM286.4 408v-.7c.4.2.8.2 1 .2l.7-.1.4-.4.1-1v-3.5h-1.8v-.6h2.5v3.9c0 .7 0 1.2-.2 1.5-.2.3-.4.5-.7.6l-1 .2h-1zm2.1-7.6c0-.2 0-.3.2-.4l.3-.1.3.1.2.4c0 .1 0 .2-.2.3l-.3.1h-.3l-.2-.4zM293.4 406.5c-.2 0-.4 0-.5-.2l-.2-.4c0-.2 0-.4.2-.5l.5-.2c.2 0 .3 0 .4.2l.2.5c0 .1 0 .3-.2.4l-.4.2zM299.6 405.3c-.2.4-.5.7-.8.8l-.8.3c-.4 0-.7-.1-1-.4s-.4-.8-.4-1.5c0-.5 0-1 .3-1.3s.4-.7.7-1 .8-.3 1.2-.3a7 7 0 0 1 .8 0h.8v3.1l.1 1.3h-.7l-.2-1zm0-.8v-2h-.7c-.4 0-.8.2-1.1.5a2 2 0 0 0-.4 1.4c0 .5 0 .8.2 1 .2.2.3.3.6.3.2 0 .4 0 .7-.3l.7-1zM304.9 405.3c-.2.4-.5.7-.8.8l-.9.3c-.3 0-.7-.1-1-.4s-.4-.8-.4-1.5c0-.5.1-1 .3-1.3s.5-.7.8-1 .7-.3 1.2-.3a7 7 0 0 1 .8 0h.7v4.5l-.1.5c-.1.4-.3.7-.7.9-.4.2-.8.3-1.4.3-.5 0-1-.1-1.6-.4v-.7l.8.4.9.1h.6c.2 0 .4-.3.5-.4l.2-.5V405.3zm0-.8v-2h-.7c-.5 0-.9.2-1.2.5a2 2 0 0 0-.4 1.4c0 .5 0 .8.2 1l.6.3c.2 0 .5 0 .8-.3l.7-1zM310.8 406c-.6.3-1.1.4-1.6.4a2 2 0 0 1-1.8-1.1l-.3-1.2c0-.4 0-.8.2-1.1s.5-.7.8-.9.7-.3 1-.3c.6 0 1 .2 1.3.6s.5 1 .5 1.7v.1h-3l.1.9.5.5c.2.2.5.2.7.2.5 0 1-.1 1.6-.5v.7zm-2.9-2.3h2.2v-.1c0-.4-.1-.7-.3-.9s-.4-.3-.7-.3c-.3 0-.5.1-.8.3s-.3.6-.4 1zM312.4 399.9a3.4 3.4 0 0 1 3 2c.3.7.4 1.3.4 2s-.1 1.2-.4 1.8-.7 1-1.2 1.4-1.1.6-1.8.7v-.6c.5-.1 1-.3 1.4-.6.4-.3.7-.7 1-1.2s.2-1 .2-1.6 0-1-.3-1.6-.5-.9-1-1.2c-.3-.3-.8-.5-1.3-.5v-.6zM317.6 399.9a3.4 3.4 0 0 1 3 2c.3.7.4 1.3.4 2s-.1 1.2-.4 1.8-.7 1-1.2 1.4-1.1.6-1.8.7v-.6c.5-.1 1-.3 1.4-.6.4-.3.7-.7 1-1.2s.2-1 .2-1.6 0-1-.3-1.6-.5-.9-1-1.2c-.3-.3-.8-.5-1.3-.5v-.6zM323.8 408v-.5l.5-.2.2-.3v-.6c-.2 0-.3 0-.5-.2s-.1-.3-.1-.4c0-.2 0-.3.2-.5s.2-.1.4-.1.4 0 .6.2.2.5.2.8c0 .3 0 .6-.2.8l-.5.7c-.2.2-.5.3-.8.3zm.7-5h-.4l-.2-.5c0-.2 0-.4.2-.5l.4-.2c.2 0 .3 0 .5.2s.1.3.1.5l-.1.4-.5.2z"/><path fill="#539BD8" d="M145.3 407v-.7h31.2v.6h-31.2z"/><path fill="#0071BC" d="M22.6 420.3l-2-4.4h.9l1.4 3.5 1.6-3.5h.7l-2 4.4h-.6zM29.2 419.3c-.2.4-.5.7-.8.8l-.9.3c-.3 0-.7-.1-1-.4s-.4-.8-.4-1.5c0-.5.1-1 .3-1.3s.5-.7.8-1 .7-.3 1.2-.3a7 7 0 0 1 .8 0h.7v3.1c0 .5 0 1 .2 1.3h-.8l-.1-1zm0-.8v-2h-.7c-.5 0-.8.2-1.1.5a2 2 0 0 0-.5 1.4c0 .5 0 .8.3 1 .1.2.3.3.5.3s.5 0 .8-.3l.7-1zM31.9 420.3v-4.4h.7v1l.8-.8c.3-.2.6-.3 1-.3l.8.1v1.6h-.7v-1h-.3c-.3 0-.5 0-.8.3l-.8 1v2.5H32z"/><path fill="#666" d="M42.3 420.3v-4.4h.7v1l.8-.8c.3-.2.6-.3 1-.3l.8.1v1.6h-.7v-1h-.3c-.3 0-.5 0-.8.3l-.8 1v2.5h-.7zM50.8 420c-.6.3-1.2.4-1.7.4a2 2 0 0 1-1.8-1.1l-.3-1.2c0-.4.1-.8.3-1.1s.4-.7.7-.9.7-.3 1.1-.3c.5 0 1 .2 1.3.6s.4 1 .4 1.7v.1h-3c0 .3 0 .6.2.9l.5.5c.2.2.4.2.7.2.5 0 1-.1 1.6-.5v.7zm-3-2.3H50v-.1c0-.4 0-.7-.2-.9s-.4-.3-.7-.3c-.3 0-.6.1-.8.3s-.4.6-.4 1zM52.4 420v-.7l1 .4.7.1c.4 0 .7 0 .8-.2l.3-.4-.1-.3-.6-.3-.3-.1-.5-.2-1-.6a1 1 0 0 1-.2-.6c0-.4.1-.7.4-1s.8-.3 1.4-.3c.4 0 .9 0 1.3.2v.7a4 4 0 0 0-1.4-.3c-.3 0-.5 0-.7.2l-.2.4c0 .1 0 .3.2.4l.7.3.5.2c.5.1.8.3 1 .5s.2.4.2.7c0 .4-.1.7-.4 1s-.8.3-1.4.3c-.6 0-1.1 0-1.7-.3zM61.1 416v4.3h-.7v-1c-.2.4-.5.7-.8.9s-.6.2-.8.2c-.3 0-.5 0-.7-.2l-.5-.5-.1-1.3v-2.5h.7V419.3l.3.3.3.2c.3 0 .6-.2.9-.4s.5-.5.7-1V416h.7zM64 420.3v-5.7h-1.4v-.6h2v5.7H66v.6h-2zM71.6 420.1l-.8.3h-.4c-.3 0-.6 0-.8-.2l-.6-.5a3 3 0 0 1-.2-1v-1.8h-1v-.6h1v-1.8h.7v1.8h2v.6h-2v1.8l.1.7c.1.1.2.3.4.3l.5.1c.3 0 .7 0 1-.3v.6zM82.3 417.2v.6H78v-.6h4.3zm0 1.4v.6H78v-.6h4.3zM92.4 420.2l-1.4.2c-.4 0-.8 0-1.1-.3s-.7-.5-.8-.8-.3-.7-.3-1.2c0-.6.2-1.2.6-1.6s1-.7 1.6-.7c.4 0 1 .1 1.4.3v.7c-.5-.3-1-.4-1.4-.4-.2 0-.5 0-.7.2l-.5.6-.2.9c0 .4 0 .8.3 1.1s.7.6 1.2.6h.5l.8-.3v.7zM96.8 419.3c-.2.4-.5.7-.8.8l-.8.3c-.4 0-.7-.1-1-.4s-.5-.8-.5-1.5c0-.5.1-1 .3-1.3s.5-.7.8-1 .7-.3 1.2-.3a7 7 0 0 1 .8 0h.7v3.1c0 .5 0 1 .2 1.3H97v-1zm0-.8v-2h-.7c-.5 0-.8.2-1.1.5a2 2 0 0 0-.5 1.4c0 .5.1.8.3 1 .1.2.3.3.5.3.3 0 .5 0 .8-.3l.7-1zM100.3 420.3v-5.7H99v-.6h2v5.7h1.4v.6h-2zM105.5 420.3v-5.7h-1.3v-.6h2v5.7h1.4v.6h-2zM113.2 420c-.6.3-1.2.4-1.7.4a2 2 0 0 1-1.8-1.1l-.3-1.2c0-.4.1-.8.3-1.1s.4-.7.8-.9.6-.3 1-.3c.5 0 1 .2 1.3.6s.4 1 .4 1.7v.1h-3c0 .3 0 .6.2.9l.5.5c.2.2.5.2.7.2.5 0 1-.1 1.6-.5v.7zm-3-2.3h2.2v-.1c0-.4 0-.7-.2-.9s-.4-.3-.7-.3c-.3 0-.6.1-.8.3s-.3.6-.4 1zM115.1 420.3v-4.4h.7v1l.8-.8c.3-.2.6-.3 1-.3l.8.1v1.6h-.7v-1h-.3c-.3 0-.5 0-.8.3l-.8 1v2.5h-.7zM120.2 418.2v-.7h3v.7h-3zM129 418.2l-4.2 2.1v-.7l3-1.4-3-1.5v-.6l4.3 2zM130.7 420.3v-4.4h.7v1l.8-.8c.3-.2.6-.3 1-.3l.8.1v1.6h-.7v-1h-.3c-.3 0-.5 0-.8.3l-.8 1v2.5h-.7zM139.2 420c-.6.3-1.2.4-1.7.4a2 2 0 0 1-1.8-1.1l-.3-1.2c0-.4.1-.8.3-1.1s.4-.7.8-.9.6-.3 1-.3c.5 0 1 .2 1.3.6s.4 1 .4 1.7v.1h-3c0 .3 0 .6.2.9l.5.5c.2.2.5.2.7.2.5 0 1-.1 1.6-.5v.7zm-3-2.3h2.2v-.1c0-.4 0-.7-.2-.9s-.4-.3-.7-.3c-.3 0-.6.1-.8.3s-.3.6-.4 1zM140.8 420v-.7l1 .4.8.1c.3 0 .6 0 .7-.2l.3-.4-.1-.3-.6-.3-.2-.1-.5-.2c-.6-.2-1-.4-1-.6a1 1 0 0 1-.3-.6c0-.4.2-.7.4-1s.8-.3 1.4-.3c.5 0 .9 0 1.3.2v.7a4 4 0 0 0-1.3-.3c-.3 0-.6 0-.8.2l-.2.4c0 .1 0 .3.2.4l.7.3.5.2c.5.1.8.3 1 .5s.2.4.2.7c0 .4-.1.7-.4 1s-.7.3-1.4.3c-.5 0-1.1 0-1.7-.3zM146.6 417c.2-.4.5-.7.8-.9l.9-.3c.3 0 .7.2 1 .5s.4.8.4 1.4c0 .5-.1 1-.3 1.4s-.4.7-.8 1-.7.3-1.2.3a7 7 0 0 1-.8 0v1.6h-.7v-6h.7v1zm0 .8v1.9h.7c.5 0 .9-.1 1.2-.5.3-.3.4-.8.4-1.4 0-.4 0-.7-.2-1l-.6-.3c-.2 0-.5.1-.7.4-.3.2-.6.5-.8.9zM153 420.4c-.7 0-1.2-.2-1.6-.6s-.5-1-.5-1.7.2-1.2.5-1.6 1-.7 1.5-.7c.7 0 1.2.2 1.5.7s.6 1 .6 1.6-.2 1.2-.6 1.7-.8.6-1.5.6zm0-.6c.3 0 .6-.1.9-.4s.3-.8.3-1.3-.1-1-.3-1.2-.6-.5-1-.5c-.3 0-.7.2-.9.5s-.3.7-.3 1.2 0 1 .3 1.3.6.4 1 .4zM156.3 420.3v-4.4h.8v1l.7-.8c.3-.2.6-.3 1-.3.2 0 .4 0 .6.2l.5.6v3.7h-.6v-2.5l-.1-.9-.2-.3a.5.5 0 0 0-.4-.1c-.2 0-.5.1-.8.4l-.7.9v2.5h-.8zM164.5 419.3c-.3.4-.5.7-.8.8l-.9.3c-.4 0-.7-.1-1-.4s-.4-.8-.4-1.5c0-.5 0-1 .3-1.3s.4-.7.8-1a2 2 0 0 1 1.2-.3 7 7 0 0 1 .8 0V414h.7v6.3h-.7v-1zm0-.8v-2h-.8c-.4 0-.8.2-1 .5a2 2 0 0 0-.5 1.4c0 .5 0 .8.2 1l.6.3c.2 0 .5 0 .7-.3l.8-1zM170.3 421.8a3.4 3.4 0 0 1-3-2.1 4.3 4.3 0 0 1 1.2-5.2c.5-.4 1.1-.6 1.8-.6v.6c-.5 0-1 .2-1.4.5-.4.3-.7.8-.9 1.2s-.3 1-.3 1.6 0 1.1.3 1.6.5.9 1 1.2c.3.3.8.5 1.3.6v.6zM172.3 420.3v-4.4h.7v1l.8-.8c.3-.2.6-.3 1-.3l.8.1v1.6h-.7v-1h-.3c-.3 0-.5 0-.8.3l-.8 1v2.5h-.7zM180.8 420c-.6.3-1.1.4-1.7.4a2 2 0 0 1-1.8-1.1c-.2-.4-.2-.8-.2-1.2 0-.4 0-.8.2-1.1s.4-.7.8-.9.6-.3 1-.3c.5 0 1 .2 1.3.6s.4 1 .4 1.7v.1h-3l.2.9.5.5c.2.2.5.2.7.2.5 0 1-.1 1.6-.5v.7zm-3-2.3h2.3v-.1c0-.4-.1-.7-.3-.9s-.4-.3-.7-.3c-.3 0-.6.1-.8.3s-.3.6-.4 1zM182.4 420v-.7l1 .4.8.1c.3 0 .6 0 .7-.2l.3-.4-.1-.3-.6-.3-.2-.1-.5-.2c-.6-.2-1-.4-1-.6a1 1 0 0 1-.3-.6c0-.4.2-.7.4-1s.8-.3 1.4-.3c.5 0 .9 0 1.3.2v.7a4 4 0 0 0-1.3-.3c-.3 0-.6 0-.8.2l-.2.4c0 .1 0 .3.2.4l.7.3.5.2c.5.1.8.3 1 .5s.3.4.3.7c0 .4-.2.7-.5 1s-.7.3-1.4.3c-.5 0-1.1 0-1.7-.3zM188.2 417c.2-.4.5-.7.8-.9l.9-.3c.3 0 .7.2 1 .5s.4.8.4 1.4c0 .5 0 1-.3 1.4s-.4.7-.8 1-.7.3-1.2.3a7 7 0 0 1-.8 0v1.6h-.7v-6h.7v1zm0 .8v1.9h.8c.4 0 .8-.1 1-.5.4-.3.5-.8.5-1.4 0-.4 0-.7-.2-1l-.6-.3c-.2 0-.5.1-.7.4-.3.2-.6.5-.8.9zM194.5 420.4c-.6 0-1-.2-1.4-.6s-.6-1-.6-1.7.2-1.2.5-1.6 1-.7 1.5-.7c.7 0 1.2.2 1.5.7s.6 1 .6 1.6-.2 1.2-.6 1.7-.8.6-1.5.6zm0-.6c.4 0 .7-.1 1-.4s.3-.8.3-1.3-.1-1-.3-1.2-.6-.5-1-.5c-.3 0-.6.2-.9.5s-.3.7-.3 1.2 0 1 .3 1.3.6.4 1 .4zM198 420.3v-4.4h.7v1l.7-.8c.3-.2.6-.3 1-.3.2 0 .4 0 .6.2l.5.6v3.7h-.6v-2.5l-.1-.9-.2-.3a.5.5 0 0 0-.4-.1c-.2 0-.5.1-.8.4l-.7.9v2.5h-.7zM203.2 420v-.7l1 .4.8.1c.3 0 .6 0 .8-.2l.2-.4-.1-.3-.6-.3-.2-.1-.5-.2c-.6-.2-1-.4-1-.6a1 1 0 0 1-.3-.6c0-.4.2-.7.4-1s.8-.3 1.4-.3c.5 0 1 0 1.3.2v.7a4 4 0 0 0-1.3-.3c-.3 0-.6 0-.8.2l-.2.4c0 .1 0 .3.2.4l.7.3.5.2c.5.1.8.3 1 .5s.3.4.3.7c0 .4-.2.7-.5 1s-.7.3-1.4.3c-.5 0-1.1 0-1.7-.3zM212 420c-.6.3-1.1.4-1.7.4a2 2 0 0 1-1.8-1.1l-.2-1.2c0-.4 0-.8.2-1.1s.4-.7.8-.9.6-.3 1-.3c.5 0 1 .2 1.3.6s.4 1 .4 1.7v.1h-3l.2.9.5.5c.2.2.5.2.7.2.5 0 1-.1 1.6-.5v.7zm-3-2.3h2.3v-.1c0-.4-.1-.7-.3-.9s-.4-.3-.7-.3c-.3 0-.6.1-.8.3s-.3.6-.4 1zM213.6 413.9a3.4 3.4 0 0 1 3 2c.3.7.4 1.3.4 2s-.1 1.2-.4 1.8-.7 1-1.2 1.4-1.1.6-1.8.7v-.6c.5-.1 1-.3 1.4-.6.4-.3.7-.7.9-1.2s.3-1 .3-1.6 0-1-.3-1.6-.5-.9-1-1.2c-.3-.3-.8-.5-1.3-.5v-.6zM219.8 422v-.5l.4-.2.3-.3v-.6c-.2 0-.4 0-.5-.2l-.1-.4.1-.5c.1-.2.3-.1.5-.1s.4 0 .6.2.2.5.2.8c0 .3 0 .6-.2.8l-.5.7c-.2.2-.5.3-.8.3zm.7-5h-.5c-.2 0-.1-.4-.1-.5l.1-.5.5-.2c.2 0 .3 0 .4.2l.2.5c0 .1 0 .3-.2.4l-.4.2zM22.4 434.3v-3.8H21v-.6h2v3.8h1.2v.6h-2zm-.2-6c0-.1 0-.2.2-.3l.3-.1.3.1.2.4c0 .1 0 .2-.2.3l-.3.1h-.3l-.2-.4zM27.3 434.3v-3.4h-1v-.6h1v-.2l.2-1.3.6-.7c.2-.2.7-.2 1.1-.2h1v.8c-.3-.2-.7-.2-1-.2l-.6.1-.4.4-.1 1v.3h1.7v.6h-1.7v3.4h-.8zM40.3 435.8a3.4 3.4 0 0 1-3-2.1 4.3 4.3 0 0 1 1.2-5.2c.5-.4 1-.6 1.8-.6v.6c-.5 0-1 .2-1.4.5-.4.3-.7.8-1 1.2s-.3 1-.3 1.6.2 1.1.4 1.6.5.9 1 1.2c.3.3.8.5 1.3.6v.6zM42.3 434.3v-4.4h.7v1l.8-.8c.3-.2.6-.3 1-.3l.8.1v1.6h-.7v-1h-.3c-.3 0-.5 0-.8.3l-.8 1v2.5h-.7zM50.8 434c-.6.3-1.2.4-1.7.4a2 2 0 0 1-1.8-1.1l-.3-1.2c0-.4.1-.8.3-1.1s.4-.7.7-.9.7-.3 1.1-.3c.5 0 1 .2 1.3.6s.4 1 .4 1.7v.1h-3c0 .3 0 .6.2.9l.5.5c.2.2.4.2.7.2.5 0 1-.1 1.6-.5v.7zm-3-2.3H50v-.1c0-.4 0-.7-.2-.9s-.4-.3-.7-.3c-.3 0-.6.1-.8.3s-.4.6-.4 1zM52.4 434v-.7l1 .4.7.1c.4 0 .7 0 .8-.2l.3-.4-.1-.3-.6-.3-.3-.1-.5-.2-1-.6a1 1 0 0 1-.2-.6c0-.4.1-.7.4-1s.8-.3 1.4-.3c.4 0 .9 0 1.3.2v.7a4 4 0 0 0-1.4-.3c-.3 0-.5 0-.7.2l-.2.4c0 .1 0 .3.2.4l.7.3.5.2c.5.1.8.3 1 .5s.2.4.2.7c0 .4-.1.7-.4 1s-.8.3-1.4.3c-.6 0-1.1 0-1.7-.3zM61.1 430v4.3h-.7v-1c-.2.4-.5.7-.8.9s-.6.2-.8.2c-.3 0-.5 0-.7-.2l-.5-.5-.1-1.3v-2.5h.7V433.3l.3.3.3.2c.3 0 .6-.2.9-.4s.5-.5.7-1V430h.7zM64 434.3v-5.7h-1.4v-.6h2v5.7H66v.6h-2zM71.6 434.1l-.8.3h-.4c-.3 0-.6 0-.8-.2l-.6-.5a3 3 0 0 1-.2-1v-1.8h-1v-.6h1v-1.8h.7v1.8h2v.6h-2v1.8l.1.7c.1.1.2.3.4.3l.5.1c.3 0 .7 0 1-.3v.6zM79.6 434.3v-3.8h-1.3v-.6h2v3.8h1.2v.6h-2zm-.2-6l.2-.3.3-.1.3.1c.2 0 .2.2.2.4 0 .1 0 .2-.2.3l-.3.1h-.3l-.2-.4zM83.6 434v-.7l1 .4.7.1c.4 0 .7 0 .8-.2l.3-.4-.1-.3-.6-.3-.2-.1-.6-.2-1-.6a1 1 0 0 1-.2-.6c0-.4.1-.7.4-1s.8-.3 1.4-.3c.4 0 .9 0 1.3.2v.7a4 4 0 0 0-1.3-.3c-.4 0-.6 0-.8.2l-.2.4c0 .1 0 .3.2.4l.7.3.5.2c.5.1.8.3 1 .5s.2.4.2.7c0 .4-.1.7-.4 1s-.8.3-1.4.3c-.5 0-1.1 0-1.7-.3z"/><path fill="#0071BC" d="M97.6 434c-.6.3-1.2.4-1.7.4a2 2 0 0 1-1.8-1.1l-.3-1.2c0-.4.1-.8.3-1.1s.4-.7.8-.9.6-.3 1-.3c.5 0 1 .2 1.3.6s.4 1 .4 1.7v.1h-3c0 .3 0 .6.2.9l.5.5c.2.2.5.2.7.2.5 0 1-.1 1.6-.5v.7zm-3-2.3h2.2v-.1c0-.4 0-.7-.2-.9s-.4-.3-.7-.3c-.3 0-.6.1-.8.3s-.3.6-.4 1zM99.5 434.3v-4.4h.7v1l.8-.8c.3-.2.6-.3 1-.3l.8.1v1.6h-.7v-1h-.3c-.3 0-.5 0-.8.3l-.8 1v2.5h-.7zM104.7 434.3v-4.4h.7v1l.8-.8c.3-.2.6-.3 1-.3l.8.1v1.6h-.7v-1h-.3c-.3 0-.5 0-.8.3l-.8 1v2.5h-.7zM111.3 434.4c-.6 0-1-.2-1.5-.6s-.5-1-.5-1.7.2-1.2.5-1.6 1-.7 1.5-.7c.7 0 1.2.2 1.5.7s.6 1 .6 1.6-.2 1.2-.6 1.7-.8.6-1.5.6zm0-.6c.4 0 .7-.1 1-.4s.3-.8.3-1.3-.1-1-.3-1.2-.6-.5-1-.5-.7.2-.9.5-.3.7-.3 1.2 0 1 .3 1.3.5.4 1 .4zM115.1 434.3v-4.4h.7v1l.8-.8c.3-.2.6-.3 1-.3l.8.1v1.6h-.7v-1h-.3c-.3 0-.5 0-.8.3l-.8 1v2.5h-.7z"/><path fill="#666" d="M120 427.9a3.4 3.4 0 0 1 3 2c.3.7.4 1.3.4 2s-.1 1.2-.4 1.8-.7 1-1.2 1.4-1.1.6-1.8.7v-.6c.5-.1 1-.3 1.4-.6.3-.3.7-.7.9-1.2s.3-1 .3-1.6 0-1-.3-1.6-.6-.9-1-1.2c-.3-.3-.8-.5-1.3-.5v-.6zM131.9 431.8l.5.4.3.4v1l-.1.4-.1.6c0 .1 0 .3.2.4l.7.1h.6v.7h-.6c-.7 0-1.1-.2-1.3-.4s-.4-.5-.4-.8l.1-.5v-.3l.1-.3v-.2l.1-.3c0-.2 0-.5-.2-.6-.2-.2-.5-.3-.9-.3h-.3v-.6h.3c.4 0 .7 0 .9-.2l.2-.7v-.4l-.1-.4v-.3l-.2-.5c0-.3.2-.5.4-.8s.6-.3 1.3-.3h.6v.6h-.6c-.3 0-.6 0-.7.2l-.2.4v.5l.2.4v.6a1.1 1.1 0 0 1-.3.8 2 2 0 0 1-.5.4zM37.9 448.3v-5.7h-1.3v-.6h2v5.7H40v.6h-2.1zM43.7 448.4c-.6 0-1.1-.2-1.5-.6s-.5-1-.5-1.7.2-1.2.5-1.6.9-.7 1.5-.7 1.1.2 1.5.7.6 1 .6 1.6-.2 1.2-.6 1.7-.9.6-1.5.6zm0-.6c.4 0 .7-.1 1-.4s.3-.8.3-1.3-.1-1-.3-1.2-.6-.5-1-.5-.7.2-.9.5-.3.7-.3 1.2 0 1 .3 1.3.5.4 1 .4zM50 447.3c-.2.4-.4.7-.8.8-.3.2-.5.3-.8.3-.4 0-.7-.1-1-.4s-.4-.8-.4-1.5c0-.5 0-1 .3-1.3s.4-.7.7-1 .8-.3 1.2-.3a7 7 0 0 1 .8 0h.8v4.5l-.1.5c-.1.4-.4.7-.8.9-.3.2-.8.3-1.3.3s-1-.1-1.6-.4v-.7l.8.4.8.1h.7c.2 0 .3-.3.4-.4l.3-.5V447.3zm0-.8v-2h-.7c-.4 0-.8.2-1 .5a2 2 0 0 0-.5 1.4c0 .5 0 .8.2 1l.6.3c.2 0 .4 0 .7-.3l.8-1zM54.1 445h-.4l-.2-.5c0-.2 0-.4.2-.5l.4-.2c.1 0 .3 0 .5.2s.2.3.2.5l-.2.4-.5.2zm0 3.5c-.1 0-.3 0-.4-.2l-.2-.4c0-.2 0-.4.2-.5l.4-.2c.1 0 .3 0 .5.2s.2.3.2.5l-.2.4-.5.2zM58.2 445c.2-.4.5-.7.8-.9l.9-.3c.3 0 .7.2 1 .5s.4.8.4 1.4c0 .5-.1 1-.3 1.4s-.5.7-.8 1-.7.3-1.2.3a7 7 0 0 1-.8 0v1.6h-.7v-6h.7v1zm0 .8v1.9h.7c.5 0 .8-.1 1.1-.5.3-.3.5-.8.5-1.4 0-.4 0-.7-.3-1-.1-.2-.3-.3-.5-.3s-.5.1-.8.4l-.7.9zM63.1 448.3v-4.4h.7v1l.8-.8c.3-.2.6-.3 1-.3l.8.1v1.6h-.7v-1h-.3c-.3 0-.5 0-.8.3l-.8 1v2.5h-.7zM69.2 448.3v-3.8h-1.3v-.6h2v3.8H71v.6h-2zm-.2-6l.2-.3.3-.1.3.1c.2 0 .2.2.2.4 0 .1 0 .2-.2.3l-.3.1h-.3l-.2-.4zM73.1 448.3v-4.4h.8v1l.7-.8.9-.3c.3 0 .5 0 .7.2l.4.6c0 .3.2.6.2 1.3v2.4H76v-2.5-.9c0-.2-.1-.2-.2-.3l-.4-.1c-.2 0-.5.1-.8.4l-.7.9v2.5H73zM82 448.1l-.8.3h-.4c-.3 0-.6 0-.8-.2l-.6-.5a3 3 0 0 1-.2-1v-1.8h-1v-.6h1v-1.8h.7v1.8h2v.6h-2v1.8l.1.7c.1.1.2.3.4.3l.5.1c.3 0 .7 0 1-.3v.6zM87 447.6v.7h-3.3v-6H87v.6h-2.4v2h2.2v.6h-2.2v2.1H87zM89.1 448.3v-4.4h.7v1l.8-.8c.3-.2.6-.3 1-.3l.8.1v1.6h-.7v-1h-.3c-.3 0-.5 0-.8.3l-.8 1v2.5h-.7zM94.3 448.3v-4.4h.7v1l.8-.8c.3-.2.6-.3 1-.3l.8.1v1.6h-.7v-1h-.3c-.3 0-.5 0-.8.3l-.8 1v2.5h-.7zM101 448.4c-.7 0-1.2-.2-1.6-.6s-.5-1-.5-1.7.2-1.2.5-1.6 1-.7 1.5-.7c.7 0 1.2.2 1.5.7s.6 1 .6 1.6-.2 1.2-.6 1.7-.8.6-1.5.6zm0-.6c.3 0 .6-.1.9-.4s.3-.8.3-1.3-.1-1-.3-1.2-.6-.5-1-.5-.7.2-.9.5-.3.7-.3 1.2 0 1 .3 1.3.5.4 1 .4zM104.7 448.3v-4.4h.7v1l.8-.8c.3-.2.6-.3 1-.3l.8.1v1.6h-.7v-1h-.3c-.3 0-.5 0-.8.3l-.8 1v2.5h-.7zM113.1 449.8a3.4 3.4 0 0 1-3-2.1 4.3 4.3 0 0 1 1.2-5.2c.5-.4 1.1-.6 1.8-.6v.6c-.5 0-1 .2-1.4.5-.4.3-.7.8-1 1.2s-.2 1-.2 1.6 0 1.1.3 1.6.5.9 1 1.2c.3.3.8.5 1.3.6v.6z"/><path fill="#C1272D" d="M116 444.2h-.5l-.3-2.2h1l-.2 2.2zm1.6 0h-.5l-.2-2.2h1l-.3 2.2zM120.2 448.3v-6h3.4v.5H121v2.1h2.3v.6H121v2.8h-.8zM128 447.3c-.2.4-.5.7-.8.8l-.8.3c-.4 0-.7-.1-1-.4s-.5-.8-.5-1.5c0-.5.1-1 .3-1.3s.5-.7.8-1 .7-.3 1.2-.3a7 7 0 0 1 .8 0h.7v3.1l.2 1.3h-.7l-.2-1zm0-.8v-2h-.7c-.5 0-.8.2-1.1.5a2 2 0 0 0-.5 1.4c0 .5.1.8.3 1 .1.2.3.3.5.3.3 0 .5 0 .8-.3l.7-1zM131.6 448.3v-3.8h-1.2v-.6h1.9v3.8h1.2v.6h-2zm-.2-6l.2-.3.3-.1.4.1.1.4-.1.3-.4.1h-.3l-.2-.4zM136.7 448.3v-5.7h-1.3v-.6h2v5.7h1.4v.6h-2zM144.4 448c-.6.3-1.2.4-1.7.4a2 2 0 0 1-1.8-1.1l-.3-1.2c0-.4.1-.8.3-1.1s.4-.7.8-.9.6-.3 1-.3c.5 0 1 .2 1.3.6s.4 1 .4 1.7v.1h-3c0 .3 0 .6.2.9l.5.5c.2.2.5.2.7.2.5 0 1-.1 1.6-.5v.7zm-3-2.3h2.2v-.1c0-.4 0-.7-.2-.9s-.4-.3-.7-.3c-.3 0-.6.1-.8.3s-.3.6-.4 1zM148.9 447.3c-.3.4-.5.7-.8.8l-.9.3c-.4 0-.7-.1-1-.4s-.4-.8-.4-1.5c0-.5 0-1 .3-1.3s.4-.7.8-1a2 2 0 0 1 1.2-.3 7 7 0 0 1 .8 0V442h.7v6.3h-.7v-1zm0-.8v-2h-.8c-.4 0-.8.2-1 .5a2 2 0 0 0-.5 1.4c0 .5 0 .8.2 1l.6.3c.2 0 .5 0 .7-.3l.8-1zM160 448.1l-.7.3h-.5c-.3 0-.6 0-.8-.2l-.6-.5a3 3 0 0 1-.2-1v-1.8h-1v-.6h1v-1.8h.7v1.8h2v.6h-2v1.8c0 .3 0 .6.2.7l.3.3.5.1c.3 0 .7 0 1.1-.3v.6zM163.3 448.4c-.6 0-1-.2-1.5-.6s-.5-1-.5-1.7.2-1.2.5-1.6 1-.7 1.5-.7c.7 0 1.2.2 1.5.7s.6 1 .6 1.6-.2 1.2-.6 1.7-.8.6-1.5.6zm0-.6c.4 0 .7-.1 1-.4s.3-.8.3-1.3-.1-1-.3-1.2-.6-.5-1-.5c-.3 0-.7.2-.9.5s-.3.7-.3 1.2 0 1 .3 1.3.6.4 1 .4zM172 448v-.7l1 .4.8.1c.3 0 .6 0 .7-.2l.3-.4-.1-.3-.6-.3-.2-.1-.5-.2c-.6-.2-1-.4-1-.6a1 1 0 0 1-.3-.6c0-.4.2-.7.4-1s.8-.3 1.4-.3c.5 0 .9 0 1.3.2v.7a4 4 0 0 0-1.3-.3c-.3 0-.6 0-.8.2l-.2.4c0 .1 0 .3.2.4l.7.3.5.2c.5.1.8.3 1 .5s.2.4.2.7c0 .4-.1.7-.4 1s-.7.3-1.4.3c-.5 0-1.1 0-1.7-.3zM180.8 448c-.6.3-1.1.4-1.7.4a2 2 0 0 1-1.8-1.1c-.2-.4-.2-.8-.2-1.2 0-.4 0-.8.2-1.1s.4-.7.8-.9.6-.3 1-.3c.5 0 1 .2 1.3.6s.4 1 .4 1.7v.1h-3l.2.9.5.5c.2.2.5.2.7.2.5 0 1-.1 1.6-.5v.7zm-3-2.3h2.3v-.1c0-.4-.1-.7-.3-.9s-.4-.3-.7-.3c-.3 0-.6.1-.8.3s-.3.6-.4 1zM182.4 448.3v-4.4h.7v1l.7-.8c.3-.2.6-.3 1-.3.2 0 .4 0 .6.2l.5.6v3.7h-.6v-2.5l-.1-.9-.2-.3a.5.5 0 0 0-.4-.1c-.2 0-.5.1-.8.4l-.7.9v2.5h-.7zM190.5 447.3c-.3.4-.5.7-.8.8l-.9.3c-.4 0-.7-.1-1-.4s-.4-.8-.4-1.5c0-.5 0-1 .3-1.3s.4-.7.8-1a2 2 0 0 1 1.2-.3 7 7 0 0 1 .8 0V442h.7v6.3h-.7v-1zm0-.8v-2h-.7c-.5 0-.9.2-1.2.5a2 2 0 0 0-.4 1.4c0 .5 0 .8.2 1l.6.3c.2 0 .5 0 .7-.3l.8-1zM198.3 448.3v-4.4h.8v1c.2-.4.4-.6.7-.8s.7-.3 1-.3l.8.1v1.6h-.7v-1h-.3c-.3 0-.5 0-.8.3l-.7 1v2.5h-.8zM206.8 448c-.6.3-1.1.4-1.7.4a2 2 0 0 1-1.8-1.1l-.2-1.2c0-.4 0-.8.2-1.1s.4-.7.8-.9.6-.3 1-.3c.5 0 1 .2 1.3.6s.4 1 .4 1.7v.1h-3l.2.9.5.5c.2.2.5.2.7.2.5 0 1-.1 1.6-.5v.7zm-3-2.3h2.3v-.1c0-.4-.1-.7-.3-.9s-.4-.3-.7-.3c-.3 0-.6.1-.8.3s-.3.6-.4 1zM208.4 448v-.7l1 .4.8.1c.3 0 .6 0 .8-.2l.2-.4-.1-.3-.6-.3-.2-.1-.5-.2c-.6-.2-1-.4-1-.6a1 1 0 0 1-.3-.6c0-.4.2-.7.4-1s.8-.3 1.4-.3c.5 0 1 0 1.3.2v.7a4 4 0 0 0-1.3-.3c-.3 0-.6 0-.8.2l-.2.4c0 .1 0 .3.2.4l.7.3.5.2c.5.1.8.3 1 .5s.3.4.3.7c0 .4-.2.7-.5 1s-.7.3-1.4.3c-.5 0-1.1 0-1.7-.3zM214.2 445l.8-.9.9-.3c.3 0 .7.2 1 .5s.4.8.4 1.4c0 .5 0 1-.3 1.4s-.4.7-.8 1-.7.3-1.2.3a7 7 0 0 1-.8 0v1.6h-.7v-6h.7v1zm0 .8v1.9h.8c.4 0 .8-.1 1-.5.4-.3.5-.8.5-1.4 0-.4 0-.7-.2-1l-.6-.3c-.2 0-.5.1-.7.4-.3.2-.6.5-.8.9zM220.6 448.4c-.7 0-1.2-.2-1.5-.6s-.6-1-.6-1.7.2-1.2.6-1.6.8-.7 1.5-.7c.6 0 1 .2 1.4.7s.6 1 .6 1.6-.2 1.2-.6 1.7-.8.6-1.4.6zm0-.6c.3 0 .6-.1.9-.4s.3-.8.3-1.3 0-1-.3-1.2-.6-.5-1-.5c-.3 0-.6.2-.9.5s-.3.7-.3 1.2.1 1 .3 1.3.6.4 1 .4zM224 448.3v-4.4h.7v1l.7-.8c.3-.2.6-.3 1-.3.2 0 .4 0 .6.2l.5.6.1 1.3v2.4h-.7v-2.5-.9c0-.2-.2-.2-.3-.3l-.4-.1c-.2 0-.5.1-.8.4l-.7.9v2.5h-.7zM229.2 448v-.7l1 .4.8.1c.3 0 .6 0 .8-.2l.2-.4-.1-.3-.6-.3-.2-.1-.5-.2c-.6-.2-1-.4-1-.6a1 1 0 0 1-.3-.6c0-.4.2-.7.4-1s.8-.3 1.4-.3c.5 0 1 0 1.3.2v.7a4 4 0 0 0-1.3-.3c-.3 0-.6 0-.7.2l-.3.4c0 .1 0 .3.2.4l.7.3.5.2c.5.1.8.3 1 .5s.3.4.3.7c0 .4-.2.7-.5 1s-.7.3-1.4.3c-.5 0-1.1 0-1.7-.3zM238 448c-.6.3-1.1.4-1.7.4a2 2 0 0 1-1.8-1.1l-.2-1.2c0-.4 0-.8.2-1.1s.5-.7.8-.9.6-.3 1-.3c.6 0 1 .2 1.3.6s.5 1 .5 1.7v.1h-3l.1.9.5.5c.2.2.5.2.7.2.5 0 1-.1 1.6-.5v.7zm-3-2.3h2.3v-.1c0-.4-.1-.7-.3-.9s-.4-.3-.7-.3c-.3 0-.5.1-.8.3s-.3.6-.4 1zM240.8 444.2h-.5l-.3-2.2h1l-.2 2.2zm1.7 0h-.5l-.3-2.2h1l-.2 2.2z"/><path fill="#666" d="M245.8 450v-.5l.4-.2.3-.3v-.6c-.2 0-.4 0-.5-.2l-.1-.4.1-.5c.1-.2.3-.1.5-.1s.4 0 .6.2.2.5.2.8c0 .3 0 .6-.2.8l-.5.7c-.2.2-.5.3-.8.3zM258.8 448c-.6.3-1.1.4-1.7.4a2 2 0 0 1-1.8-1.1l-.2-1.2c0-.4 0-.8.2-1.1s.5-.7.8-.9.6-.3 1-.3c.6 0 1 .2 1.3.6s.5 1 .5 1.7v.1h-3l.1.9.5.5c.2.2.5.2.7.2.5 0 1-.1 1.6-.5v.7zm-3-2.3h2.3v-.1c0-.4-.1-.7-.3-.9s-.4-.3-.7-.3c-.3 0-.5.1-.8.3s-.3.6-.4 1zM260.7 448.3v-4.4h.8v1c.2-.4.4-.6.7-.8s.7-.3 1-.3l.8.1v1.6h-.7v-1h-.3c-.3 0-.5 0-.8.3l-.7 1v2.5h-.8zM266 448.3v-4.4h.7v1c.2-.4.4-.6.7-.8s.7-.3 1-.3l.8.1v1.6h-.7v-1h-.3c-.2 0-.5 0-.8.3l-.7 1v2.5h-.8zM279.9 445.2v.6h-4.3v-.6h4.3zm0 1.4v.6h-4.3v-.6h4.3zM286.7 448.3v-4.4h.8v1c.2-.4.5-.6.7-.8s.7-.3 1-.3l.8.1v1.6h-.7v-1h-.3c-.2 0-.5 0-.8.3l-.7 1v2.5h-.8zM295.2 448c-.6.3-1.1.4-1.7.4a2 2 0 0 1-1.7-1.1l-.3-1.2c0-.4 0-.8.2-1.1s.5-.7.8-.9.7-.3 1-.3c.6 0 1 .2 1.3.6s.5 1 .5 1.7v.1h-3l.1.9.5.5c.2.2.5.2.7.2.5 0 1-.1 1.6-.5v.7zm-2.9-2.3h2.2v-.1c0-.4-.1-.7-.3-.9s-.4-.3-.7-.3c-.3 0-.5.1-.8.3s-.3.6-.4 1zM296.8 448v-.7l1 .4.8.1c.3 0 .6 0 .8-.2l.2-.4-.1-.3-.6-.3-.2-.1-.5-.2c-.6-.2-.9-.4-1-.6a1 1 0 0 1-.3-.6c0-.4.2-.7.5-1s.7-.3 1.3-.3c.5 0 1 0 1.3.2v.7a4 4 0 0 0-1.3-.3c-.3 0-.6 0-.7.2l-.3.4c0 .1 0 .3.2.4l.8.3.4.2c.5.1.8.3 1 .5s.3.4.3.7c0 .4-.2.7-.5 1s-.7.3-1.4.3c-.5 0-1 0-1.7-.3zM305.6 444v4.3h-.8v-1l-.7.9c-.2.2-.6.2-1 .2-.2 0-.4 0-.6-.2l-.5-.5v-3.8h.7V447.3l.2.3.4.2.8-.4c.3-.2.5-.5.7-1V444h.8zM308.3 448.3v-5.7H307v-.6h2v5.7h1.4v.6h-2zM316 448.1l-.7.3h-.5c-.3 0-.5 0-.8-.2l-.6-.5c-.2-.3-.2-.6-.2-1v-1.8h-1v-.6h1v-1.8h.8v1.8h1.9v.6h-2v1.8l.2.7.3.3.5.1c.4 0 .7 0 1.1-.3v.6zM317.6 441.9a3.4 3.4 0 0 1 3 2c.3.7.4 1.3.4 2s-.1 1.2-.4 1.8-.7 1-1.2 1.4-1.1.6-1.8.7v-.6c.5-.1 1-.3 1.4-.6.4-.3.7-.7 1-1.2s.2-1 .2-1.6 0-1-.3-1.6-.5-.9-1-1.2c-.3-.3-.8-.5-1.3-.5v-.6zM323.8 450v-.5l.5-.2.2-.3v-.6c-.2 0-.3 0-.5-.2s-.1-.3-.1-.4c0-.2 0-.3.2-.5s.2-.1.4-.1.4 0 .6.2.2.5.2.8c0 .3 0 .6-.2.8l-.5.7c-.2.2-.5.3-.8.3zm.7-5h-.4l-.2-.5c0-.2 0-.4.2-.5l.4-.2c.2 0 .3 0 .5.2s.1.3.1.5l-.1.4-.5.2zM23.2 459.8c-.3-.1-.4-.2-.5-.4l-.3-.3v-.5-1l.2-.5-.2-.4c-.1-.2-.4-.2-.8-.2H21v-.6h.6c.7 0 1.2 0 1.4.3s.3.5.3.8v.5l-.1.3v.4l-.1.2v.2c0 .3 0 .5.2.7s.4.2.8.2h.4v.6h-.4c-.4 0-.6.1-.8.3s-.3.4-.3.6v.3l.1.2v.3l.2.3v.5c0 .3 0 .6-.3.8s-.7.4-1.4.4H21v-.6h.6l.8-.2.2-.4-.1-.6-.1-.4v-.6-.4l.3-.4c0-.1.2-.3.5-.4zM21.5 476.3v-4.4h.7v1l.8-.8c.3-.2.6-.3 1-.3l.8.1v1.6H24v-1h-.3c-.3 0-.6 0-.8.3l-.8 1v2.5h-.7zM30 476c-.6.3-1.2.4-1.7.4a2 2 0 0 1-1.8-1.1l-.3-1.2c0-.4.1-.8.3-1.1s.4-.7.7-.9.7-.3 1.1-.3c.5 0 1 .2 1.2.6s.5 1 .5 1.7v.1h-3c0 .3 0 .6.2.9l.5.5c.2.2.4.2.7.2.5 0 1-.1 1.6-.5v.7zm-3-2.3h2.2v-.1c0-.4 0-.7-.2-.9s-.4-.3-.7-.3c-.3 0-.6.1-.8.3s-.4.6-.4 1zM35.2 476.1l-.8.3H34c-.3 0-.6 0-.8-.2l-.6-.5a3 3 0 0 1-.2-1v-1.8h-1.1v-.6h1v-1.8h.8v1.8h2v.6h-2v1.8l.1.7c.1.1.2.3.4.3l.5.1c.3 0 .7 0 1-.3v.6zM40.3 472v4.3h-.7v-1c-.2.4-.5.7-.8.9s-.6.2-.8.2c-.3 0-.5 0-.7-.2l-.5-.5-.1-1.3v-2.5h.7V475.3l.3.3.3.2c.3 0 .6-.2.9-.4s.5-.5.7-1V472h.7zM42.3 476.3v-4.4h.7v1l.8-.8c.3-.2.6-.3 1-.3l.8.1v1.6h-.7v-1h-.3c-.3 0-.5 0-.8.3l-.8 1v2.5h-.7zM47.1 476.3v-4.4h.8v1l.7-.8.9-.3c.3 0 .5 0 .7.2l.4.6c0 .3.2.6.2 1.3v2.4H50v-2.5-.9c0-.2-.1-.2-.2-.3l-.4-.1c-.3 0-.5.1-.8.4l-.7.9v2.5H47zM53.4 478v-.5l.4-.2.2-.3.1-.6c-.2 0-.4 0-.5-.2l-.2-.4c0-.2 0-.3.2-.5s.3-.1.5-.1.4 0 .5.2l.3.8c0 .3 0 .6-.2.8l-.5.7c-.2.2-.5.3-.8.3zm.7-5h-.5l-.2-.5c0-.2 0-.4.2-.5l.5-.2c.2 0 .3 0 .4.2l.2.5c0 .1 0 .3-.2.4l-.4.2zM12.8 487.8l-.6-.4-.2-.3v-.5-1l.2-.5-.2-.4c-.1-.2-.4-.2-.8-.2h-.6v-.6h.6c.7 0 1.2 0 1.4.3s.3.5.3.8v.5l-.1.3v.4l-.1.2v.2c0 .3 0 .5.2.7s.4.2.8.2h.4v.6h-.4c-.4 0-.6.1-.8.3s-.3.4-.3.6v.3l.1.2v.3l.2.3v.5c0 .3 0 .6-.3.8s-.7.4-1.4.4h-.6v-.6h.6l.8-.2.2-.4-.1-.6-.1-.4v-.6-.4l.2-.4.6-.4zM7.6 501.8l-.6-.4-.2-.3v-.5-1l.2-.5-.2-.4c-.1-.2-.4-.2-.8-.2h-.6v-.6H6c.7 0 1.2 0 1.4.3s.3.5.3.8v.5l-.1.3v.4l-.1.2v.2c0 .3 0 .5.2.7s.4.2.8.2H9v.6h-.4c-.4 0-.6.1-.8.3s-.3.4-.3.6v.3l.1.2v.3l.1.3.1.5c0 .3 0 .6-.3.8s-.7.4-1.4.4h-.6v-.6H6l.8-.2.2-.4-.1-.6-.1-.4v-.6-.4l.2-.4.6-.4z"/></g></svg>