<?xml version="1.0" encoding="utf-8"?>
<!-- Generator: Adobe Illustrator 16.0.0, SVG Export Plug-In . SVG Version: 6.00 Build 0)  -->
<!DOCTYPE svg PUBLIC "-//W3C//DTD SVG 1.1//EN" "http://www.w3.org/Graphics/SVG/1.1/DTD/svg11.dtd">
<svg version="1.1" id="Layer_1" xmlns="http://www.w3.org/2000/svg" xmlns:xlink="http://www.w3.org/1999/xlink" x="0px" y="0px"
	 width="17.062px" height="19.154px" viewBox="0 0 17.062 19.154" enable-background="new 0 0 17.062 19.154" xml:space="preserve">
<g>
	<rect x="3.691" y="0.25" fill="#FFFFFF" width="13.121" height="15.319"/>
	<rect x="3.691" y="0.25" fill="#62CBC7" width="13.121" height="15.319"/>
	<path fill="#FFFFFF" d="M5.153,4.573h8.54H5.153z"/>
	<line fill="none" stroke="#FFFFFF" stroke-width="0.5" stroke-miterlimit="10" x1="5.154" y1="4.573" x2="13.693" y2="4.573"/>
	<path fill="#FFFFFF" d="M5.153,7.731h8.54H5.153z"/>
	<line fill="none" stroke="#FFFFFF" stroke-width="0.5" stroke-miterlimit="10" x1="5.154" y1="7.731" x2="13.693" y2="7.731"/>
	<path fill="#FFFFFF" d="M5.153,11.034h3.954H5.153z"/>
	<line fill="none" stroke="#A7A8AB" stroke-width="0.5" stroke-miterlimit="10" x1="5.154" y1="11.034" x2="9.106" y2="11.034"/>
	<rect x="0.25" y="3.586" fill="#FFFFFF" width="13.121" height="15.318"/>
	
		<rect x="0.25" y="3.586" fill="#62CBC7" stroke="#FFFFFF" stroke-width="0.5" stroke-miterlimit="10" width="13.121" height="15.318"/>
	<path fill="#FFFFFF" d="M1.713,7.909h8.537H1.713z"/>
	<line fill="none" stroke="#FFFFFF" stroke-width="0.5" stroke-miterlimit="10" x1="1.712" y1="7.909" x2="10.251" y2="7.909"/>
	<path fill="#FFFFFF" d="M1.713,11.067h8.537H1.713z"/>
	<line fill="none" stroke="#FFFFFF" stroke-width="0.5" stroke-miterlimit="10" x1="1.712" y1="11.067" x2="10.251" y2="11.067"/>
	<path fill="#FFFFFF" d="M1.713,14.369h3.953H1.713z"/>
	<line fill="none" stroke="#FFFFFF" stroke-width="0.5" stroke-miterlimit="10" x1="1.712" y1="14.368" x2="5.665" y2="14.368"/>
</g>
</svg>
