<?xml version="1.0" encoding="utf-8"?>
<!-- Generator: Adobe Illustrator 16.0.0, SVG Export Plug-In . SVG Version: 6.00 Build 0)  -->
<!DOCTYPE svg PUBLIC "-//W3C//DTD SVG 1.1//EN" "http://www.w3.org/Graphics/SVG/1.1/DTD/svg11.dtd">
<svg version="1.1" id="Layer_1" xmlns="http://www.w3.org/2000/svg" xmlns:xlink="http://www.w3.org/1999/xlink" x="0px" y="0px"
	 width="30px" height="30px" viewBox="0 0 30 30" enable-background="new 0 0 30 30" xml:space="preserve">
<g>
	<path fill="#A7A8AB" d="M22.174,27.133c-1.176,0.742-2.328,1.273-3.455,1.594c-1.125,0.318-2.457,0.479-3.992,0.479
		c-2.38,0-4.46-0.383-6.238-1.15c-1.779-0.768-3.257-1.805-4.435-3.111c-1.178-1.305-2.061-2.814-2.649-4.529
		C0.815,18.699,0.521,16.895,0.521,15c0-2.098,0.365-4.018,1.094-5.758C2.345,7.501,3.35,6.004,4.63,4.75
		c1.279-1.253,2.783-2.227,4.511-2.917c1.728-0.691,3.59-1.037,5.586-1.037s3.859,0.301,5.586,0.902
		c1.729,0.602,3.23,1.479,4.512,2.63c1.279,1.152,2.283,2.572,3.014,4.262c0.729,1.689,1.094,3.622,1.094,5.797
		c0,1.049-0.154,2.086-0.461,3.11s-0.762,1.939-1.363,2.746c-0.602,0.805-1.35,1.465-2.246,1.977
		c-0.895,0.512-1.918,0.768-3.07,0.768c-0.973,0-1.703-0.141-2.189-0.422s-0.844-0.652-1.074-1.113
		c-0.307,0.461-0.703,0.812-1.189,1.055c-0.486,0.244-0.973,0.416-1.459,0.52c-0.487,0.102-0.916,0.16-1.287,0.172
		c-0.371,0.014-0.595,0.02-0.672,0.02c-1.28,0-2.355-0.225-3.225-0.672c-0.871-0.447-1.574-1.037-2.112-1.766
		c-0.538-0.73-0.921-1.555-1.152-2.477c-0.23-0.922-0.345-1.855-0.345-2.804c0-1.049,0.153-2.041,0.46-2.975
		c0.307-0.934,0.749-1.759,1.325-2.476c0.576-0.716,1.267-1.28,2.073-1.689c0.806-0.409,1.721-0.614,2.745-0.614
		c0.538,0,1.177,0.071,1.919,0.211s1.408,0.505,1.996,1.094l0.039-0.768h3.801v9.751c0,0.744,0.07,1.217,0.211,1.422
		s0.391,0.307,0.748,0.307c0.615,0,1.133-0.16,1.557-0.48c0.422-0.32,0.768-0.734,1.035-1.248c0.27-0.512,0.467-1.088,0.596-1.727
		c0.127-0.641,0.191-1.281,0.191-1.92c0-1.894-0.326-3.513-0.979-4.857s-1.504-2.45-2.553-3.321c-1.051-0.87-2.234-1.503-3.551-1.9
		c-1.32-0.396-2.645-0.595-3.975-0.595c-1.741,0-3.289,0.314-4.645,0.941C8.725,5.281,7.566,6.113,6.607,7.149
		c-0.96,1.037-1.689,2.233-2.188,3.59C3.919,12.096,3.67,13.516,3.67,15c0,1.639,0.262,3.148,0.787,4.531
		c0.524,1.383,1.273,2.572,2.246,3.57s2.137,1.779,3.494,2.342c1.356,0.562,2.866,0.844,4.53,0.844c1.229,0,2.322-0.158,3.283-0.479
		c0.959-0.32,1.861-0.773,2.707-1.363L22.174,27.133z M17.529,15.499c0-0.845-0.084-1.555-0.25-2.13s-0.396-1.037-0.691-1.382
		c-0.293-0.345-0.633-0.595-1.017-0.749c-0.384-0.153-0.793-0.23-1.229-0.23c-0.921,0-1.703,0.359-2.342,1.075
		c-0.64,0.717-0.96,1.856-0.96,3.417c0,0.308,0.032,0.718,0.096,1.229c0.063,0.512,0.211,1.012,0.441,1.498s0.557,0.902,0.979,1.246
		c0.422,0.346,1.004,0.52,1.747,0.52c0.025,0,0.211-0.025,0.557-0.078c0.345-0.051,0.716-0.217,1.113-0.498
		c0.396-0.281,0.754-0.723,1.074-1.324S17.529,16.627,17.529,15.499z"/>
</g>
</svg>
