<?xml version="1.0" encoding="utf-8"?>
<!-- Generator: Adobe Illustrator 16.0.0, SVG Export Plug-In . SVG Version: 6.00 Build 0)  -->
<!DOCTYPE svg PUBLIC "-//W3C//DTD SVG 1.1//EN" "http://www.w3.org/Graphics/SVG/1.1/DTD/svg11.dtd">
<svg version="1.1" id="Layer_1" xmlns="http://www.w3.org/2000/svg" xmlns:xlink="http://www.w3.org/1999/xlink" x="0px" y="0px"
	 width="967.595px" height="149.558px" viewBox="147.39 88.001 967.595 149.558"
	 enable-background="new 147.39 88.001 967.595 149.558" xml:space="preserve">
<g>
	<g>
		<g>
			<g>
				<path fill="#464646" d="M201.94,207.439h-54.55V91.338h51.604c29.303,0,41.834,12.53,41.834,31.513
					c0,13.085-8.848,22.298-21.377,24.325c14.006,2.581,24.879,11.795,24.879,28.382
					C244.328,195.645,229.031,207.439,201.94,207.439z M169.875,139.621h27.642c13.822,0,19.719-6.081,19.719-14.744
					c0-8.662-5.896-14.926-19.719-14.926h-27.642V139.621z M169.875,157.129v31.697h29.483c14.374,0,21.378-6.081,21.378-15.666
					c0-9.767-7.004-16.031-21.378-16.031H169.875z"/>
				<path fill="#464646" d="M326.928,187.72c0,4.238,2.211,6.267,5.714,6.267c2.209,0,4.423-0.553,6.818-1.659v11.795
					c-3.502,2.767-7.925,5.162-15.296,5.162c-9.213,0-16.22-5.896-17.876-15.666c-4.606,9.583-14.928,15.851-28.383,15.851
					c-15.479,0-25.801-8.295-25.801-22.299c0-15.481,12.165-21.932,30.961-25.434l22.298-4.238v-2.396
					c0-9.029-4.789-14.56-14.188-14.56c-9.213,0-14.19,5.529-16.032,13.452l-20.09-1.843c2.765-16.585,15.481-28.195,37.042-28.195
					c21.01,0,34.832,9.951,34.832,31.328V187.72L326.928,187.72z M305.365,169.477l-15.294,3.132
					c-10.136,2.024-16.399,4.606-16.399,12.162c0,5.714,4.053,9.953,11.241,9.953c11.607,0,20.452-8.663,20.452-22.485V169.477z"/>
				<path fill="#464646" d="M508.09,180.348c-4.054,18.429-18.429,29.302-39.253,29.302c-25.063,0-43.124-16.033-43.124-41.647
					c0-25.616,18.246-44.046,42.569-44.046c26.537,0,40.177,18.43,40.177,40.544v7.002h-61
					c0.734,13.269,10.137,21.377,22.113,21.377c10.873,0,17.507-4.791,20.643-14.374L508.09,180.348z M486.898,159.892
					c-0.37-10.504-6.451-19.718-18.799-19.718c-12.161,0-18.982,8.846-20.271,19.718H486.898z"/>
				<path fill="#464646" d="M577.427,147.913c-4.239-2.396-7.925-3.5-13.271-3.5c-11.427,0-19.167,8.106-19.167,22.851v40.175
					h-22.112v-81.271h22.112v15.479c2.947-9.215,11.429-17.691,22.669-17.691c4.976,0,9.028,1.291,11.428,3.316L577.427,147.913z"/>
				<path fill="#464646" d="M588.394,91.338h22.671V112.9h-22.671V91.338z M610.879,126.168v81.271h-22.115v-81.271H610.879z"/>
				<path fill="#464646" d="M651.202,207.439h-22.114v-81.271h22.114v13.27c4.054-9.215,14.372-15.479,26.536-15.479
					c21.746,0,29.67,14.744,29.67,32.804v50.679h-22.112v-46.256c0-12.532-4.979-19.718-15.853-19.718
					c-11.24,0-18.241,8.847-18.241,22.481V207.439L651.202,207.439z"/>
				<path fill="#464646" d="M795.305,187.72c0,4.238,2.209,6.267,5.712,6.267c2.211,0,4.425-0.553,6.817-1.659v11.795
					c-3.5,2.767-7.926,5.162-15.299,5.162c-9.211,0-16.218-5.896-17.875-15.666c-4.605,9.583-14.927,15.851-28.38,15.851
					c-15.479,0-25.8-8.295-25.8-22.299c0-15.481,12.16-21.932,30.961-25.434l22.298-4.238v-2.396c0-9.029-4.793-14.56-14.188-14.56
					c-9.215,0-14.19,5.529-16.033,13.452l-20.086-1.843c2.763-16.585,15.479-28.195,37.041-28.195
					c21.011,0,34.832,9.951,34.832,31.328V187.72L795.305,187.72z M773.74,169.477l-15.297,3.132
					c-10.137,2.024-16.399,4.606-16.399,12.162c0,5.714,4.056,9.953,11.238,9.953c11.609,0,20.458-8.663,20.458-22.485V169.477z"/>
			</g>
			<g>
				<polygon fill="#464646" points="349.089,121.523 349.089,88.001 377.159,88.001 377.159,132.259 				"/>
				<polygon fill="#464646" points="349.089,132.018 368.302,139.367 349.089,146.713 				"/>
				<polygon fill="#464646" points="377.159,146.474 377.159,162.71 363.514,207.439 349.089,207.439 349.089,157.207 				"/>
			</g>
			<g>
				<polygon fill="#464646" points="414.954,121.523 414.954,88.001 386.885,88.001 386.885,132.259 				"/>
				<polygon fill="#464646" points="414.954,132.018 395.743,139.367 414.954,146.713 				"/>
				<polygon fill="#464646" points="386.885,146.474 386.885,162.71 400.531,207.439 414.954,207.439 414.954,157.207 				"/>
			</g>
		</g>
	</g>
</g>
<g>
	<path fill="#20B6AF" d="M833.315,96.802v40.667c2.207-4.729,5.699-8.17,10.482-10.325c4.779-2.151,10.061-3.23,15.841-3.23
		c5.778,0,10.691,0.842,14.738,2.522c4.043,1.682,7.408,3.836,10.088,6.462c2.68,2.627,4.807,5.571,6.383,8.826
		c1.576,3.26,2.731,6.489,3.469,9.694c0.732,3.206,1.206,6.174,1.418,8.905c0.209,2.734,0.315,4.941,0.315,6.62
		c0,8.724-1.21,15.896-3.626,21.516c-2.418,5.623-5.465,10.037-9.142,13.24c-3.68,3.207-7.672,5.438-11.979,6.699
		c-4.311,1.261-8.302,1.892-11.979,1.892c-3.364,0-6.383-0.394-9.062-1.183c-2.68-0.788-5.099-1.839-7.251-3.151
		c-2.155-1.313-4.073-2.811-5.754-4.492c-1.682-1.681-3.151-3.469-4.413-5.359h-0.474v11.033h-12.924V96.802H833.315z
		 M832.368,166.628c0,6.306,0.683,11.613,2.05,15.92c1.364,4.311,3.177,7.803,5.438,10.482c2.259,2.68,4.808,4.599,7.645,5.754
		c2.837,1.156,5.778,1.733,8.827,1.733c3.255,0,6.408-0.577,9.457-1.733c3.046-1.155,5.726-3.047,8.038-5.676
		c2.311-2.625,4.15-6.093,5.518-10.402c1.364-4.308,2.049-9.561,2.049-15.763c0-5.989-0.657-11.085-1.97-15.289
		c-1.315-4.201-3.074-7.645-5.281-10.323c-2.206-2.681-4.782-4.624-7.724-5.833c-2.943-1.206-6.043-1.812-9.3-1.812
		c-3.364,0-6.541,0.631-9.535,1.891c-2.995,1.263-5.624,3.208-7.881,5.833c-2.262,2.628-4.047,6.044-5.36,10.245
		C833.025,155.859,832.368,160.851,832.368,166.628z"/>
	<path fill="#20B6AF" d="M928.046,96.802v110.336h-13.87V96.802H928.046z"/>
	<path fill="#20B6AF" d="M946.172,167.102c0-5.359,0.683-10.613,2.049-15.762c1.364-5.148,3.599-9.746,6.698-13.793
		c3.099-4.044,7.172-7.329,12.217-9.852c5.044-2.522,11.191-3.782,18.441-3.782c7.251,0,13.397,1.26,18.441,3.782
		c5.045,2.522,9.116,5.808,12.217,9.852c3.098,4.047,5.332,8.645,6.699,13.793c1.363,5.148,2.048,10.402,2.048,15.762
		s-0.685,10.614-2.048,15.763c-1.367,5.149-3.602,9.747-6.699,13.792c-3.101,4.046-7.172,7.329-12.217,9.852
		c-5.044,2.521-11.19,3.782-18.441,3.782c-7.25,0-13.397-1.262-18.441-3.782c-5.045-2.522-9.118-5.806-12.217-9.852
		c-3.1-4.045-5.334-8.643-6.698-13.792C946.855,177.716,946.172,172.461,946.172,167.102z M960.83,167.102
		c0,7.95,0.998,14.171,2.996,18.668c1.994,4.497,4.358,7.845,7.092,10.042c2.731,2.196,5.463,3.531,8.196,4.002
		c2.731,0.47,4.887,0.704,6.463,0.704s3.729-0.234,6.463-0.704c2.73-0.471,5.463-1.806,8.195-4.002
		c2.732-2.197,5.096-5.545,7.094-10.042c1.995-4.497,2.995-10.718,2.995-18.668c0-7.947-1-14.172-2.995-18.669
		c-1.998-4.497-4.361-7.844-7.094-10.04c-2.732-2.197-5.465-3.53-8.195-4c-2.734-0.471-4.887-0.707-6.463-0.707
		s-3.731,0.236-6.463,0.707c-2.733,0.47-5.465,1.803-8.196,4c-2.733,2.196-5.098,5.543-7.092,10.04
		C961.828,152.93,960.83,159.155,960.83,167.102z"/>
	<path fill="#20B6AF" d="M1057.926,216.177c0.63,2.332,1.679,4.24,3.152,5.726c1.471,1.482,3.178,2.678,5.123,3.579
		c1.942,0.9,4.044,1.509,6.306,1.829c2.257,0.315,4.438,0.476,6.54,0.476c5.463,0,9.667-1.111,12.61-3.324
		c2.94-2.22,5.123-4.754,6.541-7.604c1.419-2.852,2.259-5.649,2.522-8.391c0.261-2.744,0.394-4.646,0.394-5.702v-8.711
		c-1.892,3.049-3.731,5.596-5.517,7.645c-1.788,2.05-3.704,3.705-5.753,4.966c-2.05,1.261-4.257,2.18-6.62,2.758
		c-2.364,0.576-5.02,0.867-7.96,0.867c-4.729,0-9.275-0.843-13.635-2.522c-4.361-1.679-8.196-4.28-11.507-7.802
		c-3.31-3.52-5.964-8.039-7.96-13.556s-2.994-12.161-2.994-19.939c0-1.261,0.052-3.177,0.157-5.753
		c0.104-2.574,0.473-5.438,1.104-8.591c0.63-3.151,1.654-6.383,3.073-9.693c1.42-3.31,3.414-6.357,5.99-9.143
		c2.573-2.782,5.831-5.044,9.771-6.777c3.941-1.733,8.801-2.601,14.581-2.601c6.62,0,12.268,1.209,16.944,3.626
		c4.674,2.418,8.275,5.938,10.797,10.56h0.474v-11.033h12.924v78.022c0,5.148-0.709,9.51-2.127,13.083
		c-1.419,3.571-3.231,6.566-5.438,8.984c-2.207,2.416-4.704,4.309-7.488,5.675c-2.785,1.364-5.491,2.416-8.116,3.152
		c-2.629,0.734-5.099,1.182-7.409,1.34c-2.313,0.158-4.098,0.236-5.359,0.236c-1.891,0-4.519-0.106-7.881-0.313
		c-3.364-0.211-6.806-0.97-10.324-2.28c-3.522-1.31-6.778-3.408-9.772-6.287c-2.995-2.884-5.123-7.052-6.384-12.501H1057.926z
		 M1078.417,200.518c1.26,0,3.204-0.34,5.832-1.024c2.625-0.683,5.253-2.207,7.881-4.571c2.625-2.365,4.938-5.805,6.936-10.324
		c1.995-4.517,2.995-10.665,2.995-18.441c0-10.089-2.104-18.021-6.305-23.802c-4.204-5.777-10.403-8.669-18.6-8.669
		c-3.89,0-7.172,0.657-9.852,1.97c-2.68,1.315-4.887,2.97-6.62,4.965c-1.734,1.997-3.05,4.256-3.94,6.778
		c-0.895,2.521-1.577,4.966-2.05,7.33c-0.473,2.363-0.736,4.57-0.788,6.62c-0.054,2.049-0.078,3.601-0.078,4.649
		c0,8.094,0.97,14.45,2.916,19.072c1.942,4.625,4.256,8.066,6.935,10.325c2.68,2.26,5.411,3.679,8.196,4.255
		C1074.658,200.23,1076.84,200.518,1078.417,200.518z"/>
</g>
</svg>
