<svg id="Layer_1" data-name="Layer 1" xmlns="http://www.w3.org/2000/svg" xmlns:xlink="http://www.w3.org/1999/xlink" viewBox="0 0 520 780"><defs><style>.cls-1,.cls-2{fill-rule:evenodd;}.cls-1{fill:url(#linear-gradient);}.cls-2{fill:url(#radial-gradient);}.cls-12,.cls-14,.cls-15,.cls-17,.cls-18,.cls-3,.cls-30,.cls-33,.cls-37{fill:none;}.cls-4{fill:#f7f8fb;}.cls-17,.cls-33,.cls-4,.cls-5,.cls-7,.cls-8{stroke:#545cec;}.cls-10,.cls-12,.cls-13,.cls-14,.cls-15,.cls-17,.cls-18,.cls-30,.cls-33,.cls-35,.cls-36,.cls-37,.cls-4,.cls-5,.cls-7,.cls-8,.cls-9{stroke-miterlimit:10;}.cls-5{fill:#dce1ff;}.cls-6{fill:#545cec;}.cls-10,.cls-13,.cls-24,.cls-34,.cls-35,.cls-36,.cls-7,.cls-8,.cls-9{fill:#fff;}.cls-8{stroke-width:1.5px;}.cls-9{stroke:#7d83f1;}.cls-10{stroke:#62c494;}.cls-11{fill:#62c494;}.cls-12,.cls-13,.cls-14,.cls-15{stroke:#000;}.cls-14{stroke-dasharray:5.9 5.9;}.cls-15{stroke-dasharray:6.07 6.07;}.cls-16{fill:#ff9e54;}.cls-17,.cls-18,.cls-33{stroke-linecap:round;}.cls-17,.cls-18{stroke-width:2px;}.cls-18{stroke:#ccd2f2;}.cls-19{fill:#0f9c57;}.cls-20{fill:#f0f0f0;}.cls-21{mask:url(#mask);}.cls-22{fill:url(#linear-gradient-2);}.cls-23{fill:#87cdac;}.cls-24,.cls-25{fill-opacity:0.2;}.cls-25,.cls-26{fill:#263138;}.cls-26{fill-opacity:0.1;}.cls-27{mask:url(#mask-2);}.cls-28{fill:url(#radial-gradient-2);}.cls-29{clip-path:url(#clip-path);}.cls-30{stroke:#484848;}.cls-31{clip-path:url(#clip-path-2);}.cls-32{clip-path:url(#clip-path-3);}.cls-33{stroke-width:1.2px;}.cls-35{stroke:#bfc0c6;}.cls-36,.cls-37{stroke:#40404b;}</style><linearGradient id="linear-gradient" x1="68913.97" y1="-19428.67" x2="68913.97" y2="-19754.3" gradientTransform="matrix(0.02, 0, 0, -0.02, -1213.76, -162.14)" gradientUnits="userSpaceOnUse"><stop offset="0" stop-color="#fff" stop-opacity="0.02"/><stop offset="1" stop-color="#fff" stop-opacity="0.2"/></linearGradient><radialGradient id="radial-gradient" cx="68610.8" cy="-19718.09" r="559.22" gradientTransform="matrix(0.02, 0, 0, -0.02, -1213.76, -162.14)" gradientUnits="userSpaceOnUse"><stop offset="0" stop-color="#fff" stop-opacity="0"/><stop offset="1" stop-color="#fff" stop-opacity="0.1"/></radialGradient><mask id="mask" x="475.89" y="314.67" width="7.97" height="9.33" maskUnits="userSpaceOnUse"><g id="c"><path class="cls-1" d="M475.89,314.67h8V324h-8Z"/></g></mask><linearGradient id="linear-gradient-2" x1="68913.97" y1="-19443.82" x2="68913.97" y2="-19739.16" gradientTransform="matrix(0.02, 0, 0, -0.02, -1213.76, -162.14)" gradientUnits="userSpaceOnUse"><stop offset="0" stop-color="#263138"/><stop offset="1" stop-color="#263138"/></linearGradient><mask id="mask-2" x="460.99" y="306.74" width="22.87" height="31.43" maskUnits="userSpaceOnUse"><g id="e"><path class="cls-2" d="M461,306.74h22.86v31.43H461Z"/></g></mask><radialGradient id="radial-gradient-2" cx="68183.28" cy="-19117.48" r="638.95" gradientTransform="matrix(0.02, 0, 0, -0.02, -1213.76, -162.14)" gradientUnits="userSpaceOnUse"><stop offset="0" stop-color="#fff"/><stop offset="1" stop-color="#fff"/></radialGradient><clipPath id="clip-path"><rect class="cls-3" x="467.51" y="382.79" width="11.59" height="62.71" rx="5.15"/></clipPath><clipPath id="clip-path-2"><rect class="cls-3" x="467.51" y="564.29" width="11.59" height="62.71" rx="5.15"/></clipPath><clipPath id="clip-path-3"><rect class="cls-3" x="426.82" y="198.91" width="11.59" height="62.71" rx="5.15"/></clipPath></defs><rect class="cls-4" x="40.42" y="502.4" width="358.85" height="153.61" rx="4.91"/><rect class="cls-5" x="129.65" y="19.96" width="107.98" height="52.84" rx="26.42"/><path class="cls-6" d="M162.72,50l.58-1.31a5.1,5.1,0,0,0,3,1c1.41,0,2-.51,2-1.19,0-2-5.41-.67-5.41-4,0-1.47,1.17-2.72,3.67-2.72a5.76,5.76,0,0,1,3,.81l-.53,1.31a5.07,5.07,0,0,0-2.51-.71c-1.41,0-2,.54-2,1.23,0,1.94,5.4.68,5.4,4,0,1.45-1.19,2.7-3.68,2.7A5.85,5.85,0,0,1,162.72,50Z"/><path class="cls-6" d="M173.38,43.26h-3V41.83h7.72v1.43h-3v7.67h-1.69Z"/><path class="cls-6" d="M184.8,48.83h-4.55l-.89,2.1h-1.74l4.09-9.1h1.67l4.1,9.1h-1.77Zm-.55-1.33-1.72-4-1.7,4Z"/><path class="cls-6" d="M194.59,50.93l-1.85-2.66h-2.41v2.65h-1.69v-9.1h3.74c2.4,0,3.88,1.22,3.88,3.24a2.9,2.9,0,0,1-1.94,2.87l2.09,3Zm-2.28-7.67h-2v3.63h2c1.48,0,2.25-.68,2.25-1.82S193.79,43.26,192.31,43.26Z"/><path class="cls-6" d="M199.86,43.26h-3V41.83h7.73v1.43h-3v7.67h-1.69Z"/><rect class="cls-7" x="152.45" y="102.2" width="62.25" height="62.25" rx="7.3"/><path class="cls-6" d="M176.53,132.81v4h-1.62V133c0-1.24-.62-1.84-1.66-1.84a1.85,1.85,0,0,0-1.93,2.1v3.51h-1.63v-6.95h1.55v.9a3,3,0,0,1,2.39-1A2.71,2.71,0,0,1,176.53,132.81Z"/><path class="cls-6" d="M185.16,133.84h-5.44A2.09,2.09,0,0,0,182,135.5a2.5,2.5,0,0,0,1.89-.75l.87,1a3.9,3.9,0,0,1-6.63-2.43,3.45,3.45,0,0,1,3.59-3.55,3.38,3.38,0,0,1,3.51,3.59A4.26,4.26,0,0,1,185.16,133.84Zm-5.46-1.08h3.94a1.88,1.88,0,0,0-2-1.69A1.92,1.92,0,0,0,179.7,132.76Z"/><path class="cls-6" d="M197.45,129.84l-2.56,6.95h-1.56l-1.8-4.79-1.82,4.79h-1.56l-2.55-6.95h1.54L189,135l1.91-5.13h1.37l1.87,5.15,1.88-5.15Z"/><rect class="cls-7" x="154.21" y="193.99" width="62.25" height="62.25" rx="7.3"/><path class="cls-6" d="M180.74,221.71h9.19v2h-9.19Zm0,4.83h9.19v2h-9.19Z"/><rect class="cls-7" x="154.46" y="286.13" width="62.25" height="62.25" rx="7.3"/><path class="cls-6" d="M178.55,316.74v4h-1.63V317c0-1.24-.61-1.83-1.65-1.83a1.84,1.84,0,0,0-1.94,2.09v3.51h-1.62v-6.94h1.55v.89a3,3,0,0,1,2.39-1A2.72,2.72,0,0,1,178.55,316.74Z"/><path class="cls-6" d="M187.18,317.77h-5.45a2.11,2.11,0,0,0,2.25,1.66,2.49,2.49,0,0,0,1.89-.75l.87,1a3.9,3.9,0,0,1-6.63-2.43,3.45,3.45,0,0,1,3.58-3.55,3.39,3.39,0,0,1,3.52,3.59C187.21,317.42,187.19,317.61,187.18,317.77Zm-5.46-1.08h3.94a1.89,1.89,0,0,0-2-1.69A1.91,1.91,0,0,0,181.72,316.69Z"/><path class="cls-6" d="M199.46,313.78l-2.56,6.94h-1.56l-1.79-4.78-1.82,4.78h-1.56l-2.55-6.94h1.53L191,318.9l1.91-5.12h1.36l1.88,5.15,1.88-5.15Z"/><rect class="cls-7" x="154.21" y="377.93" width="62.25" height="62.25" rx="7.3"/><path class="cls-6" d="M180.74,405.64h9.19v2h-9.19Zm0,4.83h9.19v2h-9.19Z"/><rect class="cls-8" x="160.21" y="477.28" width="50.25" height="50.25" rx="7.3" transform="translate(409.53 16.1) rotate(45)"/><rect class="cls-7" x="154.21" y="564.62" width="62.25" height="62.25" rx="7.3"/><path class="cls-6" d="M180.74,592.34h9.19v2h-9.19Zm0,4.83h9.19v2h-9.19Z"/><rect class="cls-5" x="153.36" y="684.78" width="63.95" height="39.29" rx="19.64"/><path class="cls-6" d="M178.07,707.56V709h-6.83v-9.1h6.64v1.41h-4.95v2.37h4.4v1.39h-4.4v2.51Z"/><path class="cls-6" d="M188,699.88V709h-1.39l-5-6.17V709H180v-9.1h1.39l5,6.16v-6.16Z"/><path class="cls-6" d="M190.48,699.88h4c2.95,0,5,1.82,5,4.55s-2,4.55-5,4.55h-4Zm3.9,7.67a3.13,3.13,0,1,0,0-6.24h-2.21v6.24Z"/><line class="cls-7" x1="183.64" y1="72.75" x2="183.64" y2="101.66"/><rect class="cls-9" x="176.82" y="80.44" width="13.63" height="13.63" rx="6.82"/><line class="cls-7" x1="183.64" y1="83.92" x2="183.64" y2="90.59"/><line class="cls-7" x1="180.31" y1="87.25" x2="186.98" y2="87.25"/><line class="cls-7" x1="183.57" y1="164.77" x2="183.57" y2="193.67"/><rect class="cls-9" x="176.75" y="172.45" width="13.63" height="13.63" rx="6.82"/><line class="cls-7" x1="183.57" y1="175.94" x2="183.57" y2="182.61"/><line class="cls-7" x1="180.24" y1="179.27" x2="186.91" y2="179.27"/><line class="cls-7" x1="185.33" y1="256.74" x2="185.33" y2="285.64"/><rect class="cls-9" x="178.52" y="264.42" width="13.63" height="13.63" rx="6.82"/><line class="cls-7" x1="185.33" y1="267.9" x2="185.33" y2="274.57"/><line class="cls-7" x1="182" y1="271.24" x2="188.67" y2="271.24"/><line class="cls-7" x1="185.66" y1="348.7" x2="185.66" y2="377.6"/><rect class="cls-9" x="178.84" y="356.39" width="13.63" height="13.63" rx="6.82"/><line class="cls-7" x1="185.66" y1="359.87" x2="185.66" y2="366.54"/><line class="cls-7" x1="182.32" y1="363.2" x2="188.99" y2="363.2"/><line class="cls-7" x1="185.33" y1="440.58" x2="185.33" y2="469.49"/><rect class="cls-9" x="178.52" y="448.27" width="13.63" height="13.63" rx="6.82"/><line class="cls-7" x1="185.33" y1="451.75" x2="185.33" y2="458.42"/><line class="cls-7" x1="182" y1="455.08" x2="188.67" y2="455.08"/><line class="cls-7" x1="185.33" y1="535.72" x2="185.33" y2="564.62"/><rect class="cls-9" x="178.52" y="543.41" width="13.63" height="13.63" rx="6.82"/><line class="cls-7" x1="185.33" y1="546.89" x2="185.33" y2="553.56"/><line class="cls-7" x1="182" y1="550.22" x2="188.67" y2="550.22"/><line class="cls-7" x1="184.7" y1="626.88" x2="184.7" y2="648.19"/><rect class="cls-9" x="177.88" y="634.56" width="13.63" height="13.63" rx="6.82"/><line class="cls-7" x1="184.7" y1="638.04" x2="184.7" y2="644.71"/><line class="cls-7" x1="181.36" y1="641.38" x2="188.03" y2="641.38"/><line class="cls-7" x1="184.7" y1="656.01" x2="184.7" y2="684.91"/><rect class="cls-9" x="177.88" y="663.69" width="13.63" height="13.63" rx="6.82"/><line class="cls-7" x1="184.7" y1="667.17" x2="184.7" y2="673.84"/><line class="cls-7" x1="181.36" y1="670.51" x2="188.03" y2="670.51"/><rect class="cls-10" x="88.48" y="211.71" width="48.97" height="18.75" rx="4.45"/><path class="cls-11" d="M96.87,217.17h2.21c1.47,0,2.56.51,2.56,2.07s-1.11,2.18-2.56,2.18h-1v2.46h-1.2ZM99,220.46c1,0,1.48-.4,1.48-1.22s-.5-1.12-1.48-1.12h-.91v2.34Z"/><path class="cls-11" d="M103,217.17h2.24c1.4,0,2.48.49,2.48,2s-1.08,2.1-2.48,2.1h-1v2.62H103Zm2.12,3.14c.92,0,1.42-.39,1.42-1.15s-.5-1-1.42-1h-.92v2.19Zm.76-.08,2.1,3.65h-1.34L105,220.94Z"/><path class="cls-11" d="M110.47,216.61h2.94v.65h-2v7.54h2v.64h-2.94Z"/><path class="cls-11" d="M115.48,224.8h2v-7.54h-2v-.65h3v8.83h-3Z"/><line class="cls-12" x1="220.49" y1="136.88" x2="385.29" y2="136.88"/><polygon points="383.83 141.86 392.47 136.88 383.83 131.89 383.83 141.86"/><circle class="cls-13" cx="432.35" cy="137.14" r="31.56"/><line class="cls-12" x1="431.74" y1="169.05" x2="431.74" y2="198.16"/><line class="cls-12" x1="431.74" y1="261.89" x2="431.74" y2="274.57"/><line class="cls-12" x1="220.49" y1="222.71" x2="409.36" y2="222.71"/><polygon points="407.9 227.69 416.53 222.71 407.9 217.72 407.9 227.69"/><line class="cls-12" x1="416.53" y1="230.83" x2="413.53" y2="230.83"/><line class="cls-14" x1="407.64" y1="230.83" x2="233.62" y2="230.83"/><line class="cls-12" x1="230.67" y1="230.83" x2="227.67" y2="230.83"/><polygon points="229.13 225.84 220.5 230.82 229.13 235.81 229.13 225.84"/><circle class="cls-13" cx="472.42" cy="321.79" r="31.56"/><line class="cls-12" x1="472.42" y1="353.35" x2="472.42" y2="382.46"/><line class="cls-12" x1="472.42" y1="446.19" x2="472.42" y2="564.29"/><line class="cls-12" x1="472.95" y1="627.61" x2="472.95" y2="647.31"/><line class="cls-12" x1="220.49" y1="322.45" x2="425.35" y2="322.45"/><polygon points="423.89 327.44 432.53 322.45 423.89 317.47 423.89 327.44"/><line class="cls-12" x1="220.49" y1="406.64" x2="451.04" y2="406.64"/><polygon points="449.58 411.63 458.21 406.64 449.58 401.65 449.58 411.63"/><line class="cls-12" x1="458.38" y1="415.81" x2="455.38" y2="415.81"/><line class="cls-15" x1="449.31" y1="415.81" x2="233.71" y2="415.81"/><line class="cls-12" x1="230.67" y1="415.81" x2="227.67" y2="415.81"/><polygon points="229.13 410.82 220.5 415.81 229.13 420.8 229.13 410.82"/><line class="cls-12" x1="220.49" y1="593.58" x2="451.21" y2="593.58"/><polygon points="449.75 598.56 458.38 593.58 449.75 588.59 449.75 598.56"/><line class="cls-12" x1="458.38" y1="602.75" x2="455.38" y2="602.75"/><line class="cls-15" x1="449.31" y1="602.75" x2="233.71" y2="602.75"/><line class="cls-12" x1="230.67" y1="602.75" x2="227.67" y2="602.75"/><polygon points="229.13 597.76 220.5 602.75 229.13 607.74 229.13 597.76"/><path class="cls-16" d="M45.72,484.32c.59.19.87.56.87,1.46v3.46c0,.79.38,1.23,1.17,1.23h.39v1.25h-.69a2.11,2.11,0,0,1-2.39-2.34v-3.63c0-.56-.26-.79-.71-.79h-.55v-1.27h.55c.45,0,.71-.23.71-.79v-3.63a2.11,2.11,0,0,1,2.39-2.34h.69v1.25h-.39c-.79,0-1.17.44-1.17,1.23v3.46C46.59,483.77,46.31,484.14,45.72,484.32Z"/><path class="cls-16" d="M57.69,480.28v8.37H56.26v-1.26a3.42,3.42,0,0,1-2.85,1.36,3.29,3.29,0,0,1-3.6-3.65v-4.82h1.52v4.64c0,1.65.82,2.47,2.26,2.47a2.46,2.46,0,0,0,2.59-2.78v-4.33Z"/><path class="cls-16" d="M65.08,480.2v1.47h-.34a2.49,2.49,0,0,0-2.64,2.82v4.17H60.58v-8.37H62v1.41A3.18,3.18,0,0,1,65.08,480.2Z"/><path class="cls-16" d="M67,476.93h1.51v11.72H67Z"/><path class="cls-16" d="M72.76,487.66a3.08,3.08,0,0,1-.27,1.13l-.74,2.2h-1l.59-2.35a1,1,0,0,1-.66-1,1,1,0,1,1,2.08,0Z"/><path class="cls-16" d="M83.89,488.16a2.81,2.81,0,0,1-1.83.59,2.39,2.39,0,0,1-2.65-2.63v-4.59H78v-1.25h1.42v-1.83h1.52v1.83h2.4v1.25h-2.4v4.53a1.24,1.24,0,0,0,1.31,1.41,1.87,1.87,0,0,0,1.18-.4Z"/><path class="cls-16" d="M85.46,477.69a1,1,0,0,1,1-1,1,1,0,0,1,1,1,1,1,0,0,1-2.05,0Zm.27,2.59h1.51v8.37H85.73Z"/><path class="cls-16" d="M94.84,488.16a2.83,2.83,0,0,1-1.83.59,2.4,2.4,0,0,1-2.66-2.63v-4.59H88.93v-1.25h1.42v-1.83h1.52v1.83h2.4v1.25h-2.4v4.53a1.24,1.24,0,0,0,1.31,1.41,1.9,1.9,0,0,0,1.19-.4Z"/><path class="cls-16" d="M96.67,476.93h1.52v11.72H96.67Z"/><path class="cls-16" d="M108.61,485h-6.79a2.84,2.84,0,0,0,3,2.45,3.13,3.13,0,0,0,2.42-1l.84,1a4.56,4.56,0,0,1-7.8-2.92,4.1,4.1,0,0,1,4.2-4.27,4,4,0,0,1,4.13,4.31A3.67,3.67,0,0,1,108.61,485Zm-6.79-1.09h5.37a2.7,2.7,0,0,0-5.37,0Z"/><path class="cls-16" d="M112.15,487.66a3.08,3.08,0,0,1-.27,1.13l-.74,2.2h-1l.59-2.35a1,1,0,0,1-.66-1,1,1,0,1,1,2.08,0Z"/><path class="cls-16" d="M117.52,487.77l.63-1.2a5.43,5.43,0,0,0,2.94.87c1.41,0,2-.43,2-1.14,0-1.88-5.29-.25-5.29-3.59,0-1.5,1.34-2.51,3.49-2.51a6.15,6.15,0,0,1,3,.76l-.65,1.2a4.36,4.36,0,0,0-2.42-.66c-1.32,0-2,.49-2,1.15,0,2,5.31.36,5.31,3.62,0,1.51-1.39,2.48-3.62,2.48A6.08,6.08,0,0,1,117.52,487.77Z"/><path class="cls-16" d="M131.2,488.16a2.85,2.85,0,0,1-1.83.59,2.4,2.4,0,0,1-2.66-2.63v-4.59h-1.42v-1.25h1.42v-1.83h1.52v1.83h2.4v1.25h-2.4v4.53a1.24,1.24,0,0,0,1.31,1.41,1.85,1.85,0,0,0,1.18-.4Z"/><path class="cls-16" d="M139.66,483.6v5h-1.43v-1.1a3.14,3.14,0,0,1-2.75,1.2c-1.9,0-3.1-1-3.1-2.47s.87-2.44,3.37-2.44h2.4v-.31c0-1.27-.75-2-2.25-2a4.26,4.26,0,0,0-2.65.9l-.63-1.13a5.56,5.56,0,0,1,3.46-1.08C138.37,480.2,139.66,481.31,139.66,483.6Zm-1.51,2.49v-1.17h-2.34c-1.5,0-1.93.59-1.93,1.3s.7,1.36,1.85,1.36A2.43,2.43,0,0,0,138.15,486.09Z"/><path class="cls-16" d="M141.76,487.66a1.06,1.06,0,0,1,1.08-1.08,1.09,1.09,0,0,1,0,2.17A1.07,1.07,0,0,1,141.76,487.66Z"/><path class="cls-16" d="M145.35,487.66a1.06,1.06,0,1,1,1.07,1.09A1.06,1.06,0,0,1,145.35,487.66Z"/><path class="cls-16" d="M148.94,487.66a1.05,1.05,0,0,1,1.07-1.08,1.09,1.09,0,0,1,0,2.17A1.06,1.06,0,0,1,148.94,487.66Z"/><path class="cls-17" d="M183.35,510.29a7.54,7.54,0,0,1-1.42.34,7,7,0,0,1-1.12.09,7.7,7.7,0,1,1,0-15.4"/><polyline class="cls-17" points="180.54 506.61 183.88 510.09 180.54 514.36"/><path class="cls-18" d="M186.33,495.66a8.44,8.44,0,0,1,1.43-.3,8.33,8.33,0,0,1,1.12,0,7.7,7.7,0,1,1-.54,15.39"/><polyline class="cls-18" points="189 499.43 185.79 495.84 189.27 491.69"/><path class="cls-19" d="M475.28,306.75H463.14a2.14,2.14,0,0,0-2.14,2.14V336a2.15,2.15,0,0,0,2.14,2.15H481.7a2.15,2.15,0,0,0,2.14-2.15v-20.7l-5-3.56Z"/><path class="cls-20" d="M466.71,322.1v10.35h11.42V322.1Zm5,8.92h-3.57v-1.79h3.57Zm0-2.86h-3.57v-1.78h3.57Zm0-2.85h-3.57v-1.79h3.57Zm5,5.71h-3.57v-1.79h3.57Zm0-2.86h-3.57v-1.78h3.57Zm0-2.85h-3.57v-1.79h3.57Z"/><g class="cls-21"><path class="cls-22" d="M475.9,314.69l7.94,7.94v-7.32Z"/></g><path class="cls-23" d="M475.28,306.75v6.42a2.13,2.13,0,0,0,2.14,2.14h6.42Z"/><path class="cls-24" d="M463.14,306.75a2.14,2.14,0,0,0-2.14,2.14v.18a2.14,2.14,0,0,1,2.14-2.14h12.14v-.18Z"/><path class="cls-25" d="M481.7,338H463.14a2.15,2.15,0,0,1-2.14-2.14V336a2.15,2.15,0,0,0,2.14,2.15H481.7a2.15,2.15,0,0,0,2.14-2.15v-.17A2.15,2.15,0,0,1,481.7,338Z"/><path class="cls-26" d="M477.42,315.31a2.13,2.13,0,0,1-2.14-2.14v.18a2.14,2.14,0,0,0,2.14,2.14h6.42v-.18Z"/><g class="cls-27"><path class="cls-28" d="M475.28,306.75H463.14a2.14,2.14,0,0,0-2.14,2.14V336a2.15,2.15,0,0,0,2.14,2.15H481.7a2.15,2.15,0,0,0,2.14-2.15v-20.7Z"/></g><g class="cls-29"><line class="cls-30" x1="479.1" y1="382.79" x2="467.51" y2="394.79"/><line class="cls-30" x1="479.1" y1="387.84" x2="467.51" y2="399.85"/><line class="cls-30" x1="479.1" y1="392.89" x2="467.51" y2="404.9"/><line class="cls-30" x1="479.1" y1="397.95" x2="467.51" y2="409.95"/><line class="cls-30" x1="479.1" y1="403" x2="467.51" y2="415.01"/><line class="cls-30" x1="479.1" y1="408.05" x2="467.51" y2="420.06"/><line class="cls-30" x1="479.1" y1="413.11" x2="467.51" y2="425.11"/><line class="cls-30" x1="479.1" y1="418.16" x2="467.51" y2="430.17"/><line class="cls-30" x1="479.1" y1="423.22" x2="467.51" y2="435.22"/><line class="cls-30" x1="479.1" y1="428.27" x2="467.51" y2="440.28"/><line class="cls-30" x1="479.1" y1="433.32" x2="467.51" y2="445.33"/><line class="cls-30" x1="479.1" y1="438.38" x2="467.51" y2="450.38"/><line class="cls-30" x1="479.1" y1="377.73" x2="467.51" y2="389.74"/></g><rect class="cls-12" x="465.74" y="382.46" width="13.21" height="63.56" rx="6.6"/><g class="cls-31"><line class="cls-30" x1="479.1" y1="564.29" x2="467.51" y2="576.3"/><line class="cls-30" x1="479.1" y1="569.35" x2="467.51" y2="581.35"/><line class="cls-30" x1="479.1" y1="574.4" x2="467.51" y2="586.41"/><line class="cls-30" x1="479.1" y1="579.45" x2="467.51" y2="591.46"/><line class="cls-30" x1="479.1" y1="584.51" x2="467.51" y2="596.51"/><line class="cls-30" x1="479.1" y1="589.56" x2="467.51" y2="601.57"/><line class="cls-30" x1="479.1" y1="594.61" x2="467.51" y2="606.62"/><line class="cls-30" x1="479.1" y1="599.67" x2="467.51" y2="611.67"/><line class="cls-30" x1="479.1" y1="604.72" x2="467.51" y2="616.73"/><line class="cls-30" x1="479.1" y1="609.77" x2="467.51" y2="621.78"/><line class="cls-30" x1="479.1" y1="614.83" x2="467.51" y2="626.84"/><line class="cls-30" x1="479.1" y1="619.88" x2="467.51" y2="631.89"/><line class="cls-30" x1="479.1" y1="559.24" x2="467.51" y2="571.24"/></g><rect class="cls-12" x="465.74" y="563.97" width="13.21" height="63.56" rx="6.6"/><g class="cls-32"><line class="cls-30" x1="438.41" y1="198.91" x2="426.82" y2="210.92"/><line class="cls-30" x1="438.41" y1="203.97" x2="426.82" y2="215.98"/><line class="cls-30" x1="438.41" y1="209.02" x2="426.82" y2="221.03"/><line class="cls-30" x1="438.41" y1="214.08" x2="426.82" y2="226.08"/><line class="cls-30" x1="438.41" y1="219.13" x2="426.82" y2="231.14"/><line class="cls-30" x1="438.41" y1="224.18" x2="426.82" y2="236.19"/><line class="cls-30" x1="438.41" y1="229.24" x2="426.82" y2="241.24"/><line class="cls-30" x1="438.41" y1="234.29" x2="426.82" y2="246.3"/><line class="cls-30" x1="438.41" y1="239.34" x2="426.82" y2="251.35"/><line class="cls-30" x1="438.41" y1="244.4" x2="426.82" y2="256.4"/><line class="cls-30" x1="438.41" y1="249.45" x2="426.82" y2="261.46"/><line class="cls-30" x1="438.41" y1="254.51" x2="426.82" y2="266.51"/><line class="cls-30" x1="438.41" y1="193.86" x2="426.82" y2="205.87"/></g><rect class="cls-12" x="425.06" y="198.59" width="13.21" height="63.56" rx="6.6"/><path d="M234.05,393c0-1.73,1.57-2.59,5.47-2.88a1.7,1.7,0,0,0-1.94-1.72,5.31,5.31,0,0,0-2.61.87l-.61-1.05a6.94,6.94,0,0,1,3.5-1.1,2.94,2.94,0,0,1,3.24,3.26V395h-1.3l-.13-1h0a5.09,5.09,0,0,1-3,1.19A2.34,2.34,0,0,1,234.05,393Zm5.47-.06v-1.81c-3,.22-3.93.83-3.93,1.75s.69,1.1,1.52,1.1A3.87,3.87,0,0,0,239.52,392.93Z"/><path d="M243.73,387.3H245l.13.93h0a4,4,0,0,1,2.57-1.12c2,0,3.17,1.54,3.17,3.94,0,2.63-1.64,4.17-3.47,4.17a3.43,3.43,0,0,1-2.2-1h0l.08,1.41v2.52h-1.58Zm5.6,3.76c0-1.62-.59-2.64-2-2.64a2.94,2.94,0,0,0-2,1v3.65a2.87,2.87,0,0,0,1.86.8C248.4,393.91,249.33,392.88,249.33,391.06Z"/><path d="M253.22,387.3h1.29l.13.93h.05a4,4,0,0,1,2.57-1.12c2.05,0,3.18,1.54,3.18,3.94,0,2.63-1.65,4.17-3.48,4.17a3.43,3.43,0,0,1-2.2-1h0l.08,1.41v2.52h-1.58Zm5.6,3.76c0-1.62-.59-2.64-2-2.64a2.94,2.94,0,0,0-2,1v3.65a2.87,2.87,0,0,0,1.86.8C257.89,393.91,258.82,392.88,258.82,391.06Z"/><path d="M262.35,391.15a3.9,3.9,0,0,1,4-4,3.36,3.36,0,0,1,3.57,3.65,5.71,5.71,0,0,1-.08.85h-6.36v-1.15h5.38l-.34.38c0-1.67-.81-2.51-2.12-2.51a2.51,2.51,0,0,0-2.46,2.82,2.61,2.61,0,0,0,2.85,2.84,4.23,4.23,0,0,0,2.26-.68l.55,1a5.45,5.45,0,0,1-3,.92A3.92,3.92,0,0,1,262.35,391.15Z"/><path d="M272.2,387.3h1.29l.13,1.23h.06a4,4,0,0,1,2.85-1.42c1.81,0,2.63,1.11,2.63,3.12V395h-1.58v-4.59c0-1.35-.45-2-1.6-2a3,3,0,0,0-2.2,1.23V395H272.2Z"/><path d="M281.2,391.18c0-2.52,1.66-4.07,3.45-4.07a3.17,3.17,0,0,1,2.23.94h0l-.07-1.35v-2.89h1.57V395h-1.28l-.13-1H287a3.58,3.58,0,0,1-2.43,1.15C282.53,395.22,281.2,393.74,281.2,391.18Zm5.64,1.69v-3.66a2.6,2.6,0,0,0-1.83-.79c-1.21,0-2.19,1.05-2.19,2.74s.78,2.75,2.07,2.75A2.57,2.57,0,0,0,286.84,392.87Z"/><path d="M291.24,384.67h3.36c2.12,0,3.72.76,3.72,3s-1.6,3.15-3.72,3.15h-1.76V395h-1.6Zm3.16,4.87c1.52,0,2.35-.62,2.35-1.87s-.83-1.73-2.35-1.73h-1.56v3.6Zm1.08-.05,3.19,5.54h-1.79l-2.6-4.64Z"/><path d="M300.18,391.18a3.85,3.85,0,1,1,3.85,4A3.82,3.82,0,0,1,300.18,391.18Zm6.09,0c0-1.67-.87-2.78-2.24-2.78s-2.23,1.11-2.23,2.78.86,2.74,2.23,2.74S306.27,392.83,306.27,391.18Z"/><path d="M308.88,387.3h1.55l.81,4.25c.13.74.23,1.43.32,2.17h.06a19.79,19.79,0,0,1,.42-2.17l.83-3.63h1.4l.81,3.63c.17.74.36,1.43.46,2.17h.06c.12-.74.19-1.43.32-2.17l.79-4.25h1.45L316.63,395h-1.95l-.77-3.38c-.12-.57-.24-1.33-.36-2.29h-.06c-.11.9-.22,1.64-.35,2.29L312.4,395h-1.94Z"/><path d="M322.22,386h-3.35v-1.34h8.28V386h-3.34v9h-1.59Z"/><path d="M328.65,391.18a3.85,3.85,0,1,1,3.85,4A3.82,3.82,0,0,1,328.65,391.18Zm6.09,0c0-1.67-.87-2.78-2.24-2.78s-2.23,1.11-2.23,2.78.86,2.74,2.23,2.74S334.74,392.83,334.74,391.18Z"/><path d="M338.24,393.7l.93-1.1a4.36,4.36,0,0,0,3,1.23c1.31,0,2-.6,2-1.44,0-1-.76-1.29-1.78-1.73l-1.46-.64a3,3,0,0,1-2.22-2.71c0-1.61,1.45-2.83,3.5-2.83a4.65,4.65,0,0,1,3.25,1.3l-.82,1a3.64,3.64,0,0,0-2.5-.92c-1.09,0-1.83.5-1.83,1.35s.9,1.23,1.81,1.58l1.41.62c1.3.51,2.27,1.26,2.27,2.78s-1.41,3-3.76,3A5.45,5.45,0,0,1,338.24,393.7Z"/><path d="M348.12,383.81h1.58v3l-.1,1.74h0a3.79,3.79,0,0,1,2.8-1.42c1.8,0,2.63,1.11,2.63,3.12V395H353.5v-4.59c0-1.35-.45-2-1.6-2a3,3,0,0,0-2.2,1.23V395h-1.58Z"/><path d="M357.25,391.15a3.89,3.89,0,0,1,4-4,3.35,3.35,0,0,1,3.56,3.65,5.91,5.91,0,0,1-.07.85h-6.36v-1.15h5.38l-.34.38c0-1.67-.81-2.51-2.12-2.51a2.51,2.51,0,0,0-2.47,2.82,2.62,2.62,0,0,0,2.86,2.84,4.17,4.17,0,0,0,2.25-.68l.56,1a5.45,5.45,0,0,1-3,.92A3.92,3.92,0,0,1,357.25,391.15Z"/><path d="M366.74,391.15a3.89,3.89,0,0,1,4-4,3.35,3.35,0,0,1,3.56,3.65,5.91,5.91,0,0,1-.07.85h-6.36v-1.15h5.38l-.34.38c0-1.67-.81-2.51-2.12-2.51a2.51,2.51,0,0,0-2.47,2.82,2.62,2.62,0,0,0,2.86,2.84,4.23,4.23,0,0,0,2.26-.68l.55,1a5.45,5.45,0,0,1-3,.92A3.92,3.92,0,0,1,366.74,391.15Z"/><path d="M378.33,392v-3.41H376.2v-1.18l2.2-.08.2-2.45h1.31v2.45h3.65v1.26h-3.65V392c0,1.32.47,2,1.87,2a5,5,0,0,0,1.76-.33l.32,1.15a7.19,7.19,0,0,1-2.45.45C379.1,395.22,378.33,393.91,378.33,392Z"/><path d="M234.05,579.51c0-1.74,1.57-2.59,5.47-2.88a1.7,1.7,0,0,0-1.94-1.73,5.41,5.41,0,0,0-2.61.87l-.61-1a7,7,0,0,1,3.5-1.09,2.94,2.94,0,0,1,3.24,3.26v4.66h-1.3l-.13-1h0a5,5,0,0,1-3,1.2A2.34,2.34,0,0,1,234.05,579.51Zm5.47-.06v-1.82c-3,.22-3.93.83-3.93,1.76,0,.77.69,1.09,1.52,1.09A3.86,3.86,0,0,0,239.52,579.45Z"/><path d="M243.73,573.82H245l.13.93h0a4,4,0,0,1,2.57-1.12c2,0,3.17,1.54,3.17,3.94,0,2.63-1.64,4.17-3.47,4.17a3.43,3.43,0,0,1-2.2-1h0l.08,1.41v2.52h-1.58Zm5.6,3.75c0-1.62-.59-2.63-2-2.63a2.92,2.92,0,0,0-2,1v3.66a2.9,2.9,0,0,0,1.86.79C248.4,580.42,249.33,579.4,249.33,577.57Z"/><path d="M253.22,573.82h1.29l.13.93h.05a4,4,0,0,1,2.57-1.12c2.05,0,3.18,1.54,3.18,3.94,0,2.63-1.65,4.17-3.48,4.17a3.43,3.43,0,0,1-2.2-1h0l.08,1.41v2.52h-1.58Zm5.6,3.75c0-1.62-.59-2.63-2-2.63a2.92,2.92,0,0,0-2,1v3.66a2.9,2.9,0,0,0,1.86.79C257.89,580.42,258.82,579.4,258.82,577.57Z"/><path d="M262.35,577.67a3.9,3.9,0,0,1,4-4,3.36,3.36,0,0,1,3.57,3.64,5.73,5.73,0,0,1-.08.86h-6.36V577h5.38l-.34.38c0-1.67-.81-2.51-2.12-2.51a2.51,2.51,0,0,0-2.46,2.82,2.61,2.61,0,0,0,2.85,2.83,4.23,4.23,0,0,0,2.26-.68l.55,1a5.53,5.53,0,0,1-3,.92A3.93,3.93,0,0,1,262.35,577.67Z"/><path d="M272.2,573.82h1.29l.13,1.23h.06a3.91,3.91,0,0,1,2.85-1.42c1.81,0,2.63,1.11,2.63,3.12v4.8h-1.58V577c0-1.35-.45-2-1.6-2a3,3,0,0,0-2.2,1.23v5.34H272.2Z"/><path d="M281.2,577.69c0-2.51,1.66-4.06,3.45-4.06a3.13,3.13,0,0,1,2.23.94h0l-.07-1.36v-2.88h1.57v11.22h-1.28l-.13-1H287a3.58,3.58,0,0,1-2.43,1.15C282.53,581.74,281.2,580.26,281.2,577.69Zm5.64,1.7v-3.66a2.6,2.6,0,0,0-1.83-.79c-1.21,0-2.19,1-2.19,2.73s.78,2.75,2.07,2.75A2.56,2.56,0,0,0,286.84,579.39Z"/><path d="M291.24,571.18h3.36c2.12,0,3.72.76,3.72,3s-1.6,3.15-3.72,3.15h-1.76v4.21h-1.6Zm3.16,4.88c1.52,0,2.35-.63,2.35-1.87s-.83-1.73-2.35-1.73h-1.56v3.6Zm1.08,0,3.19,5.54h-1.79l-2.6-4.64Z"/><path d="M300.18,577.69a3.85,3.85,0,1,1,3.85,4A3.81,3.81,0,0,1,300.18,577.69Zm6.09,0c0-1.66-.87-2.77-2.24-2.77s-2.23,1.11-2.23,2.77.86,2.75,2.23,2.75S306.27,579.35,306.27,577.69Z"/><path d="M308.88,573.82h1.55l.81,4.24c.13.74.23,1.43.32,2.18h.06a20,20,0,0,1,.42-2.18l.83-3.62h1.4l.81,3.62c.17.74.36,1.43.46,2.18h.06c.12-.75.19-1.44.32-2.18l.79-4.24h1.45l-1.53,7.73h-1.95l-.77-3.38c-.12-.58-.24-1.34-.36-2.29h-.06c-.11.89-.22,1.63-.35,2.29l-.74,3.38h-1.94Z"/><path d="M322.22,572.52h-3.35v-1.34h8.28v1.34h-3.34v9h-1.59Z"/><path d="M328.65,577.69a3.85,3.85,0,1,1,3.85,4A3.81,3.81,0,0,1,328.65,577.69Zm6.09,0c0-1.66-.87-2.77-2.24-2.77s-2.23,1.11-2.23,2.77.86,2.75,2.23,2.75S334.74,579.35,334.74,577.69Z"/><path d="M338.24,580.21l.93-1.09a4.36,4.36,0,0,0,3,1.23c1.31,0,2-.61,2-1.44,0-1-.76-1.29-1.78-1.73l-1.46-.64a3,3,0,0,1-2.22-2.71c0-1.61,1.45-2.84,3.5-2.84a4.65,4.65,0,0,1,3.25,1.3l-.82,1a3.65,3.65,0,0,0-2.5-.93c-1.09,0-1.83.51-1.83,1.36s.9,1.22,1.81,1.58l1.41.62c1.3.5,2.27,1.26,2.27,2.78s-1.41,3-3.76,3A5.42,5.42,0,0,1,338.24,580.21Z"/><path d="M348.12,570.33h1.58v3l-.1,1.74h0a3.78,3.78,0,0,1,2.8-1.41c1.8,0,2.63,1.11,2.63,3.12v4.8H353.5V577c0-1.35-.45-2-1.6-2a3,3,0,0,0-2.2,1.23v5.34h-1.58Z"/><path d="M357.25,577.67a3.89,3.89,0,0,1,4-4,3.35,3.35,0,0,1,3.56,3.64,5.94,5.94,0,0,1-.07.86h-6.36V577h5.38l-.34.38c0-1.67-.81-2.51-2.12-2.51a2.51,2.51,0,0,0-2.47,2.82,2.61,2.61,0,0,0,2.86,2.83,4.17,4.17,0,0,0,2.25-.68l.56,1a5.53,5.53,0,0,1-3,.92A3.93,3.93,0,0,1,357.25,577.67Z"/><path d="M366.74,577.67a3.89,3.89,0,0,1,4-4,3.35,3.35,0,0,1,3.56,3.64,5.94,5.94,0,0,1-.07.86h-6.36V577h5.38l-.34.38c0-1.67-.81-2.51-2.12-2.51a2.51,2.51,0,0,0-2.47,2.82,2.61,2.61,0,0,0,2.86,2.83,4.23,4.23,0,0,0,2.26-.68l.55,1a5.53,5.53,0,0,1-3,.92A3.93,3.93,0,0,1,366.74,577.67Z"/><path d="M378.33,578.49v-3.42H376.2V573.9l2.2-.08.2-2.46h1.31v2.46h3.65v1.25h-3.65v3.42c0,1.33.47,2,1.87,2a5,5,0,0,0,1.76-.33l.32,1.15a7.19,7.19,0,0,1-2.45.45C379.1,581.74,378.33,580.43,378.33,578.49Z"/><path d="M234.05,212.21a2,2,0,0,1,1.25-1.67v-.07a1.41,1.41,0,0,1-.79-1.28,1.88,1.88,0,0,1,.92-1.45v-.06a2.47,2.47,0,0,1-1-2,2.86,2.86,0,0,1,3.11-2.78,3.32,3.32,0,0,1,1.18.19h3.18v1.23h-1.88a2.17,2.17,0,0,1,.56,1.41c0,1.69-1.34,2.64-3,2.64a3.42,3.42,0,0,1-1.24-.25,1,1,0,0,0-.54.81c0,.55.55.81,1.53.81H239c2,0,3,.52,3,1.85,0,1.49-1.7,2.72-4.38,2.72C235.4,214.31,234.05,213.58,234.05,212.21Zm6.4-.37c0-.67-.56-.84-1.66-.84h-1.37a4.37,4.37,0,0,1-1.18-.13c-.64.36-.87.75-.87,1.15,0,.75.85,1.21,2.38,1.21S240.45,212.57,240.45,211.84Zm-1.26-6.16a1.62,1.62,0,1,0-1.62,1.68A1.59,1.59,0,0,0,239.19,205.68Z"/><path d="M243.5,206.94a3.91,3.91,0,0,1,4-4,3.35,3.35,0,0,1,3.56,3.65,6.2,6.2,0,0,1-.07.86h-6.37v-1.16H250l-.34.39c0-1.68-.81-2.52-2.12-2.52a2.51,2.51,0,0,0-2.46,2.82,2.61,2.61,0,0,0,2.85,2.84,4.2,4.2,0,0,0,2.26-.68l.55,1a5.4,5.4,0,0,1-3,.92A3.93,3.93,0,0,1,243.5,206.94Z"/><path d="M255.1,207.76v-3.41H253v-1.18l2.19-.08.21-2.45h1.31v2.45h3.64v1.26h-3.64v3.42c0,1.33.47,2,1.87,2a5,5,0,0,0,1.76-.33l.32,1.15a7.19,7.19,0,0,1-2.45.45C255.87,211,255.1,209.7,255.1,207.76Z"/><path class="cls-6" d="M107.72,238.92a3.64,3.64,0,0,1,3.65,3.94,3.7,3.7,0,0,1-3.65,4,3.33,3.33,0,0,1-2.87-1.54v5.06h-1.27V239.05h1.27v1.41A3.24,3.24,0,0,1,107.72,238.92Zm-.26,1.11a2.86,2.86,0,1,0,2.6,2.83A2.59,2.59,0,0,0,107.46,240Z"/><path class="cls-6" d="M114.32,246.72H113v-7.67h1.28v1.24a2.58,2.58,0,0,1,2.48-1.38v1.31h-.34c-1.22,0-2.14.55-2.14,2.33Z"/><path class="cls-6" d="M121,246.85c-1.79,0-3-1-3.14-2.38h1.32c.07.74.73,1.3,1.81,1.3s1.56-.5,1.56-1.13c0-1.71-4.53-.72-4.53-3.58,0-1.17,1.1-2.14,2.81-2.14s2.82.91,2.9,2.41h-1.27a1.48,1.48,0,0,0-1.67-1.33c-.94,0-1.5.45-1.5,1.06,0,1.83,4.46.83,4.51,3.58C123.78,245.9,122.68,246.85,121,246.85Z"/><path class="cls-6" d="M412.07,84.87a3.38,3.38,0,0,1,3.06,1.64V85h1.38v8.41a3.69,3.69,0,0,1-3.93,3.88c-2.17,0-3.71-1.1-4-2.86H410a2.56,2.56,0,0,0,2.63,1.67,2.44,2.44,0,0,0,2.55-2.69V91.68a3.44,3.44,0,0,1-3.06,1.69,4,4,0,0,1-3.91-4.28A3.9,3.9,0,0,1,412.07,84.87Zm.27,1.18a2.79,2.79,0,0,0-2.78,3,2.8,2.8,0,1,0,2.78-3Z"/><path class="cls-6" d="M418.6,82.74a.92.92,0,0,1,.93-.93.93.93,0,0,1,0,1.86A.92.92,0,0,1,418.6,82.74Zm.23,2.26h1.36v8.23h-1.36Z"/><path class="cls-6" d="M422.82,86.13h-1.06V85h1.06V82.93h1.37V85h2.15v1.13h-2.15V91c0,.81.3,1.1,1.14,1.1h1v1.15H425.1c-1.45,0-2.28-.6-2.28-2.25Z"/><path class="cls-6" d="M428,82.12h1.37v4.07a3.09,3.09,0,0,1,2.71-1.34c1.84,0,3.29,1.17,3.29,3.53v4.85H434V88.58c0-1.68-.91-2.54-2.3-2.54s-2.35.87-2.35,2.64v4.55H428Z"/><path class="cls-6" d="M444.9,93.23h-1.37V92a3,3,0,0,1-2.62,1.33,3.21,3.21,0,0,1-3.38-3.53V85h1.35v4.64a2.21,2.21,0,0,0,2.3,2.53c1.41,0,2.35-.87,2.35-2.65V85h1.37Z"/><path class="cls-6" d="M451.66,84.87a3.89,3.89,0,0,1,3.9,4.22,4,4,0,0,1-3.9,4.28,3.44,3.44,0,0,1-3.08-1.65v1.51h-1.36V82.12h1.36v4.42A3.48,3.48,0,0,1,451.66,84.87Zm-.28,1.18a3.07,3.07,0,1,0,2.79,3A2.79,2.79,0,0,0,451.38,86.05Z"/><path class="cls-6" d="M448.08,269.92a3.41,3.41,0,0,1,3.07,1.64v-1.5h1.38v8.41a3.69,3.69,0,0,1-3.94,3.87c-2.16,0-3.71-1.1-4-2.85H446a2.53,2.53,0,0,0,2.62,1.66,2.44,2.44,0,0,0,2.56-2.68v-1.73a3.45,3.45,0,0,1-3.07,1.68,4,4,0,0,1-3.9-4.28A3.89,3.89,0,0,1,448.08,269.92Zm.27,1.19a2.78,2.78,0,0,0-2.78,3,2.8,2.8,0,1,0,2.78-3Z"/><path class="cls-6" d="M457.76,278.42c-1.93,0-3.28-1.05-3.37-2.55h1.41c.08.79.78,1.39,1.94,1.39s1.68-.54,1.68-1.21c0-1.83-4.86-.77-4.86-3.83,0-1.26,1.18-2.3,3-2.3s3,1,3.11,2.59h-1.36a1.58,1.58,0,0,0-1.79-1.43c-1,0-1.61.48-1.61,1.14,0,1.95,4.78.89,4.84,3.83C460.76,277.4,459.57,278.42,457.76,278.42Z"/><path class="cls-6" d="M462.68,267.17h1.37v4.07a3.09,3.09,0,0,1,2.72-1.33,3.18,3.18,0,0,1,3.29,3.53v4.85H468.7v-4.66c0-1.68-.91-2.54-2.29-2.54s-2.36.87-2.36,2.65v4.55h-1.37Z"/><path class="cls-6" d="M475.86,278.42a4,4,0,0,1-4.07-4.26,3.92,3.92,0,0,1,4.07-4.24,3.77,3.77,0,0,1,3.94,3.94,7.27,7.27,0,0,1,0,.82h-6.58a2.59,2.59,0,0,0,2.68,2.58,2.26,2.26,0,0,0,2.31-1.51h1.47A3.7,3.7,0,0,1,475.86,278.42Zm-2.66-4.85h5.19a2.4,2.4,0,0,0-2.59-2.49A2.54,2.54,0,0,0,473.2,273.57Z"/><path class="cls-6" d="M485.17,278.42a4,4,0,0,1-4.07-4.26,3.92,3.92,0,0,1,4.07-4.24,3.77,3.77,0,0,1,3.95,3.94,7.22,7.22,0,0,1-.05.82H482.5a2.58,2.58,0,0,0,2.67,2.58,2.26,2.26,0,0,0,2.31-1.51H489A3.7,3.7,0,0,1,485.17,278.42Zm-2.66-4.85h5.2a2.42,2.42,0,0,0-2.6-2.49A2.54,2.54,0,0,0,482.51,273.57Z"/><path class="cls-6" d="M491.22,271.18h-1.06v-1.12h1.06V268h1.37v2.07h2.15v1.12h-2.15V276c0,.81.3,1.1,1.14,1.1h1v1.16h-1.23c-1.46,0-2.29-.61-2.29-2.26Z"/><path class="cls-6" d="M499.31,278.42c-1.93,0-3.28-1.05-3.37-2.55h1.41c.08.79.78,1.39,1.94,1.39s1.68-.54,1.68-1.21c0-1.83-4.86-.77-4.86-3.83,0-1.26,1.18-2.3,3-2.3s3,1,3.11,2.59h-1.36a1.59,1.59,0,0,0-1.79-1.43c-1,0-1.61.48-1.61,1.14,0,1.95,4.78.89,4.84,3.83C502.31,277.4,501.12,278.42,499.31,278.42Z"/><line class="cls-33" x1="428.5" y1="136.28" x2="428.5" y2="123.41"/><polygon class="cls-6" points="434.19 128.02 433.17 128.97 428.5 123.94 423.83 128.97 422.81 128.02 428.5 121.9 434.19 128.02"/><line class="cls-33" x1="441.49" y1="127.65" x2="441.49" y2="144.84"/><polygon class="cls-6" points="435.8 140.23 436.82 139.28 441.49 144.31 446.16 139.28 447.18 140.23 441.49 146.35 435.8 140.23"/><path class="cls-33" d="M447.79,146.75a2.77,2.77,0,0,1-2.76,2.77H432.15"/><polygon class="cls-6" points="416.9 141.5 423.19 137.87 429.47 141.5 429.47 148.75 423.19 152.38 416.9 148.75 416.9 141.5"/><polygon class="cls-34" points="420.72 143.16 420.72 140.65 422.82 140.65 422.82 143.97 420.72 143.16"/><polygon class="cls-34" points="420.72 143.95 422.16 144.5 420.72 145.05 420.72 143.95"/><polygon class="cls-34" points="422.82 145.03 422.82 146.25 421.8 149.61 420.72 149.61 420.72 145.84 422.82 145.03"/><polygon class="cls-34" points="425.66 143.16 425.66 140.65 423.55 140.65 423.55 143.97 425.66 143.16"/><polygon class="cls-34" points="425.66 143.95 424.22 144.5 425.66 145.05 425.66 143.95"/><polygon class="cls-34" points="423.55 145.03 423.55 146.25 424.58 149.61 425.66 149.61 425.66 145.84 423.55 145.03"/><rect class="cls-35" x="379.64" y="508.7" width="13.24" height="13.24" rx="1.77"/><line class="cls-36" x1="383.67" y1="515.32" x2="388.85" y2="515.32"/><polyline class="cls-37" points="384.52 511.38 386.24 513.2 388 511.38"/><polyline class="cls-37" points="388 519.26 386.29 517.45 384.52 519.26"/></svg>