<?xml version="1.0" encoding="utf-8"?>
<!-- Generator: Adobe Illustrator 16.0.0, SVG Export Plug-In . SVG Version: 6.00 Build 0)  -->
<!DOCTYPE svg PUBLIC "-//W3C//DTD SVG 1.1//EN" "http://www.w3.org/Graphics/SVG/1.1/DTD/svg11.dtd">
<svg version="1.1" id="Layer_1" xmlns="http://www.w3.org/2000/svg" xmlns:xlink="http://www.w3.org/1999/xlink" x="0px" y="0px"
	 width="17.062px" height="19.154px" viewBox="0 0 17.062 19.154" enable-background="new 0 0 17.062 19.154" xml:space="preserve">
<g>
	<rect x="3.732" y="0.296" fill="#FFFFFF" width="12.897" height="15.059"/>
	
		<rect x="3.732" y="0.296" fill="#FFFFFF" stroke="#A7A8AB" stroke-width="0.4915" stroke-miterlimit="10" width="12.897" height="15.059"/>
	<path fill="#FFFFFF" d="M5.17,4.545h8.392H5.17z"/>
	
		<line fill="#FFFFFF" stroke="#A7A8AB" stroke-width="0.4915" stroke-miterlimit="10" x1="5.17" y1="4.545" x2="13.562" y2="4.545"/>
	<path fill="#FFFFFF" d="M5.17,7.649h8.392H5.17z"/>
	<line fill="#FFFFFF" stroke="#A7A8AB" stroke-width="0.4915" stroke-miterlimit="10" x1="5.17" y1="7.65" x2="13.562" y2="7.65"/>
	<path fill="#FFFFFF" d="M5.17,10.896h3.885H5.17z"/>
	
		<line fill="#FFFFFF" stroke="#A7A8AB" stroke-width="0.4915" stroke-miterlimit="10" x1="5.17" y1="10.896" x2="9.055" y2="10.896"/>
	<rect x="0.349" y="3.575" fill="#FFFFFF" width="12.897" height="15.058"/>
	
		<rect x="0.349" y="3.575" fill="#FFFFFF" stroke="#A7A8AB" stroke-width="0.4915" stroke-miterlimit="10" width="12.897" height="15.058"/>
	<path fill="#FFFFFF" d="M1.787,7.824h8.392H1.787z"/>
	
		<line fill="#FFFFFF" stroke="#A7A8AB" stroke-width="0.4915" stroke-miterlimit="10" x1="1.787" y1="7.824" x2="10.18" y2="7.824"/>
	<path fill="#FFFFFF" d="M1.787,10.928h8.392H1.787z"/>
	
		<line fill="#FFFFFF" stroke="#A7A8AB" stroke-width="0.4915" stroke-miterlimit="10" x1="1.787" y1="10.928" x2="10.18" y2="10.928"/>
	<path fill="#FFFFFF" d="M1.787,14.173h3.886H1.787z"/>
	
		<line fill="#FFFFFF" stroke="#A7A8AB" stroke-width="0.4915" stroke-miterlimit="10" x1="1.787" y1="14.173" x2="5.673" y2="14.173"/>
</g>
</svg>
