<?xml version="1.0" encoding="utf-8"?>
<!-- Generator: Adobe Illustrator 16.0.0, SVG Export Plug-In . SVG Version: 6.00 Build 0)  -->
<!DOCTYPE svg PUBLIC "-//W3C//DTD SVG 1.1//EN" "http://www.w3.org/Graphics/SVG/1.1/DTD/svg11.dtd">
<svg version="1.1" id="Layer_1" xmlns="http://www.w3.org/2000/svg" xmlns:xlink="http://www.w3.org/1999/xlink" x="0px" y="0px"
	 width="32.6px" height="31.8px" viewBox="0 0 32.6 31.8" enable-background="new 0 0 32.6 31.8" xml:space="preserve">
<path fill="#878686" d="M16.3,0C7.3,0,0,7.3,0,16.3c0,7.2,4.7,13.3,11.1,15.5C11.9,31.9,12.2,31.4,12.2,31c0-0.399,0-1.399,0-2.799
	C7.7,29.201,6.7,26,6.7,26C6,24.1,4.9,23.6,4.9,23.6c-1.5-1,0.101-1,0.101-1c1.6,0.101,2.5,1.7,2.5,1.7c1.5,2.5,3.8,1.8,4.7,1.4
	c0.1-1.101,0.6-1.801,1-2.201C9.6,23.1,5.8,21.701,5.8,15.4c0-1.8,0.6-3.2,1.7-4.4C7.4,10.7,6.8,9,7.7,6.8c0,0,1.399-0.4,4.5,1.7
	C13.5,8.1,14.9,8,16.3,8s2.8,0.2,4.1,0.5c3.101-2.1,4.5-1.7,4.5-1.7c0.9,2.2,0.301,3.9,0.2,4.3c1,1.1,1.7,2.6,1.7,4.4
	c0,6.3-3.8,7.6-7.4,8C20,24,20.5,25,20.5,26.5c0,2.201,0,3.9,0,4.5c0,0.4,0.3,0.9,1.1,0.801C28.1,29.6,32.7,23.5,32.7,16.3
	C32.6,7.3,25.3,0,16.3,0z"/>
</svg>
