<?xml version="1.0" encoding="utf-8"?>
<!-- Generator: Adobe Illustrator 16.0.0, SVG Export Plug-In . SVG Version: 6.00 Build 0)  -->
<!DOCTYPE svg PUBLIC "-//W3C//DTD SVG 1.1//EN" "http://www.w3.org/Graphics/SVG/1.1/DTD/svg11.dtd">
<svg version="1.1" id="Layer_1" xmlns="http://www.w3.org/2000/svg" xmlns:xlink="http://www.w3.org/1999/xlink" x="0px" y="0px"
	 width="30px" height="30px" viewBox="0 0 30 30" enable-background="new 0 0 30 30" xml:space="preserve">
<path fill="#A7A8AB" d="M14.999,29.545C6.978,29.545,0.455,23.021,0.455,15c0-8.018,6.522-14.545,14.544-14.545
	c8.02,0,14.545,6.527,14.545,14.545C29.544,23.021,23.019,29.545,14.999,29.545 M14.999,2.359C8.028,2.359,2.358,8.031,2.358,15
	c0,6.972,5.67,12.642,12.641,12.642c6.97,0,12.642-5.67,12.642-12.642C27.641,8.031,21.969,2.359,14.999,2.359"/>
<path fill="#A7A8AB" d="M14.999,29.545c-4.666,0-8.319-6.387-8.319-14.544c0-8.155,3.653-14.545,8.319-14.545
	c4.664,0,8.32,6.39,8.32,14.545C23.319,23.158,19.663,29.545,14.999,29.545 M14.999,2.359c-3.479,0-6.416,5.79-6.416,12.642
	c0,6.853,2.937,12.642,6.416,12.642c3.478,0,6.417-5.789,6.417-12.642C21.416,8.149,18.477,2.359,14.999,2.359"/>
<rect x="0.555" y="14.05" fill="#A7A8AB" width="28.884" height="1.901"/>
<rect x="14.046" y="0.839" fill="#A7A8AB" width="1.903" height="28.323"/>
</svg>
