<?xml version="1.0" encoding="utf-8"?>
<!-- Generator: Adobe Illustrator 16.0.0, SVG Export Plug-In . SVG Version: 6.00 Build 0)  -->
<!DOCTYPE svg PUBLIC "-//W3C//DTD SVG 1.1//EN" "http://www.w3.org/Graphics/SVG/1.1/DTD/svg11.dtd">
<svg version="1.1" id="Layer_1" xmlns="http://www.w3.org/2000/svg" xmlns:xlink="http://www.w3.org/1999/xlink" x="0px" y="0px"
	 width="18.836px" height="15.309px" viewBox="0 0 18.836 15.309" enable-background="new 0 0 18.836 15.309" xml:space="preserve">
<path fill-rule="evenodd" clip-rule="evenodd" fill="#20B6B0" d="M1.938,7.827v7.482h3.563V7.217v-2.1H1.938V7.827z M17.14,8.248
	c-0.236-1.931-1.117-3.131-3.725-3.131c-1.527,0-2.559,0.562-2.991,1.378h-0.046V5.117H7.536v1.959v8.233h2.973v-5.055
	c0-1.331,0.263-2.615,1.896-2.615c1.64,0,1.761,1.519,1.761,2.71v4.96h3.058V9.711C17.223,9.186,17.194,8.698,17.14,8.248
	L17.14,8.248z M3.72,0.025c-0.984,0-1.781,0.797-1.781,1.782c0,0.985,0.797,1.781,1.781,1.781c0.984,0,1.782-0.796,1.782-1.781
	C5.501,0.823,4.704,0.025,3.72,0.025L3.72,0.025z"/>
</svg>
