<svg enable-background="new 0 0 452.664 497.436" height="497.436" viewBox="0 0 452.664 497.436" width="452.664" xmlns="http://www.w3.org/2000/svg"><path d="m0 0h452.664v497.436h-452.664z" fill="#fff"/><path d="m155.837 413.654h281.775v25h-281.775z" fill="#f5f6f6"/><path d="m252.539 425.867c.381.121.693.354.936.695.242.344.363.723.363 1.139 0 .736-.24 1.303-.721 1.695-.48.395-1.143.592-1.982.592h-3.055v-7.982h2.795c.85 0 1.512.188 1.988.561s.715.91.715 1.611c0 .416-.098.775-.291 1.078-.195.304-.445.507-.748.611zm-3.146-.506h1.469c.945 0 1.418-.369 1.418-1.105 0-.719-.473-1.078-1.418-1.078h-1.469zm0 1.117v2.34h1.717c.449 0 .797-.104 1.039-.312.242-.207.365-.492.365-.857 0-.363-.123-.65-.365-.857-.242-.209-.59-.312-1.039-.312h-1.717z" fill="#595b5f"/><path d="m258.012 422.005h1.301l3.068 7.982h-1.379l-.818-2.209h-3.055l-.82 2.209h-1.365zm.636 1.653-1.092 2.951h2.184z" fill="#595b5f"/><path d="m263.85 429.988v-7.982h1.352v6.773h3.836v1.209z" fill="#595b5f"/><path d="m270.738 429.988v-7.982h1.352v6.773h3.836v1.209z" fill="#595b5f"/><path d="m277.627 422.005h5.213v1.197h-3.887v2.105h3.523v1.184h-3.523v2.287h3.887v1.209h-5.213z" fill="#595b5f"/><path d="m286.949 426.751h-.963v3.236h-1.352v-7.982h3.08c.842 0 1.504.207 1.99.619.484.41.727 1.002.727 1.773 0 .658-.18 1.182-.539 1.566-.359.387-.859.631-1.502.734l2.314 3.289h-1.533zm-.963-3.574v2.443h1.703c.441 0 .787-.111 1.033-.332.248-.221.371-.518.371-.891s-.123-.67-.371-.891c-.246-.221-.592-.33-1.033-.33h-1.703z" fill="#595b5f"/><path d="m293.527 422.005v7.982h-1.354v-7.982z" fill="#595b5f"/><path d="m302.041 422.005v7.982h-1.039l-4.082-5.811v5.811h-1.301v-7.982h1.275l3.848 5.539v-5.539z" fill="#595b5f"/><path d="m306.578 422.005h1.299l3.068 7.982h-1.377l-.82-2.209h-3.055l-.818 2.209h-1.365zm.637 1.653-1.092 2.951h2.184z" fill="#595b5f"/><path d="m318.693 427.011h-1.729v2.977h-1.352v-7.982h3.08c.842 0 1.506.217 1.996.65s.734 1.053.734 1.859c0 .797-.244 1.412-.734 1.846s-1.153.65-1.995.65zm1.393-2.496c0-.406-.123-.732-.365-.975s-.594-.363-1.053-.363h-1.703v2.664h1.703c.451 0 .799-.121 1.047-.363.246-.244.371-.564.371-.963z" fill="#595b5f"/><path d="m328.424 429.267c-.576.568-1.354.852-2.332.852-.98 0-1.758-.283-2.334-.852s-.865-1.389-.865-2.463v-4.799h1.354v4.654c0 1.5.615 2.25 1.846 2.25s1.846-.75 1.846-2.25v-4.654h1.352v4.811c-.002 1.066-.291 1.883-.867 2.451z" fill="#595b5f"/><path d="m330.629 427.779h1.377c.252.797.854 1.195 1.809 1.195.467 0 .842-.105 1.123-.318s.424-.5.424-.865c0-.285-.09-.514-.268-.682-.178-.17-.475-.301-.891-.396l-1.352-.324c-1.326-.312-1.988-1.027-1.988-2.146 0-.684.252-1.25.76-1.695.508-.447 1.158-.67 1.957-.67.84 0 1.518.197 2.033.592s.848.934.996 1.617h-1.354c-.25-.709-.805-1.064-1.664-1.064-.432 0-.781.102-1.045.305-.266.203-.396.471-.396.799 0 .529.35.877 1.053 1.041l1.391.324c.65.148 1.156.408 1.521.781.363.371.545.85.545 1.43 0 .736-.264 1.324-.793 1.762-.527.438-1.213.656-2.053.656-.85 0-1.559-.207-2.127-.617-.566-.415-.919-.989-1.058-1.725z" fill="#595b5f"/><path d="m343.693 422.005h1.352v7.982h-1.352v-3.496h-4.018v3.496h-1.352v-7.982h1.352v3.289h4.018z" fill="#595b5f"/><path d="m14.75 15.341h126.793v467h-126.793z" fill="#f5f6f6"/><path d="m65.822 30.583 2.105-3.575h1.432l-2.9 4.797v3.185h-1.338v-3.185l-2.887-4.797h1.469z" fill="#595b5f"/><path d="m76.664 28.042c.693.776 1.041 1.762 1.041 2.958s-.348 2.182-1.041 2.958-1.576 1.164-2.652 1.164c-1.074 0-1.955-.388-2.645-1.164-.689-.775-1.033-1.761-1.033-2.958 0-1.196.344-2.182 1.033-2.958.689-.775 1.57-1.163 2.645-1.163 1.076 0 1.959.388 2.652 1.163zm-.969 5.051c.43-.546.645-1.244.645-2.093s-.215-1.547-.645-2.093c-.428-.546-.99-.819-1.684-.819s-1.252.271-1.676.812c-.426.542-.637 1.241-.637 2.099s.211 1.558.637 2.1c.424.542.982.812 1.676.812s1.257-.272 1.684-.818z" fill="#595b5f"/><path d="m84.77 34.269c-.576.568-1.354.852-2.332.852-.98 0-1.758-.284-2.334-.852-.576-.567-.865-1.389-.865-2.463v-4.797h1.354v4.654c0 1.5.615 2.249 1.846 2.249s1.846-.75 1.846-2.249v-4.654h1.352v4.81c-.002 1.066-.291 1.883-.867 2.45z" fill="#595b5f"/><path d="m89.912 31.754h-.963v3.237h-1.352v-7.982h3.08c.842 0 1.504.206 1.99.618.484.412.727 1.003.727 1.774 0 .659-.18 1.181-.539 1.566s-.859.63-1.502.734l2.314 3.289h-1.533zm-.963-3.575v2.444h1.703c.441 0 .787-.11 1.033-.332.248-.221.371-.518.371-.89s-.123-.669-.371-.891c-.246-.221-.592-.332-1.033-.332h-1.703z" fill="#595b5f"/><path d="m31.262 42.009h5.213v1.196h-3.887v2.106h3.523v1.183h-3.523v2.288h3.887v1.209h-5.213z" fill="#595b5f"/><path d="m44.574 42.009-2.703 3.887 2.834 4.095h-1.547l-2.068-3.003-2.066 3.003h-1.508l2.82-4.069-2.691-3.913h1.547l1.926 2.821 1.963-2.821z" fill="#595b5f"/><path d="m47.396 42.009v7.982h-1.354v-7.982z" fill="#595b5f"/><path d="m48.863 47.781h1.379c.252.797.854 1.196 1.807 1.196.469 0 .844-.106 1.125-.318s.422-.5.422-.864c0-.286-.088-.514-.266-.683s-.475-.301-.891-.396l-1.352-.325c-1.326-.312-1.99-1.027-1.99-2.145 0-.685.254-1.25.762-1.696.506-.446 1.158-.669 1.955-.669.842 0 1.52.197 2.035.591.516.395.848.934.994 1.619h-1.352c-.252-.71-.807-1.066-1.664-1.066-.434 0-.783.102-1.047.305s-.396.47-.396.8c0 .528.352.875 1.053 1.04l1.391.325c.65.147 1.158.408 1.521.78.365.373.547.849.547 1.43 0 .737-.266 1.324-.793 1.762-.529.438-1.215.656-2.055.656-.85 0-1.559-.206-2.125-.617-.568-.414-.921-.988-1.06-1.725z" fill="#595b5f"/><path d="m56.066 43.205v-1.196h6.656v1.196h-2.652v6.786h-1.352v-6.786z" fill="#595b5f"/><path d="m65.674 42.009v7.982h-1.354v-7.982z" fill="#595b5f"/><path d="m74.188 42.009v7.982h-1.039l-4.082-5.811v5.811h-1.301v-7.982h1.275l3.848 5.538v-5.538z" fill="#595b5f"/><path d="m81.715 47.027h-1.742v-1.157h3.029v.624c0 1.092-.318 1.97-.955 2.633s-1.449.994-2.438.994c-1.084 0-1.98-.383-2.691-1.15s-1.066-1.758-1.066-2.971.354-2.203 1.061-2.97c.705-.767 1.588-1.15 2.645-1.15.893 0 1.623.234 2.191.702.566.468.93 1.11 1.084 1.924h-1.353c-.174-.459-.408-.808-.707-1.047-.301-.238-.705-.357-1.217-.357-.701 0-1.268.271-1.695.812-.43.542-.645 1.237-.645 2.086 0 .858.217 1.56.65 2.106.434.546 1.014.819 1.742.819.588 0 1.066-.171 1.43-.514.364-.342.591-.804.677-1.384z" fill="#595b5f"/><path d="m87.369 43.205v-1.196h6.656v1.196h-2.652v6.786h-1.352v-6.786z" fill="#595b5f"/><path d="m101.525 43.042c.693.776 1.041 1.762 1.041 2.958s-.348 2.182-1.041 2.958-1.576 1.164-2.652 1.164c-1.074 0-1.955-.388-2.645-1.164-.689-.775-1.033-1.761-1.033-2.958 0-1.196.344-2.182 1.033-2.958.689-.775 1.57-1.163 2.645-1.163 1.076 0 1.959.388 2.652 1.163zm-.968 5.051c.43-.546.645-1.244.645-2.093s-.215-1.547-.645-2.093c-.428-.546-.99-.819-1.684-.819s-1.252.271-1.676.812c-.426.542-.637 1.241-.637 2.099s.211 1.558.637 2.1c.424.542.982.812 1.676.812s1.256-.272 1.684-.818z" fill="#595b5f"/><path d="m110.133 43.042c.693.776 1.039 1.762 1.039 2.958s-.346 2.182-1.039 2.958-1.578 1.164-2.652 1.164-1.957-.388-2.646-1.164c-.688-.775-1.033-1.761-1.033-2.958 0-1.196.346-2.182 1.033-2.958.689-.775 1.572-1.163 2.646-1.163s1.958.388 2.652 1.163zm-.969 5.051c.428-.546.643-1.244.643-2.093s-.215-1.547-.643-2.093c-.43-.546-.99-.819-1.684-.819s-1.252.271-1.678.812c-.424.542-.637 1.241-.637 2.099s.213 1.558.637 2.1c.426.542.984.812 1.678.812s1.254-.272 1.684-.818z" fill="#595b5f"/><path d="m112.836 49.991v-7.982h1.354v6.773h3.834v1.209z" fill="#595b5f"/><path d="m119.102 47.781h1.377c.252.797.854 1.196 1.809 1.196.467 0 .842-.106 1.123-.318s.424-.5.424-.864c0-.286-.09-.514-.268-.683s-.475-.301-.891-.396l-1.352-.325c-1.326-.312-1.988-1.027-1.988-2.145 0-.685.252-1.25.76-1.696s1.158-.669 1.957-.669c.84 0 1.518.197 2.033.591.516.395.848.934.996 1.619h-1.354c-.25-.71-.805-1.066-1.664-1.066-.432 0-.781.102-1.045.305-.266.204-.396.47-.396.8 0 .528.35.875 1.053 1.04l1.391.325c.65.147 1.156.408 1.521.78.363.373.545.849.545 1.43 0 .737-.264 1.324-.793 1.762-.527.438-1.213.656-2.053.656-.85 0-1.559-.206-2.127-.617-.566-.414-.92-.988-1.058-1.725z" fill="#595b5f"/><path d="m236.355 27.042c.382.122.693.354.937.696.242.342.363.721.363 1.137 0 .737-.24 1.302-.721 1.697-.481.394-1.143.591-1.982.591h-3.056v-7.982h2.795c.85 0 1.513.187 1.989.559s.715.91.715 1.612c0 .416-.098.776-.292 1.079-.195.303-.444.507-.748.611zm-3.145-.507h1.469c.944 0 1.417-.368 1.417-1.105 0-.719-.473-1.079-1.417-1.079h-1.469zm0 1.118v2.34h1.716c.45 0 .797-.104 1.04-.312.242-.208.364-.494.364-.858s-.122-.65-.364-.858c-.243-.208-.59-.312-1.04-.312z" fill="#595b5f"/><path d="m241.829 23.181h1.3l3.068 7.982h-1.378l-.819-2.21h-3.055l-.819 2.21h-1.365zm.637 1.651-1.092 2.951h2.184z" fill="#595b5f"/><path d="m247.666 31.163v-7.982h1.353v6.773h3.835v1.209z" fill="#595b5f"/><path d="m254.555 31.163v-7.982h1.353v6.773h3.835v1.209z" fill="#595b5f"/><path d="m261.444 23.181h5.213v1.196h-3.887v2.106h3.523v1.183h-3.523v2.288h3.887v1.209h-5.213z" fill="#595b5f"/><path d="m270.766 27.926h-.962v3.237h-1.353v-7.982h3.081c.841 0 1.504.206 1.989.618s.728 1.003.728 1.774c0 .659-.18 1.181-.539 1.566s-.86.63-1.502.734l2.314 3.289h-1.534zm-.962-3.575v2.444h1.703c.441 0 .786-.11 1.033-.332.247-.221.37-.518.37-.89s-.123-.669-.37-.891-.592-.332-1.033-.332h-1.703z" fill="#595b5f"/><path d="m277.344 23.181v7.982h-1.353v-7.982z" fill="#595b5f"/><path d="m285.858 23.181v7.982h-1.04l-4.082-5.811v5.811h-1.3v-7.982h1.274l3.848 5.538v-5.538z" fill="#595b5f"/><path d="m290.395 23.181h1.3l3.068 7.982h-1.378l-.819-2.21h-3.055l-.819 2.21h-1.365zm.636 1.651-1.092 2.951h2.184z" fill="#595b5f"/><path d="m298.936 24.376v-1.196h6.656v1.196h-2.652v6.786h-1.352v-6.786z" fill="#595b5f"/><path d="m313.093 24.214c.693.776 1.04 1.762 1.04 2.958s-.347 2.182-1.04 2.958-1.577 1.164-2.652 1.164c-1.074 0-1.956-.388-2.646-1.164-.688-.775-1.033-1.761-1.033-2.958 0-1.196.345-2.182 1.033-2.958.689-.775 1.571-1.163 2.646-1.163s1.958.387 2.652 1.163zm-.969 5.051c.429-.546.644-1.244.644-2.093s-.215-1.547-.644-2.093-.99-.819-1.684-.819-1.252.271-1.677.812-.637 1.241-.637 2.099.212 1.558.637 2.1.983.812 1.677.812 1.255-.272 1.684-.818z" fill="#595b5f"/><path d="m321.699 24.214c.693.776 1.04 1.762 1.04 2.958s-.347 2.182-1.04 2.958-1.577 1.164-2.652 1.164c-1.074 0-1.956-.388-2.646-1.164-.688-.775-1.033-1.761-1.033-2.958 0-1.196.345-2.182 1.033-2.958.689-.775 1.571-1.163 2.646-1.163s1.959.387 2.652 1.163zm-.969 5.051c.429-.546.644-1.244.644-2.093s-.215-1.547-.644-2.093-.99-.819-1.684-.819-1.252.271-1.677.812-.637 1.241-.637 2.099.212 1.558.637 2.1.983.812 1.677.812 1.256-.272 1.684-.818z" fill="#595b5f"/><path d="m324.402 31.163v-7.982h1.353v6.773h3.835v1.209z" fill="#595b5f"/><path d="m330.668 28.953h1.378c.252.797.854 1.196 1.808 1.196.468 0 .843-.106 1.124-.318s.423-.5.423-.864c0-.286-.089-.514-.267-.683s-.475-.301-.891-.396l-1.352-.325c-1.326-.312-1.989-1.027-1.989-2.145 0-.685.253-1.25.761-1.696.507-.446 1.158-.669 1.956-.669.841 0 1.519.197 2.034.591.516.395.848.934.995 1.619h-1.353c-.251-.71-.806-1.066-1.664-1.066-.433 0-.782.102-1.046.305-.265.204-.396.47-.396.8 0 .528.351.875 1.053 1.04l1.391.325c.65.147 1.157.408 1.521.78s.546.849.546 1.43c0 .737-.265 1.324-.793 1.762s-1.214.656-2.054.656c-.85 0-1.559-.206-2.126-.617s-.92-.989-1.059-1.725z" fill="#595b5f"/><path d="m437.893 163.841h-409.059" fill="none" stroke="#a6a8ab" stroke-dasharray="2.7658 2.7658" stroke-miterlimit="10" stroke-width=".651"/><path d="m437.893 251.841h-409.059" fill="none" stroke="#a6a8ab" stroke-dasharray="2.7658 2.7658" stroke-miterlimit="10" stroke-width=".651"/><path d="m437.893 403.841h-409.059" fill="none" stroke="#a6a8ab" stroke-dasharray="2.7658 2.7658" stroke-miterlimit="10" stroke-width=".651"/><path d="m128.277 426.154h28.071" fill="none" stroke="#696c71" stroke-miterlimit="10" stroke-width=".7445"/><path d="m156.103 457.341h281.776v25h-281.776z" fill="#3fbfbb"/><path d="m195.78 469.554c.382.121.693.354.937.695.242.344.363.723.363 1.139 0 .736-.24 1.303-.721 1.695-.481.395-1.143.592-1.982.592h-3.056v-7.982h2.795c.85 0 1.513.188 1.989.561s.715.91.715 1.611c0 .416-.098.775-.292 1.078-.195.305-.444.508-.748.611zm-3.145-.506h1.469c.944 0 1.417-.369 1.417-1.105 0-.719-.473-1.078-1.417-1.078h-1.469zm0 1.118v2.34h1.716c.45 0 .797-.104 1.04-.312.242-.207.364-.492.364-.857 0-.363-.122-.65-.364-.857-.243-.209-.59-.312-1.04-.312h-1.716z" fill="#fff"/><path d="m204.211 472.955c-.576.568-1.354.852-2.333.852s-1.758-.283-2.334-.852-.864-1.389-.864-2.463v-4.799h1.353v4.654c0 1.5.615 2.25 1.846 2.25s1.846-.75 1.846-2.25v-4.654h1.353v4.811c-.002 1.066-.291 1.882-.867 2.451z" fill="#fff"/><path d="m208.392 465.693v7.982h-1.353v-7.982z" fill="#fff"/><path d="m210.483 473.675v-7.982h1.353v6.773h3.835v1.209z" fill="#fff"/><path d="m217.373 473.675v-7.982h2.691c1.179 0 2.119.363 2.821 1.086.701.725 1.053 1.693 1.053 2.906s-.352 2.182-1.053 2.904c-.702.725-1.643 1.086-2.821 1.086zm1.353-1.209h1.287c.823 0 1.458-.246 1.904-.74s.669-1.174.669-2.041-.223-1.549-.669-2.047c-.446-.5-1.081-.748-1.904-.748h-1.287z" fill="#fff"/><path d="m228.801 473.675v-7.982h1.353v6.773h3.835v1.209z" fill="#fff"/><path d="m241.593 466.728c.693.775 1.04 1.762 1.04 2.957s-.347 2.182-1.04 2.957-1.577 1.164-2.652 1.164c-1.074 0-1.956-.389-2.646-1.164-.688-.775-1.033-1.762-1.033-2.957s.345-2.182 1.033-2.957c.689-.775 1.571-1.164 2.646-1.164s1.958.389 2.652 1.164zm-.969 5.049c.429-.545.644-1.242.644-2.092s-.215-1.547-.644-2.094c-.429-.545-.99-.818-1.684-.818s-1.252.271-1.677.812-.637 1.242-.637 2.1.212 1.559.637 2.1.983.812 1.677.812 1.255-.273 1.684-.82z" fill="#fff"/><path d="m244.9 472.656c-.688-.768-1.033-1.758-1.033-2.971s.345-2.203 1.033-2.971c.689-.768 1.554-1.15 2.594-1.15.884 0 1.607.236 2.171.709s.923 1.115 1.079 1.93h-1.326c-.347-.945-.988-1.416-1.924-1.416-.693 0-1.244.27-1.651.812-.407.541-.61 1.236-.61 2.086s.203 1.545.61 2.086c.407.543.958.812 1.651.812.936 0 1.577-.477 1.924-1.43h1.326c-.156.824-.516 1.471-1.079 1.943s-1.287.709-2.171.709c-1.04.001-1.904-.384-2.594-1.149z" fill="#fff"/><path d="m253.734 465.693v3.822l3.314-3.822h1.703l-3.224 3.627 3.341 4.355h-1.69l-2.626-3.418-.818.936v2.482h-1.353v-7.982z" fill="#fff"/><path d="m265.915 465.693h1.3l3.068 7.982h-1.378l-.819-2.209h-3.055l-.819 2.209h-1.365zm.637 1.652-1.092 2.951h2.184z" fill="#fff"/><path d="m278.174 465.693v7.982h-1.04l-4.082-5.811v5.811h-1.3v-7.982h1.274l3.848 5.539v-5.539z" fill="#fff"/><path d="m280.266 473.675v-7.982h2.691c1.179 0 2.119.363 2.821 1.086.701.725 1.053 1.693 1.053 2.906s-.352 2.182-1.053 2.904c-.702.725-1.643 1.086-2.821 1.086zm1.352-1.209h1.287c.823 0 1.458-.246 1.904-.74s.669-1.174.669-2.041-.223-1.549-.669-2.047c-.446-.5-1.081-.748-1.904-.748h-1.287z" fill="#fff"/><path d="m296.152 469.554c.382.121.693.354.937.695.242.344.363.723.363 1.139 0 .736-.24 1.303-.721 1.695-.481.395-1.143.592-1.982.592h-3.056v-7.982h2.795c.85 0 1.513.188 1.989.561s.715.91.715 1.611c0 .416-.098.775-.292 1.078-.195.305-.444.508-.748.611zm-3.145-.506h1.469c.944 0 1.417-.369 1.417-1.105 0-.719-.473-1.078-1.417-1.078h-1.469zm0 1.118v2.34h1.716c.45 0 .797-.104 1.04-.312.242-.207.364-.492.364-.857 0-.363-.122-.65-.364-.857-.243-.209-.59-.312-1.04-.312h-1.716z" fill="#fff"/><path d="m300.534 465.693v7.982h-1.353v-7.982z" fill="#fff"/><path d="m302.627 473.675v-7.982h1.353v6.773h3.835v1.209z" fill="#fff"/><path d="m309.516 473.675v-7.982h1.353v6.773h3.835v1.209z" fill="#fff"/><path d="m325.506 466.728c.693.775 1.04 1.762 1.04 2.957s-.347 2.182-1.04 2.957-1.577 1.164-2.652 1.164c-1.074 0-1.956-.389-2.646-1.164-.688-.775-1.033-1.762-1.033-2.957s.345-2.182 1.033-2.957c.689-.775 1.571-1.164 2.646-1.164s1.958.389 2.652 1.164zm-.969 5.049c.429-.545.644-1.242.644-2.092s-.215-1.547-.644-2.094c-.429-.545-.99-.818-1.684-.818s-1.252.271-1.677.812-.637 1.242-.637 2.1.212 1.559.637 2.1.983.812 1.677.812 1.255-.273 1.684-.82z" fill="#fff"/><path d="m329.562 473.675h-1.353v-7.982h5.097v1.197h-3.744v2.365h3.497v1.184h-3.497z" fill="#fff"/><path d="m342.613 473.675h-.962l-2.197-5.551v5.551h-1.287v-7.982h1.547l2.432 6.137 2.404-6.137h1.509v7.982h-1.301v-5.551z" fill="#fff"/><path d="m350.596 465.693h1.3l3.068 7.982h-1.378l-.819-2.209h-3.055l-.819 2.209h-1.365zm.636 1.652-1.092 2.951h2.184z" fill="#fff"/><path d="m355.938 466.89v-1.197h6.656v1.197h-2.652v6.785h-1.352v-6.785z" fill="#fff"/><path d="m364.193 465.693h5.213v1.197h-3.887v2.105h3.523v1.184h-3.523v2.287h3.887v1.209h-5.213z" fill="#fff"/><path d="m373.515 470.439h-.962v3.236h-1.353v-7.982h3.081c.841 0 1.504.207 1.989.619.485.41.728 1.002.728 1.773 0 .658-.18 1.182-.539 1.566-.359.387-.86.631-1.502.734l2.314 3.289h-1.534zm-.962-3.574v2.443h1.703c.441 0 .786-.111 1.033-.332s.37-.518.37-.891-.123-.67-.37-.891-.592-.33-1.033-.33h-1.703z" fill="#fff"/><path d="m380.092 465.693v7.982h-1.353v-7.982z" fill="#fff"/><path d="m384.629 465.693h1.3l3.068 7.982h-1.378l-.819-2.209h-3.055l-.819 2.209h-1.365zm.637 1.652-1.092 2.951h2.184z" fill="#fff"/><path d="m390.466 473.675v-7.982h1.353v6.773h3.835v1.209z" fill="#fff"/><path d="m396.731 471.466h1.378c.252.797.854 1.195 1.808 1.195.468 0 .843-.105 1.124-.318s.423-.5.423-.865c0-.285-.089-.514-.267-.682-.178-.17-.475-.301-.891-.396l-1.352-.324c-1.326-.312-1.989-1.027-1.989-2.146 0-.684.253-1.25.761-1.695.507-.447 1.158-.67 1.956-.67.841 0 1.519.197 2.034.592s.848.934.995 1.617h-1.353c-.251-.709-.806-1.064-1.664-1.064-.433 0-.782.102-1.046.305-.265.203-.396.471-.396.799 0 .529.351.877 1.053 1.041l1.391.324c.65.148 1.157.408 1.521.781.364.371.546.85.546 1.43 0 .736-.265 1.324-.793 1.762s-1.214.656-2.054.656c-.85 0-1.559-.207-2.126-.617-.566-.414-.92-.988-1.059-1.725z" fill="#fff"/><path d="m128.277 185.841h27.548" fill="none" stroke="#696c71" stroke-miterlimit="10" stroke-width=".7445"/><path d="m156.103 173.341h281.47v25h-281.47z" fill="#f5f6f6"/><path d="m251.273 185.555c.381.122.693.354.936.696s.363.721.363 1.137c0 .737-.24 1.302-.721 1.697-.48.394-1.143.591-1.982.591h-3.055v-7.982h2.795c.85 0 1.512.187 1.988.559s.715.91.715 1.612c0 .416-.098.776-.291 1.079-.195.304-.445.507-.748.611zm-3.146-.507h1.469c.945 0 1.418-.368 1.418-1.105 0-.719-.473-1.079-1.418-1.079h-1.469zm0 1.119v2.34h1.717c.449 0 .797-.104 1.039-.312s.365-.494.365-.858-.123-.65-.365-.858-.59-.312-1.039-.312z" fill="#696c71"/><path d="m256.746 181.694h1.301l3.068 7.982h-1.379l-.818-2.21h-3.055l-.82 2.21h-1.365zm.637 1.651-1.092 2.951h2.184z" fill="#696c71"/><path d="m262.584 189.676v-7.982h1.352v6.773h3.836v1.209z" fill="#696c71"/><path d="m269.473 189.676v-7.982h1.352v6.773h3.836v1.209z" fill="#696c71"/><path d="m276.361 181.694h5.213v1.196h-3.887v2.106h3.523v1.183h-3.523v2.288h3.887v1.209h-5.213z" fill="#696c71"/><path d="m285.684 186.439h-.963v3.237h-1.352v-7.982h3.08c.842 0 1.504.206 1.99.618.484.412.727 1.003.727 1.774 0 .659-.18 1.181-.539 1.566s-.859.63-1.502.734l2.314 3.289h-1.533zm-.963-3.575v2.444h1.703c.441 0 .787-.11 1.033-.332.248-.221.371-.518.371-.89s-.123-.669-.371-.891c-.246-.221-.592-.332-1.033-.332h-1.703z" fill="#696c71"/><path d="m292.262 181.694v7.982h-1.354v-7.982z" fill="#696c71"/><path d="m300.775 181.694v7.982h-1.039l-4.082-5.811v5.811h-1.301v-7.982h1.275l3.848 5.538v-5.538z" fill="#696c71"/><path d="m305.312 181.694h1.299l3.068 7.982h-1.377l-.82-2.21h-3.055l-.818 2.21h-1.365zm.637 1.651-1.092 2.951h2.184z" fill="#696c71"/><path d="m318.807 185.555c.381.122.693.354.936.696s.363.721.363 1.137c0 .737-.24 1.302-.721 1.697-.48.394-1.143.591-1.982.591h-3.055v-7.982h2.795c.85 0 1.512.187 1.988.559s.715.91.715 1.612c0 .416-.098.776-.291 1.079-.196.304-.446.507-.748.611zm-3.147-.507h1.469c.945 0 1.418-.368 1.418-1.105 0-.719-.473-1.079-1.418-1.079h-1.469zm0 1.119v2.34h1.717c.449 0 .797-.104 1.039-.312s.365-.494.365-.858-.123-.65-.365-.858-.59-.312-1.039-.312z" fill="#696c71"/><path d="m327.236 188.955c-.576.568-1.354.852-2.332.852-.98 0-1.758-.284-2.334-.852-.576-.567-.865-1.389-.865-2.463v-4.797h1.354v4.654c0 1.5.615 2.249 1.846 2.249s1.846-.75 1.846-2.249v-4.654h1.352v4.81c-.001 1.065-.291 1.882-.867 2.45z" fill="#696c71"/><path d="m331.418 181.694v7.982h-1.354v-7.982z" fill="#696c71"/><path d="m333.51 189.676v-7.982h1.352v6.773h3.836v1.209z" fill="#696c71"/><path d="m340.398 189.676v-7.982h2.691c1.18 0 2.119.362 2.822 1.085.701.724 1.053 1.692 1.053 2.905 0 1.214-.352 2.182-1.053 2.906-.703.724-1.643 1.085-2.822 1.085h-2.691zm1.354-1.209h1.287c.822 0 1.457-.247 1.904-.741.445-.494.668-1.174.668-2.041 0-.866-.223-1.549-.668-2.047-.447-.498-1.082-.748-1.904-.748h-1.287z" fill="#696c71"/><path d="m156.103 217.341h281.776v25h-281.776z" fill="#3fbfbb"/><path d="m186.109 233.507c-.169-.173-.254-.386-.254-.637s.085-.463.254-.637.379-.26.63-.26.462.087.631.26.253.386.253.637-.084.464-.253.637-.38.26-.631.26-.461-.086-.63-.26z" fill="#fff"/><path d="m193.707 229.555c.382.122.693.354.937.696.242.342.363.721.363 1.137 0 .737-.24 1.302-.721 1.697-.481.394-1.143.591-1.982.591h-3.056v-7.982h2.795c.85 0 1.513.187 1.989.559s.715.91.715 1.612c0 .416-.098.776-.292 1.079-.195.304-.444.507-.748.611zm-3.145-.507h1.469c.944 0 1.417-.368 1.417-1.105 0-.719-.473-1.079-1.417-1.079h-1.469zm0 1.119v2.34h1.716c.45 0 .797-.104 1.04-.312.242-.208.364-.494.364-.858s-.122-.65-.364-.858c-.243-.208-.59-.312-1.04-.312z" fill="#fff"/><path d="m199.181 225.694h1.3l3.068 7.982h-1.378l-.819-2.21h-3.055l-.819 2.21h-1.365zm.636 1.651-1.092 2.951h2.184z" fill="#fff"/><path d="m205.017 233.676v-7.982h1.353v6.773h3.835v1.209z" fill="#fff"/><path d="m217.809 226.728c.693.776 1.04 1.762 1.04 2.958s-.347 2.182-1.04 2.958-1.577 1.164-2.652 1.164c-1.074 0-1.956-.388-2.646-1.164-.688-.775-1.033-1.761-1.033-2.958 0-1.196.345-2.182 1.033-2.958.689-.775 1.571-1.163 2.646-1.163 1.074-.001 1.958.387 2.652 1.163zm-.969 5.05c.429-.546.644-1.244.644-2.093s-.215-1.547-.644-2.093-.99-.819-1.684-.819-1.252.271-1.677.812-.637 1.241-.637 2.099.212 1.558.637 2.1.983.812 1.677.812 1.255-.272 1.684-.818z" fill="#fff"/><path d="m219.837 235.146.936-1.443c-.216-.034-.392-.125-.526-.273-.134-.147-.201-.333-.201-.559 0-.251.085-.459.254-.624s.379-.247.63-.247c.26 0 .473.084.637.253.165.169.247.409.247.721 0 .321-.125.667-.377 1.04l-.754 1.131h-.846z" fill="#fff"/><path d="m226.422 233.507c-.169-.173-.254-.386-.254-.637s.085-.463.254-.637.379-.26.63-.26.462.087.631.26.253.386.253.637-.084.464-.253.637-.38.26-.631.26-.461-.086-.63-.26z" fill="#fff"/><path d="m234.019 229.555c.382.122.693.354.937.696.242.342.363.721.363 1.137 0 .737-.24 1.302-.721 1.697-.481.394-1.143.591-1.982.591h-3.056v-7.982h2.795c.85 0 1.513.187 1.989.559s.715.91.715 1.612c0 .416-.098.776-.292 1.079-.196.304-.445.507-.748.611zm-3.146-.507h1.469c.944 0 1.417-.368 1.417-1.105 0-.719-.473-1.079-1.417-1.079h-1.469zm0 1.119v2.34h1.716c.45 0 .797-.104 1.04-.312.242-.208.364-.494.364-.858s-.122-.65-.364-.858c-.243-.208-.59-.312-1.04-.312z" fill="#fff"/><path d="m239.492 225.694h1.3l3.068 7.982h-1.378l-.819-2.21h-3.055l-.819 2.21h-1.365zm.637 1.651-1.092 2.951h2.184z" fill="#fff"/><path d="m245.329 233.676v-7.982h1.353v6.773h3.835v1.209z" fill="#fff"/><path d="m258.524 225.694-2.704 3.887 2.834 4.095h-1.547l-2.067-3.003-2.067 3.003h-1.508l2.821-4.069-2.691-3.913h1.547l1.925 2.821 1.963-2.821z" fill="#fff"/><path d="m267.649 229.555c.382.122.693.354.937.696.242.342.363.721.363 1.137 0 .737-.24 1.302-.721 1.697-.481.394-1.143.591-1.982.591h-3.056v-7.982h2.795c.85 0 1.513.187 1.989.559s.715.91.715 1.612c0 .416-.098.776-.292 1.079-.195.304-.444.507-.748.611zm-3.145-.507h1.469c.944 0 1.417-.368 1.417-1.105 0-.719-.473-1.079-1.417-1.079h-1.469zm0 1.119v2.34h1.716c.45 0 .797-.104 1.04-.312.242-.208.364-.494.364-.858s-.122-.65-.364-.858c-.243-.208-.59-.312-1.04-.312z" fill="#fff"/><path d="m273.578 229.269 2.105-3.575h1.431l-2.899 4.797v3.185h-1.339v-3.185l-2.886-4.797h1.469z" fill="#fff"/><path d="m278.023 226.89v-1.196h6.656v1.196h-2.652v6.786h-1.352v-6.786z" fill="#fff"/><path d="m286.278 225.694h5.213v1.196h-3.887v2.106h3.523v1.183h-3.523v2.288h3.887v1.209h-5.213z" fill="#fff"/><path d="m293.89 232.656c-.688-.767-1.033-1.757-1.033-2.971 0-1.213.345-2.203 1.033-2.97.689-.767 1.554-1.15 2.594-1.15.884 0 1.607.236 2.171.708.563.472.923 1.116 1.079 1.93h-1.326c-.347-.944-.988-1.417-1.924-1.417-.693 0-1.244.271-1.651.812-.407.542-.61 1.237-.61 2.086 0 .85.203 1.545.61 2.087s.958.812 1.651.812c.936 0 1.577-.477 1.924-1.43h1.326c-.156.823-.516 1.471-1.079 1.943-.563.473-1.287.708-2.171.708-1.041.002-1.905-.381-2.594-1.148z" fill="#fff"/><path d="m307.272 226.728c.693.776 1.04 1.762 1.04 2.958s-.347 2.182-1.04 2.958-1.577 1.164-2.652 1.164c-1.074 0-1.956-.388-2.646-1.164-.688-.775-1.033-1.761-1.033-2.958 0-1.196.345-2.182 1.033-2.958.689-.775 1.571-1.163 2.646-1.163 1.075-.001 1.959.387 2.652 1.163zm-.968 5.05c.429-.546.644-1.244.644-2.093s-.215-1.547-.644-2.093-.99-.819-1.684-.819-1.252.271-1.677.812-.637 1.241-.637 2.099.212 1.558.637 2.1.983.812 1.677.812 1.255-.272 1.684-.818z" fill="#fff"/><path d="m309.977 233.676v-7.982h2.691c1.179 0 2.119.362 2.821 1.085.701.724 1.053 1.692 1.053 2.905 0 1.214-.352 2.182-1.053 2.906-.702.724-1.643 1.085-2.821 1.085h-2.691zm1.352-1.209h1.287c.823 0 1.458-.247 1.904-.741s.669-1.174.669-2.041c0-.866-.223-1.549-.669-2.047s-1.081-.748-1.904-.748h-1.287z" fill="#fff"/><path d="m318.206 225.694h5.213v1.196h-3.887v2.106h3.523v1.183h-3.523v2.288h3.887v1.209h-5.213z" fill="#fff"/><path d="m330.855 225.694h1.3l3.068 7.982h-1.378l-.819-2.21h-3.055l-.819 2.21h-1.365zm.637 1.651-1.092 2.951h2.184z" fill="#fff"/><path d="m343.113 225.694v7.982h-1.04l-4.082-5.811v5.811h-1.3v-7.982h1.274l3.848 5.538v-5.538z" fill="#fff"/><path d="m345.206 233.676v-7.982h2.691c1.179 0 2.119.362 2.821 1.085.701.724 1.053 1.692 1.053 2.905 0 1.214-.352 2.182-1.053 2.906-.702.724-1.643 1.085-2.821 1.085h-2.691zm1.353-1.209h1.287c.823 0 1.458-.247 1.904-.741s.669-1.174.669-2.041c0-.866-.223-1.549-.669-2.047s-1.081-.748-1.904-.748h-1.287z" fill="#fff"/><path d="m361.093 229.555c.382.122.693.354.937.696.242.342.363.721.363 1.137 0 .737-.24 1.302-.721 1.697-.481.394-1.143.591-1.982.591h-3.056v-7.982h2.795c.85 0 1.513.187 1.989.559s.715.91.715 1.612c0 .416-.098.776-.292 1.079-.195.304-.445.507-.748.611zm-3.146-.507h1.469c.944 0 1.417-.368 1.417-1.105 0-.719-.473-1.079-1.417-1.079h-1.469zm0 1.119v2.34h1.716c.45 0 .797-.104 1.04-.312.242-.208.364-.494.364-.858s-.122-.65-.364-.858c-.243-.208-.59-.312-1.04-.312z" fill="#fff"/><path d="m365.475 225.694v7.982h-1.353v-7.982z" fill="#fff"/><path d="m373.988 225.694v7.982h-1.04l-4.082-5.811v5.811h-1.3v-7.982h1.274l3.848 5.538v-5.538z" fill="#fff"/><path d="m378.525 225.694h1.3l3.068 7.982h-1.378l-.819-2.21h-3.055l-.819 2.21h-1.365zm.637 1.651-1.092 2.951h2.184z" fill="#fff"/><path d="m386.677 230.439h-.962v3.237h-1.353v-7.982h3.081c.841 0 1.504.206 1.989.618s.728 1.003.728 1.774c0 .659-.18 1.181-.539 1.566s-.86.63-1.502.734l2.314 3.289h-1.534zm-.962-3.575v2.444h1.703c.441 0 .786-.11 1.033-.332.247-.221.37-.518.37-.89s-.123-.669-.37-.891-.592-.332-1.033-.332h-1.703z" fill="#fff"/><path d="m393.255 225.694v7.982h-1.353v-7.982z" fill="#fff"/><path d="m395.348 225.694h5.213v1.196h-3.887v2.106h3.523v1.183h-3.523v2.288h3.887v1.209h-5.213z" fill="#fff"/><path d="m401.729 231.466h1.378c.252.797.854 1.196 1.808 1.196.468 0 .843-.106 1.124-.318s.423-.5.423-.864c0-.286-.089-.514-.267-.683s-.475-.301-.891-.396l-1.352-.325c-1.326-.312-1.989-1.027-1.989-2.145 0-.685.253-1.25.761-1.696.507-.446 1.158-.669 1.956-.669.841 0 1.519.197 2.034.591.516.395.848.934.995 1.619h-1.353c-.251-.71-.806-1.066-1.664-1.066-.433 0-.782.102-1.046.305-.265.204-.396.47-.396.8 0 .528.351.875 1.053 1.04l1.391.325c.65.147 1.157.408 1.521.78s.546.849.546 1.43c0 .737-.265 1.324-.793 1.762s-1.214.656-2.054.656c-.85 0-1.559-.206-2.126-.617s-.92-.988-1.059-1.725z" fill="#fff"/><path d="m128.277 87.993h27.843" fill="none" stroke="#696c71" stroke-miterlimit="10" stroke-width=".7445"/><path d="m284.507 92.388h24.969" fill="none" stroke="#696c71" stroke-miterlimit="10" stroke-width=".6273"/><path d="m156.103 65.493h130v45h-130z" fill="#f5f6f6"/><path d="m190 84.328v-7.982h1.354v6.773h3.834v1.209z" fill="#696c71"/><path d="m199.334 76.346h1.301l3.068 7.982h-1.379l-.818-2.21h-3.055l-.82 2.21h-1.365zm.637 1.651-1.092 2.951h2.184z" fill="#696c71"/><path d="m211.594 76.346v7.982h-1.041l-4.082-5.811v5.811h-1.299v-7.982h1.273l3.848 5.538v-5.538z" fill="#696c71"/><path d="m219.119 81.364h-1.742v-1.157h3.029v.624c0 1.092-.318 1.97-.955 2.633s-1.449.994-2.438.994c-1.084 0-1.98-.383-2.691-1.15s-1.066-1.757-1.066-2.971c0-1.213.354-2.203 1.061-2.97.705-.767 1.588-1.15 2.645-1.15.893 0 1.623.234 2.191.702.566.468.93 1.11 1.084 1.924h-1.352c-.174-.459-.408-.808-.707-1.047-.301-.238-.705-.357-1.217-.357-.701 0-1.268.271-1.695.812-.43.542-.645 1.237-.645 2.086 0 .858.217 1.56.65 2.106.434.546 1.014.819 1.742.819.588 0 1.066-.171 1.43-.514.364-.342.59-.803.676-1.384z" fill="#696c71"/><path d="m227.471 83.606c-.576.568-1.354.852-2.332.852-.98 0-1.758-.284-2.334-.852-.576-.567-.865-1.389-.865-2.463v-4.797h1.354v4.654c0 1.5.615 2.249 1.846 2.249s1.846-.75 1.846-2.249v-4.654h1.352v4.81c-.002 1.066-.291 1.883-.867 2.45z" fill="#696c71"/><path d="m232.744 76.346h1.299l3.068 7.982h-1.377l-.82-2.21h-3.055l-.818 2.21h-1.365zm.637 1.651-1.092 2.951h2.184z" fill="#696c71"/><path d="m244.016 81.364h-1.742v-1.157h3.029v.624c0 1.092-.32 1.97-.957 2.633s-1.449.994-2.438.994c-1.082 0-1.98-.383-2.689-1.15-.711-.767-1.066-1.757-1.066-2.971 0-1.213.352-2.203 1.059-2.97s1.588-1.15 2.646-1.15c.893 0 1.623.234 2.189.702.568.468.93 1.11 1.086 1.924h-1.352c-.174-.459-.41-.808-.709-1.047-.299-.238-.705-.357-1.215-.357-.703 0-1.268.271-1.697.812-.43.542-.643 1.237-.643 2.086 0 .858.215 1.56.648 2.106.434.546 1.016.819 1.742.819.59 0 1.066-.171 1.43-.514.366-.342.591-.803.679-1.384z" fill="#696c71"/><path d="m246.965 76.346h5.213v1.196h-3.887v2.106h3.523v1.183h-3.523v2.288h3.887v1.209h-5.213z" fill="#696c71"/><path d="m199.197 97.118h1.379c.252.797.854 1.196 1.807 1.196.469 0 .844-.106 1.125-.318s.422-.5.422-.864c0-.286-.088-.514-.266-.683s-.475-.301-.891-.396l-1.352-.325c-1.326-.312-1.99-1.027-1.99-2.145 0-.685.254-1.25.762-1.696.506-.446 1.158-.669 1.955-.669.842 0 1.52.197 2.035.591.516.395.848.934.994 1.619h-1.352c-.252-.71-.807-1.066-1.664-1.066-.434 0-.783.102-1.047.305s-.396.47-.396.8c0 .528.352.875 1.053 1.04l1.391.325c.65.147 1.158.408 1.521.78.365.373.547.849.547 1.43 0 .737-.266 1.324-.793 1.762-.529.438-1.215.656-2.055.656-.85 0-1.559-.206-2.125-.617-.568-.414-.921-.988-1.06-1.725z" fill="#696c71"/><path d="m206.895 91.346h5.213v1.196h-3.887v2.106h3.523v1.183h-3.523v2.288h3.887v1.209h-5.213z" fill="#696c71"/><path d="m216.215 96.091h-.961v3.237h-1.354v-7.982h3.082c.84 0 1.504.206 1.988.618.486.412.729 1.003.729 1.774 0 .659-.18 1.181-.539 1.566s-.861.63-1.502.734l2.314 3.289h-1.535zm-.961-3.575v2.444h1.703c.441 0 .785-.11 1.033-.332.246-.221.369-.518.369-.89s-.123-.669-.369-.891c-.248-.221-.592-.332-1.033-.332h-1.703z" fill="#696c71"/><path d="m225.119 99.328h-1.287l-3.016-7.982h1.416l2.264 6.227 2.262-6.227h1.377z" fill="#696c71"/><path d="m229.604 91.346h5.213v1.196h-3.887v2.106h3.523v1.183h-3.523v2.288h3.887v1.209h-5.213z" fill="#696c71"/><path d="m238.926 96.091h-.963v3.237h-1.352v-7.982h3.08c.842 0 1.504.206 1.99.618.484.412.727 1.003.727 1.774 0 .659-.18 1.181-.539 1.566s-.859.63-1.502.734l2.314 3.289h-1.533zm-.963-3.575v2.444h1.703c.441 0 .787-.11 1.033-.332.248-.221.371-.518.371-.89s-.123-.669-.371-.891c-.246-.221-.592-.332-1.033-.332h-1.703z" fill="#696c71"/><path d="m307.879 65.7h130v44.586h-130z" fill="#f5f6f6"/><path d="m344.604 82.119h1.378c.252.797.854 1.196 1.808 1.196.468 0 .843-.106 1.124-.318s.423-.5.423-.864c0-.286-.089-.514-.267-.683s-.475-.301-.891-.396l-1.352-.325c-1.326-.312-1.989-1.027-1.989-2.145 0-.685.253-1.25.761-1.696.507-.446 1.158-.669 1.956-.669.841 0 1.519.197 2.034.591.516.395.848.934.995 1.619h-1.353c-.251-.71-.806-1.066-1.664-1.066-.433 0-.782.102-1.046.305-.265.204-.396.47-.396.8 0 .528.351.875 1.053 1.04l1.391.325c.65.147 1.157.408 1.521.78s.546.849.546 1.43c0 .737-.265 1.324-.793 1.762s-1.214.656-2.054.656c-.85 0-1.559-.206-2.126-.617s-.92-.989-1.059-1.725z" fill="#696c71"/><path d="m355.928 76.347h1.092l1.509 5.876 1.442-5.876h1.3l-2.054 7.982h-1.248l-1.508-5.707-1.534 5.707h-1.234l-2.055-7.982h1.326l1.443 5.876z" fill="#696c71"/><path d="m365.145 76.347h1.3l3.068 7.982h-1.378l-.819-2.21h-3.055l-.819 2.21h-1.365zm.636 1.651-1.092 2.951h2.184z" fill="#696c71"/><path d="m376.416 81.365h-1.742v-1.157h3.029v.624c0 1.092-.319 1.97-.956 2.633s-1.449.994-2.438.994c-1.083 0-1.98-.383-2.69-1.15-.711-.767-1.066-1.757-1.066-2.971 0-1.213.353-2.203 1.06-2.97.706-.767 1.588-1.15 2.646-1.15.893 0 1.623.234 2.19.702s.93 1.11 1.085 1.924h-1.352c-.174-.459-.409-.808-.708-1.047-.3-.238-.705-.357-1.216-.357-.702 0-1.268.271-1.696.812-.43.542-.644 1.237-.644 2.086 0 .858.216 1.56.649 2.106.434.546 1.015.819 1.742.819.589 0 1.066-.171 1.43-.514.365-.342.59-.804.677-1.384z" fill="#696c71"/><path d="m384.801 81.365h-1.742v-1.157h3.029v.624c0 1.092-.319 1.97-.956 2.633s-1.449.994-2.438.994c-1.083 0-1.98-.383-2.69-1.15-.711-.767-1.066-1.757-1.066-2.971 0-1.213.353-2.203 1.06-2.97.706-.767 1.588-1.15 2.646-1.15.893 0 1.623.234 2.19.702s.93 1.11 1.085 1.924h-1.352c-.174-.459-.409-.808-.708-1.047-.3-.238-.705-.357-1.216-.357-.702 0-1.268.271-1.696.812-.43.542-.644 1.237-.644 2.086 0 .858.216 1.56.649 2.106.434.546 1.015.819 1.742.819.589 0 1.066-.171 1.43-.514.364-.342.59-.804.677-1.384z" fill="#696c71"/><path d="m387.751 76.347h5.213v1.196h-3.887v2.106h3.523v1.183h-3.523v2.288h3.887v1.209h-5.213z" fill="#696c71"/><path d="m397.072 81.092h-.962v3.237h-1.353v-7.982h3.081c.841 0 1.504.206 1.989.618s.728 1.003.728 1.774c0 .659-.18 1.181-.539 1.566s-.86.63-1.502.734l2.314 3.289h-1.534zm-.962-3.575v2.444h1.703c.441 0 .786-.11 1.033-.332.247-.221.37-.518.37-.89s-.123-.669-.37-.891-.592-.332-1.033-.332h-1.703z" fill="#696c71"/><path d="m343.877 96.365h-1.742v-1.157h3.029v.624c0 1.092-.319 1.97-.956 2.633s-1.449.994-2.438.994c-1.083 0-1.98-.383-2.69-1.15-.711-.767-1.066-1.757-1.066-2.971 0-1.213.353-2.203 1.06-2.97.706-.767 1.588-1.15 2.646-1.15.893 0 1.623.234 2.19.702s.93 1.11 1.085 1.924h-1.352c-.174-.459-.409-.808-.708-1.047-.3-.238-.705-.357-1.216-.357-.702 0-1.268.271-1.696.812-.43.542-.644 1.237-.644 2.086 0 .858.216 1.56.649 2.106.434.546 1.015.819 1.742.819.589 0 1.066-.171 1.43-.514.364-.342.59-.804.677-1.384z" fill="#696c71"/><path d="m346.827 91.347h5.213v1.196h-3.887v2.106h3.523v1.183h-3.523v2.288h3.887v1.209h-5.213z" fill="#696c71"/><path d="m360.256 91.347v7.982h-1.04l-4.082-5.811v5.811h-1.3v-7.982h1.274l3.848 5.538v-5.538z" fill="#696c71"/><path d="m362.349 91.347h5.213v1.196h-3.887v2.106h3.523v1.183h-3.523v2.288h3.887v1.209h-5.213z" fill="#696c71"/><path d="m371.671 96.092h-.962v3.237h-1.353v-7.982h3.081c.841 0 1.504.206 1.989.618s.728 1.003.728 1.774c0 .659-.18 1.181-.539 1.566s-.86.63-1.502.734l2.314 3.289h-1.534zm-.962-3.575v2.444h1.703c.441 0 .786-.11 1.033-.332.247-.221.37-.518.37-.89s-.123-.669-.37-.891-.592-.332-1.033-.332h-1.703z" fill="#696c71"/><path d="m379.34 91.347h1.3l3.068 7.982h-1.378l-.819-2.21h-3.055l-.819 2.21h-1.365zm.637 1.651-1.092 2.951h2.184z" fill="#696c71"/><path d="m384.683 92.542v-1.196h6.656v1.196h-2.652v6.786h-1.352v-6.786z" fill="#696c71"/><path d="m398.84 92.38c.693.776 1.04 1.762 1.04 2.958s-.347 2.182-1.04 2.958-1.577 1.164-2.652 1.164c-1.074 0-1.956-.388-2.646-1.164-.688-.775-1.033-1.761-1.033-2.958 0-1.196.345-2.182 1.033-2.958.689-.775 1.571-1.163 2.646-1.163s1.958.387 2.652 1.163zm-.969 5.051c.429-.546.644-1.244.644-2.093s-.215-1.547-.644-2.093-.99-.819-1.684-.819-1.252.271-1.677.812-.637 1.241-.637 2.099.212 1.558.637 2.1.983.812 1.677.812 1.255-.272 1.684-.818z" fill="#696c71"/><path d="m403.858 96.092h-.962v3.237h-1.353v-7.982h3.081c.841 0 1.504.206 1.989.618s.728 1.003.728 1.774c0 .659-.18 1.181-.539 1.566s-.86.63-1.502.734l2.314 3.289h-1.534zm-.962-3.575v2.444h1.703c.441 0 .786-.11 1.033-.332.247-.221.37-.518.37-.89s-.123-.669-.37-.891-.592-.332-1.033-.332h-1.703z" fill="#696c71"/><path d="m156.103 129.341h281.776v25h-281.776z" fill="#3fbfbb"/><path d="m242.438 145.507c-.169-.173-.254-.386-.254-.637s.085-.463.254-.637.379-.26.63-.26.462.087.631.26.253.386.253.637-.084.464-.253.637-.38.26-.631.26-.462-.086-.63-.26z" fill="#fff"/><path d="m250.035 141.555c.382.122.693.354.937.696.242.342.363.721.363 1.137 0 .737-.24 1.302-.721 1.697-.481.394-1.143.591-1.982.591h-3.056v-7.982h2.795c.85 0 1.513.187 1.989.559s.715.91.715 1.612c0 .416-.098.776-.292 1.079-.195.304-.444.507-.748.611zm-3.145-.507h1.469c.944 0 1.417-.368 1.417-1.105 0-.719-.473-1.079-1.417-1.079h-1.469zm0 1.119v2.34h1.716c.45 0 .797-.104 1.04-.312.242-.208.364-.494.364-.858s-.122-.65-.364-.858c-.243-.208-.59-.312-1.04-.312z" fill="#fff"/><path d="m255.509 137.694h1.3l3.068 7.982h-1.378l-.819-2.21h-3.055l-.819 2.21h-1.365zm.637 1.651-1.092 2.951h2.184z" fill="#fff"/><path d="m261.345 145.676v-7.982h1.353v6.773h3.835v1.209z" fill="#fff"/><path d="m270.809 143.466h1.378c.252.797.854 1.196 1.808 1.196.468 0 .843-.106 1.124-.318s.423-.5.423-.864c0-.286-.089-.514-.267-.683s-.475-.301-.891-.396l-1.352-.325c-1.326-.312-1.989-1.027-1.989-2.145 0-.685.253-1.25.761-1.696.507-.446 1.158-.669 1.956-.669.841 0 1.519.197 2.034.591.516.395.848.934.995 1.619h-1.353c-.251-.71-.806-1.066-1.664-1.066-.433 0-.782.102-1.046.305-.265.204-.396.47-.396.8 0 .528.351.875 1.053 1.04l1.391.325c.65.147 1.157.408 1.521.78s.546.849.546 1.43c0 .737-.265 1.324-.793 1.762s-1.214.656-2.054.656c-.85 0-1.559-.206-2.126-.617s-.921-.988-1.059-1.725z" fill="#fff"/><path d="m284.407 138.728c.693.776 1.04 1.762 1.04 2.958s-.347 2.182-1.04 2.958-1.577 1.164-2.652 1.164c-1.074 0-1.956-.388-2.646-1.164-.688-.775-1.033-1.761-1.033-2.958 0-1.196.345-2.182 1.033-2.958.689-.775 1.571-1.163 2.646-1.163 1.075-.001 1.959.387 2.652 1.163zm-.969 5.05c.429-.546.644-1.244.644-2.093s-.215-1.547-.644-2.093-.99-.819-1.684-.819-1.252.271-1.677.812-.637 1.241-.637 2.099.212 1.558.637 2.1.983.812 1.677.812 1.256-.272 1.684-.818z" fill="#fff"/><path d="m292.513 144.955c-.576.568-1.354.852-2.333.852s-1.758-.284-2.334-.852c-.576-.567-.864-1.389-.864-2.463v-4.797h1.353v4.654c0 1.5.615 2.249 1.846 2.249s1.846-.75 1.846-2.249v-4.654h1.353v4.81c-.002 1.065-.291 1.882-.867 2.45z" fill="#fff"/><path d="m297.654 142.439h-.962v3.237h-1.353v-7.982h3.081c.841 0 1.504.206 1.989.618s.728 1.003.728 1.774c0 .659-.18 1.181-.539 1.566s-.86.63-1.502.734l2.314 3.289h-1.534zm-.962-3.575v2.444h1.703c.441 0 .786-.11 1.033-.332.247-.221.37-.518.37-.89s-.123-.669-.37-.891-.592-.332-1.033-.332h-1.703z" fill="#fff"/><path d="m303.484 144.656c-.688-.767-1.033-1.757-1.033-2.971 0-1.213.345-2.203 1.033-2.97.689-.767 1.554-1.15 2.594-1.15.884 0 1.607.236 2.171.708.563.472.923 1.116 1.079 1.93h-1.326c-.347-.944-.988-1.417-1.924-1.417-.693 0-1.244.271-1.651.812-.407.542-.61 1.237-.61 2.086 0 .85.203 1.545.61 2.087s.958.812 1.651.812c.936 0 1.577-.477 1.924-1.43h1.326c-.156.823-.516 1.471-1.079 1.943-.563.473-1.287.708-2.171.708-1.04.002-1.904-.381-2.594-1.148z" fill="#fff"/><path d="m310.966 137.694h5.213v1.196h-3.887v2.106h3.523v1.183h-3.523v2.288h3.887v1.209h-5.213z" fill="#fff"/><path d="m321.775 144.656c-.688-.767-1.033-1.757-1.033-2.971 0-1.213.345-2.203 1.033-2.97.689-.767 1.554-1.15 2.594-1.15.884 0 1.607.236 2.171.708.563.472.923 1.116 1.079 1.93h-1.326c-.347-.944-.988-1.417-1.924-1.417-.693 0-1.244.271-1.651.812-.407.542-.61 1.237-.61 2.086 0 .85.203 1.545.61 2.087s.958.812 1.651.812c.936 0 1.577-.477 1.924-1.43h1.326c-.156.823-.516 1.471-1.079 1.943-.563.473-1.287.708-2.171.708-1.04.002-1.904-.381-2.594-1.148z" fill="#fff"/><path d="m335.158 138.728c.693.776 1.04 1.762 1.04 2.958s-.347 2.182-1.04 2.958-1.577 1.164-2.652 1.164c-1.074 0-1.956-.388-2.646-1.164-.688-.775-1.033-1.761-1.033-2.958 0-1.196.345-2.182 1.033-2.958.689-.775 1.571-1.163 2.646-1.163 1.075-.001 1.959.387 2.652 1.163zm-.969 5.05c.429-.546.644-1.244.644-2.093s-.215-1.547-.644-2.093-.99-.819-1.684-.819-1.252.271-1.677.812-.637 1.241-.637 2.099.212 1.558.637 2.1.983.812 1.677.812 1.256-.272 1.684-.818z" fill="#fff"/><path d="m337.862 145.676v-7.982h2.691c1.179 0 2.119.362 2.821 1.085.701.724 1.053 1.692 1.053 2.905 0 1.214-.352 2.182-1.053 2.906-.702.724-1.643 1.085-2.821 1.085h-2.691zm1.353-1.209h1.287c.823 0 1.458-.247 1.904-.741s.669-1.174.669-2.041c0-.866-.223-1.549-.669-2.047s-1.081-.748-1.904-.748h-1.287z" fill="#fff"/><path d="m346.092 137.694h5.213v1.196h-3.887v2.106h3.523v1.183h-3.523v2.288h3.887v1.209h-5.213z" fill="#fff"/><path d="m128.277 273.841h29.749" fill="none" stroke="#696c71" stroke-miterlimit="10" stroke-width=".7445"/><path d="m155.759 261.341h281.775v25h-281.775z" fill="#f5f6f6"/><path d="m253.422 273.555c.381.122.693.354.936.696.242.342.363.721.363 1.137 0 .736-.24 1.303-.721 1.697-.48.394-1.143.591-1.982.591h-3.055v-7.981h2.795c.85 0 1.512.186 1.988.559s.715.91.715 1.611c0 .416-.098.776-.291 1.08-.195.303-.445.506-.748.61zm-3.147-.507h1.469c.945 0 1.418-.368 1.418-1.105 0-.719-.473-1.078-1.418-1.078h-1.469zm0 1.119v2.34h1.717c.449 0 .797-.104 1.039-.312.242-.209.365-.494.365-.858s-.123-.65-.365-.858c-.242-.207-.59-.312-1.039-.312z" fill="#696c71"/><path d="m258.895 269.695h1.301l3.068 7.981h-1.379l-.818-2.21h-3.055l-.82 2.21h-1.365zm.636 1.65-1.092 2.951h2.184z" fill="#696c71"/><path d="m264.732 277.676v-7.981h1.352v6.772h3.836v1.209z" fill="#696c71"/><path d="m271.621 277.676v-7.981h1.352v6.772h3.836v1.209z" fill="#696c71"/><path d="m278.51 269.695h5.213v1.195h-3.887v2.105h3.523v1.184h-3.523v2.288h3.887v1.209h-5.213z" fill="#696c71"/><path d="m287.832 274.439h-.963v3.237h-1.352v-7.981h3.08c.842 0 1.504.205 1.99.617.484.412.727 1.003.727 1.774 0 .659-.18 1.181-.539 1.566s-.859.63-1.502.734l2.314 3.289h-1.533zm-.963-3.574v2.443h1.703c.441 0 .787-.11 1.033-.332.248-.221.371-.518.371-.89s-.123-.669-.371-.891c-.246-.222-.592-.331-1.033-.331h-1.703z" fill="#696c71"/><path d="m294.41 269.695v7.981h-1.354v-7.981z" fill="#696c71"/><path d="m302.924 269.695v7.981h-1.039l-4.082-5.812v5.812h-1.301v-7.981h1.275l3.848 5.537v-5.537z" fill="#696c71"/><path d="m307.461 269.695h1.299l3.068 7.981h-1.377l-.82-2.21h-3.055l-.818 2.21h-1.365zm.637 1.65-1.092 2.951h2.184z" fill="#696c71"/><path d="m316.002 270.89v-1.195h6.656v1.195h-2.652v6.786h-1.352v-6.786z" fill="#696c71"/><path d="m324.256 269.695h5.213v1.195h-3.887v2.105h3.523v1.184h-3.523v2.288h3.887v1.209h-5.213z" fill="#696c71"/><path d="m330.639 275.466h1.379c.252.797.854 1.195 1.807 1.195.469 0 .844-.105 1.125-.318.281-.212.422-.5.422-.863 0-.287-.088-.514-.266-.684-.178-.168-.475-.301-.891-.396l-1.352-.324c-1.326-.312-1.99-1.027-1.99-2.146 0-.685.254-1.25.762-1.696.506-.446 1.158-.67 1.955-.67.842 0 1.52.197 2.035.592s.848.934.994 1.619h-1.352c-.252-.711-.807-1.066-1.664-1.066-.434 0-.783.102-1.047.305-.264.204-.396.471-.396.801 0 .527.352.875 1.053 1.039l1.391.325c.65.147 1.158.407 1.521.78.365.373.547.85.547 1.43 0 .736-.266 1.324-.793 1.762-.529.438-1.215.656-2.055.656-.85 0-1.559-.206-2.125-.617-.568-.413-.922-.987-1.06-1.724z" fill="#696c71"/><path d="m337.84 270.89v-1.195h6.656v1.195h-2.652v6.786h-1.352v-6.786z" fill="#696c71"/><path d="m156.103 305.341h281.776v25h-281.776z" fill="#f5f6f6"/><path d="m251.426 317.556c.383.121.693.354.938.695.242.342.363.721.363 1.137 0 .738-.24 1.303-.721 1.697-.482.395-1.143.592-1.982.592h-3.057v-7.982h2.795c.85 0 1.514.186 1.99.559s.715.91.715 1.613c0 .416-.098.775-.293 1.078s-.444.508-.748.611zm-3.145-.508h1.469c.943 0 1.416-.367 1.416-1.105 0-.719-.473-1.078-1.416-1.078h-1.469zm0 1.119v2.34h1.715c.451 0 .797-.105 1.041-.312.242-.209.363-.494.363-.857 0-.365-.121-.65-.363-.859-.244-.207-.59-.311-1.041-.311h-1.715z" fill="#595b5f"/><path d="m256.9 313.695h1.299l3.068 7.982h-1.377l-.82-2.211h-3.055l-.818 2.211h-1.365zm.637 1.65-1.092 2.951h2.184z" fill="#595b5f"/><path d="m262.736 321.677v-7.982h1.354v6.773h3.834v1.209z" fill="#595b5f"/><path d="m269.625 321.677v-7.982h1.354v6.773h3.834v1.209z" fill="#595b5f"/><path d="m276.516 313.695h5.213v1.195h-3.887v2.107h3.523v1.182h-3.523v2.289h3.887v1.209h-5.213z" fill="#595b5f"/><path d="m285.836 318.439h-.961v3.238h-1.354v-7.982h3.082c.84 0 1.504.205 1.988.617.486.412.729 1.004.729 1.775 0 .658-.18 1.18-.539 1.566-.359.385-.861.631-1.502.734l2.314 3.289h-1.535zm-.961-3.574v2.443h1.703c.441 0 .785-.109 1.033-.33.246-.223.369-.518.369-.891s-.123-.67-.369-.891c-.248-.221-.592-.332-1.033-.332h-1.703z" fill="#595b5f"/><path d="m292.414 313.695v7.982h-1.352v-7.982z" fill="#595b5f"/><path d="m300.93 313.695v7.982h-1.041l-4.082-5.811v5.811h-1.299v-7.982h1.273l3.848 5.537v-5.537z" fill="#595b5f"/><path d="m305.465 313.695h1.301l3.068 7.982h-1.379l-.818-2.211h-3.055l-.82 2.211h-1.365zm.637 1.65-1.092 2.951h2.184z" fill="#595b5f"/><path d="m318.959 317.556c.383.121.693.354.938.695.242.342.363.721.363 1.137 0 .738-.24 1.303-.721 1.697-.482.395-1.143.592-1.982.592h-3.057v-7.982h2.795c.85 0 1.514.186 1.99.559s.715.91.715 1.613c0 .416-.098.775-.293 1.078s-.443.508-.748.611zm-3.145-.508h1.469c.943 0 1.416-.367 1.416-1.105 0-.719-.473-1.078-1.416-1.078h-1.469zm0 1.119v2.34h1.715c.451 0 .797-.105 1.041-.312.242-.209.363-.494.363-.857 0-.365-.121-.65-.363-.859-.244-.207-.59-.311-1.041-.311h-1.715z" fill="#595b5f"/><path d="m327.391 320.955c-.576.568-1.354.852-2.334.852-.979 0-1.758-.283-2.334-.852-.576-.566-.863-1.389-.863-2.463v-4.797h1.352v4.654c0 1.5.615 2.248 1.846 2.248s1.846-.748 1.846-2.248v-4.654h1.354v4.811c-.002 1.064-.291 1.882-.867 2.449z" fill="#595b5f"/><path d="m331.57 313.695v7.982h-1.352v-7.982z" fill="#595b5f"/><path d="m333.662 321.677v-7.982h1.354v6.773h3.834v1.209z" fill="#595b5f"/><path d="m340.553 321.677v-7.982h2.691c1.178 0 2.119.361 2.82 1.086.701.723 1.053 1.691 1.053 2.904 0 1.215-.352 2.184-1.053 2.906-.701.725-1.643 1.086-2.82 1.086zm1.351-1.209h1.287c.824 0 1.459-.248 1.904-.742.447-.494.67-1.174.67-2.041 0-.865-.223-1.549-.67-2.047-.445-.498-1.08-.748-1.904-.748h-1.287z" fill="#595b5f"/><path d="m156.103 349.341h281.776v45h-281.776z" fill="#3fbfbb"/><g fill="#fff"><path d="m172.998 368.177v-7.982h2.691c1.18 0 2.119.361 2.822 1.086.701.723 1.053 1.691 1.053 2.904 0 1.215-.352 2.184-1.053 2.906-.703.725-1.643 1.086-2.822 1.086zm1.354-1.209h1.287c.822 0 1.457-.248 1.904-.742.445-.494.668-1.174.668-2.041 0-.865-.223-1.549-.668-2.047-.447-.498-1.082-.748-1.904-.748h-1.287z"/><path d="m187.131 361.228c.693.775 1.039 1.762 1.039 2.957 0 1.197-.346 2.184-1.039 2.959s-1.578 1.162-2.652 1.162-1.957-.387-2.646-1.162c-.688-.775-1.033-1.762-1.033-2.959 0-1.195.346-2.182 1.033-2.957.689-.775 1.572-1.164 2.646-1.164s1.959.389 2.652 1.164zm-.969 5.051c.428-.547.643-1.244.643-2.094 0-.848-.215-1.547-.643-2.092-.43-.547-.99-.82-1.684-.82s-1.252.271-1.678.812c-.424.543-.637 1.242-.637 2.1 0 .859.213 1.559.637 2.1.426.543.984.812 1.678.812s1.254-.271 1.684-.818z"/><path d="m190.439 367.156c-.689-.766-1.033-1.756-1.033-2.971 0-1.213.344-2.203 1.033-2.971.689-.766 1.553-1.15 2.594-1.15.883 0 1.607.236 2.17.709.564.473.924 1.117 1.08 1.932h-1.326c-.348-.945-.988-1.418-1.924-1.418-.693 0-1.244.271-1.652.812-.406.541-.609 1.238-.609 2.086 0 .85.203 1.545.609 2.088.408.541.959.812 1.652.812.936 0 1.576-.477 1.924-1.432h1.326c-.156.824-.516 1.473-1.08 1.945-.562.471-1.287.707-2.17.707-1.041.001-1.904-.382-2.594-1.149z"/><path d="m199.271 360.195v3.822l3.314-3.822h1.703l-3.223 3.627 3.34 4.355h-1.689l-2.627-3.42-.818.936v2.484h-1.352v-7.982z"/><path d="m205.811 360.195h5.213v1.195h-3.887v2.107h3.523v1.182h-3.523v2.289h3.887v1.209h-5.213z"/><path d="m215.131 364.939h-.961v3.238h-1.354v-7.982h3.082c.84 0 1.504.205 1.988.617.486.412.729 1.004.729 1.775 0 .658-.18 1.18-.539 1.566-.359.385-.861.631-1.502.734l2.314 3.289h-1.535zm-.961-3.574v2.443h1.703c.441 0 .785-.109 1.033-.33.246-.223.369-.518.369-.891s-.123-.67-.369-.891c-.248-.221-.592-.332-1.033-.332h-1.703z"/><path d="m219.682 369.646.936-1.443c-.217-.035-.393-.125-.527-.273-.133-.146-.201-.332-.201-.559 0-.252.086-.459.254-.623.17-.166.379-.248.631-.248.26 0 .473.084.637.254.164.168.246.41.246.721 0 .322-.125.668-.377 1.041l-.754 1.131h-.845z"/><path d="m227.832 360.195v3.822l3.314-3.822h1.703l-3.225 3.627 3.342 4.355h-1.691l-2.625-3.42-.818.936v2.484h-1.354v-7.982z"/><path d="m239.771 367.455c-.576.568-1.354.852-2.334.852-.979 0-1.758-.283-2.334-.852-.576-.566-.863-1.389-.863-2.463v-4.797h1.352v4.654c0 1.5.615 2.248 1.846 2.248s1.846-.748 1.846-2.248v-4.654h1.354v4.811c-.001 1.064-.29 1.882-.867 2.449z"/><path d="m247.059 364.056c.381.121.693.354.936.695s.363.721.363 1.137c0 .738-.24 1.303-.721 1.697s-1.143.592-1.982.592h-3.055v-7.982h2.795c.85 0 1.512.186 1.988.559s.715.91.715 1.613c0 .416-.098.775-.291 1.078-.196.303-.446.508-.748.611zm-3.147-.508h1.469c.945 0 1.418-.367 1.418-1.105 0-.719-.473-1.078-1.418-1.078h-1.469zm0 1.119v2.34h1.717c.449 0 .797-.105 1.039-.312.242-.209.365-.494.365-.857 0-.365-.123-.65-.365-.859-.242-.207-.59-.311-1.039-.311h-1.717z"/><path d="m250.088 360.195h5.213v1.195h-3.887v2.107h3.523v1.182h-3.523v2.289h3.887v1.209h-5.213z"/><path d="m259.408 364.939h-.961v3.238h-1.354v-7.982h3.082c.84 0 1.504.205 1.988.617.486.412.729 1.004.729 1.775 0 .658-.18 1.18-.539 1.566-.359.385-.861.631-1.502.734l2.314 3.289h-1.535zm-.961-3.574v2.443h1.703c.441 0 .785-.109 1.033-.33.246-.223.369-.518.369-.891s-.123-.67-.369-.891c-.248-.221-.592-.332-1.033-.332h-1.703z"/><path d="m271.055 360.195v7.982h-1.039l-4.082-5.811v5.811h-1.301v-7.982h1.275l3.848 5.537v-5.537z"/><path d="m273.148 360.195h5.213v1.195h-3.887v2.107h3.523v1.182h-3.523v2.289h3.887v1.209h-5.213z"/><path d="m279.66 361.39v-1.195h6.656v1.195h-2.652v6.787h-1.352v-6.787z"/><path d="m287.916 360.195h5.213v1.195h-3.887v2.107h3.523v1.182h-3.523v2.289h3.887v1.209h-5.213z"/><path d="m294.299 365.966h1.377c.252.799.854 1.197 1.809 1.197.467 0 .842-.107 1.123-.318.281-.213.424-.502.424-.865 0-.287-.09-.514-.268-.684-.178-.168-.475-.301-.891-.396l-1.352-.324c-1.326-.312-1.988-1.027-1.988-2.145 0-.686.252-1.25.76-1.697.508-.445 1.158-.67 1.957-.67.84 0 1.518.197 2.033.592s.848.934.996 1.619h-1.354c-.25-.711-.805-1.066-1.664-1.066-.432 0-.781.102-1.045.307-.266.203-.396.469-.396.799 0 .529.35.875 1.053 1.039l1.391.326c.65.146 1.156.406 1.521.779.363.373.545.85.545 1.43 0 .738-.264 1.324-.793 1.762-.527.438-1.213.656-2.053.656-.85 0-1.559-.205-2.127-.617-.566-.413-.919-.987-1.058-1.724z"/><path d="m301.318 369.646.936-1.443c-.217-.035-.393-.125-.527-.273-.133-.146-.201-.332-.201-.559 0-.252.086-.459.254-.623.17-.166.379-.248.631-.248.26 0 .473.084.637.254.164.168.246.41.246.721 0 .322-.125.668-.377 1.041l-.754 1.131h-.845z"/><path d="m310.561 360.195h1.301l3.068 7.982h-1.379l-.818-2.211h-3.055l-.82 2.211h-1.365zm.636 1.65-1.092 2.951h2.184z"/><path d="m322.82 360.195v7.982h-1.041l-4.082-5.811v5.811h-1.299v-7.982h1.273l3.848 5.537v-5.537z"/><path d="m324.912 368.177v-7.982h2.691c1.18 0 2.119.361 2.822 1.086.701.723 1.053 1.691 1.053 2.904 0 1.215-.352 2.184-1.053 2.906-.703.725-1.643 1.086-2.822 1.086zm1.354-1.209h1.287c.822 0 1.457-.248 1.904-.742.445-.494.668-1.174.668-2.041 0-.865-.223-1.549-.668-2.047-.447-.498-1.082-.748-1.904-.748h-1.287z"/><path d="m336.943 367.156c-.688-.766-1.033-1.756-1.033-2.971 0-1.213.346-2.203 1.033-2.971.689-.766 1.555-1.15 2.594-1.15.885 0 1.607.236 2.172.709.562.473.922 1.117 1.078 1.932h-1.326c-.346-.945-.988-1.418-1.924-1.418-.693 0-1.244.271-1.65.812-.408.541-.611 1.238-.611 2.086 0 .85.203 1.545.611 2.088.406.541.957.812 1.65.812.936 0 1.578-.477 1.924-1.432h1.326c-.156.824-.516 1.473-1.078 1.945-.564.471-1.287.707-2.172.707-1.039.001-1.904-.382-2.594-1.149z"/><path d="m344.426 368.177v-7.982h1.352v6.773h3.836v1.209z"/><path d="m357.217 361.228c.693.775 1.041 1.762 1.041 2.957 0 1.197-.348 2.184-1.041 2.959s-1.576 1.162-2.652 1.162c-1.074 0-1.955-.387-2.645-1.162s-1.033-1.762-1.033-2.959c0-1.195.344-2.182 1.033-2.957s1.57-1.164 2.645-1.164c1.076 0 1.958.389 2.652 1.164zm-.969 5.051c.43-.547.645-1.244.645-2.094 0-.848-.215-1.547-.645-2.092-.428-.547-.99-.82-1.684-.82s-1.252.271-1.676.812c-.426.543-.637 1.242-.637 2.1 0 .859.211 1.559.637 2.1.424.543.982.812 1.676.812s1.256-.271 1.684-.818z"/><path d="m365.322 367.455c-.576.568-1.354.852-2.332.852-.98 0-1.758-.283-2.334-.852-.576-.566-.865-1.389-.865-2.463v-4.797h1.354v4.654c0 1.5.615 2.248 1.846 2.248s1.846-.748 1.846-2.248v-4.654h1.352v4.811c-.001 1.064-.291 1.882-.867 2.449z"/><path d="m368.15 368.177v-7.982h2.691c1.178 0 2.119.361 2.82 1.086.701.723 1.053 1.691 1.053 2.904 0 1.215-.352 2.184-1.053 2.906-.701.725-1.643 1.086-2.82 1.086zm1.352-1.209h1.287c.824 0 1.459-.248 1.904-.742.447-.494.67-1.174.67-2.041 0-.865-.223-1.549-.67-2.047-.445-.498-1.08-.748-1.904-.748h-1.287z"/><path d="m386 360.195v7.982h-1.041l-4.082-5.811v5.811h-1.299v-7.982h1.273l3.848 5.537v-5.537z"/><path d="m390.537 360.195h1.299l3.068 7.982h-1.377l-.82-2.211h-3.055l-.818 2.211h-1.365zm.637 1.65-1.092 2.951h2.184z"/><path d="m395.879 361.39v-1.195h6.656v1.195h-2.652v6.787h-1.352v-6.787z"/><path d="m405.486 360.195v7.982h-1.354v-7.982z"/><path d="m411.258 368.177h-1.287l-3.016-7.982h1.416l2.264 6.227 2.262-6.227h1.377z"/><path d="m415.742 360.195h5.213v1.195h-3.887v2.107h3.523v1.182h-3.523v2.289h3.887v1.209h-5.213z"/><path d="m222.561 383.177v-7.982h2.691c1.178 0 2.119.361 2.82 1.086.701.723 1.053 1.691 1.053 2.904 0 1.215-.352 2.184-1.053 2.906-.701.725-1.643 1.086-2.82 1.086zm1.351-1.209h1.287c.824 0 1.459-.248 1.904-.742.447-.494.67-1.174.67-2.041 0-.865-.223-1.549-.67-2.047-.445-.498-1.08-.748-1.904-.748h-1.287z"/><path d="m230.789 375.195h5.213v1.195h-3.887v2.107h3.523v1.182h-3.523v2.289h3.887v1.209h-5.213z"/><path d="m240.877 380.201h-1.729v2.977h-1.352v-7.982h3.08c.842 0 1.506.217 1.996.65s.734 1.053.734 1.859c0 .797-.244 1.412-.734 1.846s-1.153.65-1.995.65zm1.393-2.496c0-.408-.123-.732-.365-.977-.242-.242-.594-.363-1.053-.363h-1.703v2.664h1.703c.451 0 .799-.121 1.047-.363.246-.243.371-.563.371-.961z"/><path d="m245.205 383.177v-7.982h1.354v6.773h3.834v1.209z"/><path d="m257.998 376.228c.693.775 1.039 1.762 1.039 2.957 0 1.197-.346 2.184-1.039 2.959s-1.578 1.162-2.652 1.162-1.957-.387-2.646-1.162c-.688-.775-1.033-1.762-1.033-2.959 0-1.195.346-2.182 1.033-2.957.689-.775 1.572-1.164 2.646-1.164s1.959.389 2.652 1.164zm-.969 5.051c.428-.547.643-1.244.643-2.094 0-.848-.215-1.547-.643-2.092-.43-.547-.99-.82-1.684-.82s-1.252.271-1.678.812c-.424.543-.637 1.242-.637 2.1 0 .859.213 1.559.637 2.1.426.543.984.812 1.678.812s1.255-.271 1.684-.818z"/><path d="m263.602 378.769 2.105-3.574h1.43l-2.898 4.797v3.186h-1.34v-3.186l-2.885-4.797h1.469z"/><path d="m272.986 383.177h-.961l-2.197-5.551v5.551h-1.287v-7.982h1.547l2.432 6.137 2.404-6.137h1.508v7.982h-1.301v-5.551z"/><path d="m278.525 375.195h5.213v1.195h-3.887v2.107h3.523v1.182h-3.523v2.289h3.887v1.209h-5.213z"/><path d="m291.953 375.195v7.982h-1.041l-4.082-5.811v5.811h-1.299v-7.982h1.273l3.848 5.537v-5.537z"/><path d="m293.551 376.39v-1.195h6.656v1.195h-2.652v6.787h-1.352v-6.787z"/><path d="m307.449 375.195h1.299l3.068 7.982h-1.377l-.82-2.211h-3.055l-.818 2.211h-1.365zm.637 1.65-1.092 2.951h2.184z"/><path d="m315.6 379.939h-.961v3.238h-1.354v-7.982h3.082c.84 0 1.504.205 1.988.617.486.412.729 1.004.729 1.775 0 .658-.18 1.18-.539 1.566-.359.385-.861.631-1.502.734l2.314 3.289h-1.535zm-.961-3.574v2.443h1.703c.441 0 .785-.109 1.033-.33.246-.223.369-.518.369-.891s-.123-.67-.369-.891c-.248-.221-.592-.332-1.033-.332h-1.703z"/><path d="m320.33 376.39v-1.195h6.656v1.195h-2.652v6.787h-1.352v-6.787z"/><path d="m329.938 375.195v7.982h-1.352v-7.982z"/><path d="m333.383 383.177h-1.352v-7.982h5.096v1.195h-3.744v2.367h3.498v1.182h-3.498z"/><path d="m341.234 375.195h1.301l3.068 7.982h-1.379l-.818-2.211h-3.055l-.82 2.211h-1.365zm.637 1.65-1.092 2.951h2.184z"/><path d="m347.676 382.156c-.688-.766-1.033-1.756-1.033-2.971 0-1.213.346-2.203 1.033-2.971.689-.766 1.555-1.15 2.594-1.15.885 0 1.607.236 2.172.709.562.473.922 1.117 1.078 1.932h-1.326c-.346-.945-.988-1.418-1.924-1.418-.693 0-1.244.271-1.65.812-.408.541-.611 1.238-.611 2.086 0 .85.203 1.545.611 2.088.406.541.957.812 1.65.812.936 0 1.578-.477 1.924-1.432h1.326c-.156.824-.516 1.473-1.078 1.945-.564.471-1.287.707-2.172.707-1.04.001-1.905-.382-2.594-1.149z"/><path d="m354.662 376.39v-1.195h6.656v1.195h-2.652v6.787h-1.352v-6.787z"/><path d="m362.293 380.966h1.379c.252.799.854 1.197 1.807 1.197.469 0 .844-.107 1.125-.318.281-.213.422-.502.422-.865 0-.287-.088-.514-.266-.684-.178-.168-.475-.301-.891-.396l-1.352-.324c-1.326-.312-1.99-1.027-1.99-2.145 0-.686.254-1.25.762-1.697.506-.445 1.158-.67 1.955-.67.842 0 1.52.197 2.035.592s.848.934.994 1.619h-1.352c-.252-.711-.807-1.066-1.664-1.066-.434 0-.783.102-1.047.307-.264.203-.396.469-.396.799 0 .529.352.875 1.053 1.039l1.391.326c.65.146 1.158.406 1.521.779.365.373.547.85.547 1.43 0 .738-.266 1.324-.793 1.762-.529.438-1.215.656-2.055.656-.85 0-1.559-.205-2.125-.617-.568-.413-.921-.987-1.06-1.724z"/><path d="m28.721 173.341h98.852v42.351h-98.852z"/></g><path d="m57.535 190.852h-1.287l-3.016-7.982h1.416l2.264 6.227 2.262-6.227h1.377z" fill="#696c71"/><path d="m62.02 182.87h5.213v1.196h-3.887v2.106h3.523v1.183h-3.523v2.288h3.887v1.209h-5.213z" fill="#696c71"/><path d="m71.342 187.615h-.963v3.237h-1.352v-7.982h3.08c.842 0 1.504.206 1.99.618.484.412.727 1.003.727 1.774 0 .659-.18 1.181-.539 1.566s-.859.63-1.502.734l2.314 3.289h-1.533zm-.963-3.575v2.444h1.703c.441 0 .787-.11 1.033-.332.248-.221.371-.518.371-.89s-.123-.669-.371-.891c-.246-.221-.592-.332-1.033-.332h-1.703z" fill="#696c71"/><path d="m75.941 188.642h1.379c.252.797.854 1.196 1.807 1.196.469 0 .844-.106 1.125-.318s.422-.5.422-.864c0-.286-.088-.514-.266-.683s-.475-.301-.891-.396l-1.352-.325c-1.326-.312-1.99-1.027-1.99-2.145 0-.685.254-1.25.762-1.696.506-.446 1.158-.669 1.955-.669.842 0 1.52.197 2.035.591.516.395.848.934.994 1.619h-1.351c-.252-.71-.807-1.066-1.664-1.066-.434 0-.783.102-1.047.305s-.396.47-.396.8c0 .528.352.875 1.053 1.04l1.391.325c.65.147 1.158.408 1.521.78.365.373.547.849.547 1.43 0 .737-.266 1.324-.793 1.762-.529.438-1.215.656-2.055.656-.85 0-1.559-.206-2.125-.617-.568-.414-.922-.989-1.061-1.725z" fill="#696c71"/><path d="m84.99 182.87v7.982h-1.352v-7.982z" fill="#696c71"/><path d="m92.986 183.903c.693.776 1.039 1.762 1.039 2.958s-.346 2.182-1.039 2.958-1.578 1.164-2.652 1.164-1.957-.388-2.646-1.164c-.688-.775-1.033-1.761-1.033-2.958 0-1.196.346-2.182 1.033-2.958.689-.775 1.572-1.163 2.646-1.163s1.959.387 2.652 1.163zm-.968 5.051c.428-.546.643-1.244.643-2.093s-.215-1.547-.643-2.093c-.43-.546-.99-.819-1.684-.819s-1.252.271-1.678.812c-.424.542-.637 1.241-.637 2.099s.213 1.558.637 2.1c.426.542.984.812 1.678.812s1.254-.272 1.684-.818z" fill="#696c71"/><path d="m102.111 182.87v7.982h-1.039l-4.082-5.811v5.811h-1.301v-7.982h1.275l3.848 5.538v-5.538z" fill="#696c71"/><path d="m51.633 204.831c-.688-.767-1.033-1.757-1.033-2.971 0-1.213.346-2.203 1.033-2.97.689-.767 1.555-1.15 2.594-1.15.885 0 1.607.236 2.172.708.562.472.922 1.116 1.078 1.93h-1.327c-.346-.944-.988-1.417-1.924-1.417-.693 0-1.244.271-1.65.812-.408.542-.611 1.237-.611 2.086 0 .85.203 1.545.611 2.087.406.542.957.812 1.65.812.936 0 1.578-.477 1.924-1.43h1.326c-.156.823-.516 1.471-1.078 1.943-.564.473-1.287.708-2.172.708-1.038.002-1.904-.381-2.593-1.148z" fill="#696c71"/><path d="m65.018 198.903c.693.776 1.039 1.762 1.039 2.958s-.346 2.182-1.039 2.958-1.578 1.164-2.652 1.164-1.957-.388-2.646-1.164c-.688-.775-1.033-1.761-1.033-2.958 0-1.196.346-2.182 1.033-2.958.689-.775 1.572-1.163 2.646-1.163s1.958.387 2.652 1.163zm-.969 5.051c.428-.546.643-1.244.643-2.093s-.215-1.547-.643-2.093c-.43-.546-.99-.819-1.684-.819s-1.252.271-1.678.812c-.424.542-.637 1.241-.637 2.099s.213 1.558.637 2.1c.426.542.984.812 1.678.812s1.254-.272 1.684-.818z" fill="#696c71"/><path d="m74.143 197.87v7.982h-1.039l-4.082-5.811v5.811h-1.301v-7.982h1.275l3.848 5.538v-5.538z" fill="#696c71"/><path d="m75.74 199.065v-1.196h6.656v1.196h-2.652v6.786h-1.352v-6.786z" fill="#696c71"/><path d="m86.311 202.615h-.963v3.237h-1.352v-7.982h3.08c.842 0 1.504.206 1.99.618.484.412.727 1.003.727 1.774 0 .659-.18 1.181-.539 1.566s-.859.63-1.502.734l2.314 3.289h-1.533zm-.963-3.575v2.444h1.703c.441 0 .787-.11 1.033-.332.248-.221.371-.518.371-.89s-.123-.669-.371-.891c-.246-.221-.592-.332-1.033-.332h-1.703z" fill="#696c71"/><path d="m97.438 198.903c.693.776 1.041 1.762 1.041 2.958s-.348 2.182-1.041 2.958-1.576 1.164-2.652 1.164c-1.074 0-1.955-.388-2.645-1.164-.689-.775-1.033-1.761-1.033-2.958 0-1.196.344-2.182 1.033-2.958.689-.775 1.57-1.163 2.645-1.163s1.958.387 2.652 1.163zm-.969 5.051c.43-.546.645-1.244.645-2.093s-.215-1.547-.645-2.093c-.428-.546-.99-.819-1.684-.819s-1.252.271-1.676.812c-.426.542-.637 1.241-.637 2.099s.211 1.558.637 2.1c.424.542.982.812 1.676.812s1.256-.272 1.684-.818z" fill="#696c71"/><path d="m100.143 205.852v-7.982h1.352v6.773h3.836v1.209z" fill="#696c71"/><path d="m28.816 261.341h98.66v29.229h-98.66z" fill="#fff"/><path d="m63.229 278.77c-.688-.767-1.033-1.757-1.033-2.971 0-1.213.346-2.203 1.033-2.97.689-.768 1.555-1.15 2.594-1.15.885 0 1.607.235 2.172.708.562.472.922 1.116 1.078 1.931h-1.326c-.346-.945-.988-1.418-1.924-1.418-.693 0-1.244.271-1.65.812-.408.543-.611 1.238-.611 2.087 0 .85.203 1.545.611 2.087.406.542.957.812 1.65.812.936 0 1.578-.477 1.924-1.431h1.326c-.156.824-.516 1.472-1.078 1.944-.564.472-1.287.708-2.172.708-1.04.001-1.905-.382-2.594-1.149z" fill="#595b5f"/><path d="m72.062 271.808v7.982h-1.352v-7.982z" fill="#595b5f"/><path d="m73.338 280.882 3.223-9.542h1.287l-3.225 9.542z" fill="#595b5f"/><path d="m79.725 278.77c-.688-.767-1.033-1.757-1.033-2.971 0-1.213.346-2.203 1.033-2.97.689-.768 1.555-1.15 2.594-1.15.885 0 1.607.235 2.172.708.562.472.922 1.116 1.078 1.931h-1.326c-.346-.945-.988-1.418-1.924-1.418-.693 0-1.244.271-1.65.812-.408.543-.611 1.238-.611 2.087 0 .85.203 1.545.611 2.087.406.542.957.812 1.65.812.936 0 1.578-.477 1.924-1.431h1.326c-.156.824-.516 1.472-1.078 1.944-.564.472-1.287.708-2.172.708-1.04.001-1.905-.382-2.594-1.149z" fill="#595b5f"/><path d="m87.207 279.791v-7.982h2.691c1.178 0 2.119.362 2.82 1.086s1.053 1.692 1.053 2.905c0 1.214-.352 2.183-1.053 2.905-.701.725-1.643 1.086-2.82 1.086zm1.352-1.209h1.287c.824 0 1.459-.247 1.904-.741.447-.494.67-1.174.67-2.041 0-.866-.223-1.549-.67-2.048-.445-.498-1.08-.747-1.904-.747h-1.287z" fill="#595b5f"/><path d="m28.82 413.654h98.652v43.654h-98.652z" fill="#fff"/><path d="m48.207 428.933h-.961v3.236h-1.354v-7.982h3.082c.84 0 1.504.207 1.988.619.486.41.729 1.002.729 1.773 0 .658-.18 1.182-.539 1.566-.359.387-.861.631-1.502.734l2.314 3.289h-1.534zm-.961-3.574v2.443h1.703c.441 0 .785-.111 1.033-.332.246-.221.369-.518.369-.891s-.123-.67-.369-.891c-.248-.221-.592-.33-1.033-.33h-1.703z" fill="#696c71"/><path d="m53.434 424.187h5.213v1.197h-3.887v2.105h3.523v1.184h-3.523v2.287h3.887v1.209h-5.213z" fill="#696c71"/><path d="m65.875 429.207h-1.742v-1.158h3.029v.625c0 1.092-.32 1.969-.957 2.633-.637.662-1.449.994-2.438.994-1.082 0-1.98-.385-2.689-1.15-.711-.768-1.066-1.758-1.066-2.971s.352-2.203 1.059-2.971 1.588-1.15 2.646-1.15c.893 0 1.623.234 2.189.701.568.469.93 1.109 1.086 1.924h-1.352c-.174-.459-.41-.807-.709-1.045s-.705-.357-1.215-.357c-.703 0-1.268.27-1.697.812-.43.541-.643 1.236-.643 2.086 0 .857.215 1.561.648 2.105.434.547 1.016.818 1.742.818.59 0 1.066-.17 1.43-.512.366-.343.591-.804.679-1.384z" fill="#696c71"/><path d="m70.176 424.187v7.982h-1.352v-7.982z" fill="#696c71"/><path d="m71.645 429.96h1.379c.252.797.854 1.195 1.807 1.195.469 0 .844-.105 1.125-.318s.422-.5.422-.865c0-.285-.088-.514-.266-.682-.178-.17-.475-.301-.891-.396l-1.352-.324c-1.326-.312-1.99-1.027-1.99-2.146 0-.684.254-1.25.762-1.695.506-.447 1.158-.67 1.955-.67.842 0 1.52.197 2.035.592s.848.934.994 1.617h-1.352c-.252-.709-.807-1.064-1.664-1.064-.434 0-.783.102-1.047.305s-.396.471-.396.799c0 .529.352.877 1.053 1.041l1.391.324c.65.148 1.158.408 1.521.781.365.371.547.85.547 1.43 0 .736-.266 1.324-.793 1.762-.529.438-1.215.656-2.055.656-.85 0-1.559-.207-2.125-.617-.568-.414-.922-.988-1.06-1.725z" fill="#696c71"/><path d="m78.848 425.384v-1.197h6.656v1.197h-2.652v6.785h-1.352v-6.785z" fill="#696c71"/><path d="m89.416 428.933h-.961v3.236h-1.354v-7.982h3.082c.84 0 1.504.207 1.988.619.486.41.729 1.002.729 1.773 0 .658-.18 1.182-.539 1.566-.359.387-.861.631-1.502.734l2.314 3.289h-1.535zm-.961-3.574v2.443h1.703c.441 0 .785-.111 1.033-.332.246-.221.369-.518.369-.891s-.123-.67-.369-.891c-.248-.221-.592-.33-1.033-.33h-1.703z" fill="#696c71"/><path d="m95.994 424.187v7.982h-1.352v-7.982z" fill="#696c71"/><path d="m98.086 424.187h5.213v1.197h-3.887v2.105h3.523v1.184h-3.523v2.287h3.887v1.209h-5.213z" fill="#696c71"/><path d="m104.469 429.96h1.379c.252.797.854 1.195 1.807 1.195.469 0 .844-.105 1.125-.318s.422-.5.422-.865c0-.285-.088-.514-.266-.682-.178-.17-.475-.301-.891-.396l-1.352-.324c-1.326-.312-1.99-1.027-1.99-2.146 0-.684.254-1.25.762-1.695.506-.447 1.158-.67 1.955-.67.842 0 1.52.197 2.035.592s.848.934.994 1.617h-1.352c-.252-.709-.807-1.064-1.664-1.064-.434 0-.783.102-1.047.305s-.396.471-.396.799c0 .529.352.877 1.053 1.041l1.391.324c.65.148 1.158.408 1.521.781.365.371.547.85.547 1.43 0 .736-.266 1.324-.793 1.762-.529.438-1.215.656-2.055.656-.85 0-1.559-.207-2.125-.617-.568-.414-.922-.988-1.06-1.725z" fill="#696c71"/><path d="m44.797 446.947h-3.42v-7.281h3.234c1.838 0 2.621.787 2.621 1.979 0 .822-.553 1.396-1.34 1.525.879.16 1.561.738 1.561 1.777 0 1.261-.959 2-2.656 2zm-2.014-4.25h1.732c.873 0 1.24-.381 1.24-.924 0-.547-.367-.938-1.24-.938h-1.732zm0 1.095v1.988h1.848c.904 0 1.342-.381 1.342-.98 0-.615-.438-1.008-1.342-1.008z" fill="#464647"/><path d="m52.633 445.714c0 .264.139.389.357.389.141 0 .281-.031.432-.102v.738c-.221.172-.502.322-.959.322-.582 0-1.02-.367-1.125-.98-.289.6-.934.994-1.777.994-.973 0-1.621-.521-1.621-1.4 0-.969.764-1.375 1.943-1.592l1.396-.268v-.148c0-.568-.297-.914-.885-.914-.582 0-.893.346-1.01.844l-1.26-.117c.176-1.039.973-1.766 2.324-1.766 1.316 0 2.184.621 2.184 1.963v2.037zm-1.354-1.144-.955.193c-.637.129-1.029.289-1.029.762 0 .361.256.627.703.627.729 0 1.281-.545 1.281-1.41z" fill="#464647"/><path d="m63.998 445.25c-.256 1.154-1.16 1.838-2.465 1.838-1.568 0-2.703-1.006-2.703-2.611 0-1.607 1.145-2.762 2.668-2.762 1.666 0 2.52 1.154 2.52 2.541v.439h-3.826c.049.83.639 1.342 1.387 1.342.684 0 1.1-.301 1.295-.902zm-1.332-1.282c-.023-.658-.404-1.24-1.18-1.24-.762 0-1.189.557-1.27 1.24z" fill="#464647"/><path d="m68.344 443.214c-.27-.15-.496-.221-.832-.221-.717 0-1.201.508-1.201 1.436v2.518h-1.391v-5.094h1.391v.971c.182-.578.715-1.109 1.422-1.109.312 0 .566.078.713.205z" fill="#464647"/><path d="m69.031 439.666h1.42v1.354h-1.42zm1.41 2.187v5.094h-1.387v-5.094z" fill="#464647"/><path d="m72.971 446.947h-1.389v-5.094h1.389v.83c.254-.578.9-.969 1.66-.969 1.369 0 1.863.922 1.863 2.059v3.174h-1.387v-2.898c0-.787-.311-1.238-.99-1.238-.707 0-1.146.555-1.146 1.41z" fill="#464647"/><path d="m82.008 445.714c0 .264.139.389.355.389.141 0 .281-.031.428-.102v.738c-.217.172-.494.322-.959.322-.574 0-1.016-.367-1.119-.98-.289.6-.936.994-1.779.994-.973 0-1.617-.521-1.617-1.4 0-.969.76-1.375 1.939-1.592l1.4-.268v-.148c0-.568-.303-.914-.893-.914-.574 0-.891.346-1.006.844l-1.26-.117c.176-1.039.973-1.766 2.324-1.766 1.316 0 2.186.621 2.186 1.963v2.037zm-1.352-1.144-.959.193c-.637.129-1.029.289-1.029.762 0 .361.252.627.703.627.729 0 1.285-.545 1.285-1.41z" fill="#464647"/><path d="m54.023 441.56v-2.102h1.762v2.776z" fill="#464647"/><path d="m54.023 442.22 1.206.459-1.206.463z" fill="#464647"/><path d="m55.785 443.125v1.017l-.857 2.805h-.905v-3.151z" fill="#464647"/><path d="m58.154 441.56v-2.102h-1.761v2.776z" fill="#464647"/><path d="m58.154 442.22-1.209.459 1.209.463z" fill="#464647"/><path d="m56.393 443.125v1.017l.859 2.805h.902v-3.151z" fill="#464647"/><path d="m94.23 445.21c-.244 1.162-1.092 1.879-2.338 1.879-1.479 0-2.582-1.047-2.582-2.621 0-1.607 1.096-2.76 2.537-2.76 1.596 0 2.395 1.152 2.395 2.539v.328h-4.191c.047 1.129.834 1.926 1.842 1.926.941 0 1.516-.469 1.73-1.375zm-.748-1.142c-.025-.938-.553-1.795-1.635-1.795-1.008 0-1.666.844-1.785 1.795z" fill="#00a9a2"/><path d="m96.146 446.947h-.715v-5.098h.715v.939c.248-.619.951-1.08 1.715-1.08 1.316 0 1.869.859 1.869 2.08v3.158h-.717v-3.182c0-.904-.471-1.492-1.342-1.492-.809 0-1.525.635-1.525 1.621z" fill="#00a9a2"/><path d="m101.371 442.378h-.783v-.354l.305-.057c.469-.094.564-.318.668-.809l.154-.73h.361v1.42h1.482v.529h-1.482v3.455c0 .455.189.68.66.68.352 0 .703-.176.998-.352v.506c-.363.279-.729.422-1.246.422-.682 0-1.117-.342-1.117-1.27z" fill="#00a9a2"/><path d="m107.564 442.568c-.295-.154-.471-.199-.773-.199-.742 0-1.342.762-1.342 1.785v2.793h-.717v-5.098h.717v1.072c.201-.588.715-1.213 1.467-1.213.318 0 .541.07.729.236z" fill="#00a9a2"/><path d="m112.391 446.091c0 .271.166.4.424.4.117 0 .316-.049.455-.129v.385c-.15.178-.314.305-.668.305-.504 0-.869-.432-.893-1.08-.27.6-1.021 1.117-1.891 1.117-.951 0-1.586-.527-1.586-1.41 0-.963.848-1.352 2.115-1.611l1.361-.279v-.258c0-.775-.455-1.258-1.258-1.258-.822 0-1.279.482-1.455 1.139l-.609-.117c.199-.916.949-1.586 2.055-1.586 1.268 0 1.949.67 1.949 1.926v2.456zm-.682-1.773-1.246.27c-.928.199-1.502.389-1.502 1.068 0 .482.318.881.986.881.998 0 1.762-.762 1.762-1.904z" fill="#00a9a2"/><path d="m114.916 439.546v7.4h-.719v-7.4z" fill="#00a9a2"/><path d="m87.766 444.835c-.088.953-.682 1.656-1.732 1.656-1.068 0-1.795-.836-1.795-2.094 0-1.256.727-2.09 1.795-2.09 1.043 0 1.639.672 1.732 1.611l.654-.049c-.119-1.201-.914-2.162-2.363-2.162-1.516 0-2.572 1.068-2.572 2.689 0 1.623 1.057 2.691 2.572 2.691 1.461 0 2.256-.973 2.367-2.184z" fill="#00a9a2"/><path d="m28.834 65.493h98.625v51.953h-98.625z" fill="#fff"/><path d="m68.092 74.659v7.982h-1.354v-7.982z" fill="#595b5f"/><path d="m70.184 82.641v-7.982h2.691c1.18 0 2.119.362 2.822 1.085.701.724 1.053 1.692 1.053 2.905 0 1.214-.352 2.182-1.053 2.906-.703.724-1.643 1.085-2.822 1.085h-2.691zm1.353-1.209h1.287c.822 0 1.457-.247 1.904-.741.445-.494.668-1.174.668-2.041 0-.866-.223-1.549-.668-2.047-.447-.498-1.082-.748-1.904-.748h-1.287z" fill="#595b5f"/><path d="m78.414 74.659h5.213v1.196h-3.887v2.106h3.523v1.183h-3.523v2.288h3.887v1.209h-5.213z" fill="#595b5f"/><path d="m84.939 80.977h1.324c.148.485.529.728 1.145.728.303 0 .545-.059.723-.175.178-.117.266-.288.266-.514 0-.156-.053-.279-.156-.371-.104-.091-.277-.167-.52-.228l-1.195-.286c-.955-.226-1.432-.754-1.432-1.586 0-.52.207-.951.619-1.293.41-.342.934-.513 1.566-.513.658 0 1.182.149 1.572.448.391.299.637.717.74 1.254h-1.273c-.129-.424-.48-.637-1.053-.637-.252 0-.469.057-.65.169-.182.113-.273.277-.273.494 0 .251.199.429.6.533l1.221.286c.988.234 1.482.78 1.482 1.638 0 .563-.211 1.012-.631 1.345-.42.334-.959.5-1.617.5-.678 0-1.234-.16-1.672-.481-.438-.318-.7-.756-.786-1.311z" fill="#595b5f"/><path clip-rule="evenodd" d="m73.914 97.5c0 2.186-.004 4.374 0 6.559 0 .103-.029.15-.127.188-1.309.529-2.615 1.061-3.92 1.596-.098.04-.154.027-.227-.046-2.158-2.159-4.316-4.316-6.473-6.473-.098-.095-.098-.095-.201-.014-1.18.917-2.352 1.835-3.531 2.752-.182.143-.367.282-.551.428-.043.037-.078.037-.135.01-.5-.252-1.004-.503-1.51-.754-.059-.028-.08-.062-.08-.13 0-2.734 0-5.466 0-8.2 0-.067.018-.103.08-.133.5-.249 1.006-.5 1.506-.751.057-.028.09-.03.145.012.947.751 1.904 1.502 2.855 2.251.402.316.805.632 1.205.951.076.063.119.063.191-.008 2.16-2.168 4.326-4.331 6.49-6.498.076-.079.137-.092.242-.052 1.305.527 2.607 1.047 3.912 1.562.104.039.127.09.127.188-.002 2.189.002 4.375.002 6.562zm-4.197 3.428c.008-.005.014-.01.021-.016 0-2.265 0-4.529 0-6.827-1.484 1.151-2.951 2.285-4.432 3.432 1.481 1.145 2.944 2.277 4.411 3.411zm-10.895-.808c.043-.04.068-.061.092-.086.309-.322.623-.645.936-.965.479-.495.959-.989 1.441-1.482.057-.058.053-.09-.004-.145-.791-.792-1.586-1.586-2.381-2.378-.021-.024-.049-.039-.084-.07z" fill="#b3b3b3" fill-rule="evenodd"/><path clip-rule="evenodd" d="m99.133 89.438v16.427c-5.479 0-10.953 0-16.432 0 0-5.475 0-10.949 0-16.427zm-11.707 7.701c0-1.478 0-2.946 0-4.418h1.02c0-.446 0-.889 0-1.328-1.164 0-2.322 0-3.482 0v1.331h1.018v4.417c-.344 0-.68 0-1.018 0v1.331h3.482c0-.444 0-.886 0-1.333-.342 0-.676 0-1.02 0zm2.156.392c.004.008.008.015.01.018.324.385.709.685 1.182.859.535.2 1.088.212 1.645.106.801-.152 1.348-.609 1.609-1.386.133-.398.176-.809.176-1.226 0-1.481 0-2.961 0-4.443 0-.022 0-.043 0-.068-.518 0-1.027 0-1.543 0v.087c0 1.477.002 2.951 0 4.425 0 .153-.016.303-.035.454-.029.197-.1.381-.238.53-.217.232-.502.275-.801.24-.309-.036-.561-.196-.789-.401-.094-.086-.182-.178-.277-.269-.316.357-.626.716-.939 1.074zm-5.236 6.075h6.154c0-.342 0-.681 0-1.017-2.055 0-4.104 0-6.154 0z" fill="#b3b3b3" fill-rule="evenodd"/><path d="m296.989 438.654v9.875" fill="none" stroke="#696c71" stroke-miterlimit="10" stroke-width=".6273"/><path d="m294.587 446.416 2.402 4.158 2.405-4.158z" fill="#696c71"/><path d="m296.989 394.341v9.877" fill="none" stroke="#696c71" stroke-miterlimit="10" stroke-width=".6273"/><path d="m294.587 402.105 2.402 4.156 2.405-4.156z" fill="#696c71"/><path d="m296.989 330.341v9.877" fill="none" stroke="#696c71" stroke-miterlimit="10" stroke-width=".6273"/><path d="m294.587 338.105 2.402 4.158 2.405-4.158z" fill="#696c71"/><path d="m296.989 286.341v9.879" fill="none" stroke="#696c71" stroke-miterlimit="10" stroke-width=".6273"/><path d="m294.587 294.105 2.402 4.158 2.405-4.158z" fill="#696c71"/><path d="m296.989 242.533v9.875" fill="none" stroke="#696c71" stroke-miterlimit="10" stroke-width=".6273"/><path d="m294.587 250.292 2.402 4.161 2.405-4.161z" fill="#696c71"/><path d="m296.989 197.936v9.876" fill="none" stroke="#696c71" stroke-miterlimit="10" stroke-width=".6273"/><path d="m294.587 205.698 2.402 4.158 2.405-4.158z" fill="#696c71"/><path d="m296.989 154.341v9.877" fill="none" stroke="#696c71" stroke-miterlimit="10" stroke-width=".6273"/><path d="m294.587 162.104 2.402 4.158 2.405-4.158z" fill="#696c71"/><path d="m296.989 110.493v9.877" fill="none" stroke="#696c71" stroke-miterlimit="10" stroke-width=".6273"/><path d="m294.587 118.256 2.402 4.159 2.405-4.159z" fill="#696c71"/></svg>