<?xml version="1.0" encoding="utf-8"?>
<!-- Generator: Adobe Illustrator 16.0.4, SVG Export Plug-In . SVG Version: 6.00 Build 0)  -->
<!DOCTYPE svg PUBLIC "-//W3C//DTD SVG 1.0//EN" "http://www.w3.org/TR/2001/REC-SVG-20010904/DTD/svg10.dtd">
<svg version="1.0" id="Layer_1" xmlns="http://www.w3.org/2000/svg" xmlns:xlink="http://www.w3.org/1999/xlink" x="0px" y="0px"
	 width="452.664px" height="497px" viewBox="0 0 452.664 497" enable-background="new 0 0 452.664 497" xml:space="preserve">
<g opacity="0.1">
	<g>
		<defs>
			<rect id="SVGID_1_" x="-49.04" y="-30.924" width="540.24" height="533.76"/>
		</defs>
		<clipPath id="SVGID_2_">
			<use xlink:href="#SVGID_1_"  overflow="visible"/>
		</clipPath>
		<g clip-path="url(#SVGID_2_)">
			<defs>
				<rect id="SVGID_3_" x="-49.04" y="-30.925" width="540.239" height="533.761"/>
			</defs>
			<clipPath id="SVGID_4_">
				<use xlink:href="#SVGID_3_"  overflow="visible"/>
			</clipPath>
			<g transform="matrix(1 0 0 1 -3.814697e-06 -1.907349e-06)" clip-path="url(#SVGID_4_)">
				
					<image overflow="visible" width="2251" height="2224" xlink:href="DD09C068EED3BD97.png"  transform="matrix(0.24 0 0 0.24 -49.04 -30.9248)">
				</image>
			</g>
		</g>
	</g>
</g>
<rect x="-29.845" y="-22.348" fill="#FFFFFF" width="512.663" height="530.348"/>
<g>
	<g>
		<path fill="#FFFFFF" d="M54.59,233.165c0.352,0.112,0.64,0.326,0.863,0.642c0.225,0.316,0.336,0.666,0.336,1.05
			c0,0.681-0.221,1.202-0.666,1.566c-0.443,0.364-1.053,0.546-1.829,0.546h-2.82V229.6h2.58c0.784,0,1.396,0.172,1.836,0.517
			c0.44,0.344,0.66,0.84,0.66,1.487c0,0.384-0.091,0.717-0.271,0.996C55.1,232.88,54.869,233.068,54.59,233.165z M51.686,232.696
			h1.355c0.873,0,1.309-0.34,1.309-1.02c0-0.664-0.436-0.996-1.309-0.996h-1.355V232.696z M51.686,233.728v2.16h1.584
			c0.416,0,0.736-0.096,0.96-0.288c0.224-0.191,0.337-0.456,0.337-0.792s-0.113-0.6-0.337-0.792
			c-0.224-0.191-0.544-0.288-0.96-0.288H51.686z"/>
		<path fill="#FFFFFF" d="M60.949,229.6h1.2l2.832,7.368h-1.272l-0.756-2.04h-2.82l-0.756,2.04h-1.26L60.949,229.6z M61.537,231.125
			l-1.008,2.724h2.016L61.537,231.125z"/>
		<path fill="#FFFFFF" d="M67.838,236.968V229.6h1.248v6.252h3.539v1.116H67.838z"/>
		<path fill="#FFFFFF" d="M75.697,236.968V229.6h1.248v6.252h3.54v1.116H75.697z"/>
		<path fill="#FFFFFF" d="M83.557,229.6h4.812v1.104h-3.588v1.943h3.252v1.093h-3.252v2.111h3.588v1.116h-4.812V229.6z"/>
		<path fill="#FFFFFF" d="M93.662,233.98h-0.889v2.988h-1.248V229.6h2.844c0.776,0,1.389,0.19,1.836,0.57
			c0.448,0.38,0.672,0.926,0.672,1.638c0,0.608-0.166,1.09-0.498,1.446c-0.332,0.355-0.793,0.582-1.385,0.678l2.135,3.036h-1.416
			L93.662,233.98z M92.773,230.68v2.256h1.572c0.408,0,0.726-0.102,0.953-0.306c0.229-0.204,0.343-0.479,0.343-0.822
			s-0.114-0.618-0.343-0.822c-0.228-0.203-0.545-0.306-0.953-0.306H92.773z"/>
		<path fill="#FFFFFF" d="M101.233,229.6v7.368h-1.248V229.6H101.233z"/>
		<path fill="#FFFFFF" d="M110.594,229.6v7.368h-0.961l-3.768-5.364v5.364h-1.2V229.6h1.177l3.551,5.112V229.6H110.594z"/>
		<path fill="#FFFFFF" d="M116.281,229.6h1.199l2.832,7.368h-1.271l-0.756-2.04h-2.82l-0.756,2.04h-1.26L116.281,229.6z
			 M116.869,231.125l-1.008,2.724h2.016L116.869,231.125z"/>
	</g>
	<g>
		<path fill="#FFFFFF" d="M49.898,249.329h1.271c0.232,0.736,0.787,1.105,1.668,1.105c0.432,0,0.777-0.1,1.037-0.295
			c0.261-0.196,0.391-0.462,0.391-0.798c0-0.264-0.082-0.474-0.246-0.63s-0.438-0.277-0.822-0.366l-1.248-0.3
			c-1.224-0.288-1.836-0.948-1.836-1.979c0-0.632,0.234-1.154,0.703-1.566c0.467-0.412,1.069-0.618,1.805-0.618
			c0.776,0,1.402,0.183,1.879,0.546c0.476,0.364,0.781,0.862,0.918,1.494H54.17c-0.232-0.655-0.744-0.983-1.536-0.983
			c-0.4,0-0.722,0.094-0.966,0.281c-0.244,0.188-0.366,0.435-0.366,0.738c0,0.488,0.323,0.809,0.972,0.96l1.284,0.3
			c0.601,0.137,1.067,0.377,1.404,0.721c0.336,0.344,0.504,0.784,0.504,1.319c0,0.681-0.244,1.222-0.731,1.626
			c-0.488,0.404-1.121,0.605-1.896,0.605c-0.784,0-1.438-0.189-1.963-0.57C50.352,250.539,50.025,250.008,49.898,249.329z"/>
		<path fill="#FFFFFF" d="M58.502,244h4.812v1.104h-3.588v1.943h3.252v1.093h-3.252v2.111h3.588v1.117h-4.812V244z"/>
		<path fill="#FFFFFF" d="M68.605,248.38h-0.888v2.989H66.47V244h2.845c0.775,0,1.387,0.19,1.836,0.57
			c0.447,0.38,0.672,0.926,0.672,1.638c0,0.608-0.166,1.09-0.498,1.446c-0.332,0.355-0.795,0.582-1.387,0.678l2.137,3.037h-1.416
			L68.605,248.38z M67.718,245.081v2.256h1.572c0.407,0,0.726-0.102,0.954-0.306c0.228-0.204,0.342-0.479,0.342-0.822
			s-0.114-0.618-0.342-0.822c-0.229-0.203-0.547-0.306-0.954-0.306H67.718z"/>
		<path fill="#FFFFFF" d="M78.205,251.369h-1.188L74.234,244h1.307l2.089,5.748L79.718,244h1.272L78.205,251.369z"/>
		<path fill="#FFFFFF" d="M85.094,244v7.369h-1.248V244H85.094z"/>
		<path fill="#FFFFFF" d="M89.084,250.426c-0.637-0.708-0.955-1.621-0.955-2.741s0.318-2.034,0.955-2.742
			c0.635-0.708,1.434-1.062,2.394-1.062c0.815,0,1.483,0.219,2.004,0.654c0.521,0.437,0.853,1.03,0.996,1.782h-1.224
			c-0.32-0.872-0.912-1.309-1.776-1.309c-0.64,0-1.147,0.25-1.524,0.75c-0.376,0.5-0.563,1.143-0.563,1.927s0.188,1.426,0.563,1.926
			c0.377,0.5,0.885,0.75,1.524,0.75c0.864,0,1.456-0.441,1.776-1.321h1.224c-0.144,0.76-0.476,1.358-0.996,1.793
			c-0.521,0.438-1.188,0.654-2.004,0.654C90.518,251.488,89.719,251.135,89.084,250.426z"/>
		<path fill="#FFFFFF" d="M97.489,244h4.812v1.104h-3.588v1.943h3.252v1.093h-3.252v2.111h3.588v1.117h-4.812V244z"/>
	</g>
	<rect x="-0.641" y="70.727" fill="#F5F6F6" width="452.814" height="352.466"/>
	<rect x="-0.641" y="35.065" fill="#F5F6F6" width="154.806" height="35.58"/>
	<g>
		<path fill="#696C71" d="M30.529,61.111c-1.015,0-1.826-0.354-2.435-1.063c-0.609-0.709-0.913-1.603-0.913-2.682
			s0.304-1.972,0.913-2.679c0.608-0.707,1.42-1.06,2.435-1.06c1.011,0,1.82,0.354,2.429,1.06c0.609,0.707,0.913,1.6,0.913,2.679
			s-0.304,1.973-0.913,2.682C32.35,60.756,31.54,61.111,30.529,61.111z M30.529,60.127c0.63,0,1.131-0.246,1.502-0.736
			c0.372-0.491,0.559-1.166,0.559-2.025c0-0.855-0.187-1.528-0.559-2.019c-0.371-0.491-0.872-0.736-1.502-0.736
			c-0.634,0-1.137,0.246-1.508,0.736c-0.372,0.491-0.559,1.164-0.559,2.019c0,0.859,0.187,1.534,0.559,2.025
			C29.393,59.881,29.896,60.127,30.529,60.127z"/>
		<path fill="#696C71" d="M36.753,55.418c0.363-0.593,0.797-1.04,1.301-1.34c0.504-0.3,0.967-0.451,1.391-0.451
			c0.592,0,1.125,0.256,1.6,0.768c0.474,0.512,0.711,1.289,0.711,2.33c0,0.821-0.158,1.554-0.474,2.199
			c-0.315,0.646-0.735,1.155-1.26,1.53c-0.524,0.374-1.175,0.562-1.948,0.562c-0.221,0-0.559-0.023-1.016-0.07
			c-0.068-0.008-0.17-0.019-0.305-0.032h-1.182V50.669h1.182V55.418z M36.753,56.822v3.044c0.427,0.11,0.82,0.165,1.18,0.165
			c0.716,0,1.317-0.281,1.807-0.842c0.488-0.561,0.732-1.329,0.732-2.304c0-0.708-0.133-1.239-0.399-1.595
			c-0.267-0.355-0.569-0.534-0.907-0.534c-0.369,0-0.773,0.187-1.216,0.559C37.507,55.689,37.108,56.191,36.753,56.822z"/>
		<path fill="#696C71" d="M43.792,60.54v-1.25c0.474,0.309,0.976,0.526,1.504,0.65c0.529,0.125,0.979,0.188,1.346,0.188
			c0.598,0,1.026-0.096,1.289-0.289c0.263-0.192,0.394-0.433,0.394-0.72c0-0.19-0.062-0.354-0.185-0.489
			c-0.122-0.135-0.427-0.303-0.914-0.501l-0.406-0.165l-0.818-0.324c-0.88-0.343-1.435-0.66-1.663-0.952
			c-0.232-0.288-0.349-0.639-0.349-1.054c0-0.584,0.225-1.064,0.677-1.441c0.451-0.376,1.183-0.565,2.195-0.565
			c0.759,0,1.477,0.11,2.155,0.33v1.073c-0.78-0.279-1.514-0.419-2.2-0.419c-0.501,0-0.892,0.088-1.174,0.263
			c-0.281,0.176-0.423,0.395-0.423,0.657c0,0.254,0.123,0.457,0.369,0.609c0.24,0.152,0.635,0.328,1.182,0.527l0.8,0.292
			c0.733,0.267,1.247,0.557,1.543,0.87c0.295,0.313,0.442,0.705,0.442,1.174c0,0.614-0.236,1.118-0.708,1.514
			c-0.472,0.396-1.226,0.593-2.263,0.593C45.68,61.111,44.748,60.92,43.792,60.54z"/>
		<path fill="#696C71" d="M57.654,60.442c-0.943,0.446-1.837,0.668-2.679,0.668c-0.639,0-1.21-0.159-1.714-0.476
			c-0.504-0.317-0.906-0.771-1.209-1.36s-0.454-1.221-0.454-1.893c0-0.647,0.144-1.269,0.432-1.865s0.689-1.061,1.206-1.392
			c0.517-0.332,1.092-0.498,1.727-0.498c0.842,0,1.519,0.3,2.028,0.9s0.765,1.525,0.765,2.776v0.253h-4.888
			c0,0.492,0.103,0.942,0.308,1.349s0.476,0.713,0.81,0.917s0.715,0.305,1.143,0.305c0.762,0,1.604-0.254,2.526-0.764V60.442z
			 M52.938,56.674h3.536v-0.171c0-0.578-0.142-1.038-0.425-1.379c-0.284-0.342-0.663-0.513-1.137-0.513
			c-0.479,0-0.892,0.174-1.241,0.522C53.322,55.481,53.078,55.995,52.938,56.674z"/>
		<path fill="#696C71" d="M60.409,60.914v-7.09h1.181v1.549c0.368-0.584,0.79-1.021,1.267-1.311c0.476-0.29,1.006-0.435,1.59-0.435
			c0.428,0,0.854,0.065,1.282,0.197v2.558h-1.137v-1.619c-0.198-0.034-0.355-0.051-0.469-0.051c-0.44,0-0.872,0.173-1.295,0.521
			c-0.424,0.347-0.836,0.868-1.238,1.562v4.12H60.409z"/>
		<path fill="#696C71" d="M70.163,60.914l-3.08-7.09h1.295l2.434,5.618l2.475-5.618h1.186l-3.104,7.09H70.163z"/>
		<path fill="#696C71" d="M80.563,59.328c-0.359,0.59-0.793,1.035-1.299,1.334c-0.506,0.299-0.97,0.449-1.394,0.449
			c-0.593,0-1.125-0.256-1.597-0.768s-0.708-1.289-0.708-2.33c0-0.821,0.156-1.554,0.471-2.2c0.313-0.645,0.732-1.155,1.258-1.529
			c0.525-0.375,1.176-0.562,1.951-0.562c0.225,0,0.562,0.023,1.015,0.07c0.067,0.008,0.169,0.019,0.304,0.032h1.185v5.007
			c0,0.855,0.091,1.55,0.273,2.083H80.79C80.695,60.526,80.62,59.998,80.563,59.328z M80.568,57.916v-3.044
			c-0.42-0.11-0.81-0.165-1.17-0.165c-0.729,0-1.336,0.282-1.822,0.845c-0.485,0.563-0.728,1.331-0.728,2.301
			c0,0.703,0.133,1.234,0.397,1.592c0.265,0.358,0.566,0.537,0.906,0.537c0.368,0,0.775-0.187,1.221-0.559
			C79.818,59.049,80.217,58.547,80.568,57.916z"/>
		<path fill="#696C71" d="M85.043,55.418c0.363-0.593,0.797-1.04,1.301-1.34c0.504-0.3,0.967-0.451,1.391-0.451
			c0.592,0,1.125,0.256,1.6,0.768c0.474,0.512,0.711,1.289,0.711,2.33c0,0.821-0.158,1.554-0.474,2.199
			c-0.315,0.646-0.735,1.155-1.26,1.53c-0.524,0.374-1.175,0.562-1.948,0.562c-0.221,0-0.559-0.023-1.016-0.07
			c-0.068-0.008-0.17-0.019-0.305-0.032h-1.182V50.669h1.182V55.418z M85.043,56.822v3.044c0.427,0.11,0.82,0.165,1.18,0.165
			c0.716,0,1.317-0.281,1.807-0.842c0.488-0.561,0.732-1.329,0.732-2.304c0-0.708-0.133-1.239-0.399-1.595
			c-0.267-0.355-0.569-0.534-0.907-0.534c-0.369,0-0.773,0.187-1.216,0.559C85.797,55.689,85.398,56.191,85.043,56.822z"/>
		<path fill="#696C71" d="M93.985,60.914v-6.106h-1.968v-0.984h3.148v6.106h1.974v0.984H93.985z M93.795,51.263
			c0-0.266,0.091-0.464,0.271-0.595c0.182-0.13,0.353-0.196,0.513-0.196c0.164,0,0.337,0.065,0.519,0.196
			c0.181,0.131,0.271,0.329,0.271,0.595c0,0.261-0.091,0.457-0.271,0.588c-0.182,0.13-0.354,0.196-0.519,0.196
			c-0.16,0-0.331-0.065-0.513-0.196C93.886,51.72,93.795,51.524,93.795,51.263z"/>
		<path fill="#696C71" d="M101.952,60.914v-9.261h-2.121v-0.984h3.301v9.261h2.216v0.984H101.952z"/>
		<path fill="#696C71" d="M110.082,60.914v-6.106h-1.968v-0.984h3.148v6.106h1.974v0.984H110.082z M109.892,51.263
			c0-0.266,0.091-0.464,0.271-0.595c0.182-0.13,0.353-0.196,0.513-0.196c0.164,0,0.337,0.065,0.519,0.196
			c0.181,0.131,0.271,0.329,0.271,0.595c0,0.261-0.091,0.457-0.271,0.588c-0.182,0.13-0.354,0.196-0.519,0.196
			c-0.16,0-0.331-0.065-0.513-0.196C109.982,51.72,109.892,51.524,109.892,51.263z"/>
		<path fill="#696C71" d="M122.072,60.628c-0.554,0.233-0.956,0.372-1.205,0.416c-0.25,0.045-0.491,0.067-0.725,0.067
			c-0.494,0-0.947-0.095-1.357-0.286c-0.411-0.19-0.721-0.472-0.931-0.844c-0.209-0.373-0.313-0.948-0.313-1.727v-2.856h-1.771
			v-0.984h1.771v-2.856h1.18v2.856h3.155v0.984h-3.155v2.837c0,0.571,0.068,0.975,0.203,1.209c0.136,0.235,0.316,0.408,0.543,0.518
			s0.494,0.165,0.803,0.165c0.572,0,1.173-0.18,1.803-0.54V60.628z"/>
		<path fill="#696C71" d="M126.804,60.635l-3.275-6.811h1.301l2.608,5.324l2.179-5.324h1.187l-2.742,6.59
			c-0.58,1.389-1.131,2.312-1.654,2.768c-0.522,0.456-1.198,0.684-2.028,0.684c-0.359,0-0.682-0.032-0.965-0.095V62.73
			c0.326,0.101,0.637,0.152,0.933,0.152c0.381,0,0.719-0.074,1.016-0.222c0.296-0.147,0.566-0.409,0.812-0.784
			c0.245-0.375,0.419-0.701,0.521-0.975L126.804,60.635z"/>
	</g>
	<rect x="297.368" y="35.065" fill="#F5F6F6" width="154.806" height="36.877"/>
	<g>
		<path fill="#696C71" d="M344.864,60.54v-1.25c0.474,0.309,0.976,0.526,1.504,0.65c0.529,0.125,0.979,0.188,1.346,0.188
			c0.598,0,1.026-0.096,1.289-0.289c0.263-0.192,0.394-0.433,0.394-0.72c0-0.19-0.062-0.354-0.185-0.489
			c-0.122-0.135-0.427-0.303-0.914-0.501l-0.406-0.165l-0.818-0.324c-0.88-0.343-1.435-0.66-1.663-0.952
			c-0.232-0.288-0.349-0.639-0.349-1.054c0-0.584,0.225-1.064,0.677-1.441c0.451-0.376,1.183-0.565,2.195-0.565
			c0.759,0,1.477,0.11,2.155,0.33v1.073c-0.78-0.279-1.514-0.419-2.2-0.419c-0.501,0-0.892,0.088-1.174,0.263
			c-0.281,0.176-0.423,0.395-0.423,0.657c0,0.254,0.123,0.457,0.369,0.609c0.24,0.152,0.635,0.328,1.182,0.527l0.8,0.292
			c0.733,0.267,1.247,0.557,1.543,0.87c0.295,0.313,0.442,0.705,0.442,1.174c0,0.614-0.236,1.118-0.708,1.514
			c-0.472,0.396-1.226,0.593-2.263,0.593C346.752,61.111,345.82,60.92,344.864,60.54z"/>
		<path fill="#696C71" d="M358.727,60.442c-0.943,0.446-1.837,0.668-2.679,0.668c-0.639,0-1.21-0.159-1.714-0.476
			c-0.504-0.317-0.906-0.771-1.209-1.36s-0.454-1.221-0.454-1.893c0-0.647,0.144-1.269,0.432-1.865s0.689-1.061,1.206-1.392
			c0.517-0.332,1.092-0.498,1.727-0.498c0.842,0,1.519,0.3,2.028,0.9s0.765,1.525,0.765,2.776v0.253h-4.888
			c0,0.492,0.103,0.942,0.308,1.349s0.476,0.713,0.81,0.917s0.715,0.305,1.143,0.305c0.762,0,1.604-0.254,2.526-0.764V60.442z
			 M354.01,56.674h3.536v-0.171c0-0.578-0.142-1.038-0.425-1.379c-0.284-0.342-0.663-0.513-1.137-0.513
			c-0.479,0-0.892,0.174-1.241,0.522C354.395,55.481,354.15,55.995,354.01,56.674z"/>
		<path fill="#696C71" d="M366.846,60.711c-0.792,0.267-1.545,0.4-2.26,0.4c-0.711,0-1.343-0.164-1.896-0.492
			c-0.552-0.328-0.982-0.772-1.292-1.333c-0.309-0.561-0.463-1.199-0.463-1.914c0-1.075,0.351-1.968,1.051-2.679
			s1.545-1.066,2.535-1.066c0.732,0,1.507,0.138,2.324,0.413v1.136c-0.826-0.376-1.564-0.565-2.216-0.565
			c-0.432,0-0.838,0.107-1.219,0.321c-0.381,0.213-0.675,0.547-0.882,1c-0.208,0.453-0.312,0.918-0.312,1.396
			c0,0.639,0.2,1.249,0.6,1.828c0.4,0.58,1.027,0.87,1.882,0.87c0.259,0,0.513-0.018,0.762-0.054
			c0.25-0.036,0.711-0.168,1.385-0.397V60.711z"/>
		<path fill="#696C71" d="M374.76,53.824v7.09h-1.181v-1.555c-0.381,0.584-0.804,1.022-1.27,1.314s-0.931,0.438-1.396,0.438
			c-0.415,0-0.795-0.111-1.14-0.333c-0.345-0.222-0.585-0.514-0.72-0.876c-0.136-0.361-0.203-1.067-0.203-2.117v-3.961h1.18v4.107
			c0,0.681,0.033,1.131,0.099,1.349c0.065,0.218,0.187,0.397,0.362,0.537s0.365,0.209,0.568,0.209c0.414,0,0.859-0.196,1.336-0.587
			c0.476-0.392,0.87-0.886,1.184-1.482v-4.132H374.76z"/>
		<path fill="#696C71" d="M377.578,60.914v-7.09h1.181v1.549c0.368-0.584,0.79-1.021,1.267-1.311c0.476-0.29,1.006-0.435,1.59-0.435
			c0.428,0,0.854,0.065,1.282,0.197v2.558h-1.137v-1.619c-0.198-0.034-0.355-0.051-0.469-0.051c-0.44,0-0.872,0.173-1.295,0.521
			c-0.424,0.347-0.836,0.868-1.238,1.562v4.12H377.578z"/>
		<path fill="#696C71" d="M387.01,60.914v-6.106h-1.968v-0.984h3.148v6.106h1.974v0.984H387.01z M386.819,51.263
			c0-0.266,0.091-0.464,0.271-0.595c0.182-0.13,0.353-0.196,0.513-0.196c0.164,0,0.337,0.065,0.519,0.196
			c0.181,0.131,0.271,0.329,0.271,0.595c0,0.261-0.091,0.457-0.271,0.588c-0.182,0.13-0.354,0.196-0.519,0.196
			c-0.16,0-0.331-0.065-0.513-0.196C386.91,51.72,386.819,51.524,386.819,51.263z"/>
		<path fill="#696C71" d="M399,60.628c-0.554,0.233-0.956,0.372-1.205,0.416c-0.25,0.045-0.491,0.067-0.725,0.067
			c-0.494,0-0.947-0.095-1.357-0.286c-0.411-0.19-0.721-0.472-0.931-0.844c-0.209-0.373-0.313-0.948-0.313-1.727v-2.856h-1.771
			v-0.984h1.771v-2.856h1.18v2.856h3.155v0.984h-3.155v2.837c0,0.571,0.068,0.975,0.203,1.209c0.136,0.235,0.316,0.408,0.543,0.518
			s0.494,0.165,0.803,0.165c0.572,0,1.173-0.18,1.803-0.54V60.628z"/>
		<path fill="#696C71" d="M403.731,60.635l-3.275-6.811h1.301l2.608,5.324l2.179-5.324h1.187l-2.742,6.59
			c-0.58,1.389-1.131,2.312-1.654,2.768c-0.522,0.456-1.198,0.684-2.028,0.684c-0.359,0-0.682-0.032-0.965-0.095V62.73
			c0.326,0.101,0.637,0.152,0.933,0.152c0.381,0,0.719-0.074,1.016-0.222c0.296-0.147,0.566-0.409,0.812-0.784
			c0.245-0.375,0.419-0.701,0.521-0.975L403.731,60.635z"/>
	</g>
	
		<line fill="none" stroke="#696C71" stroke-width="0.6735" stroke-miterlimit="10" x1="227.062" y1="35.812" x2="227.062" y2="109.801"/>
	<g>
		<circle fill="#FFFFFF" stroke="#696C71" stroke-width="1.1259" stroke-miterlimit="10" cx="227.062" cy="29.797" r="26.93"/>
		<g>
			<path fill="#696C71" d="M217.916,24.871h1.453l3.429,8.92h-1.54l-0.915-2.47h-3.414l-0.915,2.47h-1.525L217.916,24.871z
				 M218.628,26.716l-1.22,3.298h2.44L218.628,26.716z"/>
			<path fill="#696C71" d="M229.684,30.464h-1.932v3.327h-1.511v-8.92h3.442c0.939,0,1.684,0.242,2.23,0.727
				s0.821,1.177,0.821,2.078c0,0.891-0.274,1.579-0.821,2.063S230.623,30.464,229.684,30.464z M231.238,27.675
				c0-0.455-0.136-0.818-0.406-1.09c-0.271-0.271-0.664-0.407-1.177-0.407h-1.903v2.979h1.903c0.503,0,0.894-0.136,1.169-0.407
				C231.101,28.479,231.238,28.121,231.238,27.675z"/>
			<path fill="#696C71" d="M237.849,24.871v8.92h-1.511v-8.92H237.849z"/>
		</g>
	</g>
	<rect x="155.282" y="250.915" fill="#FFFFFF" width="5.272" height="5.271"/>
	<g>
		<polygon fill="#696C71" points="230.125,435.139 227.028,440.498 223.932,435.139 		"/>
		<g>
			
				<line fill="none" stroke="#696C71" stroke-width="0.6735" stroke-miterlimit="10" x1="227.028" y1="436.615" x2="227.028" y2="394.193"/>
			<rect x="26.631" y="314.193" fill="#FFFFFF" width="397.326" height="80"/>
			<g>
				<g>
					<path fill="#696C71" d="M63.375,338.907c0.382,0.121,0.693,0.354,0.937,0.695c0.242,0.343,0.363,0.722,0.363,1.138
						c0,0.737-0.24,1.303-0.721,1.696c-0.481,0.395-1.143,0.592-1.982,0.592h-3.056v-7.982h2.795c0.85,0,1.513,0.187,1.989,0.56
						s0.715,0.91,0.715,1.612c0,0.416-0.098,0.775-0.292,1.078C63.928,338.6,63.679,338.804,63.375,338.907z M60.229,338.4h1.469
						c0.944,0,1.417-0.368,1.417-1.105c0-0.719-0.473-1.078-1.417-1.078h-1.469V338.4z M60.229,339.519v2.34h1.716
						c0.45,0,0.797-0.104,1.04-0.312c0.242-0.208,0.364-0.493,0.364-0.857s-0.122-0.65-0.364-0.858
						c-0.243-0.208-0.59-0.312-1.04-0.312H60.229z"/>
					<path fill="#696C71" d="M69.173,335.046h1.3l3.068,7.982h-1.378l-0.819-2.21h-3.055l-0.819,2.21h-1.365L69.173,335.046z
						 M69.81,336.697l-1.092,2.951h2.184L69.81,336.697z"/>
					<path fill="#696C71" d="M75.335,343.028v-7.982h1.353v6.773h3.835v1.209H75.335z"/>
					<path fill="#696C71" d="M82.55,343.028v-7.982h1.353v6.773h3.835v1.209H82.55z"/>
					<path fill="#696C71" d="M89.765,335.046h5.213v1.196h-3.887v2.106h3.523v1.183h-3.523v2.288h3.887v1.209h-5.213V335.046z"/>
					<path fill="#696C71" d="M99.411,339.791h-0.962v3.237h-1.353v-7.982h3.081c0.841,0,1.504,0.206,1.989,0.618
						c0.485,0.411,0.728,1.003,0.728,1.774c0,0.658-0.18,1.181-0.539,1.566s-0.86,0.631-1.502,0.734l2.314,3.289h-1.534
						L99.411,339.791z M98.449,336.217v2.443h1.703c0.441,0,0.786-0.11,1.033-0.331c0.247-0.222,0.37-0.518,0.37-0.891
						s-0.123-0.67-0.37-0.891s-0.592-0.331-1.033-0.331H98.449z"/>
					<path fill="#696C71" d="M106.314,335.046v7.982h-1.353v-7.982H106.314z"/>
					<path fill="#696C71" d="M115.153,335.046v7.982h-1.04l-4.082-5.811v5.811h-1.3v-7.982h1.274l3.848,5.538v-5.538H115.153z"/>
					<path fill="#696C71" d="M120.016,335.046h1.3l3.068,7.982h-1.378l-0.819-2.21h-3.055l-0.819,2.21h-1.365L120.016,335.046z
						 M120.652,336.697l-1.092,2.951h2.184L120.652,336.697z"/>
					<path fill="#696C71" d="M68.452,358.028H67.49l-2.197-5.551v5.551h-1.287v-7.982h1.547l2.432,6.137l2.404-6.137h1.509v7.982
						h-1.301v-5.551L68.452,358.028z"/>
					<path fill="#696C71" d="M74.314,350.046h5.213v1.196h-3.887v2.106h3.523v1.183h-3.523v2.288h3.887v1.209h-5.213V350.046z"/>
					<path fill="#696C71" d="M81.022,355.818H82.4c0.252,0.798,0.854,1.196,1.808,1.196c0.468,0,0.843-0.106,1.124-0.318
						c0.281-0.213,0.423-0.501,0.423-0.865c0-0.286-0.089-0.514-0.267-0.683s-0.475-0.301-0.891-0.396l-1.352-0.324
						c-1.326-0.312-1.989-1.027-1.989-2.146c0-0.685,0.253-1.25,0.761-1.696c0.507-0.446,1.158-0.67,1.956-0.67
						c0.841,0,1.519,0.197,2.034,0.592s0.848,0.934,0.995,1.618H85.65c-0.251-0.71-0.806-1.065-1.664-1.065
						c-0.433,0-0.782,0.102-1.046,0.306c-0.265,0.203-0.396,0.47-0.396,0.799c0,0.529,0.351,0.876,1.053,1.04l1.391,0.325
						c0.65,0.147,1.157,0.407,1.521,0.78c0.364,0.372,0.546,0.85,0.546,1.43c0,0.737-0.265,1.324-0.793,1.762
						s-1.214,0.656-2.054,0.656c-0.85,0-1.559-0.206-2.126-0.617C81.515,357.129,81.161,356.555,81.022,355.818z"/>
					<path fill="#696C71" d="M88.42,355.818h1.378c0.252,0.798,0.854,1.196,1.808,1.196c0.468,0,0.843-0.106,1.124-0.318
						c0.281-0.213,0.423-0.501,0.423-0.865c0-0.286-0.089-0.514-0.267-0.683s-0.475-0.301-0.891-0.396l-1.352-0.324
						c-1.326-0.312-1.989-1.027-1.989-2.146c0-0.685,0.253-1.25,0.761-1.696c0.507-0.446,1.158-0.67,1.956-0.67
						c0.841,0,1.519,0.197,2.034,0.592s0.848,0.934,0.995,1.618h-1.353c-0.251-0.71-0.806-1.065-1.664-1.065
						c-0.433,0-0.782,0.102-1.046,0.306c-0.265,0.203-0.396,0.47-0.396,0.799c0,0.529,0.351,0.876,1.053,1.04l1.391,0.325
						c0.65,0.147,1.157,0.407,1.521,0.78c0.364,0.372,0.546,0.85,0.546,1.43c0,0.737-0.265,1.324-0.793,1.762
						s-1.214,0.656-2.054,0.656c-0.85,0-1.559-0.206-2.126-0.617C88.912,357.129,88.559,356.555,88.42,355.818z"/>
					<path fill="#696C71" d="M98.885,350.046h1.3l3.068,7.982h-1.378l-0.819-2.21h-3.055l-0.819,2.21h-1.365L98.885,350.046z
						 M99.521,351.697l-1.092,2.951h2.184L99.521,351.697z"/>
					<path fill="#696C71" d="M110.481,355.064h-1.742v-1.157h3.029v0.624c0,1.092-0.319,1.97-0.956,2.633s-1.449,0.994-2.438,0.994
						c-1.083,0-1.98-0.384-2.69-1.15c-0.711-0.767-1.066-1.757-1.066-2.971c0-1.213,0.353-2.203,1.06-2.971
						c0.706-0.767,1.588-1.15,2.646-1.15c0.893,0,1.623,0.234,2.19,0.702s0.93,1.109,1.085,1.924h-1.352
						c-0.174-0.459-0.409-0.808-0.708-1.046c-0.3-0.238-0.705-0.357-1.216-0.357c-0.702,0-1.268,0.271-1.696,0.812
						c-0.43,0.541-0.644,1.237-0.644,2.086c0,0.858,0.216,1.561,0.649,2.106s1.015,0.818,1.742,0.818
						c0.589,0,1.066-0.171,1.43-0.513C110.169,356.106,110.395,355.646,110.481,355.064z"/>
					<path fill="#696C71" d="M113.757,350.046h5.213v1.196h-3.887v2.106h3.523v1.183h-3.523v2.288h3.887v1.209h-5.213V350.046z"/>
					<path fill="#696C71" d="M72.995,368.907c0.382,0.121,0.693,0.354,0.937,0.695c0.242,0.343,0.363,0.722,0.363,1.138
						c0,0.737-0.24,1.303-0.721,1.696c-0.481,0.395-1.143,0.592-1.982,0.592h-3.056v-7.982h2.795c0.85,0,1.513,0.187,1.989,0.56
						s0.715,0.91,0.715,1.612c0,0.416-0.098,0.775-0.292,1.078C73.548,368.6,73.299,368.804,72.995,368.907z M69.85,368.4h1.469
						c0.944,0,1.417-0.368,1.417-1.105c0-0.719-0.473-1.078-1.417-1.078H69.85V368.4z M69.85,369.519v2.34h1.716
						c0.45,0,0.797-0.104,1.04-0.312c0.242-0.208,0.364-0.493,0.364-0.857s-0.122-0.65-0.364-0.858
						c-0.243-0.208-0.59-0.312-1.04-0.312H69.85z"/>
					<path fill="#696C71" d="M78.663,369.791h-0.962v3.237h-1.353v-7.982h3.081c0.841,0,1.504,0.206,1.989,0.618
						c0.485,0.411,0.728,1.003,0.728,1.774c0,0.658-0.18,1.181-0.539,1.566s-0.86,0.631-1.502,0.734l2.314,3.289h-1.534
						L78.663,369.791z M77.701,366.217v2.443h1.703c0.441,0,0.786-0.11,1.033-0.331c0.247-0.222,0.37-0.518,0.37-0.891
						s-0.123-0.67-0.37-0.891s-0.592-0.331-1.033-0.331H77.701z"/>
					<path fill="#696C71" d="M90.116,366.08c0.693,0.775,1.04,1.762,1.04,2.957c0,1.196-0.347,2.183-1.04,2.958
						s-1.577,1.163-2.652,1.163c-1.074,0-1.956-0.388-2.646-1.163c-0.688-0.775-1.033-1.762-1.033-2.958
						c0-1.195,0.345-2.182,1.033-2.957c0.689-0.775,1.571-1.164,2.646-1.164C88.539,364.916,89.423,365.305,90.116,366.08z
						 M89.147,371.13c0.429-0.546,0.644-1.243,0.644-2.093c0-0.849-0.215-1.547-0.644-2.093s-0.99-0.819-1.684-0.819
						s-1.252,0.271-1.677,0.812c-0.425,0.542-0.637,1.242-0.637,2.1c0,0.858,0.212,1.559,0.637,2.1
						c0.425,0.542,0.983,0.812,1.677,0.812S88.719,371.677,89.147,371.13z"/>
					<path fill="#696C71" d="M94.497,365.046v3.822l3.314-3.822h1.703l-3.224,3.627l3.341,4.355h-1.69l-2.626-3.419l-0.818,0.936
						v2.483h-1.353v-7.982H94.497z"/>
					<path fill="#696C71" d="M101.36,365.046h5.213v1.196h-3.887v2.106h3.523v1.183h-3.523v2.288h3.887v1.209h-5.213V365.046z"/>
					<path fill="#696C71" d="M111.007,369.791h-0.962v3.237h-1.353v-7.982h3.081c0.841,0,1.504,0.206,1.989,0.618
						c0.485,0.411,0.728,1.003,0.728,1.774c0,0.658-0.18,1.181-0.539,1.566s-0.86,0.631-1.502,0.734l2.314,3.289h-1.534
						L111.007,369.791z M110.045,366.217v2.443h1.703c0.441,0,0.786-0.11,1.033-0.331c0.247-0.222,0.37-0.518,0.37-0.891
						s-0.123-0.67-0.37-0.891s-0.592-0.331-1.033-0.331H110.045z"/>
				</g>
				<g>
					<g>
						<path fill="#696C71" d="M199.508,338.907c0.382,0.121,0.693,0.354,0.937,0.695c0.242,0.343,0.363,0.722,0.363,1.138
							c0,0.737-0.24,1.303-0.721,1.696c-0.481,0.395-1.143,0.592-1.982,0.592h-3.056v-7.982h2.795c0.85,0,1.513,0.187,1.989,0.56
							s0.715,0.91,0.715,1.612c0,0.416-0.098,0.775-0.292,1.078C200.061,338.6,199.812,338.804,199.508,338.907z M196.362,338.4
							h1.469c0.944,0,1.417-0.368,1.417-1.105c0-0.719-0.473-1.078-1.417-1.078h-1.469V338.4z M196.362,339.519v2.34h1.716
							c0.45,0,0.797-0.104,1.04-0.312c0.242-0.208,0.364-0.493,0.364-0.857s-0.122-0.65-0.364-0.858
							c-0.243-0.208-0.59-0.312-1.04-0.312H196.362z"/>
						<path fill="#696C71" d="M205.306,335.046h1.3l3.068,7.982h-1.378l-0.819-2.21h-3.055l-0.819,2.21h-1.365L205.306,335.046z
							 M205.942,336.697l-1.092,2.951h2.184L205.942,336.697z"/>
						<path fill="#696C71" d="M211.468,343.028v-7.982h1.353v6.773h3.835v1.209H211.468z"/>
						<path fill="#696C71" d="M218.683,343.028v-7.982h1.353v6.773h3.835v1.209H218.683z"/>
						<path fill="#696C71" d="M225.897,335.046h5.213v1.196h-3.887v2.106h3.523v1.183h-3.523v2.288h3.887v1.209h-5.213V335.046z"/>
						<path fill="#696C71" d="M235.544,339.791h-0.962v3.237h-1.353v-7.982h3.081c0.841,0,1.504,0.206,1.989,0.618
							c0.485,0.411,0.728,1.003,0.728,1.774c0,0.658-0.18,1.181-0.539,1.566s-0.86,0.631-1.502,0.734l2.314,3.289h-1.534
							L235.544,339.791z M234.582,336.217v2.443h1.703c0.441,0,0.786-0.11,1.033-0.331c0.247-0.222,0.37-0.518,0.37-0.891
							s-0.123-0.67-0.37-0.891s-0.592-0.331-1.033-0.331H234.582z"/>
						<path fill="#696C71" d="M242.447,335.046v7.982h-1.353v-7.982H242.447z"/>
						<path fill="#696C71" d="M251.286,335.046v7.982h-1.04l-4.082-5.811v5.811h-1.3v-7.982h1.274l3.848,5.538v-5.538H251.286z"/>
						<path fill="#696C71" d="M256.148,335.046h1.3l3.068,7.982h-1.378l-0.819-2.21h-3.055l-0.819,2.21h-1.365L256.148,335.046z
							 M256.785,336.697l-1.092,2.951h2.184L256.785,336.697z"/>
						<path fill="#696C71" d="M184.467,351.242v-1.196h6.656v1.196h-2.652v6.786h-1.352v-6.786H184.467z"/>
						<path fill="#696C71" d="M195.361,354.791h-0.962v3.237h-1.353v-7.982h3.081c0.841,0,1.504,0.206,1.989,0.618
							c0.485,0.411,0.728,1.003,0.728,1.774c0,0.658-0.18,1.181-0.539,1.566s-0.86,0.631-1.502,0.734l2.314,3.289h-1.534
							L195.361,354.791z M194.399,351.217v2.443h1.703c0.441,0,0.786-0.11,1.033-0.331c0.247-0.222,0.37-0.518,0.37-0.891
							s-0.123-0.67-0.37-0.891s-0.592-0.331-1.033-0.331H194.399z"/>
						<path fill="#696C71" d="M203.356,350.046h1.3l3.068,7.982h-1.378l-0.819-2.21h-3.055l-0.819,2.21h-1.365L203.356,350.046z
							 M203.993,351.697l-1.092,2.951h2.184L203.993,351.697z"/>
						<path fill="#696C71" d="M215.939,350.046v7.982h-1.04l-4.082-5.811v5.811h-1.3v-7.982h1.274l3.848,5.538v-5.538H215.939z"/>
						<path fill="#696C71" d="M217.733,355.818h1.378c0.252,0.798,0.854,1.196,1.808,1.196c0.468,0,0.843-0.106,1.124-0.318
							c0.281-0.213,0.423-0.501,0.423-0.865c0-0.286-0.089-0.514-0.267-0.683s-0.475-0.301-0.891-0.396l-1.352-0.324
							c-1.326-0.312-1.989-1.027-1.989-2.146c0-0.685,0.253-1.25,0.761-1.696c0.507-0.446,1.158-0.67,1.956-0.67
							c0.841,0,1.519,0.197,2.034,0.592s0.848,0.934,0.995,1.618h-1.353c-0.251-0.71-0.806-1.065-1.664-1.065
							c-0.433,0-0.782,0.102-1.046,0.306c-0.265,0.203-0.396,0.47-0.396,0.799c0,0.529,0.351,0.876,1.053,1.04l1.391,0.325
							c0.65,0.147,1.157,0.407,1.521,0.78c0.364,0.372,0.546,0.85,0.546,1.43c0,0.737-0.265,1.324-0.793,1.762
							s-1.214,0.656-2.054,0.656c-0.85,0-1.559-0.206-2.126-0.617C218.226,357.129,217.872,356.555,217.733,355.818z"/>
						<path fill="#696C71" d="M228.199,350.046h1.3l3.068,7.982h-1.378l-0.819-2.21h-3.055l-0.819,2.21h-1.365L228.199,350.046z
							 M228.836,351.697l-1.092,2.951h2.184L228.836,351.697z"/>
						<path fill="#696C71" d="M234.965,357.008c-0.688-0.767-1.033-1.757-1.033-2.971c0-1.213,0.345-2.203,1.033-2.971
							c0.689-0.767,1.554-1.15,2.594-1.15c0.884,0,1.607,0.236,2.171,0.709s0.923,1.116,1.079,1.931h-1.326
							c-0.347-0.945-0.988-1.417-1.924-1.417c-0.693,0-1.244,0.271-1.651,0.812c-0.407,0.541-0.61,1.237-0.61,2.086
							c0,0.85,0.203,1.545,0.61,2.087s0.958,0.812,1.651,0.812c0.936,0,1.577-0.477,1.924-1.431h1.326
							c-0.156,0.824-0.516,1.472-1.079,1.944c-0.563,0.472-1.287,0.708-2.171,0.708
							C236.519,358.158,235.654,357.774,234.965,357.008z"/>
						<path fill="#696C71" d="M242.277,351.242v-1.196h6.656v1.196h-2.652v6.786h-1.352v-6.786H242.277z"/>
						<path fill="#696C71" d="M252.21,350.046v7.982h-1.353v-7.982H252.21z"/>
						<path fill="#696C71" d="M260.529,351.08c0.693,0.775,1.04,1.762,1.04,2.957c0,1.196-0.347,2.183-1.04,2.958
							s-1.577,1.163-2.652,1.163c-1.074,0-1.956-0.388-2.646-1.163c-0.688-0.775-1.033-1.762-1.033-2.958
							c0-1.195,0.345-2.182,1.033-2.957c0.689-0.775,1.571-1.164,2.646-1.164C258.952,349.916,259.836,350.305,260.529,351.08z
							 M259.561,356.13c0.429-0.546,0.644-1.243,0.644-2.093c0-0.849-0.215-1.547-0.644-2.093s-0.99-0.819-1.684-0.819
							s-1.252,0.271-1.677,0.812c-0.425,0.542-0.637,1.242-0.637,2.1c0,0.858,0.212,1.559,0.637,2.1
							c0.425,0.542,0.983,0.812,1.677,0.812S259.132,356.677,259.561,356.13z"/>
						<path fill="#696C71" d="M269.979,350.046v7.982h-1.04l-4.082-5.811v5.811h-1.3v-7.982h1.274l3.848,5.538v-5.538H269.979z"/>
						<path fill="#696C71" d="M184.89,372.008c-0.688-0.767-1.033-1.757-1.033-2.971c0-1.213,0.345-2.203,1.033-2.971
							c0.689-0.767,1.554-1.15,2.594-1.15c0.884,0,1.607,0.236,2.171,0.709s0.923,1.116,1.079,1.931h-1.326
							c-0.347-0.945-0.988-1.417-1.924-1.417c-0.693,0-1.244,0.271-1.651,0.812c-0.407,0.541-0.61,1.237-0.61,2.086
							c0,0.85,0.203,1.545,0.61,2.087s0.958,0.812,1.651,0.812c0.936,0,1.577-0.477,1.924-1.431h1.326
							c-0.156,0.824-0.516,1.472-1.079,1.944c-0.563,0.472-1.287,0.708-2.171,0.708C186.443,373.158,185.579,372.774,184.89,372.008
							z"/>
						<path fill="#696C71" d="M198.599,366.08c0.693,0.775,1.04,1.762,1.04,2.957c0,1.196-0.347,2.183-1.04,2.958
							s-1.577,1.163-2.652,1.163c-1.074,0-1.956-0.388-2.646-1.163c-0.688-0.775-1.033-1.762-1.033-2.958
							c0-1.195,0.345-2.182,1.033-2.957c0.689-0.775,1.571-1.164,2.646-1.164C197.021,364.916,197.905,365.305,198.599,366.08z
							 M197.63,371.13c0.429-0.546,0.644-1.243,0.644-2.093c0-0.849-0.215-1.547-0.644-2.093s-0.99-0.819-1.684-0.819
							s-1.252,0.271-1.677,0.812c-0.425,0.542-0.637,1.242-0.637,2.1c0,0.858,0.212,1.559,0.637,2.1
							c0.425,0.542,0.983,0.812,1.677,0.812S197.201,371.677,197.63,371.13z"/>
						<path fill="#696C71" d="M207.529,366.08c0.693,0.775,1.04,1.762,1.04,2.957c0,1.196-0.347,2.183-1.04,2.958
							s-1.577,1.163-2.652,1.163c-1.074,0-1.956-0.388-2.646-1.163c-0.688-0.775-1.033-1.762-1.033-2.958
							c0-1.195,0.345-2.182,1.033-2.957c0.689-0.775,1.571-1.164,2.646-1.164C205.952,364.916,206.836,365.305,207.529,366.08z
							 M206.561,371.13c0.429-0.546,0.644-1.243,0.644-2.093c0-0.849-0.215-1.547-0.644-2.093s-0.99-0.819-1.684-0.819
							s-1.252,0.271-1.677,0.812c-0.425,0.542-0.637,1.242-0.637,2.1c0,0.858,0.212,1.559,0.637,2.1
							c0.425,0.542,0.983,0.812,1.677,0.812S206.132,371.677,206.561,371.13z"/>
						<path fill="#696C71" d="M212.872,369.791h-0.962v3.237h-1.353v-7.982h3.081c0.841,0,1.504,0.206,1.989,0.618
							c0.485,0.411,0.728,1.003,0.728,1.774c0,0.658-0.18,1.181-0.539,1.566s-0.86,0.631-1.502,0.734l2.314,3.289h-1.534
							L212.872,369.791z M211.91,366.217v2.443h1.703c0.441,0,0.786-0.11,1.033-0.331c0.247-0.222,0.37-0.518,0.37-0.891
							s-0.123-0.67-0.37-0.891s-0.592-0.331-1.033-0.331H211.91z"/>
						<path fill="#696C71" d="M218.423,373.028v-7.982h2.691c1.179,0,2.119,0.362,2.821,1.086c0.701,0.724,1.053,1.692,1.053,2.905
							c0,1.214-0.352,2.183-1.053,2.905c-0.702,0.725-1.643,1.086-2.821,1.086H218.423z M219.775,371.819h1.287
							c0.823,0,1.458-0.247,1.904-0.741s0.669-1.174,0.669-2.041c0-0.866-0.223-1.549-0.669-2.047
							c-0.446-0.499-1.081-0.748-1.904-0.748h-1.287V371.819z"/>
						<path fill="#696C71" d="M228.329,365.046v7.982h-1.353v-7.982H228.329z"/>
						<path fill="#696C71" d="M237.168,365.046v7.982h-1.04l-4.082-5.811v5.811h-1.3v-7.982h1.274l3.848,5.538v-5.538H237.168z"/>
						<path fill="#696C71" d="M242.03,365.046h1.3l3.068,7.982h-1.378l-0.819-2.21h-3.055l-0.819,2.21h-1.365L242.03,365.046z
							 M242.667,366.697l-1.092,2.951h2.184L242.667,366.697z"/>
						<path fill="#696C71" d="M247.698,366.242v-1.196h6.656v1.196h-2.652v6.786h-1.352v-6.786H247.698z"/>
						<path fill="#696C71" d="M262.181,366.08c0.693,0.775,1.04,1.762,1.04,2.957c0,1.196-0.347,2.183-1.04,2.958
							s-1.577,1.163-2.652,1.163c-1.074,0-1.956-0.388-2.646-1.163c-0.688-0.775-1.033-1.762-1.033-2.958
							c0-1.195,0.345-2.182,1.033-2.957c0.689-0.775,1.571-1.164,2.646-1.164C260.604,364.916,261.487,365.305,262.181,366.08z
							 M261.212,371.13c0.429-0.546,0.644-1.243,0.644-2.093c0-0.849-0.215-1.547-0.644-2.093s-0.99-0.819-1.684-0.819
							s-1.252,0.271-1.677,0.812c-0.425,0.542-0.637,1.242-0.637,2.1c0,0.858,0.212,1.559,0.637,2.1
							c0.425,0.542,0.983,0.812,1.677,0.812S260.783,371.677,261.212,371.13z"/>
						<path fill="#696C71" d="M267.523,369.791h-0.962v3.237h-1.353v-7.982h3.081c0.841,0,1.504,0.206,1.989,0.618
							c0.485,0.411,0.728,1.003,0.728,1.774c0,0.658-0.18,1.181-0.539,1.566s-0.86,0.631-1.502,0.734l2.314,3.289h-1.534
							L267.523,369.791z M266.562,366.217v2.443h1.703c0.441,0,0.786-0.11,1.033-0.331c0.247-0.222,0.37-0.518,0.37-0.891
							s-0.123-0.67-0.37-0.891s-0.592-0.331-1.033-0.331H266.562z"/>
					</g>
				</g>
				<g>
					<g>
						<path fill="#696C71" d="M330.638,338.907c0.382,0.121,0.693,0.354,0.937,0.695c0.242,0.343,0.363,0.722,0.363,1.138
							c0,0.737-0.24,1.303-0.721,1.696c-0.481,0.395-1.143,0.592-1.982,0.592h-3.056v-7.982h2.795c0.85,0,1.513,0.187,1.989,0.56
							s0.715,0.91,0.715,1.612c0,0.416-0.098,0.775-0.292,1.078C331.19,338.6,330.941,338.804,330.638,338.907z M327.492,338.4
							h1.469c0.944,0,1.417-0.368,1.417-1.105c0-0.719-0.473-1.078-1.417-1.078h-1.469V338.4z M327.492,339.519v2.34h1.716
							c0.45,0,0.797-0.104,1.04-0.312c0.242-0.208,0.364-0.493,0.364-0.857s-0.122-0.65-0.364-0.858
							c-0.243-0.208-0.59-0.312-1.04-0.312H327.492z"/>
						<path fill="#696C71" d="M336.436,335.046h1.3l3.068,7.982h-1.378l-0.819-2.21h-3.055l-0.819,2.21h-1.365L336.436,335.046z
							 M337.072,336.697l-1.092,2.951h2.184L337.072,336.697z"/>
						<path fill="#696C71" d="M342.598,343.028v-7.982h1.353v6.773h3.835v1.209H342.598z"/>
						<path fill="#696C71" d="M349.812,343.028v-7.982h1.353v6.773H355v1.209H349.812z"/>
						<path fill="#696C71" d="M357.027,335.046h5.213v1.196h-3.887v2.106h3.523v1.183h-3.523v2.288h3.887v1.209h-5.213V335.046z"/>
						<path fill="#696C71" d="M366.674,339.791h-0.962v3.237h-1.353v-7.982h3.081c0.841,0,1.504,0.206,1.989,0.618
							c0.485,0.411,0.728,1.003,0.728,1.774c0,0.658-0.18,1.181-0.539,1.566s-0.86,0.631-1.502,0.734l2.314,3.289h-1.534
							L366.674,339.791z M365.712,336.217v2.443h1.703c0.441,0,0.786-0.11,1.033-0.331c0.247-0.222,0.37-0.518,0.37-0.891
							s-0.123-0.67-0.37-0.891s-0.592-0.331-1.033-0.331H365.712z"/>
						<path fill="#696C71" d="M373.577,335.046v7.982h-1.353v-7.982H373.577z"/>
						<path fill="#696C71" d="M382.416,335.046v7.982h-1.04l-4.082-5.811v5.811h-1.3v-7.982h1.274l3.848,5.538v-5.538H382.416z"/>
						<path fill="#696C71" d="M387.278,335.046h1.3l3.068,7.982h-1.378l-0.819-2.21h-3.055l-0.819,2.21h-1.365L387.278,335.046z
							 M387.915,336.697l-1.092,2.951h2.184L387.915,336.697z"/>
						<path fill="#696C71" d="M332.861,350.046v7.982h-1.353v-7.982H332.861z"/>
						<path fill="#696C71" d="M335.278,358.028v-7.982h2.691c1.179,0,2.119,0.362,2.821,1.086c0.701,0.724,1.053,1.692,1.053,2.905
							c0,1.214-0.352,2.183-1.053,2.905c-0.702,0.725-1.643,1.086-2.821,1.086H335.278z M336.631,356.819h1.287
							c0.823,0,1.458-0.247,1.904-0.741s0.669-1.174,0.669-2.041c0-0.866-0.223-1.549-0.669-2.047
							c-0.446-0.499-1.081-0.748-1.904-0.748h-1.287V356.819z"/>
						<path fill="#696C71" d="M343.832,350.046h5.213v1.196h-3.887v2.106h3.523v1.183h-3.523v2.288h3.887v1.209h-5.213V350.046z"/>
						<path fill="#696C71" d="M357.586,350.046v7.982h-1.04l-4.082-5.811v5.811h-1.3v-7.982h1.274l3.848,5.538v-5.538H357.586z"/>
						<path fill="#696C71" d="M359.51,351.242v-1.196h6.656v1.196h-2.652v6.786h-1.352v-6.786H359.51z"/>
						<path fill="#696C71" d="M369.442,350.046v7.982h-1.353v-7.982H369.442z"/>
						<path fill="#696C71" d="M371.366,351.242v-1.196h6.656v1.196h-2.652v6.786h-1.352v-6.786H371.366z"/>
						<path fill="#696C71" d="M382.846,353.621l2.105-3.575h1.431l-2.899,4.798v3.185h-1.339v-3.185l-2.886-4.798h1.469
							L382.846,353.621z"/>
						<path fill="#696C71" d="M340.258,368.907c0.382,0.121,0.693,0.354,0.937,0.695c0.242,0.343,0.363,0.722,0.363,1.138
							c0,0.737-0.24,1.303-0.721,1.696c-0.481,0.395-1.143,0.592-1.982,0.592h-3.056v-7.982h2.795c0.85,0,1.513,0.187,1.989,0.56
							s0.715,0.91,0.715,1.612c0,0.416-0.098,0.775-0.292,1.078C340.811,368.6,340.562,368.804,340.258,368.907z M337.112,368.4
							h1.469c0.944,0,1.417-0.368,1.417-1.105c0-0.719-0.473-1.078-1.417-1.078h-1.469V368.4z M337.112,369.519v2.34h1.716
							c0.45,0,0.797-0.104,1.04-0.312c0.242-0.208,0.364-0.493,0.364-0.857s-0.122-0.65-0.364-0.858
							c-0.243-0.208-0.59-0.312-1.04-0.312H337.112z"/>
						<path fill="#696C71" d="M345.926,369.791h-0.962v3.237h-1.353v-7.982h3.081c0.841,0,1.504,0.206,1.989,0.618
							c0.485,0.411,0.728,1.003,0.728,1.774c0,0.658-0.18,1.181-0.539,1.566s-0.86,0.631-1.502,0.734l2.314,3.289h-1.534
							L345.926,369.791z M344.964,366.217v2.443h1.703c0.441,0,0.786-0.11,1.033-0.331c0.247-0.222,0.37-0.518,0.37-0.891
							s-0.123-0.67-0.37-0.891s-0.592-0.331-1.033-0.331H344.964z"/>
						<path fill="#696C71" d="M357.379,366.08c0.693,0.775,1.04,1.762,1.04,2.957c0,1.196-0.347,2.183-1.04,2.958
							s-1.577,1.163-2.652,1.163c-1.074,0-1.956-0.388-2.646-1.163c-0.688-0.775-1.033-1.762-1.033-2.958
							c0-1.195,0.345-2.182,1.033-2.957c0.689-0.775,1.571-1.164,2.646-1.164C355.802,364.916,356.686,365.305,357.379,366.08z
							 M356.41,371.13c0.429-0.546,0.644-1.243,0.644-2.093c0-0.849-0.215-1.547-0.644-2.093s-0.99-0.819-1.684-0.819
							s-1.252,0.271-1.677,0.812c-0.425,0.542-0.637,1.242-0.637,2.1c0,0.858,0.212,1.559,0.637,2.1
							c0.425,0.542,0.983,0.812,1.677,0.812S355.981,371.677,356.41,371.13z"/>
						<path fill="#696C71" d="M361.76,365.046v3.822l3.314-3.822h1.703l-3.224,3.627l3.341,4.355h-1.69l-2.626-3.419l-0.818,0.936
							v2.483h-1.353v-7.982H361.76z"/>
						<path fill="#696C71" d="M368.623,365.046h5.213v1.196h-3.887v2.106h3.523v1.183h-3.523v2.288h3.887v1.209h-5.213V365.046z"/>
						<path fill="#696C71" d="M378.27,369.791h-0.962v3.237h-1.353v-7.982h3.081c0.841,0,1.504,0.206,1.989,0.618
							c0.485,0.411,0.728,1.003,0.728,1.774c0,0.658-0.18,1.181-0.539,1.566s-0.86,0.631-1.502,0.734l2.314,3.289h-1.534
							L378.27,369.791z M377.308,366.217v2.443h1.703c0.441,0,0.786-0.11,1.033-0.331c0.247-0.222,0.37-0.518,0.37-0.891
							s-0.123-0.67-0.37-0.891s-0.592-0.331-1.033-0.331H377.308z"/>
					</g>
				</g>
			</g>
		</g>
	</g>
	<g>
		<path fill="#FFFFFF" d="M265.094,449.404c-4.938,0-9.389,2.045-12.574,5.325c-3.188-3.28-7.639-5.325-12.57-5.325
			c-0.119,0-0.229,0.015-0.344,0.02c-0.121-0.005-0.232-0.02-0.348-0.02c-4.77,0-9.07,1.917-12.232,5.001
			c-3.158-3.084-7.459-5.001-12.225-5.001c-0.119,0-0.234,0.015-0.354,0.02c-0.113-0.005-0.223-0.02-0.34-0.02
			c-4.932,0-9.385,2.045-12.572,5.325c-3.188-3.28-7.639-5.325-12.572-5.325c-9.689,0-17.539,7.851-17.539,17.536
			c0,9.688,7.85,17.535,17.539,17.535c4.934,0,9.385-2.045,12.572-5.326c3.188,3.281,7.641,5.326,12.572,5.326
			c0.117,0,0.227-0.012,0.34-0.012c0.119,0,0.234,0.012,0.354,0.012c4.766,0,9.066-1.917,12.225-5.003
			c3.162,3.086,7.463,5.003,12.232,5.003c0.115,0,0.227-0.012,0.348-0.012c0.115,0,0.225,0.012,0.344,0.012
			c4.932,0,9.383-2.045,12.57-5.326c3.186,3.281,7.637,5.326,12.574,5.326c9.684,0,17.537-7.848,17.537-17.535
			C282.631,457.255,274.777,449.404,265.094,449.404"/>
		<g>
			<path fill="none" stroke="#696C71" stroke-width="1.2124" stroke-miterlimit="10" d="M265.092,449.404
				c-4.936,0-9.383,2.045-12.572,5.325c-3.188-3.28-7.639-5.325-12.57-5.325c-0.115,0-0.229,0.015-0.344,0.02
				c-0.117-0.005-0.23-0.02-0.352-0.02c-4.764,0-9.064,1.917-12.229,5.006c-3.158-3.089-7.459-5.006-12.229-5.006
				c-0.115,0-0.23,0.015-0.35,0.02c-0.113-0.005-0.223-0.02-0.336-0.02c-4.936,0-9.389,2.045-12.576,5.325
				c-3.188-3.28-7.639-5.325-12.572-5.325c-9.689,0-17.537,7.851-17.537,17.536c0,9.688,7.848,17.535,17.537,17.535
				c4.934,0,9.385-2.04,12.572-5.326c3.188,3.286,7.641,5.326,12.576,5.326c0.113,0,0.223-0.012,0.336-0.012
				c0.119,0,0.234,0.012,0.35,0.012c4.77,0,9.07-1.917,12.229-5.003c3.164,3.086,7.465,5.003,12.229,5.003
				c0.121,0,0.234-0.012,0.352-0.012c0.115,0,0.229,0.012,0.344,0.012c4.932,0,9.383-2.04,12.57-5.326
				c3.189,3.286,7.637,5.326,12.572,5.326c9.686,0,17.539-7.848,17.539-17.535C282.631,457.255,274.777,449.404,265.092,449.404z"/>
			<g>
				<path fill="#696C71" d="M191.96,462.78h5.228v1.199h-3.898v2.111h3.533v1.187h-3.533v2.295h3.898v1.212h-5.228V462.78z"/>
				<path fill="#696C71" d="M206.013,462.78v8.004h-1.043l-4.093-5.827v5.827h-1.304v-8.004h1.277l3.858,5.553v-5.553H206.013z"/>
				<path fill="#696C71" d="M208.698,470.784v-8.004h2.698c1.182,0,2.125,0.362,2.829,1.088s1.056,1.697,1.056,2.914
					s-0.352,2.188-1.056,2.913c-0.704,0.727-1.647,1.089-2.829,1.089H208.698z M210.054,469.572h1.291
					c0.825,0,1.462-0.248,1.909-0.743c0.448-0.496,0.672-1.178,0.672-2.047s-0.224-1.554-0.672-2.054
					c-0.447-0.499-1.084-0.749-1.909-0.749h-1.291V469.572z"/>
				<path fill="#696C71" d="M220.626,467.799h-1.733v2.985h-1.355v-8.004h3.089c0.844,0,1.511,0.217,2.002,0.651
					c0.49,0.435,0.736,1.056,0.736,1.864c0,0.8-0.246,1.417-0.736,1.852C222.137,467.582,221.47,467.799,220.626,467.799z
					 M222.021,465.296c0-0.408-0.122-0.734-0.365-0.978s-0.596-0.365-1.056-0.365h-1.708v2.673h1.708
					c0.451,0,0.802-0.122,1.049-0.365C221.897,466.018,222.021,465.695,222.021,465.296z"/>
				<path fill="#696C71" d="M231.472,463.816c0.695,0.777,1.043,1.767,1.043,2.966s-0.348,2.188-1.043,2.966
					c-0.695,0.777-1.582,1.166-2.659,1.166c-1.078,0-1.962-0.389-2.653-1.166c-0.69-0.778-1.036-1.767-1.036-2.966
					s0.346-2.188,1.036-2.966c0.691-0.777,1.575-1.167,2.653-1.167C229.89,462.649,230.776,463.039,231.472,463.816z
					 M230.501,468.881c0.43-0.548,0.646-1.247,0.646-2.099s-0.216-1.552-0.646-2.099c-0.431-0.548-0.993-0.821-1.688-0.821
					s-1.256,0.271-1.682,0.814s-0.639,1.245-0.639,2.105s0.213,1.562,0.639,2.105s0.986,0.814,1.682,0.814
					S230.07,469.429,230.501,468.881z"/>
				<path fill="#696C71" d="M236.126,462.78v8.004h-1.355v-8.004H236.126z"/>
				<path fill="#696C71" d="M245.238,462.78v8.004h-1.043l-4.093-5.827v5.827h-1.304v-8.004h1.277l3.858,5.553v-5.553H245.238z"/>
				<path fill="#696C71" d="M247.428,463.979v-1.199h6.675v1.199h-2.659v6.805h-1.355v-6.805H247.428z"/>
				<path fill="#696C71" d="M255.615,468.568h1.382c0.252,0.8,0.855,1.199,1.812,1.199c0.469,0,0.845-0.106,1.127-0.319
					s0.424-0.502,0.424-0.867c0-0.287-0.089-0.515-0.268-0.685c-0.178-0.169-0.476-0.302-0.893-0.397l-1.355-0.326
					c-1.33-0.312-1.995-1.029-1.995-2.15c0-0.687,0.255-1.254,0.763-1.701c0.509-0.448,1.162-0.672,1.962-0.672
					c0.843,0,1.523,0.198,2.04,0.594c0.518,0.396,0.85,0.937,0.998,1.622h-1.356c-0.252-0.712-0.808-1.068-1.668-1.068
					c-0.436,0-0.785,0.103-1.05,0.307c-0.266,0.204-0.397,0.471-0.397,0.802c0,0.529,0.352,0.878,1.056,1.042l1.395,0.326
					c0.652,0.148,1.161,0.409,1.525,0.782c0.365,0.374,0.548,0.852,0.548,1.435c0,0.738-0.266,1.327-0.795,1.766
					c-0.53,0.439-1.217,0.658-2.06,0.658c-0.853,0-1.562-0.206-2.132-0.619C256.108,469.883,255.754,469.307,255.615,468.568z"/>
			</g>
		</g>
	</g>
	<g>
		<rect x="26.631" y="87.954" fill="#FFFFFF" width="398.271" height="80"/>
		<g>
			<g>
				<path fill="#696C71" d="M49.845,110.301c0.382,0.122,0.693,0.354,0.937,0.696c0.242,0.342,0.363,0.721,0.363,1.137
					c0,0.737-0.24,1.302-0.721,1.697c-0.481,0.394-1.143,0.591-1.982,0.591h-3.056v-7.982h2.795c0.85,0,1.513,0.187,1.989,0.559
					s0.715,0.91,0.715,1.612c0,0.416-0.098,0.776-0.292,1.079C50.397,109.994,50.148,110.197,49.845,110.301z M46.699,109.794h1.469
					c0.944,0,1.417-0.368,1.417-1.105c0-0.719-0.473-1.079-1.417-1.079h-1.469V109.794z M46.699,110.913v2.34h1.716
					c0.45,0,0.797-0.104,1.04-0.312c0.242-0.208,0.364-0.494,0.364-0.858c0-0.364-0.122-0.65-0.364-0.858
					c-0.243-0.208-0.59-0.312-1.04-0.312H46.699z"/>
				<path fill="#696C71" d="M55.513,106.44h1.3l3.068,7.982h-1.378l-0.819-2.21h-3.055l-0.819,2.21h-1.365L55.513,106.44z
					 M56.149,108.091l-1.092,2.951h2.184L56.149,108.091z"/>
				<path fill="#696C71" d="M61.545,114.422v-7.982h1.353v6.773h3.835v1.209H61.545z"/>
				<path fill="#696C71" d="M68.63,114.422v-7.982h1.353v6.773h3.835v1.209H68.63z"/>
				<path fill="#696C71" d="M75.715,106.44h5.213v1.196h-3.887v2.106h3.523v1.183h-3.523v2.288h3.887v1.209h-5.213V106.44z"/>
				<path fill="#696C71" d="M85.23,111.186h-0.962v3.237h-1.353v-7.982h3.081c0.841,0,1.504,0.206,1.989,0.618
					s0.728,1.003,0.728,1.774c0,0.659-0.18,1.181-0.539,1.566s-0.86,0.63-1.502,0.734l2.314,3.289h-1.534L85.23,111.186z
					 M84.269,107.61v2.444h1.703c0.441,0,0.786-0.11,1.033-0.332c0.247-0.221,0.37-0.518,0.37-0.89s-0.123-0.669-0.37-0.891
					s-0.592-0.332-1.033-0.332H84.269z"/>
				<path fill="#696C71" d="M92.004,106.44v7.982h-1.353v-7.982H92.004z"/>
				<path fill="#696C71" d="M100.713,106.44v7.982h-1.04l-4.082-5.811v5.811h-1.3v-7.982h1.274l3.848,5.538v-5.538H100.713z"/>
				<path fill="#696C71" d="M105.445,106.44h1.3l3.068,7.982h-1.378l-0.819-2.21h-3.055l-0.819,2.21h-1.365L105.445,106.44z
					 M106.082,108.091l-1.092,2.951h2.184L106.082,108.091z"/>
				<path fill="#696C71" d="M117.314,106.44h1.3l3.068,7.982h-1.378l-0.819-2.21h-3.055l-0.819,2.21h-1.365L117.314,106.44z
					 M117.951,108.091l-1.092,2.951h2.184L117.951,108.091z"/>
				<path fill="#696C71" d="M126.427,111.445h-1.729v2.977h-1.353v-7.982h3.081c0.841,0,1.506,0.217,1.996,0.65
					c0.489,0.434,0.734,1.053,0.734,1.859c0,0.798-0.245,1.413-0.734,1.846C127.933,111.229,127.268,111.445,126.427,111.445z
					 M127.818,108.949c0-0.407-0.122-0.732-0.364-0.975c-0.243-0.242-0.594-0.364-1.053-0.364h-1.703v2.665h1.703
					c0.45,0,0.799-0.121,1.046-0.364C127.694,109.669,127.818,109.348,127.818,108.949z"/>
				<path fill="#696C71" d="M132.304,106.44v7.982h-1.353v-7.982H132.304z"/>
				<path fill="#696C71" d="M50.82,126.458h-1.742v-1.157h3.029v0.624c0,1.092-0.319,1.97-0.956,2.633
					c-0.637,0.663-1.449,0.994-2.438,0.994c-1.083,0-1.98-0.383-2.69-1.15c-0.711-0.767-1.066-1.757-1.066-2.971
					c0-1.213,0.353-2.203,1.06-2.97c0.706-0.767,1.588-1.15,2.646-1.15c0.893,0,1.623,0.234,2.19,0.702
					c0.567,0.468,0.93,1.11,1.085,1.924h-1.352c-0.174-0.459-0.409-0.808-0.708-1.047c-0.3-0.238-0.705-0.357-1.216-0.357
					c-0.702,0-1.268,0.271-1.696,0.812c-0.43,0.542-0.644,1.237-0.644,2.086c0,0.858,0.216,1.56,0.649,2.106
					c0.434,0.546,1.015,0.819,1.742,0.819c0.589,0,1.066-0.171,1.43-0.514C50.508,127.5,50.733,127.039,50.82,126.458z"/>
				<path fill="#696C71" d="M56.41,121.44h1.3l3.068,7.982H59.4l-0.819-2.21h-3.055l-0.819,2.21h-1.365L56.41,121.44z
					 M57.047,123.091l-1.092,2.951h2.184L57.047,123.091z"/>
				<path fill="#696C71" d="M61.947,122.636v-1.196h6.656v1.196h-2.652v6.786H64.6v-6.786H61.947z"/>
				<path fill="#696C71" d="M70.397,121.44h5.213v1.196h-3.887v2.106h3.523v1.183h-3.523v2.288h3.887v1.209h-5.213V121.44z"/>
				<path fill="#696C71" d="M81.227,121.44h1.092l1.509,5.876l1.442-5.876h1.3l-2.054,7.982h-1.248l-1.508-5.707l-1.534,5.707
					h-1.234l-2.055-7.982h1.326l1.443,5.876L81.227,121.44z"/>
				<path fill="#696C71" d="M90.639,121.44h1.3l3.068,7.982h-1.378l-0.819-2.21h-3.055l-0.819,2.21H87.57L90.639,121.44z
					 M91.275,123.091l-1.092,2.951h2.184L91.275,123.091z"/>
				<path fill="#696C71" d="M99.569,125.015l2.105-3.575h1.431l-2.899,4.797v3.185h-1.339v-3.185l-2.886-4.797h1.469L99.569,125.015
					z"/>
			</g>
		</g>
		
			<line fill="none" stroke="#696C71" stroke-width="0.6735" stroke-miterlimit="10" x1="227.062" y1="146.144" x2="227.062" y2="181.992"/>
		<g>
			
				<line fill="none" stroke="#696C71" stroke-width="0.9621" stroke-miterlimit="10" x1="227.095" y1="121.444" x2="227.095" y2="134.497"/>
			
				<line fill="none" stroke="#696C71" stroke-width="0.9621" stroke-miterlimit="10" x1="216.384" y1="109.281" x2="216.384" y2="146.144"/>
			
				<line fill="none" stroke="#696C71" stroke-width="0.9621" stroke-miterlimit="10" x1="205.744" y1="109.281" x2="205.744" y2="146.144"/>
			
				<line fill="none" stroke="#696C71" stroke-width="0.9621" stroke-miterlimit="10" x1="248.31" y1="109.281" x2="248.31" y2="146.144"/>
			
				<line fill="none" stroke="#696C71" stroke-width="0.9621" stroke-miterlimit="10" x1="237.667" y1="109.281" x2="237.667" y2="146.144"/>
			<circle fill="none" stroke="#696C71" stroke-width="0.9621" stroke-miterlimit="10" cx="227.093" cy="115.622" r="5.823"/>
			<circle fill="none" stroke="#696C71" stroke-width="0.9621" stroke-miterlimit="10" cx="227.093" cy="140.321" r="5.823"/>
		</g>
		<polyline fill="none" stroke="#696C71" stroke-width="0.6735" stroke-miterlimit="10" points="167.66,196.697 167.66,181.992 
			336.248,181.992 336.248,196.137 		"/>
		<polygon fill="#696C71" points="170.241,195.628 167.66,200.095 165.082,195.628 		"/>
		<polygon fill="#696C71" points="333.668,195.628 336.246,200.095 338.826,195.628 		"/>
	</g>
	<g>
		
			<rect x="233.537" y="229.757" fill="none" stroke="#696C71" stroke-width="0.6735" stroke-miterlimit="10" stroke-dasharray="2.8614,2.8614" width="205.003" height="58.708"/>
		<g>
			<g>
				<path fill="#696C71" d="M283.968,270.38c0.382,0.121,0.693,0.354,0.937,0.695c0.242,0.343,0.363,0.722,0.363,1.138
					c0,0.737-0.24,1.303-0.721,1.696c-0.481,0.395-1.143,0.592-1.982,0.592h-3.056v-7.982h2.795c0.85,0,1.513,0.187,1.989,0.56
					s0.715,0.91,0.715,1.612c0,0.416-0.098,0.775-0.292,1.078C284.521,270.072,284.271,270.276,283.968,270.38z M280.822,269.873
					h1.469c0.944,0,1.417-0.368,1.417-1.105c0-0.719-0.473-1.078-1.417-1.078h-1.469V269.873z M280.822,270.991v2.34h1.716
					c0.45,0,0.797-0.104,1.04-0.312c0.242-0.208,0.364-0.493,0.364-0.857s-0.122-0.65-0.364-0.858
					c-0.243-0.208-0.59-0.312-1.04-0.312H280.822z"/>
				<path fill="#696C71" d="M289.766,266.519h1.3l3.068,7.982h-1.378l-0.819-2.21h-3.055l-0.819,2.21h-1.365L289.766,266.519z
					 M290.402,268.17l-1.092,2.951h2.184L290.402,268.17z"/>
				<path fill="#696C71" d="M295.928,274.501v-7.982h1.353v6.773h3.835v1.209H295.928z"/>
				<path fill="#696C71" d="M303.143,274.501v-7.982h1.353v6.773h3.835v1.209H303.143z"/>
				<path fill="#696C71" d="M310.357,266.519h5.213v1.196h-3.887v2.106h3.523v1.183h-3.523v2.288h3.887v1.209h-5.213V266.519z"/>
				<path fill="#696C71" d="M320.004,271.264h-0.962v3.237h-1.353v-7.982h3.081c0.841,0,1.504,0.206,1.989,0.618
					c0.485,0.411,0.728,1.003,0.728,1.774c0,0.658-0.18,1.181-0.539,1.566s-0.86,0.631-1.502,0.734l2.314,3.289h-1.534
					L320.004,271.264z M319.042,267.689v2.443h1.703c0.441,0,0.786-0.11,1.033-0.331c0.247-0.222,0.37-0.518,0.37-0.891
					s-0.123-0.67-0.37-0.891s-0.592-0.331-1.033-0.331H319.042z"/>
				<path fill="#696C71" d="M326.907,266.519v7.982h-1.353v-7.982H326.907z"/>
				<path fill="#696C71" d="M335.746,266.519v7.982h-1.04l-4.082-5.811v5.811h-1.3v-7.982h1.274l3.848,5.538v-5.538H335.746z"/>
				<path fill="#696C71" d="M340.608,266.519h1.3l3.068,7.982h-1.378l-0.819-2.21h-3.055l-0.819,2.21h-1.365L340.608,266.519z
					 M341.245,268.17l-1.092,2.951h2.184L341.245,268.17z"/>
				<path fill="#696C71" d="M354.752,270.38c0.382,0.121,0.693,0.354,0.937,0.695c0.242,0.343,0.363,0.722,0.363,1.138
					c0,0.737-0.24,1.303-0.721,1.696c-0.481,0.395-1.143,0.592-1.982,0.592h-3.056v-7.982h2.795c0.85,0,1.513,0.187,1.989,0.56
					s0.715,0.91,0.715,1.612c0,0.416-0.098,0.775-0.292,1.078C355.305,270.072,355.056,270.276,354.752,270.38z M351.606,269.873
					h1.469c0.944,0,1.417-0.368,1.417-1.105c0-0.719-0.473-1.078-1.417-1.078h-1.469V269.873z M351.606,270.991v2.34h1.716
					c0.45,0,0.797-0.104,1.04-0.312c0.242-0.208,0.364-0.493,0.364-0.857s-0.122-0.65-0.364-0.858
					c-0.243-0.208-0.59-0.312-1.04-0.312H351.606z"/>
				<path fill="#696C71" d="M360.42,271.264h-0.962v3.237h-1.353v-7.982h3.081c0.841,0,1.504,0.206,1.989,0.618
					c0.485,0.411,0.728,1.003,0.728,1.774c0,0.658-0.18,1.181-0.539,1.566s-0.86,0.631-1.502,0.734l2.314,3.289h-1.534
					L360.42,271.264z M359.458,267.689v2.443h1.703c0.441,0,0.786-0.11,1.033-0.331c0.247-0.222,0.37-0.518,0.37-0.891
					s-0.123-0.67-0.37-0.891s-0.592-0.331-1.033-0.331H359.458z"/>
				<path fill="#696C71" d="M367.323,266.519v7.982h-1.353v-7.982H367.323z"/>
				<path fill="#696C71" d="M369.74,274.501v-7.982h2.691c1.179,0,2.119,0.362,2.821,1.086c0.701,0.724,1.053,1.692,1.053,2.905
					c0,1.214-0.352,2.183-1.053,2.905c-0.702,0.725-1.643,1.086-2.821,1.086H369.74z M371.093,273.292h1.287
					c0.823,0,1.458-0.247,1.904-0.741s0.669-1.174,0.669-2.041c0-0.866-0.223-1.549-0.669-2.047
					c-0.446-0.499-1.081-0.748-1.904-0.748h-1.287V273.292z"/>
				<path fill="#696C71" d="M383.729,271.537h-1.742v-1.157h3.029v0.624c0,1.092-0.319,1.97-0.956,2.633s-1.449,0.994-2.438,0.994
					c-1.083,0-1.98-0.384-2.69-1.15c-0.711-0.767-1.066-1.757-1.066-2.971c0-1.213,0.353-2.203,1.06-2.971
					c0.706-0.767,1.588-1.15,2.646-1.15c0.893,0,1.623,0.234,2.19,0.702s0.93,1.109,1.085,1.924h-1.352
					c-0.174-0.459-0.409-0.808-0.708-1.046c-0.3-0.238-0.705-0.357-1.216-0.357c-0.702,0-1.268,0.271-1.696,0.812
					c-0.43,0.541-0.644,1.237-0.644,2.086c0,0.858,0.216,1.561,0.649,2.106s1.015,0.818,1.742,0.818c0.589,0,1.066-0.171,1.43-0.513
					C383.416,272.579,383.642,272.118,383.729,271.537z"/>
				<path fill="#696C71" d="M387.004,266.519h5.213v1.196h-3.887v2.106h3.523v1.183h-3.523v2.288h3.887v1.209h-5.213V266.519z"/>
			</g>
		</g>
		<rect x="247.002" y="208.095" fill="#FFFFFF" width="178.49" height="43.438"/>
		<g>
			<g>
				<path fill="#696C71" d="M294.537,233.316v-7.982h1.353v6.773h3.835v1.209H294.537z"/>
				<path fill="#696C71" d="M301.752,225.334h5.213v1.196h-3.887v2.106h3.523v1.183h-3.523v2.288h3.887v1.209h-5.213V225.334z"/>
				<path fill="#696C71" d="M314.519,230.353h-1.742v-1.157h3.029v0.624c0,1.092-0.319,1.97-0.956,2.633s-1.449,0.994-2.438,0.994
					c-1.083,0-1.98-0.384-2.69-1.15c-0.711-0.767-1.066-1.757-1.066-2.971c0-1.213,0.353-2.203,1.06-2.97
					c0.706-0.767,1.588-1.15,2.646-1.15c0.893,0,1.623,0.234,2.19,0.702c0.567,0.468,0.93,1.11,1.085,1.924h-1.352
					c-0.174-0.459-0.409-0.808-0.708-1.047c-0.3-0.238-0.705-0.357-1.216-0.357c-0.702,0-1.268,0.271-1.696,0.812
					c-0.43,0.542-0.644,1.237-0.644,2.086c0,0.858,0.216,1.561,0.649,2.106s1.015,0.818,1.742,0.818c0.589,0,1.066-0.171,1.43-0.513
					C314.206,231.395,314.432,230.934,314.519,230.353z"/>
				<path fill="#696C71" d="M320.238,225.334h1.3l3.068,7.982h-1.378l-0.819-2.21h-3.055l-0.819,2.21h-1.365L320.238,225.334z
					 M320.875,226.985l-1.092,2.951h2.184L320.875,226.985z"/>
				<path fill="#696C71" d="M327.004,232.296c-0.688-0.767-1.033-1.757-1.033-2.971c0-1.213,0.345-2.203,1.033-2.97
					c0.689-0.767,1.554-1.15,2.594-1.15c0.884,0,1.607,0.236,2.171,0.708c0.563,0.472,0.923,1.116,1.079,1.93h-1.326
					c-0.347-0.944-0.988-1.417-1.924-1.417c-0.693,0-1.244,0.271-1.651,0.812c-0.407,0.542-0.61,1.237-0.61,2.086
					c0,0.85,0.203,1.545,0.61,2.087s0.958,0.812,1.651,0.812c0.936,0,1.577-0.477,1.924-1.431h1.326
					c-0.156,0.824-0.516,1.472-1.079,1.944c-0.563,0.472-1.287,0.708-2.171,0.708C328.558,233.446,327.693,233.062,327.004,232.296z
					"/>
				<path fill="#696C71" d="M337.71,228.909l2.105-3.575h1.431l-2.899,4.797v3.185h-1.339v-3.185l-2.886-4.797h1.469L337.71,228.909
					z"/>
				<path fill="#696C71" d="M347.102,232.296c-0.688-0.767-1.033-1.757-1.033-2.971c0-1.213,0.345-2.203,1.033-2.97
					c0.689-0.767,1.554-1.15,2.594-1.15c0.884,0,1.607,0.236,2.171,0.708c0.563,0.472,0.923,1.116,1.079,1.93h-1.326
					c-0.347-0.944-0.988-1.417-1.924-1.417c-0.693,0-1.244,0.271-1.651,0.812c-0.407,0.542-0.61,1.237-0.61,2.086
					c0,0.85,0.203,1.545,0.61,2.087s0.958,0.812,1.651,0.812c0.936,0,1.577-0.477,1.924-1.431h1.326
					c-0.156,0.824-0.516,1.472-1.079,1.944c-0.563,0.472-1.287,0.708-2.171,0.708C348.655,233.446,347.791,233.062,347.102,232.296z
					"/>
				<path fill="#696C71" d="M360.811,226.368c0.693,0.776,1.04,1.762,1.04,2.958c0,1.196-0.347,2.183-1.04,2.958
					s-1.577,1.163-2.652,1.163c-1.074,0-1.956-0.388-2.646-1.163c-0.688-0.775-1.033-1.762-1.033-2.958
					c0-1.196,0.345-2.182,1.033-2.958c0.689-0.775,1.571-1.163,2.646-1.163C359.233,225.205,360.117,225.592,360.811,226.368z
					 M359.842,231.418c0.429-0.546,0.644-1.243,0.644-2.093c0-0.849-0.215-1.547-0.644-2.093s-0.99-0.819-1.684-0.819
					s-1.252,0.271-1.677,0.812s-0.637,1.241-0.637,2.099c0,0.858,0.212,1.559,0.637,2.1c0.425,0.542,0.983,0.812,1.677,0.812
					S359.413,231.965,359.842,231.418z"/>
				<path fill="#696C71" d="M363.839,233.316v-7.982h2.691c1.179,0,2.119,0.362,2.821,1.085c0.701,0.724,1.053,1.692,1.053,2.905
					c0,1.214-0.352,2.183-1.053,2.905c-0.702,0.725-1.643,1.086-2.821,1.086H363.839z M365.191,232.107h1.287
					c0.823,0,1.458-0.247,1.904-0.741s0.669-1.174,0.669-2.041c0-0.866-0.223-1.549-0.669-2.047
					c-0.446-0.498-1.081-0.748-1.904-0.748h-1.287V232.107z"/>
				<path fill="#696C71" d="M372.393,225.334h5.213v1.196h-3.887v2.106h3.523v1.183h-3.523v2.288h3.887v1.209h-5.213V225.334z"/>
			</g>
		</g>
		<g>
			
				<line fill="none" stroke="#696C71" stroke-width="0.6735" stroke-miterlimit="10" x1="337.523" y1="288.477" x2="337.523" y2="303.996"/>
			<polygon fill="#696C71" points="334.945,301.727 337.523,306.193 340.102,301.727 			"/>
		</g>
	</g>
	<g>
		<polygon fill="#595B5F" points="165.082,301.73 167.66,306.195 170.241,301.73 		"/>
		<g>
			<rect x="26.631" y="208.096" fill="#FFFFFF" width="181.04" height="80"/>
			<g>
				<g>
					<path fill="#696C71" d="M49.845,229.773c0.382,0.121,0.693,0.354,0.937,0.695c0.242,0.343,0.363,0.722,0.363,1.138
						c0,0.737-0.24,1.303-0.721,1.696c-0.481,0.395-1.143,0.592-1.982,0.592h-3.056v-7.982h2.795c0.85,0,1.513,0.187,1.989,0.559
						s0.715,0.91,0.715,1.612c0,0.416-0.098,0.776-0.292,1.08C50.397,229.466,50.148,229.669,49.845,229.773z M46.699,229.267h1.469
						c0.944,0,1.417-0.368,1.417-1.105c0-0.719-0.473-1.079-1.417-1.079h-1.469V229.267z M46.699,230.385v2.34h1.716
						c0.45,0,0.797-0.104,1.04-0.312c0.242-0.208,0.364-0.493,0.364-0.857s-0.122-0.65-0.364-0.858
						c-0.243-0.208-0.59-0.312-1.04-0.312H46.699z"/>
					<path fill="#696C71" d="M55.643,225.913h1.3l3.068,7.982h-1.378l-0.819-2.21h-3.055l-0.819,2.21h-1.365L55.643,225.913z
						 M56.279,227.563l-1.092,2.951h2.184L56.279,227.563z"/>
					<path fill="#696C71" d="M61.805,233.895v-7.982h1.353v6.773h3.835v1.209H61.805z"/>
					<path fill="#696C71" d="M69.02,233.895v-7.982h1.353v6.773h3.835v1.209H69.02z"/>
					<path fill="#696C71" d="M76.234,225.913h5.213v1.196h-3.887v2.105h3.523v1.184h-3.523v2.288h3.887v1.209h-5.213V225.913z"/>
					<path fill="#696C71" d="M85.881,230.657h-0.962v3.237h-1.353v-7.982h3.081c0.841,0,1.504,0.206,1.989,0.618
						s0.728,1.003,0.728,1.774c0,0.659-0.18,1.181-0.539,1.566s-0.86,0.631-1.502,0.734l2.314,3.289h-1.534L85.881,230.657z
						 M84.919,227.083v2.444h1.703c0.441,0,0.786-0.11,1.033-0.332c0.247-0.22,0.37-0.517,0.37-0.89s-0.123-0.669-0.37-0.891
						s-0.592-0.332-1.033-0.332H84.919z"/>
					<path fill="#696C71" d="M92.784,225.913v7.982h-1.353v-7.982H92.784z"/>
					<path fill="#696C71" d="M101.623,225.913v7.982h-1.04l-4.082-5.811v5.811h-1.3v-7.982h1.274l3.848,5.538v-5.538H101.623z"/>
					<path fill="#696C71" d="M106.485,225.913h1.3l3.068,7.982h-1.378l-0.819-2.21h-3.055l-0.819,2.21h-1.365L106.485,225.913z
						 M107.122,227.563l-1.092,2.951h2.184L107.122,227.563z"/>
					<path fill="#696C71" d="M44.762,246.685h1.378c0.252,0.798,0.854,1.196,1.808,1.196c0.468,0,0.843-0.106,1.124-0.318
						c0.281-0.213,0.423-0.501,0.423-0.865c0-0.286-0.089-0.514-0.267-0.683s-0.475-0.301-0.891-0.396l-1.352-0.324
						c-1.326-0.312-1.989-1.027-1.989-2.146c0-0.685,0.253-1.25,0.761-1.696c0.507-0.446,1.158-0.67,1.956-0.67
						c0.841,0,1.519,0.197,2.034,0.592s0.848,0.934,0.995,1.618H49.39c-0.251-0.71-0.806-1.065-1.664-1.065
						c-0.433,0-0.782,0.102-1.046,0.306c-0.265,0.203-0.396,0.47-0.396,0.799c0,0.529,0.351,0.876,1.053,1.04l1.391,0.325
						c0.65,0.147,1.157,0.407,1.521,0.78c0.364,0.372,0.546,0.85,0.546,1.43c0,0.737-0.265,1.324-0.793,1.762
						s-1.214,0.656-2.054,0.656c-0.85,0-1.559-0.206-2.126-0.617C45.254,247.995,44.9,247.421,44.762,246.685z"/>
					<path fill="#696C71" d="M52.782,240.912h5.213v1.196h-3.887v2.106h3.523v1.183h-3.523v2.288h3.887v1.209h-5.213V240.912z"/>
					<path fill="#696C71" d="M62.429,245.657h-0.962v3.237h-1.353v-7.982h3.081c0.841,0,1.504,0.206,1.989,0.618
						c0.485,0.411,0.728,1.003,0.728,1.774c0,0.658-0.18,1.181-0.539,1.566s-0.86,0.631-1.502,0.734l2.314,3.289h-1.534
						L62.429,245.657z M61.467,242.083v2.443h1.703c0.441,0,0.786-0.11,1.033-0.331c0.247-0.222,0.37-0.518,0.37-0.891
						s-0.123-0.67-0.37-0.891s-0.592-0.331-1.033-0.331H61.467z"/>
					<path fill="#696C71" d="M71.659,248.895h-1.287l-3.017-7.982h1.417l2.263,6.228l2.262-6.228h1.378L71.659,248.895z"/>
					<path fill="#696C71" d="M77.821,240.912v7.982h-1.353v-7.982H77.821z"/>
					<path fill="#696C71" d="M80.843,247.874c-0.688-0.767-1.033-1.757-1.033-2.971c0-1.213,0.345-2.203,1.033-2.971
						c0.689-0.767,1.554-1.15,2.594-1.15c0.884,0,1.607,0.236,2.171,0.709s0.923,1.116,1.079,1.931H85.36
						c-0.347-0.945-0.988-1.417-1.924-1.417c-0.693,0-1.244,0.271-1.651,0.812c-0.407,0.541-0.61,1.237-0.61,2.086
						c0,0.85,0.203,1.545,0.61,2.087s0.958,0.812,1.651,0.812c0.936,0,1.577-0.477,1.924-1.431h1.326
						c-0.156,0.824-0.516,1.472-1.079,1.944c-0.563,0.472-1.287,0.708-2.171,0.708C82.396,249.024,81.532,248.641,80.843,247.874z"
						/>
					<path fill="#696C71" d="M88.649,240.912h5.213v1.196h-3.887v2.106h3.523v1.183h-3.523v2.288h3.887v1.209h-5.213V240.912z"/>
				</g>
			</g>
			
				<line fill="none" stroke="#696C71" stroke-width="0.6735" stroke-miterlimit="10" x1="167.66" y1="268.543" x2="167.66" y2="302.574"/>
			<g>
				<polyline fill="none" stroke="#595B5F" stroke-width="0.9621" stroke-miterlimit="10" points="164.464,227.896 155.998,227.896 
					144.336,248.095 155.998,268.297 179.322,268.297 190.985,248.095 179.322,227.896 170.857,227.896 				"/>
				<circle fill="none" stroke="#595B5F" stroke-width="1.0345" stroke-miterlimit="10" cx="167.66" cy="248.095" r="9.064"/>
			</g>
		</g>
	</g>
</g>
</svg>
