<?xml version="1.0" encoding="utf-8"?>
<!-- Generator: Adobe Illustrator 16.0.4, SVG Export Plug-In . SVG Version: 6.00 Build 0)  -->
<!DOCTYPE svg PUBLIC "-//W3C//DTD SVG 1.0//EN" "http://www.w3.org/TR/2001/REC-SVG-20010904/DTD/svg10.dtd">
<svg version="1.0" id="Layer_1" xmlns="http://www.w3.org/2000/svg" xmlns:xlink="http://www.w3.org/1999/xlink" x="0px" y="0px"
	 width="456.663px" height="454.468px" viewBox="0 0 456.663 454.468" enable-background="new 0 0 456.663 454.468"
	 xml:space="preserve">
<g>
	<rect x="2" y="54.896" fill="#F5F6F6" width="452.664" height="398.895"/>
	<rect x="43.32" y="363.73" fill="#FFFFFF" width="361.316" height="44.413"/>
	<g>
		<path fill="#585A5E" d="M196.325,390.793v-2.858l-2.129-3.878h0.989l0.95,1.859c0.26,0.51,0.46,0.919,0.669,1.389h0.02
			c0.19-0.439,0.42-0.879,0.68-1.389l0.97-1.859h0.989l-2.259,3.868v2.868H196.325z"/>
		<path fill="#585A5E" d="M206.252,387.354c0,2.319-1.409,3.549-3.128,3.549c-1.779,0-3.028-1.38-3.028-3.419
			c0-2.139,1.329-3.538,3.128-3.538C205.063,383.946,206.252,385.355,206.252,387.354z M201.025,387.465
			c0,1.439,0.78,2.729,2.149,2.729c1.379,0,2.159-1.27,2.159-2.799c0-1.339-0.699-2.738-2.148-2.738
			C201.745,384.656,201.025,385.985,201.025,387.465z"/>
		<path fill="#585A5E" d="M208.945,384.057v3.988c0,1.509,0.67,2.148,1.569,2.148c1,0,1.639-0.66,1.639-2.148v-3.988h0.879v3.928
			c0,2.069-1.089,2.919-2.548,2.919c-1.379,0-2.419-0.79-2.419-2.879v-3.968H208.945z"/>
		<path fill="#585A5E" d="M215.246,384.146c0.439-0.09,1.069-0.14,1.669-0.14c0.93,0,1.529,0.17,1.949,0.55
			c0.34,0.3,0.53,0.76,0.53,1.279c0,0.89-0.56,1.479-1.269,1.719v0.03c0.52,0.18,0.83,0.659,0.989,1.359
			c0.22,0.939,0.38,1.589,0.52,1.849h-0.899c-0.11-0.189-0.26-0.77-0.45-1.609c-0.2-0.93-0.56-1.279-1.349-1.309h-0.82v2.918h-0.869
			V384.146z M216.115,387.215h0.89c0.93,0,1.519-0.51,1.519-1.279c0-0.869-0.629-1.249-1.549-1.259c-0.42,0-0.72,0.04-0.86,0.079
			V387.215z"/>
		<path fill="#585A5E" d="M225.014,384.057v6.736h-0.869v-6.736H225.014z"/>
		<path fill="#585A5E" d="M228.325,388.674l-0.7,2.119h-0.899l2.289-6.736h1.049l2.299,6.736h-0.93l-0.719-2.119H228.325z
			 M230.534,387.994l-0.66-1.938c-0.15-0.439-0.25-0.84-0.35-1.229h-0.021c-0.101,0.399-0.21,0.81-0.34,1.22l-0.659,1.948H230.534z"
			/>
		<path fill="#585A5E" d="M235.136,388.674l-0.701,2.119h-0.898l2.289-6.736h1.049l2.299,6.736h-0.93l-0.719-2.119H235.136z
			 M237.343,387.994l-0.658-1.938c-0.15-0.439-0.25-0.84-0.35-1.229h-0.021c-0.1,0.399-0.209,0.81-0.34,1.22l-0.658,1.948H237.343z"
			/>
		<path fill="#585A5E" d="M240.685,389.733c0.391,0.24,0.961,0.439,1.561,0.439c0.889,0,1.408-0.47,1.408-1.148
			c0-0.63-0.359-0.99-1.27-1.34c-1.1-0.39-1.779-0.959-1.779-1.909c0-1.049,0.871-1.829,2.18-1.829c0.689,0,1.189,0.16,1.488,0.33
			l-0.238,0.71c-0.221-0.12-0.67-0.32-1.279-0.32c-0.92,0-1.27,0.55-1.27,1.01c0,0.63,0.41,0.939,1.338,1.299
			c1.141,0.44,1.721,0.99,1.721,1.979c0,1.039-0.77,1.938-2.359,1.938c-0.65,0-1.359-0.189-1.719-0.43L240.685,389.733z"/>
	</g>
	<polyline fill="none" stroke="#A7A8AB" stroke-width="0.5" stroke-miterlimit="10" points="96.672,302.998 96.672,110.489 
		348.929,112.125 348.929,292.969 	"/>
	
		<line fill="none" stroke="#A7A8AB" stroke-width="0.5" stroke-miterlimit="10" x1="221.517" y1="111.156" x2="221.517" y2="290.969"/>
	<rect x="43.319" y="126.991" fill="#3AD1CA" width="111.413" height="66.712"/>
	<rect x="43.319" y="203.996" fill="#FFFFFF" width="111.413" height="66.713"/>
	<rect x="43.319" y="285.812" fill="#FFFFFF" width="111.413" height="66.712"/>
	<g>
		<path fill="#585A5E" d="M66.995,221.085c0.351,0.216,0.864,0.396,1.404,0.396c0.801,0,1.27-0.423,1.27-1.035
			c0-0.566-0.324-0.891-1.144-1.206c-0.99-0.352-1.603-0.864-1.603-1.72c0-0.945,0.784-1.647,1.963-1.647
			c0.621,0,1.071,0.145,1.341,0.297l-0.216,0.64c-0.198-0.108-0.604-0.288-1.152-0.288c-0.829,0-1.144,0.495-1.144,0.909
			c0,0.567,0.369,0.847,1.207,1.17c1.026,0.396,1.548,0.892,1.548,1.783c0,0.936-0.693,1.746-2.125,1.746
			c-0.585,0-1.225-0.171-1.549-0.387L66.995,221.085z"/>
		<path fill="#585A5E" d="M75.312,219.194h-2.359v2.188h2.629v0.657h-3.412v-6.067h3.277v0.657h-2.494v1.917h2.359V219.194z"/>
		<path fill="#585A5E" d="M77.228,216.053c0.396-0.081,0.963-0.127,1.503-0.127c0.837,0,1.377,0.153,1.756,0.496
			c0.306,0.27,0.477,0.684,0.477,1.152c0,0.801-0.504,1.332-1.144,1.548v0.027c0.468,0.162,0.748,0.594,0.892,1.225
			c0.198,0.846,0.342,1.431,0.468,1.665h-0.81c-0.099-0.171-0.234-0.693-0.405-1.449c-0.18-0.838-0.504-1.152-1.215-1.18h-0.738
			v2.629h-0.783V216.053z M78.011,218.816h0.801c0.837,0,1.369-0.459,1.369-1.152c0-0.783-0.567-1.126-1.396-1.135
			c-0.378,0-0.648,0.036-0.774,0.072V218.816z"/>
		<path fill="#585A5E" d="M83.942,222.039l-1.98-6.067h0.846l0.945,2.988c0.261,0.819,0.486,1.558,0.648,2.269h0.018
			c0.171-0.702,0.423-1.467,0.693-2.26l1.026-2.997h0.837l-2.169,6.067H83.942z"/>
		<path fill="#585A5E" d="M89.036,215.972v6.067h-0.783v-6.067H89.036z"/>
		<path fill="#585A5E" d="M95.273,221.841c-0.288,0.145-0.864,0.288-1.603,0.288c-1.71,0-2.998-1.08-2.998-3.069
			c0-1.9,1.287-3.188,3.169-3.188c0.756,0,1.233,0.162,1.44,0.271l-0.189,0.639c-0.297-0.144-0.72-0.252-1.225-0.252
			c-1.422,0-2.368,0.909-2.368,2.503c0,1.485,0.855,2.439,2.332,2.439c0.477,0,0.963-0.099,1.278-0.252L95.273,221.841z"/>
		<path fill="#585A5E" d="M100.025,219.194h-2.359v2.188h2.629v0.657h-3.412v-6.067h3.277v0.657h-2.494v1.917h2.359V219.194z"/>
		<path fill="#585A5E" d="M109.593,219.374c-0.045-0.846-0.099-1.863-0.09-2.619h-0.027c-0.207,0.711-0.459,1.467-0.765,2.305
			l-1.071,2.943h-0.594l-0.981-2.89c-0.288-0.855-0.531-1.639-0.702-2.358h-0.018c-0.018,0.756-0.063,1.773-0.117,2.683
			l-0.162,2.602h-0.748l0.423-6.067h1l1.035,2.935c0.252,0.747,0.459,1.413,0.612,2.044h0.027c0.153-0.612,0.369-1.279,0.639-2.044
			l1.08-2.935h1l0.378,6.067h-0.765L109.593,219.374z"/>
		<path fill="#585A5E" d="M115.487,219.194h-2.359v2.188h2.629v0.657h-3.412v-6.067h3.277v0.657h-2.494v1.917h2.359V219.194z"/>
		<path fill="#585A5E" d="M117.295,221.085c0.351,0.216,0.864,0.396,1.404,0.396c0.801,0,1.27-0.423,1.27-1.035
			c0-0.566-0.324-0.891-1.144-1.206c-0.99-0.352-1.602-0.864-1.602-1.72c0-0.945,0.783-1.647,1.962-1.647
			c0.621,0,1.071,0.145,1.341,0.297l-0.216,0.64c-0.198-0.108-0.604-0.288-1.152-0.288c-0.829,0-1.144,0.495-1.144,0.909
			c0,0.567,0.369,0.847,1.207,1.17c1.026,0.396,1.548,0.892,1.548,1.783c0,0.936-0.693,1.746-2.125,1.746
			c-0.585,0-1.225-0.171-1.549-0.387L117.295,221.085z"/>
		<path fill="#585A5E" d="M123.253,215.972v2.538h2.935v-2.538h0.792v6.067h-0.792v-2.845h-2.935v2.845h-0.783v-6.067H123.253z"/>
	</g>
	<g>
		<path fill="#585A5E" d="M69.768,300.969c0,2.088-1.269,3.195-2.818,3.195c-1.603,0-2.728-1.242-2.728-3.078
			c0-1.927,1.197-3.188,2.818-3.188C68.697,297.898,69.768,299.168,69.768,300.969z M65.06,301.067c0,1.297,0.703,2.458,1.936,2.458
			c1.242,0,1.944-1.144,1.944-2.521c0-1.207-0.63-2.467-1.936-2.467C65.708,298.538,65.06,299.735,65.06,301.067z"/>
		<path fill="#585A5E" d="M71.414,298.079c0.396-0.081,0.963-0.127,1.503-0.127c0.837,0,1.377,0.153,1.756,0.495
			c0.306,0.271,0.477,0.685,0.477,1.152c0,0.802-0.504,1.333-1.144,1.549v0.027c0.468,0.162,0.748,0.594,0.892,1.225
			c0.198,0.846,0.342,1.431,0.468,1.665h-0.81c-0.099-0.171-0.234-0.693-0.405-1.449c-0.18-0.838-0.504-1.152-1.215-1.18h-0.738
			v2.629h-0.783V298.079z M72.197,300.843h0.801c0.837,0,1.369-0.459,1.369-1.152c0-0.783-0.567-1.126-1.396-1.135
			c-0.378,0-0.648,0.036-0.774,0.072V300.843z"/>
		<path fill="#585A5E" d="M81.125,303.867c-0.288,0.145-0.864,0.288-1.603,0.288c-1.71,0-2.998-1.08-2.998-3.069
			c0-1.9,1.287-3.188,3.169-3.188c0.756,0,1.233,0.162,1.44,0.271l-0.189,0.639c-0.297-0.144-0.72-0.252-1.225-0.252
			c-1.422,0-2.368,0.909-2.368,2.503c0,1.485,0.855,2.439,2.332,2.439c0.478,0,0.963-0.099,1.278-0.252L81.125,303.867z"/>
		<path fill="#585A5E" d="M83.519,297.998v2.538h2.935v-2.538h0.792v6.067h-0.792v-2.845h-2.935v2.845h-0.783v-6.067H83.519z"/>
		<path fill="#585A5E" d="M92.375,301.221h-2.359v2.188h2.629v0.657h-3.412v-6.067h3.277v0.657h-2.494v1.917h2.359V301.221z"/>
		<path fill="#585A5E" d="M94.183,303.111c0.351,0.216,0.864,0.396,1.404,0.396c0.801,0,1.27-0.423,1.27-1.035
			c0-0.567-0.324-0.891-1.144-1.206c-0.99-0.352-1.603-0.864-1.603-1.72c0-0.945,0.784-1.647,1.963-1.647
			c0.621,0,1.071,0.145,1.341,0.297l-0.216,0.64c-0.198-0.108-0.604-0.288-1.152-0.288c-0.829,0-1.144,0.495-1.144,0.909
			c0,0.567,0.369,0.847,1.207,1.17c1.026,0.396,1.548,0.892,1.548,1.783c0,0.937-0.693,1.746-2.125,1.746
			c-0.585,0-1.225-0.171-1.549-0.387L94.183,303.111z"/>
		<path fill="#585A5E" d="M100.412,298.664h-1.845v-0.666h4.492v0.666h-1.854v5.401h-0.792V298.664z"/>
		<path fill="#585A5E" d="M104.362,298.079c0.396-0.081,0.963-0.127,1.503-0.127c0.837,0,1.377,0.153,1.756,0.495
			c0.306,0.271,0.477,0.685,0.477,1.152c0,0.802-0.504,1.333-1.144,1.549v0.027c0.468,0.162,0.748,0.594,0.892,1.225
			c0.198,0.846,0.342,1.431,0.468,1.665h-0.81c-0.099-0.171-0.234-0.693-0.405-1.449c-0.18-0.838-0.504-1.152-1.215-1.18h-0.738
			v2.629h-0.783V298.079z M105.145,300.843h0.801c0.837,0,1.369-0.459,1.369-1.152c0-0.783-0.567-1.126-1.396-1.135
			c-0.378,0-0.648,0.036-0.774,0.072V300.843z"/>
		<path fill="#585A5E" d="M110.815,302.157l-0.63,1.908h-0.81l2.062-6.067h0.945l2.071,6.067h-0.837l-0.648-1.908H110.815z
			 M112.805,301.545l-0.594-1.747c-0.135-0.396-0.225-0.756-0.315-1.107h-0.018c-0.09,0.36-0.189,0.729-0.306,1.099l-0.594,1.756
			H112.805z"/>
		<path fill="#585A5E" d="M116.557,298.664h-1.845v-0.666h4.492v0.666h-1.854v5.401h-0.792V298.664z"/>
		<path fill="#585A5E" d="M125.405,300.969c0,2.088-1.269,3.195-2.818,3.195c-1.603,0-2.728-1.242-2.728-3.078
			c0-1.927,1.197-3.188,2.818-3.188C124.334,297.898,125.405,299.168,125.405,300.969z M120.697,301.067
			c0,1.297,0.703,2.458,1.936,2.458c1.243,0,1.945-1.144,1.945-2.521c0-1.207-0.63-2.467-1.936-2.467
			C121.345,298.538,120.697,299.735,120.697,301.067z"/>
		<path fill="#585A5E" d="M127.051,298.079c0.396-0.081,0.963-0.127,1.503-0.127c0.837,0,1.377,0.153,1.756,0.495
			c0.306,0.271,0.477,0.685,0.477,1.152c0,0.802-0.504,1.333-1.144,1.549v0.027c0.468,0.162,0.748,0.594,0.892,1.225
			c0.198,0.846,0.342,1.431,0.468,1.665h-0.81c-0.099-0.171-0.234-0.693-0.405-1.449c-0.18-0.838-0.504-1.152-1.215-1.18h-0.738
			v2.629h-0.783V298.079z M127.834,300.843h0.801c0.837,0,1.369-0.459,1.369-1.152c0-0.783-0.567-1.126-1.396-1.135
			c-0.378,0-0.648,0.036-0.774,0.072V300.843z"/>
	</g>
	<g>
		<path fill="#FFFFFF" d="M73.916,151.046c0.342-0.072,0.882-0.127,1.432-0.127c0.783,0,1.287,0.136,1.666,0.441
			c0.315,0.234,0.504,0.595,0.504,1.071c0,0.585-0.387,1.099-1.026,1.333v0.018c0.576,0.145,1.251,0.621,1.251,1.521
			c0,0.522-0.207,0.918-0.513,1.216c-0.423,0.387-1.107,0.566-2.098,0.566c-0.54,0-0.954-0.036-1.215-0.071V151.046z M74.699,153.53
			h0.711c0.828,0,1.314-0.433,1.314-1.018c0-0.711-0.541-0.99-1.333-0.99c-0.36,0-0.567,0.027-0.693,0.054V153.53z M74.699,156.438
			c0.153,0.026,0.378,0.035,0.657,0.035c0.811,0,1.558-0.297,1.558-1.179c0-0.828-0.711-1.171-1.566-1.171h-0.648V156.438z"/>
		<path fill="#FFFFFF" d="M80.261,155.124l-0.63,1.908h-0.81l2.062-6.067h0.945l2.071,6.067h-0.837l-0.648-1.908H80.261z
			 M82.25,154.512l-0.594-1.747c-0.135-0.396-0.225-0.756-0.315-1.107h-0.018c-0.09,0.36-0.189,0.729-0.306,1.099l-0.594,1.756
			H82.25z"/>
		<path fill="#FFFFFF" d="M85.417,150.965h0.783v5.41h2.593v0.657h-3.376V150.965z"/>
		<path fill="#FFFFFF" d="M90.295,150.965h0.783v5.41h2.593v0.657h-3.376V150.965z"/>
		<path fill="#FFFFFF" d="M98.315,154.188h-2.359v2.188h2.629v0.657h-3.412v-6.067h3.277v0.657h-2.494v1.917h2.359V154.188z"/>
		<path fill="#FFFFFF" d="M100.231,151.046c0.396-0.081,0.963-0.127,1.503-0.127c0.837,0,1.377,0.153,1.756,0.495
			c0.306,0.271,0.477,0.685,0.477,1.152c0,0.802-0.504,1.333-1.144,1.549v0.027c0.468,0.162,0.748,0.594,0.892,1.225
			c0.198,0.846,0.342,1.431,0.468,1.665h-0.81c-0.099-0.171-0.234-0.693-0.405-1.449c-0.18-0.838-0.504-1.152-1.215-1.18h-0.738
			v2.629h-0.783V151.046z M101.014,153.81h0.801c0.837,0,1.369-0.459,1.369-1.152c0-0.783-0.567-1.126-1.396-1.135
			c-0.378,0-0.648,0.036-0.774,0.072V153.81z"/>
		<path fill="#FFFFFF" d="M106.486,150.965v6.067h-0.783v-6.067H106.486z"/>
		<path fill="#FFFFFF" d="M108.475,157.032v-6.067h0.855l1.944,3.069c0.45,0.711,0.801,1.351,1.089,1.972l0.018-0.009
			c-0.072-0.811-0.09-1.549-0.09-2.494v-2.538h0.738v6.067h-0.792l-1.926-3.079c-0.423-0.675-0.829-1.368-1.135-2.025l-0.027,0.009
			c0.045,0.766,0.063,1.495,0.063,2.503v2.593H108.475z"/>
		<path fill="#FFFFFF" d="M116.008,155.124l-0.63,1.908h-0.81l2.062-6.067h0.945l2.071,6.067h-0.837l-0.648-1.908H116.008z
			 M117.998,154.512l-0.594-1.747c-0.135-0.396-0.225-0.756-0.315-1.107h-0.018c-0.09,0.36-0.189,0.729-0.306,1.099l-0.594,1.756
			H117.998z"/>
	</g>
	<g>
		<path fill="#FFFFFF" d="M77.083,166.878c0.351,0.216,0.864,0.396,1.404,0.396c0.801,0,1.27-0.423,1.27-1.035
			c0-0.566-0.324-0.891-1.144-1.206c-0.99-0.352-1.603-0.864-1.603-1.72c0-0.945,0.784-1.647,1.963-1.647
			c0.621,0,1.071,0.145,1.341,0.297l-0.216,0.64c-0.198-0.108-0.604-0.288-1.152-0.288c-0.829,0-1.144,0.495-1.144,0.909
			c0,0.567,0.369,0.847,1.207,1.17c1.026,0.396,1.548,0.892,1.548,1.783c0,0.936-0.693,1.746-2.125,1.746
			c-0.585,0-1.225-0.171-1.549-0.387L77.083,166.878z"/>
		<path fill="#FFFFFF" d="M85.4,164.987h-2.359v2.188h2.629v0.657h-3.412v-6.067h3.277v0.657h-2.494v1.917H85.4V164.987z"/>
		<path fill="#FFFFFF" d="M87.316,161.846c0.396-0.081,0.963-0.127,1.503-0.127c0.837,0,1.377,0.153,1.756,0.496
			c0.306,0.27,0.477,0.684,0.477,1.152c0,0.801-0.504,1.332-1.144,1.548v0.027c0.468,0.162,0.748,0.594,0.892,1.225
			c0.198,0.846,0.342,1.431,0.468,1.665h-0.81c-0.099-0.171-0.234-0.693-0.405-1.449c-0.18-0.838-0.504-1.152-1.215-1.18H88.1v2.629
			h-0.783V161.846z M88.1,164.609h0.801c0.837,0,1.369-0.459,1.369-1.152c0-0.783-0.567-1.126-1.396-1.135
			c-0.378,0-0.648,0.036-0.774,0.072V164.609z"/>
		<path fill="#FFFFFF" d="M94.031,167.832l-1.98-6.067h0.846l0.945,2.988c0.261,0.819,0.486,1.558,0.648,2.269h0.018
			c0.171-0.702,0.423-1.467,0.693-2.26l1.026-2.997h0.837l-2.169,6.067H94.031z"/>
		<path fill="#FFFFFF" d="M99.125,161.765v6.067h-0.783v-6.067H99.125z"/>
		<path fill="#FFFFFF" d="M105.362,167.634c-0.288,0.145-0.864,0.288-1.603,0.288c-1.71,0-2.998-1.08-2.998-3.069
			c0-1.9,1.287-3.188,3.169-3.188c0.756,0,1.233,0.162,1.44,0.271l-0.189,0.639c-0.297-0.144-0.72-0.252-1.225-0.252
			c-1.422,0-2.368,0.909-2.368,2.503c0,1.485,0.855,2.439,2.332,2.439c0.477,0,0.963-0.099,1.278-0.252L105.362,167.634z"/>
		<path fill="#FFFFFF" d="M110.114,164.987h-2.359v2.188h2.629v0.657h-3.412v-6.067h3.277v0.657h-2.494v1.917h2.359V164.987z"/>
		<path fill="#FFFFFF" d="M111.922,166.878c0.351,0.216,0.864,0.396,1.404,0.396c0.801,0,1.27-0.423,1.27-1.035
			c0-0.566-0.324-0.891-1.144-1.206c-0.99-0.352-1.602-0.864-1.602-1.72c0-0.945,0.783-1.647,1.962-1.647
			c0.621,0,1.071,0.145,1.341,0.297l-0.216,0.64c-0.198-0.108-0.604-0.288-1.152-0.288c-0.829,0-1.144,0.495-1.144,0.909
			c0,0.567,0.369,0.847,1.207,1.17c1.026,0.396,1.548,0.892,1.548,1.783c0,0.936-0.693,1.746-2.125,1.746
			c-0.585,0-1.225-0.171-1.549-0.387L111.922,166.878z"/>
	</g>
	<rect x="166.724" y="203.996" fill="#3AD1CA" width="111.412" height="66.713"/>
	<rect x="166.724" y="285.812" fill="#FFFFFF" width="111.412" height="66.712"/>
	<g>
		<path fill="#FFFFFF" d="M198.356,228.186c0.342-0.072,0.882-0.127,1.432-0.127c0.783,0,1.287,0.136,1.666,0.441
			c0.315,0.234,0.504,0.595,0.504,1.071c0,0.585-0.387,1.099-1.026,1.333v0.018c0.576,0.145,1.251,0.621,1.251,1.521
			c0,0.522-0.207,0.918-0.513,1.216c-0.423,0.387-1.107,0.566-2.098,0.566c-0.54,0-0.954-0.036-1.215-0.071V228.186z M199.14,230.67
			h0.711c0.828,0,1.314-0.433,1.314-1.018c0-0.711-0.54-0.99-1.333-0.99c-0.36,0-0.567,0.027-0.693,0.054V230.67z M199.14,233.578
			c0.153,0.026,0.378,0.035,0.657,0.035c0.811,0,1.558-0.297,1.558-1.179c0-0.828-0.711-1.171-1.566-1.171h-0.648V233.578z"/>
		<path fill="#FFFFFF" d="M204.702,232.264l-0.63,1.908h-0.81l2.062-6.067h0.945l2.071,6.067h-0.837l-0.648-1.908H204.702z
			 M206.691,231.651l-0.594-1.747c-0.135-0.396-0.225-0.756-0.315-1.107h-0.018c-0.09,0.36-0.189,0.729-0.306,1.099l-0.594,1.756
			H206.691z"/>
		<path fill="#FFFFFF" d="M209.858,228.104h0.783v5.41h2.593v0.657h-3.376V228.104z"/>
		<path fill="#FFFFFF" d="M214.736,228.104h0.783v5.41h2.593v0.657h-3.376V228.104z"/>
		<path fill="#FFFFFF" d="M222.756,231.327h-2.359v2.188h2.629v0.657h-3.412v-6.067h3.277v0.657h-2.494v1.917h2.359V231.327z"/>
		<path fill="#FFFFFF" d="M224.672,228.186c0.396-0.081,0.963-0.127,1.503-0.127c0.837,0,1.377,0.153,1.755,0.496
			c0.307,0.27,0.478,0.684,0.478,1.152c0,0.801-0.505,1.332-1.144,1.548v0.027c0.469,0.162,0.748,0.594,0.892,1.225
			c0.198,0.846,0.342,1.431,0.468,1.665h-0.811c-0.099-0.171-0.233-0.693-0.405-1.449c-0.18-0.838-0.504-1.152-1.215-1.18h-0.738
			v2.629h-0.783V228.186z M225.455,230.949h0.801c0.837,0,1.369-0.459,1.369-1.152c0-0.783-0.567-1.126-1.396-1.135
			c-0.378,0-0.648,0.036-0.774,0.072V230.949z"/>
		<path fill="#FFFFFF" d="M230.927,228.104v6.067h-0.783v-6.067H230.927z"/>
		<path fill="#FFFFFF" d="M232.925,234.172v-6.067h0.855l1.945,3.069c0.449,0.711,0.801,1.351,1.088,1.972l0.02-0.009
			c-0.072-0.811-0.09-1.549-0.09-2.494v-2.538h0.738v6.067h-0.793l-1.928-3.079c-0.422-0.675-0.828-1.368-1.133-2.025l-0.027,0.009
			c0.045,0.766,0.062,1.494,0.062,2.503v2.593H232.925z"/>
		<path fill="#FFFFFF" d="M240.458,232.264l-0.629,1.908h-0.811l2.061-6.067h0.945l2.072,6.067h-0.838l-0.648-1.908H240.458z
			 M242.448,231.651l-0.594-1.747c-0.135-0.396-0.225-0.756-0.316-1.107h-0.018c-0.09,0.36-0.189,0.729-0.305,1.099l-0.596,1.756
			H242.448z"/>
	</g>
	<g>
		<path fill="#FFFFFF" d="M201.524,244.019c0.351,0.216,0.864,0.396,1.404,0.396c0.801,0,1.27-0.423,1.27-1.035
			c0-0.566-0.324-0.891-1.144-1.206c-0.99-0.352-1.602-0.864-1.602-1.72c0-0.945,0.783-1.647,1.962-1.647
			c0.621,0,1.071,0.145,1.341,0.297l-0.216,0.64c-0.198-0.108-0.604-0.288-1.152-0.288c-0.829,0-1.144,0.495-1.144,0.909
			c0,0.567,0.369,0.847,1.207,1.17c1.026,0.396,1.548,0.892,1.548,1.783c0,0.936-0.693,1.746-2.125,1.746
			c-0.585,0-1.225-0.171-1.549-0.387L201.524,244.019z"/>
		<path fill="#FFFFFF" d="M209.841,242.128h-2.359v2.188h2.629v0.657h-3.412v-6.067h3.277v0.657h-2.494v1.917h2.359V242.128z"/>
		<path fill="#FFFFFF" d="M211.757,238.986c0.396-0.081,0.963-0.127,1.503-0.127c0.837,0,1.377,0.153,1.756,0.496
			c0.306,0.27,0.477,0.684,0.477,1.152c0,0.801-0.504,1.332-1.144,1.548v0.027c0.468,0.162,0.748,0.594,0.892,1.225
			c0.198,0.846,0.342,1.431,0.468,1.665h-0.81c-0.099-0.171-0.234-0.693-0.405-1.449c-0.18-0.838-0.504-1.152-1.215-1.18h-0.738
			v2.629h-0.783V238.986z M212.541,241.75h0.801c0.837,0,1.369-0.459,1.369-1.152c0-0.783-0.567-1.126-1.396-1.135
			c-0.378,0-0.648,0.036-0.774,0.072V241.75z"/>
		<path fill="#FFFFFF" d="M218.472,244.973l-1.98-6.067h0.846l0.945,2.988c0.261,0.819,0.486,1.558,0.648,2.269h0.018
			c0.171-0.702,0.423-1.467,0.693-2.26l1.026-2.997h0.837l-2.169,6.067H218.472z"/>
		<path fill="#FFFFFF" d="M223.574,238.905v6.067h-0.783v-6.067H223.574z"/>
		<path fill="#FFFFFF" d="M229.813,244.774c-0.289,0.145-0.865,0.288-1.604,0.288c-1.71,0-2.998-1.08-2.998-3.069
			c0-1.9,1.287-3.188,3.169-3.188c0.756,0,1.232,0.162,1.439,0.271l-0.188,0.639c-0.298-0.144-0.72-0.252-1.225-0.252
			c-1.422,0-2.368,0.909-2.368,2.503c0,1.485,0.855,2.439,2.332,2.439c0.477,0,0.963-0.099,1.278-0.252L229.813,244.774z"/>
		<path fill="#FFFFFF" d="M234.556,242.128h-2.359v2.188h2.629v0.657h-3.412v-6.067h3.277v0.657h-2.494v1.917h2.359V242.128z"/>
		<path fill="#FFFFFF" d="M236.362,244.019c0.352,0.216,0.865,0.396,1.404,0.396c0.803,0,1.27-0.423,1.27-1.035
			c0-0.566-0.324-0.891-1.143-1.206c-0.99-0.352-1.604-0.864-1.604-1.72c0-0.945,0.785-1.647,1.963-1.647
			c0.621,0,1.072,0.145,1.342,0.297l-0.215,0.64c-0.199-0.108-0.604-0.288-1.152-0.288c-0.83,0-1.145,0.495-1.145,0.909
			c0,0.567,0.369,0.847,1.207,1.17c1.025,0.396,1.549,0.892,1.549,1.783c0,0.936-0.693,1.746-2.125,1.746
			c-0.586,0-1.225-0.171-1.549-0.387L236.362,244.019z"/>
	</g>
	<rect x="293.224" y="285.812" fill="#3AD1CA" width="111.412" height="66.712"/>
	<g>
		<path fill="#FFFFFF" d="M325.665,311.689c0.342-0.072,0.883-0.127,1.432-0.127c0.783,0,1.287,0.136,1.666,0.441
			c0.314,0.234,0.504,0.595,0.504,1.071c0,0.585-0.387,1.099-1.027,1.333v0.018c0.576,0.145,1.252,0.621,1.252,1.521
			c0,0.522-0.207,0.918-0.514,1.216c-0.422,0.387-1.107,0.566-2.098,0.566c-0.539,0-0.953-0.036-1.215-0.071V311.689z
			 M326.448,314.174h0.711c0.828,0,1.314-0.433,1.314-1.018c0-0.711-0.539-0.99-1.332-0.99c-0.359,0-0.566,0.027-0.693,0.054
			V314.174z M326.448,317.082c0.154,0.026,0.379,0.035,0.658,0.035c0.811,0,1.557-0.297,1.557-1.179
			c0-0.828-0.711-1.171-1.566-1.171h-0.648V317.082z"/>
		<path fill="#FFFFFF" d="M332.011,315.768l-0.631,1.908h-0.811l2.062-6.067h0.945l2.07,6.067h-0.838l-0.648-1.908H332.011z
			 M334.001,315.155l-0.596-1.747c-0.135-0.396-0.225-0.756-0.314-1.107h-0.018c-0.09,0.36-0.189,0.729-0.307,1.099l-0.594,1.756
			H334.001z"/>
		<path fill="#FFFFFF" d="M337.167,311.608h0.783v5.41h2.594v0.657h-3.377V311.608z"/>
		<path fill="#FFFFFF" d="M342.046,311.608h0.783v5.41h2.592v0.657h-3.375V311.608z"/>
		<path fill="#FFFFFF" d="M350.065,314.831h-2.359v2.188h2.629v0.657h-3.412v-6.067h3.277v0.657h-2.494v1.917h2.359V314.831z"/>
		<path fill="#FFFFFF" d="M351.981,311.689c0.395-0.081,0.963-0.127,1.502-0.127c0.838,0,1.379,0.153,1.756,0.496
			c0.307,0.27,0.479,0.684,0.479,1.152c0,0.801-0.506,1.332-1.145,1.548v0.027c0.469,0.162,0.748,0.594,0.893,1.225
			c0.197,0.846,0.342,1.431,0.467,1.665h-0.811c-0.098-0.171-0.232-0.693-0.404-1.449c-0.18-0.838-0.504-1.152-1.215-1.18h-0.738
			v2.629h-0.783V311.689z M352.765,314.453h0.801c0.838,0,1.369-0.459,1.369-1.152c0-0.783-0.568-1.126-1.396-1.135
			c-0.377,0-0.648,0.036-0.773,0.072V314.453z"/>
		<path fill="#FFFFFF" d="M358.235,311.608v6.067h-0.783v-6.067H358.235z"/>
		<path fill="#FFFFFF" d="M360.233,317.676v-6.067h0.855l1.945,3.069c0.449,0.711,0.801,1.351,1.088,1.972l0.02-0.009
			c-0.072-0.811-0.09-1.549-0.09-2.494v-2.538h0.738v6.067h-0.793l-1.928-3.079c-0.422-0.675-0.828-1.368-1.133-2.025l-0.027,0.009
			c0.045,0.766,0.062,1.494,0.062,2.503v2.593H360.233z"/>
		<path fill="#FFFFFF" d="M367.767,315.768l-0.629,1.908h-0.811l2.061-6.067h0.945l2.072,6.067h-0.838l-0.648-1.908H367.767z
			 M369.757,315.155l-0.594-1.747c-0.135-0.396-0.225-0.756-0.316-1.107h-0.018c-0.09,0.36-0.189,0.729-0.305,1.099l-0.596,1.756
			H369.757z"/>
	</g>
	<g>
		<path fill="#FFFFFF" d="M333.118,327.521c0.35,0.216,0.863,0.396,1.404,0.396c0.801,0,1.27-0.423,1.27-1.035
			c0-0.567-0.324-0.891-1.145-1.206c-0.99-0.352-1.602-0.864-1.602-1.72c0-0.945,0.783-1.647,1.963-1.647
			c0.621,0,1.07,0.145,1.34,0.297l-0.215,0.64c-0.199-0.108-0.604-0.288-1.152-0.288c-0.828,0-1.145,0.495-1.145,0.909
			c0,0.567,0.369,0.847,1.207,1.17c1.025,0.396,1.549,0.892,1.549,1.783c0,0.937-0.693,1.746-2.125,1.746
			c-0.586,0-1.225-0.171-1.549-0.387L333.118,327.521z"/>
		<path fill="#FFFFFF" d="M341.435,325.631h-2.359v2.188h2.629v0.657h-3.412v-6.067h3.277v0.657h-2.494v1.917h2.359V325.631z"/>
		<path fill="#FFFFFF" d="M343.351,322.489c0.396-0.081,0.963-0.127,1.504-0.127c0.836,0,1.377,0.153,1.756,0.495
			c0.305,0.271,0.477,0.685,0.477,1.152c0,0.802-0.504,1.333-1.145,1.549v0.027c0.469,0.162,0.748,0.594,0.893,1.225
			c0.197,0.846,0.342,1.431,0.467,1.665h-0.809c-0.1-0.171-0.234-0.693-0.406-1.449c-0.18-0.838-0.504-1.152-1.215-1.18h-0.738
			v2.629h-0.783V322.489z M344.134,325.253h0.801c0.838,0,1.369-0.459,1.369-1.152c0-0.783-0.568-1.126-1.396-1.135
			c-0.377,0-0.648,0.036-0.773,0.072V325.253z"/>
		<path fill="#FFFFFF" d="M350.065,328.476l-1.98-6.067h0.846l0.945,2.988c0.26,0.819,0.486,1.558,0.648,2.269h0.018
			c0.17-0.702,0.424-1.467,0.693-2.26l1.025-2.997h0.838l-2.17,6.067H350.065z"/>
		<path fill="#FFFFFF" d="M357.526,325.631h-2.359v2.188h2.629v0.657h-3.412v-6.067h3.277v0.657h-2.494v1.917h2.359V325.631z"/>
		<path fill="#FFFFFF" d="M359.442,322.489c0.396-0.081,0.963-0.127,1.504-0.127c0.836,0,1.377,0.153,1.756,0.495
			c0.305,0.271,0.477,0.685,0.477,1.152c0,0.802-0.504,1.333-1.145,1.549v0.027c0.469,0.162,0.748,0.594,0.893,1.225
			c0.197,0.846,0.342,1.431,0.467,1.665h-0.809c-0.1-0.171-0.234-0.693-0.406-1.449c-0.18-0.838-0.504-1.152-1.215-1.18h-0.738
			v2.629h-0.783V322.489z M360.226,325.253h0.801c0.838,0,1.369-0.459,1.369-1.152c0-0.783-0.568-1.126-1.396-1.135
			c-0.377,0-0.648,0.036-0.773,0.072V325.253z"/>
	</g>
	<path fill="#585A5E" d="M63.716,336.206c-0.485,0-0.943-0.215-1.253-0.604l-4.716-5.862c-0.309-0.39-0.431-0.889-0.309-1.374
		l1.684-7.316c0.108-0.485,0.431-0.876,0.875-1.092l6.818-3.261c0.215-0.107,0.458-0.161,0.701-0.161c0.242,0,0.485,0.054,0.7,0.161
		l6.818,3.247c0.445,0.216,0.768,0.607,0.876,1.092l1.684,7.317c0.108,0.483,0,0.982-0.31,1.374l-4.716,5.86
		c-0.31,0.377-0.768,0.606-1.253,0.606L63.716,336.206z"/>
	<path fill="#FFFFFF" d="M74.333,327.853L74.333,327.853C74.32,327.853,74.32,327.853,74.333,327.853H74.32
		c-0.014,0-0.027,0-0.027-0.014c-0.027,0-0.054-0.013-0.081-0.013c-0.094-0.014-0.175-0.027-0.256-0.027
		c-0.04,0-0.081,0-0.134-0.014h-0.014c-0.283-0.026-0.512-0.054-0.728-0.121c-0.094-0.04-0.121-0.093-0.148-0.148
		c0-0.013-0.013-0.013-0.013-0.025l-0.176-0.055c0.081-0.619,0.055-1.267-0.094-1.9c-0.148-0.632-0.404-1.226-0.754-1.765
		l0.135-0.12v-0.028c0-0.067,0.013-0.134,0.067-0.202c0.162-0.148,0.364-0.269,0.606-0.418c0.04-0.026,0.081-0.04,0.121-0.067
		c0.081-0.04,0.148-0.08,0.229-0.135c0.014-0.013,0.041-0.026,0.068-0.054c0.013-0.013,0.027-0.013,0.027-0.026
		c0.188-0.162,0.229-0.432,0.094-0.605c-0.067-0.096-0.189-0.149-0.31-0.149c-0.108,0-0.202,0.04-0.297,0.108
		c-0.013,0.013-0.013,0.013-0.026,0.026c-0.027,0.015-0.041,0.04-0.068,0.055c-0.067,0.066-0.121,0.121-0.175,0.188
		c-0.027,0.027-0.054,0.067-0.094,0.095c-0.189,0.202-0.364,0.363-0.539,0.485c-0.04,0.027-0.081,0.04-0.121,0.04
		c-0.027,0-0.054,0-0.081-0.013h-0.027l-0.162,0.107c-0.175-0.189-0.364-0.351-0.552-0.513c-0.809-0.633-1.792-1.023-2.816-1.118
		l-0.014-0.175c-0.013-0.013-0.013-0.013-0.027-0.027c-0.04-0.04-0.094-0.081-0.108-0.175c-0.013-0.216,0.014-0.458,0.041-0.727
		v-0.015c0-0.04,0.014-0.095,0.027-0.135c0.013-0.081,0.027-0.162,0.04-0.256v-0.081v-0.04c0-0.243-0.188-0.445-0.417-0.445
		c-0.108,0-0.216,0.056-0.297,0.136c-0.081,0.081-0.121,0.188-0.121,0.31v0.027v0.081c0,0.094,0.014,0.174,0.04,0.255
		c0.014,0.041,0.014,0.082,0.027,0.135v0.014c0.028,0.27,0.068,0.513,0.041,0.728c-0.013,0.095-0.068,0.135-0.108,0.175
		c-0.013,0.014-0.013,0.014-0.027,0.028l-0.013,0.174c-0.243,0.027-0.485,0.055-0.728,0.108c-1.037,0.229-1.954,0.755-2.668,1.51
		l-0.134-0.096H63.5c-0.027,0-0.054,0.015-0.081,0.015c-0.041,0-0.081-0.015-0.121-0.04c-0.176-0.122-0.351-0.297-0.539-0.5
		c-0.027-0.026-0.054-0.067-0.095-0.093c-0.053-0.068-0.108-0.121-0.175-0.189c-0.013-0.013-0.041-0.027-0.067-0.054
		c-0.014-0.014-0.027-0.014-0.027-0.027c-0.081-0.067-0.189-0.108-0.297-0.108c-0.121,0-0.242,0.055-0.31,0.148
		c-0.134,0.176-0.094,0.445,0.095,0.607c0.013,0,0.013,0.013,0.027,0.013c0.027,0.014,0.04,0.04,0.067,0.054
		c0.081,0.054,0.148,0.095,0.229,0.135c0.041,0.015,0.081,0.04,0.121,0.067c0.243,0.149,0.445,0.27,0.607,0.418
		c0.067,0.068,0.067,0.135,0.067,0.202v0.027l0.135,0.12c-0.027,0.041-0.054,0.067-0.067,0.108c-0.674,1.065-0.93,2.318-0.755,3.557
		l-0.175,0.055c0,0.013-0.014,0.013-0.014,0.026c-0.027,0.055-0.067,0.107-0.148,0.148c-0.202,0.068-0.445,0.094-0.727,0.121h-0.014
		c-0.04,0-0.094,0-0.135,0.014c-0.08,0-0.161,0.014-0.256,0.026c-0.026,0-0.054,0.014-0.081,0.014c-0.013,0-0.026,0-0.04,0.014
		c-0.242,0.055-0.391,0.283-0.35,0.498c0.04,0.189,0.216,0.311,0.431,0.311c0.04,0,0.067,0,0.108-0.013c0.013,0,0.027,0,0.027-0.015
		c0.027,0,0.053-0.014,0.081-0.014c0.094-0.026,0.161-0.053,0.242-0.093c0.04-0.015,0.081-0.041,0.121-0.055h0.014
		c0.256-0.095,0.485-0.176,0.7-0.202h0.027c0.081,0,0.135,0.04,0.176,0.067c0.013,0,0.013,0.013,0.026,0.013l0.189-0.026
		c0.324,0.998,0.943,1.886,1.765,2.534c0.189,0.146,0.377,0.269,0.58,0.39l-0.081,0.175c0,0.014,0.013,0.014,0.013,0.027
		c0.027,0.054,0.054,0.122,0.027,0.215c-0.081,0.202-0.202,0.405-0.35,0.634v0.014c-0.027,0.04-0.054,0.067-0.081,0.107
		c-0.054,0.068-0.094,0.135-0.149,0.216c-0.013,0.015-0.026,0.04-0.04,0.067c0,0.014-0.013,0.026-0.013,0.026
		c-0.108,0.229-0.027,0.485,0.175,0.58c0.054,0.026,0.108,0.04,0.162,0.04c0.161,0,0.323-0.107,0.404-0.256
		c0-0.014,0.013-0.026,0.013-0.026c0.014-0.027,0.027-0.055,0.041-0.068c0.04-0.093,0.053-0.161,0.081-0.242
		c0.013-0.04,0.027-0.081,0.04-0.121c0.094-0.27,0.162-0.484,0.283-0.674c0.054-0.081,0.121-0.095,0.175-0.121
		c0.013,0,0.013,0,0.027-0.014l0.094-0.174c0.593,0.228,1.24,0.349,1.887,0.349c0.39,0,0.795-0.04,1.172-0.135
		c0.242-0.054,0.472-0.121,0.701-0.202l0.08,0.148c0.014,0,0.014,0,0.027,0.014c0.067,0.014,0.122,0.04,0.175,0.122
		c0.108,0.188,0.189,0.417,0.284,0.673v0.014c0.013,0.04,0.026,0.081,0.04,0.121c0.027,0.081,0.04,0.162,0.081,0.242
		c0.013,0.028,0.026,0.041,0.04,0.068c0,0.013,0.013,0.026,0.013,0.026c0.081,0.161,0.243,0.256,0.405,0.256
		c0.054,0,0.108-0.014,0.161-0.04c0.095-0.055,0.176-0.135,0.202-0.242c0.027-0.108,0.027-0.229-0.026-0.338
		c0-0.013-0.014-0.013-0.014-0.026c-0.013-0.027-0.027-0.053-0.04-0.067c-0.041-0.081-0.095-0.147-0.149-0.216
		c-0.026-0.04-0.053-0.067-0.08-0.107v-0.014c-0.149-0.229-0.283-0.432-0.351-0.634c-0.027-0.093,0-0.147,0.014-0.215
		c0-0.014,0.013-0.014,0.013-0.027l-0.067-0.161c0.714-0.418,1.321-1.011,1.779-1.737c0.242-0.379,0.431-0.796,0.565-1.214
		l0.162,0.027c0.013,0,0.013-0.014,0.027-0.014c0.054-0.027,0.094-0.067,0.175-0.067h0.027c0.215,0.026,0.444,0.108,0.701,0.202
		H73.7c0.04,0.014,0.081,0.04,0.122,0.054c0.08,0.04,0.147,0.067,0.242,0.096c0.027,0,0.054,0.012,0.081,0.012
		c0.013,0,0.027,0,0.04,0.014c0.04,0.015,0.068,0.015,0.108,0.015c0.202,0,0.377-0.136,0.431-0.311
		C74.724,328.136,74.576,327.92,74.333,327.853 M68.095,327.193l-0.593,0.282l-0.593-0.282l-0.148-0.634l0.404-0.513h0.66
		l0.405,0.513L68.095,327.193z M71.612,325.791c0.107,0.458,0.134,0.917,0.094,1.362l-2.061-0.594
		c-0.189-0.054-0.297-0.242-0.257-0.432c0.014-0.053,0.041-0.107,0.081-0.147l1.631-1.469
		C71.329,324.889,71.503,325.32,71.612,325.791 M70.453,323.703l-1.765,1.253c-0.148,0.095-0.35,0.067-0.471-0.081
		c-0.041-0.04-0.055-0.093-0.068-0.148l-0.121-2.195C68.957,322.639,69.806,323.057,70.453,323.703 M66.545,322.598
		c0.148-0.025,0.282-0.054,0.431-0.08l-0.121,2.155c-0.014,0.189-0.162,0.351-0.364,0.351c-0.054,0-0.122-0.014-0.162-0.039
		l-1.792-1.281C65.091,323.151,65.778,322.773,66.545,322.598 M63.891,324.512l1.604,1.428c0.148,0.121,0.161,0.351,0.04,0.499
		c-0.04,0.054-0.094,0.095-0.162,0.107l-2.088,0.607C63.204,326.237,63.406,325.307,63.891,324.512 M63.528,328.163l2.142-0.364
		c0.175-0.014,0.337,0.108,0.377,0.283c0.014,0.081,0.014,0.148-0.014,0.216l-0.821,1.981
		C64.457,329.793,63.851,329.052,63.528,328.163 M68.446,330.844c-0.311,0.067-0.621,0.108-0.944,0.108
		c-0.471,0-0.929-0.081-1.361-0.215l1.065-1.928c0.108-0.121,0.283-0.175,0.431-0.095c0.067,0.041,0.121,0.095,0.162,0.149
		l1.037,1.873C68.714,330.777,68.58,330.804,68.446,330.844 M71.073,328.971c-0.337,0.539-0.782,0.972-1.293,1.309l-0.85-2.036
		c-0.04-0.161,0.027-0.336,0.189-0.417c0.054-0.027,0.121-0.041,0.189-0.041l2.156,0.365
		C71.383,328.446,71.248,328.715,71.073,328.971"/>
	<rect x="187.452" y="0.927" fill="#FFFFFF" width="68.196" height="20.478"/>
	
		<rect x="187.452" y="0.927" fill="none" stroke="#A7A8AB" stroke-width="0.5" stroke-miterlimit="10" width="68.196" height="20.478"/>
	<g>
		<path fill="#585A5E" d="M206.567,13.599c-0.32,0.16-0.959,0.319-1.779,0.319c-1.899,0-3.328-1.199-3.328-3.408
			c0-2.108,1.429-3.538,3.518-3.538c0.839,0,1.369,0.181,1.599,0.3l-0.21,0.71c-0.33-0.16-0.799-0.279-1.359-0.279
			c-1.579,0-2.628,1.009-2.628,2.778c0,1.648,0.95,2.708,2.588,2.708c0.53,0,1.07-0.109,1.419-0.279L206.567,13.599z"/>
		<path fill="#585A5E" d="M208.36,7.082h0.869v6.007h2.878v0.729h-3.748V7.082z"/>
		<path fill="#585A5E" d="M214.649,7.082v6.736h-0.869V7.082H214.649z"/>
		<path fill="#585A5E" d="M220.357,10.66h-2.619v2.429h2.918v0.729h-3.788V7.082h3.638v0.729h-2.769V9.94h2.619V10.66z"/>
		<path fill="#585A5E" d="M222.489,13.818V7.082h0.949l2.159,3.408c0.5,0.789,0.89,1.499,1.209,2.188l0.02-0.01
			c-0.08-0.899-0.1-1.719-0.1-2.769V7.082h0.82v6.736h-0.879l-2.139-3.418c-0.47-0.75-0.919-1.52-1.259-2.249l-0.03,0.01
			c0.05,0.85,0.07,1.659,0.07,2.778v2.879H222.489z"/>
		<path fill="#585A5E" d="M231.05,7.821H229V7.082h4.987v0.739h-2.059v5.997h-0.879V7.821z"/>
		<path fill="#585A5E" d="M235.28,12.759c0.389,0.24,0.959,0.439,1.559,0.439c0.889,0,1.408-0.47,1.408-1.148
			c0-0.63-0.359-0.99-1.268-1.34c-1.1-0.39-1.779-0.959-1.779-1.909c0-1.049,0.869-1.829,2.178-1.829c0.689,0,1.189,0.16,1.49,0.33
			l-0.24,0.71c-0.221-0.12-0.67-0.32-1.279-0.32c-0.92,0-1.27,0.55-1.27,1.01c0,0.63,0.41,0.939,1.34,1.299
			c1.139,0.44,1.719,0.99,1.719,1.979c0,1.039-0.77,1.938-2.359,1.938c-0.648,0-1.359-0.189-1.719-0.43L235.28,12.759z"/>
	</g>
	<line fill="none" stroke="#585A5E" stroke-miterlimit="10" x1="221.549" y1="80.283" x2="221.549" y2="21.404"/>
	<polygon fill="#585A5E" points="224.542,79.408 221.549,84.591 218.559,79.408 	"/>
	<path fill-rule="evenodd" clip-rule="evenodd" fill="#585A5E" d="M114.329,324.036c-0.576-0.386-1.9-0.526-2.92-0.334
		c-0.131-0.96-0.666-1.793-1.639-2.545l-0.56-0.373l-0.373,0.56c-0.478,0.721-0.717,1.72-0.638,2.677
		c0.035,0.337,0.146,0.94,0.492,1.47c-0.346,0.187-1.031,0.442-1.933,0.425H89.4l-0.034,0.2c-0.163,0.962-0.16,3.965,1.79,6.273
		c1.482,1.754,3.704,2.644,6.604,2.644c6.286,0,10.938-2.894,13.115-8.153c0.857,0.017,2.701,0.005,3.648-1.806
		c0.025-0.042,0.082-0.149,0.247-0.493l0.091-0.188L114.329,324.036z M100.64,319.678h2.639v-2.399h-2.639V319.678z M100.64,322.557
		h2.639v-2.399h-2.639V322.557z M97.521,322.557h2.639v-2.399h-2.639V322.557z M94.401,322.557h2.639v-2.399h-2.639V322.557z
		 M91.283,325.436h2.639v-2.399h-2.639V325.436z M94.401,325.436h2.639v-2.399h-2.639V325.436z M97.521,325.436h2.639v-2.399h-2.639
		V325.436z M100.64,325.436h2.639v-2.399h-2.639V325.436z M103.759,325.436h2.639v-2.399h-2.639V325.436z"/>
	<path fill="#585A5E" d="M130.613,328.857c0,0,0.397-1.506-1.329-3.447l-0.058-0.062c-0.727-0.862-1.129-1.956-1.129-3.081
		c0-2.639,2.151-4.788,4.794-4.788h0.112c2.643,0,4.794,2.149,4.794,4.788c0,1.125-0.402,2.219-1.128,3.08
		c-0.009,0.01-0.029,0.031-0.058,0.061c-1.532,1.534-1.33,3.449-1.33,3.449c2.8-0.965,4.691-3.598,4.707-6.551
		c0.021-3.691-2.96-6.84-6.643-7.016c-0.045-0.002-0.091-0.003-0.136-0.003c-0.056,0-0.263,0.004-0.262,0.004
		c-0.006,0-0.206-0.004-0.261-0.004c-0.046,0-0.092,0.001-0.136,0.003c-3.685,0.176-6.664,3.324-6.645,7.016
		C125.922,325.26,127.812,327.893,130.613,328.857"/>
	<path fill="#585A5E" d="M139.66,334.413c0.121-0.051,0.263-0.092,0.419-0.122c0.145-0.031,0.308-0.053,0.485-0.059
		c0,0-0.008-0.054-0.018-0.135c-0.005-0.08-0.043-0.188-0.079-0.292c-0.019-0.053-0.037-0.104-0.055-0.152
		c-0.021-0.048-0.049-0.092-0.068-0.13c-0.041-0.074-0.069-0.124-0.069-0.124c-0.175-0.028-0.34-0.067-0.5-0.113
		c-0.163-0.046-0.316-0.099-0.451-0.155c-0.256-0.112-0.496-0.238-0.623-0.379c-0.153-0.134-0.182-0.268-0.177-0.39
		c0.009-0.059,0.036-0.117,0.083-0.171c0.043-0.052,0.1-0.1,0.182-0.141c0,0-0.062-0.034-0.151-0.086
		c-0.046-0.024-0.096-0.054-0.155-0.084c-0.061-0.029-0.126-0.061-0.19-0.091c-0.127-0.061-0.254-0.121-0.361-0.161
		c-0.101-0.041-0.168-0.068-0.168-0.068c-0.124,0.017-0.258,0.025-0.394,0.027c-0.141,0.004-0.284-0.001-0.424-0.012
		c-0.274-0.022-0.554-0.061-0.795-0.133c-0.125-0.032-0.231-0.07-0.324-0.112c-0.093-0.041-0.176-0.082-0.242-0.128
		c-0.127-0.093-0.214-0.186-0.213-0.281c0,0-0.077-0.013-0.192-0.031c-0.12-0.02-0.374-0.054-0.536-0.075
		c-0.003,0.028-0.02,0.053-0.026,0.098l-0.041,0.197c-0.084,0.395,0.145,0.795,0.533,0.907c0.949,0.276,1.667,0.732,1.874,1.292
		c0.419,1.129-1.341,2.234-4.017,2.234c-2.678,0-4.439-1.105-4.021-2.234c0.203-0.545,0.893-0.993,1.808-1.271
		c0.405-0.123,0.645-0.54,0.558-0.954l-0.056-0.269c-0.107,0.013-0.231,0.029-0.358,0.044c-0.159,0.018-0.31,0.046-0.426,0.064
		c-0.117,0.019-0.195,0.032-0.195,0.032c0.008,0.092-0.057,0.195-0.182,0.284c-0.066,0.045-0.138,0.092-0.227,0.134
		c-0.089,0.043-0.198,0.079-0.312,0.117c-0.119,0.037-0.25,0.065-0.382,0.088c-0.131,0.025-0.27,0.044-0.412,0.057
		c-0.285,0.021-0.57,0.027-0.829-0.005c0,0-0.017,0.008-0.046,0.019c-0.029,0.013-0.075,0.03-0.121,0.052
		c-0.094,0.045-0.222,0.107-0.351,0.168c-0.127,0.064-0.24,0.132-0.332,0.184c-0.046,0.024-0.085,0.047-0.111,0.061
		c-0.024,0.017-0.038,0.026-0.038,0.026c0.179,0.083,0.279,0.194,0.298,0.314c0.045,0.126-0.016,0.257-0.133,0.399
		c-0.067,0.073-0.158,0.141-0.251,0.207c-0.099,0.067-0.222,0.131-0.359,0.191c-0.258,0.122-0.592,0.229-0.951,0.294
		c0,0-0.031,0.052-0.054,0.127c-0.028,0.077-0.064,0.182-0.101,0.288c-0.016,0.105-0.031,0.215-0.042,0.298
		c-0.016,0.084-0.008,0.138-0.008,0.138c0.37,0.004,0.7,0.066,0.946,0.165c0.286,0.095,0.459,0.236,0.593,0.41
		c0.105,0.186,0.147,0.382,0.054,0.607c-0.066,0.22-0.246,0.465-0.539,0.688c0,0,0.017,0.014,0.045,0.039
		c0.032,0.022,0.079,0.056,0.136,0.096c0.116,0.08,0.262,0.194,0.435,0.296c0.181,0.1,0.366,0.2,0.506,0.278
		c0.069,0.039,0.139,0.062,0.183,0.083c0.046,0.021,0.072,0.032,0.072,0.032c0.414-0.178,0.857-0.269,1.301-0.315
		c0.222-0.023,0.44-0.029,0.648-0.015c0.212,0.01,0.427,0.026,0.63,0.074c0.2,0.054,0.395,0.103,0.566,0.18
		c0.174,0.074,0.328,0.173,0.475,0.268c0.292,0.199,0.516,0.481,0.614,0.776c0,0,0.15,0.007,0.376,0.016
		c0.226,0.006,0.528,0.026,0.829,0.011c0.301-0.01,0.603-0.015,0.826-0.029c0.221-0.022,0.368-0.036,0.368-0.036
		c0.032-0.154,0.1-0.299,0.194-0.432c0.046-0.064,0.099-0.126,0.158-0.184c0.057-0.059,0.116-0.12,0.182-0.174
		c0.131-0.107,0.281-0.2,0.45-0.274c0.164-0.077,0.34-0.148,0.543-0.194c0.207-0.041,0.401-0.082,0.612-0.098
		c0.208-0.017,0.435-0.007,0.645,0.002c0.428,0.023,0.905,0.122,1.318,0.278c0,0,0.092-0.051,0.228-0.127
		c0.131-0.078,0.32-0.171,0.464-0.286c0.148-0.109,0.303-0.213,0.397-0.299c0.092-0.086,0.151-0.142,0.151-0.142
		c-0.308-0.213-0.484-0.44-0.598-0.664c-0.052-0.109-0.067-0.211-0.07-0.312c-0.008-0.101,0.014-0.196,0.07-0.284
		C139.222,334.651,139.426,334.519,139.66,334.413"/>
	<path fill="#585A5E" d="M129.397,322.282c-0.008,0.88,0.418,1.675,1.106,2.236c0.853,0.694,1.551,2.097,1.592,3.629
		c0.045,1.701-0.071,3.669-0.142,4.671c-0.91,0.129-1.551,0.435-1.551,0.788c0,0.472,1.134,1.017,2.531,1.017
		c1.399,0,2.531-0.545,2.531-1.017c0-0.354-0.638-0.659-1.55-0.788c-0.072-1.002-0.187-2.97-0.143-4.671
		c0.043-1.532,0.739-2.935,1.592-3.629c0.688-0.562,1.115-1.356,1.106-2.236c-0.014-1.677-1.597-3.024-3.536-3.024
		C130.995,319.258,129.411,320.605,129.397,322.282"/>
	<g>
		<defs>
			<path id="SVGID_1_" d="M129.396,322.282c-0.007,0.88,0.418,1.675,1.107,2.237c0.852,0.693,1.551,2.096,1.591,3.628
				c0.045,1.701-0.071,3.669-0.142,4.671c-0.91,0.129-1.551,0.434-1.551,0.788c0,0.472,1.134,1.017,2.531,1.017
				c1.399,0,2.532-0.545,2.532-1.017c0-0.354-0.639-0.659-1.551-0.788c-0.071-1.002-0.187-2.97-0.143-4.671
				c0.043-1.532,0.74-2.935,1.592-3.628c0.689-0.562,1.115-1.357,1.106-2.237c-0.014-1.676-1.597-3.025-3.536-3.025
				S129.41,320.606,129.396,322.282"/>
		</defs>
		<clipPath id="SVGID_2_">
			<use xlink:href="#SVGID_1_"  overflow="visible"/>
		</clipPath>
		
			<rect x="124.825" y="322.344" transform="matrix(0.1414 -0.99 0.99 0.1414 -209.5181 412.3097)" clip-path="url(#SVGID_2_)" fill="#585A5E" width="16.217" height="9.192"/>
	</g>
	<g>
		<path fill="#585A5E" d="M192.407,300.972c0,2.089-1.269,3.195-2.818,3.195c-1.603,0-2.728-1.242-2.728-3.078
			c0-1.927,1.197-3.188,2.818-3.188C191.336,297.901,192.407,299.171,192.407,300.972z M187.699,301.07
			c0,1.297,0.703,2.458,1.936,2.458c1.243,0,1.945-1.144,1.945-2.521c0-1.207-0.63-2.467-1.936-2.467
			C188.347,298.541,187.699,299.738,187.699,301.07z"/>
		<path fill="#585A5E" d="M194.043,298.082c0.396-0.081,0.963-0.127,1.503-0.127c0.837,0,1.377,0.153,1.756,0.496
			c0.306,0.27,0.477,0.684,0.477,1.152c0,0.801-0.504,1.332-1.144,1.548v0.027c0.468,0.162,0.748,0.594,0.892,1.225
			c0.198,0.846,0.342,1.431,0.468,1.665h-0.81c-0.099-0.171-0.234-0.693-0.405-1.449c-0.18-0.838-0.504-1.152-1.215-1.18h-0.738
			v2.629h-0.783V298.082z M194.827,300.846h0.801c0.837,0,1.369-0.459,1.369-1.152c0-0.783-0.567-1.126-1.396-1.135
			c-0.378,0-0.648,0.036-0.774,0.072V300.846z"/>
		<path fill="#585A5E" d="M203.756,303.87c-0.288,0.145-0.864,0.288-1.603,0.288c-1.71,0-2.998-1.08-2.998-3.069
			c0-1.9,1.287-3.188,3.169-3.188c0.756,0,1.233,0.162,1.44,0.271l-0.189,0.639c-0.297-0.144-0.72-0.252-1.225-0.252
			c-1.422,0-2.368,0.909-2.368,2.503c0,1.485,0.855,2.439,2.332,2.439c0.477,0,0.963-0.099,1.278-0.252L203.756,303.87z"/>
		<path fill="#585A5E" d="M206.148,298.001v2.538h2.935v-2.538h0.792v6.067h-0.792v-2.845h-2.935v2.845h-0.783v-6.067H206.148z"/>
		<path fill="#585A5E" d="M215.005,301.224h-2.359v2.188h2.629v0.657h-3.412v-6.067h3.277v0.657h-2.494v1.917h2.359V301.224z"/>
		<path fill="#585A5E" d="M216.813,303.114c0.351,0.216,0.864,0.396,1.404,0.396c0.801,0,1.27-0.423,1.27-1.035
			c0-0.566-0.324-0.891-1.144-1.206c-0.99-0.352-1.602-0.864-1.602-1.72c0-0.945,0.783-1.647,1.962-1.647
			c0.621,0,1.071,0.145,1.341,0.297l-0.216,0.64c-0.198-0.108-0.604-0.288-1.152-0.288c-0.829,0-1.144,0.495-1.144,0.909
			c0,0.567,0.369,0.847,1.207,1.17c1.026,0.396,1.548,0.892,1.548,1.783c0,0.936-0.693,1.746-2.125,1.746
			c-0.585,0-1.225-0.171-1.549-0.387L216.813,303.114z"/>
		<path fill="#585A5E" d="M223.042,298.667h-1.845v-0.666h4.492v0.666h-1.854v5.401h-0.792V298.667z"/>
		<path fill="#585A5E" d="M226.992,298.082c0.396-0.081,0.964-0.127,1.503-0.127c0.838,0,1.379,0.153,1.756,0.496
			c0.307,0.27,0.479,0.684,0.479,1.152c0,0.801-0.506,1.332-1.145,1.548v0.027c0.469,0.162,0.748,0.594,0.893,1.225
			c0.197,0.846,0.342,1.431,0.467,1.665h-0.811c-0.098-0.171-0.232-0.693-0.404-1.449c-0.18-0.838-0.504-1.152-1.216-1.18h-0.738
			v2.629h-0.783V298.082z M227.775,300.846h0.802c0.837,0,1.369-0.459,1.369-1.152c0-0.783-0.568-1.126-1.396-1.135
			c-0.378,0-0.648,0.036-0.774,0.072V300.846z"/>
		<path fill="#585A5E" d="M233.446,302.16l-0.631,1.908h-0.811l2.062-6.067h0.945l2.07,6.067h-0.838l-0.648-1.908H233.446z
			 M235.437,301.548l-0.596-1.747c-0.135-0.396-0.225-0.756-0.314-1.107h-0.018c-0.09,0.36-0.189,0.729-0.307,1.099l-0.594,1.756
			H235.437z"/>
		<path fill="#585A5E" d="M239.179,298.667h-1.846v-0.666h4.492v0.666h-1.854v5.401h-0.793V298.667z"/>
		<path fill="#585A5E" d="M248.026,300.972c0,2.089-1.268,3.195-2.816,3.195c-1.604,0-2.729-1.242-2.729-3.078
			c0-1.927,1.197-3.188,2.818-3.188C246.956,297.901,248.026,299.171,248.026,300.972z M243.319,301.07
			c0,1.297,0.701,2.458,1.936,2.458c1.242,0,1.943-1.144,1.943-2.521c0-1.207-0.629-2.467-1.936-2.467
			C243.968,298.541,243.319,299.738,243.319,301.07z"/>
		<path fill="#585A5E" d="M249.673,298.082c0.395-0.081,0.963-0.127,1.502-0.127c0.838,0,1.379,0.153,1.756,0.496
			c0.307,0.27,0.479,0.684,0.479,1.152c0,0.801-0.506,1.332-1.145,1.548v0.027c0.469,0.162,0.748,0.594,0.893,1.225
			c0.197,0.846,0.342,1.431,0.467,1.665h-0.811c-0.098-0.171-0.232-0.693-0.404-1.449c-0.18-0.838-0.504-1.152-1.215-1.18h-0.738
			v2.629h-0.783V298.082z M250.456,300.846h0.801c0.838,0,1.369-0.459,1.369-1.152c0-0.783-0.568-1.126-1.396-1.135
			c-0.377,0-0.648,0.036-0.773,0.072V300.846z"/>
	</g>
	<path fill="#585A5E" d="M186.36,336.206c-0.485,0-0.943-0.215-1.253-0.604l-4.716-5.862c-0.31-0.39-0.431-0.889-0.31-1.374
		l1.684-7.316c0.108-0.485,0.431-0.876,0.876-1.092l6.818-3.261c0.215-0.107,0.458-0.161,0.7-0.161c0.243,0,0.485,0.054,0.701,0.161
		l6.817,3.247c0.445,0.216,0.769,0.607,0.876,1.092l1.685,7.317c0.107,0.483,0,0.982-0.311,1.374l-4.715,5.86
		c-0.31,0.377-0.768,0.606-1.253,0.606L186.36,336.206z"/>
	<path fill="#FFFFFF" d="M196.977,327.853L196.977,327.853C196.963,327.853,196.963,327.853,196.977,327.853h-0.014
		c-0.014,0-0.027,0-0.027-0.014c-0.027,0-0.054-0.013-0.08-0.013c-0.095-0.014-0.176-0.027-0.257-0.027c-0.04,0-0.08,0-0.135-0.014
		h-0.013c-0.283-0.026-0.512-0.054-0.727-0.121c-0.095-0.04-0.122-0.093-0.149-0.148c0-0.013-0.013-0.013-0.013-0.025l-0.175-0.055
		c0.08-0.619,0.054-1.267-0.095-1.9c-0.148-0.632-0.404-1.226-0.755-1.765l0.135-0.12v-0.028c0-0.067,0.014-0.134,0.067-0.202
		c0.163-0.148,0.365-0.269,0.607-0.418c0.041-0.026,0.081-0.04,0.121-0.067c0.081-0.04,0.148-0.08,0.229-0.135
		c0.014-0.013,0.041-0.026,0.068-0.054c0.014-0.013,0.027-0.013,0.027-0.026c0.189-0.162,0.229-0.432,0.094-0.605
		c-0.067-0.096-0.189-0.149-0.31-0.149c-0.108,0-0.202,0.04-0.297,0.108c-0.013,0.013-0.013,0.013-0.026,0.026
		c-0.027,0.015-0.041,0.04-0.067,0.055c-0.068,0.066-0.121,0.121-0.176,0.188c-0.026,0.027-0.054,0.067-0.094,0.095
		c-0.188,0.202-0.364,0.363-0.539,0.485c-0.041,0.027-0.081,0.04-0.121,0.04c-0.027,0-0.054,0-0.081-0.013h-0.027l-0.161,0.107
		c-0.176-0.189-0.365-0.351-0.553-0.513c-0.809-0.633-1.792-1.023-2.816-1.118l-0.013-0.175l-0.028-0.027
		c-0.04-0.04-0.093-0.081-0.107-0.175c-0.014-0.216,0.014-0.458,0.04-0.727v-0.015c0-0.04,0.014-0.095,0.027-0.135
		c0.014-0.081,0.027-0.162,0.04-0.256v-0.081v-0.04c0-0.243-0.188-0.445-0.418-0.445c-0.107,0-0.214,0.056-0.296,0.136
		c-0.081,0.081-0.121,0.188-0.121,0.31v0.027v0.081c0,0.094,0.014,0.174,0.04,0.255c0.014,0.041,0.014,0.082,0.028,0.135v0.014
		c0.026,0.27,0.067,0.513,0.04,0.728c-0.014,0.095-0.068,0.135-0.108,0.175l-0.027,0.028l-0.014,0.174
		c-0.242,0.027-0.484,0.055-0.727,0.108c-1.037,0.229-1.953,0.755-2.667,1.51l-0.135-0.096h-0.027c-0.028,0-0.054,0.015-0.081,0.015
		c-0.04,0-0.081-0.015-0.121-0.04c-0.175-0.122-0.351-0.297-0.539-0.5c-0.027-0.026-0.054-0.067-0.094-0.093
		c-0.055-0.068-0.109-0.121-0.176-0.189c-0.014-0.013-0.04-0.027-0.067-0.054c-0.014-0.014-0.027-0.014-0.027-0.027
		c-0.081-0.067-0.189-0.108-0.297-0.108c-0.121,0-0.242,0.055-0.309,0.148c-0.135,0.176-0.095,0.445,0.094,0.607
		c0.013,0,0.013,0.013,0.027,0.013c0.027,0.014,0.04,0.04,0.067,0.054c0.081,0.054,0.149,0.095,0.229,0.135
		c0.041,0.015,0.081,0.04,0.122,0.067c0.242,0.149,0.444,0.27,0.605,0.418c0.068,0.068,0.068,0.135,0.068,0.202v0.027l0.134,0.12
		c-0.026,0.041-0.053,0.067-0.067,0.108c-0.673,1.065-0.93,2.318-0.754,3.557l-0.176,0.055c0,0.013-0.012,0.013-0.012,0.026
		c-0.028,0.055-0.068,0.107-0.149,0.148c-0.202,0.068-0.444,0.094-0.727,0.121h-0.014c-0.04,0-0.095,0-0.135,0.014
		c-0.081,0-0.161,0.014-0.256,0.026c-0.027,0-0.053,0.014-0.081,0.014c-0.013,0-0.026,0-0.04,0.014
		c-0.243,0.055-0.39,0.283-0.35,0.498c0.04,0.189,0.216,0.311,0.431,0.311c0.04,0,0.068,0,0.108-0.013c0.013,0,0.027,0,0.027-0.015
		c0.027,0,0.054-0.014,0.08-0.014c0.095-0.026,0.162-0.053,0.243-0.093c0.04-0.015,0.08-0.041,0.121-0.055h0.014
		c0.256-0.095,0.485-0.176,0.7-0.202h0.028c0.08,0,0.134,0.04,0.175,0.067c0.013,0,0.013,0.013,0.027,0.013l0.188-0.026
		c0.324,0.998,0.944,1.886,1.765,2.534c0.188,0.146,0.377,0.269,0.579,0.39l-0.08,0.175c0,0.014,0.013,0.014,0.013,0.027
		c0.027,0.054,0.054,0.122,0.027,0.215c-0.081,0.202-0.202,0.405-0.351,0.634v0.014c-0.026,0.04-0.053,0.067-0.08,0.107
		c-0.054,0.068-0.094,0.135-0.148,0.216c-0.014,0.015-0.027,0.04-0.041,0.067c0,0.014-0.013,0.026-0.013,0.026
		c-0.108,0.229-0.027,0.485,0.175,0.58c0.054,0.026,0.107,0.04,0.162,0.04c0.161,0,0.323-0.107,0.403-0.256
		c0-0.014,0.014-0.026,0.014-0.026c0.014-0.027,0.027-0.055,0.041-0.068c0.04-0.093,0.054-0.161,0.08-0.242
		c0.014-0.04,0.028-0.081,0.041-0.121c0.094-0.27,0.161-0.484,0.283-0.674c0.054-0.081,0.122-0.095,0.175-0.121
		c0.014,0,0.014,0,0.027-0.014l0.094-0.174c0.593,0.228,1.24,0.349,1.887,0.349c0.391,0,0.795-0.04,1.172-0.135
		c0.242-0.054,0.472-0.121,0.7-0.202l0.081,0.148c0.014,0,0.014,0,0.028,0.014c0.067,0.014,0.121,0.04,0.174,0.122
		c0.109,0.188,0.189,0.417,0.284,0.673v0.014c0.013,0.04,0.026,0.081,0.04,0.121c0.027,0.081,0.041,0.162,0.081,0.242
		c0.013,0.028,0.027,0.041,0.04,0.068c0,0.013,0.013,0.026,0.013,0.026c0.081,0.161,0.244,0.256,0.405,0.256
		c0.053,0,0.108-0.014,0.162-0.04c0.094-0.055,0.175-0.135,0.202-0.242c0.026-0.108,0.026-0.229-0.027-0.338
		c0-0.013-0.014-0.013-0.014-0.026c-0.014-0.027-0.026-0.053-0.04-0.067c-0.041-0.081-0.095-0.147-0.149-0.216
		c-0.026-0.04-0.053-0.067-0.081-0.107v-0.014c-0.147-0.229-0.282-0.432-0.349-0.634c-0.028-0.093,0-0.147,0.012-0.215
		c0-0.014,0.014-0.014,0.014-0.027l-0.067-0.161c0.714-0.418,1.32-1.011,1.778-1.737c0.243-0.379,0.432-0.796,0.566-1.214
		l0.162,0.027c0.013,0,0.013-0.014,0.027-0.014c0.054-0.027,0.095-0.067,0.175-0.067h0.027c0.216,0.026,0.444,0.108,0.7,0.202h0.014
		c0.041,0.014,0.081,0.04,0.121,0.054c0.081,0.04,0.148,0.067,0.243,0.096c0.027,0,0.054,0.012,0.081,0.012
		c0.013,0,0.027,0,0.04,0.014c0.04,0.015,0.068,0.015,0.108,0.015c0.202,0,0.378-0.136,0.431-0.311
		C197.367,328.136,197.219,327.92,196.977,327.853 M190.738,327.193l-0.592,0.282l-0.593-0.282l-0.149-0.634l0.405-0.513h0.66
		l0.404,0.513L190.738,327.193z M194.255,325.791c0.107,0.458,0.135,0.917,0.094,1.362l-2.062-0.594
		c-0.188-0.054-0.296-0.242-0.256-0.432c0.014-0.053,0.041-0.107,0.081-0.147l1.63-1.469
		C193.972,324.889,194.147,325.32,194.255,325.791 M193.096,323.703l-1.765,1.253c-0.148,0.095-0.35,0.067-0.471-0.081
		c-0.041-0.04-0.054-0.093-0.068-0.148l-0.121-2.195C191.601,322.639,192.449,323.057,193.096,323.703 M189.189,322.598
		c0.148-0.025,0.283-0.054,0.431-0.08l-0.122,2.155c-0.012,0.189-0.161,0.351-0.363,0.351c-0.054,0-0.121-0.014-0.162-0.039
		l-1.792-1.281C187.734,323.151,188.421,322.773,189.189,322.598 M186.534,324.512l1.604,1.428c0.148,0.121,0.161,0.351,0.04,0.499
		c-0.04,0.054-0.094,0.095-0.161,0.107l-2.089,0.607C185.847,326.237,186.049,325.307,186.534,324.512 M186.171,328.163l2.142-0.364
		c0.175-0.014,0.337,0.108,0.378,0.283c0.012,0.081,0.012,0.148-0.014,0.216l-0.822,1.981
		C187.101,329.793,186.494,329.052,186.171,328.163 M191.088,330.844c-0.31,0.067-0.619,0.108-0.942,0.108
		c-0.472,0-0.93-0.081-1.362-0.215l1.065-1.928c0.107-0.121,0.283-0.175,0.431-0.095c0.068,0.041,0.122,0.095,0.162,0.149
		l1.038,1.873C191.358,330.777,191.223,330.804,191.088,330.844 M193.716,328.971c-0.337,0.539-0.781,0.972-1.294,1.309
		l-0.849-2.036c-0.04-0.161,0.028-0.336,0.189-0.417c0.054-0.027,0.121-0.041,0.188-0.041l2.157,0.365
		C194.026,328.446,193.891,328.715,193.716,328.971"/>
	<path fill-rule="evenodd" clip-rule="evenodd" fill="#585A5E" d="M236.972,324.036c-0.576-0.386-1.9-0.526-2.918-0.334
		c-0.133-0.96-0.666-1.793-1.641-2.545l-0.559-0.373l-0.375,0.56c-0.477,0.721-0.715,1.72-0.637,2.677
		c0.035,0.337,0.145,0.94,0.492,1.47c-0.348,0.187-1.031,0.442-1.935,0.425h-17.356l-0.034,0.2c-0.164,0.962-0.16,3.965,1.79,6.273
		c1.481,1.754,3.704,2.644,6.603,2.644c6.287,0,10.939-2.894,13.117-8.153c0.855,0.017,2.699,0.005,3.646-1.806
		c0.025-0.042,0.082-0.149,0.248-0.493l0.09-0.188L236.972,324.036z M223.283,319.678h2.64v-2.399h-2.64V319.678z M223.283,322.557
		h2.64v-2.399h-2.64V322.557z M220.165,322.557h2.639v-2.399h-2.639V322.557z M217.045,322.557h2.639v-2.399h-2.639V322.557z
		 M213.927,325.436h2.639v-2.399h-2.639V325.436z M217.045,325.436h2.639v-2.399h-2.639V325.436z M220.165,325.436h2.639v-2.399
		h-2.639V325.436z M223.283,325.436h2.64v-2.399h-2.64V325.436z M226.402,325.436h2.64v-2.399h-2.64V325.436z"/>
	<path fill="#585A5E" d="M253.257,328.857c0,0,0.396-1.506-1.33-3.447l-0.057-0.062c-0.729-0.862-1.129-1.956-1.129-3.081
		c0-2.639,2.15-4.788,4.793-4.788h0.111c2.645,0,4.795,2.149,4.795,4.788c0,1.125-0.4,2.219-1.129,3.08
		c-0.008,0.01-0.027,0.031-0.057,0.061c-1.533,1.534-1.33,3.449-1.33,3.449c2.799-0.965,4.691-3.598,4.707-6.551
		c0.021-3.691-2.961-6.84-6.643-7.016c-0.045-0.002-0.092-0.003-0.137-0.003c-0.057,0-0.264,0.004-0.262,0.004
		c-0.006,0-0.207-0.004-0.262-0.004c-0.045,0-0.092,0.001-0.135,0.003c-3.686,0.176-6.666,3.324-6.646,7.016
		C248.565,325.26,250.456,327.893,253.257,328.857"/>
	<path fill="#585A5E" d="M262.304,334.413c0.121-0.051,0.262-0.092,0.418-0.122c0.146-0.031,0.311-0.053,0.486-0.059
		c0,0-0.008-0.054-0.02-0.135c-0.004-0.08-0.043-0.188-0.078-0.292c-0.02-0.053-0.037-0.104-0.055-0.152
		c-0.021-0.048-0.049-0.092-0.066-0.13c-0.041-0.074-0.07-0.124-0.07-0.124c-0.176-0.028-0.34-0.067-0.5-0.113
		c-0.164-0.046-0.316-0.099-0.451-0.155c-0.256-0.112-0.496-0.238-0.623-0.379c-0.154-0.134-0.182-0.268-0.178-0.39
		c0.01-0.059,0.037-0.117,0.084-0.171c0.043-0.052,0.1-0.1,0.182-0.141c0,0-0.062-0.034-0.15-0.086
		c-0.047-0.024-0.098-0.054-0.156-0.084c-0.061-0.029-0.125-0.061-0.189-0.091c-0.127-0.061-0.254-0.121-0.361-0.161
		c-0.102-0.041-0.168-0.068-0.168-0.068c-0.123,0.017-0.258,0.025-0.395,0.027c-0.141,0.004-0.283-0.001-0.424-0.012
		c-0.273-0.022-0.553-0.061-0.795-0.133c-0.125-0.032-0.23-0.07-0.324-0.112c-0.092-0.041-0.176-0.082-0.242-0.128
		c-0.127-0.093-0.213-0.186-0.213-0.281c0,0-0.076-0.013-0.191-0.031c-0.119-0.02-0.373-0.054-0.535-0.075
		c-0.002,0.028-0.02,0.053-0.025,0.098l-0.041,0.197c-0.084,0.395,0.145,0.795,0.531,0.907c0.949,0.276,1.668,0.732,1.875,1.292
		c0.418,1.129-1.342,2.234-4.018,2.234c-2.678,0-4.439-1.105-4.02-2.234c0.201-0.545,0.891-0.993,1.807-1.271
		c0.404-0.123,0.645-0.54,0.559-0.954l-0.057-0.269c-0.107,0.013-0.23,0.029-0.357,0.044c-0.16,0.018-0.311,0.046-0.426,0.064
		c-0.117,0.019-0.195,0.032-0.195,0.032c0.008,0.092-0.057,0.195-0.182,0.284c-0.066,0.045-0.139,0.092-0.229,0.134
		c-0.088,0.043-0.197,0.079-0.311,0.117c-0.119,0.037-0.25,0.065-0.383,0.088c-0.131,0.025-0.27,0.044-0.412,0.057
		c-0.285,0.021-0.57,0.027-0.828-0.005c0,0-0.018,0.008-0.047,0.019c-0.029,0.013-0.074,0.03-0.121,0.052
		c-0.094,0.045-0.223,0.107-0.352,0.168c-0.127,0.064-0.24,0.132-0.332,0.184c-0.045,0.024-0.084,0.047-0.109,0.061
		c-0.025,0.017-0.039,0.026-0.039,0.026c0.18,0.083,0.279,0.194,0.299,0.314c0.045,0.126-0.018,0.257-0.133,0.399
		c-0.068,0.073-0.158,0.141-0.252,0.207c-0.098,0.067-0.221,0.131-0.359,0.191c-0.258,0.122-0.592,0.229-0.951,0.294
		c0,0-0.031,0.052-0.055,0.127c-0.027,0.077-0.062,0.182-0.1,0.288c-0.016,0.105-0.031,0.215-0.043,0.298
		c-0.016,0.084-0.008,0.138-0.008,0.138c0.371,0.004,0.701,0.066,0.947,0.165c0.285,0.095,0.459,0.236,0.592,0.41
		c0.105,0.186,0.148,0.382,0.055,0.607c-0.066,0.22-0.244,0.465-0.537,0.688c0,0,0.016,0.014,0.043,0.039
		c0.033,0.022,0.08,0.056,0.137,0.096c0.115,0.08,0.262,0.194,0.434,0.296c0.182,0.1,0.367,0.2,0.506,0.278
		c0.07,0.039,0.141,0.062,0.184,0.083c0.047,0.021,0.072,0.032,0.072,0.032c0.414-0.178,0.857-0.269,1.301-0.315
		c0.223-0.023,0.439-0.029,0.648-0.015c0.211,0.01,0.428,0.026,0.629,0.074c0.201,0.054,0.396,0.103,0.566,0.18
		c0.174,0.074,0.328,0.173,0.475,0.268c0.293,0.199,0.518,0.481,0.615,0.776c0,0,0.15,0.007,0.375,0.016
		c0.227,0.006,0.529,0.026,0.83,0.011c0.301-0.01,0.604-0.015,0.826-0.029c0.221-0.022,0.367-0.036,0.367-0.036
		c0.033-0.154,0.1-0.299,0.195-0.432c0.047-0.064,0.098-0.126,0.156-0.184c0.059-0.059,0.117-0.12,0.184-0.174
		c0.131-0.107,0.279-0.2,0.449-0.274c0.164-0.077,0.34-0.148,0.543-0.194c0.207-0.041,0.4-0.082,0.611-0.098
		c0.209-0.017,0.436-0.007,0.646,0.002c0.428,0.023,0.904,0.122,1.316,0.278c0,0,0.092-0.051,0.229-0.127
		c0.131-0.078,0.32-0.171,0.465-0.286c0.146-0.109,0.303-0.213,0.396-0.299c0.092-0.086,0.15-0.142,0.15-0.142
		c-0.307-0.213-0.484-0.44-0.598-0.664c-0.053-0.109-0.066-0.211-0.07-0.312c-0.008-0.101,0.014-0.196,0.07-0.284
		C261.866,334.651,262.071,334.519,262.304,334.413"/>
	<path fill="#585A5E" d="M252.04,322.282c-0.008,0.88,0.418,1.675,1.107,2.236c0.852,0.694,1.551,2.097,1.592,3.629
		c0.045,1.701-0.072,3.669-0.143,4.671c-0.91,0.129-1.551,0.435-1.551,0.788c0,0.472,1.133,1.017,2.531,1.017
		s2.531-0.545,2.531-1.017c0-0.354-0.639-0.659-1.551-0.788c-0.072-1.002-0.188-2.97-0.143-4.671
		c0.043-1.532,0.738-2.935,1.592-3.629c0.688-0.562,1.115-1.356,1.107-2.236c-0.016-1.677-1.6-3.024-3.537-3.024
		C253.638,319.258,252.054,320.605,252.04,322.282"/>
	<g>
		<defs>
			<path id="SVGID_3_" d="M252.04,322.282c-0.008,0.88,0.418,1.675,1.107,2.237c0.852,0.693,1.551,2.096,1.592,3.628
				c0.045,1.701-0.072,3.669-0.143,4.671c-0.91,0.129-1.553,0.434-1.553,0.788c0,0.472,1.135,1.017,2.533,1.017
				s2.531-0.545,2.531-1.017c0-0.354-0.639-0.659-1.551-0.788c-0.072-1.002-0.188-2.97-0.143-4.671
				c0.043-1.532,0.738-2.935,1.592-3.628c0.689-0.562,1.115-1.357,1.107-2.237c-0.016-1.676-1.598-3.025-3.537-3.025
				S252.054,320.606,252.04,322.282"/>
		</defs>
		<clipPath id="SVGID_4_">
			<use xlink:href="#SVGID_3_"  overflow="visible"/>
		</clipPath>
		
			<rect x="247.469" y="322.345" transform="matrix(0.1414 -0.99 0.99 0.1414 -104.2157 533.7213)" clip-path="url(#SVGID_4_)" fill="#585A5E" width="16.217" height="9.19"/>
	</g>
	<path fill="#585A5E" d="M78.673,252.655v-19.372c3.341,7.069,6.669,14.113,10.046,21.258
		C85.338,253.906,82.046,253.288,78.673,252.655"/>
	<path fill="#585A5E" d="M77.108,252.657c-1.796,0.585-3.572,1.164-5.495,1.79c1.848-4.352,3.64-8.57,5.431-12.792
		c0.022,0.004,0.043,0.009,0.064,0.014V252.657z"/>
	<path fill="#585A5E" d="M88.013,255.758c-3.813,1.023-7.518,2.02-11.233,3.017c-1.497-0.995-2.975-1.977-4.54-3.017H88.013z"/>
	<path fill="#585A5E" d="M106.016,251.019c-0.006-0.804-0.036-1.606-0.002-2.407c0.008-0.202,0.172-0.456,0.342-0.579
		c0.382-0.277,0.812-0.487,1.222-0.723c0.41-0.238,0.82-0.475,1.321-0.764c-0.645-0.369-1.23-0.72-1.831-1.037
		c-0.092-0.05-0.275,0.014-0.387,0.077c-0.795,0.446-1.592,0.891-2.363,1.374c-0.157,0.099-0.279,0.357-0.295,0.554
		c-0.047,0.58-0.032,1.165-0.042,1.748c-0.526,0-1.051,0-1.576-0.001c-0.006-0.93-0.028-1.858-0.003-2.785
		c0.004-0.17,0.158-0.398,0.309-0.491c0.821-0.504,1.663-0.973,2.592-1.509c-0.649-0.374-1.231-0.722-1.83-1.039
		c-0.092-0.047-0.275,0.014-0.387,0.077c-0.793,0.444-1.587,0.892-2.36,1.371c-0.148,0.091-0.279,0.319-0.292,0.495
		c-0.043,0.562-0.026,1.129-0.032,1.692c-0.542-0.001-1.084-0.002-1.626-0.002v-2.957c0.546-0.336,1.093-0.671,1.639-1.007
		c0.409-0.216,0.817-0.433,1.312-0.696c-0.468-0.268-0.852-0.485-1.335-0.763v1.047c-0.539-0.001-1.077-0.003-1.616-0.005v-2.081
		c0.384-0.196,0.791-0.357,1.145-0.597c0.337-0.229,0.594-0.202,0.936-0.006c4.39,2.544,8.774,5.099,13.199,7.582
		c0.808,0.453,1.177,0.922,1.06,1.845c-0.084,0.663-0.028,1.344-0.035,2.017c-0.379,0-0.759,0.011-1.138-0.003
		c-0.279-0.011-0.386,0.098-0.385,0.379c0.003,0.541-0.022,1.083-0.036,1.624c-0.137-0.112-0.262-0.248-0.414-0.336
		c-1.707-0.99-3.418-1.974-5.129-2.957c-0.102-0.058-0.216-0.094-0.372-0.159c-0.02,0.379-0.037,0.699-0.053,1.021
		C107.041,251.018,106.528,251.019,106.016,251.019 M113.516,251.455c0-0.779,0.015-1.429-0.013-2.075
		c-0.006-0.118-0.162-0.267-0.285-0.34c-0.796-0.475-1.599-0.937-2.407-1.39c-0.111-0.062-0.294-0.119-0.386-0.07
		c-0.588,0.312-1.159,0.654-1.826,1.039C110.259,249.576,111.823,250.479,113.516,251.455"/>
	<path fill="#585A5E" d="M122.305,244.001v3.18c-0.537-0.003-1.073-0.003-1.609-0.006c-0.007-0.546-0.043-1.094-0.008-1.638
		c0.025-0.388-0.134-0.579-0.45-0.76c-4.438-2.545-8.869-5.1-13.301-7.653c-0.157-0.091-0.318-0.177-0.473-0.271
		c-0.299-0.186-0.321-0.38-0.008-0.575c0.323-0.2,0.647-0.398,0.972-0.596h0.328c0.832,0.485,1.658,0.984,2.504,1.446
		c0.151,0.083,0.427,0.084,0.579,0.001c0.845-0.462,1.67-0.962,2.502-1.447h0.329c0.308,0.188,0.615,0.381,0.926,0.565
		c0.358,0.214,0.368,0.421-0.002,0.633c-0.772,0.443-1.544,0.89-2.394,1.379c0.629,0.362,1.194,0.708,1.781,1.01
		c0.12,0.061,0.348-0.006,0.49-0.083c0.671-0.366,1.352-0.721,1.984-1.146c0.467-0.313,0.86-0.326,1.281,0.021
		c0.242,0.198,0.484,0.398,0.725,0.599c-0.239,0.182-0.466,0.387-0.721,0.542c-0.62,0.378-1.252,0.734-1.935,1.13
		c0.603,0.352,1.141,0.691,1.708,0.972c0.15,0.075,0.421,0.023,0.586-0.065c0.752-0.405,1.492-0.837,2.225-1.277
		c0.261-0.157,0.461-0.125,0.747-0.019c1.031,0.382,1.466,1.059,1.258,2.151c-0.05,0.265-0.018,0.546-0.024,0.818h-1.6v-1.263
		c-0.482,0.274-0.864,0.494-1.331,0.76c0.492,0.265,0.898,0.483,1.305,0.701C121.221,243.406,121.763,243.704,122.305,244.001"/>
	<path fill="#585A5E" d="M98.776,247.07c0.542,0,1.084,0.001,1.626,0.002c-0.001,1.131-0.001,2.264-0.002,3.395
		c-0.541,0-1.082,0-1.624-0.001V247.07z"/>
	<path fill="#585A5E" d="M98.776,250.465c0.542,0.001,1.083,0.001,1.624,0.002c0.001,0.619,0.003,1.238,0.005,1.857
		c-0.484,0.044-0.969,0.089-1.454,0.133c-0.058-0.043-0.116-0.087-0.175-0.131V250.465z"/>
	<path fill="#585A5E" d="M100.416,243.106c-0.546,0.336-1.093,0.671-1.64,1.007v-1.424c0.539,0.002,1.078,0.004,1.617,0.005
		C100.399,242.833,100.407,242.969,100.416,243.106"/>
	<path fill="#585A5E" d="M117.116,249.478c-0.01-0.62-0.047-1.239-0.019-1.856c0.019-0.385-0.126-0.581-0.447-0.766
		c-4.426-2.535-8.845-5.083-13.261-7.636c-0.272-0.157-0.503-0.386-0.753-0.581c0.248-0.196,0.499-0.389,0.742-0.59
		c0.431-0.356,0.809-0.273,1.281,0.001c4.52,2.629,9.054,5.234,13.592,7.829c0.345,0.199,0.485,0.408,0.469,0.809
		c-0.037,0.93-0.021,1.859-0.027,2.789C118.167,249.477,117.641,249.477,117.116,249.478"/>
	<path fill="#585A5E" d="M113.445,257.379c-0.825-0.45-1.66-0.885-2.47-1.359c-0.305-0.18-0.528-0.196-0.838-0.009
		c-0.823,0.498-1.671,0.955-2.508,1.429c0-0.623-0.001-1.247-0.001-1.871c0.399-0.228,0.797-0.455,1.276-0.729
		c-0.477-0.275-0.872-0.506-1.268-0.735c-0.002-0.625-0.004-1.251-0.005-1.876c1.946,1.112,3.893,2.226,5.839,3.339
		C113.462,256.171,113.453,256.775,113.445,257.379"/>
	<path fill="#585A5E" d="M107.63,252.228c0.002,0.625,0.004,1.251,0.006,1.876l-0.088,0.524c-0.509,0-1.02,0.001-1.53,0.001
		c0-1.204-0.001-2.407-0.002-3.611c0.512,0,1.025-0.001,1.537-0.001C107.579,251.42,107.605,251.824,107.63,252.228"/>
	<path fill="#585A5E" d="M120.696,247.175c0.536,0.002,1.073,0.003,1.609,0.005c0,1.097-0.001,2.191-0.002,3.287h-1.596
		C120.703,249.369,120.699,248.273,120.696,247.175"/>
	<path fill="#585A5E" d="M102.405,249.26c0.525,0.001,1.051,0.001,1.576,0.001c-0.001,1.022-0.003,2.045-0.005,3.067
		c-0.523,0.001-1.046,0.001-1.569,0.001C102.407,251.307,102.406,250.283,102.405,249.26"/>
	<path fill="#585A5E" d="M113.522,253.449c0.014-0.541,0.039-1.083,0.037-1.624c-0.002-0.281,0.106-0.39,0.384-0.379
		c0.379,0.014,0.759,0.003,1.139,0.003c-0.001,1.098-0.002,2.192-0.003,3.289c-0.511-0.001-1.02-0.001-1.531-0.001
		C113.54,254.308,113.531,253.88,113.522,253.449"/>
	<path fill="#585A5E" d="M117.116,249.478c0.525-0.001,1.051-0.001,1.577-0.001c-0.001,0.951-0.002,1.901-0.003,2.854
		c-0.523,0-1.046,0-1.569-0.001C117.119,251.378,117.118,250.428,117.116,249.478"/>
	<path fill="#585A5E" d="M102.407,252.329c0.523,0,1.046,0,1.569-0.001c0.002,0.873,0.003,1.746,0.005,2.619
		c-0.167,0.042-0.334,0.085-0.501,0.127c-0.841-0.269-1.267-0.79-1.1-1.721C102.44,253.021,102.401,252.671,102.407,252.329"/>
	<path fill="#585A5E" d="M106.019,254.629c0.51,0,1.021-0.001,1.53-0.001c0.027,0.313,0.053,0.627,0.079,0.94
		c0,0.623,0.001,1.248,0.001,1.871c-0.49-0.266-0.988-0.52-1.465-0.806c-0.094-0.057-0.155-0.238-0.158-0.364
		C105.996,255.723,106.012,255.176,106.019,254.629"/>
	<path fill="#585A5E" d="M117.122,252.328c0.522,0.001,1.045,0.001,1.568,0.001c0.007,0.539,0.014,1.079,0.019,1.618
		c0.005,0.395-0.13,0.695-0.543,0.812c-0.255-0.487-0.711-0.124-1.053-0.248C117.116,253.783,117.119,253.057,117.122,252.328"/>
	<path fill="#585A5E" d="M113.548,254.737c0.51,0,1.02,0,1.53,0.001c0.006,0.055,0.016,0.106,0.017,0.16
		c0.042,1.741,0.041,1.741-1.571,2.481c-0.027-0.011-0.056-0.014-0.085-0.011l0.005,0.011c0.009-0.604,0.018-1.208,0.026-1.812
		C113.496,255.291,113.522,255.014,113.548,254.737"/>
	<path fill="#585A5E" d="M120.707,250.467h1.596c0.006,0.357-0.033,0.725,0.028,1.072c0.113,0.651-0.148,1.037-0.742,1.246
		c-0.296-0.045-0.592-0.089-0.888-0.133C120.703,251.923,120.705,251.195,120.707,250.467"/>
	<path fill="#585A5E" d="M120.705,242.911h1.6v1.09c-0.542-0.297-1.084-0.595-1.626-0.892
		C120.687,243.043,120.696,242.978,120.705,242.911"/>
	<path fill="#585A5E" d="M98.951,252.457c0.484-0.044,0.969-0.089,1.454-0.133c0.006,0.146,0.019,0.291,0.018,0.438
		c-0.001,0.375-0.209,0.45-0.501,0.296C99.587,252.878,99.274,252.659,98.951,252.457"/>
	<path fill="#585A5E" d="M117.113,254.51c0.341,0.124,0.797-0.237,1.053,0.248c-0.117,0.081-0.225,0.186-0.354,0.236
		c-0.189,0.077-0.393,0.117-0.592,0.171C117.185,254.947,117.149,254.729,117.113,254.51"/>
	<path fill="#585A5E" d="M120.701,252.651c0.296,0.044,0.592,0.089,0.888,0.134c-0.115,0.078-0.223,0.171-0.346,0.233
		C120.828,253.232,120.719,253.156,120.701,252.651"/>
	<path fill="#585A5E" d="M103.48,255.074c0.167-0.042,0.334-0.085,0.501-0.127C103.901,255.329,103.701,255.242,103.48,255.074"/>
	<path fill="#585A5E" d="M113.439,257.369c0.029-0.003,0.058,0,0.085,0.011C113.496,257.376,113.467,257.373,113.439,257.369"/>
</g>
</svg>
