<?xml version="1.0" encoding="utf-8"?>
<!-- Generator: Adobe Illustrator 16.0.4, SVG Export Plug-In . SVG Version: 6.00 Build 0)  -->
<!DOCTYPE svg PUBLIC "-//W3C//DTD SVG 1.0//EN" "http://www.w3.org/TR/2001/REC-SVG-20010904/DTD/svg10.dtd">
<svg version="1.0" id="Layer_1" xmlns="http://www.w3.org/2000/svg" xmlns:xlink="http://www.w3.org/1999/xlink" x="0px" y="0px"
	 width="452.664px" height="497.436px" viewBox="0 0 452.664 497.436" enable-background="new 0 0 452.664 497.436"
	 xml:space="preserve">
<rect x="-30.226" y="-21.286" fill="#FFFFFF" width="523.819" height="506.15"/>
<g>
	<rect fill="#F5F6F6" width="452.664" height="497.436"/>
	<g>
		<rect x="155.837" y="413.654" fill="#FFFFFF" width="281.775" height="25"/>
		<g>
			<g>
				<path fill="#595B5F" d="M252.539,425.867c0.381,0.121,0.693,0.354,0.936,0.695c0.242,0.344,0.363,0.723,0.363,1.139
					c0,0.736-0.24,1.303-0.721,1.695c-0.48,0.395-1.143,0.592-1.982,0.592h-3.055v-7.982h2.795c0.85,0,1.512,0.188,1.988,0.561
					s0.715,0.91,0.715,1.611c0,0.416-0.098,0.775-0.291,1.078C253.092,425.56,252.842,425.763,252.539,425.867z M249.393,425.361
					h1.469c0.945,0,1.418-0.369,1.418-1.105c0-0.719-0.473-1.078-1.418-1.078h-1.469V425.361z M249.393,426.478v2.34h1.717
					c0.449,0,0.797-0.104,1.039-0.312c0.242-0.207,0.365-0.492,0.365-0.857c0-0.363-0.123-0.65-0.365-0.857
					c-0.242-0.209-0.59-0.312-1.039-0.312H249.393z"/>
				<path fill="#595B5F" d="M258.012,422.005h1.301l3.068,7.982h-1.379l-0.818-2.209h-3.055l-0.82,2.209h-1.365L258.012,422.005z
					 M258.648,423.658l-1.092,2.951h2.184L258.648,423.658z"/>
				<path fill="#595B5F" d="M263.848,429.988v-7.982h1.354v6.773h3.834v1.209H263.848z"/>
				<path fill="#595B5F" d="M270.738,429.988v-7.982h1.354v6.773h3.834v1.209H270.738z"/>
				<path fill="#595B5F" d="M277.629,422.005h5.213v1.197h-3.887v2.105h3.523v1.184h-3.523v2.287h3.887v1.209h-5.213V422.005z"/>
				<path fill="#595B5F" d="M286.949,426.751h-0.961v3.236h-1.354v-7.982h3.082c0.84,0,1.504,0.207,1.988,0.619
					c0.486,0.41,0.729,1.002,0.729,1.773c0,0.658-0.18,1.182-0.539,1.566c-0.359,0.387-0.861,0.631-1.502,0.734l2.314,3.289h-1.535
					L286.949,426.751z M285.988,423.177v2.443h1.703c0.441,0,0.785-0.111,1.033-0.332c0.246-0.221,0.369-0.518,0.369-0.891
					s-0.123-0.67-0.369-0.891c-0.248-0.221-0.592-0.33-1.033-0.33H285.988z"/>
				<path fill="#595B5F" d="M293.527,422.005v7.982h-1.352v-7.982H293.527z"/>
				<path fill="#595B5F" d="M302.041,422.005v7.982h-1.039l-4.082-5.811v5.811h-1.301v-7.982h1.275l3.848,5.539v-5.539H302.041z"/>
				<path fill="#595B5F" d="M306.58,422.005h1.299l3.068,7.982h-1.377l-0.82-2.209h-3.055l-0.818,2.209h-1.365L306.58,422.005z
					 M307.217,423.658l-1.092,2.951h2.184L307.217,423.658z"/>
				<path fill="#595B5F" d="M318.695,427.011h-1.729v2.977h-1.354v-7.982h3.082c0.84,0,1.506,0.217,1.996,0.65
					c0.488,0.434,0.734,1.053,0.734,1.859c0,0.797-0.246,1.412-0.734,1.846C320.201,426.794,319.535,427.011,318.695,427.011z
					 M320.086,424.515c0-0.406-0.121-0.732-0.363-0.975c-0.244-0.242-0.594-0.363-1.053-0.363h-1.703v2.664h1.703
					c0.449,0,0.799-0.121,1.045-0.363C319.963,425.234,320.086,424.914,320.086,424.515z"/>
				<path fill="#595B5F" d="M328.426,429.267c-0.576,0.568-1.354,0.852-2.334,0.852c-0.979,0-1.758-0.283-2.334-0.852
					s-0.863-1.389-0.863-2.463v-4.799h1.352v4.654c0,1.5,0.615,2.25,1.846,2.25s1.846-0.75,1.846-2.25v-4.654h1.354v4.811
					C329.291,427.882,329.002,428.699,328.426,429.267z"/>
				<path fill="#595B5F" d="M330.629,427.779h1.377c0.252,0.797,0.854,1.195,1.809,1.195c0.467,0,0.842-0.105,1.123-0.318
					s0.424-0.5,0.424-0.865c0-0.285-0.09-0.514-0.268-0.682c-0.178-0.17-0.475-0.301-0.891-0.396l-1.352-0.324
					c-1.326-0.312-1.988-1.027-1.988-2.146c0-0.684,0.252-1.25,0.76-1.695c0.508-0.447,1.158-0.67,1.957-0.67
					c0.84,0,1.518,0.197,2.033,0.592s0.848,0.934,0.996,1.617h-1.354c-0.25-0.709-0.805-1.064-1.664-1.064
					c-0.432,0-0.781,0.102-1.045,0.305c-0.266,0.203-0.396,0.471-0.396,0.799c0,0.529,0.35,0.877,1.053,1.041l1.391,0.324
					c0.65,0.148,1.156,0.408,1.521,0.781c0.363,0.371,0.545,0.85,0.545,1.43c0,0.736-0.264,1.324-0.793,1.762
					c-0.527,0.438-1.213,0.656-2.053,0.656c-0.85,0-1.559-0.207-2.127-0.617C331.121,429.089,330.768,428.515,330.629,427.779z"/>
				<path fill="#595B5F" d="M343.693,422.005h1.354v7.982h-1.354v-3.496h-4.016v3.496h-1.354v-7.982h1.354v3.289h4.016V422.005z"/>
			</g>
		</g>
	</g>
	<rect x="14.75" y="15.341" fill="#FFFFFF" width="126.793" height="467"/>
	<g>
		<g>
			<path fill="#595B5F" d="M65.822,30.583l2.105-3.575h1.432l-2.9,4.797v3.185h-1.338v-3.185l-2.887-4.797h1.469L65.822,30.583z"/>
			<path fill="#595B5F" d="M76.664,28.042c0.693,0.776,1.041,1.762,1.041,2.958c0,1.196-0.348,2.182-1.041,2.958
				c-0.693,0.776-1.576,1.164-2.652,1.164c-1.074,0-1.955-0.388-2.645-1.164c-0.689-0.775-1.033-1.761-1.033-2.958
				c0-1.196,0.344-2.182,1.033-2.958c0.689-0.775,1.57-1.163,2.645-1.163C75.088,26.879,75.971,27.267,76.664,28.042z
				 M75.695,33.093c0.43-0.546,0.645-1.244,0.645-2.093c0-0.849-0.215-1.547-0.645-2.093c-0.428-0.546-0.99-0.819-1.684-0.819
				s-1.252,0.271-1.676,0.812c-0.426,0.542-0.637,1.241-0.637,2.099c0,0.858,0.211,1.558,0.637,2.1
				c0.424,0.542,0.982,0.812,1.676,0.812S75.268,33.639,75.695,33.093z"/>
			<path fill="#595B5F" d="M84.77,34.269c-0.576,0.568-1.354,0.852-2.334,0.852c-0.979,0-1.758-0.284-2.334-0.852
				c-0.576-0.567-0.863-1.389-0.863-2.463v-4.797h1.352v4.654c0,1.5,0.615,2.249,1.846,2.249s1.846-0.75,1.846-2.249v-4.654h1.354
				v4.81C85.635,32.885,85.346,33.702,84.77,34.269z"/>
			<path fill="#595B5F" d="M89.912,31.754h-0.963v3.237h-1.352v-7.982h3.08c0.842,0,1.504,0.206,1.99,0.618
				c0.484,0.412,0.727,1.003,0.727,1.774c0,0.659-0.18,1.181-0.539,1.566s-0.859,0.63-1.502,0.734l2.314,3.289h-1.533L89.912,31.754
				z M88.949,28.179v2.444h1.703c0.441,0,0.787-0.11,1.033-0.332c0.248-0.221,0.371-0.518,0.371-0.89s-0.123-0.669-0.371-0.891
				c-0.246-0.221-0.592-0.332-1.033-0.332H88.949z"/>
			<path fill="#595B5F" d="M31.262,42.009h5.213v1.196h-3.887v2.106h3.523v1.183h-3.523v2.288h3.887v1.209h-5.213V42.009z"/>
			<path fill="#595B5F" d="M44.574,42.009l-2.703,3.887l2.834,4.095h-1.547l-2.068-3.003l-2.066,3.003h-1.508l2.82-4.069
				l-2.691-3.913h1.547l1.926,2.821l1.963-2.821H44.574z"/>
			<path fill="#595B5F" d="M47.396,42.009v7.982h-1.354v-7.982H47.396z"/>
			<path fill="#595B5F" d="M48.863,47.781h1.379c0.252,0.797,0.854,1.196,1.807,1.196c0.469,0,0.844-0.106,1.125-0.318
				s0.422-0.5,0.422-0.864c0-0.286-0.088-0.514-0.266-0.683s-0.475-0.301-0.891-0.396l-1.352-0.325
				c-1.326-0.312-1.99-1.027-1.99-2.145c0-0.685,0.254-1.25,0.762-1.696c0.506-0.446,1.158-0.669,1.955-0.669
				c0.842,0,1.52,0.197,2.035,0.591c0.516,0.395,0.848,0.934,0.994,1.619h-1.352c-0.252-0.71-0.807-1.066-1.664-1.066
				c-0.434,0-0.783,0.102-1.047,0.305s-0.396,0.47-0.396,0.8c0,0.528,0.352,0.875,1.053,1.04l1.391,0.325
				c0.65,0.147,1.158,0.408,1.521,0.78c0.365,0.373,0.547,0.849,0.547,1.43c0,0.737-0.266,1.324-0.793,1.762
				c-0.529,0.438-1.215,0.656-2.055,0.656c-0.85,0-1.559-0.206-2.125-0.617C49.355,49.092,49.002,48.518,48.863,47.781z"/>
			<path fill="#595B5F" d="M56.066,43.205v-1.196h6.656v1.196H60.07v6.786h-1.352v-6.786H56.066z"/>
			<path fill="#595B5F" d="M65.674,42.009v7.982H64.32v-7.982H65.674z"/>
			<path fill="#595B5F" d="M74.188,42.009v7.982h-1.039l-4.082-5.811v5.811h-1.301v-7.982h1.275l3.848,5.538v-5.538H74.188z"/>
			<path fill="#595B5F" d="M81.715,47.027h-1.742V45.87h3.029v0.624c0,1.092-0.318,1.97-0.955,2.633
				c-0.637,0.663-1.449,0.994-2.438,0.994c-1.084,0-1.98-0.383-2.691-1.15S75.852,47.213,75.852,46c0-1.213,0.354-2.203,1.061-2.97
				c0.705-0.767,1.588-1.15,2.645-1.15c0.893,0,1.623,0.234,2.191,0.702c0.566,0.468,0.93,1.11,1.084,1.924H81.48
				c-0.174-0.459-0.408-0.808-0.707-1.047c-0.301-0.238-0.705-0.357-1.217-0.357c-0.701,0-1.268,0.271-1.695,0.812
				c-0.43,0.542-0.645,1.237-0.645,2.086c0,0.858,0.217,1.56,0.65,2.106c0.434,0.546,1.014,0.819,1.742,0.819
				c0.588,0,1.066-0.171,1.43-0.514C81.402,48.069,81.629,47.607,81.715,47.027z"/>
			<path fill="#595B5F" d="M87.369,43.205v-1.196h6.656v1.196h-2.652v6.786h-1.352v-6.786H87.369z"/>
			<path fill="#595B5F" d="M101.527,43.042c0.693,0.776,1.039,1.762,1.039,2.958c0,1.196-0.346,2.182-1.039,2.958
				c-0.693,0.776-1.578,1.164-2.652,1.164s-1.957-0.388-2.646-1.164c-0.688-0.775-1.033-1.761-1.033-2.958
				c0-1.196,0.346-2.182,1.033-2.958c0.689-0.775,1.572-1.163,2.646-1.163S100.834,42.267,101.527,43.042z M100.559,48.093
				c0.428-0.546,0.643-1.244,0.643-2.093c0-0.849-0.215-1.547-0.643-2.093c-0.43-0.546-0.99-0.819-1.684-0.819
				s-1.252,0.271-1.678,0.812c-0.424,0.542-0.637,1.241-0.637,2.099c0,0.858,0.213,1.558,0.637,2.1
				c0.426,0.542,0.984,0.812,1.678,0.812S100.129,48.639,100.559,48.093z"/>
			<path fill="#595B5F" d="M110.133,43.042c0.693,0.776,1.039,1.762,1.039,2.958c0,1.196-0.346,2.182-1.039,2.958
				c-0.693,0.776-1.578,1.164-2.652,1.164s-1.957-0.388-2.646-1.164c-0.688-0.775-1.033-1.761-1.033-2.958
				c0-1.196,0.346-2.182,1.033-2.958c0.689-0.775,1.572-1.163,2.646-1.163S109.439,42.267,110.133,43.042z M109.164,48.093
				c0.428-0.546,0.643-1.244,0.643-2.093c0-0.849-0.215-1.547-0.643-2.093c-0.43-0.546-0.99-0.819-1.684-0.819
				s-1.252,0.271-1.678,0.812c-0.424,0.542-0.637,1.241-0.637,2.099c0,0.858,0.213,1.558,0.637,2.1
				c0.426,0.542,0.984,0.812,1.678,0.812S108.734,48.639,109.164,48.093z"/>
			<path fill="#595B5F" d="M112.836,49.991v-7.982h1.354v6.773h3.834v1.209H112.836z"/>
			<path fill="#595B5F" d="M119.102,47.781h1.379c0.252,0.797,0.854,1.196,1.807,1.196c0.469,0,0.844-0.106,1.125-0.318
				s0.422-0.5,0.422-0.864c0-0.286-0.088-0.514-0.266-0.683s-0.475-0.301-0.891-0.396l-1.352-0.325
				c-1.326-0.312-1.99-1.027-1.99-2.145c0-0.685,0.254-1.25,0.762-1.696c0.506-0.446,1.158-0.669,1.955-0.669
				c0.842,0,1.52,0.197,2.035,0.591c0.516,0.395,0.848,0.934,0.994,1.619h-1.352c-0.252-0.71-0.807-1.066-1.664-1.066
				c-0.434,0-0.783,0.102-1.047,0.305s-0.396,0.47-0.396,0.8c0,0.528,0.352,0.875,1.053,1.04l1.391,0.325
				c0.65,0.147,1.158,0.408,1.521,0.78c0.365,0.373,0.547,0.849,0.547,1.43c0,0.737-0.266,1.324-0.793,1.762
				c-0.529,0.438-1.215,0.656-2.055,0.656c-0.85,0-1.559-0.206-2.125-0.617C119.594,49.092,119.24,48.518,119.102,47.781z"/>
		</g>
	</g>
	<g>
		<g>
			<path fill="#595B5F" d="M236.355,27.042c0.382,0.122,0.693,0.354,0.937,0.696c0.242,0.342,0.363,0.721,0.363,1.137
				c0,0.737-0.24,1.302-0.721,1.697c-0.481,0.394-1.143,0.591-1.982,0.591h-3.056v-7.982h2.795c0.85,0,1.513,0.187,1.989,0.559
				s0.715,0.91,0.715,1.612c0,0.416-0.098,0.776-0.292,1.079C236.908,26.734,236.659,26.938,236.355,27.042z M233.21,26.535h1.469
				c0.944,0,1.417-0.368,1.417-1.105c0-0.719-0.473-1.079-1.417-1.079h-1.469V26.535z M233.21,27.653v2.34h1.716
				c0.45,0,0.797-0.104,1.04-0.312c0.242-0.208,0.364-0.494,0.364-0.858c0-0.364-0.122-0.65-0.364-0.858
				c-0.243-0.208-0.59-0.312-1.04-0.312H233.21z"/>
			<path fill="#595B5F" d="M241.829,23.181h1.3l3.068,7.982h-1.378L244,28.953h-3.055l-0.819,2.21h-1.365L241.829,23.181z
				 M242.466,24.832l-1.092,2.951h2.184L242.466,24.832z"/>
			<path fill="#595B5F" d="M247.665,31.163v-7.982h1.353v6.773h3.835v1.209H247.665z"/>
			<path fill="#595B5F" d="M254.556,31.163v-7.982h1.353v6.773h3.835v1.209H254.556z"/>
			<path fill="#595B5F" d="M261.445,23.181h5.213v1.196h-3.887v2.106h3.523v1.183h-3.523v2.288h3.887v1.209h-5.213V23.181z"/>
			<path fill="#595B5F" d="M270.767,27.926h-0.962v3.237h-1.353v-7.982h3.081c0.841,0,1.504,0.206,1.989,0.618
				s0.728,1.003,0.728,1.774c0,0.659-0.18,1.181-0.539,1.566s-0.86,0.63-1.502,0.734l2.314,3.289h-1.534L270.767,27.926z
				 M269.805,24.351v2.444h1.703c0.441,0,0.786-0.11,1.033-0.332c0.247-0.221,0.37-0.518,0.37-0.89s-0.123-0.669-0.37-0.891
				s-0.592-0.332-1.033-0.332H269.805z"/>
			<path fill="#595B5F" d="M277.345,23.181v7.982h-1.353v-7.982H277.345z"/>
			<path fill="#595B5F" d="M285.858,23.181v7.982h-1.04l-4.082-5.811v5.811h-1.3v-7.982h1.274l3.848,5.538v-5.538H285.858z"/>
			<path fill="#595B5F" d="M290.396,23.181h1.3l3.068,7.982h-1.378l-0.819-2.21h-3.055l-0.819,2.21h-1.365L290.396,23.181z
				 M291.033,24.832l-1.092,2.951h2.184L291.033,24.832z"/>
			<path fill="#595B5F" d="M298.937,24.376v-1.196h6.656v1.196h-2.652v6.786h-1.352v-6.786H298.937z"/>
			<path fill="#595B5F" d="M313.094,24.214c0.693,0.776,1.04,1.762,1.04,2.958c0,1.196-0.347,2.182-1.04,2.958
				c-0.693,0.776-1.577,1.164-2.652,1.164c-1.074,0-1.956-0.388-2.646-1.164c-0.688-0.775-1.033-1.761-1.033-2.958
				c0-1.196,0.345-2.182,1.033-2.958c0.689-0.775,1.571-1.163,2.646-1.163C311.517,23.051,312.4,23.438,313.094,24.214z
				 M312.125,29.265c0.429-0.546,0.644-1.244,0.644-2.093c0-0.849-0.215-1.547-0.644-2.093s-0.99-0.819-1.684-0.819
				s-1.252,0.271-1.677,0.812s-0.637,1.241-0.637,2.099c0,0.858,0.212,1.558,0.637,2.1c0.425,0.542,0.983,0.812,1.677,0.812
				S311.696,29.811,312.125,29.265z"/>
			<path fill="#595B5F" d="M321.7,24.214c0.693,0.776,1.04,1.762,1.04,2.958c0,1.196-0.347,2.182-1.04,2.958
				c-0.693,0.776-1.577,1.164-2.652,1.164c-1.074,0-1.956-0.388-2.646-1.164c-0.688-0.775-1.033-1.761-1.033-2.958
				c0-1.196,0.345-2.182,1.033-2.958c0.689-0.775,1.571-1.163,2.646-1.163C320.123,23.051,321.007,23.438,321.7,24.214z
				 M320.731,29.265c0.429-0.546,0.644-1.244,0.644-2.093c0-0.849-0.215-1.547-0.644-2.093s-0.99-0.819-1.684-0.819
				s-1.252,0.271-1.677,0.812s-0.637,1.241-0.637,2.099c0,0.858,0.212,1.558,0.637,2.1c0.425,0.542,0.983,0.812,1.677,0.812
				S320.303,29.811,320.731,29.265z"/>
			<path fill="#595B5F" d="M324.403,31.163v-7.982h1.353v6.773h3.835v1.209H324.403z"/>
			<path fill="#595B5F" d="M330.669,28.953h1.378c0.252,0.797,0.854,1.196,1.808,1.196c0.468,0,0.843-0.106,1.124-0.318
				s0.423-0.5,0.423-0.864c0-0.286-0.089-0.514-0.267-0.683s-0.475-0.301-0.891-0.396l-1.352-0.325
				c-1.326-0.312-1.989-1.027-1.989-2.145c0-0.685,0.253-1.25,0.761-1.696c0.507-0.446,1.158-0.669,1.956-0.669
				c0.841,0,1.519,0.197,2.034,0.591c0.516,0.395,0.848,0.934,0.995,1.619h-1.353c-0.251-0.71-0.806-1.066-1.664-1.066
				c-0.433,0-0.782,0.102-1.046,0.305c-0.265,0.204-0.396,0.47-0.396,0.8c0,0.528,0.351,0.875,1.053,1.04l1.391,0.325
				c0.65,0.147,1.157,0.408,1.521,0.78s0.546,0.849,0.546,1.43c0,0.737-0.265,1.324-0.793,1.762s-1.214,0.656-2.054,0.656
				c-0.85,0-1.559-0.206-2.126-0.617S330.808,29.689,330.669,28.953z"/>
		</g>
	</g>
	
		<line fill="none" stroke="#A6A8AB" stroke-width="0.651" stroke-miterlimit="10" stroke-dasharray="2.7658,2.7658" x1="437.893" y1="163.841" x2="28.834" y2="163.841"/>
	
		<line fill="none" stroke="#A6A8AB" stroke-width="0.651" stroke-miterlimit="10" stroke-dasharray="2.7658,2.7658" x1="437.893" y1="251.841" x2="28.834" y2="251.841"/>
	
		<line fill="none" stroke="#A6A8AB" stroke-width="0.651" stroke-miterlimit="10" stroke-dasharray="2.7658,2.7658" x1="437.893" y1="403.841" x2="28.834" y2="403.841"/>
	
		<line fill="none" stroke="#696C71" stroke-width="0.7445" stroke-miterlimit="10" x1="128.277" y1="426.154" x2="156.348" y2="426.154"/>
	<g>
		<rect x="156.103" y="457.341" fill="#3FBFBB" width="281.776" height="25"/>
		<g>
			<path fill="#FFFFFF" d="M195.78,469.554c0.382,0.121,0.693,0.354,0.937,0.695c0.242,0.344,0.363,0.723,0.363,1.139
				c0,0.736-0.24,1.303-0.721,1.695c-0.481,0.395-1.143,0.592-1.982,0.592h-3.056v-7.982h2.795c0.85,0,1.513,0.188,1.989,0.561
				s0.715,0.91,0.715,1.611c0,0.416-0.098,0.775-0.292,1.078C196.333,469.248,196.084,469.451,195.78,469.554z M192.635,469.048
				h1.469c0.944,0,1.417-0.369,1.417-1.105c0-0.719-0.473-1.078-1.417-1.078h-1.469V469.048z M192.635,470.166v2.34h1.716
				c0.45,0,0.797-0.104,1.04-0.312c0.242-0.207,0.364-0.492,0.364-0.857c0-0.363-0.122-0.65-0.364-0.857
				c-0.243-0.209-0.59-0.312-1.04-0.312H192.635z"/>
			<path fill="#FFFFFF" d="M204.211,472.955c-0.576,0.568-1.354,0.852-2.333,0.852s-1.758-0.283-2.334-0.852
				s-0.864-1.389-0.864-2.463v-4.799h1.353v4.654c0,1.5,0.615,2.25,1.846,2.25s1.846-0.75,1.846-2.25v-4.654h1.353v4.811
				C205.076,471.57,204.787,472.386,204.211,472.955z"/>
			<path fill="#FFFFFF" d="M208.391,465.693v7.982h-1.353v-7.982H208.391z"/>
			<path fill="#FFFFFF" d="M210.483,473.675v-7.982h1.353v6.773h3.835v1.209H210.483z"/>
			<path fill="#FFFFFF" d="M217.373,473.675v-7.982h2.691c1.179,0,2.119,0.363,2.821,1.086c0.701,0.725,1.053,1.693,1.053,2.906
				s-0.352,2.182-1.053,2.904c-0.702,0.725-1.643,1.086-2.821,1.086H217.373z M218.726,472.466h1.287
				c0.823,0,1.458-0.246,1.904-0.74s0.669-1.174,0.669-2.041s-0.223-1.549-0.669-2.047c-0.446-0.5-1.081-0.748-1.904-0.748h-1.287
				V472.466z"/>
			<path fill="#FFFFFF" d="M228.8,473.675v-7.982h1.353v6.773h3.835v1.209H228.8z"/>
			<path fill="#FFFFFF" d="M241.592,466.728c0.693,0.775,1.04,1.762,1.04,2.957s-0.347,2.182-1.04,2.957s-1.577,1.164-2.652,1.164
				c-1.074,0-1.956-0.389-2.646-1.164c-0.688-0.775-1.033-1.762-1.033-2.957s0.345-2.182,1.033-2.957
				c0.689-0.775,1.571-1.164,2.646-1.164C240.015,465.564,240.898,465.953,241.592,466.728z M240.623,471.777
				c0.429-0.545,0.644-1.242,0.644-2.092s-0.215-1.547-0.644-2.094c-0.429-0.545-0.99-0.818-1.684-0.818s-1.252,0.271-1.677,0.812
				s-0.637,1.242-0.637,2.1s0.212,1.559,0.637,2.1s0.983,0.812,1.677,0.812S240.194,472.324,240.623,471.777z"/>
			<path fill="#FFFFFF" d="M244.899,472.656c-0.688-0.768-1.033-1.758-1.033-2.971s0.345-2.203,1.033-2.971
				c0.689-0.768,1.554-1.15,2.594-1.15c0.884,0,1.607,0.236,2.171,0.709s0.923,1.115,1.079,1.93h-1.326
				c-0.347-0.945-0.988-1.416-1.924-1.416c-0.693,0-1.244,0.27-1.651,0.812c-0.407,0.541-0.61,1.236-0.61,2.086
				s0.203,1.545,0.61,2.086c0.407,0.543,0.958,0.812,1.651,0.812c0.936,0,1.577-0.477,1.924-1.43h1.326
				c-0.156,0.824-0.516,1.471-1.079,1.943s-1.287,0.709-2.171,0.709C246.453,473.806,245.589,473.421,244.899,472.656z"/>
			<path fill="#FFFFFF" d="M253.733,465.693v3.822l3.314-3.822h1.703l-3.224,3.627l3.341,4.355h-1.69l-2.626-3.418l-0.818,0.936
				v2.482h-1.353v-7.982H253.733z"/>
			<path fill="#FFFFFF" d="M265.914,465.693h1.3l3.068,7.982h-1.378l-0.819-2.209h-3.055l-0.819,2.209h-1.365L265.914,465.693z
				 M266.551,467.345l-1.092,2.951h2.184L266.551,467.345z"/>
			<path fill="#FFFFFF" d="M278.173,465.693v7.982h-1.04l-4.082-5.811v5.811h-1.3v-7.982h1.274l3.848,5.539v-5.539H278.173z"/>
			<path fill="#FFFFFF" d="M280.266,473.675v-7.982h2.691c1.179,0,2.119,0.363,2.821,1.086c0.701,0.725,1.053,1.693,1.053,2.906
				s-0.352,2.182-1.053,2.904c-0.702,0.725-1.643,1.086-2.821,1.086H280.266z M281.618,472.466h1.287
				c0.823,0,1.458-0.246,1.904-0.74s0.669-1.174,0.669-2.041s-0.223-1.549-0.669-2.047c-0.446-0.5-1.081-0.748-1.904-0.748h-1.287
				V472.466z"/>
			<path fill="#FFFFFF" d="M296.151,469.554c0.382,0.121,0.693,0.354,0.937,0.695c0.242,0.344,0.363,0.723,0.363,1.139
				c0,0.736-0.24,1.303-0.721,1.695c-0.481,0.395-1.143,0.592-1.982,0.592h-3.056v-7.982h2.795c0.85,0,1.513,0.188,1.989,0.561
				s0.715,0.91,0.715,1.611c0,0.416-0.098,0.775-0.292,1.078C296.704,469.248,296.455,469.451,296.151,469.554z M293.006,469.048
				h1.469c0.944,0,1.417-0.369,1.417-1.105c0-0.719-0.473-1.078-1.417-1.078h-1.469V469.048z M293.006,470.166v2.34h1.716
				c0.45,0,0.797-0.104,1.04-0.312c0.242-0.207,0.364-0.492,0.364-0.857c0-0.363-0.122-0.65-0.364-0.857
				c-0.243-0.209-0.59-0.312-1.04-0.312H293.006z"/>
			<path fill="#FFFFFF" d="M300.533,465.693v7.982h-1.353v-7.982H300.533z"/>
			<path fill="#FFFFFF" d="M302.625,473.675v-7.982h1.353v6.773h3.835v1.209H302.625z"/>
			<path fill="#FFFFFF" d="M309.515,473.675v-7.982h1.353v6.773h3.835v1.209H309.515z"/>
			<path fill="#FFFFFF" d="M325.505,466.728c0.693,0.775,1.04,1.762,1.04,2.957s-0.347,2.182-1.04,2.957s-1.577,1.164-2.652,1.164
				c-1.074,0-1.956-0.389-2.646-1.164c-0.688-0.775-1.033-1.762-1.033-2.957s0.345-2.182,1.033-2.957
				c0.689-0.775,1.571-1.164,2.646-1.164C323.928,465.564,324.812,465.953,325.505,466.728z M324.536,471.777
				c0.429-0.545,0.644-1.242,0.644-2.092s-0.215-1.547-0.644-2.094c-0.429-0.545-0.99-0.818-1.684-0.818s-1.252,0.271-1.677,0.812
				s-0.637,1.242-0.637,2.1s0.212,1.559,0.637,2.1s0.983,0.812,1.677,0.812S324.107,472.324,324.536,471.777z"/>
			<path fill="#FFFFFF" d="M329.562,473.675h-1.353v-7.982h5.097v1.197h-3.744v2.365h3.497v1.184h-3.497V473.675z"/>
			<path fill="#FFFFFF" d="M342.613,473.675h-0.962l-2.197-5.551v5.551h-1.287v-7.982h1.547l2.432,6.137l2.404-6.137h1.509v7.982
				h-1.301v-5.551L342.613,473.675z"/>
			<path fill="#FFFFFF" d="M350.595,465.693h1.3l3.068,7.982h-1.378l-0.819-2.209h-3.055l-0.819,2.209h-1.365L350.595,465.693z
				 M351.231,467.345l-1.092,2.951h2.184L351.231,467.345z"/>
			<path fill="#FFFFFF" d="M355.938,466.89v-1.197h6.656v1.197h-2.652v6.785h-1.352v-6.785H355.938z"/>
			<path fill="#FFFFFF" d="M364.192,465.693h5.213v1.197h-3.887v2.105h3.523v1.184h-3.523v2.287h3.887v1.209h-5.213V465.693z"/>
			<path fill="#FFFFFF" d="M373.514,470.439h-0.962v3.236h-1.353v-7.982h3.081c0.841,0,1.504,0.207,1.989,0.619
				c0.485,0.41,0.728,1.002,0.728,1.773c0,0.658-0.18,1.182-0.539,1.566c-0.359,0.387-0.86,0.631-1.502,0.734l2.314,3.289h-1.534
				L373.514,470.439z M372.552,466.865v2.443h1.703c0.441,0,0.786-0.111,1.033-0.332s0.37-0.518,0.37-0.891s-0.123-0.67-0.37-0.891
				s-0.592-0.33-1.033-0.33H372.552z"/>
			<path fill="#FFFFFF" d="M380.092,465.693v7.982h-1.353v-7.982H380.092z"/>
			<path fill="#FFFFFF" d="M384.629,465.693h1.3l3.068,7.982h-1.378l-0.819-2.209h-3.055l-0.819,2.209h-1.365L384.629,465.693z
				 M385.266,467.345l-1.092,2.951h2.184L385.266,467.345z"/>
			<path fill="#FFFFFF" d="M390.465,473.675v-7.982h1.353v6.773h3.835v1.209H390.465z"/>
			<path fill="#FFFFFF" d="M396.73,471.466h1.378c0.252,0.797,0.854,1.195,1.808,1.195c0.468,0,0.843-0.105,1.124-0.318
				s0.423-0.5,0.423-0.865c0-0.285-0.089-0.514-0.267-0.682c-0.178-0.17-0.475-0.301-0.891-0.396l-1.352-0.324
				c-1.326-0.312-1.989-1.027-1.989-2.146c0-0.684,0.253-1.25,0.761-1.695c0.507-0.447,1.158-0.67,1.956-0.67
				c0.841,0,1.519,0.197,2.034,0.592s0.848,0.934,0.995,1.617h-1.353c-0.251-0.709-0.806-1.064-1.664-1.064
				c-0.433,0-0.782,0.102-1.046,0.305c-0.265,0.203-0.396,0.471-0.396,0.799c0,0.529,0.351,0.877,1.053,1.041l1.391,0.324
				c0.65,0.148,1.157,0.408,1.521,0.781c0.364,0.371,0.546,0.85,0.546,1.43c0,0.736-0.265,1.324-0.793,1.762
				s-1.214,0.656-2.054,0.656c-0.85,0-1.559-0.207-2.126-0.617C397.223,472.777,396.869,472.203,396.73,471.466z"/>
		</g>
	</g>
	
		<line fill="none" stroke="#696C71" stroke-width="0.7445" stroke-miterlimit="10" x1="128.277" y1="185.841" x2="155.825" y2="185.841"/>
	<g>
		<rect x="156.103" y="173.341" fill="#FFFFFF" width="281.47" height="25"/>
		<g>
			<g>
				<path fill="#696C71" d="M251.273,185.555c0.381,0.122,0.693,0.354,0.936,0.696s0.363,0.721,0.363,1.137
					c0,0.737-0.24,1.302-0.721,1.697c-0.48,0.394-1.143,0.591-1.982,0.591h-3.055v-7.982h2.795c0.85,0,1.512,0.187,1.988,0.559
					s0.715,0.91,0.715,1.612c0,0.416-0.098,0.776-0.291,1.079C251.826,185.248,251.576,185.451,251.273,185.555z M248.127,185.048
					h1.469c0.945,0,1.418-0.368,1.418-1.105c0-0.719-0.473-1.079-1.418-1.079h-1.469V185.048z M248.127,186.167v2.34h1.717
					c0.449,0,0.797-0.104,1.039-0.312s0.365-0.494,0.365-0.858c0-0.364-0.123-0.65-0.365-0.858c-0.242-0.208-0.59-0.312-1.039-0.312
					H248.127z"/>
				<path fill="#696C71" d="M256.746,181.694h1.301l3.068,7.982h-1.379l-0.818-2.21h-3.055l-0.82,2.21h-1.365L256.746,181.694z
					 M257.383,183.345l-1.092,2.951h2.184L257.383,183.345z"/>
				<path fill="#696C71" d="M262.582,189.676v-7.982h1.354v6.773h3.834v1.209H262.582z"/>
				<path fill="#696C71" d="M269.473,189.676v-7.982h1.354v6.773h3.834v1.209H269.473z"/>
				<path fill="#696C71" d="M276.363,181.694h5.213v1.196h-3.887v2.106h3.523v1.183h-3.523v2.288h3.887v1.209h-5.213V181.694z"/>
				<path fill="#696C71" d="M285.684,186.439h-0.961v3.237h-1.354v-7.982h3.082c0.84,0,1.504,0.206,1.988,0.618
					c0.486,0.412,0.729,1.003,0.729,1.774c0,0.659-0.18,1.181-0.539,1.566s-0.861,0.63-1.502,0.734l2.314,3.289h-1.535
					L285.684,186.439z M284.723,182.864v2.444h1.703c0.441,0,0.785-0.11,1.033-0.332c0.246-0.221,0.369-0.518,0.369-0.89
					s-0.123-0.669-0.369-0.891c-0.248-0.221-0.592-0.332-1.033-0.332H284.723z"/>
				<path fill="#696C71" d="M292.262,181.694v7.982h-1.352v-7.982H292.262z"/>
				<path fill="#696C71" d="M300.775,181.694v7.982h-1.039l-4.082-5.811v5.811h-1.301v-7.982h1.275l3.848,5.538v-5.538H300.775z"/>
				<path fill="#696C71" d="M305.314,181.694h1.299l3.068,7.982h-1.377l-0.82-2.21h-3.055l-0.818,2.21h-1.365L305.314,181.694z
					 M305.951,183.345l-1.092,2.951h2.184L305.951,183.345z"/>
				<path fill="#696C71" d="M318.807,185.555c0.383,0.122,0.693,0.354,0.938,0.696c0.242,0.342,0.363,0.721,0.363,1.137
					c0,0.737-0.24,1.302-0.721,1.697c-0.482,0.394-1.143,0.591-1.982,0.591h-3.057v-7.982h2.795c0.85,0,1.514,0.187,1.99,0.559
					s0.715,0.91,0.715,1.612c0,0.416-0.098,0.776-0.293,1.079S319.111,185.451,318.807,185.555z M315.662,185.048h1.469
					c0.943,0,1.416-0.368,1.416-1.105c0-0.719-0.473-1.079-1.416-1.079h-1.469V185.048z M315.662,186.167v2.34h1.715
					c0.451,0,0.797-0.104,1.041-0.312c0.242-0.208,0.363-0.494,0.363-0.858c0-0.364-0.121-0.65-0.363-0.858
					c-0.244-0.208-0.59-0.312-1.041-0.312H315.662z"/>
				<path fill="#696C71" d="M327.238,188.955c-0.576,0.568-1.354,0.852-2.334,0.852c-0.979,0-1.758-0.284-2.334-0.852
					c-0.576-0.567-0.863-1.389-0.863-2.463v-4.797h1.352v4.654c0,1.5,0.615,2.249,1.846,2.249s1.846-0.75,1.846-2.249v-4.654h1.354
					v4.81C328.104,187.57,327.814,188.387,327.238,188.955z"/>
				<path fill="#696C71" d="M331.418,181.694v7.982h-1.354v-7.982H331.418z"/>
				<path fill="#696C71" d="M333.51,189.676v-7.982h1.352v6.773h3.836v1.209H333.51z"/>
				<path fill="#696C71" d="M340.4,189.676v-7.982h2.691c1.178,0,2.119,0.362,2.82,1.085s1.053,1.692,1.053,2.905
					c0,1.214-0.352,2.182-1.053,2.906s-1.643,1.085-2.82,1.085H340.4z M341.752,188.467h1.287c0.824,0,1.459-0.247,1.904-0.741
					c0.447-0.494,0.67-1.174,0.67-2.041c0-0.866-0.223-1.549-0.67-2.047c-0.445-0.498-1.08-0.748-1.904-0.748h-1.287V188.467z"/>
			</g>
		</g>
	</g>
	<g>
		<rect x="156.103" y="217.341" fill="#3FBFBB" width="281.776" height="25"/>
		<g>
			<path fill="#FFFFFF" d="M186.109,233.507c-0.169-0.173-0.254-0.386-0.254-0.637c0-0.251,0.085-0.463,0.254-0.637
				s0.379-0.26,0.63-0.26s0.462,0.087,0.631,0.26s0.253,0.386,0.253,0.637c0,0.251-0.084,0.464-0.253,0.637s-0.38,0.26-0.631,0.26
				S186.278,233.681,186.109,233.507z"/>
			<path fill="#FFFFFF" d="M193.707,229.555c0.382,0.122,0.693,0.354,0.937,0.696c0.242,0.342,0.363,0.721,0.363,1.137
				c0,0.737-0.24,1.302-0.721,1.697c-0.481,0.394-1.143,0.591-1.982,0.591h-3.056v-7.982h2.795c0.85,0,1.513,0.187,1.989,0.559
				s0.715,0.91,0.715,1.612c0,0.416-0.098,0.776-0.292,1.079C194.26,229.248,194.011,229.451,193.707,229.555z M190.562,229.048
				h1.469c0.944,0,1.417-0.368,1.417-1.105c0-0.719-0.473-1.079-1.417-1.079h-1.469V229.048z M190.562,230.167v2.34h1.716
				c0.45,0,0.797-0.104,1.04-0.312c0.242-0.208,0.364-0.494,0.364-0.858c0-0.364-0.122-0.65-0.364-0.858
				c-0.243-0.208-0.59-0.312-1.04-0.312H190.562z"/>
			<path fill="#FFFFFF" d="M199.181,225.694h1.3l3.068,7.982h-1.378l-0.819-2.21h-3.055l-0.819,2.21h-1.365L199.181,225.694z
				 M199.817,227.345l-1.092,2.951h2.184L199.817,227.345z"/>
			<path fill="#FFFFFF" d="M205.018,233.676v-7.982h1.353v6.773h3.835v1.209H205.018z"/>
			<path fill="#FFFFFF" d="M217.81,226.728c0.693,0.776,1.04,1.762,1.04,2.958c0,1.196-0.347,2.182-1.04,2.958
				c-0.693,0.776-1.577,1.164-2.652,1.164c-1.074,0-1.956-0.388-2.646-1.164c-0.688-0.775-1.033-1.761-1.033-2.958
				c0-1.196,0.345-2.182,1.033-2.958c0.689-0.775,1.571-1.163,2.646-1.163C216.232,225.564,217.116,225.952,217.81,226.728z
				 M216.841,231.778c0.429-0.546,0.644-1.244,0.644-2.093c0-0.849-0.215-1.547-0.644-2.093s-0.99-0.819-1.684-0.819
				s-1.252,0.271-1.677,0.812s-0.637,1.241-0.637,2.099c0,0.858,0.212,1.558,0.637,2.1c0.425,0.542,0.983,0.812,1.677,0.812
				S216.412,232.324,216.841,231.778z"/>
			<path fill="#FFFFFF" d="M219.837,235.146l0.936-1.443c-0.216-0.034-0.392-0.125-0.526-0.273
				c-0.134-0.147-0.201-0.333-0.201-0.559c0-0.251,0.085-0.459,0.254-0.624c0.169-0.165,0.379-0.247,0.63-0.247
				c0.26,0,0.473,0.084,0.637,0.253c0.165,0.169,0.247,0.409,0.247,0.721c0,0.321-0.125,0.667-0.377,1.04l-0.754,1.131H219.837z"/>
			<path fill="#FFFFFF" d="M226.422,233.507c-0.169-0.173-0.254-0.386-0.254-0.637c0-0.251,0.085-0.463,0.254-0.637
				s0.379-0.26,0.63-0.26s0.462,0.087,0.631,0.26s0.253,0.386,0.253,0.637c0,0.251-0.084,0.464-0.253,0.637s-0.38,0.26-0.631,0.26
				S226.591,233.681,226.422,233.507z"/>
			<path fill="#FFFFFF" d="M234.02,229.555c0.382,0.122,0.693,0.354,0.937,0.696c0.242,0.342,0.363,0.721,0.363,1.137
				c0,0.737-0.24,1.302-0.721,1.697c-0.481,0.394-1.143,0.591-1.982,0.591h-3.056v-7.982h2.795c0.85,0,1.513,0.187,1.989,0.559
				s0.715,0.91,0.715,1.612c0,0.416-0.098,0.776-0.292,1.079C234.572,229.248,234.323,229.451,234.02,229.555z M230.874,229.048
				h1.469c0.944,0,1.417-0.368,1.417-1.105c0-0.719-0.473-1.079-1.417-1.079h-1.469V229.048z M230.874,230.167v2.34h1.716
				c0.45,0,0.797-0.104,1.04-0.312c0.242-0.208,0.364-0.494,0.364-0.858c0-0.364-0.122-0.65-0.364-0.858
				c-0.243-0.208-0.59-0.312-1.04-0.312H230.874z"/>
			<path fill="#FFFFFF" d="M239.493,225.694h1.3l3.068,7.982h-1.378l-0.819-2.21h-3.055l-0.819,2.21h-1.365L239.493,225.694z
				 M240.13,227.345l-1.092,2.951h2.184L240.13,227.345z"/>
			<path fill="#FFFFFF" d="M245.33,233.676v-7.982h1.353v6.773h3.835v1.209H245.33z"/>
			<path fill="#FFFFFF" d="M258.525,225.694l-2.704,3.887l2.834,4.095h-1.547l-2.067-3.003l-2.067,3.003h-1.508l2.821-4.069
				l-2.691-3.913h1.547l1.925,2.821l1.963-2.821H258.525z"/>
			<path fill="#FFFFFF" d="M267.65,229.555c0.382,0.122,0.693,0.354,0.937,0.696c0.242,0.342,0.363,0.721,0.363,1.137
				c0,0.737-0.24,1.302-0.721,1.697c-0.481,0.394-1.143,0.591-1.982,0.591h-3.056v-7.982h2.795c0.85,0,1.513,0.187,1.989,0.559
				s0.715,0.91,0.715,1.612c0,0.416-0.098,0.776-0.292,1.079C268.203,229.248,267.954,229.451,267.65,229.555z M264.505,229.048
				h1.469c0.944,0,1.417-0.368,1.417-1.105c0-0.719-0.473-1.079-1.417-1.079h-1.469V229.048z M264.505,230.167v2.34h1.716
				c0.45,0,0.797-0.104,1.04-0.312c0.242-0.208,0.364-0.494,0.364-0.858c0-0.364-0.122-0.65-0.364-0.858
				c-0.243-0.208-0.59-0.312-1.04-0.312H264.505z"/>
			<path fill="#FFFFFF" d="M273.579,229.269l2.105-3.575h1.431l-2.899,4.797v3.185h-1.339v-3.185l-2.886-4.797h1.469
				L273.579,229.269z"/>
			<path fill="#FFFFFF" d="M278.024,226.89v-1.196h6.656v1.196h-2.652v6.786h-1.352v-6.786H278.024z"/>
			<path fill="#FFFFFF" d="M286.279,225.694h5.213v1.196h-3.887v2.106h3.523v1.183h-3.523v2.288h3.887v1.209h-5.213V225.694z"/>
			<path fill="#FFFFFF" d="M293.891,232.656c-0.688-0.767-1.033-1.757-1.033-2.971c0-1.213,0.345-2.203,1.033-2.97
				c0.689-0.767,1.554-1.15,2.594-1.15c0.884,0,1.607,0.236,2.171,0.708c0.563,0.472,0.923,1.116,1.079,1.93h-1.326
				c-0.347-0.944-0.988-1.417-1.924-1.417c-0.693,0-1.244,0.271-1.651,0.812c-0.407,0.542-0.61,1.237-0.61,2.086
				c0,0.85,0.203,1.545,0.61,2.087s0.958,0.812,1.651,0.812c0.936,0,1.577-0.477,1.924-1.43h1.326
				c-0.156,0.823-0.516,1.471-1.079,1.943c-0.563,0.473-1.287,0.708-2.171,0.708C295.444,233.806,294.58,233.423,293.891,232.656z"
				/>
			<path fill="#FFFFFF" d="M307.274,226.728c0.693,0.776,1.04,1.762,1.04,2.958c0,1.196-0.347,2.182-1.04,2.958
				c-0.693,0.776-1.577,1.164-2.652,1.164c-1.074,0-1.956-0.388-2.646-1.164c-0.688-0.775-1.033-1.761-1.033-2.958
				c0-1.196,0.345-2.182,1.033-2.958c0.689-0.775,1.571-1.163,2.646-1.163C305.697,225.564,306.581,225.952,307.274,226.728z
				 M306.306,231.778c0.429-0.546,0.644-1.244,0.644-2.093c0-0.849-0.215-1.547-0.644-2.093s-0.99-0.819-1.684-0.819
				s-1.252,0.271-1.677,0.812s-0.637,1.241-0.637,2.099c0,0.858,0.212,1.558,0.637,2.1c0.425,0.542,0.983,0.812,1.677,0.812
				S305.877,232.324,306.306,231.778z"/>
			<path fill="#FFFFFF" d="M309.978,233.676v-7.982h2.691c1.179,0,2.119,0.362,2.821,1.085c0.701,0.724,1.053,1.692,1.053,2.905
				c0,1.214-0.352,2.182-1.053,2.906c-0.702,0.724-1.643,1.085-2.821,1.085H309.978z M311.33,232.467h1.287
				c0.823,0,1.458-0.247,1.904-0.741c0.446-0.494,0.669-1.174,0.669-2.041c0-0.866-0.223-1.549-0.669-2.047
				c-0.446-0.498-1.081-0.748-1.904-0.748h-1.287V232.467z"/>
			<path fill="#FFFFFF" d="M318.206,225.694h5.213v1.196h-3.887v2.106h3.523v1.183h-3.523v2.288h3.887v1.209h-5.213V225.694z"/>
			<path fill="#FFFFFF" d="M330.855,225.694h1.3l3.068,7.982h-1.378l-0.819-2.21h-3.055l-0.819,2.21h-1.365L330.855,225.694z
				 M331.492,227.345l-1.092,2.951h2.184L331.492,227.345z"/>
			<path fill="#FFFFFF" d="M343.114,225.694v7.982h-1.04l-4.082-5.811v5.811h-1.3v-7.982h1.274l3.848,5.538v-5.538H343.114z"/>
			<path fill="#FFFFFF" d="M345.207,233.676v-7.982h2.691c1.179,0,2.119,0.362,2.821,1.085c0.701,0.724,1.053,1.692,1.053,2.905
				c0,1.214-0.352,2.182-1.053,2.906c-0.702,0.724-1.643,1.085-2.821,1.085H345.207z M346.56,232.467h1.287
				c0.823,0,1.458-0.247,1.904-0.741c0.446-0.494,0.669-1.174,0.669-2.041c0-0.866-0.223-1.549-0.669-2.047
				c-0.446-0.498-1.081-0.748-1.904-0.748h-1.287V232.467z"/>
			<path fill="#FFFFFF" d="M361.093,229.555c0.382,0.122,0.693,0.354,0.937,0.696c0.242,0.342,0.363,0.721,0.363,1.137
				c0,0.737-0.24,1.302-0.721,1.697c-0.481,0.394-1.143,0.591-1.982,0.591h-3.056v-7.982h2.795c0.85,0,1.513,0.187,1.989,0.559
				s0.715,0.91,0.715,1.612c0,0.416-0.098,0.776-0.292,1.079C361.646,229.248,361.396,229.451,361.093,229.555z M357.947,229.048
				h1.469c0.944,0,1.417-0.368,1.417-1.105c0-0.719-0.473-1.079-1.417-1.079h-1.469V229.048z M357.947,230.167v2.34h1.716
				c0.45,0,0.797-0.104,1.04-0.312c0.242-0.208,0.364-0.494,0.364-0.858c0-0.364-0.122-0.65-0.364-0.858
				c-0.243-0.208-0.59-0.312-1.04-0.312H357.947z"/>
			<path fill="#FFFFFF" d="M365.475,225.694v7.982h-1.353v-7.982H365.475z"/>
			<path fill="#FFFFFF" d="M373.988,225.694v7.982h-1.04l-4.082-5.811v5.811h-1.3v-7.982h1.274l3.848,5.538v-5.538H373.988z"/>
			<path fill="#FFFFFF" d="M378.526,225.694h1.3l3.068,7.982h-1.378l-0.819-2.21h-3.055l-0.819,2.21h-1.365L378.526,225.694z
				 M379.163,227.345l-1.092,2.951h2.184L379.163,227.345z"/>
			<path fill="#FFFFFF" d="M386.677,230.439h-0.962v3.237h-1.353v-7.982h3.081c0.841,0,1.504,0.206,1.989,0.618
				s0.728,1.003,0.728,1.774c0,0.659-0.18,1.181-0.539,1.566s-0.86,0.63-1.502,0.734l2.314,3.289h-1.534L386.677,230.439z
				 M385.715,226.864v2.444h1.703c0.441,0,0.786-0.11,1.033-0.332c0.247-0.221,0.37-0.518,0.37-0.89s-0.123-0.669-0.37-0.891
				s-0.592-0.332-1.033-0.332H385.715z"/>
			<path fill="#FFFFFF" d="M393.255,225.694v7.982h-1.353v-7.982H393.255z"/>
			<path fill="#FFFFFF" d="M395.348,225.694h5.213v1.196h-3.887v2.106h3.523v1.183h-3.523v2.288h3.887v1.209h-5.213V225.694z"/>
			<path fill="#FFFFFF" d="M401.73,231.466h1.378c0.252,0.797,0.854,1.196,1.808,1.196c0.468,0,0.843-0.106,1.124-0.318
				s0.423-0.5,0.423-0.864c0-0.286-0.089-0.514-0.267-0.683s-0.475-0.301-0.891-0.396l-1.352-0.325
				c-1.326-0.312-1.989-1.027-1.989-2.145c0-0.685,0.253-1.25,0.761-1.696c0.507-0.446,1.158-0.669,1.956-0.669
				c0.841,0,1.519,0.197,2.034,0.591c0.516,0.395,0.848,0.934,0.995,1.619h-1.353c-0.251-0.71-0.806-1.066-1.664-1.066
				c-0.433,0-0.782,0.102-1.046,0.305c-0.265,0.204-0.396,0.47-0.396,0.8c0,0.528,0.351,0.875,1.053,1.04l1.391,0.325
				c0.65,0.147,1.157,0.408,1.521,0.78s0.546,0.849,0.546,1.43c0,0.737-0.265,1.324-0.793,1.762s-1.214,0.656-2.054,0.656
				c-0.85,0-1.559-0.206-2.126-0.617S401.869,232.203,401.73,231.466z"/>
		</g>
	</g>
	
		<line fill="none" stroke="#696C71" stroke-width="0.7445" stroke-miterlimit="10" x1="128.277" y1="87.993" x2="156.12" y2="87.993"/>
	
		<line fill="none" stroke="#696C71" stroke-width="0.6273" stroke-miterlimit="10" x1="284.507" y1="92.388" x2="309.476" y2="92.388"/>
	<g>
		<rect x="156.103" y="65.493" fill="#FFFFFF" width="130" height="45"/>
		<g>
			<g>
				<path fill="#696C71" d="M176.643,80.207c0.383,0.122,0.693,0.354,0.938,0.696c0.242,0.342,0.363,0.721,0.363,1.137
					c0,0.737-0.24,1.302-0.721,1.697c-0.482,0.394-1.143,0.591-1.982,0.591h-3.057v-7.982h2.795c0.85,0,1.514,0.187,1.99,0.559
					s0.715,0.91,0.715,1.612c0,0.416-0.098,0.776-0.293,1.079S176.947,80.103,176.643,80.207z M173.498,79.7h1.469
					c0.943,0,1.416-0.368,1.416-1.105c0-0.719-0.473-1.079-1.416-1.079h-1.469V79.7z M173.498,80.818v2.34h1.715
					c0.451,0,0.797-0.104,1.041-0.312c0.242-0.208,0.363-0.494,0.363-0.858c0-0.364-0.121-0.65-0.363-0.858
					c-0.244-0.208-0.59-0.312-1.041-0.312H173.498z"/>
				<path fill="#696C71" d="M182.117,76.346h1.299l3.068,7.982h-1.377l-0.82-2.21h-3.055l-0.818,2.21h-1.365L182.117,76.346z
					 M182.754,77.997l-1.092,2.951h2.184L182.754,77.997z"/>
				<path fill="#696C71" d="M187.953,84.328v-7.982h1.352v6.773h3.836v1.209H187.953z"/>
				<path fill="#696C71" d="M194.844,84.328v-7.982h1.352v6.773h3.836v1.209H194.844z"/>
				<path fill="#696C71" d="M201.732,76.346h5.213v1.196h-3.887v2.106h3.523v1.183h-3.523v2.288h3.887v1.209h-5.213V76.346z"/>
				<path fill="#696C71" d="M211.055,81.091h-0.963v3.237h-1.352v-7.982h3.08c0.842,0,1.504,0.206,1.99,0.618
					c0.484,0.412,0.727,1.003,0.727,1.774c0,0.659-0.18,1.181-0.539,1.566s-0.859,0.63-1.502,0.734l2.314,3.289h-1.533
					L211.055,81.091z M210.092,77.516v2.444h1.703c0.441,0,0.787-0.11,1.033-0.332c0.248-0.221,0.371-0.518,0.371-0.89
					s-0.123-0.669-0.371-0.891c-0.246-0.221-0.592-0.332-1.033-0.332H210.092z"/>
				<path fill="#696C71" d="M217.633,76.346v7.982h-1.354v-7.982H217.633z"/>
				<path fill="#696C71" d="M226.146,76.346v7.982h-1.041l-4.082-5.811v5.811h-1.299v-7.982h1.273l3.848,5.538v-5.538H226.146z"/>
				<path fill="#696C71" d="M230.684,76.346h1.301l3.068,7.982h-1.379l-0.818-2.21h-3.055l-0.82,2.21h-1.365L230.684,76.346z
					 M231.32,77.997l-1.092,2.951h2.184L231.32,77.997z"/>
				<path fill="#696C71" d="M239.719,84.328v-7.982h1.352v6.773h3.836v1.209H239.719z"/>
				<path fill="#696C71" d="M249.053,76.346h1.299l3.068,7.982h-1.377l-0.82-2.21h-3.055l-0.818,2.21h-1.365L249.053,76.346z
					 M249.689,77.997l-1.092,2.951h2.184L249.689,77.997z"/>
				<path fill="#696C71" d="M261.311,76.346v7.982h-1.039l-4.082-5.811v5.811h-1.301v-7.982h1.275l3.848,5.538v-5.538H261.311z"/>
				<path fill="#696C71" d="M268.838,81.364h-1.742v-1.157h3.029v0.624c0,1.092-0.318,1.97-0.955,2.633
					c-0.637,0.663-1.449,0.994-2.438,0.994c-1.084,0-1.98-0.383-2.691-1.15s-1.066-1.757-1.066-2.971
					c0-1.213,0.354-2.203,1.061-2.97c0.705-0.767,1.588-1.15,2.645-1.15c0.893,0,1.623,0.234,2.191,0.702
					c0.566,0.468,0.93,1.11,1.084,1.924h-1.352c-0.174-0.459-0.408-0.808-0.707-1.047c-0.301-0.238-0.705-0.357-1.217-0.357
					c-0.701,0-1.268,0.271-1.695,0.812c-0.43,0.542-0.645,1.237-0.645,2.086c0,0.858,0.217,1.56,0.65,2.106
					c0.434,0.546,1.014,0.819,1.742,0.819c0.588,0,1.066-0.171,1.43-0.514C268.525,82.406,268.752,81.945,268.838,81.364z"/>
				<path fill="#696C71" d="M199.197,97.118h1.379c0.252,0.797,0.854,1.196,1.807,1.196c0.469,0,0.844-0.106,1.125-0.318
					s0.422-0.5,0.422-0.864c0-0.286-0.088-0.514-0.266-0.683s-0.475-0.301-0.891-0.396l-1.352-0.325
					c-1.326-0.312-1.99-1.027-1.99-2.145c0-0.685,0.254-1.25,0.762-1.696c0.506-0.446,1.158-0.669,1.955-0.669
					c0.842,0,1.52,0.197,2.035,0.591c0.516,0.395,0.848,0.934,0.994,1.619h-1.352c-0.252-0.71-0.807-1.066-1.664-1.066
					c-0.434,0-0.783,0.102-1.047,0.305s-0.396,0.47-0.396,0.8c0,0.528,0.352,0.875,1.053,1.04l1.391,0.325
					c0.65,0.147,1.158,0.408,1.521,0.78c0.365,0.373,0.547,0.849,0.547,1.43c0,0.737-0.266,1.324-0.793,1.762
					c-0.529,0.438-1.215,0.656-2.055,0.656c-0.85,0-1.559-0.206-2.125-0.617C199.689,98.429,199.336,97.855,199.197,97.118z"/>
				<path fill="#696C71" d="M206.895,91.346h5.213v1.196h-3.887v2.106h3.523v1.183h-3.523v2.288h3.887v1.209h-5.213V91.346z"/>
				<path fill="#696C71" d="M216.215,96.091h-0.961v3.237H213.9v-7.982h3.082c0.84,0,1.504,0.206,1.988,0.618
					c0.486,0.412,0.729,1.003,0.729,1.774c0,0.659-0.18,1.181-0.539,1.566s-0.861,0.63-1.502,0.734l2.314,3.289h-1.535
					L216.215,96.091z M215.254,92.516v2.444h1.703c0.441,0,0.785-0.11,1.033-0.332c0.246-0.221,0.369-0.518,0.369-0.89
					s-0.123-0.669-0.369-0.891c-0.248-0.221-0.592-0.332-1.033-0.332H215.254z"/>
				<path fill="#696C71" d="M225.121,99.328h-1.287l-3.018-7.982h1.418l2.262,6.227l2.262-6.227h1.379L225.121,99.328z"/>
				<path fill="#696C71" d="M229.605,91.346h5.213v1.196h-3.887v2.106h3.523v1.183h-3.523v2.288h3.887v1.209h-5.213V91.346z"/>
				<path fill="#696C71" d="M238.926,96.091h-0.961v3.237h-1.354v-7.982h3.082c0.84,0,1.504,0.206,1.988,0.618
					c0.486,0.412,0.729,1.003,0.729,1.774c0,0.659-0.18,1.181-0.539,1.566s-0.861,0.63-1.502,0.734l2.314,3.289h-1.535
					L238.926,96.091z M237.965,92.516v2.444h1.703c0.441,0,0.785-0.11,1.033-0.332c0.246-0.221,0.369-0.518,0.369-0.89
					s-0.123-0.669-0.369-0.891c-0.248-0.221-0.592-0.332-1.033-0.332H237.965z"/>
			</g>
		</g>
	</g>
	<g>
		<rect x="307.879" y="65.7" fill="#FFFFFF" width="130" height="44.586"/>
		<g>
			<g>
				<path fill="#696C71" d="M346.054,80.208c0.382,0.122,0.693,0.354,0.937,0.696c0.242,0.342,0.363,0.721,0.363,1.137
					c0,0.737-0.24,1.302-0.721,1.697c-0.481,0.394-1.143,0.591-1.982,0.591h-3.056v-7.982h2.795c0.85,0,1.513,0.187,1.989,0.559
					s0.715,0.91,0.715,1.612c0,0.416-0.098,0.776-0.292,1.079C346.606,79.9,346.357,80.104,346.054,80.208z M342.908,79.701h1.469
					c0.944,0,1.417-0.368,1.417-1.105c0-0.719-0.473-1.079-1.417-1.079h-1.469V79.701z M342.908,80.819v2.34h1.716
					c0.45,0,0.797-0.104,1.04-0.312c0.242-0.208,0.364-0.494,0.364-0.858c0-0.364-0.122-0.65-0.364-0.858
					c-0.243-0.208-0.59-0.312-1.04-0.312H342.908z"/>
				<path fill="#696C71" d="M351.527,76.347h1.3l3.068,7.982h-1.378l-0.819-2.21h-3.055l-0.819,2.21h-1.365L351.527,76.347z
					 M352.164,77.998l-1.092,2.951h2.184L352.164,77.998z"/>
				<path fill="#696C71" d="M357.363,84.329v-7.982h1.353v6.773h3.835v1.209H357.363z"/>
				<path fill="#696C71" d="M364.254,84.329v-7.982h1.353v6.773h3.835v1.209H364.254z"/>
				<path fill="#696C71" d="M371.144,76.347h5.213v1.196h-3.887v2.106h3.523v1.183h-3.523v2.288h3.887v1.209h-5.213V76.347z"/>
				<path fill="#696C71" d="M380.465,81.092h-0.962v3.237h-1.353v-7.982h3.081c0.841,0,1.504,0.206,1.989,0.618
					s0.728,1.003,0.728,1.774c0,0.659-0.18,1.181-0.539,1.566s-0.86,0.63-1.502,0.734l2.314,3.289h-1.534L380.465,81.092z
					 M379.503,77.517v2.444h1.703c0.441,0,0.786-0.11,1.033-0.332c0.247-0.221,0.37-0.518,0.37-0.89s-0.123-0.669-0.37-0.891
					s-0.592-0.332-1.033-0.332H379.503z"/>
				<path fill="#696C71" d="M387.043,76.347v7.982h-1.353v-7.982H387.043z"/>
				<path fill="#696C71" d="M395.557,76.347v7.982h-1.04l-4.082-5.811v5.811h-1.3v-7.982h1.274l3.848,5.538v-5.538H395.557z"/>
				<path fill="#696C71" d="M400.095,76.347h1.3l3.068,7.982h-1.378l-0.819-2.21h-3.055l-0.819,2.21h-1.365L400.095,76.347z
					 M400.731,77.998l-1.092,2.951h2.184L400.731,77.998z"/>
				<path fill="#696C71" d="M342.213,98.308c-0.688-0.767-1.033-1.757-1.033-2.971c0-1.213,0.345-2.203,1.033-2.97
					c0.689-0.767,1.554-1.15,2.594-1.15c0.884,0,1.607,0.236,2.171,0.708c0.563,0.472,0.923,1.116,1.079,1.93h-1.326
					c-0.347-0.944-0.988-1.417-1.924-1.417c-0.693,0-1.244,0.271-1.651,0.812c-0.407,0.542-0.61,1.237-0.61,2.086
					c0,0.85,0.203,1.545,0.61,2.087s0.958,0.812,1.651,0.812c0.936,0,1.577-0.477,1.924-1.43h1.326
					c-0.156,0.823-0.516,1.471-1.079,1.943c-0.563,0.473-1.287,0.708-2.171,0.708C343.767,99.458,342.902,99.075,342.213,98.308z"/>
				<path fill="#696C71" d="M355.597,92.38c0.693,0.776,1.04,1.762,1.04,2.958c0,1.196-0.347,2.182-1.04,2.958
					c-0.693,0.776-1.577,1.164-2.652,1.164c-1.074,0-1.956-0.388-2.646-1.164c-0.688-0.775-1.033-1.761-1.033-2.958
					c0-1.196,0.345-2.182,1.033-2.958c0.689-0.775,1.571-1.163,2.646-1.163C354.02,91.217,354.903,91.604,355.597,92.38z
					 M354.628,97.431c0.429-0.546,0.644-1.244,0.644-2.093c0-0.849-0.215-1.547-0.644-2.093s-0.99-0.819-1.684-0.819
					s-1.252,0.271-1.677,0.812s-0.637,1.241-0.637,2.099c0,0.858,0.212,1.558,0.637,2.1c0.425,0.542,0.983,0.812,1.677,0.812
					S354.199,97.977,354.628,97.431z"/>
				<path fill="#696C71" d="M362.746,99.329h-0.962l-2.197-5.551v5.551H358.3v-7.982h1.547l2.432,6.136l2.404-6.136h1.509v7.982
					h-1.301v-5.551L362.746,99.329z"/>
				<path fill="#696C71" d="M371.365,96.352h-1.729v2.977h-1.353v-7.982h3.081c0.841,0,1.506,0.217,1.996,0.65
					c0.489,0.434,0.734,1.053,0.734,1.859c0,0.798-0.245,1.413-0.734,1.846C372.871,96.135,372.206,96.352,371.365,96.352z
					 M372.757,93.855c0-0.407-0.122-0.732-0.364-0.975c-0.243-0.242-0.594-0.364-1.053-0.364h-1.703v2.665h1.703
					c0.45,0,0.799-0.121,1.046-0.364C372.633,94.575,372.757,94.254,372.757,93.855z"/>
				<path fill="#696C71" d="M381.597,92.38c0.693,0.776,1.04,1.762,1.04,2.958c0,1.196-0.347,2.182-1.04,2.958
					c-0.693,0.776-1.577,1.164-2.652,1.164c-1.074,0-1.956-0.388-2.646-1.164c-0.688-0.775-1.033-1.761-1.033-2.958
					c0-1.196,0.345-2.182,1.033-2.958c0.689-0.775,1.571-1.163,2.646-1.163C380.02,91.217,380.903,91.604,381.597,92.38z
					 M380.628,97.431c0.429-0.546,0.644-1.244,0.644-2.093c0-0.849-0.215-1.547-0.644-2.093s-0.99-0.819-1.684-0.819
					s-1.252,0.271-1.677,0.812s-0.637,1.241-0.637,2.099c0,0.858,0.212,1.558,0.637,2.1c0.425,0.542,0.983,0.812,1.677,0.812
					S380.199,97.977,380.628,97.431z"/>
				<path fill="#696C71" d="M383.676,97.119h1.378c0.252,0.797,0.854,1.196,1.808,1.196c0.468,0,0.843-0.106,1.124-0.318
					s0.423-0.5,0.423-0.864c0-0.286-0.089-0.514-0.267-0.683s-0.475-0.301-0.891-0.396l-1.352-0.325
					c-1.326-0.312-1.989-1.027-1.989-2.145c0-0.685,0.253-1.25,0.761-1.696c0.507-0.446,1.158-0.669,1.956-0.669
					c0.841,0,1.519,0.197,2.034,0.591c0.516,0.395,0.848,0.934,0.995,1.619h-1.353c-0.251-0.71-0.806-1.066-1.664-1.066
					c-0.433,0-0.782,0.102-1.046,0.305c-0.265,0.204-0.396,0.47-0.396,0.8c0,0.528,0.351,0.875,1.053,1.04l1.391,0.325
					c0.65,0.147,1.157,0.408,1.521,0.78s0.546,0.849,0.546,1.43c0,0.737-0.265,1.324-0.793,1.762s-1.214,0.656-2.054,0.656
					c-0.85,0-1.559-0.206-2.126-0.617S383.814,97.855,383.676,97.119z"/>
				<path fill="#696C71" d="M391.372,91.347h5.213v1.196h-3.887v2.106h3.523v1.183h-3.523v2.288h3.887v1.209h-5.213V91.347z"/>
				<path fill="#696C71" d="M400.693,96.092h-0.962v3.237h-1.353v-7.982h3.081c0.841,0,1.504,0.206,1.989,0.618
					s0.728,1.003,0.728,1.774c0,0.659-0.18,1.181-0.539,1.566s-0.86,0.63-1.502,0.734l2.314,3.289h-1.534L400.693,96.092z
					 M399.731,92.517v2.444h1.703c0.441,0,0.786-0.11,1.033-0.332c0.247-0.221,0.37-0.518,0.37-0.89s-0.123-0.669-0.37-0.891
					s-0.592-0.332-1.033-0.332H399.731z"/>
			</g>
		</g>
	</g>
	<g>
		<rect x="156.103" y="129.341" fill="#3FBFBB" width="281.776" height="25"/>
		<g>
			<path fill="#FFFFFF" d="M242.438,145.507c-0.169-0.173-0.254-0.386-0.254-0.637c0-0.251,0.085-0.463,0.254-0.637
				s0.379-0.26,0.63-0.26s0.462,0.087,0.631,0.26s0.253,0.386,0.253,0.637c0,0.251-0.084,0.464-0.253,0.637s-0.38,0.26-0.631,0.26
				S242.606,145.681,242.438,145.507z"/>
			<path fill="#FFFFFF" d="M250.035,141.555c0.382,0.122,0.693,0.354,0.937,0.696c0.242,0.342,0.363,0.721,0.363,1.137
				c0,0.737-0.24,1.302-0.721,1.697c-0.481,0.394-1.143,0.591-1.982,0.591h-3.056v-7.982h2.795c0.85,0,1.513,0.187,1.989,0.559
				s0.715,0.91,0.715,1.612c0,0.416-0.098,0.776-0.292,1.079C250.588,141.248,250.339,141.451,250.035,141.555z M246.89,141.048
				h1.469c0.944,0,1.417-0.368,1.417-1.105c0-0.719-0.473-1.079-1.417-1.079h-1.469V141.048z M246.89,142.167v2.34h1.716
				c0.45,0,0.797-0.104,1.04-0.312c0.242-0.208,0.364-0.494,0.364-0.858c0-0.364-0.122-0.65-0.364-0.858
				c-0.243-0.208-0.59-0.312-1.04-0.312H246.89z"/>
			<path fill="#FFFFFF" d="M255.509,137.694h1.3l3.068,7.982h-1.378l-0.819-2.21h-3.055l-0.819,2.21h-1.365L255.509,137.694z
				 M256.146,139.345l-1.092,2.951h2.184L256.146,139.345z"/>
			<path fill="#FFFFFF" d="M261.346,145.676v-7.982h1.353v6.773h3.835v1.209H261.346z"/>
			<path fill="#FFFFFF" d="M270.809,143.466h1.378c0.252,0.797,0.854,1.196,1.808,1.196c0.468,0,0.843-0.106,1.124-0.318
				s0.423-0.5,0.423-0.864c0-0.286-0.089-0.514-0.267-0.683s-0.475-0.301-0.891-0.396l-1.352-0.325
				c-1.326-0.312-1.989-1.027-1.989-2.145c0-0.685,0.253-1.25,0.761-1.696c0.507-0.446,1.158-0.669,1.956-0.669
				c0.841,0,1.519,0.197,2.034,0.591c0.516,0.395,0.848,0.934,0.995,1.619h-1.353c-0.251-0.71-0.806-1.066-1.664-1.066
				c-0.433,0-0.782,0.102-1.046,0.305c-0.265,0.204-0.396,0.47-0.396,0.8c0,0.528,0.351,0.875,1.053,1.04l1.391,0.325
				c0.65,0.147,1.157,0.408,1.521,0.78s0.546,0.849,0.546,1.43c0,0.737-0.265,1.324-0.793,1.762s-1.214,0.656-2.054,0.656
				c-0.85,0-1.559-0.206-2.126-0.617S270.947,144.203,270.809,143.466z"/>
			<path fill="#FFFFFF" d="M284.407,138.728c0.693,0.776,1.04,1.762,1.04,2.958c0,1.196-0.347,2.182-1.04,2.958
				c-0.693,0.776-1.577,1.164-2.652,1.164c-1.074,0-1.956-0.388-2.646-1.164c-0.688-0.775-1.033-1.761-1.033-2.958
				c0-1.196,0.345-2.182,1.033-2.958c0.689-0.775,1.571-1.163,2.646-1.163C282.83,137.564,283.714,137.952,284.407,138.728z
				 M283.438,143.778c0.429-0.546,0.644-1.244,0.644-2.093c0-0.849-0.215-1.547-0.644-2.093s-0.99-0.819-1.684-0.819
				s-1.252,0.271-1.677,0.812s-0.637,1.241-0.637,2.099c0,0.858,0.212,1.558,0.637,2.1c0.425,0.542,0.983,0.812,1.677,0.812
				S283.01,144.324,283.438,143.778z"/>
			<path fill="#FFFFFF" d="M292.513,144.955c-0.576,0.568-1.354,0.852-2.333,0.852s-1.758-0.284-2.334-0.852
				c-0.576-0.567-0.864-1.389-0.864-2.463v-4.797h1.353v4.654c0,1.5,0.615,2.249,1.846,2.249s1.846-0.75,1.846-2.249v-4.654h1.353
				v4.81C293.378,143.57,293.089,144.387,292.513,144.955z"/>
			<path fill="#FFFFFF" d="M297.654,142.439h-0.962v3.237h-1.353v-7.982h3.081c0.841,0,1.504,0.206,1.989,0.618
				s0.728,1.003,0.728,1.774c0,0.659-0.18,1.181-0.539,1.566s-0.86,0.63-1.502,0.734l2.314,3.289h-1.534L297.654,142.439z
				 M296.692,138.864v2.444h1.703c0.441,0,0.786-0.11,1.033-0.332c0.247-0.221,0.37-0.518,0.37-0.89s-0.123-0.669-0.37-0.891
				s-0.592-0.332-1.033-0.332H296.692z"/>
			<path fill="#FFFFFF" d="M303.484,144.656c-0.688-0.767-1.033-1.757-1.033-2.971c0-1.213,0.345-2.203,1.033-2.97
				c0.689-0.767,1.554-1.15,2.594-1.15c0.884,0,1.607,0.236,2.171,0.708c0.563,0.472,0.923,1.116,1.079,1.93h-1.326
				c-0.347-0.944-0.988-1.417-1.924-1.417c-0.693,0-1.244,0.271-1.651,0.812c-0.407,0.542-0.61,1.237-0.61,2.086
				c0,0.85,0.203,1.545,0.61,2.087s0.958,0.812,1.651,0.812c0.936,0,1.577-0.477,1.924-1.43h1.326
				c-0.156,0.823-0.516,1.471-1.079,1.943c-0.563,0.473-1.287,0.708-2.171,0.708C305.038,145.806,304.174,145.423,303.484,144.656z"
				/>
			<path fill="#FFFFFF" d="M310.966,137.694h5.213v1.196h-3.887v2.106h3.523v1.183h-3.523v2.288h3.887v1.209h-5.213V137.694z"/>
			<path fill="#FFFFFF" d="M321.774,144.656c-0.688-0.767-1.033-1.757-1.033-2.971c0-1.213,0.345-2.203,1.033-2.97
				c0.689-0.767,1.554-1.15,2.594-1.15c0.884,0,1.607,0.236,2.171,0.708c0.563,0.472,0.923,1.116,1.079,1.93h-1.326
				c-0.347-0.944-0.988-1.417-1.924-1.417c-0.693,0-1.244,0.271-1.651,0.812c-0.407,0.542-0.61,1.237-0.61,2.086
				c0,0.85,0.203,1.545,0.61,2.087s0.958,0.812,1.651,0.812c0.936,0,1.577-0.477,1.924-1.43h1.326
				c-0.156,0.823-0.516,1.471-1.079,1.943c-0.563,0.473-1.287,0.708-2.171,0.708C323.328,145.806,322.464,145.423,321.774,144.656z"
				/>
			<path fill="#FFFFFF" d="M335.158,138.728c0.693,0.776,1.04,1.762,1.04,2.958c0,1.196-0.347,2.182-1.04,2.958
				c-0.693,0.776-1.577,1.164-2.652,1.164c-1.074,0-1.956-0.388-2.646-1.164c-0.688-0.775-1.033-1.761-1.033-2.958
				c0-1.196,0.345-2.182,1.033-2.958c0.689-0.775,1.571-1.163,2.646-1.163C333.581,137.564,334.465,137.952,335.158,138.728z
				 M334.189,143.778c0.429-0.546,0.644-1.244,0.644-2.093c0-0.849-0.215-1.547-0.644-2.093s-0.99-0.819-1.684-0.819
				s-1.252,0.271-1.677,0.812s-0.637,1.241-0.637,2.099c0,0.858,0.212,1.558,0.637,2.1c0.425,0.542,0.983,0.812,1.677,0.812
				S333.761,144.324,334.189,143.778z"/>
			<path fill="#FFFFFF" d="M337.862,145.676v-7.982h2.691c1.179,0,2.119,0.362,2.821,1.085c0.701,0.724,1.053,1.692,1.053,2.905
				c0,1.214-0.352,2.182-1.053,2.906c-0.702,0.724-1.643,1.085-2.821,1.085H337.862z M339.215,144.467h1.287
				c0.823,0,1.458-0.247,1.904-0.741c0.446-0.494,0.669-1.174,0.669-2.041c0-0.866-0.223-1.549-0.669-2.047
				c-0.446-0.498-1.081-0.748-1.904-0.748h-1.287V144.467z"/>
			<path fill="#FFFFFF" d="M346.091,137.694h5.213v1.196h-3.887v2.106h3.523v1.183h-3.523v2.288h3.887v1.209h-5.213V137.694z"/>
		</g>
	</g>
	
		<line fill="none" stroke="#696C71" stroke-width="0.7445" stroke-miterlimit="10" x1="128.277" y1="273.841" x2="158.026" y2="273.841"/>
	<g>
		<rect x="155.759" y="261.341" fill="#FFFFFF" width="281.775" height="25"/>
		<g>
			<g>
				<path fill="#696C71" d="M264.842,270.89v-1.195h6.656v1.195h-2.652v6.786h-1.352v-6.786H264.842z"/>
				<path fill="#696C71" d="M273.098,269.695h5.213v1.195h-3.887v2.105h3.523v1.184h-3.523v2.288h3.887v1.209h-5.213V269.695z"/>
				<path fill="#696C71" d="M279.48,275.466h1.377c0.252,0.797,0.854,1.195,1.809,1.195c0.467,0,0.842-0.105,1.123-0.318
					c0.281-0.212,0.424-0.5,0.424-0.863c0-0.287-0.09-0.514-0.268-0.684c-0.178-0.168-0.475-0.301-0.891-0.396l-1.352-0.324
					c-1.326-0.312-1.988-1.027-1.988-2.146c0-0.685,0.252-1.25,0.76-1.696s1.158-0.67,1.957-0.67c0.84,0,1.518,0.197,2.033,0.592
					s0.848,0.934,0.996,1.619h-1.354c-0.25-0.711-0.805-1.066-1.664-1.066c-0.432,0-0.781,0.102-1.045,0.305
					c-0.266,0.204-0.396,0.471-0.396,0.801c0,0.527,0.35,0.875,1.053,1.039l1.391,0.325c0.65,0.147,1.156,0.407,1.521,0.78
					c0.363,0.373,0.545,0.85,0.545,1.43c0,0.736-0.264,1.324-0.793,1.762c-0.527,0.438-1.213,0.656-2.053,0.656
					c-0.85,0-1.559-0.206-2.127-0.617C279.973,276.777,279.619,276.203,279.48,275.466z"/>
				<path fill="#696C71" d="M286.682,270.89v-1.195h6.656v1.195h-2.652v6.786h-1.352v-6.786H286.682z"/>
				<path fill="#696C71" d="M294.938,269.695h5.213v1.195h-3.887v2.105h3.523v1.184h-3.523v2.288h3.887v1.209h-5.213V269.695z"/>
				<path fill="#696C71" d="M304.258,274.439h-0.961v3.237h-1.354v-7.981h3.082c0.84,0,1.504,0.205,1.988,0.617
					c0.486,0.412,0.729,1.003,0.729,1.774c0,0.659-0.18,1.181-0.539,1.566s-0.861,0.63-1.502,0.734l2.314,3.289h-1.535
					L304.258,274.439z M303.297,270.865v2.443H305c0.441,0,0.785-0.11,1.033-0.332c0.246-0.221,0.369-0.518,0.369-0.89
					s-0.123-0.669-0.369-0.891c-0.248-0.222-0.592-0.331-1.033-0.331H303.297z"/>
				<path fill="#696C71" d="M310.836,269.695v7.981h-1.352v-7.981H310.836z"/>
				<path fill="#696C71" d="M319.352,269.695v7.981h-1.041l-4.082-5.812v5.812h-1.299v-7.981h1.273l3.848,5.537v-5.537H319.352z"/>
				<path fill="#696C71" d="M323.889,269.695h1.299l3.068,7.981h-1.377l-0.82-2.21h-3.055l-0.818,2.21h-1.365L323.889,269.695z
					 M324.525,271.345l-1.092,2.951h2.184L324.525,271.345z"/>
			</g>
		</g>
	</g>
	<g>
		<rect x="156.103" y="305.341" fill="#FFFFFF" width="281.776" height="25"/>
		<g>
			<path fill="#595B5F" d="M251.426,317.556c0.383,0.121,0.693,0.354,0.938,0.695c0.242,0.342,0.363,0.721,0.363,1.137
				c0,0.738-0.24,1.303-0.721,1.697c-0.482,0.395-1.143,0.592-1.982,0.592h-3.057v-7.982h2.795c0.85,0,1.514,0.186,1.99,0.559
				s0.715,0.91,0.715,1.613c0,0.416-0.098,0.775-0.293,1.078S251.73,317.453,251.426,317.556z M248.281,317.048h1.469
				c0.943,0,1.416-0.367,1.416-1.105c0-0.719-0.473-1.078-1.416-1.078h-1.469V317.048z M248.281,318.167v2.34h1.715
				c0.451,0,0.797-0.105,1.041-0.312c0.242-0.209,0.363-0.494,0.363-0.857c0-0.365-0.121-0.65-0.363-0.859
				c-0.244-0.207-0.59-0.311-1.041-0.311H248.281z"/>
			<path fill="#595B5F" d="M256.9,313.695h1.299l3.068,7.982h-1.377l-0.82-2.211h-3.055l-0.818,2.211h-1.365L256.9,313.695z
				 M257.537,315.345l-1.092,2.951h2.184L257.537,315.345z"/>
			<path fill="#595B5F" d="M262.736,321.677v-7.982h1.352v6.773h3.836v1.209H262.736z"/>
			<path fill="#595B5F" d="M269.627,321.677v-7.982h1.352v6.773h3.836v1.209H269.627z"/>
			<path fill="#595B5F" d="M276.516,313.695h5.213v1.195h-3.887v2.107h3.523v1.182h-3.523v2.289h3.887v1.209h-5.213V313.695z"/>
			<path fill="#595B5F" d="M285.838,318.439h-0.963v3.238h-1.352v-7.982h3.08c0.842,0,1.504,0.205,1.99,0.617
				c0.484,0.412,0.727,1.004,0.727,1.775c0,0.658-0.18,1.18-0.539,1.566c-0.359,0.385-0.859,0.631-1.502,0.734l2.314,3.289h-1.533
				L285.838,318.439z M284.875,314.865v2.443h1.703c0.441,0,0.787-0.109,1.033-0.33c0.248-0.223,0.371-0.518,0.371-0.891
				s-0.123-0.67-0.371-0.891c-0.246-0.221-0.592-0.332-1.033-0.332H284.875z"/>
			<path fill="#595B5F" d="M292.416,313.695v7.982h-1.354v-7.982H292.416z"/>
			<path fill="#595B5F" d="M300.93,313.695v7.982h-1.041l-4.082-5.811v5.811h-1.299v-7.982h1.273l3.848,5.537v-5.537H300.93z"/>
			<path fill="#595B5F" d="M305.467,313.695h1.301l3.068,7.982h-1.379l-0.818-2.211h-3.055l-0.82,2.211h-1.365L305.467,313.695z
				 M306.104,315.345l-1.092,2.951h2.184L306.104,315.345z"/>
			<path fill="#595B5F" d="M318.961,317.556c0.381,0.121,0.693,0.354,0.936,0.695s0.363,0.721,0.363,1.137
				c0,0.738-0.24,1.303-0.721,1.697s-1.143,0.592-1.982,0.592h-3.055v-7.982h2.795c0.85,0,1.512,0.186,1.988,0.559
				s0.715,0.91,0.715,1.613c0,0.416-0.098,0.775-0.291,1.078C319.514,317.248,319.264,317.453,318.961,317.556z M315.814,317.048
				h1.469c0.945,0,1.418-0.367,1.418-1.105c0-0.719-0.473-1.078-1.418-1.078h-1.469V317.048z M315.814,318.167v2.34h1.717
				c0.449,0,0.797-0.105,1.039-0.312c0.242-0.209,0.365-0.494,0.365-0.857c0-0.365-0.123-0.65-0.365-0.859
				c-0.242-0.207-0.59-0.311-1.039-0.311H315.814z"/>
			<path fill="#595B5F" d="M327.391,320.955c-0.576,0.568-1.354,0.852-2.332,0.852c-0.98,0-1.758-0.283-2.334-0.852
				c-0.576-0.566-0.865-1.389-0.865-2.463v-4.797h1.354v4.654c0,1.5,0.615,2.248,1.846,2.248s1.846-0.748,1.846-2.248v-4.654h1.352
				v4.811C328.256,319.57,327.967,320.388,327.391,320.955z"/>
			<path fill="#595B5F" d="M331.57,313.695v7.982h-1.352v-7.982H331.57z"/>
			<path fill="#595B5F" d="M333.662,321.677v-7.982h1.354v6.773h3.834v1.209H333.662z"/>
			<path fill="#595B5F" d="M340.553,321.677v-7.982h2.691c1.18,0,2.119,0.361,2.822,1.086c0.701,0.723,1.053,1.691,1.053,2.904
				c0,1.215-0.352,2.184-1.053,2.906c-0.703,0.725-1.643,1.086-2.822,1.086H340.553z M341.906,320.468h1.287
				c0.822,0,1.457-0.248,1.904-0.742c0.445-0.494,0.668-1.174,0.668-2.041c0-0.865-0.223-1.549-0.668-2.047
				c-0.447-0.498-1.082-0.748-1.904-0.748h-1.287V320.468z"/>
		</g>
	</g>
	<g>
		<rect x="156.103" y="349.341" fill="#3FBFBB" width="281.776" height="45"/>
		<g>
			<g>
				<path fill="#FFFFFF" d="M172.998,368.177v-7.982h2.691c1.18,0,2.119,0.361,2.822,1.086c0.701,0.723,1.053,1.691,1.053,2.904
					c0,1.215-0.352,2.184-1.053,2.906c-0.703,0.725-1.643,1.086-2.822,1.086H172.998z M174.352,366.968h1.287
					c0.822,0,1.457-0.248,1.904-0.742c0.445-0.494,0.668-1.174,0.668-2.041c0-0.865-0.223-1.549-0.668-2.047
					c-0.447-0.498-1.082-0.748-1.904-0.748h-1.287V366.968z"/>
				<path fill="#FFFFFF" d="M187.129,361.228c0.693,0.775,1.041,1.762,1.041,2.957c0,1.197-0.348,2.184-1.041,2.959
					s-1.576,1.162-2.652,1.162c-1.074,0-1.955-0.387-2.645-1.162s-1.033-1.762-1.033-2.959c0-1.195,0.344-2.182,1.033-2.957
					s1.57-1.164,2.645-1.164C185.553,360.064,186.436,360.453,187.129,361.228z M186.16,366.279c0.43-0.547,0.645-1.244,0.645-2.094
					c0-0.848-0.215-1.547-0.645-2.092c-0.428-0.547-0.99-0.82-1.684-0.82s-1.252,0.271-1.676,0.812
					c-0.426,0.543-0.637,1.242-0.637,2.1c0,0.859,0.211,1.559,0.637,2.1c0.424,0.543,0.982,0.812,1.676,0.812
					S185.732,366.826,186.16,366.279z"/>
				<path fill="#FFFFFF" d="M190.438,367.156c-0.688-0.766-1.033-1.756-1.033-2.971c0-1.213,0.346-2.203,1.033-2.971
					c0.689-0.766,1.555-1.15,2.594-1.15c0.885,0,1.607,0.236,2.172,0.709c0.562,0.473,0.922,1.117,1.078,1.932h-1.326
					c-0.346-0.945-0.988-1.418-1.924-1.418c-0.693,0-1.244,0.271-1.65,0.812c-0.408,0.541-0.611,1.238-0.611,2.086
					c0,0.85,0.203,1.545,0.611,2.088c0.406,0.541,0.957,0.812,1.65,0.812c0.936,0,1.578-0.477,1.924-1.432h1.326
					c-0.156,0.824-0.516,1.473-1.078,1.945c-0.564,0.471-1.287,0.707-2.172,0.707C191.992,368.306,191.127,367.923,190.438,367.156z
					"/>
				<path fill="#FFFFFF" d="M199.271,360.195v3.822l3.314-3.822h1.703l-3.223,3.627l3.34,4.355h-1.689l-2.627-3.42l-0.818,0.936
					v2.484h-1.352v-7.982H199.271z"/>
				<path fill="#FFFFFF" d="M205.811,360.195h5.213v1.195h-3.887v2.107h3.523v1.182h-3.523v2.289h3.887v1.209h-5.213V360.195z"/>
				<path fill="#FFFFFF" d="M215.131,364.939h-0.961v3.238h-1.354v-7.982h3.082c0.84,0,1.504,0.205,1.988,0.617
					c0.486,0.412,0.729,1.004,0.729,1.775c0,0.658-0.18,1.18-0.539,1.566c-0.359,0.385-0.861,0.631-1.502,0.734l2.314,3.289h-1.535
					L215.131,364.939z M214.17,361.365v2.443h1.703c0.441,0,0.785-0.109,1.033-0.33c0.246-0.223,0.369-0.518,0.369-0.891
					s-0.123-0.67-0.369-0.891c-0.248-0.221-0.592-0.332-1.033-0.332H214.17z"/>
				<path fill="#FFFFFF" d="M219.682,369.646l0.936-1.443c-0.217-0.035-0.393-0.125-0.527-0.273
					c-0.133-0.146-0.201-0.332-0.201-0.559c0-0.252,0.086-0.459,0.254-0.623c0.17-0.166,0.379-0.248,0.631-0.248
					c0.26,0,0.473,0.084,0.637,0.254c0.164,0.168,0.246,0.41,0.246,0.721c0,0.322-0.125,0.668-0.377,1.041l-0.754,1.131H219.682z"/>
				<path fill="#FFFFFF" d="M227.832,360.195v3.822l3.314-3.822h1.703l-3.223,3.627l3.34,4.355h-1.689l-2.627-3.42l-0.818,0.936
					v2.484h-1.352v-7.982H227.832z"/>
				<path fill="#FFFFFF" d="M239.771,367.455c-0.576,0.568-1.354,0.852-2.332,0.852c-0.98,0-1.758-0.283-2.334-0.852
					c-0.576-0.566-0.865-1.389-0.865-2.463v-4.797h1.354v4.654c0,1.5,0.615,2.248,1.846,2.248s1.846-0.748,1.846-2.248v-4.654h1.352
					v4.811C240.637,366.07,240.348,366.888,239.771,367.455z"/>
				<path fill="#FFFFFF" d="M247.059,364.056c0.381,0.121,0.693,0.354,0.936,0.695s0.363,0.721,0.363,1.137
					c0,0.738-0.24,1.303-0.721,1.697s-1.143,0.592-1.982,0.592H242.6v-7.982h2.795c0.85,0,1.512,0.186,1.988,0.559
					s0.715,0.91,0.715,1.613c0,0.416-0.098,0.775-0.291,1.078C247.611,363.748,247.361,363.953,247.059,364.056z M243.912,363.548
					h1.469c0.945,0,1.418-0.367,1.418-1.105c0-0.719-0.473-1.078-1.418-1.078h-1.469V363.548z M243.912,364.667v2.34h1.717
					c0.449,0,0.797-0.105,1.039-0.312c0.242-0.209,0.365-0.494,0.365-0.857c0-0.365-0.123-0.65-0.365-0.859
					c-0.242-0.207-0.59-0.311-1.039-0.311H243.912z"/>
				<path fill="#FFFFFF" d="M250.088,360.195h5.213v1.195h-3.887v2.107h3.523v1.182h-3.523v2.289h3.887v1.209h-5.213V360.195z"/>
				<path fill="#FFFFFF" d="M259.408,364.939h-0.961v3.238h-1.354v-7.982h3.082c0.84,0,1.504,0.205,1.988,0.617
					c0.486,0.412,0.729,1.004,0.729,1.775c0,0.658-0.18,1.18-0.539,1.566c-0.359,0.385-0.861,0.631-1.502,0.734l2.314,3.289h-1.535
					L259.408,364.939z M258.447,361.365v2.443h1.703c0.441,0,0.785-0.109,1.033-0.33c0.246-0.223,0.369-0.518,0.369-0.891
					s-0.123-0.67-0.369-0.891c-0.248-0.221-0.592-0.332-1.033-0.332H258.447z"/>
				<path fill="#FFFFFF" d="M271.057,360.195v7.982h-1.041l-4.082-5.811v5.811h-1.299v-7.982h1.273l3.848,5.537v-5.537H271.057z"/>
				<path fill="#FFFFFF" d="M273.148,360.195h5.213v1.195h-3.887v2.107h3.523v1.182h-3.523v2.289h3.887v1.209h-5.213V360.195z"/>
				<path fill="#FFFFFF" d="M279.662,361.39v-1.195h6.656v1.195h-2.652v6.787h-1.352v-6.787H279.662z"/>
				<path fill="#FFFFFF" d="M287.916,360.195h5.213v1.195h-3.887v2.107h3.523v1.182h-3.523v2.289h3.887v1.209h-5.213V360.195z"/>
				<path fill="#FFFFFF" d="M294.299,365.966h1.379c0.252,0.799,0.854,1.197,1.807,1.197c0.469,0,0.844-0.107,1.125-0.318
					c0.281-0.213,0.422-0.502,0.422-0.865c0-0.287-0.088-0.514-0.266-0.684c-0.178-0.168-0.475-0.301-0.891-0.396l-1.352-0.324
					c-1.326-0.312-1.99-1.027-1.99-2.145c0-0.686,0.254-1.25,0.762-1.697c0.506-0.445,1.158-0.67,1.955-0.67
					c0.842,0,1.52,0.197,2.035,0.592s0.848,0.934,0.994,1.619h-1.352c-0.252-0.711-0.807-1.066-1.664-1.066
					c-0.434,0-0.783,0.102-1.047,0.307c-0.264,0.203-0.396,0.469-0.396,0.799c0,0.529,0.352,0.875,1.053,1.039l1.391,0.326
					c0.65,0.146,1.158,0.406,1.521,0.779c0.365,0.373,0.547,0.85,0.547,1.43c0,0.738-0.266,1.324-0.793,1.762
					c-0.529,0.438-1.215,0.656-2.055,0.656c-0.85,0-1.559-0.205-2.125-0.617C294.791,367.277,294.438,366.703,294.299,365.966z"/>
				<path fill="#FFFFFF" d="M301.32,369.646l0.936-1.443c-0.217-0.035-0.393-0.125-0.527-0.273
					c-0.133-0.146-0.201-0.332-0.201-0.559c0-0.252,0.086-0.459,0.254-0.623c0.17-0.166,0.379-0.248,0.631-0.248
					c0.26,0,0.473,0.084,0.637,0.254c0.164,0.168,0.246,0.41,0.246,0.721c0,0.322-0.125,0.668-0.377,1.041l-0.754,1.131H301.32z"/>
				<path fill="#FFFFFF" d="M310.562,360.195h1.301l3.068,7.982h-1.379l-0.818-2.211h-3.055l-0.82,2.211h-1.365L310.562,360.195z
					 M311.199,361.845l-1.092,2.951h2.184L311.199,361.845z"/>
				<path fill="#FFFFFF" d="M322.82,360.195v7.982h-1.039l-4.082-5.811v5.811h-1.301v-7.982h1.275l3.848,5.537v-5.537H322.82z"/>
				<path fill="#FFFFFF" d="M324.914,368.177v-7.982h2.691c1.18,0,2.119,0.361,2.822,1.086c0.701,0.723,1.053,1.691,1.053,2.904
					c0,1.215-0.352,2.184-1.053,2.906c-0.703,0.725-1.643,1.086-2.822,1.086H324.914z M326.268,366.968h1.287
					c0.822,0,1.457-0.248,1.904-0.742c0.445-0.494,0.668-1.174,0.668-2.041c0-0.865-0.223-1.549-0.668-2.047
					c-0.447-0.498-1.082-0.748-1.904-0.748h-1.287V366.968z"/>
				<path fill="#FFFFFF" d="M336.945,367.156c-0.688-0.766-1.033-1.756-1.033-2.971c0-1.213,0.346-2.203,1.033-2.971
					c0.689-0.766,1.555-1.15,2.594-1.15c0.885,0,1.607,0.236,2.172,0.709c0.562,0.473,0.922,1.117,1.078,1.932h-1.326
					c-0.346-0.945-0.988-1.418-1.924-1.418c-0.693,0-1.244,0.271-1.65,0.812c-0.408,0.541-0.611,1.238-0.611,2.086
					c0,0.85,0.203,1.545,0.611,2.088c0.406,0.541,0.957,0.812,1.65,0.812c0.936,0,1.578-0.477,1.924-1.432h1.326
					c-0.156,0.824-0.516,1.473-1.078,1.945c-0.564,0.471-1.287,0.707-2.172,0.707C338.5,368.306,337.635,367.923,336.945,367.156z"
					/>
				<path fill="#FFFFFF" d="M344.426,368.177v-7.982h1.354v6.773h3.834v1.209H344.426z"/>
				<path fill="#FFFFFF" d="M357.219,361.228c0.693,0.775,1.041,1.762,1.041,2.957c0,1.197-0.348,2.184-1.041,2.959
					s-1.576,1.162-2.652,1.162c-1.074,0-1.955-0.387-2.645-1.162s-1.033-1.762-1.033-2.959c0-1.195,0.344-2.182,1.033-2.957
					s1.57-1.164,2.645-1.164C355.643,360.064,356.525,360.453,357.219,361.228z M356.25,366.279c0.43-0.547,0.645-1.244,0.645-2.094
					c0-0.848-0.215-1.547-0.645-2.092c-0.428-0.547-0.99-0.82-1.684-0.82s-1.252,0.271-1.676,0.812
					c-0.426,0.543-0.637,1.242-0.637,2.1c0,0.859,0.211,1.559,0.637,2.1c0.424,0.543,0.982,0.812,1.676,0.812
					S355.822,366.826,356.25,366.279z"/>
				<path fill="#FFFFFF" d="M365.324,367.455c-0.576,0.568-1.354,0.852-2.334,0.852c-0.979,0-1.758-0.283-2.334-0.852
					c-0.576-0.566-0.863-1.389-0.863-2.463v-4.797h1.352v4.654c0,1.5,0.615,2.248,1.846,2.248s1.846-0.748,1.846-2.248v-4.654h1.354
					v4.811C366.189,366.07,365.9,366.888,365.324,367.455z"/>
				<path fill="#FFFFFF" d="M368.15,368.177v-7.982h2.691c1.18,0,2.119,0.361,2.822,1.086c0.701,0.723,1.053,1.691,1.053,2.904
					c0,1.215-0.352,2.184-1.053,2.906c-0.703,0.725-1.643,1.086-2.822,1.086H368.15z M369.504,366.968h1.287
					c0.822,0,1.457-0.248,1.904-0.742c0.445-0.494,0.668-1.174,0.668-2.041c0-0.865-0.223-1.549-0.668-2.047
					c-0.447-0.498-1.082-0.748-1.904-0.748h-1.287V366.968z"/>
				<path fill="#FFFFFF" d="M386,360.195v7.982h-1.041l-4.082-5.811v5.811h-1.299v-7.982h1.273l3.848,5.537v-5.537H386z"/>
				<path fill="#FFFFFF" d="M390.537,360.195h1.301l3.068,7.982h-1.379l-0.818-2.211h-3.055l-0.82,2.211h-1.365L390.537,360.195z
					 M391.174,361.845l-1.092,2.951h2.184L391.174,361.845z"/>
				<path fill="#FFFFFF" d="M395.879,361.39v-1.195h6.656v1.195h-2.652v6.787h-1.352v-6.787H395.879z"/>
				<path fill="#FFFFFF" d="M405.488,360.195v7.982h-1.354v-7.982H405.488z"/>
				<path fill="#FFFFFF" d="M411.26,368.177h-1.287l-3.018-7.982h1.418l2.262,6.227l2.262-6.227h1.379L411.26,368.177z"/>
				<path fill="#FFFFFF" d="M415.744,360.195h5.213v1.195h-3.887v2.107h3.523v1.182h-3.523v2.289h3.887v1.209h-5.213V360.195z"/>
				<path fill="#FFFFFF" d="M222.561,383.177v-7.982h2.691c1.178,0,2.119,0.361,2.82,1.086c0.701,0.723,1.053,1.691,1.053,2.904
					c0,1.215-0.352,2.184-1.053,2.906c-0.701,0.725-1.643,1.086-2.82,1.086H222.561z M223.912,381.968h1.287
					c0.824,0,1.459-0.248,1.904-0.742c0.447-0.494,0.67-1.174,0.67-2.041c0-0.865-0.223-1.549-0.67-2.047
					c-0.445-0.498-1.08-0.748-1.904-0.748h-1.287V381.968z"/>
				<path fill="#FFFFFF" d="M230.789,375.195h5.213v1.195h-3.887v2.107h3.523v1.182h-3.523v2.289h3.887v1.209h-5.213V375.195z"/>
				<path fill="#FFFFFF" d="M240.877,380.201h-1.729v2.977h-1.354v-7.982h3.082c0.84,0,1.506,0.217,1.996,0.65
					c0.488,0.434,0.734,1.053,0.734,1.859c0,0.797-0.246,1.412-0.734,1.846C242.383,379.984,241.717,380.201,240.877,380.201z
					 M242.268,377.705c0-0.408-0.121-0.732-0.363-0.977c-0.244-0.242-0.594-0.363-1.053-0.363h-1.703v2.664h1.703
					c0.449,0,0.799-0.121,1.045-0.363C242.145,378.423,242.268,378.103,242.268,377.705z"/>
				<path fill="#FFFFFF" d="M245.205,383.177v-7.982h1.354v6.773h3.834v1.209H245.205z"/>
				<path fill="#FFFFFF" d="M257.998,376.228c0.693,0.775,1.039,1.762,1.039,2.957c0,1.197-0.346,2.184-1.039,2.959
					s-1.578,1.162-2.652,1.162s-1.957-0.387-2.646-1.162c-0.688-0.775-1.033-1.762-1.033-2.959c0-1.195,0.346-2.182,1.033-2.957
					c0.689-0.775,1.572-1.164,2.646-1.164S257.305,375.453,257.998,376.228z M257.029,381.279c0.428-0.547,0.643-1.244,0.643-2.094
					c0-0.848-0.215-1.547-0.643-2.092c-0.43-0.547-0.99-0.82-1.684-0.82s-1.252,0.271-1.678,0.812
					c-0.424,0.543-0.637,1.242-0.637,2.1c0,0.859,0.213,1.559,0.637,2.1c0.426,0.543,0.984,0.812,1.678,0.812
					S256.6,381.826,257.029,381.279z"/>
				<path fill="#FFFFFF" d="M263.602,378.769l2.105-3.574h1.43l-2.898,4.797v3.186h-1.34v-3.186l-2.885-4.797h1.469L263.602,378.769
					z"/>
				<path fill="#FFFFFF" d="M272.986,383.177h-0.961l-2.197-5.551v5.551h-1.287v-7.982h1.547l2.432,6.137l2.404-6.137h1.508v7.982
					h-1.301v-5.551L272.986,383.177z"/>
				<path fill="#FFFFFF" d="M278.523,375.195h5.213v1.195h-3.887v2.107h3.523v1.182h-3.523v2.289h3.887v1.209h-5.213V375.195z"/>
				<path fill="#FFFFFF" d="M291.953,375.195v7.982h-1.041l-4.082-5.811v5.811h-1.299v-7.982h1.273l3.848,5.537v-5.537H291.953z"/>
				<path fill="#FFFFFF" d="M293.553,376.39v-1.195h6.656v1.195h-2.652v6.787h-1.352v-6.787H293.553z"/>
				<path fill="#FFFFFF" d="M307.449,375.195h1.301l3.068,7.982h-1.379l-0.818-2.211h-3.055l-0.82,2.211h-1.365L307.449,375.195z
					 M308.086,376.845l-1.092,2.951h2.184L308.086,376.845z"/>
				<path fill="#FFFFFF" d="M315.6,379.939h-0.961v3.238h-1.354v-7.982h3.082c0.84,0,1.504,0.205,1.988,0.617
					c0.486,0.412,0.729,1.004,0.729,1.775c0,0.658-0.18,1.18-0.539,1.566c-0.359,0.385-0.861,0.631-1.502,0.734l2.314,3.289h-1.535
					L315.6,379.939z M314.639,376.365v2.443h1.703c0.441,0,0.785-0.109,1.033-0.33c0.246-0.223,0.369-0.518,0.369-0.891
					s-0.123-0.67-0.369-0.891c-0.248-0.221-0.592-0.332-1.033-0.332H314.639z"/>
				<path fill="#FFFFFF" d="M320.332,376.39v-1.195h6.656v1.195h-2.652v6.787h-1.352v-6.787H320.332z"/>
				<path fill="#FFFFFF" d="M329.939,375.195v7.982h-1.354v-7.982H329.939z"/>
				<path fill="#FFFFFF" d="M333.385,383.177h-1.354v-7.982h5.098v1.195h-3.744v2.367h3.496v1.182h-3.496V383.177z"/>
				<path fill="#FFFFFF" d="M341.236,375.195h1.299l3.068,7.982h-1.377l-0.82-2.211h-3.055l-0.818,2.211h-1.365L341.236,375.195z
					 M341.873,376.845l-1.092,2.951h2.184L341.873,376.845z"/>
				<path fill="#FFFFFF" d="M347.678,382.156c-0.689-0.766-1.033-1.756-1.033-2.971c0-1.213,0.344-2.203,1.033-2.971
					c0.689-0.766,1.553-1.15,2.594-1.15c0.883,0,1.607,0.236,2.17,0.709c0.564,0.473,0.924,1.117,1.08,1.932h-1.326
					c-0.348-0.945-0.988-1.418-1.924-1.418c-0.693,0-1.244,0.271-1.652,0.812c-0.406,0.541-0.609,1.238-0.609,2.086
					c0,0.85,0.203,1.545,0.609,2.088c0.408,0.541,0.959,0.812,1.652,0.812c0.936,0,1.576-0.477,1.924-1.432h1.326
					c-0.156,0.824-0.516,1.473-1.08,1.945c-0.562,0.471-1.287,0.707-2.17,0.707C349.23,383.306,348.367,382.923,347.678,382.156z"/>
				<path fill="#FFFFFF" d="M354.664,376.39v-1.195h6.656v1.195h-2.652v6.787h-1.352v-6.787H354.664z"/>
				<path fill="#FFFFFF" d="M362.295,380.966h1.379c0.252,0.799,0.854,1.197,1.807,1.197c0.469,0,0.844-0.107,1.125-0.318
					c0.281-0.213,0.422-0.502,0.422-0.865c0-0.287-0.088-0.514-0.266-0.684c-0.178-0.168-0.475-0.301-0.891-0.396l-1.352-0.324
					c-1.326-0.312-1.99-1.027-1.99-2.145c0-0.686,0.254-1.25,0.762-1.697c0.506-0.445,1.158-0.67,1.955-0.67
					c0.842,0,1.52,0.197,2.035,0.592s0.848,0.934,0.994,1.619h-1.352c-0.252-0.711-0.807-1.066-1.664-1.066
					c-0.434,0-0.783,0.102-1.047,0.307c-0.264,0.203-0.396,0.469-0.396,0.799c0,0.529,0.352,0.875,1.053,1.039l1.391,0.326
					c0.65,0.146,1.158,0.406,1.521,0.779c0.365,0.373,0.547,0.85,0.547,1.43c0,0.738-0.266,1.324-0.793,1.762
					c-0.529,0.438-1.215,0.656-2.055,0.656c-0.85,0-1.559-0.205-2.125-0.617C362.787,382.277,362.434,381.703,362.295,380.966z"/>
			</g>
		</g>
	</g>
	<g>
		<rect x="28.721" y="173.341" fill="#F5F6F6" width="98.852" height="42.351"/>
		<g>
			<g>
				<path fill="#696C71" d="M57.535,190.852h-1.287l-3.017-7.982h1.417l2.263,6.227l2.262-6.227h1.378L57.535,190.852z"/>
				<path fill="#696C71" d="M62.02,182.87h5.213v1.196h-3.887v2.106h3.523v1.183h-3.523v2.288h3.887v1.209H62.02V182.87z"/>
				<path fill="#696C71" d="M71.341,187.615h-0.962v3.237h-1.353v-7.982h3.081c0.841,0,1.504,0.206,1.989,0.618
					s0.728,1.003,0.728,1.774c0,0.659-0.18,1.181-0.539,1.566s-0.86,0.63-1.502,0.734l2.314,3.289h-1.534L71.341,187.615z
					 M70.379,184.04v2.444h1.703c0.441,0,0.786-0.11,1.033-0.332c0.247-0.221,0.37-0.518,0.37-0.89s-0.123-0.669-0.37-0.891
					s-0.592-0.332-1.033-0.332H70.379z"/>
				<path fill="#696C71" d="M75.942,188.642h1.378c0.252,0.797,0.854,1.196,1.808,1.196c0.468,0,0.843-0.106,1.124-0.318
					s0.423-0.5,0.423-0.864c0-0.286-0.089-0.514-0.267-0.683s-0.475-0.301-0.891-0.396l-1.352-0.325
					c-1.326-0.312-1.989-1.027-1.989-2.145c0-0.685,0.253-1.25,0.761-1.696c0.507-0.446,1.158-0.669,1.956-0.669
					c0.841,0,1.519,0.197,2.034,0.591c0.516,0.395,0.848,0.934,0.995,1.619H80.57c-0.251-0.71-0.806-1.066-1.664-1.066
					c-0.433,0-0.782,0.102-1.046,0.305c-0.265,0.204-0.396,0.47-0.396,0.8c0,0.528,0.351,0.875,1.053,1.04l1.391,0.325
					c0.65,0.147,1.157,0.408,1.521,0.78s0.546,0.849,0.546,1.43c0,0.737-0.265,1.324-0.793,1.762s-1.214,0.656-2.054,0.656
					c-0.85,0-1.559-0.206-2.126-0.617S76.081,189.378,75.942,188.642z"/>
				<path fill="#696C71" d="M84.991,182.87v7.982h-1.353v-7.982H84.991z"/>
				<path fill="#696C71" d="M92.985,183.903c0.693,0.776,1.04,1.762,1.04,2.958c0,1.196-0.347,2.182-1.04,2.958
					c-0.693,0.776-1.577,1.164-2.652,1.164c-1.074,0-1.956-0.388-2.646-1.164c-0.688-0.775-1.033-1.761-1.033-2.958
					c0-1.196,0.345-2.182,1.033-2.958c0.689-0.775,1.571-1.163,2.646-1.163C91.408,182.74,92.292,183.127,92.985,183.903z
					 M92.017,188.954c0.429-0.546,0.644-1.244,0.644-2.093c0-0.849-0.215-1.547-0.644-2.093s-0.99-0.819-1.684-0.819
					s-1.252,0.271-1.677,0.812s-0.637,1.241-0.637,2.099c0,0.858,0.212,1.558,0.637,2.1c0.425,0.542,0.983,0.812,1.677,0.812
					S91.588,189.5,92.017,188.954z"/>
				<path fill="#696C71" d="M102.111,182.87v7.982h-1.04l-4.082-5.811v5.811h-1.3v-7.982h1.274l3.848,5.538v-5.538H102.111z"/>
				<path fill="#696C71" d="M51.633,204.831c-0.688-0.767-1.033-1.757-1.033-2.971c0-1.213,0.345-2.203,1.033-2.97
					c0.689-0.767,1.554-1.15,2.594-1.15c0.884,0,1.607,0.236,2.171,0.708c0.563,0.472,0.923,1.116,1.079,1.93H56.15
					c-0.347-0.944-0.988-1.417-1.924-1.417c-0.693,0-1.244,0.271-1.651,0.812c-0.407,0.542-0.61,1.237-0.61,2.086
					c0,0.85,0.203,1.545,0.61,2.087s0.958,0.812,1.651,0.812c0.936,0,1.577-0.477,1.924-1.43h1.326
					c-0.156,0.823-0.516,1.471-1.079,1.943c-0.563,0.473-1.287,0.708-2.171,0.708C53.187,205.981,52.322,205.598,51.633,204.831z"/>
				<path fill="#696C71" d="M65.017,198.903c0.693,0.776,1.04,1.762,1.04,2.958c0,1.196-0.347,2.182-1.04,2.958
					c-0.693,0.776-1.577,1.164-2.652,1.164c-1.074,0-1.956-0.388-2.646-1.164c-0.688-0.775-1.033-1.761-1.033-2.958
					c0-1.196,0.345-2.182,1.033-2.958c0.689-0.775,1.571-1.163,2.646-1.163C63.439,197.74,64.323,198.127,65.017,198.903z
					 M64.048,203.954c0.429-0.546,0.644-1.244,0.644-2.093c0-0.849-0.215-1.547-0.644-2.093s-0.99-0.819-1.684-0.819
					s-1.252,0.271-1.677,0.812s-0.637,1.241-0.637,2.099c0,0.858,0.212,1.558,0.637,2.1c0.425,0.542,0.983,0.812,1.677,0.812
					S63.619,204.5,64.048,203.954z"/>
				<path fill="#696C71" d="M74.142,197.87v7.982h-1.04l-4.082-5.811v5.811h-1.3v-7.982h1.274l3.848,5.538v-5.538H74.142z"/>
				<path fill="#696C71" d="M75.741,199.065v-1.196h6.656v1.196h-2.652v6.786h-1.352v-6.786H75.741z"/>
				<path fill="#696C71" d="M86.311,202.615h-0.962v3.237h-1.353v-7.982h3.081c0.841,0,1.504,0.206,1.989,0.618
					s0.728,1.003,0.728,1.774c0,0.659-0.18,1.181-0.539,1.566s-0.86,0.63-1.502,0.734l2.314,3.289h-1.534L86.311,202.615z
					 M85.349,199.04v2.444h1.703c0.441,0,0.786-0.11,1.033-0.332c0.247-0.221,0.37-0.518,0.37-0.89s-0.123-0.669-0.37-0.891
					s-0.592-0.332-1.033-0.332H85.349z"/>
				<path fill="#696C71" d="M97.438,198.903c0.693,0.776,1.04,1.762,1.04,2.958c0,1.196-0.347,2.182-1.04,2.958
					c-0.693,0.776-1.577,1.164-2.652,1.164c-1.074,0-1.956-0.388-2.646-1.164c-0.688-0.775-1.033-1.761-1.033-2.958
					c0-1.196,0.345-2.182,1.033-2.958c0.689-0.775,1.571-1.163,2.646-1.163C95.861,197.74,96.745,198.127,97.438,198.903z
					 M96.47,203.954c0.429-0.546,0.644-1.244,0.644-2.093c0-0.849-0.215-1.547-0.644-2.093s-0.99-0.819-1.684-0.819
					s-1.252,0.271-1.677,0.812s-0.637,1.241-0.637,2.099c0,0.858,0.212,1.558,0.637,2.1c0.425,0.542,0.983,0.812,1.677,0.812
					S96.041,204.5,96.47,203.954z"/>
				<path fill="#696C71" d="M100.142,205.852v-7.982h1.353v6.773h3.835v1.209H100.142z"/>
			</g>
		</g>
	</g>
	<g>
		<rect x="28.816" y="261.341" fill="#F5F6F6" width="98.66" height="29.229"/>
		<g>
			<path fill="#595B5F" d="M63.229,278.77c-0.688-0.767-1.033-1.757-1.033-2.971c0-1.213,0.346-2.203,1.033-2.97
				c0.689-0.768,1.555-1.15,2.594-1.15c0.885,0,1.607,0.235,2.172,0.708c0.562,0.472,0.922,1.116,1.078,1.931h-1.326
				c-0.346-0.945-0.988-1.418-1.924-1.418c-0.693,0-1.244,0.271-1.65,0.812c-0.408,0.543-0.611,1.238-0.611,2.087
				c0,0.85,0.203,1.545,0.611,2.087c0.406,0.542,0.957,0.812,1.65,0.812c0.936,0,1.578-0.477,1.924-1.431h1.326
				c-0.156,0.824-0.516,1.472-1.078,1.944c-0.564,0.472-1.287,0.708-2.172,0.708C64.783,279.92,63.918,279.537,63.229,278.77z"/>
			<path fill="#595B5F" d="M72.062,271.808v7.982h-1.352v-7.982H72.062z"/>
			<path fill="#595B5F" d="M73.336,280.882l3.225-9.542h1.287l-3.225,9.542H73.336z"/>
			<path fill="#595B5F" d="M79.727,278.77c-0.689-0.767-1.033-1.757-1.033-2.971c0-1.213,0.344-2.203,1.033-2.97
				c0.689-0.768,1.553-1.15,2.594-1.15c0.883,0,1.607,0.235,2.17,0.708c0.564,0.472,0.924,1.116,1.08,1.931h-1.326
				c-0.348-0.945-0.988-1.418-1.924-1.418c-0.693,0-1.244,0.271-1.652,0.812c-0.406,0.543-0.609,1.238-0.609,2.087
				c0,0.85,0.203,1.545,0.609,2.087c0.408,0.542,0.959,0.812,1.652,0.812c0.936,0,1.576-0.477,1.924-1.431h1.326
				c-0.156,0.824-0.516,1.472-1.08,1.944c-0.562,0.472-1.287,0.708-2.17,0.708C81.279,279.92,80.416,279.537,79.727,278.77z"/>
			<path fill="#595B5F" d="M87.207,279.791v-7.982h2.691c1.178,0,2.119,0.362,2.82,1.086s1.053,1.692,1.053,2.905
				c0,1.214-0.352,2.183-1.053,2.905c-0.701,0.725-1.643,1.086-2.82,1.086H87.207z M88.559,278.582h1.287
				c0.824,0,1.459-0.247,1.904-0.741c0.447-0.494,0.67-1.174,0.67-2.041c0-0.866-0.223-1.549-0.67-2.048
				c-0.445-0.498-1.08-0.747-1.904-0.747h-1.287V278.582z"/>
		</g>
	</g>
	<g>
		<rect x="28.82" y="413.654" fill="#F5F6F6" width="98.652" height="43.654"/>
		<g>
			<g>
				<path fill="#696C71" d="M48.207,428.933h-0.961v3.236h-1.354v-7.982h3.082c0.84,0,1.504,0.207,1.988,0.619
					c0.486,0.41,0.729,1.002,0.729,1.773c0,0.658-0.18,1.182-0.539,1.566c-0.359,0.387-0.861,0.631-1.502,0.734l2.314,3.289H50.43
					L48.207,428.933z M47.246,425.359v2.443h1.703c0.441,0,0.785-0.111,1.033-0.332c0.246-0.221,0.369-0.518,0.369-0.891
					s-0.123-0.67-0.369-0.891c-0.248-0.221-0.592-0.33-1.033-0.33H47.246z"/>
				<path fill="#696C71" d="M53.434,424.187h5.213v1.197H54.76v2.105h3.523v1.184H54.76v2.287h3.887v1.209h-5.213V424.187z"/>
				<path fill="#696C71" d="M65.875,429.207h-1.742v-1.158h3.029v0.625c0,1.092-0.32,1.969-0.957,2.633
					c-0.637,0.662-1.449,0.994-2.438,0.994c-1.082,0-1.98-0.385-2.689-1.15c-0.711-0.768-1.066-1.758-1.066-2.971
					s0.352-2.203,1.059-2.971s1.588-1.15,2.646-1.15c0.893,0,1.623,0.234,2.189,0.701c0.568,0.469,0.93,1.109,1.086,1.924h-1.352
					c-0.174-0.459-0.41-0.807-0.709-1.045s-0.705-0.357-1.215-0.357c-0.703,0-1.268,0.27-1.697,0.812
					c-0.43,0.541-0.643,1.236-0.643,2.086c0,0.857,0.215,1.561,0.648,2.105c0.434,0.547,1.016,0.818,1.742,0.818
					c0.59,0,1.066-0.17,1.43-0.512C65.562,430.248,65.787,429.787,65.875,429.207z"/>
				<path fill="#696C71" d="M70.178,424.187v7.982h-1.354v-7.982H70.178z"/>
				<path fill="#696C71" d="M71.646,429.96h1.377c0.252,0.797,0.854,1.195,1.809,1.195c0.467,0,0.842-0.105,1.123-0.318
					s0.424-0.5,0.424-0.865c0-0.285-0.09-0.514-0.268-0.682c-0.178-0.17-0.475-0.301-0.891-0.396l-1.352-0.324
					c-1.326-0.312-1.988-1.027-1.988-2.146c0-0.684,0.252-1.25,0.76-1.695c0.508-0.447,1.158-0.67,1.957-0.67
					c0.84,0,1.518,0.197,2.033,0.592s0.848,0.934,0.996,1.617h-1.354c-0.25-0.709-0.805-1.064-1.664-1.064
					c-0.432,0-0.781,0.102-1.045,0.305c-0.266,0.203-0.396,0.471-0.396,0.799c0,0.529,0.35,0.877,1.053,1.041l1.391,0.324
					c0.65,0.148,1.156,0.408,1.521,0.781c0.363,0.371,0.545,0.85,0.545,1.43c0,0.736-0.264,1.324-0.793,1.762
					c-0.527,0.438-1.213,0.656-2.053,0.656c-0.85,0-1.559-0.207-2.127-0.617C72.139,431.271,71.785,430.697,71.646,429.96z"/>
				<path fill="#696C71" d="M78.848,425.384v-1.197h6.656v1.197h-2.652v6.785H81.5v-6.785H78.848z"/>
				<path fill="#696C71" d="M89.416,428.933h-0.961v3.236h-1.354v-7.982h3.082c0.84,0,1.504,0.207,1.988,0.619
					c0.486,0.41,0.729,1.002,0.729,1.773c0,0.658-0.18,1.182-0.539,1.566c-0.359,0.387-0.861,0.631-1.502,0.734l2.314,3.289h-1.535
					L89.416,428.933z M88.455,425.359v2.443h1.703c0.441,0,0.785-0.111,1.033-0.332c0.246-0.221,0.369-0.518,0.369-0.891
					s-0.123-0.67-0.369-0.891c-0.248-0.221-0.592-0.33-1.033-0.33H88.455z"/>
				<path fill="#696C71" d="M95.994,424.187v7.982h-1.352v-7.982H95.994z"/>
				<path fill="#696C71" d="M98.088,424.187h5.213v1.197h-3.887v2.105h3.523v1.184h-3.523v2.287h3.887v1.209h-5.213V424.187z"/>
				<path fill="#696C71" d="M104.471,429.96h1.377c0.252,0.797,0.854,1.195,1.809,1.195c0.467,0,0.842-0.105,1.123-0.318
					s0.424-0.5,0.424-0.865c0-0.285-0.09-0.514-0.268-0.682c-0.178-0.17-0.475-0.301-0.891-0.396l-1.352-0.324
					c-1.326-0.312-1.988-1.027-1.988-2.146c0-0.684,0.252-1.25,0.76-1.695c0.508-0.447,1.158-0.67,1.957-0.67
					c0.84,0,1.518,0.197,2.033,0.592s0.848,0.934,0.996,1.617h-1.354c-0.25-0.709-0.805-1.064-1.664-1.064
					c-0.432,0-0.781,0.102-1.045,0.305c-0.266,0.203-0.396,0.471-0.396,0.799c0,0.529,0.35,0.877,1.053,1.041l1.391,0.324
					c0.65,0.148,1.156,0.408,1.521,0.781c0.363,0.371,0.545,0.85,0.545,1.43c0,0.736-0.264,1.324-0.793,1.762
					c-0.527,0.438-1.213,0.656-2.053,0.656c-0.85,0-1.559-0.207-2.127-0.617C104.963,431.271,104.609,430.697,104.471,429.96z"/>
			</g>
		</g>
		<g>
			<g>
				<g>
					<g>
						<g>
							<path fill="#464647" d="M44.797,446.947h-3.42v-7.281h3.234c1.838,0,2.621,0.787,2.621,1.979c0,0.822-0.553,1.396-1.34,1.525
								c0.879,0.16,1.561,0.738,1.561,1.777C47.453,446.208,46.494,446.947,44.797,446.947z M42.783,442.697h1.732
								c0.873,0,1.24-0.381,1.24-0.924c0-0.547-0.367-0.938-1.24-0.938h-1.732V442.697z M42.783,443.792v1.988h1.848
								c0.904,0,1.342-0.381,1.342-0.98c0-0.615-0.438-1.008-1.342-1.008H42.783z"/>
							<path fill="#464647" d="M52.633,445.714c0,0.264,0.139,0.389,0.357,0.389c0.141,0,0.281-0.031,0.432-0.102v0.738
								c-0.221,0.172-0.502,0.322-0.959,0.322c-0.582,0-1.02-0.367-1.125-0.98c-0.289,0.6-0.934,0.994-1.777,0.994
								c-0.973,0-1.621-0.521-1.621-1.4c0-0.969,0.764-1.375,1.943-1.592l1.396-0.268v-0.148c0-0.568-0.297-0.914-0.885-0.914
								c-0.582,0-0.893,0.346-1.01,0.844l-1.26-0.117c0.176-1.039,0.973-1.766,2.324-1.766c1.316,0,2.184,0.621,2.184,1.963V445.714
								z M51.279,444.57l-0.955,0.193c-0.637,0.129-1.029,0.289-1.029,0.762c0,0.361,0.256,0.627,0.703,0.627
								c0.729,0,1.281-0.545,1.281-1.41V444.57z"/>
							<path fill="#464647" d="M63.998,445.25c-0.256,1.154-1.16,1.838-2.465,1.838c-1.568,0-2.703-1.006-2.703-2.611
								c0-1.607,1.145-2.762,2.668-2.762c1.666,0,2.52,1.154,2.52,2.541v0.439h-3.826c0.049,0.83,0.639,1.342,1.387,1.342
								c0.684,0,1.1-0.301,1.295-0.902L63.998,445.25z M62.666,443.968c-0.023-0.658-0.404-1.24-1.18-1.24
								c-0.762,0-1.189,0.557-1.27,1.24H62.666z"/>
							<path fill="#464647" d="M68.344,443.214c-0.27-0.15-0.496-0.221-0.832-0.221c-0.717,0-1.201,0.508-1.201,1.436v2.518H64.92
								v-5.094h1.391v0.971c0.182-0.578,0.715-1.109,1.422-1.109c0.312,0,0.566,0.078,0.713,0.205L68.344,443.214z"/>
							<path fill="#464647" d="M69.031,439.666h1.42v1.354h-1.42V439.666z M70.441,441.853v5.094h-1.387v-5.094H70.441z"/>
							<path fill="#464647" d="M72.971,446.947h-1.389v-5.094h1.389v0.83c0.254-0.578,0.9-0.969,1.66-0.969
								c1.369,0,1.863,0.922,1.863,2.059v3.174h-1.387v-2.898c0-0.787-0.311-1.238-0.99-1.238c-0.707,0-1.146,0.555-1.146,1.41
								V446.947z"/>
							<path fill="#464647" d="M82.008,445.714c0,0.264,0.139,0.389,0.355,0.389c0.141,0,0.281-0.031,0.428-0.102v0.738
								c-0.217,0.172-0.494,0.322-0.959,0.322c-0.574,0-1.016-0.367-1.119-0.98c-0.289,0.6-0.936,0.994-1.779,0.994
								c-0.973,0-1.617-0.521-1.617-1.4c0-0.969,0.76-1.375,1.939-1.592l1.4-0.268v-0.148c0-0.568-0.303-0.914-0.893-0.914
								c-0.574,0-0.891,0.346-1.006,0.844l-1.26-0.117c0.176-1.039,0.973-1.766,2.324-1.766c1.316,0,2.186,0.621,2.186,1.963
								V445.714z M80.656,444.57l-0.959,0.193c-0.637,0.129-1.029,0.289-1.029,0.762c0,0.361,0.252,0.627,0.703,0.627
								c0.729,0,1.285-0.545,1.285-1.41V444.57z"/>
						</g>
						<g>
							<polygon fill="#464647" points="54.023,441.56 54.023,439.458 55.785,439.458 55.785,442.234 							"/>
							<polygon fill="#464647" points="54.023,442.22 55.229,442.679 54.023,443.142 							"/>
							<polygon fill="#464647" points="55.785,443.125 55.785,444.142 54.928,446.947 54.023,446.947 54.023,443.796 							"/>
						</g>
						<g>
							<polygon fill="#464647" points="58.154,441.56 58.154,439.458 56.393,439.458 56.393,442.234 							"/>
							<polygon fill="#464647" points="58.154,442.22 56.945,442.679 58.154,443.142 							"/>
							<polygon fill="#464647" points="56.393,443.125 56.393,444.142 57.252,446.947 58.154,446.947 58.154,443.796 							"/>
						</g>
					</g>
				</g>
				<g>
					<path fill="#00A9A2" d="M94.23,445.21c-0.244,1.162-1.092,1.879-2.338,1.879c-1.479,0-2.582-1.047-2.582-2.621
						c0-1.607,1.096-2.76,2.537-2.76c1.596,0,2.395,1.152,2.395,2.539v0.328h-4.191c0.047,1.129,0.834,1.926,1.842,1.926
						c0.941,0,1.516-0.469,1.73-1.375L94.23,445.21z M93.482,444.068c-0.025-0.938-0.553-1.795-1.635-1.795
						c-1.008,0-1.666,0.844-1.785,1.795H93.482z"/>
					<path fill="#00A9A2" d="M96.146,446.947h-0.715v-5.098h0.715v0.939c0.248-0.619,0.951-1.08,1.715-1.08
						c1.316,0,1.869,0.859,1.869,2.08v3.158h-0.717v-3.182c0-0.904-0.471-1.492-1.342-1.492c-0.809,0-1.525,0.635-1.525,1.621
						V446.947z"/>
					<path fill="#00A9A2" d="M101.371,442.378h-0.783v-0.354l0.305-0.057c0.469-0.094,0.564-0.318,0.668-0.809l0.154-0.73h0.361
						v1.42h1.482v0.529h-1.482v3.455c0,0.455,0.189,0.68,0.66,0.68c0.352,0,0.703-0.176,0.998-0.352v0.506
						c-0.363,0.279-0.729,0.422-1.246,0.422c-0.682,0-1.117-0.342-1.117-1.27V442.378z"/>
					<path fill="#00A9A2" d="M107.564,442.568c-0.295-0.154-0.471-0.199-0.773-0.199c-0.742,0-1.342,0.762-1.342,1.785v2.793h-0.717
						v-5.098h0.717v1.072c0.201-0.588,0.715-1.213,1.467-1.213c0.318,0,0.541,0.07,0.729,0.236L107.564,442.568z"/>
					<path fill="#00A9A2" d="M112.391,446.091c0,0.271,0.166,0.4,0.424,0.4c0.117,0,0.316-0.049,0.455-0.129v0.385
						c-0.15,0.178-0.314,0.305-0.668,0.305c-0.504,0-0.869-0.432-0.893-1.08c-0.27,0.6-1.021,1.117-1.891,1.117
						c-0.951,0-1.586-0.527-1.586-1.41c0-0.963,0.848-1.352,2.115-1.611l1.361-0.279v-0.258c0-0.775-0.455-1.258-1.258-1.258
						c-0.822,0-1.279,0.482-1.455,1.139l-0.609-0.117c0.199-0.916,0.949-1.586,2.055-1.586c1.268,0,1.949,0.67,1.949,1.926V446.091z
						 M111.709,444.318l-1.246,0.27c-0.928,0.199-1.502,0.389-1.502,1.068c0,0.482,0.318,0.881,0.986,0.881
						c0.998,0,1.762-0.762,1.762-1.904V444.318z"/>
					<path fill="#00A9A2" d="M114.916,439.546v7.4h-0.719v-7.4H114.916z"/>
				</g>
			</g>
			<path fill="#00A9A2" d="M87.766,444.835c-0.088,0.953-0.682,1.656-1.732,1.656c-1.068,0-1.795-0.836-1.795-2.094
				c0-1.256,0.727-2.09,1.795-2.09c1.043,0,1.639,0.672,1.732,1.611l0.654-0.049c-0.119-1.201-0.914-2.162-2.363-2.162
				c-1.516,0-2.572,1.068-2.572,2.689c0,1.623,1.057,2.691,2.572,2.691c1.461,0,2.256-0.973,2.367-2.184L87.766,444.835z"/>
		</g>
	</g>
	<g>
		<rect x="28.834" y="65.493" fill="#F5F6F6" width="98.625" height="51.953"/>
		<g>
			<path fill="#595B5F" d="M68.092,74.659v7.982h-1.354v-7.982H68.092z"/>
			<path fill="#595B5F" d="M70.184,82.641v-7.982h2.691c1.18,0,2.119,0.362,2.822,1.085c0.701,0.724,1.053,1.692,1.053,2.905
				c0,1.214-0.352,2.182-1.053,2.906c-0.703,0.724-1.643,1.085-2.822,1.085H70.184z M71.537,81.432h1.287
				c0.822,0,1.457-0.247,1.904-0.741c0.445-0.494,0.668-1.174,0.668-2.041c0-0.866-0.223-1.549-0.668-2.047
				c-0.447-0.498-1.082-0.748-1.904-0.748h-1.287V81.432z"/>
			<path fill="#595B5F" d="M78.412,74.659h5.213v1.196h-3.887v2.106h3.523v1.183h-3.523v2.288h3.887v1.209h-5.213V74.659z"/>
			<path fill="#595B5F" d="M84.939,80.977h1.324c0.148,0.485,0.529,0.728,1.145,0.728c0.303,0,0.545-0.059,0.723-0.175
				c0.178-0.117,0.266-0.288,0.266-0.514c0-0.156-0.053-0.279-0.156-0.371c-0.104-0.091-0.277-0.167-0.52-0.228l-1.195-0.286
				c-0.955-0.226-1.432-0.754-1.432-1.586c0-0.52,0.207-0.951,0.619-1.293c0.41-0.342,0.934-0.513,1.566-0.513
				c0.658,0,1.182,0.149,1.572,0.448c0.391,0.299,0.637,0.717,0.74,1.254h-1.273c-0.129-0.424-0.48-0.637-1.053-0.637
				c-0.252,0-0.469,0.057-0.65,0.169c-0.182,0.113-0.273,0.277-0.273,0.494c0,0.251,0.199,0.429,0.6,0.533l1.221,0.286
				c0.988,0.234,1.482,0.78,1.482,1.638c0,0.563-0.211,1.012-0.631,1.345c-0.42,0.334-0.959,0.5-1.617,0.5
				c-0.678,0-1.234-0.16-1.672-0.481C85.287,81.97,85.025,81.532,84.939,80.977z"/>
		</g>
		<g>
			<g>
				<g>
					<path fill-rule="evenodd" clip-rule="evenodd" fill="#B3B3B3" d="M73.914,97.5c0,2.186-0.004,4.374,0,6.559
						c0,0.103-0.029,0.15-0.127,0.188c-1.309,0.529-2.615,1.061-3.92,1.596c-0.098,0.04-0.154,0.027-0.227-0.046
						c-2.158-2.159-4.316-4.316-6.473-6.473c-0.098-0.095-0.098-0.095-0.201-0.014c-1.18,0.917-2.352,1.835-3.531,2.752
						c-0.182,0.143-0.367,0.282-0.551,0.428c-0.043,0.037-0.078,0.037-0.135,0.01c-0.5-0.252-1.004-0.503-1.51-0.754
						c-0.059-0.028-0.08-0.062-0.08-0.13c0-2.734,0-5.466,0-8.2c0-0.067,0.018-0.103,0.08-0.133c0.5-0.249,1.006-0.5,1.506-0.751
						c0.057-0.028,0.09-0.03,0.145,0.012c0.947,0.751,1.904,1.502,2.855,2.251c0.402,0.316,0.805,0.632,1.205,0.951
						c0.076,0.063,0.119,0.063,0.191-0.008c2.16-2.168,4.326-4.331,6.49-6.498c0.076-0.079,0.137-0.092,0.242-0.052
						c1.305,0.527,2.607,1.047,3.912,1.562c0.104,0.039,0.127,0.09,0.127,0.188C73.91,93.127,73.914,95.313,73.914,97.5z
						 M69.717,100.928c0.008-0.005,0.014-0.01,0.021-0.016c0-2.265,0-4.529,0-6.827c-1.484,1.151-2.951,2.285-4.432,3.432
						C66.787,98.662,68.25,99.794,69.717,100.928z M58.822,100.12c0.043-0.04,0.068-0.061,0.092-0.086
						c0.309-0.322,0.623-0.645,0.936-0.965c0.479-0.495,0.959-0.989,1.441-1.482c0.057-0.058,0.053-0.09-0.004-0.145
						c-0.791-0.792-1.586-1.586-2.381-2.378c-0.021-0.024-0.049-0.039-0.084-0.07C58.822,96.708,58.822,98.402,58.822,100.12z"/>
				</g>
			</g>
			<g>
				<g>
					<path fill-rule="evenodd" clip-rule="evenodd" fill="#B3B3B3" d="M99.133,89.438c0,5.479,0,10.951,0,16.427
						c-5.479,0-10.953,0-16.432,0c0-5.475,0-10.949,0-16.427C88.174,89.438,93.65,89.438,99.133,89.438z M87.426,97.139
						c0-1.478,0-2.946,0-4.418c0.344,0,0.684,0,1.02,0c0-0.446,0-0.889,0-1.328c-1.164,0-2.322,0-3.482,0c0,0.444,0,0.885,0,1.331
						c0.338,0,0.678,0,1.018,0c0,1.475,0,2.942,0,4.417c-0.344,0-0.68,0-1.018,0c0,0.448,0,0.888,0,1.331c1.164,0,2.318,0,3.482,0
						c0-0.444,0-0.886,0-1.333C88.104,97.139,87.77,97.139,87.426,97.139z M89.582,97.531c0.004,0.008,0.008,0.015,0.01,0.018
						c0.324,0.385,0.709,0.685,1.182,0.859c0.535,0.2,1.088,0.212,1.645,0.106c0.801-0.152,1.348-0.609,1.609-1.386
						c0.133-0.398,0.176-0.809,0.176-1.226c0-1.481,0-2.961,0-4.443c0-0.022,0-0.043,0-0.068c-0.518,0-1.027,0-1.543,0
						c0,0.033,0,0.062,0,0.087c0,1.477,0.002,2.951,0,4.425c0,0.153-0.016,0.303-0.035,0.454c-0.029,0.197-0.1,0.381-0.238,0.53
						c-0.217,0.232-0.502,0.275-0.801,0.24c-0.309-0.036-0.561-0.196-0.789-0.401c-0.094-0.086-0.182-0.178-0.277-0.269
						C90.205,96.814,89.895,97.173,89.582,97.531z M84.346,103.606c2.055,0,4.105,0,6.154,0c0-0.342,0-0.681,0-1.017
						c-2.055,0-4.104,0-6.154,0C84.346,102.93,84.346,103.266,84.346,103.606z"/>
				</g>
			</g>
		</g>
	</g>
	<g>
		
			<line fill="none" stroke="#696C71" stroke-width="0.6273" stroke-miterlimit="10" x1="296.989" y1="438.654" x2="296.989" y2="448.529"/>
		<polygon fill="#696C71" points="294.587,446.416 296.989,450.574 299.394,446.416 		"/>
	</g>
	<g>
		
			<line fill="none" stroke="#696C71" stroke-width="0.6273" stroke-miterlimit="10" x1="296.989" y1="394.341" x2="296.989" y2="404.218"/>
		<polygon fill="#696C71" points="294.587,402.105 296.989,406.261 299.394,402.105 		"/>
	</g>
	<g>
		
			<line fill="none" stroke="#696C71" stroke-width="0.6273" stroke-miterlimit="10" x1="296.989" y1="330.341" x2="296.989" y2="340.218"/>
		<polygon fill="#696C71" points="294.587,338.105 296.989,342.263 299.394,338.105 		"/>
	</g>
	<g>
		
			<line fill="none" stroke="#696C71" stroke-width="0.6273" stroke-miterlimit="10" x1="296.989" y1="286.341" x2="296.989" y2="296.22"/>
		<polygon fill="#696C71" points="294.587,294.105 296.989,298.263 299.394,294.105 		"/>
	</g>
	<g>
		
			<line fill="none" stroke="#696C71" stroke-width="0.6273" stroke-miterlimit="10" x1="296.989" y1="242.533" x2="296.989" y2="252.408"/>
		<polygon fill="#696C71" points="294.587,250.292 296.989,254.453 299.394,250.292 		"/>
	</g>
	<g>
		
			<line fill="none" stroke="#696C71" stroke-width="0.6273" stroke-miterlimit="10" x1="296.989" y1="197.936" x2="296.989" y2="207.812"/>
		<polygon fill="#696C71" points="294.587,205.698 296.989,209.856 299.394,205.698 		"/>
	</g>
	<g>
		
			<line fill="none" stroke="#696C71" stroke-width="0.6273" stroke-miterlimit="10" x1="296.989" y1="154.341" x2="296.989" y2="164.218"/>
		<polygon fill="#696C71" points="294.587,162.104 296.989,166.262 299.394,162.104 		"/>
	</g>
	<g>
		
			<line fill="none" stroke="#696C71" stroke-width="0.6273" stroke-miterlimit="10" x1="296.989" y1="110.493" x2="296.989" y2="120.37"/>
		<polygon fill="#696C71" points="294.587,118.256 296.989,122.415 299.394,118.256 		"/>
	</g>
</g>
</svg>
