<?xml version="1.0" encoding="utf-8"?>
<!-- Generator: Adobe Illustrator 16.0.4, SVG Export Plug-In . SVG Version: 6.00 Build 0)  -->
<!DOCTYPE svg PUBLIC "-//W3C//DTD SVG 1.1//EN" "http://www.w3.org/Graphics/SVG/1.1/DTD/svg11.dtd">
<svg version="1.1" id="Layer_1" xmlns="http://www.w3.org/2000/svg" xmlns:xlink="http://www.w3.org/1999/xlink" x="0px" y="0px"
	 width="474px" height="497px" viewBox="0 0 474 497" enable-background="new 0 0 474 497" xml:space="preserve">
<rect x="-6.004" y="-5" fill="#F5F6F6" width="486.008" height="507"/>
<g>
	<rect x="5.5" y="24" fill="#FFFFFF" stroke="#BFBFBF" stroke-miterlimit="10" width="463" height="35"/>
	<g>
		<g>
			<path fill="#55595E" d="M192.444,42.282h1.378c0.251,0.797,0.854,1.196,1.807,1.196c0.468,0,0.843-0.106,1.125-0.318
				s0.423-0.5,0.423-0.864c0-0.286-0.089-0.514-0.267-0.683c-0.178-0.169-0.475-0.301-0.891-0.396l-1.352-0.325
				c-1.326-0.312-1.989-1.027-1.989-2.145c0-0.685,0.253-1.25,0.76-1.696c0.507-0.446,1.159-0.669,1.957-0.669
				c0.841,0,1.519,0.197,2.035,0.591c0.516,0.395,0.847,0.934,0.995,1.619h-1.352c-0.251-0.71-0.806-1.066-1.664-1.066
				c-0.434,0-0.782,0.102-1.046,0.305c-0.265,0.204-0.397,0.47-0.397,0.8c0,0.528,0.351,0.875,1.053,1.04l1.391,0.325
				c0.65,0.147,1.157,0.408,1.521,0.78c0.364,0.373,0.546,0.849,0.546,1.43c0,0.737-0.265,1.324-0.793,1.762
				c-0.529,0.438-1.213,0.656-2.054,0.656c-0.849,0-1.558-0.206-2.125-0.617C192.937,43.593,192.583,43.019,192.444,42.282z"/>
			<path fill="#55595E" d="M200.465,36.51h5.213v1.196h-3.887v2.106h3.523v1.183h-3.523v2.288h3.887v1.209h-5.213V36.51z"/>
			<path fill="#55595E" d="M210.112,41.255h-0.962v3.237h-1.352V36.51h3.081c0.841,0,1.504,0.206,1.989,0.618
				s0.728,1.003,0.728,1.774c0,0.659-0.18,1.181-0.54,1.566c-0.36,0.386-0.86,0.63-1.501,0.734l2.314,3.289h-1.534L210.112,41.255z
				 M209.149,37.68v2.444h1.703c0.442,0,0.787-0.11,1.034-0.332c0.247-0.221,0.37-0.518,0.37-0.89s-0.123-0.669-0.37-0.891
				s-0.592-0.332-1.034-0.332H209.149z"/>
			<path fill="#55595E" d="M219.341,44.492h-1.287l-3.016-7.982h1.417l2.262,6.227l2.262-6.227h1.378L219.341,44.492z"/>
			<path fill="#55595E" d="M225.503,36.51v7.982h-1.352V36.51H225.503z"/>
			<path fill="#55595E" d="M228.525,43.471c-0.689-0.767-1.033-1.757-1.033-2.971c0-1.213,0.344-2.203,1.033-2.97
				c0.689-0.767,1.554-1.15,2.594-1.15c0.884,0,1.607,0.236,2.171,0.708c0.563,0.472,0.923,1.116,1.079,1.93h-1.326
				c-0.347-0.944-0.988-1.417-1.924-1.417c-0.693,0-1.244,0.271-1.651,0.812c-0.408,0.542-0.611,1.237-0.611,2.086
				c0,0.85,0.204,1.545,0.611,2.087c0.407,0.542,0.958,0.812,1.651,0.812c0.936,0,1.577-0.477,1.924-1.43h1.326
				c-0.156,0.823-0.516,1.471-1.079,1.943c-0.563,0.473-1.287,0.708-2.171,0.708C230.079,44.622,229.215,44.238,228.525,43.471z"/>
			<path fill="#55595E" d="M236.332,36.51h5.213v1.196h-3.887v2.106h3.522v1.183h-3.522v2.288h3.887v1.209h-5.213V36.51z"/>
			<path fill="#55595E" d="M247.187,44.492V36.51h1.353v6.773h3.834v1.209H247.187z"/>
			<path fill="#55595E" d="M260.304,37.543c0.693,0.776,1.04,1.762,1.04,2.958c0,1.196-0.347,2.182-1.04,2.958
				c-0.693,0.776-1.577,1.164-2.652,1.164s-1.956-0.388-2.646-1.164c-0.689-0.775-1.033-1.761-1.033-2.958
				c0-1.196,0.344-2.182,1.033-2.958c0.689-0.775,1.57-1.163,2.646-1.163S259.61,36.768,260.304,37.543z M259.335,42.594
				c0.429-0.546,0.644-1.244,0.644-2.093c0-0.849-0.215-1.547-0.644-2.093s-0.99-0.819-1.684-0.819s-1.253,0.271-1.677,0.812
				c-0.425,0.542-0.637,1.241-0.637,2.099c0,0.858,0.212,1.558,0.637,2.1c0.424,0.542,0.983,0.812,1.677,0.812
				S258.906,43.14,259.335,42.594z"/>
			<path fill="#55595E" d="M268.767,41.528h-1.741v-1.157h3.028v0.624c0,1.092-0.318,1.97-0.956,2.633
				c-0.637,0.663-1.449,0.994-2.438,0.994c-1.083,0-1.98-0.383-2.69-1.15c-0.711-0.767-1.065-1.757-1.065-2.971
				c0-1.213,0.353-2.203,1.059-2.97c0.707-0.767,1.588-1.15,2.646-1.15c0.893,0,1.622,0.234,2.189,0.702
				c0.568,0.468,0.93,1.11,1.086,1.924h-1.352c-0.174-0.459-0.41-0.808-0.709-1.047c-0.299-0.238-0.704-0.357-1.215-0.357
				c-0.703,0-1.268,0.271-1.697,0.812c-0.429,0.542-0.644,1.237-0.644,2.086c0,0.858,0.217,1.56,0.65,2.106
				c0.433,0.546,1.014,0.819,1.741,0.819c0.59,0,1.066-0.171,1.431-0.514C268.455,42.57,268.68,42.108,268.767,41.528z"/>
			<path fill="#55595E" d="M273.395,36.51v7.982h-1.352V36.51H273.395z"/>
			<path fill="#55595E" d="M276.416,43.471c-0.688-0.767-1.033-1.757-1.033-2.971c0-1.213,0.345-2.203,1.033-2.97
				c0.689-0.767,1.555-1.15,2.594-1.15c0.885,0,1.607,0.236,2.172,0.708c0.562,0.472,0.922,1.116,1.078,1.93h-1.326
				c-0.346-0.944-0.987-1.417-1.924-1.417c-0.693,0-1.243,0.271-1.65,0.812c-0.408,0.542-0.611,1.237-0.611,2.086
				c0,0.85,0.203,1.545,0.611,2.087c0.407,0.542,0.957,0.812,1.65,0.812c0.937,0,1.578-0.477,1.924-1.43h1.326
				c-0.156,0.823-0.516,1.471-1.078,1.943c-0.564,0.473-1.287,0.708-2.172,0.708C277.971,44.622,277.105,44.238,276.416,43.471z"/>
		</g>
	</g>
	<rect x="5.5" y="69" fill="#41C4BF" width="463" height="358"/>
	<g>
		<g>
			<path fill="#F5F6F6" d="M177.812,84.403c0.381,0.122,0.693,0.354,0.936,0.696s0.364,0.721,0.364,1.137
				c0,0.737-0.241,1.302-0.722,1.697c-0.481,0.394-1.142,0.591-1.982,0.591h-3.055v-7.982h2.795c0.849,0,1.512,0.187,1.989,0.559
				s0.715,0.91,0.715,1.612c0,0.416-0.097,0.776-0.292,1.079C178.364,84.096,178.115,84.299,177.812,84.403z M174.666,83.896h1.469
				c0.944,0,1.417-0.368,1.417-1.105c0-0.719-0.473-1.079-1.417-1.079h-1.469V83.896z M174.666,85.015v2.34h1.716
				c0.451,0,0.797-0.104,1.04-0.312c0.242-0.208,0.364-0.494,0.364-0.858c0-0.364-0.122-0.65-0.364-0.858
				c-0.243-0.208-0.589-0.312-1.04-0.312H174.666z"/>
			<path fill="#F5F6F6" d="M183.61,80.542h1.3l3.068,7.982H186.6l-0.819-2.21h-3.055l-0.819,2.21h-1.365L183.61,80.542z
				 M184.247,82.193l-1.092,2.951h2.184L184.247,82.193z"/>
			<path fill="#F5F6F6" d="M189.771,88.524v-7.982h1.352v6.773h3.835v1.209H189.771z"/>
			<path fill="#F5F6F6" d="M196.986,88.524v-7.982h1.352v6.773h3.835v1.209H196.986z"/>
			<path fill="#F5F6F6" d="M204.201,80.542h5.213v1.196h-3.887v2.106h3.523v1.183h-3.523v2.288h3.887v1.209h-5.213V80.542z"/>
			<path fill="#F5F6F6" d="M213.848,85.288h-0.962v3.237h-1.352v-7.982h3.081c0.841,0,1.504,0.206,1.989,0.618
				s0.728,1.003,0.728,1.774c0,0.659-0.18,1.181-0.54,1.566c-0.36,0.386-0.86,0.63-1.501,0.734l2.314,3.289h-1.534L213.848,85.288z
				 M212.885,81.712v2.444h1.703c0.442,0,0.787-0.11,1.034-0.332c0.247-0.221,0.37-0.518,0.37-0.89s-0.123-0.669-0.37-0.891
				s-0.592-0.332-1.034-0.332H212.885z"/>
			<path fill="#F5F6F6" d="M220.75,80.542v7.982h-1.352v-7.982H220.75z"/>
			<path fill="#F5F6F6" d="M229.59,80.542v7.982h-1.04l-4.082-5.811v5.811h-1.3v-7.982h1.274l3.848,5.538v-5.538H229.59z"/>
			<path fill="#F5F6F6" d="M234.452,80.542h1.3l3.068,7.982h-1.378l-0.819-2.21h-3.055l-0.819,2.21h-1.365L234.452,80.542z
				 M235.089,82.193l-1.092,2.951h2.184L235.089,82.193z"/>
			<path fill="#F5F6F6" d="M246.451,85.288h-0.963v3.237h-1.352v-7.982h3.081c0.841,0,1.504,0.206,1.989,0.618
				s0.729,1.003,0.729,1.774c0,0.659-0.181,1.181-0.54,1.566c-0.36,0.386-0.86,0.63-1.501,0.734l2.313,3.289h-1.534L246.451,85.288z
				 M245.488,81.712v2.444h1.703c0.442,0,0.787-0.11,1.034-0.332c0.247-0.221,0.37-0.518,0.37-0.89s-0.123-0.669-0.37-0.891
				s-0.592-0.332-1.034-0.332H245.488z"/>
			<path fill="#F5F6F6" d="M257.403,87.803c-0.577,0.568-1.354,0.852-2.333,0.852c-0.98,0-1.758-0.284-2.334-0.852
				c-0.576-0.567-0.865-1.389-0.865-2.463v-4.797h1.353v4.654c0,1.5,0.615,2.249,1.847,2.249c1.23,0,1.846-0.75,1.846-2.249v-4.654
				h1.352v4.81C258.268,86.418,257.979,87.235,257.403,87.803z"/>
			<path fill="#F5F6F6" d="M266.978,80.542v7.982h-1.04l-4.082-5.811v5.811h-1.301v-7.982h1.275l3.848,5.538v-5.538H266.978z"/>
			<path fill="#F5F6F6" d="M272.424,81.738v-1.196h6.656v1.196h-2.652v6.786h-1.352v-6.786H272.424z"/>
			<path fill="#F5F6F6" d="M282.355,80.542v7.982h-1.352v-7.982H282.355z"/>
			<path fill="#F5F6F6" d="M289.221,88.524h-0.963l-2.197-5.551v5.551h-1.287v-7.982h1.548l2.431,6.136l2.405-6.136h1.508v7.982
				h-1.3v-5.551L289.221,88.524z"/>
			<path fill="#F5F6F6" d="M295.083,80.542h5.214v1.196h-3.888v2.106h3.522v1.183h-3.522v2.288h3.888v1.209h-5.214V80.542z"/>
		</g>
	</g>
	<rect x="16" y="179" fill="#FFFFFF" width="442" height="75"/>
	<g>
		<g>
			<path fill="#55595E" d="M202.518,197.311c0.381,0.122,0.693,0.354,0.936,0.696s0.364,0.721,0.364,1.137
				c0,0.737-0.241,1.302-0.722,1.697c-0.481,0.394-1.142,0.591-1.982,0.591h-3.055v-7.982h2.795c0.849,0,1.512,0.187,1.989,0.559
				s0.715,0.91,0.715,1.612c0,0.416-0.097,0.776-0.292,1.079C203.071,197.003,202.822,197.207,202.518,197.311z M199.372,196.804
				h1.469c0.944,0,1.417-0.368,1.417-1.105c0-0.719-0.473-1.079-1.417-1.079h-1.469V196.804z M199.372,197.922v2.34h1.716
				c0.451,0,0.797-0.104,1.04-0.312c0.242-0.208,0.364-0.494,0.364-0.858c0-0.364-0.122-0.65-0.364-0.858
				c-0.243-0.208-0.589-0.312-1.04-0.312H199.372z"/>
			<path fill="#55595E" d="M211.274,200.71c-0.577,0.568-1.354,0.852-2.333,0.852c-0.979,0-1.757-0.284-2.333-0.852
				c-0.577-0.567-0.865-1.389-0.865-2.463v-4.797h1.352v4.654c0,1.5,0.615,2.249,1.846,2.249c1.23,0,1.846-0.75,1.846-2.249v-4.654
				h1.352v4.81C212.138,199.326,211.85,200.143,211.274,200.71z"/>
			<path fill="#55595E" d="M215.778,193.45v7.982h-1.352v-7.982H215.778z"/>
			<path fill="#55595E" d="M218.196,201.432v-7.982h1.352v6.773h3.835v1.209H218.196z"/>
			<path fill="#55595E" d="M224.917,194.646v-1.196h6.656v1.196h-2.652v6.786h-1.352v-6.786H224.917z"/>
			<path fill="#55595E" d="M233.133,198.611v-1.183h3.133v1.183H233.133z"/>
			<path fill="#55595E" d="M239.672,193.45v7.982h-1.353v-7.982H239.672z"/>
			<path fill="#55595E" d="M248.512,193.45v7.982h-1.04l-4.082-5.811v5.811h-1.3v-7.982h1.273l3.848,5.538v-5.538H248.512z"/>
			<path fill="#55595E" d="M260.029,201.965l-0.65-0.806c-0.512,0.269-1.07,0.403-1.677,0.403c-1.075,0-1.956-0.388-2.646-1.164
				c-0.689-0.775-1.033-1.761-1.033-2.958c0-1.196,0.344-2.182,1.033-2.958c0.689-0.775,1.57-1.163,2.646-1.163
				s1.959,0.388,2.652,1.163c0.693,0.776,1.04,1.762,1.04,2.958c0,1.222-0.369,2.223-1.105,3.003l0.663,0.819L260.029,201.965z
				 M260.029,197.44c0-0.849-0.215-1.547-0.644-2.093s-0.99-0.819-1.684-0.819s-1.253,0.271-1.677,0.812
				c-0.425,0.542-0.637,1.241-0.637,2.099c0,0.858,0.212,1.558,0.637,2.1c0.424,0.542,0.983,0.812,1.677,0.812
				c0.329,0,0.633-0.052,0.91-0.156l-0.663-0.819l0.936-0.689l0.638,0.793C259.86,198.979,260.029,198.299,260.029,197.44z"/>
			<path fill="#55595E" d="M267.615,196.375c0.507,0.563,0.76,1.287,0.76,2.171c0,0.884-0.253,1.608-0.76,2.171
				c-0.508,0.563-1.168,0.845-1.982,0.845c-0.815,0-1.477-0.281-1.982-0.845c-0.508-0.563-0.762-1.287-0.762-2.171
				c0-0.884,0.254-1.607,0.762-2.171c0.506-0.563,1.167-0.845,1.982-0.845C266.447,195.53,267.107,195.812,267.615,196.375z
				 M266.698,199.917c0.251-0.351,0.377-0.808,0.377-1.372c0-0.563-0.126-1.021-0.377-1.371c-0.251-0.351-0.606-0.527-1.065-0.527
				c-0.46,0-0.815,0.176-1.066,0.527c-0.252,0.351-0.377,0.808-0.377,1.371c0,0.563,0.125,1.021,0.377,1.372
				c0.251,0.351,0.606,0.527,1.066,0.527C266.092,200.444,266.447,200.268,266.698,199.917z"/>
			<path fill="#55595E" d="M269.688,199.222h1.379c0.251,0.797,0.854,1.196,1.807,1.196c0.469,0,0.843-0.106,1.125-0.318
				c0.281-0.212,0.422-0.5,0.422-0.864c0-0.286-0.089-0.514-0.266-0.683c-0.178-0.169-0.475-0.301-0.891-0.396l-1.353-0.325
				c-1.325-0.312-1.989-1.027-1.989-2.145c0-0.685,0.254-1.25,0.761-1.696s1.159-0.669,1.956-0.669c0.842,0,1.52,0.197,2.035,0.591
				c0.516,0.395,0.848,0.934,0.994,1.619h-1.352c-0.252-0.71-0.807-1.066-1.664-1.066c-0.434,0-0.782,0.102-1.047,0.305
				c-0.264,0.204-0.396,0.47-0.396,0.8c0,0.528,0.352,0.875,1.053,1.04l1.392,0.325c0.649,0.147,1.157,0.408,1.521,0.78
				c0.364,0.373,0.547,0.849,0.547,1.43c0,0.737-0.266,1.324-0.793,1.762c-0.529,0.438-1.214,0.656-2.055,0.656
				c-0.85,0-1.558-0.206-2.125-0.617C270.18,200.533,269.826,199.958,269.688,199.222z"/>
		</g>
	</g>
	<rect x="24.5" y="214" fill="#F5F6F6" stroke="#D9D9D9" stroke-miterlimit="10" width="102" height="30"/>
	<rect x="132.5" y="214" fill="#F5F6F6" stroke="#D9D9D9" stroke-miterlimit="10" width="101" height="30"/>
	<rect x="240.5" y="214" fill="#F5F6F6" stroke="#D9D9D9" stroke-miterlimit="10" width="101" height="30"/>
	<rect x="347.5" y="214" fill="#F5F6F6" stroke="#D9D9D9" stroke-miterlimit="10" width="102" height="30"/>
	<g>
		<g>
			<path fill="#55595E" d="M46.164,230.015h-0.888v2.988h-1.248v-7.368h2.844c0.776,0,1.388,0.19,1.836,0.57
				c0.448,0.38,0.672,0.926,0.672,1.638c0,0.608-0.166,1.09-0.498,1.446s-0.794,0.582-1.386,0.678l2.136,3.036h-1.416
				L46.164,230.015z M45.275,226.715v2.256h1.572c0.408,0,0.726-0.102,0.954-0.306s0.342-0.478,0.342-0.822
				c0-0.344-0.114-0.618-0.342-0.822s-0.546-0.306-0.954-0.306H45.275z"/>
			<path fill="#55595E" d="M51.287,225.635h4.812v1.104h-3.588v1.944h3.252v1.092h-3.252v2.112h3.588v1.116h-4.812V225.635z"/>
			<path fill="#55595E" d="M57.479,230.963h1.272c0.232,0.736,0.788,1.104,1.668,1.104c0.432,0,0.778-0.098,1.038-0.294
				c0.26-0.196,0.39-0.462,0.39-0.798c0-0.264-0.082-0.474-0.246-0.63c-0.164-0.156-0.438-0.278-0.822-0.366l-1.248-0.3
				c-1.224-0.288-1.836-0.948-1.836-1.98c0-0.632,0.234-1.154,0.702-1.566c0.468-0.412,1.07-0.618,1.806-0.618
				c0.776,0,1.402,0.182,1.878,0.546s0.782,0.862,0.918,1.494h-1.248c-0.232-0.656-0.744-0.984-1.536-0.984
				c-0.4,0-0.722,0.094-0.966,0.282c-0.244,0.188-0.366,0.434-0.366,0.738c0,0.488,0.324,0.808,0.972,0.96l1.284,0.3
				c0.6,0.136,1.068,0.376,1.404,0.72c0.336,0.344,0.504,0.784,0.504,1.32c0,0.68-0.244,1.222-0.732,1.626
				c-0.488,0.404-1.12,0.606-1.896,0.606c-0.784,0-1.438-0.19-1.962-0.57C57.933,232.173,57.607,231.643,57.479,230.963z"/>
			<path fill="#55595E" d="M66.131,225.635v7.368h-1.248v-7.368H66.131z"/>
			<path fill="#55595E" d="M68.363,233.003v-7.368h1.248v6.252h3.54v1.116H68.363z"/>
			<path fill="#55595E" d="M76.271,225.635v7.368h-1.248v-7.368H76.271z"/>
			<path fill="#55595E" d="M78.503,225.635h4.812v1.104h-3.588v1.944h3.252v1.092h-3.252v2.112h3.588v1.116h-4.812V225.635z"/>
			<path fill="#55595E" d="M91.199,225.635v7.368h-0.96l-3.768-5.364v5.364h-1.2v-7.368h1.176l3.552,5.112v-5.112H91.199z"/>
			<path fill="#55595E" d="M93.989,232.061c-0.636-0.708-0.954-1.622-0.954-2.742c0-1.12,0.318-2.034,0.954-2.742
				c0.636-0.708,1.434-1.062,2.394-1.062c0.816,0,1.484,0.218,2.004,0.654s0.852,1.03,0.996,1.782h-1.224
				c-0.32-0.872-0.912-1.308-1.776-1.308c-0.64,0-1.148,0.25-1.524,0.75c-0.376,0.5-0.564,1.142-0.564,1.926
				c0,0.784,0.188,1.426,0.564,1.926c0.376,0.5,0.884,0.75,1.524,0.75c0.864,0,1.456-0.44,1.776-1.32h1.224
				c-0.144,0.76-0.476,1.358-0.996,1.794c-0.52,0.437-1.188,0.654-2.004,0.654C95.423,233.123,94.625,232.769,93.989,232.061z"/>
			<path fill="#55595E" d="M103.871,228.935l1.944-3.3h1.32l-2.676,4.428v2.94h-1.236v-2.94l-2.664-4.428h1.356L103.871,228.935z"/>
		</g>
	</g>
	<g>
		<g>
			<path fill="#55595E" d="M139.778,226.739v-1.104h6.144v1.104h-2.448v6.264h-1.248v-6.264H139.778z"/>
			<path fill="#55595E" d="M149.834,230.015h-0.888v2.988h-1.248v-7.368h2.844c0.776,0,1.388,0.19,1.836,0.57
				c0.448,0.38,0.672,0.926,0.672,1.638c0,0.608-0.166,1.09-0.498,1.446s-0.794,0.582-1.386,0.678l2.136,3.036h-1.416
				L149.834,230.015z M148.946,226.715v2.256h1.572c0.408,0,0.726-0.102,0.954-0.306s0.342-0.478,0.342-0.822
				c0-0.344-0.114-0.618-0.342-0.822s-0.546-0.306-0.954-0.306H148.946z"/>
			<path fill="#55595E" d="M157.213,225.635h1.2l2.832,7.368h-1.272l-0.756-2.04h-2.82l-0.756,2.04h-1.26L157.213,225.635z
				 M157.802,227.159l-1.008,2.724h2.016L157.802,227.159z"/>
			<path fill="#55595E" d="M168.83,225.635v7.368h-0.96l-3.768-5.364v5.364h-1.2v-7.368h1.176l3.552,5.112v-5.112H168.83z"/>
			<path fill="#55595E" d="M170.486,230.963h1.272c0.232,0.736,0.788,1.104,1.668,1.104c0.432,0,0.778-0.098,1.038-0.294
				c0.26-0.196,0.39-0.462,0.39-0.798c0-0.264-0.082-0.474-0.246-0.63c-0.164-0.156-0.438-0.278-0.822-0.366l-1.248-0.3
				c-1.224-0.288-1.836-0.948-1.836-1.98c0-0.632,0.234-1.154,0.702-1.566c0.468-0.412,1.07-0.618,1.806-0.618
				c0.776,0,1.402,0.182,1.878,0.546s0.782,0.862,0.918,1.494h-1.248c-0.232-0.656-0.744-0.984-1.536-0.984
				c-0.4,0-0.722,0.094-0.966,0.282c-0.244,0.188-0.366,0.434-0.366,0.738c0,0.488,0.324,0.808,0.972,0.96l1.284,0.3
				c0.6,0.136,1.068,0.376,1.404,0.72c0.336,0.344,0.504,0.784,0.504,1.32c0,0.68-0.244,1.222-0.732,1.626
				c-0.488,0.404-1.12,0.606-1.896,0.606c-0.784,0-1.438-0.19-1.962-0.57C170.939,232.173,170.613,231.643,170.486,230.963z"/>
			<path fill="#55595E" d="M180.146,225.635h1.2l2.832,7.368h-1.272l-0.756-2.04h-2.82l-0.756,2.04h-1.26L180.146,225.635z
				 M180.734,227.159l-1.008,2.724h2.016L180.734,227.159z"/>
			<path fill="#55595E" d="M186.392,232.061c-0.636-0.708-0.954-1.622-0.954-2.742c0-1.12,0.318-2.034,0.954-2.742
				c0.636-0.708,1.434-1.062,2.394-1.062c0.816,0,1.484,0.218,2.004,0.654s0.852,1.03,0.996,1.782h-1.224
				c-0.32-0.872-0.912-1.308-1.776-1.308c-0.64,0-1.148,0.25-1.524,0.75c-0.376,0.5-0.564,1.142-0.564,1.926
				c0,0.784,0.188,1.426,0.564,1.926c0.376,0.5,0.884,0.75,1.524,0.75c0.864,0,1.456-0.44,1.776-1.32h1.224
				c-0.144,0.76-0.476,1.358-0.996,1.794c-0.52,0.437-1.188,0.654-2.004,0.654C187.826,233.123,187.027,232.769,186.392,232.061z"/>
			<path fill="#55595E" d="M193.141,226.739v-1.104h6.144v1.104h-2.448v6.264h-1.248v-6.264H193.141z"/>
			<path fill="#55595E" d="M202.309,225.635v7.368h-1.248v-7.368H202.309z"/>
			<path fill="#55595E" d="M209.989,226.589c0.64,0.716,0.96,1.626,0.96,2.73s-0.32,2.014-0.96,2.73
				c-0.64,0.716-1.456,1.074-2.448,1.074s-1.806-0.358-2.442-1.074c-0.636-0.716-0.954-1.626-0.954-2.73s0.318-2.014,0.954-2.73
				c0.636-0.716,1.45-1.074,2.442-1.074S209.349,225.873,209.989,226.589z M209.095,231.251c0.396-0.504,0.594-1.148,0.594-1.932
				c0-0.784-0.198-1.428-0.594-1.932c-0.396-0.504-0.914-0.756-1.554-0.756s-1.156,0.25-1.548,0.75
				c-0.392,0.5-0.588,1.146-0.588,1.938s0.196,1.438,0.588,1.938c0.392,0.5,0.908,0.75,1.548,0.75S208.699,231.755,209.095,231.251z
				"/>
			<path fill="#55595E" d="M218.713,225.635v7.368h-0.96l-3.768-5.364v5.364h-1.2v-7.368h1.176l3.552,5.112v-5.112H218.713z"/>
			<path fill="#55595E" d="M220.369,230.963h1.272c0.232,0.736,0.788,1.104,1.668,1.104c0.432,0,0.778-0.098,1.038-0.294
				c0.26-0.196,0.39-0.462,0.39-0.798c0-0.264-0.082-0.474-0.246-0.63c-0.164-0.156-0.438-0.278-0.822-0.366l-1.248-0.3
				c-1.224-0.288-1.836-0.948-1.836-1.98c0-0.632,0.234-1.154,0.702-1.566c0.468-0.412,1.07-0.618,1.806-0.618
				c0.776,0,1.402,0.182,1.878,0.546s0.782,0.862,0.918,1.494h-1.248c-0.232-0.656-0.744-0.984-1.536-0.984
				c-0.4,0-0.722,0.094-0.966,0.282c-0.244,0.188-0.366,0.434-0.366,0.738c0,0.488,0.324,0.808,0.972,0.96l1.284,0.3
				c0.6,0.136,1.068,0.376,1.404,0.72c0.336,0.344,0.504,0.784,0.504,1.32c0,0.68-0.244,1.222-0.732,1.626
				c-0.488,0.404-1.12,0.606-1.896,0.606c-0.784,0-1.438-0.19-1.962-0.57C220.823,232.173,220.497,231.643,220.369,230.963z"/>
		</g>
	</g>
	<g>
		<g>
			<path fill="#55595E" d="M263.555,230.963h1.271c0.232,0.736,0.787,1.104,1.668,1.104c0.432,0,0.777-0.098,1.037-0.294
				c0.261-0.196,0.391-0.462,0.391-0.798c0-0.264-0.082-0.474-0.246-0.63c-0.164-0.156-0.438-0.278-0.822-0.366l-1.248-0.3
				c-1.224-0.288-1.836-0.948-1.836-1.98c0-0.632,0.234-1.154,0.703-1.566c0.467-0.412,1.069-0.618,1.805-0.618
				c0.776,0,1.402,0.182,1.879,0.546c0.476,0.364,0.781,0.862,0.918,1.494h-1.248c-0.232-0.656-0.744-0.984-1.536-0.984
				c-0.4,0-0.722,0.094-0.966,0.282s-0.366,0.434-0.366,0.738c0,0.488,0.323,0.808,0.972,0.96l1.284,0.3
				c0.601,0.136,1.067,0.376,1.404,0.72c0.336,0.344,0.504,0.784,0.504,1.32c0,0.68-0.244,1.222-0.731,1.626
				c-0.488,0.404-1.121,0.606-1.896,0.606c-0.784,0-1.438-0.19-1.963-0.57C264.008,232.173,263.682,231.643,263.555,230.963z"/>
			<path fill="#55595E" d="M270.958,225.635h4.812v1.104h-3.588v1.944h3.252v1.092h-3.252v2.112h3.588v1.116h-4.812V225.635z"/>
			<path fill="#55595E" d="M278.283,232.061c-0.636-0.708-0.953-1.622-0.953-2.742c0-1.12,0.317-2.034,0.953-2.742
				c0.637-0.708,1.435-1.062,2.395-1.062c0.816,0,1.484,0.218,2.004,0.654s0.852,1.03,0.996,1.782h-1.225
				c-0.319-0.872-0.912-1.308-1.775-1.308c-0.641,0-1.148,0.25-1.523,0.75c-0.377,0.5-0.564,1.142-0.564,1.926
				c0,0.784,0.188,1.426,0.564,1.926c0.375,0.5,0.883,0.75,1.523,0.75c0.863,0,1.456-0.44,1.775-1.32h1.225
				c-0.145,0.76-0.477,1.358-0.996,1.794c-0.52,0.437-1.188,0.654-2.004,0.654C279.718,233.123,278.92,232.769,278.283,232.061z"/>
			<path fill="#55595E" d="M290.476,232.337c-0.532,0.524-1.25,0.786-2.153,0.786c-0.904,0-1.623-0.262-2.154-0.786
				c-0.532-0.524-0.799-1.282-0.799-2.274v-4.428h1.248v4.296c0,1.384,0.568,2.076,1.705,2.076c1.135,0,1.703-0.692,1.703-2.076
				v-4.296h1.248v4.44C291.273,231.059,291.008,231.813,290.476,232.337z"/>
			<path fill="#55595E" d="M295.521,230.015h-0.889v2.988h-1.248v-7.368h2.845c0.776,0,1.388,0.19,1.836,0.57
				s0.672,0.926,0.672,1.638c0,0.608-0.166,1.09-0.498,1.446s-0.794,0.582-1.386,0.678l2.136,3.036h-1.416L295.521,230.015z
				 M294.633,226.715v2.256h1.572c0.408,0,0.727-0.102,0.954-0.306s0.343-0.478,0.343-0.822c0-0.344-0.115-0.618-0.343-0.822
				s-0.546-0.306-0.954-0.306H294.633z"/>
			<path fill="#55595E" d="M301.894,225.635v7.368h-1.248v-7.368H301.894z"/>
			<path fill="#55595E" d="M303.669,226.739v-1.104h6.144v1.104h-2.447v6.264h-1.248v-6.264H303.669z"/>
			<path fill="#55595E" d="M314.266,228.935l1.943-3.3h1.32l-2.676,4.428v2.94h-1.236v-2.94l-2.664-4.428h1.355L314.266,228.935z"/>
		</g>
	</g>
	<g>
		<g>
			<path fill="#55595E" d="M360.739,226.589c0.641,0.716,0.96,1.626,0.96,2.73s-0.319,2.014-0.96,2.73
				c-0.64,0.716-1.456,1.074-2.447,1.074c-0.992,0-1.807-0.358-2.442-1.074c-0.636-0.716-0.954-1.626-0.954-2.73
				s0.318-2.014,0.954-2.73c0.636-0.716,1.45-1.074,2.442-1.074C359.283,225.515,360.1,225.873,360.739,226.589z M359.846,231.251
				c0.396-0.504,0.594-1.148,0.594-1.932c0-0.784-0.198-1.428-0.594-1.932c-0.396-0.504-0.914-0.756-1.554-0.756
				c-0.641,0-1.156,0.25-1.549,0.75c-0.392,0.5-0.588,1.146-0.588,1.938s0.196,1.438,0.588,1.938c0.393,0.5,0.908,0.75,1.549,0.75
				C358.932,232.007,359.449,231.755,359.846,231.251z"/>
			<path fill="#55595E" d="M367.651,229.199c0.353,0.112,0.641,0.326,0.864,0.642c0.224,0.316,0.336,0.666,0.336,1.05
				c0,0.68-0.222,1.202-0.666,1.566c-0.443,0.364-1.054,0.546-1.83,0.546h-2.819v-7.368h2.58c0.783,0,1.396,0.172,1.836,0.516
				c0.439,0.344,0.659,0.84,0.659,1.488c0,0.384-0.09,0.716-0.27,0.996C368.162,228.915,367.932,229.103,367.651,229.199z
				 M364.748,228.731h1.355c0.872,0,1.309-0.34,1.309-1.02c0-0.664-0.437-0.996-1.309-0.996h-1.355V228.731z M364.748,229.763v2.16
				h1.584c0.416,0,0.735-0.096,0.96-0.288c0.224-0.192,0.336-0.456,0.336-0.792s-0.112-0.6-0.336-0.792
				c-0.225-0.192-0.544-0.288-0.96-0.288H364.748z"/>
			<path fill="#55595E" d="M370.172,230.963h1.271c0.232,0.736,0.788,1.104,1.668,1.104c0.433,0,0.778-0.098,1.038-0.294
				c0.26-0.196,0.391-0.462,0.391-0.798c0-0.264-0.083-0.474-0.246-0.63c-0.164-0.156-0.438-0.278-0.822-0.366l-1.248-0.3
				c-1.224-0.288-1.836-0.948-1.836-1.98c0-0.632,0.234-1.154,0.702-1.566c0.468-0.412,1.069-0.618,1.806-0.618
				c0.776,0,1.402,0.182,1.878,0.546c0.477,0.364,0.782,0.862,0.918,1.494h-1.248c-0.231-0.656-0.744-0.984-1.536-0.984
				c-0.399,0-0.722,0.094-0.966,0.282s-0.366,0.434-0.366,0.738c0,0.488,0.324,0.808,0.973,0.96l1.284,0.3
				c0.6,0.136,1.067,0.376,1.403,0.72c0.336,0.344,0.504,0.784,0.504,1.32c0,0.68-0.244,1.222-0.731,1.626
				c-0.488,0.404-1.12,0.606-1.896,0.606c-0.784,0-1.438-0.19-1.962-0.57C370.626,232.173,370.3,231.643,370.172,230.963z"/>
			<path fill="#55595E" d="M377.576,225.635h4.812v1.104H378.8v1.944h3.252v1.092H378.8v2.112h3.588v1.116h-4.812V225.635z"/>
			<path fill="#55595E" d="M386.479,230.015h-0.888v2.988h-1.248v-7.368h2.844c0.775,0,1.388,0.19,1.836,0.57
				s0.672,0.926,0.672,1.638c0,0.608-0.166,1.09-0.498,1.446s-0.794,0.582-1.386,0.678l2.136,3.036h-1.416L386.479,230.015z
				 M385.592,226.715v2.256h1.571c0.408,0,0.727-0.102,0.954-0.306c0.229-0.204,0.342-0.478,0.342-0.822
				c0-0.344-0.113-0.618-0.342-0.822c-0.228-0.204-0.546-0.306-0.954-0.306H385.592z"/>
			<path fill="#55595E" d="M394.999,233.003h-1.188l-2.784-7.368h1.308l2.088,5.748l2.088-5.748h1.272L394.999,233.003z"/>
			<path fill="#55595E" d="M401.695,225.635h1.2l2.831,7.368h-1.271l-0.756-2.04h-2.82l-0.756,2.04h-1.26L401.695,225.635z
				 M402.283,227.159l-1.008,2.724h2.016L402.283,227.159z"/>
			<path fill="#55595E" d="M411.499,229.199c0.353,0.112,0.641,0.326,0.864,0.642c0.224,0.316,0.336,0.666,0.336,1.05
				c0,0.68-0.222,1.202-0.666,1.566c-0.443,0.364-1.054,0.546-1.83,0.546h-2.819v-7.368h2.58c0.783,0,1.396,0.172,1.836,0.516
				c0.439,0.344,0.659,0.84,0.659,1.488c0,0.384-0.09,0.716-0.27,0.996C412.01,228.915,411.779,229.103,411.499,229.199z
				 M408.596,228.731h1.355c0.872,0,1.309-0.34,1.309-1.02c0-0.664-0.437-0.996-1.309-0.996h-1.355V228.731z M408.596,229.763v2.16
				h1.584c0.416,0,0.735-0.096,0.96-0.288c0.224-0.192,0.336-0.456,0.336-0.792s-0.112-0.6-0.336-0.792
				c-0.225-0.192-0.544-0.288-0.96-0.288H408.596z"/>
			<path fill="#55595E" d="M415.844,225.635v7.368h-1.248v-7.368H415.844z"/>
			<path fill="#55595E" d="M418.075,233.003v-7.368h1.248v6.252h3.539v1.116H418.075z"/>
			<path fill="#55595E" d="M425.983,225.635v7.368h-1.248v-7.368H425.983z"/>
			<path fill="#55595E" d="M427.759,226.739v-1.104h6.144v1.104h-2.448v6.264h-1.248v-6.264H427.759z"/>
			<path fill="#55595E" d="M438.354,228.935l1.943-3.3h1.32l-2.676,4.428v2.94h-1.236v-2.94l-2.664-4.428h1.356L438.354,228.935z"/>
		</g>
	</g>
	<rect x="16" y="99" fill="#FFFFFF" width="442" height="75"/>
	<rect x="24.5" y="135" fill="#F5F6F6" stroke="#D9D9D9" stroke-miterlimit="10" width="102" height="30"/>
	<rect x="132.5" y="135" fill="#F5F6F6" stroke="#D9D9D9" stroke-miterlimit="10" width="101" height="30"/>
	<rect x="240.5" y="135" fill="#F5F6F6" stroke="#D9D9D9" stroke-miterlimit="10" width="101" height="30"/>
	<rect x="347.5" y="135" fill="#F5F6F6" stroke="#D9D9D9" stroke-miterlimit="10" width="102" height="30"/>
	<g>
		<g>
			<path fill="#55595E" d="M150.525,112.914v7.982h-1.04l-4.082-5.811v5.811h-1.3v-7.982h1.274l3.848,5.538v-5.538H150.525z"/>
			<path fill="#55595E" d="M152.942,112.914h5.213v1.196h-3.887v2.106h3.523v1.183h-3.523v2.288h3.887v1.209h-5.213V112.914z"/>
			<path fill="#55595E" d="M159.781,114.109v-1.196h6.656v1.196h-2.652v6.786h-1.352v-6.786H159.781z"/>
			<path fill="#55595E" d="M171.988,112.914h1.092l1.508,5.876l1.443-5.876h1.3l-2.054,7.982h-1.248l-1.508-5.707l-1.534,5.707
				h-1.235l-2.054-7.982h1.326l1.443,5.876L171.988,112.914z"/>
			<path fill="#55595E" d="M184.987,113.947c0.693,0.776,1.04,1.762,1.04,2.958c0,1.196-0.347,2.182-1.04,2.958
				c-0.693,0.776-1.578,1.164-2.652,1.164s-1.956-0.388-2.646-1.164c-0.689-0.775-1.033-1.761-1.033-2.958
				c0-1.196,0.344-2.182,1.033-2.958c0.689-0.775,1.571-1.163,2.646-1.163S184.294,113.171,184.987,113.947z M184.019,118.998
				c0.429-0.546,0.644-1.244,0.644-2.093c0-0.849-0.214-1.547-0.644-2.093c-0.429-0.546-0.99-0.819-1.684-0.819
				s-1.252,0.271-1.677,0.812c-0.425,0.542-0.637,1.241-0.637,2.099c0,0.858,0.212,1.558,0.637,2.1
				c0.424,0.542,0.983,0.812,1.677,0.812S183.59,119.543,184.019,118.998z"/>
			<path fill="#55595E" d="M190.331,117.659h-0.962v3.237h-1.352v-7.982h3.081c0.841,0,1.504,0.206,1.989,0.618
				s0.728,1.003,0.728,1.774c0,0.659-0.18,1.181-0.54,1.566c-0.36,0.386-0.86,0.63-1.501,0.734l2.314,3.289h-1.534L190.331,117.659z
				 M189.368,114.083v2.444h1.703c0.442,0,0.787-0.11,1.034-0.332c0.247-0.221,0.37-0.518,0.37-0.89s-0.123-0.669-0.37-0.891
				s-0.592-0.332-1.034-0.332H189.368z"/>
			<path fill="#55595E" d="M197.233,112.914v3.822l3.315-3.822h1.703l-3.224,3.627l3.341,4.355h-1.69l-2.626-3.419l-0.819,0.936
				v2.483h-1.352v-7.982H197.233z"/>
			<path fill="#55595E" d="M203.733,118.075v-1.183h3.133v1.183H203.733z"/>
			<path fill="#55595E" d="M211.364,112.914h1.3l3.068,7.982h-1.378l-0.819-2.21h-3.055l-0.819,2.21h-1.365L211.364,112.914z
				 M212.001,114.564l-1.092,2.951h2.184L212.001,114.564z"/>
			<path fill="#55595E" d="M221.153,112.914h1.092l1.508,5.876l1.443-5.876h1.3l-2.054,7.982h-1.248l-1.508-5.707l-1.534,5.707
				h-1.235l-2.054-7.982h1.326l1.443,5.876L221.153,112.914z"/>
			<path fill="#55595E" d="M230.695,112.914h1.3l3.068,7.982h-1.378l-0.819-2.21h-3.055l-0.819,2.21h-1.365L230.695,112.914z
				 M231.332,114.564l-1.092,2.951h2.184L231.332,114.564z"/>
			<path fill="#55595E" d="M239.171,117.659h-0.962v3.237h-1.353v-7.982h3.081c0.841,0,1.504,0.206,1.989,0.618
				s0.728,1.003,0.728,1.774c0,0.659-0.18,1.181-0.539,1.566s-0.86,0.63-1.502,0.734l2.314,3.289h-1.534L239.171,117.659z
				 M238.209,114.083v2.444h1.703c0.441,0,0.786-0.11,1.033-0.332c0.247-0.221,0.37-0.518,0.37-0.89s-0.123-0.669-0.37-0.891
				s-0.592-0.332-1.033-0.332H238.209z"/>
			<path fill="#55595E" d="M244.722,112.914h5.214v1.196h-3.888v2.106h3.522v1.183h-3.522v2.288h3.888v1.209h-5.214V112.914z"/>
			<path fill="#55595E" d="M255.576,120.896v-7.982h2.691c1.178,0,2.119,0.362,2.82,1.085c0.703,0.724,1.054,1.692,1.054,2.905
				c0,1.214-0.351,2.182-1.054,2.906c-0.701,0.724-1.643,1.085-2.82,1.085H255.576z M256.928,119.687h1.287
				c0.824,0,1.459-0.247,1.905-0.741c0.446-0.494,0.669-1.174,0.669-2.041c0-0.866-0.223-1.549-0.669-2.047
				c-0.446-0.498-1.081-0.748-1.905-0.748h-1.287V119.687z"/>
			<path fill="#55595E" d="M266.574,112.914h1.301l3.067,7.982h-1.378l-0.818-2.21h-3.056l-0.819,2.21h-1.365L266.574,112.914z
				 M267.211,114.564l-1.092,2.951h2.185L267.211,114.564z"/>
			<path fill="#55595E" d="M272.242,114.109v-1.196h6.656v1.196h-2.652v6.786h-1.352v-6.786H272.242z"/>
			<path fill="#55595E" d="M283.267,112.914h1.3l3.068,7.982h-1.379l-0.818-2.21h-3.055l-0.819,2.21h-1.365L283.267,112.914z
				 M283.903,114.564l-1.092,2.951h2.185L283.903,114.564z"/>
			<path fill="#55595E" d="M292.457,114.109v-1.196h6.656v1.196h-2.652v6.786h-1.352v-6.786H292.457z"/>
			<path fill="#55595E" d="M303.936,116.488l2.106-3.575h1.43l-2.899,4.797v3.185h-1.338v-3.185l-2.887-4.797h1.469L303.936,116.488
				z"/>
			<path fill="#55595E" d="M312.281,117.918h-1.729v2.977h-1.352v-7.982h3.08c0.842,0,1.506,0.217,1.996,0.65
				c0.49,0.434,0.734,1.053,0.734,1.859c0,0.798-0.244,1.413-0.734,1.846C313.787,117.702,313.123,117.918,312.281,117.918z
				 M313.673,115.422c0-0.407-0.122-0.732-0.364-0.975c-0.242-0.242-0.594-0.364-1.053-0.364h-1.703v2.665h1.703
				c0.451,0,0.799-0.121,1.047-0.364C313.549,116.142,313.673,115.821,313.673,115.422z"/>
			<path fill="#55595E" d="M316.936,112.914h5.213v1.196h-3.887v2.106h3.523v1.183h-3.523v2.288h3.887v1.209h-5.213V112.914z"/>
			<path fill="#55595E" d="M323.644,118.686h1.378c0.252,0.797,0.854,1.196,1.807,1.196c0.469,0,0.844-0.106,1.125-0.318
				s0.423-0.5,0.423-0.864c0-0.286-0.089-0.514-0.267-0.683s-0.475-0.301-0.891-0.396l-1.352-0.325
				c-1.326-0.312-1.989-1.027-1.989-2.145c0-0.685,0.253-1.25,0.761-1.696c0.507-0.446,1.158-0.669,1.956-0.669
				c0.841,0,1.519,0.197,2.034,0.591c0.516,0.395,0.848,0.934,0.995,1.619h-1.353c-0.251-0.71-0.806-1.066-1.664-1.066
				c-0.434,0-0.781,0.102-1.046,0.305s-0.397,0.47-0.397,0.8c0,0.528,0.352,0.875,1.054,1.04l1.392,0.325
				c0.649,0.147,1.156,0.408,1.521,0.78s0.546,0.849,0.546,1.43c0,0.737-0.265,1.324-0.793,1.762
				c-0.529,0.438-1.213,0.656-2.055,0.656c-0.849,0-1.557-0.206-2.125-0.617C324.136,119.997,323.782,119.422,323.644,118.686z"/>
		</g>
	</g>
	<g>
		<g>
			<path fill="#55595E" d="M60.892,151.391h1.296c0.088,0.752,0.48,1.128,1.176,1.128c0.832,0,1.248-0.508,1.248-1.524v-4.824h1.248
				v4.824c0,0.864-0.22,1.524-0.66,1.98s-1.044,0.684-1.812,0.684c-0.76,0-1.352-0.206-1.776-0.618S60.948,152.079,60.892,151.391z"
				/>
			<path fill="#55595E" d="M67.372,151.499h1.272c0.232,0.736,0.788,1.104,1.668,1.104c0.432,0,0.778-0.098,1.038-0.294
				c0.26-0.196,0.39-0.462,0.39-0.798c0-0.264-0.082-0.474-0.246-0.63c-0.164-0.156-0.438-0.278-0.822-0.366l-1.248-0.3
				c-1.224-0.288-1.836-0.948-1.836-1.98c0-0.632,0.234-1.154,0.702-1.566c0.468-0.412,1.07-0.618,1.806-0.618
				c0.776,0,1.402,0.182,1.878,0.546s0.782,0.862,0.918,1.494h-1.248c-0.232-0.656-0.744-0.984-1.536-0.984
				c-0.4,0-0.722,0.094-0.966,0.282c-0.244,0.188-0.366,0.434-0.366,0.738c0,0.488,0.324,0.808,0.972,0.96l1.284,0.3
				c0.6,0.136,1.068,0.376,1.404,0.72c0.336,0.344,0.504,0.784,0.504,1.32c0,0.68-0.244,1.222-0.732,1.626
				c-0.488,0.404-1.12,0.606-1.896,0.606c-0.784,0-1.438-0.19-1.962-0.57C67.826,152.709,67.5,152.179,67.372,151.499z"/>
			<path fill="#55595E" d="M80.224,147.125c0.64,0.716,0.96,1.626,0.96,2.73s-0.32,2.014-0.96,2.73
				c-0.64,0.716-1.456,1.074-2.448,1.074s-1.806-0.358-2.442-1.074c-0.636-0.716-0.954-1.626-0.954-2.73s0.318-2.014,0.954-2.73
				c0.636-0.716,1.45-1.074,2.442-1.074S79.583,146.409,80.224,147.125z M79.33,151.787c0.396-0.504,0.594-1.148,0.594-1.932
				c0-0.784-0.198-1.428-0.594-1.932c-0.396-0.504-0.914-0.756-1.554-0.756s-1.156,0.25-1.548,0.75
				c-0.392,0.5-0.588,1.146-0.588,1.938s0.196,1.438,0.588,1.938c0.392,0.5,0.908,0.75,1.548,0.75S78.934,152.291,79.33,151.787z"/>
			<path fill="#55595E" d="M88.948,146.171v7.368h-0.96l-3.768-5.364v5.364h-1.2v-7.368h1.176l3.552,5.112v-5.112H88.948z"/>
		</g>
	</g>
	<g>
		<g>
			<path fill="#55595E" d="M177.973,146.171l-2.496,3.588l2.616,3.78h-1.428l-1.908-2.772l-1.908,2.772h-1.392l2.604-3.756
				l-2.484-3.612h1.428l1.776,2.604l1.812-2.604H177.973z"/>
			<path fill="#55595E" d="M183.732,153.539h-0.888l-2.028-5.124v5.124h-1.188v-7.368h1.428l2.244,5.664l2.22-5.664h1.392v7.368
				h-1.2v-5.124L183.732,153.539z"/>
			<path fill="#55595E" d="M189.144,153.539v-7.368h1.248v6.252h3.54v1.116H189.144z"/>
		</g>
	</g>
	<g>
		<g>
			<path fill="#55595E" d="M273.123,147.275v-1.104h6.144v1.104h-2.448v6.264h-1.248v-6.264H273.123z"/>
			<path fill="#55595E" d="M283.299,146.171h1.199l2.832,7.368h-1.271l-0.756-2.04h-2.82l-0.756,2.04h-1.26L283.299,146.171z
				 M283.887,147.695l-1.008,2.724h2.016L283.887,147.695z"/>
			<path fill="#55595E" d="M293.103,149.735c0.353,0.112,0.64,0.326,0.864,0.642c0.224,0.316,0.336,0.666,0.336,1.05
				c0,0.68-0.223,1.202-0.666,1.566c-0.444,0.364-1.055,0.546-1.83,0.546h-2.82v-7.368h2.58c0.784,0,1.396,0.172,1.836,0.516
				c0.439,0.344,0.66,0.84,0.66,1.488c0,0.384-0.09,0.716-0.27,0.996C293.612,149.451,293.383,149.639,293.103,149.735z
				 M290.198,149.267h1.356c0.871,0,1.308-0.34,1.308-1.02c0-0.664-0.437-0.996-1.308-0.996h-1.356V149.267z M290.198,150.299v2.16
				h1.584c0.416,0,0.736-0.096,0.96-0.288c0.225-0.192,0.336-0.456,0.336-0.792s-0.111-0.6-0.336-0.792
				c-0.224-0.192-0.544-0.288-0.96-0.288H290.198z"/>
			<path fill="#55595E" d="M296.198,153.539v-7.368h1.248v6.252h3.54v1.116H296.198z"/>
			<path fill="#55595E" d="M302.858,146.171h4.812v1.104h-3.588v1.944h3.252v1.092h-3.252v2.112h3.588v1.116h-4.812V146.171z"/>
		</g>
	</g>
	<g>
		<g>
			<path fill="#55595E" d="M375.763,151.499h1.271c0.232,0.736,0.788,1.104,1.668,1.104c0.433,0,0.778-0.098,1.038-0.294
				c0.26-0.196,0.391-0.462,0.391-0.798c0-0.264-0.083-0.474-0.246-0.63c-0.164-0.156-0.438-0.278-0.822-0.366l-1.248-0.3
				c-1.224-0.288-1.836-0.948-1.836-1.98c0-0.632,0.234-1.154,0.702-1.566c0.468-0.412,1.069-0.618,1.806-0.618
				c0.776,0,1.402,0.182,1.878,0.546c0.477,0.364,0.782,0.862,0.918,1.494h-1.248c-0.231-0.656-0.744-0.984-1.536-0.984
				c-0.399,0-0.722,0.094-0.966,0.282s-0.366,0.434-0.366,0.738c0,0.488,0.324,0.808,0.973,0.96l1.284,0.3
				c0.6,0.136,1.067,0.376,1.403,0.72c0.336,0.344,0.504,0.784,0.504,1.32c0,0.68-0.244,1.222-0.731,1.626
				c-0.488,0.404-1.12,0.606-1.896,0.606c-0.784,0-1.438-0.19-1.962-0.57C376.217,152.709,375.891,152.179,375.763,151.499z"/>
			<path fill="#55595E" d="M382.711,147.275v-1.104h6.144v1.104h-2.448v6.264h-1.248v-6.264H382.711z"/>
			<path fill="#55595E" d="M392.767,150.551h-0.888v2.988h-1.248v-7.368h2.844c0.775,0,1.388,0.19,1.836,0.57
				s0.672,0.926,0.672,1.638c0,0.608-0.166,1.09-0.498,1.446s-0.794,0.582-1.386,0.678l2.136,3.036h-1.416L392.767,150.551z
				 M391.879,147.251v2.256h1.571c0.408,0,0.727-0.102,0.954-0.306c0.229-0.204,0.342-0.478,0.342-0.822
				c0-0.344-0.113-0.618-0.342-0.822c-0.228-0.204-0.546-0.306-0.954-0.306H391.879z"/>
			<path fill="#55595E" d="M397.891,146.171h4.812v1.104h-3.588v1.944h3.252v1.092h-3.252v2.112h3.588v1.116h-4.812V146.171z"/>
			<path fill="#55595E" d="M406.914,146.171h1.2l2.831,7.368h-1.271l-0.756-2.04h-2.82l-0.756,2.04h-1.26L406.914,146.171z
				 M407.502,147.695l-1.008,2.724h2.016L407.502,147.695z"/>
			<path fill="#55595E" d="M416.706,153.539h-0.888l-2.028-5.124v5.124h-1.188v-7.368h1.428l2.244,5.664l2.22-5.664h1.392v7.368
				h-1.199v-5.124L416.706,153.539z"/>
		</g>
	</g>
	<rect x="16" y="299" fill="#FFFFFF" width="442" height="75"/>
	<g>
		<g>
			<path fill="#55595E" d="M196.487,317.202v-1.196h6.656v1.196h-2.652v6.786h-1.352v-6.786H196.487z"/>
			<path fill="#55595E" d="M207.381,320.752h-0.962v3.236h-1.352v-7.982h3.081c0.841,0,1.504,0.207,1.989,0.618
				s0.728,1.003,0.728,1.774c0,0.658-0.18,1.181-0.54,1.566c-0.36,0.386-0.86,0.631-1.501,0.734l2.314,3.289h-1.534L207.381,320.752
				z M206.418,317.176v2.444h1.703c0.442,0,0.787-0.11,1.034-0.331s0.37-0.518,0.37-0.891s-0.123-0.67-0.37-0.891
				s-0.592-0.332-1.034-0.332H206.418z"/>
			<path fill="#55595E" d="M215.375,316.006h1.3l3.068,7.982h-1.378l-0.819-2.21h-3.055l-0.819,2.21h-1.365L215.375,316.006z
				 M216.012,317.657l-1.092,2.951h2.184L216.012,317.657z"/>
			<path fill="#55595E" d="M227.959,316.006v7.982h-1.04l-4.082-5.811v5.811h-1.3v-7.982h1.274l3.848,5.539v-5.539H227.959z"/>
			<path fill="#55595E" d="M229.753,321.778h1.378c0.251,0.798,0.854,1.196,1.807,1.196c0.468,0,0.843-0.106,1.125-0.318
				c0.282-0.213,0.423-0.501,0.423-0.865c0-0.285-0.089-0.514-0.267-0.682c-0.178-0.17-0.475-0.302-0.891-0.396l-1.352-0.326
				c-1.326-0.312-1.989-1.026-1.989-2.145c0-0.685,0.253-1.25,0.76-1.696c0.507-0.446,1.159-0.669,1.957-0.669
				c0.841,0,1.519,0.197,2.035,0.591c0.516,0.395,0.847,0.935,0.995,1.618h-1.352c-0.251-0.71-0.806-1.065-1.664-1.065
				c-0.434,0-0.782,0.102-1.046,0.306c-0.265,0.203-0.397,0.47-0.397,0.799c0,0.529,0.351,0.876,1.053,1.04l1.391,0.325
				c0.65,0.147,1.157,0.408,1.521,0.78c0.364,0.372,0.546,0.849,0.546,1.43c0,0.737-0.265,1.324-0.793,1.762
				c-0.529,0.438-1.213,0.656-2.054,0.656c-0.849,0-1.558-0.206-2.125-0.617C230.245,323.09,229.892,322.516,229.753,321.778z"/>
			<path fill="#55595E" d="M240.855,321.012h-1.729v2.977h-1.353v-7.982h3.082c0.84,0,1.506,0.217,1.995,0.65
				s0.734,1.053,0.734,1.859c0,0.797-0.245,1.412-0.734,1.846S241.695,321.012,240.855,321.012z M242.246,318.516
				c0-0.408-0.121-0.732-0.363-0.976c-0.244-0.242-0.594-0.364-1.054-0.364h-1.703v2.666h1.703c0.45,0,0.8-0.121,1.046-0.365
				C242.123,319.234,242.246,318.914,242.246,318.516z"/>
			<path fill="#55595E" d="M251.412,317.039c0.693,0.776,1.039,1.762,1.039,2.958s-0.346,2.183-1.039,2.958
				s-1.578,1.163-2.652,1.163c-1.075,0-1.957-0.388-2.646-1.163c-0.688-0.775-1.033-1.762-1.033-2.958s0.345-2.182,1.033-2.958
				c0.689-0.775,1.571-1.162,2.646-1.162C249.834,315.877,250.719,316.264,251.412,317.039z M250.443,322.09
				c0.429-0.545,0.643-1.243,0.643-2.093c0-0.849-0.214-1.547-0.643-2.093c-0.43-0.546-0.99-0.818-1.684-0.818
				s-1.253,0.271-1.678,0.812c-0.424,0.541-0.637,1.24-0.637,2.099s0.213,1.558,0.637,2.1c0.425,0.542,0.984,0.812,1.678,0.812
				S250.014,322.637,250.443,322.09z"/>
			<path fill="#55595E" d="M256.754,320.752h-0.962v3.236h-1.353v-7.982h3.082c0.84,0,1.504,0.207,1.988,0.618
				c0.486,0.411,0.729,1.003,0.729,1.774c0,0.658-0.18,1.181-0.539,1.566c-0.36,0.386-0.861,0.631-1.502,0.734l2.314,3.289h-1.535
				L256.754,320.752z M255.792,317.176v2.444h1.703c0.442,0,0.786-0.11,1.034-0.331c0.246-0.221,0.369-0.518,0.369-0.891
				s-0.123-0.67-0.369-0.891c-0.248-0.221-0.592-0.332-1.034-0.332H255.792z"/>
			<path fill="#55595E" d="M261.811,317.202v-1.196h6.656v1.196h-2.652v6.786h-1.352v-6.786H261.811z"/>
			<path fill="#55595E" d="M269.767,321.778h1.378c0.252,0.798,0.854,1.196,1.807,1.196c0.469,0,0.844-0.106,1.125-0.318
				c0.281-0.213,0.423-0.501,0.423-0.865c0-0.285-0.089-0.514-0.267-0.682c-0.178-0.17-0.475-0.302-0.891-0.396l-1.352-0.326
				c-1.326-0.312-1.989-1.026-1.989-2.145c0-0.685,0.253-1.25,0.761-1.696c0.507-0.446,1.158-0.669,1.956-0.669
				c0.841,0,1.519,0.197,2.034,0.591c0.516,0.395,0.848,0.935,0.995,1.618h-1.353c-0.251-0.71-0.806-1.065-1.664-1.065
				c-0.434,0-0.781,0.102-1.046,0.306c-0.265,0.203-0.397,0.47-0.397,0.799c0,0.529,0.352,0.876,1.054,1.04l1.392,0.325
				c0.649,0.147,1.156,0.408,1.521,0.78s0.546,0.849,0.546,1.43c0,0.737-0.265,1.324-0.793,1.762
				c-0.529,0.438-1.213,0.656-2.055,0.656c-0.849,0-1.557-0.206-2.125-0.617C270.259,323.09,269.905,322.516,269.767,321.778z"/>
		</g>
	</g>
	<rect x="24.5" y="335" fill="#F5F6F6" stroke="#D9D9D9" stroke-miterlimit="10" width="102" height="30"/>
	<rect x="132.5" y="335" fill="#F5F6F6" stroke="#D9D9D9" stroke-miterlimit="10" width="101" height="30"/>
	<rect x="240.5" y="335" fill="#F5F6F6" stroke="#D9D9D9" stroke-miterlimit="10" width="101" height="30"/>
	<rect x="347.5" y="335" fill="#F5F6F6" stroke="#D9D9D9" stroke-miterlimit="10" width="102" height="30"/>
	<g>
		<g>
			<path fill="#55595E" d="M66.083,346.604h1.248v7.368h-1.248v-3.228h-3.708v3.228h-1.248v-7.368h1.248v3.036h3.708V346.604z"/>
			<path fill="#55595E" d="M69.107,347.707v-1.104h6.144v1.104h-2.448v6.265h-1.248v-6.265H69.107z"/>
			<path fill="#55595E" d="M76.571,347.707v-1.104h6.144v1.104h-2.448v6.265h-1.248v-6.265H76.571z"/>
			<path fill="#55595E" d="M87.335,351.224h-1.596v2.748h-1.248v-7.368h2.844c0.776,0,1.39,0.2,1.842,0.6
				c0.452,0.4,0.678,0.973,0.678,1.717c0,0.736-0.226,1.304-0.678,1.703C88.725,351.023,88.111,351.224,87.335,351.224z
				 M88.619,348.92c0-0.376-0.112-0.676-0.336-0.9c-0.224-0.224-0.548-0.336-0.972-0.336h-1.572v2.46h1.572
				c0.416,0,0.738-0.112,0.966-0.336S88.619,349.287,88.619,348.92z"/>
		</g>
	</g>
	<g>
		<g>
			<path fill="#55595E" d="M172.934,353.611v-0.24c-0.128,0.152-0.314,0.283-0.558,0.391c-0.244,0.107-0.51,0.162-0.798,0.162
				c-0.752,0-1.353-0.264-1.8-0.792c-0.448-0.528-0.672-1.164-0.672-1.908s0.224-1.38,0.672-1.907
				c0.448-0.529,1.048-0.793,1.8-0.793c0.288,0,0.554,0.055,0.798,0.162c0.244,0.107,0.43,0.238,0.558,0.391v-0.433h1.2v4.884
				c0,0.864-0.23,1.514-0.69,1.95s-1.066,0.654-1.818,0.654c-0.672,0-1.218-0.167-1.638-0.498c-0.42-0.332-0.662-0.79-0.726-1.374
				h1.164c0.12,0.592,0.52,0.888,1.2,0.888C172.498,355.147,172.934,354.636,172.934,353.611z M172.934,352.231v-2.016
				c-0.104-0.185-0.26-0.336-0.468-0.456s-0.436-0.18-0.684-0.18c-0.448,0-0.802,0.152-1.062,0.455
				c-0.26,0.305-0.39,0.701-0.39,1.188c0,0.488,0.13,0.884,0.39,1.188c0.26,0.304,0.614,0.455,1.062,0.455
				c0.248,0,0.476-0.06,0.684-0.18C172.674,352.568,172.83,352.416,172.934,352.231z"/>
			<path fill="#55595E" d="M178.43,350.984h-0.888v2.987h-1.248v-7.368h2.844c0.776,0,1.388,0.19,1.836,0.57
				c0.448,0.38,0.672,0.926,0.672,1.638c0,0.608-0.166,1.091-0.498,1.446s-0.794,0.582-1.386,0.678l2.136,3.036h-1.416
				L178.43,350.984z M177.542,347.684v2.256h1.572c0.408,0,0.726-0.102,0.954-0.306s0.342-0.478,0.342-0.822
				c0-0.344-0.114-0.618-0.342-0.821c-0.228-0.205-0.546-0.307-0.954-0.307H177.542z"/>
			<path fill="#55595E" d="M186.398,351.224h-1.596v2.748h-1.248v-7.368h2.844c0.776,0,1.39,0.2,1.842,0.6
				c0.452,0.4,0.678,0.973,0.678,1.717c0,0.736-0.226,1.304-0.678,1.703C187.788,351.023,187.174,351.224,186.398,351.224z
				 M187.682,348.92c0-0.376-0.112-0.676-0.336-0.9c-0.224-0.224-0.548-0.336-0.972-0.336h-1.572v2.46h1.572
				c0.416,0,0.738-0.112,0.966-0.336S187.682,349.287,187.682,348.92z"/>
			<path fill="#55595E" d="M191.252,353.029c-0.636-0.707-0.954-1.621-0.954-2.742c0-1.119,0.318-2.033,0.954-2.741
				c0.636-0.708,1.434-1.062,2.394-1.062c0.816,0,1.484,0.217,2.004,0.653s0.852,1.03,0.996,1.782h-1.224
				c-0.32-0.872-0.912-1.309-1.776-1.309c-0.64,0-1.148,0.25-1.524,0.75c-0.376,0.5-0.564,1.143-0.564,1.926
				c0,0.785,0.188,1.427,0.564,1.927c0.376,0.5,0.884,0.75,1.524,0.75c0.864,0,1.456-0.44,1.776-1.32h1.224
				c-0.144,0.761-0.476,1.358-0.996,1.794c-0.52,0.437-1.188,0.654-2.004,0.654C192.686,354.092,191.888,353.738,191.252,353.029z"
				/>
		</g>
	</g>
	<g>
		<g>
			<path fill="#55595E" d="M260.711,346.604h1.008l1.392,5.424l1.332-5.424h1.2l-1.896,7.368h-1.152l-1.392-5.269l-1.415,5.269
				h-1.141l-1.896-7.368h1.225l1.332,5.424L260.711,346.604z"/>
			<path fill="#55595E" d="M267.262,346.604h4.812v1.104h-3.588v1.945h3.252v1.092h-3.252v2.111h3.588v1.116h-4.812V346.604z"/>
			<path fill="#55595E" d="M278.146,350.168c0.352,0.111,0.64,0.326,0.863,0.642c0.225,0.316,0.336,0.666,0.336,1.05
				c0,0.68-0.221,1.202-0.666,1.566c-0.443,0.364-1.053,0.546-1.829,0.546h-2.82v-7.368h2.58c0.784,0,1.396,0.172,1.836,0.516
				c0.44,0.345,0.66,0.84,0.66,1.488c0,0.385-0.091,0.717-0.271,0.996C278.656,349.884,278.426,350.072,278.146,350.168z
				 M275.242,349.699h1.355c0.873,0,1.309-0.34,1.309-1.02c0-0.664-0.436-0.996-1.309-0.996h-1.355V349.699z M275.242,350.731v2.16
				h1.584c0.416,0,0.736-0.096,0.96-0.288c0.224-0.191,0.337-0.456,0.337-0.792s-0.113-0.6-0.337-0.792
				c-0.224-0.191-0.544-0.288-0.96-0.288H275.242z"/>
			<path fill="#55595E" d="M280.666,351.932h1.272c0.231,0.736,0.788,1.104,1.668,1.104c0.432,0,0.778-0.098,1.038-0.293
				c0.26-0.196,0.39-0.463,0.39-0.799c0-0.264-0.082-0.474-0.246-0.63c-0.164-0.155-0.438-0.278-0.821-0.366l-1.248-0.3
				c-1.225-0.288-1.836-0.948-1.836-1.979c0-0.633,0.233-1.154,0.701-1.566c0.469-0.412,1.07-0.617,1.807-0.617
				c0.775,0,1.401,0.182,1.877,0.545c0.477,0.365,0.783,0.862,0.918,1.494h-1.247c-0.232-0.656-0.744-0.984-1.536-0.984
				c-0.4,0-0.723,0.095-0.967,0.283c-0.243,0.188-0.365,0.434-0.365,0.737c0,0.488,0.324,0.808,0.973,0.96l1.283,0.301
				c0.6,0.135,1.068,0.375,1.404,0.719c0.336,0.345,0.504,0.785,0.504,1.32c0,0.68-0.244,1.223-0.732,1.627
				c-0.488,0.403-1.119,0.605-1.896,0.605c-0.784,0-1.438-0.189-1.962-0.57C281.12,353.142,280.794,352.611,280.666,351.932z"/>
			<path fill="#55595E" d="M293.518,347.558c0.641,0.716,0.961,1.626,0.961,2.729c0,1.104-0.32,2.015-0.961,2.73
				c-0.64,0.717-1.455,1.074-2.447,1.074s-1.807-0.357-2.442-1.074c-0.636-0.716-0.954-1.626-0.954-2.73
				c0-1.104,0.318-2.014,0.954-2.729s1.45-1.073,2.442-1.073S292.878,346.842,293.518,347.558z M292.624,352.22
				c0.396-0.504,0.594-1.147,0.594-1.933c0-0.783-0.198-1.428-0.594-1.932s-0.914-0.756-1.554-0.756c-0.641,0-1.156,0.25-1.549,0.75
				c-0.392,0.5-0.588,1.146-0.588,1.938c0,0.793,0.196,1.438,0.588,1.938c0.393,0.5,0.908,0.75,1.549,0.75
				C291.71,352.976,292.229,352.724,292.624,352.22z"/>
			<path fill="#55595E" d="M296.872,353.029c-0.636-0.707-0.954-1.621-0.954-2.742c0-1.119,0.318-2.033,0.954-2.741
				s1.435-1.062,2.394-1.062c0.816,0,1.484,0.217,2.004,0.653c0.521,0.437,0.853,1.03,0.996,1.782h-1.224
				c-0.319-0.872-0.912-1.309-1.776-1.309c-0.64,0-1.147,0.25-1.523,0.75c-0.377,0.5-0.564,1.143-0.564,1.926
				c0,0.785,0.188,1.427,0.564,1.927c0.376,0.5,0.884,0.75,1.523,0.75c0.864,0,1.457-0.44,1.776-1.32h1.224
				c-0.144,0.761-0.476,1.358-0.996,1.794c-0.52,0.437-1.188,0.654-2.004,0.654C298.307,354.092,297.508,353.738,296.872,353.029z"
				/>
			<path fill="#55595E" d="M305.326,346.604v3.528l3.06-3.528h1.571l-2.975,3.348l3.084,4.021h-1.561l-2.424-3.155l-0.756,0.863
				v2.292h-1.248v-7.368H305.326z"/>
			<path fill="#55595E" d="M311.662,346.604h4.812v1.104h-3.588v1.945h3.252v1.092h-3.252v2.111h3.588v1.116h-4.812V346.604z"/>
			<path fill="#55595E" d="M317.974,347.707v-1.104h6.144v1.104h-2.447v6.265h-1.248v-6.265H317.974z"/>
		</g>
	</g>
	<g>
		<g>
			<path fill="#55595E" d="M370.555,353.971h-0.888l-2.028-5.124v5.124h-1.188v-7.368h1.428l2.244,5.664l2.22-5.664h1.392v7.368
				h-1.199v-5.124L370.555,353.971z"/>
			<path fill="#55595E" d="M375.967,346.603h4.812v1.104h-3.588v1.943h3.252v1.092h-3.252v2.112h3.588v1.116h-4.812V346.603z"/>
			<path fill="#55595E" d="M382.159,351.931h1.271c0.232,0.736,0.788,1.104,1.668,1.104c0.433,0,0.778-0.098,1.038-0.295
				c0.26-0.195,0.391-0.461,0.391-0.797c0-0.265-0.083-0.475-0.246-0.631c-0.164-0.156-0.438-0.277-0.822-0.365l-1.248-0.301
				c-1.224-0.287-1.836-0.947-1.836-1.98c0-0.631,0.234-1.153,0.702-1.565c0.468-0.411,1.069-0.618,1.806-0.618
				c0.776,0,1.402,0.182,1.878,0.547c0.477,0.363,0.782,0.861,0.918,1.493h-1.248c-0.231-0.655-0.744-0.983-1.536-0.983
				c-0.399,0-0.722,0.094-0.966,0.281c-0.244,0.188-0.366,0.435-0.366,0.738c0,0.488,0.324,0.809,0.973,0.96l1.284,0.3
				c0.6,0.137,1.067,0.377,1.403,0.721s0.504,0.783,0.504,1.32c0,0.68-0.244,1.222-0.731,1.625c-0.488,0.404-1.12,0.606-1.896,0.606
				c-0.784,0-1.438-0.19-1.962-0.57C382.613,353.141,382.287,352.611,382.159,351.931z"/>
			<path fill="#55595E" d="M388.987,351.931h1.271c0.232,0.736,0.788,1.104,1.668,1.104c0.433,0,0.778-0.098,1.038-0.295
				c0.26-0.195,0.391-0.461,0.391-0.797c0-0.265-0.083-0.475-0.246-0.631c-0.164-0.156-0.438-0.277-0.822-0.365l-1.248-0.301
				c-1.224-0.287-1.836-0.947-1.836-1.98c0-0.631,0.234-1.153,0.702-1.565c0.468-0.411,1.069-0.618,1.806-0.618
				c0.776,0,1.402,0.182,1.878,0.547c0.477,0.363,0.782,0.861,0.918,1.493h-1.248c-0.231-0.655-0.744-0.983-1.536-0.983
				c-0.399,0-0.722,0.094-0.966,0.281c-0.244,0.188-0.366,0.435-0.366,0.738c0,0.488,0.324,0.809,0.973,0.96l1.284,0.3
				c0.6,0.137,1.067,0.377,1.403,0.721s0.504,0.783,0.504,1.32c0,0.68-0.244,1.222-0.731,1.625c-0.488,0.404-1.12,0.606-1.896,0.606
				c-0.784,0-1.438-0.19-1.962-0.57C389.441,353.141,389.115,352.611,388.987,351.931z"/>
			<path fill="#55595E" d="M398.646,346.603h1.2l2.831,7.368h-1.271l-0.756-2.04h-2.82l-0.756,2.04h-1.26L398.646,346.603z
				 M399.234,348.127l-1.008,2.724h2.016L399.234,348.127z"/>
			<path fill="#55595E" d="M409.351,351.234h-1.608v-1.068h2.796v0.576c0,1.008-0.294,1.818-0.882,2.431s-1.338,0.918-2.25,0.918
				c-1,0-1.828-0.354-2.483-1.062c-0.656-0.709-0.984-1.623-0.984-2.742c0-1.12,0.326-2.034,0.979-2.742
				c0.651-0.708,1.466-1.062,2.441-1.062c0.824,0,1.498,0.217,2.022,0.648c0.523,0.432,0.857,1.023,1.002,1.775h-1.248
				c-0.16-0.424-0.378-0.746-0.654-0.965c-0.276-0.221-0.65-0.33-1.122-0.33c-0.647,0-1.17,0.25-1.565,0.75
				c-0.396,0.5-0.595,1.142-0.595,1.926c0,0.791,0.2,1.439,0.601,1.943c0.399,0.504,0.936,0.756,1.607,0.756
				c0.544,0,0.984-0.158,1.32-0.474S409.271,351.771,409.351,351.234z"/>
			<path fill="#55595E" d="M413.623,346.603v7.368h-1.248v-7.368H413.623z"/>
			<path fill="#55595E" d="M421.782,346.603v7.368h-0.96l-3.769-5.363v5.363h-1.199v-7.368h1.176l3.552,5.112v-5.112H421.782z"/>
			<path fill="#55595E" d="M429.03,351.234h-1.608v-1.068h2.796v0.576c0,1.008-0.294,1.818-0.882,2.431s-1.338,0.918-2.25,0.918
				c-1,0-1.828-0.354-2.483-1.062c-0.656-0.709-0.984-1.623-0.984-2.742c0-1.12,0.326-2.034,0.979-2.742
				c0.651-0.708,1.466-1.062,2.441-1.062c0.824,0,1.498,0.217,2.022,0.648c0.523,0.432,0.857,1.023,1.002,1.775h-1.248
				c-0.16-0.424-0.378-0.746-0.654-0.965c-0.276-0.221-0.65-0.33-1.122-0.33c-0.647,0-1.17,0.25-1.565,0.75
				c-0.396,0.5-0.595,1.142-0.595,1.926c0,0.791,0.2,1.439,0.601,1.943c0.399,0.504,0.936,0.756,1.607,0.756
				c0.544,0,0.984-0.158,1.32-0.474S428.95,351.771,429.03,351.234z"/>
		</g>
	</g>
	<rect x="16" y="259" fill="#FFFFFF" width="442" height="35"/>
	<g>
		<g>
			<path fill="#55595E" d="M203.142,272.903h5.213v1.196h-3.887v2.105h3.523v1.184h-3.523v2.287h3.887v1.209h-5.213V272.903z"/>
			<path fill="#55595E" d="M216.896,272.903v7.981h-1.04l-4.082-5.811v5.811h-1.3v-7.981h1.274l3.848,5.538v-5.538H216.896z"/>
			<path fill="#55595E" d="M219.314,280.885v-7.981h2.691c1.178,0,2.119,0.362,2.821,1.085c0.702,0.725,1.053,1.693,1.053,2.906
				s-0.351,2.182-1.053,2.905s-1.643,1.085-2.821,1.085H219.314z M220.666,279.676h1.287c0.823,0,1.458-0.246,1.905-0.74
				c0.446-0.494,0.669-1.174,0.669-2.041s-0.224-1.549-0.669-2.048c-0.447-0.498-1.082-0.747-1.905-0.747h-1.287V279.676z"/>
			<path fill="#55595E" d="M230.949,277.908h-1.729v2.977h-1.352v-7.981h3.081c0.841,0,1.506,0.217,1.996,0.649
				c0.49,0.434,0.734,1.054,0.734,1.859c0,0.798-0.245,1.413-0.734,1.846C232.455,277.691,231.79,277.908,230.949,277.908z
				 M232.34,275.412c0-0.407-0.122-0.732-0.364-0.975c-0.243-0.242-0.594-0.364-1.053-0.364h-1.703v2.665h1.703
				c0.451,0,0.799-0.121,1.046-0.364C232.216,276.132,232.34,275.811,232.34,275.412z"/>
			<path fill="#55595E" d="M241.505,273.937c0.693,0.776,1.04,1.762,1.04,2.958c0,1.195-0.347,2.182-1.04,2.957
				s-1.577,1.164-2.652,1.164s-1.956-0.389-2.646-1.164c-0.689-0.775-1.033-1.762-1.033-2.957c0-1.196,0.344-2.182,1.033-2.958
				c0.689-0.775,1.57-1.163,2.646-1.163S240.812,273.161,241.505,273.937z M240.536,278.987c0.429-0.546,0.644-1.243,0.644-2.093
				s-0.215-1.547-0.644-2.094c-0.429-0.545-0.99-0.818-1.684-0.818s-1.253,0.271-1.677,0.812c-0.425,0.541-0.637,1.241-0.637,2.1
				c0,0.857,0.212,1.558,0.637,2.1c0.424,0.541,0.983,0.812,1.677,0.812S240.107,279.533,240.536,278.987z"/>
			<path fill="#55595E" d="M245.886,272.903v7.981h-1.353v-7.981H245.886z"/>
			<path fill="#55595E" d="M254.726,272.903v7.981h-1.04l-4.082-5.811v5.811h-1.301v-7.981h1.275l3.848,5.538v-5.538H254.726z"/>
			<path fill="#55595E" d="M256.649,274.1v-1.196h6.655v1.196h-2.651v6.785h-1.353V274.1H256.649z"/>
			<path fill="#55595E" d="M264.605,278.676h1.378c0.251,0.797,0.854,1.195,1.807,1.195c0.468,0,0.843-0.105,1.124-0.318
				c0.282-0.213,0.424-0.5,0.424-0.864c0-0.286-0.09-0.514-0.268-0.683s-0.475-0.301-0.891-0.396l-1.352-0.325
				c-1.326-0.312-1.988-1.026-1.988-2.146c0-0.684,0.253-1.25,0.76-1.695c0.508-0.447,1.159-0.67,1.957-0.67
				c0.84,0,1.519,0.197,2.034,0.592s0.847,0.934,0.995,1.618h-1.353c-0.251-0.71-0.806-1.065-1.664-1.065
				c-0.434,0-0.782,0.102-1.046,0.305c-0.266,0.203-0.397,0.471-0.397,0.8c0,0.528,0.351,0.876,1.054,1.04l1.391,0.324
				c0.65,0.148,1.156,0.408,1.521,0.781c0.363,0.372,0.545,0.849,0.545,1.43c0,0.736-0.264,1.324-0.793,1.762
				c-0.528,0.438-1.213,0.656-2.054,0.656c-0.849,0-1.558-0.206-2.126-0.617C265.098,279.986,264.744,279.412,264.605,278.676z"/>
		</g>
	</g>
	<rect x="16" y="379" fill="#FFFFFF" width="442" height="35"/>
	<g>
		<g>
			<path fill="#55595E" d="M166.782,393.545h1.092l1.508,5.877l1.443-5.877h1.3l-2.054,7.982h-1.248l-1.508-5.707l-1.534,5.707
				h-1.235l-2.054-7.982h1.326l1.443,5.877L166.782,393.545z"/>
			<path fill="#55595E" d="M179.782,394.578c0.693,0.776,1.04,1.762,1.04,2.958s-0.347,2.183-1.04,2.958s-1.578,1.163-2.652,1.163
				s-1.956-0.388-2.646-1.163c-0.689-0.775-1.033-1.762-1.033-2.958s0.344-2.182,1.033-2.958c0.689-0.775,1.571-1.162,2.646-1.162
				S179.088,393.803,179.782,394.578z M178.813,399.629c0.429-0.545,0.644-1.243,0.644-2.093c0-0.849-0.214-1.547-0.644-2.093
				c-0.429-0.546-0.99-0.818-1.684-0.818s-1.252,0.271-1.677,0.812c-0.425,0.541-0.637,1.24-0.637,2.099s0.212,1.558,0.637,2.1
				c0.424,0.542,0.983,0.812,1.677,0.812S178.384,400.176,178.813,399.629z"/>
			<path fill="#55595E" d="M185.125,398.291h-0.962v3.236h-1.352v-7.982h3.081c0.841,0,1.504,0.207,1.989,0.618
				s0.728,1.003,0.728,1.774c0,0.658-0.18,1.181-0.54,1.566c-0.36,0.386-0.86,0.631-1.501,0.734l2.314,3.289h-1.534L185.125,398.291
				z M184.162,394.715v2.444h1.703c0.442,0,0.787-0.11,1.034-0.331s0.37-0.518,0.37-0.891s-0.123-0.67-0.37-0.891
				s-0.592-0.332-1.034-0.332H184.162z"/>
			<path fill="#55595E" d="M192.027,393.545v3.822l3.315-3.822h1.703l-3.224,3.627l3.341,4.355h-1.69l-2.626-3.419l-0.819,0.937
				v2.482h-1.352v-7.982H192.027z"/>
			<path fill="#55595E" d="M198.891,393.545h5.213v1.196h-3.887v2.106h3.523v1.183h-3.523v2.288h3.887v1.209h-5.213V393.545z"/>
			<path fill="#55595E" d="M208.537,398.291h-0.962v3.236h-1.352v-7.982h3.081c0.841,0,1.504,0.207,1.989,0.618
				s0.728,1.003,0.728,1.774c0,0.658-0.18,1.181-0.54,1.566c-0.36,0.386-0.86,0.631-1.501,0.734l2.314,3.289h-1.534L208.537,398.291
				z M207.575,394.715v2.444h1.703c0.442,0,0.787-0.11,1.034-0.331s0.37-0.518,0.37-0.891s-0.123-0.67-0.37-0.891
				s-0.592-0.332-1.034-0.332H207.575z"/>
			<path fill="#55595E" d="M213.464,399.317h1.378c0.251,0.798,0.854,1.196,1.807,1.196c0.468,0,0.843-0.106,1.125-0.318
				c0.282-0.213,0.423-0.501,0.423-0.865c0-0.285-0.089-0.514-0.267-0.682c-0.178-0.17-0.475-0.302-0.891-0.396l-1.352-0.326
				c-1.326-0.312-1.989-1.026-1.989-2.145c0-0.685,0.253-1.25,0.76-1.696c0.507-0.446,1.159-0.669,1.957-0.669
				c0.841,0,1.519,0.197,2.035,0.591c0.516,0.395,0.847,0.935,0.995,1.618h-1.352c-0.251-0.71-0.806-1.065-1.664-1.065
				c-0.434,0-0.782,0.102-1.046,0.306c-0.265,0.203-0.397,0.47-0.397,0.799c0,0.529,0.351,0.876,1.053,1.04l1.391,0.325
				c0.65,0.147,1.157,0.408,1.521,0.78c0.364,0.372,0.546,0.849,0.546,1.43c0,0.737-0.265,1.324-0.793,1.762
				c-0.529,0.438-1.213,0.656-2.054,0.656c-0.849,0-1.558-0.206-2.125-0.617C213.956,400.629,213.603,400.055,213.464,399.317z"/>
			<path fill="#55595E" d="M220.809,402.996l0.936-1.443c-0.217-0.033-0.392-0.125-0.526-0.272c-0.135-0.147-0.202-0.333-0.202-0.56
				c0-0.25,0.084-0.459,0.253-0.623c0.169-0.165,0.379-0.247,0.63-0.247c0.26,0,0.473,0.085,0.637,0.253
				c0.165,0.17,0.247,0.41,0.247,0.722c0,0.321-0.126,0.667-0.377,1.04l-0.754,1.131H220.809z"/>
			<path fill="#55595E" d="M230.702,393.545h1.3l3.068,7.982h-1.378l-0.819-2.21h-3.055l-0.819,2.21h-1.365L230.702,393.545z
				 M231.338,395.196l-1.092,2.951h2.184L231.338,395.196z"/>
			<path fill="#55595E" d="M236.239,399.317h1.378c0.252,0.798,0.854,1.196,1.807,1.196c0.469,0,0.844-0.106,1.125-0.318
				c0.281-0.213,0.423-0.501,0.423-0.865c0-0.285-0.089-0.514-0.267-0.682c-0.178-0.17-0.475-0.302-0.891-0.396l-1.352-0.326
				c-1.326-0.312-1.989-1.026-1.989-2.145c0-0.685,0.253-1.25,0.76-1.696c0.507-0.446,1.159-0.669,1.957-0.669
				c0.841,0,1.519,0.197,2.034,0.591c0.516,0.395,0.848,0.935,0.995,1.618h-1.353c-0.251-0.71-0.806-1.065-1.664-1.065
				c-0.434,0-0.781,0.102-1.046,0.306c-0.265,0.203-0.397,0.47-0.397,0.799c0,0.529,0.352,0.876,1.054,1.04l1.392,0.325
				c0.649,0.147,1.156,0.408,1.521,0.78s0.546,0.849,0.546,1.43c0,0.737-0.265,1.324-0.793,1.762
				c-0.529,0.438-1.213,0.656-2.055,0.656c-0.849,0-1.557-0.206-2.125-0.617C236.731,400.629,236.378,400.055,236.239,399.317z"/>
			<path fill="#55595E" d="M247.16,397.12l2.105-3.575h1.43l-2.898,4.797v3.186h-1.34v-3.186l-2.886-4.797h1.47L247.16,397.12z"/>
			<path fill="#55595E" d="M258.847,393.545v7.982h-1.04l-4.082-5.811v5.811h-1.301v-7.982h1.275l3.848,5.539v-5.539H258.847z"/>
			<path fill="#55595E" d="M261.869,400.507c-0.689-0.767-1.033-1.757-1.033-2.971c0-1.213,0.344-2.203,1.033-2.97
				c0.689-0.768,1.553-1.15,2.594-1.15c0.883,0,1.607,0.235,2.17,0.708c0.564,0.472,0.924,1.116,1.08,1.931h-1.326
				c-0.348-0.945-0.988-1.418-1.924-1.418c-0.693,0-1.244,0.271-1.651,0.812c-0.407,0.543-0.611,1.238-0.611,2.087
				c0,0.85,0.204,1.546,0.611,2.087s0.958,0.812,1.651,0.812c0.936,0,1.576-0.477,1.924-1.43h1.326
				c-0.156,0.822-0.516,1.471-1.08,1.943c-0.562,0.473-1.287,0.708-2.17,0.708C263.422,401.657,262.559,401.273,261.869,400.507z"/>
			<path fill="#55595E" d="M275.044,393.545h1.353v7.982h-1.353v-3.497h-4.017v3.497h-1.353v-7.982h1.353v3.289h4.017V393.545z"/>
			<path fill="#55595E" d="M281.129,398.291h-0.963v3.236h-1.352v-7.982h3.08c0.842,0,1.504,0.207,1.99,0.618
				c0.484,0.411,0.728,1.003,0.728,1.774c0,0.658-0.181,1.181-0.54,1.566s-0.859,0.631-1.501,0.734l2.313,3.289h-1.533
				L281.129,398.291z M280.166,394.715v2.444h1.703c0.441,0,0.787-0.11,1.033-0.331c0.248-0.221,0.371-0.518,0.371-0.891
				s-0.123-0.67-0.371-0.891c-0.246-0.221-0.592-0.332-1.033-0.332H280.166z"/>
			<path fill="#55595E" d="M292.581,394.578c0.693,0.776,1.04,1.762,1.04,2.958s-0.347,2.183-1.04,2.958s-1.577,1.163-2.652,1.163
				s-1.956-0.388-2.646-1.163s-1.033-1.762-1.033-2.958s0.344-2.182,1.033-2.958c0.689-0.775,1.57-1.162,2.646-1.162
				S291.888,393.803,292.581,394.578z M291.612,399.629c0.429-0.545,0.644-1.243,0.644-2.093c0-0.849-0.215-1.547-0.644-2.093
				s-0.99-0.818-1.684-0.818s-1.253,0.271-1.677,0.812c-0.425,0.541-0.637,1.24-0.637,2.099s0.212,1.558,0.637,2.1
				c0.424,0.542,0.983,0.812,1.677,0.812S291.184,400.176,291.612,399.629z"/>
			<path fill="#55595E" d="M302.032,393.545v7.982h-1.04l-4.082-5.811v5.811h-1.301v-7.982h1.275l3.848,5.539v-5.539H302.032z"/>
			<path fill="#55595E" d="M307.35,397.12l2.105-3.575h1.43l-2.898,4.797v3.186h-1.34v-3.186l-2.886-4.797h1.47L307.35,397.12z"/>
		</g>
	</g>
	<rect x="5.5" y="438" fill="#FFFFFF" stroke="#BFBFBF" stroke-miterlimit="10" width="463" height="35"/>
	<g>
		<g>
			<path fill="#55595E" d="M182.245,451.543c0.693,0.775,1.04,1.762,1.04,2.957c0,1.197-0.347,2.183-1.04,2.958
				c-0.693,0.776-1.578,1.163-2.652,1.163s-1.956-0.387-2.646-1.163c-0.689-0.775-1.033-1.761-1.033-2.958
				c0-1.195,0.344-2.182,1.033-2.957c0.689-0.775,1.571-1.163,2.646-1.163S181.551,450.768,182.245,451.543z M181.276,456.594
				c0.429-0.546,0.644-1.244,0.644-2.094c0-0.849-0.214-1.547-0.644-2.092c-0.429-0.547-0.99-0.819-1.684-0.819
				s-1.252,0.271-1.677,0.812c-0.425,0.542-0.637,1.241-0.637,2.099c0,0.859,0.212,1.559,0.637,2.1
				c0.424,0.543,0.983,0.812,1.677,0.812S180.847,457.14,181.276,456.594z"/>
			<path fill="#55595E" d="M188.354,455.515h-1.729v2.978h-1.352v-7.982h3.081c0.841,0,1.506,0.217,1.996,0.65
				s0.734,1.053,0.734,1.858c0,0.798-0.245,1.413-0.734,1.847S189.195,455.515,188.354,455.515z M189.746,453.019
				c0-0.407-0.122-0.731-0.364-0.976c-0.243-0.242-0.594-0.363-1.053-0.363h-1.703v2.665h1.703c0.451,0,0.799-0.121,1.046-0.364
				C189.622,453.738,189.746,453.418,189.746,453.019z"/>
			<path fill="#55595E" d="M193.008,450.51h5.213v1.195h-3.887v2.106h3.523v1.183h-3.523v2.289h3.887v1.209h-5.213V450.51z"/>
			<path fill="#55595E" d="M202.654,455.255h-0.962v3.237h-1.352v-7.982h3.081c0.841,0,1.504,0.206,1.989,0.617
				c0.485,0.412,0.728,1.004,0.728,1.775c0,0.658-0.18,1.18-0.54,1.566c-0.36,0.385-0.86,0.63-1.501,0.734l2.314,3.289h-1.534
				L202.654,455.255z M201.692,451.68v2.443h1.703c0.442,0,0.787-0.109,1.034-0.331c0.247-0.221,0.37-0.518,0.37-0.89
				c0-0.373-0.123-0.67-0.37-0.891c-0.247-0.222-0.592-0.332-1.034-0.332H201.692z"/>
			<path fill="#55595E" d="M210.649,450.51h1.3l3.068,7.982h-1.378l-0.819-2.211h-3.055l-0.819,2.211h-1.365L210.649,450.51z
				 M211.286,452.16l-1.092,2.951h2.184L211.286,452.16z"/>
			<path fill="#55595E" d="M216.317,451.705v-1.195h6.656v1.195h-2.652v6.787h-1.352v-6.787H216.317z"/>
			<path fill="#55595E" d="M226.249,450.51v7.982h-1.352v-7.982H226.249z"/>
			<path fill="#55595E" d="M235.089,450.51v7.982h-1.04l-4.082-5.812v5.812h-1.3v-7.982h1.274l3.848,5.538v-5.538H235.089z"/>
			<path fill="#55595E" d="M242.94,455.527h-1.741v-1.156h3.028v0.623c0,1.093-0.318,1.971-0.956,2.633
				c-0.637,0.663-1.449,0.994-2.438,0.994c-1.083,0-1.98-0.383-2.69-1.15c-0.711-0.767-1.066-1.756-1.066-2.971
				c0-1.213,0.353-2.203,1.059-2.97c0.707-0.767,1.588-1.15,2.646-1.15c0.893,0,1.622,0.233,2.189,0.702
				c0.568,0.468,0.93,1.109,1.086,1.924h-1.352c-0.174-0.459-0.41-0.809-0.709-1.047s-0.704-0.357-1.215-0.357
				c-0.703,0-1.268,0.271-1.697,0.812c-0.429,0.542-0.644,1.237-0.644,2.086c0,0.859,0.217,1.561,0.65,2.107
				c0.433,0.545,1.014,0.818,1.741,0.818c0.59,0,1.066-0.171,1.431-0.514C242.629,456.57,242.854,456.108,242.94,455.527z"/>
			<path fill="#55595E" d="M249.115,456.281h1.379c0.25,0.798,0.854,1.196,1.807,1.196c0.468,0,0.842-0.106,1.124-0.318
				s0.423-0.501,0.423-0.864c0-0.286-0.09-0.514-0.267-0.683c-0.178-0.169-0.475-0.302-0.891-0.396l-1.353-0.325
				c-1.325-0.312-1.988-1.027-1.988-2.145c0-0.686,0.254-1.25,0.76-1.697c0.508-0.445,1.16-0.669,1.957-0.669
				c0.841,0,1.52,0.197,2.035,0.591c0.516,0.395,0.847,0.935,0.994,1.619h-1.352c-0.252-0.711-0.807-1.066-1.664-1.066
				c-0.434,0-0.783,0.102-1.047,0.306c-0.265,0.204-0.396,0.47-0.396,0.8c0,0.528,0.351,0.875,1.053,1.039l1.391,0.326
				c0.65,0.146,1.157,0.407,1.521,0.779c0.363,0.373,0.546,0.85,0.546,1.43c0,0.737-0.265,1.324-0.793,1.762
				s-1.214,0.656-2.054,0.656c-0.85,0-1.559-0.205-2.126-0.617C249.607,457.593,249.254,457.019,249.115,456.281z"/>
			<path fill="#55595E" d="M260.035,454.084l2.106-3.574h1.43l-2.899,4.797v3.186h-1.338v-3.186l-2.887-4.797h1.469L260.035,454.084
				z"/>
			<path fill="#55595E" d="M264.676,456.281h1.379c0.251,0.798,0.854,1.196,1.807,1.196c0.469,0,0.843-0.106,1.125-0.318
				c0.281-0.212,0.422-0.501,0.422-0.864c0-0.286-0.089-0.514-0.266-0.683c-0.178-0.169-0.475-0.302-0.891-0.396l-1.353-0.325
				c-1.325-0.312-1.989-1.027-1.989-2.145c0-0.686,0.254-1.25,0.761-1.697c0.507-0.445,1.159-0.669,1.956-0.669
				c0.842,0,1.52,0.197,2.035,0.591c0.516,0.395,0.848,0.935,0.994,1.619h-1.352c-0.252-0.711-0.807-1.066-1.664-1.066
				c-0.434,0-0.782,0.102-1.047,0.306c-0.264,0.204-0.396,0.47-0.396,0.8c0,0.528,0.352,0.875,1.053,1.039l1.392,0.326
				c0.649,0.146,1.157,0.407,1.521,0.779c0.364,0.373,0.547,0.85,0.547,1.43c0,0.737-0.266,1.324-0.793,1.762
				c-0.529,0.438-1.214,0.656-2.055,0.656c-0.85,0-1.558-0.205-2.125-0.617C265.168,457.593,264.814,457.019,264.676,456.281z"/>
			<path fill="#55595E" d="M272.203,451.705v-1.195h6.656v1.195h-2.652v6.787h-1.352v-6.787H272.203z"/>
			<path fill="#55595E" d="M280.783,450.51h5.213v1.195h-3.887v2.106h3.523v1.183h-3.523v2.289h3.887v1.209h-5.213V450.51z"/>
			<path fill="#55595E" d="M292.561,458.492H291.6l-2.197-5.551v5.551h-1.287v-7.982h1.547l2.431,6.136l2.405-6.136h1.508v7.982
				h-1.3v-5.551L292.561,458.492z"/>
		</g>
	</g>
</g>
</svg>
