<?xml version="1.0" encoding="utf-8"?>
<!-- Generator: Adobe Illustrator 16.0.0, SVG Export Plug-In . SVG Version: 6.00 Build 0)  -->
<!DOCTYPE svg PUBLIC "-//W3C//DTD SVG 1.1//EN" "http://www.w3.org/Graphics/SVG/1.1/DTD/svg11.dtd">
<svg version="1.1" id="Layer_1" xmlns="http://www.w3.org/2000/svg" xmlns:xlink="http://www.w3.org/1999/xlink" x="0px" y="0px"
	 width="18.836px" height="15.309px" viewBox="0 0 18.836 15.309" enable-background="new 0 0 18.836 15.309" xml:space="preserve">
<path fill="#20B6B0" d="M18.836,1.812C18.143,2.12,17.4,2.327,16.617,2.425c0.797-0.481,1.408-1.24,1.701-2.142
	c-0.75,0.442-1.574,0.766-2.455,0.94C15.158,0.47,14.15,0,13.045,0c-2.135,0-3.869,1.73-3.869,3.862c0,0.306,0.031,0.598,0.1,0.882
	c-3.21-0.161-6.057-1.698-7.963-4.035C0.979,1.277,0.791,1.943,0.791,2.652c0,1.343,0.68,2.525,1.717,3.22
	C1.871,5.848,1.279,5.674,0.757,5.387v0.049c0,1.871,1.327,3.435,3.098,3.786C3.533,9.313,3.19,9.358,2.836,9.358
	c-0.247,0-0.488-0.021-0.728-0.071c0.492,1.539,1.925,2.657,3.61,2.686c-1.318,1.036-2.988,1.653-4.8,1.653
	c-0.308,0-0.615-0.019-0.918-0.054c1.709,1.099,3.74,1.736,5.922,1.736c7.105,0,10.996-5.889,10.996-10.992
	c0-0.167-0.004-0.337-0.008-0.501C17.659,3.272,18.318,2.59,18.836,1.812"/>
</svg>
