<svg id="Layer_1" data-name="Layer 1" xmlns="http://www.w3.org/2000/svg" xmlns:xlink="http://www.w3.org/1999/xlink" viewBox="0 0 520 548"><defs><style>.cls-1,.cls-10,.cls-12,.cls-13,.cls-16,.cls-6,.cls-8{fill:none;}.cls-2{fill:#dce1ff;}.cls-12,.cls-16,.cls-2,.cls-4{stroke:#545cec;}.cls-10,.cls-12,.cls-13,.cls-14,.cls-16,.cls-2,.cls-4,.cls-5,.cls-6,.cls-7,.cls-8{stroke-miterlimit:10;}.cls-3{fill:#545cec;}.cls-14,.cls-17,.cls-4,.cls-5,.cls-7{fill:#fff;}.cls-5{stroke:#7d83f1;}.cls-6,.cls-7,.cls-8{stroke:#000;}.cls-8{stroke-dasharray:5.9 5.9;}.cls-9{clip-path:url(#clip-path);}.cls-10{stroke:#484848;}.cls-11{fill:#ff9e54;}.cls-12,.cls-13{stroke-width:1.5px;}.cls-13{stroke:#ccd2f2;}.cls-13,.cls-16{stroke-linecap:round;}.cls-14{stroke:#62c494;}.cls-15{fill:#62c494;}.cls-16{stroke-width:1.2px;}</style><clipPath id="clip-path"><rect class="cls-1" x="426.82" y="199.54" width="11.59" height="62.71" rx="5.15"/></clipPath></defs><rect class="cls-2" x="129.65" y="20.58" width="107.98" height="52.84" rx="26.42"/><path class="cls-3" d="M162.72,50.59l.58-1.31a5.1,5.1,0,0,0,3,1c1.41,0,2-.51,2-1.18,0-2-5.41-.68-5.41-4.06,0-1.47,1.17-2.72,3.67-2.72a5.76,5.76,0,0,1,3,.81l-.53,1.31a5.07,5.07,0,0,0-2.51-.71c-1.41,0-2,.54-2,1.23,0,1.94,5.4.68,5.4,4,0,1.45-1.19,2.7-3.68,2.7A5.85,5.85,0,0,1,162.72,50.59Z"/><path class="cls-3" d="M173.38,43.88h-3V42.45h7.72v1.43h-3v7.67h-1.69Z"/><path class="cls-3" d="M184.8,49.45h-4.55l-.89,2.1h-1.74l4.09-9.1h1.67l4.1,9.1h-1.77Zm-.55-1.33-1.72-4-1.7,4Z"/><path class="cls-3" d="M194.59,51.55l-1.85-2.66h-2.41v2.65h-1.69v-9.1h3.74c2.4,0,3.88,1.22,3.88,3.24a2.9,2.9,0,0,1-1.94,2.87l2.09,3Zm-2.28-7.67h-2v3.63h2c1.48,0,2.25-.68,2.25-1.82S193.79,43.88,192.31,43.88Z"/><path class="cls-3" d="M199.86,43.88h-3V42.45h7.73v1.43h-3v7.67h-1.69Z"/><rect class="cls-4" x="152.45" y="102.82" width="62.25" height="62.25" rx="7.3"/><path class="cls-3" d="M176.53,133.43v4h-1.62v-3.77c0-1.24-.62-1.83-1.66-1.83a1.84,1.84,0,0,0-1.93,2.09v3.51h-1.63v-6.94h1.55v.89a3,3,0,0,1,2.39-1A2.71,2.71,0,0,1,176.53,133.43Z"/><path class="cls-3" d="M185.16,134.46h-5.44a2.09,2.09,0,0,0,2.24,1.66,2.5,2.5,0,0,0,1.89-.75l.87,1a3.9,3.9,0,0,1-6.63-2.43,3.45,3.45,0,0,1,3.59-3.55,3.39,3.39,0,0,1,3.51,3.59A4.26,4.26,0,0,1,185.16,134.46Zm-5.46-1.08h3.94a1.88,1.88,0,0,0-2-1.69A1.92,1.92,0,0,0,179.7,133.38Z"/><path class="cls-3" d="M197.45,130.47l-2.56,6.94h-1.56l-1.8-4.79-1.82,4.79h-1.56l-2.55-6.94h1.54l1.83,5.12,1.91-5.12h1.37l1.87,5.14,1.88-5.14Z"/><rect class="cls-4" x="154.21" y="194.62" width="62.25" height="62.25" rx="7.3"/><path class="cls-3" d="M180.74,222.33h9.19v2h-9.19Zm0,4.83h9.19v2h-9.19Z"/><rect class="cls-4" x="154.26" y="286.71" width="62.25" height="62.25" rx="7.3"/><rect class="cls-2" x="153.27" y="470" width="63.95" height="39.29" rx="19.64"/><path class="cls-3" d="M178,492.78v1.42h-6.83v-9.1h6.65v1.41h-5v2.37h4.4v1.39h-4.4v2.51Z"/><path class="cls-3" d="M188,485.1v9.1h-1.39l-5-6.17v6.17h-1.68v-9.1h1.4l5,6.16V485.1Z"/><path class="cls-3" d="M190.39,485.1h4c2.95,0,5,1.82,5,4.55s-2,4.55-5,4.55h-4Zm3.9,7.67a3.13,3.13,0,1,0,0-6.24h-2.21v6.24Z"/><line class="cls-4" x1="183.64" y1="73.38" x2="183.64" y2="102.28"/><rect class="cls-5" x="176.82" y="81.06" width="13.63" height="13.63" rx="6.82"/><line class="cls-4" x1="183.64" y1="84.54" x2="183.64" y2="91.21"/><line class="cls-4" x1="180.31" y1="87.88" x2="186.98" y2="87.88"/><line class="cls-4" x1="183.57" y1="165.39" x2="183.57" y2="194.29"/><rect class="cls-5" x="176.75" y="173.07" width="13.63" height="13.63" rx="6.82"/><line class="cls-4" x1="183.57" y1="176.56" x2="183.57" y2="183.23"/><line class="cls-4" x1="180.24" y1="179.89" x2="186.91" y2="179.89"/><line class="cls-4" x1="185.33" y1="257.36" x2="185.33" y2="286.26"/><rect class="cls-5" x="178.52" y="265.04" width="13.63" height="13.63" rx="6.82"/><line class="cls-4" x1="185.33" y1="268.52" x2="185.33" y2="275.19"/><line class="cls-4" x1="182" y1="271.86" x2="188.67" y2="271.86"/><line class="cls-4" x1="185.66" y1="349.32" x2="185.66" y2="378.23"/><rect class="cls-5" x="178.84" y="357.01" width="13.63" height="13.63" rx="6.82"/><line class="cls-4" x1="185.66" y1="360.49" x2="185.66" y2="367.16"/><line class="cls-4" x1="182.32" y1="363.82" x2="188.99" y2="363.82"/><line class="cls-6" x1="220.49" y1="137.5" x2="385.29" y2="137.5"/><polygon points="383.83 142.49 392.47 137.5 383.83 132.51 383.83 142.49"/><circle class="cls-7" cx="431.96" cy="138.11" r="31.56"/><line class="cls-6" x1="431.74" y1="169.67" x2="431.74" y2="198.79"/><line class="cls-6" x1="431.74" y1="262.51" x2="431.74" y2="275.19"/><line class="cls-6" x1="220.49" y1="223.33" x2="409.36" y2="223.33"/><polygon points="407.9 228.31 416.53 223.33 407.9 218.34 407.9 228.31"/><line class="cls-6" x1="416.53" y1="231.45" x2="413.53" y2="231.45"/><line class="cls-8" x1="407.64" y1="231.45" x2="233.62" y2="231.45"/><line class="cls-6" x1="230.67" y1="231.45" x2="227.67" y2="231.45"/><polygon points="229.13 226.46 220.5 231.45 229.13 236.43 229.13 226.46"/><g class="cls-9"><line class="cls-10" x1="438.41" y1="199.54" x2="426.82" y2="211.54"/><line class="cls-10" x1="438.41" y1="204.59" x2="426.82" y2="216.6"/><line class="cls-10" x1="438.41" y1="209.64" x2="426.82" y2="221.65"/><line class="cls-10" x1="438.41" y1="214.7" x2="426.82" y2="226.7"/><line class="cls-10" x1="438.41" y1="219.75" x2="426.82" y2="231.76"/><line class="cls-10" x1="438.41" y1="224.8" x2="426.82" y2="236.81"/><line class="cls-10" x1="438.41" y1="229.86" x2="426.82" y2="241.87"/><line class="cls-10" x1="438.41" y1="234.91" x2="426.82" y2="246.92"/><line class="cls-10" x1="438.41" y1="239.97" x2="426.82" y2="251.97"/><line class="cls-10" x1="438.41" y1="245.02" x2="426.82" y2="257.03"/><line class="cls-10" x1="438.41" y1="250.07" x2="426.82" y2="262.08"/><line class="cls-10" x1="438.41" y1="255.13" x2="426.82" y2="267.13"/><line class="cls-10" x1="438.41" y1="194.48" x2="426.82" y2="206.49"/></g><rect class="cls-6" x="425.06" y="199.22" width="13.21" height="63.56" rx="6.6"/><path class="cls-3" d="M180.79,314.42H190v2h-9.2Zm0,4.83H190v2h-9.2Z"/><path d="M237.63,212.56a2,2,0,0,1,1.26-1.67v-.07a1.41,1.41,0,0,1-.79-1.28,1.88,1.88,0,0,1,.92-1.45V208a2.42,2.42,0,0,1-1-2,2.86,2.86,0,0,1,3.11-2.78,3.32,3.32,0,0,1,1.18.19h3.18v1.23h-1.89a2.13,2.13,0,0,1,.57,1.41c0,1.69-1.34,2.64-3,2.64a3.34,3.34,0,0,1-1.24-.25,1,1,0,0,0-.54.81c0,.55.54.81,1.53.81h1.65c2,0,3,.52,3,1.85,0,1.49-1.7,2.72-4.38,2.72C239,214.66,237.63,213.93,237.63,212.56Zm6.41-.37c0-.66-.56-.84-1.66-.84H241a4.42,4.42,0,0,1-1.18-.12c-.64.35-.87.74-.87,1.14,0,.76.84,1.21,2.38,1.21S244,212.92,244,212.19ZM242.78,206a1.62,1.62,0,1,0-1.62,1.68A1.6,1.6,0,0,0,242.78,206Z"/><path d="M247.09,207.29a3.9,3.9,0,0,1,4-4,3.35,3.35,0,0,1,3.56,3.65,6.2,6.2,0,0,1-.07.86h-6.36V206.6h5.38l-.34.39c0-1.68-.81-2.52-2.12-2.52a2.51,2.51,0,0,0-2.47,2.82,2.62,2.62,0,0,0,2.86,2.84,4.23,4.23,0,0,0,2.26-.68l.55,1a5.52,5.52,0,0,1-3,.91A3.92,3.92,0,0,1,247.09,207.29Z"/><path d="M258.69,208.11V204.7h-2.13v-1.18l2.19-.08L259,201h1.31v2.45h3.65v1.26h-3.65v3.42c0,1.33.47,2,1.87,2a5,5,0,0,0,1.76-.33l.32,1.15a7.13,7.13,0,0,1-2.44.45C259.45,211.36,258.69,210.05,258.69,208.11Z"/><path class="cls-3" d="M232.57,396a.83.83,0,0,1,.86-.83.81.81,0,0,1,.85.8.86.86,0,0,1-1.71,0Zm.23,2.16h1.26v7H232.8Z"/><path class="cls-3" d="M235.82,401.6a3.63,3.63,0,1,1,3.64,3.56A3.47,3.47,0,0,1,235.82,401.6Zm6,0a2.35,2.35,0,1,0-4.7,0,2.35,2.35,0,1,0,4.7,0Z"/><path class="cls-3" d="M244.24,398.94a.88.88,0,0,1,.89-.9.9.9,0,0,1,0,1.8A.88.88,0,0,1,244.24,398.94Zm0,5.31a.87.87,0,0,1,.89-.89.86.86,0,0,1,.87.89.87.87,0,0,1-.87.91A.88.88,0,0,1,244.24,404.25Z"/><path class="cls-3" d="M255.05,401.6a3.39,3.39,0,0,1-3.53,3.56,3,3,0,0,1-2.44-1.13v3.61h-1.26v-9.53H249v1.1a3,3,0,0,1,2.49-1.17A3.39,3.39,0,0,1,255.05,401.6Zm-1.28,0a2.35,2.35,0,1,0-2.36,2.46A2.3,2.3,0,0,0,253.77,401.6Z"/><path class="cls-3" d="M260.55,398v1.22h-.29a2.08,2.08,0,0,0-2.2,2.36v3.47H256.8v-7H258v1.17A2.64,2.64,0,0,1,260.55,398Z"/><path class="cls-3" d="M261.88,396a.83.83,0,0,1,.85-.83.82.82,0,0,1,.86.8.83.83,0,0,1-.86.84A.82.82,0,0,1,261.88,396Zm.22,2.16h1.27v7H262.1Z"/><path class="cls-3" d="M272.4,401.07v4h-1.27v-3.87c0-1.37-.68-2-1.88-2a2.08,2.08,0,0,0-2.21,2.32v3.59h-1.27v-7H267v1.05A3,3,0,0,1,269.5,398,2.7,2.7,0,0,1,272.4,401.07Z"/><path class="cls-3" d="M278.66,404.68a2.36,2.36,0,0,1-1.52.48,2,2,0,0,1-2.22-2.18v-3.83h-1.18v-1h1.18v-1.53h1.27v1.53h2v1h-2v3.78a1,1,0,0,0,1.09,1.17,1.62,1.62,0,0,0,1-.33Z"/><path class="cls-3" d="M280.19,395.31h1.26v9.77h-1.26Z"/><path class="cls-3" d="M290.49,401.07v4h-1.27v-3.87c0-1.37-.68-2-1.88-2a2.08,2.08,0,0,0-2.21,2.32v3.59h-1.27v-7h1.21v1.05a3,3,0,0,1,2.52-1.12A2.7,2.7,0,0,1,290.49,401.07Z"/><path class="cls-11" d="M236.37,425.48c-1.79,0-3.06-1-3.14-2.38h1.32c.07.74.73,1.3,1.8,1.3s1.57-.5,1.57-1.13c0-1.71-4.53-.72-4.53-3.57,0-1.18,1.1-2.15,2.81-2.15s2.82.91,2.9,2.41h-1.27a1.48,1.48,0,0,0-1.67-1.33c-.94,0-1.5.45-1.5,1.07,0,1.82,4.45.82,4.51,3.57C239.17,424.53,238.06,425.48,236.37,425.48Z"/><path class="cls-11" d="M247.77,425.36h-1.28v-1.14a2.82,2.82,0,0,1-2.45,1.25,3,3,0,0,1-3.15-3.29v-4.5h1.26V422a2.06,2.06,0,0,0,2.14,2.35c1.32,0,2.2-.81,2.2-2.46v-4.22h1.28Z"/><path class="cls-11" d="M261,421c0-1.57-.84-2.36-2.1-2.36s-2.17.82-2.17,2.47v4.24h-1.26V421c0-1.57-.84-2.36-2.11-2.36s-2.17.82-2.17,2.47v4.24h-1.27v-7.68h1.27v1.11a2.78,2.78,0,0,1,2.43-1.25,2.88,2.88,0,0,1,2.81,1.71,2.84,2.84,0,0,1,2.72-1.71,3,3,0,0,1,3.11,3.29v4.53H261Z"/><path class="cls-11" d="M275.42,421c0-1.57-.84-2.36-2.1-2.36s-2.17.82-2.17,2.47v4.24h-1.26V421c0-1.57-.84-2.36-2.11-2.36s-2.17.82-2.17,2.47v4.24h-1.27v-7.68h1.27v1.11a2.78,2.78,0,0,1,2.43-1.25,2.88,2.88,0,0,1,2.81,1.71,2.84,2.84,0,0,1,2.72-1.71,3,3,0,0,1,3.11,3.29v4.53h-1.26Z"/><path class="cls-11" d="M281.92,417.55a3.19,3.19,0,0,1,2.86,1.53v-1.4h1.29v7.68h-1.29v-1.43a3.2,3.2,0,0,1-2.87,1.55,3.7,3.7,0,0,1-3.63-4A3.64,3.64,0,0,1,281.92,417.55Zm.26,1.11a2.59,2.59,0,0,0-2.59,2.83,2.61,2.61,0,1,0,2.59-2.83Z"/><path class="cls-11" d="M289.5,425.36h-1.28v-7.68h1.28v1.25a2.57,2.57,0,0,1,2.48-1.39v1.32h-.34c-1.22,0-2.14.54-2.14,2.32Z"/><path class="cls-11" d="M298.74,417.68h1.32L295.43,429h-1.31l1.51-3.7-3.1-7.59H294l2.41,6.22Z"/><path class="cls-3" d="M61.52,340c-1.8,0-3.06-1-3.14-2.38H59.7c.07.74.72,1.3,1.8,1.3s1.57-.5,1.57-1.13c0-1.71-4.54-.72-4.54-3.58,0-1.17,1.11-2.14,2.82-2.14s2.81.91,2.9,2.41H63a1.47,1.47,0,0,0-1.66-1.33c-.94,0-1.5.45-1.5,1.06,0,1.83,4.45.83,4.51,3.58C64.32,339.07,63.21,340,61.52,340Z"/><path class="cls-3" d="M72.92,339.89H71.64v-1.13A2.82,2.82,0,0,1,69.19,340a3,3,0,0,1-3.15-3.3v-4.49H67.3v4.33a2.06,2.06,0,0,0,2.14,2.35c1.32,0,2.2-.81,2.2-2.47v-4.21h1.28Z"/><path class="cls-3" d="M86.15,335.55c0-1.57-.84-2.37-2.1-2.37s-2.17.83-2.17,2.48v4.23H80.61v-4.34c0-1.57-.84-2.37-2.1-2.37s-2.17.83-2.17,2.48v4.23H75.07v-7.67h1.27v1.1a2.79,2.79,0,0,1,2.42-1.24,2.88,2.88,0,0,1,2.82,1.71,2.84,2.84,0,0,1,2.72-1.71,3,3,0,0,1,3.11,3.29v4.52H86.15Z"/><path class="cls-3" d="M100.57,335.55c0-1.57-.84-2.37-2.1-2.37s-2.17.83-2.17,2.48v4.23H95v-4.34c0-1.57-.84-2.37-2.1-2.37s-2.17.83-2.17,2.48v4.23H89.49v-7.67h1.27v1.1a2.79,2.79,0,0,1,2.42-1.24A2.88,2.88,0,0,1,96,333.79a2.84,2.84,0,0,1,2.72-1.71,3,3,0,0,1,3.11,3.29v4.52h-1.26Z"/><path class="cls-3" d="M107.07,332.09a3.19,3.19,0,0,1,2.86,1.53v-1.4h1.29v7.67h-1.29v-1.43a3.2,3.2,0,0,1-2.87,1.56,3.69,3.69,0,0,1-3.63-4A3.64,3.64,0,0,1,107.07,332.09Zm.25,1.11a2.59,2.59,0,0,0-2.59,2.83,2.61,2.61,0,1,0,2.59-2.83Z"/><path class="cls-3" d="M114.65,339.89h-1.28v-7.67h1.28v1.24a2.58,2.58,0,0,1,2.48-1.38v1.31h-.34c-1.22,0-2.14.55-2.14,2.33Z"/><path class="cls-3" d="M123.89,332.22h1.32l-4.63,11.29h-1.31l1.51-3.7-3.1-7.59h1.42l2.41,6.22Z"/><path class="cls-3" d="M65.13,239.76a3.33,3.33,0,0,1,3.54,2.6H67.3a2.09,2.09,0,0,0-2.17-1.52c-1.4,0-2.44,1-2.44,2.87s1,2.9,2.44,2.9a2.06,2.06,0,0,0,2.17-1.51h1.37a3.4,3.4,0,0,1-3.54,2.59,4,4,0,0,1,0-7.93Z"/><path class="cls-3" d="M73.71,247.69a4,4,0,1,1,3.94-4A3.81,3.81,0,0,1,73.71,247.69Zm0-1.12a2.61,2.61,0,0,0,2.64-2.86,2.58,2.58,0,0,0-2.59-2.84,2.55,2.55,0,0,0-2.57,2.84C71.19,245.66,72.38,246.57,73.71,246.57Z"/><path class="cls-3" d="M86.13,247.57H84.86v-1.14a2.82,2.82,0,0,1-2.45,1.25,3,3,0,0,1-3.15-3.29v-4.5h1.26v4.33a2.06,2.06,0,0,0,2.14,2.35c1.32,0,2.2-.81,2.2-2.46v-4.22h1.27Z"/><path class="cls-3" d="M93.9,243.22a2.06,2.06,0,0,0-2.14-2.36c-1.3,0-2.2.81-2.2,2.46v4.25H88.28v-7.68h1.28V241A2.82,2.82,0,0,1,92,239.75,3,3,0,0,1,95.16,243v4.53H93.9Z"/><path class="cls-3" d="M97.52,240.94h-1v-1.05h1V238H98.8v1.93h2v1.05h-2v4.53c0,.75.28,1,1.06,1h.94v1.08H99.65c-1.35,0-2.13-.56-2.13-2.1Z"/><path class="cls-3" d="M103.62,247.57h-1.28v-7.68h1.28v1.25a2.57,2.57,0,0,1,2.47-1.39v1.32h-.33c-1.22,0-2.14.54-2.14,2.32Z"/><path class="cls-3" d="M107.35,237.78a.86.86,0,1,1,1.71,0,.86.86,0,1,1-1.71,0Zm.21,2.11h1.28v7.68h-1.28Z"/><path class="cls-3" d="M114.33,247.69a3.7,3.7,0,0,1-3.8-4,3.66,3.66,0,0,1,3.8-4,3.52,3.52,0,0,1,3.68,3.67,6.4,6.4,0,0,1,0,.77h-6.14a2.41,2.41,0,0,0,2.5,2.41,2.1,2.1,0,0,0,2.15-1.41h1.38A3.46,3.46,0,0,1,114.33,247.69Zm-2.48-4.52h4.84a2.25,2.25,0,0,0-2.42-2.33A2.38,2.38,0,0,0,111.85,243.17Z"/><path class="cls-3" d="M122.4,247.69c-1.79,0-3.05-1-3.13-2.38h1.31c.07.74.73,1.3,1.81,1.3s1.57-.5,1.57-1.13c0-1.71-4.54-.72-4.54-3.57,0-1.18,1.11-2.15,2.82-2.15s2.81.92,2.89,2.41h-1.27a1.48,1.48,0,0,0-1.67-1.33c-.93,0-1.5.45-1.5,1.07,0,1.82,4.46.82,4.52,3.57C125.21,246.74,124.1,247.69,122.4,247.69Z"/><rect class="cls-4" x="154.26" y="378.55" width="62.25" height="62.25" rx="7.3"/><path class="cls-3" d="M177.85,417.49a3.34,3.34,0,0,1,3.55,2.59H180a2.08,2.08,0,0,0-2.17-1.51c-1.4,0-2.44,1-2.44,2.87s1,2.9,2.44,2.9a2,2,0,0,0,2.17-1.51h1.38a3.42,3.42,0,0,1-3.55,2.59,4,4,0,0,1,0-7.93Z"/><path class="cls-3" d="M186.25,417.49a3.19,3.19,0,0,1,2.86,1.53v-1.4h1.29v7.68h-1.29v-1.43a3.22,3.22,0,0,1-2.87,1.55,3.69,3.69,0,0,1-3.63-4A3.64,3.64,0,0,1,186.25,417.49Zm.25,1.11a2.59,2.59,0,0,0-2.59,2.83,2.61,2.61,0,1,0,2.59-2.83Z"/><path class="cls-3" d="M192.55,414.93h1.27V425.3h-1.27Z"/><path class="cls-3" d="M196,414.93h1.28V425.3H196Z"/><line class="cls-12" x1="181.21" y1="403.05" x2="189.58" y2="394.67"/><polygon class="cls-3" points="190.12 399.78 189.14 399.74 189.31 394.94 184.51 395.12 184.48 394.14 190.33 393.93 190.12 399.78"/><path class="cls-13" d="M190.62,402.49c0,.14,0,.28,0,.42a8.56,8.56,0,1,1-9-9h.46"/><line class="cls-4" x1="185.33" y1="441.26" x2="185.33" y2="470.16"/><rect class="cls-5" x="178.52" y="448.89" width="13.63" height="13.63" rx="6.82"/><line class="cls-4" x1="185.33" y1="452.37" x2="185.33" y2="459.04"/><line class="cls-4" x1="182" y1="455.71" x2="188.67" y2="455.71"/><path class="cls-3" d="M398.14,85.82a3.6,3.6,0,0,1,3.05,1.6V83.07h1.38V94.18h-1.38V92.63a3.37,3.37,0,0,1-3.06,1.69A4,4,0,0,1,394.22,90,3.9,3.9,0,0,1,398.14,85.82ZM398.4,87a2.79,2.79,0,0,0-2.78,3,2.8,2.8,0,1,0,2.78-3Z"/><path class="cls-3" d="M404.66,83.69a.92.92,0,1,1,.93.93A.92.92,0,0,1,404.66,83.69Zm.23,2.26h1.37v8.23h-1.37Z"/><path class="cls-3" d="M411.5,94.32c-1.92,0-3.28-1-3.37-2.56h1.42c.07.8.78,1.4,1.93,1.4s1.68-.54,1.68-1.22c0-1.83-4.86-.76-4.86-3.82,0-1.27,1.19-2.3,3-2.3s3,1,3.11,2.58h-1.37A1.59,1.59,0,0,0,411.27,87c-1,0-1.6.48-1.6,1.15,0,1.95,4.77.88,4.83,3.82C414.5,93.3,413.31,94.32,411.5,94.32Z"/><path class="cls-3" d="M420,94.32a4,4,0,0,1-4.07-4.27A3.91,3.91,0,0,1,420,85.82a3.77,3.77,0,0,1,3.95,3.93,7.56,7.56,0,0,1,0,.83h-6.58A2.59,2.59,0,0,0,420,93.16a2.26,2.26,0,0,0,2.32-1.52h1.47A3.7,3.7,0,0,1,420,94.32Zm-2.65-4.85h5.19a2.42,2.42,0,0,0-2.6-2.5A2.55,2.55,0,0,0,417.33,89.47Z"/><path class="cls-3" d="M429.13,85.82a3.42,3.42,0,0,1,3.06,1.63V86h1.39v8.23h-1.39V92.65a3.42,3.42,0,0,1-3.07,1.67A4,4,0,0,1,425.23,90,3.89,3.89,0,0,1,429.13,85.82ZM429.4,87a2.79,2.79,0,0,0-2.78,3,2.8,2.8,0,1,0,2.78-3Z"/><path class="cls-3" d="M438.81,94.32c-1.93,0-3.28-1-3.37-2.56h1.41c.08.8.78,1.4,1.94,1.4s1.68-.54,1.68-1.22c0-1.83-4.86-.76-4.86-3.82,0-1.27,1.18-2.3,3-2.3s3,1,3.11,2.58h-1.36A1.59,1.59,0,0,0,438.58,87c-1,0-1.61.48-1.61,1.15,0,1.95,4.78.88,4.84,3.82C441.81,93.3,440.62,94.32,438.81,94.32Z"/><path class="cls-3" d="M447.29,94.32a4,4,0,0,1-4.07-4.27,3.91,3.91,0,0,1,4.07-4.23,3.77,3.77,0,0,1,3.95,3.93,7.56,7.56,0,0,1,0,.83h-6.58a2.59,2.59,0,0,0,2.67,2.58,2.26,2.26,0,0,0,2.31-1.52h1.48A3.71,3.71,0,0,1,447.29,94.32Zm-2.66-4.85h5.2a2.42,2.42,0,0,0-2.6-2.5A2.56,2.56,0,0,0,444.63,89.47Z"/><path class="cls-3" d="M458.68,84.83h-4.27v3.5h3.82v1.12h-3.82v3.61h4.27v1.12h-5.63V83.7h5.63Z"/><path class="cls-3" d="M465.2,85.82A3.9,3.9,0,0,1,469.1,90a4,4,0,0,1-3.9,4.28,3.55,3.55,0,0,1-3.08-1.66v5.43h-1.37V86h1.37v1.52A3.48,3.48,0,0,1,465.2,85.82ZM464.91,87a3.07,3.07,0,1,0,2.79,3A2.78,2.78,0,0,0,464.91,87Z"/><rect class="cls-14" x="54.35" y="212.34" width="70.86" height="18.75" rx="4.45"/><path class="cls-15" d="M65.12,221.16c0-2.19,1.33-3.49,3.11-3.49a2.69,2.69,0,0,1,1.92.83l-.66.75a1.71,1.71,0,0,0-1.26-.55c-1.12,0-1.88.93-1.88,2.43s.76,2.46,1.91,2.46a1.74,1.74,0,0,0,1.35-.67l.67.73a2.69,2.69,0,0,1-2.14,1C66.47,224.63,65.12,223.39,65.12,221.16Z"/><path class="cls-15" d="M71.21,222a2.54,2.54,0,1,1,2.54,2.64A2.5,2.5,0,0,1,71.21,222Zm3.85,0c0-1-.49-1.68-1.31-1.68s-1.32.66-1.32,1.68.49,1.67,1.32,1.67S75.06,223,75.06,222Z"/><path class="cls-15" d="M77.54,222.58v-3.12h1.19v3c0,.8.25,1.18.94,1.18a1.55,1.55,0,0,0,1.26-.75v-3.4h1.19v5h-1l-.1-.8h0a2.29,2.29,0,0,1-1.78.93C78.06,224.63,77.54,223.88,77.54,222.58Z"/><path class="cls-15" d="M83.83,219.46h1l.09.76h0a2.52,2.52,0,0,1,1.82-.88c1.17,0,1.69.74,1.69,2v3.12H87.26v-3c0-.8-.26-1.17-.94-1.17a1.78,1.78,0,0,0-1.3.7v3.44H83.83Z"/><path class="cls-15" d="M91.1,222.48V220.4H89.75v-.88l1.4-.06.15-1.58h1v1.58h2.3v.94h-2.3v2.07c0,.83.32,1.21,1.17,1.21a3.37,3.37,0,0,0,1.1-.2l.23.86a4.94,4.94,0,0,1-1.62.29C91.62,224.63,91.1,223.76,91.1,222.48Z"/><path class="cls-15" d="M96.64,219.46h1l.1,1.15h0a2.48,2.48,0,0,1,2.15-1.27,2.15,2.15,0,0,1,1,.2l-.25,1a2.51,2.51,0,0,0-.92-.16,2.1,2.1,0,0,0-1.88,1.33v2.78H96.64Z"/><path class="cls-15" d="M102.16,226.47l.22-.92a1.48,1.48,0,0,0,.42.07,1.23,1.23,0,0,0,1.21-.86l.13-.32-2.26-5h1.18l1,2.47c.19.46.38,1,.56,1.48h0c.16-.49.34-1,.5-1.48l.91-2.47h1.13l-2.1,5.27c-.44,1.14-1,1.84-2.26,1.84A2.48,2.48,0,0,1,102.16,226.47Z"/><path class="cls-15" d="M109.81,217.23h2.94v.65h-2v7.54h2v.64h-2.94Z"/><path class="cls-15" d="M114.82,225.42h2v-7.54h-2v-.65h3v8.83h-3Z"/><rect class="cls-14" x="82.19" y="305.12" width="43.01" height="18.75" rx="4.45"/><path class="cls-15" d="M92,319.07l.36-.87a2.55,2.55,0,0,0,1.09.26c.85,0,1.09-.41,1.09-1.2v-4.07H92.35v-.94h3.36v4.94a2,2,0,0,1-2.23,2.22A3.6,3.6,0,0,1,92,319.07Zm2.22-8.54a.84.84,0,1,1,.84.8A.79.79,0,0,1,94.2,310.53Z"/><path class="cls-15" d="M98.28,316.63l.52-.75a3.78,3.78,0,0,0,2.11.63c.69,0,1-.26,1-.59s-.22-.52-1.39-.76c-1.35-.29-2-.76-2-1.53s.8-1.51,2.21-1.51a3.91,3.91,0,0,1,2.11.67l-.54.73a3.07,3.07,0,0,0-1.67-.51c-.66,0-.93.26-.93.56s.37.48,1.32.69c1.61.35,2,.78,2,1.58s-.84,1.57-2.37,1.57A4.5,4.5,0,0,1,98.28,316.63Z"/><path class="cls-15" d="M104.35,314.77a2.54,2.54,0,1,1,2.53,2.64A2.5,2.5,0,0,1,104.35,314.77Zm3.85,0c0-1-.49-1.68-1.32-1.68s-1.31.67-1.31,1.68.49,1.67,1.31,1.67S108.2,315.78,108.2,314.77Z"/><path class="cls-15" d="M110.81,312.25h1l.09.76h0a2.52,2.52,0,0,1,1.82-.89c1.16,0,1.69.75,1.69,2.05v3.12h-1.19v-3c0-.81-.26-1.18-.94-1.18a1.74,1.74,0,0,0-1.29.71v3.44h-1.19Z"/><path class="cls-11" d="M233.57,317.26h-1v-1.05h1v-.55c0-1.71.84-2.48,2.8-2.48v1.07c-1.15,0-1.53.42-1.53,1.41v.55h1.61v1.05h-1.61v6.62h-1.27Z"/><path class="cls-11" d="M239.21,323.88h-1.28v-7.67h1.28v1.24a2.58,2.58,0,0,1,2.48-1.38v1.32h-.34c-1.22,0-2.14.54-2.14,2.32Z"/><path class="cls-11" d="M246.51,324a4,4,0,1,1,3.93-4A3.8,3.8,0,0,1,246.51,324Zm0-1.12a2.86,2.86,0,0,0,0-5.7A2.55,2.55,0,0,0,244,320C244,322,245.17,322.89,246.51,322.89Z"/><path class="cls-11" d="M263.2,319.54c0-1.57-.84-2.37-2.1-2.37s-2.17.83-2.17,2.48v4.23h-1.27v-4.34c0-1.57-.84-2.37-2.1-2.37s-2.17.83-2.17,2.48v4.23h-1.27v-7.67h1.27v1.1a2.79,2.79,0,0,1,2.42-1.24,2.88,2.88,0,0,1,2.82,1.71,2.84,2.84,0,0,1,2.72-1.71,3,3,0,0,1,3.11,3.29v4.52H263.2Z"/><path class="cls-11" d="M270.74,316.21l2.39,6.5,2.38-6.5h1.36l-3,7.67h-1.48l-3-7.67Z"/><path class="cls-11" d="M281.29,316.08a3.19,3.19,0,0,1,2.86,1.53v-1.4h1.29v7.67h-1.29v-1.42a3.2,3.2,0,0,1-2.87,1.55,3.7,3.7,0,0,1-3.63-4A3.64,3.64,0,0,1,281.29,316.08Zm.26,1.11A2.59,2.59,0,0,0,279,320a2.61,2.61,0,1,0,2.59-2.83Z"/><path class="cls-11" d="M288.87,323.88h-1.28v-7.67h1.28v1.24a2.58,2.58,0,0,1,2.48-1.38v1.32H291c-1.22,0-2.14.54-2.14,2.32Z"/><path class="cls-11" d="M293.22,324a.87.87,0,1,1,.84-.87A.86.86,0,0,1,293.22,324Z"/><path class="cls-11" d="M296.16,324a.87.87,0,1,1,.84-.87A.86.86,0,0,1,296.16,324Z"/><path class="cls-11" d="M299.1,324a.87.87,0,1,1,.84-.87A.86.86,0,0,1,299.1,324Z"/><line class="cls-16" x1="428.12" y1="137.26" x2="428.12" y2="124.38"/><polygon class="cls-3" points="433.81 128.99 432.79 129.94 428.12 124.92 423.44 129.94 422.43 128.99 428.12 122.87 433.81 128.99"/><line class="cls-16" x1="441.11" y1="128.63" x2="441.11" y2="145.82"/><polygon class="cls-3" points="435.42 141.21 436.43 140.26 441.11 145.28 445.78 140.26 446.8 141.21 441.11 147.33 435.42 141.21"/><path class="cls-16" d="M447.41,147.73a2.77,2.77,0,0,1-2.77,2.76H431.77"/><polygon class="cls-3" points="416.52 142.47 422.81 138.85 429.09 142.47 429.09 149.73 422.81 153.36 416.52 149.73 416.52 142.47"/><polygon class="cls-17" points="420.33 144.13 420.33 141.62 422.44 141.62 422.44 144.94 420.33 144.13"/><polygon class="cls-17" points="420.33 144.92 421.78 145.47 420.33 146.03 420.33 144.92"/><polygon class="cls-17" points="422.44 146.01 422.44 147.23 421.42 150.58 420.33 150.58 420.33 146.81 422.44 146.01"/><polygon class="cls-17" points="425.28 144.13 425.28 141.62 423.17 141.62 423.17 144.94 425.28 144.13"/><polygon class="cls-17" points="425.28 144.92 423.83 145.47 425.28 146.03 425.28 144.92"/><polygon class="cls-17" points="423.17 146.01 423.17 147.23 424.19 150.58 425.28 150.58 425.28 146.81 423.17 146.01"/></svg>