<?xml version="1.0" encoding="utf-8"?>
<!-- Generator: Adobe Illustrator 16.0.0, SVG Export Plug-In . SVG Version: 6.00 Build 0)  -->
<!DOCTYPE svg PUBLIC "-//W3C//DTD SVG 1.1//EN" "http://www.w3.org/Graphics/SVG/1.1/DTD/svg11.dtd">
<svg version="1.1" id="Layer_1" xmlns="http://www.w3.org/2000/svg" xmlns:xlink="http://www.w3.org/1999/xlink" x="0px" y="0px"
	 width="18.089px" height="15.309px" viewBox="0 0 18.089 15.309" enable-background="new 0 0 18.089 15.309" xml:space="preserve">
<g>
	<path fill="#3AD1CA" d="M18.029,2.802c0,0-0.005-0.004-0.011-0.009l-0.002-0.004l-5.462-2.727c-0.035-0.019-0.071-0.029-0.11-0.043
		C12.388,0.009,12.338,0,12.292,0c-0.207,0-0.416,0.104-0.525,0.288L8.62,5.395l3.943,6.408l5.485-8.912
		C18.063,2.858,18.055,2.823,18.029,2.802"/>
	<polygon fill="#3AD1CA" points="6.894,4.229 6.894,10.043 12.055,12.625 	"/>
	<path fill="#3AD1CA" d="M12.831,13.008l4.256,2.131c0.551,0.275,1.002,0.082,1.002-0.434V4.477L12.831,13.008z"/>
	<path fill="#3AD1CA" d="M5.994,2.81L0.668,0.146C0.571,0.098,0.483,0.072,0.397,0.072C0.163,0.072,0,0.256,0,0.561v11.499
		c0,0.311,0.221,0.674,0.501,0.814l4.691,2.348c0.12,0.061,0.231,0.088,0.339,0.088c0.291,0,0.499-0.227,0.499-0.604V2.863
		C6.031,2.84,6.016,2.82,5.994,2.81"/>
</g>
</svg>
