<?xml version="1.0" encoding="utf-8"?>
<!-- Generator: Adobe Illustrator 16.0.4, SVG Export Plug-In . SVG Version: 6.00 Build 0)  -->
<!DOCTYPE svg PUBLIC "-//W3C//DTD SVG 1.0//EN" "http://www.w3.org/TR/2001/REC-SVG-20010904/DTD/svg10.dtd">
<svg version="1.0" id="Layer_1" xmlns="http://www.w3.org/2000/svg" xmlns:xlink="http://www.w3.org/1999/xlink" x="0px" y="0px"
	 width="452.664px" height="456px" viewBox="0 0 452.664 456" enable-background="new 0 0 452.664 456" xml:space="preserve">
<g opacity="0.1">
	<g>
		<defs>
			<rect id="SVGID_13_" x="-49.04" y="-30.924" width="540.24" height="533.76"/>
		</defs>
		<clipPath id="SVGID_2_">
			<use xlink:href="#SVGID_13_"  overflow="visible"/>
		</clipPath>
		<g clip-path="url(#SVGID_2_)">
			<defs>
				<rect id="SVGID_15_" x="-49.04" y="-30.925" width="540.239" height="533.761"/>
			</defs>
			<clipPath id="SVGID_4_">
				<use xlink:href="#SVGID_15_"  overflow="visible"/>
			</clipPath>
			<g transform="matrix(1 0 0 1 -3.814697e-06 -1.907349e-06)" clip-path="url(#SVGID_4_)">
				
					<image overflow="visible" width="2251" height="2224" xlink:href="B9BE7F49A6A807C.png"  transform="matrix(0.24 0 0 0.24 -49.04 -30.9248)">
				</image>
			</g>
		</g>
	</g>
</g>
<rect x="-29.845" y="-22.348" fill="#FFFFFF" width="512.663" height="506.15"/>
<rect y="53.946" fill="#F5F6F6" width="452.664" height="345.235"/>
<line fill="none" stroke="#585A5E" stroke-miterlimit="10" x1="226.745" y1="418.239" x2="226.745" y2="362.433"/>
<polygon fill="#585A5E" points="229.737,415.649 226.745,420.83 223.753,415.649 "/>
<rect x="-0.001" y="37.864" fill="#F5F6F6" width="110" height="18.366"/>
<g>
	<path fill="#585A5E" d="M17.756,53.084c-0.859,0-1.517-0.362-1.971-1.087s-0.682-1.703-0.682-2.934c0-1.229,0.228-2.205,0.682-2.93
		s1.111-1.087,1.971-1.087c0.862,0,1.52,0.362,1.973,1.087c0.452,0.725,0.678,1.701,0.678,2.93c0,1.23-0.226,2.209-0.678,2.934
		C19.275,52.722,18.618,53.084,17.756,53.084z M17.756,52.327c0.475,0,0.871-0.27,1.188-0.81c0.317-0.539,0.476-1.356,0.476-2.452
		s-0.158-1.913-0.476-2.452c-0.317-0.54-0.714-0.81-1.188-0.81c-0.476,0-0.872,0.27-1.189,0.81
		c-0.317,0.539-0.477,1.356-0.477,2.452s0.159,1.913,0.477,2.452C16.884,52.058,17.28,52.327,17.756,52.327z"/>
	<path fill="#585A5E" d="M22.545,48.627c0.279-0.456,0.613-0.8,1.001-1.031s0.743-0.347,1.069-0.347c0.455,0,0.865,0.197,1.23,0.591
		s0.547,0.991,0.547,1.792c0,0.632-0.121,1.195-0.363,1.691c-0.243,0.497-0.566,0.889-0.97,1.178
		c-0.403,0.287-0.903,0.432-1.499,0.432c-0.17,0-0.43-0.018-0.781-0.054c-0.053-0.007-0.131-0.015-0.234-0.024h-0.908v-7.881h0.908
		V48.627z M22.545,49.707v2.342c0.328,0.085,0.631,0.127,0.908,0.127c0.551,0,1.014-0.216,1.389-0.647
		c0.377-0.432,0.564-1.022,0.564-1.772c0-0.544-0.103-0.953-0.308-1.227c-0.205-0.274-0.438-0.411-0.698-0.411
		c-0.283,0-0.595,0.144-0.936,0.431C23.125,48.835,22.818,49.222,22.545,49.707z"/>
	<path fill="#585A5E" d="M27.959,52.566v-0.962c0.365,0.237,0.751,0.404,1.158,0.5c0.406,0.097,0.752,0.145,1.035,0.145
		c0.459,0,0.789-0.074,0.99-0.223c0.202-0.147,0.303-0.332,0.303-0.554c0-0.146-0.047-0.271-0.141-0.376
		c-0.095-0.104-0.329-0.232-0.703-0.386l-0.312-0.127l-0.631-0.249c-0.677-0.264-1.104-0.508-1.279-0.732
		c-0.179-0.222-0.268-0.491-0.268-0.811c0-0.449,0.173-0.818,0.52-1.108c0.348-0.29,0.91-0.435,1.689-0.435
		c0.584,0,1.137,0.085,1.658,0.254v0.825c-0.601-0.215-1.164-0.322-1.693-0.322c-0.385,0-0.686,0.067-0.902,0.202
		c-0.217,0.136-0.324,0.304-0.324,0.506c0,0.195,0.094,0.352,0.283,0.469c0.186,0.117,0.488,0.252,0.908,0.405l0.616,0.225
		c0.563,0.205,0.96,0.428,1.187,0.669s0.34,0.542,0.34,0.903c0,0.472-0.182,0.86-0.544,1.165c-0.362,0.304-0.943,0.456-1.741,0.456
		C29.411,53.006,28.695,52.859,27.959,52.566z"/>
	<path fill="#585A5E" d="M38.623,52.491c-0.727,0.343-1.412,0.515-2.061,0.515c-0.492,0-0.932-0.122-1.318-0.366
		c-0.387-0.243-0.697-0.593-0.93-1.046c-0.233-0.454-0.35-0.939-0.35-1.456c0-0.498,0.111-0.977,0.332-1.435
		c0.221-0.459,0.531-0.815,0.928-1.071c0.396-0.255,0.84-0.383,1.328-0.383c0.648,0,1.168,0.23,1.561,0.692
		c0.392,0.461,0.588,1.173,0.588,2.135v0.195h-3.76c0,0.379,0.079,0.725,0.236,1.038c0.158,0.312,0.365,0.548,0.623,0.704
		c0.258,0.157,0.551,0.235,0.879,0.235c0.586,0,1.234-0.195,1.943-0.587V52.491z M34.995,49.593h2.72v-0.132
		c0-0.444-0.109-0.798-0.327-1.061s-0.509-0.395-0.874-0.395c-0.367,0-0.686,0.134-0.955,0.401
		C35.291,48.675,35.103,49.07,34.995,49.593z"/>
	<path fill="#585A5E" d="M40.742,52.854V47.4h0.908v1.191c0.283-0.449,0.607-0.785,0.974-1.009c0.366-0.223,0.774-0.334,1.224-0.334
		c0.328,0,0.657,0.051,0.986,0.151v1.968h-0.875v-1.245c-0.152-0.026-0.273-0.039-0.361-0.039c-0.338,0-0.67,0.134-0.996,0.4
		c-0.325,0.267-0.643,0.667-0.951,1.201v3.169H40.742z"/>
	<path fill="#585A5E" d="M48.246,52.854l-2.37-5.454h0.996l1.872,4.321l1.904-4.321h0.911l-2.388,5.454H48.246z"/>
	<path fill="#585A5E" d="M56.245,51.635c-0.276,0.453-0.609,0.796-0.999,1.025c-0.389,0.23-0.746,0.346-1.072,0.346
		c-0.455,0-0.865-0.197-1.229-0.591c-0.362-0.394-0.544-0.991-0.544-1.792c0-0.632,0.12-1.195,0.362-1.692
		c0.24-0.496,0.562-0.889,0.967-1.176c0.404-0.289,0.904-0.433,1.502-0.433c0.172,0,0.432,0.018,0.779,0.054
		c0.053,0.007,0.131,0.015,0.234,0.024h0.911v3.852c0,0.658,0.069,1.192,0.21,1.603H56.42
		C56.347,52.557,56.289,52.149,56.245,51.635z M56.249,50.548v-2.342c-0.323-0.085-0.623-0.127-0.899-0.127
		c-0.562,0-1.028,0.217-1.402,0.65c-0.373,0.434-0.56,1.023-0.56,1.77c0,0.541,0.103,0.949,0.306,1.225s0.436,0.413,0.697,0.413
		c0.283,0,0.596-0.144,0.939-0.431C55.672,51.42,55.979,51.033,56.249,50.548z"/>
	<path fill="#585A5E" d="M59.691,48.627c0.279-0.456,0.613-0.8,1-1.031c0.388-0.231,0.744-0.347,1.07-0.347
		c0.455,0,0.865,0.197,1.23,0.591c0.364,0.394,0.547,0.991,0.547,1.792c0,0.632-0.121,1.195-0.364,1.691
		c-0.243,0.497-0.565,0.889-0.97,1.178c-0.403,0.287-0.902,0.432-1.498,0.432c-0.17,0-0.43-0.018-0.781-0.054
		c-0.053-0.007-0.131-0.015-0.234-0.024h-0.908v-7.881h0.908V48.627z M59.691,49.707v2.342c0.328,0.085,0.631,0.127,0.908,0.127
		c0.55,0,1.013-0.216,1.389-0.647s0.564-1.022,0.564-1.772c0-0.544-0.104-0.953-0.309-1.227c-0.205-0.274-0.438-0.411-0.697-0.411
		c-0.283,0-0.596,0.144-0.936,0.431C60.271,48.835,59.965,49.222,59.691,49.707z"/>
	<path fill="#585A5E" d="M66.57,52.854v-4.697h-1.514V47.4h2.422v4.697h1.519v0.757H66.57z M66.424,45.431
		c0-0.205,0.07-0.357,0.209-0.458c0.14-0.101,0.271-0.15,0.395-0.15c0.126,0,0.259,0.05,0.398,0.15
		c0.139,0.101,0.209,0.253,0.209,0.458c0,0.2-0.07,0.352-0.209,0.452c-0.14,0.101-0.272,0.15-0.398,0.15
		c-0.123,0-0.255-0.05-0.395-0.15C66.494,45.782,66.424,45.631,66.424,45.431z"/>
	<path fill="#585A5E" d="M72.697,52.854V45.73h-1.631v-0.757h2.539v7.124h1.705v0.757H72.697z"/>
	<path fill="#585A5E" d="M78.952,52.854v-4.697h-1.514V47.4h2.422v4.697h1.519v0.757H78.952z M78.806,45.431
		c0-0.205,0.069-0.357,0.209-0.458s0.271-0.15,0.394-0.15c0.127,0,0.26,0.05,0.399,0.15s0.209,0.253,0.209,0.458
		c0,0.2-0.069,0.352-0.209,0.452s-0.272,0.15-0.399,0.15c-0.123,0-0.254-0.05-0.394-0.15S78.806,45.631,78.806,45.431z"/>
	<path fill="#585A5E" d="M88.176,52.635c-0.427,0.179-0.736,0.286-0.928,0.319c-0.192,0.035-0.378,0.052-0.557,0.052
		c-0.381,0-0.729-0.073-1.045-0.22c-0.316-0.146-0.555-0.363-0.716-0.649s-0.241-0.729-0.241-1.328v-2.197h-1.363v-0.757h1.363
		v-2.197h0.908v2.197h2.426v0.757h-2.426v2.183c0,0.439,0.052,0.75,0.156,0.93c0.104,0.182,0.242,0.313,0.417,0.398
		s0.38,0.127,0.618,0.127c0.439,0,0.901-0.139,1.387-0.415V52.635z"/>
	<path fill="#585A5E" d="M91.814,52.64l-2.52-5.239h1l2.008,4.096l1.676-4.096h0.912l-2.109,5.069
		c-0.445,1.068-0.87,1.778-1.271,2.129c-0.402,0.351-0.923,0.526-1.561,0.526c-0.277,0-0.524-0.024-0.742-0.073v-0.801
		c0.25,0.078,0.489,0.117,0.717,0.117c0.293,0,0.553-0.057,0.781-0.17c0.228-0.114,0.436-0.315,0.625-0.604
		c0.188-0.289,0.322-0.539,0.4-0.75L91.814,52.64z"/>
</g>
<rect x="342.667" y="37.864" fill="#F5F6F6" width="110" height="18.366"/>
<g>
	<path fill="#585A5E" d="M373.723,52.566v-0.962c0.365,0.237,0.751,0.404,1.158,0.5c0.406,0.097,0.752,0.145,1.035,0.145
		c0.459,0,0.789-0.074,0.99-0.223c0.202-0.147,0.303-0.332,0.303-0.554c0-0.146-0.047-0.271-0.141-0.376
		c-0.095-0.104-0.329-0.232-0.703-0.386l-0.312-0.127l-0.631-0.249c-0.677-0.264-1.104-0.508-1.279-0.732
		c-0.179-0.222-0.268-0.491-0.268-0.811c0-0.449,0.173-0.818,0.52-1.108c0.348-0.29,0.91-0.435,1.689-0.435
		c0.584,0,1.137,0.085,1.658,0.254v0.825c-0.601-0.215-1.164-0.322-1.693-0.322c-0.385,0-0.686,0.067-0.902,0.202
		c-0.217,0.136-0.324,0.304-0.324,0.506c0,0.195,0.094,0.352,0.283,0.469c0.186,0.117,0.488,0.252,0.908,0.405l0.616,0.225
		c0.563,0.205,0.96,0.428,1.187,0.669s0.34,0.542,0.34,0.903c0,0.472-0.182,0.86-0.544,1.165c-0.362,0.304-0.943,0.456-1.741,0.456
		C375.175,53.006,374.459,52.859,373.723,52.566z"/>
	<path fill="#585A5E" d="M384.387,52.491c-0.727,0.343-1.412,0.515-2.061,0.515c-0.492,0-0.932-0.122-1.318-0.366
		c-0.387-0.243-0.697-0.593-0.93-1.046c-0.233-0.454-0.35-0.939-0.35-1.456c0-0.498,0.111-0.977,0.332-1.435
		c0.221-0.459,0.531-0.815,0.928-1.071c0.396-0.255,0.84-0.383,1.328-0.383c0.648,0,1.168,0.23,1.561,0.692
		c0.392,0.461,0.588,1.173,0.588,2.135v0.195h-3.76c0,0.379,0.079,0.725,0.236,1.038c0.158,0.312,0.365,0.548,0.623,0.704
		c0.258,0.157,0.551,0.235,0.879,0.235c0.586,0,1.234-0.195,1.943-0.587V52.491z M380.759,49.593h2.72v-0.132
		c0-0.444-0.109-0.798-0.327-1.061s-0.509-0.395-0.874-0.395c-0.367,0-0.686,0.134-0.955,0.401
		C381.055,48.675,380.866,49.07,380.759,49.593z"/>
	<path fill="#585A5E" d="M390.631,52.698c-0.608,0.205-1.188,0.308-1.738,0.308c-0.547,0-1.032-0.126-1.457-0.378
		c-0.425-0.253-0.756-0.595-0.994-1.025c-0.237-0.432-0.355-0.923-0.355-1.473c0-0.827,0.27-1.514,0.808-2.061s1.188-0.82,1.95-0.82
		c0.563,0,1.159,0.105,1.787,0.317v0.874c-0.635-0.29-1.202-0.435-1.703-0.435c-0.332,0-0.645,0.082-0.938,0.247
		c-0.293,0.164-0.52,0.42-0.68,0.769c-0.159,0.349-0.238,0.706-0.238,1.074c0,0.491,0.153,0.96,0.461,1.406s0.79,0.669,1.447,0.669
		c0.199,0,0.395-0.014,0.586-0.041c0.192-0.028,0.547-0.13,1.064-0.306V52.698z"/>
	<path fill="#585A5E" d="M396.72,47.4v5.454h-0.908v-1.196c-0.293,0.449-0.618,0.786-0.977,1.011s-0.716,0.337-1.074,0.337
		c-0.319,0-0.611-0.085-0.876-0.257c-0.266-0.17-0.451-0.395-0.555-0.674c-0.104-0.277-0.156-0.82-0.156-1.628V47.4h0.908v3.159
		c0,0.524,0.025,0.87,0.076,1.037c0.05,0.168,0.143,0.306,0.277,0.413c0.136,0.107,0.281,0.161,0.438,0.161
		c0.318,0,0.662-0.15,1.027-0.451c0.367-0.302,0.67-0.682,0.911-1.141V47.4H396.72z"/>
	<path fill="#585A5E" d="M398.887,52.854V47.4h0.908v1.191c0.283-0.449,0.608-0.785,0.975-1.009
		c0.366-0.223,0.773-0.334,1.223-0.334c0.329,0,0.658,0.051,0.986,0.151v1.968h-0.873v-1.245c-0.153-0.026-0.273-0.039-0.361-0.039
		c-0.339,0-0.671,0.134-0.996,0.4c-0.326,0.267-0.644,0.667-0.953,1.201v3.169H398.887z"/>
	<path fill="#585A5E" d="M406.143,52.854v-4.697h-1.514V47.4h2.422v4.697h1.52v0.757H406.143z M405.996,45.431
		c0-0.205,0.07-0.357,0.209-0.458c0.141-0.101,0.271-0.15,0.395-0.15c0.127,0,0.26,0.05,0.398,0.15
		c0.14,0.101,0.209,0.253,0.209,0.458c0,0.2-0.069,0.352-0.209,0.452c-0.139,0.101-0.271,0.15-0.398,0.15
		c-0.123,0-0.254-0.05-0.395-0.15C406.066,45.782,405.996,45.631,405.996,45.431z"/>
	<path fill="#585A5E" d="M415.366,52.635c-0.427,0.179-0.735,0.286-0.928,0.319c-0.192,0.035-0.378,0.052-0.557,0.052
		c-0.381,0-0.729-0.073-1.045-0.22s-0.554-0.363-0.716-0.649c-0.16-0.286-0.241-0.729-0.241-1.328v-2.197h-1.362v-0.757h1.362
		v-2.197h0.908v2.197h2.427v0.757h-2.427v2.183c0,0.439,0.052,0.75,0.156,0.93c0.104,0.182,0.243,0.313,0.417,0.398
		c0.175,0.085,0.381,0.127,0.618,0.127c0.439,0,0.901-0.139,1.387-0.415V52.635z"/>
	<path fill="#585A5E" d="M419.006,52.64l-2.52-5.239h1l2.008,4.096l1.675-4.096h0.913l-2.109,5.069
		c-0.446,1.068-0.871,1.778-1.272,2.129s-0.923,0.526-1.561,0.526c-0.276,0-0.524-0.024-0.742-0.073v-0.801
		c0.251,0.078,0.489,0.117,0.718,0.117c0.293,0,0.553-0.057,0.781-0.17c0.227-0.114,0.436-0.315,0.624-0.604
		c0.188-0.289,0.322-0.539,0.4-0.75L419.006,52.64z"/>
</g>
<rect x="35.43" y="88.477" fill="#FFFFFF" width="382.631" height="80"/>
<g>
	<path fill="#585556" d="M54.591,105.655c0.353,0.112,0.64,0.326,0.864,0.642c0.224,0.316,0.336,0.666,0.336,1.05
		c0,0.681-0.223,1.202-0.666,1.566c-0.444,0.364-1.055,0.546-1.83,0.546h-2.82v-7.368h2.58c0.784,0,1.396,0.172,1.836,0.517
		c0.439,0.344,0.66,0.84,0.66,1.487c0,0.384-0.09,0.717-0.27,0.996C55.101,105.371,54.871,105.559,54.591,105.655z M51.687,105.187
		h1.356c0.871,0,1.308-0.34,1.308-1.02c0-0.664-0.437-0.996-1.308-0.996h-1.356V105.187z M51.687,106.219v2.16h1.584
		c0.416,0,0.736-0.096,0.96-0.288c0.225-0.191,0.336-0.456,0.336-0.792s-0.111-0.6-0.336-0.792c-0.224-0.191-0.544-0.288-0.96-0.288
		H51.687z"/>
	<path fill="#585556" d="M60.95,102.091h1.2l2.832,7.368h-1.271l-0.756-2.04h-2.82l-0.756,2.04h-1.26L60.95,102.091z
		 M61.539,103.615l-1.009,2.724h2.017L61.539,103.615z"/>
	<path fill="#585556" d="M67.838,109.459v-7.368h1.248v6.252h3.541v1.116H67.838z"/>
	<path fill="#585556" d="M75.698,109.459v-7.368h1.248v6.252h3.54v1.116H75.698z"/>
	<path fill="#585556" d="M83.559,102.091h4.812v1.104h-3.588v1.943h3.252v1.093h-3.252v2.111h3.588v1.116h-4.812V102.091z"/>
	<path fill="#585556" d="M93.662,106.471h-0.888v2.988h-1.248v-7.368h2.845c0.775,0,1.387,0.19,1.836,0.57
		c0.447,0.38,0.672,0.926,0.672,1.638c0,0.608-0.166,1.09-0.498,1.446c-0.332,0.355-0.795,0.582-1.387,0.678l2.137,3.036h-1.416
		L93.662,106.471z M92.774,103.171v2.256h1.572c0.407,0,0.726-0.102,0.954-0.306c0.228-0.204,0.342-0.479,0.342-0.822
		s-0.114-0.618-0.342-0.822c-0.229-0.203-0.547-0.306-0.954-0.306H92.774z"/>
	<path fill="#585556" d="M101.234,102.091v7.368h-1.248v-7.368H101.234z"/>
	<path fill="#585556" d="M110.594,102.091v7.368h-0.959l-3.769-5.364v5.364h-1.2v-7.368h1.176l3.553,5.112v-5.112H110.594z"/>
	<path fill="#585556" d="M116.281,102.091h1.201l2.832,7.368h-1.272l-0.756-2.04h-2.82l-0.756,2.04h-1.26L116.281,102.091z
		 M116.87,103.615l-1.009,2.724h2.017L116.87,103.615z"/>
	<path fill="#585556" d="M129.865,102.091h1.201l2.832,7.368h-1.272l-0.756-2.04h-2.82l-0.756,2.04h-1.26L129.865,102.091z
		 M130.454,103.615l-1.009,2.724h2.017L130.454,103.615z"/>
	<path fill="#585556" d="M139.598,106.711h-1.596v2.748h-1.248v-7.368h2.844c0.776,0,1.391,0.2,1.842,0.601
		c0.453,0.399,0.679,0.972,0.679,1.716c0,0.736-0.226,1.304-0.679,1.704C140.988,106.511,140.374,106.711,139.598,106.711z
		 M140.882,104.407c0-0.376-0.112-0.676-0.336-0.9c-0.224-0.224-0.548-0.336-0.972-0.336h-1.572v2.46h1.572
		c0.416,0,0.738-0.111,0.966-0.336C140.768,105.071,140.882,104.775,140.882,104.407z"/>
	<path fill="#585556" d="M146.342,102.091v7.368h-1.248v-7.368H146.342z"/>
</g>
<g>
	<path fill="#585556" d="M55.49,121.123h-1.607v-1.067h2.796v0.576c0,1.008-0.294,1.817-0.882,2.43s-1.338,0.918-2.25,0.918
		c-1,0-1.828-0.354-2.484-1.062s-0.984-1.621-0.984-2.741s0.326-2.034,0.979-2.742s1.466-1.062,2.441-1.062
		c0.824,0,1.498,0.216,2.022,0.648c0.524,0.432,0.858,1.024,1.002,1.775h-1.247c-0.16-0.424-0.379-0.745-0.654-0.966
		c-0.276-0.22-0.65-0.33-1.123-0.33c-0.647,0-1.17,0.25-1.565,0.75s-0.594,1.143-0.594,1.927c0,0.792,0.2,1.439,0.6,1.943
		c0.4,0.504,0.937,0.756,1.608,0.756c0.544,0,0.984-0.157,1.32-0.474S55.41,121.659,55.49,121.123z"/>
	<path fill="#585556" d="M61.694,116.491h1.2l2.832,7.368h-1.271l-0.756-2.04h-2.82l-0.756,2.04h-1.26L61.694,116.491z
		 M62.283,118.016l-1.009,2.724h2.017L62.283,118.016z"/>
	<path fill="#585556" d="M67.358,117.596v-1.104h6.144v1.104h-2.447v6.264h-1.248v-6.264H67.358z"/>
	<path fill="#585556" d="M76.479,116.491h4.812v1.104h-3.588v1.943h3.252v1.093h-3.252v2.111h3.588v1.116h-4.812V116.491z"/>
	<path fill="#585556" d="M87.795,116.491h1.008l1.392,5.424l1.332-5.424h1.2l-1.896,7.368h-1.152l-1.392-5.268l-1.415,5.268H85.73
		l-1.896-7.368h1.225l1.332,5.424L87.795,116.491z"/>
	<path fill="#585556" d="M97.357,116.491h1.201l2.832,7.368h-1.272l-0.756-2.04h-2.82l-0.756,2.04h-1.26L97.357,116.491z
		 M97.946,118.016l-1.009,2.724h2.017L97.946,118.016z"/>
	<path fill="#585556" d="M106.07,119.791l1.943-3.3h1.32l-2.676,4.428v2.94h-1.236v-2.94l-2.664-4.428h1.356L106.07,119.791z"/>
</g>
<line fill="none" stroke="#585A5E" stroke-miterlimit="10" x1="226.745" y1="28.367" x2="226.745" y2="115.501"/>
<g>
	<circle fill="#FFFFFF" stroke="#585A5E" stroke-miterlimit="10" cx="226.332" cy="23.12" r="22.242"/>
	<g>
		<path fill="#585556" d="M218.779,19.048h1.201l2.832,7.368h-1.272l-0.756-2.04h-2.82l-0.756,2.04h-1.26L218.779,19.048z
			 M219.368,20.573l-1.009,2.724h2.017L219.368,20.573z"/>
		<path fill="#585556" d="M228.5,23.668h-1.596v2.748h-1.248v-7.368h2.844c0.775,0,1.39,0.2,1.842,0.601
			c0.452,0.399,0.678,0.972,0.678,1.716c0,0.736-0.226,1.304-0.678,1.704C229.89,23.468,229.275,23.668,228.5,23.668z
			 M229.783,21.365c0-0.376-0.111-0.676-0.336-0.9c-0.224-0.224-0.547-0.336-0.971-0.336h-1.572v2.46h1.572
			c0.415,0,0.737-0.111,0.965-0.336C229.67,22.029,229.783,21.733,229.783,21.365z"/>
		<path fill="#585556" d="M235.244,19.048v7.368h-1.248v-7.368H235.244z"/>
	</g>
</g>
<line fill="none" stroke="#585A5E" stroke-miterlimit="10" x1="226.745" y1="138.152" x2="226.745" y2="183.996"/>
<rect x="154.402" y="236.291" fill="#FFFFFF" width="5.095" height="5.096"/>
<g>
	<rect x="35.43" y="309.667" fill="#FFFFFF" width="382.631" height="54.045"/>
	<g>
		<path fill="#585A5E" d="M94.206,325.859c0.264,0.084,0.479,0.244,0.648,0.481c0.168,0.236,0.252,0.499,0.252,0.787
			c0,0.51-0.167,0.901-0.5,1.175c-0.333,0.272-0.79,0.409-1.372,0.409h-2.115v-5.526h1.935c0.588,0,1.047,0.13,1.377,0.388
			s0.495,0.63,0.495,1.115c0,0.288-0.067,0.537-0.202,0.747C94.589,325.646,94.416,325.787,94.206,325.859z M92.028,325.508h1.017
			c0.654,0,0.981-0.255,0.981-0.765c0-0.498-0.327-0.747-0.981-0.747h-1.017V325.508z M92.028,326.282v1.62h1.188
			c0.312,0,0.552-0.072,0.721-0.217c0.167-0.144,0.252-0.342,0.252-0.594s-0.085-0.45-0.252-0.594
			c-0.169-0.145-0.408-0.216-0.721-0.216H92.028z"/>
		<path fill="#585A5E" d="M98.256,323.186h0.9l2.124,5.526h-0.954l-0.567-1.53h-2.115l-0.566,1.53h-0.945L98.256,323.186z
			 M98.697,324.329l-0.757,2.043h1.513L98.697,324.329z"/>
		<path fill="#585A5E" d="M102.702,328.712v-5.526h0.936v4.689h2.655v0.837H102.702z"/>
		<path fill="#585A5E" d="M107.877,328.712v-5.526h0.936v4.689h2.655v0.837H107.877z"/>
		<path fill="#585A5E" d="M113.052,323.186h3.609v0.828h-2.691v1.458h2.439v0.819h-2.439v1.584h2.691v0.837h-3.609V323.186z"/>
		<path fill="#585A5E" d="M119.909,326.471h-0.666v2.241h-0.936v-5.526h2.133c0.582,0,1.041,0.143,1.377,0.428
			s0.504,0.694,0.504,1.229c0,0.456-0.124,0.817-0.373,1.085c-0.249,0.267-0.596,0.437-1.04,0.508l1.603,2.277h-1.062
			L119.909,326.471z M119.243,323.996v1.691h1.18c0.306,0,0.544-0.076,0.715-0.229c0.171-0.152,0.257-0.358,0.257-0.616
			s-0.086-0.464-0.257-0.616c-0.171-0.153-0.409-0.229-0.715-0.229H119.243z"/>
		<path fill="#585A5E" d="M124.868,323.186v5.526h-0.936v-5.526H124.868z"/>
		<path fill="#585A5E" d="M131.16,323.186v5.526h-0.721l-2.825-4.023v4.023h-0.9v-5.526h0.882l2.664,3.834v-3.834H131.16z"/>
		<path fill="#585A5E" d="M134.706,323.186h0.899l2.124,5.526h-0.954l-0.566-1.53h-2.115l-0.567,1.53h-0.944L134.706,323.186z
			 M135.146,324.329l-0.756,2.043h1.512L135.146,324.329z"/>
	</g>
	<g>
		<path fill="#585A5E" d="M97.657,339.513h-0.666l-1.521-3.843v3.843h-0.892v-5.526h1.071l1.684,4.248l1.664-4.248h1.045v5.526h-0.9
			v-3.843L97.657,339.513z"/>
		<path fill="#585A5E" d="M101.896,333.986h3.609v0.828h-2.691v1.458h2.439v0.819h-2.439v1.584h2.691v0.837h-3.609V333.986z"/>
		<path fill="#585A5E" d="M106.721,337.982h0.953c0.175,0.553,0.592,0.828,1.251,0.828c0.324,0,0.584-0.073,0.779-0.221
			c0.194-0.146,0.292-0.346,0.292-0.599c0-0.197-0.062-0.355-0.185-0.472c-0.123-0.117-0.328-0.209-0.616-0.274l-0.936-0.226
			c-0.919-0.216-1.378-0.711-1.378-1.484c0-0.475,0.176-0.866,0.527-1.175c0.351-0.31,0.802-0.464,1.354-0.464
			c0.581,0,1.051,0.137,1.408,0.41c0.356,0.272,0.586,0.646,0.688,1.12h-0.937c-0.174-0.492-0.558-0.738-1.151-0.738
			c-0.3,0-0.542,0.071-0.725,0.212c-0.184,0.141-0.274,0.325-0.274,0.554c0,0.365,0.243,0.605,0.729,0.72l0.963,0.225
			c0.45,0.103,0.802,0.282,1.054,0.54s0.378,0.588,0.378,0.99c0,0.51-0.184,0.917-0.549,1.22c-0.366,0.303-0.841,0.454-1.423,0.454
			c-0.588,0-1.078-0.143-1.471-0.428C107.061,338.891,106.816,338.493,106.721,337.982z"/>
		<path fill="#585A5E" d="M112.021,337.982h0.954c0.174,0.553,0.591,0.828,1.251,0.828c0.324,0,0.583-0.073,0.778-0.221
			c0.195-0.146,0.293-0.346,0.293-0.599c0-0.197-0.062-0.355-0.185-0.472c-0.123-0.117-0.329-0.209-0.617-0.274l-0.936-0.226
			c-0.918-0.216-1.377-0.711-1.377-1.484c0-0.475,0.176-0.866,0.526-1.175c0.352-0.31,0.803-0.464,1.354-0.464
			c0.582,0,1.052,0.137,1.408,0.41c0.357,0.272,0.587,0.646,0.688,1.12h-0.936c-0.174-0.492-0.558-0.738-1.152-0.738
			c-0.3,0-0.541,0.071-0.725,0.212c-0.183,0.141-0.274,0.325-0.274,0.554c0,0.365,0.243,0.605,0.729,0.72l0.963,0.225
			c0.45,0.103,0.801,0.282,1.053,0.54s0.378,0.588,0.378,0.99c0,0.51-0.183,0.917-0.549,1.22s-0.84,0.454-1.422,0.454
			c-0.588,0-1.078-0.143-1.472-0.428C112.362,338.891,112.117,338.493,112.021,337.982z"/>
		<path fill="#585A5E" d="M119.348,333.986h0.899l2.124,5.526h-0.954l-0.566-1.53h-2.115l-0.567,1.53h-0.944L119.348,333.986z
			 M119.788,335.13l-0.756,2.043h1.512L119.788,335.13z"/>
		<path fill="#585A5E" d="M127.285,337.461h-1.206v-0.801h2.098v0.432c0,0.756-0.221,1.363-0.662,1.822
			c-0.44,0.459-1.003,0.688-1.688,0.688c-0.75,0-1.371-0.266-1.862-0.796c-0.492-0.531-0.738-1.217-0.738-2.057
			s0.244-1.525,0.733-2.057s1.1-0.797,1.831-0.797c0.618,0,1.124,0.162,1.517,0.486c0.394,0.324,0.644,0.768,0.752,1.332h-0.937
			c-0.12-0.318-0.283-0.56-0.49-0.725s-0.487-0.247-0.842-0.247c-0.485,0-0.877,0.188-1.174,0.562s-0.446,0.856-0.446,1.444
			c0,0.594,0.15,1.08,0.45,1.458s0.702,0.566,1.206,0.566c0.408,0,0.738-0.118,0.99-0.355
			C127.069,338.183,127.226,337.862,127.285,337.461z"/>
		<path fill="#585A5E" d="M129.733,333.986h3.609v0.828h-2.691v1.458h2.439v0.819h-2.439v1.584h2.691v0.837h-3.609V333.986z"/>
	</g>
	<g>
		<path fill="#585A5E" d="M100.907,347.46c0.264,0.084,0.479,0.244,0.647,0.481c0.168,0.236,0.252,0.499,0.252,0.787
			c0,0.51-0.166,0.901-0.499,1.175c-0.333,0.272-0.791,0.409-1.373,0.409h-2.115v-5.526h1.936c0.588,0,1.047,0.13,1.377,0.388
			s0.495,0.63,0.495,1.115c0,0.288-0.067,0.537-0.203,0.747C101.289,347.247,101.117,347.388,100.907,347.46z M98.729,347.108h1.018
			c0.653,0,0.98-0.255,0.98-0.765c0-0.498-0.327-0.747-0.98-0.747h-1.018V347.108z M98.729,347.883v1.62h1.188
			c0.312,0,0.552-0.072,0.72-0.217c0.168-0.144,0.252-0.342,0.252-0.594s-0.084-0.45-0.252-0.594
			c-0.168-0.145-0.408-0.216-0.72-0.216H98.729z"/>
		<path fill="#585A5E" d="M105.011,348.071h-0.666v2.241h-0.937v-5.526h2.134c0.582,0,1.041,0.143,1.377,0.428
			s0.504,0.694,0.504,1.229c0,0.456-0.125,0.817-0.374,1.085c-0.249,0.267-0.596,0.437-1.039,0.508l1.602,2.277h-1.062
			L105.011,348.071z M104.345,345.597v1.691h1.179c0.307,0,0.545-0.076,0.716-0.229c0.171-0.152,0.257-0.358,0.257-0.616
			s-0.086-0.464-0.257-0.616c-0.171-0.153-0.409-0.229-0.716-0.229H104.345z"/>
		<path fill="#585A5E" d="M113.12,345.502c0.479,0.537,0.72,1.22,0.72,2.048s-0.24,1.511-0.72,2.047
			c-0.48,0.537-1.093,0.806-1.837,0.806c-0.743,0-1.354-0.269-1.831-0.806c-0.477-0.536-0.716-1.219-0.716-2.047
			s0.239-1.511,0.716-2.048s1.088-0.806,1.831-0.806C112.027,344.696,112.64,344.965,113.12,345.502z M112.449,348.998
			c0.297-0.378,0.445-0.86,0.445-1.448s-0.148-1.071-0.445-1.449s-0.686-0.567-1.166-0.567c-0.479,0-0.866,0.188-1.16,0.562
			c-0.295,0.375-0.441,0.859-0.441,1.454c0,0.594,0.146,1.078,0.441,1.453c0.294,0.375,0.681,0.562,1.16,0.562
			C111.764,349.565,112.152,349.377,112.449,348.998z"/>
		<path fill="#585A5E" d="M116.332,344.786v2.646l2.295-2.646h1.18l-2.232,2.512l2.313,3.015h-1.17l-1.818-2.367l-0.567,0.648v1.719
			h-0.936v-5.526H116.332z"/>
		<path fill="#585A5E" d="M121.265,344.786h3.609v0.828h-2.691v1.458h2.439v0.819h-2.439v1.584h2.691v0.837h-3.609V344.786z"/>
		<path fill="#585A5E" d="M128.122,348.071h-0.666v2.241h-0.936v-5.526h2.133c0.582,0,1.041,0.143,1.377,0.428
			s0.504,0.694,0.504,1.229c0,0.456-0.124,0.817-0.373,1.085c-0.249,0.267-0.596,0.437-1.04,0.508l1.603,2.277h-1.062
			L128.122,348.071z M127.456,345.597v1.691h1.18c0.306,0,0.544-0.076,0.715-0.229c0.171-0.152,0.257-0.358,0.257-0.616
			s-0.086-0.464-0.257-0.616c-0.171-0.153-0.409-0.229-0.715-0.229H127.456z"/>
	</g>
	<g>
		<path fill="#585A5E" d="M206.567,325.859c0.264,0.084,0.479,0.244,0.647,0.481c0.168,0.236,0.252,0.499,0.252,0.787
			c0,0.51-0.166,0.901-0.499,1.175c-0.333,0.272-0.79,0.409-1.372,0.409h-2.115v-5.526h1.935c0.588,0,1.047,0.13,1.377,0.388
			s0.495,0.63,0.495,1.115c0,0.288-0.067,0.537-0.203,0.747C206.949,325.646,206.777,325.787,206.567,325.859z M204.389,325.508
			h1.018c0.654,0,0.98-0.255,0.98-0.765c0-0.498-0.326-0.747-0.98-0.747h-1.018V325.508z M204.389,326.282v1.62h1.188
			c0.312,0,0.552-0.072,0.72-0.217c0.168-0.144,0.252-0.342,0.252-0.594s-0.084-0.45-0.252-0.594
			c-0.168-0.145-0.408-0.216-0.72-0.216H204.389z"/>
		<path fill="#585A5E" d="M210.627,323.186h0.899l2.124,5.526h-0.954l-0.567-1.53h-2.115l-0.566,1.53h-0.945L210.627,323.186z
			 M211.067,324.329l-0.757,2.043h1.513L211.067,324.329z"/>
		<path fill="#585A5E" d="M215.062,328.712v-5.526h0.937v4.689h2.655v0.837H215.062z"/>
		<path fill="#585A5E" d="M220.238,328.712v-5.526h0.936v4.689h2.655v0.837H220.238z"/>
		<path fill="#585A5E" d="M225.412,323.186h3.609v0.828h-2.691v1.458h2.439v0.819h-2.439v1.584h2.691v0.837h-3.609V323.186z"/>
		<path fill="#585A5E" d="M232.271,326.471h-0.666v2.241h-0.937v-5.526h2.134c0.582,0,1.041,0.143,1.377,0.428
			s0.504,0.694,0.504,1.229c0,0.456-0.124,0.817-0.374,1.085c-0.248,0.267-0.596,0.437-1.039,0.508l1.602,2.277h-1.062
			L232.271,326.471z M231.604,323.996v1.691h1.179c0.307,0,0.545-0.076,0.716-0.229c0.171-0.152,0.257-0.358,0.257-0.616
			s-0.086-0.464-0.257-0.616c-0.171-0.153-0.409-0.229-0.716-0.229H231.604z"/>
		<path fill="#585A5E" d="M237.229,323.186v5.526h-0.937v-5.526H237.229z"/>
		<path fill="#585A5E" d="M243.529,323.186v5.526h-0.72l-2.825-4.023v4.023h-0.9v-5.526h0.882l2.664,3.834v-3.834H243.529z"/>
		<path fill="#585A5E" d="M247.076,323.186h0.899l2.124,5.526h-0.954l-0.567-1.53h-2.115l-0.566,1.53h-0.945L247.076,323.186z
			 M247.517,324.329l-0.757,2.043h1.513L247.517,324.329z"/>
	</g>
	<g>
		<path fill="#585A5E" d="M196.158,334.814v-0.828h4.608v0.828h-1.836v4.698h-0.937v-4.698H196.158z"/>
		<path fill="#585A5E" d="M203.881,337.271h-0.666v2.241h-0.937v-5.526h2.134c0.582,0,1.041,0.143,1.377,0.428
			s0.504,0.694,0.504,1.229c0,0.456-0.125,0.817-0.374,1.085c-0.249,0.267-0.596,0.437-1.04,0.508l1.603,2.277h-1.062
			L203.881,337.271z M203.215,334.797v1.691h1.179c0.306,0,0.544-0.076,0.716-0.229c0.17-0.152,0.256-0.358,0.256-0.616
			s-0.086-0.464-0.256-0.616c-0.172-0.153-0.41-0.229-0.716-0.229H203.215z"/>
		<path fill="#585A5E" d="M209.596,333.986h0.9l2.123,5.526h-0.953l-0.567-1.53h-2.115l-0.567,1.53h-0.944L209.596,333.986z
			 M210.037,335.13l-0.757,2.043h1.513L210.037,335.13z"/>
		<path fill="#585A5E" d="M218.479,333.986v5.526h-0.721l-2.825-4.023v4.023h-0.9v-5.526h0.882l2.664,3.834v-3.834H218.479z"/>
		<path fill="#585A5E" d="M219.9,337.982h0.953c0.175,0.553,0.592,0.828,1.252,0.828c0.324,0,0.583-0.073,0.778-0.221
			c0.194-0.146,0.292-0.346,0.292-0.599c0-0.197-0.061-0.355-0.184-0.472c-0.123-0.117-0.329-0.209-0.617-0.274l-0.936-0.226
			c-0.918-0.216-1.377-0.711-1.377-1.484c0-0.475,0.176-0.866,0.526-1.175c0.351-0.31,0.802-0.464,1.354-0.464
			c0.582,0,1.051,0.137,1.408,0.41c0.357,0.272,0.586,0.646,0.688,1.12h-0.937c-0.174-0.492-0.557-0.738-1.151-0.738
			c-0.3,0-0.542,0.071-0.725,0.212s-0.274,0.325-0.274,0.554c0,0.365,0.243,0.605,0.729,0.72l0.963,0.225
			c0.451,0.103,0.802,0.282,1.054,0.54s0.378,0.588,0.378,0.99c0,0.51-0.184,0.917-0.549,1.22c-0.366,0.303-0.84,0.454-1.422,0.454
			c-0.588,0-1.078-0.143-1.472-0.428C220.24,338.891,219.996,338.493,219.9,337.982z"/>
		<path fill="#585A5E" d="M227.227,333.986h0.9l2.123,5.526h-0.953l-0.567-1.53h-2.115l-0.567,1.53h-0.944L227.227,333.986z
			 M227.668,335.13l-0.757,2.043h1.513L227.668,335.13z"/>
		<path fill="#585A5E" d="M231.83,338.807c-0.477-0.531-0.716-1.217-0.716-2.057s0.239-1.525,0.716-2.057s1.075-0.797,1.795-0.797
			c0.612,0,1.113,0.164,1.504,0.49c0.389,0.327,0.639,0.773,0.746,1.337h-0.918c-0.24-0.654-0.684-0.98-1.332-0.98
			c-0.48,0-0.861,0.188-1.143,0.562c-0.282,0.375-0.424,0.856-0.424,1.444s0.142,1.069,0.424,1.444
			c0.281,0.375,0.662,0.562,1.143,0.562c0.648,0,1.092-0.33,1.332-0.99h0.918c-0.107,0.57-0.357,1.019-0.746,1.346
			c-0.391,0.327-0.892,0.49-1.504,0.49C232.905,339.603,232.307,339.337,231.83,338.807z"/>
		<path fill="#585A5E" d="M236.928,334.814v-0.828h4.608v0.828H239.7v4.698h-0.937v-4.698H236.928z"/>
		<path fill="#585A5E" d="M243.984,333.986v5.526h-0.937v-5.526H243.984z"/>
		<path fill="#585A5E" d="M249.924,334.702c0.48,0.537,0.721,1.22,0.721,2.048s-0.24,1.511-0.721,2.047
			c-0.48,0.537-1.092,0.806-1.836,0.806s-1.354-0.269-1.832-0.806c-0.477-0.536-0.715-1.219-0.715-2.047s0.238-1.511,0.715-2.048
			c0.478-0.537,1.088-0.806,1.832-0.806S249.443,334.165,249.924,334.702z M249.254,338.198c0.297-0.378,0.445-0.86,0.445-1.448
			s-0.148-1.071-0.445-1.449s-0.686-0.567-1.166-0.567s-0.867,0.188-1.16,0.562c-0.295,0.375-0.441,0.859-0.441,1.454
			c0,0.594,0.146,1.078,0.441,1.453c0.293,0.375,0.68,0.562,1.16,0.562S248.957,338.577,249.254,338.198z"/>
		<path fill="#585A5E" d="M256.646,333.986v5.526h-0.72l-2.825-4.023v4.023h-0.9v-5.526h0.882l2.664,3.834v-3.834H256.646z"/>
	</g>
	<g>
		<path fill="#585A5E" d="M196.608,349.606c-0.477-0.531-0.716-1.217-0.716-2.057s0.239-1.525,0.716-2.057
			c0.478-0.531,1.075-0.797,1.796-0.797c0.611,0,1.113,0.164,1.503,0.49c0.39,0.327,0.639,0.773,0.747,1.337h-0.918
			c-0.24-0.654-0.684-0.98-1.332-0.98c-0.48,0-0.861,0.188-1.143,0.562c-0.283,0.375-0.424,0.856-0.424,1.444
			s0.141,1.069,0.424,1.444c0.281,0.375,0.662,0.562,1.143,0.562c0.648,0,1.092-0.33,1.332-0.99h0.918
			c-0.108,0.57-0.357,1.019-0.747,1.346s-0.892,0.49-1.503,0.49C197.684,350.402,197.086,350.137,196.608,349.606z"/>
		<path fill="#585A5E" d="M206.279,345.502c0.479,0.537,0.72,1.22,0.72,2.048s-0.24,1.511-0.72,2.047
			c-0.48,0.537-1.092,0.806-1.836,0.806s-1.355-0.269-1.832-0.806c-0.477-0.536-0.715-1.219-0.715-2.047s0.238-1.511,0.715-2.048
			s1.088-0.806,1.832-0.806S205.799,344.965,206.279,345.502z M205.608,348.998c0.298-0.378,0.446-0.86,0.446-1.448
			s-0.148-1.071-0.446-1.449c-0.297-0.378-0.686-0.567-1.165-0.567c-0.48,0-0.867,0.188-1.161,0.562s-0.441,0.859-0.441,1.454
			c0,0.594,0.147,1.078,0.441,1.453s0.681,0.562,1.161,0.562C204.923,349.565,205.312,349.377,205.608,348.998z"/>
		<path fill="#585A5E" d="M212.688,345.502c0.479,0.537,0.719,1.22,0.719,2.048s-0.24,1.511-0.719,2.047
			c-0.48,0.537-1.093,0.806-1.837,0.806c-0.743,0-1.354-0.269-1.831-0.806c-0.477-0.536-0.716-1.219-0.716-2.047
			s0.239-1.511,0.716-2.048s1.088-0.806,1.831-0.806C211.595,344.696,212.207,344.965,212.688,345.502z M212.016,348.998
			c0.298-0.378,0.446-0.86,0.446-1.448s-0.148-1.071-0.446-1.449c-0.297-0.378-0.686-0.567-1.165-0.567s-0.866,0.188-1.161,0.562
			c-0.294,0.375-0.441,0.859-0.441,1.454c0,0.594,0.147,1.078,0.441,1.453c0.295,0.375,0.682,0.562,1.161,0.562
			S211.719,349.377,212.016,348.998z"/>
		<path fill="#585A5E" d="M216.566,348.071H215.9v2.241h-0.937v-5.526h2.134c0.582,0,1.041,0.143,1.377,0.428
			s0.504,0.694,0.504,1.229c0,0.456-0.125,0.817-0.374,1.085c-0.249,0.267-0.596,0.437-1.04,0.508l1.603,2.277h-1.062
			L216.566,348.071z M215.9,345.597v1.691h1.179c0.306,0,0.544-0.076,0.716-0.229c0.17-0.152,0.256-0.358,0.256-0.616
			s-0.086-0.464-0.256-0.616c-0.172-0.153-0.41-0.229-0.716-0.229H215.9z"/>
		<path fill="#585A5E" d="M220.588,350.312v-5.526h1.863c0.816,0,1.467,0.251,1.953,0.752s0.729,1.172,0.729,2.012
			s-0.243,1.511-0.729,2.011c-0.486,0.502-1.137,0.752-1.953,0.752H220.588z M221.524,349.476h0.892
			c0.569,0,1.009-0.171,1.318-0.513c0.309-0.343,0.463-0.813,0.463-1.413c0-0.601-0.154-1.072-0.463-1.418
			c-0.31-0.345-0.749-0.518-1.318-0.518h-0.892V349.476z"/>
		<path fill="#585A5E" d="M227.617,344.786v5.526h-0.936v-5.526H227.617z"/>
		<path fill="#585A5E" d="M233.918,344.786v5.526h-0.721l-2.826-4.023v4.023h-0.9v-5.526h0.883l2.664,3.834v-3.834H233.918z"/>
		<path fill="#585A5E" d="M237.464,344.786h0.899l2.125,5.526h-0.955l-0.566-1.53h-2.115l-0.566,1.53h-0.945L237.464,344.786z
			 M237.904,345.93l-0.756,2.043h1.512L237.904,345.93z"/>
		<path fill="#585A5E" d="M240.992,345.614v-0.828h4.607v0.828h-1.836v4.698h-0.936v-4.698H240.992z"/>
		<path fill="#585A5E" d="M250.91,345.502c0.479,0.537,0.719,1.22,0.719,2.048s-0.24,1.511-0.719,2.047
			c-0.48,0.537-1.093,0.806-1.837,0.806c-0.743,0-1.354-0.269-1.831-0.806c-0.477-0.536-0.716-1.219-0.716-2.047
			s0.239-1.511,0.716-2.048s1.088-0.806,1.831-0.806C249.817,344.696,250.43,344.965,250.91,345.502z M250.238,348.998
			c0.298-0.378,0.446-0.86,0.446-1.448s-0.148-1.071-0.446-1.449c-0.297-0.378-0.686-0.567-1.165-0.567s-0.866,0.188-1.161,0.562
			c-0.294,0.375-0.441,0.859-0.441,1.454c0,0.594,0.147,1.078,0.441,1.453c0.295,0.375,0.682,0.562,1.161,0.562
			S249.941,349.377,250.238,348.998z"/>
		<path fill="#585A5E" d="M254.788,348.071h-0.666v2.241h-0.937v-5.526h2.134c0.582,0,1.041,0.143,1.377,0.428
			s0.504,0.694,0.504,1.229c0,0.456-0.124,0.817-0.374,1.085c-0.248,0.267-0.596,0.437-1.039,0.508l1.602,2.277h-1.062
			L254.788,348.071z M254.122,345.597v1.691h1.179c0.307,0,0.545-0.076,0.716-0.229c0.171-0.152,0.257-0.358,0.257-0.616
			s-0.086-0.464-0.257-0.616c-0.171-0.153-0.409-0.229-0.716-0.229H254.122z"/>
	</g>
	<g>
		<path fill="#585A5E" d="M318.332,325.859c0.264,0.084,0.479,0.244,0.648,0.481c0.168,0.236,0.252,0.499,0.252,0.787
			c0,0.51-0.167,0.901-0.5,1.175c-0.333,0.272-0.791,0.409-1.373,0.409h-2.115v-5.526h1.936c0.588,0,1.047,0.13,1.377,0.388
			s0.495,0.63,0.495,1.115c0,0.288-0.067,0.537-0.202,0.747C318.715,325.646,318.542,325.787,318.332,325.859z M316.154,325.508
			h1.017c0.653,0,0.981-0.255,0.981-0.765c0-0.498-0.328-0.747-0.981-0.747h-1.017V325.508z M316.154,326.282v1.62h1.188
			c0.312,0,0.552-0.072,0.721-0.217c0.167-0.144,0.252-0.342,0.252-0.594s-0.085-0.45-0.252-0.594
			c-0.169-0.145-0.408-0.216-0.721-0.216H316.154z"/>
		<path fill="#585A5E" d="M322.382,323.186h0.899l2.125,5.526h-0.955l-0.566-1.53h-2.115l-0.566,1.53h-0.945L322.382,323.186z
			 M322.822,324.329l-0.756,2.043h1.512L322.822,324.329z"/>
		<path fill="#585A5E" d="M326.828,328.712v-5.526h0.936v4.689h2.655v0.837H326.828z"/>
		<path fill="#585A5E" d="M332.002,328.712v-5.526h0.937v4.689h2.655v0.837H332.002z"/>
		<path fill="#585A5E" d="M337.178,323.186h3.609v0.828h-2.691v1.458h2.439v0.819h-2.439v1.584h2.691v0.837h-3.609V323.186z"/>
		<path fill="#585A5E" d="M344.035,326.471h-0.666v2.241h-0.936v-5.526h2.133c0.582,0,1.041,0.143,1.377,0.428
			s0.504,0.694,0.504,1.229c0,0.456-0.125,0.817-0.373,1.085c-0.25,0.267-0.596,0.437-1.04,0.508l1.603,2.277h-1.062
			L344.035,326.471z M343.369,323.996v1.691h1.18c0.306,0,0.544-0.076,0.715-0.229c0.171-0.152,0.257-0.358,0.257-0.616
			s-0.086-0.464-0.257-0.616c-0.171-0.153-0.409-0.229-0.715-0.229H343.369z"/>
		<path fill="#585A5E" d="M348.994,323.186v5.526h-0.936v-5.526H348.994z"/>
		<path fill="#585A5E" d="M355.295,323.186v5.526h-0.721l-2.826-4.023v4.023h-0.9v-5.526h0.883l2.664,3.834v-3.834H355.295z"/>
		<path fill="#585A5E" d="M358.84,323.186h0.9l2.124,5.526h-0.954l-0.566-1.53h-2.115l-0.567,1.53h-0.944L358.84,323.186z
			 M359.281,324.329l-0.756,2.043h1.512L359.281,324.329z"/>
	</g>
	<g>
		<path fill="#585A5E" d="M319.565,333.986v5.526h-0.937v-5.526H319.565z"/>
		<path fill="#585A5E" d="M321.42,339.513v-5.526h1.863c0.815,0,1.467,0.251,1.953,0.752c0.485,0.501,0.729,1.172,0.729,2.012
			s-0.243,1.511-0.729,2.011c-0.486,0.502-1.138,0.752-1.953,0.752H321.42z M322.355,338.676h0.891c0.57,0,1.01-0.171,1.318-0.513
			c0.31-0.343,0.465-0.813,0.465-1.413c0-0.601-0.155-1.072-0.465-1.418c-0.309-0.345-0.748-0.518-1.318-0.518h-0.891V338.676z"/>
		<path fill="#585A5E" d="M327.521,333.986h3.609v0.828h-2.691v1.458h2.439v0.819h-2.439v1.584h2.691v0.837h-3.609V333.986z"/>
		<path fill="#585A5E" d="M337.224,333.986v5.526h-0.72l-2.826-4.023v4.023h-0.9v-5.526h0.883l2.664,3.834v-3.834H337.224z"/>
		<path fill="#585A5E" d="M338.735,334.814v-0.828h4.608v0.828h-1.836v4.698h-0.937v-4.698H338.735z"/>
		<path fill="#585A5E" d="M345.791,333.986v5.526h-0.936v-5.526H345.791z"/>
		<path fill="#585A5E" d="M347.303,334.814v-0.828h4.608v0.828h-1.836v4.698h-0.937v-4.698H347.303z"/>
		<path fill="#585A5E" d="M355.448,336.462l1.458-2.476h0.99l-2.008,3.321v2.205h-0.927v-2.205l-1.998-3.321h1.017L355.448,336.462z
			"/>
	</g>
	<g>
		<path fill="#585A5E" d="M325.195,347.46c0.264,0.084,0.479,0.244,0.647,0.481c0.168,0.236,0.252,0.499,0.252,0.787
			c0,0.51-0.167,0.901-0.499,1.175c-0.334,0.272-0.791,0.409-1.373,0.409h-2.115v-5.526h1.936c0.588,0,1.047,0.13,1.377,0.388
			s0.494,0.63,0.494,1.115c0,0.288-0.066,0.537-0.202,0.747C325.577,347.247,325.404,347.388,325.195,347.46z M323.017,347.108
			h1.017c0.654,0,0.981-0.255,0.981-0.765c0-0.498-0.327-0.747-0.981-0.747h-1.017V347.108z M323.017,347.883v1.62h1.188
			c0.312,0,0.551-0.072,0.72-0.217c0.167-0.144,0.252-0.342,0.252-0.594s-0.085-0.45-0.252-0.594
			c-0.169-0.145-0.408-0.216-0.72-0.216H323.017z"/>
		<path fill="#585A5E" d="M329.289,348.071h-0.666v2.241h-0.936v-5.526h2.133c0.582,0,1.041,0.143,1.377,0.428
			s0.504,0.694,0.504,1.229c0,0.456-0.124,0.817-0.373,1.085c-0.249,0.267-0.596,0.437-1.039,0.508l1.602,2.277h-1.062
			L329.289,348.071z M328.623,345.597v1.691h1.18c0.307,0,0.545-0.076,0.715-0.229c0.172-0.152,0.258-0.358,0.258-0.616
			s-0.086-0.464-0.258-0.616c-0.17-0.153-0.408-0.229-0.715-0.229H328.623z"/>
		<path fill="#585A5E" d="M337.398,345.502c0.48,0.537,0.721,1.22,0.721,2.048s-0.24,1.511-0.721,2.047
			c-0.48,0.537-1.092,0.806-1.836,0.806s-1.354-0.269-1.832-0.806c-0.477-0.536-0.715-1.219-0.715-2.047s0.238-1.511,0.715-2.048
			c0.478-0.537,1.088-0.806,1.832-0.806S336.918,344.965,337.398,345.502z M336.729,348.998c0.297-0.378,0.445-0.86,0.445-1.448
			s-0.148-1.071-0.445-1.449s-0.686-0.567-1.166-0.567s-0.867,0.188-1.16,0.562c-0.295,0.375-0.441,0.859-0.441,1.454
			c0,0.594,0.146,1.078,0.441,1.453c0.293,0.375,0.68,0.562,1.16,0.562S336.432,349.377,336.729,348.998z"/>
		<path fill="#585A5E" d="M340.611,344.786v2.646l2.295-2.646h1.18l-2.232,2.512l2.312,3.015h-1.17l-1.817-2.367l-0.567,0.648v1.719
			h-0.936v-5.526H340.611z"/>
		<path fill="#585A5E" d="M345.543,344.786h3.609v0.828h-2.691v1.458h2.439v0.819h-2.439v1.584h2.691v0.837h-3.609V344.786z"/>
		<path fill="#585A5E" d="M352.4,348.071h-0.666v2.241h-0.936v-5.526h2.133c0.582,0,1.041,0.143,1.377,0.428
			s0.504,0.694,0.504,1.229c0,0.456-0.124,0.817-0.373,1.085c-0.249,0.267-0.596,0.437-1.039,0.508l1.602,2.277h-1.062
			L352.4,348.071z M351.734,345.597v1.691h1.18c0.307,0,0.545-0.076,0.715-0.229c0.172-0.152,0.258-0.358,0.258-0.616
			s-0.086-0.464-0.258-0.616c-0.17-0.153-0.408-0.229-0.715-0.229H351.734z"/>
	</g>
</g>
<g>
	<path fill="#FFFFFF" d="M255.945,427.829c-3.786,0-7.201,1.569-9.646,4.086c-2.443-2.517-5.858-4.086-9.644-4.086
		c-0.089,0-0.174,0.013-0.263,0.015c-0.09-0.002-0.178-0.015-0.268-0.015c-3.656,0-6.956,1.473-9.38,3.838
		c-2.425-2.365-5.725-3.838-9.38-3.838c-0.091,0-0.178,0.013-0.269,0.015c-0.089-0.002-0.173-0.015-0.262-0.015
		c-3.786,0-7.2,1.569-9.646,4.086c-2.444-2.517-5.858-4.086-9.645-4.086c-7.43,0-13.453,6.022-13.453,13.453
		c0,7.43,6.023,13.452,13.453,13.452c3.786,0,7.2-1.569,9.645-4.086c2.445,2.517,5.859,4.086,9.646,4.086
		c0.089,0,0.173-0.012,0.262-0.013c0.091,0.002,0.178,0.013,0.269,0.013c3.655,0,6.955-1.472,9.38-3.838
		c2.424,2.366,5.724,3.838,9.38,3.838c0.09,0,0.178-0.011,0.268-0.013c0.089,0.001,0.174,0.013,0.263,0.013
		c3.785,0,7.2-1.569,9.644-4.086c2.445,2.517,5.86,4.086,9.646,4.086c7.429,0,13.452-6.022,13.452-13.452
		C269.397,433.852,263.374,427.829,255.945,427.829"/>
	<g>
		<path fill="none" stroke="#585A5E" stroke-miterlimit="10" d="M255.944,427.83c-3.785,0-7.199,1.568-9.645,4.086
			c-2.445-2.518-5.859-4.086-9.645-4.086c-0.088,0-0.174,0.012-0.262,0.014c-0.09-0.002-0.178-0.014-0.27-0.014
			c-3.654,0-6.953,1.471-9.379,3.838c-2.424-2.367-5.725-3.838-9.381-3.838c-0.09,0-0.178,0.012-0.268,0.014
			c-0.088-0.002-0.172-0.014-0.26-0.014c-3.787,0-7.203,1.568-9.646,4.086c-2.445-2.518-5.859-4.086-9.645-4.086
			c-7.432,0-13.453,6.021-13.453,13.451s6.021,13.453,13.453,13.453c3.785,0,7.199-1.568,9.645-4.086
			c2.443,2.518,5.859,4.086,9.646,4.086c0.088,0,0.172-0.012,0.26-0.014c0.09,0.002,0.178,0.014,0.268,0.014
			c3.656,0,6.957-1.473,9.381-3.838c2.426,2.365,5.725,3.838,9.379,3.838c0.092,0,0.18-0.012,0.27-0.014
			c0.088,0.002,0.174,0.014,0.262,0.014c3.785,0,7.199-1.568,9.645-4.086c2.445,2.518,5.859,4.086,9.645,4.086
			c7.43,0,13.453-6.023,13.453-13.453S263.374,427.83,255.944,427.83z"/>
		<g>
			<path fill="#585A5E" d="M202.771,438.092h4.01v0.92h-2.99v1.621h2.71v0.908h-2.71v1.762h2.99v0.93h-4.01V438.092z"/>
			<path fill="#585A5E" d="M213.551,438.092v6.141h-0.801l-3.139-4.471v4.471h-1v-6.141h0.979l2.96,4.26v-4.26H213.551z"/>
			<path fill="#585A5E" d="M215.611,444.232v-6.141h2.069c0.907,0,1.63,0.279,2.17,0.836s0.81,1.301,0.81,2.234
				s-0.27,1.678-0.81,2.234s-1.263,0.836-2.17,0.836H215.611z M216.65,443.303h0.99c0.633,0,1.121-0.191,1.465-0.57
				c0.344-0.381,0.516-0.904,0.516-1.57s-0.172-1.191-0.516-1.574c-0.344-0.385-0.832-0.576-1.465-0.576h-0.99V443.303z"/>
			<path fill="#585A5E" d="M224.76,441.941h-1.329v2.291h-1.04v-6.141h2.369c0.647,0,1.159,0.166,1.535,0.5
				c0.377,0.334,0.565,0.811,0.565,1.43c0,0.613-0.188,1.088-0.565,1.42C225.919,441.775,225.407,441.941,224.76,441.941z
				 M225.83,440.021c0-0.312-0.094-0.562-0.279-0.75c-0.188-0.186-0.457-0.279-0.811-0.279h-1.31v2.049h1.31
				c0.347,0,0.615-0.092,0.805-0.279C225.735,440.576,225.83,440.328,225.83,440.021z"/>
			<path fill="#585A5E" d="M233.08,438.887c0.533,0.598,0.801,1.355,0.801,2.275s-0.268,1.678-0.801,2.275
				c-0.533,0.596-1.213,0.895-2.039,0.895c-0.827,0-1.506-0.299-2.035-0.895c-0.53-0.598-0.795-1.355-0.795-2.275
				s0.265-1.678,0.795-2.275c0.529-0.596,1.208-0.895,2.035-0.895C231.867,437.992,232.547,438.291,233.08,438.887z
				 M232.336,442.771c0.33-0.42,0.494-0.957,0.494-1.609c0-0.654-0.164-1.189-0.494-1.609s-0.762-0.631-1.295-0.631
				c-0.534,0-0.964,0.209-1.291,0.625c-0.326,0.416-0.49,0.955-0.49,1.615s0.164,1.199,0.49,1.615
				c0.327,0.416,0.757,0.625,1.291,0.625C231.574,443.402,232.006,443.191,232.336,442.771z"/>
			<path fill="#585A5E" d="M236.65,438.092v6.141h-1.039v-6.141H236.65z"/>
			<path fill="#585A5E" d="M243.641,438.092v6.141h-0.801l-3.139-4.471v4.471h-1v-6.141h0.979l2.96,4.26v-4.26H243.641z"/>
			<path fill="#585A5E" d="M245.32,439.012v-0.92h5.119v0.92H248.4v5.221h-1.041v-5.221H245.32z"/>
		</g>
	</g>
</g>
<g>
	<line fill="none" stroke="#585A5E" stroke-miterlimit="10" x1="226.809" y1="122.168" x2="226.809" y2="134.786"/>
	<line fill="none" stroke="#585A5E" stroke-miterlimit="10" x1="216.459" y1="110.411" x2="216.459" y2="146.043"/>
	<line fill="none" stroke="#585A5E" stroke-miterlimit="10" x1="206.174" y1="110.411" x2="206.174" y2="146.043"/>
	<line fill="none" stroke="#585A5E" stroke-miterlimit="10" x1="247.316" y1="110.411" x2="247.316" y2="146.043"/>
	<line fill="none" stroke="#585A5E" stroke-miterlimit="10" x1="237.031" y1="110.411" x2="237.031" y2="146.043"/>
	<circle fill="#FFFFFF" stroke="#585A5E" stroke-miterlimit="10" cx="226.809" cy="116.541" r="5.628"/>
	<circle fill="#FFFFFF" stroke="#585A5E" stroke-miterlimit="10" cx="226.809" cy="140.415" r="5.628"/>
</g>
<rect x="35.43" y="206.303" fill="#FFFFFF" width="175" height="80"/>
<g>
	<path fill="#585556" d="M54.59,223.356c0.352,0.112,0.64,0.326,0.863,0.642c0.225,0.316,0.336,0.666,0.336,1.05
		c0,0.681-0.221,1.202-0.666,1.566c-0.443,0.364-1.053,0.546-1.829,0.546h-2.82v-7.368h2.58c0.784,0,1.396,0.172,1.836,0.517
		c0.44,0.344,0.66,0.84,0.66,1.487c0,0.384-0.091,0.717-0.271,0.996C55.1,223.072,54.869,223.26,54.59,223.356z M51.686,222.888
		h1.355c0.873,0,1.309-0.34,1.309-1.02c0-0.664-0.436-0.996-1.309-0.996h-1.355V222.888z M51.686,223.92v2.16h1.584
		c0.416,0,0.736-0.096,0.96-0.288c0.224-0.191,0.337-0.456,0.337-0.792s-0.113-0.6-0.337-0.792c-0.224-0.191-0.544-0.288-0.96-0.288
		H51.686z"/>
	<path fill="#585556" d="M60.949,219.792h1.2l2.832,7.368h-1.272l-0.756-2.04h-2.82l-0.756,2.04h-1.26L60.949,219.792z
		 M61.537,221.316l-1.008,2.724h2.016L61.537,221.316z"/>
	<path fill="#585556" d="M67.838,227.16v-7.368h1.248v6.252h3.539v1.116H67.838z"/>
	<path fill="#585556" d="M75.697,227.16v-7.368h1.248v6.252h3.54v1.116H75.697z"/>
	<path fill="#585556" d="M83.557,219.792h4.812v1.104h-3.588v1.943h3.252v1.093h-3.252v2.111h3.588v1.116h-4.812V219.792z"/>
	<path fill="#585556" d="M93.662,224.172h-0.889v2.988h-1.248v-7.368h2.844c0.776,0,1.389,0.19,1.836,0.57
		c0.448,0.38,0.672,0.926,0.672,1.638c0,0.608-0.166,1.09-0.498,1.446c-0.332,0.355-0.793,0.582-1.385,0.678l2.135,3.036h-1.416
		L93.662,224.172z M92.773,220.872v2.256h1.572c0.408,0,0.726-0.102,0.953-0.306c0.229-0.204,0.343-0.479,0.343-0.822
		s-0.114-0.618-0.343-0.822c-0.228-0.203-0.545-0.306-0.953-0.306H92.773z"/>
	<path fill="#585556" d="M101.233,219.792v7.368h-1.248v-7.368H101.233z"/>
	<path fill="#585556" d="M110.594,219.792v7.368h-0.961l-3.768-5.364v5.364h-1.2v-7.368h1.177l3.551,5.112v-5.112H110.594z"/>
	<path fill="#585556" d="M116.281,219.792h1.199l2.832,7.368h-1.271l-0.756-2.04h-2.82l-0.756,2.04h-1.26L116.281,219.792z
		 M116.869,221.316l-1.008,2.724h2.016L116.869,221.316z"/>
</g>
<g>
	<path fill="#585556" d="M49.898,239.521h1.271c0.232,0.736,0.787,1.104,1.668,1.104c0.432,0,0.777-0.099,1.037-0.295
		c0.261-0.195,0.391-0.462,0.391-0.798c0-0.264-0.082-0.474-0.246-0.63s-0.438-0.277-0.822-0.366l-1.248-0.3
		c-1.224-0.288-1.836-0.948-1.836-1.979c0-0.632,0.234-1.154,0.703-1.566c0.467-0.412,1.069-0.618,1.805-0.618
		c0.776,0,1.402,0.183,1.879,0.546c0.476,0.364,0.781,0.862,0.918,1.494H54.17c-0.232-0.655-0.744-0.983-1.536-0.983
		c-0.4,0-0.722,0.094-0.966,0.281c-0.244,0.188-0.366,0.435-0.366,0.738c0,0.488,0.323,0.809,0.972,0.96l1.284,0.3
		c0.601,0.137,1.067,0.377,1.404,0.721c0.336,0.344,0.504,0.784,0.504,1.319c0,0.681-0.244,1.223-0.731,1.626
		c-0.488,0.404-1.121,0.606-1.896,0.606c-0.784,0-1.438-0.19-1.963-0.57C50.352,240.73,50.025,240.2,49.898,239.521z"/>
	<path fill="#585556" d="M58.502,234.192h4.812v1.104h-3.588v1.943h3.252v1.093h-3.252v2.111h3.588v1.116h-4.812V234.192z"/>
	<path fill="#585556" d="M68.605,238.572h-0.888v2.988H66.47v-7.368h2.845c0.775,0,1.387,0.19,1.836,0.57
		c0.447,0.38,0.672,0.926,0.672,1.638c0,0.608-0.166,1.09-0.498,1.446c-0.332,0.355-0.795,0.582-1.387,0.678l2.137,3.036h-1.416
		L68.605,238.572z M67.718,235.272v2.256h1.572c0.407,0,0.726-0.102,0.954-0.306c0.228-0.204,0.342-0.479,0.342-0.822
		s-0.114-0.618-0.342-0.822c-0.229-0.203-0.547-0.306-0.954-0.306H67.718z"/>
	<path fill="#585556" d="M78.205,241.561h-1.188l-2.783-7.368h1.307l2.089,5.748l2.088-5.748h1.272L78.205,241.561z"/>
	<path fill="#585556" d="M85.094,234.192v7.368h-1.248v-7.368H85.094z"/>
	<path fill="#585556" d="M89.084,240.618c-0.637-0.708-0.955-1.621-0.955-2.741s0.318-2.034,0.955-2.742
		c0.635-0.708,1.434-1.062,2.394-1.062c0.815,0,1.483,0.219,2.004,0.654c0.521,0.437,0.853,1.03,0.996,1.782h-1.224
		c-0.32-0.872-0.912-1.309-1.776-1.309c-0.64,0-1.147,0.25-1.524,0.75c-0.376,0.5-0.563,1.143-0.563,1.927s0.188,1.426,0.563,1.926
		c0.377,0.5,0.885,0.75,1.524,0.75c0.864,0,1.456-0.44,1.776-1.32h1.224c-0.144,0.76-0.476,1.358-0.996,1.794
		c-0.521,0.437-1.188,0.654-2.004,0.654C90.518,241.681,89.719,241.326,89.084,240.618z"/>
	<path fill="#585556" d="M97.489,234.192h4.812v1.104h-3.588v1.943h3.252v1.093h-3.252v2.111h3.588v1.116h-4.812V234.192z"/>
</g>
<rect x="230.944" y="231.415" fill="none" stroke="#A7A8AB" stroke-width="0.5743" stroke-miterlimit="10" stroke-dasharray="2.7133,2.7133" width="199.033" height="54.608"/>
<g>
	<path fill="#585556" d="M283.307,270.999c0.293,0.094,0.533,0.271,0.72,0.535s0.28,0.555,0.28,0.875
		c0,0.566-0.186,1.002-0.555,1.305c-0.371,0.304-0.879,0.455-1.525,0.455h-2.35v-6.14h2.149c0.653,0,1.163,0.144,1.53,0.43
		c0.366,0.287,0.55,0.7,0.55,1.24c0,0.319-0.075,0.597-0.226,0.83C283.731,270.763,283.539,270.919,283.307,270.999z
		 M280.887,270.609h1.129c0.727,0,1.091-0.284,1.091-0.851c0-0.553-0.364-0.83-1.091-0.83h-1.129V270.609z M280.887,271.469v1.8
		h1.319c0.347,0,0.613-0.08,0.8-0.239c0.188-0.16,0.28-0.38,0.28-0.66s-0.093-0.5-0.28-0.66c-0.187-0.16-0.453-0.24-0.8-0.24
		H280.887z"/>
	<path fill="#585556" d="M288.616,268.029h1l2.36,6.14h-1.061l-0.63-1.7h-2.351l-0.629,1.7h-1.051L288.616,268.029z
		 M289.105,269.299l-0.84,2.271h1.681L289.105,269.299z"/>
	<path fill="#585556" d="M294.356,274.169v-6.14h1.04v5.21h2.949v0.93H294.356z"/>
	<path fill="#585556" d="M300.906,274.169v-6.14h1.04v5.21h2.95v0.93H300.906z"/>
	<path fill="#585556" d="M307.456,268.029h4.01v0.92h-2.989v1.62h2.709v0.909h-2.709v1.761h2.989v0.93h-4.01V268.029z"/>
	<path fill="#585556" d="M315.876,271.679h-0.739v2.49h-1.041v-6.14h2.37c0.647,0,1.157,0.158,1.53,0.475s0.561,0.771,0.561,1.365
		c0,0.507-0.139,0.908-0.416,1.205c-0.276,0.297-0.661,0.484-1.154,0.564l1.779,2.53h-1.18L315.876,271.679z M315.137,268.929v1.88
		h1.309c0.341,0,0.605-0.085,0.796-0.255s0.284-0.398,0.284-0.685c0-0.287-0.094-0.516-0.284-0.686s-0.455-0.255-0.796-0.255
		H315.137z"/>
	<path fill="#585556" d="M322.186,268.029v6.14h-1.039v-6.14H322.186z"/>
	<path fill="#585556" d="M329.986,268.029v6.14h-0.801l-3.14-4.47v4.47h-1v-6.14h0.979l2.961,4.26v-4.26H329.986z"/>
	<path fill="#585556" d="M334.726,268.029h1l2.36,6.14h-1.061l-0.63-1.7h-2.351l-0.629,1.7h-1.051L334.726,268.029z
		 M335.215,269.299l-0.84,2.271h1.681L335.215,269.299z"/>
	<path fill="#585556" d="M347.605,270.999c0.293,0.094,0.533,0.271,0.721,0.535c0.186,0.264,0.279,0.555,0.279,0.875
		c0,0.566-0.186,1.002-0.555,1.305c-0.37,0.304-0.879,0.455-1.525,0.455h-2.35v-6.14h2.15c0.652,0,1.162,0.144,1.529,0.43
		c0.367,0.287,0.551,0.7,0.551,1.24c0,0.319-0.076,0.597-0.226,0.83S347.839,270.919,347.605,270.999z M345.186,270.609h1.13
		c0.727,0,1.091-0.284,1.091-0.851c0-0.553-0.364-0.83-1.091-0.83h-1.13V270.609z M345.186,271.469v1.8h1.32
		c0.346,0,0.613-0.08,0.8-0.239c0.187-0.16,0.28-0.38,0.28-0.66s-0.094-0.5-0.28-0.66s-0.454-0.24-0.8-0.24H345.186z"/>
	<path fill="#585556" d="M352.965,271.679h-0.739v2.49h-1.04v-6.14h2.369c0.647,0,1.157,0.158,1.531,0.475
		c0.373,0.316,0.56,0.771,0.56,1.365c0,0.507-0.139,0.908-0.415,1.205c-0.277,0.297-0.662,0.484-1.155,0.564l1.78,2.53h-1.18
		L352.965,271.679z M352.226,268.929v1.88h1.31c0.34,0,0.605-0.085,0.795-0.255c0.19-0.17,0.285-0.398,0.285-0.685
		c0-0.287-0.095-0.516-0.285-0.686c-0.189-0.17-0.455-0.255-0.795-0.255H352.226z"/>
	<path fill="#585556" d="M359.275,268.029v6.14h-1.039v-6.14H359.275z"/>
	<path fill="#585556" d="M362.136,274.169v-6.14h2.069c0.907,0,1.631,0.278,2.17,0.835c0.541,0.557,0.811,1.302,0.811,2.234
		c0,0.934-0.27,1.679-0.811,2.235c-0.539,0.557-1.263,0.835-2.17,0.835H362.136z M363.176,273.239h0.99
		c0.633,0,1.121-0.19,1.465-0.57c0.343-0.38,0.515-0.903,0.515-1.57c0-0.666-0.172-1.191-0.515-1.574
		c-0.344-0.384-0.832-0.575-1.465-0.575h-0.99V273.239z"/>
	<path fill="#585556" d="M373.945,271.889h-1.34v-0.89h2.33v0.479c0,0.841-0.245,1.516-0.734,2.025
		c-0.49,0.51-1.115,0.765-1.875,0.765c-0.834,0-1.523-0.295-2.07-0.885s-0.82-1.352-0.82-2.285c0-0.933,0.271-1.694,0.814-2.285
		c0.544-0.59,1.223-0.885,2.035-0.885c0.688,0,1.248,0.181,1.686,0.54c0.437,0.36,0.715,0.854,0.835,1.48h-1.04
		c-0.134-0.354-0.314-0.622-0.545-0.806c-0.23-0.183-0.542-0.274-0.936-0.274c-0.539,0-0.975,0.208-1.305,0.625
		s-0.495,0.951-0.495,1.604c0,0.66,0.167,1.2,0.5,1.62s0.78,0.63,1.341,0.63c0.453,0,0.819-0.131,1.1-0.395
		C373.705,272.69,373.879,272.336,373.945,271.889z"/>
	<path fill="#585556" d="M377.465,268.029h4.01v0.92h-2.989v1.62h2.71v0.909h-2.71v1.761h2.989v0.93h-4.01V268.029z"/>
</g>
<rect x="243.061" y="206.303" fill="#FFFFFF" width="175" height="50"/>
<g>
	<path fill="#585556" d="M286.875,234.843v-7.368h1.248v6.252h3.54v1.116H286.875z"/>
	<path fill="#585556" d="M294.734,227.475h4.812v1.104h-3.588v1.943h3.252v1.093h-3.252v2.111h3.588v1.116h-4.812V227.475z"/>
	<path fill="#585556" d="M307.719,232.106h-1.607v-1.067h2.795v0.576c0,1.008-0.293,1.817-0.881,2.43
		c-0.589,0.612-1.339,0.918-2.25,0.918c-1.001,0-1.828-0.354-2.484-1.062s-0.984-1.621-0.984-2.741s0.326-2.034,0.979-2.742
		c0.651-0.708,1.465-1.062,2.441-1.062c0.824,0,1.498,0.216,2.021,0.648c0.524,0.432,0.859,1.024,1.002,1.775h-1.247
		c-0.16-0.424-0.378-0.745-0.654-0.966c-0.276-0.22-0.649-0.33-1.122-0.33c-0.648,0-1.17,0.25-1.566,0.75
		c-0.396,0.5-0.594,1.143-0.594,1.927c0,0.792,0.2,1.439,0.6,1.943c0.4,0.504,0.937,0.756,1.609,0.756
		c0.543,0,0.983-0.157,1.319-0.474S307.639,232.643,307.719,232.106z"/>
	<path fill="#585556" d="M313.922,227.475h1.201l2.832,7.368h-1.272l-0.756-2.04h-2.82l-0.756,2.04h-1.26L313.922,227.475z
		 M314.511,228.999l-1.009,2.724h2.017L314.511,228.999z"/>
	<path fill="#585556" d="M321.009,233.9c-0.636-0.708-0.954-1.621-0.954-2.741s0.318-2.034,0.954-2.742s1.435-1.062,2.394-1.062
		c0.816,0,1.484,0.219,2.004,0.654c0.521,0.437,0.853,1.03,0.996,1.782h-1.224c-0.319-0.872-0.912-1.309-1.776-1.309
		c-0.64,0-1.147,0.25-1.523,0.75c-0.377,0.5-0.564,1.143-0.564,1.927s0.188,1.426,0.564,1.926c0.376,0.5,0.884,0.75,1.523,0.75
		c0.864,0,1.457-0.44,1.776-1.32h1.224c-0.144,0.76-0.476,1.358-0.996,1.794c-0.52,0.437-1.188,0.654-2.004,0.654
		C322.443,234.963,321.645,234.608,321.009,233.9z"/>
	<path fill="#585556" d="M331.73,230.774l1.944-3.3h1.319l-2.676,4.428v2.94h-1.235v-2.94l-2.664-4.428h1.356L331.73,230.774z"/>
	<path fill="#585556" d="M342.801,233.9c-0.637-0.708-0.955-1.621-0.955-2.741s0.318-2.034,0.955-2.742
		c0.635-0.708,1.434-1.062,2.394-1.062c0.815,0,1.483,0.219,2.004,0.654c0.521,0.437,0.853,1.03,0.996,1.782h-1.224
		c-0.32-0.872-0.912-1.309-1.776-1.309c-0.64,0-1.147,0.25-1.524,0.75c-0.376,0.5-0.563,1.143-0.563,1.927s0.188,1.426,0.563,1.926
		c0.377,0.5,0.885,0.75,1.524,0.75c0.864,0,1.456-0.44,1.776-1.32h1.224c-0.144,0.76-0.476,1.358-0.996,1.794
		c-0.521,0.437-1.188,0.654-2.004,0.654C344.234,234.963,343.436,234.608,342.801,233.9z"/>
	<path fill="#585556" d="M356.643,228.429c0.64,0.716,0.96,1.626,0.96,2.73c0,1.104-0.32,2.014-0.96,2.729
		c-0.641,0.716-1.456,1.074-2.448,1.074s-1.806-0.358-2.442-1.074c-0.636-0.716-0.953-1.626-0.953-2.729
		c0-1.104,0.317-2.015,0.953-2.73c0.637-0.716,1.45-1.074,2.442-1.074S356.002,227.713,356.643,228.429z M355.748,233.091
		c0.396-0.504,0.594-1.147,0.594-1.932s-0.197-1.429-0.594-1.933c-0.396-0.504-0.914-0.756-1.554-0.756s-1.156,0.25-1.548,0.75
		c-0.393,0.5-0.588,1.146-0.588,1.938s0.195,1.438,0.588,1.938c0.392,0.5,0.908,0.75,1.548,0.75S355.353,233.595,355.748,233.091z"
		/>
	<path fill="#585556" d="M360.626,234.843v-7.368h2.483c1.088,0,1.957,0.334,2.604,1.002s0.972,1.562,0.972,2.683
		s-0.324,2.014-0.972,2.682s-1.517,1.002-2.604,1.002H360.626z M361.874,233.727h1.188c0.76,0,1.346-0.228,1.758-0.684
		s0.617-1.084,0.617-1.884s-0.205-1.431-0.617-1.891s-0.998-0.689-1.758-0.689h-1.188V233.727z"/>
	<path fill="#585556" d="M369.71,227.475h4.812v1.104h-3.588v1.943h3.252v1.093h-3.252v2.111h3.588v1.116h-4.812V227.475z"/>
</g>
<polyline fill="none" stroke="#585A5E" stroke-miterlimit="10" points="166.368,195.554 166.368,184.151 330.561,184.151 
	330.561,196.069 "/>
<polygon fill="#585A5E" points="168.861,194.804 166.368,199.122 163.875,194.804 "/>
<polygon fill="#585A5E" points="328.067,194.985 330.561,199.302 333.054,194.985 "/>
<line fill="none" stroke="#585A5E" stroke-miterlimit="10" x1="166.368" y1="265.58" x2="166.368" y2="299.355"/>
<polygon fill="#585A5E" points="163.875,298.351 166.367,302.667 168.861,298.351 "/>
<line fill="none" stroke="#585A5E" stroke-miterlimit="10" x1="330.561" y1="285.54" x2="330.561" y2="300.545"/>
<polygon fill="#585A5E" points="328.067,298.351 330.561,302.667 333.054,298.351 "/>
<g>
	<polyline fill="none" stroke="#585A5E" stroke-miterlimit="10" points="163.277,226.777 155.094,226.777 143.82,246.303 
		155.094,265.828 177.641,265.828 188.914,246.303 177.641,226.777 169.457,226.777 	"/>
	<circle fill="none" stroke="#585A5E" stroke-miterlimit="10" cx="166.367" cy="246.303" r="8.761"/>
</g>
</svg>
