<?xml version="1.0" encoding="utf-8"?>
<!-- Generator: Adobe Illustrator 16.0.4, SVG Export Plug-In . SVG Version: 6.00 Build 0)  -->
<!DOCTYPE svg PUBLIC "-//W3C//DTD SVG 1.0//EN" "http://www.w3.org/TR/2001/REC-SVG-20010904/DTD/svg10.dtd">
<svg version="1.0" id="Layer_1" xmlns="http://www.w3.org/2000/svg" xmlns:xlink="http://www.w3.org/1999/xlink" x="0px" y="0px"
	 width="452.664px" height="456px" viewBox="0 0 452.664 456" enable-background="new 0 0 452.664 456" xml:space="preserve">
<g opacity="0.1">
	<g>
		<defs>
			<rect id="SVGID_25_" x="-49.406" y="-30.09" width="552" height="534.24"/>
		</defs>
		<clipPath id="SVGID_2_">
			<use xlink:href="#SVGID_25_"  overflow="visible"/>
		</clipPath>
		<g clip-path="url(#SVGID_2_)">
			<defs>
				<rect id="SVGID_27_" x="-49.406" y="-30.09" width="552" height="534.24"/>
			</defs>
			<clipPath id="SVGID_4_">
				<use xlink:href="#SVGID_27_"  overflow="visible"/>
			</clipPath>
			<g transform="matrix(1 0 0 1 0 -1.907349e-06)" clip-path="url(#SVGID_4_)">
				
					<image overflow="visible" width="2300" height="2226" xlink:href="29C23129F8617FA.png"  transform="matrix(0.24 0 0 0.24 -49.4062 -30.0903)">
				</image>
			</g>
		</g>
	</g>
</g>
<rect x="-30" y="-21.854" fill="#FFFFFF" width="523.819" height="506.15"/>
<rect y="56.654" fill="#F5F6F6" width="452.664" height="398.895"/>
<rect x="35.215" y="353.836" fill="#FFFFFF" width="382" height="66.712"/>
<g>
	<path fill="#585A5E" d="M217.006,366.446v6.14h-1.041v-6.14H217.006z"/>
	<path fill="#585A5E" d="M220.945,366.446h1l2.359,6.14h-1.06l-0.63-1.7h-2.35l-0.631,1.7h-1.049L220.945,366.446z M221.436,367.715
		l-0.84,2.271h1.68L221.436,367.715z"/>
	<path fill="#585A5E" d="M227.755,366.446h1l2.36,6.14h-1.061l-0.63-1.7h-2.351l-0.629,1.7h-1.051L227.755,366.446z
		 M228.244,367.715l-0.84,2.271h1.681L228.244,367.715z"/>
	<path fill="#585A5E" d="M232.155,370.885h1.06c0.193,0.613,0.656,0.92,1.391,0.92c0.359,0,0.648-0.081,0.865-0.245
		c0.216-0.163,0.324-0.385,0.324-0.665c0-0.22-0.068-0.395-0.205-0.524s-0.365-0.231-0.685-0.305l-1.04-0.25
		c-1.02-0.24-1.53-0.79-1.53-1.65c0-0.526,0.195-0.962,0.585-1.305c0.391-0.344,0.892-0.516,1.506-0.516
		c0.646,0,1.168,0.152,1.564,0.455c0.396,0.304,0.651,0.719,0.765,1.245h-1.04c-0.193-0.547-0.619-0.82-1.279-0.82
		c-0.334,0-0.602,0.079-0.806,0.235c-0.203,0.156-0.305,0.361-0.305,0.615c0,0.406,0.271,0.673,0.81,0.8l1.07,0.25
		c0.5,0.113,0.891,0.313,1.17,0.6c0.28,0.287,0.42,0.653,0.42,1.101c0,0.566-0.203,1.019-0.609,1.354
		c-0.407,0.337-0.934,0.505-1.58,0.505c-0.654,0-1.199-0.158-1.635-0.475C232.533,371.894,232.262,371.453,232.155,370.885z"/>
</g>
<line fill="none" stroke="#585A5E" stroke-miterlimit="10" x1="226.332" y1="116.417" x2="226.332" y2="19.75"/>
<line fill="none" stroke="#585A5E" stroke-miterlimit="10" x1="226.215" y1="113.155" x2="226.215" y2="286.97"/>
<rect x="163.567" y="200.134" fill="#3AD1CA" width="125.294" height="66.713"/>
<g>
	<g>
		<path fill="#FFFFFF" d="M206.208,227.893c0.264,0.084,0.479,0.244,0.647,0.481c0.168,0.236,0.252,0.499,0.252,0.787
			c0,0.51-0.166,0.901-0.499,1.175c-0.333,0.272-0.79,0.409-1.372,0.409h-2.115v-5.526h1.935c0.588,0,1.047,0.13,1.377,0.388
			s0.495,0.63,0.495,1.115c0,0.288-0.067,0.537-0.203,0.747C206.59,227.68,206.418,227.82,206.208,227.893z M204.029,227.541h1.018
			c0.654,0,0.98-0.255,0.98-0.765c0-0.498-0.326-0.747-0.98-0.747h-1.018V227.541z M204.029,228.315v1.62h1.188
			c0.312,0,0.552-0.072,0.72-0.217c0.168-0.144,0.252-0.342,0.252-0.594s-0.084-0.45-0.252-0.594
			c-0.168-0.145-0.408-0.216-0.72-0.216H204.029z"/>
		<path fill="#FFFFFF" d="M210.258,225.219h0.9l2.123,5.526h-0.953l-0.567-1.53h-2.115l-0.567,1.53h-0.944L210.258,225.219z
			 M210.699,226.362l-0.757,2.043h1.513L210.699,226.362z"/>
		<path fill="#FFFFFF" d="M214.703,230.745v-5.526h0.937v4.689h2.655v0.837H214.703z"/>
		<path fill="#FFFFFF" d="M219.879,230.745v-5.526h0.936v4.689h2.655v0.837H219.879z"/>
		<path fill="#FFFFFF" d="M225.053,225.219h3.609v0.828h-2.691v1.458h2.439v0.819h-2.439v1.584h2.691v0.837h-3.609V225.219z"/>
		<path fill="#FFFFFF" d="M231.911,228.504h-0.666v2.241h-0.937v-5.526h2.134c0.582,0,1.041,0.143,1.377,0.428
			s0.504,0.694,0.504,1.229c0,0.456-0.124,0.817-0.374,1.085c-0.248,0.267-0.596,0.437-1.039,0.508l1.602,2.277h-1.062
			L231.911,228.504z M231.245,226.029v1.691h1.179c0.307,0,0.545-0.076,0.716-0.229c0.171-0.152,0.257-0.358,0.257-0.616
			s-0.086-0.464-0.257-0.616c-0.171-0.153-0.409-0.229-0.716-0.229H231.245z"/>
		<path fill="#FFFFFF" d="M236.87,225.219v5.526h-0.937v-5.526H236.87z"/>
		<path fill="#FFFFFF" d="M243.17,225.219v5.526h-0.72l-2.825-4.023v4.023h-0.9v-5.526h0.882l2.664,3.834v-3.834H243.17z"/>
		<path fill="#FFFFFF" d="M246.717,225.219h0.899l2.124,5.526h-0.954l-0.567-1.53h-2.115l-0.566,1.53h-0.945L246.717,225.219z
			 M247.157,226.362l-0.757,2.043h1.513L247.157,226.362z"/>
	</g>
	<g>
		<path fill="#FFFFFF" d="M205.965,240.016h0.953c0.174,0.553,0.592,0.828,1.251,0.828c0.324,0,0.583-0.073,0.778-0.221
			c0.195-0.146,0.293-0.346,0.293-0.599c0-0.197-0.062-0.355-0.185-0.472c-0.123-0.117-0.329-0.209-0.616-0.274l-0.936-0.226
			c-0.919-0.216-1.378-0.711-1.378-1.484c0-0.475,0.176-0.866,0.526-1.175c0.352-0.31,0.803-0.464,1.355-0.464
			c0.581,0,1.051,0.137,1.408,0.41c0.356,0.272,0.586,0.646,0.688,1.12h-0.936c-0.174-0.492-0.558-0.738-1.152-0.738
			c-0.299,0-0.541,0.071-0.725,0.212c-0.183,0.141-0.273,0.325-0.273,0.554c0,0.365,0.242,0.605,0.729,0.72l0.963,0.225
			c0.45,0.103,0.801,0.282,1.053,0.54s0.379,0.588,0.379,0.99c0,0.51-0.184,0.917-0.549,1.22c-0.367,0.303-0.841,0.454-1.423,0.454
			c-0.588,0-1.078-0.143-1.472-0.428C206.305,240.924,206.061,240.526,205.965,240.016z"/>
		<path fill="#FFFFFF" d="M211.697,236.02h3.609v0.828h-2.691v1.458h2.439v0.819h-2.439v1.584h2.691v0.837h-3.609V236.02z"/>
		<path fill="#FFFFFF" d="M218.555,239.305h-0.666v2.241h-0.936v-5.526h2.133c0.582,0,1.041,0.143,1.377,0.428
			s0.504,0.694,0.504,1.229c0,0.456-0.124,0.817-0.373,1.085c-0.249,0.267-0.596,0.437-1.039,0.508l1.602,2.277h-1.062
			L218.555,239.305z M217.889,236.83v1.691h1.18c0.307,0,0.545-0.076,0.715-0.229c0.172-0.152,0.258-0.358,0.258-0.616
			s-0.086-0.464-0.258-0.616c-0.17-0.153-0.408-0.229-0.715-0.229H217.889z"/>
		<path fill="#FFFFFF" d="M225.035,241.546h-0.891l-2.088-5.526h0.98l1.566,4.312l1.565-4.312h0.954L225.035,241.546z"/>
		<path fill="#FFFFFF" d="M229.48,236.02v5.526h-0.936v-5.526H229.48z"/>
		<path fill="#FFFFFF" d="M231.754,240.84c-0.477-0.531-0.716-1.217-0.716-2.057s0.239-1.525,0.716-2.057s1.075-0.797,1.795-0.797
			c0.612,0,1.113,0.164,1.504,0.49c0.389,0.327,0.639,0.773,0.746,1.337h-0.918c-0.24-0.654-0.684-0.98-1.332-0.98
			c-0.48,0-0.861,0.188-1.143,0.562c-0.282,0.375-0.424,0.856-0.424,1.444s0.142,1.069,0.424,1.444
			c0.281,0.375,0.662,0.562,1.143,0.562c0.648,0,1.092-0.33,1.332-0.99h0.918c-0.107,0.57-0.357,1.019-0.746,1.346
			c-0.391,0.327-0.892,0.49-1.504,0.49C232.829,241.636,232.23,241.37,231.754,240.84z"/>
		<path fill="#FFFFFF" d="M237.328,236.02h3.609v0.828h-2.691v1.458h2.439v0.819h-2.439v1.584h2.691v0.837h-3.609V236.02z"/>
		<path fill="#FFFFFF" d="M242.152,240.016h0.954c0.175,0.553,0.591,0.828,1.251,0.828c0.324,0,0.584-0.073,0.779-0.221
			c0.194-0.146,0.292-0.346,0.292-0.599c0-0.197-0.062-0.355-0.185-0.472c-0.123-0.117-0.328-0.209-0.617-0.274l-0.936-0.226
			c-0.918-0.216-1.377-0.711-1.377-1.484c0-0.475,0.176-0.866,0.527-1.175c0.351-0.31,0.802-0.464,1.354-0.464
			c0.582,0,1.052,0.137,1.408,0.41c0.357,0.272,0.587,0.646,0.689,1.12h-0.937c-0.174-0.492-0.558-0.738-1.151-0.738
			c-0.301,0-0.542,0.071-0.725,0.212c-0.184,0.141-0.275,0.325-0.275,0.554c0,0.365,0.244,0.605,0.729,0.72l0.963,0.225
			c0.45,0.103,0.802,0.282,1.054,0.54s0.377,0.588,0.377,0.99c0,0.51-0.183,0.917-0.549,1.22c-0.365,0.303-0.84,0.454-1.422,0.454
			c-0.588,0-1.078-0.143-1.471-0.428C242.493,240.924,242.248,240.526,242.152,240.016z"/>
	</g>
</g>
<rect x="163.567" y="276.909" fill="#FFFFFF" width="125.294" height="66.712"/>
<g>
	<path fill="#585A5E" d="M196.533,290.351c0.479,0.537,0.719,1.22,0.719,2.048s-0.24,1.511-0.719,2.047
		c-0.48,0.537-1.093,0.806-1.837,0.806c-0.743,0-1.354-0.269-1.831-0.806c-0.477-0.536-0.716-1.219-0.716-2.047
		s0.239-1.511,0.716-2.048s1.088-0.806,1.831-0.806C195.44,289.545,196.053,289.814,196.533,290.351z M195.861,293.847
		c0.298-0.378,0.446-0.86,0.446-1.448s-0.148-1.071-0.446-1.449c-0.297-0.378-0.686-0.567-1.165-0.567s-0.866,0.188-1.161,0.562
		c-0.294,0.375-0.441,0.859-0.441,1.454c0,0.594,0.147,1.078,0.441,1.453c0.295,0.375,0.682,0.562,1.161,0.562
		S195.564,294.226,195.861,293.847z"/>
	<path fill="#585A5E" d="M200.402,292.92h-0.666v2.241h-0.936v-5.526h2.133c0.582,0,1.041,0.143,1.377,0.428
		s0.504,0.694,0.504,1.229c0,0.456-0.125,0.817-0.373,1.085c-0.25,0.267-0.596,0.437-1.04,0.508l1.603,2.277h-1.062L200.402,292.92z
		 M199.736,290.446v1.691h1.18c0.306,0,0.544-0.076,0.715-0.229c0.171-0.152,0.257-0.358,0.257-0.616s-0.086-0.464-0.257-0.616
		c-0.171-0.153-0.409-0.229-0.715-0.229H199.736z"/>
	<path fill="#585A5E" d="M204.844,294.456c-0.477-0.531-0.715-1.217-0.715-2.057s0.238-1.525,0.715-2.057s1.076-0.797,1.796-0.797
		c0.612,0,1.112,0.164,1.503,0.49c0.39,0.327,0.639,0.773,0.747,1.337h-0.918c-0.24-0.654-0.685-0.98-1.332-0.98
		c-0.48,0-0.861,0.188-1.144,0.562c-0.281,0.375-0.423,0.856-0.423,1.444s0.142,1.069,0.423,1.444
		c0.282,0.375,0.663,0.562,1.144,0.562c0.647,0,1.092-0.33,1.332-0.99h0.918c-0.108,0.57-0.357,1.019-0.747,1.346
		c-0.391,0.327-0.891,0.49-1.503,0.49C205.92,295.251,205.32,294.986,204.844,294.456z"/>
	<path fill="#585A5E" d="M214.146,289.635h0.937v5.526h-0.937v-2.421h-2.781v2.421h-0.937v-5.526h0.937v2.277h2.781V289.635z"/>
	<path fill="#585A5E" d="M216.936,289.635h3.609v0.828h-2.691v1.458h2.439v0.819h-2.439v1.584h2.691v0.837h-3.609V289.635z"/>
	<path fill="#585A5E" d="M221.76,293.631h0.953c0.174,0.553,0.592,0.828,1.251,0.828c0.324,0,0.583-0.073,0.778-0.221
		c0.195-0.146,0.293-0.346,0.293-0.599c0-0.197-0.062-0.355-0.185-0.472c-0.123-0.117-0.329-0.209-0.616-0.274l-0.936-0.226
		c-0.919-0.216-1.378-0.711-1.378-1.484c0-0.475,0.176-0.866,0.526-1.175c0.352-0.31,0.803-0.464,1.355-0.464
		c0.581,0,1.051,0.137,1.408,0.41c0.356,0.272,0.586,0.646,0.688,1.12h-0.936c-0.174-0.492-0.558-0.738-1.152-0.738
		c-0.299,0-0.541,0.071-0.725,0.212c-0.183,0.141-0.273,0.325-0.273,0.554c0,0.365,0.242,0.605,0.729,0.72l0.963,0.225
		c0.45,0.103,0.801,0.282,1.053,0.54s0.379,0.588,0.379,0.99c0,0.51-0.184,0.917-0.549,1.22c-0.367,0.303-0.841,0.454-1.423,0.454
		c-0.588,0-1.078-0.143-1.472-0.428C222.1,294.54,221.855,294.142,221.76,293.631z"/>
	<path fill="#585A5E" d="M227.051,290.463v-0.828h4.608v0.828h-1.836v4.698h-0.937v-4.698H227.051z"/>
	<path fill="#585A5E" d="M234.773,292.92h-0.666v2.241h-0.937v-5.526h2.134c0.582,0,1.041,0.143,1.377,0.428
		s0.504,0.694,0.504,1.229c0,0.456-0.125,0.817-0.374,1.085c-0.249,0.267-0.596,0.437-1.04,0.508l1.603,2.277h-1.062L234.773,292.92
		z M234.107,290.446v1.691h1.179c0.306,0,0.544-0.076,0.716-0.229c0.17-0.152,0.256-0.358,0.256-0.616s-0.086-0.464-0.256-0.616
		c-0.172-0.153-0.41-0.229-0.716-0.229H234.107z"/>
	<path fill="#585A5E" d="M240.488,289.635h0.9l2.123,5.526h-0.953l-0.567-1.53h-2.115l-0.567,1.53h-0.944L240.488,289.635z
		 M240.93,290.779l-0.757,2.043h1.513L240.93,290.779z"/>
	<path fill="#585A5E" d="M244.016,290.463v-0.828h4.608v0.828h-1.836v4.698h-0.937v-4.698H244.016z"/>
	<path fill="#585A5E" d="M253.934,290.351c0.48,0.537,0.721,1.22,0.721,2.048s-0.24,1.511-0.721,2.047
		c-0.48,0.537-1.092,0.806-1.836,0.806s-1.354-0.269-1.832-0.806c-0.477-0.536-0.715-1.219-0.715-2.047s0.238-1.511,0.715-2.048
		c0.478-0.537,1.088-0.806,1.832-0.806S253.453,289.814,253.934,290.351z M253.264,293.847c0.297-0.378,0.445-0.86,0.445-1.448
		s-0.148-1.071-0.445-1.449s-0.686-0.567-1.166-0.567s-0.867,0.188-1.16,0.562c-0.295,0.375-0.441,0.859-0.441,1.454
		c0,0.594,0.146,1.078,0.441,1.453c0.293,0.375,0.68,0.562,1.16,0.562S252.967,294.226,253.264,293.847z"/>
	<path fill="#585A5E" d="M257.812,292.92h-0.666v2.241h-0.936v-5.526h2.133c0.582,0,1.041,0.143,1.377,0.428
		s0.504,0.694,0.504,1.229c0,0.456-0.125,0.817-0.373,1.085c-0.25,0.267-0.596,0.437-1.04,0.508l1.603,2.277h-1.062L257.812,292.92z
		 M257.146,290.446v1.691h1.18c0.306,0,0.544-0.076,0.715-0.229c0.171-0.152,0.257-0.358,0.257-0.616s-0.086-0.464-0.257-0.616
		c-0.171-0.153-0.409-0.229-0.715-0.229H257.146z"/>
</g>
<line fill="none" stroke="#585A5E" stroke-miterlimit="10" x1="94.391" y1="112.927" x2="94.391" y2="285.364"/>
<rect x="35.215" y="276.909" fill="#3AD1CA" width="118.353" height="66.712"/>
<g>
	<g>
		<path fill="#FFFFFF" d="M74.385,304.667c0.264,0.084,0.479,0.244,0.647,0.48c0.168,0.236,0.252,0.5,0.252,0.787
			c0,0.51-0.167,0.902-0.499,1.176c-0.334,0.271-0.791,0.408-1.373,0.408h-2.115v-5.525h1.936c0.588,0,1.047,0.129,1.377,0.387
			s0.494,0.631,0.494,1.115c0,0.289-0.066,0.537-0.202,0.748C74.767,304.455,74.594,304.595,74.385,304.667z M72.206,304.316h1.017
			c0.654,0,0.981-0.256,0.981-0.766c0-0.498-0.327-0.746-0.981-0.746h-1.017V304.316z M72.206,305.089v1.621h1.188
			c0.312,0,0.551-0.072,0.72-0.217c0.167-0.145,0.252-0.342,0.252-0.594s-0.085-0.451-0.252-0.594
			c-0.169-0.145-0.408-0.217-0.72-0.217H72.206z"/>
		<path fill="#FFFFFF" d="M78.434,301.994h0.9l2.124,5.525h-0.954l-0.566-1.529h-2.115l-0.567,1.529h-0.944L78.434,301.994z
			 M78.875,303.136l-0.756,2.043h1.512L78.875,303.136z"/>
		<path fill="#FFFFFF" d="M82.88,307.519v-5.525h0.937v4.689h2.654v0.836H82.88z"/>
		<path fill="#FFFFFF" d="M88.055,307.519v-5.525h0.936v4.689h2.656v0.836H88.055z"/>
		<path fill="#FFFFFF" d="M93.229,301.994h3.609v0.828h-2.691v1.457h2.439v0.82h-2.439v1.584h2.691v0.836h-3.609V301.994z"/>
		<path fill="#FFFFFF" d="M100.088,305.279h-0.666v2.24h-0.937v-5.525h2.134c0.582,0,1.041,0.143,1.377,0.428
			s0.504,0.693,0.504,1.229c0,0.455-0.125,0.816-0.374,1.084s-0.596,0.438-1.04,0.508l1.603,2.277h-1.062L100.088,305.279z
			 M99.422,302.804v1.691h1.179c0.306,0,0.544-0.076,0.716-0.23c0.17-0.152,0.256-0.357,0.256-0.615s-0.086-0.465-0.256-0.617
			c-0.172-0.152-0.41-0.229-0.716-0.229H99.422z"/>
		<path fill="#FFFFFF" d="M105.047,301.994v5.525h-0.937v-5.525H105.047z"/>
		<path fill="#FFFFFF" d="M111.347,301.994v5.525h-0.72l-2.826-4.023v4.023h-0.9v-5.525h0.883l2.664,3.834v-3.834H111.347z"/>
		<path fill="#FFFFFF" d="M114.893,301.994h0.9l2.123,5.525h-0.953l-0.567-1.529h-2.115l-0.567,1.529h-0.944L114.893,301.994z
			 M115.334,303.136l-0.757,2.043h1.513L115.334,303.136z"/>
	</g>
	<g>
		<path fill="#FFFFFF" d="M73.777,316.789h0.953c0.174,0.553,0.592,0.828,1.251,0.828c0.324,0,0.583-0.072,0.778-0.221
			c0.195-0.146,0.293-0.346,0.293-0.598c0-0.197-0.062-0.355-0.185-0.473s-0.329-0.209-0.616-0.273l-0.936-0.227
			c-0.919-0.215-1.378-0.711-1.378-1.484c0-0.475,0.176-0.865,0.526-1.174c0.352-0.311,0.803-0.465,1.355-0.465
			c0.581,0,1.051,0.137,1.408,0.41c0.356,0.273,0.586,0.646,0.688,1.121H76.98c-0.174-0.492-0.558-0.738-1.152-0.738
			c-0.299,0-0.541,0.07-0.725,0.211c-0.183,0.141-0.273,0.326-0.273,0.555c0,0.365,0.242,0.605,0.729,0.719l0.963,0.225
			c0.45,0.104,0.801,0.283,1.053,0.541s0.379,0.588,0.379,0.99c0,0.51-0.184,0.916-0.549,1.219
			c-0.367,0.303-0.841,0.455-1.423,0.455c-0.588,0-1.078-0.143-1.472-0.428C74.117,317.697,73.873,317.3,73.777,316.789z"/>
		<path fill="#FFFFFF" d="M79.51,312.792h3.609v0.828h-2.691v1.459h2.439v0.818h-2.439v1.584h2.691v0.838H79.51V312.792z"/>
		<path fill="#FFFFFF" d="M86.367,316.078h-0.666v2.242h-0.936v-5.527h2.133c0.582,0,1.041,0.143,1.377,0.428
			s0.504,0.695,0.504,1.229c0,0.457-0.124,0.818-0.373,1.086c-0.249,0.266-0.596,0.436-1.039,0.508l1.602,2.277h-1.062
			L86.367,316.078z M85.701,313.603v1.691h1.18c0.307,0,0.545-0.076,0.715-0.229c0.172-0.152,0.258-0.359,0.258-0.617
			s-0.086-0.463-0.258-0.615c-0.17-0.154-0.408-0.23-0.715-0.23H85.701z"/>
		<path fill="#FFFFFF" d="M92.938,318.32h-0.891l-2.088-5.527h0.98l1.566,4.312l1.565-4.312h0.954L92.938,318.32z"/>
		<path fill="#FFFFFF" d="M97.383,312.792v5.527h-0.936v-5.527H97.383z"/>
		<path fill="#FFFFFF" d="M99.656,317.613c-0.477-0.531-0.716-1.217-0.716-2.057s0.239-1.525,0.716-2.057s1.075-0.797,1.795-0.797
			c0.612,0,1.113,0.164,1.504,0.49c0.389,0.328,0.639,0.773,0.746,1.338h-0.918c-0.24-0.654-0.684-0.98-1.332-0.98
			c-0.48,0-0.861,0.188-1.143,0.562c-0.282,0.375-0.424,0.855-0.424,1.443s0.142,1.07,0.424,1.445
			c0.281,0.375,0.662,0.562,1.143,0.562c0.648,0,1.092-0.33,1.332-0.99h0.918c-0.107,0.57-0.357,1.018-0.746,1.346
			c-0.391,0.326-0.892,0.49-1.504,0.49C100.731,318.41,100.133,318.144,99.656,317.613z"/>
		<path fill="#FFFFFF" d="M105.24,312.792h3.609v0.828h-2.691v1.459h2.439v0.818h-2.439v1.584h2.691v0.838h-3.609V312.792z"/>
		<path fill="#FFFFFF" d="M110.064,316.789h0.953c0.175,0.553,0.592,0.828,1.252,0.828c0.324,0,0.583-0.072,0.778-0.221
			c0.194-0.146,0.292-0.346,0.292-0.598c0-0.197-0.061-0.355-0.184-0.473s-0.329-0.209-0.617-0.273l-0.936-0.227
			c-0.918-0.215-1.377-0.711-1.377-1.484c0-0.475,0.176-0.865,0.526-1.174c0.351-0.311,0.802-0.465,1.354-0.465
			c0.582,0,1.051,0.137,1.408,0.41s0.586,0.646,0.688,1.121h-0.937c-0.174-0.492-0.557-0.738-1.151-0.738
			c-0.3,0-0.542,0.07-0.725,0.211s-0.274,0.326-0.274,0.555c0,0.365,0.243,0.605,0.729,0.719l0.963,0.225
			c0.451,0.104,0.802,0.283,1.054,0.541s0.378,0.588,0.378,0.99c0,0.51-0.184,0.916-0.549,1.219
			c-0.366,0.303-0.84,0.455-1.422,0.455c-0.588,0-1.078-0.143-1.472-0.428S110.16,317.3,110.064,316.789z"/>
	</g>
</g>
<line fill="none" stroke="#585A5E" stroke-miterlimit="10" x1="357.984" y1="112.927" x2="357.984" y2="280.274"/>
<rect x="298.753" y="122.993" fill="#3AD1CA" width="118.461" height="66.712"/>
<g>
	<g>
		<path fill="#FFFFFF" d="M337.981,150.751c0.264,0.084,0.479,0.244,0.647,0.481c0.168,0.236,0.252,0.499,0.252,0.787
			c0,0.51-0.166,0.901-0.499,1.175c-0.333,0.272-0.79,0.409-1.372,0.409h-2.115v-5.526h1.935c0.588,0,1.047,0.13,1.377,0.388
			s0.495,0.63,0.495,1.115c0,0.288-0.067,0.537-0.203,0.747C338.363,150.538,338.191,150.679,337.981,150.751z M335.803,150.399
			h1.018c0.654,0,0.98-0.255,0.98-0.765c0-0.498-0.326-0.747-0.98-0.747h-1.018V150.399z M335.803,151.174v1.62h1.188
			c0.312,0,0.552-0.072,0.72-0.217c0.168-0.144,0.252-0.342,0.252-0.594s-0.084-0.45-0.252-0.594
			c-0.168-0.145-0.408-0.216-0.72-0.216H335.803z"/>
		<path fill="#FFFFFF" d="M342.031,148.077h0.9l2.123,5.526h-0.953l-0.567-1.53h-2.115l-0.567,1.53h-0.944L342.031,148.077z
			 M342.473,149.221l-0.757,2.043h1.513L342.473,149.221z"/>
		<path fill="#FFFFFF" d="M346.477,153.604v-5.526h0.937v4.689h2.655v0.837H346.477z"/>
		<path fill="#FFFFFF" d="M351.652,153.604v-5.526h0.936v4.689h2.655v0.837H351.652z"/>
		<path fill="#FFFFFF" d="M356.826,148.077h3.609v0.828h-2.691v1.458h2.439v0.819h-2.439v1.584h2.691v0.837h-3.609V148.077z"/>
		<path fill="#FFFFFF" d="M363.685,151.362h-0.666v2.241h-0.937v-5.526h2.134c0.582,0,1.041,0.143,1.377,0.428
			s0.504,0.694,0.504,1.229c0,0.456-0.124,0.817-0.374,1.085c-0.248,0.267-0.596,0.437-1.039,0.508l1.602,2.277h-1.062
			L363.685,151.362z M363.019,148.888v1.691h1.179c0.307,0,0.545-0.076,0.716-0.229c0.171-0.152,0.257-0.358,0.257-0.616
			s-0.086-0.464-0.257-0.616c-0.171-0.153-0.409-0.229-0.716-0.229H363.019z"/>
		<path fill="#FFFFFF" d="M368.644,148.077v5.526h-0.937v-5.526H368.644z"/>
		<path fill="#FFFFFF" d="M374.936,148.077v5.526h-0.721l-2.826-4.023v4.023h-0.9v-5.526h0.883l2.664,3.834v-3.834H374.936z"/>
		<path fill="#FFFFFF" d="M378.48,148.077h0.9l2.124,5.526h-0.954l-0.566-1.53h-2.115l-0.567,1.53h-0.944L378.48,148.077z
			 M378.922,149.221l-0.756,2.043h1.512L378.922,149.221z"/>
	</g>
	<g>
		<path fill="#FFFFFF" d="M337.734,162.873h0.953c0.175,0.553,0.592,0.828,1.252,0.828c0.324,0,0.583-0.073,0.778-0.221
			c0.194-0.146,0.292-0.346,0.292-0.599c0-0.197-0.061-0.355-0.184-0.472c-0.123-0.117-0.329-0.209-0.617-0.274l-0.936-0.226
			c-0.918-0.216-1.377-0.711-1.377-1.484c0-0.475,0.176-0.866,0.526-1.175c0.351-0.31,0.802-0.464,1.354-0.464
			c0.582,0,1.051,0.137,1.408,0.41c0.357,0.272,0.586,0.646,0.688,1.12h-0.937c-0.174-0.492-0.557-0.738-1.151-0.738
			c-0.3,0-0.542,0.071-0.725,0.212s-0.274,0.325-0.274,0.554c0,0.365,0.243,0.605,0.729,0.72l0.963,0.225
			c0.451,0.103,0.802,0.282,1.054,0.54s0.378,0.588,0.378,0.99c0,0.51-0.184,0.917-0.549,1.22c-0.366,0.303-0.84,0.454-1.422,0.454
			c-0.588,0-1.078-0.143-1.472-0.428C338.074,163.781,337.83,163.384,337.734,162.873z"/>
		<path fill="#FFFFFF" d="M343.467,158.877h3.609v0.828h-2.691v1.458h2.439v0.819h-2.439v1.584h2.691v0.837h-3.609V158.877z"/>
		<path fill="#FFFFFF" d="M350.325,162.162h-0.666v2.241h-0.937v-5.526h2.134c0.582,0,1.041,0.143,1.377,0.428
			s0.504,0.694,0.504,1.229c0,0.456-0.124,0.817-0.374,1.085c-0.248,0.267-0.596,0.437-1.039,0.508l1.602,2.277h-1.062
			L350.325,162.162z M349.659,159.688v1.691h1.179c0.307,0,0.545-0.076,0.716-0.229c0.171-0.152,0.257-0.358,0.257-0.616
			s-0.086-0.464-0.257-0.616c-0.171-0.153-0.409-0.229-0.716-0.229H349.659z"/>
		<path fill="#FFFFFF" d="M356.805,164.403h-0.891l-2.088-5.526h0.98l1.566,4.312l1.566-4.312h0.953L356.805,164.403z"/>
		<path fill="#FFFFFF" d="M361.242,158.877v5.526h-0.937v-5.526H361.242z"/>
		<path fill="#FFFFFF" d="M363.514,163.697c-0.477-0.531-0.715-1.217-0.715-2.057s0.238-1.525,0.715-2.057
			c0.478-0.531,1.076-0.797,1.797-0.797c0.611,0,1.112,0.164,1.502,0.49c0.391,0.327,0.639,0.773,0.748,1.337h-0.918
			c-0.24-0.654-0.685-0.98-1.332-0.98c-0.48,0-0.861,0.188-1.144,0.562s-0.423,0.856-0.423,1.444s0.141,1.069,0.423,1.444
			s0.663,0.562,1.144,0.562c0.647,0,1.092-0.33,1.332-0.99h0.918c-0.109,0.57-0.357,1.019-0.748,1.346
			c-0.39,0.327-0.891,0.49-1.502,0.49C364.59,164.493,363.991,164.228,363.514,163.697z"/>
		<path fill="#FFFFFF" d="M369.099,158.877h3.609v0.828h-2.691v1.458h2.439v0.819h-2.439v1.584h2.691v0.837h-3.609V158.877z"/>
		<path fill="#FFFFFF" d="M373.923,162.873h0.954c0.174,0.553,0.591,0.828,1.25,0.828c0.324,0,0.584-0.073,0.779-0.221
			c0.195-0.146,0.293-0.346,0.293-0.599c0-0.197-0.062-0.355-0.186-0.472c-0.123-0.117-0.328-0.209-0.616-0.274l-0.936-0.226
			c-0.919-0.216-1.378-0.711-1.378-1.484c0-0.475,0.176-0.866,0.527-1.175c0.352-0.31,0.803-0.464,1.354-0.464
			c0.581,0,1.052,0.137,1.408,0.41c0.356,0.272,0.587,0.646,0.688,1.12h-0.936c-0.174-0.492-0.559-0.738-1.152-0.738
			c-0.3,0-0.541,0.071-0.725,0.212s-0.274,0.325-0.274,0.554c0,0.365,0.243,0.605,0.729,0.72l0.963,0.225
			c0.449,0.103,0.801,0.282,1.053,0.54s0.378,0.588,0.378,0.99c0,0.51-0.183,0.917-0.549,1.22s-0.841,0.454-1.423,0.454
			c-0.588,0-1.078-0.143-1.471-0.428C374.264,163.781,374.019,163.384,373.923,162.873z"/>
	</g>
</g>
<rect x="298.861" y="276.909" fill="#FFFFFF" width="118.353" height="66.712"/>
<g>
	<path fill="#585A5E" d="M328.293,290.351c0.48,0.537,0.721,1.22,0.721,2.048s-0.24,1.511-0.721,2.047
		c-0.48,0.537-1.092,0.806-1.836,0.806s-1.354-0.269-1.832-0.806c-0.477-0.536-0.715-1.219-0.715-2.047s0.238-1.511,0.715-2.048
		c0.478-0.537,1.088-0.806,1.832-0.806S327.812,289.814,328.293,290.351z M327.623,293.847c0.297-0.378,0.445-0.86,0.445-1.448
		s-0.148-1.071-0.445-1.449s-0.686-0.567-1.166-0.567s-0.867,0.188-1.16,0.562c-0.295,0.375-0.441,0.859-0.441,1.454
		c0,0.594,0.146,1.078,0.441,1.453c0.293,0.375,0.68,0.562,1.16,0.562S327.326,294.226,327.623,293.847z"/>
	<path fill="#585A5E" d="M332.172,292.92h-0.666v2.241h-0.936v-5.526h2.133c0.582,0,1.041,0.143,1.377,0.428
		s0.504,0.694,0.504,1.229c0,0.456-0.125,0.817-0.373,1.085c-0.25,0.267-0.596,0.437-1.04,0.508l1.603,2.277h-1.062L332.172,292.92z
		 M331.506,290.446v1.691h1.18c0.306,0,0.544-0.076,0.715-0.229c0.171-0.152,0.257-0.358,0.257-0.616s-0.086-0.464-0.257-0.616
		c-0.171-0.153-0.409-0.229-0.715-0.229H331.506z"/>
	<path fill="#585A5E" d="M336.613,294.456c-0.477-0.531-0.715-1.217-0.715-2.057s0.238-1.525,0.715-2.057s1.076-0.797,1.796-0.797
		c0.612,0,1.112,0.164,1.503,0.49c0.39,0.327,0.639,0.773,0.747,1.337h-0.918c-0.24-0.654-0.685-0.98-1.332-0.98
		c-0.48,0-0.861,0.188-1.144,0.562c-0.281,0.375-0.423,0.856-0.423,1.444s0.142,1.069,0.423,1.444
		c0.282,0.375,0.663,0.562,1.144,0.562c0.647,0,1.092-0.33,1.332-0.99h0.918c-0.108,0.57-0.357,1.019-0.747,1.346
		c-0.391,0.327-0.891,0.49-1.503,0.49C337.689,295.251,337.09,294.986,336.613,294.456z"/>
	<path fill="#585A5E" d="M345.915,289.635h0.937v5.526h-0.937v-2.421h-2.781v2.421h-0.937v-5.526h0.937v2.277h2.781V289.635z"/>
	<path fill="#585A5E" d="M348.705,289.635h3.609v0.828h-2.691v1.458h2.439v0.819h-2.439v1.584h2.691v0.837h-3.609V289.635z"/>
	<path fill="#585A5E" d="M353.529,293.631h0.953c0.175,0.553,0.592,0.828,1.252,0.828c0.324,0,0.583-0.073,0.778-0.221
		c0.194-0.146,0.292-0.346,0.292-0.599c0-0.197-0.061-0.355-0.184-0.472c-0.123-0.117-0.329-0.209-0.617-0.274l-0.936-0.226
		c-0.918-0.216-1.377-0.711-1.377-1.484c0-0.475,0.176-0.866,0.526-1.175c0.351-0.31,0.802-0.464,1.354-0.464
		c0.582,0,1.051,0.137,1.408,0.41c0.357,0.272,0.586,0.646,0.688,1.12h-0.937c-0.174-0.492-0.557-0.738-1.151-0.738
		c-0.3,0-0.542,0.071-0.725,0.212s-0.274,0.325-0.274,0.554c0,0.365,0.243,0.605,0.729,0.72l0.963,0.225
		c0.451,0.103,0.802,0.282,1.054,0.54s0.378,0.588,0.378,0.99c0,0.51-0.184,0.917-0.549,1.22c-0.366,0.303-0.84,0.454-1.422,0.454
		c-0.588,0-1.078-0.143-1.472-0.428C353.869,294.54,353.625,294.142,353.529,293.631z"/>
	<path fill="#585A5E" d="M358.82,290.463v-0.828h4.608v0.828h-1.836v4.698h-0.937v-4.698H358.82z"/>
	<path fill="#585A5E" d="M366.543,292.92h-0.666v2.241h-0.937v-5.526h2.134c0.582,0,1.041,0.143,1.377,0.428
		s0.504,0.694,0.504,1.229c0,0.456-0.125,0.817-0.374,1.085c-0.249,0.267-0.596,0.437-1.04,0.508l1.603,2.277h-1.062L366.543,292.92
		z M365.877,290.446v1.691h1.179c0.306,0,0.544-0.076,0.716-0.229c0.17-0.152,0.256-0.358,0.256-0.616s-0.086-0.464-0.256-0.616
		c-0.172-0.153-0.41-0.229-0.716-0.229H365.877z"/>
	<path fill="#585A5E" d="M372.258,289.635h0.9l2.123,5.526h-0.953l-0.567-1.53h-2.115l-0.567,1.53h-0.944L372.258,289.635z
		 M372.699,290.779l-0.757,2.043h1.513L372.699,290.779z"/>
	<path fill="#585A5E" d="M375.795,290.463v-0.828h4.607v0.828h-1.836v4.698h-0.936v-4.698H375.795z"/>
	<path fill="#585A5E" d="M385.713,290.351c0.479,0.537,0.72,1.22,0.72,2.048s-0.24,1.511-0.72,2.047
		c-0.48,0.537-1.092,0.806-1.836,0.806s-1.355-0.269-1.832-0.806c-0.477-0.536-0.715-1.219-0.715-2.047s0.238-1.511,0.715-2.048
		s1.088-0.806,1.832-0.806S385.232,289.814,385.713,290.351z M385.042,293.847c0.298-0.378,0.446-0.86,0.446-1.448
		s-0.148-1.071-0.446-1.449c-0.297-0.378-0.686-0.567-1.165-0.567c-0.48,0-0.867,0.188-1.161,0.562s-0.441,0.859-0.441,1.454
		c0,0.594,0.147,1.078,0.441,1.453s0.681,0.562,1.161,0.562C384.356,294.415,384.745,294.226,385.042,293.847z"/>
	<path fill="#585A5E" d="M389.592,292.92h-0.666v2.241h-0.937v-5.526h2.134c0.582,0,1.041,0.143,1.377,0.428
		s0.504,0.694,0.504,1.229c0,0.456-0.125,0.817-0.374,1.085c-0.249,0.267-0.596,0.437-1.04,0.508l1.603,2.277h-1.062L389.592,292.92
		z M388.926,290.446v1.691h1.179c0.306,0,0.544-0.076,0.716-0.229c0.17-0.152,0.256-0.358,0.256-0.616s-0.086-0.464-0.256-0.616
		c-0.172-0.153-0.41-0.229-0.716-0.229H388.926z"/>
</g>
<path fill="#FFFFFF" d="M194.978,323.854L194.978,323.854C194.964,323.854,194.964,323.854,194.978,323.854h-0.014
	c-0.014,0-0.027,0-0.027-0.014c-0.027,0-0.054-0.013-0.08-0.013c-0.095-0.014-0.176-0.027-0.257-0.027c-0.04,0-0.08,0-0.135-0.014
	h-0.013c-0.283-0.026-0.513-0.054-0.728-0.121c-0.095-0.04-0.122-0.093-0.149-0.148c0-0.013-0.013-0.013-0.013-0.025l-0.175-0.055
	c0.08-0.619,0.054-1.267-0.096-1.9c-0.147-0.632-0.403-1.226-0.754-1.765l0.135-0.12v-0.028c0-0.067,0.014-0.134,0.066-0.202
	c0.164-0.148,0.365-0.269,0.607-0.418c0.041-0.026,0.081-0.04,0.121-0.067c0.081-0.04,0.148-0.08,0.229-0.135
	c0.014-0.013,0.041-0.026,0.068-0.054c0.014-0.013,0.027-0.013,0.027-0.026c0.188-0.162,0.229-0.432,0.094-0.605
	c-0.066-0.096-0.189-0.149-0.311-0.149c-0.107,0-0.201,0.04-0.297,0.108c-0.013,0.013-0.013,0.013-0.025,0.026
	c-0.027,0.015-0.041,0.04-0.067,0.055c-0.067,0.066-0.121,0.121-0.176,0.188c-0.026,0.027-0.054,0.067-0.095,0.095
	c-0.188,0.202-0.363,0.363-0.539,0.485c-0.041,0.027-0.08,0.04-0.12,0.04c-0.027,0-0.054,0-0.081-0.013h-0.027l-0.16,0.107
	c-0.177-0.189-0.365-0.351-0.554-0.513c-0.81-0.633-1.792-1.023-2.815-1.118l-0.014-0.175l-0.027-0.027
	c-0.041-0.04-0.094-0.081-0.107-0.175c-0.014-0.216,0.014-0.458,0.04-0.727v-0.015c0-0.04,0.014-0.095,0.026-0.135
	c0.015-0.081,0.027-0.162,0.041-0.256v-0.081v-0.04c0-0.243-0.188-0.445-0.418-0.445c-0.107,0-0.215,0.056-0.297,0.136
	c-0.08,0.081-0.121,0.188-0.121,0.31v0.027v0.081c0,0.094,0.015,0.174,0.041,0.255c0.014,0.041,0.014,0.082,0.027,0.135v0.014
	c0.025,0.27,0.066,0.513,0.04,0.728c-0.015,0.095-0.067,0.135-0.108,0.175l-0.026,0.028l-0.015,0.174
	c-0.242,0.027-0.483,0.055-0.727,0.108c-1.037,0.229-1.953,0.755-2.667,1.51l-0.135-0.096h-0.027c-0.028,0-0.054,0.015-0.081,0.015
	c-0.04,0-0.081-0.015-0.121-0.04c-0.175-0.122-0.351-0.297-0.539-0.5c-0.027-0.026-0.054-0.067-0.094-0.093
	c-0.055-0.068-0.109-0.121-0.176-0.189c-0.014-0.013-0.04-0.027-0.067-0.054c-0.014-0.014-0.026-0.014-0.026-0.027
	c-0.082-0.067-0.189-0.108-0.297-0.108c-0.121,0-0.242,0.055-0.31,0.148c-0.135,0.176-0.095,0.445,0.095,0.607
	c0.012,0,0.012,0.013,0.026,0.013c0.026,0.014,0.04,0.04,0.067,0.054c0.08,0.054,0.148,0.095,0.229,0.135
	c0.041,0.015,0.081,0.04,0.122,0.067c0.242,0.149,0.444,0.27,0.604,0.418c0.068,0.068,0.068,0.135,0.068,0.202v0.027l0.135,0.12
	c-0.026,0.041-0.054,0.067-0.067,0.108c-0.673,1.065-0.931,2.318-0.755,3.557l-0.176,0.055c0,0.013-0.012,0.013-0.012,0.026
	c-0.027,0.055-0.068,0.107-0.148,0.148c-0.203,0.068-0.444,0.094-0.728,0.121h-0.014c-0.04,0-0.095,0-0.136,0.014
	c-0.08,0-0.16,0.014-0.256,0.026c-0.026,0-0.053,0.014-0.08,0.014c-0.014,0-0.026,0-0.041,0.014c-0.242,0.055-0.39,0.283-0.35,0.498
	c0.04,0.189,0.217,0.311,0.432,0.311c0.039,0,0.067,0,0.107-0.013c0.014,0,0.027,0,0.027-0.015c0.027,0,0.054-0.014,0.08-0.014
	c0.095-0.026,0.162-0.053,0.242-0.093c0.041-0.015,0.08-0.041,0.121-0.055h0.014c0.257-0.095,0.486-0.176,0.701-0.202h0.027
	c0.08,0,0.135,0.04,0.176,0.067c0.012,0,0.012,0.013,0.026,0.013l0.188-0.026c0.324,0.998,0.943,1.886,1.765,2.534
	c0.188,0.146,0.377,0.269,0.579,0.39l-0.08,0.175c0,0.014,0.013,0.014,0.013,0.027c0.027,0.054,0.054,0.122,0.027,0.215
	c-0.081,0.202-0.202,0.405-0.351,0.634v0.014c-0.026,0.04-0.054,0.067-0.08,0.107c-0.055,0.068-0.095,0.135-0.148,0.216
	c-0.014,0.015-0.027,0.04-0.041,0.067c0,0.014-0.014,0.026-0.014,0.026c-0.107,0.229-0.026,0.485,0.176,0.58
	c0.054,0.026,0.107,0.04,0.162,0.04c0.16,0,0.322-0.107,0.402-0.256c0-0.014,0.014-0.026,0.014-0.026
	c0.015-0.027,0.027-0.055,0.041-0.068c0.041-0.093,0.055-0.161,0.08-0.242c0.015-0.04,0.029-0.081,0.041-0.121
	c0.095-0.27,0.162-0.484,0.283-0.674c0.055-0.081,0.123-0.095,0.176-0.121c0.014,0,0.014,0,0.026-0.014l0.095-0.174
	c0.592,0.228,1.239,0.349,1.887,0.349c0.391,0,0.795-0.04,1.172-0.135c0.242-0.054,0.472-0.121,0.699-0.202l0.082,0.148
	c0.014,0,0.014,0,0.027,0.014c0.067,0.014,0.121,0.04,0.174,0.122c0.109,0.188,0.189,0.417,0.285,0.673v0.014
	c0.012,0.04,0.025,0.081,0.039,0.121c0.027,0.081,0.041,0.162,0.081,0.242c0.013,0.028,0.027,0.041,0.04,0.068
	c0,0.013,0.014,0.026,0.014,0.026c0.08,0.161,0.244,0.256,0.404,0.256c0.053,0,0.108-0.014,0.162-0.04
	c0.094-0.055,0.176-0.135,0.202-0.242c0.026-0.108,0.026-0.229-0.026-0.338c0-0.013-0.015-0.013-0.015-0.026
	c-0.015-0.027-0.026-0.053-0.04-0.067c-0.041-0.081-0.096-0.147-0.148-0.216c-0.026-0.04-0.054-0.067-0.082-0.107v-0.014
	c-0.146-0.229-0.281-0.432-0.349-0.634c-0.028-0.093,0-0.147,0.013-0.215c0-0.014,0.014-0.014,0.014-0.027l-0.067-0.161
	c0.714-0.418,1.32-1.011,1.778-1.737c0.242-0.379,0.432-0.796,0.566-1.214l0.162,0.027c0.012,0,0.012-0.014,0.026-0.014
	c0.054-0.027,0.095-0.067,0.175-0.067h0.027c0.216,0.026,0.443,0.108,0.699,0.202h0.015c0.041,0.014,0.081,0.04,0.121,0.054
	c0.081,0.04,0.147,0.067,0.243,0.096c0.027,0,0.054,0.012,0.08,0.012c0.014,0,0.027,0,0.041,0.014
	c0.039,0.015,0.067,0.015,0.107,0.015c0.202,0,0.378-0.136,0.432-0.311C195.368,324.137,195.22,323.921,194.978,323.854
	 M188.739,323.195l-0.593,0.282l-0.593-0.282l-0.148-0.634l0.404-0.513h0.66l0.404,0.513L188.739,323.195z M192.256,321.792
	c0.106,0.458,0.135,0.917,0.094,1.362l-2.062-0.594c-0.188-0.054-0.297-0.242-0.256-0.432c0.014-0.053,0.041-0.107,0.08-0.147
	l1.631-1.469C191.973,320.89,192.147,321.322,192.256,321.792 M191.097,319.705l-1.766,1.253c-0.147,0.095-0.35,0.067-0.471-0.081
	c-0.041-0.04-0.054-0.093-0.068-0.148l-0.12-2.195C189.602,318.64,190.45,319.058,191.097,319.705 M187.189,318.599
	c0.148-0.025,0.283-0.054,0.431-0.08l-0.121,2.155c-0.012,0.189-0.161,0.351-0.363,0.351c-0.055,0-0.121-0.014-0.162-0.039
	l-1.792-1.281C185.735,319.153,186.422,318.775,187.189,318.599 M184.534,320.513l1.604,1.428c0.147,0.121,0.161,0.351,0.04,0.499
	c-0.04,0.054-0.094,0.095-0.161,0.107l-2.089,0.607C183.848,322.239,184.05,321.308,184.534,320.513 M184.172,324.165l2.142-0.364
	c0.176-0.014,0.338,0.108,0.378,0.283c0.013,0.081,0.013,0.148-0.014,0.216l-0.822,1.981
	C185.102,325.794,184.495,325.053,184.172,324.165 M189.089,326.845c-0.311,0.067-0.619,0.108-0.942,0.108
	c-0.472,0-0.93-0.081-1.362-0.215l1.065-1.928c0.106-0.121,0.283-0.175,0.431-0.095c0.068,0.041,0.123,0.095,0.162,0.149
	l1.038,1.873C189.358,326.779,189.224,326.805,189.089,326.845 M191.717,324.972c-0.337,0.539-0.781,0.972-1.294,1.309l-0.85-2.036
	c-0.039-0.161,0.028-0.336,0.189-0.417c0.054-0.027,0.121-0.041,0.188-0.041l2.157,0.365
	C192.026,324.448,191.892,324.716,191.717,324.972"/>
<path fill="#585A5E" d="M192.375,327.085c-0.484,0-0.943-0.215-1.252-0.604l-4.717-5.863c-0.309-0.389-0.432-0.889-0.309-1.373
	l1.684-7.316c0.107-0.486,0.432-0.877,0.875-1.092l6.818-3.262c0.215-0.107,0.457-0.16,0.701-0.16c0.242,0,0.484,0.053,0.699,0.16
	l6.818,3.248c0.445,0.215,0.768,0.607,0.875,1.092l1.686,7.316c0.107,0.484,0,0.982-0.311,1.375l-4.717,5.859
	c-0.309,0.377-0.768,0.607-1.252,0.607L192.375,327.085z"/>
<path fill="#FFFFFF" d="M202.992,318.732L202.992,318.732C202.979,318.732,202.979,318.732,202.992,318.732h-0.014
	c-0.014,0-0.027,0-0.027-0.014c-0.025,0-0.053-0.012-0.08-0.012c-0.094-0.014-0.176-0.027-0.256-0.027c-0.041,0-0.082,0-0.135-0.014
	h-0.014c-0.283-0.027-0.512-0.055-0.729-0.121c-0.094-0.041-0.121-0.094-0.146-0.148c0-0.014-0.014-0.014-0.014-0.025l-0.176-0.055
	c0.08-0.619,0.055-1.268-0.094-1.9s-0.404-1.227-0.754-1.766l0.135-0.119v-0.029c0-0.066,0.012-0.133,0.066-0.201
	c0.162-0.148,0.363-0.27,0.605-0.418c0.041-0.027,0.082-0.041,0.121-0.068c0.082-0.039,0.148-0.08,0.23-0.135
	c0.014-0.012,0.041-0.025,0.066-0.053c0.014-0.014,0.027-0.014,0.027-0.027c0.188-0.162,0.229-0.432,0.094-0.605
	c-0.066-0.096-0.188-0.148-0.309-0.148c-0.109,0-0.203,0.039-0.297,0.107c-0.014,0.014-0.014,0.014-0.027,0.027
	c-0.027,0.014-0.041,0.039-0.068,0.055c-0.066,0.066-0.121,0.121-0.174,0.188c-0.027,0.027-0.055,0.066-0.094,0.094
	c-0.189,0.203-0.365,0.363-0.539,0.486c-0.041,0.027-0.082,0.039-0.121,0.039c-0.027,0-0.055,0-0.082-0.012h-0.027l-0.16,0.107
	c-0.176-0.189-0.365-0.352-0.553-0.514c-0.809-0.633-1.793-1.023-2.816-1.117l-0.014-0.176c-0.014-0.012-0.014-0.012-0.027-0.027
	c-0.039-0.039-0.094-0.08-0.107-0.174c-0.014-0.217,0.014-0.459,0.041-0.727v-0.016c0-0.039,0.014-0.094,0.027-0.135
	c0.012-0.08,0.025-0.162,0.039-0.256v-0.08v-0.041c0-0.242-0.188-0.445-0.416-0.445c-0.109,0-0.217,0.057-0.297,0.137
	c-0.082,0.08-0.121,0.188-0.121,0.309v0.027v0.082c0,0.094,0.014,0.174,0.039,0.254c0.014,0.041,0.014,0.082,0.027,0.135v0.014
	c0.027,0.27,0.068,0.514,0.041,0.729c-0.014,0.094-0.068,0.135-0.107,0.174c-0.014,0.014-0.014,0.014-0.027,0.029l-0.014,0.174
	c-0.242,0.027-0.484,0.055-0.729,0.107c-1.037,0.229-1.953,0.756-2.668,1.51l-0.133-0.096h-0.027c-0.027,0-0.055,0.016-0.082,0.016
	c-0.041,0-0.08-0.016-0.119-0.041c-0.178-0.121-0.352-0.297-0.539-0.5c-0.027-0.025-0.055-0.066-0.096-0.092
	c-0.053-0.068-0.107-0.121-0.176-0.189c-0.012-0.014-0.041-0.027-0.066-0.055c-0.014-0.014-0.027-0.014-0.027-0.027
	c-0.08-0.066-0.189-0.107-0.297-0.107c-0.121,0-0.242,0.055-0.311,0.148c-0.133,0.176-0.094,0.445,0.096,0.607
	c0.014,0,0.014,0.012,0.027,0.012c0.027,0.014,0.039,0.041,0.066,0.055c0.082,0.053,0.148,0.094,0.229,0.135
	c0.041,0.014,0.082,0.039,0.121,0.066c0.244,0.15,0.445,0.27,0.607,0.418c0.066,0.068,0.066,0.135,0.066,0.203v0.027l0.137,0.119
	c-0.027,0.041-0.055,0.068-0.068,0.109c-0.674,1.064-0.93,2.318-0.754,3.557l-0.176,0.055c0,0.012-0.014,0.012-0.014,0.025
	c-0.027,0.055-0.066,0.107-0.148,0.148c-0.201,0.068-0.445,0.094-0.727,0.121h-0.014c-0.041,0-0.094,0-0.135,0.014
	c-0.08,0-0.162,0.014-0.256,0.027c-0.027,0-0.055,0.014-0.082,0.014c-0.014,0-0.025,0-0.039,0.014
	c-0.242,0.055-0.393,0.283-0.352,0.498c0.041,0.189,0.217,0.311,0.432,0.311c0.041,0,0.066,0,0.107-0.014
	c0.014,0,0.027,0,0.027-0.014c0.027,0,0.053-0.014,0.082-0.014c0.094-0.027,0.16-0.053,0.242-0.094
	c0.039-0.014,0.08-0.041,0.121-0.055h0.014c0.256-0.094,0.484-0.176,0.699-0.201h0.027c0.08,0,0.135,0.039,0.176,0.066
	c0.014,0,0.014,0.014,0.025,0.014l0.189-0.027c0.324,0.998,0.943,1.887,1.766,2.535c0.189,0.146,0.377,0.268,0.58,0.389
	l-0.082,0.176c0,0.014,0.014,0.014,0.014,0.027c0.027,0.053,0.055,0.121,0.027,0.215c-0.082,0.201-0.203,0.404-0.35,0.633v0.014
	c-0.027,0.041-0.055,0.068-0.082,0.107c-0.055,0.068-0.094,0.135-0.148,0.217c-0.014,0.014-0.027,0.039-0.041,0.066
	c0,0.014-0.012,0.027-0.012,0.027c-0.109,0.229-0.027,0.484,0.174,0.58c0.055,0.025,0.109,0.039,0.162,0.039
	c0.162,0,0.324-0.107,0.404-0.256c0-0.014,0.014-0.025,0.014-0.025c0.014-0.027,0.027-0.055,0.041-0.068
	c0.039-0.094,0.053-0.162,0.08-0.242c0.014-0.041,0.027-0.082,0.041-0.121c0.094-0.27,0.162-0.484,0.283-0.674
	c0.053-0.082,0.121-0.096,0.174-0.121c0.014,0,0.014,0,0.027-0.014l0.094-0.174c0.594,0.227,1.24,0.348,1.887,0.348
	c0.391,0,0.795-0.039,1.172-0.135c0.242-0.053,0.473-0.121,0.701-0.201l0.08,0.148c0.014,0,0.014,0,0.027,0.014
	c0.066,0.014,0.121,0.039,0.176,0.121c0.107,0.188,0.188,0.418,0.283,0.674v0.014c0.014,0.039,0.025,0.08,0.041,0.121
	c0.025,0.08,0.039,0.162,0.08,0.242c0.014,0.027,0.025,0.041,0.039,0.068c0,0.012,0.014,0.025,0.014,0.025
	c0.082,0.162,0.244,0.256,0.404,0.256c0.055,0,0.109-0.014,0.162-0.039c0.096-0.055,0.176-0.135,0.201-0.242
	c0.027-0.109,0.027-0.23-0.025-0.338c0-0.014-0.014-0.014-0.014-0.027c-0.014-0.027-0.027-0.053-0.041-0.066
	c-0.041-0.082-0.094-0.148-0.148-0.217c-0.025-0.039-0.053-0.066-0.08-0.107v-0.014c-0.148-0.229-0.283-0.432-0.352-0.633
	c-0.025-0.094,0-0.148,0.016-0.215c0-0.014,0.012-0.014,0.012-0.027l-0.066-0.162c0.713-0.418,1.32-1.01,1.779-1.736
	c0.242-0.379,0.43-0.797,0.564-1.215l0.162,0.027c0.014,0,0.014-0.014,0.027-0.014c0.053-0.027,0.094-0.066,0.174-0.066h0.027
	c0.215,0.025,0.445,0.107,0.701,0.201h0.014c0.039,0.014,0.08,0.041,0.121,0.055c0.08,0.039,0.148,0.066,0.242,0.096
	c0.027,0,0.055,0.012,0.082,0.012c0.012,0,0.025,0,0.039,0.014c0.041,0.014,0.068,0.014,0.107,0.014
	c0.203,0,0.377-0.135,0.432-0.311C203.383,319.015,203.234,318.8,202.992,318.732 M196.754,318.074l-0.594,0.281l-0.592-0.281
	l-0.148-0.635l0.404-0.512h0.66l0.404,0.512L196.754,318.074z M200.271,316.671c0.107,0.457,0.133,0.916,0.094,1.361l-2.061-0.594
	c-0.189-0.053-0.297-0.242-0.258-0.432c0.014-0.053,0.041-0.107,0.082-0.146l1.631-1.469
	C199.988,315.769,200.162,316.201,200.271,316.671 M199.111,314.583l-1.764,1.252c-0.148,0.096-0.352,0.068-0.471-0.08
	c-0.041-0.041-0.057-0.094-0.068-0.148l-0.121-2.195C197.615,313.519,198.465,313.937,199.111,314.583 M195.205,313.478
	c0.148-0.025,0.281-0.055,0.432-0.08l-0.121,2.154c-0.014,0.189-0.162,0.352-0.365,0.352c-0.053,0-0.121-0.014-0.162-0.039
	l-1.791-1.281C193.75,314.031,194.438,313.654,195.205,313.478 M192.551,315.392l1.604,1.428c0.148,0.121,0.16,0.35,0.039,0.498
	c-0.039,0.055-0.094,0.096-0.162,0.107l-2.088,0.607C191.863,317.117,192.064,316.187,192.551,315.392 M192.188,319.042l2.141-0.363
	c0.176-0.014,0.338,0.107,0.377,0.283c0.016,0.08,0.016,0.148-0.014,0.215l-0.82,1.982
	C193.115,320.673,192.51,319.931,192.188,319.042 M197.105,321.724c-0.311,0.066-0.621,0.107-0.945,0.107
	c-0.471,0-0.928-0.08-1.359-0.215l1.064-1.928c0.107-0.121,0.283-0.174,0.432-0.094c0.066,0.041,0.121,0.094,0.162,0.148
	l1.035,1.873C197.373,321.658,197.238,321.683,197.105,321.724 M199.732,319.851c-0.338,0.539-0.783,0.971-1.293,1.309l-0.85-2.037
	c-0.041-0.16,0.025-0.336,0.188-0.416c0.055-0.027,0.121-0.041,0.189-0.041l2.156,0.365
	C200.043,319.326,199.906,319.595,199.732,319.851"/>
<path fill-rule="evenodd" clip-rule="evenodd" fill="#585A5E" d="M241.723,315.132c-0.576-0.387-1.9-0.527-2.92-0.334
	c-0.131-0.961-0.666-1.793-1.639-2.545l-0.561-0.373l-0.373,0.559c-0.479,0.721-0.717,1.721-0.637,2.678
	c0.033,0.336,0.145,0.939,0.49,1.469c-0.346,0.188-1.029,0.443-1.932,0.426h-17.357l-0.033,0.199
	c-0.164,0.963-0.16,3.965,1.789,6.273c1.482,1.754,3.705,2.645,6.604,2.645c6.287,0,10.939-2.895,13.115-8.154
	c0.857,0.018,2.701,0.006,3.648-1.805c0.025-0.043,0.082-0.15,0.246-0.494l0.092-0.188L241.723,315.132z"/>
<rect x="228.033" y="308.375" fill-rule="evenodd" clip-rule="evenodd" fill="#585A5E" width="2.641" height="2.398"/>
<rect x="228.033" y="311.253" fill-rule="evenodd" clip-rule="evenodd" fill="#585A5E" width="2.641" height="2.398"/>
<rect x="224.914" y="311.253" fill-rule="evenodd" clip-rule="evenodd" fill="#585A5E" width="2.641" height="2.398"/>
<rect x="221.795" y="311.253" fill-rule="evenodd" clip-rule="evenodd" fill="#585A5E" width="2.641" height="2.398"/>
<rect x="218.678" y="314.132" fill-rule="evenodd" clip-rule="evenodd" fill="#585A5E" width="2.639" height="2.398"/>
<rect x="221.795" y="314.132" fill-rule="evenodd" clip-rule="evenodd" fill="#585A5E" width="2.641" height="2.398"/>
<rect x="224.914" y="314.132" fill-rule="evenodd" clip-rule="evenodd" fill="#585A5E" width="2.641" height="2.398"/>
<rect x="228.033" y="314.132" fill-rule="evenodd" clip-rule="evenodd" fill="#585A5E" width="2.641" height="2.398"/>
<rect x="231.152" y="314.132" fill-rule="evenodd" clip-rule="evenodd" fill="#585A5E" width="2.639" height="2.398"/>
<path fill="#585A5E" d="M256.426,319.417c0,0,0.398-1.506-1.328-3.447l-0.059-0.061c-0.727-0.863-1.129-1.957-1.129-3.082
	c0-2.639,2.15-4.787,4.795-4.787h0.111c2.643,0,4.795,2.148,4.795,4.787c0,1.125-0.402,2.219-1.129,3.08
	c-0.01,0.01-0.029,0.031-0.059,0.061c-1.531,1.535-1.33,3.449-1.33,3.449c2.801-0.965,4.691-3.598,4.707-6.551
	c0.021-3.691-2.959-6.84-6.643-7.016c-0.045-0.002-0.09-0.002-0.137-0.002c-0.055,0-0.262,0.004-0.262,0.004
	c-0.006,0-0.205-0.004-0.26-0.004c-0.047,0-0.092,0-0.137,0.002c-3.686,0.176-6.664,3.324-6.645,7.016
	C251.736,315.82,253.627,318.453,256.426,319.417"/>
<path fill="#585A5E" d="M265.473,324.974c0.121-0.051,0.264-0.092,0.42-0.123c0.145-0.031,0.307-0.053,0.484-0.059
	c0,0-0.008-0.053-0.018-0.135c-0.006-0.08-0.043-0.188-0.08-0.291c-0.018-0.053-0.035-0.105-0.055-0.152
	c-0.02-0.049-0.049-0.092-0.068-0.131c-0.041-0.074-0.068-0.123-0.068-0.123c-0.174-0.029-0.34-0.068-0.5-0.113
	c-0.162-0.047-0.316-0.1-0.451-0.156c-0.256-0.111-0.496-0.238-0.623-0.379c-0.152-0.133-0.182-0.268-0.176-0.389
	c0.008-0.059,0.035-0.117,0.082-0.172c0.043-0.051,0.1-0.1,0.182-0.141c0,0-0.061-0.033-0.15-0.086
	c-0.047-0.023-0.096-0.053-0.154-0.084c-0.062-0.029-0.127-0.061-0.191-0.09c-0.127-0.061-0.254-0.121-0.359-0.162
	c-0.102-0.041-0.168-0.068-0.168-0.068c-0.125,0.018-0.26,0.025-0.395,0.027c-0.141,0.004-0.285,0-0.424-0.012
	c-0.275-0.021-0.555-0.061-0.795-0.133c-0.125-0.031-0.232-0.07-0.324-0.111c-0.094-0.041-0.176-0.082-0.242-0.129
	c-0.127-0.092-0.215-0.186-0.213-0.281c0,0-0.078-0.012-0.191-0.031c-0.121-0.02-0.375-0.053-0.537-0.074
	c-0.002,0.027-0.02,0.053-0.025,0.098l-0.041,0.197c-0.084,0.395,0.145,0.795,0.533,0.906c0.949,0.277,1.666,0.732,1.873,1.293
	c0.42,1.129-1.34,2.234-4.018,2.234s-4.438-1.105-4.02-2.234c0.203-0.545,0.893-0.994,1.807-1.271
	c0.406-0.123,0.646-0.541,0.559-0.955l-0.057-0.268c-0.105,0.012-0.23,0.029-0.357,0.043c-0.158,0.018-0.311,0.047-0.426,0.064
	c-0.117,0.02-0.195,0.033-0.195,0.033c0.008,0.092-0.057,0.195-0.182,0.283c-0.066,0.045-0.139,0.092-0.227,0.135
	c-0.09,0.043-0.199,0.078-0.312,0.117c-0.119,0.037-0.25,0.064-0.383,0.088c-0.131,0.025-0.27,0.043-0.412,0.057
	c-0.283,0.021-0.568,0.027-0.828-0.006c0,0-0.018,0.008-0.047,0.02c-0.027,0.012-0.074,0.029-0.119,0.051
	c-0.096,0.045-0.223,0.107-0.352,0.168c-0.127,0.064-0.24,0.133-0.332,0.184c-0.047,0.025-0.086,0.047-0.111,0.061
	c-0.023,0.018-0.037,0.027-0.037,0.027c0.178,0.082,0.277,0.193,0.297,0.314c0.045,0.125-0.016,0.256-0.133,0.398
	c-0.066,0.074-0.158,0.141-0.25,0.207c-0.1,0.068-0.223,0.131-0.359,0.191c-0.258,0.123-0.592,0.23-0.951,0.295
	c0,0-0.031,0.051-0.055,0.127c-0.027,0.076-0.064,0.182-0.102,0.287c-0.016,0.105-0.029,0.215-0.041,0.299
	c-0.016,0.084-0.008,0.137-0.008,0.137c0.369,0.004,0.699,0.066,0.945,0.166c0.287,0.094,0.459,0.236,0.594,0.41
	c0.105,0.186,0.146,0.381,0.053,0.607c-0.064,0.219-0.244,0.465-0.539,0.688c0,0,0.018,0.014,0.047,0.039
	c0.031,0.023,0.078,0.057,0.135,0.096c0.117,0.08,0.262,0.195,0.436,0.297c0.182,0.1,0.365,0.199,0.506,0.277
	c0.068,0.039,0.139,0.062,0.184,0.084c0.045,0.02,0.072,0.031,0.072,0.031c0.412-0.178,0.855-0.268,1.301-0.314
	c0.221-0.023,0.439-0.029,0.646-0.016c0.213,0.01,0.428,0.027,0.631,0.074c0.199,0.055,0.395,0.104,0.566,0.18
	c0.174,0.074,0.328,0.174,0.475,0.268c0.291,0.199,0.516,0.482,0.613,0.777c0,0,0.15,0.006,0.377,0.016
	c0.227,0.006,0.527,0.025,0.828,0.01c0.301-0.01,0.604-0.014,0.826-0.029c0.221-0.021,0.369-0.035,0.369-0.035
	c0.031-0.154,0.1-0.299,0.193-0.432c0.045-0.064,0.1-0.127,0.158-0.184c0.057-0.059,0.115-0.121,0.182-0.174
	c0.131-0.107,0.281-0.201,0.449-0.275c0.164-0.076,0.34-0.148,0.543-0.193c0.207-0.041,0.402-0.082,0.613-0.098
	c0.207-0.018,0.434-0.008,0.645,0.002c0.428,0.023,0.904,0.121,1.318,0.277c0,0,0.092-0.051,0.229-0.127
	c0.131-0.078,0.318-0.17,0.463-0.285c0.148-0.109,0.303-0.213,0.396-0.299s0.152-0.143,0.152-0.143
	c-0.309-0.213-0.484-0.439-0.598-0.664c-0.053-0.109-0.068-0.211-0.07-0.312c-0.008-0.1,0.014-0.195,0.07-0.283
	C265.035,325.212,265.24,325.08,265.473,324.974"/>
<path fill="#585A5E" d="M255.211,312.843c-0.008,0.879,0.418,1.674,1.105,2.236c0.854,0.693,1.551,2.096,1.592,3.629
	c0.045,1.701-0.07,3.668-0.141,4.67c-0.91,0.129-1.553,0.436-1.553,0.789c0,0.471,1.135,1.016,2.531,1.016
	c1.4,0,2.531-0.545,2.531-1.016c0-0.354-0.639-0.66-1.549-0.789c-0.072-1.002-0.188-2.969-0.145-4.67
	c0.043-1.533,0.74-2.936,1.592-3.629c0.689-0.562,1.115-1.357,1.107-2.236c-0.014-1.678-1.598-3.025-3.537-3.025
	C256.809,309.818,255.225,311.166,255.211,312.843"/>
<g>
	<g>
		<path fill="#585A5E" d="M324.145,327.086c-0.484,0-0.943-0.215-1.252-0.604l-4.717-5.863c-0.309-0.389-0.432-0.889-0.309-1.373
			l1.684-7.316c0.107-0.486,0.432-0.877,0.875-1.092l6.818-3.262c0.215-0.107,0.457-0.16,0.701-0.16c0.242,0,0.484,0.053,0.699,0.16
			l6.818,3.248c0.445,0.215,0.768,0.607,0.875,1.092l1.686,7.316c0.107,0.484,0,0.982-0.311,1.375l-4.717,5.859
			c-0.309,0.377-0.768,0.607-1.252,0.607L324.145,327.086z"/>
		<path fill="#FFFFFF" d="M334.762,318.733L334.762,318.733C334.748,318.733,334.748,318.733,334.762,318.733h-0.014
			c-0.014,0-0.027,0-0.027-0.014c-0.025,0-0.053-0.012-0.08-0.012c-0.094-0.014-0.176-0.027-0.256-0.027
			c-0.041,0-0.082,0-0.135-0.014h-0.014c-0.283-0.027-0.512-0.055-0.729-0.121c-0.094-0.041-0.121-0.094-0.146-0.148
			c0-0.014-0.014-0.014-0.014-0.025l-0.176-0.055c0.08-0.619,0.055-1.268-0.094-1.9s-0.404-1.227-0.754-1.766l0.135-0.119v-0.029
			c0-0.066,0.012-0.133,0.066-0.201c0.162-0.148,0.363-0.27,0.605-0.418c0.041-0.027,0.082-0.041,0.121-0.068
			c0.082-0.039,0.148-0.08,0.23-0.135c0.014-0.012,0.041-0.025,0.066-0.053c0.014-0.014,0.027-0.014,0.027-0.027
			c0.188-0.162,0.229-0.432,0.094-0.605c-0.066-0.096-0.188-0.148-0.309-0.148c-0.109,0-0.203,0.039-0.297,0.107
			c-0.014,0.014-0.014,0.014-0.027,0.027c-0.027,0.014-0.041,0.039-0.068,0.055c-0.066,0.066-0.121,0.121-0.174,0.188
			c-0.027,0.027-0.055,0.066-0.094,0.094c-0.189,0.203-0.365,0.363-0.539,0.486c-0.041,0.027-0.082,0.039-0.121,0.039
			c-0.027,0-0.055,0-0.082-0.012h-0.027l-0.16,0.107c-0.176-0.189-0.365-0.352-0.553-0.514c-0.809-0.633-1.793-1.023-2.816-1.117
			l-0.014-0.176c-0.014-0.012-0.014-0.012-0.027-0.027c-0.039-0.039-0.094-0.08-0.107-0.174c-0.014-0.217,0.014-0.459,0.041-0.727
			v-0.016c0-0.039,0.014-0.094,0.027-0.135c0.012-0.08,0.025-0.162,0.039-0.256v-0.08v-0.041c0-0.242-0.188-0.445-0.416-0.445
			c-0.109,0-0.217,0.057-0.297,0.137c-0.082,0.08-0.121,0.188-0.121,0.309v0.027v0.082c0,0.094,0.014,0.174,0.039,0.254
			c0.014,0.041,0.014,0.082,0.027,0.135v0.014c0.027,0.27,0.068,0.514,0.041,0.729c-0.014,0.094-0.068,0.135-0.107,0.174
			c-0.014,0.014-0.014,0.014-0.027,0.029l-0.014,0.174c-0.242,0.027-0.484,0.055-0.729,0.107c-1.037,0.229-1.953,0.756-2.668,1.51
			l-0.133-0.096h-0.027c-0.027,0-0.055,0.016-0.082,0.016c-0.041,0-0.08-0.016-0.119-0.041c-0.178-0.121-0.352-0.297-0.539-0.5
			c-0.027-0.025-0.055-0.066-0.096-0.092c-0.053-0.068-0.107-0.121-0.176-0.189c-0.012-0.014-0.041-0.027-0.066-0.055
			c-0.014-0.014-0.027-0.014-0.027-0.027c-0.08-0.066-0.189-0.107-0.297-0.107c-0.121,0-0.242,0.055-0.311,0.148
			c-0.133,0.176-0.094,0.445,0.096,0.607c0.014,0,0.014,0.012,0.027,0.012c0.027,0.014,0.039,0.041,0.066,0.055
			c0.082,0.053,0.148,0.094,0.229,0.135c0.041,0.014,0.082,0.039,0.121,0.066c0.244,0.15,0.445,0.27,0.607,0.418
			c0.066,0.068,0.066,0.135,0.066,0.203v0.027l0.137,0.119c-0.027,0.041-0.055,0.068-0.068,0.109
			c-0.674,1.064-0.93,2.318-0.754,3.557l-0.176,0.055c0,0.012-0.014,0.012-0.014,0.025c-0.027,0.055-0.066,0.107-0.148,0.148
			c-0.201,0.068-0.445,0.094-0.727,0.121h-0.014c-0.041,0-0.094,0-0.135,0.014c-0.08,0-0.162,0.014-0.256,0.027
			c-0.027,0-0.055,0.014-0.082,0.014c-0.014,0-0.025,0-0.039,0.014c-0.242,0.055-0.393,0.283-0.352,0.498
			c0.041,0.189,0.217,0.311,0.432,0.311c0.041,0,0.066,0,0.107-0.014c0.014,0,0.027,0,0.027-0.014c0.027,0,0.053-0.014,0.082-0.014
			c0.094-0.027,0.16-0.053,0.242-0.094c0.039-0.014,0.08-0.041,0.121-0.055h0.014c0.256-0.094,0.484-0.176,0.699-0.201h0.027
			c0.08,0,0.135,0.039,0.176,0.066c0.014,0,0.014,0.014,0.025,0.014l0.189-0.027c0.324,0.998,0.943,1.887,1.766,2.535
			c0.189,0.146,0.377,0.268,0.58,0.389l-0.082,0.176c0,0.014,0.014,0.014,0.014,0.027c0.027,0.053,0.055,0.121,0.027,0.215
			c-0.082,0.201-0.203,0.404-0.35,0.633v0.014c-0.027,0.041-0.055,0.068-0.082,0.107c-0.055,0.068-0.094,0.135-0.148,0.217
			c-0.014,0.014-0.027,0.039-0.041,0.066c0,0.014-0.012,0.027-0.012,0.027c-0.109,0.229-0.027,0.484,0.174,0.58
			c0.055,0.025,0.109,0.039,0.162,0.039c0.162,0,0.324-0.107,0.404-0.256c0-0.014,0.014-0.025,0.014-0.025
			c0.014-0.027,0.027-0.055,0.041-0.068c0.039-0.094,0.053-0.162,0.08-0.242c0.014-0.041,0.027-0.082,0.041-0.121
			c0.094-0.27,0.162-0.484,0.283-0.674c0.053-0.082,0.121-0.096,0.174-0.121c0.014,0,0.014,0,0.027-0.014l0.094-0.174
			c0.594,0.227,1.24,0.348,1.887,0.348c0.391,0,0.795-0.039,1.172-0.135c0.242-0.053,0.473-0.121,0.701-0.201l0.08,0.148
			c0.014,0,0.014,0,0.027,0.014c0.066,0.014,0.121,0.039,0.176,0.121c0.107,0.188,0.188,0.418,0.283,0.674v0.014
			c0.014,0.039,0.025,0.08,0.041,0.121c0.025,0.08,0.039,0.162,0.08,0.242c0.014,0.027,0.025,0.041,0.039,0.068
			c0,0.012,0.014,0.025,0.014,0.025c0.082,0.162,0.244,0.256,0.404,0.256c0.055,0,0.109-0.014,0.162-0.039
			c0.096-0.055,0.176-0.135,0.201-0.242c0.027-0.109,0.027-0.23-0.025-0.338c0-0.014-0.014-0.014-0.014-0.027
			c-0.014-0.027-0.027-0.053-0.041-0.066c-0.041-0.082-0.094-0.148-0.148-0.217c-0.025-0.039-0.053-0.066-0.08-0.107v-0.014
			c-0.148-0.229-0.283-0.432-0.352-0.633c-0.025-0.094,0-0.148,0.016-0.215c0-0.014,0.012-0.014,0.012-0.027l-0.066-0.162
			c0.713-0.418,1.32-1.01,1.779-1.736c0.242-0.379,0.43-0.797,0.564-1.215l0.162,0.027c0.014,0,0.014-0.014,0.027-0.014
			c0.053-0.027,0.094-0.066,0.174-0.066h0.027c0.215,0.025,0.445,0.107,0.701,0.201h0.014c0.039,0.014,0.08,0.041,0.121,0.055
			c0.08,0.039,0.148,0.066,0.242,0.096c0.027,0,0.055,0.012,0.082,0.012c0.012,0,0.025,0,0.039,0.014
			c0.041,0.014,0.068,0.014,0.107,0.014c0.203,0,0.377-0.135,0.432-0.311C335.152,319.016,335.004,318.801,334.762,318.733
			 M328.523,318.075l-0.594,0.281l-0.592-0.281l-0.148-0.635l0.404-0.512h0.66l0.404,0.512L328.523,318.075z M332.041,316.672
			c0.107,0.457,0.133,0.916,0.094,1.361l-2.061-0.594c-0.189-0.053-0.297-0.242-0.258-0.432c0.014-0.053,0.041-0.107,0.082-0.146
			l1.631-1.469C331.758,315.77,331.932,316.202,332.041,316.672 M330.881,314.584l-1.764,1.252c-0.148,0.096-0.352,0.068-0.471-0.08
			c-0.041-0.041-0.057-0.094-0.068-0.148l-0.121-2.195C329.385,313.52,330.234,313.938,330.881,314.584 M326.975,313.479
			c0.148-0.025,0.281-0.055,0.432-0.08l-0.121,2.154c-0.014,0.189-0.162,0.352-0.365,0.352c-0.053,0-0.121-0.014-0.162-0.039
			l-1.791-1.281C325.52,314.032,326.207,313.655,326.975,313.479 M324.32,315.393l1.604,1.428c0.148,0.121,0.16,0.35,0.039,0.498
			c-0.039,0.055-0.094,0.096-0.162,0.107l-2.088,0.607C323.633,317.118,323.834,316.188,324.32,315.393 M323.957,319.043
			l2.141-0.363c0.176-0.014,0.338,0.107,0.377,0.283c0.016,0.08,0.016,0.148-0.014,0.215l-0.82,1.982
			C324.885,320.674,324.279,319.932,323.957,319.043 M328.875,321.725c-0.311,0.066-0.621,0.107-0.945,0.107
			c-0.471,0-0.928-0.08-1.359-0.215l1.064-1.928c0.107-0.121,0.283-0.174,0.432-0.094c0.066,0.041,0.121,0.094,0.162,0.148
			l1.035,1.873C329.143,321.659,329.008,321.684,328.875,321.725 M331.502,319.852c-0.338,0.539-0.783,0.971-1.293,1.309
			l-0.85-2.037c-0.041-0.16,0.025-0.336,0.188-0.416c0.055-0.027,0.121-0.041,0.189-0.041l2.156,0.365
			C331.812,319.327,331.676,319.596,331.502,319.852"/>
	</g>
	<path fill-rule="evenodd" clip-rule="evenodd" fill="#585A5E" d="M373.492,315.132c-0.576-0.386-1.9-0.526-2.92-0.334
		c-0.131-0.96-0.666-1.793-1.639-2.545l-0.561-0.373L368,312.44c-0.479,0.721-0.717,1.72-0.637,2.677
		c0.033,0.337,0.145,0.94,0.49,1.47c-0.346,0.187-1.029,0.442-1.932,0.425h-17.357l-0.033,0.2c-0.164,0.962-0.16,3.965,1.789,6.273
		c1.482,1.754,3.705,2.644,6.604,2.644c6.287,0,10.939-2.894,13.115-8.153c0.857,0.017,2.701,0.005,3.648-1.806
		c0.025-0.042,0.082-0.149,0.246-0.493l0.092-0.188L373.492,315.132z M359.803,310.774h2.641v-2.399h-2.641V310.774z
		 M359.803,313.653h2.641v-2.399h-2.641V313.653z M356.684,313.653h2.641v-2.399h-2.641V313.653z M353.564,313.653h2.641v-2.399
		h-2.641V313.653z M350.447,316.532h2.639v-2.399h-2.639V316.532z M353.564,316.532h2.641v-2.399h-2.641V316.532z M356.684,316.532
		h2.641v-2.399h-2.641V316.532z M359.803,316.532h2.641v-2.399h-2.641V316.532z M362.922,316.532h2.639v-2.399h-2.639V316.532z"/>
	<g>
		<path fill="#585A5E" d="M388.195,319.418c0,0,0.398-1.506-1.328-3.447l-0.059-0.061c-0.727-0.863-1.129-1.957-1.129-3.082
			c0-2.639,2.15-4.787,4.795-4.787h0.111c2.643,0,4.795,2.148,4.795,4.787c0,1.125-0.402,2.219-1.129,3.08
			c-0.01,0.01-0.029,0.031-0.059,0.061c-1.531,1.535-1.33,3.449-1.33,3.449c2.801-0.965,4.691-3.598,4.707-6.551
			c0.021-3.691-2.959-6.84-6.643-7.016c-0.045-0.002-0.09-0.002-0.137-0.002c-0.055,0-0.262,0.004-0.262,0.004
			c-0.006,0-0.205-0.004-0.26-0.004c-0.047,0-0.092,0-0.137,0.002c-3.686,0.176-6.664,3.324-6.645,7.016
			C383.506,315.821,385.396,318.454,388.195,319.418"/>
		<path fill="#585A5E" d="M397.242,324.975c0.121-0.051,0.264-0.092,0.42-0.123c0.145-0.031,0.307-0.053,0.484-0.059
			c0,0-0.008-0.053-0.018-0.135c-0.006-0.08-0.043-0.188-0.08-0.291c-0.018-0.053-0.035-0.105-0.055-0.152
			c-0.02-0.049-0.049-0.092-0.068-0.131c-0.041-0.074-0.068-0.123-0.068-0.123c-0.174-0.029-0.34-0.068-0.5-0.113
			c-0.162-0.047-0.316-0.1-0.451-0.156c-0.256-0.111-0.496-0.238-0.623-0.379c-0.152-0.133-0.182-0.268-0.176-0.389
			c0.008-0.059,0.035-0.117,0.082-0.172c0.043-0.051,0.1-0.1,0.182-0.141c0,0-0.061-0.033-0.15-0.086
			c-0.047-0.023-0.096-0.053-0.154-0.084c-0.062-0.029-0.127-0.061-0.191-0.09c-0.127-0.061-0.254-0.121-0.359-0.162
			c-0.102-0.041-0.168-0.068-0.168-0.068c-0.125,0.018-0.26,0.025-0.395,0.027c-0.141,0.004-0.285,0-0.424-0.012
			c-0.275-0.021-0.555-0.061-0.795-0.133c-0.125-0.031-0.232-0.07-0.324-0.111c-0.094-0.041-0.176-0.082-0.242-0.129
			c-0.127-0.092-0.215-0.186-0.213-0.281c0,0-0.078-0.012-0.191-0.031c-0.121-0.02-0.375-0.053-0.537-0.074
			c-0.002,0.027-0.02,0.053-0.025,0.098l-0.041,0.197c-0.084,0.395,0.145,0.795,0.533,0.906c0.949,0.277,1.666,0.732,1.873,1.293
			c0.42,1.129-1.34,2.234-4.018,2.234s-4.438-1.105-4.02-2.234c0.203-0.545,0.893-0.994,1.807-1.271
			c0.406-0.123,0.646-0.541,0.559-0.955l-0.057-0.268c-0.105,0.012-0.23,0.029-0.357,0.043c-0.158,0.018-0.311,0.047-0.426,0.064
			c-0.117,0.02-0.195,0.033-0.195,0.033c0.008,0.092-0.057,0.195-0.182,0.283c-0.066,0.045-0.139,0.092-0.227,0.135
			c-0.09,0.043-0.199,0.078-0.312,0.117c-0.119,0.037-0.25,0.064-0.383,0.088c-0.131,0.025-0.27,0.043-0.412,0.057
			c-0.283,0.021-0.568,0.027-0.828-0.006c0,0-0.018,0.008-0.047,0.02c-0.027,0.012-0.074,0.029-0.119,0.051
			c-0.096,0.045-0.223,0.107-0.352,0.168c-0.127,0.064-0.24,0.133-0.332,0.184c-0.047,0.025-0.086,0.047-0.111,0.061
			c-0.023,0.018-0.037,0.027-0.037,0.027c0.178,0.082,0.277,0.193,0.297,0.314c0.045,0.125-0.016,0.256-0.133,0.398
			c-0.066,0.074-0.158,0.141-0.25,0.207c-0.1,0.068-0.223,0.131-0.359,0.191c-0.258,0.123-0.592,0.23-0.951,0.295
			c0,0-0.031,0.051-0.055,0.127c-0.027,0.076-0.064,0.182-0.102,0.287c-0.016,0.105-0.029,0.215-0.041,0.299
			c-0.016,0.084-0.008,0.137-0.008,0.137c0.369,0.004,0.699,0.066,0.945,0.166c0.287,0.094,0.459,0.236,0.594,0.41
			c0.105,0.186,0.146,0.381,0.053,0.607c-0.064,0.219-0.244,0.465-0.539,0.688c0,0,0.018,0.014,0.047,0.039
			c0.031,0.023,0.078,0.057,0.135,0.096c0.117,0.08,0.262,0.195,0.436,0.297c0.182,0.1,0.365,0.199,0.506,0.277
			c0.068,0.039,0.139,0.062,0.184,0.084c0.045,0.02,0.072,0.031,0.072,0.031c0.412-0.178,0.855-0.268,1.301-0.314
			c0.221-0.023,0.439-0.029,0.646-0.016c0.213,0.01,0.428,0.027,0.631,0.074c0.199,0.055,0.395,0.104,0.566,0.18
			c0.174,0.074,0.328,0.174,0.475,0.268c0.291,0.199,0.516,0.482,0.613,0.777c0,0,0.15,0.006,0.377,0.016
			c0.227,0.006,0.527,0.025,0.828,0.01c0.301-0.01,0.604-0.014,0.826-0.029c0.221-0.021,0.369-0.035,0.369-0.035
			c0.031-0.154,0.1-0.299,0.193-0.432c0.045-0.064,0.1-0.127,0.158-0.184c0.057-0.059,0.115-0.121,0.182-0.174
			c0.131-0.107,0.281-0.201,0.449-0.275c0.164-0.076,0.34-0.148,0.543-0.193c0.207-0.041,0.402-0.082,0.613-0.098
			c0.207-0.018,0.434-0.008,0.645,0.002c0.428,0.023,0.904,0.121,1.318,0.277c0,0,0.092-0.051,0.229-0.127
			c0.131-0.078,0.318-0.17,0.463-0.285c0.148-0.109,0.303-0.213,0.396-0.299s0.152-0.143,0.152-0.143
			c-0.309-0.213-0.484-0.439-0.598-0.664c-0.053-0.109-0.068-0.211-0.07-0.312c-0.008-0.1,0.014-0.195,0.07-0.283
			C396.805,325.213,397.01,325.081,397.242,324.975"/>
		<path fill="#585A5E" d="M386.98,312.844c-0.008,0.879,0.418,1.674,1.105,2.236c0.854,0.693,1.551,2.096,1.592,3.629
			c0.045,1.701-0.07,3.668-0.141,4.67c-0.91,0.129-1.553,0.436-1.553,0.789c0,0.471,1.135,1.016,2.531,1.016
			c1.4,0,2.531-0.545,2.531-1.016c0-0.354-0.639-0.66-1.549-0.789c-0.072-1.002-0.188-2.969-0.145-4.67
			c0.043-1.533,0.74-2.936,1.592-3.629c0.689-0.562,1.115-1.357,1.107-2.236c-0.014-1.678-1.598-3.025-3.537-3.025
			C388.578,309.819,386.994,311.167,386.98,312.844"/>
	</g>
</g>
<rect x="298.753" y="200.134" fill="#FFFFFF" width="118.462" height="66.713"/>
<g>
	<path fill="#585A5E" d="M326.885,216.647h0.953c0.175,0.553,0.592,0.828,1.252,0.828c0.324,0,0.583-0.073,0.778-0.221
		c0.194-0.146,0.292-0.346,0.292-0.599c0-0.197-0.061-0.355-0.184-0.472c-0.123-0.117-0.329-0.209-0.617-0.274l-0.936-0.226
		c-0.918-0.216-1.377-0.711-1.377-1.484c0-0.475,0.176-0.866,0.526-1.175c0.351-0.31,0.802-0.464,1.354-0.464
		c0.582,0,1.051,0.137,1.408,0.41c0.357,0.272,0.586,0.646,0.688,1.12h-0.937c-0.174-0.492-0.557-0.738-1.151-0.738
		c-0.3,0-0.542,0.071-0.725,0.212s-0.274,0.325-0.274,0.554c0,0.365,0.243,0.605,0.729,0.72l0.963,0.225
		c0.451,0.103,0.802,0.282,1.054,0.54s0.378,0.588,0.378,0.99c0,0.51-0.184,0.917-0.549,1.22c-0.366,0.303-0.84,0.454-1.422,0.454
		c-0.588,0-1.078-0.143-1.472-0.428C327.225,217.555,326.98,217.158,326.885,216.647z"/>
	<path fill="#585A5E" d="M332.617,212.651h3.609v0.828h-2.691v1.458h2.439v0.819h-2.439v1.584h2.691v0.837h-3.609V212.651z"/>
	<path fill="#585A5E" d="M339.476,215.936h-0.666v2.241h-0.937v-5.526h2.134c0.582,0,1.041,0.143,1.377,0.428
		s0.504,0.694,0.504,1.229c0,0.456-0.124,0.817-0.374,1.085c-0.248,0.267-0.596,0.437-1.039,0.508l1.602,2.277h-1.062
		L339.476,215.936z M338.81,213.461v1.691h1.179c0.307,0,0.545-0.076,0.716-0.229c0.171-0.152,0.257-0.358,0.257-0.616
		s-0.086-0.464-0.257-0.616c-0.171-0.153-0.409-0.229-0.716-0.229H338.81z"/>
	<path fill="#585A5E" d="M345.955,218.177h-0.891l-2.088-5.526h0.98l1.566,4.312l1.566-4.312h0.953L345.955,218.177z"/>
	<path fill="#585A5E" d="M350.393,212.651v5.526h-0.937v-5.526H350.393z"/>
	<path fill="#585A5E" d="M352.664,217.471c-0.477-0.531-0.715-1.217-0.715-2.057s0.238-1.525,0.715-2.057
		c0.478-0.531,1.076-0.797,1.797-0.797c0.611,0,1.112,0.164,1.502,0.49c0.391,0.327,0.639,0.773,0.748,1.337h-0.918
		c-0.24-0.654-0.685-0.98-1.332-0.98c-0.48,0-0.861,0.188-1.144,0.562s-0.423,0.856-0.423,1.444s0.141,1.069,0.423,1.444
		s0.663,0.562,1.144,0.562c0.647,0,1.092-0.33,1.332-0.99h0.918c-0.109,0.57-0.357,1.019-0.748,1.346
		c-0.39,0.327-0.891,0.49-1.502,0.49C353.74,218.267,353.142,218.001,352.664,217.471z"/>
	<path fill="#585A5E" d="M358.249,212.651h3.609v0.828h-2.691v1.458h2.439v0.819h-2.439v1.584h2.691v0.837h-3.609V212.651z"/>
	<path fill="#585A5E" d="M369.202,218.177h-0.666l-1.521-3.843v3.843h-0.892v-5.526h1.071l1.684,4.248l1.664-4.248h1.045v5.526h-0.9
		v-3.843L369.202,218.177z"/>
	<path fill="#585A5E" d="M373.441,212.651h3.609v0.828h-2.691v1.458h2.439v0.819h-2.439v1.584h2.691v0.837h-3.609V212.651z"/>
	<path fill="#585A5E" d="M378.266,216.647h0.953c0.174,0.553,0.592,0.828,1.251,0.828c0.324,0,0.583-0.073,0.778-0.221
		c0.195-0.146,0.293-0.346,0.293-0.599c0-0.197-0.062-0.355-0.185-0.472c-0.123-0.117-0.329-0.209-0.616-0.274l-0.936-0.226
		c-0.919-0.216-1.378-0.711-1.378-1.484c0-0.475,0.176-0.866,0.526-1.175c0.352-0.31,0.803-0.464,1.355-0.464
		c0.581,0,1.051,0.137,1.408,0.41c0.356,0.272,0.586,0.646,0.688,1.12h-0.936c-0.174-0.492-0.558-0.738-1.152-0.738
		c-0.299,0-0.541,0.071-0.725,0.212c-0.183,0.141-0.273,0.325-0.273,0.554c0,0.365,0.242,0.605,0.729,0.72l0.963,0.225
		c0.45,0.103,0.801,0.282,1.053,0.54s0.379,0.588,0.379,0.99c0,0.51-0.184,0.917-0.549,1.22c-0.367,0.303-0.841,0.454-1.423,0.454
		c-0.588,0-1.078-0.143-1.472-0.428C378.605,217.555,378.361,217.158,378.266,216.647z"/>
	<path fill="#585A5E" d="M387.715,212.651h0.936v5.526h-0.936v-2.421h-2.781v2.421h-0.936v-5.526h0.936v2.277h2.781V212.651z"/>
</g>
<g>
	<g>
		<path fill="#585A5E" d="M339.66,249.326v-19.373c3.342,7.07,6.67,14.113,10.047,21.257
			C346.326,250.576,343.033,249.958,339.66,249.326"/>
		<path fill="#585A5E" d="M338.096,249.328c-1.797,0.584-3.572,1.164-5.496,1.789c1.85-4.352,3.641-8.57,5.432-12.791
			c0.021,0.004,0.043,0.008,0.064,0.014V249.328z"/>
		<path fill="#585A5E" d="M349,252.427c-3.812,1.023-7.518,2.02-11.232,3.018c-1.496-0.996-2.975-1.977-4.541-3.018H349z"/>
	</g>
	<g>
		<path fill="#585A5E" d="M367.004,247.157c-0.006-0.804-0.037-1.606-0.002-2.407c0.008-0.202,0.172-0.456,0.342-0.579
			c0.381-0.277,0.812-0.487,1.223-0.723c0.408-0.238,0.818-0.475,1.32-0.764c-0.645-0.369-1.23-0.72-1.832-1.037
			c-0.092-0.05-0.273,0.014-0.387,0.077c-0.795,0.446-1.592,0.891-2.363,1.374c-0.156,0.099-0.277,0.357-0.295,0.554
			c-0.047,0.58-0.031,1.165-0.041,1.748c-0.525,0-1.051,0-1.576-0.001c-0.006-0.93-0.027-1.858-0.004-2.785
			c0.004-0.17,0.158-0.398,0.311-0.491c0.82-0.504,1.662-0.973,2.592-1.509c-0.65-0.374-1.232-0.722-1.83-1.039
			c-0.092-0.047-0.275,0.014-0.387,0.077c-0.793,0.444-1.588,0.892-2.361,1.371c-0.146,0.091-0.279,0.319-0.291,0.495
			c-0.043,0.562-0.025,1.129-0.033,1.692c-0.541-0.001-1.084-0.002-1.625-0.002v-2.957c0.545-0.336,1.094-0.671,1.639-1.007
			c0.41-0.216,0.816-0.433,1.312-0.696c-0.469-0.268-0.852-0.485-1.336-0.763v1.047c-0.539-0.001-1.076-0.003-1.615-0.005v-2.081
			c0.385-0.196,0.791-0.357,1.145-0.597c0.338-0.229,0.594-0.202,0.936-0.006c4.391,2.544,8.775,5.099,13.199,7.582
			c0.809,0.453,1.178,0.922,1.061,1.845c-0.084,0.663-0.027,1.344-0.035,2.017c-0.379,0-0.76,0.011-1.139-0.003
			c-0.277-0.011-0.385,0.098-0.385,0.379c0.004,0.541-0.021,1.083-0.035,1.624c-0.137-0.112-0.262-0.248-0.414-0.336
			c-1.707-0.99-3.418-1.974-5.129-2.957c-0.102-0.058-0.217-0.094-0.373-0.159c-0.02,0.379-0.037,0.699-0.053,1.021
			C368.029,247.156,367.516,247.157,367.004,247.157 M374.504,247.593c0-0.779,0.014-1.429-0.014-2.075
			c-0.006-0.118-0.162-0.267-0.285-0.34c-0.795-0.475-1.598-0.937-2.406-1.39c-0.111-0.062-0.295-0.119-0.387-0.07
			c-0.588,0.312-1.158,0.654-1.826,1.039C371.246,245.714,372.811,246.617,374.504,247.593"/>
		<path fill="#585A5E" d="M383.293,240.139v3.18c-0.537-0.003-1.074-0.003-1.609-0.006c-0.008-0.546-0.043-1.094-0.008-1.638
			c0.025-0.388-0.135-0.579-0.449-0.76c-4.439-2.545-8.869-5.1-13.303-7.653c-0.156-0.091-0.316-0.177-0.473-0.271
			c-0.299-0.186-0.32-0.38-0.008-0.575c0.324-0.2,0.646-0.398,0.973-0.596h0.328c0.832,0.485,1.658,0.984,2.504,1.446
			c0.15,0.083,0.426,0.084,0.578,0.001c0.846-0.462,1.67-0.962,2.502-1.447h0.33c0.307,0.188,0.615,0.381,0.926,0.565
			c0.357,0.214,0.367,0.421-0.002,0.633c-0.771,0.443-1.545,0.89-2.395,1.379c0.629,0.362,1.193,0.708,1.781,1.01
			c0.119,0.061,0.348-0.006,0.49-0.083c0.67-0.366,1.352-0.721,1.984-1.146c0.467-0.313,0.859-0.326,1.279,0.021
			c0.242,0.198,0.484,0.398,0.727,0.599c-0.24,0.182-0.467,0.387-0.721,0.542c-0.621,0.378-1.252,0.734-1.936,1.13
			c0.604,0.352,1.141,0.691,1.707,0.972c0.15,0.075,0.422,0.023,0.586-0.065c0.752-0.405,1.492-0.837,2.227-1.277
			c0.26-0.157,0.461-0.125,0.746-0.019c1.031,0.382,1.467,1.059,1.258,2.151c-0.049,0.265-0.018,0.546-0.023,0.818h-1.6v-1.263
			c-0.482,0.274-0.865,0.494-1.332,0.76c0.492,0.265,0.898,0.483,1.305,0.701C382.209,239.544,382.75,239.842,383.293,240.139"/>
		<path fill="#585A5E" d="M359.764,243.208c0.541,0,1.084,0.001,1.625,0.002c0,1.131,0,2.264-0.002,3.395
			c-0.541,0-1.082,0-1.623-0.001V243.208z"/>
		<path fill="#585A5E" d="M359.764,246.603c0.541,0.001,1.082,0.001,1.623,0.002c0.002,0.619,0.004,1.238,0.006,1.857
			c-0.484,0.044-0.969,0.089-1.455,0.133c-0.057-0.043-0.115-0.087-0.174-0.131V246.603z"/>
		<path fill="#585A5E" d="M361.402,239.245c-0.545,0.336-1.092,0.671-1.639,1.007v-1.424c0.539,0.002,1.078,0.004,1.617,0.005
			C361.387,238.971,361.395,239.107,361.402,239.245"/>
		<path fill="#585A5E" d="M378.104,245.616c-0.01-0.62-0.047-1.239-0.02-1.856c0.02-0.385-0.125-0.581-0.447-0.766
			c-4.426-2.535-8.844-5.083-13.26-7.636c-0.271-0.157-0.504-0.386-0.754-0.581c0.248-0.196,0.5-0.389,0.742-0.59
			c0.432-0.356,0.809-0.273,1.281,0.001c4.52,2.629,9.055,5.234,13.592,7.829c0.346,0.199,0.484,0.408,0.469,0.809
			c-0.037,0.93-0.02,1.859-0.027,2.789C379.154,245.615,378.629,245.615,378.104,245.616"/>
		<path fill="#585A5E" d="M374.432,253.517c-0.824-0.45-1.66-0.885-2.469-1.359c-0.307-0.18-0.529-0.196-0.838-0.009
			c-0.824,0.498-1.672,0.955-2.508,1.429c0-0.623-0.002-1.247-0.002-1.871c0.398-0.228,0.797-0.455,1.275-0.729
			c-0.477-0.275-0.871-0.506-1.268-0.735c-0.002-0.625-0.004-1.251-0.004-1.876c1.945,1.112,3.893,2.226,5.838,3.339
			C374.449,252.309,374.439,252.914,374.432,253.517"/>
		<path fill="#585A5E" d="M368.617,248.366c0.002,0.625,0.004,1.251,0.006,1.876l-0.088,0.524c-0.508,0-1.02,0.001-1.529,0.001
			c0-1.204-0.002-2.407-0.002-3.611c0.512,0,1.025-0.001,1.537-0.001C368.566,247.558,368.592,247.962,368.617,248.366"/>
		<path fill="#585A5E" d="M381.684,243.313c0.535,0.002,1.072,0.003,1.609,0.005c0,1.097-0.002,2.191-0.002,3.287h-1.598
			C381.689,245.507,381.686,244.412,381.684,243.313"/>
		<path fill="#585A5E" d="M363.393,245.398c0.525,0.001,1.051,0.001,1.576,0.001c-0.002,1.022-0.004,2.045-0.006,3.067
			c-0.523,0.001-1.045,0.001-1.568,0.001C363.395,247.445,363.393,246.421,363.393,245.398"/>
		<path fill="#585A5E" d="M374.51,249.587c0.014-0.541,0.039-1.083,0.037-1.624c-0.002-0.281,0.105-0.39,0.383-0.379
			c0.379,0.014,0.76,0.003,1.141,0.003c-0.002,1.098-0.002,2.192-0.004,3.289c-0.512-0.001-1.02-0.001-1.531-0.001
			C374.527,250.446,374.518,250.018,374.51,249.587"/>
		<path fill="#585A5E" d="M378.104,245.616c0.525-0.001,1.051-0.001,1.576-0.001c0,0.951-0.002,1.901-0.002,2.854
			c-0.523,0-1.047,0-1.568-0.001C378.107,247.516,378.105,246.566,378.104,245.616"/>
		<path fill="#585A5E" d="M363.395,248.467c0.523,0,1.047,0,1.568-0.001c0.002,0.873,0.004,1.746,0.006,2.619
			c-0.168,0.042-0.334,0.085-0.502,0.127c-0.84-0.269-1.266-0.79-1.1-1.721C363.428,249.16,363.389,248.809,363.395,248.467"/>
		<path fill="#585A5E" d="M367.006,250.767c0.51,0,1.021-0.001,1.529-0.001c0.027,0.313,0.055,0.627,0.08,0.94
			c0,0.623,0,1.248,0,1.871c-0.49-0.266-0.986-0.52-1.465-0.806c-0.094-0.057-0.154-0.238-0.158-0.364
			C366.982,251.861,367,251.314,367.006,250.767"/>
		<path fill="#585A5E" d="M378.109,248.466c0.521,0.001,1.045,0.001,1.568,0.001c0.006,0.539,0.014,1.079,0.018,1.618
			c0.006,0.395-0.129,0.695-0.543,0.812c-0.254-0.487-0.711-0.124-1.053-0.248C378.104,249.921,378.105,249.195,378.109,248.466"/>
		<path fill="#585A5E" d="M374.535,250.875c0.51,0,1.021,0,1.531,0.001c0.006,0.055,0.016,0.106,0.016,0.16
			c0.043,1.741,0.041,1.741-1.57,2.481c-0.027-0.011-0.057-0.014-0.086-0.011l0.006,0.011c0.01-0.604,0.018-1.208,0.025-1.812
			C374.484,251.429,374.51,251.152,374.535,250.875"/>
		<path fill="#585A5E" d="M381.695,246.605h1.596c0.006,0.357-0.033,0.725,0.027,1.072c0.113,0.651-0.148,1.037-0.742,1.246
			c-0.295-0.045-0.592-0.089-0.889-0.133C381.689,248.061,381.693,247.333,381.695,246.605"/>
		<path fill="#585A5E" d="M381.693,239.049h1.6v1.09c-0.543-0.297-1.084-0.595-1.627-0.892
			C381.674,239.181,381.684,239.116,381.693,239.049"/>
		<path fill="#585A5E" d="M359.939,248.595c0.482-0.044,0.969-0.089,1.453-0.133c0.006,0.146,0.02,0.291,0.018,0.438
			c0,0.375-0.209,0.45-0.5,0.296C360.574,249.016,360.262,248.797,359.939,248.595"/>
		<path fill="#585A5E" d="M378.1,250.648c0.342,0.124,0.797-0.237,1.053,0.248c-0.115,0.081-0.225,0.186-0.354,0.236
			c-0.189,0.077-0.393,0.117-0.592,0.171C378.172,251.085,378.137,250.868,378.1,250.648"/>
		<path fill="#585A5E" d="M381.688,248.79c0.297,0.044,0.592,0.089,0.889,0.134c-0.115,0.078-0.223,0.171-0.346,0.233
			C381.814,249.371,381.707,249.294,381.688,248.79"/>
		<path fill="#585A5E" d="M364.467,251.212c0.168-0.042,0.334-0.085,0.502-0.127C364.889,251.467,364.688,251.38,364.467,251.212"/>
		<path fill="#585A5E" d="M374.428,253.507c0.027-0.003,0.057,0,0.084,0.011C374.484,253.514,374.455,253.511,374.428,253.507"/>
	</g>
</g>
<line fill="none" stroke="#585A5E" stroke-miterlimit="10" x1="94.215" y1="113.155" x2="358.215" y2="113.155"/>
<path fill-rule="evenodd" clip-rule="evenodd" fill="#FFFFFF" d="M228.451,395.263c-1.32-0.001-2.342-1.025-2.336-2.35
	c0.004-1.309,1.027-2.324,2.34-2.324c1.32,0.001,2.342,1.025,2.336,2.352C230.785,394.249,229.764,395.264,228.451,395.263z"/>
<g>
	<path fill-rule="evenodd" clip-rule="evenodd" fill="#585A5E" d="M228.436,390.843c0.922,0,1.846,0.003,2.768-0.003
		c0.146-0.001,0.23,0.039,0.307,0.17c0.928,1.61,1.857,3.218,2.793,4.823c0.07,0.12,0.072,0.207,0.002,0.328
		c-0.936,1.605-1.867,3.213-2.795,4.821c-0.074,0.131-0.158,0.173-0.307,0.173c-1.852-0.006-3.703-0.005-5.555,0
		c-0.139,0-0.219-0.042-0.289-0.164c-0.916-1.615-1.838-3.228-2.764-4.838c-0.064-0.113-0.064-0.197,0-0.312
		c0.924-1.61,1.846-3.223,2.764-4.837c0.068-0.122,0.148-0.165,0.287-0.165C226.578,390.846,227.508,390.843,228.436,390.843z
		 M228.451,398.334c1.312,0.001,2.334-1.015,2.34-2.322c0.006-1.326-1.016-2.351-2.336-2.352c-1.312,0-2.336,1.016-2.34,2.324
		C226.109,397.309,227.131,398.333,228.451,398.334z"/>
	<path fill-rule="evenodd" clip-rule="evenodd" fill="#585A5E" d="M236.076,389.912c-0.129,0-0.219,0-0.311,0
		c-3.506,0-7.012,0.002-10.518-0.005c-0.221,0-0.346,0.055-0.463,0.26c-0.879,1.558-1.773,3.106-2.664,4.658
		c-0.041,0.071-0.086,0.139-0.141,0.228c-0.375-0.658-0.736-1.291-1.098-1.926c-0.285-0.504-0.568-1.008-0.859-1.508
		c-0.066-0.111-0.072-0.193-0.006-0.311c0.758-1.347,1.502-2.699,2.266-4.045c0.408-0.718,1.033-1.099,1.871-1.099
		c2.873,0,5.748-0.001,8.621,0.001c0.799,0,1.412,0.359,1.811,1.04c0.496,0.847,0.957,1.715,1.434,2.573
		C236.037,389.811,236.049,389.846,236.076,389.912z"/>
	<path fill-rule="evenodd" clip-rule="evenodd" fill="#585A5E" d="M219.373,392.456c0.652,1.121,1.287,2.214,1.918,3.308
		c1.186,2.049,2.369,4.099,3.549,6.151c0.074,0.131,0.154,0.174,0.303,0.174c1.814-0.008,3.627-0.004,5.441-0.004
		c0.082,0,0.166,0,0.279,0c-0.039,0.079-0.062,0.14-0.094,0.196c-0.662,1.129-1.326,2.257-1.984,3.39
		c-0.07,0.121-0.148,0.164-0.287,0.164c-1.484-0.006-2.971,0.001-4.455-0.006c-0.773-0.002-1.373-0.34-1.754-1.01
		c-1.471-2.587-2.934-5.178-4.389-7.773c-0.363-0.65-0.375-1.336-0.02-1.991c0.461-0.85,0.953-1.682,1.434-2.521
		C219.326,392.514,219.342,392.498,219.373,392.456z"/>
	<path fill-rule="evenodd" clip-rule="evenodd" fill="#585A5E" d="M229.822,405.831c0.045-0.082,0.068-0.13,0.096-0.175
		c1.824-3.174,3.648-6.349,5.479-9.52c0.08-0.138,0.035-0.223-0.029-0.331c-0.898-1.562-1.797-3.128-2.693-4.693
		c-0.043-0.076-0.082-0.154-0.137-0.256c0.1-0.007,0.166-0.012,0.232-0.012c1.219-0.001,2.438,0.003,3.658-0.005
		c0.168-0.001,0.254,0.059,0.334,0.202c0.717,1.3,1.438,2.597,2.164,3.893c0.414,0.735,0.4,1.468-0.008,2.194
		c-1.096,1.95-2.199,3.899-3.299,5.847c-0.326,0.578-0.648,1.155-0.979,1.729c-0.426,0.742-1.059,1.132-1.926,1.128
		C231.764,405.828,230.812,405.831,229.822,405.831z"/>
</g>
<g>
	<path fill="#585A5E" d="M178.256,399.793v0.506c0,2.515,2.719,5.059,6.07,5.059h17.873c3.352,0,6.07-2.545,6.07-5.059v-0.506
		c0-2.339-2.352-5.273-5.379-5.532c-0.066-2.09-1.777-3.763-3.883-3.763c-0.816,0-1.574,0.253-2.201,0.683
		c-1.201-2.673-3.879-4.539-7-4.539c-4.238,0-7.672,3.434-7.672,7.673c0,0.076,0.008,0.147,0.01,0.223
		C179.871,395.196,178.256,397.857,178.256,399.793z"/>
	<path fill="#FFFFFF" d="M185.777,395.063l-2.004,7.051h1.176l0.453-1.729h2.064l0.436,1.729h1.176l-1.859-7.051H185.777z
		 M185.609,399.486l0.84-3.475h0.018l0.811,3.475H185.609z"/>
	<polygon fill="#FFFFFF" points="194.115,400.572 194.094,400.572 193.146,395.063 191.961,395.063 191.033,400.542 
		191.014,400.542 190.086,395.063 188.949,395.063 190.312,402.114 191.615,402.114 192.516,396.8 192.535,396.8 193.443,402.114 
		194.746,402.114 196.146,395.063 195.033,395.063 	"/>
	<path fill="#FFFFFF" d="M199.771,398.261l-0.76-0.275c-0.75-0.287-1.059-0.593-1.059-1.195c0-0.749,0.467-1.017,0.951-1.017
		c0.699,0,0.986,0.375,0.986,1.017v0.148h1.125v-0.159c0-0.729-0.188-1.854-1.994-1.854c-1.322,0-2.191,0.712-2.191,1.994
		c0,1.008,0.443,1.541,1.471,1.936l0.771,0.269c0.631,0.186,1.006,0.513,1.006,1.252c0,0.523-0.355,1.029-1.066,1.029
		c-0.779,0-1.154-0.435-1.154-1.294v-0.178h-1.127v0.168c0,0.988,0.396,2.152,2.143,2.152c1.422,0,2.332-0.622,2.332-2.123
		C201.205,399.162,200.768,398.617,199.771,398.261z"/>
</g>
<g>
	
		<rect x="192.234" y="0.585" fill="#FFFFFF" stroke="#A7A8AB" stroke-width="0.5" stroke-miterlimit="10" width="68.195" height="20.478"/>
	<g>
		<path fill="#585A5E" d="M207.512,12.989c-0.529-0.59-0.795-1.352-0.795-2.285c0-0.933,0.266-1.694,0.795-2.285
			c0.53-0.59,1.195-0.885,1.996-0.885c0.68,0,1.236,0.182,1.67,0.545c0.433,0.363,0.709,0.858,0.83,1.485h-1.021
			c-0.267-0.727-0.761-1.09-1.479-1.09c-0.534,0-0.957,0.208-1.271,0.625s-0.47,0.951-0.47,1.604s0.156,1.188,0.47,1.605
			s0.736,0.625,1.271,0.625c0.719,0,1.213-0.367,1.479-1.101h1.021c-0.121,0.634-0.397,1.132-0.83,1.495
			c-0.434,0.363-0.99,0.545-1.67,0.545C208.707,13.874,208.042,13.579,207.512,12.989z"/>
		<path fill="#585A5E" d="M213.717,13.774v-6.14h1.041v5.21h2.949v0.93H213.717z"/>
		<path fill="#585A5E" d="M220.508,7.635v6.14h-1.041v-6.14H220.508z"/>
		<path fill="#585A5E" d="M222.566,7.635h4.01v0.92h-2.989v1.62h2.71v0.909h-2.71v1.761h2.989v0.93h-4.01V7.635z"/>
		<path fill="#585A5E" d="M233.347,7.635v6.14h-0.8l-3.141-4.47v4.47h-1v-6.14h0.98l2.96,4.26v-4.26H233.347z"/>
		<path fill="#585A5E" d="M235.026,8.555v-0.92h5.12v0.92h-2.04v5.22h-1.04v-5.22H235.026z"/>
		<path fill="#585A5E" d="M241.307,12.074h1.06c0.193,0.613,0.657,0.92,1.39,0.92c0.36,0,0.648-0.081,0.865-0.245
			c0.217-0.163,0.325-0.385,0.325-0.665c0-0.22-0.068-0.395-0.205-0.524s-0.364-0.231-0.685-0.305l-1.04-0.25
			c-1.021-0.24-1.53-0.79-1.53-1.65c0-0.526,0.195-0.962,0.585-1.305c0.39-0.344,0.892-0.516,1.505-0.516
			c0.646,0,1.168,0.152,1.565,0.455c0.396,0.304,0.651,0.719,0.765,1.245h-1.04c-0.193-0.547-0.62-0.82-1.28-0.82
			c-0.333,0-0.602,0.079-0.805,0.235s-0.305,0.361-0.305,0.615c0,0.406,0.27,0.673,0.811,0.8l1.069,0.25
			c0.5,0.113,0.89,0.313,1.17,0.6c0.28,0.287,0.42,0.653,0.42,1.101c0,0.566-0.203,1.019-0.61,1.354
			c-0.406,0.337-0.934,0.505-1.58,0.505c-0.652,0-1.197-0.158-1.635-0.475C241.685,13.083,241.413,12.642,241.307,12.074z"/>
	</g>
</g>
<polygon fill="#585A5E" points="264.596,389.118 260.859,396.643 267.439,404.268 255.229,405.652 274.174,405.852 "/>
<polygon fill="#585A5E" points="255.283,393.326 263.859,386.147 254.334,403.525 248.914,404.068 "/>
</svg>
