<svg version="1.1" viewBox="0.0 0.0 591.3595800524935 617.9370078740158" fill="none" stroke="none" stroke-linecap="square" stroke-miterlimit="10" xmlns:xlink="http://www.w3.org/1999/xlink" xmlns="http://www.w3.org/2000/svg"><clipPath id="p.0"><path d="m0 0l591.35956 0l0 617.937l-591.35956 0l0 -617.937z" clip-rule="nonzero"/></clipPath><g clip-path="url(#p.0)"><path fill="#000000" fill-opacity="0.0" d="m0 0l591.35956 0l0 617.937l-591.35956 0z" fill-rule="evenodd"/><path fill="#595b5f" d="m23.614174 509.8058l532.72437 0l0 75.590515l-532.72437 0z" fill-rule="evenodd"/><path stroke="#ffffff" stroke-width="1.0" stroke-linejoin="round" stroke-linecap="butt" d="m23.614174 509.8058l532.72437 0l0 75.590515l-532.72437 0z" fill-rule="evenodd"/><path fill="#ffffff" d="m135.66052 554.52106l0 -13.359375l1.765625 0l0 13.359375l-1.765625 0zm3.4489288 0.234375l3.875 -13.8125l1.3125 0l-3.859375 13.8125l-1.328125 0zm6.089554 -6.734375q0 -3.328125 1.78125 -5.203125q1.78125 -1.890625 4.609375 -1.890625q1.84375 0 3.328125 0.890625q1.484375 0.875 2.265625 2.46875q0.78125 1.578125 0.78125 3.578125q0 2.03125 -0.828125 3.640625q-0.8125 1.59375 -2.3125 2.421875q-1.5 0.828125 -3.25 0.828125q-1.875 0 -3.359375 -0.90625q-1.484375 -0.921875 -2.25 -2.5q-0.765625 -1.578125 -0.765625 -3.328125zm1.8125 0.015625q0 2.421875 1.296875 3.8125q1.296875 1.390625 3.265625 1.390625q2.0 0 3.28125 -1.40625q1.28125 -1.40625 1.28125 -3.984375q0 -1.625 -0.546875 -2.84375q-0.546875 -1.21875 -1.609375 -1.875q-1.0625 -0.671875 -2.375 -0.671875q-1.890625 0 -3.25 1.296875q-1.34375 1.28125 -1.34375 4.28125zm17.819733 2.1875l1.65625 -0.140625q0.125 1.0 0.546875 1.640625q0.4375 0.640625 1.34375 1.046875q0.921875 0.390625 2.0625 0.390625q1.0 0 1.78125 -0.296875q0.78125 -0.296875 1.15625 -0.8125q0.375 -0.53125 0.375 -1.15625q0 -0.625 -0.375 -1.09375q-0.359375 -0.46875 -1.1875 -0.796875q-0.546875 -0.203125 -2.390625 -0.640625q-1.828125 -0.453125 -2.5625 -0.84375q-0.96875 -0.5 -1.4375 -1.234375q-0.46875 -0.75 -0.46875 -1.671875q0 -1.0 0.578125 -1.875q0.578125 -0.890625 1.671875 -1.34375q1.109375 -0.453125 2.453125 -0.453125q1.484375 0 2.609375 0.484375q1.140625 0.46875 1.75 1.40625q0.609375 0.921875 0.65625 2.09375l-1.6875 0.125q-0.140625 -1.265625 -0.9375 -1.90625q-0.78125 -0.65625 -2.3125 -0.65625q-1.609375 0 -2.34375 0.59375q-0.734375 0.59375 -0.734375 1.421875q0 0.71875 0.53125 1.171875q0.5 0.46875 2.65625 0.96875q2.15625 0.484375 2.953125 0.84375q1.171875 0.53125 1.71875 1.359375q0.5625 0.828125 0.5625 1.90625q0 1.0625 -0.609375 2.015625q-0.609375 0.9375 -1.75 1.46875q-1.140625 0.515625 -2.578125 0.515625q-1.8125 0 -3.046875 -0.53125q-1.21875 -0.53125 -1.921875 -1.59375q-0.6875 -1.0625 -0.71875 -2.40625zm12.224823 -0.546875q0 -2.6875 1.484375 -3.96875q1.25 -1.078125 3.046875 -1.078125q2.0 0 3.265625 1.3125q1.265625 1.296875 1.265625 3.609375q0 1.859375 -0.5625 2.9375q-0.5625 1.0625 -1.640625 1.65625q-1.0625 0.59375 -2.328125 0.59375q-2.03125 0 -3.28125 -1.296875q-1.25 -1.3125 -1.25 -3.765625zm1.6875 0q0 1.859375 0.796875 2.796875q0.8125 0.921875 2.046875 0.921875q1.21875 0 2.03125 -0.921875q0.8125 -0.9375 0.8125 -2.84375q0 -1.796875 -0.8125 -2.71875q-0.8125 -0.921875 -2.03125 -0.921875q-1.234375 0 -2.046875 0.921875q-0.796875 0.90625 -0.796875 2.765625zm15.625717 4.84375l0 -1.421875q-1.125 1.640625 -3.0625 1.640625q-0.859375 0 -1.609375 -0.328125q-0.734375 -0.328125 -1.09375 -0.828125q-0.359375 -0.5 -0.5 -1.21875q-0.109375 -0.46875 -0.109375 -1.53125l0 -5.984375l1.640625 0l0 5.359375q0 1.28125 0.109375 1.734375q0.15625 0.640625 0.65625 1.015625q0.5 0.375 1.234375 0.375q0.734375 0 1.375 -0.375q0.65625 -0.390625 0.921875 -1.03125q0.265625 -0.65625 0.265625 -1.890625l0 -5.1875l1.640625 0l0 9.671875l-1.46875 0zm4.031967 0l0 -9.671875l1.46875 0l0 1.46875q0.5625 -1.03125 1.03125 -1.359375q0.484375 -0.328125 1.0625 -0.328125q0.828125 0 1.6875 0.53125l-0.5625 1.515625q-0.609375 -0.359375 -1.203125 -0.359375q-0.546875 0 -0.96875 0.328125q-0.421875 0.328125 -0.609375 0.890625q-0.28125 0.875 -0.28125 1.921875l0 5.0625l-1.625 0zm12.540802 -3.546875l1.609375 0.21875q-0.265625 1.65625 -1.359375 2.609375q-1.078125 0.9375 -2.671875 0.9375q-1.984375 0 -3.1875 -1.296875q-1.203125 -1.296875 -1.203125 -3.71875q0 -1.578125 0.515625 -2.75q0.515625 -1.171875 1.578125 -1.75q1.0625 -0.59375 2.3125 -0.59375q1.578125 0 2.578125 0.796875q1.0 0.796875 1.28125 2.265625l-1.59375 0.234375q-0.234375 -0.96875 -0.8125 -1.453125q-0.578125 -0.5 -1.390625 -0.5q-1.234375 0 -2.015625 0.890625q-0.78125 0.890625 -0.78125 2.8125q0 1.953125 0.75 2.84375q0.75 0.875 1.953125 0.875q0.96875 0 1.609375 -0.59375q0.65625 -0.59375 0.828125 -1.828125zm9.640625 0.4375l1.6875 0.203125q-0.40625 1.484375 -1.484375 2.3125q-1.078125 0.8125 -2.765625 0.8125q-2.125 0 -3.375 -1.296875q-1.234375 -1.3125 -1.234375 -3.671875q0 -2.453125 1.25 -3.796875q1.265625 -1.34375 3.265625 -1.34375q1.9375 0 3.15625 1.328125q1.234375 1.3125 1.234375 3.703125q0 0.15625 0 0.4375l-7.21875 0q0.09375 1.59375 0.90625 2.453125q0.8125 0.84375 2.015625 0.84375q0.90625 0 1.546875 -0.46875q0.640625 -0.484375 1.015625 -1.515625zm-5.390625 -2.65625l5.40625 0q-0.109375 -1.21875 -0.625 -1.828125q-0.78125 -0.953125 -2.03125 -0.953125q-1.125 0 -1.90625 0.765625q-0.765625 0.75 -0.84375 2.015625zm8.485092 2.875l1.625 -0.25q0.125 0.96875 0.75 1.5q0.625 0.515625 1.75 0.515625q1.125 0 1.671875 -0.453125q0.546875 -0.46875 0.546875 -1.09375q0 -0.546875 -0.484375 -0.875q-0.328125 -0.21875 -1.671875 -0.546875q-1.8125 -0.46875 -2.515625 -0.796875q-0.6875 -0.328125 -1.046875 -0.90625q-0.359375 -0.59375 -0.359375 -1.3125q0 -0.640625 0.296875 -1.1875q0.296875 -0.5625 0.8125 -0.921875q0.375 -0.28125 1.03125 -0.46875q0.671875 -0.203125 1.421875 -0.203125q1.140625 0 2.0 0.328125q0.859375 0.328125 1.265625 0.890625q0.421875 0.5625 0.578125 1.5l-1.609375 0.21875q-0.109375 -0.75 -0.640625 -1.171875q-0.515625 -0.421875 -1.46875 -0.421875q-1.140625 0 -1.625 0.375q-0.46875 0.375 -0.46875 0.875q0 0.3125 0.1875 0.578125q0.203125 0.265625 0.640625 0.4375q0.234375 0.09375 1.4375 0.421875q1.75 0.453125 2.4375 0.75q0.6875 0.296875 1.078125 0.859375q0.390625 0.5625 0.390625 1.40625q0 0.828125 -0.484375 1.546875q-0.46875 0.71875 -1.375 1.125q-0.90625 0.390625 -2.046875 0.390625q-1.875 0 -2.875 -0.78125q-0.984375 -0.78125 -1.25 -2.328125zm21.480179 1.703125q-0.921875 0.765625 -1.765625 1.09375q-0.828125 0.3125 -1.796875 0.3125q-1.59375 0 -2.453125 -0.78125q-0.859375 -0.78125 -0.859375 -1.984375q0 -0.71875 0.328125 -1.296875q0.328125 -0.59375 0.84375 -0.9375q0.53125 -0.359375 1.1875 -0.546875q0.46875 -0.125 1.453125 -0.25q1.984375 -0.234375 2.921875 -0.5625q0.015625 -0.34375 0.015625 -0.421875q0 -1.0 -0.46875 -1.421875q-0.625 -0.546875 -1.875 -0.546875q-1.15625 0 -1.703125 0.40625q-0.546875 0.40625 -0.8125 1.421875l-1.609375 -0.21875q0.21875 -1.015625 0.71875 -1.640625q0.5 -0.640625 1.453125 -0.984375q0.953125 -0.34375 2.1875 -0.34375q1.25 0 2.015625 0.296875q0.78125 0.28125 1.140625 0.734375q0.375 0.4375 0.515625 1.109375q0.078125 0.421875 0.078125 1.515625l0 2.1875q0 2.28125 0.109375 2.890625q0.109375 0.59375 0.40625 1.15625l-1.703125 0q-0.265625 -0.515625 -0.328125 -1.1875zm-0.140625 -3.671875q-0.890625 0.375 -2.671875 0.625q-1.015625 0.140625 -1.4375 0.328125q-0.421875 0.1875 -0.65625 0.53125q-0.21875 0.34375 -0.21875 0.78125q0 0.65625 0.5 1.09375q0.5 0.4375 1.453125 0.4375q0.9375 0 1.671875 -0.40625q0.75 -0.421875 1.09375 -1.140625q0.265625 -0.5625 0.265625 -1.640625l0 -0.609375zm4.203842 4.859375l0 -9.671875l1.46875 0l0 1.375q1.0625 -1.59375 3.078125 -1.59375q0.875 0 1.609375 0.3125q0.73439026 0.3125 1.0937653 0.828125q0.375 0.5 0.515625 1.203125q0.09375 0.453125 0.09375 1.59375l0 5.953125l-1.6406403 0l0 -5.890625q0 -1.0 -0.203125 -1.484375q-0.1875 -0.5 -0.671875 -0.796875q-0.484375 -0.296875 -1.140625 -0.296875q-1.046875 0 -1.8125 0.671875q-0.75 0.65625 -0.75 2.515625l0 5.28125l-1.640625 0zm16.641342 0l0 -1.21875q-0.90625 1.4375 -2.703125 1.4375q-1.15625 0 -2.125 -0.640625q-0.96875 -0.640625 -1.5 -1.78125q-0.53125 -1.140625 -0.53125 -2.625q0 -1.453125 0.484375 -2.625q0.484375 -1.1875 1.4375 -1.8125q0.96875 -0.625 2.171875 -0.625q0.875 0 1.546875 0.375q0.6875 0.359375 1.109375 0.953125l0 -4.796875l1.640625 0l0 13.359375l-1.53125 0zm-5.171875 -4.828125q0 1.859375 0.78125 2.78125q0.78125 0.921875 1.84375 0.921875q1.078125 0 1.828125 -0.875q0.75 -0.890625 0.75 -2.6875q0 -1.984375 -0.765625 -2.90625q-0.765625 -0.9375 -1.890625 -0.9375q-1.078125 0 -1.8125 0.890625q-0.734375 0.890625 -0.734375 2.8125zm14.074646 0.53125l1.65625 -0.140625q0.125 1.0 0.546875 1.640625q0.4375 0.640625 1.34375 1.046875q0.921875 0.390625 2.0625 0.390625q1.0 0 1.78125 -0.296875q0.78125 -0.296875 1.15625 -0.8125q0.375 -0.53125 0.375 -1.15625q0 -0.625 -0.375 -1.09375q-0.359375 -0.46875 -1.1875 -0.796875q-0.546875 -0.203125 -2.390625 -0.640625q-1.828125 -0.453125 -2.5625 -0.84375q-0.96875 -0.5 -1.4375 -1.234375q-0.46875 -0.75 -0.46875 -1.671875q0 -1.0 0.578125 -1.875q0.578125 -0.890625 1.671875 -1.34375q1.109375 -0.453125 2.453125 -0.453125q1.484375 0 2.609375 0.484375q1.140625 0.46875 1.75 1.40625q0.609375 0.921875 0.65625 2.09375l-1.6875 0.125q-0.140625 -1.265625 -0.9375 -1.90625q-0.78125 -0.65625 -2.3125 -0.65625q-1.609375 0 -2.34375 0.59375q-0.734375 0.59375 -0.734375 1.421875q0 0.71875 0.53125 1.171875q0.5 0.46875 2.65625 0.96875q2.15625 0.484375 2.953125 0.84375q1.171875 0.53125 1.71875 1.359375q0.5625 0.828125 0.5625 1.90625q0 1.0625 -0.609375 2.015625q-0.609375 0.9375 -1.75 1.46875q-1.140625 0.515625 -2.578125 0.515625q-1.8125 0 -3.046875 -0.53125q-1.21875 -0.53125 -1.921875 -1.59375q-0.6875 -1.0625 -0.71875 -2.40625zm12.834198 -7.171875l0 -1.890625l1.640625 0l0 1.890625l-1.640625 0zm0 11.46875l0 -9.671875l1.640625 0l0 9.671875l-1.640625 0zm4.1448364 0l0 -9.671875l1.46875 0l0 1.375q1.0625 -1.59375 3.078125 -1.59375q0.875 0 1.609375 0.3125q0.734375 0.3125 1.09375 0.828125q0.375 0.5 0.515625 1.203125q0.09375 0.453125 0.09375 1.59375l0 5.953125l-1.640625 0l0 -5.890625q0 -1.0 -0.203125 -1.484375q-0.1875 -0.5 -0.671875 -0.796875q-0.484375 -0.296875 -1.140625 -0.296875q-1.046875 0 -1.8125 0.671875q-0.75 0.65625 -0.75 2.515625l0 5.28125l-1.640625 0zm10.375702 0l0 -13.359375l1.640625 0l0 7.625l3.890625 -3.9375l2.109375 0l-3.6875 3.59375l4.0625 6.078125l-2.015625 0l-3.203125 -4.953125l-1.15625 1.125l0 3.828125l-1.640625 0zm8.671875 -2.890625l1.625 -0.25q0.125 0.96875 0.75 1.5q0.625 0.515625 1.75 0.515625q1.125 0 1.671875 -0.453125q0.546875 -0.46875 0.546875 -1.09375q0 -0.546875 -0.484375 -0.875q-0.328125 -0.21875 -1.671875 -0.546875q-1.8125 -0.46875 -2.515625 -0.796875q-0.6875 -0.328125 -1.046875 -0.90625q-0.359375 -0.59375 -0.359375 -1.3125q0 -0.640625 0.296875 -1.1875q0.296875 -0.5625 0.8125 -0.921875q0.375 -0.28125 1.03125 -0.46875q0.671875 -0.203125 1.421875 -0.203125q1.140625 0 2.0 0.328125q0.859375 0.328125 1.265625 0.890625q0.421875 0.5625 0.578125 1.5l-1.609375 0.21875q-0.109375 -0.75 -0.640625 -1.171875q-0.515625 -0.421875 -1.46875 -0.421875q-1.140625 0 -1.625 0.375q-0.46875 0.375 -0.46875 0.875q0 0.3125 0.1875 0.578125q0.203125 0.265625 0.640625 0.4375q0.234375 0.09375 1.4375 0.421875q1.75 0.453125 2.4375 0.75q0.6875 0.296875 1.078125 0.859375q0.390625 0.5625 0.390625 1.40625q0 0.828125 -0.484375 1.546875q-0.46875 0.71875 -1.375 1.125q-0.90625 0.390625 -2.046875 0.390625q-1.875 0 -2.875 -0.78125q-0.984375 -0.78125 -1.25 -2.328125zm10.4375 -4.921875l0 -1.859375l1.859375 0l0 1.859375l-1.859375 0zm0 7.8125l0 -1.875l1.859375 0l0 1.875l-1.859375 0zm10.210358 0l0 -13.359375l9.015625 0l0 1.578125l-7.25 0l0 4.140625l6.265625 0l0 1.578125l-6.265625 0l0 6.0625l-1.765625 0zm11.099121 -11.46875l0 -1.890625l1.640625 0l0 1.890625l-1.640625 0zm0 11.46875l0 -9.671875l1.640625 0l0 9.671875l-1.640625 0zm4.097931 0l0 -13.359375l1.640625 0l0 13.359375l-1.640625 0zm10.816681 -3.109375l1.6875 0.203125q-0.40625 1.484375 -1.484375 2.3125q-1.078125 0.8125 -2.765625 0.8125q-2.125 0 -3.375 -1.296875q-1.234375 -1.3125 -1.234375 -3.671875q0 -2.453125 1.25 -3.796875q1.265625 -1.34375 3.265625 -1.34375q1.9375 0 3.15625 1.328125q1.234375 1.3125 1.234375 3.703125q0 0.15625 0 0.4375l-7.21875 0q0.09375 1.59375 0.90625 2.453125q0.8125 0.84375 2.015625 0.84375q0.90625 0 1.546875 -0.46875q0.640625 -0.484375 1.015625 -1.515625zm-5.390625 -2.65625l5.40625 0q-0.109375 -1.21875 -0.625 -1.828125q-0.78125 -0.953125 -2.03125 -0.953125q-1.125 0 -1.90625 0.765625q-0.765625 0.75 -0.84375 2.015625zm8.485107 2.875l1.625 -0.25q0.125 0.96875 0.75 1.5q0.625 0.515625 1.75 0.515625q1.125 0 1.671875 -0.453125q0.546875 -0.46875 0.546875 -1.09375q0 -0.546875 -0.484375 -0.875q-0.328125 -0.21875 -1.671875 -0.546875q-1.8125 -0.46875 -2.515625 -0.796875q-0.6875 -0.328125 -1.046875 -0.90625q-0.359375 -0.59375 -0.359375 -1.3125q0 -0.640625 0.296875 -1.1875q0.296875 -0.5625 0.8125 -0.921875q0.375 -0.28125 1.03125 -0.46875q0.671875 -0.203125 1.421875 -0.203125q1.140625 0 2.0 0.328125q0.859375 0.328125 1.265625 0.890625q0.421875 0.5625 0.578125 1.5l-1.609375 0.21875q-0.109375 -0.75 -0.640625 -1.171875q-0.515625 -0.421875 -1.46875 -0.421875q-1.140625 0 -1.625 0.375q-0.46875 0.375 -0.46875 0.875q0 0.3125 0.1875 0.578125q0.203125 0.265625 0.640625 0.4375q0.234375 0.09375 1.4375 0.421875q1.75 0.453125 2.4375 0.75q0.6875 0.296875 1.078125 0.859375q0.390625 0.5625 0.390625 1.40625q0 0.828125 -0.484375 1.546875q-0.46875 0.71875 -1.375 1.125q-0.90625 0.390625 -2.046875 0.390625q-1.875 0 -2.875 -0.78125q-0.984375 -0.78125 -1.25 -2.328125zm10.40625 2.890625l0 -1.875l1.875 0l0 1.875q0 1.03125 -0.375 1.65625q-0.359375 0.640625 -1.15625 0.984375l-0.453125 -0.703125q0.515625 -0.21875 0.765625 -0.671875q0.25 -0.4375 0.28125 -1.265625l-0.9375 0zm9.554108 -4.296875l1.65625 -0.140625q0.125 1.0 0.546875 1.640625q0.4375 0.640625 1.34375 1.046875q0.921875 0.390625 2.0625 0.390625q1.0 0 1.78125 -0.296875q0.78125 -0.296875 1.15625 -0.8125q0.375 -0.53125 0.375 -1.15625q0 -0.625 -0.375 -1.09375q-0.359375 -0.46875 -1.1875 -0.796875q-0.546875 -0.203125 -2.390625 -0.640625q-1.828125 -0.453125 -2.5625 -0.84375q-0.96875 -0.5 -1.4375 -1.234375q-0.46875 -0.75 -0.46875 -1.671875q0 -1.0 0.578125 -1.875q0.578125 -0.890625 1.671875 -1.34375q1.109375 -0.453125 2.453125 -0.453125q1.484375 0 2.609375 0.484375q1.140625 0.46875 1.75 1.40625q0.609375 0.921875 0.65625 2.09375l-1.6875 0.125q-0.140625 -1.265625 -0.9375 -1.90625q-0.78125 -0.65625 -2.3125 -0.65625q-1.609375 0 -2.34375 0.59375q-0.734375 0.59375 -0.734375 1.421875q0 0.71875 0.53125 1.171875q0.5 0.46875 2.65625 0.96875q2.15625 0.484375 2.953125 0.84375q1.171875 0.53125 1.71875 1.359375q0.5625 0.828125 0.5625 1.90625q0 1.0625 -0.609375 2.015625q-0.609375 0.9375 -1.75 1.46875q-1.140625 0.515625 -2.578125 0.515625q-1.8125 0 -3.046875 -0.53125q-1.21875 -0.53125 -1.921875 -1.59375q-0.6875 -1.0625 -0.71875 -2.40625zm12.224823 -0.546875q0 -2.6875 1.484375 -3.96875q1.25 -1.078125 3.046875 -1.078125q2.0 0 3.265625 1.3125q1.265625 1.296875 1.265625 3.609375q0 1.859375 -0.5625 2.9375q-0.5625 1.0625 -1.640625 1.65625q-1.0625 0.59375 -2.328125 0.59375q-2.03125 0 -3.28125 -1.296875q-1.25 -1.3125 -1.25 -3.765625zm1.6875 0q0 1.859375 0.796875 2.796875q0.8125 0.921875 2.046875 0.921875q1.21875 0 2.03125 -0.921875q0.8125 -0.9375 0.8125 -2.84375q0 -1.796875 -0.8125 -2.71875q-0.8125 -0.921875 -2.03125 -0.921875q-1.234375 0 -2.046875 0.921875q-0.796875 0.90625 -0.796875 2.765625zm15.610077 1.296875l1.609375 0.21875q-0.265625 1.65625 -1.359375 2.609375q-1.078125 0.9375 -2.671875 0.9375q-1.984375 0 -3.1875 -1.296875q-1.203125 -1.296875 -1.203125 -3.71875q0 -1.578125 0.515625 -2.75q0.515625 -1.171875 1.578125 -1.75q1.0625 -0.59375 2.3125 -0.59375q1.578125 0 2.578125 0.796875q1.0 0.796875 1.28125 2.265625l-1.59375 0.234375q-0.234375 -0.96875 -0.8125 -1.453125q-0.578125 -0.5 -1.390625 -0.5q-1.234375 0 -2.015625 0.890625q-0.78125 0.890625 -0.78125 2.8125q0 1.953125 0.75 2.84375q0.75 0.875 1.953125 0.875q0.96875 0 1.609375 -0.59375q0.65625 -0.59375 0.828125 -1.828125zm3.015625 3.546875l0 -13.359375l1.640625 0l0 7.625l3.890625 -3.9375l2.109375 0l-3.6875 3.59375l4.0625 6.078125l-2.015625 0l-3.203125 -4.953125l-1.15625 1.125l0 3.828125l-1.640625 0zm15.953125 -3.109375l1.6875 0.203125q-0.40625 1.484375 -1.484375 2.3125q-1.078125 0.8125 -2.765625 0.8125q-2.125 0 -3.375 -1.296875q-1.234375 -1.3125 -1.234375 -3.671875q0 -2.453125 1.25 -3.796875q1.265625 -1.34375 3.265625 -1.34375q1.9375 0 3.15625 1.328125q1.234375 1.3125 1.234375 3.703125q0 0.15625 0 0.4375l-7.21875 0q0.09375 1.59375 0.90625 2.453125q0.8125 0.84375 2.015625 0.84375q0.90625 0 1.546875 -0.46875q0.640625 -0.484375 1.015625 -1.515625zm-5.390625 -2.65625l5.40625 0q-0.109375 -1.21875 -0.625 -1.828125q-0.78125 -0.953125 -2.03125 -0.953125q-1.125 0 -1.90625 0.765625q-0.765625 0.75 -0.84375 2.015625zm12.719482 4.296875l0.234375 1.453125q-0.6875 0.140625 -1.234375 0.140625q-0.890625 0 -1.390625 -0.28125q-0.484375 -0.28125 -0.6875 -0.734375q-0.203125 -0.46875 -0.203125 -1.9375l0 -5.578125l-1.203125 0l0 -1.265625l1.203125 0l0 -2.390625l1.625 -0.984375l0 3.375l1.65625 0l0 1.265625l-1.65625 0l0 5.671875q0 0.6875 0.078125 0.890625q0.09375 0.203125 0.28125 0.328125q0.203125 0.109375 0.578125 0.109375q0.265625 0 0.71875 -0.0625zm0.9489136 -1.421875l1.625 -0.25q0.125 0.96875 0.75 1.5q0.625 0.515625 1.75 0.515625q1.125 0 1.671875 -0.453125q0.546875 -0.46875 0.546875 -1.09375q0 -0.546875 -0.484375 -0.875q-0.328125 -0.21875 -1.671875 -0.546875q-1.8125 -0.46875 -2.515625 -0.796875q-0.6875 -0.328125 -1.046875 -0.90625q-0.359375 -0.59375 -0.359375 -1.3125q0 -0.640625 0.296875 -1.1875q0.296875 -0.5625 0.8125 -0.921875q0.375 -0.28125 1.03125 -0.46875q0.671875 -0.203125 1.421875 -0.203125q1.140625 0 2.0 0.328125q0.859375 0.328125 1.265625 0.890625q0.421875 0.5625 0.578125 1.5l-1.609375 0.21875q-0.109375 -0.75 -0.640625 -1.171875q-0.515625 -0.421875 -1.46875 -0.421875q-1.140625 0 -1.625 0.375q-0.46875 0.375 -0.46875 0.875q0 0.3125 0.1875 0.578125q0.203125 0.265625 0.640625 0.4375q0.234375 0.09375 1.4375 0.421875q1.75 0.453125 2.4375 0.75q0.6875 0.296875 1.078125 0.859375q0.390625 0.5625 0.390625 1.40625q0 0.828125 -0.484375 1.546875q-0.46875 0.71875 -1.375 1.125q-0.90625 0.390625 -2.046875 0.390625q-1.875 0 -2.875 -0.78125q-0.984375 -0.78125 -1.25 -2.328125z" fill-rule="nonzero"/><path fill="#dbdddc" d="m26.165354 416.8504l530.1732 0l0 75.590546l-530.1732 0z" fill-rule="evenodd"/><path stroke="#ffffff" stroke-width="1.0" stroke-linejoin="round" stroke-linecap="butt" d="m26.165354 416.8504l530.1732 0l0 75.590546l-530.1732 0z" fill-rule="evenodd"/><path fill="#000000" d="m274.84003 448.25317q2.46875 0 3.34375 1.0q0.890625 0.984375 0.890625 2.25q0 1.0625 -0.515625 1.84375q-0.515625 0.765625 -1.453125 1.15625l0 0.03125q1.21875 0.265625 1.875 1.125q0.65625 0.84375 0.65625 2.078125q0 1.625 -1.140625 2.734375q-1.125 1.09375 -2.828125 1.09375l-6.515625 0l0 -13.3125l5.6875 0zm-0.28125 5.71875q1.328125 0 2.03125 -0.5q0.71875 -0.5 0.71875 -1.625q0 -1.0625 -0.59375 -1.578125q-0.59375 -0.53125 -2.140625 -0.53125l-3.65625 0l0 4.234375l3.640625 0zm0.875 6.09375q1.078125 0 1.75 -0.640625q0.6875 -0.640625 0.6875 -1.734375q0 -1.125 -0.765625 -1.671875q-0.765625 -0.5625 -2.203125 -0.5625l-3.984375 0l0 4.609375l4.515625 0zm6.9837646 -8.140625l2.8125 7.875l0.046875 0l2.703125 -7.875l1.6875 0l-4.109375 10.671875q-0.640625 1.671875 -1.234375 2.25q-0.59375 0.578125 -1.65625 0.578125q-0.296875 0 -0.578125 -0.03125q-0.265625 -0.03125 -0.53125 -0.125l0 -1.46875q0.234375 0.078125 0.46875 0.140625q0.234375 0.078125 0.46875 0.078125q0.96875 0 1.34375 -0.96875q0.390625 -0.953125 0.609375 -1.53125l-3.828125 -9.59375l1.796875 0zm10.78125 -2.890625l0 2.890625l1.921875 0l0 1.390625l-1.921875 0l0 6.046875q0 0.71875 0.484375 0.765625q0.484375 0.03125 1.0 0.03125l0.4375 0l0 1.40625l-1.296875 0q-1.3125 0 -1.765625 -0.453125q-0.4375 -0.46875 -0.4375 -1.5625l0 -6.234375l-1.65625 0l0 -1.390625l1.65625 0l0 -2.890625l1.578125 0zm7.460266 2.671875q2.078125 0 3.21875 1.5q1.15625 1.484375 1.15625 3.828125l0 0.1875l-7.234375 0l0 0.109375q0 1.390625 0.796875 2.234375q0.8125 0.828125 2.21875 0.828125q1.046875 0 1.671875 -0.484375q0.625 -0.5 0.828125 -1.40625l1.5625 0q-0.328125 1.609375 -1.40625 2.453125q-1.078125 0.84375 -2.71875 0.84375q-1.515625 0 -2.578125 -0.6875q-1.046875 -0.6875 -1.546875 -1.90625q-0.5 -1.234375 -0.5 -2.515625q0 -2.140625 1.28125 -3.5625q1.296875 -1.421875 3.25 -1.421875zm-2.859375 4.109375l5.546875 0q-0.078125 -1.171875 -0.859375 -1.9375q-0.765625 -0.78125 -1.9375 -0.78125q-1.09375 0 -1.875 0.734375q-0.765625 0.734375 -0.875 1.984375zm12.082947 -4.109375q1.9375 0 2.890625 0.75q0.953125 0.75 1.03125 2.265625l-1.578125 0l0 -0.03125q-0.0625 -0.765625 -0.671875 -1.171875q-0.609375 -0.421875 -1.5625 -0.421875q-0.953125 0 -1.515625 0.328125q-0.546875 0.3125 -0.546875 0.90625q0 0.515625 0.484375 0.859375q0.5 0.328125 1.484375 0.546875l1.484375 0.328125q1.40625 0.3125 2.125 0.953125q0.734375 0.640625 0.734375 1.734375q0 1.421875 -1.109375 2.234375q-1.09375 0.8125 -2.984375 0.8125q-1.859375 0 -2.953125 -0.828125q-1.078125 -0.84375 -1.140625 -2.453125l1.59375 0q0.03125 0.90625 0.703125 1.390625q0.6875 0.484375 1.875 0.484375q1.15625 0 1.75 -0.359375q0.59375 -0.375 0.59375 -1.078125q0 -0.65625 -0.59375 -1.03125q-0.59375 -0.375 -2.40625 -0.734375q-1.828125 -0.359375 -2.578125 -1.015625q-0.734375 -0.65625 -0.734375 -1.734375q0 -1.265625 1.03125 -2.0q1.03125 -0.734375 2.59375 -0.734375z" fill-rule="nonzero"/><path fill="#dbdddc" d="m102.79527 341.05643l453.54327 0l0 75.590546l-453.54327 0z" fill-rule="evenodd"/><path stroke="#ffffff" stroke-width="1.0" stroke-linejoin="round" stroke-linecap="butt" d="m102.79527 341.05643l453.54327 0l0 75.590546l-453.54327 0z" fill-rule="evenodd"/><path fill="#c2c3c3" d="m26.175854 416.8504l0 -115.21463l0.5586319 0l0 -182.67514l76.07129 0l0 297.88977z" fill-rule="evenodd"/><path stroke="#ffffff" stroke-width="1.0" stroke-linejoin="round" stroke-linecap="butt" d="m26.175854 416.8504l0 -115.21463l0.5586319 0l0 -182.67514l76.07129 0l0 297.88977z" fill-rule="evenodd"/><path fill="#c2c3c3" d="m102.79527 118.89728l75.59056 0l0 221.95276l-75.59056 0z" fill-rule="evenodd"/><path stroke="#ffffff" stroke-width="1.0" stroke-linejoin="round" stroke-linecap="butt" d="m102.79527 118.89728l75.59056 0l0 221.95276l-75.59056 0z" fill-rule="evenodd"/><path fill="#c2c3c3" d="m178.38583 341.25983l0 -70.25882l151.24509 0l0 -152.00888l75.52655 0l0 222.2677z" fill-rule="evenodd"/><path stroke="#ffffff" stroke-width="1.0" stroke-linejoin="round" stroke-linecap="butt" d="m178.38583 341.25983l0 -70.25882l151.24509 0l0 -152.00888l75.52655 0l0 222.2677z" fill-rule="evenodd"/><path fill="#dcdcdc" d="m178.38583 118.896324l75.590546 0l0 151.18109l-75.590546 0z" fill-rule="evenodd"/><path stroke="#ffffff" stroke-width="1.0" stroke-linejoin="round" stroke-linecap="butt" d="m178.38583 118.896324l75.590546 0l0 151.18109l-75.590546 0z" fill-rule="evenodd"/><path fill="#dcdcdc" d="m253.97638 118.896324l75.590546 0l0 151.18109l-75.590546 0z" fill-rule="evenodd"/><path stroke="#ffffff" stroke-width="1.0" stroke-linejoin="round" stroke-linecap="butt" d="m253.97638 118.896324l75.590546 0l0 151.18109l-75.590546 0z" fill-rule="evenodd"/><path fill="#dcdcdc" d="m405.15747 118.89764l151.18109 0l0 151.18109l-151.18109 0z" fill-rule="evenodd"/><path stroke="#ffffff" stroke-width="1.0" stroke-linejoin="round" stroke-linecap="butt" d="m405.15747 118.89764l151.18109 0l0 151.18109l-151.18109 0z" fill-rule="evenodd"/><path fill="#000000" fill-opacity="0.0" d="m43.440945 255.90027l0 -116.598434l43.118107 0l0 116.598434z" fill-rule="evenodd"/><path fill="#000000" d="m57.048443 223.84799q0 -2.46875 1.0 -3.34375q0.984375 -0.890625 2.25 -0.890625q1.0625 0 1.84375 0.515625q0.765625 0.515625 1.15625 1.453125l0.03125 0q0.265625 -1.21875 1.1250038 -1.875q0.84375 -0.65625 2.078125 -0.65625q1.625 0 2.734375 1.140625q1.09375 1.125 1.09375 2.828125l0 6.515625l-13.312504 0l0 -5.6875zm5.71875 0.28125q0 -1.328125 -0.5 -2.03125q-0.5 -0.71875 -1.625 -0.71875q-1.0625 0 -1.578125 0.59375q-0.53125 0.59375 -0.53125 2.140625l0 3.65625l4.234375 0l0 -3.640625zm6.093754 -0.875q0 -1.078125 -0.640625 -1.75q-0.640625 -0.6875 -1.734375 -0.6875q-1.125 0 -1.671875 0.765625q-0.5625 0.765625 -0.5625 2.203125l0 3.984375l4.609375 0l0 -4.515625zm-8.140629 -6.9837494l7.875004 -2.8125l0 -0.046875l-7.875004 -2.703125l0 -1.6875l10.671879 4.109375q1.671875 0.640625 2.25 1.234375q0.578125 0.59375 0.578125 1.65625q0 0.296875 -0.03125 0.578125q-0.03125 0.265625 -0.125 0.53125l-1.46875 0q0.078125 -0.234375 0.140625 -0.46875q0.078125 -0.234375 0.078125 -0.46875q0 -0.96875 -0.96875 -1.34375q-0.953125 -0.390625 -1.53125 -0.609375l-9.593754 3.828125l0 -1.796875zm-2.890625 -10.78125l2.890625 0l0 -1.921875l1.390625 0l0 1.921875l6.046879 0q0.71875 0 0.765625 -0.484375q0.03125 -0.484375 0.03125 -1.0l0 -0.4375l1.40625 0l0 1.296875q0 1.3125 -0.453125 1.765625q-0.46875 0.4375 -1.5625 0.4375l-6.234379 0l0 1.65625l-1.390625 0l0 -1.65625l-2.890625 0l0 -1.578125zm2.671875 -7.460266q0 -2.078125 1.5 -3.21875q1.484375 -1.15625 3.8281288 -1.15625l0.1875 0l0 7.234375l0.109375 0q1.390625 0 2.234375 -0.796875q0.828125 -0.8125 0.828125 -2.21875q0 -1.046875 -0.484375 -1.671875q-0.5 -0.625 -1.40625 -0.828125l0 -1.5625q1.609375 0.328125 2.453125 1.40625q0.84375 1.078125 0.84375 2.71875q0 1.515625 -0.6875 2.578125q-0.6875 1.046875 -1.90625 1.546875q-1.234375 0.5 -2.515625 0.5q-2.1406288 0 -3.5625038 -1.28125q-1.421875 -1.296875 -1.421875 -3.25zm4.109379 2.859375l0 -5.546875q-1.1718788 0.078125 -1.9375038 0.859375q-0.78125 0.765625 -0.78125 1.9375q0 1.09375 0.734375 1.875q0.734375 0.765625 1.9843788 0.875zm-4.109379 -12.082947q0 -1.9375 0.75 -2.890625q0.75 -0.953125 2.265625 -1.03125l0 1.578125l-0.03125 0q-0.765625 0.0625 -1.171875 0.671875q-0.421875 0.609375 -0.421875 1.5625q0 0.953125 0.328125 1.515625q0.3125 0.546875 0.90625 0.546875q0.515625 0 0.859375 -0.484375q0.3281288 -0.5 0.5468788 -1.484375l0.328125 -1.484375q0.3125 -1.40625 0.953125 -2.125q0.640625 -0.734375 1.734375 -0.734375q1.421875 0 2.234375 1.109375q0.8125 1.09375 0.8125 2.984375q0 1.859375 -0.828125 2.953125q-0.84375 1.078125 -2.453125 1.140625l0 -1.59375q0.90625 -0.03125 1.390625 -0.703125q0.484375 -0.6875 0.484375 -1.875q0 -1.15625 -0.359375 -1.75q-0.375 -0.59375 -1.078125 -0.59375q-0.65625 0 -1.03125 0.59375q-0.375 0.59375 -0.734375 2.40625q-0.359375 1.828125 -1.015625 2.578125q-0.65625 0.734375 -1.7343788 0.734375q-1.265625 0 -2.0 -1.03125q-0.734375 -1.03125 -0.734375 -2.59375zm-3.453125 -18.585358l13.312504 0l0 1.765625l-13.312504 0l0 -1.765625zm-0.328125 -8.078033l13.953129 5.515625l0 1.375l-13.953129 -5.53125l0 -1.359375zm0 -6.759552q0 -1.9375 0.90625 -3.375q0.890625 -1.4375 2.515625 -2.21875q1.625 -0.78125 3.5625 -0.78125q1.9531288 0 3.5781288 0.78125q1.609375 0.765625 2.5 2.21875q0.890625 1.453125 0.890625 3.375q0 1.921875 -0.890625 3.375q-0.890625 1.4375 -2.5 2.234375q-1.625 0.78125 -3.5781288 0.78125q-3.03125 0 -5.0 -1.734375q-1.984375 -1.75 -1.984375 -4.65625zm6.984375 4.609375q1.4843788 0 2.7656288 -0.53125q1.28125 -0.546875 2.0 -1.59375q0.71875 -1.0625 0.71875 -2.484375q0 -2.140625 -1.546875 -3.375q-1.546875 -1.234375 -3.9375038 -1.234375q-2.375 0 -3.921875 1.234375q-1.5625 1.21875 -1.5625 3.40625q0 2.140625 1.5625 3.359375q1.5625 1.21875 3.921875 1.21875z" fill-rule="nonzero"/><path fill="#000000" fill-opacity="0.0" d="m119.031494 333.9497l0 -194.64568l43.11812 0l0 194.64568z" fill-rule="evenodd"/><path fill="#000000" d="m132.31087 240.36063q0 -2.203125 1.15625 -3.6875q1.140625 -1.5 3.171875 -1.796875l0 1.765625q-1.359375 0.296875 -2.09375 1.296875q-0.734375 0.984375 -0.734375 2.4375q0 2.125 1.5 3.328125q1.484375 1.1875 3.890625 1.1875q2.546875 0 4.0625 -1.171875q1.515625 -1.171875 1.515625 -3.359375q0 -1.625 -1.03125 -2.671875q-1.046875 -1.046875 -2.8125 -1.171875l0 -1.765625q2.578125 0.28125 3.953125 1.796875q1.375 1.5 1.375 3.96875q0 2.859375 -1.890625 4.515625q-1.890625 1.640625 -5.046875 1.640625q-3.109375 0 -5.0625 -1.703125q-1.953125 -1.703125 -1.953125 -4.609375zm3.78125 -11.722946q0 -2.1875 1.40625 -3.421875q1.40625 -1.25 3.640625 -1.25q2.25 0 3.65625 1.28125q1.390625 1.265625 1.390625 3.390625q0 2.09375 -1.375 3.390625q-1.375 1.296875 -3.671875 1.296875q-2.296875 0 -3.671875 -1.265625q-1.375 -1.265625 -1.375 -3.421875zm5.046875 3.015625q1.65625 0 2.65625 -0.84375q0.984375 -0.859375 0.984375 -2.171875q0 -1.296875 -0.984375 -2.140625q-1.0 -0.859375 -2.65625 -0.859375q-1.640625 0 -2.640625 0.84375q-1.015625 0.84375 -1.015625 2.171875q0 1.28125 0.984375 2.140625q0.984375 0.859375 2.671875 0.859375zm-5.046875 -14.228394q0 -1.75 0.890625 -2.53125q0.890625 -0.796875 2.546875 -0.796875l6.421875 0l0 1.59375l-6.59375 0q-0.8125 0 -1.34375 0.53125q-0.53125 0.515625 -0.53125 1.4375q0 1.34375 0.828125 2.09375q0.8125 0.75 2.125 0.75l5.515625 0l0 1.59375l-9.640625 0l0 -1.5l1.53125 0l0 -0.03125q-0.90625 -0.53125 -1.328125 -1.296875q-0.421875 -0.78125 -0.421875 -1.84375zm0 -8.922592q0 -1.9375 0.75 -2.890625q0.75 -0.953125 2.265625 -1.03125l0 1.578125l-0.03125 0q-0.765625 0.0625 -1.171875 0.671875q-0.421875 0.609375 -0.421875 1.5625q0 0.953125 0.328125 1.515625q0.3125 0.546875 0.90625 0.546875q0.515625 0 0.859375 -0.484375q0.328125 -0.5 0.546875 -1.484375l0.328125 -1.484375q0.3125 -1.40625 0.953125 -2.125q0.640625 -0.734375 1.734375 -0.734375q1.421875 0 2.234375 1.109375q0.8125 1.09375 0.8125 2.984375q0 1.859375 -0.828125 2.953125q-0.84375 1.078125 -2.453125 1.140625l0 -1.59375q0.90625 -0.03125 1.390625 -0.703125q0.484375 -0.6875 0.484375 -1.875q0 -1.15625 -0.359375 -1.75q-0.375 -0.59375 -1.078125 -0.59375q-0.65625 0 -1.03125 0.59375q-0.375 0.59375 -0.734375 2.40625q-0.359375 1.828125 -1.015625 2.578125q-0.65625 0.734375 -1.734375 0.734375q-1.265625 0 -2.0 -1.03125q-0.734375 -1.03125 -0.734375 -2.59375zm0 -10.28125q0 -2.1875 1.40625 -3.421875q1.40625 -1.25 3.640625 -1.25q2.25 0 3.65625 1.28125q1.390625 1.265625 1.390625 3.390625q0 2.09375 -1.375 3.390625q-1.375 1.296875 -3.671875 1.296875q-2.296875 0 -3.671875 -1.265625q-1.375 -1.265625 -1.375 -3.421875zm5.046875 3.015625q1.65625 0 2.65625 -0.84375q0.984375 -0.859375 0.984375 -2.171875q0 -1.296875 -0.984375 -2.140625q-1.0 -0.859375 -2.65625 -0.859375q-1.640625 0 -2.640625 0.84375q-1.015625 0.84375 -1.015625 2.171875q0 1.28125 0.984375 2.140625q0.984375 0.859375 2.671875 0.859375zm-8.5 -11.244019l13.3125 0l0 1.59375l-13.3125 0l0 -1.59375zm3.453125 -6.472946q0 -2.078125 1.5 -3.21875q1.484375 -1.15625 3.828125 -1.15625l0.1875 0l0 7.234375l0.109375 0q1.390625 0 2.234375 -0.796875q0.828125 -0.8125 0.828125 -2.21875q0 -1.046875 -0.484375 -1.671875q-0.5 -0.625 -1.40625 -0.828125l0 -1.5625q1.609375 0.328125 2.453125 1.40625q0.84375 1.078125 0.84375 2.71875q0 1.515625 -0.6875 2.578125q-0.6875 1.046875 -1.90625 1.546875q-1.234375 0.5 -2.515625 0.5q-2.140625 0 -3.5625 -1.28125q-1.421875 -1.296875 -1.421875 -3.25zm4.109375 2.859375l0 -5.546875q-1.171875 0.078125 -1.9375 0.859375q-0.78125 0.765625 -0.78125 1.9375q0 1.09375 0.734375 1.875q0.734375 0.765625 1.984375 0.875zm-7.5625 -16.156876l13.3125 0l0 1.765625l-13.3125 0l0 -1.765625zm-0.328125 -8.078033l13.953125 5.515625l0 1.375l-13.953125 -5.53125l0 -1.359375zm0 -6.759552q0 -1.9375 0.90625 -3.375q0.890625 -1.4375 2.515625 -2.21875q1.625 -0.78125 3.5625 -0.78125q1.953125 0 3.578125 0.78125q1.609375 0.765625 2.5 2.21875q0.890625 1.453125 0.890625 3.375q0 1.921875 -0.890625 3.375q-0.890625 1.4375 -2.5 2.234375q-1.625 0.78125 -3.578125 0.78125q-3.03125 0 -5.0 -1.734375q-1.984375 -1.75 -1.984375 -4.65625zm6.984375 4.609375q1.484375 0 2.765625 -0.53125q1.28125 -0.546875 2.0 -1.59375q0.71875 -1.0625 0.71875 -2.484375q0 -2.140625 -1.546875 -3.375q-1.546875 -1.234375 -3.9375 -1.234375q-2.375 0 -3.921875 1.234375q-1.5625 1.21875 -1.5625 3.40625q0 2.140625 1.5625 3.359375q1.5625 1.21875 3.921875 1.21875z" fill-rule="nonzero"/><path fill="#000000" fill-opacity="0.0" d="m194.62204 255.90027l0 -116.598434l43.11812 0l0 116.598434z" fill-rule="evenodd"/><path fill="#000000" d="m208.22954 219.9005l10.046875 0q1.578125 0 2.578125 1.0q1.0 0.984375 1.0 2.921875q0 1.796875 -0.9375 2.84375q-0.953125 1.046875 -3.296875 1.046875l-0.453125 0l0 -1.78125l0.40625 0q1.640625 0 2.21875 -0.53125q0.578125 -0.53125 0.578125 -1.609375q0 -1.09375 -0.578125 -1.609375q-0.578125 -0.515625 -1.75 -0.515625l-9.8125 0l0 -1.765625zm-0.328125 -7.4021454q0 -2.21875 1.078125 -3.515625q1.078125 -1.3125 3.140625 -1.390625l0 1.671875q-1.359375 0.15625 -2.03125 1.0q-0.6875 0.828125 -0.6875 2.3125q0 1.421875 0.59375 2.203125q0.578125 0.78125 1.671875 0.78125q0.78125 0 1.28125 -0.65625q0.5 -0.671875 1.09375 -3.625q0.4375 -2.125 1.34375 -3.171875q0.90625 -1.0625 2.5 -1.0625q1.859375 0 2.921875 1.515625q1.046875 1.515625 1.046875 3.6875q0 2.421875 -1.203125 3.953125q-1.21875 1.53125 -3.484375 1.546875l0 -1.6875q1.515625 -0.015625 2.359375 -1.078125q0.84375 -1.078125 0.84375 -2.796875q0 -1.609375 -0.625 -2.484375q-0.625 -0.890625 -1.796875 -0.890625q-0.953125 0 -1.515625 0.8125q-0.578125 0.8125 -1.0 2.9375q-0.53125 2.84375 -1.375 3.8125q-0.859375 0.953125 -2.25 0.953125q-1.796875 0 -2.84375 -1.359375q-1.0625 -1.359375 -1.0625 -3.46875zm0 -13.244553q0 -1.9375 0.90625 -3.375q0.890625 -1.4375 2.515625 -2.21875q1.625 -0.78125 3.5625 -0.78125q1.953125 0 3.578125 0.78125q1.609375 0.765625 2.5 2.21875q0.890625 1.453125 0.890625 3.375q0 1.921875 -0.890625 3.375q-0.890625 1.4375 -2.5 2.234375q-1.625 0.78125 -3.578125 0.78125q-3.03125 0 -5.0 -1.734375q-1.984375 -1.75 -1.984375 -4.65625zm6.984375 4.609375q1.484375 0 2.765625 -0.53125q1.28125 -0.546875 2.0 -1.59375q0.71875 -1.0625 0.71875 -2.484375q0 -2.140625 -1.546875 -3.375q-1.546875 -1.234375 -3.9375 -1.234375q-2.375 0 -3.921875 1.234375q-1.5625 1.21875 -1.5625 3.40625q0 2.140625 1.5625 3.359375q1.5625 1.21875 3.921875 1.21875zm-6.65625 -15.018127l10.796875 -7.015625l0 -0.03125l-10.796875 0l0 -1.671875l13.3125 0l0 1.9375l-10.6875 6.953125l0 0.046875l10.6875 0l0 1.671875l-13.3125 0l0 -1.890625zm0 -18.625l13.3125 0l0 1.765625l-13.3125 0l0 -1.765625zm-0.328125 -8.078033l13.953125 5.515625l0 1.375l-13.953125 -5.53125l0 -1.359375zm0 -6.759552q0 -1.9375 0.90625 -3.375q0.890625 -1.4375 2.515625 -2.21875q1.625 -0.78125 3.5625 -0.78125q1.953125 0 3.578125 0.78125q1.609375 0.765625 2.5 2.21875q0.890625 1.453125 0.890625 3.375q0 1.921875 -0.890625 3.375q-0.890625 1.4375 -2.5 2.234375q-1.625 0.78125 -3.578125 0.78125q-3.03125 0 -5.0 -1.734375q-1.984375 -1.75 -1.984375 -4.65625zm6.984375 4.609375q1.484375 0 2.765625 -0.53125q1.28125 -0.546875 2.0 -1.59375q0.71875 -1.0625 0.71875 -2.484375q0 -2.140625 -1.546875 -3.375q-1.546875 -1.234375 -3.9375 -1.234375q-2.375 0 -3.921875 1.234375q-1.5625 1.21875 -1.5625 3.40625q0 2.140625 1.5625 3.359375q1.5625 1.21875 3.921875 1.21875z" fill-rule="nonzero"/><path fill="#000000" fill-opacity="0.0" d="m270.2126 255.90027l0 -116.598434l43.118134 0l0 116.598434z" fill-rule="evenodd"/><path fill="#000000" d="m283.8201 214.34827l5.203125 -3.3125l-5.203125 -3.484375l0 -1.96875l6.46875 4.40625l6.84375 -4.6875l0 2.171875l-5.5 3.578125l5.5 3.6875l0 2.0l-6.84375 -4.640625l-6.46875 4.375l0 -2.125zm0 -12.942856l11.1875 -4.1875l-11.1875 -4.21875l0 -2.421875l13.3125 0l0 1.671875l-11.09375 0l0 0.03125l11.09375 4.171875l0 1.5l-11.09375 4.171875l0 0.03125l11.09375 0l0 1.671875l-13.3125 0l0 -2.421875zm0 -15.548218l11.8125 0l0 -7.0625l1.5 0l0 8.828125l-13.3125 0l0 -1.765625zm0 -15.637146l13.3125 0l0 1.765625l-13.3125 0l0 -1.765625zm-0.328125 -8.078033l13.953125 5.515625l0 1.375l-13.953125 -5.53125l0 -1.359375zm0 -6.759552q0 -1.9375 0.90625 -3.375q0.890625 -1.4375 2.515625 -2.21875q1.625 -0.78125 3.5625 -0.78125q1.953125 0 3.578125 0.78125q1.609375 0.765625 2.5 2.21875q0.890625 1.453125 0.890625 3.375q0 1.921875 -0.890625 3.375q-0.890625 1.4375 -2.5 2.234375q-1.625 0.78125 -3.578125 0.78125q-3.03125 0 -5.0 -1.734375q-1.984375 -1.75 -1.984375 -4.65625zm6.984375 4.609375q1.484375 0 2.765625 -0.53125q1.28125 -0.546875 2.0 -1.59375q0.71875 -1.0625 0.71875 -2.484375q0 -2.140625 -1.546875 -3.375q-1.546875 -1.234375 -3.9375 -1.234375q-2.375 0 -3.921875 1.234375q-1.5625 1.21875 -1.5625 3.40625q0 2.140625 1.5625 3.359375q1.5625 1.21875 3.921875 1.21875z" fill-rule="nonzero"/><path fill="#000000" fill-opacity="0.0" d="m345.80316 282.90286l0 -143.59055l43.118103 0l0 143.59055z" fill-rule="evenodd"/><path fill="#000000" d="m359.08252 231.45656q0 -2.21875 1.078125 -3.515625q1.078125 -1.3125 3.140625 -1.390625l0 1.671875q-1.359375 0.15625 -2.03125 1.0q-0.6875 0.828125 -0.6875 2.3125q0 1.421875 0.59375 2.203125q0.578125 0.78125 1.671875 0.78125q0.78125 0 1.28125 -0.65625q0.5 -0.671875 1.09375 -3.625q0.4375 -2.125 1.34375 -3.171875q0.90625 -1.0625 2.5 -1.0625q1.859375 0 2.921875 1.515625q1.046875 1.515625 1.046875 3.6875q0 2.421875 -1.203125 3.953125q-1.21875 1.53125 -3.484375 1.546875l0 -1.6875q1.515625 -0.015625 2.359375 -1.078125q0.84375 -1.078125 0.84375 -2.796875q0 -1.609375 -0.625 -2.484375q-0.625 -0.890625 -1.796875 -0.890625q-0.953125 0 -1.515625 0.8125q-0.578125 0.8125 -1.0 2.9375q-0.53125 2.84375 -1.375 3.8125q-0.859375 0.953125 -2.25 0.953125q-1.796875 0 -2.84375 -1.359375q-1.0625 -1.359375 -1.0625 -3.46875zm1.109375 -9.48674l2.890625 0l0 -1.921875l1.390625 0l0 1.921875l6.046875 0q0.71875 0 0.765625 -0.484375q0.03125 -0.484375 0.03125 -1.0l0 -0.4375l1.40625 0l0 1.296875q0 1.3125 -0.453125 1.765625q-0.46875 0.4375 -1.5625 0.4375l-6.234375 0l0 1.65625l-1.390625 0l0 -1.65625l-2.890625 0l0 -1.578125zm2.65625 -8.485001q0 -0.046875 0 -0.09375q0 -0.046875 0.015625 -0.125l1.671875 0q0 1.796875 0.953125 2.65625q0.9375 0.84375 2.921875 0.84375l4.3125 0l0 1.578125l-9.640625 0l0 -1.484375l2.03125 0l0 -0.046875q-1.15625 -0.546875 -1.703125 -1.359375q-0.5625 -0.828125 -0.5625 -1.96875zm-3.4375 -3.087677l1.9375 0l0 1.59375l-1.9375 0l0 -1.59375zm3.671875 0l9.640625 0l0 1.59375l-9.640625 0l0 -1.59375zm-0.21875 -7.129196q0 -1.75 0.890625 -2.53125q0.890625 -0.796875 2.546875 -0.796875l6.421875 0l0 1.59375l-6.59375 0q-0.8125 0 -1.34375 0.53125q-0.53125 0.515625 -0.53125 1.4375q0 1.34375 0.828125 2.09375q0.8125 0.75 2.125 0.75l5.515625 0l0 1.59375l-9.640625 0l0 -1.5l1.53125 0l0 -0.03125q-0.90625 -0.53125 -1.328125 -1.296875q-0.421875 -0.78125 -0.421875 -1.84375zm0 -9.641342q0 -1.0 0.4375 -1.734375q0.4375 -0.75 1.15625 -1.140625l0 -0.03125l-1.375 0l0 -1.484375l8.921875 0q2.265625 0 3.453125 1.09375q1.1875 1.09375 1.1875 3.375q0 1.65625 -0.734375 2.796875q-0.734375 1.125 -2.109375 1.203125l0 -1.578125q0.75 -0.046875 1.15625 -0.796875q0.421875 -0.75 0.421875 -1.703125q0 -1.40625 -0.9375 -2.15625q-0.921875 -0.75 -2.75 -0.75l-0.609375 0l0 0.046875q0.796875 0.375 1.28125 1.1875q0.46875 0.796875 0.46875 1.828125q0 1.953125 -1.34375 3.125q-1.359375 1.171875 -3.53125 1.171875q-2.21875 0 -3.65625 -1.171875q-1.4375 -1.171875 -1.4375 -3.28125zm4.890625 2.78125q1.71875 0 2.703125 -0.71875q0.984375 -0.734375 0.984375 -2.015625q0 -1.3125 -1.015625 -2.078125q-1.015625 -0.78125 -2.71875 -0.78125q-1.546875 0 -2.5 0.71875q-0.953125 0.71875 -0.953125 2.03125q0 1.328125 0.953125 2.09375q0.953125 0.75 2.546875 0.75zm-4.890625 -12.775269q0 -1.9375 0.75 -2.890625q0.75 -0.953125 2.265625 -1.03125l0 1.578125l-0.03125 0q-0.765625 0.0625 -1.171875 0.671875q-0.421875 0.609375 -0.421875 1.5625q0 0.953125 0.328125 1.515625q0.3125 0.546875 0.90625 0.546875q0.515625 0 0.859375 -0.484375q0.328125 -0.5 0.546875 -1.484375l0.328125 -1.484375q0.3125 -1.40625 0.953125 -2.125q0.640625 -0.734375 1.734375 -0.734375q1.421875 0 2.234375 1.109375q0.8125 1.09375 0.8125 2.984375q0 1.859375 -0.828125 2.953125q-0.84375 1.078125 -2.453125 1.140625l0 -1.59375q0.90625 -0.03125 1.390625 -0.703125q0.484375 -0.6875 0.484375 -1.875q0 -1.15625 -0.359375 -1.75q-0.375 -0.59375 -1.078125 -0.59375q-0.65625 0 -1.03125 0.59375q-0.375 0.59375 -0.734375 2.40625q-0.359375 1.828125 -1.015625 2.578125q-0.65625 0.734375 -1.734375 0.734375q-1.265625 0 -2.0 -1.03125q-0.734375 -1.03125 -0.734375 -2.59375zm-3.453125 -13.402054l13.3125 0l0 1.765625l-13.3125 0l0 -1.765625zm-0.328125 -8.078033l13.953125 5.515625l0 1.375l-13.953125 -5.53125l0 -1.359375zm0 -6.759552q0 -1.9374847 0.90625 -3.3749847q0.890625 -1.4375 2.515625 -2.21875q1.625 -0.78125 3.5625 -0.78125q1.953125 0 3.578125 0.78125q1.609375 0.765625 2.5 2.21875q0.890625 1.453125 0.890625 3.3749847q0 1.921875 -0.890625 3.375q-0.890625 1.4375 -2.5 2.234375q-1.625 0.78125 -3.578125 0.78125q-3.03125 0 -5.0 -1.734375q-1.984375 -1.75 -1.984375 -4.65625zm6.984375 4.609375q1.484375 0 2.765625 -0.53125q1.28125 -0.546875 2.0 -1.59375q0.71875 -1.0625 0.71875 -2.484375q0 -2.1406097 -1.546875 -3.3749847q-1.546875 -1.234375 -3.9375 -1.234375q-2.375 0 -3.921875 1.234375q-1.5625 1.21875 -1.5625 3.4062347q0 2.140625 1.5625 3.359375q1.5625 1.21875 3.921875 1.21875z" fill-rule="nonzero"/><path fill="#000000" fill-opacity="0.0" d="m459.18896 260.85565l0 -116.598434l43.118134 0l0 116.598434z" fill-rule="evenodd"/><path fill="#000000" d="m472.46835 213.50346q0 -2.203125 1.15625 -3.6875q1.140625 -1.5 3.171875 -1.796875l0 1.765625q-1.359375 0.296875 -2.09375 1.296875q-0.734375 0.984375 -0.734375 2.4375q0 2.125 1.5 3.328125q1.484375 1.1875 3.890625 1.1875q2.546875 0 4.0625 -1.171875q1.515625 -1.171875 1.515625 -3.359375q0 -1.625 -1.03125 -2.671875q-1.046875 -1.046875 -2.8125 -1.171875l0 -1.765625q2.578125 0.28125 3.953125 1.796875q1.375 1.5 1.375 3.96875q0 2.859375 -1.890625 4.515625q-1.890625 1.640625 -5.046875 1.640625q-3.109375 0 -5.0625 -1.703125q-1.953125 -1.703125 -1.953125 -4.609375zm0 -12.301071q0 -2.21875 1.078125 -3.515625q1.078125 -1.3125 3.140625 -1.390625l0 1.671875q-1.359375 0.15625 -2.03125 1.0q-0.6875 0.828125 -0.6875 2.3125q0 1.421875 0.59375 2.203125q0.578125 0.78125 1.671875 0.78125q0.78125 0 1.28125 -0.65625q0.5 -0.671875 1.09375 -3.625q0.4375 -2.125 1.34375 -3.171875q0.90625 -1.0625 2.5 -1.0625q1.859375 0 2.921875 1.515625q1.046875 1.515625 1.046875 3.6875q0 2.421875 -1.203125 3.953125q-1.21875 1.53125 -3.484375 1.546875l0 -1.6875q1.515625 -0.015625 2.359375 -1.078125q0.84375 -1.078125 0.84375 -2.796875q0 -1.609375 -0.625 -2.484375q-0.625 -0.890625 -1.796875 -0.890625q-0.953125 0 -1.515625 0.8125q-0.578125 0.8125 -1.0 2.9375q-0.53125 2.84375 -1.375 3.8125q-0.859375 0.953125 -2.25 0.953125q-1.796875 0 -2.84375 -1.359375q-1.0625 -1.359375 -1.0625 -3.46875zm0.328125 -8.057053l11.53125 -3.8125l0 -0.03125l-11.53125 -3.84375l0 -1.84375l13.3125 4.734375l0 2.015625l-13.3125 4.703125l0 -1.921875zm0 -17.96991l13.3125 0l0 1.765625l-13.3125 0l0 -1.765625zm-0.328125 -8.078033l13.953125 5.515625l0 1.375l-13.953125 -5.53125l0 -1.359375zm0 -6.759552q0 -1.9375 0.90625 -3.375q0.890625 -1.4375 2.515625 -2.21875q1.625 -0.78125 3.5625 -0.78125q1.953125 0 3.578125 0.78125q1.609375 0.765625 2.5 2.21875q0.890625 1.453125 0.890625 3.375q0 1.921875 -0.890625 3.375q-0.890625 1.4375 -2.5 2.234375q-1.625 0.78125 -3.578125 0.78125q-3.03125 0 -5.0 -1.734375q-1.984375 -1.75 -1.984375 -4.65625zm6.984375 4.609375q1.484375 0 2.765625 -0.53125q1.28125 -0.546875 2.0 -1.59375q0.71875 -1.0625 0.71875 -2.484375q0 -2.140625 -1.546875 -3.375q-1.546875 -1.234375 -3.9375 -1.234375q-2.375 0 -3.921875 1.234375q-1.5625 1.21875 -1.5625 3.40625q0 2.140625 1.5625 3.359375q1.5625 1.21875 3.921875 1.21875z" fill-rule="nonzero"/><path fill="#000000" fill-opacity="0.0" d="m229.20473 357.49475l175.937 0l0 43.118103l-175.937 0z" fill-rule="evenodd"/><path fill="#000000" d="m278.84006 370.7741q2.203125 0 3.6875 1.15625q1.5 1.140625 1.796875 3.171875l-1.765625 0q-0.296875 -1.359375 -1.296875 -2.09375q-0.984375 -0.734375 -2.4375 -0.734375q-2.125 0 -3.328125 1.5q-1.1875 1.484375 -1.1875 3.890625q0 2.546875 1.171875 4.0625q1.171875 1.515625 3.359375 1.515625q1.625 0 2.671875 -1.03125q1.046875 -1.046875 1.171875 -2.8125l1.765625 0q-0.28125 2.578125 -1.796875 3.953125q-1.5 1.375 -3.96875 1.375q-2.859375 0 -4.515625 -1.890625q-1.640625 -1.890625 -1.640625 -5.046875q0 -3.109375 1.703125 -5.0625q1.703125 -1.953125 4.609375 -1.953125zm9.144836 0.328125l0 5.09375l0.03125 0q0.34375 -0.78125 1.171875 -1.203125q0.828125 -0.4375 1.875 -0.4375q1.75 0 2.53125 0.890625q0.796875 0.890625 0.796875 2.546875l0 6.421875l-1.59375 0l0 -6.59375q0 -0.8125 -0.53125 -1.34375q-0.515625 -0.53125 -1.4375 -0.53125q-1.34375 0 -2.09375 0.828125q-0.75 0.8125 -0.75 2.125l0 5.515625l-1.59375 0l0 -13.3125l1.59375 0zm12.735077 3.453125q1.96875 0 2.78125 0.703125q0.828125 0.6875 0.828125 1.875q0 5.015625 0 5.5625q0 0.546875 0.5 0.546875q0.109375 0 0.234375 -0.03125q0.140625 -0.03125 0.25 -0.0625l0 1.234375q-0.21875 0.125 -0.5 0.1875q-0.28125 0.078125 -0.625 0.078125q-0.65625 0 -1.0 -0.375q-0.34375 -0.375 -0.34375 -1.125q-0.640625 0.75 -1.5 1.125q-0.84375 0.375 -1.90625 0.375q-1.484375 0 -2.34375 -0.703125q-0.84375 -0.71875 -0.84375 -2.015625q0 -1.296875 0.828125 -2.046875q0.828125 -0.765625 3.90625 -1.15625q1.03125 -0.140625 1.390625 -0.390625q0.375 -0.265625 0.375 -0.796875q0 -0.796875 -0.515625 -1.1875q-0.5 -0.40625 -1.625 -0.40625q-1.171875 0 -1.765625 0.453125q-0.59375 0.4375 -0.640625 1.375l-1.578125 0q0.078125 -1.609375 1.125 -2.40625q1.0625 -0.8125 2.96875 -0.8125zm-2.796875 7.265625q0 0.671875 0.484375 1.046875q0.5 0.375 1.390625 0.375q1.34375 0 2.140625 -0.65625q0.796875 -0.671875 0.796875 -1.5l0 -1.65625q-0.390625 0.28125 -1.03125 0.390625q-0.640625 0.09375 -1.703125 0.234375q-1.046875 0.15625 -1.5625 0.578125q-0.515625 0.421875 -0.515625 1.1875zm13.676697 -7.28125q0.046875 0 0.09375 0q0.046875 0 0.125 0.015625l0 1.671875q-1.796875 0 -2.65625 0.953125q-0.84375 0.9375 -0.84375 2.921875l0 4.3125l-1.578125 0l0 -9.640625l1.484375 0l0 2.03125l0.046875 0q0.546875 -1.15625 1.359375 -1.703125q0.828125 -0.5625 1.96875 -0.5625zm4.906708 0.015625q1.96875 0 2.78125 0.703125q0.828125 0.6875 0.828125 1.875q0 5.015625 0 5.5625q0 0.546875 0.5 0.546875q0.109375 0 0.234375 -0.03125q0.140625 -0.03125 0.25 -0.0625l0 1.234375q-0.21875 0.125 -0.5 0.1875q-0.28125 0.078125 -0.625 0.078125q-0.65625 0 -1.0 -0.375q-0.34375 -0.375 -0.34375 -1.125q-0.640625 0.75 -1.5 1.125q-0.84375 0.375 -1.90625 0.375q-1.484375 0 -2.34375 -0.703125q-0.84375 -0.71875 -0.84375 -2.015625q0 -1.296875 0.828125 -2.046875q0.828125 -0.765625 3.90625 -1.15625q1.03125 -0.140625 1.390625 -0.390625q0.375 -0.265625 0.375 -0.796875q0 -0.796875 -0.515625 -1.1875q-0.5 -0.40625 -1.625 -0.40625q-1.171875 0 -1.765625 0.453125q-0.59375 0.4375 -0.640625 1.375l-1.578125 0q0.078125 -1.609375 1.125 -2.40625q1.0625 -0.8125 2.96875 -0.8125zm-2.796875 7.265625q0 0.671875 0.484375 1.046875q0.5 0.375 1.390625 0.375q1.34375 0 2.140625 -0.65625q0.796875 -0.671875 0.796875 -1.5l0 -1.65625q-0.390625 0.28125 -1.03125 0.390625q-0.640625 0.09375 -1.703125 0.234375q-1.046875 0.15625 -1.5625 0.578125q-0.515625 0.421875 -0.515625 1.1875zm12.895447 -7.265625q1.765625 0 2.859375 0.84375q1.109375 0.828125 1.296875 2.46875l-1.625 0q-0.203125 -0.9375 -0.828125 -1.421875q-0.625 -0.5 -1.5625 -0.5q-1.484375 0 -2.25 0.984375q-0.765625 0.984375 -0.765625 2.78125q0 1.609375 0.75 2.578125q0.765625 0.953125 2.078125 0.953125q1.15625 0 1.8125 -0.625q0.671875 -0.625 0.828125 -1.734375l1.625 0q-0.265625 1.8125 -1.359375 2.796875q-1.09375 0.96875 -2.890625 0.96875q-2.109375 0 -3.3125 -1.328125q-1.203125 -1.328125 -1.203125 -3.609375q0 -2.359375 1.21875 -3.75q1.21875 -1.40625 3.328125 -1.40625zm8.192322 -2.671875l0 2.890625l1.921875 0l0 1.390625l-1.921875 0l0 6.046875q0 0.71875 0.484375 0.765625q0.484375 0.03125 1.0 0.03125l0.4375 0l0 1.40625l-1.296875 0q-1.3125 0 -1.765625 -0.453125q-0.4375 -0.46875 -0.4375 -1.5625l0 -6.234375l-1.65625 0l0 -1.390625l1.65625 0l0 -2.890625l1.578125 0zm7.460266 2.671875q2.078125 0 3.21875 1.5q1.15625 1.484375 1.15625 3.828125l0 0.1875l-7.234375 0l0 0.109375q0 1.390625 0.796875 2.234375q0.8125 0.828125 2.21875 0.828125q1.046875 0 1.671875 -0.484375q0.625 -0.5 0.828125 -1.40625l1.5625 0q-0.328125 1.609375 -1.40625 2.453125q-1.078125 0.84375 -2.71875 0.84375q-1.515625 0 -2.578125 -0.6875q-1.046875 -0.6875 -1.546875 -1.90625q-0.5 -1.234375 -0.5 -2.515625q0 -2.140625 1.28125 -3.5625q1.296875 -1.421875 3.25 -1.421875zm-2.859375 4.109375l5.546875 0q-0.078125 -1.171875 -0.859375 -1.9375q-0.765625 -0.78125 -1.9375 -0.78125q-1.09375 0 -1.875 0.734375q-0.765625 0.734375 -0.875 1.984375zm13.676697 -4.125q0.046875 0 0.09375 0q0.046875 0 0.125 0.015625l0 1.671875q-1.796875 0 -2.65625 0.953125q-0.84375 0.9375 -0.84375 2.921875l0 4.3125l-1.578125 0l0 -9.640625l1.484375 0l0 2.03125l0.046875 0q0.546875 -1.15625 1.359375 -1.703125q0.828125 -0.5625 1.96875 -0.5625zm4.6188965 0.015625q1.9375 0 2.890625 0.75q0.953125 0.75 1.03125 2.265625l-1.578125 0l0 -0.03125q-0.0625 -0.765625 -0.671875 -1.171875q-0.609375 -0.421875 -1.5625 -0.421875q-0.9530945 0 -1.5155945 0.328125q-0.546875 0.3125 -0.546875 0.90625q0 0.515625 0.484375 0.859375q0.5 0.328125 1.4843445 0.546875l1.484375 0.328125q1.40625 0.3125 2.125 0.953125q0.734375 0.640625 0.734375 1.734375q0 1.421875 -1.109375 2.234375q-1.09375 0.8125 -2.984375 0.8125q-1.8593445 0 -2.9530945 -0.828125q-1.078125 -0.84375 -1.140625 -2.453125l1.59375 0q0.03125 0.90625 0.703125 1.390625q0.6875 0.484375 1.8749695 0.484375q1.15625 0 1.75 -0.359375q0.59375 -0.375 0.59375 -1.078125q0 -0.65625 -0.59375 -1.03125q-0.59375 -0.375 -2.40625 -0.734375q-1.8280945 -0.359375 -2.5780945 -1.015625q-0.734375 -0.65625 -0.734375 -1.734375q0 -1.265625 1.03125 -2.0q1.03125 -0.734375 2.5937195 -0.734375z" fill-rule="nonzero"/><path fill="#22b5ad" d="m26.175854 30.204725l530.1732 0l0 75.590546l-530.1732 0z" fill-rule="evenodd"/><path stroke="#ffffff" stroke-width="1.0" stroke-linejoin="round" stroke-linecap="butt" d="m26.175854 30.204725l530.1732 0l0 75.590546l-530.1732 0z" fill-rule="evenodd"/><path fill="#ffffff" d="m255.98708 74.92l0 -13.359379l9.01561 0l0 1.578125l-7.25 0l0 4.140629l6.265625 0l0 1.578125l-6.265625 0l0 6.0625l-1.7656097 0zm11.099106 -11.468754l0 -1.890625l1.640625 0l0 1.890625l-1.640625 0zm0 11.468754l0 -9.671875l1.640625 0l0 9.671875l-1.640625 0zm4.097931 0l0 -13.359379l1.640625 0l0 13.359379l-1.640625 0zm10.816711 -3.109375l1.6874695 0.203125q-0.40625 1.484375 -1.484375 2.3125q-1.0780945 0.8125 -2.7655945 0.8125q-2.125 0 -3.375 -1.296875q-1.234375 -1.3125 -1.234375 -3.671875q0 -2.453125 1.25 -3.796875q1.265625 -1.34375 3.265625 -1.34375q1.9375 0 3.1562195 1.328125q1.234375 1.3125 1.234375 3.703125q0 0.15625 0 0.4375l-7.2187195 0q0.09375 1.59375 0.90625 2.453125q0.8125 0.84375 2.015625 0.84375q0.90625 0 1.546875 -0.46875q0.640625 -0.484375 1.015625 -1.515625zm-5.390625 -2.65625l5.40625 0q-0.109375 -1.21875 -0.625 -1.828125q-0.78125 -0.953125 -2.03125 -0.953125q-1.125 0 -1.90625 0.765625q-0.765625 0.75 -0.84375 2.015625zm12.029053 5.765625l5.125 -13.359379l1.90625 0l5.46875 13.359379l-2.015625 0l-1.546875 -4.046875l-5.59375 0l-1.46875 4.046875l-1.875 0zm3.859375 -5.484375l4.53125 0l-1.40625 -3.703125q-0.625 -1.6875 -0.9375 -2.7656288q-0.265625 1.2812538 -0.71875 2.5468788l-1.46875 3.921875zm10.052948 5.484375l0 -13.359379l5.046875 0q1.328125 0 2.03125 0.125q0.96875 0.171875 1.640625 0.640625q0.671875 0.453125 1.078125 1.28125q0.40625 0.8281288 0.40625 1.8281288q0 1.703125 -1.09375 2.890625q-1.078125 1.171875 -3.921875 1.171875l-3.421875 0l0 5.421875l-1.765625 0zm1.765625 -7.0l3.453125 0q1.71875 0 2.4375 -0.640625q0.71875 -0.640625 0.71875 -1.796875q0 -0.84375 -0.421875 -1.4375q-0.421875 -0.5937538 -1.125 -0.7812538q-0.4375 -0.125 -1.640625 -0.125l-3.421875 0l0 4.781254zm10.974823 7.0l0 -13.359379l1.765625 0l0 13.359379l-1.765625 0zm4.027069 -2.890625l1.625 -0.25q0.125 0.96875 0.75 1.5q0.625 0.515625 1.75 0.515625q1.125 0 1.671875 -0.453125q0.546875 -0.46875 0.546875 -1.09375q0 -0.546875 -0.484375 -0.875q-0.328125 -0.21875 -1.671875 -0.546875q-1.8125 -0.46875 -2.515625 -0.796875q-0.6875 -0.328125 -1.046875 -0.90625q-0.359375 -0.59375 -0.359375 -1.3125q0 -0.640625 0.296875 -1.1875q0.296875 -0.5625 0.8125 -0.921875q0.375 -0.28125 1.03125 -0.46875q0.671875 -0.203125 1.421875 -0.203125q1.140625 0 2.0 0.328125q0.859375 0.328125 1.265625 0.890625q0.421875 0.5625 0.578125 1.5l-1.609375 0.21875q-0.109375 -0.75 -0.640625 -1.171875q-0.515625 -0.421875 -1.46875 -0.421875q-1.140625 0 -1.625 0.375q-0.46875 0.375 -0.46875 0.875q0 0.3125 0.1875 0.578125q0.203125 0.265625 0.640625 0.4375q0.234375 0.09375 1.4375 0.421875q1.75 0.453125 2.4375 0.75q0.6875 0.296875 1.078125 0.859375q0.390625 0.5625 0.390625 1.40625q0 0.828125 -0.484375 1.546875q-0.46875 0.71875 -1.375 1.125q-0.90625 0.390625 -2.046875 0.390625q-1.875 0 -2.875 -0.78125q-0.984375 -0.78125 -1.25 -2.328125z" fill-rule="nonzero"/><path fill="#dbdddc" d="m405.15747 265.2651l151.18109 0l0 75.590546l-151.18109 0z" fill-rule="evenodd"/><path stroke="#ffffff" stroke-width="1.0" stroke-linejoin="round" stroke-linecap="butt" d="m405.15747 265.2651l151.18109 0l0 75.590546l-151.18109 0z" fill-rule="evenodd"/><path fill="#000000" fill-opacity="0.0" d="m411.51968 284.00787l138.4567 0l0 43.118103l-138.4567 0z" fill-rule="evenodd"/><path fill="#000000" d="m453.66214 297.6154q1.734375 0 2.84375 0.921875q1.109375 0.90625 1.109375 2.5625q0 1.3125 -0.578125 2.1875q-0.5625 0.859375 -1.734375 1.1875l0 0.03125q1.015625 0.203125 1.484375 0.953125q0.484375 0.734375 0.5625 2.53125q0.046875 1.171875 0.21875 1.84375q0.171875 0.65625 0.515625 1.09375l-1.984375 0q-0.15625 -0.21875 -0.203125 -0.421875q-0.046875 -0.21875 -0.09375 -0.59375l-0.078125 -1.46875q-0.03125 -1.03125 -0.453125 -2.09375q-0.40625 -1.0625 -1.8125 -1.109375l-4.390625 0l0 5.6875l-1.765625 0l0 -13.3125l6.359375 0zm-0.796875 6.140625q1.46875 0 2.21875 -0.578125q0.765625 -0.578125 0.765625 -1.8125q0 -1.0625 -0.609375 -1.65625q-0.59375 -0.609375 -1.6875 -0.609375l-4.484375 0l0 4.65625l3.796875 0zm10.96814 -2.6875q2.078125 0 3.21875 1.5q1.15625 1.484375 1.15625 3.828125l0 0.1875l-7.234375 0l0 0.109375q0 1.390625 0.796875 2.234375q0.8125 0.828125 2.21875 0.828125q1.046875 0 1.671875 -0.484375q0.625 -0.5 0.828125 -1.40625l1.5625 0q-0.328125 1.609375 -1.40625 2.453125q-1.078125 0.84375 -2.71875 0.84375q-1.515625 0 -2.578125 -0.6875q-1.046875 -0.6875 -1.546875 -1.90625q-0.5 -1.234375 -0.5 -2.515625q0 -2.140625 1.28125 -3.5625q1.296875 -1.421875 3.25 -1.421875zm-2.859375 4.109375l5.546875 0q-0.078125 -1.171875 -0.859375 -1.9375q-0.765625 -0.78125 -1.9375 -0.78125q-1.09375 0 -1.875 0.734375q-0.765625 0.734375 -0.875 1.984375zm12.895447 -4.109375q1.765625 0 2.859375 0.84375q1.109375 0.828125 1.296875 2.46875l-1.625 0q-0.203125 -0.9375 -0.828125 -1.421875q-0.625 -0.5 -1.5625 -0.5q-1.484375 0 -2.25 0.984375q-0.765625 0.984375 -0.765625 2.78125q0 1.609375 0.75 2.578125q0.765625 0.953125 2.078125 0.953125q1.15625 0 1.8125 -0.625q0.671875 -0.625 0.828125 -1.734375l1.625 0q-0.265625 1.8125 -1.359375 2.796875q-1.09375 0.96875 -2.890625 0.96875q-2.109375 0 -3.3125 -1.328125q-1.203125 -1.328125 -1.203125 -3.609375q0 -2.359375 1.21875 -3.75q1.21875 -1.40625 3.328125 -1.40625zm10.161072 0q2.1875 0 3.421875 1.40625q1.25 1.40625 1.25 3.640625q0 2.25 -1.28125 3.65625q-1.265625 1.390625 -3.390625 1.390625q-2.09375 0 -3.390625 -1.375q-1.296875 -1.375 -1.296875 -3.671875q0 -2.296875 1.265625 -3.671875q1.265625 -1.375 3.421875 -1.375zm-3.015625 5.046875q0 1.65625 0.84375 2.65625q0.859375 0.984375 2.171875 0.984375q1.296875 0 2.140625 -0.984375q0.859375 -1.0 0.859375 -2.65625q0 -1.640625 -0.84375 -2.640625q-0.84375 -1.015625 -2.171875 -1.015625q-1.28125 0 -2.140625 0.984375q-0.859375 0.984375 -0.859375 2.671875zm14.369019 -5.0625q0.046875 0 0.09375 0q0.046875 0 0.125 0.015625l0 1.671875q-1.796875 0 -2.65625 0.953125q-0.84375 0.9375 -0.84375 2.921875l0 4.3125l-1.578125 0l0 -9.640625l1.484375 0l0 2.03125l0.046875 0q0.546875 -1.15625 1.359375 -1.703125q0.828125 -0.5625 1.96875 -0.5625zm9.687927 -3.4375l0 13.3125l-1.59375 0l0 -1.296875l-0.03125 0q-0.375 0.734375 -1.1875 1.140625q-0.8125 0.390625 -1.890625 0.390625q-2.015625 0 -3.234375 -1.40625q-1.203125 -1.40625 -1.203125 -3.671875q0 -2.234375 1.171875 -3.625q1.171875 -1.390625 3.21875 -1.390625q0.953125 0 1.796875 0.390625q0.859375 0.375 1.328125 1.109375l0.03125 0l0 -4.953125l1.59375 0zm-7.46875 8.5625q0 1.5625 0.8125 2.578125q0.8125 1.0 2.1875 1.0q1.390625 0 2.15625 -1.0q0.78125 -1.015625 0.78125 -2.640625q0 -1.640625 -0.796875 -2.640625q-0.78125 -1.015625 -2.265625 -1.015625q-1.359375 0 -2.125 1.0q-0.75 0.984375 -0.75 2.71875zm13.121429 -5.109375q1.9375 0 2.890625 0.75q0.953125 0.75 1.03125 2.265625l-1.578125 0l0 -0.03125q-0.0625 -0.765625 -0.671875 -1.171875q-0.609375 -0.421875 -1.5625 -0.421875q-0.953125 0 -1.515625 0.328125q-0.546875 0.3125 -0.546875 0.90625q0 0.515625 0.484375 0.859375q0.5 0.328125 1.484375 0.546875l1.484375 0.328125q1.40625 0.3125 2.125 0.953125q0.734375 0.640625 0.734375 1.734375q0 1.421875 -1.109375 2.234375q-1.09375 0.8125 -2.984375 0.8125q-1.859375 0 -2.953125 -0.828125q-1.078125 -0.84375 -1.140625 -2.453125l1.59375 0q0.03125 0.90625 0.703125 1.390625q0.6875 0.484375 1.875 0.484375q1.15625 0 1.75 -0.359375q0.59375 -0.375 0.59375 -1.078125q0 -0.65625 -0.59375 -1.03125q-0.59375 -0.375 -2.40625 -0.734375q-1.828125 -0.359375 -2.578125 -1.015625q-0.734375 -0.65625 -0.734375 -1.734375q0 -1.265625 1.03125 -2.0q1.03125 -0.734375 2.59375 -0.734375z" fill-rule="nonzero"/></g></svg>